<?xml version="1.0" encoding="UTF-8" standalone="no"?>
<!-- Created with Inkscape (http://www.inkscape.org/) -->
<svg
   xmlns:dc="http://purl.org/dc/elements/1.1/"
   xmlns:cc="http://creativecommons.org/ns#"
   xmlns:rdf="http://www.w3.org/1999/02/22-rdf-syntax-ns#"
   xmlns:svg="http://www.w3.org/2000/svg"
   xmlns="http://www.w3.org/2000/svg"
   xmlns:sodipodi="http://sodipodi.sourceforge.net/DTD/sodipodi-0.dtd"
   xmlns:inkscape="http://www.inkscape.org/namespaces/inkscape"
   version="1.1"
   width="200"
   height="200"
   id="svg2"
   inkscape:version="0.46"
   sodipodi:docname="Italian_traffic_signs_-_icona_motocarrozzetta.svg"
   sodipodi:version="0.32"
   inkscape:output_extension="org.inkscape.output.svg.inkscape">
  <metadata
     id="metadata2877">
    <rdf:RDF>
      <cc:Work
         rdf:about="">
        <dc:format>image/svg+xml</dc:format>
        <dc:type
           rdf:resource="http://purl.org/dc/dcmitype/StillImage" />
      </cc:Work>
    </rdf:RDF>
  </metadata>
  <sodipodi:namedview
     pagecolor="#ffffff"
     bordercolor="#666666"
     borderopacity="1"
     objecttolerance="10"
     gridtolerance="10"
     guidetolerance="10"
     inkscape:pageopacity="0"
     inkscape:pageshadow="2"
     inkscape:window-width="1024"
     inkscape:window-height="708"
     id="namedview2875"
     showgrid="false"
     inkscape:zoom="1.9914447"
     inkscape:cx="115.51255"
     inkscape:cy="118.43692"
     inkscape:window-x="-4"
     inkscape:window-y="-4"
     inkscape:window-maximized="1"
     inkscape:current-layer="svg2" />
  <defs
     id="defs4">
    <inkscape:perspective
       sodipodi:type="inkscape:persp3d"
       inkscape:vp_x="0 : 100 : 1"
       inkscape:vp_y="0 : 1000 : 0"
       inkscape:vp_z="200 : 100 : 1"
       inkscape:persp3d-origin="100 : 66.666667 : 1"
       id="perspective2879" />
  </defs>
  <rect
     style="fill:#ffffff;fill-opacity:1;stroke:none"
     id="rect2881"
     width="200.9709"
     height="200.61583"
     x="0"
     y="-0.61582947"
     rx="0"
     ry="0" />
  <rect
     width="194.80612"
     height="194.80614"
     ry="18.580454"
     x="3.2339785"
     y="2.8621521"
     id="rect4614"
     style="fill:none;stroke:#000000;stroke-width:3;stroke-miterlimit:4;stroke-opacity:1;stroke-dasharray:none" />
  <g
     transform="matrix(5.9067135,-0.2256602,0.2256602,5.9067135,-1330.6437,-150.90159)"
     id="g2977">
    <path
       d="M 238.87228,41.521297 C 238.45344,41.507997 236.75732,41.625051 236.50378,43.297513 C 236.47748,43.321423 236.50178,44.075328 236.50178,44.075328 L 236.88062,44.087528 L 238.58419,43.925838 L 238.55189,45.600844 L 236.67837,46.879767 L 236.89977,47.881279 L 241.36958,44.913666 L 241.44548,43.408465 C 241.44548,43.408465 241.1578,41.602881 238.9623,41.532219 C 238.9624,41.529119 238.9317,41.523219 238.8721,41.521299 L 238.87228,41.521297 z M 241.45925,45.678363 C 241.23856,45.665933 240.97948,45.713353 240.66924,45.885497 C 240.64384,45.884698 236.13816,48.955402 236.13816,48.955402 L 233.6433,48.875102 C 233.6433,48.875102 232.61836,48.718659 232.57957,49.859324 C 232.57957,49.859324 232.45028,50.921723 233.44909,50.953871 L 237.06364,51.070219 C 237.82198,50.5588 238.58622,50.063727 239.34124,49.547674 L 241.617,51.465378 C 241.617,51.465378 237.99809,52.928707 237.99809,52.928707 C 237.33481,53.20944 237.1545,53.919994 237.44954,54.514914 C 237.37364,54.539494 240.40655,54.947367 240.45495,55.092796 C 240.30099,54.817553 240.30436,54.45779 240.70456,54.298904 C 240.70456,54.298904 245.49175,52.416091 245.49175,52.416091 C 245.85649,52.26882 246.16291,51.5988 245.61807,50.888465 C 245.61807,50.888475 242.20548,46.039197 242.20548,46.039197 C 242.20548,46.039197 241.94478,45.705735 241.45925,45.678364 L 241.45925,45.678363 z M 231.63359,52.226647 C 228.97608,52.141107 226.76119,54.188021 226.67323,56.774324 C 226.58543,59.357541 228.65762,61.505437 231.31511,61.590978 C 233.97359,61.676558 236.21904,59.668655 236.30692,57.084402 C 236.39482,54.499134 234.29207,52.312218 231.63359,52.226647 z M 249.18029,52.791436 C 246.52281,52.705906 244.30791,54.752807 244.21996,57.339101 C 244.13216,59.922329 246.20433,62.070223 248.86183,62.155764 C 251.5191,62.241304 253.76575,60.23345 253.85363,57.649188 C 253.94153,55.063921 251.83756,52.876958 249.18029,52.791436 L 249.18029,52.791436 z M 231.58645,53.612473 C 233.46308,53.672873 234.94449,55.212684 234.88241,57.038557 C 234.82031,58.863396 233.23861,60.273563 231.36196,60.213163 C 229.48608,60.152783 228.03547,58.643977 228.0975,56.820162 C 228.1595,54.995335 229.71155,53.552121 231.58645,53.612473 L 231.58645,53.612473 z M 249.13316,54.177257 C 251.0088,54.237627 252.49122,55.777468 252.42912,57.603333 C 252.36712,59.428192 250.78433,60.838311 248.90869,60.777949 C 247.03277,60.717559 245.58243,59.20877 245.64445,57.384958 C 245.70645,55.560119 247.25849,54.116916 249.13316,54.177257 z"
       id="path3299"
       style="fill:#000000" />
    <path
       d="M 248.80305,56.51756 L 249.14421,60.029655 L 243.37374,59.547756 C 243.39194,57.077893 239.69412,55.756926 238.30716,59.16988 L 232.41588,58.783458 C 228.52393,57.035058 229.93266,55.930771 232.50688,54.809798 L 237.35793,53.563507 L 242.87694,56.218711 L 248.80306,56.51756 L 248.80305,56.51756 z"
       id="path2511"
       style="fill:#000000;fill-opacity:1;fill-rule:evenodd;stroke:#ffffff;stroke-width:0.56024158;stroke-linecap:butt;stroke-linejoin:miter;stroke-miterlimit:4;stroke-dasharray:none;stroke-opacity:1" />
    <path
       d="M 248.59016,53.879527 L 248.76007,56.521502 L 242.69688,56.150883 L 237.68068,53.779834 C 237.16976,52.993812 237.61658,52.533591 238.31595,52.310857 L 243.47011,53.844044 L 248.59016,53.879524 L 248.59016,53.879527 z"
       id="path3283"
       style="fill:#000000;fill-opacity:1;fill-rule:evenodd;stroke:#ffffff;stroke-width:0.56024158;stroke-linecap:butt;stroke-linejoin:miter;stroke-miterlimit:4;stroke-dasharray:none;stroke-opacity:1" />
    <path
       d="M 242.66473,59.390583 C 242.75548,60.342554 242.04124,61.185819 241.0684,61.275259 C 240.09557,61.364699 239.23158,60.666533 239.13742,59.714875 C 239.07636,59.097777 239.35682,58.496115 239.87295,58.136992 C 240.38907,57.77787 241.06225,57.71598 241.63839,57.974682 C 242.21453,58.233385 242.60588,58.773282 242.66473,59.390583 L 242.66473,59.390583 z"
       id="path3287"
       style="fill:none;stroke:#000000;stroke-width:1.14484155;stroke-linecap:round;stroke-linejoin:round;stroke-miterlimit:4;stroke-dasharray:none;stroke-dashoffset:0;stroke-opacity:1" />
    <path
       d="M 249.22633,50.578026 C 248.99643,50.405422 247.99424,49.802514 247.15564,50.643306 C 247.13084,50.646406 246.70212,51.292312 246.70212,51.292312 L 246.95293,51.773487 L 248.00304,51.997132 L 247.76313,52.396774 L 246.12736,52.127142 L 245.64867,53.804743 L 248.89587,53.899503 L 249.88757,52.654213 C 249.88757,52.654213 250.47735,51.525147 249.27256,50.619794 C 249.27356,50.618094 249.25906,50.602644 249.22636,50.578024 L 249.22633,50.578026 z"
       id="path3289"
       style="fill:#000000;stroke:#ffffff;stroke-width:0.56024158;stroke-miterlimit:4;stroke-dasharray:none;stroke-opacity:1" />
  </g>
</svg>
