<?xml version="1.0" encoding="UTF-8" standalone="no"?>
<!-- Created with Inkscape (http://www.inkscape.org/) -->

<svg
   xmlns:dc="http://purl.org/dc/elements/1.1/"
   xmlns:cc="http://creativecommons.org/ns#"
   xmlns:rdf="http://www.w3.org/1999/02/22-rdf-syntax-ns#"
   xmlns:svg="http://www.w3.org/2000/svg"
   xmlns="http://www.w3.org/2000/svg"
   xmlns:sodipodi="http://sodipodi.sourceforge.net/DTD/sodipodi-0.dtd"
   xmlns:inkscape="http://www.inkscape.org/namespaces/inkscape"
   version="1.1"
   width="200"
   height="200"
   id="svg2"
   inkscape:version="0.47 r22583"
   sodipodi:docname="Italian traffic signs - icona stadio.svg"
   sodipodi:version="0.32"
   inkscape:output_extension="org.inkscape.output.svg.inkscape">
  <metadata
     id="metadata2877">
    <rdf:RDF>
      <cc:Work
         rdf:about="">
        <dc:format>image/svg+xml</dc:format>
        <dc:type
           rdf:resource="http://purl.org/dc/dcmitype/StillImage" />
        <dc:title></dc:title>
      </cc:Work>
    </rdf:RDF>
  </metadata>
  <sodipodi:namedview
     pagecolor="#ffffff"
     bordercolor="#666666"
     borderopacity="1"
     objecttolerance="10"
     gridtolerance="10"
     guidetolerance="10"
     inkscape:pageopacity="0"
     inkscape:pageshadow="2"
     inkscape:window-width="1600"
     inkscape:window-height="838"
     id="namedview2875"
     showgrid="false"
     inkscape:zoom="2.3931339"
     inkscape:cx="129.67671"
     inkscape:cy="95.255479"
     inkscape:window-x="-8"
     inkscape:window-y="-8"
     inkscape:window-maximized="1"
     inkscape:current-layer="svg2" />
  <defs
     id="defs4">
    <inkscape:perspective
       sodipodi:type="inkscape:persp3d"
       inkscape:vp_x="0 : 100 : 1"
       inkscape:vp_y="0 : 1000 : 0"
       inkscape:vp_z="200 : 100 : 1"
       inkscape:persp3d-origin="100 : 66.666667 : 1"
       id="perspective2879" />
    <inkscape:perspective
       id="perspective2839"
       inkscape:persp3d-origin="0.5 : 0.33333333 : 1"
       inkscape:vp_z="1 : 0.5 : 1"
       inkscape:vp_y="0 : 1000 : 0"
       inkscape:vp_x="0 : 0.5 : 1"
       sodipodi:type="inkscape:persp3d" />
    <inkscape:perspective
       id="perspective3649"
       inkscape:persp3d-origin="0.5 : 0.33333333 : 1"
       inkscape:vp_z="1 : 0.5 : 1"
       inkscape:vp_y="0 : 1000 : 0"
       inkscape:vp_x="0 : 0.5 : 1"
       sodipodi:type="inkscape:persp3d" />
    <inkscape:perspective
       id="perspective3679"
       inkscape:persp3d-origin="0.5 : 0.33333333 : 1"
       inkscape:vp_z="1 : 0.5 : 1"
       inkscape:vp_y="0 : 1000 : 0"
       inkscape:vp_x="0 : 0.5 : 1"
       sodipodi:type="inkscape:persp3d" />
    <inkscape:perspective
       id="perspective3713"
       inkscape:persp3d-origin="0.5 : 0.33333333 : 1"
       inkscape:vp_z="1 : 0.5 : 1"
       inkscape:vp_y="0 : 1000 : 0"
       inkscape:vp_x="0 : 0.5 : 1"
       sodipodi:type="inkscape:persp3d" />
    <inkscape:perspective
       id="perspective3741"
       inkscape:persp3d-origin="0.5 : 0.33333333 : 1"
       inkscape:vp_z="1 : 0.5 : 1"
       inkscape:vp_y="0 : 1000 : 0"
       inkscape:vp_x="0 : 0.5 : 1"
       sodipodi:type="inkscape:persp3d" />
    <inkscape:perspective
       id="perspective3765"
       inkscape:persp3d-origin="0.5 : 0.33333333 : 1"
       inkscape:vp_z="1 : 0.5 : 1"
       inkscape:vp_y="0 : 1000 : 0"
       inkscape:vp_x="0 : 0.5 : 1"
       sodipodi:type="inkscape:persp3d" />
    <inkscape:perspective
       id="perspective3801"
       inkscape:persp3d-origin="0.5 : 0.33333333 : 1"
       inkscape:vp_z="1 : 0.5 : 1"
       inkscape:vp_y="0 : 1000 : 0"
       inkscape:vp_x="0 : 0.5 : 1"
       sodipodi:type="inkscape:persp3d" />
    <inkscape:perspective
       id="perspective2863"
       inkscape:persp3d-origin="0.5 : 0.33333333 : 1"
       inkscape:vp_z="1 : 0.5 : 1"
       inkscape:vp_y="0 : 1000 : 0"
       inkscape:vp_x="0 : 0.5 : 1"
       sodipodi:type="inkscape:persp3d" />
    <inkscape:perspective
       id="perspective3859"
       inkscape:persp3d-origin="0.5 : 0.33333333 : 1"
       inkscape:vp_z="1 : 0.5 : 1"
       inkscape:vp_y="0 : 1000 : 0"
       inkscape:vp_x="0 : 0.5 : 1"
       sodipodi:type="inkscape:persp3d" />
    <inkscape:perspective
       id="perspective3964"
       inkscape:persp3d-origin="0.5 : 0.33333333 : 1"
       inkscape:vp_z="1 : 0.5 : 1"
       inkscape:vp_y="0 : 1000 : 0"
       inkscape:vp_x="0 : 0.5 : 1"
       sodipodi:type="inkscape:persp3d" />
    <inkscape:perspective
       id="perspective3988"
       inkscape:persp3d-origin="0.5 : 0.33333333 : 1"
       inkscape:vp_z="1 : 0.5 : 1"
       inkscape:vp_y="0 : 1000 : 0"
       inkscape:vp_x="0 : 0.5 : 1"
       sodipodi:type="inkscape:persp3d" />
    <inkscape:perspective
       id="perspective2879-7"
       inkscape:persp3d-origin="0.5 : 0.33333333 : 1"
       inkscape:vp_z="1 : 0.5 : 1"
       inkscape:vp_y="0 : 1000 : 0"
       inkscape:vp_x="0 : 0.5 : 1"
       sodipodi:type="inkscape:persp3d" />
    <inkscape:perspective
       id="perspective4031"
       inkscape:persp3d-origin="0.5 : 0.33333333 : 1"
       inkscape:vp_z="1 : 0.5 : 1"
       inkscape:vp_y="0 : 1000 : 0"
       inkscape:vp_x="0 : 0.5 : 1"
       sodipodi:type="inkscape:persp3d" />
    <inkscape:perspective
       id="perspective4047"
       inkscape:persp3d-origin="0.5 : 0.33333333 : 1"
       inkscape:vp_z="1 : 0.5 : 1"
       inkscape:vp_y="0 : 1000 : 0"
       inkscape:vp_x="0 : 0.5 : 1"
       sodipodi:type="inkscape:persp3d" />
    <inkscape:perspective
       id="perspective4063"
       inkscape:persp3d-origin="0.5 : 0.33333333 : 1"
       inkscape:vp_z="1 : 0.5 : 1"
       inkscape:vp_y="0 : 1000 : 0"
       inkscape:vp_x="0 : 0.5 : 1"
       sodipodi:type="inkscape:persp3d" />
    <inkscape:perspective
       id="perspective4079"
       inkscape:persp3d-origin="0.5 : 0.33333333 : 1"
       inkscape:vp_z="1 : 0.5 : 1"
       inkscape:vp_y="0 : 1000 : 0"
       inkscape:vp_x="0 : 0.5 : 1"
       sodipodi:type="inkscape:persp3d" />
    <inkscape:perspective
       id="perspective4097"
       inkscape:persp3d-origin="0.5 : 0.33333333 : 1"
       inkscape:vp_z="1 : 0.5 : 1"
       inkscape:vp_y="0 : 1000 : 0"
       inkscape:vp_x="0 : 0.5 : 1"
       sodipodi:type="inkscape:persp3d" />
    <inkscape:perspective
       id="perspective4115"
       inkscape:persp3d-origin="0.5 : 0.33333333 : 1"
       inkscape:vp_z="1 : 0.5 : 1"
       inkscape:vp_y="0 : 1000 : 0"
       inkscape:vp_x="0 : 0.5 : 1"
       sodipodi:type="inkscape:persp3d" />
    <inkscape:perspective
       id="perspective4129"
       inkscape:persp3d-origin="0.5 : 0.33333333 : 1"
       inkscape:vp_z="1 : 0.5 : 1"
       inkscape:vp_y="0 : 1000 : 0"
       inkscape:vp_x="0 : 0.5 : 1"
       sodipodi:type="inkscape:persp3d" />
    <inkscape:perspective
       id="perspective4153"
       inkscape:persp3d-origin="0.5 : 0.33333333 : 1"
       inkscape:vp_z="1 : 0.5 : 1"
       inkscape:vp_y="0 : 1000 : 0"
       inkscape:vp_x="0 : 0.5 : 1"
       sodipodi:type="inkscape:persp3d" />
    <inkscape:perspective
       id="perspective4179"
       inkscape:persp3d-origin="0.5 : 0.33333333 : 1"
       inkscape:vp_z="1 : 0.5 : 1"
       inkscape:vp_y="0 : 1000 : 0"
       inkscape:vp_x="0 : 0.5 : 1"
       sodipodi:type="inkscape:persp3d" />
    <inkscape:perspective
       id="perspective4195"
       inkscape:persp3d-origin="0.5 : 0.33333333 : 1"
       inkscape:vp_z="1 : 0.5 : 1"
       inkscape:vp_y="0 : 1000 : 0"
       inkscape:vp_x="0 : 0.5 : 1"
       sodipodi:type="inkscape:persp3d" />
    <inkscape:perspective
       id="perspective4213"
       inkscape:persp3d-origin="0.5 : 0.33333333 : 1"
       inkscape:vp_z="1 : 0.5 : 1"
       inkscape:vp_y="0 : 1000 : 0"
       inkscape:vp_x="0 : 0.5 : 1"
       sodipodi:type="inkscape:persp3d" />
    <inkscape:perspective
       id="perspective4267"
       inkscape:persp3d-origin="0.5 : 0.33333333 : 1"
       inkscape:vp_z="1 : 0.5 : 1"
       inkscape:vp_y="0 : 1000 : 0"
       inkscape:vp_x="0 : 0.5 : 1"
       sodipodi:type="inkscape:persp3d" />
    <inkscape:perspective
       id="perspective4283"
       inkscape:persp3d-origin="0.5 : 0.33333333 : 1"
       inkscape:vp_z="1 : 0.5 : 1"
       inkscape:vp_y="0 : 1000 : 0"
       inkscape:vp_x="0 : 0.5 : 1"
       sodipodi:type="inkscape:persp3d" />
    <inkscape:perspective
       id="perspective4314"
       inkscape:persp3d-origin="0.5 : 0.33333333 : 1"
       inkscape:vp_z="1 : 0.5 : 1"
       inkscape:vp_y="0 : 1000 : 0"
       inkscape:vp_x="0 : 0.5 : 1"
       sodipodi:type="inkscape:persp3d" />
    <inkscape:perspective
       id="perspective4330"
       inkscape:persp3d-origin="0.5 : 0.33333333 : 1"
       inkscape:vp_z="1 : 0.5 : 1"
       inkscape:vp_y="0 : 1000 : 0"
       inkscape:vp_x="0 : 0.5 : 1"
       sodipodi:type="inkscape:persp3d" />
    <inkscape:perspective
       id="perspective4346"
       inkscape:persp3d-origin="0.5 : 0.33333333 : 1"
       inkscape:vp_z="1 : 0.5 : 1"
       inkscape:vp_y="0 : 1000 : 0"
       inkscape:vp_x="0 : 0.5 : 1"
       sodipodi:type="inkscape:persp3d" />
    <inkscape:perspective
       id="perspective3742"
       inkscape:persp3d-origin="0.5 : 0.33333333 : 1"
       inkscape:vp_z="1 : 0.5 : 1"
       inkscape:vp_y="0 : 1000 : 0"
       inkscape:vp_x="0 : 0.5 : 1"
       sodipodi:type="inkscape:persp3d" />
    <inkscape:perspective
       id="perspective3776"
       inkscape:persp3d-origin="0.5 : 0.33333333 : 1"
       inkscape:vp_z="1 : 0.5 : 1"
       inkscape:vp_y="0 : 1000 : 0"
       inkscape:vp_x="0 : 0.5 : 1"
       sodipodi:type="inkscape:persp3d" />
    <inkscape:perspective
       id="perspective3792"
       inkscape:persp3d-origin="0.5 : 0.33333333 : 1"
       inkscape:vp_z="1 : 0.5 : 1"
       inkscape:vp_y="0 : 1000 : 0"
       inkscape:vp_x="0 : 0.5 : 1"
       sodipodi:type="inkscape:persp3d" />
    <inkscape:perspective
       id="perspective3808"
       inkscape:persp3d-origin="0.5 : 0.33333333 : 1"
       inkscape:vp_z="1 : 0.5 : 1"
       inkscape:vp_y="0 : 1000 : 0"
       inkscape:vp_x="0 : 0.5 : 1"
       sodipodi:type="inkscape:persp3d" />
    <inkscape:perspective
       id="perspective3824"
       inkscape:persp3d-origin="0.5 : 0.33333333 : 1"
       inkscape:vp_z="1 : 0.5 : 1"
       inkscape:vp_y="0 : 1000 : 0"
       inkscape:vp_x="0 : 0.5 : 1"
       sodipodi:type="inkscape:persp3d" />
    <inkscape:perspective
       id="perspective4354"
       inkscape:persp3d-origin="0.5 : 0.33333333 : 1"
       inkscape:vp_z="1 : 0.5 : 1"
       inkscape:vp_y="0 : 1000 : 0"
       inkscape:vp_x="0 : 0.5 : 1"
       sodipodi:type="inkscape:persp3d" />
    <inkscape:perspective
       id="perspective4395"
       inkscape:persp3d-origin="0.5 : 0.33333333 : 1"
       inkscape:vp_z="1 : 0.5 : 1"
       inkscape:vp_y="0 : 1000 : 0"
       inkscape:vp_x="0 : 0.5 : 1"
       sodipodi:type="inkscape:persp3d" />
    <inkscape:perspective
       id="perspective4435"
       inkscape:persp3d-origin="0.5 : 0.33333333 : 1"
       inkscape:vp_z="1 : 0.5 : 1"
       inkscape:vp_y="0 : 1000 : 0"
       inkscape:vp_x="0 : 0.5 : 1"
       sodipodi:type="inkscape:persp3d" />
    <inkscape:perspective
       id="perspective4460"
       inkscape:persp3d-origin="0.5 : 0.33333333 : 1"
       inkscape:vp_z="1 : 0.5 : 1"
       inkscape:vp_y="0 : 1000 : 0"
       inkscape:vp_x="0 : 0.5 : 1"
       sodipodi:type="inkscape:persp3d" />
    <inkscape:perspective
       id="perspective4479"
       inkscape:persp3d-origin="0.5 : 0.33333333 : 1"
       inkscape:vp_z="1 : 0.5 : 1"
       inkscape:vp_y="0 : 1000 : 0"
       inkscape:vp_x="0 : 0.5 : 1"
       sodipodi:type="inkscape:persp3d" />
    <inkscape:perspective
       id="perspective4495"
       inkscape:persp3d-origin="0.5 : 0.33333333 : 1"
       inkscape:vp_z="1 : 0.5 : 1"
       inkscape:vp_y="0 : 1000 : 0"
       inkscape:vp_x="0 : 0.5 : 1"
       sodipodi:type="inkscape:persp3d" />
    <inkscape:perspective
       id="perspective4511"
       inkscape:persp3d-origin="0.5 : 0.33333333 : 1"
       inkscape:vp_z="1 : 0.5 : 1"
       inkscape:vp_y="0 : 1000 : 0"
       inkscape:vp_x="0 : 0.5 : 1"
       sodipodi:type="inkscape:persp3d" />
    <inkscape:perspective
       id="perspective4527"
       inkscape:persp3d-origin="0.5 : 0.33333333 : 1"
       inkscape:vp_z="1 : 0.5 : 1"
       inkscape:vp_y="0 : 1000 : 0"
       inkscape:vp_x="0 : 0.5 : 1"
       sodipodi:type="inkscape:persp3d" />
    <inkscape:perspective
       id="perspective4543"
       inkscape:persp3d-origin="0.5 : 0.33333333 : 1"
       inkscape:vp_z="1 : 0.5 : 1"
       inkscape:vp_y="0 : 1000 : 0"
       inkscape:vp_x="0 : 0.5 : 1"
       sodipodi:type="inkscape:persp3d" />
    <inkscape:perspective
       id="perspective4559"
       inkscape:persp3d-origin="0.5 : 0.33333333 : 1"
       inkscape:vp_z="1 : 0.5 : 1"
       inkscape:vp_y="0 : 1000 : 0"
       inkscape:vp_x="0 : 0.5 : 1"
       sodipodi:type="inkscape:persp3d" />
    <inkscape:perspective
       id="perspective4575"
       inkscape:persp3d-origin="0.5 : 0.33333333 : 1"
       inkscape:vp_z="1 : 0.5 : 1"
       inkscape:vp_y="0 : 1000 : 0"
       inkscape:vp_x="0 : 0.5 : 1"
       sodipodi:type="inkscape:persp3d" />
    <inkscape:perspective
       id="perspective4591"
       inkscape:persp3d-origin="0.5 : 0.33333333 : 1"
       inkscape:vp_z="1 : 0.5 : 1"
       inkscape:vp_y="0 : 1000 : 0"
       inkscape:vp_x="0 : 0.5 : 1"
       sodipodi:type="inkscape:persp3d" />
    <inkscape:perspective
       id="perspective4607"
       inkscape:persp3d-origin="0.5 : 0.33333333 : 1"
       inkscape:vp_z="1 : 0.5 : 1"
       inkscape:vp_y="0 : 1000 : 0"
       inkscape:vp_x="0 : 0.5 : 1"
       sodipodi:type="inkscape:persp3d" />
    <inkscape:perspective
       id="perspective4629"
       inkscape:persp3d-origin="0.5 : 0.33333333 : 1"
       inkscape:vp_z="1 : 0.5 : 1"
       inkscape:vp_y="0 : 1000 : 0"
       inkscape:vp_x="0 : 0.5 : 1"
       sodipodi:type="inkscape:persp3d" />
    <inkscape:perspective
       id="perspective4674"
       inkscape:persp3d-origin="0.5 : 0.33333333 : 1"
       inkscape:vp_z="1 : 0.5 : 1"
       inkscape:vp_y="0 : 1000 : 0"
       inkscape:vp_x="0 : 0.5 : 1"
       sodipodi:type="inkscape:persp3d" />
    <inkscape:perspective
       id="perspective4690"
       inkscape:persp3d-origin="0.5 : 0.33333333 : 1"
       inkscape:vp_z="1 : 0.5 : 1"
       inkscape:vp_y="0 : 1000 : 0"
       inkscape:vp_x="0 : 0.5 : 1"
       sodipodi:type="inkscape:persp3d" />
    <inkscape:perspective
       id="perspective4735"
       inkscape:persp3d-origin="0.5 : 0.33333333 : 1"
       inkscape:vp_z="1 : 0.5 : 1"
       inkscape:vp_y="0 : 1000 : 0"
       inkscape:vp_x="0 : 0.5 : 1"
       sodipodi:type="inkscape:persp3d" />
    <inkscape:perspective
       id="perspective4751"
       inkscape:persp3d-origin="0.5 : 0.33333333 : 1"
       inkscape:vp_z="1 : 0.5 : 1"
       inkscape:vp_y="0 : 1000 : 0"
       inkscape:vp_x="0 : 0.5 : 1"
       sodipodi:type="inkscape:persp3d" />
    <inkscape:perspective
       id="perspective4767"
       inkscape:persp3d-origin="0.5 : 0.33333333 : 1"
       inkscape:vp_z="1 : 0.5 : 1"
       inkscape:vp_y="0 : 1000 : 0"
       inkscape:vp_x="0 : 0.5 : 1"
       sodipodi:type="inkscape:persp3d" />
    <inkscape:perspective
       id="perspective4787"
       inkscape:persp3d-origin="0.5 : 0.33333333 : 1"
       inkscape:vp_z="1 : 0.5 : 1"
       inkscape:vp_y="0 : 1000 : 0"
       inkscape:vp_x="0 : 0.5 : 1"
       sodipodi:type="inkscape:persp3d" />
    <inkscape:perspective
       id="perspective4813"
       inkscape:persp3d-origin="0.5 : 0.33333333 : 1"
       inkscape:vp_z="1 : 0.5 : 1"
       inkscape:vp_y="0 : 1000 : 0"
       inkscape:vp_x="0 : 0.5 : 1"
       sodipodi:type="inkscape:persp3d" />
    <inkscape:perspective
       id="perspective4905"
       inkscape:persp3d-origin="0.5 : 0.33333333 : 1"
       inkscape:vp_z="1 : 0.5 : 1"
       inkscape:vp_y="0 : 1000 : 0"
       inkscape:vp_x="0 : 0.5 : 1"
       sodipodi:type="inkscape:persp3d" />
    <inkscape:perspective
       id="perspective2877"
       inkscape:persp3d-origin="0.5 : 0.33333333 : 1"
       inkscape:vp_z="1 : 0.5 : 1"
       inkscape:vp_y="0 : 1000 : 0"
       inkscape:vp_x="0 : 0.5 : 1"
       sodipodi:type="inkscape:persp3d" />
    <inkscape:perspective
       id="perspective2893"
       inkscape:persp3d-origin="0.5 : 0.33333333 : 1"
       inkscape:vp_z="1 : 0.5 : 1"
       inkscape:vp_y="0 : 1000 : 0"
       inkscape:vp_x="0 : 0.5 : 1"
       sodipodi:type="inkscape:persp3d" />
    <inkscape:perspective
       id="perspective3693"
       inkscape:persp3d-origin="0.5 : 0.33333333 : 1"
       inkscape:vp_z="1 : 0.5 : 1"
       inkscape:vp_y="0 : 1000 : 0"
       inkscape:vp_x="0 : 0.5 : 1"
       sodipodi:type="inkscape:persp3d" />
    <inkscape:perspective
       id="perspective3709"
       inkscape:persp3d-origin="0.5 : 0.33333333 : 1"
       inkscape:vp_z="1 : 0.5 : 1"
       inkscape:vp_y="0 : 1000 : 0"
       inkscape:vp_x="0 : 0.5 : 1"
       sodipodi:type="inkscape:persp3d" />
    <inkscape:perspective
       id="perspective3725"
       inkscape:persp3d-origin="0.5 : 0.33333333 : 1"
       inkscape:vp_z="1 : 0.5 : 1"
       inkscape:vp_y="0 : 1000 : 0"
       inkscape:vp_x="0 : 0.5 : 1"
       sodipodi:type="inkscape:persp3d" />
    <inkscape:perspective
       id="perspective3743"
       inkscape:persp3d-origin="0.5 : 0.33333333 : 1"
       inkscape:vp_z="1 : 0.5 : 1"
       inkscape:vp_y="0 : 1000 : 0"
       inkscape:vp_x="0 : 0.5 : 1"
       sodipodi:type="inkscape:persp3d" />
    <inkscape:perspective
       id="perspective3759"
       inkscape:persp3d-origin="0.5 : 0.33333333 : 1"
       inkscape:vp_z="1 : 0.5 : 1"
       inkscape:vp_y="0 : 1000 : 0"
       inkscape:vp_x="0 : 0.5 : 1"
       sodipodi:type="inkscape:persp3d" />
    <inkscape:perspective
       id="perspective3777"
       inkscape:persp3d-origin="0.5 : 0.33333333 : 1"
       inkscape:vp_z="1 : 0.5 : 1"
       inkscape:vp_y="0 : 1000 : 0"
       inkscape:vp_x="0 : 0.5 : 1"
       sodipodi:type="inkscape:persp3d" />
    <inkscape:perspective
       id="perspective3795"
       inkscape:persp3d-origin="0.5 : 0.33333333 : 1"
       inkscape:vp_z="1 : 0.5 : 1"
       inkscape:vp_y="0 : 1000 : 0"
       inkscape:vp_x="0 : 0.5 : 1"
       sodipodi:type="inkscape:persp3d" />
    <inkscape:perspective
       id="perspective3815"
       inkscape:persp3d-origin="0.5 : 0.33333333 : 1"
       inkscape:vp_z="1 : 0.5 : 1"
       inkscape:vp_y="0 : 1000 : 0"
       inkscape:vp_x="0 : 0.5 : 1"
       sodipodi:type="inkscape:persp3d" />
    <inkscape:perspective
       id="perspective3831"
       inkscape:persp3d-origin="0.5 : 0.33333333 : 1"
       inkscape:vp_z="1 : 0.5 : 1"
       inkscape:vp_y="0 : 1000 : 0"
       inkscape:vp_x="0 : 0.5 : 1"
       sodipodi:type="inkscape:persp3d" />
    <inkscape:perspective
       id="perspective4112"
       inkscape:persp3d-origin="0.5 : 0.33333333 : 1"
       inkscape:vp_z="1 : 0.5 : 1"
       inkscape:vp_y="0 : 1000 : 0"
       inkscape:vp_x="0 : 0.5 : 1"
       sodipodi:type="inkscape:persp3d" />
    <inkscape:perspective
       id="perspective5834"
       inkscape:persp3d-origin="0.5 : 0.33333333 : 1"
       inkscape:vp_z="1 : 0.5 : 1"
       inkscape:vp_y="0 : 1000 : 0"
       inkscape:vp_x="0 : 0.5 : 1"
       sodipodi:type="inkscape:persp3d" />
    <inkscape:perspective
       id="perspective6553"
       inkscape:persp3d-origin="0.5 : 0.33333333 : 1"
       inkscape:vp_z="1 : 0.5 : 1"
       inkscape:vp_y="0 : 1000 : 0"
       inkscape:vp_x="0 : 0.5 : 1"
       sodipodi:type="inkscape:persp3d" />
    <inkscape:perspective
       id="perspective6591"
       inkscape:persp3d-origin="0.5 : 0.33333333 : 1"
       inkscape:vp_z="1 : 0.5 : 1"
       inkscape:vp_y="0 : 1000 : 0"
       inkscape:vp_x="0 : 0.5 : 1"
       sodipodi:type="inkscape:persp3d" />
    <inkscape:perspective
       id="perspective6607"
       inkscape:persp3d-origin="0.5 : 0.33333333 : 1"
       inkscape:vp_z="1 : 0.5 : 1"
       inkscape:vp_y="0 : 1000 : 0"
       inkscape:vp_x="0 : 0.5 : 1"
       sodipodi:type="inkscape:persp3d" />
  </defs>
  <path
     style="fill:#ffffff;fill-opacity:1;stroke:none"
     d="m -1.5876605,-3.0202186 207.7153805,0 0,207.3483886 -207.7153805,0 0,-207.3483886 z"
     id="rect2881" />
  <path
     style="fill:none;stroke:#000000;stroke-width:2.99693632;stroke-miterlimit:4;stroke-opacity:1"
     d="m 21.467889,2.4041869 156.802311,0 c 10.23854,0 18.48111,8.3144241 18.48111,18.6422021 l 0,158.169131 c 0,10.32778 -8.24257,18.6422 -18.48111,18.6422 l -156.802311,0 c -10.23853,0 -18.4811103,-8.31442 -18.4811103,-18.6422 l 0,-158.169131 c 0,-10.327778 8.2425803,-18.6422021 18.4811103,-18.6422021 z"
     id="rect4614-9" />
  <path
     style="fill:#000000"
     d="m 34.743987,163.9518 c -0.328966,-0.23058 -1.197004,-1.27626 -1.928973,-2.32374 -0.73197,-1.04748 -3.06903,-3.95903 -5.193468,-6.47013 -3.977023,-4.70085 -4.878039,-6.90683 -3.891424,-9.52746 0.280343,-0.74464 5.768135,-6.83919 12.195095,-13.54345 6.426961,-6.70426 11.685382,-12.4775 11.685382,-12.82943 0,-0.35192 -0.65618,-1.41968 -1.458177,-2.3728 -2.161727,-2.56907 -4.09353,-6.68424 -5.342044,-11.37973 -1.259484,-4.73676 -1.534017,-6.791822 -2.348569,-17.580648 -0.319885,-4.23691 -0.851606,-8.537981 -1.181601,-9.557943 l -0.599992,-1.854466 -4.948761,0.301674 c -2.721818,0.165916 -6.68077,0.592009 -8.797671,0.946865 -3.509781,0.588346 -3.954687,0.549469 -5.049414,-0.441243 -0.948649,-0.858515 -1.139572,-1.540718 -0.910064,-3.25183 0.159742,-1.190962 0.630732,-2.575413 1.046645,-3.076555 1.171867,-1.412018 4.452392,-3.327033 9.053278,-5.28489 2.736843,-1.164628 4.927256,-2.575288 6.288737,-4.050035 1.149031,-1.244624 2.543071,-2.262955 3.097868,-2.262955 0.554797,0 1.942349,-1.020778 3.083449,-2.268396 1.1411,-1.247617 2.82114,-2.44108 3.733422,-2.652139 l 1.658695,-0.383745 -0.352301,2.974628 c -0.334856,2.827336 -0.261304,3.05452 1.485461,4.588202 2.055449,1.804706 4.393459,5.15538 9.174604,13.148394 1.783448,2.981529 3.532572,5.835426 3.886937,6.342 1.290212,1.84436 0.189625,2.527726 -5.323031,3.305138 -2.937841,0.414304 -6.323887,1.252921 -7.524546,1.863589 -5.087188,2.587414 -4.423831,9.510564 1.085494,11.328806 1.507537,0.497536 3.419893,0.377995 9.203698,-0.575307 8.710686,-1.435716 10.365968,-1.933742 11.417669,-3.435263 1.044522,-1.491255 1.740716,-1.438278 4.34381,0.33057 2.476341,1.682718 2.211815,2.591528 -1.069527,3.674471 -2.921442,0.964166 -4.82336,3.556728 -4.82336,6.574888 0,2.13765 0.393134,2.9827 2.700671,5.80516 1.485372,1.81682 5.368978,6.64148 8.63024,10.72147 3.318843,4.15201 6.776778,7.88197 7.85378,8.47158 1.723775,0.94368 2.175284,0.97341 4.334458,0.28531 1.629382,-0.51926 2.847649,-1.41515 3.76035,-2.76531 2.465687,-3.64748 1.5996,-5.65891 -7.225856,-16.78159 l -3.12822,-3.94247 1.626391,-1.29683 c 0.894516,-0.71327 3.826834,-2.61144 6.516264,-4.21816 4.661371,-2.784803 5.023188,-2.902757 7.743005,-2.52418 1.569229,0.218419 5.806139,0.424142 9.415349,0.457153 6.46444,0.05912 6.6288,0.09375 11.03033,2.324007 7.97061,4.0387 11.05973,9.0517 12.87835,20.89888 2.01298,13.11337 7.57063,23.57142 18.81994,35.41427 3.1761,3.34368 5.7753,6.29667 5.77599,6.56222 5.7e-4,0.26554 -2.27837,0.35442 -5.06459,0.1975 l -5.06587,-0.28532 -10.74823,-9.98598 c -5.91153,-5.49229 -13.67097,-12.77932 -17.24321,-16.19339 l -6.49497,-6.20742 -2.65715,0.33564 c -1.46144,0.18459 -4.8398,0.62386 -7.50749,0.97615 -14.332027,1.89263 -35.156828,-0.29064 -41.493076,-4.35014 -1.717783,-1.10054 -2.301615,-1.01993 -2.745654,0.37912 -0.207526,0.65385 -1.894044,2.95108 -3.747823,5.10494 -3.519437,4.08917 -12.240839,10.40925 -16.938973,12.27507 -2.944531,1.16939 -3.87547,2.57795 -2.907301,4.39892 0.375446,0.70615 2.30783,3.75997 4.294187,6.78628 5.081897,7.74249 5.059693,7.33841 0.402694,7.32802 -2.152033,-0.005 -4.181941,-0.19739 -4.510907,-0.42797 z m 11.037971,-0.5619 c -0.925513,-1.06936 -9.013282,-13.77877 -9.013282,-14.16379 0,-0.12661 1.733281,-1.10813 3.851736,-2.18115 5.266671,-2.66764 11.824739,-7.66411 15.105164,-11.50836 1.49982,-1.7576 2.726946,-3.41433 2.726946,-3.68162 0,-0.80823 2.141714,-1.22507 3.245416,-0.63165 0.568858,0.30585 1.48366,0.69517 2.032889,0.86515 1.621889,0.50197 1.194443,1.33155 -2.567824,4.98363 -4.238674,4.11454 -8.34927,7.00834 -13.980374,9.84198 -3.306281,1.66376 -4.13705,2.34151 -4.13705,3.37503 0,0.71127 1.533601,3.66467 3.408002,6.56311 5.152388,7.96727 5.014743,7.53627 2.40679,7.53627 -1.399048,0 -2.53231,-0.36761 -3.078413,-0.9986 z m 75.324272,-13.99003 c -10.00288,-9.43053 -15.00132,-14.5149 -14.551,-14.80114 1.14678,-0.72894 6.00982,-0.51853 6.50652,0.28153 0.25098,0.40425 3.92289,3.93226 8.1598,7.84001 10.57581,9.7542 21.11322,20.04593 21.11322,20.62097 0,0.26215 -1.34811,0.46474 -2.9958,0.45019 l -2.99579,-0.0265 -15.23695,-14.36512 0,6e-5 z M 85.995053,127.49368 c -0.386937,-0.15651 -3.357978,-3.667 -6.602309,-7.80109 -10.499861,-13.37943 -10.668926,-13.63744 -10.668926,-16.28194 0,-2.62222 -0.802753,-1.93731 11.119305,-9.486957 l 3.415833,-2.163078 -5.268809,-2.616453 -5.268809,-2.616453 -3.656958,3.624455 c -3.571501,3.539751 -3.761571,3.642687 -8.133006,4.404418 -2.46183,0.428975 -6.442808,0.944679 -8.846625,1.146008 -4.174568,0.349641 -4.436878,0.299756 -5.848932,-1.112301 -1.949993,-1.949995 -2.047587,-5.128413 -0.194443,-6.332631 0.706151,-0.458876 4.061866,-1.155019 7.457143,-1.546988 l 6.173231,-0.712668 8.150107,-8.452147 c 7.382431,-7.656024 8.334118,-8.452153 10.1036,-8.452153 1.759245,0 2.930846,0.958524 11.782865,9.639954 8.633686,8.467303 9.829384,9.860147 9.829384,11.45007 0,0.995557 -0.256617,2.289603 -0.570262,2.875654 -0.313645,0.586046 -4.550555,3.551518 -9.415354,6.589933 -4.8648,3.038417 -8.845092,5.644347 -8.845092,5.790977 0,0.14661 2.849103,3.89669 6.331341,8.3335 5.918548,7.54097 6.310318,8.19831 6.008941,10.08214 -0.177316,1.10837 -0.872215,2.46458 -1.54422,3.01381 -1.150488,0.94029 -3.94363,1.25669 -5.508005,0.62394 z M 145.75853,114.8101 c -9.28495,-1.32437 -13.00857,-2.55092 -13.80514,-4.54738 -1.24654,-3.1242 -1.87565,-4.19273 -3.77481,-6.41148 -2.33213,-2.72456 -9.81773,-7.254442 -12.77972,-7.733598 -2.87205,-0.464605 -3.57423,-1.417393 -5.19932,-7.054937 -1.74412,-6.050444 -1.93627,-7.281207 -2.90506,-18.607936 -0.43258,-5.057546 -1.07458,-9.733822 -1.42668,-10.391715 -0.5783,-1.080552 -1.01171,-1.169085 -4.48373,-0.915869 -2.113961,0.154172 -6.084456,0.56572 -8.823326,0.914556 -5.954652,0.758416 -6.7181,0.394806 -6.7181,-3.199642 0,-3.435174 2.354243,-5.473872 10.153837,-8.792898 2.608498,-1.110016 4.908899,-2.590415 6.303769,-4.056733 1.20802,-1.269889 2.65063,-2.308888 3.20581,-2.308888 0.55519,0 1.94305,-1.020778 3.08415,-2.268396 1.1411,-1.247617 2.81892,-2.440523 3.72849,-2.650901 l 1.65376,-0.382506 -0.38458,2.89915 c -0.37671,2.839733 -0.33458,2.950991 2.05531,5.428728 1.34195,1.391269 4.08557,5.32388 6.09694,8.739136 5.12099,8.695342 5.00693,8.515092 6.046,9.554165 1.98134,1.981344 0.90229,2.786226 -5.13801,3.832506 -3.13845,0.543625 -6.34823,1.240156 -7.13284,1.547844 -2.45674,0.963402 -3.70908,2.850707 -3.70908,5.589668 0,2.060581 0.3265,2.822951 1.86834,4.362453 1.73225,1.729623 2.12712,1.8604 5.42096,1.795291 1.95394,-0.03863 6.35865,-0.612049 9.78825,-1.274285 4.95725,-0.957217 6.55391,-1.508991 7.78808,-2.691405 1.67108,-1.600998 2.42938,-1.474838 5.51451,0.917461 1.49021,1.15556 1.26324,1.420354 -2.91053,3.39545 -2.06096,0.975277 -2.98921,1.828468 -3.61262,3.320494 -1.61685,3.869659 -1.49246,4.067165 16.13673,25.622817 2.45149,2.9975 4.89033,3.62725 8.05683,2.0804 2.61071,-1.27534 4.43206,-4.51981 3.89921,-6.94586 -0.29172,-1.32818 -3.72107,-6.199947 -10.67674,-15.167467 -0.93545,-1.206021 -0.86694,-1.28652 3.63596,-4.272528 6.82062,-4.522954 8.95497,-5.34641 12.05624,-4.651402 1.41893,0.317993 4.96657,0.410749 8.02522,0.209837 l 5.48206,-0.360106 0,16.792028 0,16.792028 -2.42517,0.0102 c -1.33384,0.006 -4.60782,0.30594 -7.2755,0.66736 -9.11651,1.2351 -19.10354,1.31491 -26.8195,0.21434 l 0,2e-5 z m 6.90736,-7.2665 c -1.27582,-1.44941 -5.19377,-6.36018 -8.70655,-10.912816 -5.68933,-7.373489 -6.39168,-8.534551 -6.43089,-10.630905 -0.0483,-2.585371 0.0803,-2.698058 10.77683,-9.438117 l 3.97333,-2.503657 -5.23338,-2.598849 -5.23337,-2.598855 -3.8756,3.737365 c -3.84422,3.707117 -3.91254,3.743038 -8.44061,4.437303 -2.51076,0.384962 -6.52074,0.844238 -8.91107,1.020613 -3.91492,0.288863 -4.46685,0.199891 -5.56362,-0.896884 -1.72832,-1.728322 -1.69063,-5.457904 0.0663,-6.566051 0.70616,-0.445381 3.98013,-1.108724 7.27551,-1.474102 l 5.99158,-0.664319 8.28726,-8.525039 c 7.48671,-7.70152 8.47535,-8.525039 10.23433,-8.525039 1.75759,0 2.90859,0.955844 11.82737,9.821996 10.31759,10.256716 10.90923,11.155529 9.31002,14.143682 -0.31364,0.586046 -4.55055,3.551518 -9.41535,6.589933 -4.8648,3.038414 -8.84509,5.709214 -8.84509,5.935103 0,0.225894 2.69171,3.855684 5.98159,8.066208 5.15199,6.59376 5.98297,7.95228 5.99159,9.79535 0.0134,2.87209 -1.56636,4.42237 -4.50653,4.42237 -1.94092,0 -2.53835,-0.34575 -4.55369,-2.63529 l 4e-5,0 z M 62.388643,69.498945 c -1.066406,-0.718654 -1.938924,-1.631584 -1.938924,-2.028735 0,-0.984772 11.828772,-8.174519 12.44126,-7.56203 0.268355,0.268354 0.624256,1.504351 0.790884,2.746658 0.820454,6.116951 -6.12564,10.326539 -11.29322,6.844107 z m -7.702608,-2.210012 c -0.239187,-0.387017 0.359999,-1.351577 1.437853,-2.314642 1.389969,-1.241937 1.887214,-2.202691 2.006458,-3.876787 0.317452,-4.456903 3.667286,-7.19036 8.187375,-6.680881 3.208445,0.361638 6.024509,2.787613 4.671933,4.024764 -0.9684,0.885751 -15.090702,9.51106 -15.57256,9.51106 -0.176541,0 -0.505517,-0.29858 -0.731059,-0.663514 z m 75.959955,-15.953248 -2.02781,-1.780445 6.02023,-3.694709 c 3.37083,-2.068737 6.38904,-3.55318 6.85829,-3.373111 1.18858,0.456103 1.11753,5.677339 -0.10261,7.539502 -1.27074,1.939395 -3.66374,3.089209 -6.42928,3.089209 -1.75146,0 -2.76855,-0.419297 -4.31882,-1.780446 z m -7.14193,-1.821874 c 0,-0.41205 0.77035,-1.487221 1.71188,-2.389269 1.19605,-1.145887 1.71189,-2.184298 1.71189,-3.446139 0,-5.920923 8.19283,-9.240812 12.40635,-5.027287 1.20897,1.208967 1.31201,1.552118 0.64953,2.163069 -1.14704,1.057819 -15.30207,9.448808 -15.9395,9.448808 -0.29708,0 -0.54015,-0.337132 -0.54015,-0.749182 z"
     id="path6613"
     sodipodi:nodetypes="csssssssscccsssssssscccsssssssssssssssscccsssssssccccccssssssssccsssssssssssccsssscccccsscccccsssscccsssssssssccssssssssssssscccssssssssssssssssssscccccscccsscccccsssscccsssssssscccsssccsssssccccsssccsssssc" />
</svg>
