<svg xmlns="http://www.w3.org/2000/svg" width="200" height="200" xmlns:v="https://vecta.io/nano"><g fill-rule="evenodd"><path d="M0 0h200v200H0z"/><path d="M1 1h198v198H1z" fill="#00408b"/></g><rect width="190" height="190" x="5" y="5" rx="13.622" fill="none" stroke="#fff" stroke-width="2" stroke-linejoin="round"/><path d="M108.464 19.676l16.189-.125 18.68 45.081h-32.379l-2.491-44.956zm3.985 66.003l36.488-.125 37.111 94.894h-67.372l-6.227-94.77zm-10.834-66.003l-16.189-.125-18.68 45.081h32.379l2.491-44.956zM97.63 85.679l-36.488-.125-37.111 94.894h67.372l6.227-94.77z" fill-rule="evenodd" fill="#fff"/><path d="M30.226 80.861v3.97c0 .398-.297.722-.66.722a.65.65 0 0 1-.244-.049l-13.277-3.392c-.171-.053-.35-.084-.536-.084-1.043 0-1.557.285-1.557 1.419 0 .402.105.775.288 1.092l18.831 34.191 19.967-32.461c.183-.317.288-.69.288-1.092 0-1.134-.536-1.837-1.579-1.837a1.77 1.77 0 0 0-.533.084L39.81 85.305a.66.66 0 0 1-.243.049c-.366 0-.661-.323-.661-.722V80.73c0-2.648 1.802-4.271 4.637-4.271h109.092c4.979 0 7.314 2.064 8.684 4.757l11.673 26.87h7.984l-12.834-29.405c-1.769-3.999-6.739-9.491-13.458-9.491H43.065c-8.249 0-12.84 6.944-12.84 11.672" fill="#fff"/></svg>