<?xml version="1.0" encoding="UTF-8" standalone="no"?>
<!-- Created with Inkscape (http://www.inkscape.org/) -->

<svg
   xmlns:dc="http://purl.org/dc/elements/1.1/"
   xmlns:cc="http://creativecommons.org/ns#"
   xmlns:rdf="http://www.w3.org/1999/02/22-rdf-syntax-ns#"
   xmlns:svg="http://www.w3.org/2000/svg"
   xmlns="http://www.w3.org/2000/svg"
   xmlns:sodipodi="http://sodipodi.sourceforge.net/DTD/sodipodi-0.dtd"
   xmlns:inkscape="http://www.inkscape.org/namespaces/inkscape"
   width="3200"
   height="2300"
   id="svg2"
   version="1.1"
   inkscape:version="0.48.5 r10040"
   sodipodi:docname="CANC Terni.svg">
  <defs
     id="defs4" />
  <sodipodi:namedview
     id="base"
     pagecolor="#ffffff"
     bordercolor="#666666"
     borderopacity="1.0"
     inkscape:pageopacity="0.0"
     inkscape:pageshadow="2"
     inkscape:zoom="0.1767767"
     inkscape:cx="1320.3082"
     inkscape:cy="1008.0699"
     inkscape:document-units="px"
     inkscape:current-layer="layer1"
     showgrid="false"
     fit-margin-top="0"
     fit-margin-left="0"
     fit-margin-right="0"
     fit-margin-bottom="0"
     inkscape:window-width="1366"
     inkscape:window-height="705"
     inkscape:window-x="-8"
     inkscape:window-y="-8"
     inkscape:window-maximized="1" />
  <metadata
     id="metadata7">
    <rdf:RDF>
      <cc:Work
         rdf:about="">
        <dc:format>image/svg+xml</dc:format>
        <dc:type
           rdf:resource="http://purl.org/dc/dcmitype/StillImage" />
        <dc:title></dc:title>
      </cc:Work>
    </rdf:RDF>
  </metadata>
  <g
     inkscape:label="Livello 1"
     inkscape:groupmode="layer"
     id="layer1"
     transform="translate(0,1247.625)">
    <rect
       style="fill:#ffffff;fill-opacity:1;stroke:#000000;stroke-width:4;stroke-miterlimit:2;stroke-opacity:1;stroke-dasharray:none"
       id="rect3899"
       width="3196"
       height="2296"
       x="2"
       y="-1245.625" />
    <rect
       style="fill:#00408b;fill-opacity:1;stroke:none"
       id="rect3895"
       width="1250"
       height="950"
       x="240"
       y="-997.63782" />
    <g
       style="font-size:170.69630432px;font-style:normal;font-weight:normal;line-height:125%;letter-spacing:0px;word-spacing:0px;fill:#ffffff;fill-opacity:1;stroke:none;font-family:Sans"
       id="text3847">
      <path
         d="m 482.68798,-292.80972 0,22.01945 -37.38149,0 0,98.15246 -24.921,0 0,-98.31916 -37.38149,0 0,-21.85275 z"
         style="font-variant:normal;font-stretch:normal;fill:#ffffff;font-family:CodiceBianco;-inkscape-font-specification:CodiceBianco"
         id="path9882" />
      <path
         d="m 610.481,-233.40357 c -1.2e-4,19.22908 -5.51844,34.59111 -16.55496,46.08612 -10.58179,10.92552 -24.23693,16.38827 -40.96544,16.38827 -16.72865,0 -30.32822,-5.46275 -40.79875,-16.38827 -11.03666,-11.49501 -16.55497,-26.85704 -16.55496,-46.08612 -1e-5,-18.77748 6.08785,-33.85647 18.26359,-45.23702 10.92547,-10.12664 23.95549,-15.19001 39.09012,-15.19014 15.13449,1.3e-4 28.16451,5.0635 39.09012,15.19014 12.28674,11.38055 18.43016,26.45954 18.43028,45.23702 z m -26.28581,0 c -10e-5,-11.26577 -2.87299,-20.25604 -8.61869,-26.97083 -5.74587,-6.71461 -13.2845,-10.07196 -22.6159,-10.07206 -9.33154,10e-5 -16.81374,3.35745 -22.44661,10.07206 -5.63296,6.71479 -8.44942,15.70506 -8.44938,26.97083 -4e-5,11.72084 2.38926,20.88041 7.16791,27.47873 5.3481,7.51175 13.25745,11.26761 23.72808,11.26758 10.58162,3e-5 18.54654,-3.75583 23.89477,-11.26758 4.89312,-6.71293 7.33972,-15.87249 7.33982,-27.47873 z"
         style="font-variant:normal;font-stretch:normal;fill:#ffffff;font-family:CodiceBianco;-inkscape-font-specification:CodiceBianco"
         id="path9884" />
      <path
         d="m 654.61366,-194.31345 55.13457,0 0,21.67564 -78.69075,0 0,-120.00001 23.55618,0 z"
         style="font-variant:normal;font-stretch:normal;fill:#ffffff;font-family:CodiceBianco;-inkscape-font-specification:CodiceBianco"
         id="path9886" />
      <path
         d="m 755.56349,-292.63782 33.28703,46.60185 33.62563,-46.60185 27.82254,0 0,120.00001 -23.89477,0 0,-83.81143 -37.5534,50.5244 -37.20958,-50.5244 0,83.81143 -23.89999,0 0,-120.00001 z"
         style="font-variant:normal;font-stretch:normal;fill:#ffffff;font-family:CodiceBianco;-inkscape-font-specification:CodiceBianco"
         id="path9888" />
      <path
         d="m 955.70241,-292.63782 0,21.68085 -58.20802,0 0,25.77531 52.23303,0 0,21.67564 -52.06112,0 0,27.65584 64.01111,0 0,23.21237 -88.59351,0 0,-120.00001 z"
         style="font-variant:normal;font-stretch:normal;fill:#ffffff;font-family:CodiceBianco;-inkscape-font-specification:CodiceBianco"
         id="path9890" />
      <path
         d="m 982.40497,-292.63782 84.49383,0 0,20.65463 -55.6451,75.7892 57.6923,0 0,23.55618 -88.24966,0 0,-23.89478 53.43116,-73.91387 -51.72253,0 z"
         style="font-variant:normal;font-stretch:normal;fill:#ffffff;font-family:CodiceBianco;-inkscape-font-specification:CodiceBianco"
         id="path9892" />
      <path
         d="m 1090.4237,-292.63782 84.4938,0 0,20.65463 -55.645,75.7892 57.6923,0 0,23.55618 -88.2497,0 0,-23.89478 53.4311,-73.91387 -51.7225,0 z"
         style="font-variant:normal;font-stretch:normal;fill:#ffffff;font-family:CodiceBianco;-inkscape-font-specification:CodiceBianco"
         id="path9894" />
      <path
         d="m 1311.2693,-233.40357 c -10e-5,19.22908 -5.5184,34.59111 -16.5549,46.08612 -10.5818,10.92552 -24.237,16.38827 -40.9655,16.38827 -16.7286,0 -30.3282,-5.46275 -40.7987,-16.38827 -11.0367,-11.49501 -16.555,-26.85704 -16.555,-46.08612 0,-18.77748 6.0879,-33.85647 18.2636,-45.23702 10.9255,-10.12664 23.9555,-15.19001 39.0901,-15.19014 15.1345,1.3e-4 28.1645,5.0635 39.0901,15.19014 12.2868,11.38055 18.4302,26.45954 18.4303,45.23702 z m -26.2858,0 c -10e-5,-11.26577 -2.873,-20.25604 -8.6187,-26.97083 -5.7458,-6.71461 -13.2845,-10.07196 -22.6159,-10.07206 -9.3315,10e-5 -16.8137,3.35745 -22.4466,10.07206 -5.6329,6.71479 -8.4494,15.70506 -8.4494,26.97083 0,11.72084 2.3893,20.88041 7.1679,27.47873 5.3481,7.51175 13.2575,11.26761 23.7281,11.26758 10.5816,3e-5 18.5466,-3.75583 23.8948,-11.26758 4.8931,-6.71293 7.3397,-15.87249 7.3398,-27.47873 z"
         style="font-variant:normal;font-stretch:normal;fill:#ffffff;font-family:CodiceBianco;-inkscape-font-specification:CodiceBianco"
         id="path9896" />
    </g>
    <rect
       y="-997.63782"
       x="1710"
       height="950"
       width="1250"
       id="rect3897"
       style="fill:#00408b;fill-opacity:1;stroke:none" />
    <g
       style="font-size:170.69630432px;font-style:normal;font-weight:normal;line-height:125%;letter-spacing:0px;word-spacing:0px;fill:#ffffff;fill-opacity:1;stroke:none;font-family:Sans"
       id="text3869">
      <path
         d="m 482.68798,-567.80923 0,22.01945 -37.38149,0 0,98.15245 -24.921,0 0,-98.31915 -37.38149,0 0,-21.85275 z"
         style="font-variant:normal;font-stretch:normal;fill:#ffffff;font-family:CodiceBianco;-inkscape-font-specification:CodiceBianco"
         id="path9899" />
      <path
         d="m 528.72201,-567.63733 34.47995,0 40.79354,120 -26.45772,0 -6.8241,-20.14412 -48.99288,0 -6.65741,20.14412 -25.6034,0 z m 17.23737,26.96823 -16.72686,50.5296 34.14134,0 z"
         style="font-variant:normal;font-stretch:normal;fill:#ffffff;font-family:CodiceBianco;-inkscape-font-specification:CodiceBianco"
         id="path9901" />
      <path
         d="m 677.2478,-567.63733 c 9.2168,1.3e-4 17.35362,3.35661 24.41049,10.06946 7.39701,7.05689 11.09557,15.70595 11.09567,25.94721 -10e-5,9.21696 -3.07355,17.06901 -9.22035,23.55618 -4.55296,4.89327 -10.07128,8.47896 -16.55496,10.75707 l 30.89599,49.67008 -26.97343,0 -29.53117,-47.62285 -17.91978,0 0,47.62285 -23.72807,0 0,-120 z m -33.79754,21.33704 0,29.87498 29.35927,0 c 3.07338,7e-5 6.08952,-1.42291 9.04844,-4.26897 2.95877,-2.8459 4.4382,-6.37342 4.43827,-10.58257 -7e-5,-4.21244 -1.45171,-7.76948 -4.35492,-10.67112 -2.90335,-2.90144 -6.06188,-4.35221 -9.4756,-4.35232 z"
         style="font-variant:normal;font-stretch:normal;fill:#ffffff;font-family:CodiceBianco;-inkscape-font-specification:CodiceBianco"
         id="path9903" />
      <path
         d="m 751.26587,-567.63733 23.38948,84.83765 25.09289,-84.83765 25.4315,0 -34.99045,120 -31.2398,0 -32.77131,-120 z"
         style="font-variant:normal;font-stretch:normal;fill:#ffffff;font-family:CodiceBianco;-inkscape-font-specification:CodiceBianco"
         id="path9905" />
      <path
         d="m 867.04639,-567.63733 0,120 -24.74909,0 0,-120 z"
         style="font-variant:normal;font-stretch:normal;fill:#ffffff;font-family:CodiceBianco;-inkscape-font-specification:CodiceBianco"
         id="path9907" />
      <path
         d="m 938.02746,-568.49164 c 20.82645,1.3e-4 38.52221,6.54466 53.08734,19.63361 l -17.75308,15.19014 c -3.52848,-3.07335 -7.90945,-5.80473 -13.14291,-8.19413 -6.48731,-3.07335 -12.74534,-4.61007 -18.77409,-4.61017 -3.30272,10e-5 -6.43347,0.51234 -9.39226,1.53672 -6.94222,2.27828 -10.12854,6.65924 -9.55895,13.14291 0.22916,2.6186 2.5056,4.78216 6.82931,6.49071 3.86867,1.59063 11.60612,3.63786 23.21237,6.14169 24.35482,5.23709 36.53227,17.24264 36.53238,36.01667 -1.1e-4,11.49508 -4.52346,20.74147 -13.57006,27.73919 -9.0468,6.99775 -21.36664,10.49662 -36.95955,10.49662 -12.97105,0 -25.31693,-3.47109 -37.03768,-10.41327 -7.39713,-4.20905 -13.59959,-9.15782 -18.60739,-14.84633 l 20.82653,-15.70585 c 1.93434,2.95889 5.91766,6.1452 11.94999,9.55895 8.07775,4.55291 16.4403,6.88664 25.08769,7.00122 5.91763,0.11115 10.69796,-1.05658 14.34103,-3.50322 3.64291,-2.44657 5.46441,-5.60423 5.46449,-9.473 -8e-5,-4.43822 -2.84606,-7.90931 -8.53794,-10.41326 -3.52846,-1.5905 -9.78735,-3.32518 -18.7767,-5.20403 -8.98945,-1.87874 -15.07644,-3.55785 -18.26098,-5.03733 -5.57739,-2.50385 -9.44785,-4.72298 -11.61139,-6.65741 -6.02884,-5.34808 -9.04325,-12.40311 -9.04324,-21.16513 -10e-6,-12.85977 4.72129,-22.64618 14.16392,-29.35927 7.85202,-5.57723 17.69573,-8.3659 29.53117,-8.36603 z"
         style="font-variant:normal;font-stretch:normal;fill:#ffffff;font-family:CodiceBianco;-inkscape-font-specification:CodiceBianco"
         id="path9909" />
      <path
         d="m 1033.4086,-567.63733 0,120 -24.7491,0 0,-120 z"
         style="font-variant:normal;font-stretch:normal;fill:#ffffff;font-family:CodiceBianco;-inkscape-font-specification:CodiceBianco"
         id="path9911" />
      <path
         d="m 1168.9113,-508.40308 c -10e-5,19.22908 -5.5184,34.5911 -16.555,46.08612 -10.5818,10.92552 -24.2369,16.38827 -40.9654,16.38826 -16.7287,10e-6 -30.3282,-5.46274 -40.7988,-16.38826 -11.0366,-11.49502 -16.5549,-26.85704 -16.5549,-46.08612 0,-18.77748 6.0878,-33.85648 18.2636,-45.23703 10.9254,-10.12663 23.9555,-15.19 39.0901,-15.19013 15.1345,1.3e-4 28.1645,5.0635 39.0901,15.19013 12.2867,11.38055 18.4302,26.45955 18.4303,45.23703 z m -26.2858,0 c -1e-4,-11.26577 -2.873,-20.25604 -8.6187,-26.97083 -5.7459,-6.71461 -13.2845,-10.07196 -22.6159,-10.07206 -9.3316,10e-5 -16.8137,3.35745 -22.4466,10.07206 -5.633,6.71479 -8.4494,15.70506 -8.4494,26.97083 0,11.72084 2.3893,20.8804 7.1679,27.47873 5.3481,7.51175 13.2575,11.26761 23.7281,11.26758 10.5816,3e-5 18.5465,-3.75583 23.8948,-11.26758 4.8931,-6.71293 7.3397,-15.8725 7.3398,-27.47873 z"
         style="font-variant:normal;font-stretch:normal;fill:#ffffff;font-family:CodiceBianco;-inkscape-font-specification:CodiceBianco"
         id="path9913" />
    </g>
    <g
       style="font-size:170.69630432px;font-style:normal;font-weight:normal;line-height:125%;letter-spacing:0px;word-spacing:0px;fill:#ffffff;fill-opacity:1;stroke:none;font-family:Sans"
       id="text3873">
      <path
         d="m 2207.125,-506.86682 c 0,-23.10114 7.5117,-40.1718 22.5352,-51.21201 10.4671,-7.62273 22.2451,-11.43415 35.3343,-11.43428 10.5816,1.3e-4 20.7656,3.24201 30.5521,9.72565 8.7619,5.69207 15.0772,12.34947 18.946,19.97221 l -21.6756,10.75708 c -6.147,-12.06449 -15.7632,-18.09679 -28.8488,-18.09689 -7.0568,1e-4 -12.747,1.65143 -17.0706,4.95398 -4.6641,3.52502 -7.8504,6.8242 -9.559,9.89755 -3.0735,5.34824 -4.6102,12.85822 -4.6102,22.52996 0,10.69983 0.797,18.43901 2.3911,23.21757 1.7086,5.34819 5.237,9.95663 10.5852,13.82532 6.2579,4.6675 12.858,7.00124 19.8003,7.00121 8.1923,3e-5 15.276,-2.90238 21.2511,-8.70724 5.9749,-5.80479 8.9624,-12.46132 8.9624,-19.96961 l -31.7503,0 0,-21.50894 53.2593,0 0,68.44938 -20.9984,0 c -0.3405,-1.02447 -1.0229,-2.6185 -2.0473,-4.78208 -10.1268,5.34816 -19.8004,8.02223 -29.0206,8.02223 -12.6308,0 -24.1241,-3.64125 -34.48,-10.92377 -15.7041,-10.92201 -23.5562,-28.1611 -23.5562,-51.71732 z"
         style="font-variant:normal;font-stretch:normal;text-align:end;text-anchor:end;fill:#ffffff;font-family:CodiceBianco;-inkscape-font-specification:CodiceBianco"
         id="path9856" />
      <path
         d="m 2398.3145,-567.63779 c 9.2168,1.3e-4 17.3536,3.35661 24.4105,10.06946 7.397,7.05689 11.0955,15.70595 11.0957,25.94722 -2e-4,9.21695 -3.0736,17.069 -9.2204,23.55617 -4.553,4.89327 -10.0713,8.47896 -16.555,10.75707 l 30.896,49.67009 -26.9734,0 -29.5312,-47.62286 -17.9197,0 0,47.62286 -23.7281,0 0,-120.00001 z m -33.7975,21.33704 0,29.87498 29.3592,0 c 3.0734,8e-5 6.0895,-1.42291 9.0485,-4.26897 2.9587,-2.8459 4.4382,-6.37342 4.4382,-10.58257 0,-4.21244 -1.4517,-7.76948 -4.3549,-10.67112 -2.9033,-2.90144 -6.0619,-4.35221 -9.4756,-4.35232 z"
         style="font-variant:normal;font-stretch:normal;text-align:end;text-anchor:end;fill:#ffffff;font-family:CodiceBianco;-inkscape-font-specification:CodiceBianco"
         id="path9858" />
      <path
         d="m 2486.1631,-567.63779 34.4799,0 40.7936,120.00001 -26.4578,0 -6.8241,-20.14413 -48.9928,0 -6.6574,20.14413 -25.6034,0 z m 17.2373,26.96823 -16.7268,50.52961 34.1413,0 z"
         style="font-variant:normal;font-stretch:normal;text-align:end;text-anchor:end;fill:#ffffff;font-family:CodiceBianco;-inkscape-font-specification:CodiceBianco"
         id="path9860" />
      <path
         d="m 2629.7401,-569.17451 c 10.6962,1.3e-4 21.4498,4.15362 32.2608,12.4605 14.7941,11.38055 22.1912,27.48402 22.1913,48.31047 -10e-5,20.93771 -7.2843,37.09675 -21.8527,48.47716 -10.6964,8.30701 -21.5629,12.46051 -32.5994,12.4605 l -51.212,0 0,-121.70863 z m -1.8806,21.85275 -23.8947,0 0,77.49262 22.5299,0 c 9.3314,3e-5 16.8414,-3.12898 22.53,-9.38704 6.1468,-6.82753 9.2202,-16.55664 9.2203,-29.18736 -10e-5,-13.76967 -3.5285,-24.06833 -10.5851,-30.89599 -5.4629,-5.34805 -12.063,-8.02212 -19.8004,-8.02223 z"
         style="font-variant:normal;font-stretch:normal;text-align:end;text-anchor:end;fill:#ffffff;font-family:CodiceBianco;-inkscape-font-specification:CodiceBianco"
         id="path9862" />
      <path
         d="m 2812.2978,-508.40354 c -10e-5,19.22908 -5.5184,34.59111 -16.5549,46.08612 -10.5818,10.92552 -24.2369,16.38827 -40.9655,16.38827 -16.7286,0 -30.3282,-5.46275 -40.7987,-16.38827 -11.0367,-11.49501 -16.555,-26.85704 -16.555,-46.08612 0,-18.77748 6.0879,-33.85647 18.2636,-45.23702 10.9255,-10.12664 23.9555,-15.19001 39.0901,-15.19014 15.1345,1.3e-4 28.1646,5.0635 39.0902,15.19014 12.2867,11.38055 18.4301,26.45954 18.4302,45.23702 z m -26.2858,0 c -1e-4,-11.26577 -2.873,-20.25604 -8.6187,-26.97083 -5.7458,-6.71461 -13.2845,-10.07196 -22.6159,-10.07206 -9.3315,10e-5 -16.8137,3.35745 -22.4466,10.07206 -5.6329,6.71479 -8.4494,15.70506 -8.4494,26.97083 0,11.72084 2.3893,20.88041 7.168,27.47873 5.3481,7.51175 13.2574,11.26761 23.728,11.26758 10.5817,3e-5 18.5466,-3.75583 23.8948,-11.26758 4.8931,-6.71293 7.3397,-15.87249 7.3398,-27.47873 z"
         style="font-variant:normal;font-stretch:normal;text-align:end;text-anchor:end;fill:#ffffff;font-family:CodiceBianco;-inkscape-font-specification:CodiceBianco"
         id="path9864" />
    </g>
    <g
       style="font-size:170.69630432px;font-style:normal;font-weight:normal;line-height:125%;letter-spacing:0px;word-spacing:0px;fill:#ffffff;fill-opacity:1;stroke:none;font-family:Sans"
       id="text3877">
      <path
         d="m 2043.4612,-231.52825 c 0,-22.5316 7.1696,-39.43035 21.509,-50.6963 10.4705,-8.19227 22.5333,-12.28846 36.1885,-12.28859 12.516,1.3e-4 23.7245,3.38526 33.6257,10.15541 9.9009,6.77038 16.9003,16.24337 20.9984,28.41899 l -23.7281,9.39226 c -1.3649,-7.39703 -4.9211,-13.42845 -10.6685,-18.09429 -5.7476,-4.66563 -12.3772,-6.9985 -19.8889,-6.99861 -4.7786,1.1e-4 -9.3871,1.02285 -13.8253,3.06824 -12.7453,5.80666 -18.946,17.98411 -18.6022,36.53239 0.2257,9.78648 1.3909,16.95525 3.4954,21.50634 2.1045,4.55117 6.2875,8.8757 12.5491,12.9736 4.5493,3.07348 9.5554,4.61021 15.0182,4.61018 7.7409,3e-5 14.8541,-2.7027 21.3397,-8.10818 6.4854,-5.40541 10.1257,-11.46635 10.9211,-18.18285 l 23.3895,9.55896 c -1.7088,6.71648 -6.0342,13.77325 -12.9762,21.17034 -11.1514,11.72079 -25.1486,17.58118 -41.9917,17.58118 -12.7453,0 -24.1813,-3.47108 -34.308,-10.41327 -15.3638,-10.47054 -23.0457,-27.19912 -23.0457,-50.1858 z"
         style="font-variant:normal;font-stretch:normal;text-align:end;text-anchor:end;fill:#ffffff;font-family:CodiceBianco;-inkscape-font-specification:CodiceBianco"
         id="path9839" />
      <path
         d="m 2200.7125,-292.63782 0,120.00001 -24.7491,0 0,-120.00001 z"
         style="font-variant:normal;font-stretch:normal;text-align:end;text-anchor:end;fill:#ffffff;font-family:CodiceBianco;-inkscape-font-specification:CodiceBianco"
         id="path9841" />
      <path
         d="m 2240.6257,-292.63782 23.3894,84.83765 25.0929,-84.83765 25.4315,0 -34.9904,120.00001 -31.2398,0 -32.7713,-120.00001 z"
         style="font-variant:normal;font-stretch:normal;text-align:end;text-anchor:end;fill:#ffffff;font-family:CodiceBianco;-inkscape-font-specification:CodiceBianco"
         id="path9843" />
      <path
         d="m 2356.4062,-292.63782 0,120.00001 -24.7491,0 0,-120.00001 z"
         style="font-variant:normal;font-stretch:normal;text-align:end;text-anchor:end;fill:#ffffff;font-family:CodiceBianco;-inkscape-font-specification:CodiceBianco"
         id="path9845" />
      <path
         d="m 2433.7061,-294.17454 c 10.6962,1.3e-4 21.4498,4.15362 32.2608,12.4605 14.7941,11.38055 22.1912,27.48402 22.1913,48.31047 -10e-5,20.93771 -7.2843,37.09675 -21.8527,48.47716 -10.6964,8.30701 -21.5629,12.46051 -32.5994,12.4605 l -51.2121,0 0,-121.70863 z m -1.8806,21.85275 -23.8948,0 0,77.49262 22.53,0 c 9.3314,3e-5 16.8414,-3.12898 22.53,-9.38704 6.1468,-6.82753 9.2202,-16.55664 9.2203,-29.18736 -10e-5,-13.76967 -3.5285,-24.06833 -10.5852,-30.89599 -5.4628,-5.34805 -12.0629,-8.02212 -19.8003,-8.02223 z"
         style="font-variant:normal;font-stretch:normal;text-align:end;text-anchor:end;fill:#ffffff;font-family:CodiceBianco;-inkscape-font-specification:CodiceBianco"
         id="path9847" />
      <path
         d="m 2534.5048,-292.63782 34.4799,0 40.7936,120.00001 -26.4577,0 -6.8241,-20.14413 -48.9929,0 -6.6574,20.14413 -25.6034,0 z m 17.2374,26.96823 -16.7269,50.52961 34.1413,0 z"
         style="font-variant:normal;font-stretch:normal;text-align:end;text-anchor:end;fill:#ffffff;font-family:CodiceBianco;-inkscape-font-specification:CodiceBianco"
         id="path9849" />
      <path
         d="m 2649.0612,-194.31345 55.1345,0 0,21.67564 -78.6907,0 0,-120.00001 23.5562,0 z"
         style="font-variant:normal;font-stretch:normal;text-align:end;text-anchor:end;fill:#ffffff;font-family:CodiceBianco;-inkscape-font-specification:CodiceBianco"
         id="path9851" />
      <path
         d="m 2804.1246,-292.63782 0,21.68085 -58.2081,0 0,25.77531 52.2331,0 0,21.67564 -52.0612,0 0,27.65584 64.0111,0 0,23.21237 -88.5935,0 0,-120.00001 z"
         style="font-variant:normal;font-stretch:normal;text-align:end;text-anchor:end;fill:#ffffff;font-family:CodiceBianco;-inkscape-font-specification:CodiceBianco"
         id="path9853" />
    </g>
    <g
       style="font-size:213.37037659px;font-style:normal;font-weight:normal;line-height:125%;letter-spacing:0px;word-spacing:0px;fill:#ffffff;fill-opacity:1;stroke:none;font-family:Sans"
       id="text3885">
      <path
         d="m 427.12885,-872.6378 43.09994,0 50.99192,150 -33.07215,0 -8.53012,-25.18015 -61.2411,0 -8.32176,25.18015 -32.00426,0 z m 21.54671,33.71028 -20.90857,63.16201 42.67668,0 z"
         style="font-variant:normal;font-stretch:normal;fill:#ffffff;font-family:CodiceBianco;-inkscape-font-specification:CodiceBianco"
         id="path9916" />
      <path
         d="m 540.66419,-872.6378 30.72799,0 0,91.32445 c -4e-5,6.39874 2.41791,12.72796 7.25387,18.98767 6.2597,7.96584 14.65308,11.94873 25.18015,11.94869 10.38366,4e-5 18.70324,-3.98285 24.95876,-11.94869 5.12231,-6.25971 7.68351,-12.58893 7.68362,-18.98767 l 0,-91.32445 30.728,0 0,94.09837 c -1.5e-4,17.06898 -6.90021,31.50724 -20.70021,43.31481 -12.80181,10.80918 -26.95573,16.21376 -42.4618,16.21375 -16.07056,10e-6 -30.6499,-5.93852 -43.73806,-17.81559 -13.08824,-11.87703 -19.63233,-25.85296 -19.63232,-41.92785 z"
         style="font-variant:normal;font-stretch:normal;fill:#ffffff;font-family:CodiceBianco;-inkscape-font-specification:CodiceBianco"
         id="path9918" />
      <path
         d="m 753.72854,-873.70569 c 26.03307,1.6e-4 48.15277,8.18082 66.35918,24.54202 l -22.19135,18.98767 c -4.4106,-3.84169 -9.88681,-7.25591 -16.42864,-10.24266 -8.10914,-3.84168 -15.93167,-5.76259 -23.46761,-5.76272 -4.1284,1.3e-4 -8.04183,0.64043 -11.74032,1.92091 -8.67778,2.84784 -12.66067,8.32404 -11.94869,16.42863 0.28645,3.27325 3.132,5.97771 8.53664,8.11339 4.83584,1.98829 14.50765,4.54733 29.01545,7.67711 30.44353,6.54637 45.66534,21.5533 45.66548,45.02084 -1.4e-4,14.36885 -5.65432,25.92683 -16.96258,34.67399 -11.30849,8.74718 -26.70829,13.12077 -46.19943,13.12076 -16.21381,10e-6 -31.64616,-4.33885 -46.2971,-13.01658 -9.24641,-5.26131 -16.99949,-11.44727 -23.25924,-18.55791 l 26.03316,-19.63231 c 2.41792,3.69861 7.39708,7.6815 14.93749,11.94869 10.09719,5.69113 20.55038,8.6083 31.35961,8.75152 7.39704,0.13894 13.37246,-1.32073 17.92629,-4.37902 4.55365,-3.05821 6.83051,-7.00529 6.83062,-11.84125 -1.1e-4,-5.54778 -3.55758,-9.88664 -10.67243,-13.01658 -4.41057,-1.98813 -12.23419,-4.15647 -23.47087,-6.50504 -11.23682,-2.34842 -18.84555,-4.44731 -22.82623,-6.29666 -6.97173,-3.12981 -11.80981,-5.90372 -14.51424,-8.32176 -7.53605,-6.6851 -11.30406,-15.50389 -11.30404,-26.45642 -2e-5,-16.07471 5.9016,-28.30772 17.70489,-36.69908 9.81503,-6.97154 22.11967,-10.45738 36.91396,-10.45754 z"
         style="font-variant:normal;font-stretch:normal;fill:#ffffff;font-family:CodiceBianco;-inkscape-font-specification:CodiceBianco"
         id="path9920" />
      <path
         d="m 955.10463,-872.85268 0,27.52431 -46.72686,0 0,122.69057 -31.15124,0 0,-122.89894 -46.72687,0 0,-27.31594 z"
         style="font-variant:normal;font-stretch:normal;fill:#ffffff;font-family:CodiceBianco;-inkscape-font-specification:CodiceBianco"
         id="path9922" />
      <path
         d="m 1048.2784,-872.6378 c 11.5209,1.6e-4 21.692,4.19576 30.5131,12.58682 9.2462,8.82112 13.8694,19.63244 13.8696,32.43402 -2e-4,11.5212 -3.842,21.33626 -11.5255,29.44522 -5.6912,6.11659 -12.5891,10.5987 -20.6937,13.44634 l 38.62,62.0876 -33.7168,0 -36.9139,-59.52856 -22.3998,0 0,59.52856 -29.66006,0 0,-150 z m -42.247,26.6713 0,37.34372 36.6991,0 c 3.8417,1e-4 7.6119,-1.77864 11.3106,-5.33621 3.6984,-3.55737 5.5477,-7.96677 5.5478,-13.22821 -10e-5,-5.26555 -1.8146,-9.71185 -5.4436,-13.3389 -3.6292,-3.6268 -7.5774,-5.44027 -11.8445,-5.4404 z"
         style="font-variant:normal;font-stretch:normal;fill:#ffffff;font-family:CodiceBianco;-inkscape-font-specification:CodiceBianco"
         id="path9924" />
      <path
         d="m 1154.6705,-872.6378 0,150 -30.9364,0 0,-150 z"
         style="font-variant:normal;font-stretch:normal;fill:#ffffff;font-family:CodiceBianco;-inkscape-font-specification:CodiceBianco"
         id="path9926" />
      <path
         d="m 1221.8502,-872.6378 43.0999,0 50.9919,150 -33.0721,0 -8.5302,-25.18015 -61.2411,0 -8.3217,25.18015 -32.0043,0 z m 21.5467,33.71028 -20.9086,63.16201 42.6767,0 z"
         style="font-variant:normal;font-stretch:normal;fill:#ffffff;font-family:CodiceBianco;-inkscape-font-specification:CodiceBianco"
         id="path9928" />
    </g>
    <g
       style="font-size:213.37037659px;font-style:normal;font-weight:normal;line-height:125%;letter-spacing:0px;word-spacing:0px;fill:#ffffff;fill-opacity:1;stroke:none;font-family:Sans"
       id="text3889">
      <path
         d="m 2050.8187,-872.85317 0,27.52431 -46.7269,0 0,122.69057 -31.1512,0 0,-122.89894 -46.7269,0 0,-27.31594 z"
         style="font-variant:normal;font-stretch:normal;text-align:end;text-anchor:end;fill:#ffffff;font-family:CodiceBianco;-inkscape-font-specification:CodiceBianco"
         id="path9867" />
      <path
         d="m 2143.9924,-872.63829 c 11.521,1.6e-4 21.692,4.19577 30.5131,12.58683 9.2463,8.82111 13.8695,19.63244 13.8696,32.43401 -1e-4,11.5212 -3.8419,21.33626 -11.5254,29.44522 -5.6912,6.11659 -12.5891,10.5987 -20.6937,13.44634 l 38.62,62.0876 -33.7168,0 -36.914,-59.52856 -22.3997,0 0,59.52856 -29.6601,0 0,-150 z m -42.2469,26.6713 0,37.34372 36.6991,0 c 3.8417,1e-4 7.6119,-1.77864 11.3105,-5.33621 3.6985,-3.55737 5.5478,-7.96677 5.5479,-13.22821 -10e-5,-5.26555 -1.8147,-9.71185 -5.4437,-13.3389 -3.6292,-3.6268 -7.5774,-5.44027 -11.8445,-5.4404 z"
         style="font-variant:normal;font-stretch:normal;text-align:end;text-anchor:end;fill:#ffffff;font-family:CodiceBianco;-inkscape-font-specification:CodiceBianco"
         id="path9869" />
      <path
         d="m 2250.3846,-872.63829 0,150 -30.9364,0 0,-150 z"
         style="font-variant:normal;font-stretch:normal;text-align:end;text-anchor:end;fill:#ffffff;font-family:CodiceBianco;-inkscape-font-specification:CodiceBianco"
         id="path9871" />
      <path
         d="m 2383.7085,-872.63829 0,27.10106 -72.76,0 0,32.21914 65.2912,0 0,27.09455 -65.0764,0 0,34.5698 80.0139,0 0,29.01545 -110.7419,0 0,-150 z"
         style="font-variant:normal;font-stretch:normal;text-align:end;text-anchor:end;fill:#ffffff;font-family:CodiceBianco;-inkscape-font-specification:CodiceBianco"
         id="path9873" />
      <path
         d="m 2477.4683,-873.70618 c 26.033,1.6e-4 48.1527,8.18083 66.3591,24.54202 l -22.1913,18.98767 c -4.4106,-3.84169 -9.8868,-7.25591 -16.4287,-10.24266 -8.1091,-3.84168 -15.9316,-5.76259 -23.4676,-5.76272 -4.1284,1.3e-4 -8.0418,0.64043 -11.7403,1.92091 -8.6778,2.84784 -12.6607,8.32405 -11.9487,16.42863 0.2865,3.27325 3.132,5.97771 8.5367,8.11339 4.8358,1.98829 14.5076,4.54733 29.0154,7.67711 30.4435,6.54637 45.6654,21.5533 45.6655,45.02084 -10e-5,14.36885 -5.6543,25.92684 -16.9626,34.67399 -11.3085,8.74719 -26.7083,13.12077 -46.1994,13.12077 -16.2138,0 -31.6462,-4.33886 -46.2971,-13.01659 -9.2464,-5.2613 -16.9995,-11.44727 -23.2593,-18.55791 l 26.0332,-19.63231 c 2.4179,3.69861 7.3971,7.6815 14.9375,11.94869 10.0972,5.69113 20.5504,8.6083 31.3596,8.75152 7.397,0.13895 13.3725,-1.32073 17.9263,-4.37902 4.5536,-3.05821 6.8305,-7.00529 6.8306,-11.84125 -1e-4,-5.54778 -3.5576,-9.88663 -10.6724,-13.01658 -4.4106,-1.98813 -12.2342,-4.15647 -23.4709,-6.50504 -11.2368,-2.34842 -18.8455,-4.44731 -22.8262,-6.29666 -6.9718,-3.1298 -11.8098,-5.90372 -14.5143,-8.32176 -7.536,-6.68509 -11.304,-15.50389 -11.304,-26.45641 0,-16.07472 5.9016,-28.30773 17.7049,-36.69908 9.815,-6.97155 22.1197,-10.45739 36.914,-10.45755 z"
         style="font-variant:normal;font-stretch:normal;text-align:end;text-anchor:end;fill:#ffffff;font-family:CodiceBianco;-inkscape-font-specification:CodiceBianco"
         id="path9875" />
      <path
         d="m 2678.8444,-872.85317 0,27.52431 -46.7269,0 0,122.69057 -31.1512,0 0,-122.89894 -46.7269,0 0,-27.31594 z"
         style="font-variant:normal;font-stretch:normal;text-align:end;text-anchor:end;fill:#ffffff;font-family:CodiceBianco;-inkscape-font-specification:CodiceBianco"
         id="path9877" />
      <path
         d="m 2802.5312,-872.63829 0,27.10106 -72.7601,0 0,32.21914 65.2913,0 0,27.09455 -65.0764,0 0,34.5698 80.0139,0 0,29.01545 -110.7419,0 0,-150 z"
         style="font-variant:normal;font-stretch:normal;text-align:end;text-anchor:end;fill:#ffffff;font-family:CodiceBianco;-inkscape-font-specification:CodiceBianco"
         id="path9879" />
    </g>
    <g
       style="font-size:164.04684448px;font-style:normal;font-weight:normal;line-height:125%;letter-spacing:0px;word-spacing:0px;fill:#000000;fill-opacity:1;stroke:none;font-family:Sans"
       id="text8977">
      <path
         d="m 2267.1046,202.38503 c 9.7322,9e-5 18.4265,3.22582 26.0829,9.6772 6.4514,5.57711 10.388,11.48288 11.8099,17.71734 l -22.964,8.36555 c -0.4373,-3.60783 -1.7506,-6.67002 -3.9399,-9.18659 -2.7335,-3.06046 -6.4516,-4.59072 -11.1541,-4.59079 -4.7026,7e-5 -8.5575,1.72224 -11.5646,5.16652 -3.0071,3.4444 -4.5107,7.84661 -4.5107,13.20665 l 0,6.23286 c 0,4.4857 1.2582,8.47739 3.7748,11.9751 2.9503,4.26541 7.1606,6.39809 12.6309,6.39807 3.3909,2e-5 6.6992,-1.3667 9.925,-4.10017 3.2257,-2.73342 4.8936,-6.23283 5.0038,-10.49824 l 23.2944,8.20034 c -10e-5,1.96918 -1.3134,4.9763 -3.94,9.02137 -3.2808,5.24997 -7.381,9.51535 -12.3005,12.79614 -6.5616,4.37552 -13.9993,6.56328 -22.3131,6.56327 -12.0285,10e-6 -22.1446,-4.53904 -30.3483,-13.61717 -6.9988,-7.65295 -10.4982,-15.85495 -10.4982,-24.60602 l 0,-7.70972 c 0,-9.95249 3.3909,-18.92046 10.1728,-26.90393 7.8733,-9.4051 18.1529,-14.10769 30.8389,-14.10778 z"
         style="font-variant:normal;font-stretch:normal;fill:#000000;font-family:CodiceNero;-inkscape-font-specification:CodiceNero"
         id="path9968" />
      <path
         d="m 2357.4585,202.21982 c 10.4999,9e-5 19.6314,3.71811 27.3946,11.15406 8.7509,8.31389 13.1264,19.251 13.1265,32.81137 -1e-4,1.74892 -0.2737,4.53743 -0.821,8.36555 l -54.7941,0 c 2.5165,7.76649 8.0952,11.53958 16.7361,11.31927 6.7785,-0.21691 13.4486,-2.84188 20.0102,-7.87493 l 17.5572,17.22673 c -13.5639,9.4052 -26.1965,14.10779 -37.8978,14.10778 -11.044,10e-6 -20.6678,-3.44433 -28.8714,-10.33303 -8.968,-7.65629 -13.6155,-17.77237 -13.9426,-30.34826 0,-1.64202 0,-4.15853 0,-7.54952 0.1068,-8.31042 3.2224,-16.34888 9.3468,-24.11541 7.8766,-9.84232 18.5951,-14.76352 32.1555,-14.76361 z m -14.7636,32.48095 28.7062,0 c -0.6542,-3.06046 -2.2938,-5.65707 -4.9187,-7.78982 -2.625,-2.13262 -5.7431,-3.25403 -9.3543,-3.36424 -3.7181,-0.11007 -6.9438,1.09311 -9.6772,3.60955 -2.2963,2.07935 -3.8816,4.59419 -4.756,7.54451 z"
         style="font-variant:normal;font-stretch:normal;fill:#000000;font-family:CodiceNero;-inkscape-font-specification:CodiceNero"
         id="path9970" />
      <path
         d="m 2466.7664,287.36217 0,-46.26333 c -1e-4,-4.04504 -1.1215,-7.43515 -3.3643,-10.17032 -2.2429,-2.73505 -5.4419,-4.10261 -9.5971,-4.10268 -4.5925,7e-5 -8.0368,1.58707 -10.333,4.76101 -1.6421,2.40642 -2.4632,5.19494 -2.4631,8.36554 l 0,47.40978 -26.2481,0 0,-83.17487 23.1342,0 1.3116,5.08641 c 5.7939,-4.59237 13.3935,-6.88859 22.7988,-6.88868 10.7201,9e-5 18.9771,4.15532 24.7712,12.46571 4.2653,6.12447 6.398,12.30392 6.3981,18.53838 l 0,53.97305 z"
         style="font-variant:normal;font-stretch:normal;fill:#000000;font-family:CodiceNero;-inkscape-font-specification:CodiceNero"
         id="path9972" />
      <path
         d="m 2550.512,169.73886 0,31.0041 21.4921,0 0,23.13417 -20.9965,0 0,34.28322 c -10e-5,3.71806 2.6233,5.57706 7.8699,5.57703 1.642,3e-5 3.8298,-0.19104 6.5633,-0.57322 2.7334,-0.38212 4.3738,-0.57319 4.9212,-0.57322 l 4.5958,21.81751 c -6.5617,3.28081 -14.9289,4.92121 -25.1017,4.9212 -6.8887,10e-6 -12.9029,-1.75053 -18.0427,-5.25162 -5.6872,-3.93495 -8.5308,-8.90955 -8.5308,-14.92382 l 0,-45.27708 -13.6171,0 0,-23.13417 13.6171,0 0,-24.11541 z"
         style="font-variant:normal;font-stretch:normal;fill:#000000;font-family:CodiceNero;-inkscape-font-specification:CodiceNero"
         id="path9974" />
      <path
         d="m 2647.3941,229.45416 c -2.4064,-0.65743 -4.8128,-0.98618 -7.2191,-0.98625 -5.5771,7e-5 -10.1695,1.47693 -13.7774,4.43059 -4.0484,3.17072 -6.0727,7.6547 -6.0726,13.45196 l 0,41.01171 -26.5735,0 0,-83.33507 26.9039,0 0,5.24661 c 2.4063,-1.4217 4.7576,-2.8435 7.0539,-4.26538 4.1552,-1.96906 8.529,-2.95363 13.1215,-2.95372 2.1861,9e-5 4.3738,0.22037 6.5633,0.66083 z"
         style="font-variant:normal;font-stretch:normal;fill:#000000;font-family:CodiceNero;-inkscape-font-specification:CodiceNero"
         id="path9976" />
      <path
         d="m 2732.1209,214.69054 c 7.5461,8.20041 11.3192,17.8242 11.3193,28.87141 -1e-4,14.32476 -4.6476,25.9177 -13.9426,34.77885 -8.0936,7.65299 -17.3352,11.47948 -27.7249,11.47947 -15.4195,1e-5 -27.3395,-5.95917 -35.7601,-17.87754 -2.9538,-4.26535 -4.9229,-7.8749 -5.9075,-10.82865 -1.4218,-3.93827 -2.1327,-9.29668 -2.1327,-16.07527 0,-14.00093 4.7026,-25.21172 14.1078,-33.63241 7.8766,-7.10887 17.5555,-10.66335 29.0366,-10.66344 12.0318,9e-5 22.3665,4.64928 31.0041,13.94758 z m -48.7214,25.26185 0,9.02138 c 0,4.4857 1.7505,8.36892 5.2516,11.64969 3.5011,3.28083 7.4928,4.92123 11.9751,4.9212 4.5924,3e-5 8.5841,-1.64037 11.9751,-4.9212 3.3909,-3.28077 5.0864,-7.16399 5.0864,-11.64969 l 0,-9.02138 c 0,-4.70253 -1.859,-8.63916 -5.577,-11.80989 -3.391,-2.84351 -7.2192,-4.2653 -11.4845,-4.26537 -4.4823,7e-5 -8.419,1.42186 -11.8099,4.26537 -3.6112,3.17073 -5.4168,7.10736 -5.4168,11.80989 z"
         style="font-variant:normal;font-stretch:normal;fill:#000000;font-family:CodiceNero;-inkscape-font-specification:CodiceNero"
         id="path9978" />
    </g>
    <g
       style="font-size:156.91436768px;font-style:normal;font-weight:normal;line-height:125%;letter-spacing:0px;word-spacing:0px;fill:#000000;fill-opacity:1;stroke:none;font-family:Sans"
       id="text8981">
      <path
         d="m 2400.4425,585.32221 c 7.5341,1.2e-4 14.9102,1.7799 22.1284,5.33934 10.4583,5.12396 18.1456,12.28936 23.0621,21.49623 l -22.4348,11.29642 c -1.2579,-2.92738 -3.6123,-6.01286 -7.0633,-9.25645 -4.811,-4.18519 -9.7274,-6.27782 -14.749,-6.27792 -5.44,-0.10525 -10.1472,0.88919 -14.1217,2.98333 -9.4145,4.91643 -14.1218,14.64376 -14.1218,29.18201 l 0,10.04658 c 0,12.02912 4.7073,20.24005 14.1218,24.6328 3.9745,1.88356 8.6817,2.93068 14.1217,3.14135 5.1238,3e-5 10.0401,-1.93618 14.749,-5.80863 5.3345,-4.39275 8.3689,-9.9364 9.1032,-16.63097 l -27.4629,0 0,-22.59762 50.6831,0 0,64.49349 -19.9256,0 -2.356,-5.18131 c -8.891,5.12705 -17.311,7.69056 -25.2601,7.69056 -18.9344,0 -33.5812,-7.27075 -43.9406,-21.81228 -6.2764,-8.78554 -9.4145,-21.54727 -9.4145,-38.28523 0,-20.71241 7.7943,-35.98498 23.383,-45.81777 9.1015,-5.75584 18.9342,-8.63381 29.498,-8.63393 z"
         style="font-variant:normal;font-stretch:normal;text-align:end;text-anchor:end;fill:#000000;font-family:CodiceNero;-inkscape-font-specification:CodiceNero"
         id="path9955" />
      <path
         d="m 2508.2685,615.92166 c 10.0433,9e-5 18.7778,3.55645 26.2034,10.6691 8.3705,7.95242 12.5558,18.414 12.5559,31.38479 -10e-5,1.67288 -0.2619,4.34015 -0.7854,8.00183 l -52.4117,0 c 2.4071,7.42882 7.7432,11.03786 16.0084,10.82713 6.4838,-0.20748 12.8639,-2.71832 19.1403,-7.53254 l 16.7938,16.47773 c -12.9742,8.99628 -25.0575,13.49441 -36.2501,13.49441 -10.5638,0 -19.7692,-3.29458 -27.6161,-9.88377 -8.5781,-7.32341 -13.0236,-16.99966 -13.3364,-29.02877 0,-1.57063 0,-3.97772 0,-7.22128 0.1021,-7.9491 3.0823,-15.63806 8.9404,-23.06691 7.5341,-9.4144 17.7866,-14.12163 30.7575,-14.12172 z m -14.1217,31.06874 27.4581,0 c -0.6258,-2.9274 -2.1941,-5.41111 -4.7049,-7.45114 -2.5109,-2.03989 -5.4934,-3.11255 -8.9476,-3.21797 -3.5564,-0.10528 -6.6419,1.04559 -9.2564,3.45262 -2.1965,1.98894 -3.7129,4.39444 -4.5492,7.21649 z"
         style="font-variant:normal;font-stretch:normal;text-align:end;text-anchor:end;fill:#000000;font-family:CodiceNero;-inkscape-font-specification:CodiceNero"
         id="path9957" />
      <path
         d="m 2606.0766,616.39574 c 7.7384,8e-5 14.5893,3.24199 20.5528,9.72574 l 0.1581,0 c -0.2108,7e-5 0.6783,-0.91535 2.6672,-2.74629 1.9889,-1.83078 4.447,-3.37352 7.3746,-4.62823 4.0798,-1.67275 8.6833,-2.50916 13.8104,-2.50925 8.1598,9e-5 15.1687,2.85013 21.027,8.55013 5.858,5.70016 8.787,12.31726 8.7871,19.85133 l 0,52.723 -25.4229,0 0,-48.33181 c -1e-4,-2.61454 -0.8892,-4.83727 -2.6673,-6.66819 -1.7782,-1.83079 -4.2891,-2.74622 -7.5325,-2.74629 -3.0329,7e-5 -5.4911,0.88916 -7.3745,2.66728 -1.8836,1.77824 -2.8254,4.02731 -2.8253,6.7472 l 0,48.33181 -25.5762,0 0,-48.33181 c 0,-2.61454 -0.9937,-4.86361 -2.9809,-6.7472 -1.9874,-1.88347 -4.4447,-2.82524 -7.3721,-2.8253 -2.8254,6e-5 -5.1798,0.94183 -7.0633,2.8253 -1.8836,1.88359 -2.8253,4.13266 -2.8253,6.7472 l 0,48.33181 -25.4181,0 0,-79.55857 22.9089,0 1.8819,4.39598 c 2.407,-2.50917 4.9179,-4.13092 7.5325,-4.86527 2.1964,-0.62563 5.649,-0.93849 10.3579,-0.93857 z"
         style="font-variant:normal;font-stretch:normal;text-align:end;text-anchor:end;fill:#000000;font-family:CodiceNero;-inkscape-font-specification:CodiceNero"
         id="path9959" />
      <path
         d="m 2764.892,627.85018 c 7.2181,7.84387 10.8271,17.04923 10.8272,27.61612 -1e-4,13.70195 -4.4456,24.79085 -13.3364,33.26673 -7.7417,7.32025 -16.5815,10.98037 -26.5195,10.98037 -14.7491,0 -26.1508,-5.70008 -34.2053,-17.10026 -2.8253,-4.0799 -4.7089,-7.53251 -5.6506,-10.35784 -1.36,-3.76704 -2.04,-8.89248 -2.04,-15.37635 0,-13.39218 4.4981,-24.11555 13.4944,-32.17012 7.5341,-6.7998 16.7922,-10.19973 27.7742,-10.19982 11.5086,9e-5 21.394,4.44714 29.656,13.34117 z m -46.6031,24.16351 0,8.62914 c 0,4.29067 1.6744,8.00505 5.0233,11.14318 3.3489,3.13819 7.167,4.70727 11.4545,4.70724 4.3927,3e-5 8.2109,-1.56905 11.4544,-4.70724 3.2435,-3.13813 4.8652,-6.85251 4.8653,-11.14318 l 0,-8.62914 c -1e-4,-4.49808 -1.7783,-8.26355 -5.3346,-11.29642 -3.2435,-2.71988 -6.9053,-4.07986 -10.9851,-4.07993 -4.2875,7e-5 -8.053,1.36005 -11.2964,4.07993 -3.4543,3.03287 -5.1814,6.79834 -5.1814,11.29642 z"
         style="font-variant:normal;font-stretch:normal;text-align:end;text-anchor:end;fill:#000000;font-family:CodiceNero;-inkscape-font-specification:CodiceNero"
         id="path9961" />
      <path
         d="m 2841.1464,697.36217 0,-44.25188 c 0,-3.86917 -1.0727,-7.11188 -3.2179,-9.72814 -2.1454,-2.61613 -5.2054,-3.92423 -9.1799,-3.92429 -4.3928,6e-5 -7.6874,1.51806 -9.8837,4.554 -1.5708,2.3018 -2.3561,4.96907 -2.3561,8.00183 l 0,45.34848 -25.1068,0 0,-79.55857 22.1283,0 1.2546,4.86526 c 5.542,-4.3927 12.8112,-6.58909 21.8075,-6.58917 10.254,8e-5 18.1521,3.97466 23.6942,11.92373 4.0799,5.85818 6.1199,11.76896 6.1199,17.73235 l 0,51.6264 z"
         style="font-variant:normal;font-stretch:normal;text-align:end;text-anchor:end;fill:#000000;font-family:CodiceNero;-inkscape-font-specification:CodiceNero"
         id="path9963" />
      <path
         d="m 2942.1198,621.41424 c 1.7782,0.62899 3.8708,2.09431 6.278,4.39598 3.9745,3.8693 5.9617,8.26208 5.9618,13.17835 l 0,36.56132 c -10e-5,1.88356 1.2035,3.0871 3.6107,3.61064 0.2106,0.10218 1.885,0.25861 5.0233,0.46928 -0.9419,2.71998 -3.6619,9.15272 -8.1599,19.29825 -8.1599,0 -15.0125,-2.30014 -20.5577,-6.90044 -7.3234,4.811 -14.6469,7.21649 -21.9703,7.21649 -7.6363,0 -14.3572,-2.45817 -20.1626,-7.37452 -5.8054,-4.91632 -8.7081,-11.03621 -8.7081,-18.35967 0,-12.13439 7.4798,-20.50333 22.4396,-25.10687 5.5452,-0.83636 13.0777,-2.14366 22.5976,-3.9219 -1e-4,-4.60342 -2.9291,-6.90516 -8.7872,-6.90523 -5.8581,7e-5 -11.456,1.51647 -16.7938,4.54921 -0.3128,0.21077 -2.5092,1.88519 -6.5891,5.02329 l -11.9238,-18.04362 c 0.2075,-0.52348 1.7766,-1.67435 4.7073,-3.45261 3.5563,-2.30166 7.5309,-4.3943 11.9237,-6.27792 5.2324,-2.30165 11.4049,-3.45252 18.5177,-3.45261 8.1598,9e-5 15.6907,1.83094 22.5928,5.49258 z m -33.5779,50.99908 c 0.1053,1.67287 1.2035,3.08392 3.2945,4.23317 1.7782,1.04714 3.609,1.5707 5.4926,1.57067 2.9306,3e-5 5.4415,-0.65362 7.5326,-1.96095 2.091,-1.30727 3.3982,-2.79734 3.9219,-4.4702 l 0,-8.00662 c -4.3929,0.83965 -8.7857,1.67766 -13.1784,2.51404 -4.8142,1.04396 -7.1686,3.08392 -7.0632,6.11989 z"
         style="font-variant:normal;font-stretch:normal;text-align:end;text-anchor:end;fill:#000000;font-family:CodiceNero;-inkscape-font-specification:CodiceNero"
         id="path9965" />
    </g>
    <g
       style="font-size:85.58965302px;font-style:normal;font-weight:normal;line-height:125%;letter-spacing:0px;word-spacing:0px;fill:#000000;fill-opacity:1;stroke:none;font-family:Sans"
       id="text8985">
      <path
         d="m 2160.5525,697.36221 -15.2331,-43.47917 14.9772,0 8.0449,24.73554 7.7027,-24.73554 13.6947,0 -13.4361,43.47917 z"
         style="font-variant:normal;font-stretch:normal;fill:#000000;font-family:CodiceNero;-inkscape-font-specification:CodiceNero"
         id="path9948" />
      <path
         d="m 2196.8043,653.88304 13.7809,0 0,43.56537 -13.7809,0 z m -0.256,-13.52488 c 1.4262,-2.85223 3.7657,-4.27837 7.0185,-4.27843 1.2554,6e-5 2.4247,0.25691 3.5079,0.77053 2.9097,1.42621 4.3646,3.79441 4.3646,7.10461 0,1.19809 -0.2569,2.33866 -0.7705,3.42171 -1.4262,2.85408 -3.7935,4.2811 -7.102,4.28105 -1.2555,5e-5 -2.4257,-0.2568 -3.5106,-0.77054 -2.8522,-1.42609 -4.2784,-3.76556 -4.2784,-7.01841 0,-1.25544 0.2569,-2.42561 0.7705,-3.51052 z"
         style="font-variant:normal;font-stretch:normal;fill:#000000;font-family:CodiceNero;-inkscape-font-specification:CodiceNero"
         id="path9950" />
      <path
         d="m 2251.7815,655.93607 c 0.9698,0.34308 2.1113,1.14235 3.4243,2.3978 2.1679,2.11053 3.2519,4.50659 3.2519,7.18819 l 0,19.94254 c 0,1.0274 0.6564,1.68388 1.9694,1.96944 0.1149,0.0557 1.0283,0.14106 2.74,0.25597 -0.5137,1.48363 -1.9973,4.99239 -4.4508,10.52632 -4.4509,0 -8.1886,-1.25462 -11.2133,-3.76388 -3.9946,2.62419 -7.9892,3.93627 -11.9838,3.93627 -4.1652,0 -7.8312,-1.34082 -10.9978,-4.02246 -3.1666,-2.68163 -4.7499,-6.01975 -4.7499,-10.01437 0,-6.61875 4.08,-11.18364 12.2398,-13.69466 3.0247,-0.45619 7.1333,-1.16926 12.326,-2.13921 0,-2.51096 -1.5977,-3.76646 -4.793,-3.76649 -3.1954,3e-5 -6.2488,0.82716 -9.1602,2.48139 -0.1707,0.11496 -1.3687,1.02828 -3.5941,2.73997 l -6.5039,-9.84197 c 0.1132,-0.28554 0.969,-0.91328 2.5676,-1.88324 1.9398,-1.25546 4.1078,-2.39689 6.5038,-3.42432 2.8541,-1.25545 6.2209,-1.8832 10.1006,-1.88325 4.4508,5e-5 8.5586,0.9987 12.3234,2.99596 z m -18.3153,27.81768 c 0.057,0.91247 0.6565,1.68213 1.797,2.309 0.9699,0.57116 1.9686,0.85674 2.996,0.85673 1.5985,10e-6 2.9681,-0.35652 4.1087,-1.06961 1.1405,-0.71306 1.8536,-1.52582 2.1392,-2.43829 l 0,-4.36725 c -2.3961,0.45799 -4.7922,0.91509 -7.1882,1.3713 -2.626,0.56943 -3.9102,1.68213 -3.8527,3.33812 z"
         style="font-variant:normal;font-stretch:normal;fill:#000000;font-family:CodiceNero;-inkscape-font-specification:CodiceNero"
         id="path9952" />
    </g>
    <g
       style="font-size:149.78190613px;font-style:normal;font-weight:normal;line-height:125%;letter-spacing:0px;word-spacing:0px;fill:#000000;fill-opacity:1;stroke:none;font-family:Sans"
       id="text8989">
      <path
         d="m 604.35089,221.00981 c 6.88992,7.48733 10.33491,16.27427 10.33499,26.36085 -8e-5,13.07913 -4.24347,23.66399 -12.73018,31.7546 -7.38982,6.98751 -15.82784,10.48126 -25.31409,10.48126 -14.07866,0 -24.96215,-5.44098 -32.65052,-16.32297 -2.69689,-3.89446 -4.49481,-7.19013 -5.39376,-9.88704 -1.29816,-3.5958 -1.94724,-8.48827 -1.94724,-14.67742 0,-12.78345 4.29367,-23.01939 12.88103,-30.70785 7.19165,-6.49071 16.02887,-9.7361 26.51169,-9.73619 10.98553,9e-5 20.42155,4.245 28.30808,12.73476 z m -44.48478,23.06517 0,8.23691 c -3e-5,4.09563 1.59829,7.64119 4.79495,10.63667 3.19661,2.99554 6.8412,4.4933 10.93379,4.49327 4.19307,3e-5 7.83766,-1.49773 10.93379,-4.49327 3.09602,-2.99548 4.64405,-6.54104 4.64411,-10.63667 l 0,-8.23691 c -6e-5,-4.29362 -1.69741,-7.88793 -5.09207,-10.78295 -3.09613,-2.59625 -6.5914,-3.89441 -10.48583,-3.89447 -4.09259,6e-5 -7.6869,1.29822 -10.78294,3.89447 -3.29723,2.89502 -4.94583,6.48933 -4.9458,10.78295 z"
         style="font-variant:normal;font-stretch:normal;fill:#000000;font-family:CodiceNero;-inkscape-font-specification:CodiceNero"
         id="path9931" />
      <path
         d="m 660.96249,210.07602 c 13.17961,8e-5 24.81274,4.04387 34.89944,12.13138 l -15.28079,16.02586 c -3.89453,-4.99145 -9.53512,-7.4872 -16.92177,-7.48726 -5.29324,6e-5 -7.93983,0.89749 -7.9398,2.69231 -3e-5,0.79845 0.59877,1.49781 1.7964,2.09808 0.39916,0.20118 4.89243,1.19917 13.47982,2.99399 7.3897,1.59989 12.98152,3.89757 16.7755,6.89304 5.4912,4.19315 8.23683,10.23446 8.23691,18.12394 -8e-5,5.19266 -1.94731,10.13541 -5.84171,14.82826 -5.78998,7.18864 -14.67595,10.78295 -26.65796,10.78294 -14.77954,10e-6 -27.51123,-4.84218 -38.19512,-14.52657 -0.49977,-0.30167 4.89246,-5.39526 16.1767,-15.28079 9.28516,6.19218 16.77394,9.28825 22.46637,9.28823 1.49924,2e-5 2.89796,-0.30014 4.19616,-0.90048 1.69731,-0.79838 2.34639,-1.84665 1.94724,-3.14484 -0.70093,-2.09652 -4.49637,-3.79388 -11.38631,-5.09207 -8.68794,-1.49925 -14.72925,-3.29717 -18.12394,-5.39376 -6.28969,-3.79387 -9.43452,-9.88393 -9.43451,-18.27021 -10e-6,-7.59081 2.72125,-13.7822 8.16377,-18.57418 5.44249,-4.79183 12.65702,-7.18779 21.6436,-7.18787 z"
         style="font-variant:normal;font-stretch:normal;fill:#000000;font-family:CodiceNero;-inkscape-font-specification:CodiceNero"
         id="path9933" />
      <path
         d="m 757.51075,209.17554 c 12.98152,8e-5 22.7177,4.64267 29.20857,13.92778 5.1895,7.28925 7.78429,16.27731 7.78438,26.96421 -9e-5,10.98258 -3.66906,20.44298 -11.00692,28.38123 -7.33802,7.93827 -16.35047,11.9074 -27.03736,11.9074 -4.49179,0 -10.08362,-1.39719 -16.7755,-4.19159 l 0,24.41361 -25.16325,0 0,-99.30456 21.41962,0.14627 c 1.10005,8e-5 1.62495,0.54936 1.5747,1.64784 -0.0503,1.09864 0.17443,1.74848 0.67422,1.94952 5.68931,-3.89439 12.12982,-5.84163 19.32154,-5.84171 z m -17.82683,35.94619 0,10.48583 c -3e-5,2.99555 1.44897,5.89203 4.34701,8.68944 3.09298,3.19362 6.88689,4.79041 11.38174,4.79039 4.69282,2e-5 8.43721,-1.772 11.23319,-5.31605 2.79585,-3.54401 4.1938,-8.26278 4.19387,-14.15633 -7e-5,-4.99147 -1.34774,-9.30952 -4.04303,-12.95416 -2.69542,-3.64454 -6.34077,-5.46683 -10.93607,-5.4669 -6.49084,7e-5 -11.13343,2.19718 -13.92778,6.59136 -1.49932,2.49581 -2.24896,4.94128 -2.24893,7.33642 z"
         style="font-variant:normal;font-stretch:normal;fill:#000000;font-family:CodiceNero;-inkscape-font-specification:CodiceNero"
         id="path9935" />
      <path
         d="m 842.96523,209.62349 c 9.58682,9e-5 17.92428,3.3948 25.01241,10.18415 7.99,7.59094 11.98503,17.577 11.98511,29.95821 -8e-5,1.59684 -0.24996,4.14287 -0.74964,7.63811 l -50.02939,0 c 2.29765,7.09114 7.39124,10.53613 15.28079,10.33499 6.18906,-0.19805 12.27912,-2.59477 18.27021,-7.19016 l 16.03043,15.72875 c -12.38437,8.58736 -23.91847,12.88103 -34.60232,12.88102 -10.08362,10e-6 -18.87056,-3.14482 -26.36085,-9.4345 -8.18816,-6.99053 -12.43155,-16.22695 -12.73018,-27.70929 -1e-5,-1.49924 -1e-5,-3.79691 0,-6.89304 0.0975,-7.58777 2.94218,-14.92723 8.53402,-22.01841 7.19165,-8.98647 16.97811,-13.47974 29.35941,-13.47983 z m -13.47982,29.65653 26.21,0 c -0.59733,-2.79434 -2.09432,-5.16515 -4.49099,-7.11245 -2.39676,-1.94717 -5.24372,-2.97107 -8.54087,-3.0717 -3.39476,-0.10049 -6.33999,0.99806 -8.83571,3.29568 -2.09659,1.89854 -3.54407,4.19469 -4.34243,6.88847 z"
         style="font-variant:normal;font-stretch:normal;fill:#000000;font-family:CodiceNero;-inkscape-font-specification:CodiceNero"
         id="path9937" />
      <path
         d="m 942.61718,181.31541 23.96565,0 0,106.04676 -22.01841,0 c -0.2987,-0.89895 -0.79846,-2.14683 -1.49928,-3.74364 -6.39029,3.79392 -12.0324,5.69088 -16.92635,5.69088 -7.98706,0 -15.27624,-2.447 -21.86757,-7.341 -9.58383,-6.99053 -14.37574,-17.72471 -14.37574,-32.20256 0,-11.68337 3.39471,-21.26947 10.18415,-28.75833 6.78941,-7.48871 15.42703,-11.2331 25.91289,-11.23318 3.69331,8e-5 6.98746,0.64916 9.88246,1.94723 3.99498,1.89856 6.24238,2.89656 6.7422,2.994 z m -29.35941,70.84563 c -3e-5,4.69291 1.27375,8.53787 3.82134,11.53487 2.54752,2.99707 6.26677,4.49559 11.15776,4.49556 3.69636,3e-5 7.04231,-1.24937 10.03788,-3.7482 2.69377,-2.19709 4.04069,-4.29364 4.04074,-6.28967 l 0,-16.47382 c -5e-5,-2.79738 -1.42239,-5.34418 -4.26701,-7.64039 -2.84472,-2.2961 -6.11525,-3.44417 -9.81161,-3.44424 -4.09259,7e-5 -7.53758,1.34698 -10.33499,4.04075 -3.0961,2.89806 -4.64414,6.94337 -4.64411,12.13596 z"
         style="font-variant:normal;font-stretch:normal;fill:#000000;font-family:CodiceNero;-inkscape-font-specification:CodiceNero"
         id="path9939" />
      <path
         d="m 1041.4921,214.86641 c 1.6973,0.6004 3.6948,1.99912 5.9925,4.19616 3.7939,3.69342 5.6908,7.88653 5.6909,12.57934 l 0,34.89944 c -10e-5,1.79794 1.1488,2.94678 3.4465,3.44652 0.2011,0.0975 1.7994,0.24686 4.795,0.44796 -0.899,2.59633 -3.4954,8.73668 -7.789,18.42105 -7.789,0 -14.33,-2.19559 -19.6232,-6.58678 -6.9906,4.59231 -13.9811,6.88847 -20.9716,6.88846 -7.2893,10e-6 -13.70462,-2.34643 -19.24615,-7.03931 -5.54157,-4.69286 -8.31234,-10.53456 -8.31233,-17.52514 -1e-5,-11.58282 7.13986,-19.57137 21.41958,-23.96565 5.2932,-0.79835 12.4833,-2.04622 21.5705,-3.74364 -10e-5,-4.39417 -2.796,-6.59129 -8.3878,-6.59135 -5.5918,6e-5 -10.9353,1.44754 -16.0304,4.34243 -0.2986,0.20118 -2.3952,1.7995 -6.28966,4.79496 L 986.3752,222.2074 c 0.19807,-0.49968 1.69583,-1.59824 4.49328,-3.29567 3.39469,-2.19704 7.18861,-4.19456 11.38172,-5.99256 4.9945,-2.19703 10.8865,-3.29559 17.676,-3.29568 7.7889,9e-5 14.9775,1.74772 21.5659,5.24292 z m -32.0517,48.68095 c 0.1005,1.59682 1.1488,2.94374 3.1448,4.04074 1.6973,0.99955 3.445,1.49931 5.2429,1.49929 2.7974,2e-5 5.1941,-0.62392 7.1902,-1.87182 1.9959,-1.24785 3.2438,-2.67019 3.7436,-4.26701 l 0,-7.64268 c -4.1932,0.80148 -8.3863,1.6014 -12.5793,2.39976 -4.5954,0.99651 -6.8428,2.94375 -6.7422,5.84172 z"
         style="font-variant:normal;font-stretch:normal;fill:#000000;font-family:CodiceNero;-inkscape-font-specification:CodiceNero"
         id="path9941" />
      <path
         d="m 1098.6933,181.31541 0,77.13987 c 0,3.29419 0.2499,5.39074 0.7497,6.28967 0.1005,0.29867 0.7496,0.69787 1.9472,1.1976 0.6003,0.29867 1.3987,0.44798 2.3952,0.44796 2.0965,2e-5 4.8437,-0.64905 8.2415,-1.94724 1.6973,14.98064 2.4454,22.47095 2.2443,22.47094 -4.1931,0.59728 -10.3335,1.19608 -18.421,1.7964 -5.793,0 -11.2858,-2.34643 -16.4784,-7.03931 -2.895,-2.59631 -4.6426,-7.6899 -5.2429,-15.28079 l 0,-85.0751 z"
         style="font-variant:normal;font-stretch:normal;fill:#000000;font-family:CodiceNero;-inkscape-font-specification:CodiceNero"
         id="path9943" />
      <path
         d="m 1161.8369,209.62349 c 9.5868,9e-5 17.9243,3.3948 25.0124,10.18415 7.99,7.59094 11.985,17.577 11.9851,29.95821 -10e-5,1.59684 -0.25,4.14287 -0.7496,7.63811 l -50.0294,0 c 2.2976,7.09114 7.3912,10.53613 15.2808,10.33499 6.189,-0.19805 12.2791,-2.59477 18.2702,-7.19016 l 16.0304,15.72875 c -12.3844,8.58736 -23.9185,12.88103 -34.6023,12.88102 -10.0836,10e-6 -18.8706,-3.14482 -26.3609,-9.4345 -8.1881,-6.99053 -12.4315,-16.22695 -12.7302,-27.70929 0,-1.49924 0,-3.79691 0,-6.89304 0.097,-7.58777 2.9422,-14.92723 8.5341,-22.01841 7.1916,-8.98647 16.9781,-13.47974 29.3594,-13.47983 z m -13.4799,29.65653 26.2101,0 c -0.5974,-2.79434 -2.0944,-5.16515 -4.491,-7.11245 -2.3968,-1.94717 -5.2438,-2.97107 -8.5409,-3.0717 -3.3948,-0.10049 -6.34,0.99806 -8.8357,3.29568 -2.0966,1.89854 -3.5441,4.19469 -4.3425,6.88847 z"
         style="font-variant:normal;font-stretch:normal;fill:#000000;font-family:CodiceNero;-inkscape-font-specification:CodiceNero"
         id="path9945" />
    </g>
    <path
       inkscape:connector-curvature="0"
       style="font-size:16.94802094px;font-style:normal;font-weight:normal;line-height:125%;letter-spacing:0px;word-spacing:0px;fill:none;stroke:#000000;stroke-width:5.04212189;stroke-linecap:butt;stroke-linejoin:miter;stroke-miterlimit:4;stroke-opacity:1;stroke-dashoffset:0;font-family:Sans"
       d="m 2957.4231,237.05797 c 0,37.26589 -30.2105,67.47859 -67.4785,67.47859 -37.2674,0 -67.4794,-30.2127 -67.4794,-67.47859 0,-37.26729 30.212,-67.47929 67.4794,-67.47929 37.268,0 67.4785,30.212 67.4785,67.47929 z"
       id="path11926-3" />
    <path
       inkscape:connector-curvature="0"
       style="font-size:16.94802094px;font-style:normal;font-weight:normal;line-height:125%;letter-spacing:0px;word-spacing:0px;fill:none;stroke:#000000;stroke-width:5.04212189;stroke-linecap:butt;stroke-linejoin:miter;stroke-miterlimit:4;stroke-opacity:1;stroke-dashoffset:0;font-family:Sans"
       d="m 2944.9694,237.05307 c 0,30.2169 -24.6344,54.71269 -55.0248,54.71269 -30.3892,0 -55.0242,-24.49579 -55.0242,-54.71269 0,-30.21969 24.635,-54.71689 55.0242,-54.71689 30.3904,0 55.0248,24.4972 55.0248,54.71689 z"
       id="path11928-1" />
    <path
       inkscape:connector-curvature="0"
       style="font-size:16.94802094px;font-style:normal;font-weight:normal;line-height:125%;letter-spacing:0px;word-spacing:0px;fill:none;stroke:#000000;stroke-width:5.04212189;stroke-linecap:butt;stroke-linejoin:miter;stroke-miterlimit:4;stroke-opacity:1;stroke-dashoffset:0;font-family:Sans"
       d="m 2932.3274,236.89067 c 0,23.1826 -18.902,41.97759 -42.2184,41.97759 -23.317,0 -42.219,-18.79499 -42.219,-41.97759 0,-23.18749 18.902,-41.98319 42.219,-41.98319 23.3164,0 42.2184,18.7957 42.2184,41.98319 z"
       id="path11930-2" />
    <path
       inkscape:connector-curvature="0"
       style="font-size:16.94802094px;font-style:normal;font-weight:normal;line-height:125%;letter-spacing:0px;word-spacing:0px;fill:#000000;fill-opacity:1;stroke:none;font-family:Sans"
       d="m 2913.9482,235.53337 c 0,13.0914 -10.6742,23.7027 -23.8392,23.7027 -13.1656,0 -23.8378,-10.6113 -23.8378,-23.7027 0,-13.0907 10.6722,-23.70339 23.8378,-23.70339 13.165,0 23.8392,10.61269 23.8392,23.70339 z"
       id="path11932-3" />
    <rect
       ry="22.534565"
       rx="22.534565"
       y="127.60683"
       x="242.5"
       height="234.75536"
       width="234.75536"
       id="rect19093-7"
       style="fill:#00408b;fill-opacity:1;stroke:#00408b;stroke-width:5;stroke-linejoin:miter;stroke-miterlimit:4;stroke-opacity:1;stroke-dasharray:none" />
    <g
       transform="translate(553.9965,168.69869)"
       id="g2822">
      <path
         inkscape:connector-curvature="0"
         d="m -167.28084,-20.626019 0,20.81871047 -20.8187,0 0,29.39111853 20.8187,0 0,20.818711 29.39113,0 0,-20.818711 20.8187,0 0,-29.39111853 -20.8187,0 0,-20.81871047 -29.39113,0 z"
         id="rect1883"
         style="fill:#d40000;fill-opacity:1;fill-rule:evenodd;stroke:#ffffff;stroke-width:3.5999999;stroke-linecap:butt;stroke-linejoin:miter;stroke-miterlimit:4;stroke-opacity:1;stroke-dasharray:none" />
      <path
         inkscape:connector-curvature="0"
         d="m -268.93421,58.7138 52.77255,-15.292043 c 3.67623,-0.985043 6.8964,3.075799 6.8964,6.896412 l 0,45.276449 c 0,0 -66.56536,22.488302 -66.56536,22.488302 l 0,-51.423254 c 0,-3.820613 3.24305,-6.966954 6.89641,-7.945866 z"
         id="rect3662"
         style="fill:#ffffff;fill-opacity:1;fill-rule:evenodd;stroke:none" />
      <path
         inkscape:connector-curvature="0"
         d="m -208.75323,64.550025 82.57821,42.549415 -45.82244,19.75105 -0.90291,0.37621 -0.26335,0.94052 -6.77179,23.73889 -81.26146,-46.68773 0,-25.206103 52.44374,-15.462252 z"
         id="rect7228"
         style="fill:#ffffff;fill-opacity:1;fill-rule:evenodd;stroke:none" />
      <path
         inkscape:connector-curvature="0"
         d="m -209.39279,57.740615 -55.90488,16.402778 0,32.241247 0,1.20387 1.05339,0.56432 84.5345,48.56877 2.29488,1.31674 0.7148,-2.52061 7.22325,-25.31897 48.86974,-21.03017 3.98783,-1.73056 -3.83735,-1.9563 -59.89271,-30.886885 3.3859,-1.015768 -4.70263,-2.294884 -27.72672,-13.543578 z m 0.63956,6.80941 17.49379,9.029052 -47.44015,14.145518 -17.26806,-9.254781 47.21442,-13.919789 z m 22.76074,11.737768 59.81747,30.811647 -45.82244,19.75105 -0.90291,0.37621 -0.26335,0.94052 -6.77179,23.73889 -81.26146,-46.68773 0,-24.905135 22.00831,11.775392 53.19617,-15.800844 z"
         id="path9940"
         style="fill:#00408b;fill-opacity:1;fill-rule:evenodd;stroke:none" />
      <path
         inkscape:connector-curvature="0"
         d="m -209.769,62.104657 21.59448,10.533894 -50.52507,15.086044 -20.65395,-11.060592 49.58454,-14.559346 z"
         id="rect5437"
         style="fill:#ffffff;fill-opacity:1;fill-rule:evenodd;stroke:none" />
      <path
         inkscape:connector-curvature="0"
         d="m -170.88523,121.98088 49.47426,-14.39251 c 4.3387,-1.16255 7.4961,3.34326 7.4961,7.49609 l 0,38.67989 c 0,0 -8.69547,2.99844 -8.69547,2.99844 l 0,-18.46629 -45.57629,13.79722 0,15.7633 c 0,0 -10.1947,3.29828 -10.1947,3.29828 l 0,-40.40619 c 0,-4.15283 3.17234,-7.60968 7.4961,-8.76823 z"
         id="rect7233"
         style="fill:#ffffff;fill-opacity:1;fill-rule:evenodd;stroke:#00408b;stroke-width:3.4000001;stroke-linecap:butt;stroke-linejoin:miter;stroke-miterlimit:4;stroke-opacity:1" />
    </g>
    <g
       id="Layer1076"
       transform="matrix(-1.5355652,0.38424188,-0.38361613,-1.5379939,16737.997,-2810.2279)"
       style="fill:#000000;fill-opacity:1;stroke:none">
      <path
         inkscape:connector-curvature="0"
         d="m 9674.7188,429.4377 16.1239,-69.8406 c 0.7713,-3.3409 -0.4416,-6.6287 -3.1978,-8.6679 -2.7562,-2.0393 -6.2545,-2.2381 -9.2239,-0.5238 l -136.8883,79.0325 136.8883,79.0322 c 2.9694,1.7144 6.4678,1.5157 9.2241,-0.5237 2.7562,-2.0394 3.9687,-5.327 3.1976,-8.668 z"
         style="fill:#000000;fill-opacity:1;fill-rule:evenodd;stroke:none"
         id="path7813" />
      <path
         inkscape:connector-curvature="0"
         d="m 9609.9188,429.4378 h 189.8983"
         style="fill:#000000;fill-opacity:1;stroke:none"
         id="path7815" />
    </g>
    <path
       style="fill:none;stroke:#000000;stroke-width:70;stroke-linecap:butt;stroke-linejoin:miter;stroke-miterlimit:4;stroke-opacity:1;stroke-dasharray:none"
       d="m 1589.9525,845.21933 0,-469.82651 c 0,-55.92205 33.5474,-105.51691 90.9137,-119.53592 l 60.4122,-15.63757"
       id="path9800"
       inkscape:connector-curvature="0"
       sodipodi:nodetypes="cccc" />
    <g
       style="fill:#000000;fill-opacity:1;stroke:none"
       transform="matrix(-1.5355652,0.38424188,-0.38361613,-1.5379939,16737.997,-2405.9421)"
       id="g9804">
      <path
         id="path9806"
         style="fill:#000000;fill-opacity:1;fill-rule:evenodd;stroke:none"
         d="m 9674.7188,429.4377 16.1239,-69.8406 c 0.7713,-3.3409 -0.4416,-6.6287 -3.1978,-8.6679 -2.7562,-2.0393 -6.2545,-2.2381 -9.2239,-0.5238 l -136.8883,79.0325 136.8883,79.0322 c 2.9694,1.7144 6.4678,1.5157 9.2241,-0.5237 2.7562,-2.0394 3.9687,-5.327 3.1976,-8.668 z"
         inkscape:connector-curvature="0" />
      <path
         id="path9808"
         style="fill:#000000;fill-opacity:1;stroke:none"
         d="m 9609.9188,429.4378 h 189.8983"
         inkscape:connector-curvature="0" />
    </g>
    <path
       sodipodi:nodetypes="ccc"
       inkscape:connector-curvature="0"
       id="path9810"
       d="m 1589.9525,779.67854 c 0,-55.92205 33.5474,-105.51691 90.9137,-119.53592 l 60.4122,-15.63757"
       style="fill:none;stroke:#000000;stroke-width:70;stroke-linecap:butt;stroke-linejoin:miter;stroke-miterlimit:4;stroke-opacity:1;stroke-dasharray:none" />
    <g
       style="fill:#000000;fill-opacity:1;stroke:none"
       transform="matrix(1.5355652,0.38424188,0.38361613,-1.5379939,-13558.096,-2810.2279)"
       id="g9812">
      <path
         id="path9814"
         style="fill:#000000;fill-opacity:1;fill-rule:evenodd;stroke:none"
         d="m 9674.7188,429.4377 16.1239,-69.8406 c 0.7713,-3.3409 -0.4416,-6.6287 -3.1978,-8.6679 -2.7562,-2.0393 -6.2545,-2.2381 -9.2239,-0.5238 l -136.8883,79.0325 136.8883,79.0322 c 2.9694,1.7144 6.4678,1.5157 9.2241,-0.5237 2.7562,-2.0394 3.9687,-5.327 3.1976,-8.668 z"
         inkscape:connector-curvature="0" />
      <path
         id="path9816"
         style="fill:#000000;fill-opacity:1;stroke:none"
         d="m 9609.9188,429.4378 h 189.8983"
         inkscape:connector-curvature="0" />
    </g>
    <path
       sodipodi:nodetypes="ccc"
       inkscape:connector-curvature="0"
       id="path9818"
       d="m 1589.9486,375.39282 c 0,-55.92205 -33.5474,-105.51691 -90.9137,-119.53592 l -60.4122,-15.63757"
       style="fill:none;stroke:#000000;stroke-width:70;stroke-linecap:butt;stroke-linejoin:miter;stroke-miterlimit:4;stroke-opacity:1;stroke-dasharray:none" />
    <path
       style="fill:none;stroke:#000000;stroke-width:70;stroke-linecap:butt;stroke-linejoin:miter;stroke-miterlimit:4;stroke-opacity:1;stroke-dasharray:none"
       d="m 1589.9486,779.67818 c 0,-55.92205 -22.4933,-124.28592 -108.9137,-124.28592 l -64.0349,0"
       id="path9826"
       inkscape:connector-curvature="0"
       sodipodi:nodetypes="ccc" />
    <path
       sodipodi:type="arc"
       style="fill:#ffffff;fill-opacity:1;fill-rule:nonzero;stroke:#000000;stroke-width:3.91307878;stroke-linecap:round;stroke-linejoin:round;stroke-miterlimit:2;stroke-opacity:1;stroke-dasharray:none;stroke-dashoffset:0"
       id="path2367"
       sodipodi:cx="-319.62656"
       sodipodi:cy="-458.85416"
       sodipodi:rx="258.91537"
       sodipodi:ry="258.91537"
       d="m -60.711182,-458.85416 a 258.91537,258.91537 0 1 1 -517.830748,0 258.91537,258.91537 0 1 1 517.830748,0 z"
       transform="matrix(0.76665976,0,0,0.76665976,1505.0448,1007.1472)" />
    <path
       transform="matrix(0.74482862,0,0,0.74482862,1498.067,997.1299)"
       d="m -60.711182,-458.85416 a 258.91537,258.91537 0 1 1 -517.830748,0 258.91537,258.91537 0 1 1 517.830748,0 z"
       sodipodi:ry="258.91537"
       sodipodi:rx="258.91537"
       sodipodi:cy="-458.85416"
       sodipodi:cx="-319.62656"
       id="path2954"
       style="fill:#d40000;fill-opacity:1;fill-rule:nonzero;stroke:none"
       sodipodi:type="arc" />
    <rect
       style="fill:#ffffff;fill-opacity:1;fill-rule:nonzero;stroke:none"
       id="rect2346"
       width="332.49582"
       height="86.448914"
       x="1093.7521"
       y="612.13782" />
    <rect
       style="fill:none;stroke:#000000;stroke-width:48;stroke-miterlimit:2;stroke-opacity:1;stroke-dasharray:none"
       id="rect9828"
       width="3104"
       height="2204"
       x="47.999996"
       y="-1199.625"
       rx="168.29141"
       ry="168.29141" />
  </g>
</svg>
