<?xml version="1.0" encoding="UTF-8" standalone="no"?>
<!-- Created with Inkscape (http://www.inkscape.org/) -->

<svg
   xmlns:dc="http://purl.org/dc/elements/1.1/"
   xmlns:cc="http://creativecommons.org/ns#"
   xmlns:rdf="http://www.w3.org/1999/02/22-rdf-syntax-ns#"
   xmlns:svg="http://www.w3.org/2000/svg"
   xmlns="http://www.w3.org/2000/svg"
   xmlns:sodipodi="http://sodipodi.sourceforge.net/DTD/sodipodi-0.dtd"
   xmlns:inkscape="http://www.inkscape.org/namespaces/inkscape"
   version="1.1"
   width="200"
   height="200"
   id="svg2"
   inkscape:version="0.47 r22583"
   sodipodi:docname="Italian traffic signs - icona pneumatici da neve.svg"
   sodipodi:version="0.32"
   inkscape:output_extension="org.inkscape.output.svg.inkscape">
  <metadata
     id="metadata2877">
    <rdf:RDF>
      <cc:Work
         rdf:about="">
        <dc:format>image/svg+xml</dc:format>
        <dc:type
           rdf:resource="http://purl.org/dc/dcmitype/StillImage" />
        <dc:title></dc:title>
      </cc:Work>
    </rdf:RDF>
  </metadata>
  <sodipodi:namedview
     pagecolor="#ffffff"
     bordercolor="#666666"
     borderopacity="1"
     objecttolerance="10"
     gridtolerance="10"
     guidetolerance="10"
     inkscape:pageopacity="0"
     inkscape:pageshadow="2"
     inkscape:window-width="1600"
     inkscape:window-height="838"
     id="namedview2875"
     showgrid="false"
     inkscape:zoom="2.3765092"
     inkscape:cx="95.405642"
     inkscape:cy="112.26704"
     inkscape:window-x="-8"
     inkscape:window-y="-8"
     inkscape:window-maximized="1"
     inkscape:current-layer="svg2" />
  <defs
     id="defs4">
    <inkscape:perspective
       sodipodi:type="inkscape:persp3d"
       inkscape:vp_x="0 : 100 : 1"
       inkscape:vp_y="0 : 1000 : 0"
       inkscape:vp_z="200 : 100 : 1"
       inkscape:persp3d-origin="100 : 66.666667 : 1"
       id="perspective2879" />
    <inkscape:perspective
       id="perspective2839"
       inkscape:persp3d-origin="0.5 : 0.33333333 : 1"
       inkscape:vp_z="1 : 0.5 : 1"
       inkscape:vp_y="0 : 1000 : 0"
       inkscape:vp_x="0 : 0.5 : 1"
       sodipodi:type="inkscape:persp3d" />
    <inkscape:perspective
       id="perspective3649"
       inkscape:persp3d-origin="0.5 : 0.33333333 : 1"
       inkscape:vp_z="1 : 0.5 : 1"
       inkscape:vp_y="0 : 1000 : 0"
       inkscape:vp_x="0 : 0.5 : 1"
       sodipodi:type="inkscape:persp3d" />
    <inkscape:perspective
       id="perspective3679"
       inkscape:persp3d-origin="0.5 : 0.33333333 : 1"
       inkscape:vp_z="1 : 0.5 : 1"
       inkscape:vp_y="0 : 1000 : 0"
       inkscape:vp_x="0 : 0.5 : 1"
       sodipodi:type="inkscape:persp3d" />
    <inkscape:perspective
       id="perspective3713"
       inkscape:persp3d-origin="0.5 : 0.33333333 : 1"
       inkscape:vp_z="1 : 0.5 : 1"
       inkscape:vp_y="0 : 1000 : 0"
       inkscape:vp_x="0 : 0.5 : 1"
       sodipodi:type="inkscape:persp3d" />
    <inkscape:perspective
       id="perspective3741"
       inkscape:persp3d-origin="0.5 : 0.33333333 : 1"
       inkscape:vp_z="1 : 0.5 : 1"
       inkscape:vp_y="0 : 1000 : 0"
       inkscape:vp_x="0 : 0.5 : 1"
       sodipodi:type="inkscape:persp3d" />
    <inkscape:perspective
       id="perspective3765"
       inkscape:persp3d-origin="0.5 : 0.33333333 : 1"
       inkscape:vp_z="1 : 0.5 : 1"
       inkscape:vp_y="0 : 1000 : 0"
       inkscape:vp_x="0 : 0.5 : 1"
       sodipodi:type="inkscape:persp3d" />
    <inkscape:perspective
       id="perspective3801"
       inkscape:persp3d-origin="0.5 : 0.33333333 : 1"
       inkscape:vp_z="1 : 0.5 : 1"
       inkscape:vp_y="0 : 1000 : 0"
       inkscape:vp_x="0 : 0.5 : 1"
       sodipodi:type="inkscape:persp3d" />
    <inkscape:perspective
       id="perspective2863"
       inkscape:persp3d-origin="0.5 : 0.33333333 : 1"
       inkscape:vp_z="1 : 0.5 : 1"
       inkscape:vp_y="0 : 1000 : 0"
       inkscape:vp_x="0 : 0.5 : 1"
       sodipodi:type="inkscape:persp3d" />
    <inkscape:perspective
       id="perspective3859"
       inkscape:persp3d-origin="0.5 : 0.33333333 : 1"
       inkscape:vp_z="1 : 0.5 : 1"
       inkscape:vp_y="0 : 1000 : 0"
       inkscape:vp_x="0 : 0.5 : 1"
       sodipodi:type="inkscape:persp3d" />
    <inkscape:perspective
       id="perspective3964"
       inkscape:persp3d-origin="0.5 : 0.33333333 : 1"
       inkscape:vp_z="1 : 0.5 : 1"
       inkscape:vp_y="0 : 1000 : 0"
       inkscape:vp_x="0 : 0.5 : 1"
       sodipodi:type="inkscape:persp3d" />
    <inkscape:perspective
       id="perspective3988"
       inkscape:persp3d-origin="0.5 : 0.33333333 : 1"
       inkscape:vp_z="1 : 0.5 : 1"
       inkscape:vp_y="0 : 1000 : 0"
       inkscape:vp_x="0 : 0.5 : 1"
       sodipodi:type="inkscape:persp3d" />
    <inkscape:perspective
       id="perspective2879-7"
       inkscape:persp3d-origin="0.5 : 0.33333333 : 1"
       inkscape:vp_z="1 : 0.5 : 1"
       inkscape:vp_y="0 : 1000 : 0"
       inkscape:vp_x="0 : 0.5 : 1"
       sodipodi:type="inkscape:persp3d" />
    <inkscape:perspective
       id="perspective4031"
       inkscape:persp3d-origin="0.5 : 0.33333333 : 1"
       inkscape:vp_z="1 : 0.5 : 1"
       inkscape:vp_y="0 : 1000 : 0"
       inkscape:vp_x="0 : 0.5 : 1"
       sodipodi:type="inkscape:persp3d" />
    <inkscape:perspective
       id="perspective4047"
       inkscape:persp3d-origin="0.5 : 0.33333333 : 1"
       inkscape:vp_z="1 : 0.5 : 1"
       inkscape:vp_y="0 : 1000 : 0"
       inkscape:vp_x="0 : 0.5 : 1"
       sodipodi:type="inkscape:persp3d" />
    <inkscape:perspective
       id="perspective4063"
       inkscape:persp3d-origin="0.5 : 0.33333333 : 1"
       inkscape:vp_z="1 : 0.5 : 1"
       inkscape:vp_y="0 : 1000 : 0"
       inkscape:vp_x="0 : 0.5 : 1"
       sodipodi:type="inkscape:persp3d" />
    <inkscape:perspective
       id="perspective4079"
       inkscape:persp3d-origin="0.5 : 0.33333333 : 1"
       inkscape:vp_z="1 : 0.5 : 1"
       inkscape:vp_y="0 : 1000 : 0"
       inkscape:vp_x="0 : 0.5 : 1"
       sodipodi:type="inkscape:persp3d" />
    <inkscape:perspective
       id="perspective4097"
       inkscape:persp3d-origin="0.5 : 0.33333333 : 1"
       inkscape:vp_z="1 : 0.5 : 1"
       inkscape:vp_y="0 : 1000 : 0"
       inkscape:vp_x="0 : 0.5 : 1"
       sodipodi:type="inkscape:persp3d" />
    <inkscape:perspective
       id="perspective4115"
       inkscape:persp3d-origin="0.5 : 0.33333333 : 1"
       inkscape:vp_z="1 : 0.5 : 1"
       inkscape:vp_y="0 : 1000 : 0"
       inkscape:vp_x="0 : 0.5 : 1"
       sodipodi:type="inkscape:persp3d" />
    <inkscape:perspective
       id="perspective4129"
       inkscape:persp3d-origin="0.5 : 0.33333333 : 1"
       inkscape:vp_z="1 : 0.5 : 1"
       inkscape:vp_y="0 : 1000 : 0"
       inkscape:vp_x="0 : 0.5 : 1"
       sodipodi:type="inkscape:persp3d" />
    <inkscape:perspective
       id="perspective4153"
       inkscape:persp3d-origin="0.5 : 0.33333333 : 1"
       inkscape:vp_z="1 : 0.5 : 1"
       inkscape:vp_y="0 : 1000 : 0"
       inkscape:vp_x="0 : 0.5 : 1"
       sodipodi:type="inkscape:persp3d" />
    <inkscape:perspective
       id="perspective4179"
       inkscape:persp3d-origin="0.5 : 0.33333333 : 1"
       inkscape:vp_z="1 : 0.5 : 1"
       inkscape:vp_y="0 : 1000 : 0"
       inkscape:vp_x="0 : 0.5 : 1"
       sodipodi:type="inkscape:persp3d" />
    <inkscape:perspective
       id="perspective4195"
       inkscape:persp3d-origin="0.5 : 0.33333333 : 1"
       inkscape:vp_z="1 : 0.5 : 1"
       inkscape:vp_y="0 : 1000 : 0"
       inkscape:vp_x="0 : 0.5 : 1"
       sodipodi:type="inkscape:persp3d" />
    <inkscape:perspective
       id="perspective4213"
       inkscape:persp3d-origin="0.5 : 0.33333333 : 1"
       inkscape:vp_z="1 : 0.5 : 1"
       inkscape:vp_y="0 : 1000 : 0"
       inkscape:vp_x="0 : 0.5 : 1"
       sodipodi:type="inkscape:persp3d" />
    <inkscape:perspective
       id="perspective4267"
       inkscape:persp3d-origin="0.5 : 0.33333333 : 1"
       inkscape:vp_z="1 : 0.5 : 1"
       inkscape:vp_y="0 : 1000 : 0"
       inkscape:vp_x="0 : 0.5 : 1"
       sodipodi:type="inkscape:persp3d" />
    <inkscape:perspective
       id="perspective4283"
       inkscape:persp3d-origin="0.5 : 0.33333333 : 1"
       inkscape:vp_z="1 : 0.5 : 1"
       inkscape:vp_y="0 : 1000 : 0"
       inkscape:vp_x="0 : 0.5 : 1"
       sodipodi:type="inkscape:persp3d" />
    <inkscape:perspective
       id="perspective4314"
       inkscape:persp3d-origin="0.5 : 0.33333333 : 1"
       inkscape:vp_z="1 : 0.5 : 1"
       inkscape:vp_y="0 : 1000 : 0"
       inkscape:vp_x="0 : 0.5 : 1"
       sodipodi:type="inkscape:persp3d" />
    <inkscape:perspective
       id="perspective4330"
       inkscape:persp3d-origin="0.5 : 0.33333333 : 1"
       inkscape:vp_z="1 : 0.5 : 1"
       inkscape:vp_y="0 : 1000 : 0"
       inkscape:vp_x="0 : 0.5 : 1"
       sodipodi:type="inkscape:persp3d" />
    <inkscape:perspective
       id="perspective4346"
       inkscape:persp3d-origin="0.5 : 0.33333333 : 1"
       inkscape:vp_z="1 : 0.5 : 1"
       inkscape:vp_y="0 : 1000 : 0"
       inkscape:vp_x="0 : 0.5 : 1"
       sodipodi:type="inkscape:persp3d" />
    <inkscape:perspective
       id="perspective3742"
       inkscape:persp3d-origin="0.5 : 0.33333333 : 1"
       inkscape:vp_z="1 : 0.5 : 1"
       inkscape:vp_y="0 : 1000 : 0"
       inkscape:vp_x="0 : 0.5 : 1"
       sodipodi:type="inkscape:persp3d" />
    <inkscape:perspective
       id="perspective3776"
       inkscape:persp3d-origin="0.5 : 0.33333333 : 1"
       inkscape:vp_z="1 : 0.5 : 1"
       inkscape:vp_y="0 : 1000 : 0"
       inkscape:vp_x="0 : 0.5 : 1"
       sodipodi:type="inkscape:persp3d" />
    <inkscape:perspective
       id="perspective3792"
       inkscape:persp3d-origin="0.5 : 0.33333333 : 1"
       inkscape:vp_z="1 : 0.5 : 1"
       inkscape:vp_y="0 : 1000 : 0"
       inkscape:vp_x="0 : 0.5 : 1"
       sodipodi:type="inkscape:persp3d" />
    <inkscape:perspective
       id="perspective3808"
       inkscape:persp3d-origin="0.5 : 0.33333333 : 1"
       inkscape:vp_z="1 : 0.5 : 1"
       inkscape:vp_y="0 : 1000 : 0"
       inkscape:vp_x="0 : 0.5 : 1"
       sodipodi:type="inkscape:persp3d" />
    <inkscape:perspective
       id="perspective3824"
       inkscape:persp3d-origin="0.5 : 0.33333333 : 1"
       inkscape:vp_z="1 : 0.5 : 1"
       inkscape:vp_y="0 : 1000 : 0"
       inkscape:vp_x="0 : 0.5 : 1"
       sodipodi:type="inkscape:persp3d" />
    <inkscape:perspective
       id="perspective4354"
       inkscape:persp3d-origin="0.5 : 0.33333333 : 1"
       inkscape:vp_z="1 : 0.5 : 1"
       inkscape:vp_y="0 : 1000 : 0"
       inkscape:vp_x="0 : 0.5 : 1"
       sodipodi:type="inkscape:persp3d" />
    <inkscape:perspective
       id="perspective4395"
       inkscape:persp3d-origin="0.5 : 0.33333333 : 1"
       inkscape:vp_z="1 : 0.5 : 1"
       inkscape:vp_y="0 : 1000 : 0"
       inkscape:vp_x="0 : 0.5 : 1"
       sodipodi:type="inkscape:persp3d" />
    <inkscape:perspective
       id="perspective4435"
       inkscape:persp3d-origin="0.5 : 0.33333333 : 1"
       inkscape:vp_z="1 : 0.5 : 1"
       inkscape:vp_y="0 : 1000 : 0"
       inkscape:vp_x="0 : 0.5 : 1"
       sodipodi:type="inkscape:persp3d" />
    <inkscape:perspective
       id="perspective4460"
       inkscape:persp3d-origin="0.5 : 0.33333333 : 1"
       inkscape:vp_z="1 : 0.5 : 1"
       inkscape:vp_y="0 : 1000 : 0"
       inkscape:vp_x="0 : 0.5 : 1"
       sodipodi:type="inkscape:persp3d" />
    <inkscape:perspective
       id="perspective4479"
       inkscape:persp3d-origin="0.5 : 0.33333333 : 1"
       inkscape:vp_z="1 : 0.5 : 1"
       inkscape:vp_y="0 : 1000 : 0"
       inkscape:vp_x="0 : 0.5 : 1"
       sodipodi:type="inkscape:persp3d" />
    <inkscape:perspective
       id="perspective4495"
       inkscape:persp3d-origin="0.5 : 0.33333333 : 1"
       inkscape:vp_z="1 : 0.5 : 1"
       inkscape:vp_y="0 : 1000 : 0"
       inkscape:vp_x="0 : 0.5 : 1"
       sodipodi:type="inkscape:persp3d" />
    <inkscape:perspective
       id="perspective4511"
       inkscape:persp3d-origin="0.5 : 0.33333333 : 1"
       inkscape:vp_z="1 : 0.5 : 1"
       inkscape:vp_y="0 : 1000 : 0"
       inkscape:vp_x="0 : 0.5 : 1"
       sodipodi:type="inkscape:persp3d" />
  </defs>
  <path
     style="fill:#ffffff;fill-opacity:1;stroke:none"
     d="m -4.9305571,-3.438081 207.7153771,0 0,207.348391 -207.7153771,0 0,-207.348391 z"
     id="rect2881" />
  <path
     style="fill:none;stroke:#000000;stroke-width:3;stroke-miterlimit:4;stroke-opacity:1"
     d="m 21.814432,2.8621521 157.645218,0 c 10.29357,0 18.58045,8.2868829 18.58045,18.5804539 l 0,157.645234 c 0,10.29357 -8.28688,18.58045 -18.58045,18.58045 l -157.645218,0 c -10.293571,0 -18.5804535,-8.28688 -18.5804535,-18.58045 l 0,-157.645234 c 0,-10.293571 8.2868825,-18.5804539 18.5804535,-18.5804539 z"
     id="rect4614" />
  <path
     style="fill:#000000"
     d="M 85.489229,173.80225 C 75.276574,171.40472 65.797263,154.56228 60.995062,130.28203 57.158545,110.88437 56.5915,85.890507 59.569457,67.4452 61.780815,53.748168 65.41377,43.2261 70.644361,35.369143 c 2.63085,-3.951847 5.376778,-6.614013 8.424815,-8.167823 1.943176,-0.99058 2.525148,-1.109282 6.026266,-1.229145 2.131455,-0.07297 11.009583,-0.0044 19.729178,0.152393 l 15.8538,0.28507 1.76623,0.975372 c 5.95314,3.287526 11.1,9.738131 16.01446,20.071056 4.83608,10.168148 8.35434,23.514441 10.04709,38.113007 1.40649,12.129904 1.40344,30.056237 -0.007,42.472877 -2.97884,26.21943 -11.36582,42.42417 -23.60749,45.61272 -1.73832,0.45277 -4.96033,0.53376 -20.05279,0.50406 -9.889932,-0.0195 -18.597184,-0.17988 -19.349443,-0.35648 l -2.48e-4,0 z m 39.631861,-4.2012 c 2.84022,-0.9568 4.67496,-2.15595 7.00729,-4.57982 6.49288,-6.7477 10.86134,-20.0295 13.26399,-40.32774 0.89812,-7.5875 0.90308,-27.252743 0.009,-35.405278 -2.05115,-18.701656 -5.05093,-30.113274 -11.15964,-42.452952 -4.24012,-8.565096 -8.43547,-13.630044 -13.5037,-16.302707 l -1.82108,-0.96032 -17.64248,-0.105926 c -17.158445,-0.10302 -17.696385,-0.08576 -19.606765,0.629003 -2.662526,0.996178 -4.77861,2.687343 -6.934311,5.541868 -1.795827,2.377986 -5.792813,9.966139 -6.223237,11.814619 -0.22135,0.9506 -0.194681,0.968843 1.416301,0.968843 1.50255,0 1.672746,-0.08848 2.005327,-1.042525 0.199884,-0.57339 0.648166,-1.132898 0.996185,-1.243354 0.34802,-0.110458 1.308122,-1.245132 2.133566,-2.521497 2.085243,-3.224367 4.928179,-5.911262 7.607591,-7.190027 1.237628,-0.590665 2.250232,-1.213052 2.250232,-1.383082 0,-0.17003 0.24913,-0.558277 0.553625,-0.86277 0.428947,-0.428948 1.341358,-0.553625 4.051527,-0.553625 3.02816,0 3.592527,0.09462 4.202514,0.704613 0.387538,0.387538 0.704614,0.942421 0.704614,1.233074 0,0.391452 0.411025,0.52846 1.58538,0.52846 1.330937,0 1.58538,-0.109048 1.58538,-0.679449 0,-1.435577 0.895666,-1.786698 4.557641,-1.786698 2.9572,0 3.58307,0.10437 4.37867,0.730184 0.51055,0.401601 0.92828,0.956484 0.92828,1.233073 0,0.351834 0.4233,0.50289 1.40922,0.50289 1.16065,0 1.40923,-0.120765 1.40923,-0.684636 0,-1.317004 1.30647,-1.781511 5.01068,-1.781511 4.24858,0 4.85391,0.399625 4.85391,3.204479 0,1.019632 0.24566,2.211119 0.5686,2.757818 0.47932,0.811422 0.7974,0.958257 2.02576,0.935124 l 1.45716,-0.02744 1.48357,2.994607 c 1.60598,3.241679 1.7744,4.085143 1.02139,5.114946 -0.44803,0.612711 -0.37669,0.720203 0.83918,1.264566 6.38301,2.85776 11.84043,26.419484 12.88431,55.62646 0.78213,21.88316 -3.52923,42.71375 -9.53462,46.06714 -0.56458,0.31526 -0.61709,0.48184 -0.26423,0.83816 0.68768,0.69444 0.53344,1.69756 -0.75403,4.90384 -1.05184,2.61949 -1.33187,3.02088 -2.34602,3.36274 -0.63339,0.2135 -1.49931,0.72284 -1.92428,1.13186 -0.69479,0.66871 -0.75578,1.00692 -0.60505,3.35557 0.14889,2.32004 0.084,2.69549 -0.58053,3.36004 -0.65514,0.65515 -1.15449,0.74815 -4.01667,0.74815 -3.52058,0 -4.83453,-0.48418 -4.83453,-1.7815 0,-0.57655 -0.25029,-0.68464 -1.58538,-0.68464 -1.13853,0 -1.58538,0.14174 -1.58538,0.50289 0,0.27659 -0.41773,0.83147 -0.92828,1.23307 -0.78537,0.61777 -1.42414,0.73018 -4.14929,0.73018 -3.47112,0 -4.78702,-0.48971 -4.78702,-1.7815 0,-0.56388 -0.24857,-0.68464 -1.40922,-0.68464 -0.98593,0 -1.409231,0.15105 -1.409231,0.50289 0,0.27659 -0.417727,0.83147 -0.928279,1.23307 -0.781726,0.61491 -1.42501,0.73018 -4.074687,0.73018 -3.444992,0 -4.375603,-0.30706 -4.869766,-1.6068 -0.179698,-0.47264 -0.573725,-0.85934 -0.875613,-0.85934 -2.061653,0 -6.973396,-3.96947 -10.054466,-8.12561 -0.996334,-1.34397 -1.950972,-2.44359 -2.121425,-2.44359 -0.170449,0 -0.555859,-0.47562 -0.856465,-1.05692 -0.483734,-0.93544 -0.727735,-1.05692 -2.122887,-1.05692 -0.866984,0 -1.576333,0.16381 -1.576333,0.36402 0,0.20021 0.415106,1.19107 0.922452,2.20191 2.449243,4.87988 6.587846,9.82524 9.795595,11.70511 3.20902,1.88061 3.273757,1.88615 22.321815,1.9115 16.92426,0.0225 17.80957,-0.008 19.84498,-0.69413 l -7e-5,0 z m -27.992613,-3.09734 c -0.726051,-0.80228 -0.750847,-1.46957 -0.0546,-1.46957 0.290653,0 0.52846,-0.15853 0.52846,-0.3523 0,-0.20724 -1.233074,-0.35231 -2.994607,-0.35231 l -2.994607,0 0,1.40923 0,1.40922 3.049211,0 c 2.93171,0 3.026741,-0.0248 2.466147,-0.64427 z m 12.875043,0.22151 c -0.51195,-0.51195 -0.56108,-1.69108 -0.0705,-1.69108 0.19377,0 0.35231,-0.15853 0.35231,-0.3523 0,-0.20705 -1.22614,-0.35231 -2.97381,-0.35231 -1.6356,0 -3.0718,0.15854 -3.19156,0.35231 -0.11975,0.19377 0.0201,0.3523 0.31073,0.3523 0.81912,0 1.09545,0.76365 0.44771,1.23729 -0.32026,0.23417 -0.58228,0.5272 -0.58228,0.65116 0,0.12397 1.37928,0.22539 3.06506,0.22539 2.38395,0 2.97112,-0.0939 2.6423,-0.42276 l 4e-5,0 z m 13.3172,-0.5853 c 0,-0.8853 -0.10727,-0.98756 -0.88077,-0.8397 -0.6457,0.12343 -0.88077,0.0164 -0.88077,-0.40116 0,-0.46059 -0.40034,-0.56953 -2.09304,-0.56953 -1.15118,0 -2.19103,0.15854 -2.31079,0.35231 -0.11976,0.19377 0.0294,0.3523 0.33151,0.3523 0.31438,0 0.54926,0.30131 0.54926,0.70462 0,0.38754 -0.15854,0.70461 -0.35231,0.70461 -0.19377,0 -0.35231,0.15854 -0.35231,0.35231 0,0.20724 1.23308,0.3523 2.99461,0.3523 l 2.99461,0 0,-1.00806 z m -33.469138,-1.69457 c 0,-0.32384 0.262377,-0.87872 0.583064,-1.23307 0.485221,-0.53617 1.132744,-0.64428 3.858794,-0.64428 3.634554,0 4.98558,0.42006 5.293214,1.64578 0.17146,0.68314 0.435236,0.82036 1.576936,0.82036 1.04627,0 1.37103,-0.13947 1.37103,-0.58879 0,-0.32384 0.26238,-0.87872 0.58307,-1.23307 0.4886,-0.5399 1.13727,-0.64428 4.00401,-0.64428 2.92742,0 3.55487,0.10534 4.34923,0.73018 0.51055,0.4016 0.92828,0.95649 0.92828,1.23307 0,0.36115 0.44685,0.50289 1.58538,0.50289 1.24656,0 1.58538,-0.12583 1.58538,-0.58879 0,-0.32384 0.26238,-0.87872 0.58306,-1.23307 0.47906,-0.52935 1.12539,-0.64428 3.62326,-0.64428 2.9846,0 3.05129,-0.0188 3.64677,-1.02686 l 0.60658,-1.02685 -1.21989,-0.75394 c -0.67095,-0.41466 -1.9439,-1.5592 -2.82879,-2.54341 -1.58514,-1.76305 -1.61954,-1.77984 -2.32964,-1.13722 -0.56918,0.51511 -1.43794,0.68106 -4.13142,0.78919 -4.39542,0.17645 -6.34158,-0.3115 -6.87461,-1.72364 -0.35698,-0.94576 -0.53302,-1.03263 -2.09239,-1.03263 -1.56568,0 -1.73154,0.083 -2.06216,1.03136 -0.47834,1.37216 -1.78381,1.78709 -5.622661,1.78709 -3.689795,0 -4.686098,-0.32083 -5.423289,-1.7464 -0.493092,-0.95353 -0.72962,-1.07205 -2.139435,-1.07205 -1.328013,0 -1.634819,0.13089 -1.891939,0.80717 -0.531519,1.398 -1.352731,1.77061 -4.275249,1.93979 -1.539376,0.0891 -2.798865,0.27151 -2.798865,0.40534 0,0.66847 5.01956,5.45876 6.849254,6.53641 2.374508,1.39853 2.663026,1.4683 2.663026,0.644 z m 38.489508,-7.80326 c 0.53286,-1.31679 0.96884,-2.58706 0.96884,-2.82283 0,-0.39018 -1.37314,-1.11585 -2.11146,-1.11585 -0.29703,0 -1.51618,2.94183 -1.97231,4.75919 -0.21168,0.84338 -0.15908,0.89495 0.6943,0.68076 0.70957,-0.17809 0.92332,-0.10055 0.92332,0.33492 0,1.16819 0.55887,0.48283 1.49731,-1.83619 z m -4.1708,-2.14907 c 0.50125,-1.24406 1.16473,-2.5419 1.4744,-2.88408 0.53298,-0.58893 0.49558,-0.60145 -0.70059,-0.23433 -1.07294,0.32929 -1.36918,0.29231 -1.96298,-0.24507 -0.38463,-0.3481 -0.79307,-0.92824 -0.90764,-1.28922 -0.18648,-0.58754 -0.37203,-0.51948 -1.77053,0.64953 -0.85922,0.71822 -1.56222,1.45292 -1.56222,1.63267 0,0.6205 3.95592,5.22122 4.23667,4.92722 0.15484,-0.16214 0.69164,-1.31267 1.19289,-2.55672 z m -39.515235,-0.26139 c -0.561327,-0.2265 -0.573457,-1.95883 -0.01762,-2.51468 0.328819,-0.32882 -0.33665,-0.42277 -2.994606,-0.42277 -2.043379,0 -3.417375,0.14165 -3.417375,0.35231 0,0.19377 0.179282,0.35231 0.398402,0.35231 0.258562,0 0.328167,0.43281 0.198303,1.23307 l -0.200099,1.23307 3.236687,-0.0278 c 1.780177,-0.0153 3.038514,-0.10778 2.796304,-0.20551 z m 15.501495,-1e-5 c -0.520763,-0.21013 -0.60055,-2.23282 -0.0881,-2.23282 0.19376,0 0.3523,-0.15854 0.3523,-0.35231 0,-0.21268 -1.431113,-0.34787 -3.611141,-0.3411 -3.078643,0.01 -3.520227,0.0802 -2.994607,0.47922 0.712114,0.54058 0.806863,1.64447 0.193769,2.25757 -0.328819,0.32882 0.356221,0.41659 3.082683,0.39495 1.927998,-0.0153 3.307276,-0.10778 3.065066,-0.20551 l 3e-5,0 z m 15.32534,-0.1472 c -0.77534,-0.4516 -0.78875,-1.31138 -0.0335,-2.14596 0.56137,-0.6203 0.44665,-0.64386 -3.08268,-0.63307 -3.12405,0.01 -3.57464,0.0804 -3.04921,0.47922 0.71211,0.54058 0.80686,1.64447 0.19377,2.25757 -0.32882,0.32882 0.35622,0.42038 3.08268,0.41205 2.55367,-0.008 3.33805,-0.10821 2.88892,-0.36981 l 2e-5,0 z m -42.182581,-5.34446 c -0.746559,-1.59859 -2.018911,-4.92789 -2.827451,-7.39844 l -1.470067,-4.49191 -1.377378,0 c -0.757558,0 -1.377378,0.13105 -1.377378,0.29121 0,0.96898 2.531454,9.1098 4.264165,13.71298 0.259287,0.68883 0.550419,0.79269 2.221935,0.79269 l 1.923552,0 -1.357378,-2.90653 z m 18.313806,1.75391 0.52846,-1.13737 4.632918,-0.0981 c 4.942927,-0.10462 5.760127,0.13778 5.760127,1.7086 0,0.5887 0.2588,0.67945 1.93769,0.67945 1.2591,0 1.93769,-0.14627 1.93769,-0.41768 0,-0.22972 0.34471,-0.7846 0.76602,-1.23307 0.68849,-0.73287 1.08073,-0.8154 3.87537,-0.8154 1.71015,0 3.10935,-0.13621 3.10935,-0.30269 0,-0.16648 -0.578,-1.55368 -1.28445,-3.08268 -0.70645,-1.529 -1.55364,-3.57268 -1.88265,-4.54153 l -0.5982,-1.76153 -4.34839,-0.0994 c -4.52106,-0.10339 -5.10138,-0.28153 -5.65425,-1.73568 -0.26369,-0.69355 -0.556079,-0.80717 -2.077138,-0.80717 -1.130003,0 -1.770253,0.15106 -1.770253,0.41768 0,0.22972 -0.344711,0.7846 -0.766024,1.23307 -0.720788,0.76725 -1.023839,0.8154 -5.131611,0.8154 -4.649483,0 -5.57043,-0.24303 -6.088937,-1.6068 -0.27989,-0.73617 -0.555215,-0.85935 -1.920822,-0.85935 -0.994188,0 -1.5941,0.15719 -1.5941,0.41768 0,0.22972 -0.344711,0.7846 -0.766024,1.23307 -0.704796,0.75022 -1.056796,0.8154 -4.403833,0.8154 -2.000795,0 -3.63781,0.0721 -3.63781,0.1602 0,0.26076 2.696813,7.65157 3.318986,9.09591 0.499614,1.15982 0.660903,1.28194 1.265652,0.95829 0.411984,-0.22049 2.516237,-0.33092 5.188427,-0.27229 l 4.495356,0.0986 0.52846,1.13737 c 0.492285,1.05951 0.649044,1.13737 2.289993,1.13737 1.640949,0 1.797708,-0.0779 2.289993,-1.13737 l 0,2e-5 z m 37.562335,-1.14527 c 2.39122,-1.82387 4.86196,-8.44099 6.28047,-16.82034 2.10479,-12.43324 2.25433,-32.36136 0.3509,-46.763114 C 133.7687,70.344204 129.82773,57.827196 125.76,53.85516 c -1.66525,-1.626071 -1.7599,-1.549825 -2.64489,2.130645 -0.69678,2.897758 -0.93923,3.277509 -2.18571,3.423505 -1.28774,0.15083 -1.72902,2.070277 -0.69049,3.003425 0.6165,0.553942 0.67481,0.92546 0.49071,3.126958 -0.2906,3.475096 -0.89715,5.14182 -2.07697,5.707286 -1.16584,0.558766 -1.28624,1.759071 -0.26423,2.634148 0.60733,0.520012 0.70462,1.039284 0.70462,3.760941 0,3.332063 -0.41146,4.811793 -1.42767,5.134323 -0.33887,0.107552 -0.71577,0.592566 -0.83756,1.077808 -0.17548,0.699178 2e-5,1.068603 0.84574,1.780227 1.05329,0.886284 1.06711,0.942258 1.06179,4.30164 -0.006,3.644232 -0.0942,3.953106 -1.31576,4.5964 -1.06748,0.562151 -1.04664,1.925381 0.037,2.419107 0.96909,0.441542 1.27443,1.779645 1.2803,5.610647 0.004,2.27996 -0.0828,2.59679 -0.87689,3.22146 -1.02999,0.81019 -1.15115,1.81974 -0.24677,2.05624 1.07273,0.28052 1.45376,1.361 1.69619,4.80988 0.21685,3.08482 0.1805,3.36918 -0.52006,4.06975 -0.99506,0.99505 -0.95234,1.68375 0.12115,1.95318 1.27204,0.31926 1.85187,1.77365 1.97958,4.96538 0.11507,2.87587 -0.15808,4.40384 -0.78724,4.40384 -0.19358,0 -0.3018,0.42681 -0.24048,0.94848 0.0859,0.73066 0.3684,1.01459 1.23023,1.23634 1.23108,0.31677 1.44136,0.7515 2.41186,4.98638 0.50855,2.21912 0.50664,2.48653 -0.0236,3.29572 -0.39446,0.60203 -0.5073,1.25233 -0.35664,2.05541 0.18839,1.00418 0.3823,1.19067 1.3354,1.28427 1.03466,0.10162 1.19875,0.31263 2.2768,2.92796 0.76252,1.84985 1.12875,3.27249 1.06565,4.1396 -0.0529,0.72664 -0.0277,1.32115 0.0561,1.32115 0.0837,0 0.67651,-0.39989 1.31731,-0.88866 l -2e-5,0 z m -6.68806,-20.84688 c -0.7709,-2.60064 -2.26614,-20.77695 -2.68656,-32.658071 -0.33599,-9.495407 -0.10711,-23.479657 0.39247,-23.979242 1.05692,-1.05692 3.41749,3.652596 4.67188,9.320752 1.39099,6.285398 2.01397,12.144575 2.22883,20.962251 0.29447,12.08539 -0.63543,20.87016 -2.6277,24.82375 -1.03798,2.05984 -1.6758,2.55315 -1.97892,1.53056 z m -1.63282,18.70936 c 0,-0.0322 -0.23781,-0.62768 -0.52846,-1.32331 -0.70264,-1.68165 -0.67833,-1.87419 0.36887,-2.92139 0.81711,-0.81711 0.86151,-1.00588 0.49664,-2.11146 -0.31456,-0.95314 -0.54247,-1.16914 -1.06018,-1.00483 -0.99713,0.31648 -1.99853,-0.39279 -2.49569,-1.76764 l -0.4458,-1.23284 -2.57152,0 c -1.41434,0 -2.57153,0.14591 -2.57153,0.32424 0,0.62743 2.19898,6.57544 3.38239,9.14901 1.6532,3.59521 2.01315,3.79893 3.91031,2.2131 0.83323,-0.6965 1.51497,-1.2927 1.51497,-1.32488 z m 5.28893,1.31826 c 0.006,-0.75429 -1.86074,-4.96404 -2.20625,-4.97643 -0.14532,-0.005 -0.26423,0.24682 -0.26423,0.56006 0,0.42208 -0.23507,0.52459 -0.908,0.39595 -0.8298,-0.15862 -0.88812,-0.0939 -0.67717,0.75162 0.12696,0.50886 0.4563,1.17549 0.73185,1.4814 0.27556,0.30591 0.50102,0.94799 0.50102,1.42684 0,0.47885 0.17593,1.04658 0.39096,1.26161 0.54852,0.54852 2.42621,-0.14721 2.43182,-0.90105 z m -5.50034,-11.40746 c 0.21316,-0.1409 0.68065,-0.16488 1.03888,-0.0533 0.50777,0.15817 0.60923,0.0593 0.46033,-0.44843 -0.10504,-0.35822 -0.45673,-1.58942 -0.78152,-2.73599 l -0.59053,-2.08467 -0.64689,0.8516 c -0.55205,0.72675 -0.74818,0.78928 -1.33786,0.42649 -0.68564,-0.42183 -0.68577,-0.40683 -0.0173,1.93768 0.93392,3.27566 1.06163,3.55981 1.29941,2.89126 0.10338,-0.29065 0.36236,-0.64374 0.57552,-0.78465 l -4e-5,1e-5 z m -42.505776,-0.30049 c -0.753154,-0.43867 -0.815286,-2.03147 -0.0901,-2.30975 1.19679,-0.45924 -0.04324,-0.83245 -2.749147,-0.82739 -2.904473,0.005 -4.403414,0.37942 -3.267585,0.81528 0.617907,0.23712 0.758263,1.48012 0.205694,1.82162 -0.98835,0.61083 -0.03546,0.87978 3.082684,0.87005 2.505792,-0.008 3.268211,-0.10785 2.818453,-0.36981 z m 15.307726,-0.0422 c -0.60589,-0.60589 -0.521551,-2.02758 0.135233,-2.27962 1.130098,-0.43366 -0.356591,-0.80989 -3.200301,-0.80989 -2.84371,0 -4.330399,0.37623 -3.200301,0.80989 0.669418,0.25688 0.762406,2.20888 0.117618,2.46906 -0.242211,0.0977 1.137069,0.19022 3.065068,0.20551 2.726462,0.0216 3.411501,-0.0661 3.082683,-0.39495 z m 15.16681,0.0595 c -0.904,-0.36336 -1.04216,-1.45076 -0.28101,-2.2119 0.78168,-0.78169 0.3147,-0.94788 -2.66345,-0.94788 -2.54044,0 -3.64365,0.34733 -2.78628,0.87722 0.49173,0.3039 0.45087,1.7075 -0.0647,2.22308 -0.32882,0.32882 0.35622,0.4178 3.08268,0.40044 2.45802,-0.0156 3.2686,-0.11754 2.71276,-0.34096 z m -40.251045,-2.64211 c 0,-0.10281 -0.386526,-2.28271 -0.858948,-4.84421 -0.472422,-2.5615 -1.114184,-6.95608 -1.426138,-9.76572 -0.311953,-2.80965 -0.633873,-5.30662 -0.715376,-5.54883 -0.0858,-0.25498 -0.746143,-0.44039 -1.568469,-0.44039 -1.281269,0 -1.420282,0.0865 -1.420282,0.8835 0,2.08383 2.335433,16.9211 3.035689,19.28606 0.133749,0.45171 0.552945,0.61654 1.568039,0.61654 0.762015,0 1.385485,-0.0841 1.385485,-0.18695 z m 16.316087,-0.80334 c 0.294468,-1.47234 1.479406,-1.82817 6.087979,-1.82817 3.831278,0 4.097858,0.0469 4.915713,0.86476 0.475614,0.47561 0.864755,1.11804 0.864755,1.42763 0,0.45769 0.345673,0.54299 1.84961,0.4564 1.609041,-0.0926 1.864201,-0.20919 1.961781,-0.89608 0.19908,-1.40129 1.34969,-1.85271 4.72236,-1.85271 1.7008,0 3.09237,-0.0623 3.09237,-0.13847 0,-0.0762 -0.2454,-1.32508 -0.54533,-2.77539 -0.29993,-1.45031 -0.82067,-4.75693 -1.15721,-7.34805 l -0.61188,-4.71112 -3.854,-0.1008 c -3.371524,-0.0882 -3.954366,-0.1951 -4.655844,-0.8541 -0.441021,-0.41432 -0.801857,-1.04275 -0.801857,-1.39651 0,-0.53785 -0.291516,-0.6432 -1.779861,-0.6432 -1.663637,0 -1.804088,0.0695 -2.150895,1.06436 -0.20407,0.5854 -0.661016,1.21955 -1.015433,1.40923 -0.354417,0.18967 -2.557274,0.34487 -4.895237,0.34487 -3.7811,0 -4.328704,-0.0779 -4.955454,-0.70462 -0.387538,-0.38754 -0.704614,-1.02169 -0.704614,-1.40922 0,-0.61067 -0.234872,-0.70462 -1.761533,-0.70462 -1.50455,0 -1.761533,0.0991 -1.761533,0.67904 0,0.37348 -0.417727,1.00763 -0.928279,1.40923 -0.814392,0.6406 -1.415392,0.73019 -4.898768,0.73019 l -3.970493,0 0.175932,1.4973 c 0.342251,2.91282 1.487086,10.32877 1.862761,12.0665 l 0.380823,1.76154 4.399912,-0.12448 c 4.843075,-0.13701 5.929867,0.18615 6.357624,1.89047 0.195822,0.78021 0.404085,0.87631 1.899243,0.87631 1.558936,0 1.693496,-0.071 1.877358,-0.99029 z m 31.666478,-0.22573 c -0.11311,-0.96888 0.0476,-1.39166 0.79051,-2.08021 1.16174,-1.07667 0.97298,-2.69299 -0.3145,-2.69299 -1.51859,0 -1.97264,-1.0392 -2.19878,-5.03246 -0.19949,-3.52273 -0.17258,-3.72867 0.54589,-4.17736 0.87753,-0.54802 1.00361,-1.35938 0.21124,-1.35938 -1.02622,0 -2.27398,-1.64321 -2.27398,-2.99469 l 0,-1.26518 -2.35395,0.10417 c -2.21568,0.0981 -2.36864,0.15935 -2.60392,1.04343 -0.25037,0.94079 0.93002,9.96086 1.89017,14.44392 0.27656,1.29131 0.84212,2.77916 1.25681,3.30635 0.41468,0.52718 0.75397,1.17494 0.75397,1.43947 0,0.35549 0.5789,0.48095 2.21925,0.48095 l 2.21925,0 -0.14196,-1.21602 z m 2.37117,-7.4964 c 0.8462,0.22129 0.84303,0.3094 0.13979,-3.88255 -0.2095,-1.24877 -0.81828,-1.57641 -0.81828,-0.44038 0,0.76968 -0.41554,0.88411 -1.36509,0.37593 -0.55986,-0.29963 -0.60084,-0.13615 -0.46358,1.84961 0.17418,2.5199 0.62822,3.39002 1.2939,2.47964 0.27908,-0.38166 0.70382,-0.51547 1.21326,-0.38225 z m -2.94382,-10.27222 c -0.29712,-0.48076 0.77534,-1.20322 1.4193,-0.95611 0.42013,0.16122 0.51494,0.0704 0.35679,-0.34171 -0.11846,-0.3087 -0.21538,-1.3727 -0.21538,-2.36445 0,-1.40247 -0.094,-1.70923 -0.42277,-1.38041 -0.62814,0.62814 -1.69107,0.51742 -1.69107,-0.17615 0,-0.44351 -0.1028,-0.49612 -0.39619,-0.20273 -0.61226,0.61226 -0.0556,5.73394 0.6232,5.73394 0.28555,0 0.43231,-0.14057 0.32612,-0.31238 z m -40.716088,-1.273 c 0.359201,-0.43281 0.335128,-0.52846 -0.133017,-0.52846 -0.400235,0 -0.571597,-0.31685 -0.571597,-1.05692 0,-0.5813 0.167896,-1.05692 0.3731,-1.05692 0.205205,0 0.275117,-0.15854 0.15536,-0.3523 -0.23991,-0.38819 -6.258548,-0.494 -6.635879,-0.11667 -0.129599,0.1296 0.02174,0.52004 0.336319,0.86764 0.663957,0.73367 0.419978,1.71517 -0.426347,1.71517 -0.477971,0 -0.503855,0.0949 -0.144073,0.52846 0.328738,0.39611 1.2111,0.52846 3.523067,0.52846 2.311967,0 3.194329,-0.13235 3.523067,-0.52846 z m 14.944218,0.31462 c 0.706942,-0.27128 0.726485,-0.84308 0.02882,-0.84308 -0.691659,0 -0.68042,-1.19683 0.01666,-1.77537 0.8935,-0.74154 -0.05535,-1.03173 -3.392945,-1.03769 -3.258833,-0.006 -3.742244,0.14871 -2.948472,0.94248 0.668857,0.66886 0.658077,1.87058 -0.01677,1.87058 -0.550152,0 -0.698966,0.41668 -0.293588,0.82205 0.293627,0.29363 5.849823,0.31131 6.606293,0.021 l 2e-6,3e-5 z m 15.61931,-0.40269 c 0.0855,-0.25807 -0.158,-0.44039 -0.5881,-0.44039 -0.87532,0 -1.00356,-1.09921 -0.20551,-1.76153 0.29065,-0.24122 0.52846,-0.57771 0.52846,-0.74775 0,-0.3576 -5.754081,-0.42687 -6.107424,-0.0735 -0.129599,0.1296 0.02174,0.52004 0.336319,0.86764 0.663955,0.73367 0.419975,1.71517 -0.426347,1.71517 -0.484154,0 -0.506698,0.0915 -0.133341,0.54139 0.576155,0.69423 6.361893,0.60562 6.595943,-0.101 l 0,-3e-5 z M 65.005048,102.76394 c -0.112206,-4.795772 -0.282187,-9.234836 -0.377739,-9.864584 -0.169086,-1.114353 -0.220453,-1.144997 -1.919304,-1.144997 l -1.74557,0 0,2.736391 c 0,3.031856 0.588186,13.15397 0.900429,15.49548 l 0.199666,1.4973 1.573261,0 1.57326,0 -0.204003,-8.71959 z m 16.148847,7.72931 c 0.290628,-1.45315 1.490327,-1.82817 5.848298,-1.82817 3.322315,0 3.930379,0.0937 4.739564,0.73018 0.510552,0.4016 0.928278,1.03576 0.928278,1.40923 0,0.58821 0.259192,0.67904 1.937687,0.67904 1.678495,0 1.937687,-0.0908 1.937687,-0.67904 0,-0.37347 0.417726,-1.00763 0.928279,-1.40923 0.798837,-0.62836 1.420532,-0.73018 4.458452,-0.73018 l 3.53017,0 -0.23077,-4.81184 c -0.12693,-2.64652 -0.23077,-5.738009 -0.23077,-6.869984 l 0,-2.058137 -3.43499,-0.0052 c -3.916091,-0.0059 -4.961564,-0.373811 -5.724985,-2.014553 -0.480613,-1.032931 -0.672003,-1.135766 -2.11384,-1.135766 -1.441836,0 -1.633226,0.102835 -2.11384,1.135766 -0.760334,1.634108 -1.813033,2.00936 -5.636906,2.00936 -3.823874,0 -4.876573,-0.375252 -5.636907,-2.00936 -0.483819,-1.039822 -0.667459,-1.136407 -2.173923,-1.14339 -1.53562,-0.0071 -1.660604,0.06131 -1.872256,1.024952 -0.375125,1.70793 -0.992751,1.949207 -5.3431,2.087304 l -3.998375,0.126911 0,6.831957 0,6.83196 4.356322,0 c 3.873714,0 4.459159,0.0809 5.2846,0.73018 0.510552,0.4016 0.928279,1.03576 0.928279,1.40923 0,0.57766 0.256429,0.67904 1.717495,0.67904 1.6008,0 1.730953,-0.0673 1.915551,-0.99028 l 0,2e-5 z m 31.597625,-0.25918 c 0,-1.01918 0.19438,-1.36007 1.05469,-1.84961 1.17471,-0.66844 1.50121,-2.18553 0.47035,-2.18553 -0.32384,0 -0.87872,-0.26237 -1.23307,-0.58306 -0.54453,-0.49279 -0.64428,-1.14348 -0.64428,-4.20252 0,-3.840946 0.33481,-4.726698 1.7867,-4.726698 1.20365,0 0.86567,-1.552407 -0.46555,-2.138335 -0.9045,-0.398107 -1.16819,-0.744467 -1.2554,-1.648961 l -0.1104,-1.144997 -2.39803,0 -2.39804,0 -0.43337,1.547842 c -0.55491,1.981933 -0.0277,15.838939 0.62756,16.494179 0.23037,0.23037 0.41885,0.70422 0.41885,1.053 0,0.54562 0.31969,0.63415 2.28999,0.63415 l 2.29,0 0,-1.24946 z m 2.33874,-6.67744 c 0.27404,-0.71412 1.06818,-0.66775 1.50841,0.0881 0.26604,0.45676 0.36187,-0.10848 0.36981,-2.18118 0.009,-2.439034 -0.0505,-2.713988 -0.4668,-2.144671 -0.5516,0.754351 -1.63632,0.515368 -1.63632,-0.360516 0,-0.31288 -0.19818,-0.502819 -0.44039,-0.422081 -0.43682,0.145609 -0.45782,0.386403 -0.33029,3.787298 0.0636,1.69689 0.5747,2.32987 0.99558,1.23307 l 0,-2e-5 z m 0.65234,-11.449964 c 0.45406,0 0.90554,0.198172 1.00327,0.440383 0.0977,0.242211 0.19021,-0.830605 0.20551,-2.384034 l 0.0278,-2.824418 -1.40922,-0.03695 -1.40923,-0.03695 0,2.714576 c 0,2.489413 0.36882,4.032439 0.64237,2.687462 0.0651,-0.320141 0.46755,-0.560065 0.93947,-0.560065 l 3e-5,-4e-6 z m -41.584343,0.02537 c 0.111136,-0.179821 -0.117314,-0.42831 -0.507666,-0.552202 -0.92687,-0.294176 -0.9333,-1.594505 -0.0091,-1.836194 1.580194,-0.413228 0.109384,-0.80773 -3.011426,-0.80773 -3.016893,0 -3.95119,0.276716 -2.973813,0.880766 0.539032,0.333142 0.418857,1.581956 -0.174131,1.809507 -0.28954,0.111107 -0.438721,0.34394 -0.331514,0.517401 0.258755,0.418678 6.74836,0.407979 7.00764,-0.01156 l 1e-5,1.2e-5 z m 15.085412,0.112805 c 0.117772,-0.117776 0.02681,-0.514121 -0.202181,-0.880767 -0.322311,-0.516104 -0.317629,-0.824658 0.02075,-1.366463 0.240379,-0.38491 0.437054,-0.781255 0.437054,-0.880767 -1.8e-5,-0.09951 -1.585398,-0.180934 -3.523084,-0.180934 -2.11384,0 -3.523067,0.140922 -3.523067,0.352306 0,0.193769 0.158538,0.352307 0.352307,0.352307 0.56176,0 0.407192,1.762587 -0.174132,1.98566 -0.289539,0.111107 -0.43872,0.34394 -0.331513,0.517401 0.21571,0.349031 6.602953,0.442166 6.943866,0.101257 z m 15.520141,-0.01864 c 0.12803,-0.128032 -0.12299,-0.410156 -0.55782,-0.62694 -1.01348,-0.505279 -1.01251,-1.332914 0.002,-1.778043 1.49524,-0.656012 0.78805,-0.885311 -2.7304,-0.885311 -2.113838,0 -3.523064,0.140922 -3.523064,0.352306 0,0.193769 0.158538,0.352307 0.352306,0.352307 0.462012,0 0.457115,1.655176 -0.0057,1.941238 -0.196929,0.121708 -0.266845,0.368872 -0.155361,0.549253 0.228369,0.369513 6.256939,0.456216 6.617969,0.09518 l 7e-5,1e-5 z M 64.632269,88.671676 c 0.111516,-0.532864 0.446256,-3.822527 0.743874,-7.310363 0.297615,-3.487836 0.693389,-7.292748 0.879499,-8.45536 0.186106,-1.162612 0.339574,-2.629089 0.34104,-3.258837 l 0.0027,-1.144997 -1.937687,0 c -1.065728,0 -1.937687,0.130942 -1.937687,0.290981 0,0.160039 -0.230063,1.943591 -0.511253,3.96345 -0.633028,4.54719 -1.393937,15.649138 -1.121269,16.359702 0.136427,0.355519 0.706026,0.524267 1.769626,0.524267 1.427008,0 1.586729,-0.08737 1.771197,-0.968843 l -4e-5,0 z m 15.354726,0.487895 c 0,-0.264522 0.328583,-0.898674 0.730184,-1.409226 0.721175,-0.916826 0.78607,-0.928279 5.25903,-0.928279 4.472959,0 4.537854,0.01145 5.259029,0.928279 0.401602,0.510552 0.730184,1.144704 0.730184,1.409226 0,0.342266 0.507938,0.480948 1.761533,0.480948 1.253596,0 1.761534,-0.138682 1.761534,-0.480948 0,-0.264522 0.328582,-0.898674 0.730184,-1.409226 0.715119,-0.909128 0.815945,-0.928279 4.887027,-0.928279 l 4.15684,0 0.24831,-4.139603 c 0.13656,-2.276782 0.4393,-5.843887 0.67274,-7.9269 l 0.42444,-3.787297 -3.53401,-0.0052 c -3.870313,-0.0057 -5.228564,-0.426886 -5.408117,-1.677082 -0.10057,-0.700251 -0.316703,-0.783886 -2.025764,-0.783886 -1.422501,0 -1.913184,0.12898 -1.913184,0.50289 0,0.276589 -0.417726,0.831472 -0.928278,1.233073 -0.818384,0.643742 -1.41386,0.730184 -5.030055,0.730184 -4.392482,0 -5.667787,-0.400854 -5.667787,-1.781509 0,-0.594993 -0.253717,-0.684638 -1.937686,-0.684638 -1.443729,0 -1.937687,0.128198 -1.937687,0.50289 0,0.276589 -0.417727,0.831472 -0.928279,1.233073 -0.808794,0.636199 -1.417382,0.730184 -4.728146,0.730184 l -3.79987,0 -0.200146,0.968843 c -0.339186,1.641908 -1.265066,11.239362 -1.265066,13.113404 l 0,1.771553 3.875373,0 c 3.405633,0 3.96078,0.08541 4.579987,0.704613 0.387537,0.387538 0.704613,1.021689 0.704613,1.409227 0,0.610664 0.234873,0.704613 1.761534,0.704613 1.253595,0 1.761533,-0.138682 1.761533,-0.480948 l 0,2.1e-5 z m 32.433265,-1.412457 c 0.19387,-1.688151 0.93118,-2.686581 1.98397,-2.686581 0.27749,0 0.46113,-0.420901 0.46113,-1.05692 0,-0.650485 -0.18222,-1.05692 -0.47386,-1.05692 -0.26062,0 -0.75494,-0.310587 -1.09847,-0.690197 -0.5324,-0.588289 -0.60389,-1.206411 -0.48419,-4.186545 0.1513,-3.766979 0.51171,-4.635538 1.9235,-4.635538 0.59085,0 0.83763,-0.199099 0.83763,-0.675798 0,-0.371691 0.0962,-0.926574 0.21385,-1.233074 0.12626,-0.329047 0.0294,-0.557275 -0.23649,-0.557275 -0.69422,0 -1.73889,-1.09108 -1.73889,-1.816137 0,-0.563458 -0.29742,-0.65001 -2.23361,-0.65001 l -2.2336,0 -0.4088,1.32115 c -0.81178,2.623484 -2.0633,16.840629 -1.64865,18.72852 l 0.24588,1.119494 2.3467,-0.103459 2.3467,-0.103458 0.1972,-1.717252 z m 2.7974,-7.618875 c 0,-1.087151 1.411,-0.819465 1.85705,0.352307 0.11064,0.290653 0.21368,-0.606098 0.22898,-1.99278 0.0259,-2.349058 -0.02,-2.508734 -0.67252,-2.338101 -0.44421,0.116162 -0.78011,-0.02473 -0.91846,-0.38529 -0.11997,-0.312637 -0.43897,-0.568429 -0.70889,-0.568429 -0.37859,0 -0.49077,0.644242 -0.49077,2.818453 0,1.644099 0.14679,2.818454 0.35231,2.818454 0.19376,0 0.3523,-0.317076 0.3523,-0.704614 z m 1.54429,-11.62612 c 0.42952,0 0.95543,0.174498 1.16871,0.38777 0.46256,0.462568 0.65052,-0.06053 0.9938,-2.765839 0.22871,-1.802433 0.21214,-1.84961 -0.64977,-1.84961 -0.48646,0 -0.94667,-0.186607 -1.0227,-0.414683 -0.30907,-0.927229 -0.90956,0.176706 -1.13332,2.083482 -0.13104,1.116731 -0.30664,2.347496 -0.39023,2.735034 -0.0836,0.387537 -0.061,0.506441 0.0503,0.26423 0.11125,-0.242211 0.55369,-0.440384 0.98321,-0.440384 z m -41.28448,-0.07046 c -0.625722,-0.625721 -0.532026,-2.043378 0.13505,-2.043378 0.306802,0 0.492151,-0.198173 0.411885,-0.440384 -0.09928,-0.299601 -1.184529,-0.472845 -3.39476,-0.541925 l -3.248832,-0.101542 0.234577,1.2504 c 0.149677,0.797841 0.077,1.440268 -0.200801,1.774998 -0.380551,0.458538 3.52e-4,0.524599 3.025138,0.524599 2.691506,0 3.366561,-0.09395 3.037743,-0.422768 z m 15.342954,-0.06766 c -0.339095,-0.25741 -0.616535,-0.720105 -0.616535,-1.028207 0,-0.308107 0.277441,-0.716733 0.616536,-0.908064 0.446408,-0.251878 0.51045,-0.455155 0.232082,-0.736652 -0.547759,-0.553921 -6.557875,-0.325274 -6.750682,0.256821 -0.08023,0.242211 0.10515,0.440384 0.411953,0.440384 0.772693,0 0.726858,1.628065 -0.05872,2.08562 -0.446831,0.260256 0.4017,0.358965 3.082683,0.358609 3.150467,-3.52e-4 3.607761,-0.06992 3.082683,-0.468511 z m 15.325346,0.06044 c -0.48832,-0.23551 -0.79269,-0.699818 -0.79269,-1.209229 0,-0.6543 0.18999,-0.82693 0.91012,-0.82693 0.57152,0 0.85551,-0.163841 0.76333,-0.440384 -0.10416,-0.312499 -1.15282,-0.440383 -3.61114,-0.440383 -2.45832,0 -3.506978,0.127884 -3.611144,0.440383 -0.08074,0.242211 0.104222,0.440384 0.411024,0.440384 0.66708,0 0.76077,1.417657 0.13505,2.043378 -0.32882,0.328819 0.35622,0.417469 3.08268,0.398924 2.78445,-0.01895 3.34242,-0.102475 2.71277,-0.406143 z M 66.544597,65.507513 c 0.07012,-0.387537 0.354522,-0.961086 0.63201,-1.274554 0.277487,-0.313465 0.96526,-2.374459 1.528384,-4.579987 0.563127,-2.205524 1.420046,-5.159446 1.904266,-6.564269 l 0.880401,-2.554223 -2.077525,0 -2.077524,0 -0.920535,2.90653 c -1.171381,3.698561 -2.985492,11.091138 -2.985492,12.165998 0,0.748701 0.13289,0.812151 1.494263,0.713452 1.169999,-0.08482 1.521929,-0.261238 1.621752,-0.812947 z m 15.605625,-0.32228 c 0.150167,-0.56479 0.477928,-1.15688 0.728358,-1.315752 0.250431,-0.158877 2.476688,-0.291295 4.947239,-0.294261 4.026322,-0.0048 4.564943,0.06764 5.196523,0.69922 0.387537,0.387537 0.704613,1.029975 0.704613,1.427638 0,0.650872 0.184581,0.712399 1.84961,0.616536 1.582749,-0.09112 1.865158,-0.215548 1.957371,-0.862386 0.226039,-1.58562 1.03737,-1.857794 5.852794,-1.963412 l 4.52031,-0.09914 1.20485,-4.22768 c 0.66267,-2.325224 1.29554,-4.58439 1.40639,-5.02037 0.19841,-0.780398 0.14984,-0.79269 -3.13185,-0.79269 -3.53518,0 -4.25903,-0.307958 -4.55451,-1.937687 -0.10541,-0.581436 -0.45051,-0.723229 -1.97406,-0.811101 -1.604516,-0.09254 -1.846304,-0.0205 -1.846304,0.550106 0,0.361125 -0.323252,1.003563 -0.71834,1.427638 -0.669953,0.719114 -1.036398,0.771044 -5.440774,0.771044 -4.480654,0 -4.750517,-0.04009 -5.270878,-0.783005 -0.301637,-0.430649 -0.548435,-1.064801 -0.548435,-1.409227 0,-0.516594 -0.308374,-0.626221 -1.761534,-0.626221 -1.465539,0 -1.761533,0.107235 -1.761533,0.638182 0,0.351 -0.33108,0.993554 -0.735729,1.427896 -0.702084,0.753598 -0.950939,0.784833 -5.441489,0.682967 L 72.62709,53.17678 71.558238,56.876 c -0.58787,2.034571 -1.171688,4.373006 -1.29737,5.196523 l -0.228516,1.497303 3.391941,0 c 2.922201,0 3.489524,0.09758 4.096556,0.704614 0.387537,0.387537 0.704613,1.029975 0.704613,1.427638 0,0.649854 0.184781,0.712248 1.825864,0.616536 1.683554,-0.09819 1.847144,-0.186525 2.098896,-1.133381 z m 32.136628,0.58651 c 0.0955,-0.339095 0.28301,-1.17142 0.41673,-1.84961 0.31133,-1.578887 0.67931,-2.016765 1.9247,-2.2903 1.4995,-0.329343 1.76056,-1.904933 0.52102,-3.144481 -0.70794,-0.707932 -0.90226,-1.213651 -0.82242,-2.14032 0.0841,-0.97653 -0.12538,-1.450576 -1.07337,-2.42865 -0.64784,-0.668403 -1.38138,-1.137197 -1.6301,-1.041757 -0.59384,0.227879 -1.67835,3.219125 -2.98282,8.227055 -1.44945,5.564549 -1.51337,5.2846 1.20642,5.2846 1.85733,0 2.29757,-0.111248 2.43984,-0.616537 z m 7.28238,-10.691024 c 0.40948,-1.374944 0.69363,-2.529594 0.63146,-2.565892 -1.73058,-1.010327 -2.1277,-1.072009 -2.61461,-0.406118 -0.47671,0.651954 -0.63649,1.48994 -0.51675,2.710317 0.0316,0.32193 -0.1087,0.687995 -0.31174,0.813483 -0.20304,0.125484 -0.36917,0.555288 -0.36917,0.955114 0,0.616702 0.0828,0.658214 0.54614,0.273703 0.45116,-0.374424 0.64811,-0.351292 1.13242,0.133014 0.32245,0.322452 0.62486,0.586273 0.67201,0.586273 0.0472,0 0.42077,-1.124954 0.83024,-2.499894 z m -3.35696,-3.590163 c 0.68288,-1.43874 0.75546,-1.483902 2.35309,-1.463961 1.22356,0.01529 1.52512,-0.07554 1.16989,-0.352307 -0.26323,-0.205085 -0.98664,-1.522282 -1.60757,-2.927105 -0.62094,-1.404823 -1.2653,-2.554223 -1.43191,-2.554223 -0.35082,0 -2.08188,2.312181 -3.38118,4.516244 l -0.89702,1.521637 1.35232,1.384893 c 0.74376,0.76169 1.43903,1.379146 1.54504,1.372125 0.106,-0.007 0.5098,-0.680808 0.89734,-1.497303 z M 81.195316,50.92685 c 0.106139,-0.171739 -0.122311,-0.394713 -0.507671,-0.495487 -0.830616,-0.217211 -0.955466,-1.582748 -0.17219,-1.883319 1.204836,-0.462339 0.378924,-0.831715 -1.84961,-0.827208 -3.369989,0.0068 -3.96345,0.220145 -3.96345,1.424714 0,0.547273 -0.158538,1.09302 -0.352307,1.212776 -0.193768,0.119757 -0.352306,0.366921 -0.352306,0.549254 0,0.421771 6.937292,0.440337 7.197534,0.01927 z m 15.465291,0.07961 c 0.127947,-0.127944 -0.08344,-0.45401 -0.469746,-0.724589 -0.829759,-0.581186 -0.917794,-1.448375 -0.175934,-1.733052 1.133546,-0.434983 0.02255,-0.830778 -2.220688,-0.791112 -2.087819,0.03692 -5.175815,0.512863 -4.030734,0.62125 0.622597,0.05893 0.549394,1.783497 -0.08605,2.027342 -0.28954,0.111107 -0.438721,0.343939 -0.331514,0.517401 0.222792,0.360484 6.96071,0.436719 7.314666,0.08276 z m 15.033993,0.09675 c 0,-0.07473 -0.23662,-0.589983 -0.52583,-1.144997 -0.48905,-0.938566 -0.47674,-1.031353 0.17616,-1.327181 1.34028,-0.607292 0.68812,-0.914782 -1.85225,-0.873326 -2.23057,0.0364 -5.43371,0.507096 -4.22768,0.62125 0.63556,0.06016 0.54285,1.688508 -0.11041,1.939188 -0.30293,0.116247 -0.45211,0.371014 -0.33151,0.566153 0.2001,0.32377 6.87152,0.53631 6.87152,0.218913 z M 87.077012,47.389276 c 0.489213,-1.403357 1.808809,-1.794551 5.909825,-1.751972 4.327911,0.04493 5.020965,0.245076 5.672412,1.638071 0.486141,1.039527 0.663936,1.130626 2.220241,1.137641 1.55365,0.007 1.72092,-0.07596 2.04863,-1.016024 0.21166,-0.607173 0.77414,-1.196501 1.3825,-1.448488 1.41342,-0.58546 8.48215,-0.338433 9.28073,0.324326 0.32253,0.267676 0.62857,0.42446 0.68008,0.348404 0.95049,-1.403241 4.23559,-5.246727 4.48448,-5.246727 0.18542,0 0.33713,-0.237807 0.33713,-0.52846 0,-0.433253 -0.61885,-0.529397 -3.43499,-0.533653 -3.76828,-0.0057 -5.13088,-0.436128 -5.30911,-1.677082 -0.0939,-0.653927 -0.3358,-0.783872 -1.45911,-0.783872 -1.11604,0 -1.38177,0.140422 -1.55243,0.820367 -0.30132,1.200563 -1.6465,1.64578 -4.97257,1.64578 -3.654898,0 -4.762501,-0.366681 -4.762501,-1.576661 0,-0.816083 -0.12768,-0.889486 -1.547187,-0.889486 -1.351695,0 -1.574796,0.110004 -1.765694,0.870599 -0.345236,1.375532 -1.3453,1.671139 -5.207765,1.539348 -3.531565,-0.1205 -4.121308,-0.348999 -4.598938,-1.781886 -0.40449,-1.213478 -4.859542,2.164251 -7.248019,5.495304 l -1.166885,1.627382 2.399959,0.03513 c 3.308765,0.04842 4.071051,0.314662 4.689955,1.63807 0.473486,1.012463 0.686125,1.13081 2.044091,1.137641 1.36183,0.0068 1.552115,-0.09703 1.875166,-1.02374 l 0,-1.2e-5 z m 38.142148,0.302892 c 0.35712,-0.325327 -1.39698,-4.698372 -2.12793,-5.305002 -0.37897,-0.314514 -0.47513,-0.199021 -0.47513,0.570653 0,0.839335 -0.11467,0.943054 -0.88076,0.796607 -0.48443,-0.0926 -0.88077,-0.04756 -0.88077,0.100101 0,0.288754 1.41399,3.398414 1.8766,4.127022 0.28703,0.45208 1.87709,0.267137 2.48799,-0.289381 z M 92.493882,38.203747 c 0.119756,-0.193769 -0.02942,-0.352307 -0.331513,-0.352307 -0.724741,0 -0.717477,-1.366788 0.0087,-1.645465 1.033875,-0.396736 -0.259925,-0.809589 -2.554949,-0.815287 -2.888468,-0.0072 -3.287642,0.182112 -3.287642,1.55896 0,0.625164 0.105692,1.242356 0.234873,1.371533 0.37595,0.37595 5.690608,0.270709 5.930494,-0.117434 l 3.7e-5,0 z m 12.859198,0.07046 c 0,-0.155015 -0.19421,-0.476047 -0.43157,-0.713407 -0.33332,-0.333328 -0.3371,-0.582814 -0.0166,-1.096051 0.53428,-0.85549 0.006,-1.079457 -2.54645,-1.079457 -2.576518,0 -3.080218,0.220267 -2.537645,1.109706 0.349525,0.572967 0.316695,0.774279 -0.187258,1.148503 -0.336083,0.24957 -0.507832,0.556989 -0.381664,0.683157 0.332246,0.332243 6.101177,0.282649 6.101177,-0.05245 l 1e-5,-1e-6 z m 12.06672,-0.475452 c -0.13172,-0.503728 0.0262,-0.921257 0.47166,-1.246982 1.01837,-0.744655 0.0674,-1.155691 -2.6738,-1.155691 -2.39137,0 -3.72719,0.404915 -2.67184,0.809892 0.7061,0.270955 0.72648,1.250621 0.0316,1.517285 -1.15189,0.442022 -0.001,0.832793 2.45193,0.832793 2.4751,0 2.57985,-0.03319 2.39049,-0.757297 l -4e-5,0 z"
     id="path4517"
     sodipodi:nodetypes="cssssscccssssscccsssscccssssssssssssssssssssssscccssssssssssssssssssssssssssssssscccsscccccccsssssssscccssssssssccccssssssssssssscccsssssssssssssccsssssccsssssssccsssscccccsssssscccsssssccccccssccccccssssssscccssssssssssssscccscccssssssssssssssssssssssssssssssssscccsssssccsssscccsssccsssssssccsscccssscccsssssccsssssccsssssccsssssssccsssssssscccsssssssssssccccccssccssssscccssssccccsssssccsssssssccsssssssssccsssssscccssssssscccscccccccccssssssccccccssssssscccccssscccsssssscccccssccccsssssscccscccccscccsssssscccssssssssccssssssscccsscccsssscccsssssssccccccsssssssssccccccssscccsssssssssscccccccccsssssssccsssssssccsscccssccsssssssccssssssssccsscccccssccsssssscccssssssssssssccccccsssccssssssssccssssssssccsssscccsccssssssccssssssccssssssccssssssssssssssssssscccsscccsssssccssssscccsssssscccssssscc" />
</svg>
