<?xml version="1.0" encoding="UTF-8" standalone="no"?>
<!-- Created with Inkscape (http://www.inkscape.org/) -->

<svg
   xmlns:dc="http://purl.org/dc/elements/1.1/"
   xmlns:cc="http://creativecommons.org/ns#"
   xmlns:rdf="http://www.w3.org/1999/02/22-rdf-syntax-ns#"
   xmlns:svg="http://www.w3.org/2000/svg"
   xmlns="http://www.w3.org/2000/svg"
   xmlns:sodipodi="http://sodipodi.sourceforge.net/DTD/sodipodi-0.dtd"
   xmlns:inkscape="http://www.inkscape.org/namespaces/inkscape"
   width="1500"
   height="1749.9872"
   id="svg8379"
   version="1.1"
   inkscape:version="0.48.5 r10040"
   sodipodi:docname="CANC Camion.svg">
  <defs
     id="defs8381" />
  <sodipodi:namedview
     id="base"
     pagecolor="#ffffff"
     bordercolor="#666666"
     borderopacity="1.0"
     inkscape:pageopacity="0.0"
     inkscape:pageshadow="2"
     inkscape:zoom="0.12374369"
     inkscape:cx="1901.2723"
     inkscape:cy="449.15488"
     inkscape:document-units="px"
     inkscape:current-layer="layer1"
     showgrid="false"
     fit-margin-top="0"
     fit-margin-left="0"
     fit-margin-right="0"
     fit-margin-bottom="0"
     inkscape:window-width="1366"
     inkscape:window-height="705"
     inkscape:window-x="-8"
     inkscape:window-y="-8"
     inkscape:window-maximized="1" />
  <metadata
     id="metadata8384">
    <rdf:RDF>
      <cc:Work
         rdf:about="">
        <dc:format>image/svg+xml</dc:format>
        <dc:type
           rdf:resource="http://purl.org/dc/dcmitype/StillImage" />
        <dc:title />
      </cc:Work>
    </rdf:RDF>
  </metadata>
  <g
     inkscape:label="Livello 1"
     inkscape:groupmode="layer"
     id="layer1"
     transform="translate(-380,247.625)">
    <rect
       y="302.36215"
       x="380"
       height="250"
       width="1250"
       id="rect5553"
       style="fill:#784421;fill-opacity:1;stroke-width:22.5;stroke-miterlimit:4;stroke-dasharray:none" />
    <rect
       y="2.8621285"
       x="380.5"
       height="249"
       width="1249"
       id="rect5834"
       style="fill:#784421;fill-opacity:1;stroke:#784421;stroke-width:0.99999994;stroke-miterlimit:4;stroke-opacity:1;stroke-dasharray:none" />
    <path
       style="fill:#784421;fill-opacity:1;stroke:none"
       d="m 380,1502.3542 0,-399.9922 1120.0789,0 c 23.4037,0 44.883,5.105 69.0791,18.3478 l 300.3949,164.0444 c 6.8933,3.9499 10.4471,10.2359 10.4471,17.4528 0,7.3739 -3.406,13.5119 -10.1461,17.5858 L 1567.97,1484.7684 c -20.5795,11.2789 -43.942,17.5938 -67.9538,17.5938 z"
       id="path11122"
       inkscape:connector-curvature="0"
       sodipodi:nodetypes="cccccccccc" />
    <path
       style="fill:#ffffff;fill-opacity:1;stroke:none"
       d="m 470.0569,1492.3612 c -44.1852,0 -80.0738,-35.7 -80.0737,-80.0642 l -1e-4,-220.013 c 0,-45.259 36.9616,-79.933 80.0682,-79.933 l 1029.9176,0 c 23.9261,0 43.4222,5.576 63.9062,16.883 l 301.0002,164.375 c 3.2602,1.863 4.8197,4.938 5.0874,8.153 0.196,3.995 -1.8549,7.408 -5.1267,9.303 l -302.6484,165.3572 c -18.396,9.995 -39.3411,15.994 -62.2629,15.994 z"
       id="path11124"
       inkscape:connector-curvature="0"
       sodipodi:nodetypes="cccccccccccc" />
    <path
       style="fill:#784421;fill-opacity:1;stroke:none"
       d="m 1581.3438,1161.068 c -35.8852,-35.885 -81.2866,-33.709 -81.2866,-33.709 l -1029.9945,0 c -35.117,0 -65.0625,28.235 -65.0625,64.934 l -1e-4,220.004 c 1e-4,35.963 28.8688,65.0602 65.0568,65.0602 l 1030.0092,0 c 0,0 44.0854,3.48 81.2998,-33.7342 l 141.2681,-141.268 z"
       id="path11126"
       inkscape:connector-curvature="0"
       sodipodi:nodetypes="cccccsccc" />
    <g
       style="font-size:142.24691772px;font-style:normal;font-weight:normal;line-height:125%;letter-spacing:0px;word-spacing:0px;fill:#ffffff;fill-opacity:1;stroke:none;font-family:Sans"
       id="text11128">
      <path
         d="m 831.87713,1300.7256 0,51.4933 -20.48533,0 0,-45.0903 c -9e-5,-3.603 -1.11429,-6.4007 -3.34259,-8.3933 -2.22849,-1.9925 -4.9069,-2.9888 -8.03525,-2.9888 -3.13141,0 -5.78667,0.9493 -7.96579,2.8477 -2.46578,2.1792 -3.69863,5.0718 -3.69856,8.6777 l 0,44.947 -20.19882,0 0,-44.8081 c -5e-5,-3.5075 -1.18515,-6.3046 -3.5553,-8.3912 -2.08664,-1.8029 -4.64785,-2.7044 -7.68363,-2.7045 -3.03297,10e-5 -5.59273,0.9016 -7.67928,2.7045 -2.37313,1.9911 -3.55968,4.6464 -3.55965,7.9658 l 0,45.2335 -19.63014,0 0,-71.9743 18.21062,0 2.13145,4.124 c 1.13732,-1.7074 3.20003,-3.2014 6.18814,-4.4821 2.98804,-1.2805 6.2836,-1.9208 9.8867,-1.9209 7.39706,10e-5 14.08224,2.8927 20.05556,8.6777 6.07159,-6.1642 13.32689,-9.2463 21.76593,-9.2464 7.30152,10e-5 13.72624,2.2524 19.27418,6.7568 5.54773,4.5047 8.32165,10.0286 8.32176,16.5719 z"
         style="font-variant:normal;font-stretch:normal;word-spacing:-20px;fill:#ffffff;font-family:CodiceBianco;-inkscape-font-specification:CodiceBianco"
         id="path11183" />
      <path
         d="m 878.30446,1278.964 c 7.39418,10e-5 13.84205,1.5166 19.34364,4.5494 6.54332,3.6987 9.815,8.8674 9.81507,15.5062 l 0,28.3079 c -7e-5,3.7941 0.18949,6.118 0.56868,6.9717 0.85366,2.3702 3.17756,3.5553 6.97169,3.5553 l -6.82844,15.7883 c -2.37027,-0.096 -4.55236,-0.3806 -6.54627,-0.8552 -4.83597,-1.1373 -8.48678,-3.2225 -10.95243,-6.2554 -5.21507,4.7404 -12.46893,7.1106 -21.76159,7.1106 -6.4479,0 -12.06664,-2.2284 -16.85622,-6.6852 -4.78962,-4.4568 -7.13666,-9.4359 -7.04116,-14.9375 0.18811,-13.4658 8.67482,-21.4316 25.46015,-23.8974 l 16.50026,-2.4179 c 0.28646,-3.6985 -0.66133,-6.306 -2.84337,-7.8225 -1.89563,-1.1373 -5.02551,-1.706 -9.38965,-1.7061 -6.92253,10e-5 -13.4659,2.6076 -19.63015,7.8226 l -9.52856,-13.9391 c 8.53445,-7.397 19.44056,-11.0956 32.71835,-11.0957 z m -6.68953,44.2395 c -4.93144,0.8538 -7.39714,3.2717 -7.39711,7.2539 -3e-5,2.0866 1.09102,3.7224 3.27313,4.9075 2.18207,1.1851 4.74327,1.7777 7.68363,1.7776 3.03289,10e-5 5.68743,-0.5693 7.96362,-1.7082 2.2761,-1.1387 3.60373,-2.75 3.9829,-4.8337 l 0,-9.9583 z"
         style="font-variant:normal;font-stretch:normal;word-spacing:-20px;fill:#ffffff;font-family:CodiceBianco;-inkscape-font-specification:CodiceBianco"
         id="path11185" />
      <path
         d="m 970.00007,1278.2521 0,20.6242 c -1.42102,-0.188 -2.84343,-0.2821 -4.26723,-0.2821 -5.59419,0 -10.19278,1.2792 -13.7958,3.8375 -3.9851,2.7522 -5.97763,6.4985 -5.9776,11.2389 l 0,38.5483 -19.91231,0 0,-72.2608 19.91231,0 0,6.2598 c 5.97612,-5.406 13.04186,-8.109 21.19725,-8.109 1.1373,0 2.08509,0.048 2.84338,0.1432 z"
         style="font-variant:normal;font-stretch:normal;word-spacing:-20px;fill:#ffffff;font-family:CodiceBianco;-inkscape-font-specification:CodiceBianco"
         id="path11187" />
      <path
         d="m 977.91812,1313.3884 c -1e-5,-10.9075 3.27168,-19.8695 9.81507,-26.8862 6.54336,-7.0164 15.03151,-10.5247 25.46451,-10.5248 9.7673,10e-5 18.0644,3.3181 24.8915,9.954 7.1134,7.1136 10.4806,15.9808 10.1015,26.6018 0,1.3284 -0.096,3.9359 -0.2865,7.8226 l -50.35594,0 c 2.37307,9.0091 7.63734,13.5136 15.79264,13.5136 5.1195,0 9.433,-0.806 12.9406,-2.418 1.2328,-0.4745 3.509,-1.897 6.8285,-4.2672 l 13.3747,13.5136 c -10.0539,7.6808 -21.1018,11.5211 -33.1438,11.5211 -7.8717,0 -15.07929,-2.4657 -21.62264,-7.3971 -9.2001,-6.9225 -13.80015,-17.4002 -13.80014,-31.4334 z m 20.62858,-7.5404 29.302,0 c -0.3792,-3.8895 -1.9912,-7.0671 -4.8359,-9.5329 -2.8449,-2.4656 -6.0689,-3.6985 -9.6719,-3.6985 -4.4597,0 -8.1119,1.518 -10.9567,4.5537 -2.55837,2.6568 -3.83753,5.5494 -3.8375,8.6777 z"
         style="font-variant:normal;font-stretch:normal;word-spacing:-20px;fill:#ffffff;font-family:CodiceBianco;-inkscape-font-specification:CodiceBianco"
         id="path11189" />
      <path
         d="m 1162.5543,1316.0885 c 0,12.6122 -3.7941,22.3795 -11.3821,29.302 -6.448,5.8807 -14.366,8.821 -23.7542,8.821 -6.9225,0 -12.8495,-1.6597 -17.7808,-4.9792 l 0,24.4661 -20.4854,0 0,-93.8835 17.9242,0 2.1358,4.1283 c 4.1702,-3.985 10.0972,-5.9775 17.7808,-5.9776 9.2927,10e-5 17.2584,2.9404 23.8974,8.821 7.7761,6.9225 11.6643,16.6898 11.6643,29.3019 z m -19.7734,0.5687 c 0,-6.9224 -1.8493,-12.327 -5.5478,-16.2137 -3.3195,-3.4149 -7.3494,-5.1224 -12.0898,-5.1225 -4.2687,10e-5 -7.9195,1.3748 -10.9524,4.124 -3.2269,3.0359 -4.8403,7.0195 -4.8402,11.9509 l 0,8.109 c -10e-5,5.4032 1.8029,9.8122 5.4089,13.2272 3.2239,3.2239 7.112,4.8359 11.6643,4.8359 4.5494,0 8.2942,-1.6597 11.2346,-4.9792 3.4149,-3.7911 5.1224,-9.1017 5.1224,-15.9316 z"
         style="font-variant:normal;font-stretch:normal;word-spacing:-20px;fill:#ffffff;font-family:CodiceBianco;-inkscape-font-specification:CodiceBianco"
         id="path11191" />
      <path
         d="m 1185.8049,1251.2248 c 3.1313,2e-4 5.9291,1.1382 8.3934,3.4143 2.4642,2.2762 3.6963,5.1681 3.6964,8.6755 -10e-5,2.9404 -1.1852,5.5487 -3.5553,7.8247 -2.3703,2.2763 -5.1196,3.4143 -8.248,3.4142 -3.1314,10e-5 -5.906,-1.0902 -8.3239,-3.2709 -2.418,-2.1806 -3.627,-4.9306 -3.627,-8.2501 0,-3.4149 1.162,-6.2366 3.4859,-8.4651 2.3239,-2.2283 5.05,-3.3424 8.1785,-3.3426 z m -9.8151,28.8766 20.4853,0 0,72.1175 -20.4853,0 z"
         style="font-variant:normal;font-stretch:normal;word-spacing:-20px;fill:#ffffff;font-family:CodiceBianco;-inkscape-font-specification:CodiceBianco"
         id="path11193" />
      <path
         d="m 1281.0298,1306.1302 0,46.232 -20.7675,0 0,-41.8215 c -0.3792,-3.8866 -1.9203,-6.9441 -4.6232,-9.1726 -2.7031,-2.2283 -5.7606,-3.3425 -9.1726,-3.3426 -3.415,10e-5 -6.2598,1.0434 -8.5345,3.1299 -2.5612,2.2747 -3.8418,5.4032 -3.8418,9.3853 l 0,41.6782 -20.4853,0 0,-71.8353 17.7808,0 2.1358,3.985 c 5.215,-4.0776 11.5211,-6.1164 18.9182,-6.1165 7.7762,10e-5 14.3196,2.2762 19.6302,6.8284 5.9732,5.1196 8.9598,12.1362 8.9599,21.0497 z"
         style="font-variant:normal;font-stretch:normal;word-spacing:-20px;fill:#ffffff;font-family:CodiceBianco;-inkscape-font-specification:CodiceBianco"
         id="path11195" />
      <path
         d="m 1294.0876,1313.3884 c -10e-5,-10.9075 3.2716,-19.8695 9.815,-26.8862 6.5434,-7.0164 15.0315,-10.5247 25.4645,-10.5248 9.7673,10e-5 18.0644,3.3181 24.8915,9.954 7.1134,7.1136 10.4806,15.9808 10.1016,26.6018 -10e-5,1.3284 -0.096,3.9359 -0.2865,7.8226 l -50.356,0 c 2.3731,9.0091 7.6373,13.5136 15.7927,13.5136 5.1194,0 9.433,-0.806 12.9406,-2.418 1.2328,-0.4745 3.5089,-1.897 6.8284,-4.2672 l 13.3747,13.5136 c -10.0538,7.6808 -21.1018,11.5211 -33.1437,11.5211 -7.8718,0 -15.0794,-2.4657 -21.6227,-7.3971 -9.2001,-6.9225 -13.8002,-17.4002 -13.8001,-31.4334 z m 20.6285,-7.5404 29.302,0 c -0.3792,-3.8895 -1.9911,-7.0671 -4.8359,-9.5329 -2.8449,-2.4656 -6.0688,-3.6985 -9.6718,-3.6985 -4.4598,0 -8.112,1.518 -10.9568,4.5537 -2.5583,2.6568 -3.8375,5.5494 -3.8375,8.6777 z"
         style="font-variant:normal;font-stretch:normal;word-spacing:-20px;fill:#ffffff;font-family:CodiceBianco;-inkscape-font-specification:CodiceBianco"
         id="path11197" />
      <path
         d="m 1401.8798,1279.1073 18.636,0 0,16.9257 -18.636,0 0,31.008 c -10e-5,5.406 3.0343,8.109 9.1031,8.109 2.5612,0 5.2164,-0.4268 7.9658,-1.2806 l 3.8418,16.7868 c -6.2569,2.0866 -12.563,3.1299 -18.9182,3.1299 -15.0779,0 -22.6168,-6.2121 -22.6168,-18.6361 l 0,-39.117 -11.6643,0 0,-16.9257 11.6643,0 0,-21.1973 20.6243,-5.83 z"
         style="font-variant:normal;font-stretch:normal;word-spacing:-20px;fill:#ffffff;font-family:CodiceBianco;-inkscape-font-specification:CodiceBianco"
         id="path11199" />
      <path
         d="m 1465.0765,1278.964 c 7.3941,10e-5 13.842,1.5166 19.3436,4.5494 6.5433,3.6987 9.815,8.8674 9.8151,15.5062 l 0,28.3079 c -10e-5,3.7941 0.1895,6.118 0.5686,6.9717 0.8537,2.3702 3.1776,3.5553 6.9717,3.5553 l -6.8284,15.7883 c -2.3703,-0.096 -4.5524,-0.3806 -6.5463,-0.8552 -4.8359,-1.1373 -8.4867,-3.2225 -10.9524,-6.2554 -5.2151,4.7404 -12.4689,7.1106 -21.7616,7.1106 -6.4479,0 -12.0666,-2.2284 -16.8562,-6.6852 -4.7896,-4.4568 -7.1367,-9.4359 -7.0412,-14.9375 0.1881,-13.4658 8.6748,-21.4316 25.4602,-23.8974 l 16.5002,-2.4179 c 0.2865,-3.6985 -0.6613,-6.306 -2.8433,-7.8225 -1.8957,-1.1373 -5.0255,-1.706 -9.3897,-1.7061 -6.9225,10e-5 -13.4659,2.6076 -19.6301,7.8226 l -9.5286,-13.9391 c 8.5345,-7.397 19.4406,-11.0956 32.7184,-11.0957 z m -6.6896,44.2395 c -4.9314,0.8538 -7.3971,3.2717 -7.3971,7.2539 0,2.0866 1.091,3.7224 3.2732,4.9075 2.182,1.1851 4.7432,1.7777 7.6836,1.7776 3.0329,10e-5 5.6874,-0.5693 7.9636,-1.7082 2.2761,-1.1387 3.6037,-2.75 3.9829,-4.8337 l 0,-9.9583 z"
         style="font-variant:normal;font-stretch:normal;word-spacing:-20px;fill:#ffffff;font-family:CodiceBianco;-inkscape-font-specification:CodiceBianco"
         id="path11201" />
    </g>
    <g
       style="font-size:106.68518829px;font-style:normal;font-weight:normal;line-height:125%;letter-spacing:0px;word-spacing:0px;fill:#ffffff;fill-opacity:1;stroke:none;font-family:Sans"
       id="text11132">
      <path
         d="m 1577.5551,1274.8032 c 9.1031,0 16.2864,2.5243 21.5499,7.5729 4.9792,4.836 7.4687,11.2726 7.4688,19.31 -10e-5,7.2561 -2.596,13.8707 -7.7878,19.8439 -1.921,2.2053 -5.7975,5.5479 -11.6296,10.0278 -5.5479,4.3389 -8.4282,6.6505 -8.6409,6.9348 l 27.5243,0 0,13.7622 -53.9839,0 0,-12.6943 c 0,-0.4276 3.7343,-3.45 11.2031,-9.0673 10.668,-8.0374 16.1442,-12.1625 16.4286,-12.3752 6.8284,-5.3351 10.2426,-10.9188 10.2427,-16.751 -10e-5,-3.8417 -1.2449,-6.8642 -3.7344,-9.0673 -2.2769,-1.9209 -5.1572,-2.8813 -8.6408,-2.8814 -4.2673,10e-5 -7.5035,1.4229 -9.7087,4.2683 -1.921,2.4181 -2.8814,5.6185 -2.8814,9.6013 0,0.8531 0.036,1.7061 0.1074,2.5591 l -16.1095,0 c -0.072,-1.4933 -0.1075,-2.6665 -0.1075,-3.5195 0,-8.962 2.8098,-15.8968 8.4292,-20.8044 5.1919,-4.4799 11.9487,-6.7199 20.2705,-6.7199 z"
         style="font-variant:normal;font-stretch:normal;fill:#ffffff;font-family:CodiceBianco;-inkscape-font-specification:CodiceBianco"
         id="path11177" />
    </g>
    <rect
       ry="24.788021"
       rx="24.788021"
       y="1195.1122"
       x="472.74982"
       height="214.5"
       width="214.5"
       id="rect11136"
       style="fill:#ffffff;fill-opacity:1;stroke:#ffffff;stroke-width:5.5;stroke-linejoin:miter;stroke-miterlimit:4;stroke-opacity:1;stroke-dasharray:none" />
    <path
       sodipodi:nodetypes="cssscccccccsssssccsscccssccccsscccsccssssccssccsccsscccssscccccssscc"
       id="path11138"
       d="m 548.3676,1384.4593 c 0.011,-2.3229 0.2831,-10.2206 0.6048,-17.5504 0.3216,-7.3297 0.9317,-22.6079 1.3558,-33.9516 0.7605,-20.3461 0.7524,-20.6914 -0.6048,-25.5501 -1.7929,-6.4183 -1.7791,-7.0529 0.143,-6.5747 l 1.5188,0.378 0.4707,-10.9176 0.4707,-10.9175 -5.6979,-5.4795 -5.6979,-5.4795 -4.5498,-0.3227 c -5.634,-0.3997 -11.754,-3.0753 -15.4774,-6.7666 -2.0848,-2.0669 -3.4265,-2.7718 -6.7138,-3.5276 -16.347,-3.7585 -22.4616,-11.1681 -18.3051,-22.1817 1.6143,-4.2774 4.9226,-7.3762 9.8103,-9.1892 3.6861,-1.3673 16.0632,-3.2588 21.3236,-3.2588 2.4695,0 10.4314,11.3641 12.5981,9.4235 15.8886,8.3368 51.3203,9.4404 67.198,26.3405 -4.3606,0.7978 -4.3675,0.8024 -4.7561,3.1728 -0.2387,1.4555 -1.198,3.201 -2.4798,4.5121 -2.6389,2.6992 -7.5708,3.6705 -17.4864,3.4436 l -6.9187,-0.1583 -5.8058,6.2279 c -8.4336,9.0467 -8.1435,8.0098 -8.5551,30.5709 -0.9626,52.7533 -1.5633,81.0196 -1.7244,81.1502 -0.098,0.08 -2.5553,0.299 -5.4598,0.4874 l -5.2811,0.3425 0.02,-4.2236 z m 18.191,-112.4838 c 4.0126,-4.2169 4.2179,-4.5734 3.2469,-5.6371 -0.879,-0.9629 -1.4454,-1.0409 -3.7258,-0.5132 -1.4791,0.3424 -6.1391,0.8086 -10.3555,1.0362 l -7.6663,0.4138 5.6646,4.6009 c 3.3146,2.6922 6.2637,4.6009 7.1086,4.6009 0.9604,0 2.8789,-1.5078 5.7275,-4.5015 z m -30.3734,-9.2096 c 0,-0.2114 -0.6926,-1.2004 -1.5391,-2.1977 -0.8465,-0.9974 -1.6562,-2.1617 -1.7994,-2.5875 -0.2031,-0.6042 -0.9164,-0.592 -3.2502,0.056 -1.6445,0.4565 -2.8158,1.1092 -2.6031,1.4505 0.9701,1.5561 9.1918,4.4889 9.1918,3.2789 z m 72.0608,125.4776 c -0.1918,-0.3077 -0.5274,-12.9443 -0.7458,-28.0815 -0.4613,-31.9738 0.028,-29.5565 -7.6952,-38.039 -4.6105,-5.064 -5.0877,-5.4038 -8.9789,-6.3937 -5.4799,-14.7791 -32.1961,-19.809 -15.3493,-35.4201 2.2968,-2.1865 5.5573,-4.5017 7.7258,-5.486 4.4145,-2.0036 10.8543,-2.6661 15.4835,-1.5929 19.2687,19.5805 48.3627,26.9177 52.9881,42.6498 -4.2543,0.2558 -9.7273,0.9635 -12.1624,1.5726 -4.7877,1.1976 -7.8782,1.3614 -12.5192,0.6636 -2.9481,-0.4433 -3.0062,-0.4164 -7.5923,3.5065 l -4.6215,3.9531 0.3909,2.8274 c 0.215,1.555 0.3909,5.0721 0.3909,7.8156 0,4.0564 0.1831,4.9883 0.9802,4.9883 1.6185,0 1.7768,1.6665 0.6077,6.3963 -1.1607,4.6954 -1.1542,5.0076 0.7234,35.012 l 0.3873,6.1875 -4.8322,0 c -2.6578,0 -4.9892,-0.2518 -5.181,-0.5595 z m 1.0541,-66.3483 c 2.3242,-1.202 7.5423,-5.5563 7.2399,-6.0414 -0.3902,-0.626 -15.5921,-0.7211 -15.9793,-0.1 -0.3938,0.6317 5.4297,7.052 6.3908,7.0458 0.3341,0 1.391,-0.4091 2.3486,-0.9044 l 0,0 z"
       style="fill:#000000"
       inkscape:connector-curvature="0" />
    <path
       sodipodi:nodetypes="ccccscccccccccccc"
       id="path11140"
       d="m 502.4315,1227.6111 c -7.0047,6.8781 -12.2384,14.1951 -1.6727,25.4279 9.0544,5.1219 17.3113,5.4995 25.6488,6.357 l 6.691,-2.2111 c 0.2229,2.3953 0.751,4.7907 3.9031,7.1861 1.8841,1.4318 7.8489,2.1084 12.2668,3.0403 9.9722,0.1924 15.2149,-0.9549 20.073,-2.2111 l 6.1334,4.975 c 6.5051,0.2175 13.0103,-0.035 19.5154,-0.5528 3.4209,-1.6844 6.9935,-3.1432 7.5274,-9.1208 5.5826,-1.928 12.4768,-2.5557 15.3335,-7.1862 4.2511,-5.9281 1.1679,-10.7376 -4.1819,-15.2014 -5.7792,-3.374 -12.0782,-5.7174 -20.073,-4.6987 -1.2957,-5.789 -0.2478,-16.8412 -15.3335,-12.4375 -6.7618,-7.6884 -11.7184,-8.1397 -18.4002,-7.4625 -12.3482,-0.7602 -21.8492,2.5121 -28.9943,9.1208 -9.479,1.4458 -18.9579,0.9122 -28.4368,4.975 z"
       style="fill:#3aa253;fill-opacity:1;stroke:#3ba353;stroke-width:1.11333704px;stroke-linecap:butt;stroke-linejoin:miter;stroke-opacity:1"
       inkscape:connector-curvature="0" />
    <path
       sodipodi:nodetypes="ccccsccccccc"
       id="path11142"
       d="m 570.1779,1284.2711 c -5.8254,7.5345 -3.6414,13.7455 3.903,19.0709 2.4649,8.3944 10.9866,9.9265 18.4003,12.7139 7.8991,-1.7317 15.7982,-1.4845 23.6973,-0.2764 4.4409,-1.1009 11.8908,3.7179 18.1214,3.0403 5.5774,-0.6065 16.5753,-2.9314 25.9276,-3.8694 9.0651,-4.5311 13.4586,-9.9444 6.9698,-17.4126 -1.3251,-2.8417 -7.4973,-2.8002 -12.2668,-3.5931 -2.5658,-6.2548 4.9368,-12.9255 -13.6608,-18.5181 -6.8962,-1.9605 -16.8986,-1.7214 -28.9943,0 -8.0548,-0.8567 -15.5395,-3.9741 -24.2549,-2.2111 -5.9475,0.9535 -11.8951,6.6817 -17.8426,11.0556 z"
       style="fill:#3aa253;fill-opacity:1;stroke:#3da354;stroke-width:1.11333704px;stroke-linecap:butt;stroke-linejoin:miter;stroke-opacity:1"
       inkscape:connector-curvature="0" />
    <path
       sodipodi:nodetypes="cc"
       id="path11144"
       d="m 491.3205,1360.6916 54.8036,-0.012"
       style="fill:#0060a8;fill-opacity:1;stroke:#0060a8;stroke-width:3.45134449;stroke-linecap:butt;stroke-linejoin:miter;stroke-miterlimit:4;stroke-opacity:1;stroke-dasharray:none"
       inkscape:connector-curvature="0" />
    <path
       sodipodi:nodetypes="cc"
       style="fill:#0060a8;fill-opacity:1;stroke:#0060a8;stroke-width:3.45134449;stroke-linecap:butt;stroke-linejoin:miter;stroke-miterlimit:4;stroke-opacity:1;stroke-dasharray:none"
       d="m 491.3205,1369.5599 55.0007,0"
       id="path11146"
       inkscape:connector-curvature="0" />
    <path
       sodipodi:nodetypes="cc"
       id="path11148"
       d="m 491.3205,1377.7746 55.1282,0.012"
       style="fill:#0060a8;fill-opacity:1;stroke:#0060a8;stroke-width:3.45134449;stroke-linecap:butt;stroke-linejoin:miter;stroke-miterlimit:4;stroke-opacity:1;stroke-dasharray:none"
       inkscape:connector-curvature="0" />
    <path
       sodipodi:nodetypes="cc"
       style="fill:#0060a8;fill-opacity:1;stroke:#0060a8;stroke-width:3.45134449;stroke-linecap:butt;stroke-linejoin:miter;stroke-miterlimit:4;stroke-opacity:1;stroke-dasharray:none"
       d="m 491.3205,1386.6428 55.1979,0"
       id="path11150"
       inkscape:connector-curvature="0" />
    <path
       style="fill:#0060a8;fill-opacity:1;stroke:#0060a8;stroke-width:3.44825649;stroke-linecap:butt;stroke-linejoin:miter;stroke-miterlimit:4;stroke-opacity:1;stroke-dasharray:none"
       d="m 561.3421,1360.6932 43.4459,-0.015"
       id="path11152"
       sodipodi:nodetypes="cc"
       inkscape:connector-curvature="0" />
    <path
       sodipodi:nodetypes="cc"
       id="path11154"
       d="m 561.3421,1360.6932 43.4459,-0.015"
       style="fill:#0060a8;fill-opacity:1;stroke:#0060a8;stroke-width:3.44825649;stroke-linecap:butt;stroke-linejoin:miter;stroke-miterlimit:4;stroke-opacity:1;stroke-dasharray:none"
       inkscape:connector-curvature="0" />
    <path
       id="path11156"
       d="m 560.9913,1369.4908 44.7725,0"
       style="fill:#0060a8;fill-opacity:1;stroke:#0060a8;stroke-width:3.11393571;stroke-linecap:butt;stroke-linejoin:miter;stroke-miterlimit:4;stroke-opacity:1;stroke-dasharray:none"
       sodipodi:nodetypes="cc"
       inkscape:connector-curvature="0" />
    <path
       style="fill:#0060a8;fill-opacity:1;stroke:#0060a8;stroke-width:3.44855857;stroke-linecap:butt;stroke-linejoin:miter;stroke-miterlimit:4;stroke-opacity:1;stroke-dasharray:none"
       d="m 560.9937,1377.7732 44.6066,0.015"
       id="path11158"
       sodipodi:nodetypes="cc"
       inkscape:connector-curvature="0" />
    <path
       id="path11160"
       d="m 560.6042,1386.6428 44.9675,0"
       style="fill:#0060a8;fill-opacity:1;stroke:#0060a8;stroke-width:3.11513114;stroke-linecap:butt;stroke-linejoin:miter;stroke-miterlimit:4;stroke-opacity:1;stroke-dasharray:none"
       sodipodi:nodetypes="cc"
       inkscape:connector-curvature="0" />
    <path
       style="fill:#0060a8;fill-opacity:1;stroke:#0060a8;stroke-width:3.4514544;stroke-linecap:butt;stroke-linejoin:miter;stroke-miterlimit:4;stroke-opacity:1;stroke-dasharray:none"
       d="m 617.6003,1360.6916 55.2914,-0.012"
       id="path11162"
       sodipodi:nodetypes="cc"
       inkscape:connector-curvature="0" />
    <path
       sodipodi:nodetypes="cc"
       style="fill:#0060a8;fill-opacity:1;stroke:#0060a8;stroke-width:3.43700194;stroke-linecap:butt;stroke-linejoin:miter;stroke-miterlimit:4;stroke-opacity:1;stroke-dasharray:none"
       d="m 618.2923,1369.4908 54.5446,0"
       id="path11164"
       inkscape:connector-curvature="0" />
    <path
       sodipodi:nodetypes="cc"
       id="path11166"
       d="m 618.8607,1377.7744 54.0133,0.012"
       style="fill:#0060a8;fill-opacity:1;stroke:#0060a8;stroke-width:3.45109987;stroke-linecap:butt;stroke-linejoin:miter;stroke-miterlimit:4;stroke-opacity:1;stroke-dasharray:none"
       inkscape:connector-curvature="0" />
    <path
       sodipodi:nodetypes="cc"
       style="fill:#0060a8;fill-opacity:1;stroke:#0060a8;stroke-width:3.39176059;stroke-linecap:butt;stroke-linejoin:miter;stroke-miterlimit:4;stroke-opacity:1;stroke-dasharray:none"
       d="m 619.6024,1386.6428 53.3085,0"
       id="path11168"
       inkscape:connector-curvature="0" />
    <path
       id="path11170"
       d="m 491.0904,1345.4069 0,-8.4645 28.3525,0 28.3524,0 -0.1535,1.7793 c -0.4951,5.7377 -0.5874,7.4249 -0.6331,11.5738 l -0.039,3.5758 -27.9394,0 -27.9394,0 0,-8.4644 z"
       style="fill:#0060a8;fill-opacity:1;stroke:#0060a8;stroke-width:0.21513078;stroke-linecap:butt;stroke-linejoin:round;stroke-miterlimit:4;stroke-opacity:1;stroke-dasharray:none;stroke-dashoffset:0"
       inkscape:connector-curvature="0" />
    <path
       id="path11172"
       d="m 561.6322,1353.4049 c 0.019,-0.2565 0.104,-4.0033 0.1889,-8.3263 l 0.1544,-7.8598 1.0139,3e-4 c 1.2833,4e-4 35.2756,-0.2615 38.6681,-0.2979 l 2.5266,-0.027 0,8.4886 0,8.4886 -21.2932,0 -21.2932,0 0.035,-0.4664 z"
       style="fill:#0060a8;fill-opacity:1;stroke:#0060a8;stroke-width:0.21513078;stroke-linecap:butt;stroke-linejoin:round;stroke-miterlimit:4;stroke-opacity:1;stroke-dasharray:none;stroke-dashoffset:0"
       inkscape:connector-curvature="0" />
    <path
       sodipodi:nodetypes="cssssccccccccc"
       id="path11174"
       d="m 617.6125,1353.837 c 0.6462,-0.9165 0.019,-0.7464 0.1416,-1.6002 0.147,-1.0227 0.9148,-5.2979 1.6781,-9.3439 0.2895,-1.5347 0.5263,-2.815 0.5263,-2.8453 0,-0.03 -0.6508,-0.065 -1.4462,-0.077 -2.1181,-0.033 -2.1287,-0.042 -2.1661,-1.8706 l -0.024,-1.1574 28.2684,0 28.2683,0 0,8.4645 0,8.4644 -19.3585,-0.012 c -10.6473,-0.01 -21.7719,0.1038 -24.5511,0.076 -3.1917,0.083 -6.9554,-0.08 -11.3371,-0.098 z"
       style="fill:#0060a8;fill-opacity:1;stroke:#0060a8;stroke-width:0.21513078;stroke-linecap:butt;stroke-linejoin:round;stroke-miterlimit:4;stroke-opacity:1;stroke-dasharray:none;stroke-dashoffset:0"
       inkscape:connector-curvature="0" />
    <path
       style="fill:#784421;fill-opacity:1;stroke:none"
       d="m 380,1102.3542 0,-399.99222 1120.0789,0 c 23.4037,0 44.883,5.105 69.0791,18.3478 l 300.3949,164.0444 c 6.8933,3.9499 10.4471,10.2359 10.4471,17.4528 0,7.3739 -3.406,13.5119 -10.1461,17.5858 L 1567.97,1084.7684 c -20.5795,11.2789 -43.942,17.5938 -67.9538,17.5938 z"
       id="path5732"
       inkscape:connector-curvature="0"
       sodipodi:nodetypes="cccccccccc" />
    <path
       style="fill:#ffffff;fill-opacity:1;stroke:none"
       d="m 470.0569,1092.3612 c -44.1852,0 -80.0738,-35.7 -80.0737,-80.0642 l -1e-4,-220.01302 c 0,-45.259 36.9616,-79.933 80.0682,-79.933 l 1029.9176,0 c 23.9261,0 43.4222,5.576 63.9062,16.883 l 301.0002,164.375 c 3.2602,1.863 4.8197,4.938 5.0874,8.153 0.196,3.995 -1.8549,7.408 -5.1267,9.303 l -302.6484,165.35722 c -18.396,9.995 -39.3411,15.994 -62.2629,15.994 z"
       id="path5734"
       inkscape:connector-curvature="0"
       sodipodi:nodetypes="cccccccccccc" />
    <path
       style="fill:#784421;fill-opacity:1;stroke:none"
       d="m 1581.3438,761.06798 c -35.8852,-35.885 -81.2866,-33.709 -81.2866,-33.709 l -1029.9945,0 c -35.117,0 -65.0625,28.235 -65.0625,64.934 l -1e-4,220.00402 c 1e-4,35.963 28.8688,65.0602 65.0568,65.0602 l 1030.0092,0 c 0,0 44.0854,3.48 81.2998,-33.7342 L 1722.634,902.35498 z"
       id="path5736"
       inkscape:connector-curvature="0"
       sodipodi:nodetypes="cccccsccc" />
    <g
       style="font-size:142.24691772px;font-style:normal;font-weight:normal;line-height:125%;letter-spacing:0px;word-spacing:0px;fill:#ffffff;fill-opacity:1;stroke:none;font-family:Sans"
       id="text9489">
      <path
         d="m 785.83712,953.64256 c -8.25089,0 -15.6943,-2.79707 -22.33027,-8.39122 -8.25086,-6.92248 -12.37628,-16.54798 -12.37628,-28.87654 0,-12.61209 4.21947,-22.3794 12.65845,-29.30196 6.54336,-5.40596 13.89271,-8.10897 22.0481,-8.10905 9.10454,8e-5 16.92852,2.79715 23.47195,8.39122 4.83585,4.17324 8.15528,8.91509 9.95833,14.22556 l -17.4987,6.11651 c -2.74937,-7.87168 -8.01214,-11.80754 -15.78833,-11.80761 -3.51048,7e-5 -6.68811,1.09111 -9.5329,3.27314 -4.36132,3.50761 -6.54196,9.19725 -6.54194,17.06894 -2e-5,8.7255 2.46568,14.74796 7.39712,18.06737 2.46567,1.8001 5.31049,2.70014 8.53447,2.70012 8.43891,2e-5 13.84494,-4.21946 16.21809,-12.65845 l 17.21219,6.25977 c -2.27766,7.30164 -6.68815,13.03758 -13.23146,17.20785 -5.97332,3.88957 -12.70625,5.83435 -20.19882,5.83435 z"
         style="font-variant:normal;font-stretch:normal;fill:#ffffff;font-family:CodiceBianco;-inkscape-font-specification:CodiceBianco"
         id="path11204" />
      <path
         d="m 863.23771,878.96379 c 7.39417,8e-5 13.84205,1.51655 19.34363,4.5494 6.54332,3.69863 9.81501,8.86735 9.81507,15.50617 l 0,28.30786 c -6e-5,3.79409 0.18949,6.11799 0.56868,6.9717 0.85367,2.37022 3.17756,3.55532 6.9717,3.5553 l -6.82845,15.78834 c -2.37027,-0.0955 -4.55236,-0.38056 -6.54627,-0.85519 -4.83597,-1.13734 -8.48677,-3.22248 -10.95242,-6.25542 -5.21508,4.74041 -12.46893,7.11061 -21.76159,7.11061 -6.44791,0 -12.06664,-2.22839 -16.85623,-6.68519 -4.78961,-4.45678 -7.13666,-9.43594 -7.04115,-14.93749 0.1881,-13.46584 8.67481,-21.43163 25.46015,-23.89738 l 16.50026,-2.41795 c 0.28646,-3.69851 -0.66133,-6.30602 -2.84338,-7.82254 -1.89563,-1.13729 -5.02551,-1.70597 -9.38965,-1.70603 -6.92253,6e-5 -13.4659,2.60757 -19.63014,7.82254 l -9.52857,-13.93905 c 8.53446,-7.39704 19.44056,-11.0956 32.71836,-11.09568 z m -6.68953,44.23945 c -4.93144,0.85377 -7.39715,3.27173 -7.39712,7.25387 -3e-5,2.08661 1.09102,3.72246 3.27314,4.90753 2.18206,1.18513 4.74326,1.77768 7.68362,1.77766 3.0329,2e-5 5.68744,-0.56938 7.96363,-1.7082 2.2761,-1.13877 3.60373,-2.75002 3.98289,-4.83374 l 0,-9.95832 z"
         style="font-variant:normal;font-stretch:normal;fill:#ffffff;font-family:CodiceBianco;-inkscape-font-specification:CodiceBianco"
         id="path11206" />
      <path
         d="m 1018.2342,900.72538 0,51.49332 -20.48529,0 0,-45.0903 c -10e-5,-3.603 -1.1143,-6.40079 -3.3426,-8.39338 -2.22848,-1.99247 -4.9069,-2.98874 -8.03525,-2.9888 -3.13141,6e-5 -5.78667,0.9493 -7.96579,2.84772 -2.46578,2.17925 -3.69863,5.07182 -3.69856,8.67772 l 0,44.94704 -20.19882,0 0,-44.80813 c -5e-5,-3.5075 -1.18515,-6.30457 -3.5553,-8.39121 -2.08664,-1.80292 -4.64784,-2.7044 -7.68363,-2.70446 -3.03297,6e-5 -5.59273,0.90154 -7.67928,2.70446 -2.37313,1.99114 -3.55968,4.6464 -3.55965,7.96579 l 0,45.23355 -19.63014,0 0,-71.9743 18.21062,0 2.13145,4.12398 c 1.13732,-1.7074 3.20003,-3.20144 6.18814,-4.48212 2.98804,-1.28052 6.2836,-1.92082 9.8867,-1.9209 7.39706,8e-5 14.08225,2.89265 20.05556,8.67772 6.07159,-6.16419 13.32689,-9.24632 21.76594,-9.2464 7.30152,8e-5 13.7262,2.25235 19.2742,6.75682 5.5477,4.50461 8.3216,10.02857 8.3217,16.57188 z"
         style="font-variant:normal;font-stretch:normal;fill:#ffffff;font-family:CodiceBianco;-inkscape-font-specification:CodiceBianco"
         id="path11208" />
      <path
         d="m 1107.4772,916.08829 c -10e-5,12.61218 -3.7942,22.37949 -11.3822,29.30197 -6.448,5.88065 -14.366,8.82097 -23.7541,8.82097 -6.9226,0 -12.8495,-1.65971 -17.7809,-4.97916 l 0,24.46605 -20.4853,0 0,-93.88349 17.9241,0 2.1358,4.12833 c 4.1702,-3.98499 10.0972,-5.97752 17.7808,-5.9776 9.2927,8e-5 17.2585,2.9404 23.8974,8.82097 7.7762,6.92256 11.6643,16.68987 11.6644,29.30196 z m -19.7734,0.56868 c -10e-5,-6.92245 -1.8494,-12.32703 -5.5479,-16.21375 -3.3195,-3.41489 -7.3494,-5.12236 -12.0897,-5.12242 -4.2688,6e-5 -7.9196,1.37472 -10.9525,4.12398 -3.2268,3.03588 -4.8402,7.0195 -4.8402,11.95086 l 0,8.10905 c 0,5.40317 1.8029,9.8122 5.4089,13.22712 3.2239,3.22396 7.112,4.83593 11.6644,4.83591 4.5493,2e-5 8.2942,-1.6597 11.2346,-4.97917 3.4148,-3.79113 5.1223,-9.10166 5.1224,-15.93158 z"
         style="font-variant:normal;font-stretch:normal;fill:#ffffff;font-family:CodiceBianco;-inkscape-font-specification:CodiceBianco"
         id="path11210" />
      <path
         d="m 1130.7277,851.2246 c 3.1313,1.1e-4 5.9291,1.13818 8.3934,3.41422 2.4642,2.27625 3.6964,5.1681 3.6964,8.67555 0,2.94042 -1.1851,5.54865 -3.5553,7.82471 -2.3702,2.27624 -5.1195,3.41431 -8.248,3.41422 -3.1313,9e-5 -5.9059,-1.09023 -8.3239,-3.27096 -2.4179,-2.18056 -3.6269,-4.9306 -3.6269,-8.25013 0,-3.41485 1.1619,-6.23652 3.4858,-8.46501 2.3239,-2.22829 5.0501,-3.34249 8.1785,-3.3426 z m -9.815,28.87654 20.4853,0 0,72.11756 -20.4853,0 z"
         style="font-variant:normal;font-stretch:normal;fill:#ffffff;font-family:CodiceBianco;-inkscape-font-specification:CodiceBianco"
         id="path11212" />
      <path
         d="m 1225.9526,906.12997 0,46.23198 -20.7675,0 0,-41.82149 c -0.3792,-3.88662 -1.9202,-6.94415 -4.6232,-9.1726 -2.7031,-2.22834 -5.7606,-3.34254 -9.1726,-3.3426 -3.415,6e-5 -6.2598,1.04335 -8.5345,3.12989 -2.5612,2.27475 -3.8418,5.40318 -3.8418,9.38531 l 0,41.67824 -20.4853,0 0,-71.83539 17.7809,0 2.1357,3.98507 c 5.215,-4.0776 11.5211,-6.11644 18.9183,-6.11652 7.7761,8e-5 14.3195,2.27623 19.6301,6.82845 5.9732,5.11959 8.9598,12.13613 8.9599,21.04966 z"
         style="font-variant:normal;font-stretch:normal;fill:#ffffff;font-family:CodiceBianco;-inkscape-font-specification:CodiceBianco"
         id="path11214" />
      <path
         d="m 1272.8661,878.25186 c 6.7343,8e-5 12.1404,1.89711 16.2181,5.6911 0.3791,-0.94917 0.9,-2.22977 1.5628,-3.84182 l 18.9182,0 0,68.84876 c -10e-5,5.78226 -2.6076,11.28234 -7.8226,16.50026 -6.5434,6.73148 -15.4107,10.09722 -26.6018,10.09724 -5.5942,-2e-5 -12.0898,-0.94781 -19.4869,-2.84337 -6.9225,-1.80299 -12.1375,-3.74777 -15.6451,-5.83435 l 8.248,-15.78833 c 9.6747,4.7433 17.9255,7.11495 24.7526,7.11495 4.3612,0 7.9643,-0.71193 10.8091,-2.13579 3.4149,-1.80297 5.1224,-4.41048 5.1224,-7.82254 l 0,-5.12242 c -4.9314,2.74934 -10.4315,4.124 -16.5002,4.12398 -8.9136,2e-5 -16.548,-2.79705 -22.9033,-8.39121 -7.1106,-6.25974 -10.6659,-14.60464 -10.6659,-25.03473 0,-10.621 3.3657,-19.25096 10.0972,-25.88991 6.4479,-6.4478 14.4137,-9.67174 23.8974,-9.67182 z m -14.651,35.8439 c 0,5.50157 1.8015,9.67475 5.4046,12.51953 2.8448,2.37024 6.3538,3.55534 10.527,3.55531 3.6985,3e-5 7.1598,-1.42238 10.3838,-4.26723 3.2238,-2.84479 4.8358,-6.16423 4.8359,-9.95833 l 0,-6.25543 c -1e-4,-3.98501 -1.5412,-7.3522 -4.6232,-10.10158 -3.0822,-2.74926 -6.7084,-4.12391 -10.8787,-4.12398 -4.3642,7e-5 -7.9209,1.32697 -10.6702,3.98073 -3.3195,3.3195 -4.9792,8.20315 -4.9792,14.65098 z"
         style="font-variant:normal;font-stretch:normal;fill:#ffffff;font-family:CodiceBianco;-inkscape-font-specification:CodiceBianco"
         id="path11216" />
    </g>
    <g
       style="font-size:106.68518829px;font-style:normal;font-weight:normal;line-height:125%;letter-spacing:0px;word-spacing:0px;fill:#ffffff;fill-opacity:1;stroke:none;font-family:Sans"
       id="text10494">
      <path
         d="m 1454.902,875.33667 c 7.6098,9e-5 13.9748,1.9199 19.0951,5.75947 5.8321,4.2673 8.7482,10.13529 8.7483,17.60397 -10e-5,3.05831 -0.9247,6.08075 -2.774,9.06732 -2.062,3.05831 -4.5158,5.01394 -7.3613,5.86691 3.6985,0.85305 6.5799,3.02248 8.6441,6.50829 1.7776,2.98666 2.6664,6.25871 2.6665,9.81616 -10e-5,6.96954 -2.5602,12.69427 -7.6804,17.1742 -5.4068,4.69483 -12.5195,7.04224 -21.3383,7.04224 -9.3181,0 -16.6794,-2.34741 -22.0839,-7.04224 -5.1919,-4.4083 -7.7878,-10.13303 -7.7878,-17.1742 0,-3.91124 0.8888,-7.32546 2.6664,-10.24267 2.1337,-3.34255 5.1214,-5.36981 8.9632,-6.08178 -3.3448,-1.13731 -5.8702,-3.1993 -7.5762,-6.18597 -1.5649,-2.56116 -2.3474,-5.47724 -2.3474,-8.74826 0,-7.60977 2.8803,-13.51356 8.6408,-17.71141 5.1224,-3.76794 11.6307,-5.65194 19.5249,-5.65203 z m -12.1636,23.25599 c 0,2.63073 1.1737,4.71062 3.5211,6.23969 2.3474,1.52918 5.1566,2.29375 8.4276,2.2937 3.4858,5e-5 6.2956,-0.79979 8.4292,-2.39951 2.1336,-1.59961 3.2004,-3.64424 3.2004,-6.13388 0,-3.05819 -1.0668,-5.38769 -3.2004,-6.98851 -2.1336,-1.60069 -4.9434,-2.40107 -8.4292,-2.40114 -3.3426,7e-5 -6.1165,0.78254 -8.3217,2.34742 -2.418,1.70826 -3.627,4.05567 -3.627,7.04223 z m -1.2795,31.36613 c 0,3.05828 1.1916,5.44096 3.5748,7.14805 2.3832,1.70713 5.601,2.56068 9.6534,2.56066 8.3934,2e-5 12.59,-3.12986 12.5901,-9.38965 -10e-5,-6.54407 -4.2315,-9.81612 -12.6943,-9.81615 -8.7493,3e-5 -13.124,3.16573 -13.124,9.49709 z"
         style="font-variant:normal;font-stretch:normal;fill:#ffffff;font-family:CodiceBianco;-inkscape-font-specification:CodiceBianco"
         id="path11180" />
    </g>
    <rect
       ry="24.788021"
       rx="24.788021"
       y="795.11218"
       x="472.74997"
       height="214.5"
       width="214.5"
       id="rect10784"
       style="fill:#ffffff;fill-opacity:1;stroke:#ffffff;stroke-width:5.50000000000000000;stroke-linejoin:miter;stroke-miterlimit:4;stroke-opacity:1;stroke-dasharray:none" />
    <path
       transform="matrix(0.72937658,0,0,0.7450061,564.1861,898.29188)"
       d="m 52.515827,99.43145 a 10.637058,10.413903 0 1 1 -21.274116,0 10.637058,10.413903 0 1 1 21.274116,0 z"
       sodipodi:ry="10.413903"
       sodipodi:rx="10.637058"
       sodipodi:cy="99.43145"
       sodipodi:cx="41.878769"
       id="path4445"
       style="fill:none;stroke:#000000;stroke-width:7.31997633;stroke-miterlimit:4;stroke-opacity:1;stroke-dasharray:none"
       sodipodi:type="arc" />
    <path
       style="fill:#000000"
       d="m 510.4255,968.62358 0,-1.8813 8.429,0 c 4.6359,0 8.5621,-0.2155 8.7249,-0.4788 0.2557,-0.4137 -0.1831,-4.8127 -1.7816,-17.8643 l -0.3648,-2.9787 9.4283,0 9.4283,0 0,10.6768 0,10.6768 9.877,-0.1727 9.877,-0.1727 0.172,-10.5041 0.1719,-10.5041 36.4072,0 36.4072,0 -0.3345,1.7245 c -0.184,0.9485 -0.9516,6.4514 -1.7058,12.2287 l -1.3712,10.5042 -12.3548,0 -12.3549,0 -1.8334,-3.5851 c -2.3166,-4.5296 -6.1988,-7.1558 -11.1902,-7.5697 -6.3149,-0.5237 -13.2045,4.21 -14.4623,9.9368 l -0.4052,1.8451 -35.3821,0 -35.382,0 0,-1.8814 z m 18.1443,-41.8598 3.5693,-14.2668 51.2274,-0.1604 c 28.175,-0.088 51.2315,0.053 51.2366,0.3135 0.01,0.2607 0.5653,6.5414 1.2449,13.957 0.6797,7.4156 1.2399,13.6945 1.245,13.9532 0.01,0.2587 -16.3584,0.4704 -36.3633,0.4704 l -36.3725,0 0,-12.2287 0,-12.2287 -10.0338,0 -10.0338,0 0,12.2287 0,12.2287 -9.6445,0 -9.6446,0 3.5693,-14.2669 z m 103.2773,5.6441 c -0.1988,-1.9833 -0.5423,-6.3574 -0.7633,-9.7203 l -0.4018,-6.1143 -18.4253,0 -18.4252,0 0,9.7202 0,9.7203 19.1885,0 19.1885,0 -0.3614,-3.6059 z m -98.2185,-41.2609 c 0,-0.724 48.4616,-56.1441 48.9419,-55.9694 0.5593,0.2033 48.2606,55.5879 48.2606,56.0339 0,0.1525 -5.3278,0.2772 -11.8396,0.2772 l -11.8397,0 -12.3964,-14.5224 -12.3965,-14.5224 -1.6323,1.9694 c -0.8977,1.0831 -6.4297,7.6013 -12.2932,14.485 l -10.6609,12.5158 -12.0719,0.037 c -6.6396,0.021 -12.072,-0.1164 -12.072,-0.3044 z m 43.6497,-66.2938 -4.9517,-5.7959 2.1211,-0.2076 c 1.883,-0.1842 2.4528,0.1678 5.0761,3.1356 l 2.955,3.3431 2.903,-3.2923 c 2.4661,-2.7969 3.2347,-3.2924 5.1076,-3.2924 l 2.2046,0 -2.5222,2.9788 c -1.3872,1.6384 -3.7417,4.317 -5.2321,5.9527 l -2.7098,2.9738 -4.9516,-5.7958 z"
       id="path4466"
       sodipodi:nodetypes="cccsccccccccccccccccccsccccccccsssccccccccccccccccccccccssccccccccccccccccccccc"
       inkscape:connector-curvature="0" />
    <rect
       style="fill:#ffffff;fill-opacity:1;stroke:#000000;stroke-width:0.99999994;stroke-miterlimit:4;stroke-opacity:1;stroke-dasharray:none"
       id="rect6224"
       width="1249"
       height="249"
       x="380.5"
       y="-247.13789" />
    <rect
       y="-17.637871"
       x="380"
       height="20"
       width="1250"
       id="rect6226"
       style="fill:#000000;fill-opacity:1;stroke-width:22.5;stroke-miterlimit:4;stroke-dasharray:none" />
    <path
       id="path6228"
       style="fill:#000000;fill-opacity:1;fill-rule:evenodd;stroke-width:3.53692007"
       d="m 499.9993,-42.638444 -17.704,0 0,-109.560996 -72.295,72.767996 0,-52.368996 89.999,-90.83801 90.001,90.83801 0,52.368996 -72.295,-72.767996 0,109.560996 z"
       inkscape:connector-curvature="0" />
    <g
       style="font-size:114.11954498px;font-style:normal;font-weight:normal;line-height:125%;letter-spacing:0px;word-spacing:0px;fill:#000000;fill-opacity:1;stroke:none;font-family:Sans"
       id="text6264">
      <path
         d="m 869.8561,-147.87273 c 1.29318,0.45745 2.8151,1.52314 4.56576,3.19708 2.89055,2.81403 4.33584,6.00878 4.3359,9.58425 l 0,26.59005 c -6e-5,1.36987 0.87525,2.24517 2.62592,2.62592 0.15318,0.0743 1.37094,0.18808 3.6533,0.3413 -0.68498,1.97817 -2.66313,6.656523 -5.93444,14.035092 -5.93449,3e-6 -10.91816,-1.672829 -14.95102,-5.018502 -5.32617,3.498909 -10.65231,5.24836 -15.97841,5.248357 -5.55369,3e-6 -10.44159,-1.787757 -14.66371,-5.363285 -4.22214,-3.575512 -6.3332,-8.026332 -6.3332,-13.352492 0,-8.82501 5.43989,-14.91151 16.31971,-18.25954 4.03288,-0.60826 9.51109,-1.55903 16.43463,-2.85229 -3e-5,-3.34795 -2.13025,-5.02194 -6.39066,-5.02199 -4.26047,5e-5 -8.33169,1.10289 -12.21366,3.30852 -0.22756,0.15328 -1.82493,1.37105 -4.79213,3.6533 l -8.67181,-13.12263 c 0.15091,-0.38071 1.29206,-1.21771 3.42345,-2.51099 2.58644,-1.67394 5.47704,-3.19586 8.6718,-4.56576 3.80536,-1.67393 8.29449,-2.51093 13.46742,-2.51099 5.9344,6e-5 11.41145,1.3316 16.43115,3.9946 z m -24.42035,37.09025 c 0.0766,1.21662 0.87528,2.24284 2.39606,3.07866 1.2932,0.76156 2.62473,1.14233 3.9946,1.14231 2.13135,2e-5 3.95742,-0.47536 5.47821,-1.42614 1.52073,-0.95075 2.47149,-2.03443 2.8523,-3.25106 l 0,-5.823 c -3.19479,0.61066 -6.38954,1.22012 -9.58426,1.8284 -3.50125,0.75924 -5.21356,2.24285 -5.13691,4.45083 z"
         style="font-variant:normal;font-stretch:normal;text-align:start;word-spacing:-30px;text-anchor:start;fill:#000000;font-family:CodiceNero;-inkscape-font-specification:CodiceNero"
         id="path11279" />
      <path
         d="m 934.77971,-132.9217 c -1.67404,-0.45735 -3.34804,-0.68604 -5.02199,-0.68609 -3.87971,5e-5 -7.07446,1.02743 -9.58426,3.08215 -2.81633,2.20572 -4.22448,5.32501 -4.22445,9.35789 l 0,28.529884 -18.48592,0 0,-57.972224 18.71577,0 0,3.64982 c 1.67397,-0.98902 3.30965,-1.97809 4.90706,-2.96722 2.89056,-1.36978 5.93324,-2.0547 9.12803,-2.05477 1.52071,7e-5 3.04263,0.1533 4.56576,0.45971 z"
         style="font-variant:normal;font-stretch:normal;text-align:start;word-spacing:-30px;text-anchor:start;fill:#000000;font-family:CodiceNero;-inkscape-font-specification:CodiceNero"
         id="path11281" />
      <path
         d="m 971.35452,-151.86733 c 7.30424,6e-5 13.65659,2.58651 19.05707,7.75935 6.08762,5.78357 9.13145,13.392 9.13151,22.8253 -6e-5,1.21664 -0.19044,3.15647 -0.57115,5.81951 l -38.11763,0 c 1.75059,5.40278 5.63142,8.02753 11.64251,7.87428 4.71547,-0.1509 9.35552,-1.97697 13.92016,-5.47821 l 12.21366,11.9838 c -9.43572,6.542752 -18.2236,9.81412 -26.36368,9.814117 -7.68275,3e-6 -14.37757,-2.39606 -20.08445,-7.188194 -6.2386,-5.326123 -9.47166,-12.363393 -9.69919,-21.111833 0,-1.14228 0,-2.89289 0,-5.25184 0.0743,-5.78116 2.24166,-11.37314 6.50211,-16.77594 5.47936,-6.84683 12.93571,-10.27028 22.36908,-10.27034 z m -10.27034,22.59545 19.96952,0 c -0.4551,-2.12902 -1.59567,-3.93536 -3.4217,-5.41901 -1.82611,-1.48356 -3.99522,-2.26368 -6.50734,-2.34034 -2.58648,-0.0766 -4.83046,0.76042 -6.73196,2.51099 -1.5974,1.44651 -2.70024,3.19596 -3.30852,5.24836 z"
         style="font-variant:normal;font-stretch:normal;text-align:start;word-spacing:-30px;text-anchor:start;fill:#000000;font-family:CodiceNero;-inkscape-font-specification:CodiceNero"
         id="path11283" />
      <path
         d="m 1051.957,-147.87273 c 1.2932,0.45745 2.8151,1.52314 4.5658,3.19708 2.8905,2.81403 4.3358,6.00878 4.3359,9.58425 l 0,26.59005 c -10e-5,1.36987 0.8752,2.24517 2.6259,2.62592 0.1532,0.0743 1.3709,0.18808 3.6533,0.3413 -0.685,1.97817 -2.6631,6.656523 -5.9344,14.035092 -5.9345,3e-6 -10.9182,-1.672829 -14.9511,-5.018502 -5.3261,3.498909 -10.6523,5.24836 -15.9784,5.248357 -5.5537,3e-6 -10.4416,-1.787757 -14.6637,-5.363285 -4.2221,-3.575512 -6.3332,-8.026332 -6.3332,-13.352492 0,-8.82501 5.4399,-14.91151 16.3197,-18.25954 4.0329,-0.60826 9.5111,-1.55903 16.4347,-2.85229 -10e-5,-3.34795 -2.1303,-5.02194 -6.3907,-5.02199 -4.2605,5e-5 -8.3317,1.10289 -12.2137,3.30852 -0.2275,0.15328 -1.8249,1.37105 -4.7921,3.6533 l -8.6718,-13.12263 c 0.1509,-0.38071 1.2921,-1.21771 3.4235,-2.51099 2.5864,-1.67394 5.477,-3.19586 8.6718,-4.56576 3.8053,-1.67393 8.2944,-2.51093 13.4674,-2.51099 5.9344,6e-5 11.4114,1.3316 16.4311,3.9946 z m -24.4203,37.09025 c 0.077,1.21662 0.8752,2.24284 2.396,3.07866 1.2932,0.76156 2.6248,1.14233 3.9946,1.14231 2.1314,2e-5 3.9575,-0.47536 5.4782,-1.42614 1.5208,-0.95075 2.4715,-2.03443 2.8523,-3.25106 l 0,-5.823 c -3.1948,0.61066 -6.3895,1.22012 -9.5842,1.8284 -3.5013,0.75924 -5.2136,2.24285 -5.1369,4.45083 z"
         style="font-variant:normal;font-stretch:normal;text-align:start;word-spacing:-30px;text-anchor:start;fill:#000000;font-family:CodiceNero;-inkscape-font-specification:CodiceNero"
         id="path11285" />
      <path
         d="m 1129.2262,-152.20863 c 9.8907,6e-5 17.3087,3.53727 22.2541,10.61164 3.9539,5.55372 5.9309,12.40177 5.931,20.54417 -10e-5,8.36767 -2.7955,15.57559 -8.3862,21.623783 -5.5909,6.048211 -12.4575,9.07231 -20.5999,9.072308 -3.4223,2e-6 -7.6828,-1.064527 -12.7813,-3.193592 l 0,18.600845 -19.172,0 0,-75.660614 16.3197,0.11144 c 0.8381,6e-5 1.238,0.41856 1.1997,1.2555 -0.038,0.83706 0.1329,1.33217 0.5137,1.48535 4.3347,-2.96716 9.2418,-4.45077 14.7212,-4.45083 z m -13.5823,27.38758 0,7.9892 c -10e-5,2.28232 1.1039,4.48916 3.312,6.62052 2.3565,2.43323 5.2471,3.64984 8.6718,3.64982 3.5754,2e-5 6.4283,-1.35009 8.5586,-4.05032 2.1301,-2.70019 3.1953,-6.29545 3.1953,-10.78578 0,-3.80302 -1.0268,-7.09296 -3.0804,-9.86983 -2.0536,-2.77679 -4.8311,-4.16521 -8.3322,-4.16526 -4.9454,5e-5 -8.4827,1.67405 -10.6117,5.02199 -1.1423,1.90157 -1.7135,3.76478 -1.7134,5.58966 z"
         style="font-variant:normal;font-stretch:normal;text-align:start;word-spacing:-30px;text-anchor:start;fill:#000000;font-family:CodiceNero;-inkscape-font-specification:CodiceNero"
         id="path11287" />
      <path
         d="m 1194.3344,-151.86733 c 7.3042,6e-5 13.6565,2.58651 19.057,7.75935 6.0876,5.78357 9.1315,13.392 9.1315,22.8253 0,1.21664 -0.1904,3.15647 -0.5711,5.81951 l -38.1176,0 c 1.7505,5.40278 5.6314,8.02753 11.6425,7.87428 4.7154,-0.1509 9.3555,-1.97697 13.9201,-5.47821 l 12.2137,11.9838 c -9.4357,6.542752 -18.2236,9.81412 -26.3637,9.814117 -7.6827,3e-6 -14.3776,-2.39606 -20.0844,-7.188194 -6.2386,-5.326123 -9.4717,-12.363393 -9.6992,-21.111833 0,-1.14228 0,-2.89289 0,-5.25184 0.074,-5.78116 2.2416,-11.37314 6.5021,-16.77594 5.4793,-6.84683 12.9357,-10.27028 22.3691,-10.27034 z m -10.2704,22.59545 19.9695,0 c -0.4551,-2.12902 -1.5956,-3.93536 -3.4217,-5.41901 -1.8261,-1.48356 -3.9952,-2.26368 -6.5073,-2.34034 -2.5865,-0.0766 -4.8305,0.76042 -6.732,2.51099 -1.5974,1.44651 -2.7002,3.19596 -3.3085,5.24836 z"
         style="font-variant:normal;font-stretch:normal;text-align:start;word-spacing:-30px;text-anchor:start;fill:#000000;font-family:CodiceNero;-inkscape-font-specification:CodiceNero"
         id="path11289" />
      <path
         d="m 1270.2597,-173.4354 18.2595,0 0,80.797534 -16.7759,0 c -0.2276,-0.684916 -0.6084,-1.635679 -1.1423,-2.852292 -4.8688,2.890606 -9.1676,4.335905 -12.8963,4.335902 -6.0854,3e-6 -11.6391,-1.864375 -16.661,-5.593139 -7.302,-5.326125 -10.953,-13.504545 -10.953,-24.535285 0,-8.90162 2.5865,-16.20531 7.7594,-21.91111 5.1729,-5.70568 11.7539,-8.55855 19.7431,-8.55861 2.814,6e-5 5.3238,0.4946 7.5295,1.48361 3.0438,1.44652 4.7561,2.2069 5.137,2.28113 z m -22.3691,53.97763 c 0,3.57555 0.9705,6.50504 2.9115,8.78847 1.9409,2.28348 4.7747,3.42521 8.5011,3.42519 2.8163,2e-5 5.3656,-0.9519 7.6479,-2.85577 2.0524,-1.67397 3.0787,-3.27135 3.0787,-4.79213 l 0,-12.55148 c 0,-2.13134 -1.0837,-4.07176 -3.2511,-5.82125 -2.1674,-1.74941 -4.6592,-2.62413 -7.4755,-2.62418 -3.1181,5e-5 -5.7429,1.02627 -7.8742,3.07866 -2.359,2.20805 -3.5384,5.29019 -3.5384,9.24644 z"
         style="font-variant:normal;font-stretch:normal;text-align:start;word-spacing:-30px;text-anchor:start;fill:#000000;font-family:CodiceNero;-inkscape-font-specification:CodiceNero"
         id="path11291" />
      <path
         d="m 1352.4398,-143.19204 c 5.2495,5.70463 7.8742,12.39944 7.8743,20.08445 -10e-5,9.96505 -3.2331,18.02971 -9.6992,24.193985 -5.6303,5.32382 -12.0593,7.985724 -19.2869,7.985721 -10.7266,3e-6 -19.0188,-4.14551 -24.8766,-12.436546 -2.0548,-2.96721 -3.4246,-5.4782 -4.1095,-7.53298 -0.9891,-2.73966 -1.4837,-6.46726 -1.4836,-11.1828 -1e-4,-9.73977 3.2713,-17.53858 9.8141,-23.39645 5.4793,-4.94531 12.2124,-7.41799 20.1993,-7.41805 8.37,6e-5 15.5593,3.23428 21.5681,9.70267 z m -33.8932,17.57346 0,6.27574 c 0,3.12048 1.2178,5.82186 3.6533,8.10413 2.4356,2.28232 5.2124,3.42347 8.3305,3.42345 3.1948,2e-5 5.9716,-1.14113 8.3306,-3.42345 2.3588,-2.28227 3.5383,-4.98365 3.5383,-8.10413 l 0,-6.27574 c 0,-3.27133 -1.2932,-6.00985 -3.8796,-8.21558 -2.359,-1.9781 -5.0221,-2.96717 -7.9893,-2.96722 -3.1181,5e-5 -5.8566,0.98912 -8.2155,2.96722 -2.5122,2.20573 -3.7683,4.94425 -3.7683,8.21558 z"
         style="font-variant:normal;font-stretch:normal;text-align:start;word-spacing:-30px;text-anchor:start;fill:#000000;font-family:CodiceNero;-inkscape-font-specification:CodiceNero"
         id="path11293" />
      <path
         d="m 1407.8976,-92.637866 0,-32.183184 c -10e-5,-2.81395 -0.7802,-5.17228 -2.3404,-7.07501 -1.5602,-1.90265 -3.7856,-2.85399 -6.6762,-2.85404 -3.1948,5e-5 -5.5908,1.10405 -7.1882,3.31201 -1.1423,1.67403 -1.7135,3.61387 -1.7135,5.81951 l 0,32.980714 -18.2595,0 0,-57.860784 16.0933,0 0.9125,3.53838 c 4.0305,-3.19469 9.3172,-4.79207 15.86,-4.79213 7.4575,6e-5 13.2015,2.89066 17.2321,8.6718 2.9672,4.2605 4.4508,8.55925 4.4509,12.89626 l 0,37.546474 z"
         style="font-variant:normal;font-stretch:normal;text-align:start;word-spacing:-30px;text-anchor:start;fill:#000000;font-family:CodiceNero;-inkscape-font-specification:CodiceNero"
         id="path11295" />
      <path
         d="m 1481.3328,-147.87273 c 1.2932,0.45745 2.8151,1.52314 4.5657,3.19708 2.8906,2.81403 4.3359,6.00878 4.3359,9.58425 l 0,26.59005 c 0,1.36987 0.8753,2.24517 2.626,2.62592 0.1531,0.0743 1.3709,0.18808 3.6533,0.3413 -0.685,1.97817 -2.6632,6.656523 -5.9345,14.035092 -5.9345,3e-6 -10.9181,-1.672829 -14.951,-5.018502 -5.3262,3.498909 -10.6523,5.24836 -15.9784,5.248357 -5.5537,3e-6 -10.4416,-1.787757 -14.6637,-5.363285 -4.2222,-3.575512 -6.3332,-8.026332 -6.3332,-13.352492 0,-8.82501 5.4399,-14.91151 16.3197,-18.25954 4.0329,-0.60826 9.5111,-1.55903 16.4346,-2.85229 0,-3.34795 -2.1302,-5.02194 -6.3906,-5.02199 -4.2605,5e-5 -8.3317,1.10289 -12.2137,3.30852 -0.2276,0.15328 -1.8249,1.37105 -4.7921,3.6533 l -8.6718,-13.12263 c 0.1509,-0.38071 1.292,-1.21771 3.4234,-2.51099 2.5865,-1.67394 5.4771,-3.19586 8.6718,-4.56576 3.8054,-1.67393 8.2945,-2.51093 13.4674,-2.51099 5.9344,6e-5 11.4115,1.3316 16.4312,3.9946 z m -24.4204,37.09025 c 0.077,1.21662 0.8753,2.24284 2.3961,3.07866 1.2932,0.76156 2.6247,1.14233 3.9946,1.14231 2.1313,2e-5 3.9574,-0.47536 5.4782,-1.42614 1.5207,-0.95075 2.4715,-2.03443 2.8523,-3.25106 l 0,-5.823 c -3.1948,0.61066 -6.3895,1.22012 -9.5843,1.8284 -3.5012,0.75924 -5.2135,2.24285 -5.1369,4.45083 z"
         style="font-variant:normal;font-stretch:normal;text-align:start;word-spacing:-30px;text-anchor:start;fill:#000000;font-family:CodiceNero;-inkscape-font-specification:CodiceNero"
         id="path11297" />
      <path
         d="m 1524.9147,-173.4354 0,58.77324 c -10e-5,2.50986 0.1903,4.10723 0.5711,4.79213 0.077,0.22756 0.5712,0.53171 1.4836,0.91246 0.4574,0.22755 1.0657,0.34132 1.8249,0.3413 1.5974,2e-5 3.6905,-0.49452 6.2793,-1.48361 1.2932,11.413819 1.8631,17.120719 1.7099,17.120714 -3.1947,0.455071 -7.8731,0.911298 -14.035,1.368683 -4.4137,3e-6 -8.5987,-1.787757 -12.555,-5.363285 -2.2057,-1.978135 -3.5372,-5.858962 -3.9946,-11.642502 l 0,-64.81913 z"
         style="font-variant:normal;font-stretch:normal;text-align:start;word-spacing:-30px;text-anchor:start;fill:#000000;font-family:CodiceNero;-inkscape-font-specification:CodiceNero"
         id="path11299" />
      <path
         d="m 1573.0241,-151.86733 c 7.3042,6e-5 13.6565,2.58651 19.057,7.75935 6.0876,5.78357 9.1315,13.392 9.1315,22.8253 0,1.21664 -0.1904,3.15647 -0.5711,5.81951 l -38.1176,0 c 1.7505,5.40278 5.6314,8.02753 11.6425,7.87428 4.7154,-0.1509 9.3555,-1.97697 13.9201,-5.47821 l 12.2137,11.9838 c -9.4357,6.542752 -18.2236,9.81412 -26.3637,9.814117 -7.6828,3e-6 -14.3776,-2.39606 -20.0844,-7.188194 -6.2386,-5.326123 -9.4717,-12.363393 -9.6992,-21.111833 0,-1.14228 0,-2.89289 0,-5.25184 0.074,-5.78116 2.2416,-11.37314 6.5021,-16.77594 5.4793,-6.84683 12.9357,-10.27028 22.3691,-10.27034 z m -10.2704,22.59545 19.9695,0 c -0.4551,-2.12902 -1.5956,-3.93536 -3.4217,-5.41901 -1.8261,-1.48356 -3.9952,-2.26368 -6.5073,-2.34034 -2.5865,-0.0766 -4.8305,0.76042 -6.732,2.51099 -1.5974,1.44651 -2.7002,3.19596 -3.3085,5.24836 z"
         style="font-variant:normal;font-stretch:normal;text-align:start;word-spacing:-30px;text-anchor:start;fill:#000000;font-family:CodiceNero;-inkscape-font-specification:CodiceNero"
         id="path11301" />
    </g>
    <rect
       style="fill:none;stroke:#000000;stroke-width:4.5;stroke-linejoin:miter;stroke-miterlimit:4;stroke-opacity:1;stroke-dasharray:none"
       id="rect4731"
       width="175.5"
       height="175.5"
       x="622.25"
       y="-220.38789"
       rx="20.281109"
       ry="20.281109" />
    <rect
       style="fill:#ffffff;fill-opacity:1;stroke:#784421;stroke-width:1;stroke-miterlimit:4;stroke-opacity:1;stroke-dasharray:none"
       id="rect5836"
       width="1249"
       height="19"
       x="380.5"
       y="232.86215" />
    <path
       inkscape:connector-curvature="0"
       d="m 499.99923,207.36154 -17.704,0 0,-109.561004 -72.295,72.768004 0,-52.369 89.999,-90.838004 90.001,90.838004 0,52.369 -72.295,-72.768004 0,109.561004 z"
       style="fill:#ffffff;fill-opacity:1;fill-rule:evenodd;stroke-width:3.53692007"
       id="path5838" />
    <g
       style="font-size:113.79753113px;font-style:normal;font-weight:normal;line-height:125%;letter-spacing:0px;word-spacing:0px;fill:#ffffff;fill-opacity:1;stroke:none;font-family:Sans"
       id="text5874">
      <path
         d="m 925.86686,116.05283 0,41.19465 -16.38826,0 0,-36.07223 c -7e-5,-2.8824 -0.89143,-5.12064 -2.67407,-6.71471 -1.78279,-1.59398 -3.92552,-2.39099 -6.4282,-2.39104 -2.50513,5e-5 -4.62934,0.75944 -6.37264,2.27817 -1.97262,1.74341 -2.9589,4.05746 -2.95884,6.94218 l 0,35.95763 -16.15906,0 0,-35.8465 c -4e-5,-2.806 -0.94812,-5.04365 -2.84424,-6.71297 -1.66931,-1.44233 -3.71827,-2.16352 -6.1469,-2.16357 -2.42638,5e-5 -4.47419,0.72124 -6.14343,2.16357 -1.8985,1.59291 -2.84774,3.71712 -2.84772,6.37263 l 0,36.18684 -15.70411,0 0,-57.579439 14.5685,0 1.70516,3.299179 c 0.90985,-1.36591 2.56002,-2.56114 4.95051,-3.585687 2.39043,-1.02442 5.02688,-1.536661 7.90936,-1.536725 5.91765,6.4e-5 11.26579,2.314122 16.04445,6.942182 4.85727,-4.931354 10.66151,-7.397058 17.41274,-7.397122 5.84122,6.4e-5 10.981,1.80188 15.41935,5.405452 4.43818,3.60369 6.65731,8.02286 6.6574,13.25751 z"
         style="font-variant:normal;font-stretch:normal;text-align:start;text-anchor:start;fill:#ffffff;font-family:CodiceBianco;-inkscape-font-specification:CodiceBianco"
         id="path11252" />
      <path
         d="m 964.37355,97.504471 c 8.4204,6.4e-5 15.32379,2.883089 20.71019,8.649069 5.38629,5.7661 8.07947,12.78409 8.07953,21.054 -6e-5,9.10346 -2.57921,16.57582 -7.73746,22.41709 -5.31115,6.06819 -12.32857,9.10228 -21.05226,9.10227 -8.26998,1e-5 -15.09871,-2.76899 -20.4862,-8.30699 -5.76489,-5.84128 -8.64733,-13.57872 -8.64733,-23.21237 0,-8.5732 2.65555,-15.66702 7.96666,-21.28147 5.31109,-5.61434 12.36671,-8.421535 21.16687,-8.421599 z M 950.6038,127.31867 c -0.0764,11.83541 4.51349,17.7531 13.76975,17.75309 8.8765,10e-6 13.31476,-5.91768 13.31481,-17.75309 -5e-5,-5.76485 -1.93557,-10.08851 -5.80656,-12.971 -2.50279,-1.82202 -5.00554,-2.73306 -7.50825,-2.73311 -2.88248,5e-5 -5.49983,0.79648 -7.85206,2.3893 -3.86875,2.6556 -5.84131,7.09387 -5.91769,13.31481 z"
         style="font-variant:normal;font-stretch:normal;text-align:start;text-anchor:start;fill:#ffffff;font-family:CodiceBianco;-inkscape-font-specification:CodiceBianco"
         id="path11254" />
      <path
         d="m 1018.8031,77.702423 0,59.291537 c 0,4.47534 1.7827,6.71299 5.3482,6.71298 1.2895,1e-5 2.8824,-0.26508 4.7786,-0.79528 l 1.3683,14.33582 c -3.415,0.7594 -7.095,1.13909 -11.0401,1.13909 -6.0682,0 -10.5065,-1.97256 -13.3148,-5.9177 -2.1231,-3.03523 -3.1846,-6.98036 -3.1846,-11.83538 l 0,-62.931067 z"
         style="font-variant:normal;font-stretch:normal;text-align:start;text-anchor:start;fill:#ffffff;font-family:CodiceBianco;-inkscape-font-specification:CodiceBianco"
         id="path11256" />
      <path
         d="m 1066.8358,97.504471 c 8.4204,6.4e-5 15.3238,2.883089 20.7102,8.649069 5.3863,5.7661 8.0794,12.78409 8.0795,21.054 -1e-4,9.10346 -2.5792,16.57582 -7.7375,22.41709 -5.3111,6.06819 -12.3285,9.10228 -21.0522,9.10227 -8.27,1e-5 -15.0987,-2.76899 -20.4862,-8.30699 -5.7649,-5.84128 -8.6474,-13.57872 -8.6473,-23.21237 -10e-5,-8.5732 2.6555,-15.66702 7.9666,-21.28147 5.3111,-5.61434 12.3667,-8.421535 21.1669,-8.421599 z m -13.7698,29.814199 c -0.076,11.83541 4.5135,17.7531 13.7698,17.75309 8.8765,10e-6 13.3147,-5.91768 13.3148,-17.75309 -10e-5,-5.76485 -1.9356,-10.08851 -5.8066,-12.971 -2.5028,-1.82202 -5.0055,-2.73306 -7.5082,-2.73311 -2.8825,5e-5 -5.4998,0.79648 -7.8521,2.3893 -3.8687,2.6556 -5.8413,7.09387 -5.9177,13.31481 z"
         style="font-variant:normal;font-stretch:normal;text-align:start;text-anchor:start;fill:#ffffff;font-family:CodiceBianco;-inkscape-font-specification:CodiceBianco"
         id="path11258" />
      <path
         d="m 1164.9396,98.758161 14.9089,0 0,13.540549 -14.9089,0 0,24.80639 c 0,4.32484 2.4275,6.48725 7.2825,6.48723 2.049,2e-5 4.1732,-0.34147 6.3727,-1.02448 l 3.0734,13.42941 c -5.0055,1.66928 -10.0504,2.50391 -15.1345,2.50391 -12.0623,0 -18.0935,-4.9696 -18.0935,-14.90884 l 0,-31.29362 -9.3314,0 0,-13.540549 9.3314,0 0,-16.957805 16.4994,-4.664004 z"
         style="font-variant:normal;font-stretch:normal;text-align:start;text-anchor:start;fill:#ffffff;font-family:CodiceBianco;-inkscape-font-specification:CodiceBianco"
         id="path11260" />
      <path
         d="m 1207.4157,99.438835 0,32.547315 c 0,3.26217 1.1761,5.91772 3.5284,7.96666 2.049,1.81978 4.5517,2.72966 7.5083,2.72964 2.8847,2e-5 5.3319,-0.91044 7.3415,-2.73137 2.0096,-1.8209 3.0144,-4.43767 3.0144,-7.85033 l 0,-32.661915 16.5029,0 0,57.353705 -14.6796,0 -1.7087,-3.29918 c -3.6418,3.33854 -8.7249,5.00781 -15.2491,5.00781 -6.1446,0 -11.2647,-1.70747 -15.3603,-5.12242 -4.781,-4.02152 -7.1714,-9.78756 -7.1714,-17.29814 l 0,-36.641775 z"
         style="font-variant:normal;font-stretch:normal;text-align:start;text-anchor:start;fill:#ffffff;font-family:CodiceBianco;-inkscape-font-specification:CodiceBianco"
         id="path11262" />
      <path
         d="m 1293.7432,98.074014 0,16.499396 c -1.1368,-0.15045 -2.2747,-0.22569 -3.4138,-0.22574 -4.4753,5e-5 -8.1542,1.02337 -11.0366,3.06998 -3.1881,2.20181 -4.7821,5.19886 -4.7821,8.99114 l 0,30.83869 -15.9298,0 0,-57.808645 15.9298,0 0,5.007815 c 4.7809,-4.32476 10.4335,-6.487175 16.9578,-6.487239 0.9099,6.4e-5 1.6681,0.03826 2.2747,0.114603 z"
         style="font-variant:normal;font-stretch:normal;text-align:start;text-anchor:start;fill:#ffffff;font-family:CodiceBianco;-inkscape-font-specification:CodiceBianco"
         id="path11264" />
      <path
         d="m 1311.9131,76.452206 c 2.505,8.5e-5 4.7432,0.910543 6.7147,2.731377 1.9713,1.820998 2.9571,4.134476 2.9571,6.94044 0,2.352334 -0.9481,4.438921 -2.8443,6.259768 -1.8961,1.820985 -4.0956,2.731443 -6.5983,2.731376 -2.5051,6.7e-5 -4.7248,-0.87219 -6.6592,-2.616773 -1.9343,-1.744445 -2.9015,-3.944477 -2.9015,-6.600104 0,-2.731877 0.9295,-4.989211 2.7887,-6.772009 1.8591,-1.782632 4.04,-2.67399 6.5428,-2.674075 z m -7.8521,23.101232 16.3883,0 0,57.694042 -16.3883,0 z"
         style="font-variant:normal;font-stretch:normal;text-align:start;text-anchor:start;fill:#ffffff;font-family:CodiceBianco;-inkscape-font-specification:CodiceBianco"
         id="path11266" />
      <path
         d="m 1354.7504,96.139651 c 9.6359,6.6e-5 18.4742,2.844306 26.515,8.532729 l -10.4671,11.26585 c -3.415,-3.41258 -7.0186,-5.34695 -10.8109,-5.80309 -0.9122,-0.074 -1.7851,-0.11108 -2.6185,-0.11113 -2.4287,5e-5 -4.4395,0.41679 -6.0323,1.25021 -1.5929,0.83353 -2.3894,1.89621 -2.3893,3.18806 -10e-5,1.13681 0.7211,1.93325 2.1635,2.3893 0.7571,0.30334 3.7159,0.98517 8.8766,2.04549 l 6.4837,1.3683 c 4.4776,0.90992 8.0442,2.84428 10.6998,5.80309 2.9588,3.26217 4.4382,7.28254 4.4383,12.06112 -1e-4,4.24844 -1.4424,8.11832 -4.3272,11.60965 -4.3225,5.00551 -10.9984,7.50825 -20.0277,7.50825 -10.8492,0 -20.4457,-3.60363 -28.7898,-10.8109 l 11.0367,-10.35597 c 5.8436,4.78095 11.9893,7.1714 18.4372,7.17139 4.2484,1e-5 6.3726,-1.44121 6.3726,-4.32367 0,-1.66925 -1.0245,-2.88358 -3.0734,-3.643 -0.8335,-0.22686 -4.7786,-1.0997 -11.8354,-2.61851 -5.538,-1.13674 -9.5966,-2.88125 -12.1757,-5.23354 -3.0353,-2.80601 -4.5529,-6.78933 -4.5529,-11.94999 0,-6.59832 2.4657,-11.64317 7.3971,-15.13458 4.0215,-2.805974 8.9147,-4.208993 14.6797,-4.209059 z"
         style="font-variant:normal;font-stretch:normal;text-align:start;text-anchor:start;fill:#ffffff;font-family:CodiceBianco;-inkscape-font-specification:CodiceBianco"
         id="path11268" />
      <path
         d="m 1412.7604,98.758161 14.9089,0 0,13.540549 -14.9089,0 0,24.80639 c 0,4.32484 2.4275,6.48725 7.2825,6.48723 2.049,2e-5 4.1732,-0.34147 6.3727,-1.02448 l 3.0734,13.42941 c -5.0055,1.66928 -10.0504,2.50391 -15.1345,2.50391 -12.0623,0 -18.0935,-4.9696 -18.0935,-14.90884 l 0,-31.29362 -9.3314,0 0,-13.540549 9.3314,0 0,-16.957805 16.4994,-4.664004 z"
         style="font-variant:normal;font-stretch:normal;text-align:start;text-anchor:start;fill:#ffffff;font-family:CodiceBianco;-inkscape-font-specification:CodiceBianco"
         id="path11270" />
      <path
         d="m 1447.2699,76.452206 c 2.505,8.5e-5 4.7433,0.910543 6.7147,2.731377 1.9714,1.820998 2.9571,4.134476 2.9571,6.94044 0,2.352334 -0.9481,4.438921 -2.8443,6.259768 -1.8961,1.820985 -4.0956,2.731443 -6.5983,2.731376 -2.5051,6.7e-5 -4.7248,-0.87219 -6.6592,-2.616773 -1.9343,-1.744445 -2.9015,-3.944477 -2.9015,-6.600104 0,-2.731877 0.9295,-4.989211 2.7887,-6.772009 1.8591,-1.782632 4.04,-2.67399 6.5428,-2.674075 z m -7.8521,23.101232 16.3883,0 0,57.694042 -16.3883,0 z"
         style="font-variant:normal;font-stretch:normal;text-align:start;text-anchor:start;fill:#ffffff;font-family:CodiceBianco;-inkscape-font-specification:CodiceBianco"
         id="path11272" />
      <path
         d="m 1493.6356,158.38657 c -6.6007,0 -12.5555,-2.23765 -17.8643,-6.71297 -6.6006,-5.53799 -9.901,-13.23839 -9.901,-23.10124 0,-10.08967 3.3756,-17.90352 10.1268,-23.44157 5.2347,-4.32476 11.1142,-6.487169 17.6385,-6.487232 7.2836,6.3e-5 13.5428,2.237722 18.7775,6.712972 3.8687,3.33859 6.5243,7.13207 7.9667,11.38045 l -13.999,4.89321 c -2.1995,-6.29735 -6.4097,-9.44604 -12.6306,-9.44609 -2.8084,5e-5 -5.3505,0.87289 -7.6264,2.61851 -3.489,2.80609 -5.2335,7.3578 -5.2335,13.65515 0,6.98041 1.9725,11.79837 5.9177,14.4539 1.9725,1.44008 4.2484,2.16011 6.8276,2.1601 6.7511,10e-6 11.0759,-3.37557 12.9744,-10.12676 l 13.7698,5.00781 c -1.8221,5.84131 -5.3505,10.43006 -10.5852,13.76628 -4.7786,3.11166 -10.165,4.66748 -16.159,4.66748 z"
         style="font-variant:normal;font-stretch:normal;text-align:start;text-anchor:start;fill:#ffffff;font-family:CodiceBianco;-inkscape-font-specification:CodiceBianco"
         id="path11274" />
      <path
         d="m 1556.9208,97.504471 c 8.4204,6.4e-5 15.3238,2.883089 20.7102,8.649069 5.3863,5.7661 8.0795,12.78409 8.0796,21.054 -1e-4,9.10346 -2.5793,16.57582 -7.7375,22.41709 -5.3112,6.06819 -12.3286,9.10228 -21.0523,9.10227 -8.2699,1e-5 -15.0987,-2.76899 -20.4862,-8.30699 -5.7649,-5.84128 -8.6473,-13.57872 -8.6473,-23.21237 0,-8.5732 2.6556,-15.66702 7.9667,-21.28147 5.3111,-5.61434 12.3667,-8.421535 21.1668,-8.421599 z m -13.7697,29.814199 c -0.076,11.83541 4.5135,17.7531 13.7697,17.75309 8.8765,10e-6 13.3148,-5.91768 13.3148,-17.75309 0,-5.76485 -1.9355,-10.08851 -5.8065,-12.971 -2.5028,-1.82202 -5.0056,-2.73306 -7.5083,-2.73311 -2.8824,5e-5 -5.4998,0.79648 -7.852,2.3893 -3.8688,2.6556 -5.8413,7.09387 -5.9177,13.31481 z"
         style="font-variant:normal;font-stretch:normal;text-align:start;text-anchor:start;fill:#ffffff;font-family:CodiceBianco;-inkscape-font-specification:CodiceBianco"
         id="path11276" />
    </g>
    <rect
       ry="20.281109"
       rx="20.281109"
       y="29.612129"
       x="622.25"
       height="175.5"
       width="175.5"
       id="rect9849"
       style="fill:#ffffff;stroke:#ffffff;stroke-width:4.50000000000000000;stroke-linejoin:miter;stroke-miterlimit:4;stroke-opacity:1;stroke-dasharray:none;fill-opacity:1" />
    <path
       inkscape:connector-curvature="0"
       d="m 590.00028,417.36271 0,17.704 -109.5611,0 72.768,72.295 -52.369,0 -90.838,-89.999 90.8381,-90.0009 52.3689,0 -72.768,72.2949 109.5611,0 z"
       style="fill:#ffffff;fill-opacity:1;fill-rule:evenodd;stroke-width:3.53692007"
       id="path5575" />
    <g
       style="font-size:121.77684784px;font-style:normal;font-weight:normal;line-height:125%;letter-spacing:0px;word-spacing:0px;fill:#ffffff;fill-opacity:1;stroke:none;font-family:Sans"
       id="text5970">
      <path
         d="m 836.41002,401.53432 32.63685,0 0,12.41999 -19.12054,34.33893 19.3621,0 0,11.93686 -34.33893,0 0,-12.66526 18.38842,-33.97473 -16.9279,0 z"
         style="font-variant:normal;font-stretch:normal;text-align:start;word-spacing:-28.97727203px;text-anchor:start;fill:#ffffff;font-family:CodiceBiancoCondensed;-inkscape-font-specification:CodiceBiancoCondensed"
         id="path11219" />
      <path
         d="m 876.07446,432.34273 c 0,-9.09259 1.92815,-16.54135 5.78447,-22.34632 3.85631,-5.80485 9.11306,-8.70731 15.77027,-8.70737 6.3326,6e-5 11.50821,2.86164 15.52684,8.58473 4.01856,5.72321 6.02785,13.21285 6.0279,22.46896 -5e-5,8.5253 -2.0911,15.50704 -6.27317,20.94526 -4.18215,5.43824 -9.23636,8.15736 -15.16265,8.15736 -6.57545,0 -11.89228,-2.84052 -15.95051,-8.52156 -3.81544,-5.35894 -5.72315,-12.21928 -5.72315,-20.58106 z m 21.67366,-18.38842 c -2.92106,5e-5 -4.9093,1.90777 -5.96472,5.72315 -0.73089,2.599 -1.09633,6.82075 -1.09631,12.66527 -2e-5,4.8709 0.24278,8.3209 0.7284,10.34999 1.05542,4.22178 3.16629,6.33265 6.33263,6.33264 4.54629,1e-5 6.81944,-5.51998 6.81948,-16.55999 -4e-5,-6.00804 -0.3246,-10.31155 -0.97368,-12.91055 -1.05547,-3.73362 -3.00407,-5.60046 -5.8458,-5.60051 z"
         style="font-variant:normal;font-stretch:normal;text-align:start;word-spacing:-28.97727203px;text-anchor:start;fill:#ffffff;font-family:CodiceBiancoCondensed;-inkscape-font-specification:CodiceBiancoCondensed"
         id="path11221" />
      <path
         d="m 967.82332,414.44115 0,45.91159 -14.36735,0 0,-40.55264 c -3e-5,-4.30346 -1.78635,-6.45522 -5.35895,-6.45527 -1.46179,5e-5 -2.72038,0.48689 -3.7758,1.46052 -1.05546,0.97373 -1.58318,2.23232 -1.58316,3.77579 l 0,41.7716 -14.12579,0 0,-58.33158 12.78791,0 1.21524,2.55684 c 3.08701,-3.00522 6.57789,-4.50785 10.47263,-4.50792 3.89716,7e-5 7.32734,1.42094 10.29053,4.26264 2.96312,2.84181 4.44469,6.21129 4.44474,10.10843 z"
         style="font-variant:normal;font-stretch:normal;text-align:start;word-spacing:-28.97727203px;text-anchor:start;fill:#ffffff;font-family:CodiceBiancoCondensed;-inkscape-font-specification:CodiceBiancoCondensed"
         id="path11223" />
      <path
         d="m 1000.423,401.53432 c 5.0344,6e-5 9.0734,1.4005 12.1171,4.20131 3.0437,2.80094 4.5655,6.18961 4.5655,10.16604 l 0,30.08001 c 0,2.02913 1.7454,3.16509 5.2363,3.40788 l -3.7758,10.96318 c -0.9737,0.24281 -2.1096,0.36421 -3.4078,0.3642 -4.6281,10e-6 -8.5662,-1.78631 -11.8143,-5.35895 -1.2165,0.97369 -2.4342,1.98825 -3.65311,3.04368 -2.84178,1.62528 -6.33266,2.27564 -10.47263,1.95107 -2.92105,-0.24527 -5.47789,-1.62651 -7.67052,-4.14371 -2.59896,-2.75999 -3.81668,-6.33138 -3.65315,-10.71419 0.24279,-7.30629 2.96191,-13.07032 8.15735,-17.29211 2.84174,-2.27435 8.15981,-4.95383 15.95426,-8.03843 0.4063,-1.70451 0.2235,-3.22635 -0.5482,-4.56551 -0.7718,-1.33907 -2.00994,-2.00863 -3.71447,-2.00868 -3.65442,5e-5 -7.99757,2.35372 -13.02947,7.06103 l -7.06475,-8.64419 c 4.38526,-3.49082 7.79562,-5.88662 10.23107,-7.18739 4.05822,-2.1901 8.23909,-3.28518 12.54262,-3.28524 z m -7.67051,42.8642 c 0.24278,1.94738 1.29698,2.92106 3.1626,2.92104 1.13718,2e-5 2.31463,-0.38524 3.53238,-1.15578 1.21773,-0.7705 2.02973,-1.6426 2.43603,-2.6163 l 0,-11.32739 c -6.81823,2.76003 -9.86191,6.8195 -9.13101,12.17843 z"
         style="font-variant:normal;font-stretch:normal;text-align:start;word-spacing:-28.97727203px;text-anchor:start;fill:#ffffff;font-family:CodiceBiancoCondensed;-inkscape-font-specification:CodiceBiancoCondensed"
         id="path11225" />
      <path
         d="m 1071.103,401.53432 c 5.0343,6e-5 9.0734,1.4005 12.1171,4.20131 3.0436,2.80094 4.5654,6.18961 4.5655,10.16604 l 0,30.08001 c -10e-5,2.02913 1.7454,3.16509 5.2363,3.40788 l -3.7758,10.96318 c -0.9737,0.24281 -2.1097,0.36421 -3.4079,0.3642 -4.6281,10e-6 -8.5662,-1.78631 -11.8142,-5.35895 -1.2165,0.97369 -2.4342,1.98825 -3.6532,3.04368 -2.8417,1.62528 -6.3326,2.27564 -10.4726,1.95107 -2.921,-0.24527 -5.4779,-1.62651 -7.6705,-4.14371 -2.599,-2.75999 -3.8167,-6.33138 -3.6532,-10.71419 0.2428,-7.30629 2.962,-13.07032 8.1574,-17.29211 2.8417,-2.27435 8.1598,-4.95383 15.9542,-8.03843 0.4063,-1.70451 0.2236,-3.22635 -0.5481,-4.56551 -0.7718,-1.33907 -2.01,-2.00863 -3.7145,-2.00868 -3.6544,5e-5 -7.9976,2.35372 -13.0295,7.06103 l -7.0647,-8.64419 c 4.3852,-3.49082 7.7956,-5.88662 10.231,-7.18739 4.0583,-2.1901 8.2391,-3.28518 12.5427,-3.28524 z m -7.6705,42.8642 c 0.2427,1.94738 1.2969,2.92106 3.1626,2.92104 1.1371,2e-5 2.3146,-0.38524 3.5323,-1.15578 1.2177,-0.7705 2.0297,-1.6426 2.4361,-2.6163 l 0,-11.32739 c -6.8183,2.76003 -9.8619,6.8195 -9.131,12.17843 z"
         style="font-variant:normal;font-stretch:normal;text-align:start;word-spacing:-28.97727203px;text-anchor:start;fill:#ffffff;font-family:CodiceBiancoCondensed;-inkscape-font-specification:CodiceBiancoCondensed"
         id="path11227" />
      <path
         d="m 1131.9914,399.46432 0,14.61263 c -1.0555,-0.24523 -2.1109,-0.36787 -3.1663,-0.36792 -2.9211,5e-5 -5.4779,0.83251 -7.6706,2.49738 -2.1926,1.66496 -3.2889,3.71514 -3.2889,6.15053 l 0,37.9958 -15.4637,0 0,-59.18634 15.4637,0 0,3.65316 c 3.8972,-3.5701 8.6057,-5.35517 14.1258,-5.35524 z"
         style="font-variant:normal;font-stretch:normal;text-align:start;word-spacing:-28.97727203px;text-anchor:start;fill:#ffffff;font-family:CodiceBiancoCondensed;-inkscape-font-specification:CodiceBiancoCondensed"
         id="path11229" />
      <path
         d="m 1137.0345,431.12377 c 0,-10.39082 2.7203,-18.42801 8.161,-24.11158 4.5463,-4.70729 9.4581,-6.73641 14.7353,-6.08735 10.2273,1.21654 16.031,7.95425 17.411,20.21314 l -12.0558,2.80212 c -0.2428,-2.75996 -0.6082,-4.70855 -1.0963,-5.8458 -0.9737,-2.27187 -2.8405,-3.40782 -5.6005,-3.40787 -4.5463,5e-5 -6.8195,5.1546 -6.8195,15.46366 0,6.98179 0.5686,11.81178 1.7058,14.48999 0.8919,2.35618 2.4751,3.65565 4.7495,3.89844 3.8154,0.48809 6.21,-2.63734 7.1837,-9.37632 l 12.301,2.67948 c -0.3246,3.9765 -1.9895,7.95421 -4.9947,11.93315 -3.8155,5.11368 -8.5241,7.67052 -14.1258,7.67052 -5.1955,0 -9.7418,-2.02912 -13.6389,-6.08736 -5.2772,-5.43822 -7.9158,-13.51629 -7.9158,-24.23422 z"
         style="font-variant:normal;font-stretch:normal;text-align:start;word-spacing:-28.97727203px;text-anchor:start;fill:#ffffff;font-family:CodiceBiancoCondensed;-inkscape-font-specification:CodiceBiancoCondensed"
         id="path11231" />
      <path
         d="m 1187.0563,375.5943 14.7353,0 0,29.7121 c 3.3298,-2.75994 6.9024,-4.13994 10.7179,-4.14 4.0582,6e-5 7.5689,1.4005 10.5321,4.20132 2.9631,2.80093 4.4447,6.19084 4.4447,10.16975 l 0,44.9342 -15.0995,0 0,-40.43001 c 0,-4.54626 -1.7045,-6.81942 -5.1136,-6.81947 -1.3801,5e-5 -2.578,0.50733 -3.5937,1.52184 -1.0158,1.01461 -1.5237,2.33452 -1.5237,3.95975 l 0,41.76789 -15.0995,0 z"
         style="font-variant:normal;font-stretch:normal;text-align:start;word-spacing:-28.97727203px;text-anchor:start;fill:#ffffff;font-family:CodiceBiancoCondensed;-inkscape-font-specification:CodiceBiancoCondensed"
         id="path11233" />
      <path
         d="m 1238.6168,433.68061 c -10e-5,-9.74171 2.314,-17.65625 6.9421,-23.74366 4.2217,-5.60169 9.2549,-8.40257 15.0994,-8.40263 5.7653,6e-5 10.5965,2.4355 14.4937,7.30631 4.2217,5.43829 6.3326,12.86599 6.3327,22.28314 -10e-5,1.46179 -0.041,3.00407 -0.1227,4.62684 l -27.6421,0 c 0.1611,9.25617 2.677,13.88424 7.5479,13.88422 3.8154,2e-5 6.7377,-3.49085 8.7668,-10.47263 l 11.569,5.8458 c -0.8102,1.46178 -1.5807,2.92229 -2.3116,4.38156 -2.0291,3.24809 -4.384,5.88668 -7.0647,7.91579 -3.652,2.76 -7.7102,4.14 -12.1747,4.14 -5.7653,0 -10.6771,-2.39456 -14.7353,-7.18368 -4.467,-5.19542 -6.7006,-12.05576 -6.7005,-20.58106 z m 15.1031,-8.03471 12.9069,0 c -0.082,-7.95787 -2.0713,-11.93682 -5.9685,-11.93687 -4.3828,5e-5 -6.6956,3.979 -6.9384,11.93687 z"
         style="font-variant:normal;font-stretch:normal;text-align:start;word-spacing:-28.97727203px;text-anchor:start;fill:#ffffff;font-family:CodiceBiancoCondensed;-inkscape-font-specification:CodiceBiancoCondensed"
         id="path11235" />
      <path
         d="m 1286.8733,432.34273 c 0,-9.09259 1.9282,-16.54135 5.7845,-22.34632 3.8563,-5.80485 9.1131,-8.70731 15.7703,-8.70737 6.3326,6e-5 11.5082,2.86164 15.5268,8.58473 4.0186,5.72321 6.0279,13.21285 6.0279,22.46896 0,8.5253 -2.0911,15.50704 -6.2731,20.94526 -4.1822,5.43824 -9.2364,8.15736 -15.1627,8.15736 -6.5754,0 -11.8923,-2.84052 -15.9505,-8.52156 -3.8154,-5.35894 -5.7232,-12.21928 -5.7232,-20.58106 z m 21.6737,-18.38842 c -2.9211,5e-5 -4.9093,1.90777 -5.9647,5.72315 -0.7309,2.599 -1.0963,6.82075 -1.0963,12.66527 0,4.8709 0.2428,8.3209 0.7284,10.34999 1.0554,4.22178 3.1663,6.33265 6.3326,6.33264 4.5463,1e-5 6.8194,-5.51998 6.8195,-16.55999 -10e-5,-6.00804 -0.3246,-10.31155 -0.9737,-12.91055 -1.0555,-3.73362 -3.0041,-5.60046 -5.8458,-5.60051 z"
         style="font-variant:normal;font-stretch:normal;text-align:start;word-spacing:-28.97727203px;text-anchor:start;fill:#ffffff;font-family:CodiceBiancoCondensed;-inkscape-font-specification:CodiceBiancoCondensed"
         id="path11237" />
      <path
         d="m 1338.0733,373.88851 15.4636,0 0,69.41369 c 0,3.65441 1.8669,5.48161 5.6006,5.48159 1.3799,2e-5 2.8417,-0.32578 4.3852,-0.97739 l 2.8021,11.56895 c -3.0053,1.38 -6.293,2.07 -9.8631,2.07 -5.1162,0 -9.3379,-1.33912 -12.6653,-4.01736 -3.8154,-3.08455 -5.7231,-7.5491 -5.7231,-13.39367 z"
         style="font-variant:normal;font-stretch:normal;text-align:start;word-spacing:-28.97727203px;text-anchor:start;fill:#ffffff;font-family:CodiceBiancoCondensed;-inkscape-font-specification:CodiceBiancoCondensed"
         id="path11239" />
      <path
         d="m 1371.3085,432.34273 c 0,-9.09259 1.9281,-16.54135 5.7844,-22.34632 3.8563,-5.80485 9.1131,-8.70731 15.7703,-8.70737 6.3326,6e-5 11.5082,2.86164 15.5268,8.58473 4.0186,5.72321 6.0279,13.21285 6.0279,22.46896 0,8.5253 -2.0911,15.50704 -6.2731,20.94526 -4.1822,5.43824 -9.2364,8.15736 -15.1627,8.15736 -6.5754,0 -11.8923,-2.84052 -15.9505,-8.52156 -3.8154,-5.35894 -5.7231,-12.21928 -5.7231,-20.58106 z m 21.6736,-18.38842 c -2.921,5e-5 -4.9093,1.90777 -5.9647,5.72315 -0.7309,2.599 -1.0963,6.82075 -1.0963,12.66527 0,4.8709 0.2428,8.3209 0.7284,10.34999 1.0554,4.22178 3.1663,6.33265 6.3326,6.33264 4.5463,1e-5 6.8195,-5.51998 6.8195,-16.55999 0,-6.00804 -0.3246,-10.31155 -0.9737,-12.91055 -1.0554,-3.73362 -3.004,-5.60046 -5.8458,-5.60051 z"
         style="font-variant:normal;font-stretch:normal;text-align:start;word-spacing:-28.97727203px;text-anchor:start;fill:#ffffff;font-family:CodiceBiancoCondensed;-inkscape-font-specification:CodiceBiancoCondensed"
         id="path11241" />
      <path
         d="m 1419.461,431.24641 c 0,-10.6361 2.1926,-18.63241 6.5779,-23.98894 3.3274,-4.06065 7.1019,-6.09101 11.3237,-6.09107 2.1108,6e-5 4.0594,0.56866 5.8458,1.7058 0.8943,0.64918 1.7466,1.2983 2.5568,1.94736 l 1.4605,-2.92104 13.2748,0 0,62.71314 c -1e-4,3.16632 -0.9329,6.25211 -2.7984,9.25739 -2.0317,3.32735 -4.7111,5.68102 -8.0385,7.06104 -2.8417,1.21894 -6.2112,1.82842 -10.1084,1.82843 -5.6018,-10e-6 -11.5281,-1.09633 -17.7789,-3.28895 l 5.4816,-12.05579 c 4.3827,1.86807 8.4819,2.59895 12.2973,2.19264 3.7337,-0.40633 5.6005,-1.90896 5.6005,-4.50792 l 0,-8.88947 c -2.2719,3.08704 -5.7219,4.63056 -10.35,4.63055 -4.8709,10e-6 -8.6863,-2.92351 -11.4463,-8.77055 -2.5989,-5.43821 -3.8984,-12.37908 -3.8984,-20.82262 z m 14.2484,0 c 0,11.36458 2.4354,17.04685 7.3063,17.04683 1.3007,2e-5 2.397,-0.60822 3.289,-1.82472 0.6491,-1.05542 0.9736,-2.23226 0.9737,-3.53052 l 0,-23.99266 c -10e-5,-2.59643 -1.1769,-3.89466 -3.5305,-3.89471 -5.359,5e-5 -8.0385,5.39864 -8.0385,16.19578 z"
         style="font-variant:normal;font-stretch:normal;text-align:start;word-spacing:-28.97727203px;text-anchor:start;fill:#ffffff;font-family:CodiceBiancoCondensed;-inkscape-font-specification:CodiceBiancoCondensed"
         id="path11243" />
      <path
         d="m 1489.4842,383.63273 c -1e-4,2.272 -0.7712,4.0577 -2.3135,5.3571 -1.5422,1.29955 -3.3688,1.94929 -5.4797,1.94922 -2.1109,7e-5 -3.9375,-0.64967 -5.4797,-1.94922 -1.5423,-1.2994 -2.3134,-3.12598 -2.3134,-5.47973 0,-2.3536 0.7711,-4.20062 2.3134,-5.54106 1.5422,-1.34027 3.3688,-2.01045 5.4797,-2.01054 2.1109,9e-5 3.9375,0.67027 5.4797,2.01054 1.5423,1.34044 2.3134,3.22834 2.3135,5.66369 z m -0.3642,17.90159 0,58.45051 -14.8579,0 0,-58.45051 z"
         style="font-variant:normal;font-stretch:normal;text-align:start;word-spacing:-28.97727203px;text-anchor:start;fill:#ffffff;font-family:CodiceBiancoCondensed;-inkscape-font-specification:CodiceBiancoCondensed"
         id="path11245" />
      <path
         d="m 1498.0838,431.12377 c 0,-10.39082 2.7203,-18.42801 8.161,-24.11158 4.5463,-4.70729 9.4581,-6.73641 14.7353,-6.08735 10.2273,1.21654 16.031,7.95425 17.411,20.21314 l -12.0557,2.80212 c -0.2429,-2.75996 -0.6083,-4.70855 -1.0964,-5.8458 -0.9737,-2.27187 -2.8405,-3.40782 -5.6005,-3.40787 -4.5463,5e-5 -6.8195,5.1546 -6.8195,15.46366 0,6.98179 0.5686,11.81178 1.7058,14.48999 0.8919,2.35618 2.4751,3.65565 4.7495,3.89844 3.8154,0.48809 6.21,-2.63734 7.1837,-9.37632 l 12.3011,2.67948 c -0.3246,3.9765 -1.9896,7.95421 -4.9948,11.93315 -3.8155,5.11368 -8.5241,7.67052 -14.1258,7.67052 -5.1954,0 -9.7417,-2.02912 -13.6389,-6.08736 -5.2772,-5.43822 -7.9158,-13.51629 -7.9158,-24.23422 z"
         style="font-variant:normal;font-stretch:normal;text-align:start;word-spacing:-28.97727203px;text-anchor:start;fill:#ffffff;font-family:CodiceBiancoCondensed;-inkscape-font-specification:CodiceBiancoCondensed"
         id="path11247" />
      <path
         d="m 1568.1998,401.53432 c 5.0344,6e-5 9.0734,1.4005 12.1172,4.20131 3.0436,2.80094 4.5654,6.18961 4.5655,10.16604 l 0,30.08001 c -10e-5,2.02913 1.7454,3.16509 5.2363,3.40788 l -3.7758,10.96318 c -0.9737,0.24281 -2.1097,0.36421 -3.4079,0.3642 -4.6281,10e-6 -8.5662,-1.78631 -11.8142,-5.35895 -1.2165,0.97369 -2.4342,1.98825 -3.6532,3.04368 -2.8418,1.62528 -6.3326,2.27564 -10.4726,1.95107 -2.9211,-0.24527 -5.4779,-1.62651 -7.6705,-4.14371 -2.599,-2.75999 -3.8167,-6.33138 -3.6532,-10.71419 0.2428,-7.30629 2.9619,-13.07032 8.1574,-17.29211 2.8417,-2.27435 8.1598,-4.95383 15.9542,-8.03843 0.4063,-1.70451 0.2236,-3.22635 -0.5482,-4.56551 -0.7717,-1.33907 -2.0099,-2.00863 -3.7144,-2.00868 -3.6544,5e-5 -7.9976,2.35372 -13.0295,7.06103 l -7.0648,-8.64419 c 4.3853,-3.49082 7.7957,-5.88662 10.2311,-7.18739 4.0582,-2.1901 8.2391,-3.28518 12.5426,-3.28524 z m -7.6705,42.8642 c 0.2428,1.94738 1.297,2.92106 3.1626,2.92104 1.1372,2e-5 2.3147,-0.38524 3.5324,-1.15578 1.2177,-0.7705 2.0297,-1.6426 2.4361,-2.6163 l 0,-11.32739 c -6.8183,2.76003 -9.862,6.8195 -9.1311,12.17843 z"
         style="font-variant:normal;font-stretch:normal;text-align:start;word-spacing:-28.97727203px;text-anchor:start;fill:#ffffff;font-family:CodiceBiancoCondensed;-inkscape-font-specification:CodiceBiancoCondensed"
         id="path11249" />
    </g>
    <rect
       style="fill:#ffffff;stroke:#ffffff;stroke-width:4.50000000000000000;stroke-linejoin:miter;stroke-miterlimit:4;stroke-opacity:1;stroke-dasharray:none;fill-opacity:1"
       id="rect10398"
       width="175.5"
       height="175.5"
       x="622.25"
       y="329.61215"
       rx="20.281109"
       ry="20.281109" />
    <g
       id="g1134"
       transform="matrix(1.4478756,0,0,1.4478756,382.46255,-248.55637)"
       style="stroke:none">
      <path
         inkscape:connector-curvature="0"
         id="path13005-5"
         style="fill:#000000;fill-opacity:1;fill-rule:evenodd;stroke:none"
         d="m 201.51014,115.94459 19.46726,-39.731899 -1.91099,-6.667816 -10.81284,12.297646 c -3.42327,3.02458 -8.58567,-2.16532 -5.19677,-5.55421 l 19.18541,-22.031278 c 2.12408,-1.477908 3.05895,-2.014086 5.18989,-3.134552 2.41279,-1.113599 2.92147,-0.934863 5.1899,1.120466 l 17.16446,17.301928 c 0.61178,0.653039 0.82487,0.508679 1.07922,1.986596 v 8.61316 c 0,3.74635 -7.10089,3.71198 -7.14212,-0.0756 l 0.10997,-6.05602 -6.34472,-6.124761 -2.52277,7.245231 c 5.36862,14.27736 9.73362,27.214279 15.06788,41.498519 2.41965,6.73655 -5.83606,10.02233 -9.15622,3.492 L 227.50085,84.578381 c -5.98041,12.22204 -11.31466,23.791029 -17.3363,35.978679 -3.42327,6.31036 -11.93332,1.44354 -8.65441,-4.61247" />
      <path
         inkscape:connector-curvature="0"
         id="path13013-9"
         style="fill:#000000;fill-opacity:1;fill-rule:evenodd;stroke:none"
         d="m 222.854,36.123341 c 3.56762,0 6.45471,2.921462 6.45471,6.489087 0,3.567619 -2.88709,6.48908 -6.45471,6.48908 -3.56762,0 -6.48909,-2.921461 -6.48909,-6.48908 0,-3.567625 2.92147,-6.489087 6.48909,-6.489087" />
    </g>
    <path
       style="fill:#000000"
       d="m 657.3627,481.41344 c -13.85199,-3.23528 -24.51562,-24.42932 -19.51823,-38.79262 0.64207,-1.84544 1.84036,-3.52004 4.10345,-5.73455 3.09499,-3.02855 5.21483,-4.13828 66.72258,-34.92862 34.93931,-17.49037 64.04605,-31.80068 64.68162,-31.80068 0.99849,0 1.17442,0.31894 1.29411,2.34596 0.0762,1.29027 0.66018,5.86488 1.29775,10.16579 1.339,9.03246 1.45776,17.69187 0.28599,20.8529 -0.92569,2.49721 5.18182,-1.85242 -58.98256,42.00606 -27.44399,18.75887 -50.98968,34.63187 -52.32375,35.2733 -2.55728,1.22959 -4.31062,1.37162 -7.56096,0.61246 z m 28.01058,-16.64371 c 16.57543,-11.22689 23.00719,-15.75003 18.09331,-12.72415 -10.36738,6.38406 -38.47281,25.02885 -38.25514,25.378 0.1569,0.25168 0.55713,0.3525 0.88941,0.22407 0.33228,-0.12843 9.00487,-5.9235 19.27242,-12.87792 z m 34.54108,-26.20381 c 47.9775,-31.11509 54.6438,-35.68939 53.56707,-36.75681 -0.24764,-0.2455 -1.89575,0.78753 -54.96295,34.45062 -56.84315,36.05835 -52.07641,32.87366 -52.07641,34.79259 0,0.8495 0.22472,1.54454 0.49937,1.54454 0.27465,0 24.11246,-15.31392 52.97292,-34.03094 z m 2.05646,-7.21972 c 28.17222,-17.8135 51.22222,-32.71347 51.22222,-33.11106 0,-0.39758 -0.2958,-1.24753 -0.65734,-1.88878 -0.36153,-0.64125 -0.6821,-1.22956 -0.71238,-1.30737 -0.1381,-0.35484 -104.66825,60.98327 -105.24978,61.76039 -0.36154,0.48313 -0.65734,1.77195 -0.65734,2.86406 0,2.35884 1.45851,4.07094 3.46794,4.07094 0.90442,0 18.63467,-10.92007 52.58668,-32.38818 z m -3.42009,-8.40532 c 46.82399,-27.27969 53.14362,-31.10982 54.09311,-32.78396 1.16196,-2.04883 1.36037,-3.34195 0.5856,-3.81665 -0.52435,-0.32125 -111.50128,58.89744 -112.19909,59.87086 -0.90161,1.2577 0.0539,4.72053 1.70648,6.18449 0.8901,0.7885 1.88331,1.43363 2.20712,1.43363 0.32381,0 24.44687,-13.89976 53.60678,-30.88837 z m -2.67717,-9.04336 c 30.51342,-16.22719 55.68025,-29.69281 55.92628,-29.9236 0.24603,-0.2308 0.15991,-1.2076 -0.19137,-2.17067 -0.53144,-1.45697 -0.49502,-2.09195 0.2169,-3.78109 0.47058,-1.11653 0.78766,-2.09743 0.70461,-2.17976 -0.15496,-0.15361 -116.44567,61.80192 -118.57725,63.17372 -2.78106,1.78977 -0.53191,4.3871 3.79808,4.38602 2.48931,-6.2e-4 5.88544,-1.72459 58.12275,-29.50462 z m -64.41869,23.58398 c 3.51418,-1.62951 120.81306,-63.94413 121.44018,-64.51467 0.26995,-0.24559 0.3623,-0.57393 0.20523,-0.72964 -0.25108,-0.24891 -123.47922,61.48595 -126.50968,63.37884 -1.14747,0.71673 -1.54795,2.03818 -0.83263,2.74732 0.69497,0.68896 3.11829,0.31384 5.6969,-0.88185 z m 62.31522,36.43897 0,-5.97491 4.60133,-0.15063 4.60133,-0.15062 0.15698,-1.85128 c 0.11364,-1.34028 -0.14036,-2.11805 -0.92026,-2.81775 -0.77422,-0.69459 -1.07724,-1.61047 -1.07724,-3.25586 0,-1.9974 0.20079,-2.40267 1.57427,-3.17747 1.00536,-0.56714 1.57548,-1.30712 1.5776,-2.04765 0.002,-0.7567 0.54605,-1.43782 1.56534,-1.96036 2.1706,-1.11277 2.64492,-2.25991 2.64492,-6.39679 l 0,-3.59005 3.93628,-0.60668 c 2.16495,-0.33367 5.41604,-1.10086 7.22461,-1.70486 2.60779,-0.87091 3.95876,-1.027 6.52788,-0.75424 2.29066,0.24318 4.05325,0.10437 6.01751,-0.47391 4.78498,-1.40871 7.75946,-1.09409 14.44717,1.52812 4.58144,1.79634 6.67403,2.34595 8.93209,2.34595 2.52942,0 2.92223,0.12978 2.76124,0.91231 -0.33316,1.6193 -5.65762,1.06842 -11.74901,-1.21556 -6.248,-2.3427 -10.10427,-2.77382 -13.83192,-1.54639 -1.98013,0.652 -3.56724,0.79048 -6.23071,0.54365 -2.89035,-0.26785 -4.1772,-0.12109 -6.72901,0.76737 -1.73536,0.60421 -4.51588,1.24059 -6.17892,1.41418 l -3.02374,0.31562 0,2.01101 0,2.01103 23.32815,0 23.32816,0 -0.24783,1.2852 c -0.1363,0.70685 0.003,1.99713 0.3085,2.86728 l 0.55632,1.58207 -25.74012,0 c -22.52953,0 -25.74012,0.0975 -25.74012,0.78198 0,0.68453 3.231,0.78199 25.92369,0.78199 l 25.92368,0 2.03561,2.06664 2.03561,2.06664 -0.95702,2.10393 -0.95701,2.10395 -27.52814,0 -27.52815,0 0,2.0853 0,2.08529 27.08214,0 27.08215,0 0.11352,2.73693 c 0.17474,4.21266 -0.0582,7.13425 -0.65729,8.24399 -0.52994,0.98163 -1.43696,1.00949 -32.86728,1.00949 l -32.32231,0 0,-5.97491 z M 660.65754,418.6027 c 0,-0.98722 0.64873,-2.03927 2.10346,-3.41116 1.83545,-1.73093 2.10347,-2.27751 2.10347,-4.28972 0,-2.4089 -0.58593,-2.91405 -3.41813,-2.94693 -1.9075,-0.0222 -6.51706,-2.51467 -9.12795,-4.93575 -3.57845,-3.31829 -5.44705,-7.57207 -5.4789,-12.47246 -0.0377,-5.79386 1.20826,-8.76634 5.43254,-12.96086 l 3.5439,-3.51893 -4.37368,0 -4.37369,0 -0.35524,-1.69429 c -0.19538,-0.93187 -0.86494,-2.45513 -1.48791,-3.38504 -1.01204,-1.51066 -1.39872,-1.69112 -3.63055,-1.6943 l -2.49787,-0.004 0,-8.60182 0,-8.60183 52.58669,0 52.58669,0 0,7.55918 0,7.55918 1.79867,0 1.79868,0 0.36355,3.36539 0.36354,3.36539 2.43911,0.317 c 4.01632,0.52198 4.10093,0.5779 2.16655,1.43209 -1.01759,0.44935 -3.62064,0.98444 -5.78454,1.18909 -2.74639,0.25974 -5.36342,0.9709 -8.66717,2.35524 -2.60304,1.09072 -7.6908,2.73108 -11.30613,3.64524 -6.46309,1.63423 -6.78943,1.66307 -19.45708,1.71952 -14.66881,0.0654 -17.0922,-0.29806 -25.37166,-3.80486 -8.89868,-3.76908 -16.44059,-4.74169 -22.74515,-2.93322 -2.58841,0.74248 -3.69163,1.44884 -6.14134,3.93208 -6.06482,6.14783 -6.23156,14.21626 -0.42399,20.51576 2.94773,3.19741 5.11034,4.39435 9.08537,5.02846 7.26233,1.1585 14.31891,-2.47913 16.07385,-8.28598 0.95988,-3.1761 0.75473,-7.86346 -0.42835,-9.787 -2.88057,-4.68345 -8.64081,-4.99147 -12.31837,-0.6587 -3.18035,3.74697 -0.45562,9.54393 3.62051,7.70277 1.54084,-0.69599 1.57546,-0.86411 0.49332,-2.39573 -0.94347,-1.33535 -0.61396,-2.20038 0.83818,-2.20038 1.50461,0 2.77506,2.24067 2.35232,4.14875 -0.46996,2.12125 -2.10284,3.14977 -5.00057,3.14977 -2.83738,0 -4.28655,-0.88204 -5.45305,-3.31901 -1.86243,-3.89087 -0.4268,-8.423 3.52895,-11.14053 1.88386,-1.29417 2.52999,-1.43707 6.3491,-1.40415 5.54025,0.0478 10.23784,1.59988 14.67921,4.8501 5.63445,4.12332 12.08439,6.51343 19.24204,7.13039 1.90309,0.16403 4.05177,0.42222 4.77483,0.57374 1.26466,0.26501 1.23629,0.31556 -0.74575,1.32857 -2.18805,1.11832 -5.44968,1.05657 -10.82332,-0.20492 -3.50209,-0.82213 -10.62181,-4.21874 -14.55169,-6.94219 -1.89843,-1.31562 -3.56588,-2.27883 -3.70545,-2.14046 -0.13958,0.13837 0.43867,1.14686 1.28501,2.24109 0.84634,1.09423 2.16572,2.84593 2.93196,3.89267 2.23607,3.05459 7.84337,6.41716 13.46356,8.07378 1.03753,0.30582 -0.89002,1.71409 -2.37647,1.73624 -1.97839,0.0295 -8.57327,-3.64849 -11.71897,-6.53569 l -3.06244,-2.81077 -0.2905,2.79037 c -0.3695,3.54912 -1.83531,6.39185 -4.5492,8.8225 -1.17785,1.05492 -2.14155,2.03595 -2.14155,2.18006 0,0.14411 2.78052,0.27445 6.17894,0.28965 l 6.17893,0.0276 -9.20267,4.63663 c -7.02813,3.54104 -9.71556,4.64319 -11.37321,4.66428 -2.17712,0.0277 -3.00658,0.58729 -4.11933,2.779 -0.85182,1.67778 -1.86106,1.72042 -1.86106,0.0786 l 0,-3e-5 z m 56.44018,-38.85524 c 7.17665,-0.64503 14.80594,-2.38343 18.91269,-4.30942 l 2.73835,-1.28424 -10.85126,-0.0435 -10.85125,-0.0435 -0.91888,1.43363 c -0.50537,0.7885 -1.42,1.9832 -2.03248,2.65489 l -1.1136,1.22126 -0.26294,-2.52456 -0.26292,-2.52456 -16.809,-0.1378 c -10.58452,-0.0868 -16.6212,0.045 -16.30187,0.35593 0.66305,0.64555 7.58567,2.9321 12.15524,4.0149 7.44697,1.76461 15.18052,2.12318 25.59792,1.18688 z m -42.76765,-15.14079 c 0,-1.60748 -3.3659,-10.75553 -4.33565,-11.78367 -1.09311,-1.15894 -1.272,-1.17298 -14.95015,-1.17298 l -13.84381,0 0,6.7772 0,6.77719 16.56481,0 c 12.10434,0 16.5648,-0.16096 16.5648,-0.59774 z m 67.83683,-6.18337 0,-6.78111 -32.99815,0.13424 -32.99814,0.13425 0.14034,1.56397 c 0.0772,0.86018 0.23159,2.89358 0.34311,4.51867 0.20231,2.94797 0.74735,6.07952 1.18702,6.8201 0.12768,0.21504 14.65321,0.39099 32.27897,0.39099 l 32.04685,0 0,-6.78111 z"
       id="path3715"
       sodipodi:nodetypes="csssssssssccsssccssssccssssssccsssssccssssssccssssccccccssssscccssssssssssccccccccccscccccccccccccsccccssssscccccscccccccccccccsssssssssssssssssssssssssssssssscccsscccsscccccccccccccssccscccccccccccssccc"
       inkscape:connector-curvature="0" />
    <rect
       y="532.86218"
       x="380.5"
       height="19"
       width="1249"
       id="rect10989"
       style="fill:#ffffff;fill-opacity:1;stroke:#784421;stroke-width:1;stroke-miterlimit:4;stroke-opacity:1;stroke-dasharray:none" />
    <path
       style="fill:#000000"
       d="m 674.5452,165.40703 c -2.83407,-1.43482 -5.58272,-2.60875 -6.10811,-2.60875 -1.11416,0 -3.28855,-2.41079 -4.76878,-5.28721 l -1.03814,-2.01732 51.33199,0 51.33199,0 -0.81709,1.95656 c -0.44941,1.07612 -1.69597,2.82812 -2.77014,3.89335 -1.89205,1.87629 -2.02403,1.92078 -4.22552,1.42424 -2.98156,-0.67247 -5.48014,0.008 -11.05369,3.01236 -5.05414,2.72396 -6.26166,2.75183 -10.40513,0.24015 -6.7581,-4.0966 -11.79832,-4.20456 -18.83239,-0.40343 -5.55723,3.00308 -6.90199,3.04404 -11.32812,0.34508 -6.62512,-4.03987 -11.2328,-4.13113 -18.49917,-0.36646 -2.56921,1.3311 -5.34483,2.42018 -6.16806,2.42018 -0.82323,0 -3.81557,-1.17394 -6.64964,-2.60875 z m -33.1149,-16.30474 c 0.58675,-0.64567 20.1982,-22.89187 43.581,-49.43599 23.38281,-26.54412 43.07499,-48.84367 43.7604,-49.55456 l 1.24623,-1.29252 0,50.72851 0,50.72849 -44.82722,0 -44.82722,0 1.06681,-1.17393 z m 93.85063,-37.54005 c 0,-23.56184 0.1894,-38.51998 0.48394,-38.21831 0.515,0.52746 46.35674,76.41546 46.35674,76.74054 0,0.10546 -10.53915,0.19175 -23.42034,0.19175 l -23.42034,0 0,-38.71398 z"
       id="path3749"
       sodipodi:nodetypes="cscccccssssssssccsccccccccssccc"
       inkscape:connector-curvature="0" />
    <path
       style="fill:#0060a8;fill-opacity:1;stroke:none"
       d="m 680.09738,174.17395 c -0.12545,-0.0245 -0.51038,-0.1007 -0.85539,-0.16935 -1.00512,-0.2 -2.72326,-0.89601 -5.47453,-2.21768 -1.4114,-0.67802 -2.92545,-1.36775 -3.36455,-1.53275 -2.48079,-0.93217 -5.3253,-0.97997 -7.89661,-0.13268 -0.64213,0.21159 -2.23317,0.87626 -3.53564,1.47703 -2.6754,1.23406 -4.12732,1.82165 -5.45016,2.2057 -0.77141,0.22397 -1.17004,0.26466 -2.62059,0.26752 -2.13413,0.005 -2.42117,-0.0713 -6.6755,-1.75656 -2.09206,-0.8287 -3.18794,-1.32009 -3.28394,-1.47249 -0.26487,-0.42044 -0.39359,-1.99736 -0.2787,-3.41406 0.0591,-0.72919 0.1351,-1.35314 0.16879,-1.38654 0.073,-0.0723 0.39389,0.0491 3.22619,1.22014 2.71817,1.12391 3.87591,1.4982 5.39121,1.74298 1.02945,0.16628 1.36226,0.17485 2.35201,0.0605 1.94561,-0.22482 3.20768,-0.65818 6.96957,-2.39314 3.99232,-1.84125 4.81697,-2.1073 6.90019,-2.22616 1.3567,-0.0775 2.81375,0.0801 3.96638,0.42887 0.42174,0.12759 2.20386,0.90832 3.96027,1.73497 4.76426,2.24224 5.45801,2.46575 7.64269,2.46233 2.08733,-0.004 2.63358,-0.18677 7.35524,-2.4711 2.22459,-1.07626 3.66024,-1.70194 4.23728,-1.84667 1.9279,-0.48357 5.30504,-0.40378 7.02284,0.16594 0.48757,0.1617 2.16493,0.90621 3.72749,1.65447 4.44512,2.12864 5.53076,2.49026 7.48076,2.49183 2.02581,0.002 3.04921,-0.33949 7.8126,-2.60409 1.56822,-0.74557 3.21058,-1.46541 3.64969,-1.59965 1.92899,-0.58973 5.47326,-0.5624 7.31269,0.0564 0.4945,0.16636 2.16292,0.9074 3.7076,1.64677 4.34268,2.07866 5.58214,2.49938 7.3992,2.51163 1.98565,0.0134 3.17905,-0.38325 7.75559,-2.57769 1.72505,-0.82715 3.41873,-1.59819 3.76374,-1.71341 0.5271,-0.17604 0.98251,-0.20904 2.85131,-0.2066 1.2973,0.002 2.5567,0.063 3.02239,0.14725 1.26437,0.22857 3.02853,0.87138 5.24643,1.91165 2.48219,1.16423 3.90272,1.75071 5.06041,2.08925 0.72486,0.21196 1.14676,0.25484 2.52409,0.25653 1.95906,0.003 2.12399,-0.0425 4.59631,-1.25027 1.90216,-0.92927 2.9384,-1.29876 4.56897,-1.62917 0.61851,-0.12533 1.14458,-0.22788 1.16904,-0.22788 0.0935,0 0.0339,4.03614 -0.0661,4.46313 -0.13177,0.56344 -0.30532,0.68884 -1.07804,0.77887 -0.84327,0.0983 -2.286,0.61669 -4.45706,1.60162 -2.67783,1.21486 -3.20449,1.35482 -5.07534,1.34877 -1.47279,-0.005 -1.59373,-0.0233 -2.78243,-0.4264 -0.68349,-0.23176 -2.47981,-1.01208 -3.99183,-1.73401 -4.24033,-2.02462 -4.56413,-2.13537 -6.74087,-2.30554 -1.84192,-0.144 -3.94469,0.0174 -5.15204,0.39554 -0.50225,0.15728 -2.16604,0.90207 -3.69732,1.65507 -4.38702,2.15732 -5.357,2.49688 -7.17515,2.51172 -1.83758,0.0151 -3.16768,-0.42408 -7.64153,-2.52263 -3.26969,-1.5337 -4.3699,-1.89542 -6.17926,-2.03153 -1.59382,-0.1199 -3.56479,-0.007 -4.60538,0.26396 -0.9233,0.24036 -1.83936,0.6298 -4.55544,1.93662 -3.43331,1.65193 -5.03064,2.23836 -6.5045,2.38807 -1.53185,0.15558 -3.4253,-0.42235 -7.52397,-2.29652 -4.73369,-2.16453 -5.29194,-2.32225 -8.21179,-2.31991 -2.93024,0.003 -3.42173,0.14477 -7.85529,2.27628 -2.98307,1.43416 -4.44034,2.00671 -5.65995,2.22374 -0.81227,0.14455 -1.95592,0.18622 -2.45213,0.0893 z"
       id="path3765"
       inkscape:connector-curvature="0" />
    <path
       style="fill:#0060a8;fill-opacity:1;stroke:none"
       d="m 649.41925,182.49352 c -1.28066,-0.19973 -3.15726,-0.83935 -5.97164,-2.03534 l -2.81244,-1.19518 -0.0308,-2.39608 c -0.0169,-1.31784 0.0135,-2.39608 0.0677,-2.39608 0.18471,0 1.35148,0.42727 3.9852,1.45938 3.7295,1.46154 5.08519,1.74278 7.18236,1.48999 2.12818,-0.25653 3.58686,-0.73808 6.90166,-2.27838 3.58205,-1.66452 5.08969,-2.17321 6.8714,-2.31851 1.98811,-0.16214 3.76411,0.3499 7.86964,2.26894 4.47243,2.09053 5.92247,2.51902 8.09774,2.39289 1.86298,-0.10803 3.32321,-0.5905 6.7291,-2.22337 4.03549,-1.93471 5.75395,-2.49487 7.6576,-2.49616 2.10828,-0.002 3.36566,0.38601 7.73951,2.3847 4.19152,1.91537 5.44138,2.29746 7.52747,2.30119 2.0367,0.004 3.28779,-0.38244 7.01423,-2.16459 4.11214,-1.96663 5.80541,-2.52001 7.71463,-2.5213 2.1031,-0.002 3.35995,0.38493 7.7124,2.37068 4.20549,1.9187 5.48868,2.3153 7.49756,2.31732 2.09999,0.002 3.17398,-0.35447 7.09954,-2.35722 1.27039,-0.64813 2.78925,-1.33718 3.37524,-1.53122 1.47575,-0.48865 3.32143,-0.71085 5.37854,-0.64754 2.00347,0.0617 2.24717,0.13706 5.8019,1.79511 3.06921,1.43159 4.34968,1.95197 5.66039,2.3003 1.72502,0.45846 2.76852,0.56977 3.91834,0.41801 1.29109,-0.1704 1.88736,-0.37978 3.83724,-1.34741 1.75018,-0.86852 2.84199,-1.29047 4.02005,-1.55363 0.42358,-0.0946 0.88564,-0.19851 1.02678,-0.23083 l 0.25662,-0.0588 -9.1e-4,2.0091 c -9.2e-4,2.16825 -0.0991,2.7734 -0.48974,3.01338 -0.13803,0.0848 -0.69961,0.26275 -1.24795,0.39545 -1.22814,0.29725 -2.31887,0.72183 -3.99064,1.55342 -2.45573,1.22153 -3.83062,1.54132 -5.57299,1.29626 -1.82307,-0.25643 -3.1884,-0.74285 -7.17741,-2.55713 -3.73205,-1.69761 -5.09953,-2.08801 -7.3133,-2.08801 -2.12384,0 -3.5322,0.41663 -6.8941,2.03945 -4.55691,2.19969 -5.83965,2.633 -7.80143,2.63534 -1.8757,0.002 -3.21169,-0.42472 -7.01423,-2.2416 -3.96401,-1.89402 -5.55065,-2.31065 -8.90181,-2.33744 -2.0531,-0.0164 -2.5172,0.12908 -6.22033,1.95005 -4.61087,2.26734 -5.70485,2.63959 -7.74541,2.63553 -2.03775,-0.004 -3.17906,-0.38331 -7.91611,-2.63046 -1.31151,-0.62215 -2.79989,-1.24326 -3.30753,-1.38024 -1.68416,-0.45446 -5.68104,-0.47869 -7.65208,-0.0463 -0.55852,0.1225 -1.68922,0.6126 -3.76373,1.63138 -4.05991,1.99379 -5.57896,2.49418 -7.56602,2.49238 -1.66722,-0.002 -3.20449,-0.5032 -7.26083,-2.36962 -4.40511,-2.02688 -5.34599,-2.31149 -7.64153,-2.31149 -2.28828,0 -3.20832,0.27567 -7.00553,2.09911 -3.9318,1.88807 -5.62835,2.44345 -7.70726,2.52304 -0.69002,0.0264 -1.56161,1.4e-4 -1.93686,-0.0584 z"
       id="path3767"
       inkscape:connector-curvature="0" />
  </g>
</svg>
