<?xml version="1.0" encoding="UTF-8" standalone="no"?>
<!-- Created with Inkscape (http://www.inkscape.org/) -->

<svg
   xmlns:dc="http://purl.org/dc/elements/1.1/"
   xmlns:cc="http://creativecommons.org/ns#"
   xmlns:rdf="http://www.w3.org/1999/02/22-rdf-syntax-ns#"
   xmlns:svg="http://www.w3.org/2000/svg"
   xmlns="http://www.w3.org/2000/svg"
   xmlns:sodipodi="http://sodipodi.sourceforge.net/DTD/sodipodi-0.dtd"
   xmlns:inkscape="http://www.inkscape.org/namespaces/inkscape"
   version="1.1"
   width="200"
   height="200"
   id="svg2"
   inkscape:version="0.47 r22583"
   sodipodi:docname="Italian traffic signs - icona scuola.svg"
   sodipodi:version="0.32"
   inkscape:output_extension="org.inkscape.output.svg.inkscape">
  <metadata
     id="metadata2877">
    <rdf:RDF>
      <cc:Work
         rdf:about="">
        <dc:format>image/svg+xml</dc:format>
        <dc:type
           rdf:resource="http://purl.org/dc/dcmitype/StillImage" />
        <dc:title></dc:title>
      </cc:Work>
    </rdf:RDF>
  </metadata>
  <sodipodi:namedview
     pagecolor="#ffffff"
     bordercolor="#666666"
     borderopacity="1"
     objecttolerance="10"
     gridtolerance="10"
     guidetolerance="10"
     inkscape:pageopacity="0"
     inkscape:pageshadow="2"
     inkscape:window-width="1600"
     inkscape:window-height="838"
     id="namedview2875"
     showgrid="false"
     inkscape:zoom="2.3765092"
     inkscape:cx="95.405642"
     inkscape:cy="95.435633"
     inkscape:window-x="-8"
     inkscape:window-y="-8"
     inkscape:window-maximized="1"
     inkscape:current-layer="svg2" />
  <defs
     id="defs4">
    <inkscape:perspective
       sodipodi:type="inkscape:persp3d"
       inkscape:vp_x="0 : 100 : 1"
       inkscape:vp_y="0 : 1000 : 0"
       inkscape:vp_z="200 : 100 : 1"
       inkscape:persp3d-origin="100 : 66.666667 : 1"
       id="perspective2879" />
    <inkscape:perspective
       id="perspective2839"
       inkscape:persp3d-origin="0.5 : 0.33333333 : 1"
       inkscape:vp_z="1 : 0.5 : 1"
       inkscape:vp_y="0 : 1000 : 0"
       inkscape:vp_x="0 : 0.5 : 1"
       sodipodi:type="inkscape:persp3d" />
    <inkscape:perspective
       id="perspective3649"
       inkscape:persp3d-origin="0.5 : 0.33333333 : 1"
       inkscape:vp_z="1 : 0.5 : 1"
       inkscape:vp_y="0 : 1000 : 0"
       inkscape:vp_x="0 : 0.5 : 1"
       sodipodi:type="inkscape:persp3d" />
    <inkscape:perspective
       id="perspective3679"
       inkscape:persp3d-origin="0.5 : 0.33333333 : 1"
       inkscape:vp_z="1 : 0.5 : 1"
       inkscape:vp_y="0 : 1000 : 0"
       inkscape:vp_x="0 : 0.5 : 1"
       sodipodi:type="inkscape:persp3d" />
    <inkscape:perspective
       id="perspective3713"
       inkscape:persp3d-origin="0.5 : 0.33333333 : 1"
       inkscape:vp_z="1 : 0.5 : 1"
       inkscape:vp_y="0 : 1000 : 0"
       inkscape:vp_x="0 : 0.5 : 1"
       sodipodi:type="inkscape:persp3d" />
    <inkscape:perspective
       id="perspective3741"
       inkscape:persp3d-origin="0.5 : 0.33333333 : 1"
       inkscape:vp_z="1 : 0.5 : 1"
       inkscape:vp_y="0 : 1000 : 0"
       inkscape:vp_x="0 : 0.5 : 1"
       sodipodi:type="inkscape:persp3d" />
    <inkscape:perspective
       id="perspective3765"
       inkscape:persp3d-origin="0.5 : 0.33333333 : 1"
       inkscape:vp_z="1 : 0.5 : 1"
       inkscape:vp_y="0 : 1000 : 0"
       inkscape:vp_x="0 : 0.5 : 1"
       sodipodi:type="inkscape:persp3d" />
    <inkscape:perspective
       id="perspective3801"
       inkscape:persp3d-origin="0.5 : 0.33333333 : 1"
       inkscape:vp_z="1 : 0.5 : 1"
       inkscape:vp_y="0 : 1000 : 0"
       inkscape:vp_x="0 : 0.5 : 1"
       sodipodi:type="inkscape:persp3d" />
    <inkscape:perspective
       id="perspective2863"
       inkscape:persp3d-origin="0.5 : 0.33333333 : 1"
       inkscape:vp_z="1 : 0.5 : 1"
       inkscape:vp_y="0 : 1000 : 0"
       inkscape:vp_x="0 : 0.5 : 1"
       sodipodi:type="inkscape:persp3d" />
    <inkscape:perspective
       id="perspective3859"
       inkscape:persp3d-origin="0.5 : 0.33333333 : 1"
       inkscape:vp_z="1 : 0.5 : 1"
       inkscape:vp_y="0 : 1000 : 0"
       inkscape:vp_x="0 : 0.5 : 1"
       sodipodi:type="inkscape:persp3d" />
    <inkscape:perspective
       id="perspective3964"
       inkscape:persp3d-origin="0.5 : 0.33333333 : 1"
       inkscape:vp_z="1 : 0.5 : 1"
       inkscape:vp_y="0 : 1000 : 0"
       inkscape:vp_x="0 : 0.5 : 1"
       sodipodi:type="inkscape:persp3d" />
    <inkscape:perspective
       id="perspective3988"
       inkscape:persp3d-origin="0.5 : 0.33333333 : 1"
       inkscape:vp_z="1 : 0.5 : 1"
       inkscape:vp_y="0 : 1000 : 0"
       inkscape:vp_x="0 : 0.5 : 1"
       sodipodi:type="inkscape:persp3d" />
    <inkscape:perspective
       id="perspective2879-7"
       inkscape:persp3d-origin="0.5 : 0.33333333 : 1"
       inkscape:vp_z="1 : 0.5 : 1"
       inkscape:vp_y="0 : 1000 : 0"
       inkscape:vp_x="0 : 0.5 : 1"
       sodipodi:type="inkscape:persp3d" />
    <inkscape:perspective
       id="perspective4031"
       inkscape:persp3d-origin="0.5 : 0.33333333 : 1"
       inkscape:vp_z="1 : 0.5 : 1"
       inkscape:vp_y="0 : 1000 : 0"
       inkscape:vp_x="0 : 0.5 : 1"
       sodipodi:type="inkscape:persp3d" />
    <inkscape:perspective
       id="perspective4047"
       inkscape:persp3d-origin="0.5 : 0.33333333 : 1"
       inkscape:vp_z="1 : 0.5 : 1"
       inkscape:vp_y="0 : 1000 : 0"
       inkscape:vp_x="0 : 0.5 : 1"
       sodipodi:type="inkscape:persp3d" />
    <inkscape:perspective
       id="perspective4063"
       inkscape:persp3d-origin="0.5 : 0.33333333 : 1"
       inkscape:vp_z="1 : 0.5 : 1"
       inkscape:vp_y="0 : 1000 : 0"
       inkscape:vp_x="0 : 0.5 : 1"
       sodipodi:type="inkscape:persp3d" />
    <inkscape:perspective
       id="perspective4079"
       inkscape:persp3d-origin="0.5 : 0.33333333 : 1"
       inkscape:vp_z="1 : 0.5 : 1"
       inkscape:vp_y="0 : 1000 : 0"
       inkscape:vp_x="0 : 0.5 : 1"
       sodipodi:type="inkscape:persp3d" />
    <inkscape:perspective
       id="perspective4097"
       inkscape:persp3d-origin="0.5 : 0.33333333 : 1"
       inkscape:vp_z="1 : 0.5 : 1"
       inkscape:vp_y="0 : 1000 : 0"
       inkscape:vp_x="0 : 0.5 : 1"
       sodipodi:type="inkscape:persp3d" />
    <inkscape:perspective
       id="perspective4115"
       inkscape:persp3d-origin="0.5 : 0.33333333 : 1"
       inkscape:vp_z="1 : 0.5 : 1"
       inkscape:vp_y="0 : 1000 : 0"
       inkscape:vp_x="0 : 0.5 : 1"
       sodipodi:type="inkscape:persp3d" />
    <inkscape:perspective
       id="perspective4129"
       inkscape:persp3d-origin="0.5 : 0.33333333 : 1"
       inkscape:vp_z="1 : 0.5 : 1"
       inkscape:vp_y="0 : 1000 : 0"
       inkscape:vp_x="0 : 0.5 : 1"
       sodipodi:type="inkscape:persp3d" />
    <inkscape:perspective
       id="perspective4153"
       inkscape:persp3d-origin="0.5 : 0.33333333 : 1"
       inkscape:vp_z="1 : 0.5 : 1"
       inkscape:vp_y="0 : 1000 : 0"
       inkscape:vp_x="0 : 0.5 : 1"
       sodipodi:type="inkscape:persp3d" />
    <inkscape:perspective
       id="perspective4179"
       inkscape:persp3d-origin="0.5 : 0.33333333 : 1"
       inkscape:vp_z="1 : 0.5 : 1"
       inkscape:vp_y="0 : 1000 : 0"
       inkscape:vp_x="0 : 0.5 : 1"
       sodipodi:type="inkscape:persp3d" />
    <inkscape:perspective
       id="perspective4195"
       inkscape:persp3d-origin="0.5 : 0.33333333 : 1"
       inkscape:vp_z="1 : 0.5 : 1"
       inkscape:vp_y="0 : 1000 : 0"
       inkscape:vp_x="0 : 0.5 : 1"
       sodipodi:type="inkscape:persp3d" />
    <inkscape:perspective
       id="perspective4213"
       inkscape:persp3d-origin="0.5 : 0.33333333 : 1"
       inkscape:vp_z="1 : 0.5 : 1"
       inkscape:vp_y="0 : 1000 : 0"
       inkscape:vp_x="0 : 0.5 : 1"
       sodipodi:type="inkscape:persp3d" />
    <inkscape:perspective
       id="perspective4267"
       inkscape:persp3d-origin="0.5 : 0.33333333 : 1"
       inkscape:vp_z="1 : 0.5 : 1"
       inkscape:vp_y="0 : 1000 : 0"
       inkscape:vp_x="0 : 0.5 : 1"
       sodipodi:type="inkscape:persp3d" />
    <inkscape:perspective
       id="perspective4283"
       inkscape:persp3d-origin="0.5 : 0.33333333 : 1"
       inkscape:vp_z="1 : 0.5 : 1"
       inkscape:vp_y="0 : 1000 : 0"
       inkscape:vp_x="0 : 0.5 : 1"
       sodipodi:type="inkscape:persp3d" />
    <inkscape:perspective
       id="perspective4314"
       inkscape:persp3d-origin="0.5 : 0.33333333 : 1"
       inkscape:vp_z="1 : 0.5 : 1"
       inkscape:vp_y="0 : 1000 : 0"
       inkscape:vp_x="0 : 0.5 : 1"
       sodipodi:type="inkscape:persp3d" />
    <inkscape:perspective
       id="perspective4330"
       inkscape:persp3d-origin="0.5 : 0.33333333 : 1"
       inkscape:vp_z="1 : 0.5 : 1"
       inkscape:vp_y="0 : 1000 : 0"
       inkscape:vp_x="0 : 0.5 : 1"
       sodipodi:type="inkscape:persp3d" />
    <inkscape:perspective
       id="perspective4346"
       inkscape:persp3d-origin="0.5 : 0.33333333 : 1"
       inkscape:vp_z="1 : 0.5 : 1"
       inkscape:vp_y="0 : 1000 : 0"
       inkscape:vp_x="0 : 0.5 : 1"
       sodipodi:type="inkscape:persp3d" />
    <inkscape:perspective
       id="perspective3742"
       inkscape:persp3d-origin="0.5 : 0.33333333 : 1"
       inkscape:vp_z="1 : 0.5 : 1"
       inkscape:vp_y="0 : 1000 : 0"
       inkscape:vp_x="0 : 0.5 : 1"
       sodipodi:type="inkscape:persp3d" />
    <inkscape:perspective
       id="perspective3776"
       inkscape:persp3d-origin="0.5 : 0.33333333 : 1"
       inkscape:vp_z="1 : 0.5 : 1"
       inkscape:vp_y="0 : 1000 : 0"
       inkscape:vp_x="0 : 0.5 : 1"
       sodipodi:type="inkscape:persp3d" />
    <inkscape:perspective
       id="perspective3792"
       inkscape:persp3d-origin="0.5 : 0.33333333 : 1"
       inkscape:vp_z="1 : 0.5 : 1"
       inkscape:vp_y="0 : 1000 : 0"
       inkscape:vp_x="0 : 0.5 : 1"
       sodipodi:type="inkscape:persp3d" />
    <inkscape:perspective
       id="perspective3808"
       inkscape:persp3d-origin="0.5 : 0.33333333 : 1"
       inkscape:vp_z="1 : 0.5 : 1"
       inkscape:vp_y="0 : 1000 : 0"
       inkscape:vp_x="0 : 0.5 : 1"
       sodipodi:type="inkscape:persp3d" />
    <inkscape:perspective
       id="perspective3824"
       inkscape:persp3d-origin="0.5 : 0.33333333 : 1"
       inkscape:vp_z="1 : 0.5 : 1"
       inkscape:vp_y="0 : 1000 : 0"
       inkscape:vp_x="0 : 0.5 : 1"
       sodipodi:type="inkscape:persp3d" />
    <inkscape:perspective
       id="perspective4354"
       inkscape:persp3d-origin="0.5 : 0.33333333 : 1"
       inkscape:vp_z="1 : 0.5 : 1"
       inkscape:vp_y="0 : 1000 : 0"
       inkscape:vp_x="0 : 0.5 : 1"
       sodipodi:type="inkscape:persp3d" />
    <inkscape:perspective
       id="perspective4395"
       inkscape:persp3d-origin="0.5 : 0.33333333 : 1"
       inkscape:vp_z="1 : 0.5 : 1"
       inkscape:vp_y="0 : 1000 : 0"
       inkscape:vp_x="0 : 0.5 : 1"
       sodipodi:type="inkscape:persp3d" />
    <inkscape:perspective
       id="perspective4435"
       inkscape:persp3d-origin="0.5 : 0.33333333 : 1"
       inkscape:vp_z="1 : 0.5 : 1"
       inkscape:vp_y="0 : 1000 : 0"
       inkscape:vp_x="0 : 0.5 : 1"
       sodipodi:type="inkscape:persp3d" />
    <inkscape:perspective
       id="perspective4460"
       inkscape:persp3d-origin="0.5 : 0.33333333 : 1"
       inkscape:vp_z="1 : 0.5 : 1"
       inkscape:vp_y="0 : 1000 : 0"
       inkscape:vp_x="0 : 0.5 : 1"
       sodipodi:type="inkscape:persp3d" />
    <inkscape:perspective
       id="perspective4479"
       inkscape:persp3d-origin="0.5 : 0.33333333 : 1"
       inkscape:vp_z="1 : 0.5 : 1"
       inkscape:vp_y="0 : 1000 : 0"
       inkscape:vp_x="0 : 0.5 : 1"
       sodipodi:type="inkscape:persp3d" />
    <inkscape:perspective
       id="perspective4495"
       inkscape:persp3d-origin="0.5 : 0.33333333 : 1"
       inkscape:vp_z="1 : 0.5 : 1"
       inkscape:vp_y="0 : 1000 : 0"
       inkscape:vp_x="0 : 0.5 : 1"
       sodipodi:type="inkscape:persp3d" />
    <inkscape:perspective
       id="perspective4511"
       inkscape:persp3d-origin="0.5 : 0.33333333 : 1"
       inkscape:vp_z="1 : 0.5 : 1"
       inkscape:vp_y="0 : 1000 : 0"
       inkscape:vp_x="0 : 0.5 : 1"
       sodipodi:type="inkscape:persp3d" />
    <inkscape:perspective
       id="perspective4527"
       inkscape:persp3d-origin="0.5 : 0.33333333 : 1"
       inkscape:vp_z="1 : 0.5 : 1"
       inkscape:vp_y="0 : 1000 : 0"
       inkscape:vp_x="0 : 0.5 : 1"
       sodipodi:type="inkscape:persp3d" />
    <inkscape:perspective
       id="perspective4543"
       inkscape:persp3d-origin="0.5 : 0.33333333 : 1"
       inkscape:vp_z="1 : 0.5 : 1"
       inkscape:vp_y="0 : 1000 : 0"
       inkscape:vp_x="0 : 0.5 : 1"
       sodipodi:type="inkscape:persp3d" />
    <inkscape:perspective
       id="perspective4559"
       inkscape:persp3d-origin="0.5 : 0.33333333 : 1"
       inkscape:vp_z="1 : 0.5 : 1"
       inkscape:vp_y="0 : 1000 : 0"
       inkscape:vp_x="0 : 0.5 : 1"
       sodipodi:type="inkscape:persp3d" />
  </defs>
  <path
     style="fill:#ffffff;fill-opacity:1;stroke:none"
     d="m -4.9305571,-3.438081 207.7153771,0 0,207.348391 -207.7153771,0 0,-207.348391 z"
     id="rect2881" />
  <path
     style="fill:none;stroke:#000000;stroke-width:3;stroke-miterlimit:4;stroke-opacity:1"
     d="m 21.814432,2.8621521 157.645218,0 c 10.29357,0 18.58045,8.2868829 18.58045,18.5804539 l 0,157.645234 c 0,10.29357 -8.28688,18.58045 -18.58045,18.58045 l -157.645218,0 c -10.293571,0 -18.5804535,-8.28688 -18.5804535,-18.58045 l 0,-157.645234 c 0,-10.293571 8.2868825,-18.5804539 18.5804535,-18.5804539 z"
     id="rect4614" />
  <path
     style="fill:#000000"
     d="m 95.724494,169.54898 c -13.067429,-1.10782 -23.92527,-4.60032 -32.818828,-10.55641 -2.829672,-1.89505 -10.474094,-9.28986 -10.474094,-10.13209 0,-0.25215 0.471334,-0.34308 1.047409,-0.20208 0.576076,0.14101 3.955377,0.43161 7.509553,0.64577 6.656515,0.4011 15.0908,0.03 20.423427,-0.89866 l 3.037897,-0.52902 2.14002,2.14001 c 3.146679,3.14668 7.154668,5.55046 11.785381,7.06826 3.783821,1.24021 4.636451,1.34331 11.081931,1.34005 6.6373,-0.003 7.1845,-0.0756 11.06121,-1.45927 5.54925,-1.98069 8.79106,-3.99129 12.66445,-7.85464 3.83322,-3.82328 6.28888,-7.82112 7.78558,-12.67501 l 1.07484,-3.48574 4.77278,0.21024 c 2.62503,0.11562 4.91638,0.35381 5.09188,0.52932 0.56619,0.56619 -1.22302,6.84953 -3.05473,10.7276 -7.16007,15.15921 -23.78136,24.2958 -45.68046,25.11018 -2.94439,0.1095 -6.296096,0.11917 -7.448246,0.0215 l 0,-1e-5 z M 39.164386,142.4539 c -15.618038,-2.16988 -28.473961,-4.00979 -28.568718,-4.08868 -0.236308,-0.19673 0.303837,-2.13882 0.811864,-2.91904 0.349105,-0.53616 0.77505,-0.52245 2.680828,0.0863 3.274085,1.04581 6.54403,1.61529 13.838481,2.41002 6.759151,0.73642 10.155205,0.52009 14.398743,-0.91717 3.293282,-1.11543 5.662105,-1.30148 9.127745,-0.71693 3.567662,0.60177 9.654042,3.32211 13.943072,6.23193 1.369904,0.92939 2.553375,1.6898 2.629933,1.6898 0.07656,0 1.260029,-0.76144 2.629933,-1.69209 4.89002,-3.32204 10.549345,-5.72544 14.82689,-6.29667 3.803214,-0.50788 4.128628,-0.47605 8.379276,0.81962 7.849717,2.39272 18.307077,1.67539 27.048447,-1.85541 l 2.72419,-1.10035 0.29881,1.5928 c 0.16434,0.87603 0.16528,1.72631 0.002,1.88951 -0.22463,0.22463 -47.090535,7.5778 -54.978594,8.62603 -0.7681,0.10207 -14.174941,-1.58978 -29.792979,-3.75967 l 7.9e-5,0 z m 26.659125,-2.5809 c -4.534403,-3.22384 -13.312634,-6.34972 -17.831544,-6.34972 -1.079707,0 -4.031315,0.63861 -6.55913,1.41913 -3.023485,0.93356 -5.631329,1.42862 -7.621877,1.44687 -3.900962,0.0358 -14.205845,-1.71357 -17.869172,-3.03345 l -2.846258,-1.0255 0.146781,-1.84748 c 0.126335,-1.59014 1.583127,-3.74944 10.458468,-15.50185 9.387896,-12.43112 10.417348,-13.63533 11.491102,-13.44181 0.648677,0.11691 2.661012,0.48453 4.471855,0.81692 3.124173,0.57347 3.492937,0.54337 7.215486,-0.58911 2.157678,-0.6564 4.522807,-1.33105 5.255845,-1.49922 2.865498,-0.657378 9.224539,1.53197 13.284032,4.57355 0.870318,0.65209 1.812987,1.04737 2.094819,0.87842 0.281828,-0.16896 1.630337,-1.01798 2.99669,-1.8867 3.975361,-2.52752 7.120405,-3.81739 9.319793,-3.82232 1.749932,-0.004 1.982224,0.10723 1.692869,0.8101 -0.18446,0.44806 -0.440787,1.18125 -0.569614,1.6293 -0.146227,0.50856 -0.694851,0.81636 -1.460111,0.8192 -1.736345,0.006 -5.462338,1.85382 -8.324983,4.12759 l -2.443955,1.94121 0,11.85982 c 0,6.52289 0.07115,11.85981 0.158122,11.85981 0.08697,0 2.180906,-1.02986 4.653202,-2.28858 7.25325,-3.69286 11.651336,-4.14091 20.476509,-2.08602 4.433191,1.03224 5.926946,1.17703 10.09133,0.97815 4.69619,-0.22428 10.67726,-1.29755 12.07066,-2.16601 0.54883,-0.34207 0.4468,-0.70157 -0.5819,-2.05026 -0.68608,-0.89951 -1.24742,-1.73368 -1.24742,-1.85372 0,-0.12004 0.99503,0.0727 2.21119,0.4284 2.68213,0.78438 5.53086,3.6925 5.98419,6.10895 0.35554,1.89519 0.10479,2.13609 -3.30747,3.17744 -6.90724,2.10794 -18.25801,2.75782 -24.439557,1.39926 -4.840195,-1.06376 -9.392511,-1.00592 -13.693234,0.17396 -3.722954,1.02138 -8.346573,3.12803 -10.746318,4.89633 -0.768101,0.56599 -1.621437,1.16086 -1.896305,1.32194 -0.274868,0.16107 -1.46021,-0.39 -2.634095,-1.2246 z M 65.466,121.01098 l 0,-12.04679 -2.443955,-1.86379 c -3.190386,-2.43302 -4.95082,-3.29578 -7.84485,-3.84462 -2.06767,-0.39212 -2.828578,-0.29357 -5.889201,0.76282 -3.107301,1.0725 -4.005729,1.18408 -7.750205,0.96259 -2.329505,-0.13781 -4.635981,-0.31851 -5.125502,-0.40158 -0.687833,-0.11672 -2.823823,2.44007 -9.401874,11.25409 -4.68151,6.27282 -8.523001,11.54478 -8.536647,11.71547 -0.06262,0.78332 8.820459,2.34729 13.707891,2.41344 4.300678,0.0582 5.939325,-0.14594 10.233007,-1.27487 4.839596,-1.27246 5.303384,-1.31492 8.693285,-0.79599 4.322333,0.66168 8.200732,1.93924 11.332202,3.73287 1.280167,0.73325 2.484688,1.35568 2.676713,1.38316 0.192025,0.0275 0.349136,-5.37107 0.349136,-11.9968 z m 95.89615,9.70002 -28.16368,-2.17237 -26.99988,-10.15072 c -14.84994,-5.5829 -27.076154,-10.21109 -27.169369,-10.28486 -0.189977,-0.15037 1.773655,-3.44172 2.053341,-3.44172 0.09824,0 1.170897,0.62928 2.383671,1.3984 2.489953,1.57908 10.048781,4.59653 15.975689,6.37742 3.245148,0.97509 5.103898,1.21436 10.254768,1.3201 9.4173,0.19331 13.24957,1.89416 20.57835,9.13314 l 3.60955,3.56533 2.28449,-0.86804 c 1.25647,-0.47742 4.4538,-1.42273 7.10518,-2.10069 3.97057,-1.01528 5.50604,-1.19168 8.70693,-1.00027 3.57086,0.21352 4.30749,0.44388 9.07755,2.83869 5.61132,2.81716 8.46551,3.69671 14.68188,4.52437 3.7353,0.49733 9.59704,0.34477 13.01447,-0.33872 1.42862,-0.28572 1.46901,-0.24816 1.46901,1.36622 0,0.91301 -0.15711,1.73788 -0.34914,1.83305 -0.19202,0.0952 -13.02279,-0.80453 -28.51281,-1.99933 z m 11.74571,-3.53366 c -4.33816,-0.58948 -5.30345,-0.91792 -10.44132,-3.55263 l -5.66125,-2.9031 -7.0155,0.007 c -6.67828,0.007 -7.22127,0.079 -11.2965,1.49567 l -4.281,1.48824 -3.94544,-3.90127 c -3.20572,-3.16984 -4.77953,-4.31533 -8.39437,-6.10983 l -4.44895,-2.20858 -8.27281,-0.31998 c -7.70891,-0.2982 -8.52665,-0.41737 -11.996923,-1.74834 -9.371251,-3.59421 -14.663731,-6.16303 -14.663731,-7.11737 0,-1.42543 3.342967,-4.581972 15.25555,-14.404819 7.296814,-6.016785 13.625554,-11.114461 14.063864,-11.328169 0.55863,-0.272369 1.49227,0.03929 3.12214,1.042144 4.10613,2.526528 5.82232,2.911453 11.40557,2.558165 4.79104,-0.303163 5.0919,-0.265842 7.54954,0.93657 1.6568,0.810597 3.62412,2.402049 5.57754,4.511923 l 3.0179,3.259607 1.90382,-0.971255 c 1.04711,-0.534193 3.36878,-1.302088 5.15928,-1.706435 4.45029,-1.005006 7.50938,-0.574083 10.99288,1.548523 4.64334,2.829327 5.60404,3.116671 10.52129,3.146869 l 4.54386,0.02788 7.44316,16.044207 c 5.82984,12.56663 7.44315,16.46174 7.44315,17.97051 l 0,1.9263 -3.2319,0.53374 c -4.05775,0.67012 -8.23965,0.60426 -14.34985,-0.22602 l 0,4.5e-4 z m 13.25557,-6.39677 c 0.26695,-0.26695 -11.49419,-25.231882 -12.58312,-26.709711 -0.28397,-0.385396 -1.75075,-0.581894 -4.34359,-0.581894 -4.39375,0 -6.04724,-0.530101 -9.87688,-3.166477 -2.27783,-1.568088 -2.77545,-1.71986 -5.58619,-1.703758 -2.38066,0.01364 -3.67052,0.303921 -5.64593,1.270619 -5.08053,2.486247 -4.81904,1.967431 -7.4408,14.762901 -1.28426,6.26783 -2.33502,11.56006 -2.33502,11.76051 0,0.20046 0.75026,0.051 1.66725,-0.33216 3.03037,-1.26617 9.5199,-2.22072 13.73306,-2.02002 3.76076,0.17916 4.34803,0.35918 10.00858,3.06801 7.07389,3.38517 11.2314,4.34614 17.78107,4.1099 2.37569,-0.0857 4.4554,-0.29175 4.62157,-0.45792 z M 138.11241,103.628 140.8045,91.859661 139.60821,90.230358 c -4.90123,-6.675257 -8.08961,-8.209101 -14.5266,-6.988353 -2.97535,0.564265 -5.70403,0.02584 -9.52715,-1.879876 -2.26036,-1.126729 -2.87942,-1.267286 -3.49137,-0.792721 -1.04176,0.807892 -21.084124,17.582283 -21.87024,18.304237 -0.53416,0.49056 -0.155608,0.837587 2.223995,2.038805 1.577249,0.7962 4.799677,2.11378 7.160947,2.92796 4.090218,1.41033 4.656408,1.48403 11.974218,1.55863 6.72208,0.0685 8.00065,0.20647 10.24134,1.10496 3.69573,1.48195 7.2807,3.76929 10.47503,6.68342 1.53569,1.40099 2.8731,2.47112 2.97204,2.37808 0.099,-0.093 1.39134,-5.46492 2.87199,-11.9375 z m -74.890971,-2.99869 c -5.019516,-3.152993 -7.626071,-3.771407 -11.990533,-2.844799 -1.771952,0.376202 -3.588323,0.842904 -4.036381,1.037122 -0.770051,0.333793 -0.814652,-0.996915 -0.814652,-24.305451 0,-13.562219 -0.195465,-25.689255 -0.434363,-26.948967 C 44.57644,40.34814 41.319892,36.074624 35.915882,34.405496 34.19217,33.873095 31.756516,33.437495 30.503318,33.437495 l -2.278541,0 0,-3.025849 0,-3.02585 34.448131,0 34.448132,0 0,2.793092 c 0,2.779264 -0.0067,2.793092 -1.366111,2.793092 -1.777905,0 -7.142419,1.142752 -9.806256,2.088934 -1.152151,0.409238 -2.886726,1.516992 -3.854616,2.461675 -3.127373,3.052394 -3.128114,3.060169 -3.128114,32.922848 l 0,26.597625 -2.676712,0.838067 c -3.32742,1.041809 -4.570592,1.673202 -7.153495,3.633181 l -2.040432,1.54835 -3.873865,-2.43335 z M 142.74154,65.808267 c 0,-19.119506 -0.0514,-20.369879 -0.93476,-22.730805 -2.0239,-5.409374 -6.7061,-8.702567 -13.84535,-9.738031 l -3.8405,-0.55702 0,-2.698307 0,-2.698308 21.43803,0 21.43803,0 -0.14071,2.382246 -0.1407,2.382246 -2.65451,0.819115 c -5.66649,1.748535 -8.32237,4.229066 -9.97122,9.312882 -0.7282,2.245242 -0.85088,4.887957 -0.99683,21.473842 l -0.16643,18.913509 -2.25355,0.298944 c -1.23946,0.16442 -3.47873,0.920259 -4.97615,1.679644 -1.49743,0.759386 -2.77496,1.383358 -2.83897,1.386598 -0.064,0.0033 -0.11638,-9.098705 -0.11638,-20.226555 z"
     id="path4565"
     sodipodi:nodetypes="csssscccsssscccssscccssssssssssscccsscccssscccsssssssssssscccssssssssssssssccccsssssssssssccccssssscccssssssscccccccccccssssssscccsscccccccccsssssssssssccccssssssssssccssssscccccccssscccccccscccccccccscccssc" />
</svg>
