<?xml version="1.0" encoding="UTF-8" standalone="no"?>
<!-- Created with Inkscape (http://www.inkscape.org/) -->

<svg
   xmlns:dc="http://purl.org/dc/elements/1.1/"
   xmlns:cc="http://creativecommons.org/ns#"
   xmlns:rdf="http://www.w3.org/1999/02/22-rdf-syntax-ns#"
   xmlns:svg="http://www.w3.org/2000/svg"
   xmlns="http://www.w3.org/2000/svg"
   xmlns:sodipodi="http://sodipodi.sourceforge.net/DTD/sodipodi-0.dtd"
   xmlns:inkscape="http://www.inkscape.org/namespaces/inkscape"
   width="1251"
   height="951"
   id="svg3695"
   version="1.1"
   inkscape:version="0.48.5 r10040"
   sodipodi:docname="CANC Terni.svg">
  <defs
     id="defs3697" />
  <sodipodi:namedview
     id="base"
     pagecolor="#ffffff"
     bordercolor="#666666"
     borderopacity="1.0"
     inkscape:pageopacity="0.0"
     inkscape:pageshadow="2"
     inkscape:zoom="0.35"
     inkscape:cx="890.98737"
     inkscape:cy="519.61748"
     inkscape:document-units="px"
     inkscape:current-layer="layer1"
     showgrid="false"
     fit-margin-top="0"
     fit-margin-left="0"
     fit-margin-right="0"
     fit-margin-bottom="0"
     inkscape:window-width="1366"
     inkscape:window-height="705"
     inkscape:window-x="-8"
     inkscape:window-y="-8"
     inkscape:window-maximized="1" />
  <metadata
     id="metadata3700">
    <rdf:RDF>
      <cc:Work
         rdf:about="">
        <dc:format>image/svg+xml</dc:format>
        <dc:type
           rdf:resource="http://purl.org/dc/dcmitype/StillImage" />
        <dc:title />
      </cc:Work>
    </rdf:RDF>
  </metadata>
  <g
     inkscape:label="Livello 1"
     inkscape:groupmode="layer"
     id="layer1"
     transform="translate(0.5,-101.875)">
    <rect
       y="802.36212"
       x="0"
       height="250"
       width="1250"
       id="rect5878"
       style="fill:#00408b;fill-opacity:1;stroke:#00408b;stroke-width:1;stroke-miterlimit:4;stroke-opacity:1;stroke-dasharray:none" />
    <rect
       style="fill:#ffffff;fill-opacity:1;stroke-width:22.5;stroke-miterlimit:4;stroke-dasharray:none"
       id="rect5880"
       width="1250"
       height="20"
       x="0"
       y="1032.3622" />
    <rect
       y="862.36212"
       x="459.99994"
       height="110"
       width="750"
       id="rect5886"
       style="fill:none;stroke:#ffffff;stroke-width:5;stroke-miterlimit:4;stroke-opacity:1;stroke-dasharray:10, 10;stroke-dashoffset:0" />
    <path
       inkscape:connector-curvature="0"
       d="m 210.00023,917.36233 0,17.704 -109.5611,0 72.768,72.29497 -52.369,0 -90.838004,-89.99897 90.838104,-90.00091 52.3689,0 -72.768,72.29491 109.5611,0 z"
       style="fill:#ffffff;fill-opacity:1;fill-rule:evenodd;stroke-width:3.53692007"
       id="path5900" />
    <rect
       ry="9.6265411"
       y="875.06189"
       x="242.7002"
       height="84.599998"
       width="174.60001"
       id="rect5918"
       style="fill:none;stroke:#ffffff;stroke-width:5.4000001;stroke-miterlimit:4;stroke-opacity:1;stroke-dasharray:none"
       rx="9.6265411" />
    <g
       style="font-size:85.96012878px;font-style:normal;font-weight:normal;line-height:125%;letter-spacing:0px;word-spacing:0px;fill:#ffffff;fill-opacity:1;stroke:none;font-family:Sans"
       id="text11732">
      <path
         d="m 276.83132,886.56927 c 7.39242,0.17145 12.72208,3.95336 15.98898,11.34575 l -8.85362,5.58762 c -2.12139,-4.06956 -4.58554,-6.10436 -7.39244,-6.10441 -1.26095,5e-5 -2.33563,0.44426 -3.22403,1.33263 -0.88844,0.88848 -1.39036,2.04885 -1.50577,3.48112 -0.11369,1.1473 0.34538,2.32253 1.37723,3.5257 0.34276,0.40054 1.34573,1.31782 3.00892,2.75184 4.35464,3.38059 9.28293,7.56387 14.78489,12.54984 2.1773,2.75099 3.26596,6.10356 3.266,10.05772 -4e-5,4.52607 -1.37552,8.42253 -4.12644,11.6894 -3.09552,3.60966 -7.1931,5.50105 -12.29276,5.67419 -7.56385,0.2291 -13.03691,-4.01189 -16.41921,-12.72298 l 9.1999,-5.24397 c 1.94822,4.75692 4.26896,7.13537 6.96222,7.13536 0.80271,10e-6 1.60456,-0.20023 2.40556,-0.60073 2.06364,-1.03182 3.09547,-2.7798 3.09549,-5.24397 -2e-5,-1.77682 -0.63049,-3.26685 -1.89139,-4.47009 -3.20919,-2.69323 -6.41835,-5.38647 -9.6275,-8.07975 -4.75691,-3.95415 -7.62242,-6.81966 -8.59653,-8.59654 -1.49004,-2.57953 -2.23505,-5.27278 -2.23505,-8.07975 0,-4.35636 1.63343,-8.13915 4.90031,-11.34837 3.26687,-3.2091 6.99194,-4.75597 11.17524,-4.64061 z"
         style="font-variant:normal;font-stretch:normal;text-align:center;text-anchor:middle;fill:#ffffff;font-family:CodiceBiancoCondensed;-inkscape-font-specification:CodiceBiancoCondensed"
         id="path4715" />
      <path
         d="m 315.782,886.56927 c 7.39242,0.17145 12.72208,3.95336 15.98899,11.34575 l -8.85362,5.58762 c -2.1214,-4.06956 -4.58554,-6.10436 -7.39245,-6.10441 -1.26095,5e-5 -2.33562,0.44426 -3.22403,1.33263 -0.88844,0.88848 -1.39036,2.04885 -1.50577,3.48112 -0.11369,1.1473 0.34539,2.32253 1.37723,3.5257 0.34276,0.40054 1.34573,1.31782 3.00892,2.75184 4.35465,3.38059 9.28294,7.56387 14.78489,12.54984 2.1773,2.75099 3.26597,6.10356 3.266,10.05772 -3e-5,4.52607 -1.37551,8.42253 -4.12644,11.6894 -3.09552,3.60966 -7.1931,5.50105 -12.29276,5.67419 -7.56385,0.2291 -13.03691,-4.01189 -16.4192,-12.72298 l 9.19989,-5.24397 c 1.94822,4.75692 4.26896,7.13537 6.96223,7.13536 0.8027,10e-6 1.60456,-0.20023 2.40556,-0.60073 2.06363,-1.03182 3.09546,-2.7798 3.09549,-5.24397 -3e-5,-1.77682 -0.63049,-3.26685 -1.8914,-4.47009 -3.20918,-2.69323 -6.41835,-5.38647 -9.62749,-8.07975 -4.75692,-3.95415 -7.62243,-6.81966 -8.59654,-8.59654 -1.49004,-2.57953 -2.23505,-5.27278 -2.23505,-8.07975 0,-4.35636 1.63344,-8.13915 4.90032,-11.34837 3.26686,-3.2091 6.99194,-4.75597 11.17523,-4.64061 z"
         style="font-variant:normal;font-stretch:normal;text-align:center;text-anchor:middle;fill:#ffffff;font-family:CodiceBiancoCondensed;-inkscape-font-specification:CodiceBiancoCondensed"
         id="path4717" />
      <path
         d="m 393.61517,887.25657 0,60.43022 -12.20619,0 0,-40.23085 -6.61857,0 0,-8.94019 c 5.61559,-0.40043 8.36655,-4.15349 8.25288,-11.25918 z"
         style="font-variant:normal;font-stretch:normal;text-align:center;text-anchor:middle;fill:#ffffff;font-family:CodiceBiancoCondensed;-inkscape-font-specification:CodiceBiancoCondensed"
         id="path4719" />
    </g>
    <rect
       y="452.36212"
       x="0"
       height="250"
       width="1250"
       id="rect9740"
       style="fill:#08842c;fill-opacity:1;stroke:#08842c;stroke-width:1;stroke-miterlimit:4;stroke-opacity:1;stroke-dasharray:none" />
    <rect
       style="fill:#ffffff;fill-opacity:1;stroke-width:22.5;stroke-miterlimit:4;stroke-dasharray:none"
       id="rect9742"
       width="1250"
       height="20"
       x="0"
       y="682.36218" />
    <path
       inkscape:export-ydpi="90"
       inkscape:export-xdpi="90"
       inkscape:export-filename="C:\Users\utente\Desktop\A1.png"
       style="fill:none;stroke:#ffffff;stroke-width:5.4000001;stroke-linecap:butt;stroke-linejoin:miter;stroke-miterlimit:4;stroke-opacity:1;stroke-dasharray:none"
       d="m 397.28982,644.31174 c 4.2785,-0.6483 9.1607,-5.5323 9.8894,-9.9877 l 10.1214,-66.9655 -10.1214,-66.95891 c -0.7287,-4.4554 -5.6109,-9.3394 -9.8894,-9.9878 l -67.2944,-10.35 -67.2842,10.35 c -4.2784,0.6484 -9.1608,5.5324 -9.8894,9.9878 l -10.1213,66.95891 10.1213,66.9655 c 0.7286,4.4554 5.611,9.3394 9.8894,9.9877 l 67.2825,10.3501 z"
       id="path9746"
       inkscape:connector-curvature="0"
       sodipodi:nodetypes="ccccccccccccc" />
    <rect
       y="517.36218"
       x="460.00049"
       height="100"
       width="750"
       id="rect9748"
       style="fill:none;stroke:#ffffff;stroke-width:5;stroke-miterlimit:4;stroke-opacity:1;stroke-dasharray:10, 10;stroke-dashoffset:0" />
    <path
       inkscape:connector-curvature="0"
       d="m 210.00062,567.36274 0,17.704 -109.5611,0 72.768,72.295 -52.369,0 -90.837899,-89.999 90.837999,-90.00091 52.3689,0 -72.768,72.2949 109.5611,0 z"
       style="fill:#ffffff;fill-opacity:1;fill-rule:evenodd;stroke-width:3.53692007"
       id="path9750" />
    <g
       style="font-size:100.28681183px;font-style:normal;font-weight:normal;line-height:125%;letter-spacing:0px;word-spacing:0px;fill:#ffffff;fill-opacity:1;stroke:none;font-family:Sans"
       id="text4606">
      <path
         d="m 313.591,530.5351 11.23208,69.49807 -14.84042,0 -1.8057,-13.73863 -10.22823,0 -2.00769,13.73863 -14.54049,0 11.93293,-69.49807 z m -10.22822,17.55202 -3.91134,27.57827 7.42174,0 z"
         style="font-variant:normal;font-stretch:normal;text-align:center;word-spacing:-15px;text-anchor:middle;fill:#ffffff;font-family:CodiceBiancoCondensed;-inkscape-font-specification:CodiceBiancoCondensed"
         id="path4710" />
      <path
         d="m 378.43361,529.83424 0,70.50192 -14.24056,0 0,-46.93599 -7.72167,0 0,-10.43022 c 6.55152,-0.46718 9.76098,-4.84574 9.62837,-13.13571 z"
         style="font-variant:normal;font-stretch:normal;text-align:center;word-spacing:-15px;text-anchor:middle;fill:#ffffff;font-family:CodiceBiancoCondensed;-inkscape-font-specification:CodiceBiancoCondensed"
         id="path4712" />
    </g>
    <rect
       y="102.36215"
       x="0"
       height="250"
       width="1250"
       id="rect6138"
       style="fill:#ffffff;fill-opacity:1;stroke:#000000;stroke-width:1;stroke-miterlimit:4;stroke-opacity:1;stroke-dasharray:none" />
    <rect
       style="fill:#000000;fill-opacity:1;stroke-width:22.5;stroke-miterlimit:4;stroke-dasharray:none"
       id="rect6140"
       width="1250"
       height="20"
       x="0"
       y="332.36218" />
    <path
       inkscape:connector-curvature="0"
       d="m 119.99943,307.36123 -17.704,0 0,-109.56099 -72.294997,72.76799 0,-52.369 89.998997,-90.83799 90.001,90.83799 0,52.369 -72.295,-72.76799 0,109.56099 z"
       style="fill:#000000;fill-opacity:1;fill-rule:evenodd;stroke-width:3.53692007"
       id="path6142" />
    <rect
       y="167.36215"
       x="460"
       height="100"
       width="750"
       id="rect6148"
       style="fill:none;stroke:#000000;stroke-width:5;stroke-miterlimit:4;stroke-opacity:1;stroke-dasharray:10, 10;stroke-dashoffset:0" />
    <rect
       ry="20.281109"
       rx="20.281109"
       y="129.625"
       x="242.25"
       height="175.5"
       width="175.5"
       id="rect19093"
       style="fill:#ffffff;fill-opacity:1;stroke:#000000;stroke-width:4.5;stroke-linejoin:miter;stroke-miterlimit:4;stroke-opacity:1;stroke-dasharray:none" />
    <g
       id="g18486"
       transform="matrix(0.9,0,0,0.9,884.00612,-260.93685)">
      <path
         inkscape:connector-curvature="0"
         id="path18492-1"
         d="m -643.99182,564.56812 c -3.167,0 -5.744,-2.645 -5.744,-5.896 0,-3.251 2.577,-5.896 5.744,-5.896 3.167,0 5.744,2.645 5.744,5.896 0,3.252 -2.577,5.896 -5.744,5.896 z m -45.815,0 c -3.167,0 -5.744,-2.645 -5.744,-5.896 0,-3.251 2.577,-5.896 5.744,-5.896 3.167,0 5.744,2.645 5.744,5.896 0,3.252 -2.577,5.896 -5.744,5.896 z m -2.16,18.206 c -5.952,-1.414 -8.567,-4.923 -9.366,-12.564 l -0.494,-4.73 33.674,0.014 c 37.803,0.015 37.201,-0.049 54.852,5.898 17.241,5.809 24.606,6.794 54.975,7.352 l 25.908,0.476 -4.247,4.318 c -0.001,-0.002 -153.91,-0.433 -155.302,-0.764 l 0,0 z m 115.191,-11.928 c -7.194,-1.014 -19.2,-5.282 -26.319,-9.355 -3.328,-1.904 -27.153,-19.969 -28.376,-20.594 -4.844,-2.474 -10.567,-2.897 -39.23,-2.897 h -28.686 c 0,0 2.008,-15.927 2.218,-16.683 0.355,-1.278 2.488,-1.374 30.593,-1.374 25.304,0 30.581,0.191 32.486,1.176 1.251,0.647 7.127,6.712 13.058,13.478 5.931,6.766 12.161,13.567 13.844,15.114 5.051,4.642 13.879,10.14 20.172,12.563 10.431,4.017 16.16,4.774 36.114,4.774 h 18.09 v 4.71 c 10e-4,0.002 -41.157,-0.516 -43.964,-0.912 l 0,0 0,0 z m 1.078,-10.061 c -6.039,-1.583 -13.501,-5.065 -19.125,-8.923 -7.097,-4.869 -12.883,-11.841 -23.198,-27.954 -8.746,-13.663 -10.674,-16.191 -13.71,-17.978 l -3.533,-2.08 -26.912,-0.235 c -18.624,-0.162 -26.754,-0.49 -26.4,-1.063 0.282,-0.456 1.904,-1.452 3.606,-2.214 2.634,-1.179 3.834,-2.655 8.069,-9.928 l 4.975,-8.543 -2.329,-0.25 c -1.921,-0.206 -2.166,-0.447 -1.396,-1.374 1.293,-1.557 53.66,-1.698 53.15,-0.143 -0.177,0.54 -1.574,1.088 -3.104,1.219 l -2.782,0.238 4.269,17.034 4.269,17.034 7.196,11.384 c 10.802,17.088 19.801,25.321 32.738,29.951 4.735,1.695 6.526,1.845 24.848,2.08 18.359,0.236 19.842,0.361 21.123,1.776 1.359,1.502 1.13,1.521 -17.39,1.479 -15.712,-0.036 -19.68,-0.282 -24.364,-1.51 z m -50.991,-64.099 c -1.874,-7.179 -3.576,-13.576 -3.732,-13.377 -0.661,0.842 -8.551,14.485 -9.445,16.223 0,0 1.432,0.115 2.835,0.407 3.819,0.796 8.907,3.992 11.254,7.069 1.145,1.502 2.175,2.73 2.289,2.73 0.114,0 -1.327,-5.873 -3.201,-13.052 l 0,0 z m -10.735,-5.78 c 2.699,-4.735 4.907,-8.8 4.907,-9.034 0,-0.234 -8.366,-0.33 -18.591,-0.215 l -18.591,0.21 -2.07,3.533 c -1.139,1.943 -3.402,5.918 -5.029,8.832 l -2.959,5.299 18.713,-0.009 18.713,-0.009 4.907,-8.607 0,0 0,0 z" />
      <ellipse
         transform="translate(-719.27982,409.02912)"
         cx="26.232"
         cy="163.60699"
         rx="4.9419999"
         ry="5.0869999"
         id="ellipse18494-1"
         d="m 31.174,163.60699 c 0,2.80948 -2.212608,5.087 -4.942,5.087 -2.729391,0 -4.942,-2.27752 -4.942,-5.087 0,-2.80947 2.212609,-5.087 4.942,-5.087 2.729392,0 4.942,2.27753 4.942,5.087 z"
         sodipodi:cx="26.232"
         sodipodi:cy="163.60699"
         sodipodi:rx="4.9419999"
         sodipodi:ry="5.0869999"
         style="fill:#ffffff" />
      <ellipse
         transform="translate(-719.27982,409.02912)"
         cx="77.950996"
         cy="163.60699"
         rx="4.9419999"
         ry="5.0869999"
         id="ellipse18496-3"
         d="m 82.892996,163.60699 c 0,2.80948 -2.212608,5.087 -4.942,5.087 -2.729391,0 -4.942,-2.27752 -4.942,-5.087 0,-2.80947 2.212609,-5.087 4.942,-5.087 2.729392,0 4.942,2.27753 4.942,5.087 z"
         sodipodi:cx="77.950996"
         sodipodi:cy="163.60699"
         sodipodi:rx="4.9419999"
         sodipodi:ry="5.0869999"
         style="fill:#ffffff" />
    </g>
    <path
       style="fill:#d40000;fill-opacity:1;stroke:none"
       inkscape:connector-curvature="0"
       d="m 359.54912,147.47014 c 12.9654,0.0705 25.942,-0.0585 38.91,-0.0529 -0.295,1.7971 -1.0851,3.60699 -1.5755,5.36528 -0.5774,2.06964 -1.1889,4.12733 -1.7673,6.19695 -1.2649,4.52452 -2.5428,9.05229 -3.8514,13.56466 -2.1455,7.39805 -8.442,13.26329 -16.4907,13.26329 -7.3822,0 -14.7644,0 -22.1465,0 -3.5555,0 -7.1112,0 -10.6665,0 -1.6216,0 -3.3415,0.16283 -4.9588,-0.0169 0.3291,-1.91352 1.0829,-3.84786 1.6098,-5.71867 0.5736,-2.03711 1.1475,-4.07421 1.7084,-6.11501 1.1473,-4.17501 2.2955,-8.34983 3.4448,-12.52441 0.9977,-3.62348 2.3551,-6.81723 5.1777,-9.40958 2.7706,-2.54443 6.7787,-4.50912 10.606,-4.5527 m 15.51,1.96361 c -4.0751,-0.0269 -8.1515,-0.0211 -12.2258,-0.002 -4.9326,0.0229 -9.2768,0.98733 -12.9006,4.54143 -3.7404,3.66813 -4.5274,9.20447 -5.8631,14.04899 -0.7324,2.6563 -1.4915,5.3061 -2.2108,7.96565 -0.3646,1.34853 -0.7564,2.68752 -1.1397,4.03085 -0.3407,1.19351 -0.9271,2.56394 -1.0088,3.80515 6.9534,-0.006 13.9074,-0.005 20.8604,-0.003 3.4011,6.6e-4 6.8022,-9e-4 10.2034,8.7e-4 2.9846,0.25432 6.2025,0.0249 9.0302,-0.99101 2.6611,-0.95633 5.1735,-2.79875 6.8823,-5.05483 1.9487,-2.57261 2.6351,-5.70372 3.4739,-8.75612 0.945,-3.43875 1.9384,-6.86472 2.9041,-10.29783 0.8616,-3.06302 2.1066,-6.21603 2.6675,-9.3441 -0.1064,-0.0215 -0.2131,-0.0431 -0.3197,-0.0646"
       id="path18515" />
    <path
       style="fill:#d40000;fill-opacity:1;stroke:none"
       inkscape:connector-curvature="0"
       d="m 385.21412,150.86185 c 2.8555,0 5.7397,0.0592 8.5926,-0.0614 0.087,1.41943 -0.903,3.36785 -1.2923,4.73221 -0.4729,1.65683 -0.9341,3.31778 -1.4076,4.97396 -0.1888,0.6606 -3.8344,0.30959 -4.59,0.30699 -1.6586,-0.006 -3.3877,-0.0997 -5.0383,0.0763 0.053,0.725 0.8366,1.69282 1.1745,2.32545 0.3568,0.6682 0.6994,1.34225 1.059,2.00893 0.8124,1.50506 1.5907,3.02877 2.4057,4.53253 0.4252,0.78506 0.854,1.56816 1.2679,2.3595 0.3812,0.80044 0.093,1.25487 -0.2576,2.0642 -0.6899,1.59439 -1.6846,3.05392 -2.9201,4.2767 -2.5159,2.48937 -5.9684,3.85546 -9.4814,3.92375 -3.7282,0.0722 -7.4651,0.0935 -11.1939,0.0716 0.126,-1.54365 0.8881,-3.21501 1.3102,-4.70381 0.4781,-1.68523 1.0613,-3.37957 1.4209,-5.09428 3.2306,-0.17691 6.4862,0.0464 9.7221,-0.10797 -1.1318,-2.74584 -2.9192,-5.35466 -4.3783,-7.93963 -0.6679,-1.18311 -1.42,-2.35191 -2.0039,-3.57881 -0.1847,-0.51383 -3.9202,-0.16672 -4.5097,-0.16672 -1.6151,4.3e-4 -3.2298,4.3e-4 -4.8448,4.3e-4 -0.5238,0 -1.135,-0.0462 -1.5827,0.29421 -0.5125,0.38265 -0.9894,1.38322 -0.048,1.36565 3.4312,-9e-4 6.8626,0.002 10.2938,-9e-4 -0.8189,3.34184 -1.7419,6.7175 -2.7567,10.00471 -3.4747,0.0828 -6.9705,-0.17172 -10.4414,-0.0106 -0.8249,0.0383 -0.9069,1.45412 -1.1151,2.19039 -0.256,0.9058 -0.463,1.82788 -0.76,2.72155 -0.4473,1.68133 -0.8662,3.38369 -1.375,5.04724 -1.7964,-0.0351 -3.5988,0.0102 -5.3961,-0.004 -0.8912,-0.006 -1.7819,0.0171 -2.673,0.0163 -0.88,-6.6e-4 -2.0536,0.21355 -2.903,-0.034 0.7293,-3.23366 1.8502,-6.43241 2.7513,-9.62509 0.9336,-3.30779 1.8564,-6.6195 2.7592,-9.93575 0.7983,-2.93187 1.6996,-5.51706 3.7991,-7.78398 2.1646,-2.33738 5.4035,-3.92807 8.5766,-4.18434 5.4305,-0.43881 11.0463,-0.0462 16.4968,-0.0462 3.1104,-6.5e-4 6.2286,-0.0657 9.3389,-0.0154"
       id="path18517" />
  </g>
</svg>
