<?xml version="1.0" encoding="UTF-8" standalone="no"?>
<!-- Created with Inkscape (http://www.inkscape.org/) -->

<svg
   xmlns:dc="http://purl.org/dc/elements/1.1/"
   xmlns:cc="http://creativecommons.org/ns#"
   xmlns:rdf="http://www.w3.org/1999/02/22-rdf-syntax-ns#"
   xmlns:svg="http://www.w3.org/2000/svg"
   xmlns="http://www.w3.org/2000/svg"
   xmlns:sodipodi="http://sodipodi.sourceforge.net/DTD/sodipodi-0.dtd"
   xmlns:inkscape="http://www.inkscape.org/namespaces/inkscape"
   width="3350"
   height="2830"
   id="svg5070"
   version="1.1"
   inkscape:version="0.48.5 r10040"
   sodipodi:docname="CANC Z I NUV.svg">
  <defs
     id="defs5072" />
  <sodipodi:namedview
     id="base"
     pagecolor="#ffffff"
     bordercolor="#666666"
     borderopacity="1.0"
     inkscape:pageopacity="0.0"
     inkscape:pageshadow="2"
     inkscape:zoom="0.0875"
     inkscape:cx="193.19718"
     inkscape:cy="1433.0362"
     inkscape:document-units="px"
     inkscape:current-layer="layer1"
     showgrid="false"
     fit-margin-top="0"
     fit-margin-left="0"
     fit-margin-right="0"
     fit-margin-bottom="0"
     inkscape:window-width="1366"
     inkscape:window-height="705"
     inkscape:window-x="-8"
     inkscape:window-y="-8"
     inkscape:window-maximized="1" />
  <metadata
     id="metadata5075">
    <rdf:RDF>
      <cc:Work
         rdf:about="">
        <dc:format>image/svg+xml</dc:format>
        <dc:type
           rdf:resource="http://purl.org/dc/dcmitype/StillImage" />
        <dc:title></dc:title>
      </cc:Work>
    </rdf:RDF>
  </metadata>
  <g
     inkscape:label="Livello 1"
     inkscape:groupmode="layer"
     id="layer1"
     transform="translate(0,1777.6378)">
    <rect
       style="fill:#ffffff;fill-opacity:1;stroke:none"
       id="rect5162"
       width="3350"
       height="1000"
       x="0"
       y="-1777.6378" />
    <path
       style="fill:#d40000;fill-opacity:1;stroke:none"
       d="m 287.18156,-819.6392 3021.22414,-708.4361 4.9403,-120.6466 -33.335,-67.6802 -104.0457,-26.264 -77.4661,8.5232 -3064.108345,718.5341 0,103.28806 29.2944,58.5889 47.477205,37.37564 106.066,10.1015 z"
       id="path5200"
       inkscape:connector-curvature="0"
       sodipodi:nodetypes="cccccc" />
    <rect
       ry="114.65231"
       rx="114.65231"
       y="-1745.0128"
       x="32.625"
       height="934.75"
       width="3284.75"
       id="rect5166"
       style="fill:none;stroke:#000000;stroke-width:32.625;stroke-miterlimit:4;stroke-opacity:1;stroke-dasharray:none" />
    <g
       transform="translate(198.72526,-2183.976)"
       id="g5170"
       style="font-size:489.13546753px;font-style:normal;font-variant:normal;font-weight:normal;font-stretch:normal;line-height:125%;letter-spacing:0px;word-spacing:0px;fill:#000000;fill-opacity:1;stroke:none;font-family:CodiceNeroCondensed;-inkscape-font-specification:CodiceNeroCondensed">
      <path
         inkscape:connector-curvature="0"
         id="path5172"
         style="fill:#000000;fill-opacity:1"
         d="m -48.430487,736.13057 79.248664,0 35.705934,106.6252 34.720739,-106.6252 79.72633,0 0,342.87843 -80.6966,0 0,-170.70776 -32.7802,95.86266 -35.705933,-95.37006 0,170.21516 -80.218934,0 z" />
      <path
         inkscape:connector-curvature="0"
         id="path5174"
         style="fill:#000000;fill-opacity:1"
         d="m 344.46913,728.29377 c 35.5366,-0.31807 63.25146,20.71437 83.14467,63.0974 15.65346,33.58654 23.4803,70.27266 23.48053,110.05847 -2.3e-4,45.97602 -8.15049,86.41384 -24.4508,121.31356 -19.56481,41.4082 -46.95625,62.2765 -82.1744,62.6048 -34.24316,0.3285 -61.31118,-20.5398 -81.20413,-62.6048 -16.62896,-34.89972 -25.10762,-75.33754 -25.436,-121.31356 -0.32842,-40.43265 7.01079,-76.95457 22.01766,-109.56587 19.56456,-42.06458 47.77202,-63.26123 84.62247,-63.59 z m -25.9286,173.15587 c -10e-5,26.73981 1.79117,49.5685 5.3738,68.48613 4.56763,24.45091 11.41922,36.67633 20.5548,36.67623 9.12538,1e-4 15.80779,-12.22532 20.04727,-36.67623 3.26394,-19.24603 4.73178,-42.07471 4.40353,-68.48613 -0.647,-66.84387 -8.79726,-100.26591 -24.4508,-100.2662 -9.13558,2.9e-4 -15.98717,11.73806 -20.5548,35.21333 -3.58263,17.93282 -5.3739,39.61709 -5.3738,65.05287 z" />
      <path
         inkscape:connector-curvature="0"
         id="path5176"
         style="fill:#000000;fill-opacity:1"
         d="m 702.7525,1079.009 -77.77086,0 -41.09467,-139.89796 0,139.89796 -79.23373,0 0,-344.8339 78.26346,0 40.58714,141.34594 0,-141.83854 79.24866,0 z" />
      <path
         inkscape:connector-curvature="0"
         id="path5178"
         style="fill:#000000;fill-opacity:1"
         d="m 914.51016,734.1751 0,69.93407 -40.10947,0 0,273.43703 -81.20413,0 0,-273.9147 -40.10946,0 0,-69.4564 z" />
      <path
         inkscape:connector-curvature="0"
         id="path5180"
         style="fill:#000000;fill-opacity:1"
         d="m 1108.594,737.10084 0,63.0974 -67.0083,0 0,70.4416 55.7681,0 0,63.0974 -55.7681,0 0,79.72636 79.2487,0 0,65.0528 -159.94532,0 0,-341.41556 z" />
      <path
         inkscape:connector-curvature="0"
         id="path5182"
         style="fill:#000000;fill-opacity:1"
         d="m 1276.8985,726.3383 c 41.418,3.8e-4 71.2575,21.36122 89.5186,64.0826 7.4933,17.93287 12.3844,39.45294 14.6735,64.56027 l -71.4119,5.8664 c -1.6322,-38.47217 -11.4145,-57.70837 -29.3469,-57.70867 -21.5252,3e-4 -32.2877,35.21857 -32.2876,105.65494 -10e-5,27.38665 0.9801,46.78705 2.9407,58.20126 4.5576,28.7002 14.3399,43.0502 29.3469,43.0501 10.1006,10e-5 18.2509,-7.6625 24.4508,-22.9879 4.2392,-10.76738 6.8465,-22.83355 7.8219,-36.19853 l 69.949,24.4508 c -4.568,21.52517 -11.0912,39.95033 -19.5696,55.27553 -20.5401,37.1688 -49.2352,55.7532 -86.0854,55.7532 -33.5863,0 -60.9778,-19.4004 -82.1744,-58.2013 -19.2362,-34.88977 -28.8543,-74.6708 -28.8543,-119.34316 0,-50.87176 9.9465,-93.59345 29.8395,-128.1652 20.8682,-36.1932 47.9313,-54.28996 81.1892,-54.29034 z" />
      <path
         inkscape:connector-curvature="0"
         id="path5184"
         style="fill:#000000;fill-opacity:1"
         d="m 1527.1834,728.29377 c 35.5366,-0.31807 63.2515,20.71437 83.1447,63.0974 15.6534,33.58654 23.4803,70.27266 23.4805,110.05847 -2e-4,45.97602 -8.1505,86.41384 -24.4508,121.31356 -19.5648,41.4082 -46.9563,62.2765 -82.1744,62.6048 -34.2432,0.3285 -61.3112,-20.5398 -81.2041,-62.6048 -16.629,-34.89972 -25.1077,-75.33754 -25.436,-121.31356 -0.3285,-40.43265 7.0108,-76.95457 22.0176,-109.56587 19.5646,-42.06458 47.772,-63.26123 84.6225,-63.59 z m -25.9286,173.15587 c -10e-5,26.73981 1.7912,49.5685 5.3738,68.48613 4.5676,24.45091 11.4192,36.67633 20.5548,36.67623 9.1254,1e-4 15.8078,-12.22532 20.0473,-36.67623 3.2639,-19.24603 4.7317,-42.07471 4.4035,-68.48613 -0.647,-66.84387 -8.7973,-100.26591 -24.4508,-100.2662 -9.1356,2.9e-4 -15.9872,11.73806 -20.5548,35.21333 -3.5826,17.93282 -5.3739,39.61709 -5.3738,65.05287 z" />
      <path
         inkscape:connector-curvature="0"
         id="path5186"
         style="fill:#000000;fill-opacity:1"
         d="m 1690.2933,736.13057 79.2486,0 35.706,106.6252 34.7207,-106.6252 79.7263,0 0,342.87843 -80.6966,0 0,-170.70776 -32.7802,95.86266 -35.7059,-95.37006 0,170.21516 -80.2189,0 z" />
      <path
         inkscape:connector-curvature="0"
         id="path5188"
         style="fill:#000000;fill-opacity:1"
         d="m 1989.7634,736.60824 81.6818,0 c 26.7395,3.6e-4 50.5434,7.663 71.4119,22.98793 26.4209,19.5749 39.6315,47.62313 39.6317,84.1448 -2e-4,37.16902 -14.6786,65.21228 -44.0353,84.12986 -21.1869,14.02181 -44.4982,21.03262 -69.9341,21.03247 l 0,129.6131 -78.756,0 z m 78.756,68.48613 0,73.85993 c 8.797,0.64707 17.1115,-1.80099 24.9434,-7.34419 9.4538,-6.84639 14.1808,-16.62869 14.1809,-29.34694 -1e-4,-13.69297 -4.4037,-23.7987 -13.2106,-30.3172 -7.1751,-5.54269 -15.813,-7.82655 -25.9137,-6.8516 z" />
      <path
         inkscape:connector-curvature="0"
         id="path5190"
         style="fill:#000000;fill-opacity:1"
         d="m 2378.1549,735.14537 54.7829,342.87843 -82.652,0 -7.8368,-64.5602 -40.1095,0 -9.2847,64.5602 -82.667,0 60.6493,-342.87843 z m -54.2903,131.58353 -12.718,86.08534 23.4805,0 z" />
      <path
         inkscape:connector-curvature="0"
         id="path5192"
         style="fill:#000000;fill-opacity:1"
         d="m 2619.797,734.1751 0,69.93407 -40.1094,0 0,273.43703 -81.2042,0 0,-273.9147 -40.1094,0 0,-69.4564 z" />
      <path
         inkscape:connector-curvature="0"
         id="path5194"
         style="fill:#000000;fill-opacity:1"
         d="m 2749.8131,736.60824 c 29.0184,3.6e-4 53.8,10.27277 74.3451,30.81726 20.5446,20.54516 30.817,45.32683 30.8172,74.34507 -2e-4,35.54694 -15.4897,64.73462 -46.4684,87.56313 l 68.4861,150.1679 -81.2041,0 -50.3794,-128.15023 -5.3888,0 0,128.15023 -77.7708,0 0,-342.89336 z m -9.7923,64.5752 0,85.59273 c 9.7922,-0.97503 18.6813,-5.86618 26.6675,-14.67347 7.986,-8.80682 11.979,-18.26073 11.9791,-28.36173 -10e-5,-14.34978 -4.2394,-25.4407 -12.718,-33.2728 -7.1751,-6.84632 -15.818,-9.94123 -25.9286,-9.28473 z" />
      <path
         inkscape:connector-curvature="0"
         id="path5196"
         style="fill:#000000;fill-opacity:1"
         d="m 2918.3116,735.63797 82.667,0 0,342.38583 -82.667,0 z" />
    </g>
    <rect
       y="-777.63782"
       x="0"
       height="1830"
       width="3350"
       id="rect5788"
       style="fill:#00408b;fill-opacity:1;fill-rule:evenodd;stroke:none" />
    <rect
       style="fill:none;stroke:#ffffff;stroke-width:50.25;stroke-miterlimit:4;stroke-opacity:1;stroke-dasharray:none"
       id="rect5790"
       width="3249.5"
       height="1729.5"
       x="50.25"
       y="-727.38782"
       rx="175.76654"
       ry="175.76654" />
    <g
       transform="translate(179.01496,-1282.9329)"
       id="g5794"
       style="font-size:489.13546753px;font-style:normal;font-variant:normal;font-weight:normal;font-stretch:normal;line-height:125%;letter-spacing:0px;word-spacing:0px;fill:#ffffff;fill-opacity:1;stroke:none;font-family:CodiceNeroCondensed;-inkscape-font-specification:CodiceNeroCondensed">
      <g
         style="font-size:358.67660522px;line-height:125%;fill:#ffffff;font-family:CodiceNeroCondensed;-inkscape-font-specification:CodiceNeroCondensed"
         id="text5822">
        <path
           d="m 107.53545,1277.6656 173.60263,0 0,45.1958 -121.58751,0 0,55.5944 106.88711,0 0,43.4007 -106.88711,0 0,107.9598 -52.01512,0 z"
           style="fill:#ffffff;font-family:CodiceBianco;-inkscape-font-specification:CodiceBianco"
           id="path5851"
           inkscape:connector-curvature="0" />
        <path
           d="m 444.50626,1277.3044 c 19.36685,2e-4 36.4644,7.053 51.29268,21.1585 15.54303,14.8283 23.31464,33.0022 23.31486,54.5217 -2.2e-4,19.3672 -6.45832,35.8663 -19.37432,49.4975 -9.56694,10.2821 -21.16233,17.8165 -34.7862,22.6034 l 64.92038,104.3696 -56.67809,0 -62.05254,-100.0678 -37.65404,0 0,100.0678 -49.85876,0 0,-252.1507 z m -71.01727,44.8345 0,62.775 61.69133,0 c 6.45796,2e-4 12.79565,-2.9899 19.0131,-8.9702 6.21713,-5.98 9.32578,-13.3922 9.32594,-22.2367 -1.6e-4,-8.8514 -3.05043,-16.3256 -9.1508,-22.4227 -6.10069,-6.0967 -12.73758,-9.1452 -19.91067,-9.1454 z"
           style="fill:#ffffff;font-family:CodiceBianco;-inkscape-font-specification:CodiceBianco"
           id="path5853"
           inkscape:connector-curvature="0" />
        <path
           d="m 800.89515,1401.7707 c -2.6e-4,40.4052 -11.59565,72.6847 -34.78621,96.8387 -22.23505,22.9573 -50.92799,34.4359 -86.07888,34.4359 -35.15117,0 -63.72734,-11.4786 -85.72861,-34.4359 -23.19083,-24.154 -34.78622,-56.4335 -34.7862,-96.8387 -2e-5,-39.4563 12.79212,-71.1412 38.37647,-95.0546 22.95721,-21.2787 50.33663,-31.9181 82.13834,-31.9184 31.80144,3e-4 59.18086,10.6397 82.13835,31.9184 25.81758,23.9134 38.72648,55.5983 38.72674,95.0546 z m -55.23322,0 c -2.1e-4,-23.6723 -6.03689,-42.5632 -18.11006,-56.6727 -12.07355,-14.1091 -27.91414,-21.1637 -47.52181,-21.1639 -19.60795,2e-4 -35.32995,7.0548 -47.16606,21.1639 -11.83629,14.1095 -17.75439,33.0004 -17.75432,56.6727 -7e-5,24.6284 5.02046,43.875 15.06162,57.7398 11.23773,15.7841 27.8573,23.6761 49.85876,23.6761 22.2347,0 38.97102,-7.892 50.20903,-23.6761 10.28169,-14.1056 15.42263,-33.3522 15.42284,-57.7398 z"
           style="fill:#ffffff;font-family:CodiceBianco;-inkscape-font-specification:CodiceBianco"
           id="path5855"
           inkscape:connector-curvature="0" />
        <path
           d="m 941.33159,1275.5092 c 43.76171,3e-4 80.94501,13.752 111.55011,41.2553 l -37.3038,31.9183 c -7.4142,-6.4579 -16.61975,-12.1972 -27.6166,-17.2179 -13.6315,-6.4579 -26.78121,-9.687 -39.44917,-9.6872 -6.93985,2e-4 -13.51835,1.0766 -19.73553,3.2291 -14.58739,4.7872 -21.28265,13.9927 -20.0858,27.6166 0.48153,5.5023 5.2649,10.0485 14.35013,13.6386 8.12907,3.3424 24.38742,7.6441 48.77511,12.9053 51.17576,11.0045 76.76366,36.2312 76.76386,75.6802 -2e-4,24.1541 -9.5049,43.5832 -28.5141,58.2872 -19.0097,14.704 -44.89681,22.056 -77.6615,22.056 -27.25549,0 -53.19735,-7.2936 -77.82565,-21.8809 -15.54326,-8.8443 -28.57622,-19.2429 -39.0989,-31.1959 l 43.76188,-33.0021 c 4.06453,6.2174 12.43452,12.9127 25.10998,20.0858 16.97342,9.5669 34.54528,14.4706 52.71566,14.7114 12.43445,0.2336 22.47916,-2.2201 30.13417,-7.3612 7.6547,-5.1408 11.48213,-11.7759 11.4823,-19.9051 -1.7e-4,-9.3259 -5.9803,-16.6195 -17.9404,-21.881 -7.4142,-3.342 -20.56573,-6.987 -39.45465,-10.935 -18.88914,-3.9477 -31.67946,-7.4759 -38.37099,-10.5847 -11.71952,-5.2612 -19.85235,-9.9242 -24.39851,-13.9889 -12.66814,-11.2377 -19.00218,-26.0621 -19.00215,-44.4734 -3e-5,-27.0216 9.92063,-47.5854 29.76201,-61.6913 16.49911,-11.7192 37.18327,-17.5789 62.05254,-17.5792 z"
           style="fill:#ffffff;font-family:CodiceBianco;-inkscape-font-specification:CodiceBianco"
           id="path5857"
           inkscape:connector-curvature="0" />
        <path
           d="m 1141.7518,1277.3044 0,252.1507 -52.0042,0 0,-252.1507 z"
           style="fill:#ffffff;font-family:CodiceBianco;-inkscape-font-specification:CodiceBianco"
           id="path5859"
           inkscape:connector-curvature="0" />
        <path
           d="m 1427.2,1529.4551 -58.8235,0 -121.9487,-174.6754 0,174.6754 -50.22,0 0,-252.1507 58.8235,0 121.9596,175.748 0,-175.748 50.2091,0 z"
           style="fill:#ffffff;font-family:CodiceBianco;-inkscape-font-specification:CodiceBianco"
           id="path5861"
           inkscape:connector-curvature="0" />
        <path
           d="m 1712.298,1401.7707 c -3e-4,40.4052 -11.5957,72.6847 -34.7862,96.8387 -22.2351,22.9573 -50.928,34.4359 -86.0789,34.4359 -35.1512,0 -63.7274,-11.4786 -85.7286,-34.4359 -23.1908,-24.154 -34.7862,-56.4335 -34.7862,-96.8387 0,-39.4563 12.7921,-71.1412 38.3764,-95.0546 22.9573,-21.2787 50.3367,-31.9181 82.1384,-31.9184 31.8014,3e-4 59.1809,10.6397 82.1383,31.9184 25.8176,23.9134 38.7265,55.5983 38.7268,95.0546 z m -55.2332,0 c -2e-4,-23.6723 -6.0369,-42.5632 -18.1101,-56.6727 -12.0735,-14.1091 -27.9141,-21.1637 -47.5218,-21.1639 -19.608,2e-4 -35.33,7.0548 -47.1661,21.1639 -11.8363,14.1095 -17.7544,33.0004 -17.7543,56.6727 -10e-5,24.6284 5.0205,43.875 15.0616,57.7398 11.2378,15.7841 27.8573,23.6761 49.8588,23.6761 22.2347,0 38.971,-7.892 50.209,-23.6761 10.2817,-14.1056 15.4227,-33.3522 15.4229,-57.7398 z"
           style="fill:#ffffff;font-family:CodiceBianco;-inkscape-font-specification:CodiceBianco"
           id="path5863"
           inkscape:connector-curvature="0" />
        <path
           d="m 1989.0333,1529.4551 -58.8234,0 -121.9488,-174.6754 0,174.6754 -50.22,0 0,-252.1507 58.8235,0 121.9597,175.748 0,-175.748 50.209,0 z"
           style="fill:#ffffff;font-family:CodiceBianco;-inkscape-font-specification:CodiceBianco"
           id="path5865"
           inkscape:connector-curvature="0" />
        <path
           d="m 2213.5237,1277.3044 0,45.557 -122.31,0 0,54.1605 109.755,0 0,45.546 -109.3938,0 0,58.112 134.5038,0 0,48.7752 -186.1577,0 0,-252.1507 z"
           style="fill:#ffffff;font-family:CodiceBianco;-inkscape-font-specification:CodiceBianco"
           id="path5867"
           inkscape:connector-curvature="0" />
      </g>
      <g
         style="font-size:358.67660522px;line-height:125%;fill:#ffffff;font-family:CodiceNeroCondensed;-inkscape-font-specification:CodiceNeroCondensed"
         id="text5830">
        <path
           d="m 203.66271,785.50897 c 43.76171,2.7e-4 80.94503,13.75201 111.55009,41.25526 l -37.30377,31.91836 c -7.41424,-6.4579 -16.61977,-12.19722 -27.61661,-17.21796 -13.6315,-6.45789 -26.78121,-9.68694 -39.44917,-9.68716 -6.93985,2.2e-4 -13.51836,1.07657 -19.73553,3.22905 -14.58739,4.78724 -21.28265,13.99277 -20.08581,27.61661 0.48153,5.50235 5.26491,10.04856 14.35013,13.63864 8.12907,3.34234 24.38743,7.64409 48.77512,12.90527 51.17572,11.00447 76.76365,36.23119 76.76388,75.68024 -2.3e-4,24.1541 -9.50494,43.58312 -28.51417,58.28712 -19.00964,14.7041 -44.89676,22.0561 -77.66146,22.0561 -27.25549,0 -53.19734,-7.2936 -77.82564,-21.881 -15.54327,-8.8442 -28.576222,-19.2429 -39.098903,-31.19588 L 131.57274,959.1116 c 4.06454,6.21739 12.43453,12.91265 25.10999,20.08581 16.97341,9.56681 34.54528,14.47059 52.71565,14.71134 12.43445,0.23357 22.47917,-2.22014 30.13418,-7.36114 7.65469,-5.14088 11.48212,-11.77593 11.48229,-19.9052 -1.7e-4,-9.32584 -5.98029,-16.61948 -17.9404,-21.88094 -7.41419,-3.34204 -20.56573,-6.98704 -39.45464,-10.93499 -18.88914,-3.94771 -31.67946,-7.47595 -38.371,-10.58473 -11.71952,-5.26121 -19.85234,-9.92418 -24.3985,-13.98891 -12.66814,-11.23768 -19.00219,-26.06212 -19.00216,-44.47336 -3e-5,-27.02166 9.92063,-47.58542 29.76202,-61.69132 16.4991,-11.7192 37.18326,-17.57892 62.05254,-17.57919 z"
           style="word-spacing:-70px;fill:#ffffff;font-family:CodiceBianco;-inkscape-font-specification:CodiceBianco"
           id="path5870"
           inkscape:connector-curvature="0" />
        <path
           d="m 359.60953,988.88456 c 7.88833,7e-5 14.34643,2.98831 19.37432,8.96473 4.06453,5.02061 6.09682,10.40231 6.09688,16.14531 -6e-5,6.9324 -2.69093,12.7903 -8.07263,17.5737 -5.3818,4.7834 -11.18132,7.175 -17.39857,7.175 -6.69165,0 -12.60793,-2.4518 -17.74884,-7.3556 -5.14096,-4.9038 -7.71143,-10.7015 -7.71142,-17.3931 -10e-6,-6.9397 2.45005,-12.8597 7.3502,-17.75984 4.90011,-4.90007 10.93679,-7.35013 18.11006,-7.3502 z"
           style="word-spacing:-70px;fill:#ffffff;font-family:CodiceBianco;-inkscape-font-specification:CodiceBianco"
           id="path5872"
           inkscape:connector-curvature="0" />
        <path
           d="m 465.31377,915.71095 c -2e-5,-47.34466 15.06523,-82.85326 45.19579,-106.52591 22.00126,-17.21405 47.34839,-25.8212 76.04146,-25.82147 26.29928,2.7e-4 49.85127,7.1133 70.65605,21.33911 20.80435,14.22631 35.51204,34.13149 44.12309,59.71558 l -49.85877,19.73554 c -2.86803,-15.54305 -10.34045,-28.21662 -22.41728,-38.02073 -12.07719,-9.8037 -26.00771,-14.70565 -41.79161,-14.70587 -10.0412,2.2e-4 -19.7247,2.14927 -29.05053,6.44716 -26.78115,12.20128 -39.81045,37.78921 -39.08795,76.76388 0.47425,20.5639 2.92249,35.62732 7.34473,45.19032 4.42207,9.56319 13.21166,18.65014 26.36877,27.26087 9.55934,6.45816 20.07838,9.68721 31.55715,9.68716 16.26551,5e-5 31.21218,-5.67906 44.84005,-17.03736 13.6275,-11.35815 21.27688,-24.09374 22.94816,-38.20681 l 49.14728,20.0858 c -3.59052,14.11305 -12.67929,28.94114 -27.26634,44.48428 -23.43182,24.6284 -52.84353,36.9426 -88.23524,36.9426 -26.78118,0 -50.81114,-7.2936 -72.08996,-21.881 -32.28327,-22.00124 -48.42487,-57.15227 -48.42485,-105.45315 z"
           style="word-spacing:-70px;fill:#ffffff;font-family:CodiceBianco;-inkscape-font-specification:CodiceBianco"
           id="path5874"
           inkscape:connector-curvature="0" />
        <path
           d="m 912.67443,787.30411 0,45.55701 -122.30995,0 0,54.16051 109.75496,0 0,45.54607 -109.39374,0 0,58.112 134.50373,0 0,48.7751 -186.15763,0 0,-252.15069 z"
           style="word-spacing:-70px;fill:#ffffff;font-family:CodiceBianco;-inkscape-font-specification:CodiceBianco"
           id="path5876"
           inkscape:connector-curvature="0" />
        <path
           d="m 1070.285,785.50897 c 43.7617,2.7e-4 80.9451,13.75201 111.5501,41.25526 l -37.3038,31.91836 c -7.4142,-6.4579 -16.6197,-12.19722 -27.6166,-17.21796 -13.6315,-6.45789 -26.7812,-9.68694 -39.4491,-9.68716 -6.9399,2.2e-4 -13.5184,1.07657 -19.7356,3.22905 -14.5874,4.78724 -21.2826,13.99277 -20.0858,27.61661 0.4816,5.50235 5.2649,10.04856 14.3502,13.63864 8.129,3.34234 24.3874,7.64409 48.7751,12.90527 51.1757,11.00447 76.7636,36.23119 76.7639,75.68024 -3e-4,24.1541 -9.505,43.58312 -28.5142,58.28712 -19.0097,14.7041 -44.8968,22.0561 -77.6615,22.0561 -27.2555,0 -53.1973,-7.2936 -77.82562,-21.881 -15.54326,-8.8442 -28.57622,-19.2429 -39.0989,-31.19588 l 43.76188,-33.00202 c 4.06454,6.21739 12.43454,12.91265 25.10994,20.08581 16.9735,9.56681 34.5453,14.47059 52.7157,14.71134 12.4344,0.23357 22.4792,-2.22014 30.1342,-7.36114 7.6547,-5.14088 11.4821,-11.77593 11.4823,-19.9052 -2e-4,-9.32584 -5.9803,-16.61948 -17.9404,-21.88094 -7.4142,-3.34204 -20.5658,-6.98704 -39.4547,-10.93499 -18.8891,-3.94771 -31.6794,-7.47595 -38.371,-10.58473 -11.7195,-5.26121 -19.8523,-9.92418 -24.39848,-13.98891 -12.66814,-11.23768 -19.00218,-26.06212 -19.00215,-44.47336 -3e-5,-27.02166 9.92063,-47.58542 29.76203,-61.69132 16.4991,-11.7192 37.1832,-17.57892 62.0525,-17.57919 z"
           style="word-spacing:-70px;fill:#ffffff;font-family:CodiceBianco;-inkscape-font-specification:CodiceBianco"
           id="path5878"
           inkscape:connector-curvature="0" />
        <path
           d="m 1276.4519,787.30411 72.4512,0 85.7176,252.15069 -55.5944,0 -14.3392,-42.32794 -102.9466,0 -13.9889,42.32794 -53.7993,0 z m 36.2201,56.66714 -35.1474,106.17563 71.7397,0 z"
           style="word-spacing:-70px;fill:#ffffff;font-family:CodiceBianco;-inkscape-font-specification:CodiceBianco"
           id="path5880"
           inkscape:connector-curvature="0" />
        <path
           d="m 1588.5425,787.30411 c 19.3669,2.6e-4 36.4644,7.05309 51.2927,21.1585 15.543,14.82833 23.3146,33.00223 23.3149,54.52174 -3e-4,19.36719 -6.4584,35.86635 -19.3744,49.49754 -9.5669,10.28202 -21.1623,17.81647 -34.7862,22.60337 l 64.9204,104.36954 -56.6781,0 -62.0525,-100.06778 -37.6541,0 0,100.06778 -49.8587,0 0,-252.15069 z m -71.0173,44.83457 0,62.77498 61.6914,0 c 6.4579,1.6e-4 12.7956,-2.98991 19.0131,-8.9702 6.2171,-5.97996 9.3258,-13.39218 9.3259,-22.23668 -10e-5,-8.85142 -3.0504,-16.32567 -9.1508,-22.42276 -6.1007,-6.09667 -12.7376,-9.14511 -19.9107,-9.14534 z"
           style="word-spacing:-70px;fill:#ffffff;font-family:CodiceBianco;-inkscape-font-specification:CodiceBianco"
           id="path5882"
           inkscape:connector-curvature="0" />
        <path
           d="m 1884.3237,787.30411 0,45.55701 -122.3099,0 0,54.16051 109.7549,0 0,45.54607 -109.3937,0 0,58.112 134.5037,0 0,48.7751 -186.1576,0 0,-252.15069 z"
           style="word-spacing:-70px;fill:#ffffff;font-family:CodiceBianco;-inkscape-font-specification:CodiceBianco"
           id="path5884"
           inkscape:connector-curvature="0" />
        <path
           d="m 2177.5107,911.77041 c -2e-4,40.40522 -11.5956,72.68477 -34.7862,96.83869 -22.235,22.9574 -50.9279,34.436 -86.0788,34.436 -35.1512,0 -63.7274,-11.4786 -85.7287,-34.436 -23.1908,-24.15392 -34.7862,-56.43347 -34.7862,-96.83869 0,-39.45629 12.7922,-71.14111 38.3765,-95.05456 22.9572,-21.27865 50.3366,-31.91809 82.1384,-31.91836 31.8014,2.7e-4 59.1808,10.63971 82.1383,31.91836 25.8176,23.91345 38.7265,55.59827 38.7267,95.05456 z m -55.2332,0 c -2e-4,-23.67226 -6.0369,-42.56311 -18.11,-56.67261 -12.0736,-14.10911 -27.9142,-21.16376 -47.5218,-21.16398 -19.608,2.2e-4 -35.33,7.05487 -47.1661,21.16398 -11.8363,14.1095 -17.7544,33.00035 -17.7543,56.67261 -10e-5,24.62848 5.0204,43.87508 15.0616,57.73984 11.2377,15.78411 27.8573,23.67613 49.8588,23.67607 22.2347,6e-5 38.971,-7.89196 50.209,-23.67607 10.2817,-14.10557 15.4226,-33.35217 15.4228,-57.73984 z"
           style="word-spacing:-70px;fill:#ffffff;font-family:CodiceBianco;-inkscape-font-specification:CodiceBianco"
           id="path5886"
           inkscape:connector-curvature="0" />
      </g>
      <g
         style="font-size:412.51605225px;line-height:125%;fill:#ffffff;font-family:CodiceNeroCondensed;-inkscape-font-specification:CodiceNeroCondensed"
         id="text5834">
        <path
           d="m 374.63824,2048.9193 -67.65324,0 -140.25394,-200.8951 0,200.8951 -57.75829,0 0,-290 67.65323,0 140.26654,202.1289 0,-202.1289 57.7457,0 z"
           style="fill:#ffffff;font-family:CodiceBianco;-inkscape-font-specification:CodiceBianco"
           id="path5889"
           inkscape:connector-curvature="0" />
        <path
           d="m 504.94688,1758.9193 83.32653,0 98.58439,290 -63.93949,0 -16.49158,-48.6816 -118.39945,0 -16.08874,48.6816 -61.87489,0 z m 41.65697,65.1732 -40.42325,122.1132 82.50825,0 z"
           style="fill:#ffffff;font-family:CodiceBianco;-inkscape-font-specification:CodiceBianco"
           id="path5891"
           inkscape:connector-curvature="0" />
        <path
           d="m 853.15834,1758.9193 c 24.47282,3e-4 46.1972,8.6658 65.17321,25.9963 20.35195,18.9761 30.52804,42.4881 30.5283,70.5361 -2.6e-4,26.949 -10.31483,49.6386 -30.94374,68.0687 -18.97601,17.3226 -40.56191,25.9838 -64.75777,25.9837 l -66.41952,0 0,99.8307 -61.04401,0 0,-290.4155 z m -66.41952,51.5645 0,85.8066 62.29033,0 c 9.90318,2e-4 18.84135,-4.3997 26.81455,-13.1996 7.97284,-8.7995 11.95935,-18.151 11.95954,-28.0545 -1.9e-4,-12.3706 -4.39794,-23.0964 -13.19326,-32.1775 -7.9732,-8.2497 -16.50013,-12.3747 -25.58083,-12.375 z"
           style="fill:#ffffff;font-family:CodiceBianco;-inkscape-font-specification:CodiceBianco"
           id="path5893"
           inkscape:connector-curvature="0" />
        <path
           d="m 1259.2666,1902.0687 c -3e-4,46.4703 -13.3362,83.5952 -40.0078,111.3749 -25.5727,26.4033 -58.5726,39.6049 -98.9998,39.6049 -40.4276,0 -73.2932,-13.2016 -98.597,-39.6049 -26.67193,-27.7797 -40.00785,-64.9046 -40.00783,-111.3749 -2e-5,-45.3789 14.7123,-81.8198 44.13703,-109.3227 26.4032,-24.4728 57.8924,-36.7092 94.4678,-36.7095 36.575,3e-4 68.0642,12.2367 94.4677,36.7095 29.693,27.5029 44.5396,63.9438 44.5399,109.3227 z m -63.5241,0 c -2e-4,-27.2256 -6.943,-48.952 -20.8284,-65.1795 -13.8859,-16.2269 -32.1042,-24.3405 -54.6551,-24.3408 -22.5513,3e-4 -40.6332,8.1139 -54.246,24.3408 -13.613,16.2275 -20.4194,37.9539 -20.4193,65.1795 -10e-5,28.3254 5.774,50.461 17.3224,66.407 12.9246,18.1534 32.0389,27.23 57.3429,27.23 25.5722,0 44.8208,-9.0766 57.7457,-27.23 11.825,-16.2229 17.7376,-38.3585 17.7378,-66.407 z"
           style="fill:#ffffff;font-family:CodiceBianco;-inkscape-font-specification:CodiceBianco"
           id="path5895"
           inkscape:connector-curvature="0" />
        <path
           d="m 1365.9206,1996.5365 133.2419,0 0,52.3828 -190.1693,0 0,-290 56.9274,0 z"
           style="fill:#ffffff;font-family:CodiceBianco;-inkscape-font-specification:CodiceBianco"
           id="path5897"
           inkscape:connector-curvature="0" />
        <path
           d="m 1606.1689,1758.9193 0,290 -59.8103,0 0,-290 z"
           style="fill:#ffffff;font-family:CodiceBianco;-inkscape-font-specification:CodiceBianco"
           id="path5899"
           inkscape:connector-curvature="0" />
      </g>
      <g
         style="font-size:412.51605225px;line-height:125%;fill:#ffffff;font-family:CodiceNeroCondensed;-inkscape-font-specification:CodiceNeroCondensed"
         id="text5838">
        <path
           d="m 2314.152,1753.9719 0,294.9474 -60.2258,0 0,-196.7659 -47.8507,0 0,-50.3308 c 6.8735,3e-4 13.7471,3e-4 20.6208,0 9.9032,-0.5536 17.6035,-2.4798 23.1007,-5.7783 7.1505,-4.3975 10.7258,-11.5481 10.7259,-21.4517 l 0,-20.6207 z"
           style="text-align:end;text-anchor:end;fill:#ffffff;font-family:CodiceBianco;-inkscape-font-specification:CodiceBianco"
           id="path5902"
           inkscape:connector-curvature="0" />
        <path
           d="m 2365.2255,1860.8146 c -0.5455,-35.1986 9.0808,-62.5628 28.8792,-82.0928 18.4302,-18.153 43.1801,-27.2297 74.2498,-27.23 30.8009,3e-4 55.5551,9.354 74.2625,28.0609 25.5722,25.5727 38.3584,67.3723 38.3586,125.3989 -2e-4,98.7313 -37.4021,148.0969 -112.2056,148.0969 -33.554,0 -59.1306,-9.2151 -76.7299,-27.6454 -6.3198,-6.8736 -12.6436,-17.8721 -18.9716,-32.9958 l 54.0445,-22.6853 c 7.9729,19.2444 21.7201,28.8666 41.2415,28.8665 14.024,10e-5 25.8493,-5.0858 35.4758,-15.2578 9.6262,-10.1718 14.4394,-22.4083 14.4396,-36.7095 -2e-4,-2.7527 -0.1387,-5.5055 -0.4155,-8.2584 -14.2928,13.4787 -33.6798,20.218 -58.1611,20.2179 -25.027,10e-5 -46.2017,-7.5616 -63.5241,-22.6853 -20.0752,-17.6077 -30.3898,-42.6346 -30.9437,-75.0808 z m 58.5766,-3.2983 c -10e-5,13.4704 4.5382,24.6746 13.615,33.6126 9.0765,8.9384 19.8044,13.4075 32.1837,13.4073 12.9246,2e-4 23.7175,-4.6053 32.3789,-13.8164 8.6611,-9.2108 12.9917,-20.2786 12.9919,-33.2035 -2e-4,-14.3009 -3.5755,-26.1261 -10.7259,-35.4758 -7.9731,-10.7255 -19.5214,-16.0884 -34.6449,-16.0887 -14.5781,3e-4 -25.8558,4.7442 -33.8329,14.2319 -7.9773,9.4881 -11.9659,21.9323 -11.9658,37.3326 z"
           style="text-align:end;text-anchor:end;fill:#ffffff;font-family:CodiceBianco;-inkscape-font-specification:CodiceBianco"
           id="path5904"
           inkscape:connector-curvature="0" />
        <path
           d="m 2866.5191,1902.4716 c -2e-4,56.105 -15.128,97.2206 -45.3833,123.3469 -21.7288,18.6989 -47.5782,28.0483 -77.5482,28.0483 -29.4248,0 -55.1398,-9.6222 -77.1453,-28.8666 -29.9786,-26.6802 -44.9679,-67.6573 -44.9679,-122.9315 0,-58.5805 15.8159,-100.6571 47.4479,-126.2298 20.8977,-17.0535 45.7861,-25.5805 74.6653,-25.5808 28.602,3e-4 53.6289,8.9385 75.0808,26.8146 31.9002,26.4035 47.8505,68.2031 47.8507,125.3989 z m -122.5286,95.2987 c 40.7042,0 61.0564,-32.7271 61.0566,-98.1816 -2e-4,-62.9783 -19.937,-94.4675 -59.8103,-94.4678 -41.527,3e-4 -62.2904,31.628 -62.2903,94.8833 -1e-4,65.1775 20.3479,97.7661 61.044,97.7661 z"
           style="text-align:end;text-anchor:end;fill:#ffffff;font-family:CodiceBianco;-inkscape-font-specification:CodiceBianco"
           id="path5906"
           inkscape:connector-curvature="0" />
      </g>
      <g
         style="font-size:358.67660522px;line-height:125%;fill:#ffffff;font-family:CodiceNeroCondensed;-inkscape-font-specification:CodiceNeroCondensed"
         id="text5842">
        <path
           d="m 2680.9362,784.43627 176.8316,0 0,47.3412 -85.0061,206.96583 -55.2333,0 84.2838,-207.3161 -120.876,0 z"
           style="text-align:end;word-spacing:-70px;text-anchor:end;fill:#ffffff;font-family:CodiceBianco;-inkscape-font-specification:CodiceBianco"
           id="path5909"
           inkscape:connector-curvature="0" />
      </g>
      <g
         style="font-size:358.67660522px;line-height:125%;fill:#ffffff;font-family:CodiceNeroCondensed;-inkscape-font-specification:CodiceNeroCondensed"
         id="text5846">
        <path
           d="m 2550.0125,1270.496 c 43.5209,2e-4 71.1412,17.6925 82.8608,53.0768 l -48.4248,19.7246 c -6.2175,-16.9733 -18.1741,-25.46 -35.8699,-25.4602 -28.9339,2e-4 -43.7583,17.4553 -44.4734,52.3654 14.8281,-11.4785 32.8815,-17.2178 54.1606,-17.218 23.913,2e-4 43.5811,8.3702 59.0041,25.11 15.4226,16.7401 23.134,38.3802 23.1342,64.9204 -2e-4,29.1746 -8.9686,52.1282 -26.9051,68.8609 -16.4994,15.5432 -37.6615,23.3148 -63.4865,23.3148 -36.5814,0 -63.3624,-14.226 -80.3432,-42.6782 -13.3905,-22.7164 -20.0858,-53.3249 -20.0858,-91.8255 0,-86.7938 33.4763,-130.1908 100.429,-130.191 z m -42.6782,172.519 c -1e-4,12.6754 3.229,23.0777 9.6872,31.2068 7.1731,9.0852 17.3346,13.6278 30.4844,13.6277 11.4785,10e-5 21.0434,-3.9459 28.6948,-11.838 7.651,-7.892 11.4767,-18.8908 11.4768,-32.9965 -10e-5,-12.9161 -3.7674,-23.2582 -11.3017,-31.0263 -7.5346,-7.7678 -16.9207,-11.6518 -28.1584,-11.652 -13.3906,2e-4 -23.9097,5.2579 -31.5572,15.7731 -6.2173,8.1293 -9.326,17.0977 -9.3259,26.9052 z"
           style="fill:#ffffff;font-family:CodiceBianco;-inkscape-font-specification:CodiceBianco"
           id="path5912"
           inkscape:connector-curvature="0" />
        <path
           d="m 2764.3012,1269.0511 c 28.6928,3e-4 51.6464,7.1753 68.8609,21.5252 17.2141,14.3504 25.8213,33.7192 25.8215,58.1065 -2e-4,23.4318 -9.4429,39.931 -28.3281,49.4976 20.7971,5.5023 31.1957,23.0778 31.1959,52.7266 -2e-4,28.693 -9.6837,50.2127 -29.0505,64.5591 -16.7401,12.1938 -39.2158,18.2907 -67.427,18.2907 -27.7371,0 -50.3331,-6.4544 -67.7882,-19.3634 -19.1335,-13.8721 -29.7766,-34.1987 -31.9293,-60.9798 l 52.0151,-7.1696 c 4.5388,15.7841 10.9933,26.544 19.3634,32.2796 6.6988,4.5463 16.6231,6.8194 29.7729,6.8193 12.4345,10e-5 22.2384,-3.1086 29.4118,-9.3259 7.1731,-6.2172 10.7597,-14.1093 10.7598,-23.6761 -1e-4,-20.8045 -15.0654,-31.2068 -45.1958,-31.2069 -3.3495,10e-5 -8.2496,0.1205 -14.7004,0.3612 l 0,-45.1958 c 38.0188,1.197 57.0282,-9.0849 57.0284,-30.8456 -2e-4,-19.8484 -13.6315,-29.7727 -40.894,-29.773 -28.4523,3e-4 -42.9191,12.9128 -43.4007,38.7377 l -53.4381,-5.7357 c -0.4816,-4.7795 0.9523,-12.1935 4.3018,-22.2421 5.2613,-15.3022 14.1093,-27.7368 26.5439,-37.3038 16.7399,-13.3903 39.0988,-20.0855 67.0767,-20.0858 z"
           style="fill:#ffffff;font-family:CodiceBianco;-inkscape-font-specification:CodiceBianco"
           id="path5914"
           inkscape:connector-curvature="0" />
      </g>
    </g>
  </g>
</svg>
