<?xml version="1.0" encoding="UTF-8" standalone="no"?>
<!-- Created with Inkscape (http://www.inkscape.org/) -->

<svg
   xmlns:dc="http://purl.org/dc/elements/1.1/"
   xmlns:cc="http://creativecommons.org/ns#"
   xmlns:rdf="http://www.w3.org/1999/02/22-rdf-syntax-ns#"
   xmlns:svg="http://www.w3.org/2000/svg"
   xmlns="http://www.w3.org/2000/svg"
   xmlns:sodipodi="http://sodipodi.sourceforge.net/DTD/sodipodi-0.dtd"
   xmlns:inkscape="http://www.inkscape.org/namespaces/inkscape"
   version="1.1"
   width="200"
   height="200"
   id="svg2"
   inkscape:version="0.47 r22583"
   sodipodi:docname="Italian traffic signs - icona asilo.svg"
   sodipodi:version="0.32"
   inkscape:output_extension="org.inkscape.output.svg.inkscape">
  <metadata
     id="metadata2877">
    <rdf:RDF>
      <cc:Work
         rdf:about="">
        <dc:format>image/svg+xml</dc:format>
        <dc:type
           rdf:resource="http://purl.org/dc/dcmitype/StillImage" />
        <dc:title></dc:title>
      </cc:Work>
    </rdf:RDF>
  </metadata>
  <sodipodi:namedview
     pagecolor="#ffffff"
     bordercolor="#666666"
     borderopacity="1"
     objecttolerance="10"
     gridtolerance="10"
     guidetolerance="10"
     inkscape:pageopacity="0"
     inkscape:pageshadow="2"
     inkscape:window-width="1600"
     inkscape:window-height="838"
     id="namedview2875"
     showgrid="false"
     inkscape:zoom="2.3765092"
     inkscape:cx="95.405642"
     inkscape:cy="95.435633"
     inkscape:window-x="-8"
     inkscape:window-y="-8"
     inkscape:window-maximized="1"
     inkscape:current-layer="svg2" />
  <defs
     id="defs4">
    <inkscape:perspective
       sodipodi:type="inkscape:persp3d"
       inkscape:vp_x="0 : 100 : 1"
       inkscape:vp_y="0 : 1000 : 0"
       inkscape:vp_z="200 : 100 : 1"
       inkscape:persp3d-origin="100 : 66.666667 : 1"
       id="perspective2879" />
    <inkscape:perspective
       id="perspective2839"
       inkscape:persp3d-origin="0.5 : 0.33333333 : 1"
       inkscape:vp_z="1 : 0.5 : 1"
       inkscape:vp_y="0 : 1000 : 0"
       inkscape:vp_x="0 : 0.5 : 1"
       sodipodi:type="inkscape:persp3d" />
    <inkscape:perspective
       id="perspective3649"
       inkscape:persp3d-origin="0.5 : 0.33333333 : 1"
       inkscape:vp_z="1 : 0.5 : 1"
       inkscape:vp_y="0 : 1000 : 0"
       inkscape:vp_x="0 : 0.5 : 1"
       sodipodi:type="inkscape:persp3d" />
    <inkscape:perspective
       id="perspective3679"
       inkscape:persp3d-origin="0.5 : 0.33333333 : 1"
       inkscape:vp_z="1 : 0.5 : 1"
       inkscape:vp_y="0 : 1000 : 0"
       inkscape:vp_x="0 : 0.5 : 1"
       sodipodi:type="inkscape:persp3d" />
    <inkscape:perspective
       id="perspective3713"
       inkscape:persp3d-origin="0.5 : 0.33333333 : 1"
       inkscape:vp_z="1 : 0.5 : 1"
       inkscape:vp_y="0 : 1000 : 0"
       inkscape:vp_x="0 : 0.5 : 1"
       sodipodi:type="inkscape:persp3d" />
    <inkscape:perspective
       id="perspective3741"
       inkscape:persp3d-origin="0.5 : 0.33333333 : 1"
       inkscape:vp_z="1 : 0.5 : 1"
       inkscape:vp_y="0 : 1000 : 0"
       inkscape:vp_x="0 : 0.5 : 1"
       sodipodi:type="inkscape:persp3d" />
    <inkscape:perspective
       id="perspective3765"
       inkscape:persp3d-origin="0.5 : 0.33333333 : 1"
       inkscape:vp_z="1 : 0.5 : 1"
       inkscape:vp_y="0 : 1000 : 0"
       inkscape:vp_x="0 : 0.5 : 1"
       sodipodi:type="inkscape:persp3d" />
    <inkscape:perspective
       id="perspective3801"
       inkscape:persp3d-origin="0.5 : 0.33333333 : 1"
       inkscape:vp_z="1 : 0.5 : 1"
       inkscape:vp_y="0 : 1000 : 0"
       inkscape:vp_x="0 : 0.5 : 1"
       sodipodi:type="inkscape:persp3d" />
    <inkscape:perspective
       id="perspective2863"
       inkscape:persp3d-origin="0.5 : 0.33333333 : 1"
       inkscape:vp_z="1 : 0.5 : 1"
       inkscape:vp_y="0 : 1000 : 0"
       inkscape:vp_x="0 : 0.5 : 1"
       sodipodi:type="inkscape:persp3d" />
    <inkscape:perspective
       id="perspective3859"
       inkscape:persp3d-origin="0.5 : 0.33333333 : 1"
       inkscape:vp_z="1 : 0.5 : 1"
       inkscape:vp_y="0 : 1000 : 0"
       inkscape:vp_x="0 : 0.5 : 1"
       sodipodi:type="inkscape:persp3d" />
    <inkscape:perspective
       id="perspective3964"
       inkscape:persp3d-origin="0.5 : 0.33333333 : 1"
       inkscape:vp_z="1 : 0.5 : 1"
       inkscape:vp_y="0 : 1000 : 0"
       inkscape:vp_x="0 : 0.5 : 1"
       sodipodi:type="inkscape:persp3d" />
    <inkscape:perspective
       id="perspective3988"
       inkscape:persp3d-origin="0.5 : 0.33333333 : 1"
       inkscape:vp_z="1 : 0.5 : 1"
       inkscape:vp_y="0 : 1000 : 0"
       inkscape:vp_x="0 : 0.5 : 1"
       sodipodi:type="inkscape:persp3d" />
    <inkscape:perspective
       id="perspective2879-7"
       inkscape:persp3d-origin="0.5 : 0.33333333 : 1"
       inkscape:vp_z="1 : 0.5 : 1"
       inkscape:vp_y="0 : 1000 : 0"
       inkscape:vp_x="0 : 0.5 : 1"
       sodipodi:type="inkscape:persp3d" />
    <inkscape:perspective
       id="perspective4031"
       inkscape:persp3d-origin="0.5 : 0.33333333 : 1"
       inkscape:vp_z="1 : 0.5 : 1"
       inkscape:vp_y="0 : 1000 : 0"
       inkscape:vp_x="0 : 0.5 : 1"
       sodipodi:type="inkscape:persp3d" />
    <inkscape:perspective
       id="perspective4047"
       inkscape:persp3d-origin="0.5 : 0.33333333 : 1"
       inkscape:vp_z="1 : 0.5 : 1"
       inkscape:vp_y="0 : 1000 : 0"
       inkscape:vp_x="0 : 0.5 : 1"
       sodipodi:type="inkscape:persp3d" />
    <inkscape:perspective
       id="perspective4063"
       inkscape:persp3d-origin="0.5 : 0.33333333 : 1"
       inkscape:vp_z="1 : 0.5 : 1"
       inkscape:vp_y="0 : 1000 : 0"
       inkscape:vp_x="0 : 0.5 : 1"
       sodipodi:type="inkscape:persp3d" />
    <inkscape:perspective
       id="perspective4079"
       inkscape:persp3d-origin="0.5 : 0.33333333 : 1"
       inkscape:vp_z="1 : 0.5 : 1"
       inkscape:vp_y="0 : 1000 : 0"
       inkscape:vp_x="0 : 0.5 : 1"
       sodipodi:type="inkscape:persp3d" />
    <inkscape:perspective
       id="perspective4097"
       inkscape:persp3d-origin="0.5 : 0.33333333 : 1"
       inkscape:vp_z="1 : 0.5 : 1"
       inkscape:vp_y="0 : 1000 : 0"
       inkscape:vp_x="0 : 0.5 : 1"
       sodipodi:type="inkscape:persp3d" />
    <inkscape:perspective
       id="perspective4115"
       inkscape:persp3d-origin="0.5 : 0.33333333 : 1"
       inkscape:vp_z="1 : 0.5 : 1"
       inkscape:vp_y="0 : 1000 : 0"
       inkscape:vp_x="0 : 0.5 : 1"
       sodipodi:type="inkscape:persp3d" />
    <inkscape:perspective
       id="perspective4129"
       inkscape:persp3d-origin="0.5 : 0.33333333 : 1"
       inkscape:vp_z="1 : 0.5 : 1"
       inkscape:vp_y="0 : 1000 : 0"
       inkscape:vp_x="0 : 0.5 : 1"
       sodipodi:type="inkscape:persp3d" />
    <inkscape:perspective
       id="perspective4153"
       inkscape:persp3d-origin="0.5 : 0.33333333 : 1"
       inkscape:vp_z="1 : 0.5 : 1"
       inkscape:vp_y="0 : 1000 : 0"
       inkscape:vp_x="0 : 0.5 : 1"
       sodipodi:type="inkscape:persp3d" />
    <inkscape:perspective
       id="perspective4179"
       inkscape:persp3d-origin="0.5 : 0.33333333 : 1"
       inkscape:vp_z="1 : 0.5 : 1"
       inkscape:vp_y="0 : 1000 : 0"
       inkscape:vp_x="0 : 0.5 : 1"
       sodipodi:type="inkscape:persp3d" />
    <inkscape:perspective
       id="perspective4195"
       inkscape:persp3d-origin="0.5 : 0.33333333 : 1"
       inkscape:vp_z="1 : 0.5 : 1"
       inkscape:vp_y="0 : 1000 : 0"
       inkscape:vp_x="0 : 0.5 : 1"
       sodipodi:type="inkscape:persp3d" />
    <inkscape:perspective
       id="perspective4213"
       inkscape:persp3d-origin="0.5 : 0.33333333 : 1"
       inkscape:vp_z="1 : 0.5 : 1"
       inkscape:vp_y="0 : 1000 : 0"
       inkscape:vp_x="0 : 0.5 : 1"
       sodipodi:type="inkscape:persp3d" />
    <inkscape:perspective
       id="perspective4267"
       inkscape:persp3d-origin="0.5 : 0.33333333 : 1"
       inkscape:vp_z="1 : 0.5 : 1"
       inkscape:vp_y="0 : 1000 : 0"
       inkscape:vp_x="0 : 0.5 : 1"
       sodipodi:type="inkscape:persp3d" />
    <inkscape:perspective
       id="perspective4283"
       inkscape:persp3d-origin="0.5 : 0.33333333 : 1"
       inkscape:vp_z="1 : 0.5 : 1"
       inkscape:vp_y="0 : 1000 : 0"
       inkscape:vp_x="0 : 0.5 : 1"
       sodipodi:type="inkscape:persp3d" />
    <inkscape:perspective
       id="perspective4314"
       inkscape:persp3d-origin="0.5 : 0.33333333 : 1"
       inkscape:vp_z="1 : 0.5 : 1"
       inkscape:vp_y="0 : 1000 : 0"
       inkscape:vp_x="0 : 0.5 : 1"
       sodipodi:type="inkscape:persp3d" />
    <inkscape:perspective
       id="perspective4330"
       inkscape:persp3d-origin="0.5 : 0.33333333 : 1"
       inkscape:vp_z="1 : 0.5 : 1"
       inkscape:vp_y="0 : 1000 : 0"
       inkscape:vp_x="0 : 0.5 : 1"
       sodipodi:type="inkscape:persp3d" />
    <inkscape:perspective
       id="perspective4346"
       inkscape:persp3d-origin="0.5 : 0.33333333 : 1"
       inkscape:vp_z="1 : 0.5 : 1"
       inkscape:vp_y="0 : 1000 : 0"
       inkscape:vp_x="0 : 0.5 : 1"
       sodipodi:type="inkscape:persp3d" />
    <inkscape:perspective
       id="perspective3742"
       inkscape:persp3d-origin="0.5 : 0.33333333 : 1"
       inkscape:vp_z="1 : 0.5 : 1"
       inkscape:vp_y="0 : 1000 : 0"
       inkscape:vp_x="0 : 0.5 : 1"
       sodipodi:type="inkscape:persp3d" />
    <inkscape:perspective
       id="perspective3776"
       inkscape:persp3d-origin="0.5 : 0.33333333 : 1"
       inkscape:vp_z="1 : 0.5 : 1"
       inkscape:vp_y="0 : 1000 : 0"
       inkscape:vp_x="0 : 0.5 : 1"
       sodipodi:type="inkscape:persp3d" />
    <inkscape:perspective
       id="perspective3792"
       inkscape:persp3d-origin="0.5 : 0.33333333 : 1"
       inkscape:vp_z="1 : 0.5 : 1"
       inkscape:vp_y="0 : 1000 : 0"
       inkscape:vp_x="0 : 0.5 : 1"
       sodipodi:type="inkscape:persp3d" />
    <inkscape:perspective
       id="perspective3808"
       inkscape:persp3d-origin="0.5 : 0.33333333 : 1"
       inkscape:vp_z="1 : 0.5 : 1"
       inkscape:vp_y="0 : 1000 : 0"
       inkscape:vp_x="0 : 0.5 : 1"
       sodipodi:type="inkscape:persp3d" />
    <inkscape:perspective
       id="perspective3824"
       inkscape:persp3d-origin="0.5 : 0.33333333 : 1"
       inkscape:vp_z="1 : 0.5 : 1"
       inkscape:vp_y="0 : 1000 : 0"
       inkscape:vp_x="0 : 0.5 : 1"
       sodipodi:type="inkscape:persp3d" />
    <inkscape:perspective
       id="perspective4354"
       inkscape:persp3d-origin="0.5 : 0.33333333 : 1"
       inkscape:vp_z="1 : 0.5 : 1"
       inkscape:vp_y="0 : 1000 : 0"
       inkscape:vp_x="0 : 0.5 : 1"
       sodipodi:type="inkscape:persp3d" />
    <inkscape:perspective
       id="perspective4395"
       inkscape:persp3d-origin="0.5 : 0.33333333 : 1"
       inkscape:vp_z="1 : 0.5 : 1"
       inkscape:vp_y="0 : 1000 : 0"
       inkscape:vp_x="0 : 0.5 : 1"
       sodipodi:type="inkscape:persp3d" />
    <inkscape:perspective
       id="perspective4435"
       inkscape:persp3d-origin="0.5 : 0.33333333 : 1"
       inkscape:vp_z="1 : 0.5 : 1"
       inkscape:vp_y="0 : 1000 : 0"
       inkscape:vp_x="0 : 0.5 : 1"
       sodipodi:type="inkscape:persp3d" />
    <inkscape:perspective
       id="perspective4460"
       inkscape:persp3d-origin="0.5 : 0.33333333 : 1"
       inkscape:vp_z="1 : 0.5 : 1"
       inkscape:vp_y="0 : 1000 : 0"
       inkscape:vp_x="0 : 0.5 : 1"
       sodipodi:type="inkscape:persp3d" />
    <inkscape:perspective
       id="perspective4479"
       inkscape:persp3d-origin="0.5 : 0.33333333 : 1"
       inkscape:vp_z="1 : 0.5 : 1"
       inkscape:vp_y="0 : 1000 : 0"
       inkscape:vp_x="0 : 0.5 : 1"
       sodipodi:type="inkscape:persp3d" />
    <inkscape:perspective
       id="perspective4495"
       inkscape:persp3d-origin="0.5 : 0.33333333 : 1"
       inkscape:vp_z="1 : 0.5 : 1"
       inkscape:vp_y="0 : 1000 : 0"
       inkscape:vp_x="0 : 0.5 : 1"
       sodipodi:type="inkscape:persp3d" />
    <inkscape:perspective
       id="perspective4511"
       inkscape:persp3d-origin="0.5 : 0.33333333 : 1"
       inkscape:vp_z="1 : 0.5 : 1"
       inkscape:vp_y="0 : 1000 : 0"
       inkscape:vp_x="0 : 0.5 : 1"
       sodipodi:type="inkscape:persp3d" />
    <inkscape:perspective
       id="perspective4527"
       inkscape:persp3d-origin="0.5 : 0.33333333 : 1"
       inkscape:vp_z="1 : 0.5 : 1"
       inkscape:vp_y="0 : 1000 : 0"
       inkscape:vp_x="0 : 0.5 : 1"
       sodipodi:type="inkscape:persp3d" />
    <inkscape:perspective
       id="perspective4543"
       inkscape:persp3d-origin="0.5 : 0.33333333 : 1"
       inkscape:vp_z="1 : 0.5 : 1"
       inkscape:vp_y="0 : 1000 : 0"
       inkscape:vp_x="0 : 0.5 : 1"
       sodipodi:type="inkscape:persp3d" />
  </defs>
  <path
     style="fill:#ffffff;fill-opacity:1;stroke:none"
     d="m -4.9305571,-3.438081 207.7153771,0 0,207.348391 -207.7153771,0 0,-207.348391 z"
     id="rect2881" />
  <path
     style="fill:none;stroke:#000000;stroke-width:3;stroke-miterlimit:4;stroke-opacity:1"
     d="m 21.814432,2.8621521 157.645218,0 c 10.29357,0 18.58045,8.2868829 18.58045,18.5804539 l 0,157.645234 c 0,10.29357 -8.28688,18.58045 -18.58045,18.58045 l -157.645218,0 c -10.293571,0 -18.5804535,-8.28688 -18.5804535,-18.58045 l 0,-157.645234 c 0,-10.293571 8.2868825,-18.5804539 18.5804535,-18.5804539 z"
     id="rect4614" />
  <path
     style="fill:#000000"
     d="m 72.688506,159.99473 c -0.661413,-0.35969 -1.541796,-1.45673 -1.956406,-2.43788 -1.050324,-2.48553 -5.171868,-31.53096 -4.93696,-34.79189 0.102911,-1.4286 0.79633,-4.02704 1.544304,-5.78696 1.302985,-3.06581 1.322905,-3.21946 0.495762,-3.82428 -0.473971,-0.34658 -1.085956,-0.70487 -1.359974,-0.79621 -0.287966,-0.096 0.541072,-2.49854 1.964581,-5.69333 1.354532,-3.03999 2.360506,-5.76286 2.235495,-6.05082 -0.125011,-0.28795 -2.534556,-3.424481 -5.354541,-6.970061 L 60.19352,87.196792 57.256202,92.00556 c -7.620742,12.47613 -8.072365,12.99746 -11.259471,12.99746 -0.776887,0 -1.790933,-0.20251 -2.253436,-0.45004 -1.216566,-0.65108 -2.072195,-3.04287 -1.719465,-4.806519 0.406623,-2.033122 18.817107,-34.767597 20.780031,-36.947615 1.939308,-2.153791 4.138417,-2.921049 7.205959,-2.514126 2.365246,0.313762 32.84928,11.846026 34.9983,13.240037 1.84025,1.19372 2.30877,2.075235 2.32475,4.374004 0.0114,1.640879 -0.23634,2.377085 -1.06045,3.151296 -2.02973,1.906829 -3.22795,1.765796 -12.710652,-1.49608 -4.880023,-1.678636 -8.962682,-2.962146 -9.072583,-2.852245 -0.109902,0.109902 1.212628,4.282647 2.93896,9.272764 l 3.138783,9.072945 5.17607,6.394149 c 4.866202,6.01138 5.130382,6.44462 4.413042,7.23728 -1.003872,1.10927 -0.953832,1.45471 0.44037,3.04004 l 1.17382,1.33474 7.585,-4.32869 c 9.00084,-5.13669 10.71263,-5.5795 12.94379,-3.34834 1.93895,1.93895 1.99586,4.62709 0.13932,6.58112 -1.39462,1.46786 -16.24569,10.8472 -18.99246,11.99488 -4.014043,1.67717 -5.850149,0.72081 -11.676088,-6.08164 -0.964938,-1.12667 -1.319527,-1.28832 -1.796324,-0.81887 -1.104627,1.0876 -2.038728,0.58929 -3.666753,-1.95607 -0.892166,-1.39488 -1.759728,-2.4511 -1.927914,-2.34715 -0.168182,0.10394 -0.779943,1.45686 -1.359459,3.00648 -0.579521,1.54962 -1.119578,2.81749 -1.200126,2.81749 -0.08054,0 -0.661282,-0.19574 -1.290529,-0.43497 -1.077432,-0.40964 -1.216265,-0.26514 -2.383187,2.48053 l -1.239109,2.91551 1.884799,15.57719 c 1.036642,8.56745 1.884804,16.21078 1.884804,16.98517 0,2.16597 -2.648566,4.59542 -4.983406,4.57114 -0.990832,-0.0103 -2.342669,-0.31302 -3.004082,-0.6727 z m 60.714574,-1.16403 c -1.31841,-1.56684 -1.24294,-1.19563 -3.13517,-15.42163 -1.81307,-13.63083 -1.80503,-13.96324 0.47611,-19.68902 1.02944,-2.58394 1.8717,-4.79912 1.8717,-4.92263 0,-0.1235 -0.73698,-0.22456 -1.63774,-0.22456 -1.00128,0 -1.63552,-0.2273 -1.63204,-0.5849 0.003,-0.3217 1.34657,-4.74268 2.98539,-9.8244 l 2.97969,-9.239492 -1.65325,-4.441221 -1.65325,-4.441217 -1.44912,0.866785 c -7.99637,4.782985 -9.50709,5.31168 -11.79586,4.128109 -1.37191,-0.709441 -9.02816,-9.103295 -9.62418,-10.551374 -1.14525,-2.782445 0.6426,-5.685955 3.50114,-5.685955 1.36882,0 2.10974,0.529602 5.37029,3.838613 l 3.78239,3.838613 7.42765,-4.949207 c 9.41687,-6.274656 9.81224,-6.471424 13.00339,-6.471424 4.24322,0 18.51653,5.82871 20.18976,8.244773 1.10507,1.595659 4.3643,10.917274 4.3643,12.482162 0,2.80862 -4.01468,4.220765 -5.92597,2.084435 -0.51806,-0.579058 -1.64225,-2.781008 -2.49819,-4.893219 -1.41247,-3.48554 -1.72297,-3.907089 -3.36044,-4.562274 -0.99229,-0.397039 -1.891,-0.721887 -1.99711,-0.721887 -0.10612,0 -0.98615,2.410041 -1.95562,5.355641 l -1.76267,5.355642 4.0793,8.565147 c 2.24362,4.71083 4.07545,8.82835 4.07075,9.15005 -0.005,0.32169 -0.32981,0.5849 -0.72246,0.5849 -0.63725,0 -0.63596,0.15073 0.012,1.40378 0.39925,0.77208 0.78033,1.40378 0.84683,1.40378 0.0665,0 3.5809,-1.15812 7.80979,-2.57359 8.82289,-2.95317 10.26537,-3.11896 11.66417,-1.34068 1.20422,1.53092 1.27928,4.37701 0.15095,5.72399 -1.24753,1.48928 -21.27544,8.18955 -23.32836,7.80442 -2.3398,-0.43895 -3.96949,-2.48129 -5.98994,-7.50666 l -1.82768,-4.54588 -1.62276,0.26333 c -0.89252,0.14484 -1.6661,0.32499 -1.71906,0.40034 -0.053,0.0753 -1.19441,3.09186 -2.53653,6.70338 l -2.44022,6.56639 1.45823,11.44874 c 1.82984,14.36642 1.84995,15.11139 0.44796,16.60373 -1.64502,1.75104 -4.65272,1.64206 -6.22419,-0.22553 l 2e-5,0 z M 29.438153,126.25886 c -6.691334,-4.76034 -12.231895,-8.95185 -12.312357,-9.31445 -0.202311,-0.91172 12.584514,-19.513665 13.240498,-19.26194 0.952874,0.365656 25.271976,17.6304 25.413589,18.04175 0.211558,0.61453 -12.987124,19.22854 -13.619806,19.20792 -0.305724,-0.01 -6.030589,-3.91294 -12.721924,-8.67328 z m 129.624057,-12.4645 c -0.17173,-2.13297 -0.24394,-5.32632 -0.16047,-7.09634 l 0.15177,-3.21823 6.47924,-2.2799 c 3.56359,-1.253943 6.72208,-2.270946 7.01888,-2.260006 0.5759,0.02124 7.79249,9.489016 7.79249,10.223336 0,0.35495 -16.29763,7.04437 -19.96033,8.19278 -0.96267,0.30184 -1.02379,0.13713 -1.32158,-3.56164 z m -7.96343,-39.942912 c -3.46882,-2.199825 -4.17258,-3.201373 -2.6002,-3.70043 0.52935,-0.168008 0.96246,-0.484303 0.96246,-0.702871 0,-0.794757 -1.21099,-0.771291 -3.04151,0.05893 -2.86516,1.299481 -6.8468,1.148869 -9.62671,-0.364149 -7.22789,-3.933916 -7.14036,-14.735172 0.14972,-18.47355 6.75215,-3.462531 14.85259,0.864703 15.4172,8.235826 0.12867,1.679829 0.35143,1.974463 2.24848,2.97399 4.02999,2.123338 6.08303,3.391926 6.08303,3.758738 0,0.203023 -0.52641,0.650861 -1.16981,0.995198 -0.6434,0.344337 -1.16982,0.765058 -1.16982,0.934934 0,0.16988 1.07583,0.812758 2.39072,1.428623 2.63706,1.235132 3.46373,2.561116 2.75647,4.421363 -0.59401,1.562343 -2.80703,1.560092 -5.54589,-0.0056 -1.12005,-0.640319 -2.22552,-1.164199 -2.45661,-1.164199 -0.23109,0 -0.42016,0.842266 -0.42016,1.871702 0,1.029436 -0.15793,1.857534 -0.35095,1.840216 -0.19302,-0.01731 -1.82491,-0.966234 -3.62642,-2.108707 l 0,-1.4e-5 z m 1.63774,-9.791908 c 0,-0.386038 -0.21057,-0.701888 -0.46793,-0.701888 -0.25736,0 -0.46792,0.31585 -0.46792,0.701888 0,0.386039 0.21056,0.701889 0.46792,0.701889 0.25736,0 0.46793,-0.31585 0.46793,-0.701889 z M 50.086535,62.202732 C 41.807343,59.251549 39.59427,48.168967 46.161609,42.547569 c 7.835281,-6.706711 19.072844,-1.613726 19.072844,8.644019 0,8.233342 -7.548143,13.720143 -15.147918,11.011144 z"
     id="path4549"
     sodipodi:nodetypes="cssssssscccsssssssssscccscccsssssssssscccssccssssscccccssscccssssssscccsssssssscccscccscccsssscccccsssccsssssssssssssssscccsssccssc" />
</svg>
