<?xml version="1.0" encoding="UTF-8" standalone="no"?>
<!-- Created with Inkscape (http://www.inkscape.org/) -->
<svg
   xmlns:dc="http://purl.org/dc/elements/1.1/"
   xmlns:cc="http://creativecommons.org/ns#"
   xmlns:rdf="http://www.w3.org/1999/02/22-rdf-syntax-ns#"
   xmlns:svg="http://www.w3.org/2000/svg"
   xmlns="http://www.w3.org/2000/svg"
   xmlns:sodipodi="http://sodipodi.sourceforge.net/DTD/sodipodi-0.dtd"
   xmlns:inkscape="http://www.inkscape.org/namespaces/inkscape"
   version="1.1"
   width="200"
   height="200"
   id="svg2"
   inkscape:version="0.46"
   sodipodi:docname="Italian_traffic_signs_-_icona_ciclomotore.svg"
   sodipodi:version="0.32"
   inkscape:output_extension="org.inkscape.output.svg.inkscape">
  <metadata
     id="metadata2877">
    <rdf:RDF>
      <cc:Work
         rdf:about="">
        <dc:format>image/svg+xml</dc:format>
        <dc:type
           rdf:resource="http://purl.org/dc/dcmitype/StillImage" />
      </cc:Work>
    </rdf:RDF>
  </metadata>
  <sodipodi:namedview
     pagecolor="#ffffff"
     bordercolor="#666666"
     borderopacity="1"
     objecttolerance="10"
     gridtolerance="10"
     guidetolerance="10"
     inkscape:pageopacity="0"
     inkscape:pageshadow="2"
     inkscape:window-width="1024"
     inkscape:window-height="708"
     id="namedview2875"
     showgrid="false"
     inkscape:zoom="1.9914447"
     inkscape:cx="115.51255"
     inkscape:cy="118.43692"
     inkscape:window-x="0"
     inkscape:window-y="26"
     inkscape:window-maximized="1"
     inkscape:current-layer="svg2" />
  <defs
     id="defs4">
    <inkscape:perspective
       sodipodi:type="inkscape:persp3d"
       inkscape:vp_x="0 : 100 : 1"
       inkscape:vp_y="0 : 1000 : 0"
       inkscape:vp_z="200 : 100 : 1"
       inkscape:persp3d-origin="100 : 66.666667 : 1"
       id="perspective2879" />
  </defs>
  <rect
     style="fill:#ffffff;fill-opacity:1;stroke:none"
     id="rect2881"
     width="200.9709"
     height="200.61583"
     x="0.1366235"
     y="0.033394299"
     rx="0"
     ry="0" />
  <rect
     width="194.80612"
     height="194.80614"
     ry="18.580454"
     x="3.2339785"
     y="2.8621521"
     id="rect4614"
     style="fill:none;stroke:#000000;stroke-width:3;stroke-miterlimit:4;stroke-opacity:1;stroke-dasharray:none" />
  <g
     transform="matrix(0.5755831,0,0,0.5755831,-12.672477,-15.787489)"
     id="g2173">
    <path
       d="M 113.28125,150.875 L 113.28125,171.34375 L 127.5625,171.34375 L 136.53125,150.875 L 113.28125,150.875 z"
       id="path5190"
       style="fill:#000000;fill-opacity:1;fill-rule:nonzero;stroke:none" />
    <path
       d="M 152.25,163.9375 L 149.3125,170.5 L 148.9375,171.34375 L 142.96875,184.59375 L 171,223.1875 L 180.375,223.1875 C 184.07716,220.25967 188.72816,218.46875 193.78125,218.46875 C 198.83435,218.46876 203.48534,220.25967 207.1875,223.1875 L 233.46875,223.1875 C 240.40955,201.52709 260.74258,185.78124 284.65625,185.78125 L 311.34375,185.78125 C 311.34375,185.78125 311.34375,166.6875 311.34375,166.6875 L 227.875,166.6875 C 225.00268,166.6875 222.6875,169.00268 222.6875,171.875 L 222.6875,206.875 L 183.4375,206.875 L 152.25,163.9375 z"
       id="path5188"
       style="fill:#000000;fill-opacity:1;fill-rule:nonzero;stroke:none" />
    <path
       d="M 108.375,190.78125 C 81.47864,190.78124 59.624997,212.6349 59.625,239.53125 C 59.625001,266.42759 81.478641,288.25 108.375,288.25 C 135.27135,288.24999 157.09375,266.42761 157.09375,239.53125 C 157.09375,223.00634 148.84065,208.41286 136.25,199.59375 L 130.90625,211.46875 C 139.11457,218.07535 144.375,228.17857 144.375,239.53125 C 144.375,259.41581 128.25957,275.53125 108.375,275.53125 C 88.490423,275.53125 72.34375,259.41582 72.34375,239.53125 C 72.343752,219.64667 88.490424,203.5 108.375,203.5 C 110.06512,203.5 111.71567,203.64932 113.34375,203.875 L 118.59375,191.875 C 115.29604,191.16901 111.88243,190.78125 108.375,190.78125 z"
       id="path5186"
       style="fill:#000000;fill-opacity:1;fill-rule:nonzero;stroke:none" />
    <path
       d="M 284.65625,190.78125 C 263.51601,190.78124 245.49683,204.28639 238.75,223.125 L 252.59375,223.125 C 258.57134,211.49 270.68734,203.5 284.65625,203.5 C 304.54084,203.49998 320.65625,219.64668 320.65625,239.53125 C 320.65627,259.41581 304.54082,275.53125 284.65625,275.53125 C 271.09106,275.53125 259.27136,268.04895 253.125,256.96875 L 239.15625,256.96875 C 246.18379,275.25636 263.90522,288.25 284.65625,288.25 C 311.55262,288.24999 333.375,266.42761 333.375,239.53125 C 333.37502,212.63489 311.5526,190.78126 284.65625,190.78125 z"
       id="path5201"
       style="fill:#000000;fill-opacity:1;fill-rule:nonzero;stroke:none" />
    <path
       d="M 169.03125,121.3125 C 160.00539,121.3125 151.34938,129.06949 147.75,137.65625 L 108.1875,228.125 C 108.1567,228.12471 108.1247,228.125 108.0938,228.125 C 102.79919,228.125 98.500048,232.42414 98.50005,237.71875 C 98.50005,243.01336 102.79918,247.3125 108.0938,247.3125 C 113.38841,247.3125 117.68755,243.01336 117.68755,237.71875 C 117.68755,235.71736 117.08108,233.8506 116.0313,232.3125 L 156.8438,141.53125 C 159.13691,136.92135 163.05976,131.43751 170.31255,131.4375 L 188.7188,131.4375 L 188.7188,121.3125 L 169.0313,121.3125 L 169.03125,121.3125 z"
       id="path3139"
       style="fill:#000000;fill-opacity:1;fill-rule:nonzero;stroke:none" />
    <path
       d="M 117.69261,239.27374 C 117.69261,243.71205 114.09464,247.31002 109.65633,247.31002 C 105.21802,247.31002 101.62005,243.71205 101.62005,239.27374 C 101.62005,234.83543 105.21802,231.23746 109.65633,231.23746 C 114.09464,231.23746 117.69261,234.83543 117.69261,239.27374 z"
       transform="matrix(2.0806452,0,0,2.0806452,-34.377877,-257.66269)"
       id="path3141"
       style="fill:#000000;fill-opacity:1;fill-rule:nonzero;stroke:none" />
    <rect
       width="64.549469"
       height="22.03496"
       ry="5.1846967"
       x="222.68272"
       y="140.24605"
       id="rect3143"
       style="fill:#000000;fill-opacity:1;fill-rule:nonzero;stroke:none"
       rx="5.1846967" />
    <path
       d="M 211.8125,228.125 C 214.14648,231.58559 215.5,235.72732 215.5,240.1875 C 215.5,244.51708 214.21027,248.57009 212,251.96875 L 277.625,251.96875 C 284.23134,251.96875 289.56249,246.66884 289.5625,240.0625 C 289.5625,233.45616 284.23134,228.125 277.625,228.125 L 211.8125,228.125 z"
       id="path5159"
       style="fill:#000000;fill-opacity:1;fill-rule:nonzero;stroke:none" />
  </g>
</svg>
