<?xml version="1.0" encoding="UTF-8" standalone="no"?>
<!-- Created with Inkscape (http://www.inkscape.org/) -->

<svg
   xmlns:dc="http://purl.org/dc/elements/1.1/"
   xmlns:cc="http://creativecommons.org/ns#"
   xmlns:rdf="http://www.w3.org/1999/02/22-rdf-syntax-ns#"
   xmlns:svg="http://www.w3.org/2000/svg"
   xmlns="http://www.w3.org/2000/svg"
   xmlns:sodipodi="http://sodipodi.sourceforge.net/DTD/sodipodi-0.dtd"
   xmlns:inkscape="http://www.inkscape.org/namespaces/inkscape"
   width="215"
   height="500"
   id="svg2994"
   version="1.1"
   inkscape:version="0.48.5 r10040"
   sodipodi:docname="CANC Ferriere.svg"
   inkscape:export-filename="C:\Users\utente\Desktop\CANC drittok.png"
   inkscape:export-xdpi="90"
   inkscape:export-ydpi="90">
  <defs
     id="defs2996" />
  <sodipodi:namedview
     id="base"
     pagecolor="#ffffff"
     bordercolor="#666666"
     borderopacity="1.0"
     inkscape:pageopacity="0.0"
     inkscape:pageshadow="2"
     inkscape:zoom="1"
     inkscape:cx="47.483705"
     inkscape:cy="211.56158"
     inkscape:document-units="px"
     inkscape:current-layer="layer1"
     showgrid="false"
     inkscape:window-width="1366"
     inkscape:window-height="705"
     inkscape:window-x="-8"
     inkscape:window-y="-8"
     inkscape:window-maximized="1"
     fit-margin-top="0"
     fit-margin-left="0"
     fit-margin-right="0"
     fit-margin-bottom="0"
     inkscape:object-nodes="true"
     inkscape:object-paths="false" />
  <metadata
     id="metadata2999">
    <rdf:RDF>
      <cc:Work
         rdf:about="">
        <dc:format>image/svg+xml</dc:format>
        <dc:type
           rdf:resource="http://purl.org/dc/dcmitype/StillImage" />
        <dc:title></dc:title>
      </cc:Work>
    </rdf:RDF>
  </metadata>
  <g
     inkscape:label="Livello 1"
     inkscape:groupmode="layer"
     id="layer1"
     transform="translate(-237.85715,-320.93347)">
    <path
       id="path6820"
       transform="translate(237.85714,320.9335)"
       style="fill:#000000;fill-opacity:1;fill-rule:evenodd;stroke:none"
       d="M 971.99996,-12 1072,588 1172,-12 z m 40.99224,99.99609 118.0078,0 -59.023,353.98979 z"
       inkscape:connector-curvature="0" />
    <rect
       inkscape:export-ydpi="90"
       inkscape:export-xdpi="90"
       inkscape:export-filename="C:\Users\utente\Desktop\CANCdx.png"
       y="320.93347"
       x="237.85715"
       height="500"
       width="215"
       id="rect5153"
       style="fill:#989898;fill-opacity:1;stroke-width:5.1999898;stroke-linecap:round;stroke-linejoin:round;stroke-miterlimit:4;stroke-dasharray:15.6, 15.6;stroke-dashoffset:0" />
    <g
       transform="matrix(0.42724817,0,0,2.3405601,-81.499995,57.000006)"
       style="font-size:232.20248413px;font-style:normal;font-weight:normal;line-height:125%;letter-spacing:0px;word-spacing:0px;fill:#ffffff;fill-opacity:1;stroke:none;font-family:Sans"
       id="text7939">
      <path
         d="m 864.50258,137.14623 114.47849,0 0,30.64807 -55.03187,133.98695 -35.75726,0 54.56418,-134.21371 -78.25354,0 z"
         style="font-variant:normal;font-stretch:normal;fill:#ffffff;font-family:CodiceBianco;-inkscape-font-specification:CodiceBianco"
         id="path8065"
         inkscape:connector-curvature="0" />
      <path
         d="m 1133.667,219.80743 c -2e-4,31.58114 -8.5155,54.72484 -25.546,69.43115 -12.231,10.52546 -26.7814,15.78818 -43.6513,15.78818 -16.563,0 -31.0379,-5.41625 -43.4246,-16.24879 -16.8748,-15.0181 -25.31213,-38.08385 -25.31212,-69.1973 -10e-6,-32.9746 8.90272,-56.65921 26.70812,-71.05391 11.7631,-9.59934 25.7726,-14.3991 42.0286,-14.39927 16.0999,1.7e-4 30.1873,5.03141 42.2624,15.09373 17.9565,14.86239 26.9347,38.3911 26.9349,70.58621 z m -68.9706,53.64296 c 22.9122,4e-5 34.3683,-18.42185 34.3684,-55.26572 -1e-4,-35.45005 -11.2224,-53.17513 -33.6668,-53.17527 -23.3753,1.4e-4 -35.0629,17.80317 -35.0628,53.40912 -10e-5,36.68797 11.4537,55.03191 34.3612,55.03187 z"
         style="font-variant:normal;font-stretch:normal;fill:#ffffff;font-family:CodiceBianco;-inkscape-font-specification:CodiceBianco"
         id="path8067"
         inkscape:connector-curvature="0" />
    </g>
  </g>
</svg>
