<?xml version="1.0" encoding="UTF-8" standalone="no"?>
<!-- Created with Inkscape (http://www.inkscape.org/) -->

<svg
   xmlns:dc="http://purl.org/dc/elements/1.1/"
   xmlns:cc="http://creativecommons.org/ns#"
   xmlns:rdf="http://www.w3.org/1999/02/22-rdf-syntax-ns#"
   xmlns:svg="http://www.w3.org/2000/svg"
   xmlns="http://www.w3.org/2000/svg"
   xmlns:sodipodi="http://sodipodi.sourceforge.net/DTD/sodipodi-0.dtd"
   xmlns:inkscape="http://www.inkscape.org/namespaces/inkscape"
   width="1424.9062"
   height="876.0625"
   id="svg17206"
   version="1.1"
   inkscape:version="0.48.5 r10040"
   sodipodi:docname="Nuovo documento 102">
  <defs
     id="defs17208" />
  <sodipodi:namedview
     id="base"
     pagecolor="#ffffff"
     bordercolor="#666666"
     borderopacity="1.0"
     inkscape:pageopacity="0.0"
     inkscape:pageshadow="2"
     inkscape:zoom="0.35"
     inkscape:cx="1157.4135"
     inkscape:cy="344.38294"
     inkscape:document-units="px"
     inkscape:current-layer="layer1"
     showgrid="false"
     fit-margin-top="0"
     fit-margin-left="0"
     fit-margin-right="0"
     fit-margin-bottom="0"
     inkscape:window-width="1366"
     inkscape:window-height="705"
     inkscape:window-x="-8"
     inkscape:window-y="-8"
     inkscape:window-maximized="1" />
  <metadata
     id="metadata17211">
    <rdf:RDF>
      <cc:Work
         rdf:about="">
        <dc:format>image/svg+xml</dc:format>
        <dc:type
           rdf:resource="http://purl.org/dc/dcmitype/StillImage" />
        <dc:title></dc:title>
      </cc:Work>
    </rdf:RDF>
  </metadata>
  <g
     inkscape:label="Livello 1"
     inkscape:groupmode="layer"
     id="layer1"
     transform="translate(520.28125,80.4375)">
    <rect
       y="-79.930115"
       x="-519.78778"
       height="875.05078"
       width="1423.9042"
       id="rect17143"
       style="fill:#ffffff;fill-opacity:1;stroke:none" />
    <path
       sodipodi:nodetypes="ccccccc"
       inkscape:connector-curvature="0"
       id="path16159-9"
       d="m -438.51804,155.99393 569.4052,0 -9.8995,-48.4289 -589.7202,0 0,648.4289 30.2145,36.75 z"
       style="fill:#b4b4b4;fill-opacity:1;stroke:#000000;stroke-width:2;stroke-linecap:butt;stroke-linejoin:miter;stroke-miterlimit:4;stroke-opacity:1;stroke-dasharray:none" />
    <path
       style="fill:#b4b4b4;fill-opacity:1;stroke:#000000;stroke-width:2;stroke-linecap:butt;stroke-linejoin:miter;stroke-miterlimit:4;stroke-opacity:1;stroke-dasharray:none"
       d="m 822.89381,155.99393 -569.40515,0 9.8995,-48.4289 589.72015,0 0,648.4289 -30.2145,36.75 z"
       id="path16161-9"
       inkscape:connector-curvature="0"
       sodipodi:nodetypes="ccccccc" />
    <rect
       y="35.154472"
       x="-371.60065"
       height="200"
       width="350"
       id="rect16685"
       style="fill:#08842c;fill-opacity:1;stroke:none" />
    <rect
       style="fill:#00408b;fill-opacity:1;stroke:none"
       id="rect16687"
       width="325"
       height="265"
       x="28.398874"
       y="-29.84552" />
    <rect
       y="35.654472"
       x="403.89935"
       height="199"
       width="324"
       id="rect16693"
       style="fill:#ffffff;fill-opacity:1;stroke:#000000;stroke-width:0.99999994;stroke-miterlimit:4;stroke-opacity:1;stroke-dasharray:none" />
    <path
       inkscape:connector-curvature="0"
       d="m 498.10311,177.04233 c -22.4489,0.5741 -21.9388,13.2653 -21.9388,13.2653 l 0,17.3469 -11.2244,0 0,-66.2626 -13.329,2.3597 c -0.3825,-0.064 -0.7016,-0.1912 -0.8929,-0.383 -0.2549,-0.1911 -0.3187,-0.7018 -0.3187,-1.0206 l 20.2169,-34.6938 20.2805,34.7576 c 0,0.3186 -0.062,0.829 -0.1912,0.9566 -0.2548,0.1911 -0.5104,0.3186 -0.8291,0.2549 l -13.5841,-2.4235 0,31.3775 c 2.6149,-5.9311 10.7142,-6.9515 21.556,-6.824 l -2.2321,-13.4566 c 0.062,-0.3186 0.1276,-0.6377 0.3187,-0.7653 0.1911,-0.3186 0.7015,-0.3824 1.0204,-0.3186 l 34.6938,20.153 -34.7576,20.2805 c -0.2548,0.064 -0.7653,-0.064 -0.9566,-0.2549 -0.1911,-0.1912 -0.2549,-0.3824 -0.2549,-0.7653 z"
       style="fill:#000000;fill-opacity:1;fill-rule:evenodd;stroke-width:0.15289199"
       id="path16906" />
    <rect
       y="55.839417"
       x="59.778755"
       height="50"
       width="255"
       id="rect16689"
       style="fill:#ffffff;fill-opacity:1;stroke:none" />
    <rect
       y="154.15448"
       x="-334.10114"
       height="40"
       width="180"
       id="rect16691"
       style="fill:#ffffff;fill-opacity:1;stroke:none" />
    <g
       style="font-size:35.56172943px;font-style:normal;font-weight:normal;line-height:125%;letter-spacing:0px;word-spacing:0px;fill:#ffffff;fill-opacity:1;stroke:none;font-family:Sans"
       id="text16695">
      <path
         d="m -219.56822,70.154483 c 1.51717,2.7e-5 2.92801,0.640328 4.23251,1.920907 1.39851,1.350807 2.09778,2.89151 2.0978,4.622113 -2e-5,1.826145 -0.82988,3.533254 -2.48958,5.121332 2.34703,1.280618 3.52055,3.295939 3.52057,6.045971 -2e-5,1.801535 -0.55712,3.389989 -1.67129,4.765368 -1.18512,1.493317 -2.76164,2.34669 -4.72956,2.560123 l -13.90432,0 0,-25.035814 z m -7.68146,10.063596 5.97435,0 c 0.73507,1.7e-5 1.33973,-0.28432 1.81401,-0.853012 0.47424,-0.568658 0.71137,-1.220535 0.71138,-1.955635 -1e-5,-1.635824 -0.90078,-2.536949 -2.70229,-2.703377 l -5.79745,0 z m 0,10.420646 6.43667,0 c 0.99625,6e-6 1.79066,-0.308207 2.38323,-0.924639 0.49775,-0.569392 0.74664,-1.26902 0.74665,-2.098889 -1e-5,-0.782099 -0.24311,-1.481367 -0.72929,-2.097803 -0.48621,-0.616415 -1.15582,-0.972018 -2.00881,-1.066809 l -6.82845,0 z"
         style="font-variant:normal;font-stretch:normal;fill:#ffffff;font-family:CodiceBianco;-inkscape-font-specification:CodiceBianco"
         id="path17472" />
      <path
         d="m -184.92028,82.49495 c -2e-5,4.006059 -1.14967,7.206481 -3.44895,9.601277 -2.20454,2.276149 -5.04936,3.414222 -8.53447,3.414221 -3.48513,10e-7 -6.31837,-1.138072 -8.49973,-3.414221 -2.29931,-2.394796 -3.44896,-5.595218 -3.44895,-9.601277 -1e-5,-3.911974 1.2683,-7.053431 3.80491,-9.424379 2.27614,-2.109715 4.99073,-3.164585 8.14377,-3.164612 3.15302,2.7e-5 5.86761,1.054897 8.14378,3.164612 2.55974,2.370948 3.83962,5.512405 3.83964,9.424379 z m -5.47621,0 c -2e-5,-2.347034 -0.59854,-4.220006 -1.79556,-5.618922 -1.19705,-1.398876 -2.7676,-2.098324 -4.71165,-2.098346 -1.94407,2.2e-5 -3.50286,0.69947 -4.67637,2.098346 -1.17353,1.398916 -1.7603,3.271888 -1.76029,5.618922 -1e-5,2.441842 0.49776,4.350085 1.49332,5.724736 1.11418,1.564948 2.76197,2.347418 4.94334,2.347412 2.20451,6e-6 3.86387,-0.782464 4.97808,-2.347412 1.0194,-1.398526 1.52911,-3.306769 1.52913,-5.724736 z"
         style="font-variant:normal;font-stretch:normal;fill:#ffffff;font-family:CodiceBianco;-inkscape-font-specification:CodiceBianco"
         id="path17474" />
      <path
         d="m -175.72597,90.638725 11.48637,0 0,4.515758 -16.39391,0 0,-25 4.90754,0 z"
         style="font-variant:normal;font-stretch:normal;fill:#ffffff;font-family:CodiceBianco;-inkscape-font-specification:CodiceBianco"
         id="path17476" />
      <path
         d="m -137.41203,82.49495 c -2e-5,4.006059 -1.14967,7.206481 -3.44895,9.601277 -2.20454,2.276149 -5.04936,3.414222 -8.53447,3.414221 -3.48513,10e-7 -6.31837,-1.138072 -8.49974,-3.414221 -2.2993,-2.394796 -3.44895,-5.595218 -3.44894,-9.601277 -1e-5,-3.911974 1.2683,-7.053431 3.80491,-9.424379 2.27614,-2.109715 4.99073,-3.164585 8.14377,-3.164612 3.15302,2.7e-5 5.86761,1.054897 8.14378,3.164612 2.55974,2.370948 3.83962,5.512405 3.83964,9.424379 z m -5.47621,0 c -2e-5,-2.347034 -0.59854,-4.220006 -1.79556,-5.618922 -1.19706,-1.398876 -2.7676,-2.098324 -4.71165,-2.098346 -1.94407,2.2e-5 -3.50286,0.69947 -4.67637,2.098346 -1.17354,1.398916 -1.7603,3.271888 -1.76029,5.618922 -1e-5,2.441842 0.49776,4.350085 1.49331,5.724736 1.11419,1.564948 2.76197,2.347418 4.94335,2.347412 2.20451,6e-6 3.86387,-0.782464 4.97808,-2.347412 1.0194,-1.398526 1.52911,-3.306769 1.52913,-5.724736 z"
         style="font-variant:normal;font-stretch:normal;fill:#ffffff;font-family:CodiceBianco;-inkscape-font-specification:CodiceBianco"
         id="path17478" />
      <path
         d="m -134.37005,82.815102 c 0,-4.812739 1.56494,-8.369125 4.69482,-10.66917 2.18064,-1.588068 4.6344,-2.382115 7.36131,-2.382141 2.2045,2.6e-5 4.32618,0.675418 6.36503,2.026176 1.82539,1.185849 3.14108,2.572807 3.94709,4.160879 l -4.51576,2.241057 c -1.28062,-2.513436 -3.28401,-3.770164 -6.01016,-3.770186 -1.47017,2.2e-5 -2.65564,0.344049 -3.55639,1.03208 -0.97168,0.734379 -1.63549,1.421708 -1.99145,2.06199 -0.64031,1.114216 -0.96046,2.678795 -0.96045,4.693741 -1e-5,2.229131 0.16604,3.841461 0.49813,4.836994 0.35596,1.114206 1.09104,2.074297 2.20525,2.880274 1.30374,0.972397 2.67876,1.458592 4.12506,1.458587 1.70674,5e-6 3.1825,-0.604664 4.42731,-1.814009 1.24477,-1.209331 1.86717,-2.596108 1.86719,-4.160336 l -6.61465,0 0,-4.481029 11.09568,0 0,14.260288 -4.37468,0 c -0.0709,-0.213433 -0.21309,-0.545521 -0.4265,-0.996267 -2.10976,1.114199 -4.12508,1.671298 -6.04598,1.671297 -2.63139,1e-6 -5.02583,-0.758594 -7.18332,-2.275785 -3.27169,-2.275419 -4.90753,-5.866896 -4.90753,-10.77444 z"
         style="font-variant:normal;font-stretch:normal;fill:#ffffff;font-family:CodiceBianco;-inkscape-font-specification:CodiceBianco"
         id="path17480" />
      <path
         d="m -83.372697,95.154483 -5.832176,0 -12.090857,-17.318545 0,17.318545 -4.97916,0 0,-25 5.83217,0 12.091945,17.4249 0,-17.4249 4.978078,0 z"
         style="font-variant:normal;font-stretch:normal;fill:#ffffff;font-family:CodiceBianco;-inkscape-font-specification:CodiceBianco"
         id="path17482" />
      <path
         d="m -72.139204,70.154483 7.183321,0 8.498655,25 -5.512025,0 -1.421688,-4.196692 -10.20685,0 -1.386959,4.196692 -5.334043,0 z m 3.591118,5.61838 -3.484763,10.527001 7.11278,0 z"
         style="font-variant:normal;font-stretch:normal;fill:#ffffff;font-family:CodiceBianco;-inkscape-font-specification:CodiceBianco"
         id="path17484" />
    </g>
    <g
       style="font-size:25.53129578px;font-style:normal;font-weight:normal;line-height:125%;letter-spacing:0px;word-spacing:0px;fill:#000000;fill-opacity:1;stroke:none;font-family:Sans"
       id="text16699">
      <path
         d="m -277.63612,164.03954 4.06017,0 0,14.19539 7.91463,0 0,3.80461 -11.9748,0 z"
         style="font-variant:normal;font-stretch:normal;fill:#000000;font-family:CodiceNero;-inkscape-font-specification:CodiceNero"
         id="path17459" />
      <path
         d="m -262.88753,169.06975 4.11081,0 0,12.9955 -4.11081,0 z m -0.0764,-4.03446 c 0.42542,-0.85081 1.12328,-1.27623 2.09359,-1.27625 0.37451,2e-5 0.72331,0.0766 1.0464,0.22985 0.86797,0.42544 1.30196,1.13187 1.30197,2.1193 -10e-6,0.35739 -0.0766,0.69762 -0.22985,1.02069 -0.42543,0.85137 -1.1316,1.27705 -2.11852,1.27703 -0.37452,2e-5 -0.72358,-0.0766 -1.04718,-0.22985 -0.85084,-0.4254 -1.27626,-1.12326 -1.27626,-2.09358 0,-0.3745 0.0766,-0.72356 0.22985,-1.04719 z"
         style="font-variant:normal;font-stretch:normal;fill:#000000;font-family:CodiceNero;-inkscape-font-specification:CodiceNero"
         id="path17461" />
      <path
         d="m -247.5086,182.03954 0,-7.20016 c -1e-5,-0.62955 -0.17454,-1.15716 -0.52359,-1.58285 -0.34907,-0.42567 -0.84695,-0.6385 -1.49364,-0.63852 -0.71475,2e-5 -1.25081,0.24701 -1.60817,0.74098 -0.25557,0.37452 -0.38335,0.80851 -0.38335,1.30196 l 0,7.37859 -4.0851,0 0,-12.94486 3.60047,0 0.20414,0.79162 c 0.90173,-0.71473 2.08449,-1.0721 3.54826,-1.07211 1.66842,1e-5 2.9535,0.64671 3.85525,1.94009 0.66383,0.95318 0.99575,1.91491 0.99576,2.8852 l 0,8.40006 z"
         style="font-variant:normal;font-stretch:normal;fill:#000000;font-family:CodiceNero;-inkscape-font-specification:CodiceNero"
         id="path17463" />
      <path
         d="m -231.07937,169.68217 c 0.28931,0.10234 0.6298,0.34076 1.02147,0.71526 0.64668,0.62957 0.97003,1.34431 0.97004,2.14423 l 0,5.94883 c -1e-5,0.30647 0.19582,0.5023 0.58748,0.58748 0.0343,0.0166 0.30672,0.0421 0.81734,0.0764 -0.15325,0.44256 -0.59581,1.48923 -1.32768,3.13999 -1.32769,0 -2.44266,-0.37425 -3.34491,-1.12276 -1.19159,0.78279 -2.38317,1.17418 -3.57475,1.17418 -1.2425,0 -2.33604,-0.39996 -3.28063,-1.19989 -0.94459,-0.79993 -1.41689,-1.79569 -1.41689,-2.98728 0,-1.97436 1.21704,-3.33606 3.65111,-4.0851 0.90226,-0.13608 2.12787,-0.34879 3.67683,-0.63812 -1e-5,-0.74902 -0.47659,-1.12353 -1.42975,-1.12354 -0.95317,1e-5 -1.864,0.24674 -2.73249,0.74019 -0.0509,0.0343 -0.40828,0.30674 -1.07211,0.81733 l -1.94009,-2.93584 c 0.0338,-0.0852 0.28906,-0.27244 0.7659,-0.56177 0.57865,-0.3745 1.22535,-0.71499 1.94009,-1.02147 0.85135,-0.3745 1.85568,-0.56176 3.01299,-0.56177 1.32767,1e-5 2.55302,0.29791 3.67605,0.89369 z m -5.46343,8.29798 c 0.0171,0.27219 0.19582,0.50178 0.53606,0.68877 0.28932,0.17038 0.58722,0.25557 0.89369,0.25556 0.47683,1e-5 0.88537,-0.10635 1.22561,-0.31906 0.34022,-0.21271 0.55293,-0.45515 0.63812,-0.72734 l 0,-1.30275 c -0.71475,0.13662 -1.42949,0.27297 -2.14423,0.40906 -0.78331,0.16986 -1.16639,0.50178 -1.14925,0.99576 z"
         style="font-variant:normal;font-stretch:normal;fill:#000000;font-family:CodiceNero;-inkscape-font-specification:CodiceNero"
         id="path17465" />
      <path
         d="m -219.46531,163.73333 0,4.8253 3.3449,0 0,3.60046 -3.26777,0 0,5.33565 c -1e-5,0.57865 0.40827,0.86798 1.22483,0.86797 0.25555,1e-5 0.59604,-0.0297 1.02147,-0.0892 0.42541,-0.0595 0.68071,-0.0892 0.76591,-0.0892 l 0.71526,3.39555 c -1.02122,0.5106 -2.32344,0.7659 -3.90667,0.7659 -1.07213,0 -2.00815,-0.27244 -2.80807,-0.81733 -0.88512,-0.61241 -1.32768,-1.38663 -1.32768,-2.32265 l 0,-7.04667 -2.1193,0 0,-3.60046 2.1193,0 0,-3.75319 z"
         style="font-variant:normal;font-stretch:normal;fill:#000000;font-family:CodiceNero;-inkscape-font-specification:CodiceNero"
         id="path17467" />
      <path
         d="m -207.37442,168.78848 c 1.63414,1e-5 3.05531,0.57866 4.26353,1.73595 1.36195,1.29392 2.04293,2.99611 2.04294,5.10657 -1e-5,0.27219 -0.0426,0.70618 -0.12778,1.30197 l -8.52783,0 c 0.39165,1.20873 1.25988,1.79595 2.60471,1.76166 1.05496,-0.0338 2.09305,-0.44229 3.11427,-1.22561 l 2.73249,2.68107 c -2.111,1.46377 -4.07706,2.19565 -5.89819,2.19565 -1.71882,0 -3.21661,-0.53605 -4.49338,-1.60817 -1.39572,-1.19158 -2.11903,-2.76599 -2.16994,-4.72323 0,-0.25555 0,-0.6472 0,-1.17496 0.0166,-1.29338 0.50152,-2.54444 1.45468,-3.75318 1.22587,-1.5318 2.89403,-2.29771 5.0045,-2.29772 z m -2.29772,5.05514 4.46767,0 c -0.10182,-0.47631 -0.357,-0.88043 -0.76552,-1.21236 -0.40855,-0.33191 -0.89383,-0.50644 -1.45585,-0.52359 -0.57866,-0.0171 -1.08069,0.17013 -1.5061,0.56177 -0.35738,0.32362 -0.60411,0.71501 -0.7402,1.17418 z"
         style="font-variant:normal;font-stretch:normal;fill:#000000;font-family:CodiceNero;-inkscape-font-specification:CodiceNero"
         id="path17469" />
    </g>
    <g
       style="font-size:32.00555801px;font-style:normal;font-weight:normal;line-height:125%;letter-spacing:0px;word-spacing:0px;fill:#ffffff;fill-opacity:1;stroke:none;font-family:Sans"
       id="text16703">
      <path
         d="m 145.78871,6.6545139 c 1.89875,2.38e-5 3.58427,0.6723404 5.05654,2.0169519 1.57903,1.4722812 2.36856,3.2964892 2.36858,5.4726302 -2e-5,2.090872 -0.80029,3.851267 -2.40081,5.28119 -1.47228,1.343993 -3.14705,2.015984 -5.02431,2.015975 l -5.15324,0 0,7.745486 -4.73617,0 0,-22.5322331 z m -5.15324,4.0006951 0,6.657406 4.83287,0 c 0.76835,1.3e-5 1.46183,-0.341355 2.08044,-1.024104 0.61858,-0.682721 0.92788,-1.408269 0.9279,-2.176647 -2e-5,-0.959785 -0.34122,-1.79196 -1.02362,-2.496528 -0.61861,-0.640065 -1.28018,-0.960108 -1.98472,-0.960127 z"
         style="font-variant:normal;font-stretch:normal;fill:#ffffff;font-family:CodiceBianco;-inkscape-font-specification:CodiceBianco"
         id="path17448" />
      <path
         d="m 161.9673,6.6545139 6.46499,0 7.64879,22.5000011 -4.96082,0 -1.27952,-3.777023 -9.18617,0 -1.24826,3.777023 -4.80064,0 z m 3.23201,5.0565421 -3.13629,9.474302 6.4015,0 z"
         style="font-variant:normal;font-stretch:normal;fill:#ffffff;font-family:CodiceBianco;-inkscape-font-specification:CodiceBianco"
         id="path17450" />
      <path
         d="m 181.87798,6.6545139 4.38553,15.9070591 4.70492,-15.9070591 4.76841,0 -6.56071,22.5000011 -5.85747,0 -6.14462,-22.5000011 z"
         style="font-variant:normal;font-stretch:normal;fill:#ffffff;font-family:CodiceBianco;-inkscape-font-specification:CodiceBianco"
         id="path17452" />
      <path
         d="m 203.58683,6.6545139 0,22.5000011 -4.64045,0 0,-22.5000011 z"
         style="font-variant:normal;font-stretch:normal;fill:#ffffff;font-family:CodiceBianco;-inkscape-font-specification:CodiceBianco"
         id="path17454" />
      <path
         d="m 213.66378,6.6545139 6.46499,0 7.64879,22.5000011 -4.96082,0 -1.27952,-3.777023 -9.18617,0 -1.24826,3.777023 -4.80064,0 z m 3.23201,5.0565421 -3.13629,9.474302 6.4015,0 z"
         style="font-variant:normal;font-stretch:normal;fill:#ffffff;font-family:CodiceBianco;-inkscape-font-specification:CodiceBianco"
         id="path17456" />
    </g>
    <g
       style="font-size:35.4601326px;font-style:normal;font-weight:normal;line-height:125%;letter-spacing:0px;word-spacing:0px;fill:#000000;fill-opacity:1;stroke:none;font-family:Sans"
       id="text16707">
      <path
         d="m 477.56717,93.413584 -5.67266,0 0,-15.81573 -7.05675,9.609557 -7.09246,-9.538135 0,15.708597 -5.70838,0 0,-24.858237 6.34685,-0.03463 6.38257,8.971084 6.48969,-9.042507 6.31114,0 z"
         style="font-variant:normal;font-stretch:normal;fill:#000000;font-family:CodiceNero;-inkscape-font-specification:CodiceNero"
         id="path17396" />
      <path
         d="m 488.90927,68.519636 0,24.858237 -5.77981,0 0,-24.858237 z"
         style="font-variant:normal;font-stretch:normal;fill:#000000;font-family:CodiceNero;-inkscape-font-specification:CodiceNero"
         id="path17398" />
      <path
         d="m 495.29508,68.377873 5.63912,0 0,19.715825 10.99256,0 0,5.284175 -16.63168,0 z"
         style="font-variant:normal;font-stretch:normal;fill:#000000;font-family:CodiceNero;-inkscape-font-specification:CodiceNero"
         id="path17400" />
      <path
         d="m 522.51674,68.307533 7.30457,0 8.15622,25.07034 -6.0287,0 -1.27587,-3.759415 -9.0425,0 -1.34729,3.759415 -5.85122,0 z m 3.688,7.021037 -0.0714,0 -2.73028,8.723271 0.0714,-0.03571 5.38915,0.03571 z"
         style="font-variant:normal;font-stretch:normal;fill:#000000;font-family:CodiceNero;-inkscape-font-specification:CodiceNero"
         id="path17402" />
      <path
         d="m 559.17158,93.377873 -11.02719,-15.602545 0,15.638256 -6.06441,0 0,-25.106051 6.56004,0 11.20574,16.169595 -0.0714,-16.205306 5.81551,0 0,25.106051 z"
         style="font-variant:normal;font-stretch:normal;fill:#000000;font-family:CodiceNero;-inkscape-font-specification:CodiceNero"
         id="path17404" />
      <path
         d="m 581.80815,67.810823 c 2.83668,2.7e-5 5.36604,0.792165 7.58809,2.376417 3.23923,2.292753 4.85886,5.873969 4.85888,10.743659 -2e-5,3.971527 -1.32386,7.163167 -3.97151,9.574928 -2.41179,2.15061 -5.27229,3.225912 -8.58151,3.225911 -3.35687,10e-7 -6.18201,-1.087205 -8.47546,-3.261622 -2.52936,-2.41104 -3.79404,-5.685284 -3.79404,-9.822742 0,-3.333028 0.95734,-6.193528 2.87204,-8.581508 2.26964,-2.83667 5.43747,-4.255016 9.50351,-4.255043 z m -5.95728,13.014024 c -10e-6,2.31655 0.5555,4.11329 1.66652,5.390226 1.06412,1.181723 2.48246,1.772581 4.25505,1.772574 1.84398,7e-6 3.30381,-0.650009 4.37949,-1.950048 1.07564,-1.300021 1.61348,-3.072954 1.61349,-5.318803 -10e-6,-2.104419 -0.48446,-3.842002 -1.45333,-5.212752 -1.08795,-1.512835 -2.57736,-2.269263 -4.46823,-2.269284 -3.99533,2.1e-5 -5.993,2.529381 -5.99299,7.588087 z"
         style="font-variant:normal;font-stretch:normal;fill:#000000;font-family:CodiceNero;-inkscape-font-specification:CodiceNero"
         id="path17406" />
    </g>
    <g
       style="font-size:31.91411972px;font-style:normal;font-weight:normal;line-height:125%;letter-spacing:0px;word-spacing:0px;fill:#000000;fill-opacity:1;stroke:none;font-family:Sans"
       id="text16711">
      <path
         d="m 556.12673,162.91634 c 1.89333,2e-5 3.58474,0.62756 5.07424,1.88263 1.25507,1.08499 2.02091,2.23391 2.29753,3.44678 l -4.46748,1.62746 c -0.0851,-0.70188 -0.34056,-1.29761 -0.76649,-1.78719 -0.53178,-0.59539 -1.25509,-0.89309 -2.16994,-0.8931 -0.91486,1e-5 -1.6648,0.33505 -2.2498,1.00511 -0.58503,0.67008 -0.87753,1.5265 -0.87753,2.56925 l 0,1.21256 c 0,0.87266 0.24478,1.64922 0.73436,2.32967 0.57396,0.8298 1.39305,1.2447 2.45725,1.2447 0.65967,0 1.30329,-0.26588 1.93084,-0.79766 0.62753,-0.53177 0.95202,-1.21255 0.97345,-2.04236 l 4.53176,1.59532 c -2e-5,0.38309 -0.25552,0.9681 -0.7665,1.75504 -0.63827,1.02135 -1.43593,1.85114 -2.39297,2.4894 -1.27653,0.85122 -2.72348,1.27684 -4.34086,1.27684 -2.34006,0 -4.30807,-0.88304 -5.90403,-2.64913 -1.36158,-1.48882 -2.04236,-3.08446 -2.04236,-4.78692 l 0,-1.49987 c 0,-1.93618 0.65968,-3.68084 1.97905,-5.23396 1.53168,-1.8297 3.53151,-2.74455 5.99948,-2.74457 z"
         style="font-variant:normal;font-stretch:normal;fill:#000000;font-family:CodiceNero;-inkscape-font-specification:CodiceNero"
         id="path17383" />
      <path
         d="m 573.70443,162.8842 c 2.04267,2e-5 3.81914,0.72333 5.32941,2.16994 1.70243,1.61741 2.55366,3.74514 2.55367,6.38322 -10e-6,0.34024 -0.0533,0.88272 -0.15972,1.62745 l -10.65979,0 c 0.48956,1.51092 1.57485,2.24494 3.25588,2.20208 1.31871,-0.0422 2.61632,-0.55286 3.89285,-1.53201 l 3.41561,3.35134 c -2.63875,1.82971 -5.09632,2.74457 -7.37274,2.74457 -2.14852,0 -4.02076,-0.67008 -5.61672,-2.01022 -1.74465,-1.48948 -2.6488,-3.45749 -2.71243,-5.90403 0,-0.31945 0,-0.80902 0,-1.46871 0.0208,-1.61673 0.6269,-3.18055 1.81835,-4.69148 1.53233,-1.91475 3.61754,-2.87213 6.25563,-2.87215 z m -2.87215,6.31893 5.58458,0 c -0.12728,-0.59539 -0.44624,-1.10054 -0.9569,-1.51545 -0.51068,-0.41488 -1.11728,-0.63305 -1.81981,-0.65449 -0.72332,-0.0214 -1.35086,0.21266 -1.88263,0.70221 -0.44672,0.40453 -0.75513,0.89377 -0.92524,1.46773 z"
         style="font-variant:normal;font-stretch:normal;fill:#000000;font-family:CodiceNero;-inkscape-font-specification:CodiceNero"
         id="path17385" />
      <path
         d="m 594.96947,179.44803 0,-9.0002 c -10e-6,-0.78693 -0.21817,-1.44645 -0.65449,-1.97856 -0.43633,-0.53209 -1.05868,-0.79813 -1.86704,-0.79815 -0.89344,2e-5 -1.56351,0.30876 -2.01022,0.92622 -0.31946,0.46816 -0.47918,1.01064 -0.47918,1.62746 l 0,9.22323 -5.10637,0 0,-16.18107 4.50058,0 0.25517,0.98952 c 1.12717,-0.89341 2.60561,-1.34012 4.43533,-1.34014 2.08552,2e-5 3.69188,0.80839 4.81907,2.42512 0.82978,1.19146 1.24468,2.39363 1.24469,3.6065 l 0,10.50007 z"
         style="font-variant:normal;font-stretch:normal;fill:#000000;font-family:CodiceNero;-inkscape-font-specification:CodiceNero"
         id="path17387" />
      <path
         d="m 611.26157,156.56527 0,6.03162 4.18113,0 0,4.50058 -4.08471,0 0,6.66955 c -10e-6,0.72332 0.51033,1.08498 1.53103,1.08498 0.31945,0 0.74506,-0.0372 1.27684,-0.11152 0.53176,-0.0743 0.85089,-0.11151 0.95739,-0.11152 l 0.89407,4.24444 c -1.27652,0.63826 -2.9043,0.95739 -4.88334,0.95739 -1.34015,0 -2.51018,-0.34056 -3.51008,-1.02167 -1.10641,-0.76552 -1.65961,-1.73329 -1.6596,-2.90332 l 0,-8.80833 -2.64912,0 0,-4.50058 2.64912,0 0,-4.69148 z"
         style="font-variant:normal;font-stretch:normal;fill:#000000;font-family:CodiceNero;-inkscape-font-specification:CodiceNero"
         id="path17389" />
      <path
         d="m 630.10929,168.18244 c -0.46815,-0.1279 -0.9363,-0.19185 -1.40442,-0.19186 -1.08499,1e-5 -1.97841,0.28732 -2.68029,0.86194 -0.7876,0.61684 -1.1814,1.48916 -1.18139,2.61698 l 0,7.97853 -5.16969,0 0,-16.21224 5.23397,0 0,1.02069 c 0.46813,-0.27658 0.92556,-0.55318 1.37228,-0.82979 0.80836,-0.38307 1.65926,-0.57461 2.5527,-0.57463 0.42528,2e-5 0.85089,0.0429 1.27684,0.12856 z"
         style="font-variant:normal;font-stretch:normal;fill:#000000;font-family:CodiceNero;-inkscape-font-specification:CodiceNero"
         id="path17391" />
      <path
         d="m 646.59228,165.31029 c 1.46803,1.59533 2.20206,3.46757 2.20208,5.61672 -2e-5,2.78678 -0.90416,5.0421 -2.71243,6.76597 -1.57455,1.48884 -3.37245,2.23325 -5.39369,2.23325 -2.99975,0 -5.3187,-1.15931 -6.95686,-3.47794 -0.57463,-0.8298 -0.95771,-1.53201 -1.14925,-2.10664 -0.27661,-0.76616 -0.4149,-1.8086 -0.4149,-3.12733 0,-2.72377 0.91485,-4.90475 2.74456,-6.54294 1.53233,-1.38298 3.41529,-2.07447 5.64887,-2.07449 2.34069,2e-5 4.35123,0.90448 6.03162,2.7134 z m -9.4784,4.91451 0,1.75504 c -10e-6,0.87266 0.34054,1.62811 1.02166,2.26636 0.6811,0.63827 1.45766,0.95739 2.32967,0.95739 0.89342,0 1.66997,-0.31912 2.32967,-0.95739 0.65967,-0.63825 0.98951,-1.3937 0.98952,-2.26636 l 0,-1.75504 c -10e-6,-0.91485 -0.36167,-1.68069 -1.08497,-2.29753 -0.65969,-0.55319 -1.40443,-0.82978 -2.23422,-0.8298 -0.87201,2e-5 -1.63785,0.27661 -2.29753,0.8298 -0.70254,0.61684 -1.05381,1.38268 -1.0538,2.29753 z"
         style="font-variant:normal;font-stretch:normal;fill:#000000;font-family:CodiceNero;-inkscape-font-specification:CodiceNero"
         id="path17393" />
    </g>
    <path
       sodipodi:nodetypes="ccccccccccccc"
       inkscape:connector-curvature="0"
       id="path16715"
       d="m -250.48064,99.802425 c 0.9534,-0.1444 2.0414,-1.2328 2.2038,-2.2257 l 2.2556,-14.9231 -2.2556,-14.9215 c -0.1624,-0.9929 -1.2504,-2.0813 -2.2038,-2.2257 l -14.9964,-2.3065 -14.9941,2.3065 c -0.9534,0.1444 -2.0414,1.2328 -2.2038,2.2257 l -2.2555,14.9215 2.2555,14.9231 c 0.1624,0.9929 1.2504,2.0813 2.2038,2.2257 l 14.9938,2.306505 z"
       style="fill:none;stroke:#ffffff;stroke-width:1.09090912;stroke-linecap:butt;stroke-linejoin:miter;stroke-miterlimit:4;stroke-opacity:1;stroke-dasharray:none" />
    <g
       style="font-size:21.01247597px;font-style:normal;font-weight:normal;line-height:125%;letter-spacing:0px;word-spacing:0px;fill:#ffffff;fill-opacity:1;stroke:none;font-family:Sans"
       id="text16717">
      <path
         d="m -270.23608,75.426187 2.35339,14.561502 -3.10942,0 -0.37834,-2.878571 -2.14305,0 -0.42066,2.878571 -3.04658,0 2.50023,-14.561502 z m -2.14305,3.677568 -0.81952,5.778303 1.55503,0 z"
         style="text-align:center;word-spacing:-2px;text-anchor:middle;fill:#ffffff;font-family:CodiceBiancoCondensed;-inkscape-font-specification:CodiceBiancoCondensed"
         id="path17487" />
      <path
         d="m -255.50715,75.279341 0,14.771832 -2.98374,0 0,-9.834208 -1.61787,0 0,-2.18538 c 1.3727,-0.09788 2.04516,-1.015298 2.01737,-2.752244 z"
         style="text-align:center;word-spacing:-2px;text-anchor:middle;fill:#ffffff;font-family:CodiceBiancoCondensed;-inkscape-font-specification:CodiceBiancoCondensed"
         id="path17489" />
    </g>
    <path
       inkscape:connector-curvature="0"
       style="fill:#000000;fill-opacity:1"
       id="path16721"
       d="m -306.78194,179.85693 -2.3323,-4.2993 -1.9282,-0.09 c -3.071,-0.1435 -5.1804,-0.6055 -5.5113,-1.2069 -0.1027,-0.1867 -0.052,-0.2695 0.2872,-0.4735 0.8904,-0.5344 2.5478,-0.8312 5.3272,-0.954 l 1.8251,-0.08 2.3323,-4.2993 2.3311,-4.2994 0.9722,0 c 0.5346,0 0.9735,0.028 0.9735,0.063 0,0.035 -0.4794,1.6366 -1.0667,3.5599 -0.8447,2.7732 -1.0651,3.6562 -1.0651,4.2669 l 0,0.7698 1.5432,0 c 1.5347,0 4.611,0.2403 6.821,0.5328 l 1.1551,0.153 1.1547,-1.3796 1.1531,-1.3797 0.6037,0 c 0.3326,0 0.605,0.036 0.605,0.078 0,0.044 -0.3685,0.7038 -0.8189,1.4677 -0.4516,0.7638 -0.7894,1.4365 -0.7534,1.4948 0.038,0.058 0.4061,0.1441 0.8205,0.1909 0.4127,0.047 0.7518,0.1291 0.7518,0.183 0,0.054 -0.3391,0.1362 -0.7518,0.183 -0.4144,0.047 -0.7829,0.1326 -0.8205,0.1908 -0.036,0.058 0.3018,0.731 0.7534,1.4948 0.4504,0.764 0.8189,1.4245 0.8189,1.4677 0,0.044 -0.2724,0.078 -0.605,0.078 l -0.6037,0 -1.1743,-1.4036 c -0.7993,-0.956 -1.2365,-1.3852 -1.3686,-1.3458 -0.5706,0.1683 -5.0091,0.5734 -6.9957,0.6385 l -2.2885,0.074 0,0.7511 c 0,0.5871 0.2331,1.5152 1.0651,4.2481 0.5873,1.9232 1.0667,3.5254 1.0667,3.56 0,0.035 -0.4372,0.063 -0.9722,0.063 l -0.9719,0 -2.3327,-4.2991 0,0 0,0 z" />
    <g
       id="g16723"
       transform="matrix(0,0.31456101,-0.31489825,0,326.13441,-2866.2863)"
       style="fill:#ffffff;fill-opacity:1;stroke:none">
      <path
         inkscape:connector-curvature="0"
         d="m 9674.7188,429.4377 16.1239,-69.8406 c 0.7713,-3.3409 -0.4416,-6.6287 -3.1978,-8.6679 -2.7562,-2.0393 -6.2545,-2.2381 -9.2239,-0.5238 l -136.8883,79.0325 136.8883,79.0322 c 2.9694,1.7144 6.4678,1.5157 9.2241,-0.5237 2.7562,-2.0394 3.9687,-5.327 3.1976,-8.668 z"
         style="fill:#ffffff;fill-opacity:1;fill-rule:evenodd;stroke:none"
         id="path16725" />
      <path
         inkscape:connector-curvature="0"
         d="m 9609.9188,429.4378 h 189.8983"
         style="fill:#ffffff;fill-opacity:1;stroke:none"
         id="path16727" />
    </g>
    <path
       style="fill:none;stroke:#ffffff;stroke-width:15;stroke-linecap:butt;stroke-linejoin:miter;stroke-miterlimit:4;stroke-opacity:1;stroke-dasharray:none"
       d="m 190.90106,176.97103 0,35.6834"
       id="path16729"
       inkscape:connector-curvature="0" />
    <rect
       style="fill:none;stroke:#ffffff;stroke-width:4.875;stroke-miterlimit:4;stroke-opacity:1;stroke-dasharray:none"
       id="rect16731"
       width="315.25"
       height="255.25"
       x="33.273384"
       y="-24.97052"
       rx="17.0625"
       ry="17.0625" />
    <rect
       rx="2.6312857"
       style="fill:none;stroke:#ffffff;stroke-width:0.75;stroke-miterlimit:4;stroke-opacity:1;stroke-dasharray:none"
       id="rect16733"
       width="49.25"
       height="24.249998"
       x="73.774361"
       y="5.52948"
       ry="2.6312857" />
    <g
       transform="scale(0.99217699,1.0078847)"
       style="font-size:21.35272217px;font-style:normal;font-weight:normal;line-height:125%;letter-spacing:0px;word-spacing:0px;fill:#ffffff;fill-opacity:1;stroke:none;font-family:Sans"
       id="text16735">
      <path
         d="m 82.553712,9.8404463 c 1.836297,0.04259 3.160197,0.9820267 3.971706,2.8183147 l -2.199263,1.387979 c -0.52696,-1.010888 -1.13906,-1.516338 -1.836303,-1.516351 -0.313223,1.3e-5 -0.580175,0.110356 -0.800857,0.33103 -0.22069,0.220699 -0.345369,0.508938 -0.374038,0.864717 -0.02824,0.284993 0.08579,0.576924 0.342108,0.875795 0.08514,0.09949 0.334284,0.327349 0.747423,0.683564 1.081706,0.839748 2.305907,1.878885 3.672606,3.117414 0.540847,0.683353 0.811274,1.516139 0.811283,2.498362 -9e-6,1.124289 -0.341681,2.092181 -1.025019,2.903678 -0.768934,0.896649 -1.786785,1.366476 -3.053554,1.409483 -1.878879,0.05691 -3.238402,-0.996563 -4.078573,-3.160421 l 2.285278,-1.302616 c 0.483943,1.181633 1.060421,1.772447 1.729435,1.772443 0.199395,4e-6 0.398577,-0.04974 0.597548,-0.149224 0.512612,-0.256305 0.768921,-0.69051 0.768927,-1.302615 -6e-6,-0.441368 -0.156615,-0.811495 -0.469827,-1.110383 -0.79717,-0.669004 -1.594334,-1.338013 -2.391495,-2.007031 -1.181631,-0.98222 -1.893431,-1.69402 -2.135402,-2.135403 -0.370129,-0.640762 -0.555193,-1.309771 -0.555192,-2.00703 -10e-7,-1.082133 0.405749,-2.021787 1.217251,-2.818966 0.811498,-0.797149 1.736817,-1.1813954 2.775958,-1.1527397 z"
         style="font-variant:normal;font-stretch:normal;text-align:center;word-spacing:-6px;text-anchor:middle;fill:#ffffff;font-family:CodiceBiancoCondensed;-inkscape-font-specification:CodiceBiancoCondensed"
         id="path17439" />
      <path
         d="m 92.229164,9.8404463 c 1.836297,0.04259 3.160197,0.9820267 3.971706,2.8183147 l -2.199263,1.387979 c -0.52696,-1.010888 -1.13906,-1.516338 -1.836303,-1.516351 -0.313222,1.3e-5 -0.580175,0.110356 -0.800857,0.33103 -0.22069,0.220699 -0.345369,0.508938 -0.374038,0.864717 -0.02824,0.284993 0.0858,0.576924 0.342108,0.875795 0.08514,0.09949 0.334284,0.327349 0.747423,0.683564 1.081706,0.839748 2.305907,1.878885 3.672606,3.117414 0.540847,0.683353 0.811275,1.516139 0.811284,2.498362 -9e-6,1.124289 -0.341682,2.092181 -1.02502,2.903678 -0.768934,0.896649 -1.786785,1.366476 -3.053554,1.409483 -1.878879,0.05691 -3.238402,-0.996563 -4.078573,-3.160421 l 2.285278,-1.302616 c 0.483943,1.181633 1.060421,1.772447 1.729435,1.772443 0.199395,4e-6 0.398577,-0.04974 0.597548,-0.149224 0.512612,-0.256305 0.768921,-0.69051 0.768927,-1.302615 -6e-6,-0.441368 -0.156615,-0.811495 -0.469827,-1.110383 -0.79717,-0.669004 -1.594334,-1.338013 -2.391495,-2.007031 -1.18163,-0.98222 -1.89343,-1.69402 -2.135402,-2.135403 -0.370129,-0.640762 -0.555192,-1.309771 -0.555192,-2.00703 0,-1.082133 0.405749,-2.021787 1.217251,-2.818966 0.811498,-0.797149 1.736817,-1.1813954 2.775958,-1.1527397 z"
         style="font-variant:normal;font-stretch:normal;text-align:center;word-spacing:-6px;text-anchor:middle;fill:#ffffff;font-family:CodiceBiancoCondensed;-inkscape-font-specification:CodiceBiancoCondensed"
         id="path17441" />
      <path
         d="m 100.97237,14.175111 c -0.0712,-0.78325 0.19223,-1.644492 0.79043,-2.583726 0.76849,-1.167277 1.80046,-1.7368039 3.09591,-1.7085825 1.05347,0.014352 1.93958,0.3810035 2.65834,1.0999575 0.71874,0.718983 1.07812,1.569581 1.07813,2.551796 -1e-5,0.711595 -0.20636,1.401891 -0.61905,2.070891 -0.29889,0.483956 -0.88254,1.003524 -1.75094,1.558707 0.2563,0.07125 0.6905,0.263485 1.30261,0.576695 1.01046,0.740263 1.51569,1.786568 1.5157,3.138918 -10e-6,1.167297 -0.41629,2.177979 -1.24885,3.03205 -0.83258,0.854076 -1.83251,1.281112 -2.9998,1.281111 -1.39537,1e-6 -2.45601,-0.540854 -3.18192,-1.622567 -0.51219,-0.768924 -0.76828,-1.580424 -0.76828,-2.434502 l 2.60458,-0.598199 c 0.0287,1.338459 0.46287,2.007685 1.30261,2.007682 0.35579,3e-6 0.66184,-0.170833 0.91815,-0.51251 0.25631,-0.341668 0.38446,-0.804436 0.38447,-1.388304 -1e-5,-0.683341 -0.17074,-1.181405 -0.51219,-1.494196 -0.24241,-0.2424 -0.61254,-0.392059 -1.11038,-0.448975 -0.38447,-0.04257 -0.76893,-0.07797 -1.15339,-0.106216 l 0,-2.47751 c 0.8115,9e-6 1.43793,-0.241964 1.87931,-0.72592 0.4127,-0.440928 0.61905,-1.038692 0.61905,-1.793295 0,-0.754578 -0.28477,-1.131874 -0.85429,-1.131887 -0.78283,1.3e-5 -1.30957,0.690527 -1.58021,2.071542 z"
         style="font-variant:normal;font-stretch:normal;text-align:center;word-spacing:-6px;text-anchor:middle;fill:#ffffff;font-family:CodiceBiancoCondensed;-inkscape-font-specification:CodiceBiancoCondensed"
         id="path17443" />
      <path
         d="m 112.52127,10.011174 6.02109,0 0,2.327635 -3.39501,0 -0.42682,2.818314 c 0.35579,-0.09947 0.71158,-0.149213 1.06738,-0.149224 0.93964,1.1e-5 1.70835,0.341466 2.30613,1.024368 0.69767,0.797174 1.04651,1.985969 1.04652,3.566389 -10e-6,1.765062 -0.48417,3.159991 -1.45249,4.184789 -0.85408,0.897084 -1.87172,1.345624 -3.0529,1.345623 -0.93966,1e-6 -1.81524,-0.34884 -2.62674,-1.046523 -0.93966,-0.811498 -1.40948,-1.857803 -1.40948,-3.138918 l 2.64824,-0.491331 c 0.44093,1.224206 0.87492,1.836306 1.30196,1.836303 1.02523,3e-6 1.53785,-0.903811 1.53785,-2.711447 0,-1.566084 -0.40575,-2.349129 -1.21725,-2.349138 -0.59777,9e-6 -0.96073,0.263485 -1.08888,0.790431 l -2.36999,-0.533688 z"
         style="font-variant:normal;font-stretch:normal;text-align:center;word-spacing:-6px;text-anchor:middle;fill:#ffffff;font-family:CodiceBiancoCondensed;-inkscape-font-specification:CodiceBiancoCondensed"
         id="path17445" />
    </g>
    <path
       inkscape:connector-curvature="0"
       style="font-size:16.94802094px;font-style:normal;font-weight:normal;line-height:125%;letter-spacing:0px;word-spacing:0px;fill:none;stroke:#000000;stroke-width:0.90037251;stroke-linecap:butt;stroke-linejoin:miter;stroke-miterlimit:4;stroke-opacity:1;stroke-dashoffset:0;font-family:Sans"
       d="m 691.09081,171.38593 c 0,6.6548 -5.3948,12.0498 -12.0498,12.0498 -6.6548,0 -12.0497,-5.395 -12.0497,-12.0498 0,-6.6547 5.3949,-12.0498 12.0497,-12.0498 6.655,0 12.0498,5.3951 12.0498,12.0498 z"
       id="path16739" />
    <path
       inkscape:connector-curvature="0"
       style="font-size:16.94802094px;font-style:normal;font-weight:normal;line-height:125%;letter-spacing:0px;word-spacing:0px;fill:none;stroke:#000000;stroke-width:0.90037251;stroke-linecap:butt;stroke-linejoin:miter;stroke-miterlimit:4;stroke-opacity:1;stroke-dashoffset:0;font-family:Sans"
       d="m 688.86691,171.38523 c 0,5.3957 -4.399,9.77 -9.8259,9.77 -5.4265,0 -9.8257,-4.3743 -9.8257,-9.77 0,-5.3964 4.3992,-9.7709 9.8257,-9.7709 5.4269,0 9.8259,4.3745 9.8259,9.7709 z"
       id="path16741" />
    <path
       inkscape:connector-curvature="0"
       style="font-size:16.94802094px;font-style:normal;font-weight:normal;line-height:125%;letter-spacing:0px;word-spacing:0px;fill:none;stroke:#000000;stroke-width:0.90037251;stroke-linecap:butt;stroke-linejoin:miter;stroke-miterlimit:4;stroke-opacity:1;stroke-dashoffset:0;font-family:Sans"
       d="m 686.60941,171.35623 c 0,4.1397 -3.3754,7.496 -7.539,7.496 -4.1637,0 -7.5391,-3.3563 -7.5391,-7.496 0,-4.1407 3.3754,-7.497 7.5391,-7.497 4.1636,0 7.539,3.3563 7.539,7.497 z"
       id="path16743" />
    <path
       inkscape:connector-curvature="0"
       style="font-size:16.94802094px;font-style:normal;font-weight:normal;line-height:125%;letter-spacing:0px;word-spacing:0px;fill:#000000;fill-opacity:1;stroke:none;font-family:Sans"
       d="m 683.32741,171.11373 c 0,2.3377 -1.9061,4.2326 -4.257,4.2326 -2.351,0 -4.2567,-1.8949 -4.2567,-4.2326 0,-2.3375 1.9057,-4.2327 4.2567,-4.2327 2.3509,0 4.257,1.8952 4.257,4.2327 z"
       id="path16745" />
    <g
       style="font-size:35.4601326px;font-style:normal;font-weight:normal;line-height:125%;letter-spacing:0px;word-spacing:0px;fill:#000000;fill-opacity:1;stroke:none;font-family:Sans"
       id="text16883">
      <path
         d="m 94.701704,93.339487 -5.672669,0 0,-15.81573 -7.056748,9.609558 -7.09246,-9.538135 0,15.708596 -5.70838,0 0,-24.858237 6.346853,-0.03463 6.382564,8.971085 6.489698,-9.042507 6.311142,0 z"
         style="font-variant:normal;font-stretch:normal;fill:#000000;font-family:CodiceNero;-inkscape-font-specification:CodiceNero"
         id="path17426" />
      <path
         d="m 106.0438,68.445539 0,24.858237 -5.77981,0 0,-24.858237 z"
         style="font-variant:normal;font-stretch:normal;fill:#000000;font-family:CodiceNero;-inkscape-font-specification:CodiceNero"
         id="path17428" />
      <path
         d="m 112.42961,68.303777 5.63912,0 0,19.715825 10.99255,0 0,5.284174 -16.63167,0 z"
         style="font-variant:normal;font-stretch:normal;fill:#000000;font-family:CodiceNero;-inkscape-font-specification:CodiceNero"
         id="path17430" />
      <path
         d="m 139.65127,68.233436 7.30457,0 8.15622,25.07034 -6.0287,0 -1.27587,-3.759415 -9.0425,0 -1.34729,3.759415 -5.85122,0 z m 3.688,7.021037 -0.0714,0 -2.73028,8.723271 0.0714,-0.03571 5.38915,0.03571 z"
         style="font-variant:normal;font-stretch:normal;fill:#000000;font-family:CodiceNero;-inkscape-font-specification:CodiceNero"
         id="path17432" />
      <path
         d="m 176.30611,93.303776 -11.02719,-15.602545 0,15.638256 -6.06441,0 0,-25.106051 6.56004,0 11.20574,16.169596 -0.0714,-16.205307 5.81551,0 0,25.106051 z"
         style="font-variant:normal;font-stretch:normal;fill:#000000;font-family:CodiceNero;-inkscape-font-specification:CodiceNero"
         id="path17434" />
      <path
         d="m 198.94268,67.736726 c 2.83668,2.7e-5 5.36604,0.792165 7.58809,2.376418 3.23923,2.292753 4.85886,5.873969 4.85888,10.743658 -2e-5,3.971527 -1.32386,7.163167 -3.97152,9.574928 -2.41178,2.15061 -5.27228,3.225913 -8.5815,3.225912 -3.35687,10e-7 -6.18202,-1.087206 -8.47546,-3.261623 -2.52937,-2.41104 -3.79405,-5.685284 -3.79404,-9.822742 -1e-5,-3.333027 0.95734,-6.193527 2.87204,-8.581508 2.26964,-2.83667 5.43747,-4.255016 9.50351,-4.255043 z m -5.95728,13.014025 c -1e-5,2.316549 0.5555,4.11329 1.66652,5.390225 1.06411,1.181724 2.48246,1.772581 4.25505,1.772574 1.84398,7e-6 3.30381,-0.650008 4.37949,-1.950047 1.07564,-1.300022 1.61347,-3.072955 1.61349,-5.318804 -2e-5,-2.104419 -0.48446,-3.842001 -1.45333,-5.212752 -1.08795,-1.512835 -2.57736,-2.269262 -4.46823,-2.269284 -3.99534,2.2e-5 -5.993,2.529382 -5.99299,7.588088 z"
         style="font-variant:normal;font-stretch:normal;fill:#000000;font-family:CodiceNero;-inkscape-font-specification:CodiceNero"
         id="path17436" />
    </g>
    <g
       style="font-size:21.27607918px;font-style:normal;font-weight:normal;line-height:125%;letter-spacing:0px;word-spacing:0px;fill:#000000;fill-opacity:1;stroke:none;font-family:Sans"
       id="text16887">
      <path
         d="m 223.13745,78.275829 12.31906,0 0,3.169855 -4.42559,0 0,11.872348 -3.4893,0 0,-11.872348 -4.40417,0 z"
         style="font-variant:normal;font-stretch:normal;fill:#000000;font-family:CodiceNero;-inkscape-font-specification:CodiceNero"
         id="path17409" />
      <path
         d="m 236.91613,82.509878 3.42568,0 0,10.829581 -3.42568,0 z m -0.0636,-3.362047 c 0.35451,-0.709014 0.93606,-1.063528 1.74465,-1.063544 0.31209,1.6e-5 0.60276,0.06386 0.872,0.191542 0.72331,0.35453 1.08497,0.943223 1.08497,1.76608 0,0.297824 -0.0639,0.581349 -0.19154,0.850576 -0.35452,0.709475 -0.94299,1.064206 -1.76543,1.064194 -0.3121,1.2e-5 -0.60298,-0.06383 -0.87265,-0.191542 -0.70903,-0.354502 -1.06355,-0.936053 -1.06354,-1.744654 -10e-6,-0.31208 0.0638,-0.602964 0.19154,-0.872652 z"
         style="font-variant:normal;font-stretch:normal;fill:#000000;font-family:CodiceNero;-inkscape-font-specification:CodiceNero"
         id="path17411" />
      <path
         d="m 247.68922,82.296909 c 1.26222,1.2e-5 2.38983,0.418373 3.38282,1.255086 0.83672,0.723324 1.34728,1.489274 1.53169,2.297853 l -2.97831,1.084971 c -0.0567,-0.467917 -0.22705,-0.865069 -0.511,-1.191455 -0.35452,-0.396927 -0.83673,-0.595394 -1.44663,-0.595403 -0.60991,9e-6 -1.10986,0.223366 -1.49987,0.670072 -0.39001,0.446722 -0.58502,1.017668 -0.58501,1.712838 l 0,0.808372 c -1e-5,0.581773 0.16318,1.099476 0.48957,1.553112 0.38264,0.553202 0.9287,0.829802 1.63817,0.829798 0.43978,4e-6 0.86885,-0.177254 1.28722,-0.531772 0.41836,-0.35451 0.63468,-0.808367 0.64897,-1.36157 l 3.02117,1.063544 c -1e-5,0.255393 -0.17034,0.645402 -0.511,1.170028 -0.42551,0.680896 -0.95728,1.234095 -1.59531,1.659597 -0.85102,0.567484 -1.81565,0.851226 -2.89391,0.851225 -1.56004,10e-7 -2.87205,-0.588692 -3.93602,-1.766081 -0.90771,-0.992551 -1.36157,-2.056311 -1.36157,-3.191282 l 0,-0.999913 c 0,-1.29079 0.43979,-2.453891 1.31937,-3.489308 1.02112,-1.219797 2.35433,-1.8297 3.99965,-1.829712 z"
         style="font-variant:normal;font-stretch:normal;fill:#000000;font-family:CodiceNero;-inkscape-font-specification:CodiceNero"
         id="path17413" />
      <path
         d="m 254.53538,82.509878 3.42568,0 0,10.829581 -3.42568,0 z m -0.0636,-3.362047 c 0.35451,-0.709014 0.93607,-1.063528 1.74466,-1.063544 0.31209,1.6e-5 0.60275,0.06386 0.872,0.191542 0.72331,0.35453 1.08496,0.943223 1.08497,1.76608 -1e-5,0.297824 -0.0639,0.581349 -0.19154,0.850576 -0.35452,0.709475 -0.943,1.064206 -1.76543,1.064194 -0.3121,1.2e-5 -0.60299,-0.06383 -0.87266,-0.191542 -0.70903,-0.354502 -1.06354,-0.936053 -1.06354,-1.744654 0,-0.31208 0.0639,-0.602964 0.19154,-0.872652 z"
         style="font-variant:normal;font-stretch:normal;fill:#000000;font-family:CodiceNero;-inkscape-font-specification:CodiceNero"
         id="path17415" />
      <path
         d="m 267.35115,93.318032 0,-6.000129 c 0,-0.524623 -0.14545,-0.964303 -0.43632,-1.319042 -0.29089,-0.354723 -0.70579,-0.532088 -1.2447,-0.532097 -0.59562,9e-6 -1.04234,0.205835 -1.34014,0.617479 -0.21298,0.312102 -0.31946,0.673759 -0.31945,1.084971 l 0,6.148818 -3.40426,0 0,-10.787377 3.00039,0 0.17012,0.659683 c 0.75144,-0.595608 1.73707,-0.893417 2.95689,-0.893429 1.39034,1.2e-5 2.46124,0.538926 3.2127,1.616743 0.55319,0.794313 0.82979,1.595758 0.8298,2.404337 l 0,7.000043 z"
         style="font-variant:normal;font-stretch:normal;fill:#000000;font-family:CodiceNero;-inkscape-font-specification:CodiceNero"
         id="path17417" />
      <path
         d="m 278.14892,82.275482 c 1.36178,1.2e-5 2.54609,0.482221 3.55294,1.446628 1.13496,1.078271 1.70244,2.496762 1.70245,4.255476 -1e-5,0.226826 -0.0355,0.588482 -0.10648,1.084971 l -7.10653,0 c 0.32637,1.007276 1.0499,1.496627 2.17059,1.468054 0.87914,-0.02813 1.74421,-0.368578 2.59523,-1.02134 l 2.27707,2.234222 c -1.75916,1.219809 -3.39754,1.829713 -4.91515,1.829712 -1.43235,10e-7 -2.68051,-0.446714 -3.74448,-1.340144 -1.16311,-0.992984 -1.76587,-2.304991 -1.80829,-3.936022 0,-0.212963 0,-0.539341 0,-0.979136 0.0138,-1.077821 0.41793,-2.120371 1.21223,-3.127652 1.02156,-1.276501 2.41169,-1.914757 4.17042,-1.914769 z m -1.91477,4.212622 3.72306,0 c -0.0848,-0.396927 -0.2975,-0.733694 -0.63794,-1.010302 -0.34045,-0.27659 -0.74485,-0.422032 -1.2132,-0.436326 -0.48222,-0.01427 -0.90058,0.141772 -1.25509,0.468142 -0.29781,0.269682 -0.50342,0.595844 -0.61683,0.978486 z"
         style="font-variant:normal;font-stretch:normal;fill:#000000;font-family:CodiceNero;-inkscape-font-specification:CodiceNero"
         id="path17419" />
      <path
         d="m 290.02776,82.339762 c 1.87213,1.2e-5 3.52458,0.574421 4.95737,1.723228 l -2.1706,2.276426 c -0.5532,-0.709021 -1.35443,-1.063535 -2.40368,-1.063544 -0.75189,9e-6 -1.12783,0.127487 -1.12783,0.382434 0,0.113419 0.085,0.212761 0.25517,0.298026 0.0567,0.02858 0.69496,0.17034 1.91477,0.425288 1.04969,0.227261 1.84399,0.553639 2.38291,0.979136 0.78001,0.595626 1.17002,1.453776 1.17003,2.574452 -10e-6,0.737602 -0.27661,1.439705 -0.8298,2.106311 -0.82244,1.021125 -2.08467,1.531687 -3.78668,1.531686 -2.09939,10e-7 -3.90789,-0.687818 -5.4255,-2.063458 -0.071,-0.04285 0.69496,-0.76638 2.29785,-2.170591 1.31893,0.879582 2.38269,1.31937 3.19128,1.319366 0.21296,4e-6 0.41165,-0.04263 0.59605,-0.127911 0.2411,-0.113406 0.3333,-0.262311 0.2766,-0.446714 -0.0996,-0.297806 -0.63869,-0.53891 -1.61739,-0.723314 -1.2341,-0.212964 -2.09225,-0.468353 -2.57445,-0.766168 -0.89343,-0.538908 -1.34015,-1.403984 -1.34015,-2.595229 0,-1.078253 0.38655,-1.957721 1.15964,-2.638408 0.77309,-0.680666 1.7979,-1.021004 3.07441,-1.021016 z"
         style="font-variant:normal;font-stretch:normal;fill:#000000;font-family:CodiceNero;-inkscape-font-specification:CodiceNero"
         id="path17421" />
      <path
         d="m 302.16762,82.275482 c 1.36178,1.2e-5 2.54609,0.482221 3.55294,1.446628 1.13495,1.078271 1.70243,2.496762 1.70245,4.255476 -2e-5,0.226826 -0.0355,0.588482 -0.10649,1.084971 l -7.10653,0 c 0.32638,1.007276 1.04991,1.496627 2.1706,1.468054 0.87913,-0.02813 1.74421,-0.368578 2.59523,-1.02134 l 2.27707,2.234222 c -1.75916,1.219809 -3.39755,1.829713 -4.91516,1.829712 -1.43235,10e-7 -2.68051,-0.446714 -3.74448,-1.340144 -1.1631,-0.992984 -1.76586,-2.304991 -1.80828,-3.936022 0,-0.212963 0,-0.539341 0,-0.979136 0.0138,-1.077821 0.41792,-2.120371 1.21223,-3.127652 1.02155,-1.276501 2.41169,-1.914757 4.17042,-1.914769 z m -1.91477,4.212622 3.72305,0 c -0.0849,-0.396927 -0.29749,-0.733694 -0.63793,-1.010302 -0.34045,-0.27659 -0.74486,-0.422032 -1.21321,-0.436326 -0.48221,-0.01427 -0.90057,0.141772 -1.25508,0.468142 -0.29782,0.269682 -0.50343,0.595844 -0.61683,0.978486 z"
         style="font-variant:normal;font-stretch:normal;fill:#000000;font-family:CodiceNero;-inkscape-font-specification:CodiceNero"
         id="path17423" />
    </g>
    <path
       id="path16910"
       style="fill:#ffffff;fill-opacity:1;fill-rule:evenodd;stroke-width:0.15289199"
       d="m -110.05464,177.04233 c 22.448904,0.5741 21.938804,13.2653 21.938804,13.2653 l 0,17.3469 11.2244,0 0,-66.2626 13.329,2.3597 c 0.3825,-0.064 0.7016,-0.1912 0.8929,-0.383 0.2549,-0.1911 0.3187,-0.7018 0.3187,-1.0206 l -20.2169,-34.6938 -20.280504,34.7576 c 0,0.3186 0.062,0.829 0.1912,0.9566 0.2548,0.1911 0.5104,0.3186 0.8291,0.2549 l 13.584104,-2.4235 0,31.3775 c -2.6149,-5.9311 -10.7142,-6.9515 -21.556004,-6.824 l 2.2321,-13.4566 c -0.062,-0.3186 -0.1276,-0.6377 -0.3187,-0.7653 -0.1911,-0.3186 -0.7015,-0.3824 -1.0204,-0.3186 l -34.6938,20.153 34.7576,20.2805 c 0.2548,0.064 0.7653,-0.064 0.9566,-0.2549 0.1911,-0.1912 0.2549,-0.3824 0.2549,-0.7653 z"
       inkscape:connector-curvature="0" />
    <rect
       style="fill:none;stroke:#ffffff;stroke-width:5.25;stroke-miterlimit:4;stroke-opacity:1;stroke-dasharray:none"
       id="rect16989"
       width="339.5"
       height="189.5"
       x="-366.35065"
       y="40.404472"
       rx="18.5"
       ry="18.5" />
    <rect
       style="fill:none;stroke:#000000;stroke-width:4.80000019;stroke-miterlimit:4;stroke-opacity:1;stroke-dasharray:none"
       id="rect16991"
       width="315.39999"
       height="190.39999"
       x="408.1994"
       y="39.954407"
       rx="17.05895"
       ry="17.05895" />
    <rect
       style="fill:#646464;fill-opacity:1;stroke:none"
       id="rect13141-5"
       width="1800"
       height="200"
       x="-725.71429"
       y="745.15448" />
    <rect
       y="735.46332"
       x="-1.2918004"
       height="19.382116"
       width="9.3821163"
       id="rect16231-5"
       style="fill:#646464;fill-opacity:1;stroke:#646464;stroke-width:10.61788368;stroke-miterlimit:4;stroke-opacity:1;stroke-dasharray:none" />
    <rect
       style="fill:#646464;fill-opacity:1;stroke:#646464;stroke-width:10.61788368;stroke-miterlimit:4;stroke-opacity:1;stroke-dasharray:none"
       id="rect17085"
       width="9.3821163"
       height="19.382116"
       x="368.70819"
       y="735.46332" />
    <rect
       y="735.46332"
       x="738.70819"
       height="19.382116"
       width="287.98218"
       id="rect17087"
       style="fill:#646464;fill-opacity:1;stroke:#646464;stroke-width:10.61788368;stroke-miterlimit:4;stroke-opacity:1;stroke-dasharray:none" />
    <rect
       style="fill:#646464;fill-opacity:1;stroke:#646464;stroke-width:10.61788368;stroke-miterlimit:4;stroke-opacity:1;stroke-dasharray:none"
       id="rect17091"
       width="314.85223"
       height="19.382116"
       x="-681.7619"
       y="735.46332" />
    <path
       sodipodi:nodetypes="cc"
       inkscape:connector-curvature="0"
       id="path15952-5"
       d="m -184.10064,256.88588 0,475.85105"
       style="fill:none;stroke:#000000;stroke-width:5;stroke-linecap:butt;stroke-linejoin:miter;stroke-miterlimit:4;stroke-opacity:1;stroke-dasharray:10, 10;stroke-dashoffset:0" />
    <path
       style="fill:none;stroke:#000000;stroke-width:5;stroke-linecap:butt;stroke-linejoin:miter;stroke-miterlimit:4;stroke-opacity:1;stroke-dasharray:10, 10;stroke-dashoffset:0"
       d="m 565.89921,256.88588 0,475.85105"
       id="path15956-6"
       inkscape:connector-curvature="0"
       sodipodi:nodetypes="cc" />
    <path
       style="fill:none;stroke:#000000;stroke-width:5;stroke-linecap:butt;stroke-linejoin:miter;stroke-miterlimit:4;stroke-opacity:1;stroke-dasharray:10, 10;stroke-dashoffset:0"
       d="m 190.89926,256.88588 0,475.85105"
       id="path15958-0"
       inkscape:connector-curvature="0"
       sodipodi:nodetypes="cc" />
    <rect
       style="fill:none;stroke:#000000;stroke-width:1;stroke-miterlimit:4;stroke-opacity:1;stroke-dasharray:none"
       id="rect17141"
       width="1423.9042"
       height="875.05078"
       x="-519.78778"
       y="-79.930115" />
  </g>
</svg>
