<?xml version="1.0" encoding="UTF-8" standalone="no"?>
<!-- Created with Inkscape (http://www.inkscape.org/) -->

<svg
   xmlns:dc="http://purl.org/dc/elements/1.1/"
   xmlns:cc="http://creativecommons.org/ns#"
   xmlns:rdf="http://www.w3.org/1999/02/22-rdf-syntax-ns#"
   xmlns:svg="http://www.w3.org/2000/svg"
   xmlns="http://www.w3.org/2000/svg"
   xmlns:sodipodi="http://sodipodi.sourceforge.net/DTD/sodipodi-0.dtd"
   xmlns:inkscape="http://www.inkscape.org/namespaces/inkscape"
   width="600"
   height="600"
   id="svg2"
   version="1.1"
   inkscape:version="0.48.5 r10040"
   sodipodi:docname="CANC2.svg">
  <defs
     id="defs4" />
  <sodipodi:namedview
     id="base"
     pagecolor="#ffffff"
     bordercolor="#666666"
     borderopacity="1.0"
     inkscape:pageopacity="0.0"
     inkscape:pageshadow="2"
     inkscape:zoom="0.49497475"
     inkscape:cx="142.05922"
     inkscape:cy="268.92736"
     inkscape:document-units="px"
     inkscape:current-layer="layer1"
     showgrid="false"
     inkscape:object-paths="true"
     inkscape:snap-object-midpoints="true"
     inkscape:snap-global="true"
     fit-margin-top="0"
     fit-margin-left="0"
     fit-margin-right="0"
     fit-margin-bottom="0"
     inkscape:window-width="1366"
     inkscape:window-height="705"
     inkscape:window-x="-8"
     inkscape:window-y="-8"
     inkscape:window-maximized="1"
     inkscape:snap-midpoints="true"
     inkscape:object-nodes="true" />
  <metadata
     id="metadata7">
    <rdf:RDF>
      <cc:Work
         rdf:about="">
        <dc:format>image/svg+xml</dc:format>
        <dc:type
           rdf:resource="http://purl.org/dc/dcmitype/StillImage" />
        <dc:title></dc:title>
      </cc:Work>
    </rdf:RDF>
  </metadata>
  <g
     inkscape:label="Livello 1"
     inkscape:groupmode="layer"
     id="layer1"
     transform="translate(0,-452.375)">
    <rect
       style="fill:#ffffff;fill-opacity:1;fill-rule:evenodd;stroke:#000000;stroke-width:0.99999994000000003px;stroke-linecap:butt;stroke-linejoin:miter;stroke-opacity:1;opacity:1"
       id="rect2985"
       width="599"
       height="599"
       x="0.49999997"
       y="452.875" />
    <rect
       style="fill:none;stroke:#000000;stroke-width:10;stroke-linecap:butt;stroke-linejoin:miter;stroke-miterlimit:4;stroke-opacity:1;stroke-dasharray:none"
       id="rect3755"
       width="580"
       height="580"
       x="10"
       y="462.375"
       rx="30.000029"
       ry="30.000029" />
    <path
       inkscape:connector-curvature="0"
       sodipodi:nodetypes="cssssssccsssscccccssscccccccsccccccccccccccccccccccccccccccccccccccccccccccssccccccccccccccssccccccccccccccccsscccccsccccccccccccccccccccsccccccsssssc"
       d="m 375.24218,973.80883 c -5.56069,-1.44775 -12.73368,-5.5176 -16.22768,-9.2068 -11.57263,-12.21957 -10.58803,-34.22935 2.02677,-45.30521 6.55594,-5.75613 11.80742,-7.65659 21.34513,-7.72228 7.14487,0 9.25195,0.46359 14.81589,3.56651 15.40145,8.60147 20.7676,27.56859 12.2351,43.24545 -5.11379,9.39622 -13.27165,14.57544 -24.81032,15.7535 -3.20595,0.32722 -7.42904,0.17787 -9.38478,-0.32722 z m 15.52688,-21.93913 c 3.3038,-3.30347 4.02991,-4.92698 4.02991,-9.00776 0,-6.78675 -5.93777,-13.03756 -12.38559,-13.03756 -8.58676,0 -14.27249,5.51337 -14.04288,13.61749 0.20992,7.39995 5.70507,12.34204 13.80539,12.41565 3.63999,0 5.37871,-0.77693 8.59317,-3.98782 z M 156.5931,970.06226 c 0.71574,-1.33605 1.61173,-6.13646 1.99145,-10.66663 l 0.69122,-8.23622 4.44232,0 c 2.46264,0 4.69399,0.65474 5.00702,1.48061 0.81803,2.14591 -1.01568,14.3726 -2.60044,17.33209 -1.03068,1.92659 -2.46795,2.5223 -6.09088,2.5223 -4.41304,0 -4.65094,-0.16544 -3.44002,-2.43215 z m 16.72961,-1.10415 c 0.67625,-1.94017 1.04844,-6.74187 0.82761,-10.66965 l -0.40223,-7.13991 5.2113,0 5.21138,0 -0.73621,8.71408 c -1.01026,11.95411 -1.36866,12.61949 -6.78782,12.61949 -4.53618,0 -4.54813,0 -3.32237,-3.52848 l 0,0 z m 15.24021,-7.73044 0,-11.2599 5.33381,0 5.33369,0 0,11.2599 0,11.26013 -5.33369,0 -5.33381,0 0,-11.26013 z m 15.40854,0 0,-11.2599 4.74107,0 4.74101,0 0,11.2599 0,11.26013 -4.74101,0 -4.74107,0 0,-11.26013 z m 15.40845,0 0,-11.2599 4.74117,0 4.74105,0 0,11.2599 0,11.26013 -4.74105,0 -4.74117,0 0,-11.26013 z m 16.18119,9.5231 c -0.36678,-0.95449 -1.03073,-5.75459 -1.4756,-10.66685 l -0.80981,-8.93119 5.20089,0 5.20075,0 -0.39673,6.35971 c -0.21807,3.49737 0.13904,8.29746 0.79349,10.66838 l 1.1902,4.31094 -4.51885,0 c -2.87485,0 -4.76094,-0.62713 -5.18491,-1.73674 l 0,0 z m 15.16801,-2.37356 c -0.94477,-2.2605 -1.71737,-7.0609 -1.71737,-10.66671 l 0,-6.55777 4.5691,0 4.56912,0 0.69124,8.23569 c 0.38034,4.5307 1.27605,9.33081 1.99154,10.66838 1.2134,2.26595 0.97344,2.431 -3.54222,2.431 -4.40636,0 -4.9983,-0.36827 -6.56071,-4.11059 z m 14.61168,-26.41072 -0.32858,-17.48234 -44.15117,-0.31364 -44.15118,-0.31312 0.0277,-22.20906 0.0277,-22.20905 21.66499,-33.1881 21.66494,-33.18784 38.16079,-0.3139 38.16051,-0.31341 0,56.91033 0,56.90883 25.48315,0 c 14.01588,0 25.47753,0.13833 25.47058,0.29962 -0.005,0.16541 -0.8071,2.91494 -1.77792,6.11471 -0.99117,3.26793 -1.76512,10.41204 -1.76512,16.29731 l 0,10.47889 -39.082,0 -39.08213,0 -0.32857,-17.48249 z m 21.32281,-90.08068 -0.3177,-29.33511 -30.42337,-0.31341 -30.42352,-0.31365 -16.87033,26.98495 c -9.27881,14.84118 -17.65113,28.18448 -18.6052,29.65123 l -1.7346,2.66679 49.34556,0 49.34571,0 -0.31766,-29.33511 z m 132.83407,101.12515 c 0.37219,-5.97278 -1.03613,-17.82308 -2.86288,-24.08255 -0.77577,-2.65966 -0.74166,-2.66654 13.28703,-2.65814 7.73589,0 17.66532,0.35416 22.06585,0.7634 l 8.0006,0.74976 -0.0272,6.64374 -0.0272,6.64326 -17.65934,9.18654 c -9.71242,5.05106 -18.90259,9.1864 -20.4226,9.18754 -2.60509,0 -2.74059,-0.3679 -2.36227,-6.44046 l 1.3e-4,0 z m -260.56766,-16.08221 0,-8.2972 49.78128,0 49.78116,0 0,8.2972 0,8.29743 -49.78116,0 -49.78128,0 0,-8.29743 z m 144.60264,-69.33835 0,-55.11461 78.82019,0 78.82039,0 0,55.11461 0,55.11434 -24.07516,0 -24.07521,0 -2.57986,-3.48842 c -6.45342,-8.7282 -22.33274,-15.28302 -33.29024,-13.73996 -7.99752,1.1316 -16.97297,5.87048 -22.54961,11.91976 l -4.89416,5.30862 -23.08813,0 -23.08831,0 0,-55.11434 z m -65.18941,-59.8715 c 0,-3.27088 5.00856,-18.72133 6.9111,-21.32019 3.53038,-4.81938 9.68779,-7.59657 14.74118,-6.64745 7.3745,1.38228 10.8753,5.42741 14.35361,16.58356 1.70935,5.48224 3.10789,10.55797 3.10789,11.27639 0,0.89996 -6.08505,1.30871 -19.55685,1.30871 -12.41082,0 -19.55693,-0.43616 -19.55693,-1.19954 z"
       style="fill:#000000;fill-opacity:1"
       id="path4069" />
    <g
       transform="matrix(2.6245402,0,0,2.6245402,-1480.979,-2395.4608)"
       style="font-size:33.88836288px;font-style:normal;font-weight:normal;line-height:125%;letter-spacing:0px;word-spacing:0px;fill:#000000;fill-opacity:1;stroke:none;font-family:Sans"
       id="text3997">
      <path
         inkscape:connector-curvature="0"
         d="m 604.6044,1114.6976 5.38916,0 0,18.842 10.50531,0 0,5.0499 -15.89447,0 z"
         style="font-variant:normal;font-stretch:normal;text-align:center;letter-spacing:-0.79639578px;text-anchor:middle;fill:#000000;font-family:CodiceNero;-inkscape-font-specification:CodiceNero"
         id="path4028" />
      <path
         inkscape:connector-curvature="0"
         d="m 628.87368,1121.3744 0,9.861 c -1e-5,0.6329 0.25992,1.1922 0.77978,1.678 0.51984,0.4857 1.1638,0.7285 1.93187,0.7285 0.85837,0 1.5361,-0.2937 2.03322,-0.8811 0.40677,-0.4743 0.61016,-0.9828 0.61017,-1.5254 l 0,-9.861 5.55774,0 0,17.2492 -4.60939,0 c -0.0221,-0.023 -0.0727,-0.1132 -0.15202,-0.2714 -0.0793,-0.1583 -0.19789,-0.3842 -0.35576,-0.678 -0.49712,0.2938 -1.0056,0.5875 -1.52544,0.8812 -0.79082,0.3392 -1.78467,0.5088 -2.98157,0.5088 -1.92084,0 -3.54193,-0.6271 -4.86328,-1.8812 -1.32135,-1.2541 -1.98203,-2.7847 -1.98203,-4.5918 l 0,-11.2168 z"
         style="font-variant:normal;font-stretch:normal;text-align:center;letter-spacing:-0.79639578px;text-anchor:middle;fill:#000000;font-family:CodiceNero;-inkscape-font-specification:CodiceNero"
         id="path4030" />
      <path
         inkscape:connector-curvature="0"
         d="m 653.9879,1138.5895 0,-9.5569 c -10e-6,-0.8357 -0.23167,-1.536 -0.69498,-2.101 -0.46333,-0.565 -1.12417,-0.8475 -1.98254,-0.8475 -0.94871,0 -1.66023,0.3278 -2.13457,0.9835 -0.33922,0.4971 -0.50883,1.0731 -0.50882,1.7281 l 0,9.7938 -5.42226,0 0,-17.182 4.77899,0 0.27096,1.0507 c 1.19689,-0.9487 2.76679,-1.423 4.7097,-1.423 2.21454,0 3.92026,0.8584 5.11718,2.5751 0.88111,1.2652 1.32168,2.5417 1.3217,3.8296 l 0,11.1496 z"
         style="font-variant:normal;font-stretch:normal;text-align:center;letter-spacing:-0.79639578px;text-anchor:middle;fill:#000000;font-family:CodiceNero;-inkscape-font-specification:CodiceNero"
         id="path4032" />
      <path
         inkscape:connector-curvature="0"
         d="m 684.37125,1125.6435 0,4.6094 -8.30248,0 0,-4.6094 z"
         style="font-variant:normal;font-stretch:normal;text-align:center;letter-spacing:-0.79639578px;text-anchor:middle;fill:#000000;font-family:CodiceNero;-inkscape-font-specification:CodiceNero"
         id="path4034" />
      <path
         inkscape:connector-curvature="0"
         d="m 705.48722,1114.6304 -5.96418,0 6.81118,23.9591 7.32001,0 6.81118,-23.9591 -5.96418,0 -4.50701,15.758 z"
         style="font-variant:normal;font-stretch:normal;text-align:center;letter-spacing:-0.79639578px;text-anchor:middle;fill:#000000;font-family:CodiceNero;-inkscape-font-specification:CodiceNero"
         id="path4036" />
      <path
         inkscape:connector-curvature="0"
         d="m 730.67901,1121.001 c 2.16903,0 4.05539,0.7681 5.65909,2.3042 1.80775,1.7175 2.71163,3.9768 2.71165,6.7781 -2e-5,0.3613 -0.0566,0.9373 -0.16961,1.7281 l -11.31922,0 c 0.51985,1.6044 1.67228,2.3838 3.4573,2.3383 1.40028,-0.045 2.77817,-0.587 4.13366,-1.6268 l 3.62691,3.5587 c -2.80198,1.9429 -5.41159,2.9143 -7.82882,2.9143 -2.28144,0 -4.26949,-0.7115 -5.96418,-2.1345 -1.85259,-1.5816 -2.81266,-3.6714 -2.88022,-6.2693 0,-0.3392 0,-0.859 0,-1.5595 0.0221,-1.7168 0.66567,-3.3774 1.93083,-4.9817 1.62712,-2.0332 3.84132,-3.0499 6.64261,-3.0499 z m -3.04983,6.7099 5.93005,0 c -0.13515,-0.6323 -0.47385,-1.1687 -1.01609,-1.6092 -0.54228,-0.4406 -1.1864,-0.6723 -1.93239,-0.695 -0.76807,-0.023 -1.43443,0.2258 -1.99909,0.7456 -0.47436,0.4296 -0.80185,0.9491 -0.98248,1.5586 z"
         style="font-variant:normal;font-stretch:normal;text-align:center;letter-spacing:-0.79639578px;text-anchor:middle;fill:#000000;font-family:CodiceNero;-inkscape-font-specification:CodiceNero"
         id="path4038" />
      <path
         inkscape:connector-curvature="0"
         d="m 752.46314,1138.5895 0,-9.5569 c -2e-5,-0.8357 -0.23168,-1.536 -0.69498,-2.101 -0.46333,-0.565 -1.12418,-0.8475 -1.98254,-0.8475 -0.94871,0 -1.66023,0.3278 -2.13457,0.9835 -0.33923,0.4971 -0.50883,1.0731 -0.50883,1.7281 l 0,9.7938 -5.42226,0 0,-17.182 4.779,0 0.27095,1.0507 c 1.1969,-0.9487 2.7668,-1.423 4.70971,-1.423 2.21453,0 3.92026,0.8584 5.11718,2.5751 0.88111,1.2652 1.32167,2.5417 1.32169,3.8296 l 0,11.1496 z"
         style="font-variant:normal;font-stretch:normal;text-align:center;letter-spacing:-0.79639578px;text-anchor:middle;fill:#000000;font-family:CodiceNero;-inkscape-font-specification:CodiceNero"
         id="path4040" />
    </g>
    <g
       style="font-size:33.88836288px;font-style:normal;font-weight:normal;line-height:125%;letter-spacing:0px;word-spacing:0px;fill:#000000;fill-opacity:1;stroke:none;font-family:Sans"
       id="text4001"
       transform="matrix(2.6245402,0,0,2.6245402,-1480.8786,-2393.6296)">
      <path
         d="m 615.76463,1175.485 5.42226,0 0,5.0148 -11.92836,0 0,-3.9982 c 1.19759,-1.9208 2.90332,-4.8128 5.11718,-8.6758 1.03901,-1.9429 1.58127,-3.479 1.62678,-4.6084 0.0448,-1.13 -0.30544,-1.695 -1.05074,-1.695 -0.13583,0 -0.28268,0.023 -0.44056,0.068 -0.47436,0.1352 -0.80185,0.5982 -0.98248,1.389 -0.13583,0.5646 -0.18099,1.028 -0.13548,1.3899 l -4.74487,0 c 0,-2.6206 0.71187,-4.6428 2.1356,-6.0666 1.28722,-1.3099 2.90228,-1.9087 4.84519,-1.7963 1.8305,0.1131 3.29905,0.8249 4.40565,2.1356 1.03969,1.1976 1.52542,2.5644 1.45717,4.1005 -0.0448,1.31 -0.44023,2.7896 -1.18621,4.4388 -0.42886,0.9494 -1.20243,2.3559 -2.32073,4.2195 -1.11831,1.8636 -1.85845,3.2249 -2.2204,4.084 z"
         style="font-variant:normal;font-stretch:normal;text-align:start;text-anchor:start;fill:#000000;font-family:CodiceNeroCondensed;-inkscape-font-specification:CodiceNeroCondensed"
         id="path4043"
         inkscape:connector-curvature="0" />
      <path
         d="m 632.2941,1156.8799 0,23.654 -5.52362,0 0,-15.1147 -2.60926,0 0,-4.0664 c 2.16835,-0.1579 3.25253,-1.6488 3.25253,-4.4729 z"
         style="font-variant:normal;font-stretch:normal;text-align:start;text-anchor:start;fill:#000000;font-family:CodiceNeroCondensed;-inkscape-font-specification:CodiceNeroCondensed"
         id="path4045"
         inkscape:connector-curvature="0" />
      <path
         d="m 639.20559,1175.9256 c 1.06177,0 1.87499,0.3275 2.43966,0.9824 0.56466,0.655 0.84699,1.491 0.847,2.508 -10e-6,0.9714 -0.39541,1.8525 -1.18621,2.6433 -0.9032,0.8584 -2.03288,1.2876 -3.38905,1.2876 -0.29371,0 -0.48572,-0.056 -0.57604,-0.1696 -0.18064,-0.1806 -0.31612,-0.5988 -0.40644,-1.2545 -0.0228,-0.2027 0.27665,-0.3831 0.8982,-0.5414 0.62154,-0.1582 0.93232,-0.3052 0.93232,-0.441 0,-0.068 -0.0452,-0.1466 -0.13548,-0.2369 -0.61018,0 -1.13554,-0.2316 -1.57611,-0.695 -0.44056,-0.4633 -0.66085,-0.9997 -0.66084,-1.6092 -10e-6,-0.7232 0.25406,-1.3163 0.76219,-1.7793 0.50813,-0.4629 1.19173,-0.6944 2.0508,-0.6944 z"
         style="font-variant:normal;font-stretch:normal;text-align:start;text-anchor:start;fill:#000000;font-family:CodiceNeroCondensed;-inkscape-font-specification:CodiceNeroCondensed"
         id="path4047"
         inkscape:connector-curvature="0" />
    </g>
    <g
       style="font-size:24.44107246px;font-style:normal;font-weight:normal;line-height:125%;letter-spacing:0px;word-spacing:0px;fill:#000000;fill-opacity:1;stroke:none;font-family:Sans"
       id="text4005"
       transform="matrix(2.6245402,0,0,2.6245402,-1480.8786,-2393.6296)">
      <path
         d="m 648.98401,1163.2185 c 1.69464,0 3.03896,0.9858 4.03299,2.9574 0.84731,1.6942 1.27097,3.6412 1.27098,5.841 -10e-6,2.2322 -0.3911,4.1956 -1.17327,5.8902 -0.97762,2.0855 -2.34631,3.1283 -4.10609,3.1283 -1.7757,0 -3.16055,-1.0428 -4.15456,-3.1283 -0.79859,-1.7105 -1.19789,-3.6739 -1.19789,-5.8902 0,-2.1183 0.38289,-4.0001 1.14866,-5.6456 0.9776,-2.1019 2.37066,-3.1528 4.17918,-3.1528 z m -1.27024,8.7984 c 0,3.4216 0.43161,5.1324 1.29485,5.1324 0.19542,0 0.35852,-0.098 0.4893,-0.2931 0.47239,-0.6678 0.70858,-2.2809 0.70859,-4.8393 -10e-6,-1.0427 -0.0572,-2.0042 -0.17155,-2.8843 -0.21184,-1.5151 -0.56215,-2.2727 -1.05095,-2.2727 -0.84683,0 -1.27024,1.719 -1.27024,5.157 z"
         style="font-variant:normal;font-stretch:normal;text-align:start;text-anchor:start;fill:#000000;font-family:CodiceNeroCondensed;-inkscape-font-specification:CodiceNeroCondensed"
         id="path4050"
         inkscape:connector-curvature="0" />
      <path
         d="m 661.72965,1163.2185 c 1.69463,0 3.03896,0.9858 4.03298,2.9574 0.84731,1.6942 1.27097,3.6412 1.27099,5.841 -2e-5,2.2322 -0.39111,4.1956 -1.17328,5.8902 -0.97761,2.0855 -2.3463,3.1283 -4.10608,3.1283 -1.7757,0 -3.16055,-1.0428 -4.15456,-3.1283 -0.7986,-1.7105 -1.19789,-3.6739 -1.19789,-5.8902 0,-2.1183 0.38288,-4.0001 1.14866,-5.6456 0.9776,-2.1019 2.37066,-3.1528 4.17918,-3.1528 z m -1.27024,8.7984 c -1e-5,3.4216 0.43161,5.1324 1.29485,5.1324 0.19542,0 0.35852,-0.098 0.4893,-0.2931 0.47239,-0.6678 0.70858,-2.2809 0.70859,-4.8393 -10e-6,-1.0427 -0.0572,-2.0042 -0.17155,-2.8843 -0.21184,-1.5151 -0.56216,-2.2727 -1.05095,-2.2727 -0.84683,0 -1.27025,1.719 -1.27024,5.157 z"
         style="font-variant:normal;font-stretch:normal;text-align:start;text-anchor:start;fill:#000000;font-family:CodiceNeroCondensed;-inkscape-font-specification:CodiceNeroCondensed"
         id="path4052"
         inkscape:connector-curvature="0" />
    </g>
    <g
       style="font-size:24.44107246px;font-style:normal;font-weight:normal;line-height:125%;letter-spacing:0px;word-spacing:0px;fill:#000000;fill-opacity:1;stroke:none;font-family:Sans"
       id="text4013"
       transform="matrix(2.6245402,0,0,2.6245402,-1480.8786,-2393.6296)">
      <path
         d="m 737.46021,1163.2185 c 1.69463,0 3.03896,0.9858 4.03298,2.9574 0.84731,1.6942 1.27097,3.6412 1.27099,5.841 -2e-5,2.2322 -0.39111,4.1956 -1.17328,5.8902 -0.97761,2.0855 -2.3463,3.1283 -4.10608,3.1283 -1.7757,0 -3.16055,-1.0428 -4.15456,-3.1283 -0.7986,-1.7105 -1.19789,-3.6739 -1.19789,-5.8902 0,-2.1183 0.38288,-4.0001 1.14866,-5.6456 0.9776,-2.1019 2.37066,-3.1528 4.17918,-3.1528 z m -1.27024,8.7984 c -10e-6,3.4216 0.43161,5.1324 1.29485,5.1324 0.19542,0 0.35851,-0.098 0.4893,-0.2931 0.47238,-0.6678 0.70858,-2.2809 0.70859,-4.8393 -1e-5,-1.0427 -0.0572,-2.0042 -0.17156,-2.8843 -0.21183,-1.5151 -0.56215,-2.2727 -1.05094,-2.2727 -0.84683,0 -1.27025,1.719 -1.27024,5.157 z"
         style="font-variant:normal;font-stretch:normal;text-align:start;text-anchor:start;fill:#000000;font-family:CodiceNeroCondensed;-inkscape-font-specification:CodiceNeroCondensed"
         id="path4063"
         inkscape:connector-curvature="0" />
      <path
         d="m 750.20584,1163.2185 c 1.69464,0 3.03897,0.9858 4.03299,2.9574 0.84731,1.6942 1.27097,3.6412 1.27098,5.841 -10e-6,2.2322 -0.3911,4.1956 -1.17327,5.8902 -0.97761,2.0855 -2.34631,3.1283 -4.10608,3.1283 -1.7757,0 -3.16056,-1.0428 -4.15457,-3.1283 -0.79859,-1.7105 -1.19788,-3.6739 -1.19788,-5.8902 0,-2.1183 0.38288,-4.0001 1.14865,-5.6456 0.9776,-2.1019 2.37066,-3.1528 4.17918,-3.1528 z m -1.27023,8.7984 c -10e-6,3.4216 0.43161,5.1324 1.29485,5.1324 0.19541,0 0.35851,-0.098 0.4893,-0.2931 0.47238,-0.6678 0.70858,-2.2809 0.70858,-4.8393 0,-1.0427 -0.0572,-2.0042 -0.17155,-2.8843 -0.21184,-1.5151 -0.56215,-2.2727 -1.05095,-2.2727 -0.84683,0 -1.27024,1.719 -1.27023,5.157 z"
         style="font-variant:normal;font-stretch:normal;text-align:start;text-anchor:start;fill:#000000;font-family:CodiceNeroCondensed;-inkscape-font-specification:CodiceNeroCondensed"
         id="path4065"
         inkscape:connector-curvature="0" />
    </g>
    <g
       style="font-size:33.88836288px;font-style:normal;font-weight:normal;line-height:125%;letter-spacing:0px;word-spacing:0px;fill:#000000;fill-opacity:1;stroke:none;font-family:Sans"
       id="text4017"
       transform="matrix(2.6245402,0,0,2.6245402,-1480.8786,-2393.6296)">
      <path
         d="m 713.59605,1156.8116 5.99831,0 0,14.911 1.72813,0 0,4.8804 -1.62575,0 0,3.9309 -5.35504,0 0,-3.9309 -7.65818,0 0,-3.1523 z m -1.55852,14.8779 2.23695,0 0,-5.1513 z"
         style="font-variant:normal;font-stretch:normal;text-align:start;text-anchor:start;fill:#000000;font-family:CodiceNeroCondensed;-inkscape-font-specification:CodiceNeroCondensed"
         id="path4058"
         inkscape:connector-curvature="0" />
      <path
         d="m 727.68483,1175.9256 c 1.06177,0 1.87498,0.3275 2.43966,0.9824 0.56466,0.655 0.84699,1.491 0.847,2.508 -10e-6,0.9714 -0.39541,1.8525 -1.18622,2.6433 -0.90319,0.8584 -2.03287,1.2876 -3.38904,1.2876 -0.29371,0 -0.48573,-0.056 -0.57604,-0.1696 -0.18064,-0.1806 -0.31612,-0.5988 -0.40644,-1.2545 -0.0228,-0.2027 0.27664,-0.3831 0.8982,-0.5414 0.62154,-0.1582 0.93231,-0.3052 0.93232,-0.441 -10e-6,-0.068 -0.0452,-0.1466 -0.13548,-0.2369 -0.61018,0 -1.13555,-0.2316 -1.57611,-0.695 -0.44057,-0.4633 -0.66085,-0.9997 -0.66085,-1.6092 0,-0.7232 0.25407,-1.3163 0.7622,-1.7793 0.50813,-0.4629 1.19173,-0.6944 2.0508,-0.6944 z"
         style="font-variant:normal;font-stretch:normal;text-align:start;text-anchor:start;fill:#000000;font-family:CodiceNeroCondensed;-inkscape-font-specification:CodiceNeroCondensed"
         id="path4060"
         inkscape:connector-curvature="0" />
    </g>
    <g
       style="font-size:33.88836288px;font-style:normal;font-weight:normal;line-height:125%;letter-spacing:0px;word-spacing:0px;fill:#000000;fill-opacity:1;stroke:none;font-family:Sans"
       id="text4021"
       transform="matrix(2.6245402,0,0,2.6245402,-1479.9189,-2393.6296)">
      <path
         d="m 683.96735,1167.7575 0,4.6094 -8.30249,0 0,-4.6094 z"
         style="font-variant:normal;font-stretch:normal;text-align:start;text-anchor:start;fill:#000000;font-family:CodiceNeroCondensed;-inkscape-font-specification:CodiceNeroCondensed"
         id="path4055"
         inkscape:connector-curvature="0" />
    </g>
  </g>
</svg>
