<svg xmlns="http://www.w3.org/2000/svg" width="394.005" height="590.713" xmlns:v="https://vecta.io/nano"><g fill="#fff"><rect ry="20.148" rx="13.736" height="655.174" width="452.019" y="-26.193" x="-31.466"/><path d="M.088.088h393.829v590.537H.088V.088z"/></g><path d="M.088.088h393.829v590.537H.088V.088z" fill="#fff500" stroke="#000" stroke-width=".176" stroke-miterlimit="3.86400007999999980"/><path d="M197.176 577.236v9.164h151.965c22.21 0 40.193-18.327 40.193-40.523V44.836c0-22.196-17.982-40.167-40.193-40.167H197.176v8.807h151.965c17.276 0 31.373 14.089 31.373 31.36v501.04c0 17.264-14.098 31.36-31.373 31.36H197.176z"/><path d="M197.176 13.474V4.667H44.861c-22.567 0-40.543 17.971-40.543 40.167V545.88c0 22.196 17.976 40.516 40.543 40.516h152.315v-9.164H44.861c-17.626 0-31.38-14.089-31.38-31.353V44.834c0-17.264 13.754-31.36 31.38-31.36h152.315zM89.991 117.773v-15.152h115.294c1.414 0 2.471-1.413 2.471-2.819v-.706l-6.699-32.416c-.35-1.406.7-2.819 2.114-3.169.707-.35 1.407 0 2.114.35l94.14 53.912-94.14 53.556c-1.407 1.056-3.171.35-3.878-.706-.35-.7-.35-1.406-.35-2.113l6.699-32.416c.35-1.406-.707-3.169-2.121-3.169 0-.357-.35-.357-.35-.357H89.991v-14.795zm11.285 285.402v27.484h.707l1.057-.35h1.057 1.057 1.057 1.057l1.057.35h1.057 1.064l1.05.35 1.064.357 1.057.35 1.057.35 1.057.357.707.35 1.057.35 1.057.706.707.706 1.057.35.7.706 1.064.706 1.407 1.056 1.057.706.707 1.406 1.057 1.056.707 1.063.707.7.7 1.056.357.706.7 1.056.357 1.056.35 1.056.357 1.063.35.7.35 1.056.357 1.063v1.056l.35 1.05.35 1.063v1.056 1.056 1.056h108.245v-1.056l.35-1.056v-1.056l.35-1.063v-1.05l.357-1.056v-1.063l.357-1.056.7-.7.357-1.063.35-1.056.357-1.056.7-1.056.35-.706.357-1.056.707-.7 1.057-1.063.7-1.056 1.057-1.406 1.064-.706h-119.88v-65.538h-28.559v6.694H125.6v24.665h-24.324z"/><path d="M101.276 378.512l8.08-6.694H85.057l-13.754 33.829v51.793h6.699v-1.063-1.05l.357-1.063v-1.056l.35-1.056v-1.056l.357-1.056.35-1.056.35-.706.357-1.056.35-1.056.35-1.056.707-1.056.707-.706.35-1.056.707-.706.707-1.056 1.057-1.056.707-1.413 1.407-.7 1.057-1.056 1.057-.706.707-.706 1.057-.35.707-.706 1.057-.706 1.057-.35 1.057-.357 1.057-.35 1.057-.357.707-.35 1.057-.35 1.057-.35h1.057.357l19.453-27.484H77.302l9.87-24.665h14.105zm4.23 90.203v9.157h.707.7l1.057-.35h.707.707l.707-.35h.7l.707-.357 1.057-.35.707-.35.35-.357h1.064l.7-.706.707-.35.35-.35 1.064-.357.7-.706.707-.7.707-.706 1.057-.706.35-1.056.707-.706.7-.7.357-.706.357-.706.35-.706.35-.7.35-.706v-.706l.707-.706v-1.05l.35-.357v-1.056l.357-.706v-.706-.7-1.056-.706-.706-.7-1.063-.706l-.357-.7v-.706l-.35-1.056v-.706l-.707-.706v-.7l-.35-.706-.35-.706-.35-.706-.357-.7-.357-.706-.7-.706-.707-1.056-.35-.706-1.057-.35-.707-1.056-.707-.706-.7-.7-1.064-.357-.35-.35-.707-.357-.7-.35-1.064-.357-.35-.35-.707-.35-1.057-.35-.707-.357h-.7-.707l-.707-.35h-.707-1.057-.7-.707l.35 8.807h.357.35l.707.35h.35.35.357l.35.357h.357.7l.357.35h.35l.35.35.357.357.35.35h.357l.7.357.357.35.35.706.35.35.707.35.357.706.343.357v.35l.357.706.357.35v.35l.35.357v.35.35l.35.357v.706.35.357.35.7.357.35.357.706.35.35.706l-.35.35v.35.357l-.35.357v.35l-.357.35-.357.357v.7l-.343.35v.357l-.357.35-.707.706-.35.357-.35.35-.357.35-.7.35-.357.357h-.35l-.357.35h-.35l-.35.35-.357.357h-.7l-.357.35h-.35-.357-.35l-.35.357h-.707-.35-.357-.35z"/><path d="M109.696 445.561l-4.19-8.209h-1.057-.707-.707-.7l-1.057.35h-.707-.707l-.707.357-1.057.35-.357.357-1.057.35-.7.35-.35.357-1.057.35-.357.35-.707.357-1.057.706-.7.7-.707 1.056-.707.35-.707.713-.7 1.056-.357.7-.35.706-.707.706-.357.706-.35.7-.35.706v.7l-.35.713-.357.7-.35 1.056v.706.706l-.357.706v1.056.7.706.706 1.056.706l.357.7v.706 1.056l.35.357.357 1.056.35.7v.706l.35.706.35.706.357.706.707.7.35.706.357.706.7.706.707 1.05.707.706.707.706.7.706 1.057.7.707.357.357.35 1.057.35.35.713h.7l1.057.35.357.35 1.057.35.707.357h.707l.707.35h1.057.7l.707.35h.707l9.137-2.693-7.73-6.463h-.35-.707-.35-.357-.35l-.35-.357h-.707-.35-.35l-.707-.35h-.357l-.35-.35-.357-.35h-.35l-.357-.357h-.35l-.35-.35-.707-.357-.357-.35-.35-.35-.35-.357-.357-.706-.35-.35-.35-.35-.35-.357v-.7l-.357-.357-.35-.35v-.35l-.35-.357v-.35-.357-.35l-.357-.706v-.35-.35-.706-.357-.35-.35-.706-.35-.357-.35l.357-.7v-.357-.357-.35l.35-.357v-.35l.35-.35.357-.706v-.35l.35-.35h.35l.35-.713.357-.35.35-.35.35-.706.357-.35.707-.35h.35l.35-.357.357-.35.35-.357h.357l.35-.35h.357.707l.35-.357h.35.707.35l.35-.35h.357.35.707.35l3.84-.599zm29.303-103.344h182.989v85.621H138.999v-85.621zm128.694 126.498v9.157h.707 1.057l.707-.35h.7.707l1.057-.35h.707l.707-.357.7-.35.707-.35.707-.357h1.057l.35-.706 1.057-.35.357-.35.707-.357 1.057-.706.7-.7.707-.706.707-.706.7-1.056.707-.706.357-.7.35-.706.357-.706.35-.706.707-.7.35-.706v-.706l.35-.706.357-1.05.35-.357v-1.056-.706l.357-.706v-.7-1.056-.706-.706-.7-1.063l-.357-.706v-.7-.706l-.35-1.056-.357-.706-.35-.706v-.7l-.35-.706-.707-.706-.35-.706-.357-.7-.35-.706-.357-.706-.707-1.056-.7-.706-.707-.35-.707-1.056-.7-.706-1.057-.7-.707-.357-.357-.35-1.057-.357-.35-.35-1.057-.357-.707-.35-.707-.35-.7-.35-.707-.357h-.707-1.057l-.707-.35h-.7-.707-1.057-.707v8.807h.707.35.35l.357.35h.35.707.35l.357.357h.35.35l.707.35h.35l.357.35.357.357.35.35h.35l.35.357.357.35.7.706.357.35.35.35.357.706h.35l.35.357v.35l.357.706v.35l.35.35.35.357v.35.35l.357.357v.706.35.357.35.7.357.35.357.706.35.35.706l-.357.35v.35.357l-.35.357-.35.35v.35l-.357.357v.7l-.35.35-.35.357-.357.35-.35.706-.357.357-.7.35-.357.35-.35.35-.35.357h-.35l-.357.35h-.357l-.35.35-.707.357h-.35l-.35.35h-.357-.35-.707l-.35.357h-.357-.35-.35-.707z"/><path d="M277.868 446.459l-10.175-9.106h-.7-1.064-.707-.7l-.707.35h-.707-.707l-.707.357-1.05.35-.707.357-.707.35-.707.35-.7.357-.707.35-.707.35-.707.357-.7.706-.707.7-1.057 1.056-.357.35-1.057.713-.35 1.056-.35.7-.707.706-.357.706-.35.706-.35.7-.357.706-.35.7-.35.713v.7l-.357 1.056v.706.706l-.35.706v1.056l-.357.7v.706.706l.357 1.056v.706l.35.7v.706 1.056l.357.357v1.056l.35.7.35.706.357.706.35.706.35.706.357.7.707.706.35.706.35.706 1.057 1.05.357.706 1.057.706.707.706.7.7.707.357.707.35.707.35.7.713h.707l.707.35.707.35 1.05.35.707.357h.707l.707.35h.707.7l.707.35h1.064l7.883-2.394-7.183-6.763h-.35-.35-.357-.707l-.357-.357h-.35-.35-.707l-.35-.35h-.35l-.357-.35-.35-.35h-.357l-.35-.357h-.357l-.7-.35-.35-.357-.357-.35-.707-.35-.35-.357-.357-.706-.35-.35-.35-.35v-.357l-.35-.7v-.357l-.357-.35v-.35l-.35-.357v-.35-.357l-.35-.35v-.706l-.357-.35v-.35-.706-.357-.35-.35-.706-.35-.357l.357-.35v-.7l.35-.357v-.357-.35l.35-.357v-.35l.357-.35v-.706l.35-.35v-.35h.35l.35-.713.357-.35.35-.35.707-.706.357-.35.35-.35h.7l.357-.357.35-.35.357-.357h.35l.357-.35h.35.35l.707-.357h.35.35.357l.707-.35h.357.35l10.525.299zm8.158-9.104h36.315v8.807l-27.145 9.164v-1.063l-.35-1.056-.357-1.056v-1.056l-.35-.706-.357-1.056-.35-1.056-.357-1.056-.35-1.056-.35-1.056-.707-.706-.707-1.056-.35-.706-.707-1.056-.707-1.056-1.05-1.056-.707-1.056-1.414-1.056z"/></svg>