<?xml version="1.0" encoding="UTF-8" standalone="no"?>
<!-- Created with Inkscape (http://www.inkscape.org/) -->

<svg
   xmlns:dc="http://purl.org/dc/elements/1.1/"
   xmlns:cc="http://creativecommons.org/ns#"
   xmlns:rdf="http://www.w3.org/1999/02/22-rdf-syntax-ns#"
   xmlns:svg="http://www.w3.org/2000/svg"
   xmlns="http://www.w3.org/2000/svg"
   xmlns:sodipodi="http://sodipodi.sourceforge.net/DTD/sodipodi-0.dtd"
   xmlns:inkscape="http://www.inkscape.org/namespaces/inkscape"
   version="1.1"
   width="200"
   height="200"
   id="svg2"
   inkscape:version="0.47 r22583"
   sodipodi:docname="Italian traffic signs - icona tennis.svg"
   sodipodi:version="0.32"
   inkscape:output_extension="org.inkscape.output.svg.inkscape">
  <metadata
     id="metadata2877">
    <rdf:RDF>
      <cc:Work
         rdf:about="">
        <dc:format>image/svg+xml</dc:format>
        <dc:type
           rdf:resource="http://purl.org/dc/dcmitype/StillImage" />
        <dc:title />
      </cc:Work>
    </rdf:RDF>
  </metadata>
  <sodipodi:namedview
     pagecolor="#ffffff"
     bordercolor="#666666"
     borderopacity="1"
     objecttolerance="10"
     gridtolerance="10"
     guidetolerance="10"
     inkscape:pageopacity="0"
     inkscape:pageshadow="2"
     inkscape:window-width="1600"
     inkscape:window-height="838"
     id="namedview2875"
     showgrid="false"
     inkscape:zoom="2.8558688"
     inkscape:cx="154.99879"
     inkscape:cy="153.8106"
     inkscape:window-x="-8"
     inkscape:window-y="-8"
     inkscape:window-maximized="1"
     inkscape:current-layer="svg2" />
  <defs
     id="defs4">
    <inkscape:perspective
       sodipodi:type="inkscape:persp3d"
       inkscape:vp_x="0 : 100 : 1"
       inkscape:vp_y="0 : 1000 : 0"
       inkscape:vp_z="200 : 100 : 1"
       inkscape:persp3d-origin="100 : 66.666667 : 1"
       id="perspective2879" />
    <inkscape:perspective
       id="perspective2839"
       inkscape:persp3d-origin="0.5 : 0.33333333 : 1"
       inkscape:vp_z="1 : 0.5 : 1"
       inkscape:vp_y="0 : 1000 : 0"
       inkscape:vp_x="0 : 0.5 : 1"
       sodipodi:type="inkscape:persp3d" />
    <inkscape:perspective
       id="perspective3649"
       inkscape:persp3d-origin="0.5 : 0.33333333 : 1"
       inkscape:vp_z="1 : 0.5 : 1"
       inkscape:vp_y="0 : 1000 : 0"
       inkscape:vp_x="0 : 0.5 : 1"
       sodipodi:type="inkscape:persp3d" />
    <inkscape:perspective
       id="perspective3679"
       inkscape:persp3d-origin="0.5 : 0.33333333 : 1"
       inkscape:vp_z="1 : 0.5 : 1"
       inkscape:vp_y="0 : 1000 : 0"
       inkscape:vp_x="0 : 0.5 : 1"
       sodipodi:type="inkscape:persp3d" />
    <inkscape:perspective
       id="perspective3713"
       inkscape:persp3d-origin="0.5 : 0.33333333 : 1"
       inkscape:vp_z="1 : 0.5 : 1"
       inkscape:vp_y="0 : 1000 : 0"
       inkscape:vp_x="0 : 0.5 : 1"
       sodipodi:type="inkscape:persp3d" />
    <inkscape:perspective
       id="perspective3741"
       inkscape:persp3d-origin="0.5 : 0.33333333 : 1"
       inkscape:vp_z="1 : 0.5 : 1"
       inkscape:vp_y="0 : 1000 : 0"
       inkscape:vp_x="0 : 0.5 : 1"
       sodipodi:type="inkscape:persp3d" />
    <inkscape:perspective
       id="perspective3765"
       inkscape:persp3d-origin="0.5 : 0.33333333 : 1"
       inkscape:vp_z="1 : 0.5 : 1"
       inkscape:vp_y="0 : 1000 : 0"
       inkscape:vp_x="0 : 0.5 : 1"
       sodipodi:type="inkscape:persp3d" />
    <inkscape:perspective
       id="perspective3801"
       inkscape:persp3d-origin="0.5 : 0.33333333 : 1"
       inkscape:vp_z="1 : 0.5 : 1"
       inkscape:vp_y="0 : 1000 : 0"
       inkscape:vp_x="0 : 0.5 : 1"
       sodipodi:type="inkscape:persp3d" />
    <inkscape:perspective
       id="perspective2863"
       inkscape:persp3d-origin="0.5 : 0.33333333 : 1"
       inkscape:vp_z="1 : 0.5 : 1"
       inkscape:vp_y="0 : 1000 : 0"
       inkscape:vp_x="0 : 0.5 : 1"
       sodipodi:type="inkscape:persp3d" />
    <inkscape:perspective
       id="perspective3859"
       inkscape:persp3d-origin="0.5 : 0.33333333 : 1"
       inkscape:vp_z="1 : 0.5 : 1"
       inkscape:vp_y="0 : 1000 : 0"
       inkscape:vp_x="0 : 0.5 : 1"
       sodipodi:type="inkscape:persp3d" />
    <inkscape:perspective
       id="perspective3964"
       inkscape:persp3d-origin="0.5 : 0.33333333 : 1"
       inkscape:vp_z="1 : 0.5 : 1"
       inkscape:vp_y="0 : 1000 : 0"
       inkscape:vp_x="0 : 0.5 : 1"
       sodipodi:type="inkscape:persp3d" />
    <inkscape:perspective
       id="perspective3988"
       inkscape:persp3d-origin="0.5 : 0.33333333 : 1"
       inkscape:vp_z="1 : 0.5 : 1"
       inkscape:vp_y="0 : 1000 : 0"
       inkscape:vp_x="0 : 0.5 : 1"
       sodipodi:type="inkscape:persp3d" />
    <inkscape:perspective
       id="perspective2879-7"
       inkscape:persp3d-origin="0.5 : 0.33333333 : 1"
       inkscape:vp_z="1 : 0.5 : 1"
       inkscape:vp_y="0 : 1000 : 0"
       inkscape:vp_x="0 : 0.5 : 1"
       sodipodi:type="inkscape:persp3d" />
    <inkscape:perspective
       id="perspective4031"
       inkscape:persp3d-origin="0.5 : 0.33333333 : 1"
       inkscape:vp_z="1 : 0.5 : 1"
       inkscape:vp_y="0 : 1000 : 0"
       inkscape:vp_x="0 : 0.5 : 1"
       sodipodi:type="inkscape:persp3d" />
    <inkscape:perspective
       id="perspective4047"
       inkscape:persp3d-origin="0.5 : 0.33333333 : 1"
       inkscape:vp_z="1 : 0.5 : 1"
       inkscape:vp_y="0 : 1000 : 0"
       inkscape:vp_x="0 : 0.5 : 1"
       sodipodi:type="inkscape:persp3d" />
    <inkscape:perspective
       id="perspective4063"
       inkscape:persp3d-origin="0.5 : 0.33333333 : 1"
       inkscape:vp_z="1 : 0.5 : 1"
       inkscape:vp_y="0 : 1000 : 0"
       inkscape:vp_x="0 : 0.5 : 1"
       sodipodi:type="inkscape:persp3d" />
    <inkscape:perspective
       id="perspective4079"
       inkscape:persp3d-origin="0.5 : 0.33333333 : 1"
       inkscape:vp_z="1 : 0.5 : 1"
       inkscape:vp_y="0 : 1000 : 0"
       inkscape:vp_x="0 : 0.5 : 1"
       sodipodi:type="inkscape:persp3d" />
    <inkscape:perspective
       id="perspective4097"
       inkscape:persp3d-origin="0.5 : 0.33333333 : 1"
       inkscape:vp_z="1 : 0.5 : 1"
       inkscape:vp_y="0 : 1000 : 0"
       inkscape:vp_x="0 : 0.5 : 1"
       sodipodi:type="inkscape:persp3d" />
    <inkscape:perspective
       id="perspective4115"
       inkscape:persp3d-origin="0.5 : 0.33333333 : 1"
       inkscape:vp_z="1 : 0.5 : 1"
       inkscape:vp_y="0 : 1000 : 0"
       inkscape:vp_x="0 : 0.5 : 1"
       sodipodi:type="inkscape:persp3d" />
    <inkscape:perspective
       id="perspective4129"
       inkscape:persp3d-origin="0.5 : 0.33333333 : 1"
       inkscape:vp_z="1 : 0.5 : 1"
       inkscape:vp_y="0 : 1000 : 0"
       inkscape:vp_x="0 : 0.5 : 1"
       sodipodi:type="inkscape:persp3d" />
    <inkscape:perspective
       id="perspective4153"
       inkscape:persp3d-origin="0.5 : 0.33333333 : 1"
       inkscape:vp_z="1 : 0.5 : 1"
       inkscape:vp_y="0 : 1000 : 0"
       inkscape:vp_x="0 : 0.5 : 1"
       sodipodi:type="inkscape:persp3d" />
    <inkscape:perspective
       id="perspective4179"
       inkscape:persp3d-origin="0.5 : 0.33333333 : 1"
       inkscape:vp_z="1 : 0.5 : 1"
       inkscape:vp_y="0 : 1000 : 0"
       inkscape:vp_x="0 : 0.5 : 1"
       sodipodi:type="inkscape:persp3d" />
    <inkscape:perspective
       id="perspective4195"
       inkscape:persp3d-origin="0.5 : 0.33333333 : 1"
       inkscape:vp_z="1 : 0.5 : 1"
       inkscape:vp_y="0 : 1000 : 0"
       inkscape:vp_x="0 : 0.5 : 1"
       sodipodi:type="inkscape:persp3d" />
    <inkscape:perspective
       id="perspective4213"
       inkscape:persp3d-origin="0.5 : 0.33333333 : 1"
       inkscape:vp_z="1 : 0.5 : 1"
       inkscape:vp_y="0 : 1000 : 0"
       inkscape:vp_x="0 : 0.5 : 1"
       sodipodi:type="inkscape:persp3d" />
    <inkscape:perspective
       id="perspective4267"
       inkscape:persp3d-origin="0.5 : 0.33333333 : 1"
       inkscape:vp_z="1 : 0.5 : 1"
       inkscape:vp_y="0 : 1000 : 0"
       inkscape:vp_x="0 : 0.5 : 1"
       sodipodi:type="inkscape:persp3d" />
    <inkscape:perspective
       id="perspective4283"
       inkscape:persp3d-origin="0.5 : 0.33333333 : 1"
       inkscape:vp_z="1 : 0.5 : 1"
       inkscape:vp_y="0 : 1000 : 0"
       inkscape:vp_x="0 : 0.5 : 1"
       sodipodi:type="inkscape:persp3d" />
    <inkscape:perspective
       id="perspective4314"
       inkscape:persp3d-origin="0.5 : 0.33333333 : 1"
       inkscape:vp_z="1 : 0.5 : 1"
       inkscape:vp_y="0 : 1000 : 0"
       inkscape:vp_x="0 : 0.5 : 1"
       sodipodi:type="inkscape:persp3d" />
    <inkscape:perspective
       id="perspective4330"
       inkscape:persp3d-origin="0.5 : 0.33333333 : 1"
       inkscape:vp_z="1 : 0.5 : 1"
       inkscape:vp_y="0 : 1000 : 0"
       inkscape:vp_x="0 : 0.5 : 1"
       sodipodi:type="inkscape:persp3d" />
    <inkscape:perspective
       id="perspective4346"
       inkscape:persp3d-origin="0.5 : 0.33333333 : 1"
       inkscape:vp_z="1 : 0.5 : 1"
       inkscape:vp_y="0 : 1000 : 0"
       inkscape:vp_x="0 : 0.5 : 1"
       sodipodi:type="inkscape:persp3d" />
    <inkscape:perspective
       id="perspective3742"
       inkscape:persp3d-origin="0.5 : 0.33333333 : 1"
       inkscape:vp_z="1 : 0.5 : 1"
       inkscape:vp_y="0 : 1000 : 0"
       inkscape:vp_x="0 : 0.5 : 1"
       sodipodi:type="inkscape:persp3d" />
    <inkscape:perspective
       id="perspective3776"
       inkscape:persp3d-origin="0.5 : 0.33333333 : 1"
       inkscape:vp_z="1 : 0.5 : 1"
       inkscape:vp_y="0 : 1000 : 0"
       inkscape:vp_x="0 : 0.5 : 1"
       sodipodi:type="inkscape:persp3d" />
    <inkscape:perspective
       id="perspective3792"
       inkscape:persp3d-origin="0.5 : 0.33333333 : 1"
       inkscape:vp_z="1 : 0.5 : 1"
       inkscape:vp_y="0 : 1000 : 0"
       inkscape:vp_x="0 : 0.5 : 1"
       sodipodi:type="inkscape:persp3d" />
    <inkscape:perspective
       id="perspective3808"
       inkscape:persp3d-origin="0.5 : 0.33333333 : 1"
       inkscape:vp_z="1 : 0.5 : 1"
       inkscape:vp_y="0 : 1000 : 0"
       inkscape:vp_x="0 : 0.5 : 1"
       sodipodi:type="inkscape:persp3d" />
    <inkscape:perspective
       id="perspective3824"
       inkscape:persp3d-origin="0.5 : 0.33333333 : 1"
       inkscape:vp_z="1 : 0.5 : 1"
       inkscape:vp_y="0 : 1000 : 0"
       inkscape:vp_x="0 : 0.5 : 1"
       sodipodi:type="inkscape:persp3d" />
    <inkscape:perspective
       id="perspective4354"
       inkscape:persp3d-origin="0.5 : 0.33333333 : 1"
       inkscape:vp_z="1 : 0.5 : 1"
       inkscape:vp_y="0 : 1000 : 0"
       inkscape:vp_x="0 : 0.5 : 1"
       sodipodi:type="inkscape:persp3d" />
    <inkscape:perspective
       id="perspective4395"
       inkscape:persp3d-origin="0.5 : 0.33333333 : 1"
       inkscape:vp_z="1 : 0.5 : 1"
       inkscape:vp_y="0 : 1000 : 0"
       inkscape:vp_x="0 : 0.5 : 1"
       sodipodi:type="inkscape:persp3d" />
    <inkscape:perspective
       id="perspective4435"
       inkscape:persp3d-origin="0.5 : 0.33333333 : 1"
       inkscape:vp_z="1 : 0.5 : 1"
       inkscape:vp_y="0 : 1000 : 0"
       inkscape:vp_x="0 : 0.5 : 1"
       sodipodi:type="inkscape:persp3d" />
    <inkscape:perspective
       id="perspective4460"
       inkscape:persp3d-origin="0.5 : 0.33333333 : 1"
       inkscape:vp_z="1 : 0.5 : 1"
       inkscape:vp_y="0 : 1000 : 0"
       inkscape:vp_x="0 : 0.5 : 1"
       sodipodi:type="inkscape:persp3d" />
    <inkscape:perspective
       id="perspective4479"
       inkscape:persp3d-origin="0.5 : 0.33333333 : 1"
       inkscape:vp_z="1 : 0.5 : 1"
       inkscape:vp_y="0 : 1000 : 0"
       inkscape:vp_x="0 : 0.5 : 1"
       sodipodi:type="inkscape:persp3d" />
    <inkscape:perspective
       id="perspective4495"
       inkscape:persp3d-origin="0.5 : 0.33333333 : 1"
       inkscape:vp_z="1 : 0.5 : 1"
       inkscape:vp_y="0 : 1000 : 0"
       inkscape:vp_x="0 : 0.5 : 1"
       sodipodi:type="inkscape:persp3d" />
    <inkscape:perspective
       id="perspective4511"
       inkscape:persp3d-origin="0.5 : 0.33333333 : 1"
       inkscape:vp_z="1 : 0.5 : 1"
       inkscape:vp_y="0 : 1000 : 0"
       inkscape:vp_x="0 : 0.5 : 1"
       sodipodi:type="inkscape:persp3d" />
    <inkscape:perspective
       id="perspective4527"
       inkscape:persp3d-origin="0.5 : 0.33333333 : 1"
       inkscape:vp_z="1 : 0.5 : 1"
       inkscape:vp_y="0 : 1000 : 0"
       inkscape:vp_x="0 : 0.5 : 1"
       sodipodi:type="inkscape:persp3d" />
    <inkscape:perspective
       id="perspective4543"
       inkscape:persp3d-origin="0.5 : 0.33333333 : 1"
       inkscape:vp_z="1 : 0.5 : 1"
       inkscape:vp_y="0 : 1000 : 0"
       inkscape:vp_x="0 : 0.5 : 1"
       sodipodi:type="inkscape:persp3d" />
    <inkscape:perspective
       id="perspective4559"
       inkscape:persp3d-origin="0.5 : 0.33333333 : 1"
       inkscape:vp_z="1 : 0.5 : 1"
       inkscape:vp_y="0 : 1000 : 0"
       inkscape:vp_x="0 : 0.5 : 1"
       sodipodi:type="inkscape:persp3d" />
    <inkscape:perspective
       id="perspective4575"
       inkscape:persp3d-origin="0.5 : 0.33333333 : 1"
       inkscape:vp_z="1 : 0.5 : 1"
       inkscape:vp_y="0 : 1000 : 0"
       inkscape:vp_x="0 : 0.5 : 1"
       sodipodi:type="inkscape:persp3d" />
    <inkscape:perspective
       id="perspective4591"
       inkscape:persp3d-origin="0.5 : 0.33333333 : 1"
       inkscape:vp_z="1 : 0.5 : 1"
       inkscape:vp_y="0 : 1000 : 0"
       inkscape:vp_x="0 : 0.5 : 1"
       sodipodi:type="inkscape:persp3d" />
    <inkscape:perspective
       id="perspective4607"
       inkscape:persp3d-origin="0.5 : 0.33333333 : 1"
       inkscape:vp_z="1 : 0.5 : 1"
       inkscape:vp_y="0 : 1000 : 0"
       inkscape:vp_x="0 : 0.5 : 1"
       sodipodi:type="inkscape:persp3d" />
    <inkscape:perspective
       id="perspective4629"
       inkscape:persp3d-origin="0.5 : 0.33333333 : 1"
       inkscape:vp_z="1 : 0.5 : 1"
       inkscape:vp_y="0 : 1000 : 0"
       inkscape:vp_x="0 : 0.5 : 1"
       sodipodi:type="inkscape:persp3d" />
    <inkscape:perspective
       id="perspective4674"
       inkscape:persp3d-origin="0.5 : 0.33333333 : 1"
       inkscape:vp_z="1 : 0.5 : 1"
       inkscape:vp_y="0 : 1000 : 0"
       inkscape:vp_x="0 : 0.5 : 1"
       sodipodi:type="inkscape:persp3d" />
    <inkscape:perspective
       id="perspective4690"
       inkscape:persp3d-origin="0.5 : 0.33333333 : 1"
       inkscape:vp_z="1 : 0.5 : 1"
       inkscape:vp_y="0 : 1000 : 0"
       inkscape:vp_x="0 : 0.5 : 1"
       sodipodi:type="inkscape:persp3d" />
    <inkscape:perspective
       id="perspective4735"
       inkscape:persp3d-origin="0.5 : 0.33333333 : 1"
       inkscape:vp_z="1 : 0.5 : 1"
       inkscape:vp_y="0 : 1000 : 0"
       inkscape:vp_x="0 : 0.5 : 1"
       sodipodi:type="inkscape:persp3d" />
    <inkscape:perspective
       id="perspective4751"
       inkscape:persp3d-origin="0.5 : 0.33333333 : 1"
       inkscape:vp_z="1 : 0.5 : 1"
       inkscape:vp_y="0 : 1000 : 0"
       inkscape:vp_x="0 : 0.5 : 1"
       sodipodi:type="inkscape:persp3d" />
    <inkscape:perspective
       id="perspective4767"
       inkscape:persp3d-origin="0.5 : 0.33333333 : 1"
       inkscape:vp_z="1 : 0.5 : 1"
       inkscape:vp_y="0 : 1000 : 0"
       inkscape:vp_x="0 : 0.5 : 1"
       sodipodi:type="inkscape:persp3d" />
    <inkscape:perspective
       id="perspective4787"
       inkscape:persp3d-origin="0.5 : 0.33333333 : 1"
       inkscape:vp_z="1 : 0.5 : 1"
       inkscape:vp_y="0 : 1000 : 0"
       inkscape:vp_x="0 : 0.5 : 1"
       sodipodi:type="inkscape:persp3d" />
    <inkscape:perspective
       id="perspective4813"
       inkscape:persp3d-origin="0.5 : 0.33333333 : 1"
       inkscape:vp_z="1 : 0.5 : 1"
       inkscape:vp_y="0 : 1000 : 0"
       inkscape:vp_x="0 : 0.5 : 1"
       sodipodi:type="inkscape:persp3d" />
    <inkscape:perspective
       id="perspective4905"
       inkscape:persp3d-origin="0.5 : 0.33333333 : 1"
       inkscape:vp_z="1 : 0.5 : 1"
       inkscape:vp_y="0 : 1000 : 0"
       inkscape:vp_x="0 : 0.5 : 1"
       sodipodi:type="inkscape:persp3d" />
    <inkscape:perspective
       id="perspective2877"
       inkscape:persp3d-origin="0.5 : 0.33333333 : 1"
       inkscape:vp_z="1 : 0.5 : 1"
       inkscape:vp_y="0 : 1000 : 0"
       inkscape:vp_x="0 : 0.5 : 1"
       sodipodi:type="inkscape:persp3d" />
    <inkscape:perspective
       id="perspective2893"
       inkscape:persp3d-origin="0.5 : 0.33333333 : 1"
       inkscape:vp_z="1 : 0.5 : 1"
       inkscape:vp_y="0 : 1000 : 0"
       inkscape:vp_x="0 : 0.5 : 1"
       sodipodi:type="inkscape:persp3d" />
    <inkscape:perspective
       id="perspective3693"
       inkscape:persp3d-origin="0.5 : 0.33333333 : 1"
       inkscape:vp_z="1 : 0.5 : 1"
       inkscape:vp_y="0 : 1000 : 0"
       inkscape:vp_x="0 : 0.5 : 1"
       sodipodi:type="inkscape:persp3d" />
    <inkscape:perspective
       id="perspective3709"
       inkscape:persp3d-origin="0.5 : 0.33333333 : 1"
       inkscape:vp_z="1 : 0.5 : 1"
       inkscape:vp_y="0 : 1000 : 0"
       inkscape:vp_x="0 : 0.5 : 1"
       sodipodi:type="inkscape:persp3d" />
    <inkscape:perspective
       id="perspective3725"
       inkscape:persp3d-origin="0.5 : 0.33333333 : 1"
       inkscape:vp_z="1 : 0.5 : 1"
       inkscape:vp_y="0 : 1000 : 0"
       inkscape:vp_x="0 : 0.5 : 1"
       sodipodi:type="inkscape:persp3d" />
    <inkscape:perspective
       id="perspective3743"
       inkscape:persp3d-origin="0.5 : 0.33333333 : 1"
       inkscape:vp_z="1 : 0.5 : 1"
       inkscape:vp_y="0 : 1000 : 0"
       inkscape:vp_x="0 : 0.5 : 1"
       sodipodi:type="inkscape:persp3d" />
    <inkscape:perspective
       id="perspective3759"
       inkscape:persp3d-origin="0.5 : 0.33333333 : 1"
       inkscape:vp_z="1 : 0.5 : 1"
       inkscape:vp_y="0 : 1000 : 0"
       inkscape:vp_x="0 : 0.5 : 1"
       sodipodi:type="inkscape:persp3d" />
    <inkscape:perspective
       id="perspective3777"
       inkscape:persp3d-origin="0.5 : 0.33333333 : 1"
       inkscape:vp_z="1 : 0.5 : 1"
       inkscape:vp_y="0 : 1000 : 0"
       inkscape:vp_x="0 : 0.5 : 1"
       sodipodi:type="inkscape:persp3d" />
    <inkscape:perspective
       id="perspective3795"
       inkscape:persp3d-origin="0.5 : 0.33333333 : 1"
       inkscape:vp_z="1 : 0.5 : 1"
       inkscape:vp_y="0 : 1000 : 0"
       inkscape:vp_x="0 : 0.5 : 1"
       sodipodi:type="inkscape:persp3d" />
    <inkscape:perspective
       id="perspective3815"
       inkscape:persp3d-origin="0.5 : 0.33333333 : 1"
       inkscape:vp_z="1 : 0.5 : 1"
       inkscape:vp_y="0 : 1000 : 0"
       inkscape:vp_x="0 : 0.5 : 1"
       sodipodi:type="inkscape:persp3d" />
    <inkscape:perspective
       id="perspective3831"
       inkscape:persp3d-origin="0.5 : 0.33333333 : 1"
       inkscape:vp_z="1 : 0.5 : 1"
       inkscape:vp_y="0 : 1000 : 0"
       inkscape:vp_x="0 : 0.5 : 1"
       sodipodi:type="inkscape:persp3d" />
    <inkscape:perspective
       id="perspective4112"
       inkscape:persp3d-origin="0.5 : 0.33333333 : 1"
       inkscape:vp_z="1 : 0.5 : 1"
       inkscape:vp_y="0 : 1000 : 0"
       inkscape:vp_x="0 : 0.5 : 1"
       sodipodi:type="inkscape:persp3d" />
    <inkscape:perspective
       id="perspective5834"
       inkscape:persp3d-origin="0.5 : 0.33333333 : 1"
       inkscape:vp_z="1 : 0.5 : 1"
       inkscape:vp_y="0 : 1000 : 0"
       inkscape:vp_x="0 : 0.5 : 1"
       sodipodi:type="inkscape:persp3d" />
    <inkscape:perspective
       id="perspective6553"
       inkscape:persp3d-origin="0.5 : 0.33333333 : 1"
       inkscape:vp_z="1 : 0.5 : 1"
       inkscape:vp_y="0 : 1000 : 0"
       inkscape:vp_x="0 : 0.5 : 1"
       sodipodi:type="inkscape:persp3d" />
    <inkscape:perspective
       id="perspective6591"
       inkscape:persp3d-origin="0.5 : 0.33333333 : 1"
       inkscape:vp_z="1 : 0.5 : 1"
       inkscape:vp_y="0 : 1000 : 0"
       inkscape:vp_x="0 : 0.5 : 1"
       sodipodi:type="inkscape:persp3d" />
    <inkscape:perspective
       id="perspective6607"
       inkscape:persp3d-origin="0.5 : 0.33333333 : 1"
       inkscape:vp_z="1 : 0.5 : 1"
       inkscape:vp_y="0 : 1000 : 0"
       inkscape:vp_x="0 : 0.5 : 1"
       sodipodi:type="inkscape:persp3d" />
    <inkscape:perspective
       id="perspective6623"
       inkscape:persp3d-origin="0.5 : 0.33333333 : 1"
       inkscape:vp_z="1 : 0.5 : 1"
       inkscape:vp_y="0 : 1000 : 0"
       inkscape:vp_x="0 : 0.5 : 1"
       sodipodi:type="inkscape:persp3d" />
    <inkscape:perspective
       id="perspective6641"
       inkscape:persp3d-origin="0.5 : 0.33333333 : 1"
       inkscape:vp_z="1 : 0.5 : 1"
       inkscape:vp_y="0 : 1000 : 0"
       inkscape:vp_x="0 : 0.5 : 1"
       sodipodi:type="inkscape:persp3d" />
    <inkscape:perspective
       id="perspective6816"
       inkscape:persp3d-origin="0.5 : 0.33333333 : 1"
       inkscape:vp_z="1 : 0.5 : 1"
       inkscape:vp_y="0 : 1000 : 0"
       inkscape:vp_x="0 : 0.5 : 1"
       sodipodi:type="inkscape:persp3d" />
    <inkscape:perspective
       id="perspective6847"
       inkscape:persp3d-origin="0.5 : 0.33333333 : 1"
       inkscape:vp_z="1 : 0.5 : 1"
       inkscape:vp_y="0 : 1000 : 0"
       inkscape:vp_x="0 : 0.5 : 1"
       sodipodi:type="inkscape:persp3d" />
    <inkscape:perspective
       id="perspective6877"
       inkscape:persp3d-origin="0.5 : 0.33333333 : 1"
       inkscape:vp_z="1 : 0.5 : 1"
       inkscape:vp_y="0 : 1000 : 0"
       inkscape:vp_x="0 : 0.5 : 1"
       sodipodi:type="inkscape:persp3d" />
    <inkscape:perspective
       id="perspective6893"
       inkscape:persp3d-origin="0.5 : 0.33333333 : 1"
       inkscape:vp_z="1 : 0.5 : 1"
       inkscape:vp_y="0 : 1000 : 0"
       inkscape:vp_x="0 : 0.5 : 1"
       sodipodi:type="inkscape:persp3d" />
    <inkscape:perspective
       id="perspective6923"
       inkscape:persp3d-origin="0.5 : 0.33333333 : 1"
       inkscape:vp_z="1 : 0.5 : 1"
       inkscape:vp_y="0 : 1000 : 0"
       inkscape:vp_x="0 : 0.5 : 1"
       sodipodi:type="inkscape:persp3d" />
    <inkscape:perspective
       id="perspective7273"
       inkscape:persp3d-origin="0.5 : 0.33333333 : 1"
       inkscape:vp_z="1 : 0.5 : 1"
       inkscape:vp_y="0 : 1000 : 0"
       inkscape:vp_x="0 : 0.5 : 1"
       sodipodi:type="inkscape:persp3d" />
  </defs>
  <path
     style="fill:#ffffff;fill-opacity:1;stroke:none"
     d="m -1.5876605,-3.0202186 207.7153805,0 0,207.3483886 -207.7153805,0 0,-207.3483886 z"
     id="rect2881" />
  <path
     style="fill:none;stroke:#000000;stroke-width:2.99693632;stroke-miterlimit:4;stroke-opacity:1"
     d="m 21.467889,2.4041869 156.802311,0 c 10.23854,0 18.48111,8.3144241 18.48111,18.6422021 l 0,158.169131 c 0,10.32778 -8.24257,18.6422 -18.48111,18.6422 l -156.802311,0 c -10.23853,0 -18.4811103,-8.31442 -18.4811103,-18.6422 l 0,-158.169131 c 0,-10.327778 8.2425803,-18.6422021 18.4811103,-18.6422021 z"
     id="rect4614-9" />
  <path
     sodipodi:type="arc"
     style="fill:#000000;fill-opacity:1;stroke:#000000;stroke-width:7.2750001;stroke-linecap:round;stroke-linejoin:round;stroke-miterlimit:4;stroke-opacity:1;stroke-dasharray:none;stroke-dashoffset:0"
     id="path6631"
     sodipodi:cx="23.922606"
     sodipodi:cy="69.418091"
     sodipodi:rx="6.5813284"
     sodipodi:ry="6.8947248"
     d="m 30.503934,69.418091 a 6.5813284,6.8947248 0 1 1 -13.162657,0 6.5813284,6.8947248 0 1 1 13.162657,0 z"
     transform="matrix(0.79554304,0,0,0.79554304,39.155837,6.9445005)" />
  <path
     style="fill:#000000"
     d="m 79.107369,164.10502 c -0.914695,-0.49803 -2.020555,-1.60718 -2.457475,-2.46479 -0.500532,-0.98247 -1.58622,-7.19115 -2.934927,-16.78382 -1.177288,-8.3735 -2.390239,-15.45983 -2.695446,-15.74741 -0.622141,-0.5862 -14.847119,-8.63769 -15.485149,-8.76476 -0.224597,-0.0447 -1.640639,3.58255 -3.146754,8.06063 l -2.738393,8.14195 -9.729276,9.89328 c -5.351101,5.44129 -10.259102,10.26078 -10.90667,10.70996 -1.425601,0.98887 -4.719234,1.07445 -6.471797,0.16816 -2.839659,-1.46844 -4.164756,-4.36436 -3.361683,-7.34674 0.366075,-1.3595 2.31038,-3.5323 9.096276,-10.16527 l 8.630682,-8.43618 4.180326,-11.76269 4.180325,-11.76269 -1.358165,-6.42036 c -0.74699,-3.531203 -1.436372,-6.498574 -1.531959,-6.594161 -0.09559,-0.09559 -3.388883,3.979391 -7.318436,9.055501 -7.637999,9.8666 -8.830357,10.89564 -11.94738,10.31088 -2.200787,-0.41287 -4.411127,-3.07573 -4.407422,-5.30975 0.0016,-0.95721 0.29244,-2.29532 0.64634,-2.97358 1.074792,-2.05986 26.457955,-30.830842 28.065736,-31.811579 2.62108,-1.598844 4.340591,-1.64433 8.730267,-0.230935 l 4.01237,1.291908 10.09018,10.34361 10.09018,10.34361 9.180928,-1.300405 c 8.651358,-1.225398 9.266204,-1.256306 10.659333,-0.53589 4.32956,2.238897 4.28828,8.190171 -0.0697,10.042901 -1.206568,0.51296 -6.154071,1.38022 -12.407975,2.17501 l -10.401262,1.32188 -3.886385,-3.45126 c -2.137517,-1.89819 -4.463897,-3.97699 -5.169735,-4.619548 -0.705838,-0.642565 -1.389462,-1.062176 -1.519161,-0.932477 -0.413569,0.413564 -2.201342,9.806825 -1.977504,10.390125 0.11826,0.30819 3.898171,2.93028 8.399801,5.82687 8.243027,5.304 9.15352,6.01794 10.163179,7.96924 0.60788,1.17482 5.19021,32.91544 5.187399,35.93181 -0.0019,2.0701 -1.296761,4.58541 -2.764978,5.37118 -1.861217,0.99609 -4.862386,1.02589 -6.62573,0.0658 l 4e-5,-1e-5 z M 96.073064,90.633613 c 0.08588,-0.193235 2.568512,-3.934959 5.516956,-8.314942 2.94845,-4.379984 5.65686,-8.806813 6.0187,-9.837397 0.36184,-1.030584 0.83348,-4.645172 1.04808,-8.032417 0.31069,-4.903998 0.68,-7.023676 1.81282,-10.404916 3.02293,-9.02283 6.85205,-14.435576 11.99265,-16.95248 3.35794,-1.64409 7.98696,-1.595795 11.27247,0.117605 9.42849,4.91699 9.45853,16.672792 0.0661,25.866903 -4.25282,4.163027 -9.39582,7.708139 -16.00793,11.034397 l -5.15051,2.590992 -5.15754,7.141795 -5.15754,7.141795 -3.205196,0 c -1.762862,0 -3.134935,-0.158101 -3.04905,-0.351335 l -1e-5,0 z m 23.343566,-21.98 c 0.33039,-0.326517 -1.50738,-1.603303 -2.04825,-1.423012 -0.24601,0.082 -0.77601,0.644158 -1.17776,1.249228 l -0.73046,1.10013 1.86149,-0.347799 c 1.02382,-0.191291 1.96655,-0.451635 2.09498,-0.578547 z m -4.69864,-3.203478 c 0.008,-0.260082 -0.40671,-0.736174 -0.922,-1.057979 -0.86671,-0.541272 -0.93689,-0.467834 -0.93689,0.980362 0,0.861002 0.13726,1.702718 0.30501,1.870478 0.33615,0.336144 1.53021,-1.04156 1.55388,-1.792861 z m 6.77448,-0.547188 c 0.17059,-0.444576 -0.011,-1.098463 -0.41833,-1.505726 -0.64755,-0.647545 -0.80226,-0.636311 -1.53967,0.111799 -0.781,0.792337 -0.77676,0.863574 0.0895,1.505726 1.17194,0.868708 1.49973,0.849094 1.86846,-0.111799 l 4e-5,0 z m 7.29384,-1.985032 c 0,-0.433951 -1.03737,-1.445156 -1.48255,-1.445156 -0.60724,0 -1.34046,1.765049 -1.04887,2.524913 0.24699,0.643642 0.3941,0.641553 1.40366,-0.01996 0.62027,-0.406411 1.12776,-0.883333 1.12776,-1.059815 l 0,1.8e-5 z m -11.69168,-2.124316 c -0.82102,-0.989277 -1.30274,-0.911978 -1.67763,0.269198 -0.40727,1.283167 0.6927,2.044089 1.61788,1.119201 0.54286,-0.542683 0.55365,-0.793297 0.0597,-1.388399 l 5e-5,0 z m 7.47565,-0.758355 c 0,-0.176858 -0.32678,-0.59276 -0.72618,-0.924233 -0.59936,-0.497431 -0.85977,-0.469089 -1.49114,0.162279 -0.70765,0.707651 -0.69835,0.838573 0.12421,1.747483 0.83927,0.927385 0.92294,0.936323 1.49114,0.159272 0.33108,-0.452787 0.60197,-0.967948 0.60197,-1.144801 z m 6.79249,-1.638559 c -1.3183,-1.067873 -1.44299,-1.087656 -2.01322,-0.319383 -0.52519,0.707585 -0.4304,0.960903 0.69678,1.862167 1.17498,0.939495 1.37507,0.971237 2.01321,0.319383 0.63428,-0.6479 0.56122,-0.843149 -0.69677,-1.862167 z m -11.47696,-0.437282 c 0.46611,-0.561636 0.4622,-0.848429 -0.0195,-1.428854 -0.53073,-0.639501 -0.68502,-0.643834 -1.29253,-0.0363 -0.69456,0.694562 -0.48858,2.167848 0.30309,2.167848 0.23418,0 0.68821,-0.316202 1.00895,-0.702671 l -10e-6,-2.3e-5 z m -4.01946,-4.208499 c -1.29832,-0.982363 -1.463,-0.894852 -1.81147,0.962631 -0.1726,0.920059 -0.44902,2.025159 -0.61427,2.455775 -0.16524,0.43062 0.51528,-0.0093 1.51226,-0.977533 1.74272,-1.692505 1.77799,-1.786747 0.91348,-2.440873 z m 11.25577,2.698402 c 0.46481,-1.211269 -1.10658,-2.243933 -2.02184,-1.328681 -0.56125,0.561257 -0.57577,0.813834 -0.0811,1.409924 0.79465,0.957502 1.71798,0.92183 2.1029,-0.08124 l 4e-5,-3e-6 z m 8.12477,-0.670849 c 0.0826,-0.428953 -0.4701,-1.204463 -1.25856,-1.765897 l -1.40585,-1.001054 -0.54837,1.024635 c -0.47075,0.879604 -0.39131,1.146385 0.56127,1.884841 1.29595,1.004646 2.44245,0.943022 2.65151,-0.142525 z m -12.5504,-2.035081 c 0.46612,-0.561636 0.4622,-0.848429 -0.0195,-1.428854 -0.53074,-0.639501 -0.68503,-0.643834 -1.29254,-0.0363 -0.69456,0.694563 -0.48858,2.167849 0.30309,2.167849 0.23419,0 0.68822,-0.316202 1.00896,-0.702671 l -1e-5,-2.4e-5 z m 7.04726,-1.209513 c 0.42432,-0.792852 0.36193,-1.092297 -0.33352,-1.60083 -1.58009,-1.155393 -2.77082,0.738798 -1.20948,1.924017 1.04274,0.791554 0.93425,0.814279 1.543,-0.323187 z m 7.47461,-1.316829 c 0,-1.835574 -1.9467,-2.693446 -2.54919,-1.123379 -0.20349,0.530292 0.0563,1.080259 0.76966,1.629152 1.48615,1.143556 1.77953,1.060172 1.77953,-0.505773 z m -18.81927,-1.921412 c -1.50036,-1.250446 -1.97021,-1.16523 -2.58714,0.469206 -0.29243,0.774733 -0.33902,1.289524 -0.10353,1.143982 0.23549,-0.145542 0.88762,0.05719 1.44916,0.45052 0.93657,0.65599 1.07519,0.637782 1.67612,-0.220175 0.58476,-0.834853 0.53808,-1.032866 -0.43461,-1.843533 z m 7.09106,0.252245 c 0.63751,-0.76816 0.28121,-1.660084 -0.66317,-1.660084 -0.71015,0 -1.3304,1.273451 -0.93324,1.916062 0.38062,0.615868 0.9484,0.524825 1.59641,-0.255978 z m 7.06429,-1.230031 c 0.42432,-0.792851 0.36193,-1.092299 -0.33353,-1.600831 -0.60181,-0.440051 -1.02952,-0.481112 -1.44237,-0.138472 -0.82929,0.688245 -0.72798,1.648963 0.23289,2.208622 1.05948,0.617086 0.94254,0.65265 1.54301,-0.469319 z m -10.81175,-1.335354 c 0.40418,-0.755228 0.2407,-1.078903 -0.98622,-1.952547 -1.41236,-1.005687 -1.49558,-1.01326 -2.09695,-0.190828 -0.55422,0.757937 -0.45539,0.982468 0.85948,1.952548 1.7848,1.316781 1.62829,1.30335 2.22369,0.190827 z m 7.02872,-2.440805 c 0.0376,-0.760858 -1.56006,-0.817021 -2.10342,-0.07391 -0.49128,0.671873 -0.46346,0.907669 0.16097,1.364268 0.60038,0.439007 0.87494,0.394265 1.34123,-0.218565 0.32248,-0.423815 0.59303,-0.906119 0.60122,-1.071789 z m 6.29494,-1.206269 c -0.70744,-1.121533 -1.43167,-1.234894 -1.79757,-0.281369 -0.3961,1.032214 1.06679,2.282546 1.80587,1.543473 0.33182,-0.331829 0.32923,-0.727018 -0.008,-1.262104 l -3e-4,0 z m -10.53946,-0.519474 c 0.3453,-0.645195 0.24489,-1.038325 -0.40801,-1.597349 -0.78501,-0.67215 -0.96349,-0.673261 -1.90774,-0.01188 l -1.04171,0.729641 1.11487,0.857288 c 1.40281,1.078709 1.67577,1.081423 2.24259,0.0223 z m 6.48451,-2.505624 c -1.00797,-0.640025 -1.75664,-0.421931 -1.75664,0.511724 0,1.182481 1.01828,1.529319 1.75664,0.598334 0.4684,-0.590594 0.4684,-0.81264 0,-1.110058 z"
     id="path6929"
     sodipodi:nodetypes="csssscccssscccccsssssscccccsscccssssssscccsssssssccccccccscccccsssccssscccssscccsscccssssccsssccssscccsssccssccccccsccssscccssccssccssssccssccsssccsssccsssccsscccscccccssc" />
  <path
     sodipodi:type="arc"
     style="fill:#000000;fill-opacity:1;stroke:none"
     id="path7283"
     sodipodi:cx="163.17276"
     sodipodi:cy="54.422585"
     sodipodi:rx="5.0772643"
     sodipodi:ry="5.0772643"
     d="m 168.25002,54.422585 a 5.0772643,5.0772643 0 1 1 -10.15452,0 5.0772643,5.0772643 0 1 1 10.15452,0 z"
     transform="matrix(1.2586207,0,0,1.2413793,-30.469619,-27.23027)" />
  <path
     style="fill:#f7de07;fill-opacity:1;stroke:none"
     d="m 172.51549,44.582818 c -1.73946,-1.001557 -2.84096,-3.139042 -2.60224,-5.049716 0.21423,-1.714632 1.88804,-3.72742 3.44623,-4.144175 0.83187,-0.222489 0.91927,-0.1 0.97062,1.360286 0.0415,1.179961 0.0519,1.216615 0.49943,1.762429 0.25137,0.306573 0.51599,0.712446 0.58804,0.901939 0.28898,0.760072 0.0394,1.746818 -0.51708,2.044251 -0.43953,0.234928 -0.59829,0.655325 -0.715,1.893306 -0.0555,0.589196 -0.1635,1.188073 -0.2399,1.330838 -0.19459,0.363588 -0.68555,0.329547 -1.4301,-0.09916 z"
     id="path7279" />
  <path
     style="fill:#f7de07;fill-opacity:1;stroke:none"
     d="m 175.46283,44.613049 c -0.26838,-0.409597 -0.27182,-1.451957 -0.006,-1.965066 0.10474,-0.202542 0.3863,-0.575935 0.62569,-0.829761 0.83798,-0.888515 0.81806,-2.435523 -0.047,-3.650082 -0.70658,-0.992057 -0.99428,-2.234496 -0.62145,-2.683735 0.23153,-0.278978 0.4604,-0.25108 1.31107,0.159815 3.27906,1.583869 4.03167,5.606896 1.51076,8.075662 -1.24111,1.215433 -2.33131,1.566634 -2.77258,0.893167 z"
     id="path7281" />
</svg>
