<?xml version="1.0" encoding="UTF-8" standalone="no"?>
<!-- Created with Inkscape (http://www.inkscape.org/) -->

<svg
   xmlns:dc="http://purl.org/dc/elements/1.1/"
   xmlns:cc="http://creativecommons.org/ns#"
   xmlns:rdf="http://www.w3.org/1999/02/22-rdf-syntax-ns#"
   xmlns:svg="http://www.w3.org/2000/svg"
   xmlns="http://www.w3.org/2000/svg"
   xmlns:sodipodi="http://sodipodi.sourceforge.net/DTD/sodipodi-0.dtd"
   xmlns:inkscape="http://www.inkscape.org/namespaces/inkscape"
   version="1.1"
   width="200"
   height="200"
   id="svg2"
   inkscape:version="0.47 r22583"
   sodipodi:docname="Italian traffic signs - icona grotte.svg"
   sodipodi:version="0.32"
   inkscape:output_extension="org.inkscape.output.svg.inkscape">
  <metadata
     id="metadata2877">
    <rdf:RDF>
      <cc:Work
         rdf:about="">
        <dc:format>image/svg+xml</dc:format>
        <dc:type
           rdf:resource="http://purl.org/dc/dcmitype/StillImage" />
        <dc:title />
      </cc:Work>
    </rdf:RDF>
  </metadata>
  <sodipodi:namedview
     pagecolor="#ffffff"
     bordercolor="#666666"
     borderopacity="1"
     objecttolerance="10"
     gridtolerance="10"
     guidetolerance="10"
     inkscape:pageopacity="0"
     inkscape:pageshadow="2"
     inkscape:window-width="1600"
     inkscape:window-height="838"
     id="namedview2875"
     showgrid="false"
     inkscape:zoom="2.3931339"
     inkscape:cx="120.24078"
     inkscape:cy="107.47361"
     inkscape:window-x="-8"
     inkscape:window-y="-8"
     inkscape:window-maximized="1"
     inkscape:current-layer="svg2" />
  <defs
     id="defs4">
    <inkscape:perspective
       sodipodi:type="inkscape:persp3d"
       inkscape:vp_x="0 : 100 : 1"
       inkscape:vp_y="0 : 1000 : 0"
       inkscape:vp_z="200 : 100 : 1"
       inkscape:persp3d-origin="100 : 66.666667 : 1"
       id="perspective2879" />
    <inkscape:perspective
       id="perspective2839"
       inkscape:persp3d-origin="0.5 : 0.33333333 : 1"
       inkscape:vp_z="1 : 0.5 : 1"
       inkscape:vp_y="0 : 1000 : 0"
       inkscape:vp_x="0 : 0.5 : 1"
       sodipodi:type="inkscape:persp3d" />
    <inkscape:perspective
       id="perspective3649"
       inkscape:persp3d-origin="0.5 : 0.33333333 : 1"
       inkscape:vp_z="1 : 0.5 : 1"
       inkscape:vp_y="0 : 1000 : 0"
       inkscape:vp_x="0 : 0.5 : 1"
       sodipodi:type="inkscape:persp3d" />
    <inkscape:perspective
       id="perspective3679"
       inkscape:persp3d-origin="0.5 : 0.33333333 : 1"
       inkscape:vp_z="1 : 0.5 : 1"
       inkscape:vp_y="0 : 1000 : 0"
       inkscape:vp_x="0 : 0.5 : 1"
       sodipodi:type="inkscape:persp3d" />
    <inkscape:perspective
       id="perspective3713"
       inkscape:persp3d-origin="0.5 : 0.33333333 : 1"
       inkscape:vp_z="1 : 0.5 : 1"
       inkscape:vp_y="0 : 1000 : 0"
       inkscape:vp_x="0 : 0.5 : 1"
       sodipodi:type="inkscape:persp3d" />
    <inkscape:perspective
       id="perspective3741"
       inkscape:persp3d-origin="0.5 : 0.33333333 : 1"
       inkscape:vp_z="1 : 0.5 : 1"
       inkscape:vp_y="0 : 1000 : 0"
       inkscape:vp_x="0 : 0.5 : 1"
       sodipodi:type="inkscape:persp3d" />
    <inkscape:perspective
       id="perspective3765"
       inkscape:persp3d-origin="0.5 : 0.33333333 : 1"
       inkscape:vp_z="1 : 0.5 : 1"
       inkscape:vp_y="0 : 1000 : 0"
       inkscape:vp_x="0 : 0.5 : 1"
       sodipodi:type="inkscape:persp3d" />
    <inkscape:perspective
       id="perspective3801"
       inkscape:persp3d-origin="0.5 : 0.33333333 : 1"
       inkscape:vp_z="1 : 0.5 : 1"
       inkscape:vp_y="0 : 1000 : 0"
       inkscape:vp_x="0 : 0.5 : 1"
       sodipodi:type="inkscape:persp3d" />
    <inkscape:perspective
       id="perspective2863"
       inkscape:persp3d-origin="0.5 : 0.33333333 : 1"
       inkscape:vp_z="1 : 0.5 : 1"
       inkscape:vp_y="0 : 1000 : 0"
       inkscape:vp_x="0 : 0.5 : 1"
       sodipodi:type="inkscape:persp3d" />
    <inkscape:perspective
       id="perspective3859"
       inkscape:persp3d-origin="0.5 : 0.33333333 : 1"
       inkscape:vp_z="1 : 0.5 : 1"
       inkscape:vp_y="0 : 1000 : 0"
       inkscape:vp_x="0 : 0.5 : 1"
       sodipodi:type="inkscape:persp3d" />
    <inkscape:perspective
       id="perspective3964"
       inkscape:persp3d-origin="0.5 : 0.33333333 : 1"
       inkscape:vp_z="1 : 0.5 : 1"
       inkscape:vp_y="0 : 1000 : 0"
       inkscape:vp_x="0 : 0.5 : 1"
       sodipodi:type="inkscape:persp3d" />
    <inkscape:perspective
       id="perspective3988"
       inkscape:persp3d-origin="0.5 : 0.33333333 : 1"
       inkscape:vp_z="1 : 0.5 : 1"
       inkscape:vp_y="0 : 1000 : 0"
       inkscape:vp_x="0 : 0.5 : 1"
       sodipodi:type="inkscape:persp3d" />
    <inkscape:perspective
       id="perspective2879-7"
       inkscape:persp3d-origin="0.5 : 0.33333333 : 1"
       inkscape:vp_z="1 : 0.5 : 1"
       inkscape:vp_y="0 : 1000 : 0"
       inkscape:vp_x="0 : 0.5 : 1"
       sodipodi:type="inkscape:persp3d" />
    <inkscape:perspective
       id="perspective4031"
       inkscape:persp3d-origin="0.5 : 0.33333333 : 1"
       inkscape:vp_z="1 : 0.5 : 1"
       inkscape:vp_y="0 : 1000 : 0"
       inkscape:vp_x="0 : 0.5 : 1"
       sodipodi:type="inkscape:persp3d" />
    <inkscape:perspective
       id="perspective4047"
       inkscape:persp3d-origin="0.5 : 0.33333333 : 1"
       inkscape:vp_z="1 : 0.5 : 1"
       inkscape:vp_y="0 : 1000 : 0"
       inkscape:vp_x="0 : 0.5 : 1"
       sodipodi:type="inkscape:persp3d" />
    <inkscape:perspective
       id="perspective4063"
       inkscape:persp3d-origin="0.5 : 0.33333333 : 1"
       inkscape:vp_z="1 : 0.5 : 1"
       inkscape:vp_y="0 : 1000 : 0"
       inkscape:vp_x="0 : 0.5 : 1"
       sodipodi:type="inkscape:persp3d" />
    <inkscape:perspective
       id="perspective4079"
       inkscape:persp3d-origin="0.5 : 0.33333333 : 1"
       inkscape:vp_z="1 : 0.5 : 1"
       inkscape:vp_y="0 : 1000 : 0"
       inkscape:vp_x="0 : 0.5 : 1"
       sodipodi:type="inkscape:persp3d" />
    <inkscape:perspective
       id="perspective4097"
       inkscape:persp3d-origin="0.5 : 0.33333333 : 1"
       inkscape:vp_z="1 : 0.5 : 1"
       inkscape:vp_y="0 : 1000 : 0"
       inkscape:vp_x="0 : 0.5 : 1"
       sodipodi:type="inkscape:persp3d" />
    <inkscape:perspective
       id="perspective4115"
       inkscape:persp3d-origin="0.5 : 0.33333333 : 1"
       inkscape:vp_z="1 : 0.5 : 1"
       inkscape:vp_y="0 : 1000 : 0"
       inkscape:vp_x="0 : 0.5 : 1"
       sodipodi:type="inkscape:persp3d" />
    <inkscape:perspective
       id="perspective4129"
       inkscape:persp3d-origin="0.5 : 0.33333333 : 1"
       inkscape:vp_z="1 : 0.5 : 1"
       inkscape:vp_y="0 : 1000 : 0"
       inkscape:vp_x="0 : 0.5 : 1"
       sodipodi:type="inkscape:persp3d" />
    <inkscape:perspective
       id="perspective4153"
       inkscape:persp3d-origin="0.5 : 0.33333333 : 1"
       inkscape:vp_z="1 : 0.5 : 1"
       inkscape:vp_y="0 : 1000 : 0"
       inkscape:vp_x="0 : 0.5 : 1"
       sodipodi:type="inkscape:persp3d" />
    <inkscape:perspective
       id="perspective4179"
       inkscape:persp3d-origin="0.5 : 0.33333333 : 1"
       inkscape:vp_z="1 : 0.5 : 1"
       inkscape:vp_y="0 : 1000 : 0"
       inkscape:vp_x="0 : 0.5 : 1"
       sodipodi:type="inkscape:persp3d" />
    <inkscape:perspective
       id="perspective4195"
       inkscape:persp3d-origin="0.5 : 0.33333333 : 1"
       inkscape:vp_z="1 : 0.5 : 1"
       inkscape:vp_y="0 : 1000 : 0"
       inkscape:vp_x="0 : 0.5 : 1"
       sodipodi:type="inkscape:persp3d" />
    <inkscape:perspective
       id="perspective4213"
       inkscape:persp3d-origin="0.5 : 0.33333333 : 1"
       inkscape:vp_z="1 : 0.5 : 1"
       inkscape:vp_y="0 : 1000 : 0"
       inkscape:vp_x="0 : 0.5 : 1"
       sodipodi:type="inkscape:persp3d" />
    <inkscape:perspective
       id="perspective4267"
       inkscape:persp3d-origin="0.5 : 0.33333333 : 1"
       inkscape:vp_z="1 : 0.5 : 1"
       inkscape:vp_y="0 : 1000 : 0"
       inkscape:vp_x="0 : 0.5 : 1"
       sodipodi:type="inkscape:persp3d" />
    <inkscape:perspective
       id="perspective4283"
       inkscape:persp3d-origin="0.5 : 0.33333333 : 1"
       inkscape:vp_z="1 : 0.5 : 1"
       inkscape:vp_y="0 : 1000 : 0"
       inkscape:vp_x="0 : 0.5 : 1"
       sodipodi:type="inkscape:persp3d" />
    <inkscape:perspective
       id="perspective4314"
       inkscape:persp3d-origin="0.5 : 0.33333333 : 1"
       inkscape:vp_z="1 : 0.5 : 1"
       inkscape:vp_y="0 : 1000 : 0"
       inkscape:vp_x="0 : 0.5 : 1"
       sodipodi:type="inkscape:persp3d" />
    <inkscape:perspective
       id="perspective4330"
       inkscape:persp3d-origin="0.5 : 0.33333333 : 1"
       inkscape:vp_z="1 : 0.5 : 1"
       inkscape:vp_y="0 : 1000 : 0"
       inkscape:vp_x="0 : 0.5 : 1"
       sodipodi:type="inkscape:persp3d" />
    <inkscape:perspective
       id="perspective4346"
       inkscape:persp3d-origin="0.5 : 0.33333333 : 1"
       inkscape:vp_z="1 : 0.5 : 1"
       inkscape:vp_y="0 : 1000 : 0"
       inkscape:vp_x="0 : 0.5 : 1"
       sodipodi:type="inkscape:persp3d" />
    <inkscape:perspective
       id="perspective3742"
       inkscape:persp3d-origin="0.5 : 0.33333333 : 1"
       inkscape:vp_z="1 : 0.5 : 1"
       inkscape:vp_y="0 : 1000 : 0"
       inkscape:vp_x="0 : 0.5 : 1"
       sodipodi:type="inkscape:persp3d" />
    <inkscape:perspective
       id="perspective3776"
       inkscape:persp3d-origin="0.5 : 0.33333333 : 1"
       inkscape:vp_z="1 : 0.5 : 1"
       inkscape:vp_y="0 : 1000 : 0"
       inkscape:vp_x="0 : 0.5 : 1"
       sodipodi:type="inkscape:persp3d" />
    <inkscape:perspective
       id="perspective3792"
       inkscape:persp3d-origin="0.5 : 0.33333333 : 1"
       inkscape:vp_z="1 : 0.5 : 1"
       inkscape:vp_y="0 : 1000 : 0"
       inkscape:vp_x="0 : 0.5 : 1"
       sodipodi:type="inkscape:persp3d" />
    <inkscape:perspective
       id="perspective3808"
       inkscape:persp3d-origin="0.5 : 0.33333333 : 1"
       inkscape:vp_z="1 : 0.5 : 1"
       inkscape:vp_y="0 : 1000 : 0"
       inkscape:vp_x="0 : 0.5 : 1"
       sodipodi:type="inkscape:persp3d" />
    <inkscape:perspective
       id="perspective3824"
       inkscape:persp3d-origin="0.5 : 0.33333333 : 1"
       inkscape:vp_z="1 : 0.5 : 1"
       inkscape:vp_y="0 : 1000 : 0"
       inkscape:vp_x="0 : 0.5 : 1"
       sodipodi:type="inkscape:persp3d" />
    <inkscape:perspective
       id="perspective4354"
       inkscape:persp3d-origin="0.5 : 0.33333333 : 1"
       inkscape:vp_z="1 : 0.5 : 1"
       inkscape:vp_y="0 : 1000 : 0"
       inkscape:vp_x="0 : 0.5 : 1"
       sodipodi:type="inkscape:persp3d" />
    <inkscape:perspective
       id="perspective4395"
       inkscape:persp3d-origin="0.5 : 0.33333333 : 1"
       inkscape:vp_z="1 : 0.5 : 1"
       inkscape:vp_y="0 : 1000 : 0"
       inkscape:vp_x="0 : 0.5 : 1"
       sodipodi:type="inkscape:persp3d" />
    <inkscape:perspective
       id="perspective4435"
       inkscape:persp3d-origin="0.5 : 0.33333333 : 1"
       inkscape:vp_z="1 : 0.5 : 1"
       inkscape:vp_y="0 : 1000 : 0"
       inkscape:vp_x="0 : 0.5 : 1"
       sodipodi:type="inkscape:persp3d" />
    <inkscape:perspective
       id="perspective4460"
       inkscape:persp3d-origin="0.5 : 0.33333333 : 1"
       inkscape:vp_z="1 : 0.5 : 1"
       inkscape:vp_y="0 : 1000 : 0"
       inkscape:vp_x="0 : 0.5 : 1"
       sodipodi:type="inkscape:persp3d" />
    <inkscape:perspective
       id="perspective4479"
       inkscape:persp3d-origin="0.5 : 0.33333333 : 1"
       inkscape:vp_z="1 : 0.5 : 1"
       inkscape:vp_y="0 : 1000 : 0"
       inkscape:vp_x="0 : 0.5 : 1"
       sodipodi:type="inkscape:persp3d" />
    <inkscape:perspective
       id="perspective4495"
       inkscape:persp3d-origin="0.5 : 0.33333333 : 1"
       inkscape:vp_z="1 : 0.5 : 1"
       inkscape:vp_y="0 : 1000 : 0"
       inkscape:vp_x="0 : 0.5 : 1"
       sodipodi:type="inkscape:persp3d" />
    <inkscape:perspective
       id="perspective4511"
       inkscape:persp3d-origin="0.5 : 0.33333333 : 1"
       inkscape:vp_z="1 : 0.5 : 1"
       inkscape:vp_y="0 : 1000 : 0"
       inkscape:vp_x="0 : 0.5 : 1"
       sodipodi:type="inkscape:persp3d" />
    <inkscape:perspective
       id="perspective4527"
       inkscape:persp3d-origin="0.5 : 0.33333333 : 1"
       inkscape:vp_z="1 : 0.5 : 1"
       inkscape:vp_y="0 : 1000 : 0"
       inkscape:vp_x="0 : 0.5 : 1"
       sodipodi:type="inkscape:persp3d" />
    <inkscape:perspective
       id="perspective4543"
       inkscape:persp3d-origin="0.5 : 0.33333333 : 1"
       inkscape:vp_z="1 : 0.5 : 1"
       inkscape:vp_y="0 : 1000 : 0"
       inkscape:vp_x="0 : 0.5 : 1"
       sodipodi:type="inkscape:persp3d" />
    <inkscape:perspective
       id="perspective4559"
       inkscape:persp3d-origin="0.5 : 0.33333333 : 1"
       inkscape:vp_z="1 : 0.5 : 1"
       inkscape:vp_y="0 : 1000 : 0"
       inkscape:vp_x="0 : 0.5 : 1"
       sodipodi:type="inkscape:persp3d" />
    <inkscape:perspective
       id="perspective4575"
       inkscape:persp3d-origin="0.5 : 0.33333333 : 1"
       inkscape:vp_z="1 : 0.5 : 1"
       inkscape:vp_y="0 : 1000 : 0"
       inkscape:vp_x="0 : 0.5 : 1"
       sodipodi:type="inkscape:persp3d" />
    <inkscape:perspective
       id="perspective4591"
       inkscape:persp3d-origin="0.5 : 0.33333333 : 1"
       inkscape:vp_z="1 : 0.5 : 1"
       inkscape:vp_y="0 : 1000 : 0"
       inkscape:vp_x="0 : 0.5 : 1"
       sodipodi:type="inkscape:persp3d" />
    <inkscape:perspective
       id="perspective4607"
       inkscape:persp3d-origin="0.5 : 0.33333333 : 1"
       inkscape:vp_z="1 : 0.5 : 1"
       inkscape:vp_y="0 : 1000 : 0"
       inkscape:vp_x="0 : 0.5 : 1"
       sodipodi:type="inkscape:persp3d" />
    <inkscape:perspective
       id="perspective4629"
       inkscape:persp3d-origin="0.5 : 0.33333333 : 1"
       inkscape:vp_z="1 : 0.5 : 1"
       inkscape:vp_y="0 : 1000 : 0"
       inkscape:vp_x="0 : 0.5 : 1"
       sodipodi:type="inkscape:persp3d" />
    <inkscape:perspective
       id="perspective4674"
       inkscape:persp3d-origin="0.5 : 0.33333333 : 1"
       inkscape:vp_z="1 : 0.5 : 1"
       inkscape:vp_y="0 : 1000 : 0"
       inkscape:vp_x="0 : 0.5 : 1"
       sodipodi:type="inkscape:persp3d" />
    <inkscape:perspective
       id="perspective4690"
       inkscape:persp3d-origin="0.5 : 0.33333333 : 1"
       inkscape:vp_z="1 : 0.5 : 1"
       inkscape:vp_y="0 : 1000 : 0"
       inkscape:vp_x="0 : 0.5 : 1"
       sodipodi:type="inkscape:persp3d" />
    <inkscape:perspective
       id="perspective4735"
       inkscape:persp3d-origin="0.5 : 0.33333333 : 1"
       inkscape:vp_z="1 : 0.5 : 1"
       inkscape:vp_y="0 : 1000 : 0"
       inkscape:vp_x="0 : 0.5 : 1"
       sodipodi:type="inkscape:persp3d" />
    <inkscape:perspective
       id="perspective4751"
       inkscape:persp3d-origin="0.5 : 0.33333333 : 1"
       inkscape:vp_z="1 : 0.5 : 1"
       inkscape:vp_y="0 : 1000 : 0"
       inkscape:vp_x="0 : 0.5 : 1"
       sodipodi:type="inkscape:persp3d" />
    <inkscape:perspective
       id="perspective4767"
       inkscape:persp3d-origin="0.5 : 0.33333333 : 1"
       inkscape:vp_z="1 : 0.5 : 1"
       inkscape:vp_y="0 : 1000 : 0"
       inkscape:vp_x="0 : 0.5 : 1"
       sodipodi:type="inkscape:persp3d" />
    <inkscape:perspective
       id="perspective4787"
       inkscape:persp3d-origin="0.5 : 0.33333333 : 1"
       inkscape:vp_z="1 : 0.5 : 1"
       inkscape:vp_y="0 : 1000 : 0"
       inkscape:vp_x="0 : 0.5 : 1"
       sodipodi:type="inkscape:persp3d" />
    <inkscape:perspective
       id="perspective4813"
       inkscape:persp3d-origin="0.5 : 0.33333333 : 1"
       inkscape:vp_z="1 : 0.5 : 1"
       inkscape:vp_y="0 : 1000 : 0"
       inkscape:vp_x="0 : 0.5 : 1"
       sodipodi:type="inkscape:persp3d" />
    <inkscape:perspective
       id="perspective4905"
       inkscape:persp3d-origin="0.5 : 0.33333333 : 1"
       inkscape:vp_z="1 : 0.5 : 1"
       inkscape:vp_y="0 : 1000 : 0"
       inkscape:vp_x="0 : 0.5 : 1"
       sodipodi:type="inkscape:persp3d" />
    <inkscape:perspective
       id="perspective2877"
       inkscape:persp3d-origin="0.5 : 0.33333333 : 1"
       inkscape:vp_z="1 : 0.5 : 1"
       inkscape:vp_y="0 : 1000 : 0"
       inkscape:vp_x="0 : 0.5 : 1"
       sodipodi:type="inkscape:persp3d" />
    <inkscape:perspective
       id="perspective2893"
       inkscape:persp3d-origin="0.5 : 0.33333333 : 1"
       inkscape:vp_z="1 : 0.5 : 1"
       inkscape:vp_y="0 : 1000 : 0"
       inkscape:vp_x="0 : 0.5 : 1"
       sodipodi:type="inkscape:persp3d" />
    <inkscape:perspective
       id="perspective3693"
       inkscape:persp3d-origin="0.5 : 0.33333333 : 1"
       inkscape:vp_z="1 : 0.5 : 1"
       inkscape:vp_y="0 : 1000 : 0"
       inkscape:vp_x="0 : 0.5 : 1"
       sodipodi:type="inkscape:persp3d" />
    <inkscape:perspective
       id="perspective3709"
       inkscape:persp3d-origin="0.5 : 0.33333333 : 1"
       inkscape:vp_z="1 : 0.5 : 1"
       inkscape:vp_y="0 : 1000 : 0"
       inkscape:vp_x="0 : 0.5 : 1"
       sodipodi:type="inkscape:persp3d" />
    <inkscape:perspective
       id="perspective3725"
       inkscape:persp3d-origin="0.5 : 0.33333333 : 1"
       inkscape:vp_z="1 : 0.5 : 1"
       inkscape:vp_y="0 : 1000 : 0"
       inkscape:vp_x="0 : 0.5 : 1"
       sodipodi:type="inkscape:persp3d" />
    <inkscape:perspective
       id="perspective4112"
       inkscape:persp3d-origin="0.5 : 0.33333333 : 1"
       inkscape:vp_z="1 : 0.5 : 1"
       inkscape:vp_y="0 : 1000 : 0"
       inkscape:vp_x="0 : 0.5 : 1"
       sodipodi:type="inkscape:persp3d" />
  </defs>
  <path
     style="fill:#ffffff;fill-opacity:1;stroke:none"
     d="m -3.6769741,-5.1095292 207.7153841,0 0,207.3483892 -207.7153841,0 0,-207.3483892 z"
     id="rect2881" />
  <path
     style="fill:#000000"
     d="m 78.397195,181.5743 c -0.638157,-0.1479 -6.582316,-1.56695 -13.209246,-3.15343 -6.626925,-1.58649 -14.91185,-3.26067 -18.410942,-3.72041 -11.476907,-1.50792 -15.395404,-2.90596 -17.404436,-6.20955 -0.614509,-1.01048 -1.668292,-4.25595 -2.341741,-7.21217 -0.673449,-2.9562 -1.82253,-6.25624 -2.553513,-7.3334 -0.730983,-1.07716 -2.313734,-4.93517 -3.517224,-8.57334 -1.203489,-3.63818 -2.935226,-8.51438 -3.848302,-10.83601 l -1.66014,-4.22114 -0.01777,-17.53423 c -0.0098,-9.64383 -0.267534,-20.79754 -0.572802,-24.786025 -0.493741,-6.450991 -0.415182,-8.034538 0.711411,-14.340099 1.130221,-6.325877 1.186631,-7.480304 0.524435,-10.732651 -1.276142,-6.267723 -1.372851,-11.163679 -0.349433,-17.69018 0.804536,-5.130651 1.586794,-7.577191 4.544037,-14.211624 l 3.572198,-8.014059 3.48086,-1.721608 c 1.914473,-0.946883 5.020579,-2.114614 6.902457,-2.594957 5.429066,-1.385749 15.437036,-2.217745 21.932441,-1.823316 3.285534,0.199512 8.323279,0.505834 11.194988,0.680715 3.663031,0.223072 6.519836,0.04071 9.572364,-0.611038 5.185141,-1.107087 20.278937,-2.421161 33.938383,-2.954693 10.94411,-0.427473 20.28672,0.271485 28.03772,2.097614 6.07303,1.430801 12.58597,1.436121 24.71836,0.02019 6.57388,-0.767215 9.61967,-0.908431 10.54084,-0.48872 3.02494,1.378255 7.43789,10.042441 9.23953,18.140473 0.87486,3.932345 0.91717,5.425627 0.34298,12.10555 -1.77824,20.687341 -0.11606,48.152625 4.42857,73.176068 1.47308,8.11102 1.57634,9.72994 1.52022,23.83254 -0.0726,18.24227 -0.31201,19.32523 -5.49788,24.86894 -3.79324,4.05498 -10.74165,9.10149 -13.86565,10.07037 -1.79326,0.55616 -53.18912,2.42245 -65.84627,2.39101 -2.55263,-0.006 -7.315337,0.39217 -10.583795,0.88558 -5.627488,0.84953 -12.978367,1.08328 -15.52265,0.4936 z m 83.867025,-17.6351 c 5.10126,-2.65397 9.41351,-6.16728 10.75586,-8.7631 3.00312,-5.8074 4.12454,-39.91856 2.28492,-69.502079 -1.02537,-16.489239 -4.41507,-53.483121 -4.95909,-54.121586 -0.21479,-0.252081 -1.74962,0.456268 -3.41073,1.574109 -1.6611,1.117842 -3.92358,2.201916 -5.02772,2.409054 -1.9895,0.373233 -7.79242,0.04884 -12.03411,-0.672724 -2.02819,-0.345021 -2.37893,-0.188654 -4.44247,1.980584 -3.43177,3.607537 -6.40871,13.091455 -6.40871,20.416809 0,4.958085 -1.82216,7.296845 -4.54832,5.837843 -0.98079,-0.524902 -1.15664,-1.533528 -1.49744,-8.589253 -0.71562,-14.815833 -2.78429,-23.929637 -6.1656,-27.163304 -1.6867,-1.613062 -2.0715,-1.714686 -6.39343,-1.688474 -2.52929,0.01534 -4.84812,0.277305 -5.15296,0.582143 -0.65629,0.656283 -2.34071,12.937602 -2.36715,17.259086 -0.0257,4.202466 -1.66874,6.033139 -4.47766,4.989004 -1.10542,-0.410908 -1.30532,-0.912429 -1.30532,-3.274812 0,-6.857407 -2.1419,-18.422859 -3.59473,-19.410154 -1.34161,-0.911724 -7.308397,-0.198289 -9.031185,1.079839 -2.218955,1.646231 -4.007914,7.010381 -5.161987,15.47808 -1.006073,7.381817 -1.753512,9.085301 -3.98635,9.085301 -2.053046,0 -2.547868,-1.179159 -3.188404,-7.597903 -0.331256,-3.319505 -0.978278,-7.357189 -1.437821,-8.97263 -0.867158,-3.048333 -2.993969,-6.677514 -4.131804,-7.050502 -0.709051,-0.232431 -2.638689,6.313321 -3.713886,12.598312 -0.354804,2.074012 -0.788954,9.51435 -0.964772,16.534084 -0.178261,7.117129 -0.576355,13.083949 -0.899918,13.488332 -0.750062,0.937413 -3.608404,0.937413 -4.352885,0 C 66.333216,70.045692 65.919452,63.859066 65.729043,56.666856 65.400658,44.262789 64.961972,39.367161 63.558669,32.445872 l -0.617534,-3.045752 -3.584762,0.0076 c -4.253653,0.009 -14.009447,1.919144 -15.329056,3.001297 -0.511072,0.419105 -2.283932,2.850527 -3.939689,5.403158 -3.275218,5.049306 -5.484475,7.498632 -7.881902,8.73839 -2.047605,1.058857 -2.830636,3.539075 -2.830636,8.965917 0,4.179401 -0.176821,4.82148 -2.652221,9.630828 l -2.65222,5.152891 0.263038,17.694371 c 0.240336,16.167168 0.949939,25.052898 2.097884,26.269958 0.497253,0.52718 2.129238,-8.33872 2.699835,-14.667092 0.215773,-2.393091 0.651903,-4.677405 0.969178,-5.076254 0.864467,-1.08673 3.785624,-0.894564 4.409493,0.290072 0.294065,0.558388 0.715379,5.844944 0.936254,11.747904 0.220874,5.90296 0.659764,11.77691 0.975309,13.05323 0.315546,1.27631 1.840906,4.53962 3.389689,7.25179 1.548783,2.71217 2.98758,5.61839 3.197327,6.45828 0.209747,0.83988 1.123634,2.40627 2.030861,3.48086 l 1.649504,1.95379 1.502368,-3.3678 c 2.058061,-4.61348 3.748944,-10.9346 4.193153,-15.6755 0.469423,-5.01001 1.648921,-6.72145 4.051523,-5.87875 l 1.656117,0.58088 0.372826,7.81951 c 0.918628,19.26695 4.15449,35.79384 7.772588,39.69783 1.995885,2.1536 6.029412,2.64431 21.325412,2.59441 7.721956,-0.0252 13.708092,-0.17931 13.302532,-0.34248 -1.043351,-0.41979 -2.411659,-3.26307 -2.508926,-5.21343 -0.05308,-1.06377 3.549596,-9.24472 10.139126,-23.02407 5.62178,-11.7557 10.21785,-21.80669 10.2135,-22.33552 -0.0118,-1.43943 -0.65689,-3.57416 -1.075,-3.55772 -0.20209,0.008 -1.67277,1.76284 -3.26816,3.89976 -5.33522,7.14618 -6.55461,8.2688 -8.98149,8.2688 -4.00443,0 -6.860831,-3.9004 -5.17959,-7.07273 0.39039,-0.73664 5.25052,-7.23445 10.80027,-14.43956 9.97216,-12.946624 10.13696,-13.12271 14.05552,-15.018392 2.72957,-1.320475 4.4112,-1.806195 5.39685,-1.55881 0.89774,0.225322 5.03412,4.467881 11.08967,11.374365 l 9.65787,11.015007 0,6.42607 c 0,6.04922 -0.0835,6.50958 -1.42399,7.85006 -1.93158,1.93159 -5.61648,1.97813 -7.49989,0.0947 -1.1125,-1.1125 -1.38866,-2.17087 -1.69346,-6.48991 -0.28756,-4.07476 -0.60928,-5.4057 -1.52896,-6.32539 -0.64062,-0.64062 -1.30256,-1.02698 -1.47097,-0.85856 -0.16841,0.16841 -0.59419,1.74021 -0.94619,3.4929 l -0.63997,3.18669 7.66834,22.1352 c 8.45025,24.3922 8.52511,24.79388 5.15028,27.63362 -0.98359,0.82762 -2.58039,1.52391 -3.60618,1.57246 -3.16527,0.14981 2.7668,0.88714 7.9329,0.98602 4.27856,0.0819 4.82729,-0.0558 9.11713,-2.28761 l 0,4e-5 z m -20.2013,0.44563 c -0.72067,-0.40024 -1.6516,-1.23944 -2.06873,-1.8649 -0.41713,-0.62547 -3.48183,-8.64281 -6.81044,-17.81633 -3.32862,-9.17351 -6.18313,-16.6608 -6.34335,-16.6384 -0.16022,0.0224 -3.81568,7.24371 -8.12325,16.04738 -4.30756,8.80367 -8.41146,16.87834 -9.11977,17.94373 l -1.28784,1.93706 12.89071,0.0508 c 7.08988,0.028 14.19602,0.25413 15.79142,0.50262 1.59539,0.2485 3.68391,0.47744 4.64114,0.50877 1.69885,0.0556 1.70913,0.0396 0.43011,-0.67075 l 0,2e-5 z"
     id="path3731"
     sodipodi:nodetypes="csssssscccsssscccssssssssssssssssccsssssssssssssssssssssssssssscccsssscccsssssssscccscccssssssssssssscccssssscccssscccsssscccsscc" />
  <path
     sodipodi:type="arc"
     style="fill:#000000;fill-opacity:1;stroke:none"
     id="path3733"
     sodipodi:cx="107.46116"
     sodipodi:cy="80.38401"
     sodipodi:rx="7.2305655"
     sodipodi:ry="7.2928977"
     d="m 114.69172,80.38401 a 7.2305655,7.2928977 0 1 1 -14.46113,0 7.2305655,7.2928977 0 1 1 14.46113,0 z"
     transform="matrix(1.0258621,0,0,1.0258621,11.619631,-4.8854695)" />
  <path
     style="fill:none;stroke:#000000;stroke-width:2.99693632;stroke-miterlimit:4;stroke-opacity:1"
     d="m 22.303611,2.4041876 156.802319,0 c 10.23854,0 18.48111,8.3144244 18.48111,18.6422014 l 0,158.169131 c 0,10.32778 -8.24257,18.6422 -18.48111,18.6422 l -156.802319,0 c -10.23853,0 -18.4811102,-8.31442 -18.4811102,-18.6422 l 0,-158.169131 c 0,-10.327777 8.2425802,-18.6422014 18.4811102,-18.6422014 z"
     id="rect4614-4" />
</svg>
