<?xml version="1.0" encoding="UTF-8" standalone="no"?>
<!-- Created with Inkscape (http://www.inkscape.org/) -->

<svg
   xmlns:dc="http://purl.org/dc/elements/1.1/"
   xmlns:cc="http://creativecommons.org/ns#"
   xmlns:rdf="http://www.w3.org/1999/02/22-rdf-syntax-ns#"
   xmlns:svg="http://www.w3.org/2000/svg"
   xmlns="http://www.w3.org/2000/svg"
   xmlns:sodipodi="http://sodipodi.sourceforge.net/DTD/sodipodi-0.dtd"
   xmlns:inkscape="http://www.inkscape.org/namespaces/inkscape"
   version="1.1"
   width="200"
   height="200"
   id="svg2"
   inkscape:version="0.47 r22583"
   sodipodi:docname="Italian traffic signs - icona macchina operatrice.svg"
   sodipodi:version="0.32"
   inkscape:output_extension="org.inkscape.output.svg.inkscape">
  <metadata
     id="metadata2877">
    <rdf:RDF>
      <cc:Work
         rdf:about="">
        <dc:format>image/svg+xml</dc:format>
        <dc:type
           rdf:resource="http://purl.org/dc/dcmitype/StillImage" />
        <dc:title></dc:title>
      </cc:Work>
    </rdf:RDF>
  </metadata>
  <sodipodi:namedview
     pagecolor="#ffffff"
     bordercolor="#666666"
     borderopacity="1"
     objecttolerance="10"
     gridtolerance="10"
     guidetolerance="10"
     inkscape:pageopacity="0"
     inkscape:pageshadow="2"
     inkscape:window-width="1600"
     inkscape:window-height="838"
     id="namedview2875"
     showgrid="false"
     inkscape:zoom="2.3765092"
     inkscape:cx="100.79986"
     inkscape:cy="78.656668"
     inkscape:window-x="-8"
     inkscape:window-y="-8"
     inkscape:window-maximized="1"
     inkscape:current-layer="svg2" />
  <defs
     id="defs4">
    <inkscape:perspective
       sodipodi:type="inkscape:persp3d"
       inkscape:vp_x="0 : 100 : 1"
       inkscape:vp_y="0 : 1000 : 0"
       inkscape:vp_z="200 : 100 : 1"
       inkscape:persp3d-origin="100 : 66.666667 : 1"
       id="perspective2879" />
    <inkscape:perspective
       id="perspective2839"
       inkscape:persp3d-origin="0.5 : 0.33333333 : 1"
       inkscape:vp_z="1 : 0.5 : 1"
       inkscape:vp_y="0 : 1000 : 0"
       inkscape:vp_x="0 : 0.5 : 1"
       sodipodi:type="inkscape:persp3d" />
    <inkscape:perspective
       id="perspective3649"
       inkscape:persp3d-origin="0.5 : 0.33333333 : 1"
       inkscape:vp_z="1 : 0.5 : 1"
       inkscape:vp_y="0 : 1000 : 0"
       inkscape:vp_x="0 : 0.5 : 1"
       sodipodi:type="inkscape:persp3d" />
    <inkscape:perspective
       id="perspective3679"
       inkscape:persp3d-origin="0.5 : 0.33333333 : 1"
       inkscape:vp_z="1 : 0.5 : 1"
       inkscape:vp_y="0 : 1000 : 0"
       inkscape:vp_x="0 : 0.5 : 1"
       sodipodi:type="inkscape:persp3d" />
    <inkscape:perspective
       id="perspective3713"
       inkscape:persp3d-origin="0.5 : 0.33333333 : 1"
       inkscape:vp_z="1 : 0.5 : 1"
       inkscape:vp_y="0 : 1000 : 0"
       inkscape:vp_x="0 : 0.5 : 1"
       sodipodi:type="inkscape:persp3d" />
    <inkscape:perspective
       id="perspective3741"
       inkscape:persp3d-origin="0.5 : 0.33333333 : 1"
       inkscape:vp_z="1 : 0.5 : 1"
       inkscape:vp_y="0 : 1000 : 0"
       inkscape:vp_x="0 : 0.5 : 1"
       sodipodi:type="inkscape:persp3d" />
    <inkscape:perspective
       id="perspective3765"
       inkscape:persp3d-origin="0.5 : 0.33333333 : 1"
       inkscape:vp_z="1 : 0.5 : 1"
       inkscape:vp_y="0 : 1000 : 0"
       inkscape:vp_x="0 : 0.5 : 1"
       sodipodi:type="inkscape:persp3d" />
    <inkscape:perspective
       id="perspective3801"
       inkscape:persp3d-origin="0.5 : 0.33333333 : 1"
       inkscape:vp_z="1 : 0.5 : 1"
       inkscape:vp_y="0 : 1000 : 0"
       inkscape:vp_x="0 : 0.5 : 1"
       sodipodi:type="inkscape:persp3d" />
    <inkscape:perspective
       id="perspective2863"
       inkscape:persp3d-origin="0.5 : 0.33333333 : 1"
       inkscape:vp_z="1 : 0.5 : 1"
       inkscape:vp_y="0 : 1000 : 0"
       inkscape:vp_x="0 : 0.5 : 1"
       sodipodi:type="inkscape:persp3d" />
    <inkscape:perspective
       id="perspective3859"
       inkscape:persp3d-origin="0.5 : 0.33333333 : 1"
       inkscape:vp_z="1 : 0.5 : 1"
       inkscape:vp_y="0 : 1000 : 0"
       inkscape:vp_x="0 : 0.5 : 1"
       sodipodi:type="inkscape:persp3d" />
    <inkscape:perspective
       id="perspective3964"
       inkscape:persp3d-origin="0.5 : 0.33333333 : 1"
       inkscape:vp_z="1 : 0.5 : 1"
       inkscape:vp_y="0 : 1000 : 0"
       inkscape:vp_x="0 : 0.5 : 1"
       sodipodi:type="inkscape:persp3d" />
    <inkscape:perspective
       id="perspective3988"
       inkscape:persp3d-origin="0.5 : 0.33333333 : 1"
       inkscape:vp_z="1 : 0.5 : 1"
       inkscape:vp_y="0 : 1000 : 0"
       inkscape:vp_x="0 : 0.5 : 1"
       sodipodi:type="inkscape:persp3d" />
    <inkscape:perspective
       id="perspective2879-7"
       inkscape:persp3d-origin="0.5 : 0.33333333 : 1"
       inkscape:vp_z="1 : 0.5 : 1"
       inkscape:vp_y="0 : 1000 : 0"
       inkscape:vp_x="0 : 0.5 : 1"
       sodipodi:type="inkscape:persp3d" />
    <inkscape:perspective
       id="perspective4031"
       inkscape:persp3d-origin="0.5 : 0.33333333 : 1"
       inkscape:vp_z="1 : 0.5 : 1"
       inkscape:vp_y="0 : 1000 : 0"
       inkscape:vp_x="0 : 0.5 : 1"
       sodipodi:type="inkscape:persp3d" />
    <inkscape:perspective
       id="perspective4047"
       inkscape:persp3d-origin="0.5 : 0.33333333 : 1"
       inkscape:vp_z="1 : 0.5 : 1"
       inkscape:vp_y="0 : 1000 : 0"
       inkscape:vp_x="0 : 0.5 : 1"
       sodipodi:type="inkscape:persp3d" />
    <inkscape:perspective
       id="perspective4063"
       inkscape:persp3d-origin="0.5 : 0.33333333 : 1"
       inkscape:vp_z="1 : 0.5 : 1"
       inkscape:vp_y="0 : 1000 : 0"
       inkscape:vp_x="0 : 0.5 : 1"
       sodipodi:type="inkscape:persp3d" />
    <inkscape:perspective
       id="perspective4079"
       inkscape:persp3d-origin="0.5 : 0.33333333 : 1"
       inkscape:vp_z="1 : 0.5 : 1"
       inkscape:vp_y="0 : 1000 : 0"
       inkscape:vp_x="0 : 0.5 : 1"
       sodipodi:type="inkscape:persp3d" />
    <inkscape:perspective
       id="perspective4097"
       inkscape:persp3d-origin="0.5 : 0.33333333 : 1"
       inkscape:vp_z="1 : 0.5 : 1"
       inkscape:vp_y="0 : 1000 : 0"
       inkscape:vp_x="0 : 0.5 : 1"
       sodipodi:type="inkscape:persp3d" />
    <inkscape:perspective
       id="perspective4115"
       inkscape:persp3d-origin="0.5 : 0.33333333 : 1"
       inkscape:vp_z="1 : 0.5 : 1"
       inkscape:vp_y="0 : 1000 : 0"
       inkscape:vp_x="0 : 0.5 : 1"
       sodipodi:type="inkscape:persp3d" />
    <inkscape:perspective
       id="perspective4129"
       inkscape:persp3d-origin="0.5 : 0.33333333 : 1"
       inkscape:vp_z="1 : 0.5 : 1"
       inkscape:vp_y="0 : 1000 : 0"
       inkscape:vp_x="0 : 0.5 : 1"
       sodipodi:type="inkscape:persp3d" />
  </defs>
  <path
     style="fill:#ffffff;fill-opacity:1;stroke:none"
     d="m -2.1039262,-3.1405409 207.7153762,0 0,207.3483909 -207.7153762,0 0,-207.3483909 z"
     id="rect2881" />
  <path
     style="fill:none;stroke:#000000;stroke-width:3;stroke-miterlimit:4;stroke-opacity:1"
     d="m 21.814432,2.8621521 157.645218,0 c 10.29357,0 18.58045,8.2868829 18.58045,18.5804539 l 0,157.645234 c 0,10.29357 -8.28688,18.58045 -18.58045,18.58045 l -157.645218,0 c -10.293571,0 -18.5804535,-8.28688 -18.5804535,-18.58045 l 0,-157.645234 c 0,-10.293571 8.2868825,-18.5804539 18.5804535,-18.5804539 z"
     id="rect4614" />
  <path
     style="fill:#000000"
     d="m 55.873034,146.37497 c -0.194915,-0.50794 -0.35439,-5.91561 -0.35439,-12.01705 l 0,-11.09352 6.010186,0 6.010186,0 -0.154415,11.85437 -0.154416,11.85436 -5.501379,0.16268 c -4.637092,0.13713 -5.557058,0.0176 -5.855772,-0.76084 z m 14.308843,0.50294 c -0.209477,-0.20947 -0.380866,-5.6082 -0.380866,-11.99719 l 0,-11.61632 5.998595,0 5.998594,0 0,3.71342 0,3.71341 6.271073,0 c 6.09223,0 6.298302,-0.0416 7.226021,-1.45743 1.172486,-1.78945 3.622569,-3.11364 5.755736,-3.11079 1.93035,0.003 5.00391,1.78093 5.86777,3.39506 0.57727,1.07862 1.15567,1.17316 7.17765,1.17316 l 6.54979,0 0,-3.71341 0,-3.71342 6.28424,0 6.28424,0 0,10.89216 c 0,6.41572 -0.24305,11.3463 -0.59139,11.99719 -0.51691,0.96586 -1.23389,1.10503 -5.69285,1.10503 -6.18806,0 -6.28424,-0.10872 -6.28424,-7.10363 l 0,-4.89356 -6.36652,0 -6.36653,0 -1.77442,2.04019 c -3.03956,3.4948 -8.47943,3.1856 -10.975467,-0.62384 -0.89374,-1.36402 -1.157792,-1.41635 -7.146566,-1.41635 l -6.218537,0 0,5.31304 c 0,3.37064 -0.250633,5.56367 -0.685553,5.9986 -0.72835,0.72835 -10.241926,0.99353 -10.93077,0.30468 z m 65.093503,-0.5228 c -0.19073,-0.49701 -0.34677,-5.89575 -0.34677,-11.99719 l 0,-11.09352 5.99859,0 5.9986,0 0,11.09352 c 0,6.10144 -0.15605,11.50018 -0.34677,11.99719 -0.28176,0.73426 -1.34132,0.90367 -5.65183,0.90367 -4.3105,0 -5.37007,-0.16941 -5.65182,-0.90367 z m -82.041915,-31.66013 0,-6.28424 47.988755,0 47.98875,0 0,6.28424 0,6.28424 -47.98875,0 -47.988755,0 0,-6.28424 z m 0,-14.28237 0,-5.141652 47.988755,0 47.98875,0 0,5.141652 0,5.14165 -47.98875,0 -47.988755,0 0,-5.14165 z M 93.509741,93.503692 C 83.213166,92.79652 75.929113,90.952284 68.658422,87.211629 58.073928,81.766076 52.65239,73.488535 52.668951,62.799084 52.693465,46.976282 63.970675,36.53568 85.225968,32.65733 c 7.510389,-1.370383 24.482112,-1.370383 31.992502,0 15.23331,2.779548 25.44396,9.02134 30.07026,18.38201 1.83472,3.712303 2.11342,4.851962 2.36561,9.673342 0.63305,12.102822 -4.43184,20.562754 -15.86832,26.504991 -9.93943,5.16439 -24.20031,7.39012 -40.276279,6.286019 z m 21.375839,-7.67919 c 13.45884,-2.182706 22.37705,-7.309316 26.17749,-15.048069 2.14528,-4.368371 2.24474,-11.386893 0.22521,-15.8909 -1.86853,-4.167213 -6.99965,-8.895388 -12.32226,-11.354587 -14.76481,-6.821761 -40.722793,-6.821761 -55.487596,0 -5.322616,2.459199 -10.453739,7.187374 -12.322261,11.354587 -2.019532,4.504007 -1.920068,11.522529 0.225204,15.8909 3.727224,7.589668 12.699687,12.837696 25.666614,15.0125 6.561006,1.100405 21.156669,1.119058 27.837599,0.03559 l 0,-2.1e-5 z"
     id="path4135"
     sodipodi:nodetypes="cccccccccccccccccssscccccccsscccccscccscccccccssccccccccccccccccccccsssssssccssssssscc" />
  <path
     style="fill:#0060a8;fill-opacity:1;stroke:none"
     d="m 64.390987,160.53746 c -0.733316,-0.0942 -1.727317,-0.35895 -3.860426,-1.02815 -4.96155,-1.55654 -5.988238,-2.02196 -6.477794,-2.93656 -0.147611,-0.27577 -0.161979,-0.41149 -0.161979,-1.52997 0,-1.02712 0.02117,-1.26606 0.129748,-1.46459 0.193137,-0.35313 0.406417,-0.46942 0.860956,-0.46942 0.614922,0 1.379446,0.23982 3.45472,1.08369 1.683893,0.68472 2.491592,0.97216 3.439388,1.224 2.693888,0.71577 5.047396,0.6596 7.932102,-0.18934 1.243982,-0.36609 2.251886,-0.77151 4.887747,-1.96605 3.543974,-1.60609 5.253985,-2.12616 7.272043,-2.21167 1.219238,-0.0517 2.105045,0.0405 3.368911,0.35064 1.372304,0.33671 2.456897,0.74415 5.472899,2.05597 2.877131,1.25141 4.650311,1.90205 5.915682,2.17066 2.372288,0.5036 4.186596,0.37832 6.657456,-0.45971 1.04268,-0.35363 1.7648,-0.66211 3.65087,-1.55959 2.648,-1.26004 4.50901,-2.01902 5.90761,-2.40933 1.23874,-0.3457 3.09875,-0.31235 4.90748,0.088 2.18099,0.48273 3.85446,1.09282 6.99704,2.55091 3.39285,1.5742 5.13846,2.06027 7.3612,2.04975 2.2611,-0.0107 4.01853,-0.51683 7.7715,-2.23812 2.04693,-0.93881 3.49698,-1.54691 4.79957,-2.01273 1.14856,-0.41075 1.50955,-0.50721 2.80234,-0.74885 l 1.10287,-0.20613 0.0226,1.15816 c 0.039,1.99842 -0.13998,2.91252 -0.66523,3.39732 -0.36012,0.33241 -0.7857,0.46998 -1.6872,0.54538 -1.15093,0.0963 -2.20123,0.49654 -6.26165,2.38632 -4.03015,1.8757 -5.66147,2.37399 -7.78443,2.37776 -1.01083,0.002 -2.20525,-0.19251 -3.38833,-0.5512 -1.10031,-0.33359 -1.85902,-0.6365 -4.26486,-1.70271 -1.06221,-0.47074 -2.23254,-0.98031 -2.60074,-1.13238 -2.90694,-1.20059 -5.10341,-1.65486 -7.30832,-1.51148 -2.11321,0.13741 -3.84277,0.69967 -8.08223,2.62741 -4.07675,1.85375 -5.48117,2.27183 -7.63162,2.27183 -2.166584,0 -3.389103,-0.36201 -7.475695,-2.21372 -3.54358,-1.60566 -4.823235,-2.08253 -6.67506,-2.48749 -1.028394,-0.2249 -3.517277,-0.24459 -4.547891,-0.036 -1.599944,0.32384 -3.265893,0.93598 -6.235356,2.29115 -2.154611,0.98329 -3.295249,1.44524 -4.448083,1.80146 -2.093753,0.64695 -3.610404,0.8336 -5.157848,0.63477 l 0,0 z"
     id="path4139" />
  <path
     style="fill:#0060a8;fill-opacity:1;stroke:none"
     d="m 64.304691,168.68454 c -1.539873,-0.19973 -2.541402,-0.50986 -5.300859,-1.64144 -2.261693,-0.92747 -3.313307,-1.31262 -3.922884,-1.43676 -0.245471,-0.05 -0.531983,-0.12227 -0.636693,-0.16062 -0.448358,-0.16421 -0.623485,-0.92341 -0.576089,-2.49743 0.02841,-0.94356 0.05606,-1.14364 0.195214,-1.41243 0.129111,-0.2494 0.223937,-0.33167 0.465808,-0.40413 0.547446,-0.16402 1.332661,0.0619 3.973471,1.14331 1.927349,0.78924 3.23418,1.23372 4.463102,1.51799 0.83464,0.19306 1.003749,0.20669 2.603475,0.20981 1.511846,0.003 1.810361,-0.017 2.566284,-0.17148 1.294879,-0.26462 3.277217,-0.95464 5.058181,-1.76069 5.15849,-2.33468 6.533007,-2.76885 9.000588,-2.84304 2.696969,-0.0811 4.801497,0.51205 9.037781,2.54717 3.719962,1.78708 5.159126,2.19418 7.756794,2.19418 2.540766,0 3.883176,-0.39257 7.933296,-2.31999 2.23505,-1.06364 2.89897,-1.35577 3.77165,-1.65952 1.62882,-0.56696 3.09126,-0.75312 5.34567,-0.68047 2.69359,0.0868 3.85321,0.40917 7.8135,2.17208 2.58345,1.15001 3.15796,1.38926 4.19968,1.74895 1.71136,0.59089 2.87912,0.81259 4.28263,0.81304 2.08064,6.6e-4 3.48923,-0.42468 7.13547,-2.15468 2.4171,-1.14683 4.57158,-2.00812 5.9508,-2.37894 0.59876,-0.16099 2.84651,-0.59787 3.07854,-0.59835 0.13501,-2.9e-4 0.139,0.0784 0.10515,2.07337 -0.032,1.88881 -0.0482,2.09603 -0.18128,2.32453 -0.0804,0.13798 -0.23326,0.293 -0.3398,0.3445 -0.10654,0.0515 -0.64042,0.12409 -1.18641,0.16131 -0.79605,0.0543 -1.16551,0.12039 -1.86509,0.33383 -1.23098,0.37558 -2.80008,1.01795 -4.74368,1.94201 -3.52253,1.67475 -4.67278,2.10196 -6.50121,2.41454 -1.95171,0.33366 -3.81718,0.087 -6.25582,-0.82728 -0.74089,-0.27776 -1.49875,-0.6195 -5.05818,-2.28088 -2.77473,-1.29512 -4.02387,-1.57682 -6.99219,-1.57682 -3.30826,0 -4.15748,0.23192 -8.4427,2.30568 -3.75491,1.81711 -5.28534,2.346 -7.291987,2.51996 -2.397424,0.20784 -4.530512,-0.36738 -8.514833,-2.29617 -2.805628,-1.35819 -4.329856,-1.95253 -6.038782,-2.3547 -0.81549,-0.19192 -0.99462,-0.20705 -2.478303,-0.20941 -1.376302,-0.002 -1.708552,0.0206 -2.383029,0.16321 -1.430924,0.30263 -3.544087,1.03056 -5.241436,1.80553 -3.581249,1.63513 -5.962095,2.44825 -8.145161,2.7818 -0.738536,0.11283 -2.257022,0.19819 -2.640668,0.14843 z"
     id="path4141" />
  <path
     style="fill:#f8991d;fill-opacity:1;stroke:none"
     d="M 96.983912,81.195475 C 92.642526,81.107322 89.628173,80.78849 85.863351,80.019241 81.722604,79.17318 78.52326,78.115459 75.263485,76.514863 69.931145,73.89661 66.781158,70.434451 65.621538,65.917375 c -0.559426,-2.179139 -0.568895,-4.457287 -0.02719,-6.542193 1.289509,-4.963049 5.633493,-9.299719 11.714726,-11.695002 4.790693,-1.886963 10.600953,-3.005882 18.745026,-3.60985 2.05602,-0.152475 9.486951,-0.127797 11.566871,0.03841 7.4269,0.593497 13.05279,1.791225 17.93004,3.817231 0.92848,0.385688 3.07026,1.484879 3.82758,1.964366 2.96483,1.877135 4.98788,3.96208 6.34873,6.542944 2.19497,4.162795 1.9048,9.613178 -0.72671,13.650268 -3.02935,4.64744 -10.38325,8.518166 -19.19729,10.104504 -3.00869,0.5415 -7.55576,0.902683 -12.31874,0.978504 -1.36613,0.02175 -2.7684,0.04972 -3.11615,0.06217 -0.34775,0.01245 -1.870783,-0.0025 -3.384518,-0.03326 l 0,0 z"
     id="path4143" />
</svg>
