<?xml version="1.0" encoding="UTF-8" standalone="no"?>
<!-- Created with Inkscape (http://www.inkscape.org/) -->

<svg
   xmlns:dc="http://purl.org/dc/elements/1.1/"
   xmlns:cc="http://creativecommons.org/ns#"
   xmlns:rdf="http://www.w3.org/1999/02/22-rdf-syntax-ns#"
   xmlns:svg="http://www.w3.org/2000/svg"
   xmlns="http://www.w3.org/2000/svg"
   xmlns:sodipodi="http://sodipodi.sourceforge.net/DTD/sodipodi-0.dtd"
   xmlns:inkscape="http://www.inkscape.org/namespaces/inkscape"
   version="1.1"
   width="200"
   height="200"
   id="svg2"
   inkscape:version="0.47 r22583"
   sodipodi:docname="Italian traffic signs - icona cuccetta + auto al seguito.svg"
   sodipodi:version="0.32"
   inkscape:output_extension="org.inkscape.output.svg.inkscape">
  <metadata
     id="metadata2877">
    <rdf:RDF>
      <cc:Work
         rdf:about="">
        <dc:format>image/svg+xml</dc:format>
        <dc:type
           rdf:resource="http://purl.org/dc/dcmitype/StillImage" />
        <dc:title></dc:title>
      </cc:Work>
    </rdf:RDF>
  </metadata>
  <sodipodi:namedview
     pagecolor="#ffffff"
     bordercolor="#666666"
     borderopacity="1"
     objecttolerance="10"
     gridtolerance="10"
     guidetolerance="10"
     inkscape:pageopacity="0"
     inkscape:pageshadow="2"
     inkscape:window-width="1600"
     inkscape:window-height="838"
     id="namedview2875"
     showgrid="false"
     inkscape:zoom="3.3608915"
     inkscape:cx="51.067451"
     inkscape:cy="104.04129"
     inkscape:window-x="-8"
     inkscape:window-y="-8"
     inkscape:window-maximized="1"
     inkscape:current-layer="svg2" />
  <defs
     id="defs4">
    <inkscape:perspective
       sodipodi:type="inkscape:persp3d"
       inkscape:vp_x="0 : 100 : 1"
       inkscape:vp_y="0 : 1000 : 0"
       inkscape:vp_z="200 : 100 : 1"
       inkscape:persp3d-origin="100 : 66.666667 : 1"
       id="perspective2879" />
    <inkscape:perspective
       id="perspective2839"
       inkscape:persp3d-origin="0.5 : 0.33333333 : 1"
       inkscape:vp_z="1 : 0.5 : 1"
       inkscape:vp_y="0 : 1000 : 0"
       inkscape:vp_x="0 : 0.5 : 1"
       sodipodi:type="inkscape:persp3d" />
    <inkscape:perspective
       id="perspective3649"
       inkscape:persp3d-origin="0.5 : 0.33333333 : 1"
       inkscape:vp_z="1 : 0.5 : 1"
       inkscape:vp_y="0 : 1000 : 0"
       inkscape:vp_x="0 : 0.5 : 1"
       sodipodi:type="inkscape:persp3d" />
    <inkscape:perspective
       id="perspective3679"
       inkscape:persp3d-origin="0.5 : 0.33333333 : 1"
       inkscape:vp_z="1 : 0.5 : 1"
       inkscape:vp_y="0 : 1000 : 0"
       inkscape:vp_x="0 : 0.5 : 1"
       sodipodi:type="inkscape:persp3d" />
    <inkscape:perspective
       id="perspective3713"
       inkscape:persp3d-origin="0.5 : 0.33333333 : 1"
       inkscape:vp_z="1 : 0.5 : 1"
       inkscape:vp_y="0 : 1000 : 0"
       inkscape:vp_x="0 : 0.5 : 1"
       sodipodi:type="inkscape:persp3d" />
    <inkscape:perspective
       id="perspective3741"
       inkscape:persp3d-origin="0.5 : 0.33333333 : 1"
       inkscape:vp_z="1 : 0.5 : 1"
       inkscape:vp_y="0 : 1000 : 0"
       inkscape:vp_x="0 : 0.5 : 1"
       sodipodi:type="inkscape:persp3d" />
    <inkscape:perspective
       id="perspective3765"
       inkscape:persp3d-origin="0.5 : 0.33333333 : 1"
       inkscape:vp_z="1 : 0.5 : 1"
       inkscape:vp_y="0 : 1000 : 0"
       inkscape:vp_x="0 : 0.5 : 1"
       sodipodi:type="inkscape:persp3d" />
    <inkscape:perspective
       id="perspective3801"
       inkscape:persp3d-origin="0.5 : 0.33333333 : 1"
       inkscape:vp_z="1 : 0.5 : 1"
       inkscape:vp_y="0 : 1000 : 0"
       inkscape:vp_x="0 : 0.5 : 1"
       sodipodi:type="inkscape:persp3d" />
    <inkscape:perspective
       id="perspective2863"
       inkscape:persp3d-origin="0.5 : 0.33333333 : 1"
       inkscape:vp_z="1 : 0.5 : 1"
       inkscape:vp_y="0 : 1000 : 0"
       inkscape:vp_x="0 : 0.5 : 1"
       sodipodi:type="inkscape:persp3d" />
    <inkscape:perspective
       id="perspective3859"
       inkscape:persp3d-origin="0.5 : 0.33333333 : 1"
       inkscape:vp_z="1 : 0.5 : 1"
       inkscape:vp_y="0 : 1000 : 0"
       inkscape:vp_x="0 : 0.5 : 1"
       sodipodi:type="inkscape:persp3d" />
    <inkscape:perspective
       id="perspective3964"
       inkscape:persp3d-origin="0.5 : 0.33333333 : 1"
       inkscape:vp_z="1 : 0.5 : 1"
       inkscape:vp_y="0 : 1000 : 0"
       inkscape:vp_x="0 : 0.5 : 1"
       sodipodi:type="inkscape:persp3d" />
  </defs>
  <path
     style="fill:#ffffff;fill-opacity:1;stroke:none"
     d="m -2.1039262,-3.1405409 207.7153762,0 0,207.3483909 -207.7153762,0 0,-207.3483909 z"
     id="rect2881" />
  <path
     style="fill:none;stroke:#000000;stroke-width:3;stroke-miterlimit:4;stroke-opacity:1"
     d="m 21.814432,2.8621521 157.645218,0 c 10.29357,0 18.58045,8.2868829 18.58045,18.5804539 l 0,157.645234 c 0,10.29357 -8.28688,18.58045 -18.58045,18.58045 l -157.645218,0 c -10.293571,0 -18.5804535,-8.28688 -18.5804535,-18.58045 l 0,-157.645234 c 0,-10.293571 8.2868825,-18.5804539 18.5804535,-18.5804539 z"
     id="rect4614" />
  <g
     id="g3951"
     transform="matrix(1.0213678,0,0,1.0213678,-207.24832,-29.309725)">
    <path
       d="m 256.63693,100.8571 c 0.29113,0.56612 0.25394,1.30972 0.51446,1.89322 l -8.80374,8.28401 -2.66775,-0.006 9.94145,-9.29329 1.01558,-0.8782 0,2e-4 z m 17.64846,11.04526 c 0.03,0.0678 -1.13393,6.56837 -1.08408,6.46394 l -28.81551,-0.0228 c -0.54507,-4.3e-4 -1.08452,-0.20508 -1.6533,-0.20622 -0.56875,-6.9e-4 -1.12372,0.0737 -1.65414,0.19938 l -14.07208,-0.0293 0.01,-4.72712 19.1619,-1.83251 12.77723,0.0259 0,0 15.33012,0.1287 0,-4e-5 -10e-6,-4e-5 z m -31.55587,7.52931 c 3.19666,0.008 5.78259,2.61888 5.77596,5.81556 -0.007,3.19669 -2.60326,5.78262 -5.79995,5.776 -3.19667,-0.008 -5.78261,-2.60326 -5.77601,-5.79994 0.007,-3.19669 2.6033,-5.79822 5.8,-5.79162 l 0,0 z m 16.66079,0.54929 c -0.14478,2.21737 -0.50341,4.38681 -1.04304,6.4723 l -8.65858,-0.0178 c 0.0671,-0.38888 0.11077,-0.79327 0.11172,-1.20105 0.004,-2.10052 -0.90992,-3.97682 -2.36045,-5.27806 l 11.95037,0.0251 -1e-5,-5.7e-4 -10e-6,6e-5 z m -21.37338,-0.0447 c -1.45589,1.29524 -2.37796,3.18335 -2.38229,5.28386 -6.1e-4,0.2392 0.007,0.46892 0.0299,0.70211 l -5.61555,-0.40166 -2.7186,-5.60641 10.68667,0.0218 -10e-6,0 -1e-4,3.9e-4 -1e-5,-4e-5 z m 4.706,2.67754 c -1.44138,-0.002 -2.60784,1.1742 -2.6108,2.6156 -0.003,1.44133 1.15862,2.60776 2.59998,2.61073 1.44138,0.002 2.60778,-1.15861 2.61078,-2.6 0.003,-1.44135 -1.15859,-2.62334 -2.59996,-2.62633 l 0,0 z"
       id="path3752"
       style="fill:#ffffff;fill-opacity:1;fill-rule:evenodd;stroke:none" />
    <path
       d="m 280.38375,100.88776 9.8305,10.38649 -8.50801,-0.0177 -3.98875,-7.89826 -21.36648,-0.0556 c 0.39288,-0.84722 -0.15278,-1.66628 0.30489,-2.47477 l 23.72785,0.0613 0,-6.4e-4 0,-7.5e-4 z m 23.76669,11.08305 1.62584,6.17585 -0.0782,0.37109 -17.86686,-0.0405 c -0.52832,-0.12831 -1.07184,-0.2035 -1.63927,-0.2048 -0.56399,-0.001 -1.09973,0.20217 -1.64018,0.19751 l -13.6365,-0.12021 c -0.003,-0.20706 2.14382,-0.31714 2.14437,-0.52501 0.005,-2.02174 0.20213,-3.99709 0.53931,-5.92347 l 30.55152,0.0688 -10e-6,2e-5 -6e-5,8.1e-4 0,4e-5 0,-1e-4 z m -17.96136,7.58587 c 3.16969,0.008 5.73324,2.59778 5.72611,5.76743 -0.007,3.16966 -2.58231,5.73328 -5.75196,5.72615 -3.16968,-0.008 -5.73327,-2.58231 -5.72611,-5.75195 0.007,-3.16969 2.58231,-5.74877 5.75196,-5.74163 l 0,0 z m 19.14964,0.55357 -1.25002,5.55061 -11.00052,0.84153 c 0.0665,-0.38558 0.11008,-0.78653 0.11098,-1.19089 0.005,-2.08272 -0.90151,-3.94337 -2.33954,-5.23383 l 14.47909,0.033 0,-3.9e-4 1e-5,-4e-5 z m -23.83794,-0.0537 c -1.4409,1.28387 -2.3584,3.15843 -2.3631,5.23873 -6.6e-4,0.40438 0.0563,0.79005 0.12115,1.17593 l -22.47766,-0.0118 c -0.0472,0.0897 0.17544,-6.50716 0.27136,-6.50675 l 24.44835,0.10577 -10e-5,-0.001 0,-4e-5 0,-5.7e-4 z m 4.68121,2.65577 c -1.42917,-0.004 -2.58598,1.1638 -2.58919,2.59297 -0.003,1.42923 1.14835,2.58597 2.57752,2.58921 1.4292,0.004 2.58595,-1.14836 2.58916,-2.57756 0.003,-1.42918 -1.14831,-2.60139 -2.57749,-2.60462 l 0,0 z"
       id="path3754"
       style="fill:#ffffff;fill-opacity:1;fill-rule:evenodd;stroke:none" />
    <path
       d="m 267.07128,111.24247 -0.0401,-7.88978"
       id="path3756"
       style="fill:#ffffff;fill-opacity:1;stroke:#ffffff;stroke-width:1.05555558px;stroke-linecap:butt;stroke-linejoin:miter;stroke-opacity:1" />
  </g>
  <path
     style="fill:#000000"
     d="m 35.404216,124.22672 c -0.303246,2.27205 -0.40714,2.38141 -2.420691,2.54806 l -2.103847,0.17412 0,-14.81689 0,-14.816899 3.883942,-9.481329 3.883943,-9.481333 13.507854,-0.150232 13.507855,-0.150231 0,17.40177 0,17.401774 -9.677693,0.0656 c -15.497887,-0.25609 -16.352966,-4.6e-4 -20.581363,11.30559 z m 25.649573,-33.671963 -0.159235,-6.031026 -9.810595,0 -9.810594,0 -2.349286,5.610257 c -1.292107,3.085641 -2.368379,5.799602 -2.391715,6.031026 -0.02334,0.231423 5.520267,0.420769 12.319117,0.420769 l 12.361544,0 -0.159236,-6.031026 z M 81.725337,108.22707 C 79.436431,103.10255 63.831282,69.385334 63.648578,69.169564 c -0.09616,-0.113563 -4.643924,-0.552027 -10.106143,-0.974362 -5.462223,-0.42234 -9.990959,-0.834351 -10.063863,-0.915577 -0.0729,-0.08123 0.456464,-1.473113 1.176372,-3.093075 0.882137,-1.985015 1.6394,-2.944913 2.322471,-2.943937 2.278634,0.0034 101.883005,6.152971 101.968475,6.295679 0.0509,0.08507 4.65728,9.937554 10.23629,21.894414 l 10.14366,21.739744 -43.14246,0 -43.14246,0 -1.315583,-2.94538 z m 11.98922,-5.06887 c 0,-0.0879 -3.376774,-7.472443 -7.503949,-16.410002 L 78.70666,70.498089 76.112589,69.983376 c -1.426744,-0.283093 -2.748818,-0.359976 -2.937946,-0.170849 -0.189127,0.189127 2.500739,6.47983 5.977477,13.979329 3.476738,7.499505 6.931786,14.960888 7.677889,16.580854 l 1.356543,2.94538 2.764006,0 c 1.5202,0 2.763999,-0.072 2.763999,-0.15989 z m 15.708723,-0.0204 c 0,-0.0992 -3.27083,-7.231225 -7.26849,-15.848978 L 94.886288,71.620141 92.309087,71.133613 c -1.41746,-0.267592 -2.726591,-0.337142 -2.909176,-0.154551 -0.278808,0.278807 4.341166,10.629978 12.743479,28.552106 l 1.77539,3.786922 2.75225,0 c 1.51374,0 2.75225,-0.0811 2.75225,-0.18033 l 0,4e-5 z m 15.61521,-0.3129 c -0.10285,-0.2713 -3.30133,-7.182647 -7.10772,-15.358569 l -6.92072,-14.865318 -2.56813,-0.352004 c -1.41248,-0.193599 -2.6927,-0.22744 -2.84493,-0.07521 -0.15224,0.15224 2.08213,5.391642 4.96525,11.643117 2.88313,6.251476 6.08613,13.196665 7.11777,15.433755 l 1.87571,4.067439 2.83489,0 c 1.55919,0 2.75074,-0.22195 2.64788,-0.49323 l 0,2e-5 z m 15.70872,0.0244 c -0.10285,-0.25786 -3.19386,-6.948094 -6.8689,-14.867179 -6.20988,-13.381209 -6.78454,-14.398876 -8.13487,-14.405995 -0.79914,-0.0045 -2.02102,-0.159892 -2.71529,-0.345951 -0.74544,-0.19977 -1.26231,-0.08721 -1.26231,0.274897 0,0.33725 2.55307,6.110198 5.67349,12.828767 3.12042,6.718574 6.14099,13.288549 6.71237,14.599951 1.02796,2.35929 1.06907,2.38435 3.91071,2.38435 1.57949,0 2.78766,-0.21097 2.6848,-0.46884 z m 15.70872,0.004 c -0.10285,-0.25546 -3.07421,-6.693228 -6.60302,-14.306155 l -6.41601,-13.841833 -1.81323,0 c -0.99728,0 -2.21258,-0.153239 -2.70066,-0.340537 -0.50256,-0.192853 -0.88742,-0.05128 -0.88742,0.3265 0,0.366871 2.30614,5.632462 5.12477,11.701307 2.81862,6.06885 5.71874,12.359692 6.44472,13.979658 l 1.31995,2.94538 2.85895,0 c 1.57243,0 2.77481,-0.20901 2.67195,-0.46447 l 0,1.5e-4 z"
     id="path3970"
     sodipodi:nodetypes="cccccccccccccccccscccccssssscccccccccssccccccccscccccccccsscccccccsssssscccccssscccccc" />
  <path
     sodipodi:type="arc"
     style="fill:#ffffff;fill-opacity:1;stroke:#000000;stroke-width:18.96911812;stroke-linecap:butt;stroke-linejoin:miter;stroke-miterlimit:4;stroke-opacity:1;stroke-dasharray:none;stroke-dashoffset:0"
     id="path3972"
     sodipodi:cx="138.43834"
     sodipodi:cy="164.23326"
     sodipodi:rx="21.039263"
     sodipodi:ry="20.618477"
     d="m 159.4776,164.23326 a 21.039263,20.618477 0 1 1 -42.07852,0 21.039263,20.618477 0 1 1 42.07852,0 z"
     transform="matrix(0.42831437,0,0,0.42831437,91.766767,55.760343)" />
  <path
     transform="matrix(0.42831437,0,0,0.42831437,63.766767,55.760343)"
     d="m 159.4776,164.23326 a 21.039263,20.618477 0 1 1 -42.07852,0 21.039263,20.618477 0 1 1 42.07852,0 z"
     sodipodi:ry="20.618477"
     sodipodi:rx="21.039263"
     sodipodi:cy="164.23326"
     sodipodi:cx="138.43834"
     id="path3974"
     style="fill:#ffffff;fill-opacity:1;stroke:#000000;stroke-width:18.96911812;stroke-linecap:butt;stroke-linejoin:miter;stroke-miterlimit:4;stroke-opacity:1;stroke-dasharray:none;stroke-dashoffset:0"
     sodipodi:type="arc" />
  <path
     sodipodi:type="arc"
     style="fill:#ffffff;fill-opacity:1;stroke:#000000;stroke-width:18.96911812;stroke-linecap:butt;stroke-linejoin:miter;stroke-miterlimit:4;stroke-opacity:1;stroke-dasharray:none;stroke-dashoffset:0"
     id="path3976"
     sodipodi:cx="138.43834"
     sodipodi:cy="164.23326"
     sodipodi:rx="21.039263"
     sodipodi:ry="20.618477"
     d="m 159.4776,164.23326 a 21.039263,20.618477 0 1 1 -42.07852,0 21.039263,20.618477 0 1 1 42.07852,0 z"
     transform="matrix(0.42831437,0,0,0.42831437,16.766661,55.760343)" />
  <path
     transform="matrix(0.42831437,0,0,0.42831437,-10.233339,55.760343)"
     d="m 159.4776,164.23326 a 21.039263,20.618477 0 1 1 -42.07852,0 21.039263,20.618477 0 1 1 42.07852,0 z"
     sodipodi:ry="20.618477"
     sodipodi:rx="21.039263"
     sodipodi:cy="164.23326"
     sodipodi:cx="138.43834"
     id="path3978"
     style="fill:#ffffff;fill-opacity:1;stroke:#000000;stroke-width:18.96911812;stroke-linecap:butt;stroke-linejoin:miter;stroke-miterlimit:4;stroke-opacity:1;stroke-dasharray:none;stroke-dashoffset:0"
     sodipodi:type="arc" />
</svg>
