<svg xmlns="http://www.w3.org/2000/svg" width="200" height="200" xmlns:v="https://vecta.io/nano"><path d="M0-.616h200.971V200H0z" fill="#fff"/><rect width="194.806" height="194.806" ry="18.58" x="3.234" y="2.862" fill="none" stroke="#000" stroke-width="3"/><path d="M138.123 153.503v-14.63h22.555 22.555v14.63 14.63h-22.555-22.555v-14.63zm-83.518-.221c-4.014-2.122-6.808-3.017-9.436-3.025-1.448-.004-1.752-.149-1.928-.919l-1.437-6.807c-2.698-12.947-7.168-28.462-11.23-38.981-.986-2.553-1.65-4.78-1.476-4.949s10.456-3.99 22.848-8.49l22.532-8.183 22.496 8.01c18.689 6.655 22.454 8.12 22.246 8.662-4.975 12.955-8.492 25.523-11.81 42.196l-1.798 9.187c0 .084-1.182.264-2.627.398-2.748.257-4.267.862-7.877 3.141-1.73 1.092-2.682 1.4-4.673 1.513-2.386.135-2.659.048-5.922-1.895-3.732-2.222-6.025-2.887-9.945-2.887-3.374 0-5.814.779-9.056 2.891-2.156 1.405-3.106 1.769-4.96 1.904-2.106.152-2.592.008-5.946-1.765h0zm7.931-47.671c2.199-2.199 1.943-6.758-.495-8.809-1.48-1.245-2.408-1.268-3.772-.091-2.466 2.127-2.008 7.593.779 9.292 1.674 1.021 2.126.97 3.488-.392h0zm26.205.277c2.923-2.299 2.898-8.441-.041-9.78-3.288-1.498-6.461 4.69-4.424 8.629 1.111 2.148 2.682 2.553 4.465 1.151h0zM26.331 93.275c-.297-.716-1.599-2.915-2.893-4.887-2.298-3.5-2.332-3.593-1.44-3.922l26.651-9.79 25.737-9.452 3.523 1.257c10.98 3.917 48.826 18.181 48.83 18.404.002.145-.655 1.242-1.461 2.438s-2.016 3.272-2.69 4.613-1.281 2.502-1.351 2.58-10.625-3.713-23.455-8.423l-23.328-8.564-23.536 8.523-23.792 8.525c-.141.001-.498-.584-.795-1.3h0zm8.975-25.899v-8.155h39.216 39.216v8.16 8.16l-1.28-.281c-1.395-.306-17.386-6.089-30.051-10.866l-7.963-3.004-18.655 6.784-19.569 7.071-.914.287v-8.155h0zm16.662-16.689v-5.283H74.32h22.351v5.283 5.283H74.32 51.968v-5.283h0zm10.16-15.233v-6.712h11.999 11.999l-.112 6.604-.112 6.604-11.887.108-11.887.108v-6.712z"/><path d="M58.271 162.618c-1.45-.219-2.311-.557-5.572-2.186-4.384-2.19-6.071-2.716-8.314-2.591-2.034.113-3.499.609-7.614 2.575l-3.493 1.631c-.995.383-1.909.531-3.607.585-2.304.073-2.817-.026-5.325-1.028l-3.807-1.506-1.845-.722.002-1.743c.002-1.826.112-2.972.305-3.164.142-.141.859.106 3.43 1.182 3.195 1.338 4.544 1.701 6.93 1.867 1.33.092 2.149.003 3.102-.339.802-.288 3.555-1.555 7.157-3.296l2.662-1.287 1.168.076c4.972.322 4.811.275 9.92 2.883 2.962 1.512 3.709 1.822 4.751 1.969.821.116 2.972-.029 4.106-.278 1.07-.235 1.727-.517 4.251-1.826 2.737-1.419 4.06-2.043 4.764-2.248.474-.137 1.088-.169 3.961-.202l3.401-.039 3.606 1.821c5.633 2.844 5.96 2.954 8.225 2.767 2.54-.211 3.772-.697 9.757-3.848l1.952-1.028 1.318.062c2.539.12 4.127.247 4.868.389 1.023.197 2.047.62 4.648 1.92 1.221.61 2.568 1.253 2.993 1.429 1.809.749 3.572 1.173 4.876 1.173 1.373 0 2.063-.238 4.625-1.594 1.9-1.006 2.664-1.277 4.448-1.578l1.191-.191c.033 0 .06 1.173.06 2.606v2.606l-.817.107c-1.875.245-3.182.693-4.881 1.673-2.066 1.191-3.013 1.453-5.278 1.459-1.342.003-1.438-.009-2.261-.297-.473-.165-1.755-.718-2.849-1.228-5.613-2.618-5.524-2.579-6.697-2.948-1.425-.448-4.244-.538-5.802-.186-.952.215-1.245.341-4.718 2.028-5.268 2.559-4.909 2.447-7.847 2.448-2.091.001-2.289-.014-2.938-.218-.789-.248-.775-.241-4.395-2.084-4.053-2.063-5.187-2.371-8.485-2.303-1.832.038-1.84.039-2.857.386-.582.199-2.648 1.145-4.811 2.204l-4.258 2.019c-.615.216-2.846.267-4.003.091h0zm30.487 8.624c-1.022-.146-2.131-.58-5.119-2.005l-5.341-2.275c-.746-.19-2.837-.407-5.008-.518l-1.222-.063-2.562 1.326-6.719 3.285c-.57.205-.735.218-2.662.213-3.213-.008-3.508-.098-7.999-2.439-3.893-2.029-4.282-2.13-7.91-2.068-2.979.052-2.913.032-7.119 2.139-4.537 2.273-4.795 2.351-7.894 2.364-2.376.011-2.466-.011-5.231-1.159l-3.41-1.345-1.658-.618-.21-.088v-2.515-2.515l.817.258 4.321 1.571c2.736 1.094 3.776 1.324 6.006 1.327 2.286.003 2.83-.178 7.48-2.486l3.839-1.771c1-.317 2.584-.445 4.6-.372 2.493.09 2.345.036 8.063 2.966 2.443 1.252 3.335 1.489 6.144 1.631 1.301.066 2.147-.033 3.011-.352.283-.104 2.069-.981 3.97-1.949l4.11-1.964c1.568-.49 6.005-.469 7.567.036.411.133 2.051.876 3.643 1.651 4.964 2.417 4.81 2.37 7.847 2.374 2.967.004 3.123-.033 5.65-1.332 5.284-2.716 5.592-2.843 7.335-3.021 1.237-.127 4.508-.041 5.325.139.836.185 1.596.516 4.577 1.996 4.702 2.334 5.261 2.509 7.746 2.429 1.811-.058 2.034-.125 4.491-1.345 2.347-1.165 3.846-1.62 5.332-1.62.365 0 .414.025.421.21l.124 2.406.063 2.257c-.029.034-.486.13-1.014.213-1.574.247-3.098.798-5.439 1.967-1.476.737-2.296.989-3.581 1.103-1.405.124-2.499.004-3.755-.412-.577-.191-2.403-1.047-4.8-2.251l-3.868-1.942h-3.677-3.677l-2.17 1.156-6.197 3.078c-1.153.41-2.779.535-4.241.327h0 0z" fill="#0060a8" stroke="red" stroke-width=".028"/></svg>