<?xml version="1.0" encoding="UTF-8" standalone="no"?>
<!-- Created with Inkscape (http://www.inkscape.org/) -->

<svg
   xmlns:svg="http://www.w3.org/2000/svg"
   xmlns="http://www.w3.org/2000/svg"
   version="1.1"
   width="200"
   height="200"
   id="svg2">
  <defs
     id="defs4" />
  <path
     d="m 0,-0.61582947 200.9709,0 L 200.9709,200 0,200 0,-0.61582947 z"
     id="rect2881"
     style="fill:#ffffff;fill-opacity:1;stroke:none" />
  <path
     d="m 21.814432,2.8621521 157.645218,0 c 10.29357,0 18.58045,8.2868829 18.58045,18.5804539 l 0,157.645234 c 0,10.29357 -8.28688,18.58045 -18.58045,18.58045 l -157.645218,0 c -10.293571,0 -18.5804535,-8.28688 -18.5804535,-18.58045 l 0,-157.645234 c 0,-10.293571 8.2868825,-18.5804539 18.5804535,-18.5804539 z"
     id="rect4614"
     style="fill:none;stroke:#000000;stroke-width:3;stroke-miterlimit:4;stroke-opacity:1" />
  <path
     d="m 46.455128,169.41449 c -0.640071,-0.40573 -1.16035,-2.87526 -1.427783,-6.77703 l -0.420755,-6.13868 9.536357,0 9.536357,0 0,6.33073 c 0,5.07698 -0.236289,6.4214 -1.19312,6.78857 -1.803717,0.69216 -14.879935,0.52609 -16.031056,-0.20359 z m 85.091242,-1.27338 c -0.40459,-1.06415 -0.73561,-4.11901 -0.73561,-6.78858 l 0,-4.85375 9.42857,0 9.42858,0 0,6.33073 c 0,5.07698 -0.23629,6.4214 -1.19313,6.78857 -0.65621,0.25182 -4.56804,0.45785 -8.69295,0.45785 -7.35654,0 -7.5139,-0.037 -8.23546,-1.93482 z M 39.69301,152.57649 c -0.497829,-0.49783 -0.905144,-1.44823 -0.905144,-2.112 0,-0.66377 0.407315,-1.61417 0.905144,-2.112 1.197587,-1.19759 113.82792,-1.31824 116.05877,-0.12432 1.75897,0.94137 1.93709,4.15431 0.26586,4.79562 -0.65621,0.25182 -26.89405,0.45785 -58.306303,0.45785 -43.41565,0 -57.330266,-0.21709 -58.018327,-0.90515 z m 6.368097,-8.91413 c -8.864327,-2.68812 -9.872491,-15.63577 -1.593942,-20.4707 6.394444,-3.73455 45.835508,-6.65427 70.676825,-5.23202 14.53627,0.83226 31.20326,3.37277 36.24236,5.52434 8.20234,3.50219 9.7511,12.55717 3.19561,18.68337 l -2.01786,1.88571 -52.17383,0.13145 c -28.695606,0.0723 -53.143729,-0.16267 -54.329163,-0.52215 z m 103.606803,-3.64585 c 4.36061,-3.18916 4.74473,-8.73465 0.86264,-12.45394 -4.12748,-3.95437 -11.06128,-3.09587 -13.90722,1.72191 -4.67756,7.91849 5.47299,16.26955 13.04458,10.73203 z m -91.998204,0.25235 c 2.439249,-1.26139 4.50376,-4.61528 4.496056,-7.30406 -0.0063,-2.20728 -2.405068,-5.87214 -4.663876,-7.12559 -4.304372,-2.38856 -10.81296,-0.24722 -12.637573,4.15778 -3.131192,7.55937 5.171594,14.21946 12.805393,10.27187 z m 87.999844,-22.26364 c -1.57681,-0.27737 -3.18429,-0.82168 -3.57219,-1.20957 -0.3879,-0.3879 -2.42683,-4.59653 -4.53095,-9.35251 -2.10414,-4.75598 -4.6087,-9.355153 -5.56571,-10.220372 -2.88933,-2.612236 -13.25647,-3.710408 -34.75567,-3.681617 -19.025514,0.02549 -28.654939,0.919814 -31.678595,2.942168 -0.830493,0.555463 -3.376846,5.279871 -5.658561,10.498671 l -4.148573,9.48872 -3.24056,0.49347 c -1.782308,0.27141 -3.38874,0.34528 -3.56985,0.16417 -0.362412,-0.36241 7.798282,-18.84262 9.867837,-22.346097 0.712591,-1.206322 2.208257,-2.732416 3.323703,-3.39133 6.881031,-4.064727 47.882879,-5.065883 66.759439,-1.630096 4.70263,0.855942 6.45764,1.547041 8.07206,3.17869 1.75403,1.772746 12.50836,24.921473 11.80306,25.406113 -0.13119,0.0901 -1.52863,-0.0631 -3.10544,-0.34041 z M 38.787866,53.538738 l 0,-26.777153 59.965736,0 59.965738,0 0,26.777153 0,26.777154 -59.965738,0 -59.965736,0 0,-26.777154 z m 116.914324,0.377143 0,-24.137152 -57.325731,0 -57.325735,0 0,24.137152 0,24.137153 57.325735,0 57.325731,0 0,-24.137153 z"
     id="path3663"
     style="fill:#000000" />
  <path
     d="m 39.974598,28.319622 116.978282,0 0,49.65266 -116.978282,0 0,-49.65266 z"
     id="rect3669"
     style="fill:#ed7b01;fill-opacity:1;stroke:none" />
  <g
     id="text3665"
     style="font-size:40.93182755px;font-style:normal;font-variant:normal;font-weight:normal;font-stretch:normal;text-align:start;line-height:100%;writing-mode:lr-tb;text-anchor:start;fill:#000000;fill-opacity:1;stroke:none;font-family:Transport Heavy;-inkscape-font-specification:'Transport Heavy,'">
    <path
       d="m 51.516047,37.842623 0.31978,0 0.239834,0 0.31978,0 1.43901,0 0.31978,0 1.439009,0 0.47967,0 0.559615,0 1.5989,0 0.639559,0 0.63956,0 0.63956,0 0.63956,0 1.598899,0 0.239835,0 0.239835,0 2.478294,0 0.559615,0 0.47967,0 0.559615,0 0.47967,0 0.399725,0 0.47967,0 0.319779,0 1.43901,0 0.879395,0 0.31978,0 0.31978,0 0.319779,0 0.31978,0 1.359065,0 0.239835,0 0.95934,0 0,6.075818 -0.47967,0 -0.239835,0 -1.5989,0 -1.039284,0 -0.31978,0 -1.43901,0 -0.31978,0 -0.31978,0 -0.31978,0 -1.359064,0 -0.239835,0 -0.95934,0 0,24.543108 -1.039284,0 -0.31978,0 -1.43901,0 -0.31978,0 -0.31978,0 -0.31978,0 -1.359064,0 -0.239835,0 -0.95934,0 0,-0.559615 0,-0.239835 0,-0.399725 0,-0.239835 0,-0.31978 0,-0.239834 0,-1.5989 0,-0.31978 0,-1.439009 0,-0.47967 0,-0.559615 0,-1.5989 0,-0.639559 0,-0.63956 0,-0.63956 0,-0.63956 0,-1.598899 0,-0.239835 0,-0.239835 0,-2.478294 0,-0.559615 0,-0.47967 0,-0.559615 0,-0.47967 0,-0.399725 0,-0.47967 0,-0.319779 0,-1.43901 0,-0.879395 0,-0.31978 0,-0.31978 0,-0.319779 0,-0.31978 0,-1.359065 0,-0.239835 0,-0.95934 -0.47967,0 -0.239835,0 -1.598899,0 -1.039285,0 -0.31978,0 -1.439009,0 -0.31978,0 -0.31978,0 -0.31978,0 -1.359065,0 -0.239835,0 -0.959339,0 0,-1.598899 0,-0.399725 0,-0.239835 0,-0.31978 0,-0.31978 0,-0.31978 0,-0.31978 0,-1.359064 0,-0.239835 0,-0.95934 z"
       id="path3694" />
    <path
       d="m 87.651176,37.922568 1.039284,0 2.478294,0 1.11923,0 0.239835,0 0.399725,0 0.239835,0 0.31978,0 0.239835,0 1.598899,0 0,0.239835 c 0.226491,0.479704 0.386381,0.906077 0.47967,1.27912 l 0.15989,0.559615 0.07995,0.319779 c 0.05328,0.07998 0.07992,0.159923 0.07994,0.239835 0.05328,0.07998 0.07992,0.159922 0.07994,0.239835 0.05328,0.07998 0.07992,0.159922 0.07995,0.239835 0.133221,0.213218 0.213166,0.426405 0.239835,0.63956 l 0.47967,1.27912 0,0.239835 c 0.253137,0.493023 0.413027,0.946044 0.47967,1.359064 0.253137,0.586291 0.413026,1.092609 0.479669,1.518955 0.07992,0.159916 0.13322,0.319806 0.15989,0.47967 l 0.15989,0.31978 c 0.07992,0.266508 0.159868,0.479695 0.239835,0.639559 l 0,0.239835 c 0.05327,0.07997 0.07992,0.159915 0.07995,0.239835 0.133219,0.213211 0.213164,0.426398 0.239835,0.63956 l 0.47967,1.27912 0.07994,0.319779 0.07994,0.15989 0.15989,0.719505 0.15989,0.31978 0.15989,0.399725 0.07995,0.239835 0.0799,0.31978 0.15989,0.47967 c 0.0799,0.266503 0.15987,0.479689 0.23984,0.639559 l 0,0.239835 c 0.0533,0.07996 0.0799,0.159909 0.0799,0.239835 0.13322,0.213206 0.21316,0.426392 0.23984,0.63956 l 0.47967,1.27912 0.0799,0.47967 0.23984,0.479669 0.15989,0.47967 0,0.239835 0.15989,0.239835 0.0799,0.31978 0.0799,0.399725 c 0.41302,0.946029 0.6795,1.745478 0.79945,2.398349 0.0533,0.07996 0.0799,0.159902 0.0799,0.239835 0.41302,0.946026 0.67951,1.745475 0.79945,2.398349 l 0.15989,0.239835 0.0799,0.31978 0.0799,0.31978 0.0799,0.239835 0.0799,0.31978 c 0.0533,0.07995 0.0799,0.159898 0.0799,0.239835 0.0533,0.07995 0.0799,0.159897 0.0799,0.239835 0.0533,0.07995 0.0799,0.159897 0.0799,0.239835 l 0.15989,0.239835 0,0.239835 c 0.0533,0.07995 0.0799,0.159896 0.0799,0.239835 0.13321,0.213192 0.21316,0.426379 0.23984,0.639559 0.17318,0.399731 0.27977,0.71951 0.31978,0.95934 l 0.15989,0.47967 -0.47967,0 -0.31978,0 -1.43901,0 -0.8794,0 -0.31978,0 -0.31978,0 -0.31978,0 -0.31978,0 -1.359066,0 -0.239835,0 -0.95934,0 -0.15989,-0.47967 0,-0.31978 -0.15989,-0.239835 0,-0.239835 C 98.044,66.969249 97.964055,66.702766 97.964077,66.462925 l -0.15989,-0.239835 0,-0.239835 -0.07994,-0.31978 -0.239834,-0.559615 -0.559615,-1.998624 -1.43901,0 -1.598899,0 -0.559615,0 -0.47967,0 -0.399725,0 -0.47967,0 -0.31978,0 -1.439009,0 -0.879395,0 -0.31978,0 -0.31978,0 -0.31978,0 -0.31978,0 -1.359064,0 -0.239835,0 -0.95934,0 -0.07994,0.399724 -0.07995,0.399725 -0.15989,0.31978 c -0.06663,0.29314 -0.146575,0.559623 -0.239835,0.79945 l -0.07995,0.399725 -0.07994,0.15989 -0.239835,0.79945 -0.07994,0.319779 -0.07995,0.239835 c -0.09328,0.279813 -0.173223,0.493 -0.239835,0.63956 l -0.239835,0.95934 -0.31978,0 -0.31978,0 -0.239835,0 -1.5989,0 -0.239834,0 -1.43901,0 -0.239835,0 -2.478294,0 0.15989,-0.63956 0.239835,-0.79945 0.07995,-0.239835 0.07994,-0.239835 0.07995,-0.239834 0.07994,-0.15989 0.399724,-1.27912 0.07995,-0.239835 0.07994,-0.239835 0.07994,-0.31978 0.15989,-0.31978 0.239835,-0.879394 0.07995,-0.239835 0.07994,-0.239835 0.07994,-0.239835 0.07995,-0.15989 c 0.159887,-0.6129 0.319776,-1.09257 0.47967,-1.43901 l 0.15989,-0.559615 0.07995,-0.159889 c 0.159886,-0.612898 0.319775,-1.092568 0.47967,-1.43901 0.06662,-0.266469 0.146561,-0.479655 0.239835,-0.63956 l 0.15989,-0.63956 0.239835,-0.559614 0.15989,-0.63956 0.07995,-0.15989 c 0.159884,-0.612894 0.319774,-1.092563 0.479669,-1.43901 l 0.15989,-0.63956 0.63956,-1.758789 0.15989,-0.559615 0.07994,-0.239835 0.07994,-0.239835 c 0.159883,-0.506296 0.319773,-0.932668 0.47967,-1.279119 l 0.15989,-0.47967 0.07995,-0.239835 0,-0.239835 0.07994,-0.239835 0.559615,-1.43901 0.07995,-0.479669 0.15989,-0.399725 0.159889,-0.31978 c 0.106585,-0.506291 0.239826,-0.932664 0.399725,-1.27912 l 0.07994,-0.399725 0.07994,-0.239835 0.07995,-0.15989 C 85.332761,43.14567 85.49265,42.666 85.65255,42.319542 l 0.07994,-0.31978 0.07995,-0.31978 c 0.146556,-0.306424 0.253149,-0.599555 0.31978,-0.879395 l 0.239835,-0.799449 0.07994,-0.239835 0.63956,-1.838735 z m 3.437633,7.035158 -0.239834,0.879395 -0.07994,0.15989 -0.399725,1.439009 -0.47967,1.359065 -0.07994,0.15989 -0.47967,1.758789 -0.07995,0.31978 -0.47967,1.359065 -0.15989,0.399725 c -0.05331,0.426393 -0.159902,0.799469 -0.31978,1.119229 -0.03999,0.306475 -0.11993,0.599606 -0.239835,0.879395 l -0.07994,0.31978 c -0.106605,0.319797 -0.213198,0.58628 -0.319779,0.79945 l -0.47967,1.758789 0.239835,0 0.31978,0 0.319779,0 0.31978,0 0.31978,0 1.359065,0 0.239835,0 0.959339,0 0.31978,0 0.879395,0 0.399725,0 0.239835,0 0.31978,0 0.239835,0 1.598899,0 -0.15989,-0.63956 -0.47967,-1.518954 -0.399724,-1.359065 c -0.199881,-0.506299 -0.333123,-0.932671 -0.399725,-1.279119 l -0.07994,-0.15989 c -0.106611,-0.38638 -0.213205,-0.70616 -0.31978,-0.95934 l -0.07994,-0.31978 -0.07994,-0.31978 -0.15989,-0.399725 -0.07994,-0.47967 -0.07995,-0.319779 -0.15989,-0.239835 -0.07994,-0.47967 -0.07994,-0.31978 c -0.07996,-0.159866 -0.133258,-0.319756 -0.15989,-0.47967 l -0.07994,-0.31978 c -0.199879,-0.3997 -0.33312,-0.772776 -0.399725,-1.11923 l -0.07994,-0.239834 -0.07995,-0.15989 -0.15989,-0.719505 -0.07995,-0.239835 -0.399725,-1.039285 z"
       id="path3696" />
    <path
       d="m 109.31627,38.002513 1.03928,0 0.31978,0 1.43901,0 0.31978,0 0.31978,0 0.31978,0 1.35906,0 0.63956,0 0.55962,0 0.15989,0.15989 0.31978,0.559615 c 0.23982,0.466379 0.47966,0.839455 0.7195,1.11923 l 0.15989,0.31978 0.23984,0.319779 c 0.29312,0.59962 0.58625,1.079289 0.87939,1.43901 l 0.08,0.239835 0.23983,0.31978 0.15989,0.239835 0.08,0.239835 0.23983,0.239835 0.0799,0.239835 0.0799,0.15989 0.15989,0.159889 0.0799,0.239835 0.23983,0.239835 0.23984,0.559615 0.15989,0.07995 c 0.29312,0.612939 0.6129,1.092608 0.95934,1.43901 l 0.15989,-0.399725 0.23983,-0.31978 0.23984,-0.47967 0.23983,-0.31978 0.08,-0.15989 0.87939,-1.359064 0.23984,-0.399725 0.55961,-1.039285 0.15989,-0.239835 0.47967,-0.63956 0.15989,-0.239835 0.0799,-0.31978 0.39972,-0.479669 0.0799,-0.239835 0.15989,-0.31978 0.15989,-0.239835 0.15989,-0.07995 c 0.15987,-0.413015 0.34641,-0.759443 0.55961,-1.039285 l 1.11923,0 1.03929,0 0.31978,0 1.43901,0 0.31978,0 0.31977,0 0.31978,0 1.35907,0 0.23983,0 0.95934,0 c -0.23986,0.519677 -0.50634,0.94605 -0.79945,1.27912 l -0.23983,0.559615 -0.31978,0.479669 -0.31978,0.47967 -0.95934,1.518955 -0.23984,0.47967 -0.31977,0.399725 -0.23984,0.479669 -0.31978,0.399725 -0.15989,0.399725 -0.31978,0.399725 c -0.17324,0.386428 -0.35977,0.67956 -0.55961,0.879395 -0.13327,0.319806 -0.29316,0.586289 -0.47967,0.79945 -0.13327,0.319805 -0.29316,0.586288 -0.47967,0.799449 l -0.08,0.239835 -1.03928,1.678845 -0.15989,0.15989 -0.0799,0.239835 -0.15989,0.15989 -0.15989,0.239835 -0.0799,0.239834 -1.35907,2.07857 c 0.19985,0.279827 0.35974,0.54631 0.47967,0.79945 l 0.23984,0.399724 0.23983,0.239835 0.08,0.31978 c 0.0799,0.06664 0.13322,0.146585 0.15989,0.239835 0.31976,0.346447 0.53294,0.692874 0.63956,1.039285 0.31976,0.346445 0.53294,0.692873 0.63956,1.039285 l 0.15989,0.07995 0.0799,0.239834 0.0799,0.15989 c 0.31975,0.426389 0.55959,0.799465 0.7195,1.11923 0.10657,0.173229 0.18652,0.333119 0.23984,0.47967 l 0.31978,0.399725 c 0.17319,0.266497 0.30643,0.506331 0.39972,0.719505 l 0.15989,0.15989 0.0799,0.239834 0.31978,0.47967 0.15989,0.15989 0.0799,0.239835 c 0.26646,0.333116 0.453,0.652895 0.55962,0.95934 l 0.23983,0.31978 0.15989,0.31978 0.23983,0.31978 0.23984,0.31978 0.15989,0.399724 c 0.26646,0.306465 0.453,0.599596 0.55961,0.879395 0.27979,0.333112 0.49297,0.67954 0.63956,1.039285 0.27979,0.333111 0.49297,0.679539 0.63956,1.039285 0.34641,0.39973 0.58624,0.799455 0.71951,1.199174 0.23981,0.253164 0.3997,0.519647 0.47967,0.79945 l -1.11923,0 -1.03929,0 -0.31978,0 -1.43901,0 -0.31977,0 -0.31978,0 -0.31978,0 -1.35907,0 -0.23983,0 -0.95934,0 -0.15989,-0.239835 -0.0799,-0.31978 -0.15989,-0.07995 -0.23983,-0.559615 c -0.3198,-0.346422 -0.53299,-0.69285 -0.63956,-1.039284 -0.11994,-0.119911 -0.19988,-0.253153 -0.23984,-0.399725 -0.11993,-0.119911 -0.19988,-0.253152 -0.23983,-0.399725 l -0.23984,-0.31978 -0.15989,-0.31978 -0.23983,-0.239835 -0.55962,-1.039285 c -0.11993,-0.133232 -0.19988,-0.266473 -0.23983,-0.399724 -0.33312,-0.386391 -0.57296,-0.732819 -0.71951,-1.039285 l -0.47967,-0.879395 -0.15989,-0.15989 -0.0799,-0.239835 c -0.19988,-0.213174 -0.33312,-0.426361 -0.39973,-0.63956 -0.0666,-0.05328 -0.0933,-0.10658 -0.0799,-0.15989 l -0.15989,-0.07994 c -0.27982,-0.612899 -0.5996,-1.092568 -0.95934,-1.43901 l -0.0799,0.239835 -0.79945,1.199175 -0.0799,0.159889 -0.63956,1.11923 -0.23984,0.31978 -0.0799,0.15989 -0.0799,0.15989 -0.15989,0.15989 -0.31978,0.559615 -0.0799,0.15989 c -0.18655,0.253169 -0.31979,0.466355 -0.39973,0.639559 l -0.15989,0.239835 -0.15989,0.31978 -0.23983,0.239835 c -0.13325,0.319788 -0.29314,0.586271 -0.47967,0.79945 l -0.15989,0.239835 -0.39973,0.79945 -0.47967,0.639559 -0.0799,0.239835 -0.15989,0.15989 -0.0799,0.239835 -0.0799,0.15989 c -0.31979,0.373082 -0.53298,0.71951 -0.63956,1.039285 l -1.11923,0 -1.03928,0 -0.31978,0 -1.43901,0 -0.31978,0 -0.31978,0 -0.31978,0 -1.35907,0 -0.23983,0 -0.95934,0 0.23983,-0.559615 0.15989,-0.31978 0.15989,-0.15989 0.31978,-0.559615 c 0.26648,-0.466339 0.50632,-0.839415 0.71951,-1.119229 l 0.31978,-0.47967 0.23983,-0.559615 0.31978,-0.47967 0.47967,-0.63956 0.0799,-0.31978 0.15989,-0.239834 0.23983,-0.239835 0.15989,-0.31978 0.0799,-0.239835 0.15989,-0.15989 0.87939,-1.43901 0.23984,-0.31978 0.15989,-0.31978 0.47967,-0.879394 0.31978,-0.31978 0.0799,-0.31978 0.23984,-0.31978 0.23983,-0.31978 0.15989,-0.399725 0.23983,-0.399725 0.31978,-0.31978 0.08,-0.319779 0.15989,-0.07995 c 0.15988,-0.413033 0.34642,-0.732812 0.55961,-0.95934 l 0.0799,-0.239835 0.15989,-0.15989 0.15989,-0.239835 0.31978,-0.559615 c 0.0933,-0.213168 0.2265,-0.399706 0.39972,-0.559615 0.21318,-0.506298 0.45302,-0.906023 0.71951,-1.199174 l -0.08,-0.239835 -0.31978,-0.47967 -0.15989,-0.15989 -0.0799,-0.239835 c -0.26649,-0.333082 -0.45303,-0.652862 -0.55962,-0.95934 l -0.15989,-0.07995 -0.0799,-0.239834 -0.15989,-0.15989 -0.63956,-1.11923 c -0.18655,-0.253135 -0.31979,-0.49297 -0.39973,-0.719505 l -0.15989,-0.15989 -0.0799,-0.239835 c -0.4397,-0.559589 -0.75948,-1.039258 -0.95934,-1.439009 l -0.31978,-0.47967 -0.15989,-0.399725 c -0.11992,-0.133214 -0.19987,-0.266456 -0.23983,-0.399725 -0.34644,-0.399697 -0.58627,-0.772773 -0.71951,-1.11923 l -0.23983,-0.319779 -0.15989,-0.31978 -0.15989,-0.31978 -0.23984,-0.239835 -0.15989,-0.31978 -0.23983,-0.31978 -0.0799,-0.239835 -0.15989,-0.31978 -0.23983,-0.239835 -0.0799,-0.239835 -0.23983,-0.239835 -0.0799,-0.239835 -0.15989,-0.239834 -0.15989,-0.239835 -0.31978,-0.47967 -0.0799,-0.239835 c -0.0666,-0.05326 -0.0933,-0.10656 -0.0799,-0.15989 -0.34643,-0.399691 -0.58626,-0.772767 -0.7195,-1.11923 z"
       id="path3698" />
    <path
       d="m 140.57475,38.002513 0.31978,0 1.43901,0 0.31978,0 0.31978,0 0.31978,0 1.35906,0 0.23984,0 0.95934,0 0,30.538981 -1.03929,0 -0.31978,0 -1.43901,0 -0.31978,0 -0.31978,0 -0.31978,0 -1.35906,0 -0.23984,0 -0.95934,0 0,-0.239835 0,-0.31978 0,-0.239835 0,-0.31978 0,-1.439009 0,-0.63956 0,-0.63956 0,-0.239835 0,-1.598899 0,-0.31978 0,-0.399725 0,-0.31978 0,-0.399725 0,-1.039285 0,-0.31978 0,-1.359064 0,-0.239835 0,-0.95934 0,-0.31978 0,-0.399725 0,-1.039284 0,-0.31978 0,-1.359065 0,-0.239835 0,-0.959339 0,-0.559615 0,-0.63956 0,-0.63956 0,-0.63956 0,-0.239834 0,-0.239835 0,-2.478295 0,-0.559614 0,-0.47967 0,-0.559615 0,-0.47967 0,-0.399725 0,-0.47967 0,-0.31978 0,-1.439009 0,-0.879395 0,-0.31978 0,-0.31978 0,-0.31978 0,-0.31978 0,-1.359064 0,-0.239835 0,-0.95934 z"
       id="path3700" />
  </g>
</svg>
