<?xml version="1.0" encoding="UTF-8" standalone="no"?>
<!-- Created with Inkscape (http://www.inkscape.org/) -->

<svg
   width="52.916664mm"
   height="52.916664mm"
   viewBox="0 0 52.916664 52.916664"
   version="1.1"
   id="svg14563"
   inkscape:version="1.2.1 (9c6d41e410, 2022-07-14)"
   sodipodi:docname="segnale stradale italiano - pineta male.svg"
   xmlns:inkscape="http://www.inkscape.org/namespaces/inkscape"
   xmlns:sodipodi="http://sodipodi.sourceforge.net/DTD/sodipodi-0.dtd"
   xmlns="http://www.w3.org/2000/svg"
   xmlns:svg="http://www.w3.org/2000/svg">
  <sodipodi:namedview
     id="namedview14565"
     pagecolor="#ffffff"
     bordercolor="#000000"
     borderopacity="0.25"
     inkscape:showpageshadow="2"
     inkscape:pageopacity="0.0"
     inkscape:pagecheckerboard="0"
     inkscape:deskcolor="#d1d1d1"
     inkscape:document-units="mm"
     showgrid="false"
     inkscape:zoom="0.76257015"
     inkscape:cx="219.65192"
     inkscape:cy="-129.16845"
     inkscape:window-width="1920"
     inkscape:window-height="991"
     inkscape:window-x="-9"
     inkscape:window-y="-9"
     inkscape:window-maximized="1"
     inkscape:current-layer="layer1" />
  <defs
     id="defs14560" />
  <g
     inkscape:label="Livello 1"
     inkscape:groupmode="layer"
     id="layer1"
     transform="translate(-47.097739,-61.323199)">
    <g
       id="g11740"
       transform="translate(174.61149,131.40949)">
      <rect
         x="-127.11675"
         y="-69.689293"
         width="52.122669"
         height="52.122669"
         rx="4.6301866"
         ry="4.6301866"
         fill="#ffffff"
         stroke="#000000"
         stroke-width="0.80368"
         style="fill-rule:evenodd;stroke:#000000;stroke-width:0.793996;paint-order:markers fill stroke"
         id="rect726-2-2-4" />
      <g
         id="g11731">
        <path
           id="rect2782"
           style="fill:#00408b;fill-rule:evenodd;stroke-width:0.825468;stroke-opacity:0.646154"
           d="m -124.18327,-34.191783 v 5.735626 h 14.36192 l 0.14496,-5.735626 z m 18.88681,0 -0.0998,5.735626 h 10.075525 v -5.735626 z m 14.711617,0 -1.072504,3.466937 0.139257,2.268689 h 12.850326 v -5.735626 z m -33.597917,6.595601 v 0.720717 h 14.3214 l 0.0182,-0.720717 z m 18.77146,0 -0.0125,0.720717 h 10.103065 v -0.720717 z m 13.946211,0 0.04414,0.720717 h 12.753674 v -0.720717 z m -32.717671,1.569792 v 0.720717 h 14.28139 l 0.0187,-0.720717 z m 18.74444,0 -0.0125,0.720717 h 10.130085 v -0.720717 z m 14.069883,0 0.04414,0.720717 h 12.657021 v -0.720717 z m -32.814323,1.635775 v 0.720205 h 14.24033 l 0.0182,-0.720205 z m 18.71586,0 -0.0125,0.720205 h 10.158665 v -0.720205 z m 14.198756,0 0.04465,0.720205 h 12.556217 v -0.720205 z m -32.914616,1.504312 v 0.720727 h 14.20188 l 0.0187,-0.720727 z m 18.68988,0 -0.0125,0.720727 h 10.184645 v -0.720727 z m 14.317225,0 0.04465,0.720727 h 12.463727 v -0.720727 z" />
        <path
           style="fill:#000000;fill-rule:evenodd;stroke-width:0.798396;stroke-opacity:0.646154"
           d="m -108.67221,-21.992517 0.72732,-18.325426 -0.6239,-2.601552 0.25043,1.61e-4 0.11206,0.147422 c 0.0592,0.09271 0.32203,0.0726 0.34132,-0.06546 l 0.27207,-5.55111 -3.05287,-2.775349 c -2.69785,0 -4.08634,-0.537247 -5.08814,-2.312792 l 1.06387,-3e-5 c 0.80548,0.654694 0.60331,1.357222 2.91413,1.357222 h 0.94052 l 3.99343,2.88287 c 0.77507,0.557057 1.39379,0.652181 1.67456,0.358042 l 2.21093,-2.624579 0.40089,0.308367 -2.25829,2.980468 -0.16711,0.282827 -0.36459,0.2506 c -0.19531,0.534503 -0.51133,1.003454 -0.50415,1.641688 l -0.40633,24.046632 z"
           id="path10001"
           sodipodi:nodetypes="cccccccccccccccccccccc" />
        <path
           style="fill:#27884d;fill-rule:evenodd;stroke-width:0.798396;stroke-opacity:0.646154"
           d="m -122.53354,-57.283518 c 0.0864,-4.13793 3.95679,-4.54304 8.94013,-4.622709 2.20315,-2.970151 10.58379,-3.011338 11.84023,-1.046652 3.180824,-0.12901 3.722768,1.428555 3.72869,3.488837 7.280139,-0.696716 9.010515,5.869774 2.267745,6.192672 -0.02675,0.716394 -0.148628,1.321555 -0.548942,1.718933 -1.228855,1.219866 -3.979013,1.032856 -5.718543,0.561662 -0.93259,-0.252621 -1.49512,-0.642618 -1.70232,-0.863252 -4.39234,1.795937 -6.81412,0.908552 -9.01646,-1.918854 -2.94629,0.703644 -9.79053,0.02061 -9.79053,-3.510637 z"
           id="path2515"
           sodipodi:nodetypes="cccccssccc" />
        <path
           style="fill:#000000;fill-rule:evenodd;stroke-width:0.798396;stroke-opacity:0.646154"
           d="m -91.896765,-22.165998 -2.112349,-2e-5 -0.138764,-13.382604 c -0.07813,-0.858869 -0.576383,-1.256327 -1.017622,-1.896491 l -2.112359,-2.466599 h 0.832614 l 1.557273,1.849834 c 0.464447,0.431988 1.24428,0.206597 1.665207,-0.154189 l 1.696047,-1.371863 h 1.218066 l -2.281943,2.111957 0.215859,4.101349 c 0.01146,0.182897 0.200805,0.191585 0.431716,0.008 l 0.161902,-0.03087 0.008,0.37776 -0.493396,1.819396 z"
           id="path10086"
           sodipodi:nodetypes="ccccccccccccccccc" />
        <path
           style="fill:#27884d;fill-rule:evenodd;stroke-width:0.798396;stroke-opacity:0.646154"
           d="m -102.6908,-42.717649 c -0.80736,-0.528912 -1.86083,-0.921262 -1.94066,-1.897054 -0.0798,-0.975792 0.37729,-2.56853 1.74441,-2.910996 1.63671,-2.242465 3.130032,-2.34329 4.70993,-2.540305 l 4.99338,0.654162 c 6.733562,-0.905666 9.121277,0.446116 9.877761,1.286512 0.756485,0.840397 1.185044,1.591663 0.61759,3.120107 1.126301,0.08366 2.379178,0.288609 3.09893,0.900507 1.139725,0.968955 1.423879,2.198232 -0.24523,3.479315 -0.74669,0.573095 -1.858511,1.072444 -3.68933,1.091318 -2.328891,0.214129 -4.738275,1.080086 -7.173926,0.11994 -1.491773,0.08406 -2.706018,0.02886 -3.619657,-0.523321 l -2.682046,0.16355 c -1.924856,0.09884 -3.242752,-0.389142 -3.990352,-0.784991 -0.65871,-0.376784 -1.30439,-0.75197 -1.55907,-1.417343 z"
           id="path2728"
           sodipodi:nodetypes="czccczcssccccccc" />
      </g>
    </g>
  </g>
</svg>
