<svg xmlns="http://www.w3.org/2000/svg" width="200" height="200" xmlns:v="https://vecta.io/nano"><path d="M-1.588-3.02h207.715v207.348H-1.588V-3.02z" fill="#fff"/><g stroke="#000"><path d="M21.468 2.404H178.27c10.239 0 18.481 8.314 18.481 18.642v158.169c0 10.328-8.243 18.642-18.481 18.642H21.468c-10.239 0-18.481-8.314-18.481-18.642V21.046c0-10.328 8.243-18.642 18.481-18.642z" fill="none" stroke-width="2.997"/><path d="M136.967 74.288c0 3.029-2.344 5.485-5.236 5.485s-5.236-2.456-5.236-5.485 2.344-5.485 5.236-5.485 5.236 2.456 5.236 5.485z" stroke-linejoin="round" stroke-width="5.788"/></g><path d="M118.681 181.651c-.871-.58-1.966-1.835-2.434-2.79-.838-1.709-.819-2.115 1.189-25.971l1.699-24.111c-.849.31-13.915 13.077-13.915 13.596 0 .321 1.887 4.542 4.192 9.379 4.467 9.372 4.957 11.351 3.505 14.16-.967 1.871-3.458 3.283-5.791 3.283-3.387 0-4.722-1.826-11.238-15.364-3.621-7.523-5.796-12.607-5.94-13.881-.225-1.999-.203-2.034 3.68-5.856l11.343-10.911 7.437-7.066-1.057-11.541-1.057-11.541-3.961-12.729c-2.179-7.001-3.897-12.911-3.818-13.133s3.788-4.706 8.243-9.965c8.819-10.41 9.7-11.1 12.847-10.062 2.394.79 3.975 2.906 3.975 5.321 0 1.897-.284 2.297-6.507 9.164-3.579 3.949-6.504 7.39-6.499 7.647s1.308 4.134 2.897 8.618l2.889 8.152 8.618.353c7.164.294 8.814.494 9.782 1.189.641.459 3.423 3.864 6.183 7.566l5.823 7.757c.746.953 1.606 1.096 11.889 1.979 6.944.596 11.565 1.2 12.37 1.617 1.599.827 2.398 2.519 2.398 5.078 0 2.265-.876 3.748-2.804 4.744-1.217.629-2.601.582-14.063-.477l-13.546-1.436c-.458-.144-2.498-2.473-4.533-5.176-2.243-2.979-3.79-4.661-3.929-4.272-.126.354-1.396 4.808-2.822 9.898l-2.594 9.255-2.345 26.828c-1.435 16.42-2.592 27.418-2.981 28.35-1.345 3.219-6.015 4.422-9.124 2.351zM41.963 87.586c-.433-.433-.293-.835.63-1.798l1.188-1.24-2.262-2.045c-1.244-1.125-2.426-2.316-2.627-2.648-.431-.712.551-2.074 1.204-1.67.603.372 3.17-2.125 3.17-3.084 0-.417-.625-1.356-1.389-2.088-1.35-1.293-1.416-1.307-2.32-.489-.772.698-1.055.74-1.654.242-.647-.537-.624-.706.222-1.606l.945-1.006-1.639-1.588c-.932-.903-1.53-1.871-1.387-2.244.138-.361.005-.953-.296-1.316-.44-.53-.194-1.023 1.247-2.499l1.795-1.839-1.367-1.426c-.819-.855-1.688-1.342-2.17-1.216-.981.256-1.881-.723-1.523-1.656.144-.376-.064-.954-.464-1.285-.56-.465-.603-.75-.187-1.251.456-.549.673-.527 1.415.145.835.756.964.708 2.728-1.014l1.851-1.808-1.489-1.536c-1.758-1.813-2.066-1.859-3.495-.517-.836.785-1.211.892-1.636.467s-.189-.926 1.029-2.183l1.581-1.631h-4.051-4.051v20.729 20.729h-2.096-2.096V57.167 27.122h2.096 2.096v7.22 7.22h21.893H70.75v2.096 2.096H67.86h-2.889l1.746 1.788c1.554 1.591 1.665 1.856 1.009 2.4-.627.52-.944.414-2.12-.713l-1.383-1.325-1.63 1.579-1.63 1.579 1.49 1.538c1.653 1.705 2.309 1.878 3.176.833.45-.543.734-.581 1.233-.166.55.457.532.667-.118 1.386-.422.466-.649 1.154-.505 1.53.324.844-.731 1.787-1.618 1.446-.373-.143-1.343.457-2.249 1.392l-1.593 1.644 2.001 2.039c1.324 1.349 1.818 2.152 1.46 2.373-.298.184-.415.664-.26 1.066.179.466-.346 1.374-1.449 2.503-1.7 1.741-1.715 1.788-.866 2.726.652.721.732 1.086.327 1.491s-.771.325-1.491-.327c-.938-.849-.986-.833-2.806.944l-1.851 1.808 1.471 1.517c.873.901 1.867 1.478 2.445 1.419 1.781-.179.944 2.011-1.629 4.262l-2.344 2.051 1.211 1.264c1.082 1.129 1.133 1.329.481 1.871-.615.51-.913.435-1.881-.475l-1.151-1.081-1.13 1.062c-1.841 1.729-2.97.293-1.232-1.568.891-.953.887-.975-.459-2.476-.747-.833-1.529-1.514-1.739-1.514s-1.057.698-1.883 1.55l-1.502 1.55 1.005 1.278c.74.94.868 1.415.486 1.798s-.829.229-1.69-.58l-1.171-1.1-1.078 1.013c-1.252 1.177-1.346 1.197-2.088.455zm5.038-6.205l1.589-1.639-1.73-1.73-1.73-1.73-1.73 1.73-1.73 1.73 1.589 1.639c.874.902 1.716 1.639 1.872 1.639s.998-.738 1.872-1.639zm9.218.102l1.49-1.538-1.632-1.582-1.632-1.582-1.632 1.582-1.632 1.582 1.49 1.538c.82.846 1.618 1.538 1.773 1.538s.954-.692 1.773-1.538zm-4.66-4.657l1.489-1.536-1.769-1.728-1.769-1.728-1.583 1.633-1.583 1.633 1.58 1.63c.869.897 1.708 1.63 1.863 1.63s.953-.691 1.772-1.536zm-4.942-4.374c.719-.688 1.306-1.486 1.306-1.772s-.692-1.191-1.538-2.01l-1.538-1.49-1.582 1.632-1.582 1.632 1.58 1.63c.869.897 1.685 1.63 1.813 1.63s.82-.563 1.539-1.252zm9.831-.516l1.726-1.768-1.769-1.727-1.769-1.727-1.819 1.863-1.819 1.863 1.582 1.632c.87.898 1.708 1.632 1.862 1.632s1.057-.795 2.006-1.768zm-4.936-4.379c.845-.819 1.536-1.721 1.536-2.005s-.691-1.186-1.536-2.005l-1.536-1.489-1.818 1.862-1.818 1.862 1.582 1.632c.87.898 1.688 1.632 1.818 1.632s.927-.67 1.772-1.489zm-9.553-.229c.719-.688 1.306-1.463 1.306-1.721 0-.652-2.387-3.083-3.028-3.083-.611 0-3.028 2.417-3.028 3.028 0 .581 2.403 3.028 2.973 3.028.258 0 1.058-.563 1.776-1.252zm19.382-.284l1.489-1.536-1.769-1.728-1.769-1.727-1.583 1.633-1.583 1.633 1.58 1.63c.869.897 1.708 1.63 1.863 1.63s.953-.691 1.772-1.536zm-14.465-8.114l-1.732-1.732-1.872 1.828-1.872 1.828 1.733 1.775 1.733 1.775 1.87-1.87 1.87-1.87-1.732-1.732zm9.524 3.74c1.667-1.597 1.646-2.441-.102-4.116l-1.408-1.349-1.719 1.719-1.719 1.719 1.589 1.639c.874.902 1.693 1.639 1.821 1.639s.82-.563 1.539-1.252zm-14.39-5.176l1.728-1.769-1.635-1.584-1.635-1.584-1.862 1.818-1.862 1.818 1.489 1.536c.819.845 1.615 1.536 1.769 1.536s1.057-.796 2.008-1.769zm11.039-1.677c0-.258-.671-1.161-1.491-2.008l-1.491-1.539-1.77 1.729-1.77 1.729 1.726 1.767 1.726 1.767 1.536-1.489c.845-.819 1.536-1.7 1.536-1.957zm8.393 1.807l1.589-1.639-1.73-1.73-1.73-1.73-1.73 1.73-1.73 1.73 1.589 1.639c.874.902 1.716 1.639 1.872 1.639s.998-.738 1.872-1.639zm-4.993-8.239l-1.726-1.767-1.536 1.489c-.845.819-1.536 1.7-1.536 1.957s.671 1.161 1.491 2.008l1.491 1.539 1.77-1.729 1.77-1.729-1.726-1.767zm-9.456 3.123l1.58-1.63-1.583-1.633-1.583-1.633-1.769 1.727-1.769 1.728 1.489 1.536c.819.845 1.616 1.536 1.772 1.536s.994-.734 1.863-1.63zm-4.425-4.891l1.819-1.863h-3.916-3.916l1.819 1.863c1.001 1.025 1.944 1.863 2.096 1.863s1.095-.838 2.096-1.863zm9.316 0l1.819-1.863h-3.588c-1.973 0-3.588.098-3.588.217 0 .372 2.874 3.51 3.214 3.51.178 0 1.142-.838 2.142-1.863zm9.782 0l1.819-1.863H59.57h-3.916l1.819 1.863c1.001 1.025 1.944 1.863 2.096 1.863s1.095-.838 2.096-1.863zm27.65-2.328c-4.46-.774-8.178-3.454-10.43-7.52-1.274-2.301-1.383-2.861-1.383-7.154s.108-4.854 1.382-7.153c4.679-8.448 15.905-10.384 23.036-3.972 3.448 3.1 4.924 6.435 4.924 11.125 0 3.136-.206 4.147-1.302 6.383-2.965 6.048-9.604 9.44-16.227 8.291z"/><path d="M80.085 29.058c.017-.817.021-.854.149-1.339.46-1.745 1.755-4.43 2.625-5.441.237-.275.503-.468.644-.468.218 0 .442.241.778.837.628 1.114 1.605 3.617 1.959 5.017.079.311.41 2.068.41 2.173 0 .057-.249.061-3.291.061h-3.291l.018-.84h0zm3.402 10.041c-.666-.483-2.153-2.577-2.756-3.882-.309-.669-.552-1.647-.624-2.513-.087-1.047.069-1.234 1.114-1.328.244-.022 1.501-.038 2.948-.039h2.524l-.021.102-.152.933-.222 1.237c-.179.803-.585 2.046-.947 2.896-.453 1.065-1.307 2.535-1.548 2.664-.103.055-.16.043-.316-.071h0zm6.193 3.777a47.09 47.09 0 0 1-3.122-1.249c-.786-.379-1.033-.632-1.077-1.101-.041-.442.104-.919.779-2.558 1.275-3.099 1.446-3.905 1.487-7.036.037-2.812-.096-4.011-.62-5.584-.291-.875-.987-2.39-1.838-4.001l-.449-.849.139-.124c.338-.302 2.446-1.208 3.91-1.68.637-.205 1.404-.394 1.602-.394.151 0 .193.016.257.098.227.289.336 1.244.414 3.632.066 2.036.068 16.791.002 17.876-.123 2.025-.304 2.745-.75 2.975-.131.068-.471.065-.734-.006h0zm2.991-12.259V18.188l.083.018.803.151c1.455.267 2.492.564 3.589 1.028l1.833.854c.006.005-.246.647-.561 1.427L97.147 25.3c-.419 1.67-.621 3.101-.714 5.065-.088 1.851.061 3.029.606 4.796l.967 2.873.808 2.356-.112.156c-.217.302-1.082.891-1.802 1.226-.831.387-1.722.718-2.401.891l-1.816.384c-.007 0-.012-5.593-.012-12.429zm5.107-1.578c.028-1.168.131-1.723.619-3.334.46-1.519 1.133-3.142 1.457-3.517.17-.196.273-.203.587-.037.289.152.872.734 1.224 1.221.806 1.115 1.629 2.757 1.921 3.83.177.649.203.885.203 1.819v.877h-3.015-3.015l.021-.859zm2.669 10.109c-.315-.108-.67-.595-1.2-1.642-.669-1.323-1.095-2.492-1.354-3.712-.083-.391-.096-.562-.115-1.452l-.021-1.009 2.581.015c2.776.016 2.93.026 3.192.213.2.143.236.26.25.83a3.01 3.01 0 0 1-.085.96c-.223 1.003-.679 2.176-1.357 3.49-.662 1.283-.912 1.694-1.244 2.043-.261.275-.423.34-.648.263h0z" fill="#f09c12"/></svg>