<?xml version="1.0" encoding="UTF-8" standalone="no"?>
<!-- Created with Inkscape (http://www.inkscape.org/) -->

<svg
   xmlns:dc="http://purl.org/dc/elements/1.1/"
   xmlns:cc="http://creativecommons.org/ns#"
   xmlns:rdf="http://www.w3.org/1999/02/22-rdf-syntax-ns#"
   xmlns:svg="http://www.w3.org/2000/svg"
   xmlns="http://www.w3.org/2000/svg"
   xmlns:sodipodi="http://sodipodi.sourceforge.net/DTD/sodipodi-0.dtd"
   xmlns:inkscape="http://www.inkscape.org/namespaces/inkscape"
   width="600"
   height="900"
   id="svg2"
   version="1.1"
   inkscape:version="0.48.5 r10040"
   sodipodi:docname="CANC Osped.svg">
  <defs
     id="defs4" />
  <sodipodi:namedview
     id="base"
     pagecolor="#ffffff"
     bordercolor="#666666"
     borderopacity="1.0"
     inkscape:pageopacity="0.0"
     inkscape:pageshadow="2"
     inkscape:zoom="0.24748737"
     inkscape:cx="178.45625"
     inkscape:cy="306.82365"
     inkscape:document-units="px"
     inkscape:current-layer="layer1"
     showgrid="false"
     inkscape:object-paths="true"
     inkscape:snap-intersection-paths="false"
     inkscape:object-nodes="false"
     inkscape:snap-smooth-nodes="true"
     inkscape:snap-object-midpoints="true"
     fit-margin-top="0"
     fit-margin-left="0"
     fit-margin-right="0"
     fit-margin-bottom="0"
     inkscape:snap-nodes="true"
     inkscape:window-width="1366"
     inkscape:window-height="705"
     inkscape:window-x="-8"
     inkscape:window-y="-8"
     inkscape:window-maximized="1" />
  <metadata
     id="metadata7">
    <rdf:RDF>
      <cc:Work
         rdf:about="">
        <dc:format>image/svg+xml</dc:format>
        <dc:type
           rdf:resource="http://purl.org/dc/dcmitype/StillImage" />
        <dc:title></dc:title>
      </cc:Work>
    </rdf:RDF>
  </metadata>
  <g
     inkscape:label="Livello 1"
     inkscape:groupmode="layer"
     id="layer1"
     transform="translate(0,-152.375)">
    <rect
       style="fill:#ffffff;fill-opacity:1;fill-rule:evenodd;stroke:#000000;stroke-width:0.99999994;stroke-opacity:1"
       id="rect2985"
       width="599"
       height="899"
       x="0.49999997"
       y="152.875" />
    <rect
       style="fill:none;stroke:#000000;stroke-width:12;stroke-miterlimit:4;stroke-opacity:1;stroke-dasharray:none"
       id="rect3755"
       width="576"
       height="876"
       x="12"
       y="164.375"
       rx="39.000023"
       ry="39.000023" />
    <path
       id="path9576-5-8"
       style="fill:#000000;fill-opacity:1;fill-rule:evenodd;stroke:none"
       d="m 464.77377,827.2963 0.2262,51.53385 -176.52687,0 10.62285,60.80115 c -0.2259,1.5831 -0.6774,3.1644 -1.5831,4.06845 -0.9033,1.12935 -3.16395,1.35525 -4.74645,1.35525 L 135,853.06225 292.9923,760.8433 c 1.5831,0 3.84255,0.4515 4.52055,0.90345 0.9033,1.12935 1.3572,2.2602 1.1295,3.8424 L 287.5674,827.2945 z"
       inkscape:connector-curvature="0" />
    <rect
       ry="50.70277"
       rx="50.70277"
       y="233"
       x="80.625"
       height="438.75"
       width="438.75"
       id="rect19093-4"
       style="fill:#ffffff;fill-opacity:1;stroke:#000000;stroke-width:11.25;stroke-linejoin:miter;stroke-miterlimit:4;stroke-opacity:1;stroke-dasharray:none" />
    <g
       style="font-size:26.94264221px;font-style:normal;font-weight:normal;line-height:125%;letter-spacing:0px;word-spacing:0px;fill:#000000;fill-opacity:1;stroke:none;font-family:Sans"
       id="text21076"
       transform="matrix(2.25,0,0,2.25,75.000147,227.375)">
      <path
         inkscape:connector-curvature="0"
         d="m 43.57569,76.095314 2.407472,-0.210489 c 0.114012,0.964748 0.379316,1.756275 0.795913,2.374583 0.416589,0.618316 1.063405,1.118228 1.94045,1.499737 0.877031,0.381514 1.863699,0.57227 2.960007,0.572268 0.973503,2e-6 1.833,-0.144709 2.578495,-0.434134 0.74547,-0.289421 1.300197,-0.68628 1.664181,-1.190581 0.363958,-0.504293 0.545943,-1.054635 0.545957,-1.651026 -1.4e-5,-0.605151 -0.175421,-1.133567 -0.526223,-1.585248 -0.350829,-0.451668 -0.929674,-0.830987 -1.736538,-1.137959 -0.517464,-0.201711 -1.661999,-0.515252 -3.433608,-0.940624 -1.771626,-0.425355 -3.012635,-0.8266 -3.723031,-1.203736 -0.920895,-0.482361 -1.607177,-1.08094 -2.058849,-1.795738 -0.451678,-0.714774 -0.677515,-1.515072 -0.677513,-2.400895 -2e-6,-0.973498 0.276265,-1.883425 0.828802,-2.729784 0.552531,-0.846325 1.359406,-1.488755 2.420628,-1.927293 1.061211,-0.438501 2.240827,-0.65776 3.538853,-0.65778 1.429563,2e-5 2.690306,0.230242 3.782231,0.690669 1.0919,0.460464 1.931664,1.137976 2.519295,2.032538 0.587601,0.894596 0.903334,1.907575 0.947202,3.03894 l -2.446939,0.184179 c -0.131569,-1.21907 -0.576666,-2.13996 -1.335292,-2.762674 -0.75865,-0.62268 -1.879067,-0.934029 -3.361253,-0.934046 -1.543596,1.7e-5 -2.668397,0.282862 -3.374408,0.848535 -0.706021,0.565706 -1.059029,1.247603 -1.059024,2.045694 -5e-6,0.692874 0.249951,1.262949 0.749868,1.710226 0.491136,0.447302 1.773805,0.905555 3.848009,1.374759 2.074187,0.469227 3.497181,0.879242 4.268988,1.230047 1.122596,0.517463 1.951397,1.173049 2.486406,1.966761 0.534978,0.793727 0.802474,1.70804 0.802491,2.742939 -1.7e-5,1.026141 -0.293824,1.993075 -0.881424,2.900807 -0.587632,0.907738 -1.431781,1.613753 -2.532451,2.11805 -1.100696,0.504297 -2.339512,0.756446 -3.716453,0.756446 -1.745316,0 -3.207777,-0.254341 -4.387388,-0.763024 -1.179622,-0.508682 -2.104897,-1.273898 -2.775829,-2.29565 -0.670937,-1.021747 -1.023945,-2.177245 -1.059025,-3.466497 z"
         style="text-align:center;text-anchor:middle"
         id="path21083" />
      <path
         inkscape:connector-curvature="0"
         d="m 67.347836,82.291595 0,-17.010174 -6.354149,0 0,-2.275916 15.286793,0 0,2.275916 -6.38046,0 0,17.010174 z"
         style="text-align:center;text-anchor:middle"
         id="path21085" />
      <path
         inkscape:connector-curvature="0"
         d="m 78.964217,82.291595 0,-19.28609 13.944922,0 0,2.275916 -11.392738,0 0,5.906859 10.669181,0 0,2.262761 -10.669181,0 0,6.564638 11.840028,0 0,2.275916 z"
         style="text-align:center;text-anchor:middle"
         id="path21087" />
      <path
         inkscape:connector-curvature="0"
         d="m 96.829507,82.291595 0,-19.28609 3.841433,0 4.56499,13.655499 c 0.42096,1.271711 0.72793,2.223298 0.92089,2.854763 0.21925,-0.701628 0.56129,-1.732148 1.02613,-3.091563 l 4.61761,-13.418699 3.43361,0 0,19.28609 -2.46009,0 0,-16.141905 -5.60428,16.141905 -2.30223,0 -5.577969,-16.418172 0,16.418172 z"
         style="text-align:center;text-anchor:middle"
         id="path21089" />
      <path
         inkscape:connector-curvature="0"
         d="m 119.29924,82.291595 0,-19.28609 3.84144,0 4.56498,13.655499 c 0.42097,1.271711 0.72794,2.223298 0.9209,2.854763 0.21924,-0.701628 0.56129,-1.732148 1.02613,-3.091563 l 4.61761,-13.418699 3.43361,0 0,19.28609 -2.46009,0 0,-16.141905 -5.60428,16.141905 -2.30223,0 -5.57797,-16.418172 0,16.418172 z"
         style="text-align:center;text-anchor:middle"
         id="path21091" />
      <path
         inkscape:connector-curvature="0"
         d="m 139.72987,82.291595 7.4066,-19.28609 2.74951,0 7.89336,19.28609 -2.90739,0 -2.2496,-5.84108 -8.06438,0 -2.11805,5.84108 z m 5.56481,-7.919663 6.53833,0 -2.0128,-5.341168 c -0.61394,-1.622508 -1.07,-2.955606 -1.36819,-3.999299 -0.24557,1.236641 -0.592,2.464495 -1.03929,3.683565 z"
         style="text-align:center;text-anchor:middle"
         id="path21093" />
      <path
         inkscape:connector-curvature="0"
         d="m 39.497458,109.20793 2.552184,0.64462 c -0.535012,2.09613 -1.497561,3.69453 -2.887651,4.79521 -1.390122,1.10069 -3.089383,1.65103 -5.09779,1.65103 -2.078592,0 -3.769083,-0.42317 -5.071479,-1.26952 -1.302407,-0.84634 -2.293461,-2.072 -2.973163,-3.67698 -0.679707,-1.60498 -1.019559,-3.32836 -1.019558,-5.17015 -1e-6,-2.00841 0.383703,-3.76029 1.151114,-5.25566 0.767406,-1.495331 1.859319,-2.631095 3.275741,-3.407293 1.416411,-0.77616 2.975347,-1.164249 4.676811,-1.164269 1.929474,2e-5 3.551995,0.491161 4.867568,1.473426 1.315542,0.982301 2.232047,2.363636 2.749517,4.144006 l -2.512717,0.59201 c -0.447305,-1.40325 -1.096313,-2.425 -1.947027,-3.065257 -0.85074,-0.640221 -1.920727,-0.96034 -3.209963,-0.960358 -1.482205,1.8e-5 -2.721022,0.355218 -3.716453,1.065603 -0.995445,0.710422 -1.694883,1.664192 -2.098316,2.861342 -0.403443,1.19717 -0.605161,2.4316 -0.605157,3.7033 -4e-6,1.64007 0.238988,3.07183 0.716979,4.2953 0.477981,1.22347 1.221271,2.13778 2.229872,2.74293 1.008587,0.60516 2.1005,0.90774 3.275741,0.90774 1.429562,0 2.639875,-0.41221 3.630942,-1.23662 0.99104,-0.82442 1.661974,-2.04789 2.012805,-3.67041 z"
         style="text-align:center;text-anchor:middle"
         id="path21095" />
      <path
         inkscape:connector-curvature="0"
         d="m 44.430803,106.57681 c -2e-6,-3.20118 0.859496,-5.70732 2.578495,-7.518419 1.718991,-1.811067 3.937898,-2.716609 6.656727,-2.716629 1.780377,2e-5 3.385357,0.425384 4.814945,1.276092 1.429557,0.850746 2.519277,2.03694 3.269163,3.558586 0.749849,1.52168 1.124783,3.24725 1.124803,5.17672 -2e-5,1.95581 -0.394687,3.7055 -1.184003,5.24908 -0.789353,1.5436 -1.907577,2.71225 -3.354675,3.50597 -1.447128,0.79372 -3.008256,1.19058 -4.683389,1.19058 -1.81548,0 -3.438,-0.43852 -4.867567,-1.31556 -1.429578,-0.87704 -2.51272,-2.0742 -3.24943,-3.59148 -0.736715,-1.51727 -1.105071,-3.12225 -1.105069,-4.81494 z m 2.631117,0.0395 c -4e-6,2.32416 0.624886,4.15497 1.874671,5.49245 1.249774,1.33749 2.81748,2.00623 4.703123,2.00623 1.920703,0 3.501564,-0.67532 4.742589,-2.02596 1.240994,-1.35063 1.861498,-3.26696 1.861515,-5.74899 -1.7e-5,-1.56989 -0.265321,-2.94026 -0.795913,-4.11112 -0.530624,-1.17083 -1.306803,-2.07857 -2.328539,-2.723209 -1.021763,-0.644607 -2.168491,-0.966918 -3.440186,-0.966936 -1.806709,1.8e-5 -3.361259,0.620522 -4.663655,1.861515 -1.302408,1.24103 -1.953609,3.31303 -1.953605,6.21602 z"
         style="text-align:center;text-anchor:middle"
         id="path21097" />
      <path
         inkscape:connector-curvature="0"
         d="m 66.071744,115.9699 0,-19.286092 3.841431,0 4.564989,13.655502 c 0.420968,1.27171 0.727931,2.22329 0.920891,2.85476 0.219248,-0.70163 0.561293,-1.73215 1.026136,-3.09156 l 4.617611,-13.418702 3.433608,0 0,19.286092 -2.460095,0 0,-16.141907 -5.60428,16.141907 -2.302228,0 -5.577968,-16.418174 0,16.418174 z"
         style="text-align:center;text-anchor:middle"
         id="path21099" />
      <path
         inkscape:connector-curvature="0"
         d="m 101.27609,96.683808 2.55219,0 0,11.142782 c -2e-5,1.93826 -0.21928,3.47746 -0.65778,4.61761 -0.43854,1.14015 -1.23006,2.06762 -2.37459,2.78241 -1.144544,0.71478 -2.646472,1.07218 -4.505784,1.07218 -1.806708,0 -3.284518,-0.31135 -4.433432,-0.93405 -1.148926,-0.6227 -1.968957,-1.52385 -2.460095,-2.70347 -0.491145,-1.17962 -0.736715,-2.79117 -0.736713,-4.83468 l 0,-11.142782 2.552184,0 0,11.129622 c -5e-6,1.67516 0.155669,2.90959 0.467023,3.7033 0.311344,0.79373 0.846337,1.40546 1.604982,1.83521 0.758631,0.42975 1.686099,0.64462 2.782406,0.64462 1.876853,0 3.214336,-0.42536 4.012459,-1.27609 0.79809,-0.85073 1.19714,-2.4864 1.19715,-4.90704 z"
         style="text-align:center;text-anchor:middle"
         id="path21101" />
      <path
         inkscape:connector-curvature="0"
         d="m 108.06438,115.9699 0,-19.286092 2.61796,0 10.1298,15.142082 0,-15.142082 2.44694,0 0,19.286092 -2.61796,0 -10.1298,-15.15524 0,15.15524 z"
         style="text-align:center;text-anchor:middle"
         id="path21103" />
      <path
         inkscape:connector-curvature="0"
         d="m 125.44291,115.9699 7.40659,-19.286092 2.74952,0 7.89335,19.286092 -2.90738,0 -2.24961,-5.84108 -8.06437,0 -2.11805,5.84108 z m 5.56481,-7.91967 6.53833,0 -2.01281,-5.34116 c -0.61394,-1.62251 -1.07,-2.955609 -1.36818,-3.999302 -0.24558,1.236641 -0.59201,2.464492 -1.03929,3.683562 z"
         style="text-align:center;text-anchor:middle"
         id="path21105" />
      <path
         inkscape:connector-curvature="0"
         d="m 145.45255,115.9699 0,-19.286092 2.55219,0 0,17.010172 9.49833,0 0,2.27592 z"
         style="text-align:center;text-anchor:middle"
         id="path21107" />
      <path
         inkscape:connector-curvature="0"
         d="m 160.60779,115.9699 0,-19.286092 13.94492,0 0,2.275916 -11.39274,0 0,5.906856 10.66918,0 0,2.26276 -10.66918,0 0,6.56464 11.84003,0 0,2.27592 z"
         style="text-align:center;text-anchor:middle"
         id="path21109" />
    </g>
  </g>
</svg>
