<?xml version="1.0" encoding="UTF-8" standalone="no"?>
<svg
   width="106.36mm"
   height="159.28mm"
   version="1.1"
   viewBox="0 0 106.36 159.28"
   id="svg26386"
   sodipodi:docname="result (61).svg"
   inkscape:version="1.2.1 (9c6d41e410, 2022-07-14)"
   xmlns:inkscape="http://www.inkscape.org/namespaces/inkscape"
   xmlns:sodipodi="http://sodipodi.sourceforge.net/DTD/sodipodi-0.dtd"
   xmlns="http://www.w3.org/2000/svg"
   xmlns:svg="http://www.w3.org/2000/svg">
  <defs
     id="defs26390" />
  <sodipodi:namedview
     id="namedview26388"
     pagecolor="#ffffff"
     bordercolor="#000000"
     borderopacity="0.25"
     inkscape:showpageshadow="2"
     inkscape:pageopacity="0.0"
     inkscape:pagecheckerboard="0"
     inkscape:deskcolor="#d1d1d1"
     inkscape:document-units="mm"
     showgrid="false"
     inkscape:zoom="0.71095974"
     inkscape:cx="203.24639"
     inkscape:cy="422.6681"
     inkscape:window-width="1920"
     inkscape:window-height="991"
     inkscape:window-x="-9"
     inkscape:window-y="-9"
     inkscape:window-maximized="1"
     inkscape:current-layer="svg26386" />
  <g
     transform="translate(-76.93 -16.122)"
     id="g26384">
    <g
       transform="translate(-352.57 -1819.7)"
       id="g26382">
      <rect
         x="429.5"
         y="1835.8"
         width="106.36"
         height="159.28"
         stroke-linejoin="bevel"
         stroke-width="28.931"
         id="rect26340" />
      <rect
         x="429.76"
         y="1836.1"
         width="105.83"
         height="158.75"
         fill="#fff"
         stroke-linejoin="bevel"
         stroke-width="28.811"
         id="rect26342" />
      <rect
         x="431.88"
         y="1838.2"
         width="101.6"
         height="154.52"
         rx="6.8792"
         ry="6.8792"
         fill="#fff"
         stroke="#000"
         stroke-width="2.1167"
         id="rect26344" />
      <rect
         x="493.79"
         y="1938.5"
         width="28.046"
         height="28.046"
         rx="3.7042"
         ry="3.7042"
         fill="#fff"
         stroke="#000"
         stroke-linejoin="bevel"
         stroke-width="1.058"
         id="rect26346" />
      <circle
         cx="482.68"
         cy="1889"
         r="39.952"
         stroke-linejoin="bevel"
         stroke-width="37.272"
         id="circle26348" />
      <g
         transform="translate(-4.6537 .36803)"
         stroke-linejoin="bevel"
         id="g26356">
        <rect
           x="448.18"
           y="1938.1"
           width="28.046"
           height="28.046"
           rx="3.7042"
           ry="3.7042"
           fill="#00408b"
           stroke="#00408b"
           stroke-width="1.0583"
           id="rect26350" />
        <g
           fill="#fff"
           stroke-width="8.4593"
           aria-label="P"
           id="g26354">
          <path
             d="m455.34 1941.9v20.238h4.136v-6.8933q2.3932 0 3.5637 0 1.1706-0.026 1.3006-0.026 1.0665 0 2.159-0.5203 1.1185-0.5462 2.003-1.4827 0.91043-0.9364 1.4567-2.159 0.57227-1.2486 0.57227-2.6273 0-1.3526-0.57227-2.5492-0.57228-1.1966-1.4827-2.081-0.88442-0.8844-1.977-1.3787-1.0925-0.5202-2.159-0.5202zm4.136 3.5637h4.136q1.2226 0.2081 1.9509 0.9625 0.75437 0.7283 0.75437 1.9769 0 0.5463-0.18209 1.1185-0.15608 0.5463-0.49424 0.9885t-0.85841 0.7284q-0.49424 0.2861-1.1706 0.2861h-4.136z"
             id="path26352" />
        </g>
      </g>
      <g
         transform="matrix(.5 0 0 .5 275.82 692.54)"
         id="g26374">
        <circle
           cx="413.72"
           cy="2392.9"
           r="79.375"
           fill="#fff"
           stroke-linejoin="bevel"
           stroke-opacity=".64308"
           stroke-width="18.92"
           id="circle26358" />
        <circle
           cx="413.72"
           cy="2392.9"
           r="76.729"
           fill="#d40000"
           stroke-linejoin="bevel"
           stroke-opacity=".64308"
           stroke-width="18.29"
           id="circle26360" />
        <circle
           cx="413.72"
           cy="2392.9"
           r="56.885"
           fill="#fff"
           stroke-linejoin="bevel"
           stroke-width="10.817"
           id="circle26362" />
        <circle
           cx="413.72"
           cy="2392.9"
           r="52.917"
           fill="#00408b"
           stroke-linejoin="bevel"
           stroke-width="12.909"
           id="circle26364" />
        <g
           transform="rotate(45 -1107.5 1987.5)"
           id="g26372">
          <g
             stroke-linejoin="bevel"
             id="g26370">
            <path
               d="m201.86 1188.9v19.182h105.83v-19.182z"
               color="#000000"
               fill="#fff"
               id="path26366" />
            <path
               d="m 196.39334,1192.9001 1.2e-4,11.244 h 116.76348 v -11.244 z"
               color="#000000"
               fill="#d40000"
               id="path26368"
               sodipodi:nodetypes="ccccc" />
          </g>
        </g>
      </g>
      <g
         transform="translate(-109.89 55.125)"
         fill="#0086c1"
         fill-opacity=".71385"
         stroke="#000"
         stroke-dasharray="2.14313, 2.14313"
         stroke-width=".79375"
         id="g26380">
        <path
           d="m552.88 1919.4h79.375"
           id="path26376" />
        <path
           d="m552.88 1928.7 79.375 1e-4"
           id="path26378" />
      </g>
    </g>
  </g>
</svg>
