<?xml version="1.0" encoding="UTF-8" standalone="no"?>
<!-- Created with Inkscape (http://www.inkscape.org/) -->

<svg
   width="89.958336mm"
   height="162.71875mm"
   viewBox="0 0 89.958336 162.71875"
   version="1.1"
   id="svg23705"
   inkscape:version="1.2.1 (9c6d41e410, 2022-07-14)"
   sodipodi:docname="Segnale stradale italiano - dimensione e forma dei simboli delle lanterne semaforiche pedonali (figura II 455).svg"
   xmlns:inkscape="http://www.inkscape.org/namespaces/inkscape"
   xmlns:sodipodi="http://sodipodi.sourceforge.net/DTD/sodipodi-0.dtd"
   xmlns="http://www.w3.org/2000/svg"
   xmlns:svg="http://www.w3.org/2000/svg">
  <sodipodi:namedview
     id="namedview23707"
     pagecolor="#ffffff"
     bordercolor="#000000"
     borderopacity="0.25"
     inkscape:showpageshadow="2"
     inkscape:pageopacity="0.0"
     inkscape:pagecheckerboard="0"
     inkscape:deskcolor="#d1d1d1"
     inkscape:document-units="mm"
     showgrid="false"
     inkscape:zoom="0.76257015"
     inkscape:cx="211.7838"
     inkscape:cy="245.87902"
     inkscape:window-width="1920"
     inkscape:window-height="991"
     inkscape:window-x="-9"
     inkscape:window-y="-9"
     inkscape:window-maximized="1"
     inkscape:current-layer="layer1" />
  <defs
     id="defs23702" />
  <g
     inkscape:label="Livello 1"
     inkscape:groupmode="layer"
     id="layer1"
     transform="translate(-49.394692,-50.832594)">
    <g
       id="g13903"
       transform="translate(-5787.7723,-17605.601)">
      <rect
         style="fill:#ffffff;fill-rule:evenodd;stroke-width:0.521411;paint-order:markers fill stroke"
         id="rect13568"
         x="5837.167"
         y="17656.434"
         width="89.958336"
         height="162.71875" />
      <circle
         style="fill:#000000;fill-rule:evenodd;stroke-width:0.353632;paint-order:markers fill stroke"
         id="path16018-6"
         cx="5887.2363"
         cy="17693.721"
         r="26.458334" />
      <g
         id="g17506"
         style="fill:#ffffff"
         transform="matrix(0.99999798,0,0,1,2584.3311,3533.0023)">
        <path
           id="path15939-3"
           style="fill-rule:evenodd;stroke-width:0.327719;paint-order:markers fill stroke"
           d="m 3302.9118,14145.766 c -6.5116,0 -7.9346,2.896 -7.9346,6.01 v 9.775 c 0,0 -0.072,1.329 1.2756,1.329 1.3476,0 1.2757,-1.329 1.2757,-1.329 v -9.909 h 0.1916 l 0.8324,6.599 v 20.736 c 0,0 -0.249,1.735 1.8765,1.735 2.1251,0 1.8763,-1.735 1.8763,-1.735 v -17.44 c 0,-0.4 0.043,-0.98 0.6065,-0.98 0.5637,0 0.6064,0.58 0.6064,0.98 l -4e-4,17.44 c 0,0 -0.2489,1.735 1.8765,1.735 2.1253,0 1.8764,-1.735 1.8764,-1.735 v -20.736 l 0.8327,-6.599 h 0.1915 v 9.909 c 0,0 -0.072,1.329 1.2755,1.329 1.3477,0 1.276,-1.329 1.276,-1.329 v -9.775 c 0,-3.114 -1.4229,-6.01 -7.9346,-6.01 z" />
        <ellipse
           style="fill-rule:evenodd;stroke-width:0.352;paint-order:markers fill stroke"
           id="path16016-1"
           cx="3302.9119"
           cy="14141.392"
           rx="3.0130751"
           ry="3.0130157" />
      </g>
      <circle
         style="fill:#000000;fill-rule:evenodd;stroke-width:0.373689;paint-order:markers fill stroke"
         id="path18594"
         cx="5887.2363"
         cy="17770.891"
         r="26.458334" />
      <g
         id="g18598"
         transform="translate(2584.2906,3533.0023)">
        <path
           style="fill:#ffffff;fill-rule:evenodd;stroke-width:0.326111;paint-order:markers fill stroke"
           d="m 3305.2243,14223.718 8.2755,8.624 v 4.869 c 0,0 -0.18,1.774 -1.9213,1.774 -1.7413,0 -1.9213,-1.834 -1.9213,-1.834 v -3.646 l -2.2103,-2.137 c -0.3273,-0.262 -0.7752,-0.242 -0.7752,0.448 l -0.3274,4.894 7.7421,18.359 c 0,0 1.0881,1.896 -0.9186,2.904 -2.0069,1.009 -3.3261,-1.374 -3.3261,-1.374 l -6.7369,-16.46 -7.8056,16.214 c 0,0 -1.2893,2.517 -3.3001,1.579 -2.0108,-0.936 -1.0078,-2.957 -1.0078,-2.957 l 9.3048,-18.781 -1.2062,-3.206 c -0.1451,-0.187 -0.4975,-0.265 -0.6547,0 l -3.722,5.276 c 0,0 -1.3842,1.496 -2.757,0.551 -1.3728,-0.946 -0.4134,-2.447 -0.4134,-2.447 l 7.0647,-9.718 c 1.397,-1.881 3.3036,-3.344 5.6863,-3.343 z"
           id="path18484"
           sodipodi:nodetypes="ccczcccccczccczccccczcccc" />
        <circle
           style="fill:#ffffff;fill-rule:evenodd;stroke-width:0.362038;paint-order:markers fill stroke"
           id="path18592"
           cx="3300.3977"
           cy="14219.081"
           r="3.1922622" />
      </g>
      <path
         style="fill:none;fill-rule:evenodd;stroke:#000000;stroke-width:0.529;paint-order:markers fill stroke"
         d="m 5879.301,17722.011 v 3.969 h 15.875 v -3.969"
         id="path9607"
         sodipodi:nodetypes="cccc" />
      <path
         style="fill:none;fill-rule:evenodd;stroke:#000000;stroke-width:0.529;paint-order:markers fill stroke"
         d="m 5875.297,17799.849 -5e-4,3.969 h 23.813 v -3.969"
         id="path9607-23"
         sodipodi:nodetypes="cccc" />
      <path
         style="fill:none;fill-rule:evenodd;stroke:#000000;stroke-width:0.529;paint-order:markers fill stroke"
         d="m 5858.4043,17671.117 h -3.969 v 42.333 h 3.969"
         id="path9607-2"
         sodipodi:nodetypes="cccc" />
      <path
         style="fill:none;fill-rule:evenodd;stroke:#000000;stroke-width:0.529;paint-order:markers fill stroke"
         d="m 5858.4043,17748.627 h -3.969 v 42.333 h 3.969"
         id="path9607-2-2"
         sodipodi:nodetypes="cccc" />
      <g
         aria-label="A"
         id="text13440"
         style="font-size:7.9375px;font-family:'Stradale Normale Negativo';-inkscape-font-specification:'Stradale Normale Negativo';fill-rule:evenodd;stroke-width:0.529;paint-order:markers fill stroke">
        <path
           d="m 5849.0568,17696.619 -2.0003,-6.191 h -1.6986 l -2.0003,6.191 h 1.2542 l 0.3413,-1.063 h 2.4685 l 0.3493,1.063 z m -2.0003,-2.183 h -1.7383 l 0.8731,-2.675 z"
           id="path13556" />
      </g>
      <g
         aria-label="B"
         id="text13496"
         style="font-size:7.9375px;font-family:'Stradale Normale Negativo';-inkscape-font-specification:'Stradale Normale Negativo';fill-rule:evenodd;stroke-width:0.529;paint-order:markers fill stroke">
        <path
           d="m 5887.9563,17729.731 q 0.1191,0 0.2302,0.06 0.1111,0.05 0.1984,0.143 0.087,0.09 0.135,0.207 0.055,0.111 0.055,0.23 0.01,0.127 -0.04,0.262 -0.04,0.127 -0.119,0.238 -0.079,0.103 -0.1826,0.175 -0.1032,0.06 -0.2222,0.06 h -1.4764 v -1.373 z m -0.016,2.405 q 0.4287,0 0.6668,0.19 0.2381,0.191 0.2381,0.596 0,0.349 -0.2699,0.547 -0.2619,0.199 -0.6747,0.199 h -1.3652 v -1.532 z m 1.3256,-0.659 q 0.1349,-0.09 0.254,-0.238 0.1191,-0.151 0.1984,-0.317 0.087,-0.175 0.127,-0.35 0.04,-0.182 0.032,-0.349 -0.064,-0.762 -0.4842,-1.191 -0.4207,-0.436 -1.1748,-0.436 h -2.9448 v 6.191 h 2.8337 q 0.4445,0 0.8176,-0.111 0.373,-0.119 0.6429,-0.341 0.2699,-0.231 0.4207,-0.564 0.1508,-0.341 0.1508,-0.778 0,-0.524 -0.2302,-0.889 -0.2222,-0.373 -0.6429,-0.627 z"
           id="path13562" />
      </g>
      <g
         aria-label="C"
         id="text13550"
         style="font-size:7.9375px;font-family:'Stradale Normale Negativo';-inkscape-font-specification:'Stradale Normale Negativo';fill-rule:evenodd;stroke-width:0.529;paint-order:markers fill stroke">
        <path
           d="m 5846.2077,17772.739 q 0.4762,0 0.9048,-0.151 0.4366,-0.151 0.7938,-0.421 0.3572,-0.277 0.6112,-0.643 0.2619,-0.365 0.3968,-0.785 l -1.1588,-0.453 q -0.064,0.262 -0.2064,0.5 -0.1349,0.23 -0.3334,0.405 -0.1984,0.167 -0.4524,0.27 -0.254,0.103 -0.5477,0.103 -0.4763,0 -0.762,-0.175 -0.2858,-0.182 -0.4921,-0.452 -0.2064,-0.27 -0.2778,-0.579 -0.063,-0.318 -0.056,-0.762 -0.024,-0.437 0.04,-0.818 0.071,-0.389 0.254,-0.675 0.1905,-0.293 0.5,-0.468 0.3175,-0.183 0.7859,-0.222 0.3016,0 0.5635,0.111 0.262,0.103 0.4604,0.286 0.2064,0.174 0.3334,0.412 0.1349,0.239 0.1825,0.493 l 1.1589,-0.493 q -0.1349,-0.452 -0.4048,-0.817 -0.2699,-0.373 -0.6271,-0.627 -0.3572,-0.262 -0.7858,-0.405 -0.4286,-0.143 -0.881,-0.143 -0.7859,0.08 -1.3335,0.373 -0.5477,0.294 -0.889,0.746 -0.3334,0.445 -0.4842,1.024 -0.1508,0.572 -0.1429,1.207 0.01,0.579 0.1587,1.127 0.1588,0.54 0.5001,0.976 0.3413,0.437 0.8731,0.722 0.5398,0.278 1.3177,0.334 z"
           id="path13559" />
      </g>
      <g
         aria-label="D"
         id="text13554"
         style="font-size:7.9375px;font-family:'Stradale Normale Negativo';-inkscape-font-specification:'Stradale Normale Negativo';fill-rule:evenodd;stroke-width:0.529;paint-order:markers fill stroke">
        <path
           d="m 5886.4958,17808.612 h 1.0319 q 0.8017,0 1.2303,0.515 0.4286,0.516 0.4286,1.397 0,2.04 -1.6668,2.04 -0.056,0 -0.2064,0 -0.1429,0 -0.3096,0 -0.1587,0 -0.3096,0 -0.1428,0 -0.1984,0 z m -1.2224,5.072 h 2.4368 q 0.5795,0 1.0875,-0.239 0.508,-0.246 0.881,-0.666 0.3731,-0.429 0.5715,-1.008 0.2064,-0.58 0.1826,-1.254 -0.024,-0.683 -0.2619,-1.239 -0.2302,-0.555 -0.6033,-0.952 -0.373,-0.397 -0.8572,-0.611 -0.4763,-0.223 -1.0002,-0.223 h -2.4368 z"
           id="path13565" />
      </g>
    </g>
  </g>
</svg>
