<?xml version="1.0" encoding="UTF-8" standalone="no"?>
<!-- Created with Inkscape (http://www.inkscape.org/) -->

<svg
   xmlns:dc="http://purl.org/dc/elements/1.1/"
   xmlns:cc="http://creativecommons.org/ns#"
   xmlns:rdf="http://www.w3.org/1999/02/22-rdf-syntax-ns#"
   xmlns:svg="http://www.w3.org/2000/svg"
   xmlns="http://www.w3.org/2000/svg"
   xmlns:sodipodi="http://sodipodi.sourceforge.net/DTD/sodipodi-0.dtd"
   xmlns:inkscape="http://www.inkscape.org/namespaces/inkscape"
   width="1650"
   height="2200"
   id="svg2"
   version="1.1"
   inkscape:version="0.48.5 r10040"
   sodipodi:docname="CANC semm.svg">
  <defs
     id="defs4" />
  <sodipodi:namedview
     id="base"
     pagecolor="#ffffff"
     bordercolor="#666666"
     borderopacity="1.0"
     inkscape:pageopacity="0.0"
     inkscape:pageshadow="2"
     inkscape:zoom="0.061871843"
     inkscape:cx="-1449.5313"
     inkscape:cy="406.72778"
     inkscape:document-units="px"
     inkscape:current-layer="text5110"
     showgrid="false"
     inkscape:snap-midpoints="true"
     inkscape:object-paths="true"
     inkscape:snap-global="true"
     fit-margin-top="0"
     fit-margin-left="0"
     fit-margin-right="0"
     fit-margin-bottom="0"
     inkscape:window-width="1366"
     inkscape:window-height="705"
     inkscape:window-x="-8"
     inkscape:window-y="-8"
     inkscape:window-maximized="1"
     inkscape:snap-object-midpoints="true" />
  <metadata
     id="metadata7">
    <rdf:RDF>
      <cc:Work
         rdf:about="">
        <dc:format>image/svg+xml</dc:format>
        <dc:type
           rdf:resource="http://purl.org/dc/dcmitype/StillImage" />
        <dc:title></dc:title>
      </cc:Work>
    </rdf:RDF>
  </metadata>
  <g
     inkscape:label="Livello 1"
     inkscape:groupmode="layer"
     id="layer1"
     transform="translate(0,1147.6378)">
    <rect
       style="fill:#00408b;fill-opacity:1;fill-rule:evenodd;stroke:none"
       id="rect2996"
       width="1650"
       height="2200"
       x="0"
       y="-1147.6378" />
    <g
       style="font-size:284.08688354px;font-style:normal;font-weight:normal;line-height:125%;letter-spacing:0px;word-spacing:0px;fill:#ffffff;fill-opacity:1;stroke:none;font-family:Sans"
       id="text5110">
      <path
         d="m 324.58817,-983.31642 c 34.6611,2.1e-4 64.11185,10.89216 88.35234,32.67588 l -29.54615,25.28068 c -5.87239,-5.11493 -13.16355,-9.6607 -21.87351,-13.63734 -10.79672,-5.11492 -21.21184,-7.67246 -31.2454,-7.67264 -5.49665,1.8e-4 -10.7071,0.85269 -15.63136,2.55755 -11.55382,3.79169 -16.85675,11.08285 -15.9088,21.87351 0.38139,4.35808 4.17002,7.95887 11.3659,10.80237 6.43857,2.64727 19.31587,6.05444 38.63194,10.22151 40.53331,8.71601 60.80002,28.69662 60.80021,59.94192 -1.9e-4,19.13106 -7.52832,34.51967 -22.58443,46.16585 -15.05642,11.64623 -35.56011,17.46934 -61.51112,17.46933 -21.58749,10e-6 -42.13452,-5.77686 -61.64116,-17.33061 -12.31092,-7.00505 -22.63357,-15.2412 -30.96797,-24.70849 l 34.66123,-26.13897 c 3.21929,4.92442 9.84867,10.22735 19.88817,15.90879 13.44365,7.57732 27.3613,11.46132 41.753,11.652 9.8486,0.185 17.80444,-1.75844 23.86753,-5.83033 6.06284,-4.07179 9.09432,-9.32703 9.09446,-15.76575 -1.4e-4,-7.38646 -4.73665,-13.16333 -14.20955,-17.33062 -5.87235,-2.64704 -16.28892,-5.53403 -31.24973,-8.66097 -14.96099,-3.12676 -25.09146,-5.92127 -30.39144,-8.38355 -9.28234,-4.1671 -15.72388,-7.86036 -19.32463,-11.0798 -10.0337,-8.90071 -15.05053,-20.64229 -15.0505,-35.22476 -3e-5,-21.40229 7.85755,-37.68965 23.57276,-48.86212 13.06798,-9.28209 29.4507,-13.92323 49.14821,-13.92344 z"
         style="font-variant:normal;font-stretch:normal;text-align:center;text-anchor:middle;fill:#ffffff;font-family:CodiceBianco;-inkscape-font-specification:CodiceBianco"
         id="path5129"
         inkscape:connector-curvature="0" />
      <path
         d="m 592.70557,-982.1807 0,36.64658 -62.21336,0 0,163.35343 -41.47558,0 0,-163.63085 -62.21336,0 0,-36.36916 z"
         style="font-variant:normal;font-stretch:normal;text-align:center;text-anchor:middle;fill:#ffffff;font-family:CodiceBianco;-inkscape-font-specification:CodiceBianco"
         id="path5131"
         inkscape:connector-curvature="0" />
      <path
         d="m 757.38544,-981.8946 0,36.08306 -96.8746,0 0,42.89739 86.93052,0 0,36.07439 -86.64442,0 0,46.02714 106.53258,0 0,38.63193 -147.44463,0 0,-199.71391 z"
         style="font-variant:normal;font-stretch:normal;text-align:center;text-anchor:middle;fill:#ffffff;font-family:CodiceBianco;-inkscape-font-specification:CodiceBianco"
         id="path5133"
         inkscape:connector-curvature="0" />
      <path
         d="m 844.43733,-818.25508 91.75951,0 0,36.07439 -130.96364,0 0,-199.71391 39.20413,0 z"
         style="font-variant:normal;font-stretch:normal;text-align:center;text-anchor:middle;fill:#ffffff;font-family:CodiceBianco;-inkscape-font-specification:CodiceBianco"
         id="path5135"
         inkscape:connector-curvature="0" />
      <path
         d="m 991.42245,-981.8946 38.92675,141.19382 41.7616,-141.19382 42.3252,0 -58.234,199.71391 -51.9918,0 -54.54075,-199.71391 z"
         style="font-variant:normal;font-stretch:normal;text-align:center;text-anchor:middle;fill:#ffffff;font-family:CodiceBianco;-inkscape-font-specification:CodiceBianco"
         id="path5137"
         inkscape:connector-curvature="0" />
      <path
         d="m 1184.114,-981.8946 0,199.71391 -41.1895,0 0,-199.71391 z"
         style="font-variant:normal;font-stretch:normal;text-align:center;text-anchor:middle;fill:#ffffff;font-family:CodiceBianco;-inkscape-font-specification:CodiceBianco"
         id="path5139"
         inkscape:connector-curvature="0" />
      <path
         d="m 1409.6288,-883.31208 c -2e-4,32.00262 -9.1843,57.56938 -27.5522,76.70033 -17.6111,18.18315 -40.3371,27.27471 -68.178,27.2747 -27.8412,10e-6 -50.4748,-9.09155 -67.9007,-27.2747 -18.3681,-19.13095 -27.5521,-44.69771 -27.5521,-76.70033 0,-31.25104 10.1319,-56.34674 30.3957,-75.28719 18.1831,-16.85358 39.8688,-25.28047 65.0571,-25.28068 25.188,2.1e-4 46.8737,8.4271 65.057,25.28068 20.4486,18.94045 30.673,44.03615 30.6732,75.28719 z m -43.7471,0 c -10e-5,-18.74942 -4.7814,-33.71177 -14.3439,-44.88708 -9.5627,-11.17501 -22.1091,-16.76259 -37.6392,-16.76276 -15.5304,1.7e-4 -27.9828,5.58775 -37.3575,16.76276 -9.3749,11.17531 -14.0623,26.13766 -14.0622,44.88708 -10e-5,19.50679 3.9764,34.7509 11.9294,45.73237 8.9008,12.50168 22.0642,18.75248 39.4903,18.75244 17.6108,4e-5 30.8666,-6.25076 39.7676,-18.75244 8.1435,-11.17221 12.2154,-26.41631 12.2155,-45.73237 z"
         style="font-variant:normal;font-stretch:normal;text-align:center;text-anchor:middle;fill:#ffffff;font-family:CodiceBianco;-inkscape-font-specification:CodiceBianco"
         id="path5141"
         inkscape:connector-curvature="0" />
    </g>
    <path
       style="fill:none;stroke:#000000;stroke-width:1px;stroke-linecap:butt;stroke-linejoin:miter;stroke-opacity:1"
       d="m 253.15451,643.13309 0,-348.38532"
       id="path5114"
       inkscape:connector-curvature="0" />
    <rect
       y="492.36218"
       x="165"
       height="380"
       width="1320"
       id="rect5118"
       style="fill:#ffffff;fill-opacity:1;stroke:none" />
    <rect
       style="fill:#ffffff;fill-opacity:1;stroke:none"
       id="rect5120"
       width="1320"
       height="380"
       x="165"
       y="-67.637817" />
    <rect
       y="-627.63782"
       x="165"
       height="380"
       width="1320"
       id="rect5126"
       style="fill:#ffffff;fill-opacity:1;stroke:none" />
    <rect
       style="fill:none;stroke:#ffffff;stroke-width:33;stroke-miterlimit:4;stroke-opacity:1;stroke-dasharray:none"
       id="rect5143"
       width="1584"
       height="2134"
       x="33.000004"
       y="-1114.6377"
       rx="115.49998"
       ry="115.49998" />
  </g>
</svg>
