<?xml version="1.0" encoding="UTF-8" standalone="no"?>
<!-- Created with Inkscape (http://www.inkscape.org/) -->

<svg
   xmlns:dc="http://purl.org/dc/elements/1.1/"
   xmlns:cc="http://creativecommons.org/ns#"
   xmlns:rdf="http://www.w3.org/1999/02/22-rdf-syntax-ns#"
   xmlns:svg="http://www.w3.org/2000/svg"
   xmlns="http://www.w3.org/2000/svg"
   xmlns:sodipodi="http://sodipodi.sourceforge.net/DTD/sodipodi-0.dtd"
   xmlns:inkscape="http://www.inkscape.org/namespaces/inkscape"
   width="2500"
   height="1750"
   id="svg13942"
   version="1.1"
   inkscape:version="0.48.5 r10040"
   sodipodi:docname="CANC Terni.svg">
  <defs
     id="defs13944" />
  <sodipodi:namedview
     id="base"
     pagecolor="#ffffff"
     bordercolor="#666666"
     borderopacity="1.0"
     inkscape:pageopacity="0.0"
     inkscape:pageshadow="2"
     inkscape:zoom="0.12374369"
     inkscape:cx="591.9123"
     inkscape:cy="819.42182"
     inkscape:document-units="px"
     inkscape:current-layer="layer1"
     showgrid="false"
     inkscape:window-width="1366"
     inkscape:window-height="705"
     inkscape:window-x="-8"
     inkscape:window-y="-8"
     inkscape:window-maximized="1"
     fit-margin-top="0"
     fit-margin-left="0"
     fit-margin-right="0"
     fit-margin-bottom="0" />
  <metadata
     id="metadata13947">
    <rdf:RDF>
      <cc:Work
         rdf:about="">
        <dc:format>image/svg+xml</dc:format>
        <dc:type
           rdf:resource="http://purl.org/dc/dcmitype/StillImage" />
        <dc:title></dc:title>
      </cc:Work>
    </rdf:RDF>
  </metadata>
  <g
     inkscape:label="Livello 1"
     inkscape:groupmode="layer"
     id="layer1"
     transform="translate(0,697.625)">
    <rect
       style="fill:#ffffff;fill-opacity:1;stroke:#000000;stroke-width:4;stroke-miterlimit:4;stroke-opacity:1;stroke-dasharray:none"
       id="rect18483"
       width="2496"
       height="1746"
       x="2"
       y="-695.625" />
    <rect
       style="fill:#00408b;fill-opacity:1;stroke:none"
       id="rect14532"
       width="1050"
       height="520"
       x="191.90869"
       y="-530.39954"
       rx="0"
       ry="0" />
    <g
       style="font-size:170.69630432px;font-style:normal;font-weight:normal;line-height:125%;letter-spacing:0px;word-spacing:0px;fill:#ffffff;fill-opacity:1;stroke:none;font-family:Sans"
       id="text13961">
      <path
         d="m 707.04665,-451.80237 c 20.82646,1.3e-4 38.52222,6.54466 53.08735,19.63361 l -17.75309,15.19014 c -3.52848,-3.07335 -7.90944,-5.80473 -13.1429,-8.19413 -6.48732,-3.07335 -12.74534,-4.61007 -18.7741,-4.61017 -3.30271,10e-5 -6.43346,0.51234 -9.39225,1.53672 -6.94223,2.27828 -10.12854,6.65924 -9.55895,13.14291 0.22916,2.6186 2.50559,4.78216 6.82931,6.49071 3.86867,1.59063 11.60612,3.63786 23.21236,6.14169 24.35483,5.23709 36.53228,17.24264 36.53239,36.01667 -1.1e-4,11.49508 -4.52346,20.74147 -13.57007,27.73919 -9.0468,6.99775 -21.36663,10.49662 -36.95954,10.49662 -12.97105,0 -25.31693,-3.47109 -37.03768,-10.41327 -7.39713,-4.20905 -13.59959,-9.15782 -18.6074,-14.84633 l 20.82653,-15.70585 c 1.93434,2.95889 5.91767,6.1452 11.94999,9.55895 8.07775,4.55291 16.44031,6.88664 25.08769,7.00122 5.91763,0.11115 10.69797,-1.05658 14.34104,-3.50322 3.64291,-2.44657 5.4644,-5.60423 5.46449,-9.473 -9e-5,-4.43822 -2.84606,-7.90931 -8.53794,-10.41326 -3.52846,-1.5905 -9.78736,-3.32518 -18.7767,-5.20403 -8.98946,-1.87874 -15.07644,-3.55785 -18.26099,-5.03733 -5.57738,-2.50385 -9.44784,-4.72298 -11.61139,-6.65741 -6.02884,-5.34808 -9.04325,-12.40311 -9.04323,-21.16513 -2e-5,-12.85977 4.72128,-22.64618 14.16391,-29.35927 7.85203,-5.57723 17.69574,-8.3659 29.53117,-8.36603 z"
         style="font-variant:normal;font-stretch:normal;fill:#ffffff;font-family:CodiceBianco;-inkscape-font-specification:CodiceBianco"
         id="path19819"
         inkscape:connector-curvature="0" />
      <path
         d="m 886.92164,-391.71381 c -1.3e-4,19.22908 -5.51844,34.5911 -16.55496,46.08612 -10.5818,10.92552 -24.23693,16.38827 -40.96545,16.38826 -16.72865,1e-5 -30.32822,-5.46274 -40.79875,-16.38826 -11.03665,-11.49502 -16.55496,-26.85704 -16.55496,-46.08612 0,-18.77748 6.08785,-33.85648 18.26359,-45.23703 10.92547,-10.12663 23.9555,-15.19 39.09012,-15.19013 15.13449,1.3e-4 28.16452,5.0635 39.09012,15.19013 12.28674,11.38055 18.43016,26.45955 18.43029,45.23703 z m -26.28582,0 c -9e-5,-11.26577 -2.87299,-20.25604 -8.61868,-26.97083 -5.74587,-6.71461 -13.2845,-10.07196 -22.61591,-10.07206 -9.33154,1e-4 -16.81373,3.35745 -22.4466,10.07206 -5.63296,6.71479 -8.44942,15.70506 -8.44939,26.97083 -3e-5,11.72084 2.38927,20.8804 7.16791,27.47873 5.34811,7.51175 13.25746,11.26761 23.72808,11.26758 10.58162,3e-5 18.54654,-3.75583 23.89478,-11.26758 4.89311,-6.71293 7.33972,-15.8725 7.33981,-27.47873 z"
         style="font-variant:normal;font-stretch:normal;fill:#ffffff;font-family:CodiceBianco;-inkscape-font-specification:CodiceBianco"
         id="path19821"
         inkscape:connector-curvature="0" />
      <path
         d="m 965.02374,-450.94806 c 9.2168,1.3e-4 17.35362,3.35661 24.41049,10.06946 7.39701,7.05689 11.09557,15.70595 11.09567,25.94721 -10e-5,9.21696 -3.07355,17.06901 -9.22035,23.55618 -4.55296,4.89327 -10.07128,8.47896 -16.55496,10.75707 l 30.89601,49.67008 -26.97345,0 -29.53117,-47.62285 -17.91978,0 0,47.62285 -23.72808,0 0,-120 z m -33.79754,21.33704 0,29.87498 29.35927,0 c 3.07338,7e-5 6.08952,-1.42291 9.04844,-4.26897 2.95877,-2.8459 4.4382,-6.37342 4.43827,-10.58257 -7e-5,-4.21244 -1.45171,-7.76948 -4.35492,-10.67112 -2.90335,-2.90144 -6.06188,-4.35221 -9.4756,-4.35232 z"
         style="font-variant:normal;font-stretch:normal;fill:#ffffff;font-family:CodiceBianco;-inkscape-font-specification:CodiceBianco"
         id="path19823"
         inkscape:connector-curvature="0" />
      <path
         d="m 1052.8723,-450.94806 34.48,0 40.7935,120 -26.4577,0 -6.8241,-20.14412 -48.9929,0 -6.6574,20.14412 -25.6034,0 z m 17.2374,26.96823 -16.7269,50.5296 34.1414,0 z"
         style="font-variant:normal;font-stretch:normal;fill:#ffffff;font-family:CodiceBianco;-inkscape-font-specification:CodiceBianco"
         id="path19825"
         inkscape:connector-curvature="0" />
    </g>
    <g
       style="font-size:170.69630432px;font-style:normal;font-weight:normal;line-height:125%;letter-spacing:0px;word-spacing:0px;fill:#ffffff;fill-opacity:1;stroke:none;font-family:Sans"
       id="text13977">
      <path
         d="m 410.27732,-90.948055 -27.99445,0 -58.03612,-83.129015 0,83.129015 -23.89998,0 0,-120.000005 27.99445,0 58.04132,83.63952 0,-83.63952 23.89478,0 z"
         style="font-variant:normal;font-stretch:normal;fill:#ffffff;font-family:CodiceBianco;-inkscape-font-specification:CodiceBianco"
         id="path19828"
         inkscape:connector-curvature="0" />
      <path
         d="m 464.19814,-210.94806 34.47995,0 40.79354,120.000005 -26.45772,0 -6.8241,-20.144125 -48.99289,0 -6.6574,20.144125 -25.6034,0 z m 17.23737,26.96823 -16.72686,50.5296 34.14134,0 z"
         style="font-variant:normal;font-stretch:normal;fill:#ffffff;font-family:CodiceBianco;-inkscape-font-specification:CodiceBianco"
         id="path19830"
         inkscape:connector-curvature="0" />
      <path
         d="m 608.28566,-210.94806 c 10.12669,1.3e-4 19.11608,3.58582 26.96823,10.75708 8.4215,7.85216 12.63229,17.58127 12.6324,29.18736 -1.1e-4,11.15132 -4.2682,20.54009 -12.80431,28.16635 -7.85214,7.16796 -16.78424,10.75191 -26.79632,10.75186 l -27.48394,0 0,41.30926 -25.25959,0 0,-120.17191 z m -27.48394,21.33704 0,35.50617 25.77531,0 c 4.09787,7e-5 7.79642,-1.82056 11.09568,-5.46189 3.2991,-3.64118 4.9487,-7.51077 4.94878,-11.60879 -8e-5,-5.11885 -1.81984,-9.55712 -5.45929,-13.31481 -3.29925,-3.41368 -6.82764,-5.12057 -10.58517,-5.12068 z"
         style="font-variant:normal;font-stretch:normal;fill:#ffffff;font-family:CodiceBianco;-inkscape-font-specification:CodiceBianco"
         id="path19832"
         inkscape:connector-curvature="0" />
      <path
         d="m 776.33045,-151.71381 c -1.2e-4,19.22908 -5.51844,34.5911 -16.55496,46.08612 -10.58179,10.925521 -24.23693,16.38827 -40.96544,16.388265 -16.72865,5e-6 -30.32822,-5.462744 -40.79875,-16.388265 -11.03666,-11.49502 -16.55497,-26.85704 -16.55496,-46.08612 -10e-6,-18.77748 6.08785,-33.85648 18.26359,-45.23703 10.92547,-10.12663 23.95549,-15.19 39.09012,-15.19013 15.13449,1.3e-4 28.16451,5.0635 39.09012,15.19013 12.28673,11.38055 18.43016,26.45955 18.43028,45.23703 z m -26.28581,0 c -10e-5,-11.26577 -2.87299,-20.25604 -8.61869,-26.97083 -5.74587,-6.71461 -13.2845,-10.07196 -22.6159,-10.07206 -9.33154,1e-4 -16.81374,3.35745 -22.44661,10.07206 -5.63296,6.71479 -8.44942,15.70506 -8.44938,26.97083 -4e-5,11.72084 2.38926,20.8804 7.16791,27.47873 5.3481,7.51175 13.25745,11.26761 23.72808,11.26758 10.58162,3e-5 18.54653,-3.75583 23.89477,-11.26758 4.89312,-6.71293 7.33972,-15.8725 7.33982,-27.47873 z"
         style="font-variant:normal;font-stretch:normal;fill:#ffffff;font-family:CodiceBianco;-inkscape-font-specification:CodiceBianco"
         id="path19834"
         inkscape:connector-curvature="0" />
      <path
         d="m 820.46311,-112.62369 55.13457,0 0,21.675635 -78.69074,0 0,-120.000005 23.55617,0 z"
         style="font-variant:normal;font-stretch:normal;fill:#ffffff;font-family:CodiceBianco;-inkscape-font-specification:CodiceBianco"
         id="path19836"
         inkscape:connector-curvature="0" />
      <path
         d="m 919.87619,-210.94806 0,120.000005 -24.74909,0 0,-120.000005 z"
         style="font-variant:normal;font-stretch:normal;fill:#ffffff;font-family:CodiceBianco;-inkscape-font-specification:CodiceBianco"
         id="path19838"
         inkscape:connector-curvature="0" />
    </g>
    <g
       style="font-size:199.709198px;font-style:normal;font-weight:normal;line-height:125%;letter-spacing:0px;word-spacing:0px;fill:#000000;fill-opacity:1;stroke:none;font-family:Sans"
       id="text13977-1">
      <path
         d="m 1340.8438,719.00485 c 17.5728,1.1e-4 33.0836,5.39183 46.5325,16.17518 l -20.3743,21.36781 c -5.1927,-6.65527 -12.7135,-9.98294 -22.5624,-9.98302 -7.0576,8e-5 -10.5864,1.19666 -10.5864,3.58974 0,1.06461 0.7984,1.99709 2.3952,2.79744 0.5322,0.26824 6.5232,1.5989 17.9731,3.99199 9.8529,2.1332 17.3087,5.19677 22.3673,9.19072 7.3216,5.59087 10.9825,13.64595 10.9826,24.16525 -10e-5,6.92355 -2.5964,13.51388 -7.789,19.77102 -7.7199,9.58485 -19.5679,14.37726 -35.5439,14.37725 -19.7061,1e-5 -36.6817,-6.45624 -50.9268,-19.36876 -0.6664,-0.40223 6.5232,-7.19368 21.5689,-20.37439 12.3802,8.25624 22.3652,12.38434 29.9552,12.38431 1.9989,3e-5 3.8639,-0.40018 5.5948,-1.20064 2.2631,-1.0645 3.1285,-2.4622 2.5963,-4.19312 -0.9345,-2.79536 -5.9951,-5.05851 -15.1817,-6.78943 -11.5839,-1.99899 -19.639,-4.39621 -24.1653,-7.19167 -8.3862,-5.0585 -12.5793,-13.17858 -12.5793,-24.36028 0,-10.12108 3.6283,-18.37627 10.885,-24.76558 7.2567,-6.3891 16.8761,-9.58371 28.8582,-9.58382 z"
         style="font-variant:normal;font-stretch:normal;fill:#000000;font-family:CodiceNero;-inkscape-font-specification:CodiceNero"
         id="path19780"
         inkscape:connector-curvature="0" />
      <path
         d="m 1455.3925,678.85945 0,37.74411 26.1643,0 0,28.16334 -25.5609,0 0,41.7361 c 0,4.52633 3.1935,6.78947 9.5808,6.78943 1.999,4e-5 4.6623,-0.23258 7.9901,-0.69784 3.3276,-0.46518 5.3246,-0.6978 5.991,-0.69783 l 5.5949,26.56044 c -7.9881,3.99403 -18.1743,5.99104 -30.5586,5.99103 -8.3862,1e-5 -15.7079,-2.13108 -21.965,-6.39327 -6.9236,-4.79037 -10.3853,-10.84641 -10.3853,-18.16813 l 0,-55.11993 -16.5774,0 0,-28.16334 16.5774,0 0,-29.35788 z"
         style="font-variant:normal;font-stretch:normal;fill:#000000;font-family:CodiceNero;-inkscape-font-specification:CodiceNero"
         id="path19782"
         inkscape:connector-curvature="0" />
      <path
         d="m 1577.1269,725.39203 c 2.2631,0.80054 4.9264,2.6655 7.9901,5.59488 5.0584,4.92457 7.5877,10.51538 7.5878,16.77246 l 0,46.53258 c -10e-5,2.39726 1.5317,3.92904 4.5954,4.59536 0.268,0.13005 2.3991,0.32914 6.3932,0.59728 -1.1987,3.46178 -4.6604,11.6489 -10.3852,24.5614 -10.3854,0 -19.1068,-2.92745 -26.1643,-8.78238 -9.3208,6.12309 -18.6416,9.18463 -27.9622,9.18462 -9.719,1e-5 -18.2728,-3.12857 -25.6615,-9.38574 -7.3888,-6.25715 -11.0831,-14.04609 -11.0831,-23.36686 0,-15.44376 9.5198,-26.09515 28.5595,-31.9542 7.0575,-1.06446 16.6444,-2.72829 28.7606,-4.99151 -10e-5,-5.8589 -3.728,-8.78839 -11.1837,-8.78847 -7.4558,8e-5 -14.5804,1.93005 -21.3739,5.78991 -0.3982,0.26824 -3.1936,2.39933 -8.3862,6.39327 l -15.1757,-22.9646 c 0.2641,-0.66625 2.2611,-2.131 5.9911,-4.39424 4.5262,-2.92939 9.5848,-5.59274 15.1756,-7.99007 6.6594,-2.92938 14.5154,-4.39413 23.568,-4.39424 10.3852,1.1e-4 19.97,2.33029 28.7545,6.99055 z m -42.7356,64.90793 c 0.134,2.1291 1.5317,3.92499 4.1931,5.38766 2.2631,1.33273 4.5933,1.99908 6.9905,1.99905 3.7299,3e-5 6.9255,-0.83189 9.5869,-2.49576 2.6613,-1.6638 4.3251,-3.56025 4.9915,-5.68935 l 0,-10.19024 c -5.5909,1.06865 -11.1817,2.13521 -16.7724,3.19969 -6.1272,1.32868 -9.1237,3.92499 -8.9896,7.78895 z"
         style="font-variant:normal;font-stretch:normal;fill:#000000;font-family:CodiceNero;-inkscape-font-specification:CodiceNero"
         id="path19784"
         inkscape:connector-curvature="0" />
      <path
         d="m 1699.3305,720.60165 0,25.56092 -38.9447,48.53163 41.1388,0 0,27.35884 -83.8744,0 0,-24.76253 39.3409,-49.33002 -37.7441,0 0,-27.35884 z"
         style="font-variant:normal;font-stretch:normal;fill:#000000;font-family:CodiceNero;-inkscape-font-specification:CodiceNero"
         id="path19786"
         inkscape:connector-curvature="0" />
      <path
         d="m 1720.7167,720.60165 32.1553,0 0,101.65251 -32.1553,0 z m -0.5973,-31.55806 c 3.3276,-6.6552 8.7864,-9.98287 16.3763,-9.98302 2.9294,1.5e-4 5.6578,0.59946 8.1851,1.79792 6.7894,3.32782 10.1841,8.85362 10.1841,16.57743 0,2.79553 -0.5993,5.45686 -1.7979,7.98398 -3.3277,6.65952 -8.8515,9.98923 -16.5713,9.98911 -2.9295,1.2e-4 -5.6599,-0.59919 -8.1912,-1.79792 -6.6554,-3.32755 -9.9831,-8.78631 -9.983,-16.3763 -10e-5,-2.92935 0.5993,-5.65975 1.7979,-8.1912 z"
         style="font-variant:normal;font-stretch:normal;fill:#000000;font-family:CodiceNero;-inkscape-font-specification:CodiceNero"
         id="path19788"
         inkscape:connector-curvature="0" />
      <path
         d="m 1860.9787,733.58323 c 9.1866,9.98311 13.7799,21.69903 13.78,35.1478 -1e-4,17.43884 -5.658,31.55198 -16.9736,42.33947 -9.8531,9.31668 -21.1038,13.97501 -33.7521,13.97501 -18.7715,0 -33.2829,-7.25464 -43.534,-21.76396 -3.5959,-5.19261 -5.9931,-9.58684 -7.1917,-13.18271 -1.7309,-4.79441 -2.5963,-11.3177 -2.5963,-19.56989 0,-17.04461 5.7249,-30.69253 17.1747,-40.9438 9.5889,-8.65428 21.3718,-12.98148 35.3489,-12.98159 14.6474,1.1e-4 27.2287,5.66 37.7441,16.97967 z m -59.313,30.75356 0,10.98254 c -10e-5,5.46085 2.131,10.18826 6.3932,14.18223 4.2622,3.99406 9.1216,5.99107 14.5784,5.99104 5.5908,3e-5 10.4502,-1.99698 14.5784,-5.99104 4.128,-3.99397 6.1921,-8.72138 6.1922,-14.18223 l 0,-10.98254 c -10e-5,-5.72483 -2.2633,-10.51724 -6.7895,-14.37726 -4.1281,-3.46167 -8.7885,-5.19255 -13.9811,-5.19263 -5.4568,8e-5 -10.2492,1.73096 -14.3772,5.19263 -4.3963,3.86002 -6.5945,8.65243 -6.5944,14.37726 z"
         style="font-variant:normal;font-stretch:normal;fill:#000000;font-family:CodiceNero;-inkscape-font-specification:CodiceNero"
         id="path19790"
         inkscape:connector-curvature="0" />
      <path
         d="m 1958.0298,822.05304 0,-56.32058 c -10e-5,-4.9244 -1.3653,-9.05148 -4.0956,-12.38126 -2.7305,-3.32963 -6.625,-4.99448 -11.6835,-4.99456 -5.5908,8e-5 -9.7839,1.93208 -12.5793,5.79601 -1.9991,2.92956 -2.9986,6.32427 -2.9986,10.18414 l 0,57.71625 -31.9542,0 0,-101.25637 28.1634,0 1.5968,6.19216 c 7.0534,-5.59071 16.3051,-8.38612 27.755,-8.38623 13.0505,1.1e-4 23.1026,5.05866 30.1562,15.17566 5.1926,7.45587 7.7889,14.97868 7.789,22.56846 l 0,65.70632 z"
         style="font-variant:normal;font-stretch:normal;fill:#000000;font-family:CodiceNero;-inkscape-font-specification:CodiceNero"
         id="path19792"
         inkscape:connector-curvature="0" />
      <path
         d="m 2059.3837,718.40148 c 12.7824,1.1e-4 23.899,4.52639 33.3498,13.57886 10.6534,10.12126 15.9801,23.436 15.9802,39.94428 -10e-5,2.12912 -0.3333,5.52383 -0.9995,10.18414 l -66.7059,0 c 3.0636,9.45486 9.855,14.04818 20.3744,13.77999 8.2521,-0.26407 16.3722,-3.45969 24.3603,-9.58687 l 21.3739,20.97166 c -16.5125,11.44981 -31.8913,17.1747 -46.1364,17.17469 -13.4449,1e-5 -25.1608,-4.1931 -35.1478,-12.57933 -10.9176,-9.32071 -16.5754,-21.63594 -16.9736,-36.94572 0,-1.99898 0,-5.06255 0,-9.19072 0.13,-10.11703 3.9229,-19.90298 11.3787,-29.35788 9.5889,-11.98196 22.6375,-17.97299 39.1459,-17.9731 z m -17.9731,39.54203 34.9466,0 c -0.7964,-3.72578 -2.7924,-6.88686 -5.9879,-9.48326 -3.1957,-2.59623 -6.9917,-3.96143 -11.3879,-4.0956 -4.5263,-0.134 -8.4533,1.33075 -11.7809,4.39424 -2.7955,2.53138 -4.7254,5.59292 -5.7899,9.18462 z"
         style="font-variant:normal;font-stretch:normal;fill:#000000;font-family:CodiceNero;-inkscape-font-specification:CodiceNero"
         id="path19794"
         inkscape:connector-curvature="0" />
    </g>
    <g
       style="font-size:199.709198px;font-style:normal;font-weight:normal;line-height:125%;letter-spacing:0px;word-spacing:0px;fill:#000000;fill-opacity:1;stroke:none;font-family:Sans"
       id="text14510">
      <path
         d="m 1527.5246,390.03095 c 11.8479,1.1e-4 22.4323,3.92709 31.7531,11.78094 7.8538,6.78952 12.6463,13.97916 14.3772,21.56893 l -27.9561,10.18415 c -0.5323,-4.39213 -2.1311,-8.12002 -4.7965,-11.18367 -3.3277,-3.72577 -7.854,-5.5887 -13.5788,-5.58878 -5.725,8e-5 -10.4178,2.09664 -14.0786,6.28967 -3.6609,4.19318 -5.4914,9.5524 -5.4913,16.07766 l 0,7.58783 c -10e-5,5.46085 1.5317,10.3203 4.5953,14.57838 3.5918,5.19267 8.7174,7.78898 15.3768,7.78895 4.1281,3e-5 8.1556,-1.6638 12.0826,-4.99151 3.927,-3.32763 5.9575,-7.58778 6.0916,-12.78046 l 28.3584,9.98302 c -10e-5,2.39726 -1.5989,6.05811 -4.7965,10.98254 -3.9941,6.39127 -8.9856,11.5839 -14.9745,15.57791 -7.9881,5.32672 -17.0427,7.99007 -27.1638,7.99007 -14.6435,0 -26.9587,-5.5258 -36.9457,-16.57742 -8.5204,-9.31665 -12.7805,-19.30169 -12.7805,-29.95516 l 0,-9.38575 c 0,-12.11608 4.1281,-23.0336 12.3843,-32.7526 9.5848,-11.4497 22.0991,-17.17459 37.543,-17.1747 z"
         style="font-variant:normal;font-stretch:normal;fill:#000000;font-family:CodiceNero;-inkscape-font-specification:CodiceNero"
         id="path19797"
         inkscape:connector-curvature="0" />
      <path
         d="m 1637.5207,389.82983 c 12.7824,1.1e-4 23.899,4.52639 33.3499,13.57886 10.6533,10.12125 15.98,23.436 15.9801,39.94427 -10e-5,2.12912 -0.3333,5.52383 -0.9995,10.18415 l -66.7059,0 c 3.0636,9.45486 9.855,14.04818 20.3744,13.77998 8.2521,-0.26407 16.3722,-3.45969 24.3603,-9.58687 l 21.3739,20.97166 c -16.5125,11.44981 -31.8913,17.1747 -46.1364,17.1747 -13.4448,0 -25.1608,-4.1931 -35.1478,-12.57934 -10.9176,-9.32071 -16.5754,-21.63594 -16.9736,-36.94571 0,-1.99899 0,-5.06256 0,-9.19072 0.13,-10.11703 3.9229,-19.90298 11.3787,-29.35789 9.5889,-11.98196 22.6375,-17.97298 39.1459,-17.97309 z m -17.9731,39.54203 34.9467,0 c -0.7965,-3.72579 -2.7925,-6.88687 -5.988,-9.48326 -3.1957,-2.59624 -6.9917,-3.96144 -11.3879,-4.0956 -4.5263,-0.134 -8.4533,1.33074 -11.7809,4.39423 -2.7955,2.53139 -4.7254,5.59293 -5.7899,9.18463 z"
         style="font-variant:normal;font-stretch:normal;fill:#000000;font-family:CodiceNero;-inkscape-font-specification:CodiceNero"
         id="path19799"
         inkscape:connector-curvature="0" />
      <path
         d="m 1770.5911,493.48139 0,-56.32058 c -1e-4,-4.9244 -1.3653,-9.05149 -4.0956,-12.38127 -2.7305,-3.32962 -6.625,-4.99447 -11.6835,-4.99455 -5.5908,8e-5 -9.7839,1.93208 -12.5793,5.796 -1.9991,2.92956 -2.9986,6.32427 -2.9986,10.18414 l 0,57.71626 -31.9542,0 0,-101.25637 28.1634,0 1.5968,6.19215 c 7.0535,-5.5907 16.3051,-8.38611 27.755,-8.38622 13.0505,1.1e-4 23.1026,5.05866 30.1563,15.17565 5.1925,7.45587 7.7888,14.97868 7.7889,22.56846 l 0,65.70633 z"
         style="font-variant:normal;font-stretch:normal;fill:#000000;font-family:CodiceNero;-inkscape-font-specification:CodiceNero"
         id="path19801"
         inkscape:connector-curvature="0" />
      <path
         d="m 1872.5422,350.28779 0,37.74412 26.1643,0 0,28.16333 -25.5609,0 0,41.7361 c -10e-5,4.52633 3.1935,6.78947 9.5808,6.78943 1.9989,4e-5 4.6623,-0.23257 7.99,-0.69783 3.3276,-0.46519 5.3246,-0.6978 5.9911,-0.69784 l 5.5949,26.56045 c -7.9882,3.99403 -18.1743,5.99103 -30.5586,5.99103 -8.3862,0 -15.7079,-2.13109 -21.9651,-6.39328 -6.9235,-4.79037 -10.3853,-10.84641 -10.3852,-18.16812 l 0,-55.11994 -16.5775,0 0,-28.16333 16.5775,0 0,-29.35789 z"
         style="font-variant:normal;font-stretch:normal;fill:#000000;font-family:CodiceNero;-inkscape-font-specification:CodiceNero"
         id="path19803"
         inkscape:connector-curvature="0" />
      <path
         d="m 1990.4857,422.98467 c -2.9295,-0.80035 -5.859,-1.20056 -8.7884,-1.20064 -6.7895,8e-5 -12.3804,1.798 -16.7725,5.39376 -4.9286,3.86001 -7.3928,9.31877 -7.3928,16.3763 l 0,49.9273 -32.3504,0 0,-101.4514 32.7526,0 0,6.38718 c 2.9295,-1.73077 5.7919,-3.46165 8.5874,-5.19263 5.0585,-2.39711 10.3832,-3.59573 15.974,-3.59584 2.6613,1.1e-4 5.3247,0.26828 7.9901,0.80449 z"
         style="font-variant:normal;font-stretch:normal;fill:#000000;font-family:CodiceNero;-inkscape-font-specification:CodiceNero"
         id="path19805"
         inkscape:connector-curvature="0" />
      <path
         d="m 2093.6314,405.01158 c 9.1866,9.9831 13.7799,21.69902 13.78,35.14779 -10e-5,17.43884 -5.658,31.55199 -16.9736,42.33947 -9.8531,9.31669 -21.1037,13.97502 -33.7521,13.97501 -18.7715,10e-6 -33.2828,-7.25464 -43.534,-21.76396 -3.5959,-5.1926 -5.9931,-9.58683 -7.1917,-13.18271 -1.7309,-4.7944 -2.5963,-11.31769 -2.5963,-19.56989 0,-17.0446 5.7249,-30.69252 17.1747,-40.9438 9.5889,-8.65428 21.3718,-12.98147 35.3489,-12.98158 14.6474,1.1e-4 27.2288,5.65999 37.7441,16.97967 z m -59.313,30.75355 0,10.98255 c -1e-4,5.46085 2.131,10.18825 6.3933,14.18223 4.2621,3.99406 9.1216,5.99106 14.5783,5.99103 5.5908,3e-5 10.4502,-1.99697 14.5784,-5.99103 4.128,-3.99398 6.1921,-8.72138 6.1922,-14.18223 l 0,-10.98255 c -10e-5,-5.72482 -2.2632,-10.51724 -6.7895,-14.37725 -4.1281,-3.46168 -8.7885,-5.19255 -13.9811,-5.19264 -5.4567,9e-5 -10.2492,1.73096 -14.3772,5.19264 -4.3963,3.86001 -6.5945,8.65243 -6.5944,14.37725 z"
         style="font-variant:normal;font-stretch:normal;fill:#000000;font-family:CodiceNero;-inkscape-font-specification:CodiceNero"
         id="path19807"
         inkscape:connector-curvature="0" />
    </g>
    <path
       inkscape:connector-curvature="0"
       d="m 929.35287,642.95876 c -167.4662,4.2829 -163.6594,98.957 -163.6594,98.957 v 129.4053 h -83.7332 v -494.309 l -99.4319,17.603 c -2.8579,-0.4756 -5.2339,-1.4261 -6.6609,-2.8566 -1.9016,-1.4262 -2.3772,-5.2333 -2.3772,-7.612 l 150.8135,-258.8102 151.2905,259.2861 c 0,2.3769 -0.4635,6.1845 -1.4271,7.1361 -1.9015,1.4262 -3.8068,2.377 -6.1839,1.9016 l -101.3361,-18.0785 v 234.0708 c 19.5057,-44.245 79.9265,-51.8569 160.8055,-50.9053 l -16.6515,-100.3844 c 0.4635,-2.377 0.9513,-4.7575 2.376,-5.7091 1.4271,-2.3769 5.2337,-2.8524 7.6134,-2.3769 l 258.80913,150.3385 -259.28603,151.2895 c -1.9015,0.4756 -5.7083,-0.4757 -7.1365,-1.9015 -1.4258,-1.4263 -1.9016,-2.8524 -1.9016,-5.7091 z"
       style="fill:#000000;fill-opacity:1;fill-rule:evenodd;stroke:none"
       id="path7283" />
    <path
       inkscape:connector-curvature="0"
       style="font-size:16.94802094px;font-style:normal;font-weight:normal;line-height:125%;letter-spacing:0px;word-spacing:0px;fill:none;stroke:#000000;stroke-width:7.20303249;stroke-linecap:butt;stroke-linejoin:miter;stroke-miterlimit:4;stroke-opacity:1;stroke-dashoffset:0;font-family:Sans"
       d="m 2337.824,443.11246 c 0,43.5724 -35.3232,78.8981 -78.898,78.8981 -43.5741,0 -78.8989,-35.3257 -78.8989,-78.8981 0,-43.5741 35.3248,-78.8989 78.8989,-78.8989 43.5748,0 78.898,35.3248 78.898,78.8989 z"
       id="path11926-3" />
    <path
       inkscape:connector-curvature="0"
       style="font-size:16.94802094px;font-style:normal;font-weight:normal;line-height:125%;letter-spacing:0px;word-spacing:0px;fill:none;stroke:#000000;stroke-width:7.20303249;stroke-linecap:butt;stroke-linejoin:miter;stroke-miterlimit:4;stroke-opacity:1;stroke-dashoffset:0;font-family:Sans"
       d="m 2323.2628,443.10666 c 0,35.3306 -28.8034,63.9719 -64.3368,63.9719 -35.532,0 -64.3361,-28.6413 -64.3361,-63.9719 0,-35.3338 28.8041,-63.9766 64.3361,-63.9766 35.5334,0 64.3368,28.6428 64.3368,63.9766 z"
       id="path11928-1" />
    <path
       inkscape:connector-curvature="0"
       style="font-size:16.94802094px;font-style:normal;font-weight:normal;line-height:125%;letter-spacing:0px;word-spacing:0px;fill:none;stroke:#000000;stroke-width:7.20303249;stroke-linecap:butt;stroke-linejoin:miter;stroke-miterlimit:4;stroke-opacity:1;stroke-dashoffset:0;font-family:Sans"
       d="m 2308.4813,442.91686 c 0,27.1059 -22.1009,49.0815 -49.363,49.0815 -27.263,0 -49.3639,-21.9756 -49.3639,-49.0815 0,-27.1116 22.1009,-49.088 49.3639,-49.088 27.2621,0 49.363,21.9764 49.363,49.088 z"
       id="path11930-2" />
    <path
       inkscape:connector-curvature="0"
       style="font-size:16.94802094px;font-style:normal;font-weight:normal;line-height:125%;letter-spacing:0px;word-spacing:0px;fill:#000000;fill-opacity:1;stroke:none;font-family:Sans"
       d="m 2286.992,441.32976 c 0,15.3069 -12.4809,27.714 -27.8736,27.714 -15.3936,0 -27.872,-12.4071 -27.872,-27.714 0,-15.3059 12.4784,-27.7147 27.872,-27.7147 15.3927,0 27.8736,12.4088 27.8736,27.7147 z"
       id="path11932-3" />
    <g
       style="font-size:93.12346649px;font-style:normal;font-weight:normal;line-height:125%;letter-spacing:0px;word-spacing:0px;fill:#ffffff;fill-opacity:1;stroke:none;font-family:Sans"
       id="text17949">
      <path
         d="m 336.12158,-420.97181 c 8.00845,0.18574 13.78225,4.28281 17.3214,12.29122 l -9.59143,6.05326 c -2.29817,-4.40868 -4.96766,-6.61305 -8.00848,-6.61311 -1.36602,6e-5 -2.53026,0.48129 -3.4927,1.44369 -0.96247,0.96251 -1.50622,2.21958 -1.63125,3.7712 -0.12316,1.24291 0.37417,2.51608 1.492,3.81952 0.37133,0.43391 1.45788,1.42763 3.25966,2.98115 4.71754,3.66231 10.05652,8.1942 16.01697,13.59567 2.35874,2.98024 3.53813,6.61218 3.53817,10.89585 -4e-5,4.90325 -1.49015,9.12442 -4.47032,12.66352 -3.35347,3.91046 -7.79252,5.95947 -13.31715,6.14704 -8.19417,0.24819 -14.12332,-4.34621 -17.78747,-13.78323 l 9.96655,-5.68097 c 2.11057,5.15334 4.62471,7.72999 7.54241,7.72998 0.8696,10e-6 1.73827,-0.21692 2.60602,-0.6508 2.23561,-1.1178 3.35342,-3.01145 3.35345,-5.68096 -3e-5,-1.92489 -0.68303,-3.53909 -2.04901,-4.8426 -3.47662,-2.91766 -6.95321,-5.83534 -10.42978,-8.75306 -5.15333,-4.28366 -8.25763,-7.38796 -9.31292,-9.31292 -1.6142,-2.79449 -2.4213,-5.71217 -2.4213,-8.75306 0,-4.71939 1.76955,-8.81741 5.30867,-12.29407 3.53911,-3.47652 7.57461,-5.1523 12.10651,-5.02732 z"
         style="font-variant:normal;font-stretch:normal;word-spacing:-35px;fill:#ffffff;font-family:CodiceBiancoCondensed;-inkscape-font-specification:CodiceBiancoCondensed"
         id="path19810"
         inkscape:connector-curvature="0" />
      <path
         d="m 378.31815,-420.97181 c 8.00845,0.18574 13.78225,4.28281 17.3214,12.29122 l -9.59142,6.05326 c -2.29818,-4.40868 -4.96767,-6.61305 -8.00849,-6.61311 -1.36602,6e-5 -2.53025,0.48129 -3.49269,1.44369 -0.96248,0.96251 -1.50623,2.21958 -1.63126,3.7712 -0.12316,1.24291 0.37417,2.51608 1.492,3.81952 0.37133,0.43391 1.45788,1.42763 3.25966,2.98115 4.71754,3.66231 10.05652,8.1942 16.01697,13.59567 2.35874,2.98024 3.53813,6.61218 3.53817,10.89585 -4e-5,4.90325 -1.49015,9.12442 -4.47032,12.66352 -3.35347,3.91046 -7.79252,5.95947 -13.31715,6.14704 -8.19417,0.24819 -14.12332,-4.34621 -17.78747,-13.78323 l 9.96655,-5.68097 c 2.11057,5.15334 4.62471,7.72999 7.54241,7.72998 0.8696,10e-6 1.73828,-0.21692 2.60603,-0.6508 2.2356,-1.1178 3.35341,-3.01145 3.35344,-5.68096 -3e-5,-1.92489 -0.68303,-3.53909 -2.04901,-4.8426 -3.47662,-2.91766 -6.95321,-5.83534 -10.42978,-8.75306 -5.15333,-4.28366 -8.25763,-7.38796 -9.31292,-9.31292 -1.6142,-2.79449 -2.4213,-5.71217 -2.4213,-8.75306 0,-4.71939 1.76955,-8.81741 5.30867,-12.29407 3.53911,-3.47652 7.57461,-5.1523 12.10651,-5.02732 z"
         style="font-variant:normal;font-stretch:normal;word-spacing:-35px;fill:#ffffff;font-family:CodiceBiancoCondensed;-inkscape-font-specification:CodiceBiancoCondensed"
         id="path19812"
         inkscape:connector-curvature="0" />
      <path
         d="m 407.6162,-402.06748 c -0.31072,-3.41591 0.83835,-7.17195 3.44723,-11.26814 3.35153,-5.09073 7.85216,-7.57455 13.50188,-7.45147 4.59438,0.0626 8.45889,1.66163 11.59354,4.79713 3.13458,3.13563 4.70189,6.84526 4.70192,11.12889 -3e-5,3.10341 -0.89997,6.11393 -2.6998,9.03157 -1.30352,2.11063 -3.84892,4.37657 -7.6362,6.79783 1.11779,0.31075 3.01144,1.14911 5.68097,2.51508 4.4068,3.22844 6.61022,7.79158 6.61026,13.68945 -4e-5,5.09081 -1.81554,9.4986 -5.4465,13.22337 -3.63104,3.72479 -7.99193,5.58719 -13.0827,5.58718 -6.08548,1e-5 -10.71114,-2.35877 -13.87701,-7.07634 -2.23374,-3.35343 -3.35061,-6.89254 -3.35061,-10.61734 l 11.35909,-2.60887 c 0.12503,5.83729 2.01868,8.75592 5.68096,8.7559 1.55166,2e-5 2.8864,-0.74503 4.00424,-2.23515 1.11779,-1.49009 1.6767,-3.50831 1.67673,-6.05468 -3e-5,-2.98018 -0.74461,-5.15234 -2.23374,-6.51648 -1.05721,-1.05716 -2.67141,-1.70985 -4.8426,-1.95807 -1.67674,-0.18564 -3.35346,-0.34005 -5.03017,-0.46323 l 0,-10.80492 c 3.5391,5e-5 6.27111,-1.05525 8.19605,-3.16588 1.79985,-1.92297 2.69978,-4.52994 2.69981,-7.82091 -3e-5,-3.29087 -1.24194,-4.93633 -3.72574,-4.93639 -3.41409,6e-5 -5.71129,3.01153 -6.89161,9.03441 z"
         style="font-variant:normal;font-stretch:normal;word-spacing:-35px;fill:#ffffff;font-family:CodiceBiancoCondensed;-inkscape-font-specification:CodiceBiancoCondensed"
         id="path19814"
         inkscape:connector-curvature="0" />
      <path
         d="m 483.68541,-403.7442 c 0.0606,3.3516 -1.11975,7.66655 -3.54101,12.94487 -1.55171,3.28906 -4.09711,7.85126 -7.63619,13.6866 -3.35158,5.46405 -5.36933,9.03443 -6.05326,10.71113 l 16.29832,0 0,11.64043 -31.5707,0 0,-9.77898 c 0.18756,-0.68205 1.98838,-3.66225 5.40246,-8.94063 4.098,-6.33173 7.13978,-11.39126 9.12535,-15.1786 3.22837,-6.14605 4.84257,-10.92612 4.8426,-14.34024 -3e-5,-1.55163 -0.43436,-2.80869 -1.30302,-3.77121 -0.86869,-0.9624 -1.8932,-1.44363 -3.07351,-1.44368 -1.48918,5e-5 -2.73109,0.71432 -3.72574,2.14279 -1.17845,1.55173 -1.76768,3.78641 -1.76766,6.70405 l -10.98964,0 c 0.18567,-6.89061 2.04806,-12.19833 5.58718,-15.92318 3.10524,-3.29086 6.95412,-4.93632 11.54665,-4.93639 4.40872,7e-5 8.22728,1.45892 11.45571,4.37653 3.47656,3.10342 5.27738,7.13892 5.40246,12.10651 z"
         style="font-variant:normal;font-stretch:normal;word-spacing:-35px;fill:#ffffff;font-family:CodiceBiancoCondensed;-inkscape-font-specification:CodiceBiancoCondensed"
         id="path19816"
         inkscape:connector-curvature="0" />
    </g>
    <rect
       rx="11.150097"
       ry="11.150097"
       y="-438.19788"
       x="294.0481"
       height="104.5"
       width="214.49998"
       id="rect5811"
       style="font-size:16.94802094px;font-style:normal;font-weight:normal;line-height:125%;letter-spacing:0px;word-spacing:0px;fill:none;stroke:#ffffff;stroke-width:5.49999952;stroke-miterlimit:4;stroke-opacity:1;stroke-dasharray:none;font-family:Sans" />
    <rect
       ry="20.281109"
       rx="20.281109"
       y="679.58655"
       x="2171.1143"
       height="175.5"
       width="175.5"
       id="rect19093"
       style="fill:none;stroke:#000000;stroke-width:4.5;stroke-linejoin:miter;stroke-miterlimit:4;stroke-opacity:1;stroke-dasharray:none" />
    <g
       id="g18486"
       transform="matrix(0.90000004,0,0,0.90000004,2812.8705,289.02476)">
      <path
         inkscape:connector-curvature="0"
         id="path18492-1"
         d="m -643.99182,564.56812 c -3.167,0 -5.744,-2.645 -5.744,-5.896 0,-3.251 2.577,-5.896 5.744,-5.896 3.167,0 5.744,2.645 5.744,5.896 0,3.252 -2.577,5.896 -5.744,5.896 z m -45.815,0 c -3.167,0 -5.744,-2.645 -5.744,-5.896 0,-3.251 2.577,-5.896 5.744,-5.896 3.167,0 5.744,2.645 5.744,5.896 0,3.252 -2.577,5.896 -5.744,5.896 z m -2.16,18.206 c -5.952,-1.414 -8.567,-4.923 -9.366,-12.564 l -0.494,-4.73 33.674,0.014 c 37.803,0.015 37.201,-0.049 54.852,5.898 17.241,5.809 24.606,6.794 54.975,7.352 l 25.908,0.476 -4.247,4.318 c -0.001,-0.002 -153.91,-0.433 -155.302,-0.764 l 0,0 z m 115.191,-11.928 c -7.194,-1.014 -19.2,-5.282 -26.319,-9.355 -3.328,-1.904 -27.153,-19.969 -28.376,-20.594 -4.844,-2.474 -10.567,-2.897 -39.23,-2.897 h -28.686 c 0,0 2.008,-15.927 2.218,-16.683 0.355,-1.278 2.488,-1.374 30.593,-1.374 25.304,0 30.581,0.191 32.486,1.176 1.251,0.647 7.127,6.712 13.058,13.478 5.931,6.766 12.161,13.567 13.844,15.114 5.051,4.642 13.879,10.14 20.172,12.563 10.431,4.017 16.16,4.774 36.114,4.774 h 18.09 v 4.71 c 10e-4,0.002 -41.157,-0.516 -43.964,-0.912 l 0,0 0,0 z m 1.078,-10.061 c -6.039,-1.583 -13.501,-5.065 -19.125,-8.923 -7.097,-4.869 -12.883,-11.841 -23.198,-27.954 -8.746,-13.663 -10.674,-16.191 -13.71,-17.978 l -3.533,-2.08 -26.912,-0.235 c -18.624,-0.162 -26.754,-0.49 -26.4,-1.063 0.282,-0.456 1.904,-1.452 3.606,-2.214 2.634,-1.179 3.834,-2.655 8.069,-9.928 l 4.975,-8.543 -2.329,-0.25 c -1.921,-0.206 -2.166,-0.447 -1.396,-1.374 1.293,-1.557 53.66,-1.698 53.15,-0.143 -0.177,0.54 -1.574,1.088 -3.104,1.219 l -2.782,0.238 4.269,17.034 4.269,17.034 7.196,11.384 c 10.802,17.088 19.801,25.321 32.738,29.951 4.735,1.695 6.526,1.845 24.848,2.08 18.359,0.236 19.842,0.361 21.123,1.776 1.359,1.502 1.13,1.521 -17.39,1.479 -15.712,-0.036 -19.68,-0.282 -24.364,-1.51 z m -50.991,-64.099 c -1.874,-7.179 -3.576,-13.576 -3.732,-13.377 -0.661,0.842 -8.551,14.485 -9.445,16.223 0,0 1.432,0.115 2.835,0.407 3.819,0.796 8.907,3.992 11.254,7.069 1.145,1.502 2.175,2.73 2.289,2.73 0.114,0 -1.327,-5.873 -3.201,-13.052 l 0,0 z m -10.735,-5.78 c 2.699,-4.735 4.907,-8.8 4.907,-9.034 0,-0.234 -8.366,-0.33 -18.591,-0.215 l -18.591,0.21 -2.07,3.533 c -1.139,1.943 -3.402,5.918 -5.029,8.832 l -2.959,5.299 18.713,-0.009 18.713,-0.009 4.907,-8.607 0,0 0,0 z" />
      <ellipse
         transform="translate(-719.27982,409.02912)"
         cx="26.232"
         cy="163.60699"
         rx="4.9419999"
         ry="5.0869999"
         id="ellipse18494-1"
         d="m 31.174,163.60699 c 0,2.80948 -2.212608,5.087 -4.942,5.087 -2.729391,0 -4.942,-2.27752 -4.942,-5.087 0,-2.80947 2.212609,-5.087 4.942,-5.087 2.729392,0 4.942,2.27753 4.942,5.087 z"
         sodipodi:cx="26.232"
         sodipodi:cy="163.60699"
         sodipodi:rx="4.9419999"
         sodipodi:ry="5.0869999"
         style="fill:#ffffff" />
      <ellipse
         transform="translate(-719.27982,409.02912)"
         cx="77.950996"
         cy="163.60699"
         rx="4.9419999"
         ry="5.0869999"
         id="ellipse18496-3"
         d="m 82.892996,163.60699 c 0,2.80948 -2.212608,5.087 -4.942,5.087 -2.729391,0 -4.942,-2.27752 -4.942,-5.087 0,-2.80947 2.212609,-5.087 4.942,-5.087 2.729392,0 4.942,2.27753 4.942,5.087 z"
         sodipodi:cx="77.950996"
         sodipodi:cy="163.60699"
         sodipodi:rx="4.9419999"
         sodipodi:ry="5.0869999"
         style="fill:#ffffff" />
    </g>
    <path
       style="fill:#d40000;fill-opacity:1;stroke:none"
       inkscape:connector-curvature="0"
       d="m 2288.4134,697.43146 c 12.9655,0.07 25.9421,-0.059 38.9102,-0.054 -0.2951,1.7971 -1.0852,3.607 -1.5757,5.3653 -0.5773,2.0697 -1.1888,4.1274 -1.7672,6.1969 -1.265,4.5246 -2.5428,9.0524 -3.8514,13.5647 -2.1455,7.398 -8.442,13.2633 -16.4907,13.2633 -7.3822,0 -14.7645,0 -22.1465,0 -3.5556,0 -7.1111,0 -10.6665,0 -1.6215,0 -3.3414,0.1628 -4.9589,-0.017 0.3292,-1.9135 1.083,-3.8479 1.6098,-5.7187 0.5737,-2.037 1.1476,-4.0742 1.7084,-6.115 1.1474,-4.175 2.2956,-8.3498 3.4449,-12.5245 0.9978,-3.6233 2.3551,-6.8172 5.1777,-9.4095 2.7706,-2.5444 6.7787,-4.5092 10.6059,-4.5527 m 15.5102,1.9637 c -4.0751,-0.027 -8.1515,-0.021 -12.226,0 -4.9326,0.023 -9.2768,0.9872 -12.9005,4.5413 -3.7403,3.6682 -4.5274,9.2045 -5.8631,14.0491 -0.7325,2.6563 -1.4915,5.306 -2.2107,7.9656 -0.3648,1.3485 -0.7565,2.6875 -1.1398,4.0309 -0.3407,1.1935 -0.9271,2.5639 -1.0088,3.8051 6.9534,-0.011 13.9073,0 20.8603,0 3.4011,6e-4 6.8024,-9e-4 10.2036,9e-4 2.9844,0.2542 6.2023,0.025 9.0301,-0.9911 2.6611,-0.9562 5.1735,-2.7987 6.8823,-5.0548 1.9487,-2.5726 2.6351,-5.7037 3.4739,-8.7562 0.945,-3.4386 1.9384,-6.8646 2.9041,-10.2977 0.8616,-3.063 2.1066,-6.216 2.6675,-9.3441 -0.1058,-0.022 -0.2131,-0.044 -0.3197,-0.064"
       id="path18515" />
    <path
       style="fill:#d40000;fill-opacity:1;stroke:none"
       inkscape:connector-curvature="0"
       d="m 2314.0785,700.82326 c 2.8556,0 5.7397,0.059 8.5926,-0.061 0.087,1.4193 -0.903,3.3679 -1.2923,4.7322 -0.4728,1.6568 -0.9341,3.3178 -1.4076,4.9739 -0.1887,0.6607 -3.8343,0.3096 -4.5899,0.307 -1.6587,-0.011 -3.3879,-0.099 -5.0384,0.076 0.053,0.725 0.8366,1.6928 1.1745,2.3255 0.3568,0.668 0.6993,1.3422 1.059,2.0089 0.8124,1.505 1.5908,3.0287 2.4057,4.5325 0.4251,0.785 0.8539,1.5682 1.2679,2.3594 0.3811,0.8005 0.093,1.2549 -0.2576,2.0643 -0.6899,1.5943 -1.6846,3.0538 -2.9201,4.2767 -2.5159,2.4893 -5.9684,3.8554 -9.4814,3.9237 -3.7282,0.072 -7.4651,0.094 -11.1939,0.072 0.126,-1.5436 0.8881,-3.2149 1.3102,-4.7038 0.478,-1.6852 1.0612,-3.3795 1.4209,-5.0943 3.2306,-0.1768 6.4862,0.047 9.722,-0.108 -1.1316,-2.7459 -2.9191,-5.3547 -4.3782,-7.9397 -0.668,-1.183 -1.42,-2.3519 -2.0039,-3.5788 -0.1847,-0.5138 -3.9202,-0.1668 -4.5097,-0.1668 -1.6151,5e-4 -3.2298,5e-4 -4.8448,5e-4 -0.5238,0 -1.135,-0.046 -1.5827,0.2942 -0.5125,0.3827 -0.9895,1.3832 -0.048,1.3657 3.4312,-9e-4 6.8626,0 10.2938,-9e-4 -0.8189,3.3419 -1.7418,6.7175 -2.7567,10.0047 -3.4748,0.083 -6.9705,-0.1717 -10.4414,-0.011 -0.8249,0.038 -0.9069,1.4541 -1.1151,2.1904 -0.256,0.9059 -0.4631,1.8279 -0.76,2.7216 -0.4474,1.6813 -0.8662,3.3836 -1.375,5.0472 -1.7965,-0.035 -3.5988,0.011 -5.396,0 -0.8913,-0.011 -1.7821,0.018 -2.6731,0.016 -0.88,-6e-4 -2.0536,0.2136 -2.903,-0.034 0.7294,-3.2336 1.8501,-6.4325 2.7512,-9.6251 0.9336,-3.3079 1.8564,-6.6194 2.7593,-9.9358 0.7983,-2.9318 1.6995,-5.5171 3.799,-7.784 2.1647,-2.3373 5.4035,-3.928 8.5767,-4.1843 5.4305,-0.4388 11.0462,-0.046 16.4968,-0.046 3.1104,-6e-4 6.2286,-0.065 9.3389,-0.015"
       id="path18517" />
    <rect
       style="fill:none;stroke:#000000;stroke-width:37.5;stroke-miterlimit:4;stroke-opacity:1;stroke-dasharray:none"
       id="rect19775"
       width="2425"
       height="1675"
       x="37.500004"
       y="-660.12506"
       rx="131.31982"
       ry="131.31982" />
  </g>
</svg>
