<?xml version="1.0" encoding="UTF-8" standalone="no"?>
<!-- Created with Inkscape (http://www.inkscape.org/) -->

<svg
   xmlns:dc="http://purl.org/dc/elements/1.1/"
   xmlns:cc="http://creativecommons.org/ns#"
   xmlns:rdf="http://www.w3.org/1999/02/22-rdf-syntax-ns#"
   xmlns:svg="http://www.w3.org/2000/svg"
   xmlns="http://www.w3.org/2000/svg"
   xmlns:sodipodi="http://sodipodi.sourceforge.net/DTD/sodipodi-0.dtd"
   xmlns:inkscape="http://www.inkscape.org/namespaces/inkscape"
   width="1880"
   height="949.99994"
   id="svg8379"
   version="1.1"
   inkscape:version="0.48.5 r10040"
   sodipodi:docname="CANC SP37.svg">
  <defs
     id="defs8381" />
  <sodipodi:namedview
     id="base"
     pagecolor="#ffffff"
     bordercolor="#666666"
     borderopacity="1.0"
     inkscape:pageopacity="0.0"
     inkscape:pageshadow="2"
     inkscape:zoom="0.12374369"
     inkscape:cx="2939.7486"
     inkscape:cy="462.73776"
     inkscape:document-units="px"
     inkscape:current-layer="layer1"
     showgrid="false"
     fit-margin-top="0"
     fit-margin-left="0"
     fit-margin-right="0"
     fit-margin-bottom="0"
     inkscape:window-width="1366"
     inkscape:window-height="705"
     inkscape:window-x="-8"
     inkscape:window-y="-8"
     inkscape:window-maximized="1" />
  <metadata
     id="metadata8384">
    <rdf:RDF>
      <cc:Work
         rdf:about="">
        <dc:format>image/svg+xml</dc:format>
        <dc:type
           rdf:resource="http://purl.org/dc/dcmitype/StillImage" />
        <dc:title />
      </cc:Work>
    </rdf:RDF>
  </metadata>
  <g
     inkscape:label="Livello 1"
     inkscape:groupmode="layer"
     id="layer1"
     transform="translate(0,397.63778)">
    <path
       sodipodi:nodetypes="cccccccccc"
       inkscape:connector-curvature="0"
       id="path8803"
       d="m 380,552.35436 0,-399.99214 1120.0789,0 c 23.4037,0 44.883,5.10537 69.0791,18.34748 l 300.395,164.04524 c 6.8933,3.94956 10.447,10.2353 10.447,17.45273 0,7.37392 -3.406,13.51126 -10.1461,17.58572 l -301.8838,164.97514 c -20.5795,11.27849 -43.9421,17.59363 -67.9539,17.59363 z"
       style="fill:#00408b;fill-opacity:1;stroke:none" />
    <path
       sodipodi:nodetypes="cccccccccccc"
       inkscape:connector-curvature="0"
       id="path8799"
       d="m 470.0582,542.36105 c -44.1859,0 -80.075,-35.69945 -80.0749,-80.06302 l -10e-5,-220.01094 c 0,-45.25813 36.9622,-79.93142 80.0694,-79.93142 l 1029.9327,0 c 23.9264,0 43.4228,5.57556 63.9071,16.88289 l 301.0046,164.37339 c 3.2602,1.86278 4.8198,4.93785 5.0875,8.15262 0.196,3.99446 -1.855,7.40823 -5.1268,9.30271 l -302.6528,165.35523 c -18.3963,9.9947 -39.3417,15.99374 -62.2638,15.99364 z"
       style="fill:#ffffff;fill-opacity:1;stroke:none" />
    <path
       sodipodi:nodetypes="cccccsccc"
       inkscape:connector-curvature="0"
       id="path8801"
       d="m 1581.3614,211.07157 c -35.8858,-35.88484 -81.2878,-33.70803 -81.2878,-33.70803 l -1030.0096,0 c -35.1175,4e-5 -65.0635,28.23456 -65.0635,64.93298 l -10e-5,220.00181 c 10e-5,35.96214 28.8693,65.05887 65.0578,65.05887 l 1030.0243,0 c 0,0 44.086,3.48077 81.301,-33.73299 l 141.2701,-141.26664 z"
       style="fill:#00408b;fill-opacity:1;stroke:none" />
    <g
       style="font-size:31.26556396px;font-style:normal;font-weight:normal;line-height:125%;letter-spacing:0px;word-spacing:0px;fill:#ffffff;fill-opacity:1;stroke:none;font-family:Sans"
       id="text8816"
       transform="matrix(1.0000146,0,0,0.99999009,380,-499.98962)">
      <path
         d="m 365.39731,793.54065 c 8.04479,1.2e-4 14.90157,3.06103 20.57037,9.18274 5.21213,5.77953 7.81823,12.06909 7.8183,18.86871 -7e-5,6.2326 -1.92654,11.84254 -5.77942,16.82984 -3.06098,4.08129 -6.68738,6.971 -10.87921,8.66912 5.55108,1.5876 10.31019,4.87505 14.27734,9.86237 4.7625,5.77948 7.14378,12.46506 7.14386,20.05676 -8e-5,10.19962 -3.68354,18.58686 -11.05041,25.16175 -6.68911,6.11837 -14.50913,9.17755 -23.46008,9.17755 l -31.28357,0 0.1712,-117.80884 z m -8.16071,43.01361 c 2.37952,0.56384 5.09975,0.0537 8.16071,-1.53046 3.96703,-2.15465 5.95057,-5.72572 5.95062,-10.71319 -5e-5,-3.62458 -1.55904,-6.59902 -4.67697,-8.92334 -3.11803,-2.32411 -6.26281,-3.25968 -9.43436,-2.8067 z m -0.3424,53.37921 c 2.04057,3e-5 4.0241,3e-5 5.95062,0 3.51395,-0.22824 6.29125,-1.24854 8.33191,-3.06091 2.71845,-2.37952 4.0777,-6.3466 4.07776,-11.90125 -6e-5,-8.04478 -2.03894,-13.37111 -6.11664,-15.979 -2.37961,-1.47333 -6.40375,-2.21002 -12.07245,-2.21008 z"
         style="font-size:170px;font-variant:normal;font-stretch:normal;fill:#ffffff;font-family:CodiceBiancoCondensed;-inkscape-font-specification:CodiceBiancoCondensed"
         id="path8906"
         inkscape:connector-curvature="0" />
      <path
         d="m 444.64902,791.67297 c 9.06509,1.3e-4 16.88511,4.19375 23.46008,12.58088 8.27304,10.7669 12.40959,26.63349 12.40967,47.59979 -8e-5,21.19125 -3.96716,37.2273 -11.90125,48.10821 -6.34669,8.95448 -14.22378,13.43171 -23.63128,13.4317 -9.85721,10e-6 -18.13032,-5.15684 -24.81934,-15.47058 -7.36695,-11.44812 -11.05042,-26.97576 -11.05041,-46.58294 -10e-6,-19.49292 3.62639,-34.62281 10.87921,-45.38971 6.46075,-9.51811 14.67851,-14.27722 24.65332,-14.27735 z m -11.05042,59.50104 c -3e-5,25.83968 3.79585,38.75949 11.38764,38.75946 7.36689,3e-5 11.05036,-12.91978 11.05041,-38.75946 -5e-5,-25.38646 -3.79593,-38.07973 -11.38763,-38.07983 -7.36698,10e-5 -11.05045,12.69337 -11.05042,38.07983 z"
         style="font-size:170px;font-variant:normal;font-stretch:normal;fill:#ffffff;font-family:CodiceBiancoCondensed;-inkscape-font-specification:CodiceBiancoCondensed"
         id="path8908"
         inkscape:connector-curvature="0" />
      <path
         d="m 528.71518,792.68982 c 8.50133,1.3e-4 16.15188,3.28758 22.95166,9.86237 7.36687,7.0281 11.05034,15.52774 11.05041,25.49896 -7e-5,13.26057 -5.61001,23.57428 -16.82983,30.94116 l 24.31091,52.35718 -24.31091,0 -18.7027,-45.72693 -5.43701,0 0,45.72693 -24.13971,0 0,-118.65967 z m -7.30988,18.7027 0,34.6817 c 4.30599,7e-5 8.216,-1.41798 11.73005,-4.25415 4.30597,-3.39978 6.45899,-8.04649 6.45904,-13.94013 -5e-5,-5.32623 -2.03893,-9.57519 -6.11664,-12.74688 -3.62818,-2.83254 -7.65232,-4.07938 -12.07245,-3.74054 z"
         style="font-size:170px;font-variant:normal;font-stretch:normal;fill:#ffffff;font-family:CodiceBiancoCondensed;-inkscape-font-specification:CodiceBiancoCondensed"
         id="path8910"
         inkscape:connector-curvature="0" />
      <path
         d="m 580.29935,852.87048 c -10e-6,-19.946 4.42015,-35.58604 13.26049,-46.92016 7.02797,-9.17916 14.84799,-13.7688 23.46009,-13.76892 8.50133,1.2e-4 16.09481,3.85307 22.78045,11.55883 4.53424,5.32645 7.65048,10.76691 9.34876,16.32142 l -18.69751,9.01153 c -6e-5,-2.15465 -0.73675,-4.87488 -2.21008,-8.1607 -2.1548,-4.75902 -5.15864,-7.13857 -9.01154,-7.13868 -4.53434,1.1e-4 -8.16074,3.28583 -10.87921,9.85718 -3.06094,7.14222 -4.5914,17.22939 -4.59137,30.26154 -3e-5,7.70595 0.62426,14.4486 1.87286,20.22796 2.37953,10.76684 6.57142,16.09317 12.57569,15.97901 4.1953,-0.11065 7.31328,-1.86592 9.35394,-5.26581 1.58401,-2.83606 2.43311,-6.97262 2.5473,-12.40967 -5e-5,-3.85635 -5e-5,-7.71102 0,-11.56402 l -11.90124,0 0,-19.03992 32.47162,0 0,69.52942 -18.01789,0 -2.55249,-6.45905 c -4.8733,5.55462 -10.2567,8.33192 -16.15021,8.33191 -8.84036,10e-6 -16.54624,-5.60993 -23.11767,-16.82983 -7.02801,-11.78708 -10.542,-26.29441 -10.54199,-43.52204 z"
         style="font-size:170px;font-variant:normal;font-stretch:normal;fill:#ffffff;font-family:CodiceBiancoCondensed;-inkscape-font-specification:CodiceBiancoCondensed"
         id="path8912"
         inkscape:connector-curvature="0" />
      <path
         d="m 702.96933,791.67297 c 9.06509,1.3e-4 16.88511,4.19375 23.46008,12.58088 8.27304,10.7669 12.40959,26.63349 12.40967,47.59979 -8e-5,21.19125 -3.96715,37.2273 -11.90124,48.10821 -6.3467,8.95448 -14.22379,13.43171 -23.63129,13.4317 -9.85721,10e-6 -18.13031,-5.15684 -24.81934,-15.47058 -7.36695,-11.44812 -11.05042,-26.97576 -11.05041,-46.58294 -10e-6,-19.49292 3.62639,-34.62281 10.87921,-45.38971 6.46075,-9.51811 14.67852,-14.27722 24.65332,-14.27735 z m -11.05042,59.50104 c -3e-5,25.83968 3.79585,38.75949 11.38764,38.75946 7.36689,3e-5 11.05036,-12.91978 11.05041,-38.75946 -5e-5,-25.38646 -3.79592,-38.07973 -11.38763,-38.07983 -7.36698,10e-5 -11.05045,12.69337 -11.05042,38.07983 z"
         style="font-size:170px;font-variant:normal;font-stretch:normal;fill:#ffffff;font-family:CodiceBiancoCondensed;-inkscape-font-specification:CodiceBiancoCondensed"
         id="path8914"
         inkscape:connector-curvature="0" />
      <path
         d="m 779.89682,790.99335 c 14.6197,0.33907 25.15995,7.81842 31.62079,22.43805 l -17.50946,11.05041 c -4.1954,-8.0482 -9.06865,-12.07234 -14.61975,-12.07245 -2.49373,1.1e-4 -4.61907,0.87861 -6.37604,2.6355 -1.75703,1.7571 -2.74966,4.05192 -2.97791,6.88446 -0.22484,2.26898 0.68306,4.59319 2.7237,6.97266 0.67787,0.79212 2.6614,2.60618 5.95062,5.4422 8.61202,6.68566 18.35851,14.95877 29.2395,24.81933 4.30596,5.44053 6.45898,12.07077 6.45905,19.89075 -7e-5,8.95104 -2.72031,16.65692 -8.16071,23.11768 -6.12188,7.13868 -14.22551,10.87921 -24.31091,11.22161 -14.95872,0.45309 -25.78259,-7.93415 -32.47162,-25.16174 l 18.19428,-10.37079 c 3.85291,9.40759 8.44255,14.11136 13.76892,14.11133 1.58748,3e-5 3.17327,-0.39599 4.75738,-1.18805 4.08117,-2.04058 6.12178,-5.4975 6.12183,-10.37079 -5e-5,-3.51395 -1.2469,-6.46073 -3.74054,-8.84033 -6.34668,-5.32628 -12.69331,-10.65261 -19.03992,-15.979 -9.40757,-7.81996 -15.07457,-13.48697 -17.00104,-17.00104 -2.94678,-5.10144 -4.42017,-10.42777 -4.42016,-15.979 -10e-6,-8.61542 3.23038,-16.09649 9.69116,-22.44324 6.46075,-6.34652 13.82769,-9.4057 22.10083,-9.17755 z"
         style="font-size:170px;font-variant:normal;font-stretch:normal;fill:#ffffff;font-family:CodiceBiancoCondensed;-inkscape-font-specification:CodiceBiancoCondensed"
         id="path8916"
         inkscape:connector-curvature="0" />
      <path
         d="m 861.34824,791.67297 c 9.06509,1.3e-4 16.88511,4.19375 23.46008,12.58088 8.27304,10.7669 12.40959,26.63349 12.40967,47.59979 -8e-5,21.19125 -3.96716,37.2273 -11.90125,48.10821 -6.3467,8.95448 -14.22378,13.43171 -23.63128,13.4317 -9.85721,10e-6 -18.13032,-5.15684 -24.81934,-15.47058 -7.36695,-11.44812 -11.05042,-26.97576 -11.05042,-46.58294 0,-19.49292 3.6264,-34.62281 10.87922,-45.38971 6.46075,-9.51811 14.67851,-14.27722 24.65332,-14.27735 z m -11.05042,59.50104 c -3e-5,25.83968 3.79585,38.75949 11.38764,38.75946 7.36689,3e-5 11.05036,-12.91978 11.05041,-38.75946 -5e-5,-25.38646 -3.79593,-38.07973 -11.38763,-38.07983 -7.36698,10e-5 -11.05045,12.69337 -11.05042,38.07983 z"
         style="font-size:170px;font-variant:normal;font-stretch:normal;fill:#ffffff;font-family:CodiceBiancoCondensed;-inkscape-font-specification:CodiceBiancoCondensed"
         id="path8918"
         inkscape:connector-curvature="0" />
      <path
         d="m 913.96481,792.68982 23.96851,0 0,100.13336 22.27203,0 0,19.21112 -46.24054,0 z"
         style="font-size:170px;font-variant:normal;font-stretch:normal;fill:#ffffff;font-family:CodiceBiancoCondensed;-inkscape-font-specification:CodiceBiancoCondensed"
         id="path8920"
         inkscape:connector-curvature="0" />
      <path
         d="m 1024.6661,792.68982 0,18.53149 -24.1397,0 0,29.23951 20.2332,0 0,19.03991 -20.4044,0 0,32.80884 28.9023,0 0,19.03992 -53.04202,0 0,-118.65967 z"
         style="font-size:170px;font-variant:normal;font-stretch:normal;fill:#ffffff;font-family:CodiceBiancoCondensed;-inkscape-font-specification:CodiceBiancoCondensed"
         id="path8922"
         inkscape:connector-curvature="0" />
    </g>
    <g
       style="font-size:24.05558586px;font-style:normal;font-weight:normal;line-height:125%;letter-spacing:0px;word-spacing:0px;fill:#ffffff;fill-opacity:1;stroke:none;font-family:Sans"
       id="text8831"
       transform="matrix(1.0000146,0,0,0.99999009,380,-499.98962)">
      <path
         d="m 1142.3087,806.6676 0,58.75946 6.6293,0 0,16.25 -6.6293,0 0,15.86121 -17.4203,0 0,-15.86121 -30.0284,0 0,-10.52917 26.6482,-64.48029 z m -17.6822,28.98896 -12.8698,30.16326 12.8698,0 z"
         style="font-size:130px;font-variant:normal;font-stretch:normal;fill:#ffffff;font-family:CodiceBiancoCondensed;-inkscape-font-specification:CodiceBiancoCondensed"
         id="path8925"
         inkscape:connector-curvature="0" />
      <path
         d="m 1159.1459,831.36792 c 0,-8.23336 2.4703,-14.77673 7.4109,-19.63013 4.4195,-4.41946 9.9658,-6.62923 16.6388,-6.62933 5.8927,10e-5 11.0488,2.08028 15.4684,6.24054 4.9405,4.76612 7.4108,11.09261 7.4109,18.97949 -10e-5,5.54633 -1.4732,10.31236 -4.4196,14.2981 -2.0815,2.86179 -4.2913,4.76873 -6.6293,5.72082 3.2055,0.43381 6.1955,2.55763 8.97,6.37146 3.0336,4.33232 4.5505,9.5321 4.5505,15.59937 0,7.7997 -2.4703,14.29943 -7.4109,19.4992 -4.9406,5.1998 -10.9643,7.79969 -18.071,7.79969 -6.2392,0 -11.7418,-1.94926 -16.5078,-5.84778 -6.0673,-4.94058 -9.101,-12.00366 -9.101,-21.18927 0,-11.44161 3.9858,-18.85249 11.9574,-22.23267 -6.8449,-3.20551 -10.2673,-9.532 -10.2673,-18.97949 z m 17.5473,-0.78156 c 0,8.14887 1.9505,12.22327 5.8517,12.22321 3.9858,6e-5 5.9787,-4.07434 5.9787,-12.22321 0,-7.01937 -1.9493,-10.52909 -5.8478,-10.52917 -1.5605,8e-5 -2.904,0.82396 -4.0307,2.47162 -1.3013,1.90702 -1.9519,4.59287 -1.9519,8.05755 z m -0.127,40.30365 c 0,8.23082 2.1661,12.34622 6.4984,12.3462 4.0731,2e-5 6.1096,-4.15902 6.1097,-12.47712 -10e-5,-8.75443 -2.1662,-13.13166 -6.4985,-13.13171 -1.8196,5e-5 -3.2928,1.21337 -4.4195,3.63998 -1.1267,2.4267 -1.6901,5.63425 -1.6901,9.62265 z"
         style="font-size:130px;font-variant:normal;font-stretch:normal;fill:#ffffff;font-family:CodiceBiancoCondensed;-inkscape-font-specification:CodiceBiancoCondensed"
         id="path8927"
         inkscape:connector-curvature="0" />
    </g>
    <g
       style="font-size:16.94802094px;font-style:normal;font-weight:normal;line-height:125%;letter-spacing:0px;word-spacing:0px;fill:#ffffff;fill-opacity:1;stroke:none;font-family:Sans"
       id="text8835"
       transform="matrix(1.0000146,0,0,0.99999009,380,-499.98962)">
      <path
         d="m 111.20189,820.97214 c 7.87655,0.18268 13.55524,4.21227 17.0361,12.08878 l -9.43344,5.95355 c -2.26033,-4.33606 -4.88585,-6.50412 -7.87658,-6.50418 -1.34353,6e-5 -2.48858,0.47336 -3.43517,1.41991 -0.94662,0.94666 -1.48142,2.18302 -1.60438,3.70909 -0.12114,1.22244 0.368,2.47464 1.46742,3.7566 0.36521,0.42677 1.43387,1.40412 3.20597,2.93206 4.63984,3.60198 9.89088,8.05922 15.75315,13.37173 2.31989,2.93115 3.47986,6.50328 3.4799,10.71639 -4e-5,4.82248 -1.4656,8.97413 -4.39669,12.45494 -3.29824,3.84605 -7.66417,5.86131 -13.09781,6.04579 -8.0592,0.2441 -13.890692,-4.27463 -17.494493,-13.55621 l 9.802393,-5.58739 c 2.07581,5.06845 4.54853,7.60267 7.41818,7.60265 0.85528,2e-5 1.70965,-0.21334 2.5631,-0.64007 2.19879,-1.09939 3.29819,-2.96185 3.29821,-5.5874 -2e-5,-1.89318 -0.67178,-3.4808 -2.01526,-4.76284 -3.41935,-2.8696 -6.83868,-5.73923 -10.25799,-8.60889 -5.06845,-4.2131 -8.121622,-7.26627 -9.159527,-9.15952 -1.587617,-2.74846 -2.381423,-5.61809 -2.381421,-8.60889 -2e-6,-4.64166 1.740408,-8.67219 5.221236,-12.09158 3.480812,-3.41926 7.449842,-5.06743 11.907102,-4.94452 z"
         style="font-size:91.58964539px;font-variant:normal;font-stretch:normal;word-spacing:-15px;fill:#ffffff;font-family:CodiceBiancoCondensed;-inkscape-font-specification:CodiceBiancoCondensed"
         id="path8897"
         inkscape:connector-curvature="0" />
      <path
         d="m 152.70345,820.97214 c 7.87654,0.18268 13.55524,4.21227 17.03609,12.08878 l -9.43344,5.95355 c -2.26032,-4.33606 -4.88585,-6.50412 -7.87657,-6.50418 -1.34353,6e-5 -2.48859,0.47336 -3.43517,1.41991 -0.94662,0.94666 -1.48142,2.18302 -1.60439,3.70909 -0.12113,1.22244 0.36801,2.47464 1.46743,3.7566 0.36521,0.42677 1.43386,1.40412 3.20597,2.93206 4.63983,3.60198 9.89088,8.05922 15.75315,13.37173 2.31989,2.93115 3.47985,6.50328 3.47989,10.71639 -4e-5,4.82248 -1.4656,8.97413 -4.39668,12.45494 -3.29824,3.84605 -7.66418,5.86131 -13.09781,6.04579 -8.0592,0.2441 -13.8907,-4.27463 -17.4945,-13.55621 l 9.8024,-5.58739 c 2.07581,5.06845 4.54853,7.60267 7.41818,7.60265 0.85528,2e-5 1.70964,-0.21334 2.5631,-0.64007 2.19878,-1.09939 3.29818,-2.96185 3.29821,-5.5874 -3e-5,-1.89318 -0.67178,-3.4808 -2.01526,-4.76284 -3.41935,-2.8696 -6.83868,-5.73923 -10.258,-8.60889 -5.06844,-4.2131 -8.12162,-7.26627 -9.15952,-9.15952 -1.58762,-2.74846 -2.38142,-5.61809 -2.38142,-8.60889 0,-4.64166 1.74041,-8.67219 5.22123,-12.09158 3.48082,-3.41926 7.44985,-5.06743 11.90711,-4.94452 z"
         style="font-size:91.58964539px;font-variant:normal;font-stretch:normal;word-spacing:-15px;fill:#ffffff;font-family:CodiceBiancoCondensed;-inkscape-font-specification:CodiceBiancoCondensed"
         id="path8899"
         inkscape:connector-curvature="0" />
      <path
         d="m 220.63389,821.70445 0,64.38779 -13.00557,0 0,-42.86556 -7.05202,0 0,-9.52568 c 5.98335,-0.42666 8.91447,-4.42551 8.79336,-11.99655 z"
         style="font-size:91.58964539px;font-variant:normal;font-stretch:normal;word-spacing:-15px;fill:#ffffff;font-family:CodiceBiancoCondensed;-inkscape-font-specification:CodiceBiancoCondensed"
         id="path8901"
         inkscape:connector-curvature="0" />
      <path
         d="m 248.67707,821.88614 c 5.43363,6e-5 9.99755,3.03786 13.69177,9.1134 3.69414,6.07566 5.54123,13.8148 5.54127,23.21745 -4e-5,9.22011 -2.04512,17.00537 -6.13523,23.35581 -3.84795,5.92374 -8.30519,8.8856 -13.37173,8.8856 -4.64174,0 -8.79431,-2.38141 -12.45774,-7.14426 -4.57837,-6.04484 -6.86755,-14.5326 -6.86754,-25.46331 -1e-5,-9.58526 2.13638,-17.46183 6.40915,-23.62972 3.8479,-5.55659 8.24458,-8.33491 13.19005,-8.33497 z m -7.41818,31.87525 c -2e-5,5.55668 0.67174,10.41082 2.01526,14.56244 1.34349,4.15166 2.99166,6.22749 4.94452,6.22747 2.19878,2e-5 3.99976,-2.56495 5.40292,-7.69489 1.16087,-4.21312 1.74131,-8.57812 1.74134,-13.09502 -3e-5,-3.84787 -0.42768,-7.60354 -1.28295,-11.26702 -1.22055,-5.31249 -3.08301,-7.96876 -5.58739,-7.96882 -2.25846,6e-5 -4.09017,2.47371 -5.49515,7.42098 -1.15905,3.96721 -1.73857,7.90549 -1.73855,11.81486 z"
         style="font-size:91.58964539px;font-variant:normal;font-stretch:normal;word-spacing:-15px;fill:#ffffff;font-family:CodiceBiancoCondensed;-inkscape-font-specification:CodiceBiancoCondensed"
         id="path8903"
         inkscape:connector-curvature="0" />
    </g>
    <rect
       style="fill:none;stroke:#ffffff;stroke-width:6.00001383;stroke-miterlimit:4;stroke-opacity:1;stroke-dasharray:none"
       id="rect8839"
       width="215.45209"
       height="107.99892"
       x="453.25909"
       y="298.36469"
       ry="12.99987" />
    <path
       sodipodi:nodetypes="cccccccccc"
       inkscape:connector-curvature="0"
       id="path8803-1"
       d="m 1500,-397.62997 0,399.9921557 -1120.0789,0 c -23.4037,0 -44.883,-5.105346 -69.0791,-18.3474157 L 10.447,-180.03054 C 3.5537,-183.98012 0,-190.26579 0,-197.48322 c 0,-7.37393 3.406,-13.51134 10.1461,-17.58573 l 301.8838,-164.97523 c 20.5795,-11.27842 43.9421,-17.5936 67.9539,-17.5936 z"
       style="fill:#00408b;fill-opacity:1;stroke:none" />
    <path
       sodipodi:nodetypes="cccccccccccc"
       inkscape:connector-curvature="0"
       id="path8799-7"
       d="m 1409.9418,-387.63664 c 44.1859,0 80.075,35.69943 80.0749,80.06296 l 1e-4,220.011011 c 0,45.258197 -36.9622,79.9314567 -80.0694,79.9314567 l -1029.9327,0 c -23.9264,0 -43.4228,-5.5755447 -63.9071,-16.8829337 L 15.103,-188.88756 c -3.2602,-1.86271 -4.8198,-4.93782 -5.0875,-8.15254 -0.196,-3.99451 1.855,-7.40829 5.1268,-9.30271 l 302.6528,-165.35536 c 18.3963,-9.99469 39.3417,-15.99369 62.2638,-15.99365 z"
       style="fill:#ffffff;fill-opacity:1;stroke:none" />
    <path
       sodipodi:nodetypes="cccccsccc"
       inkscape:connector-curvature="0"
       id="path8801-4"
       d="m 298.6386,-56.347135 c 35.8858,35.884848 81.2878,33.708071 81.2878,33.708071 l 1030.0096,0 c 35.1175,-10e-5 65.0635,-28.234565 65.0635,-64.933035 l 1e-4,-220.001821 c -1e-4,-35.96217 -28.8693,-65.05894 -65.0578,-65.05894 l -1030.0243,0 c 0,0 -44.086,-3.4807 -81.301,33.73305 l -141.2701,141.2667 z"
       style="fill:#00408b;fill-opacity:1;stroke:none" />
    <g
       transform="matrix(1.0000146,0,0,0.99999021,0,-1049.9897)"
       style="font-size:31.26556396px;font-style:normal;font-weight:normal;line-height:125%;letter-spacing:0px;word-spacing:0px;fill:#ffffff;fill-opacity:1;stroke:none;font-family:Sans"
       id="text8816-0">
      <path
         inkscape:connector-curvature="0"
         d="m 339.07446,793.53705 c 8.04479,1.2e-4 14.90157,3.06103 20.57038,9.18274 5.21212,5.77953 7.81822,12.06909 7.81829,18.86871 -7e-5,6.2326 -1.92654,11.84253 -5.77941,16.82983 -3.06098,4.0813 -6.68738,6.97101 -10.87922,8.66913 5.55109,1.5876 10.3102,4.87505 14.27735,9.86237 4.7625,5.77947 7.14378,12.46506 7.14386,20.05676 -8e-5,10.19962 -3.68355,18.58686 -11.05042,25.16174 -6.6891,6.11838 -14.50912,9.17756 -23.46008,9.17756 l -31.28357,0 0.1712,-117.80884 z m -8.1607,43.01361 c 2.37951,0.56384 5.09975,0.0537 8.1607,-1.53046 3.96704,-2.15466 5.95057,-5.72572 5.95063,-10.71319 -6e-5,-3.62458 -1.55904,-6.59902 -4.67698,-8.92334 -3.11802,-2.32412 -6.2628,-3.25968 -9.43435,-2.8067 z m -0.34241,53.37921 c 2.04057,3e-5 4.02411,3e-5 5.95062,0 3.51395,-0.22824 6.29125,-1.24854 8.33191,-3.06091 2.71845,-2.37953 4.07771,-6.3466 4.07776,-11.90125 -5e-5,-8.04479 -2.03893,-13.37112 -6.11664,-15.979 -2.3796,-1.47333 -6.40375,-2.21002 -12.07245,-2.21008 z"
         style="font-size:170px;font-variant:normal;font-stretch:normal;fill:#ffffff;font-family:CodiceBiancoCondensed;-inkscape-font-specification:CodiceBiancoCondensed"
         id="path9009" />
      <path
         inkscape:connector-curvature="0"
         d="m 418.32617,791.66937 c 9.0651,1.3e-4 16.88512,4.19375 23.46008,12.58087 8.27304,10.76691 12.4096,26.63349 12.40967,47.5998 -7e-5,21.19125 -3.96715,37.2273 -11.90124,48.10821 -6.3467,8.95448 -14.22379,13.43171 -23.63129,13.4317 -9.85721,10e-6 -18.13031,-5.15685 -24.81933,-15.47058 -7.36696,-11.44813 -11.05043,-26.97576 -11.05042,-46.58294 -10e-6,-19.49292 3.62639,-34.62281 10.87921,-45.38971 6.46075,-9.51811 14.67852,-14.27722 24.65332,-14.27735 z m -11.05041,59.50104 c -3e-5,25.83968 3.79584,38.75949 11.38763,38.75946 7.3669,3e-5 11.05036,-12.91978 11.05042,-38.75946 -6e-5,-25.38646 -3.79593,-38.07973 -11.38764,-38.07983 -7.36698,10e-5 -11.05044,12.69337 -11.05041,38.07983 z"
         style="font-size:170px;font-variant:normal;font-stretch:normal;fill:#ffffff;font-family:CodiceBiancoCondensed;-inkscape-font-specification:CodiceBiancoCondensed"
         id="path9011" />
      <path
         inkscape:connector-curvature="0"
         d="m 502.39233,792.68622 c 8.50134,1.2e-4 16.15188,3.28758 22.95166,9.86236 7.36687,7.02811 11.05034,15.52775 11.05042,25.49897 -8e-5,13.26057 -5.61002,23.57428 -16.82983,30.94116 l 24.31091,52.35718 -24.31091,0 -18.7027,-45.72693 -5.43701,0 0,45.72693 -24.13971,0 0,-118.65967 z m -7.30987,18.7027 0,34.6817 c 4.30599,7e-5 8.216,-1.41798 11.73004,-4.25415 4.30598,-3.39978 6.45899,-8.04649 6.45905,-13.94013 -6e-5,-5.32624 -2.03894,-9.57519 -6.11664,-12.74688 -3.62818,-2.83254 -7.65233,-4.07938 -12.07245,-3.74054 z"
         style="font-size:170px;font-variant:normal;font-stretch:normal;fill:#ffffff;font-family:CodiceBiancoCondensed;-inkscape-font-specification:CodiceBiancoCondensed"
         id="path9013" />
      <path
         inkscape:connector-curvature="0"
         d="m 553.9765,852.86688 c 0,-19.946 4.42016,-35.58604 13.2605,-46.92016 7.02797,-9.17916 14.84799,-13.7688 23.46008,-13.76892 8.50133,1.2e-4 16.09481,3.85306 22.78046,11.55883 4.53423,5.32645 7.65048,10.76691 9.34875,16.32141 l -18.69751,9.01154 c -5e-5,-2.15465 -0.73675,-4.87488 -2.21008,-8.16071 -2.1548,-4.75901 -5.15864,-7.13856 -9.01153,-7.13867 -4.53435,1.1e-4 -8.16075,3.28583 -10.87922,9.85718 -3.06094,7.14222 -4.5914,17.22939 -4.59137,30.26154 -3e-5,7.70595 0.62426,14.44859 1.87287,20.22796 2.37952,10.76684 6.57141,16.09317 12.57568,15.97901 4.19531,-0.11065 7.31328,-1.86592 9.35394,-5.26581 1.58402,-2.83607 2.43312,-6.97262 2.54731,-12.40967 -6e-5,-3.85635 -6e-5,-7.71103 0,-11.56403 l -11.90125,0 0,-19.03991 32.47162,0 0,69.52942 -18.01788,0 -2.55249,-6.45905 c -4.8733,5.55462 -10.2567,8.33192 -16.15021,8.33191 -8.84036,10e-6 -16.54625,-5.60993 -23.11768,-16.82983 -7.028,-11.78708 -10.54199,-26.29441 -10.54199,-43.52204 z"
         style="font-size:170px;font-variant:normal;font-stretch:normal;fill:#ffffff;font-family:CodiceBiancoCondensed;-inkscape-font-specification:CodiceBiancoCondensed"
         id="path9015" />
      <path
         inkscape:connector-curvature="0"
         d="m 676.64648,791.66937 c 9.0651,1.3e-4 16.88512,4.19375 23.46009,12.58087 8.27304,10.76691 12.40959,26.63349 12.40967,47.5998 -8e-5,21.19125 -3.96716,37.2273 -11.90125,48.10821 -6.3467,8.95448 -14.22379,13.43171 -23.63129,13.4317 -9.85721,10e-6 -18.13031,-5.15685 -24.81933,-15.47058 -7.36695,-11.44813 -11.05042,-26.97576 -11.05042,-46.58294 0,-19.49292 3.6264,-34.62281 10.87921,-45.38971 6.46076,-9.51811 14.67852,-14.27722 24.65332,-14.27735 z m -11.05041,59.50104 c -3e-5,25.83968 3.79584,38.75949 11.38763,38.75946 7.3669,3e-5 11.05037,-12.91978 11.05042,-38.75946 -5e-5,-25.38646 -3.79593,-38.07973 -11.38764,-38.07983 -7.36697,10e-5 -11.05044,12.69337 -11.05041,38.07983 z"
         style="font-size:170px;font-variant:normal;font-stretch:normal;fill:#ffffff;font-family:CodiceBiancoCondensed;-inkscape-font-specification:CodiceBiancoCondensed"
         id="path9017" />
      <path
         inkscape:connector-curvature="0"
         d="m 753.57397,790.98975 c 14.6197,0.33907 25.15996,7.81841 31.62079,22.43805 l -17.50946,11.05041 c -4.1954,-8.0482 -9.06864,-12.07234 -14.61975,-12.07245 -2.49372,1.1e-4 -4.61907,0.87861 -6.37604,2.6355 -1.75702,1.7571 -2.74966,4.05192 -2.9779,6.88446 -0.22484,2.26898 0.68306,4.59319 2.72369,6.97266 0.67787,0.79212 2.66141,2.60618 5.95063,5.4422 8.61201,6.68566 18.3585,14.95877 29.2395,24.81933 4.30596,5.44053 6.45897,12.07077 6.45904,19.89075 -7e-5,8.95104 -2.7203,16.65692 -8.1607,23.11767 -6.12189,7.13869 -14.22552,10.87922 -24.31092,11.22162 -14.95872,0.45309 -25.78258,-7.93415 -32.47161,-25.16174 l 18.19427,-10.37079 c 3.85292,9.40759 8.44255,14.11136 13.76892,14.11133 1.58749,3e-5 3.17328,-0.39599 4.75739,-1.18805 4.08117,-2.04058 6.12177,-5.4975 6.12182,-10.37079 -5e-5,-3.51395 -1.24689,-6.46073 -3.74054,-8.84033 -6.34668,-5.32628 -12.69331,-10.65261 -19.03991,-15.979 -9.40757,-7.81996 -15.07458,-13.48697 -17.00104,-17.00104 -2.94679,-5.10144 -4.42017,-10.42777 -4.42017,-15.97901 0,-8.61541 3.23038,-16.09648 9.69116,-22.44323 6.46076,-6.34652 13.82769,-9.4057 22.10083,-9.17755 z"
         style="font-size:170px;font-variant:normal;font-stretch:normal;fill:#ffffff;font-family:CodiceBiancoCondensed;-inkscape-font-specification:CodiceBiancoCondensed"
         id="path9019" />
      <path
         inkscape:connector-curvature="0"
         d="m 835.02539,791.66937 c 9.0651,1.3e-4 16.88512,4.19375 23.46008,12.58087 8.27304,10.76691 12.40959,26.63349 12.40967,47.5998 -8e-5,21.19125 -3.96715,37.2273 -11.90124,48.10821 -6.3467,8.95448 -14.22379,13.43171 -23.63129,13.4317 -9.85721,10e-6 -18.13031,-5.15685 -24.81934,-15.47058 -7.36695,-11.44813 -11.05042,-26.97576 -11.05041,-46.58294 -10e-6,-19.49292 3.62639,-34.62281 10.87921,-45.38971 6.46075,-9.51811 14.67852,-14.27722 24.65332,-14.27735 z m -11.05041,59.50104 c -3e-5,25.83968 3.79584,38.75949 11.38763,38.75946 7.36689,3e-5 11.05036,-12.91978 11.05041,-38.75946 -5e-5,-25.38646 -3.79592,-38.07973 -11.38763,-38.07983 -7.36698,10e-5 -11.05044,12.69337 -11.05041,38.07983 z"
         style="font-size:170px;font-variant:normal;font-stretch:normal;fill:#ffffff;font-family:CodiceBiancoCondensed;-inkscape-font-specification:CodiceBiancoCondensed"
         id="path9021" />
      <path
         inkscape:connector-curvature="0"
         d="m 887.64197,792.68622 23.9685,0 0,100.13336 22.27204,0 0,19.21112 -46.24054,0 z"
         style="font-size:170px;font-variant:normal;font-stretch:normal;fill:#ffffff;font-family:CodiceBiancoCondensed;-inkscape-font-specification:CodiceBiancoCondensed"
         id="path9023" />
      <path
         inkscape:connector-curvature="0"
         d="m 998.34326,792.68622 0,18.53149 -24.13971,0 0,29.2395 20.23316,0 0,19.03992 -20.40436,0 0,32.80884 28.90225,0 0,19.03992 -53.04196,0 0,-118.65967 z"
         style="font-size:170px;font-variant:normal;font-stretch:normal;fill:#ffffff;font-family:CodiceBiancoCondensed;-inkscape-font-specification:CodiceBiancoCondensed"
         id="path9025" />
    </g>
    <g
       transform="matrix(1.0000146,0,0,0.99999021,0,-1049.9897)"
       style="font-size:24.05558586px;font-style:normal;font-weight:normal;line-height:125%;letter-spacing:0px;word-spacing:0px;fill:#ffffff;fill-opacity:1;stroke:none;font-family:Sans"
       id="text8831-9">
      <path
         inkscape:connector-curvature="0"
         d="m 1110.9858,806.66406 0,58.75946 6.6294,0 0,16.25 -6.6294,0 0,15.86121 -17.4203,0 0,-15.86121 -30.0284,0 0,-10.52917 26.6483,-64.48029 z m -17.6822,28.98896 -12.8698,30.16326 12.8698,0 z"
         style="font-size:130px;font-variant:normal;font-stretch:normal;fill:#ffffff;font-family:CodiceBiancoCondensed;-inkscape-font-specification:CodiceBiancoCondensed"
         id="path9004" />
      <path
         inkscape:connector-curvature="0"
         d="m 1127.823,831.36438 c 0,-8.23336 2.4703,-14.77673 7.4109,-19.63013 4.4195,-4.41946 9.9658,-6.62923 16.6388,-6.62933 5.8927,10e-5 11.0488,2.08028 15.4684,6.24054 4.9406,4.76612 7.4109,11.09261 7.4109,18.97949 0,5.54633 -1.4732,10.31236 -4.4195,14.2981 -2.0816,2.86179 -4.2914,4.76873 -6.6294,5.72082 3.2055,0.43381 6.1956,2.55763 8.9701,6.37146 3.0336,4.33232 4.5504,9.5321 4.5504,15.59937 0,7.7997 -2.4703,14.29943 -7.4109,19.4992 -4.9406,5.1998 -10.9642,7.79969 -18.0709,7.79969 -6.2393,0 -11.7419,-1.94926 -16.5079,-5.84778 -6.0673,-4.94058 -9.101,-12.00366 -9.101,-21.18927 0,-11.44161 3.9858,-18.85249 11.9574,-22.23267 -6.8449,-3.20551 -10.2673,-9.532 -10.2673,-18.97949 z m 17.5473,-0.78156 c 0,8.14887 1.9506,12.22327 5.8517,12.22321 3.9858,6e-5 5.9787,-4.07434 5.9787,-12.22321 0,-7.01937 -1.9492,-10.52909 -5.8477,-10.52917 -1.5605,8e-5 -2.9041,0.82396 -4.0308,2.47162 -1.3013,1.90702 -1.9519,4.59287 -1.9519,8.05755 z m -0.127,40.30365 c 0,8.23082 2.1662,12.34622 6.4985,12.3462 4.073,2e-5 6.1095,-4.15902 6.1096,-12.47712 -10e-5,-8.75443 -2.1662,-13.13166 -6.4984,-13.13171 -1.8197,5e-5 -3.2929,1.21337 -4.4196,3.63998 -1.1267,2.4267 -1.6901,5.63425 -1.6901,9.62265 z"
         style="font-size:130px;font-variant:normal;font-stretch:normal;fill:#ffffff;font-family:CodiceBiancoCondensed;-inkscape-font-specification:CodiceBiancoCondensed"
         id="path9006" />
    </g>
    <g
       transform="matrix(1.0000146,0,0,0.99999021,0,-1049.9897)"
       style="font-size:16.94802094px;font-style:normal;font-weight:normal;line-height:125%;letter-spacing:0px;word-spacing:0px;fill:#ffffff;fill-opacity:1;stroke:none;font-family:Sans"
       id="text8835-4">
      <path
         inkscape:connector-curvature="0"
         d="m 1267.2147,820.96817 c 7.8766,0.18268 13.5552,4.21227 17.0361,12.08879 l -9.4334,5.95355 c -2.2604,-4.33607 -4.8859,-6.50413 -7.8766,-6.50419 -1.3435,6e-5 -2.4886,0.47336 -3.4352,1.41991 -0.9466,0.94666 -1.4814,2.18302 -1.6044,3.70909 -0.1211,1.22244 0.368,2.47464 1.4675,3.75661 0.3652,0.42676 1.4338,1.40411 3.2059,2.93205 4.6399,3.60199 9.8909,8.05923 15.7532,13.37173 2.3199,2.93115 3.4798,6.50328 3.4799,10.71639 -10e-5,4.82249 -1.4656,8.97413 -4.3967,12.45494 -3.2983,3.84606 -7.6642,5.86132 -13.0978,6.04579 -8.0592,0.24411 -13.8907,-4.27462 -17.4945,-13.55621 l 9.8024,-5.58739 c 2.0758,5.06845 4.5485,7.60267 7.4182,7.60266 0.8552,10e-6 1.7096,-0.21335 2.5631,-0.64008 2.1987,-1.09939 3.2981,-2.96185 3.2982,-5.58739 -10e-5,-1.89319 -0.6718,-3.4808 -2.0153,-4.76284 -3.4193,-2.86961 -6.8387,-5.73923 -10.258,-8.60889 -5.0684,-4.2131 -8.1216,-7.26628 -9.1595,-9.15953 -1.5876,-2.74846 -2.3814,-5.61809 -2.3814,-8.60889 0,-4.64166 1.7404,-8.67218 5.2212,-12.09158 3.4808,-3.41926 7.4498,-5.06743 11.9071,-4.94452 z"
         style="font-size:91.58964539px;font-variant:normal;font-stretch:normal;word-spacing:-15px;fill:#ffffff;font-family:CodiceBiancoCondensed;-inkscape-font-specification:CodiceBiancoCondensed"
         id="path8995" />
      <path
         inkscape:connector-curvature="0"
         d="m 1308.7163,820.96817 c 7.8765,0.18268 13.5552,4.21227 17.0361,12.08879 l -9.4335,5.95355 c -2.2603,-4.33607 -4.8858,-6.50413 -7.8766,-6.50419 -1.3435,6e-5 -2.4885,0.47336 -3.4351,1.41991 -0.9466,0.94666 -1.4814,2.18302 -1.6044,3.70909 -0.1211,1.22244 0.368,2.47464 1.4674,3.75661 0.3652,0.42676 1.4339,1.40411 3.206,2.93205 4.6398,3.60199 9.8909,8.05923 15.7531,13.37173 2.3199,2.93115 3.4799,6.50328 3.4799,10.71639 0,4.82249 -1.4656,8.97413 -4.3967,12.45494 -3.2982,3.84606 -7.6641,5.86132 -13.0978,6.04579 -8.0592,0.24411 -13.8907,-4.27462 -17.4945,-13.55621 l 9.8024,-5.58739 c 2.0758,5.06845 4.5486,7.60267 7.4182,7.60266 0.8553,10e-6 1.7097,-0.21335 2.5631,-0.64008 2.1988,-1.09939 3.2982,-2.96185 3.2982,-5.58739 0,-1.89319 -0.6718,-3.4808 -2.0152,-4.76284 -3.4194,-2.86961 -6.8387,-5.73923 -10.258,-8.60889 -5.0685,-4.2131 -8.1216,-7.26628 -9.1596,-9.15953 -1.5876,-2.74846 -2.3814,-5.61809 -2.3814,-8.60889 0,-4.64166 1.7404,-8.67218 5.2213,-12.09158 3.4808,-3.41926 7.4498,-5.06743 11.9071,-4.94452 z"
         style="font-size:91.58964539px;font-variant:normal;font-stretch:normal;word-spacing:-15px;fill:#ffffff;font-family:CodiceBiancoCondensed;-inkscape-font-specification:CodiceBiancoCondensed"
         id="path8997" />
      <path
         inkscape:connector-curvature="0"
         d="m 1376.6467,821.70049 0,64.38779 -13.0056,0 0,-42.86557 -7.052,0 0,-9.52568 c 5.9834,-0.42666 8.9145,-4.4255 8.7934,-11.99654 z"
         style="font-size:91.58964539px;font-variant:normal;font-stretch:normal;word-spacing:-15px;fill:#ffffff;font-family:CodiceBiancoCondensed;-inkscape-font-specification:CodiceBiancoCondensed"
         id="path8999" />
      <path
         inkscape:connector-curvature="0"
         d="m 1404.6899,821.88217 c 5.4336,7e-5 9.9975,3.03787 13.6918,9.1134 3.6941,6.07566 5.5412,13.8148 5.5412,23.21745 0,9.22011 -2.0451,17.00537 -6.1352,23.35581 -3.8479,5.92374 -8.3052,8.88561 -13.3717,8.8856 -4.6418,10e-6 -8.7943,-2.38141 -12.4578,-7.14426 -4.5783,-6.04484 -6.8675,-14.5326 -6.8675,-25.4633 0,-9.58527 2.1364,-17.46184 6.4091,-23.62973 3.8479,-5.55658 8.2446,-8.3349 13.1901,-8.33497 z m -7.4182,31.87525 c 0,5.55668 0.6717,10.41082 2.0153,14.56244 1.3435,4.15167 2.9916,6.22749 4.9445,6.22747 2.1988,2e-5 3.9997,-2.56494 5.4029,-7.69489 1.1609,-4.21311 1.7413,-8.57811 1.7413,-13.09502 0,-3.84787 -0.4276,-7.60354 -1.2829,-11.26702 -1.2205,-5.31249 -3.083,-7.96876 -5.5874,-7.96882 -2.2584,6e-5 -4.0902,2.47372 -5.4951,7.42098 -1.1591,3.96721 -1.7386,7.9055 -1.7386,11.81486 z"
         style="font-size:91.58964539px;font-variant:normal;font-stretch:normal;word-spacing:-15px;fill:#ffffff;font-family:CodiceBiancoCondensed;-inkscape-font-specification:CodiceBiancoCondensed"
         id="path9001" />
    </g>
    <rect
       style="fill:none;stroke:#ffffff;stroke-width:6.00001431;stroke-miterlimit:4;stroke-opacity:1;stroke-dasharray:none"
       id="rect8839-8"
       width="215.45209"
       height="107.99893"
       x="1229.2893"
       y="-251.63918"
       ry="12.999872" />
  </g>
</svg>
