<?xml version="1.0" encoding="UTF-8" standalone="no"?>
<svg xmlns="http://www.w3.org/2000/svg" xmlns:xlink="http://www.w3.org/1999/xlink" id="svg8545" width="212.41559" height="348.75323" version="1.0">
  <defs>
    <path id="path1886" fill="#fff" fill-opacity="1" fill-rule="evenodd" stroke="none" d="M82.9375 19.6875 66.6875 64.25h28.84375L97.875 19.6875H82.9375zm-24.625 67.5-34.40625 94.375h65.5l4.9375-94.375H58.3125z"/>
    <path id="path1888" fill="#fff" fill-opacity="1" fill-rule="evenodd" stroke="none" d="M21.15625 70v6.8125h20.1875v9.875h5.96875l2.65625-9.875h104.0625l2.625 9.875h5.96875v-9.875h20.1875V70H21.15625z"/>
    <path id="path3692" fill="#fff" fill-opacity="1" fill-rule="evenodd" stroke="none" d="m121.0476 19.6875 16.25 44.5625h-28.84375l-2.34375-44.5625h14.9375zm24.625 67.5 34.40625 94.375h-65.5l-4.9375-94.375h36.03125z"/>
    <path id="path1873" fill="none" fill-opacity="1" fill-rule="evenodd" stroke="none" d="M177.18833 110.61008c.008 47.32336-38.35303 85.69073-85.676391 85.69073-47.323365 0-85.6843111-38.36737-85.6763906-85.69073-.00792-47.323364 38.3530256-85.690732 85.6763906-85.690732 47.323361 0 85.684311 38.367368 85.676391 85.690732z"/>
    <path id="path1875" fill="none" fill-opacity="1" fill-rule="evenodd" stroke="none" d="M55.172415-13.793103c0 14.64946355-11.875736 26.5252-26.5252 26.5252-14.649464 0-26.5252001-11.87573645-26.5252-26.5252-1e-7-14.649464 11.875736-26.5252 26.5252-26.5252 14.649464 0 26.5252 11.875736 26.5252 26.5252z"/>
    <path id="path1877" fill="#d40000" fill-opacity="1" fill-rule="evenodd" stroke="none" d="M-125.19894-42.440319c0 7.031744-5.81911 12.732098-12.99735 12.732098-7.17824 0-12.99735-5.700354-12.99735-12.732098 0-7.031744 5.81911-12.732098 12.99735-12.732098 7.17824 0 12.99735 5.700354 12.99735 12.732098z"/>
    <path id="path1874" fill="#fff" fill-opacity="1" fill-rule="evenodd" stroke="none" d="M117.24138 89.655174c0 19.034486-18.062597 34.482756-40.3183 34.482756-22.255702 0-40.318302-15.44827-40.318302-34.482756 0-19.034482 18.0626-34.482757 40.318302-34.482757 22.255703 0 40.3183 15.448275 40.3183 34.482757z"/>
    <path id="text1874" fill="#000" fill-opacity="1" stroke="none" d="M53.880018 59.968837h10.791035v80.062443H51.928448V85.637713h-9.872649V72.192111c4.285781.000068 7.327932-.840281 9.12646-2.52105 1.79848-1.680628 2.697732-4.914699 2.697759-9.702224z" font-family="Bitstream Vera Sans" font-size="271.23535156" font-style="normal" font-weight="400"/>
    <path id="path9538" fill="#fff" fill-opacity="1" fill-rule="evenodd" stroke="none" d="M117.24138 89.655174a40.318302 34.482758 0 1 1-80.636602 0 40.318302 34.482758 0 1 1 80.636602 0z"/>
    <path id="path9542" fill="#000" fill-opacity="1" fill-rule="evenodd" stroke="none" d="M149.50777 99.391088c0 27.446382-9.78357 41.635682-23.91574 41.635682-14.13218 0-23.91574-14.063-23.91574-41.635682 0-24.229981 9.53492-41.635687 23.91574-41.635687 14.38081 0 23.91574 18.033208 23.91574 41.635687zm-16.35695.00004c0 15.740772-2.82072 26.270152-7.68277 26.270152-4.98438 0-7.68277-10.7777-7.68277-26.270152 0-16.855519 2.82072-26.270147 7.68277-26.270147 4.98592 0 7.68277 9.166348 7.68277 26.270147z"/>
  </defs>
  <g id="g9919" transform="translate(.75324672)">
    <path id="rect8556" fill="#00408b" fill-opacity="1" fill-rule="nonzero" stroke="none" d="M-.75324672 0h212.41559v348.75323h-212.41559z"/>
    <rect id="rect9067" width="201.1169" height="338.20773" x="5.272727" y="4.5194807" fill="none" stroke="#fff" stroke-dasharray="none" stroke-dashoffset="0" stroke-linecap="round" stroke-linejoin="miter" stroke-miterlimit="4" stroke-opacity="1" stroke-width="4.56400013" ry="21.844156"/>
  </g>
  <g id="g9615" stroke="none" transform="translate(161.05194 21.50649) scale(10.01299)">
    <path id="rect9602" fill="#009246" fill-opacity="1" stroke="none" d="M0 0h1v2H0z"/>
    <path id="rect9604" fill="#fff" stroke="none" d="M1 0h1v2H1z"/>
    <path id="rect9606" fill="#ce2b37" fill-opacity="1" stroke="none" d="M2 0h1v2H2z"/>
  </g>
  <path id="flowRoot9821" fill="#fff" fill-opacity="1" stroke="none" d="M59.811843 42.288902V19.159789h4.365821v23.129113h-4.365821zm13.377706 0V23.072489h-6.415991v-3.9127H83.95661v3.9127h-6.401241v19.216413h-4.36582zm33.097651 0h-4.74931l-1.887921-5.25375h-8.643147l-1.784677 5.25375h-4.631311l8.421908-23.129113h4.616561l8.657897 23.129113zm-8.038423-9.150672-2.979378-8.582699-2.920382 8.582699h5.89976zm10.486823 9.150672V19.349111h4.36582v19.042865h10.85556v3.896926H108.7356zm18.21551 0V19.159789h4.36582v23.129113h-4.36582zm28.00911 0h-4.74931l-1.88792-5.25375h-8.64315l-1.78468 5.25375h-4.63131l8.42191-23.129113h4.61656l8.6579 23.129113zm-8.03843-9.150672-2.97937-8.582699-2.92039 8.582699h5.89976z" font-family="Bitstream Vera Sans" font-size="10" font-style="normal" font-weight="400"/>
  <path id="path9634" fill="#fff" fill-opacity="1" fill-rule="nonzero" stroke="none" d="M53.857145 30.38961c0 5.824094-7.503592 10.545455-16.759741 10.545455S20.337663 36.213704 20.337663 30.38961c0-5.824094 7.503592-10.545455 16.759741-10.545455s16.759741 4.721361 16.759741 10.545455z"/>
  <path id="path9636" fill="none" stroke="none" d="M52.633114 30.201298c0 5.304086-6.976654 9.603897-15.582792 9.603897-8.606137 0-15.582791-4.299811-15.582791-9.603897 0-5.304085 6.976654-9.603896 15.582791-9.603896 8.606138 0 15.582792 4.299811 15.582792 9.603896z"/>
  <g id="g10259" transform="translate(.75324672 -8)">
    <g id="g9901">
      <rect id="rect9075" width="174.75325" height="48.96104" x="17.324675" y="278.05194" fill="#fff" fill-opacity="1" fill-rule="nonzero" stroke="none" ry="0"/>
      <g id="g9168" transform="translate(210.9872 104.37866) scale(.82682)">
        <path id="rect1873" fill="none" fill-opacity="1" fill-rule="evenodd" stroke="none" d="M-108.28571 215.61038h47.844158v47.844158h-47.844158z"/>
        <path id="rect1875" fill="#08842c" fill-opacity="1" fill-rule="evenodd" stroke="none" d="M-108.04649 215.84959h47.365719v47.365719h-47.365719z"/>
        <g id="g4586" transform="translate(-108.76041 215.46087) scale(.23922)">
          <use xlink:href="#path1886" fill-rule="evenodd"/>
          <use xlink:href="#path1888" fill-rule="evenodd"/>
          <use xlink:href="#path3692" fill-rule="evenodd"/>
        </g>
      </g>
      <g id="g9266" transform="translate(35.584385 280.40276) scale(.21286)">
        <use xlink:href="#path1873" fill-rule="evenodd" transform="translate(-6.811181 -29.1022) scale(1.16718)"/>
        <use xlink:href="#path1875" fill-rule="evenodd" transform="translate(-6.92 151.48) scale(3.7323)"/>
        <use xlink:href="#path1877" fill-rule="evenodd" transform="matrix(7.46306 0 0 7.61854 1131.367 423.3334)"/>
        <use xlink:href="#path1874" fill-rule="evenodd" transform="matrix(1.78579 0 0 2.088 -37.36839 -87.2)"/>
        <use xlink:href="#text1874" font-family="Bitstream Vera Sans" font-size="271.23535156" font-weight="400"/>
        <path id="path1904" fill="#000" fill-opacity="1" fill-rule="evenodd" stroke="none" d="M161.46653 98.943312c0 26.749798-8.85972 40.578978-21.6574 40.578978s-21.65738-13.70608-21.65738-40.578978c0-23.615037 8.63454-40.578993 21.65738-40.578993s21.6574 17.575532 21.6574 40.578993zm-14.81238.000039c0 15.341279-2.55437 25.603429-6.95729 25.603429-4.5137 0-6.95728-10.50417-6.95728-25.603429 0-16.427736 2.55436-25.603424 6.95728-25.603424 4.5151 0 6.95729 8.933709 6.95729 25.603424z"/>
        <path id="flowRoot2501" fill="#000" fill-opacity="1" stroke="none" d="M102.49048 96.773903c3.25635 1.351613 5.73096 3.699667 7.42383 7.044077 1.69286 3.3445 2.53927 7.59872 2.53933 12.76266-.00006 7.69399-1.83307 13.54242-5.49915 17.54539-3.66613 4.00297-9.014318 6.00441-16.044556 6.00441-2.479989 0-4.965413-.32059-7.456159-.96177-2.490804-.64118-4.954654-1.60286-7.391496-2.88522V120.8435c2.329031 1.87158 4.641867 3.2838 6.938622 4.23693 2.296642.95303 4.55563 1.4296 6.776849 1.4296 3.299498 0 5.828012-.91846 7.5856-2.75528 1.757532-1.83682 2.636326-4.4708 2.636326-7.90193 0-3.53505-.900368-6.21234-2.701046-8.03187-1.800678-1.81944-4.458634-2.72925-7.973753-2.72925h-4.98155V92.199094h5.240375c3.12691 0 5.45594-.788418 6.987148-2.365436 1.531095-1.576837 2.296642-3.976853 2.296699-7.200049-.000057-2.980501-.744031-5.285241-2.232035-6.91422-1.488004-1.628797-3.590655-2.443241-6.307838-2.443332-2.005598.000091-4.032713.363997-6.081401 1.091719-2.048689.727903-4.086619 1.802242-6.113734 3.223196V62.930798c2.458415-1.109008 4.895313-1.940742 7.310581-2.495383 2.415324-.554368 4.787502-.831643 7.116589-.831734 6.275449.000091 10.971279 1.655005 14.087489 4.96465 3.11615 3.309919 4.6742 8.29195 4.67425 14.946094-.00005 4.540229-.74403 8.257188-2.23198 11.151058-1.48806 2.89396-3.6877 4.93007-6.59899 6.10842z" font-family="Bitstream Vera Sans" font-size="1.16998577" font-stretch="normal" font-style="normal" font-variant="normal" font-weight="400" style="text-align:start;line-height:125%;-inkscape-font-specification:Bitstream Vera Sans" text-anchor="start" writing-mode="lr-tb"/>
      </g>
    </g>
    <g id="g9883">
      <rect id="rect9073" width="174.75325" height="48.96104" x="17.324675" y="208.05194" fill="#fff" fill-opacity="1" fill-rule="nonzero" stroke="none" ry="0"/>
      <g id="g9245" transform="translate(121.45455 213.14285) scale(.19403)">
        <path id="rect9254" fill="none" fill-opacity="1" fill-rule="evenodd" stroke="none" d="M0 0h200v200H0z"/>
        <path id="rect9256" fill="#00408b" fill-opacity="1" fill-rule="evenodd" stroke="none" d="M1 1h198v198H1z"/>
        <g id="g9258" transform="translate(-1.984375 -.625)">
          <use xlink:href="#path1886" id="path9260" fill-opacity="1" fill-rule="evenodd"/>
          <use xlink:href="#path1888" id="path9262" fill-opacity="1" fill-rule="evenodd"/>
          <use xlink:href="#path3692" id="path9264" fill-opacity="1" fill-rule="evenodd"/>
        </g>
      </g>
      <g id="g9348" transform="translate(34.831145 211.64939) scale(.22039)">
        <use xlink:href="#path1873" id="path9358" fill-opacity="1" fill-rule="evenodd" transform="translate(-6.811181 -29.1022) scale(1.16718)"/>
        <use xlink:href="#path1875" id="path9360" fill-opacity="1" fill-rule="evenodd" transform="translate(-6.92 151.48) scale(3.7323)"/>
        <use xlink:href="#path1877" id="path9362" fill-opacity="1" fill-rule="evenodd" transform="matrix(7.46306 0 0 7.61854 1131.367 423.3334)"/>
        <use xlink:href="#path1874" id="path9364" fill-opacity="1" fill-rule="evenodd" transform="matrix(1.78579 0 0 2.088 -37.36839 -87.2)"/>
        <use xlink:href="#text1874" id="path9366" fill-opacity="1" font-family="Bitstream Vera Sans" font-size="271.23535156" font-style="normal" font-weight="400"/>
        <path id="path9368" fill="#000" fill-opacity="1" fill-rule="evenodd" stroke="none" d="M157.9442 100.00001c0 27.44638-8.13925 41.63568-19.89623 41.63568-11.75698 0-19.89622-14.063-19.89622-41.63568 0-24.229985 7.93239-41.635691 19.89622-41.635691s19.89623 18.033208 19.89623 41.635691zm-13.60784.00004c0 15.74077-2.34665 26.27015-6.39153 26.27015-4.14665 0-6.39152-10.7777-6.39152-26.27015 0-16.855523 2.34664-26.270151 6.39152-26.270151 4.14793 0 6.39153 9.166348 6.39153 26.270151z"/>
        <path id="flowRoot2468" fill="#000" fill-opacity="1" stroke="none" d="M-95.265625 69.997014h1.308595v7.460938h-1.542976v-5.01952h-1.250001v-1.308613c.423176.0098.787759-.08137 1.09375-.273438l.01953-.03906c.07812-.104159.136717-.195305.175781-.273438v-.05859l.03906-.136718.09766-.351563h.05859z" font-family="Bitstream Vera Sans" font-size="10" font-style="normal" font-weight="400" transform="matrix(7.90298 0 0 10.82217 846.09338 -698.08922)"/>
      </g>
    </g>
    <g id="g9857">
      <rect id="rect9069" width="174.75325" height="48.96104" x="17.324675" y="70.051949" fill="#fff" fill-opacity="1" fill-rule="nonzero" stroke="none" ry="0"/>
      <g id="g9522" transform="translate(35.5844 73.15601) scale(.21286)">
        <use xlink:href="#path1873" id="path9532" fill-opacity="1" fill-rule="evenodd" transform="translate(-6.811181 -29.1022) scale(1.16718)"/>
        <use xlink:href="#path1875" id="path9534" fill-opacity="1" fill-rule="evenodd" transform="translate(-6.92 151.48) scale(3.7323)"/>
        <use xlink:href="#path1877" id="path9536" fill-opacity="1" fill-rule="evenodd" transform="matrix(7.46306 0 0 7.61854 1131.367 423.3334)"/>
        <use xlink:href="#path9538" fill-rule="evenodd" transform="matrix(1.78579 0 0 2.088 -37.36839 -87.2)"/>
        <g id="g9540" transform="translate(.356589 .608914)">
          <use xlink:href="#path9542" fill-rule="evenodd"/>
          <path id="text1877" fill="#000" fill-opacity="1" stroke="none" d="m51.779052 118.69408 13.978149-1.61107c.561457 4.39759 2.886493 8.61634 7.031985 8.61634 6.859791 0 9.173735-7.685 9.173735-13.11622 0-6.98079-2.154953-13.766758-9.219931-13.766758-3.484317 0-6.425411 2.780258-7.132174 5.695208l-12.391644-1.58421 4.970154-43.620508h35.105812v13.863501h-22.97319l-1.940569 13.832942c2.001103-1.036174 3.777798-1.863785 6.864739-1.86384 5.89031.000055 10.882918 2.5185 14.977852 7.555343 4.094846 5.036936 6.142336 11.573872 6.142336 19.610552 0 14.77679-8.679316 28.72141-23.718862 28.72141-12.926951 0-19.288529-12.05207-20.868392-22.33269z" font-family="Bitstream Vera Sans" font-size="107.96711731" font-style="normal" font-weight="400"/>
        </g>
      </g>
      <path id="path7699" fill="#000" fill-opacity="1" fill-rule="evenodd" stroke="#000" stroke-linecap="butt" stroke-linejoin="miter" stroke-opacity="1" stroke-width="1" d="m92.67122 111.83528 87.35476.0219V97.168865l-2.63637-.37663v-6.02597h-2.25974v5.64935h-3.01298v-2.25974h-4.89611v-.75325h-1.12987v-1.12987h-2.25974v-3.76623h-.75324v-3.01299h-1.12987v-4.51948h-3.38961v5.64935h-4.51948l-.00001-3.76623h-5.64935v11.2987h-2.07143l-.18831-3.2013h-1.88311v2.44805h-2.44806l-.18831-14.68831h-3.38961v12.8052h-1.88311v-3.01299h-2.25974v-12.05195h-3.01299v5.64935h-2.25974v-4.51948h-3.38961v2.63636h-1.88312v7.15585h-.75325v4.14286h-1.88311v1.12987h-6.96753v1.50649h-2.07143v-1.50649h-.75325v-6.77922h-.75325v-3.76624h-2.63636v3.38961l-2.25975.37663v4.51948h-1.88312v4.14285h-.75324v-1.12987h-2.07144l-.18831-3.76623h-3.01298v7.53247h-2.25974v-4.14286h-2.63636l.02187 18.809305z"/>
    </g>
    <g id="g10245">
      <rect id="rect9071" width="174.75325" height="48.96104" x="17.324675" y="140.05194" fill="#fff" fill-opacity="1" fill-rule="nonzero" stroke="none" ry="0"/>
      <path id="path9546" fill="#000" fill-opacity="1" fill-rule="evenodd" stroke="#000" stroke-linecap="butt" stroke-linejoin="miter" stroke-opacity="1" stroke-width="1" d="m92.67122 179.83528 87.35476.0219v-14.68831l-2.63637-.37664v-6.02597h-2.25974v5.64935h-3.01298v-2.25974h-4.89611v-.75324h-1.12987v-1.12988h-2.25974v-3.76622h-.75324v-3.013h-1.12987v-4.51948h-3.38961v5.64935h-4.51948l-.00001-3.76622h-5.64935v11.29869h-2.07143l-.18831-3.2013h-1.88311v2.44806h-2.44806l-.18831-14.68831h-3.38961v12.8052h-1.88311v-3.01299h-2.25974v-12.05196h-3.01299v5.64935h-2.25974v-4.51947h-3.38961v2.63636h-1.88312v7.15585h-.75325v4.14286h-1.88311v1.12986h-6.96753v1.50649h-2.07143v-1.50649h-.75325v-6.77921h-.75325v-3.76625h-2.63636v3.38961l-2.25975.37664v4.51948h-1.88312v4.14285h-.75324v-1.12987h-2.07144l-.18831-3.76624h-3.01298v7.53248h-2.25974v-4.14286h-2.63636l.02187 18.8093z"/>
      <g id="g9436" transform="translate(34.831149 141.64939) scale(.22039)">
        <use xlink:href="#path1873" id="path9447" fill-opacity="1" fill-rule="evenodd" transform="translate(-6.811181 -29.1022) scale(1.16718)"/>
        <use xlink:href="#path1875" id="path9449" fill-opacity="1" fill-rule="evenodd" transform="translate(-6.92 151.48) scale(3.7323)"/>
        <use xlink:href="#path1877" id="path9451" fill-opacity="1" fill-rule="evenodd" transform="matrix(7.46306 0 0 7.61854 1131.367 423.3334)"/>
        <use xlink:href="#path9538" id="path9453" fill-opacity="1" fill-rule="evenodd" transform="matrix(1.78579 0 0 2.088 -37.36839 -87.2)"/>
        <g id="g4581" transform="translate(0 -.000005)">
          <g id="g1882" transform="translate(.638373 .613855)">
            <use xlink:href="#path9542" id="path1898" fill-opacity="1" fill-rule="evenodd"/>
          </g>
          <path id="path1913" fill="#000" fill-opacity="1" stroke="none" d="M71.416357 141.64063c7.36092-.00009 13.12832-3.40106 17.28125-10.15625 4.15294-6.75536 6.21875-17.40186 6.21875-31.9375 0-18.07695-4.93099-41.1875-24.0625-41.1875-14.53286 0-21 14.91527-21 27.90625 0 7.87098 1.69293 14.37399 5.0625 19.49999 3.36964 5.12591 7.50092 7.68744 12.375 7.6875 2.51169-.00006 4.7102-.63776 6.625-1.9375 1.91485-1.29985 3.77842-3.32186 5.59375-6.03125-.47247 8.64085-1.19276 14.26998-2.1875 16.90625-1.36772 3.66133-3.28805 5.49993-5.75 5.5-1.36771-.00007-2.53617-.62483-3.46875-1.90625-.93251-1.28156-1.57081-3.48163-1.96875-6.59375l-15.125.625c-.111365 4.52386 1.728797 8.93835 3.8125 12.87501 1.66619 2.8558 3.7572 5.01704 6.28125 6.5 2.52412 1.48277 5.96064 2.24991 10.3125 2.25zm.125-43.15625c-5.11078 0-6.59375-7.59514-6.59375-12.59375 0-4.49315 1.85145-12.0625 6.34375-12.0625 4.20412.00066 7.01845 8.43652 7 12.59375-.02085 4.69756-2.03374 12.0625-6.75 12.0625z" font-family="Bitstream Vera Sans" font-size="92.69672394" font-style="normal" font-weight="400"/>
        </g>
      </g>
      <path id="path9624" fill="#d40000" fill-opacity="1" fill-rule="evenodd" stroke="none" d="M155.16883 143.87013H174l-54.89563 36.15584h-18.839l54.90346-36.15584z"/>
    </g>
  </g>
  <path id="flowRoot9829" fill="#000" fill-opacity="1" stroke="#000" stroke-dasharray="none" stroke-miterlimit="4" stroke-opacity="1" stroke-width=".3" d="M39.518292 34.721117v.289782h-4.550379v-.289782h.375935c.438589 0 .757089-.127919.9555-.383767.125312-.167075.187968-.569123.187968-1.206126V26.27041c-.000002-.537786-.03395-.892835-.101813-1.065149-.05221-.130525-.159256-.242782-.321111-.336776-.229739-.125292-.469921-.187947-.720542-.187967h-.375935v-.289783h4.550379v.289783h-.383766c-.433374.000012-.749264.127938-.947669.383768-.130545.167096-.195807.569134-.195807 1.206124v6.860814c-.000002.537798.03394.892847.101813 1.065149.05221.130525.161863.242792.328944.336776.224513.125312.462084.187968.712711.187968h.383766z" font-family="Bitstream Vera Sans" font-size="10" font-style="normal" font-weight="400"/>
</svg>