<?xml version="1.0" encoding="UTF-8" standalone="no"?>
<!-- Created with Inkscape (http://www.inkscape.org/) -->

<svg
   xmlns:dc="http://purl.org/dc/elements/1.1/"
   xmlns:cc="http://creativecommons.org/ns#"
   xmlns:rdf="http://www.w3.org/1999/02/22-rdf-syntax-ns#"
   xmlns:svg="http://www.w3.org/2000/svg"
   xmlns="http://www.w3.org/2000/svg"
   xmlns:sodipodi="http://sodipodi.sourceforge.net/DTD/sodipodi-0.dtd"
   xmlns:inkscape="http://www.inkscape.org/namespaces/inkscape"
   version="1.1"
   width="200"
   height="200"
   id="svg2"
   inkscape:version="0.47 r22583"
   sodipodi:docname="Italian traffic signs - icona sgombraneve.svg"
   sodipodi:version="0.32"
   inkscape:output_extension="org.inkscape.output.svg.inkscape">
  <metadata
     id="metadata2877">
    <rdf:RDF>
      <cc:Work
         rdf:about="">
        <dc:format>image/svg+xml</dc:format>
        <dc:type
           rdf:resource="http://purl.org/dc/dcmitype/StillImage" />
        <dc:title></dc:title>
      </cc:Work>
    </rdf:RDF>
  </metadata>
  <sodipodi:namedview
     pagecolor="#ffffff"
     bordercolor="#666666"
     borderopacity="1"
     objecttolerance="10"
     gridtolerance="10"
     guidetolerance="10"
     inkscape:pageopacity="0"
     inkscape:pageshadow="2"
     inkscape:window-width="1600"
     inkscape:window-height="838"
     id="namedview2875"
     showgrid="false"
     inkscape:zoom="2.3765092"
     inkscape:cx="65.796014"
     inkscape:cy="94.939343"
     inkscape:window-x="-8"
     inkscape:window-y="-8"
     inkscape:window-maximized="1"
     inkscape:current-layer="svg2" />
  <defs
     id="defs4">
    <inkscape:perspective
       sodipodi:type="inkscape:persp3d"
       inkscape:vp_x="0 : 100 : 1"
       inkscape:vp_y="0 : 1000 : 0"
       inkscape:vp_z="200 : 100 : 1"
       inkscape:persp3d-origin="100 : 66.666667 : 1"
       id="perspective2879" />
    <inkscape:perspective
       id="perspective2839"
       inkscape:persp3d-origin="0.5 : 0.33333333 : 1"
       inkscape:vp_z="1 : 0.5 : 1"
       inkscape:vp_y="0 : 1000 : 0"
       inkscape:vp_x="0 : 0.5 : 1"
       sodipodi:type="inkscape:persp3d" />
    <inkscape:perspective
       id="perspective3649"
       inkscape:persp3d-origin="0.5 : 0.33333333 : 1"
       inkscape:vp_z="1 : 0.5 : 1"
       inkscape:vp_y="0 : 1000 : 0"
       inkscape:vp_x="0 : 0.5 : 1"
       sodipodi:type="inkscape:persp3d" />
    <inkscape:perspective
       id="perspective3679"
       inkscape:persp3d-origin="0.5 : 0.33333333 : 1"
       inkscape:vp_z="1 : 0.5 : 1"
       inkscape:vp_y="0 : 1000 : 0"
       inkscape:vp_x="0 : 0.5 : 1"
       sodipodi:type="inkscape:persp3d" />
    <inkscape:perspective
       id="perspective3713"
       inkscape:persp3d-origin="0.5 : 0.33333333 : 1"
       inkscape:vp_z="1 : 0.5 : 1"
       inkscape:vp_y="0 : 1000 : 0"
       inkscape:vp_x="0 : 0.5 : 1"
       sodipodi:type="inkscape:persp3d" />
    <inkscape:perspective
       id="perspective3741"
       inkscape:persp3d-origin="0.5 : 0.33333333 : 1"
       inkscape:vp_z="1 : 0.5 : 1"
       inkscape:vp_y="0 : 1000 : 0"
       inkscape:vp_x="0 : 0.5 : 1"
       sodipodi:type="inkscape:persp3d" />
    <inkscape:perspective
       id="perspective3765"
       inkscape:persp3d-origin="0.5 : 0.33333333 : 1"
       inkscape:vp_z="1 : 0.5 : 1"
       inkscape:vp_y="0 : 1000 : 0"
       inkscape:vp_x="0 : 0.5 : 1"
       sodipodi:type="inkscape:persp3d" />
    <inkscape:perspective
       id="perspective3801"
       inkscape:persp3d-origin="0.5 : 0.33333333 : 1"
       inkscape:vp_z="1 : 0.5 : 1"
       inkscape:vp_y="0 : 1000 : 0"
       inkscape:vp_x="0 : 0.5 : 1"
       sodipodi:type="inkscape:persp3d" />
    <inkscape:perspective
       id="perspective2863"
       inkscape:persp3d-origin="0.5 : 0.33333333 : 1"
       inkscape:vp_z="1 : 0.5 : 1"
       inkscape:vp_y="0 : 1000 : 0"
       inkscape:vp_x="0 : 0.5 : 1"
       sodipodi:type="inkscape:persp3d" />
    <inkscape:perspective
       id="perspective3859"
       inkscape:persp3d-origin="0.5 : 0.33333333 : 1"
       inkscape:vp_z="1 : 0.5 : 1"
       inkscape:vp_y="0 : 1000 : 0"
       inkscape:vp_x="0 : 0.5 : 1"
       sodipodi:type="inkscape:persp3d" />
    <inkscape:perspective
       id="perspective3964"
       inkscape:persp3d-origin="0.5 : 0.33333333 : 1"
       inkscape:vp_z="1 : 0.5 : 1"
       inkscape:vp_y="0 : 1000 : 0"
       inkscape:vp_x="0 : 0.5 : 1"
       sodipodi:type="inkscape:persp3d" />
    <inkscape:perspective
       id="perspective3988"
       inkscape:persp3d-origin="0.5 : 0.33333333 : 1"
       inkscape:vp_z="1 : 0.5 : 1"
       inkscape:vp_y="0 : 1000 : 0"
       inkscape:vp_x="0 : 0.5 : 1"
       sodipodi:type="inkscape:persp3d" />
    <inkscape:perspective
       id="perspective2879-7"
       inkscape:persp3d-origin="0.5 : 0.33333333 : 1"
       inkscape:vp_z="1 : 0.5 : 1"
       inkscape:vp_y="0 : 1000 : 0"
       inkscape:vp_x="0 : 0.5 : 1"
       sodipodi:type="inkscape:persp3d" />
    <inkscape:perspective
       id="perspective4031"
       inkscape:persp3d-origin="0.5 : 0.33333333 : 1"
       inkscape:vp_z="1 : 0.5 : 1"
       inkscape:vp_y="0 : 1000 : 0"
       inkscape:vp_x="0 : 0.5 : 1"
       sodipodi:type="inkscape:persp3d" />
    <inkscape:perspective
       id="perspective4047"
       inkscape:persp3d-origin="0.5 : 0.33333333 : 1"
       inkscape:vp_z="1 : 0.5 : 1"
       inkscape:vp_y="0 : 1000 : 0"
       inkscape:vp_x="0 : 0.5 : 1"
       sodipodi:type="inkscape:persp3d" />
    <inkscape:perspective
       id="perspective4063"
       inkscape:persp3d-origin="0.5 : 0.33333333 : 1"
       inkscape:vp_z="1 : 0.5 : 1"
       inkscape:vp_y="0 : 1000 : 0"
       inkscape:vp_x="0 : 0.5 : 1"
       sodipodi:type="inkscape:persp3d" />
  </defs>
  <path
     style="fill:#ffffff;fill-opacity:1;stroke:none"
     d="m -2.1039262,-3.1405409 207.7153762,0 0,207.3483909 -207.7153762,0 0,-207.3483909 z"
     id="rect2881" />
  <path
     style="fill:none;stroke:#000000;stroke-width:3;stroke-miterlimit:4;stroke-opacity:1"
     d="m 21.814432,2.8621521 157.645218,0 c 10.29357,0 18.58045,8.2868829 18.58045,18.5804539 l 0,157.645234 c 0,10.29357 -8.28688,18.58045 -18.58045,18.58045 l -157.645218,0 c -10.293571,0 -18.5804535,-8.28688 -18.5804535,-18.58045 l 0,-157.645234 c 0,-10.293571 8.2868825,-18.5804539 18.5804535,-18.5804539 z"
     id="rect4614" />
  <path
     style="fill:#000000"
     d="m 131.56676,147.73056 c -2.71653,-0.70727 -6.22073,-2.69537 -7.92757,-4.49769 -5.65356,-5.96982 -5.17258,-16.72208 0.99006,-22.13295 3.20278,-2.81208 5.76827,-3.74007 10.42765,-3.77188 3.49047,-0.0239 4.51979,0.22389 7.23791,1.74195 7.52405,4.20214 10.14555,13.46796 5.97718,21.12663 -2.4982,4.59001 -6.48356,7.12042 -12.12053,7.69564 -1.56618,0.15981 -3.62929,0.0871 -4.5847,-0.1617 z m 7.58534,-10.71743 c 1.61394,-1.61394 1.96872,-2.40696 1.96872,-4.40066 0,-3.31584 -2.90075,-6.36936 -6.05071,-6.36936 -4.19482,0 -6.9725,2.69353 -6.86028,6.65247 0.10246,3.61487 2.78702,6.02932 6.74428,6.06574 1.77823,0.0164 2.62761,-0.3778 4.19799,-1.94819 z m -114.401239,8.88761 c 0.349563,-0.65316 0.78737,-2.99825 0.972904,-5.2113 l 0.337335,-4.02373 2.170203,0 c 1.203012,0 2.293146,0.32257 2.446066,0.72379 0.399579,1.04839 -0.496565,7.02077 -1.270412,8.46672 -0.503887,0.94152 -1.205626,1.23209 -2.975532,1.23209 -2.155885,0 -2.27216,-0.0822 -1.680564,-1.18757 z m 8.172889,-0.53646 c 0.330551,-0.94822 0.51242,-3.29378 0.404154,-5.21236 l -0.196847,-3.48832 2.545857,0.001 2.545858,0.001 -0.359876,4.25733 c -0.493658,5.83976 -0.668628,6.16506 -3.316084,6.16506 -2.215981,0 -2.221879,-0.006 -1.623062,-1.72403 l 0,3.2e-4 z m 7.445226,-3.77679 0,-5.50081 2.605651,0 2.605651,0 0,5.50081 0,5.50082 -2.605651,0 -2.605651,0 0,-5.50082 z m 7.527436,0 0,-5.50081 2.316135,0 2.316134,0 0,5.50081 0,5.50082 -2.316134,0 -2.316135,0 0,-5.50082 z m 7.527437,0 0,-5.50081 2.316134,0 2.316134,0 0,5.50081 0,5.50082 -2.316134,0 -2.316134,0 0,-5.50082 z m 7.904896,4.65265 c -0.179014,-0.46649 -0.503394,-2.81158 -0.72085,-5.2113 l -0.395376,-4.36313 2.540759,-5.8e-4 2.540758,-5.8e-4 -0.193773,3.10654 c -0.106571,1.70859 0.06785,4.05403 0.387605,5.21209 l 0.581373,2.10556 -2.207514,0 c -1.404503,0 -2.325902,-0.30854 -2.532982,-0.84818 l 0,-4.2e-4 z m 7.409945,-1.15985 c -0.46145,-1.10441 -0.839003,-3.44949 -0.839003,-5.2113 l 0,-3.20328 2.232151,0 2.232157,0 0.337334,4.02373 c 0.185534,2.21305 0.623341,4.55814 0.972904,5.2113 0.592635,1.10735 0.475734,1.18757 -1.730483,1.18757 -2.152574,0 -2.441755,-0.18117 -3.20506,-2.00802 z m 7.138195,-12.90209 -0.160245,-8.54075 -21.569,-0.1518 -21.568999,-0.15181 0.01486,-10.84983 0.01486,-10.84983 10.583888,-16.212936 10.583887,-16.21294 18.642454,-0.152778 18.642449,-0.152784 0,27.801636 0,27.801622 12.449221,0 c 6.84707,0 12.4464,0.0652 12.44296,0.14476 -0.003,0.0796 -0.3943,1.42386 -0.86855,2.9872 -0.48434,1.59655 -0.86229,5.08629 -0.86229,7.96171 l 0,5.11927 -19.092629,0 -19.092624,0 -0.160242,-8.54074 z M 88.294118,88.171653 88.139244,73.840572 73.276588,73.686133 58.413931,73.531699 50.172266,86.714388 c -4.532914,7.250484 -8.622997,13.768962 -9.089071,14.485512 l -0.847408,1.30283 24.106603,0 24.106602,0 -0.154874,-14.331077 z M 153.1871,137.57391 c 0.18183,-2.91774 -0.50643,-8.70735 -1.39861,-11.76508 -0.37913,-1.2994 -0.36205,-1.30281 6.49104,-1.29871 3.77915,0.002 8.63,0.17023 10.77966,0.37325 l 3.90847,0.36913 -0.0113,3.24571 -0.0113,3.24571 -8.62694,4.48751 c -4.74482,2.46814 -9.23448,4.48787 -9.97704,4.4883 -1.27261,5.8e-4 -1.33884,-0.17979 -1.154,-3.14582 l 2e-5,0 z m -127.293963,-7.8566 0,-4.05324 24.31941,0 24.319409,0 0,4.05324 0,4.05323 -24.319409,0 -24.31941,0 0,-4.05323 z m 70.642094,-33.873462 0,-26.925061 38.505739,0 38.50573,0 0,26.925061 0,26.925052 -11.7613,0 -11.76129,0 -1.26038,-1.70475 c -3.15261,-4.26412 -10.91011,-7.46596 -16.2631,-6.71243 -3.90699,0.54997 -8.29178,2.86789 -11.01606,5.82339 l -2.39088,2.59379 -11.27923,0 -11.279229,0 0,-26.925052 z M 64.688385,66.595322 c 0,-1.598323 2.446805,-9.146431 3.376229,-10.415273 1.724663,-2.354495 4.732754,-3.71124 7.201493,-3.248101 3.602602,0.675854 5.312841,2.651893 7.012044,8.101821 0.835088,2.678418 1.518342,5.157417 1.518342,5.508884 0,0.440205 -2.972695,0.639034 -9.554054,0.639034 -6.062968,0 -9.554054,-0.21426 -9.554054,-0.586365 z"
     id="path4069"
     sodipodi:nodetypes="cssssssccsssscccccssscccccccsccccccccccccccccccccccccccccccccccccccccccccccssccccccccccccccssccccccccccccccccsscccccsccccccccccccccccccccsccccccsssssc" />
</svg>
