<?xml version="1.0" encoding="UTF-8" standalone="no"?>
<!-- Created with Inkscape (http://www.inkscape.org/) -->

<svg
   xmlns:dc="http://purl.org/dc/elements/1.1/"
   xmlns:cc="http://creativecommons.org/ns#"
   xmlns:rdf="http://www.w3.org/1999/02/22-rdf-syntax-ns#"
   xmlns:svg="http://www.w3.org/2000/svg"
   xmlns="http://www.w3.org/2000/svg"
   xmlns:sodipodi="http://sodipodi.sourceforge.net/DTD/sodipodi-0.dtd"
   xmlns:inkscape="http://www.inkscape.org/namespaces/inkscape"
   width="2000"
   height="900"
   id="svg2"
   version="1.1"
   inkscape:version="0.48.5 r10040"
   sodipodi:docname="CANC Pieeee.svg">
  <defs
     id="defs4" />
  <sodipodi:namedview
     id="base"
     pagecolor="#ffffff"
     bordercolor="#666666"
     borderopacity="1.0"
     inkscape:pageopacity="0.0"
     inkscape:pageshadow="2"
     inkscape:zoom="0.35355339"
     inkscape:cx="906.65873"
     inkscape:cy="343.97482"
     inkscape:document-units="px"
     inkscape:current-layer="layer1"
     showgrid="false"
     inkscape:object-nodes="true"
     inkscape:object-paths="true"
     inkscape:snap-midpoints="true"
     fit-margin-top="0"
     fit-margin-left="0"
     fit-margin-right="0"
     fit-margin-bottom="0"
     inkscape:window-width="1366"
     inkscape:window-height="705"
     inkscape:window-x="-8"
     inkscape:window-y="-8"
     inkscape:window-maximized="1" />
  <metadata
     id="metadata7">
    <rdf:RDF>
      <cc:Work
         rdf:about="">
        <dc:format>image/svg+xml</dc:format>
        <dc:type
           rdf:resource="http://purl.org/dc/dcmitype/StillImage" />
      </cc:Work>
    </rdf:RDF>
  </metadata>
  <g
     inkscape:label="Livello 1"
     inkscape:groupmode="layer"
     id="layer1"
     transform="translate(0,-152.36218)">
    <rect
       style="fill:#00408b;fill-opacity:1;fill-rule:evenodd;stroke:none"
       id="rect2985-5-7"
       width="2000"
       height="900"
       x="0"
       y="152.36218" />
    <path
       style="fill:#d40000;fill-opacity:1;stroke:none"
       d="m 380.57506,1028.1186 1598.18784,-359.48803 -14.0161,-30.4308 -45.4568,-16.1625 -277.0974,-0.6944 -1620.763942,364.6801 13.9268,23.91293 22.2233,16.1624 35.3554,6.0609 z"
       id="path4461-7"
       inkscape:connector-curvature="0" />
    <rect
       style="fill:none;stroke:#ffffff;stroke-width:18.39999962;stroke-miterlimit:4;stroke-opacity:1;stroke-dasharray:none"
       id="rect5306"
       width="1963.2001"
       height="413.20001"
       x="18.4"
       y="620.76215"
       rx="64.299995"
       ry="64.299995" />
    <rect
       ry="64.299995"
       rx="64.299995"
       y="170.76216"
       x="18.4"
       height="413.20001"
       width="1963.2001"
       id="rect5336"
       style="fill:none;stroke:#ffffff;stroke-width:18.39999962;stroke-miterlimit:4;stroke-opacity:1;stroke-dasharray:none" />
    <g
       style="font-size:213.37037659px;font-style:normal;font-weight:normal;line-height:125%;letter-spacing:0px;word-spacing:0px;fill:#ffffff;fill-opacity:1;stroke:none;font-family:Sans"
       id="text4889-5-1">
      <path
         d="m 599.02544,752.3622 41.60879,58.2523 42.03203,-58.2523 34.77818,0 0,150 -29.86847,0 0,-104.76428 -46.94174,63.1555 -46.51199,-63.1555 0,104.76428 -29.87497,0 0,-150 z"
         style="font-variant:normal;font-stretch:normal;text-align:center;text-anchor:middle;fill:#ffffff;font-family:CodiceBianco;-inkscape-font-specification:CodiceBianco"
         id="path5447" />
      <path
         d="m 783.05479,752.3622 43.09993,0 50.99192,150 -33.07214,0 -8.53013,-25.18015 -61.2411,0 -8.32176,25.18015 -32.00425,0 z m 21.54671,33.71028 -20.90858,63.16201 42.67668,0 z"
         style="font-variant:normal;font-stretch:normal;text-align:center;text-anchor:middle;fill:#ffffff;font-family:CodiceBianco;-inkscape-font-specification:CodiceBianco"
         id="path5449" />
      <path
         d="m 1011.812,752.14732 0,27.52431 -46.72691,0 0,122.69057 -31.15124,0 0,-122.89894 -46.72687,0 0,-27.31594 z"
         style="font-variant:normal;font-stretch:normal;text-align:center;text-anchor:middle;fill:#ffffff;font-family:CodiceBianco;-inkscape-font-specification:CodiceBianco"
         id="path5451" />
      <path
         d="m 1135.4988,752.3622 0,27.10106 -72.76,0 0,32.21914 65.2912,0 0,27.09454 -65.0764,0 0,34.56981 80.0139,0 0,29.01545 -110.7419,0 0,-150 z"
         style="font-variant:normal;font-stretch:normal;text-align:center;text-anchor:middle;fill:#ffffff;font-family:CodiceBianco;-inkscape-font-specification:CodiceBianco"
         id="path5453" />
      <path
         d="m 1243.343,752.3622 c 11.521,1.6e-4 21.692,4.19576 30.5131,12.58682 9.2463,8.82112 13.8695,19.63244 13.8696,32.43402 -10e-5,11.5212 -3.8419,21.33626 -11.5254,29.44522 -5.6912,6.11659 -12.5891,10.5987 -20.6937,13.44634 l 38.62,62.0876 -33.7168,0 -36.914,-59.52856 -22.3997,0 0,59.52856 -29.6601,0 0,-150 z m -42.2469,26.6713 0,37.34372 36.6991,0 c 3.8417,1e-4 7.6119,-1.77864 11.3105,-5.33621 3.6985,-3.55737 5.5478,-7.96677 5.5479,-13.22821 -1e-4,-5.26555 -1.8147,-9.71185 -5.4437,-13.3389 -3.6292,-3.6268 -7.5774,-5.44027 -11.8445,-5.4404 z"
         style="font-variant:normal;font-stretch:normal;text-align:center;text-anchor:middle;fill:#ffffff;font-family:CodiceBianco;-inkscape-font-specification:CodiceBianco"
         id="path5455" />
      <path
         d="m 1353.1538,752.3622 43.0999,0 50.9919,150 -33.0721,0 -8.5301,-25.18015 -61.2411,0 -8.3218,25.18015 -32.0043,0 z m 21.5467,33.71028 -20.9086,63.16201 42.6767,0 z"
         style="font-variant:normal;font-stretch:normal;text-align:center;text-anchor:middle;fill:#ffffff;font-family:CodiceBianco;-inkscape-font-specification:CodiceBianco"
         id="path5457" />
    </g>
    <g
       style="font-size:213.37037659px;font-style:normal;font-weight:normal;line-height:125%;letter-spacing:0px;word-spacing:0px;fill:#ffffff;fill-opacity:1;stroke:none;font-family:Sans"
       id="text5361">
      <path
         d="m 566.01189,302.36217 c 12.65836,1.6e-4 23.89511,4.48227 33.71028,13.44635 10.52688,9.8152 15.79037,21.97659 15.79051,36.4842 -1.4e-4,13.93914 -5.33526,25.67511 -16.00539,35.20793 -9.81517,8.95995 -20.9803,13.43989 -33.4954,13.43983 l -34.35492,0 0,51.63657 -31.57449,0 0,-150.21488 z m -34.35492,26.6713 0,44.3827 32.21914,0 c 5.12233,9e-5 9.74552,-2.27569 13.86959,-6.82735 4.12388,-4.55148 6.18587,-9.38846 6.18597,-14.51099 -1e-4,-6.39856 -2.2748,-11.94639 -6.8241,-16.64351 -4.12407,-4.2671 -8.53455,-6.40072 -13.23146,-6.40085 z"
         style="font-variant:normal;font-stretch:normal;text-align:center;text-anchor:middle;fill:#ffffff;font-family:CodiceBianco;-inkscape-font-specification:CodiceBianco"
         id="path5432" />
      <path
         d="m 776.06789,376.40497 c -1.5e-4,24.03636 -6.89804,43.23889 -20.69369,57.60766 -13.22725,13.6569 -30.29617,20.48534 -51.20681,20.48533 -20.91081,1e-5 -37.91027,-6.82843 -50.99844,-20.48533 -13.79581,-14.36877 -20.69371,-33.5713 -20.6937,-57.60766 -10e-6,-23.47184 7.60981,-42.32058 22.82949,-56.54627 13.65684,-12.65829 29.94437,-18.98751 48.86265,-18.98767 18.91811,1.6e-4 35.20565,6.32938 48.86265,18.98767 15.35842,14.22569 23.0377,33.07443 23.03785,56.54627 z m -32.85726,0 c -1.3e-4,-14.0822 -3.59124,-25.32004 -10.77336,-33.71353 -7.18234,-8.39326 -16.60562,-12.58995 -28.26988,-12.59008 -11.66442,1.3e-4 -21.01717,4.19682 -28.05826,12.59008 -7.0412,8.39349 -10.56177,19.63133 -10.56173,33.71353 -4e-5,14.65106 2.98659,26.10051 8.95989,34.34842 6.68513,9.38969 16.57182,14.08451 29.6601,14.08447 13.22703,4e-5 23.18317,-4.69478 29.86847,-14.08447 6.11639,-8.39116 9.17464,-19.84062 9.17477,-34.34842 z"
         style="font-variant:normal;font-stretch:normal;text-align:center;text-anchor:middle;fill:#ffffff;font-family:CodiceBianco;-inkscape-font-specification:CodiceBianco"
         id="path5434" />
      <path
         d="m 916.79547,302.14729 0,27.52431 -46.72687,0 0,122.69057 -31.15124,0 0,-122.89894 -46.72686,0 0,-27.31594 z"
         style="font-variant:normal;font-stretch:normal;text-align:center;text-anchor:middle;fill:#ffffff;font-family:CodiceBianco;-inkscape-font-specification:CodiceBianco"
         id="path5436" />
      <path
         d="m 1040.4823,302.36217 0,27.10106 -72.76006,0 0,32.21914 65.29126,0 0,27.09454 -65.07638,0 0,34.56981 80.01388,0 0,29.01545 -110.74187,0 0,-150 z"
         style="font-variant:normal;font-stretch:normal;text-align:center;text-anchor:middle;fill:#ffffff;font-family:CodiceBianco;-inkscape-font-specification:CodiceBianco"
         id="path5438" />
      <path
         d="m 1215.3238,452.36217 -34.993,0 -72.5452,-103.91127 0,103.91127 -29.875,0 0,-150 34.9931,0 72.5517,104.5494 0,-104.5494 29.8684,0 z"
         style="font-variant:normal;font-stretch:normal;text-align:center;text-anchor:middle;fill:#ffffff;font-family:CodiceBianco;-inkscape-font-specification:CodiceBianco"
         id="path5440" />
      <path
         d="m 1243.89,302.36217 105.6173,0 0,25.81829 -69.5563,94.7365 72.1153,0 0,29.44521 -110.3121,0 0,-29.86846 66.789,-92.39235 -64.6532,0 z"
         style="font-variant:normal;font-stretch:normal;text-align:center;text-anchor:middle;fill:#ffffff;font-family:CodiceBianco;-inkscape-font-specification:CodiceBianco"
         id="path5442" />
      <path
         d="m 1417.7483,302.36217 43.0999,0 50.992,150 -33.0722,0 -8.5301,-25.18015 -61.2411,0 -8.3218,25.18015 -32.0042,0 z m 21.5467,33.71028 -20.9086,63.16201 42.6767,0 z"
         style="font-variant:normal;font-stretch:normal;text-align:center;text-anchor:middle;fill:#ffffff;font-family:CodiceBianco;-inkscape-font-specification:CodiceBianco"
         id="path5444" />
    </g>
  </g>
</svg>
