<?xml version="1.0" encoding="UTF-8" standalone="no"?>
<!-- Created with Inkscape (http://www.inkscape.org/) -->

<svg
   xmlns:dc="http://purl.org/dc/elements/1.1/"
   xmlns:cc="http://creativecommons.org/ns#"
   xmlns:rdf="http://www.w3.org/1999/02/22-rdf-syntax-ns#"
   xmlns:svg="http://www.w3.org/2000/svg"
   xmlns="http://www.w3.org/2000/svg"
   xmlns:sodipodi="http://sodipodi.sourceforge.net/DTD/sodipodi-0.dtd"
   xmlns:inkscape="http://www.inkscape.org/namespaces/inkscape"
   version="1.1"
   width="200"
   height="200"
   id="svg2"
   inkscape:version="0.47 r22583"
   sodipodi:docname="Italian traffic signs - icona auto + rimorchio.svg"
   sodipodi:version="0.32"
   inkscape:output_extension="org.inkscape.output.svg.inkscape">
  <metadata
     id="metadata2877">
    <rdf:RDF>
      <cc:Work
         rdf:about="">
        <dc:format>image/svg+xml</dc:format>
        <dc:type
           rdf:resource="http://purl.org/dc/dcmitype/StillImage" />
        <dc:title></dc:title>
      </cc:Work>
    </rdf:RDF>
  </metadata>
  <sodipodi:namedview
     pagecolor="#ffffff"
     bordercolor="#666666"
     borderopacity="1"
     objecttolerance="10"
     gridtolerance="10"
     guidetolerance="10"
     inkscape:pageopacity="0"
     inkscape:pageshadow="2"
     inkscape:window-width="1600"
     inkscape:window-height="838"
     id="namedview2875"
     showgrid="false"
     inkscape:zoom="2.3765092"
     inkscape:cx="158.53423"
     inkscape:cy="90.172648"
     inkscape:window-x="-8"
     inkscape:window-y="-8"
     inkscape:window-maximized="1"
     inkscape:current-layer="svg2" />
  <defs
     id="defs4">
    <inkscape:perspective
       sodipodi:type="inkscape:persp3d"
       inkscape:vp_x="0 : 100 : 1"
       inkscape:vp_y="0 : 1000 : 0"
       inkscape:vp_z="200 : 100 : 1"
       inkscape:persp3d-origin="100 : 66.666667 : 1"
       id="perspective2879" />
    <inkscape:perspective
       id="perspective2839"
       inkscape:persp3d-origin="0.5 : 0.33333333 : 1"
       inkscape:vp_z="1 : 0.5 : 1"
       inkscape:vp_y="0 : 1000 : 0"
       inkscape:vp_x="0 : 0.5 : 1"
       sodipodi:type="inkscape:persp3d" />
    <inkscape:perspective
       id="perspective3649"
       inkscape:persp3d-origin="0.5 : 0.33333333 : 1"
       inkscape:vp_z="1 : 0.5 : 1"
       inkscape:vp_y="0 : 1000 : 0"
       inkscape:vp_x="0 : 0.5 : 1"
       sodipodi:type="inkscape:persp3d" />
    <inkscape:perspective
       id="perspective3679"
       inkscape:persp3d-origin="0.5 : 0.33333333 : 1"
       inkscape:vp_z="1 : 0.5 : 1"
       inkscape:vp_y="0 : 1000 : 0"
       inkscape:vp_x="0 : 0.5 : 1"
       sodipodi:type="inkscape:persp3d" />
    <inkscape:perspective
       id="perspective3713"
       inkscape:persp3d-origin="0.5 : 0.33333333 : 1"
       inkscape:vp_z="1 : 0.5 : 1"
       inkscape:vp_y="0 : 1000 : 0"
       inkscape:vp_x="0 : 0.5 : 1"
       sodipodi:type="inkscape:persp3d" />
    <inkscape:perspective
       id="perspective3741"
       inkscape:persp3d-origin="0.5 : 0.33333333 : 1"
       inkscape:vp_z="1 : 0.5 : 1"
       inkscape:vp_y="0 : 1000 : 0"
       inkscape:vp_x="0 : 0.5 : 1"
       sodipodi:type="inkscape:persp3d" />
    <inkscape:perspective
       id="perspective3765"
       inkscape:persp3d-origin="0.5 : 0.33333333 : 1"
       inkscape:vp_z="1 : 0.5 : 1"
       inkscape:vp_y="0 : 1000 : 0"
       inkscape:vp_x="0 : 0.5 : 1"
       sodipodi:type="inkscape:persp3d" />
    <inkscape:perspective
       id="perspective3801"
       inkscape:persp3d-origin="0.5 : 0.33333333 : 1"
       inkscape:vp_z="1 : 0.5 : 1"
       inkscape:vp_y="0 : 1000 : 0"
       inkscape:vp_x="0 : 0.5 : 1"
       sodipodi:type="inkscape:persp3d" />
    <inkscape:perspective
       id="perspective2863"
       inkscape:persp3d-origin="0.5 : 0.33333333 : 1"
       inkscape:vp_z="1 : 0.5 : 1"
       inkscape:vp_y="0 : 1000 : 0"
       inkscape:vp_x="0 : 0.5 : 1"
       sodipodi:type="inkscape:persp3d" />
  </defs>
  <path
     style="fill:#ffffff;fill-opacity:1;stroke:none"
     d="m 0,-0.61582947 200.9709,0 L 200.9709,200 0,200 0,-0.61582947 z"
     id="rect2881" />
  <path
     style="fill:none;stroke:#000000;stroke-width:3;stroke-miterlimit:4;stroke-opacity:1"
     d="m 21.814432,2.8621521 157.645218,0 c 10.29357,0 18.58045,8.2868829 18.58045,18.5804539 l 0,157.645234 c 0,10.29357 -8.28688,18.58045 -18.58045,18.58045 l -157.645218,0 c -10.293571,0 -18.5804535,-8.28688 -18.5804535,-18.58045 l 0,-157.645234 c 0,-10.293571 8.2868825,-18.5804539 18.5804535,-18.5804539 z"
     id="rect4614" />
  <g
     id="g3840"
     transform="matrix(0.94694365,0,0,0.94694365,10.266778,6.8885624)">
    <path
       sodipodi:nodetypes="ccccccccccccccsssssscccccssssscccscccsccccssc"
       id="path3807"
       d="m 35.182225,128.76124 c -2.855717,-1.29654 -4.263614,-3.60707 -4.263614,-6.99711 l 0,-2.35995 -9.615445,0 -9.615445,0 0,-3.78791 0,-3.7879 87.121757,0 87.121752,0 0,3.7879 0,3.78791 -9.61544,0 -9.61545,0 -0.002,2.4767 c -0.003,3.50913 -1.65394,5.91047 -4.92107,7.1582 -2.22081,0.84813 -3.07356,0.91302 -4.88126,0.37142 -3.37157,-1.01015 -5.45814,-3.55386 -5.79554,-7.06531 -0.34316,-3.57131 -1.29896,-3.91216 -1.302,-0.46431 -0.003,3.13738 -1.59828,5.78514 -4.24206,7.0397 -2.6832,1.27326 -4.18637,1.22756 -7.17268,-0.21809 -2.78863,-1.35003 -4.31729,-3.89968 -4.31729,-7.20106 l 0,-2.09725 -35.256632,0 -35.256631,0 0,2.38679 c 0,3.17946 -1.497194,5.54626 -4.396228,6.94965 -2.90739,1.40745 -4.425971,1.44597 -7.093897,0.17996 -2.64378,-1.25456 -4.239301,-3.90232 -4.24206,-7.0397 -0.003,-3.44382 -0.958658,-3.10886 -1.301204,0.45608 -0.31749,3.30418 -1.893096,5.45657 -4.946865,6.75777 -2.459069,1.04779 -3.463445,0.99538 -6.390368,-0.33349 l -3.3e-4,0 z M 6.8246829,123.98858 c -2.9931987,-1.73987 -4.2114027,-9.24585 -2.1548357,-13.27706 1.1982342,-2.34873 2.1186747,-2.96243 4.443142,-2.96243 l 1.4092238,0 0,8.44994 c 0,8.37964 -0.01091,8.44979 -1.311197,8.43221 -0.7211583,-0.01 -1.7950083,-0.29894 -2.3863331,-0.64266 z m 180.2720571,-7.78955 0,-8.44994 1.45689,0 c 2.9256,0 4.95341,3.37903 4.95341,8.25412 0,4.64173 -2.48902,8.64575 -5.37446,8.64575 -0.94499,0 -1.03584,-0.74108 -1.03584,-8.44993 z"
       style="fill:#000000" />
    <g
       transform="matrix(1.0589224,0,0,1.0589224,-245.80371,-29.429677)"
       id="g3827">
      <path
         style="fill:#000000;fill-opacity:1;fill-rule:evenodd;stroke:none"
         id="path3752"
         d="m 273.46077,98.004296 c 0.29034,0.564576 0.25325,1.306146 0.51306,1.888053 l -8.77969,8.261371 -2.66046,-0.006 9.91429,-9.267903 1.0128,-0.875799 0,1.98e-4 z m 17.60024,11.015084 c 0.0299,0.0676 -1.13083,6.55042 -1.08111,6.44628 l -28.73678,-0.0227 c -0.54358,-4.3e-4 -1.08156,-0.20452 -1.64878,-0.20566 -0.5672,-6.9e-4 -1.12065,0.0735 -1.64962,0.19884 l -14.03364,-0.0292 0.01,-4.71421 19.10954,-1.8275 12.74232,0.0258 0,0 15.28823,0.12835 0,-4e-5 -1e-5,-4e-5 z m -31.46965,7.50874 c 3.18793,0.008 5.76679,2.61172 5.76018,5.79967 -0.007,3.18795 -2.59615,5.76682 -5.7841,5.76021 -3.18794,-0.008 -5.76681,-2.59614 -5.76023,-5.78409 0.007,-3.18795 2.59619,-5.78238 5.78415,-5.77579 l 0,0 z m 16.61527,0.54779 c -0.14438,2.21131 -0.50203,4.37482 -1.04019,6.45461 l -8.63492,-0.0177 c 0.0669,-0.38782 0.11047,-0.7911 0.11141,-1.19777 0.004,-2.09478 -0.90743,-3.96595 -2.354,-5.26364 l 11.91772,0.025 -1e-5,-5.6e-4 -10e-6,6e-5 z m -21.31498,-0.0446 c -1.45191,1.2917 -2.37146,3.17465 -2.37578,5.26942 -6.1e-4,0.23855 0.007,0.46764 0.0298,0.70019 l -5.60021,-0.40056 -2.71117,-5.59109 10.65747,0.0217 -1e-5,0 -1e-4,3.9e-4 -1e-5,-4e-5 z m 4.69314,2.67022 c -1.43744,-0.002 -2.60071,1.17099 -2.60366,2.60845 -0.003,1.4374 1.15545,2.60064 2.59287,2.6036 1.43744,0.002 2.60066,-1.15544 2.60365,-2.59289 0.003,-1.43742 -1.15543,-2.61618 -2.59286,-2.61916 l 0,0 z" />
      <path
         style="fill:#000000;fill-opacity:1;fill-rule:evenodd;stroke:none"
         id="path3754"
         d="m 297.14271,98.034878 9.80364,10.358102 -8.48476,-0.0177 -3.97785,-7.87668 -21.3081,-0.0554 c 0.3918,-0.844905 -0.15237,-1.661734 0.30405,-2.468013 l 23.66302,0.06112 0,-6.31e-4 0,-7.49e-4 z m 23.70175,11.052762 1.6214,6.15898 -0.078,0.37007 -17.81804,-0.0404 c -0.52687,-0.12796 -1.06891,-0.20294 -1.63479,-0.20424 -0.56245,-0.001 -1.09672,0.20162 -1.6357,0.19697 l -13.59924,-0.11988 c -0.003,-0.20649 2.13796,-0.31627 2.13851,-0.52357 0.005,-2.01622 0.20158,-3.98617 0.53784,-5.90729 l 30.46804,0.0686 -10e-6,2e-5 -6e-5,8.1e-4 0,4e-5 0,-1e-4 z m -17.91228,7.56514 c 3.16103,0.008 5.71757,2.59069 5.71046,5.75168 -0.007,3.161 -2.57525,5.71761 -5.73624,5.7105 -3.16102,-0.008 -5.71761,-2.57525 -5.71047,-5.73623 0.007,-3.16103 2.57526,-5.73307 5.73625,-5.72595 l 0,0 z m 19.09732,0.55206 -1.24661,5.53545 -10.97046,0.83923 c 0.0663,-0.38453 0.10978,-0.78438 0.11067,-1.18764 0.005,-2.07703 -0.89904,-3.93259 -2.33314,-5.21953 l 14.43953,0.0329 0,-3.9e-4 10e-6,-4e-5 z m -23.77281,-0.0536 c -1.43696,1.28036 -2.35196,3.1498 -2.35664,5.22441 -6.6e-4,0.40328 0.0561,0.7879 0.12081,1.17272 l -22.41624,-0.0118 c -0.0471,0.0895 0.17496,-6.48938 0.27062,-6.48897 l 24.38155,0.10548 -1e-4,-0.001 0,-4e-5 0,-5.7e-4 z m 4.66842,2.64851 c -1.42527,-0.004 -2.57892,1.16062 -2.58212,2.58589 -0.003,1.42532 1.14521,2.5789 2.57048,2.58213 1.42529,0.004 2.57888,-1.14522 2.58209,-2.57051 0.003,-1.42528 -1.14518,-2.59429 -2.57045,-2.59751 l 0,0 z" />
      <path
         style="fill:#000000;fill-opacity:1;stroke:#000000;stroke-width:1.05267143px;stroke-linecap:butt;stroke-linejoin:miter;stroke-opacity:1"
         id="path3756"
         d="m 283.86661,108.36129 -0.04,-7.86822" />
    </g>
    <g
       id="g3832"
       transform="matrix(1.0589224,0,0,1.0589224,-155.80371,-29.429677)">
      <path
         d="m 273.46077,98.004296 c 0.29034,0.564576 0.25325,1.306146 0.51306,1.888053 l -8.77969,8.261371 -2.66046,-0.006 9.91429,-9.267903 1.0128,-0.875799 0,1.98e-4 z m 17.60024,11.015084 c 0.0299,0.0676 -1.13083,6.55042 -1.08111,6.44628 l -28.73678,-0.0227 c -0.54358,-4.3e-4 -1.08156,-0.20452 -1.64878,-0.20566 -0.5672,-6.9e-4 -1.12065,0.0735 -1.64962,0.19884 l -14.03364,-0.0292 0.01,-4.71421 19.10954,-1.8275 12.74232,0.0258 0,0 15.28823,0.12835 0,-4e-5 -1e-5,-4e-5 z m -31.46965,7.50874 c 3.18793,0.008 5.76679,2.61172 5.76018,5.79967 -0.007,3.18795 -2.59615,5.76682 -5.7841,5.76021 -3.18794,-0.008 -5.76681,-2.59614 -5.76023,-5.78409 0.007,-3.18795 2.59619,-5.78238 5.78415,-5.77579 l 0,0 z m 16.61527,0.54779 c -0.14438,2.21131 -0.50203,4.37482 -1.04019,6.45461 l -8.63492,-0.0177 c 0.0669,-0.38782 0.11047,-0.7911 0.11141,-1.19777 0.004,-2.09478 -0.90743,-3.96595 -2.354,-5.26364 l 11.91772,0.025 -1e-5,-5.6e-4 -10e-6,6e-5 z m -21.31498,-0.0446 c -1.45191,1.2917 -2.37146,3.17465 -2.37578,5.26942 -6.1e-4,0.23855 0.007,0.46764 0.0298,0.70019 l -5.60021,-0.40056 -2.71117,-5.59109 10.65747,0.0217 -1e-5,0 -1e-4,3.9e-4 -1e-5,-4e-5 z m 4.69314,2.67022 c -1.43744,-0.002 -2.60071,1.17099 -2.60366,2.60845 -0.003,1.4374 1.15545,2.60064 2.59287,2.6036 1.43744,0.002 2.60066,-1.15544 2.60365,-2.59289 0.003,-1.43742 -1.15543,-2.61618 -2.59286,-2.61916 l 0,0 z"
         id="path3834"
         style="fill:#000000;fill-opacity:1;fill-rule:evenodd;stroke:none" />
      <path
         d="m 297.14271,98.034878 9.80364,10.358102 -8.48476,-0.0177 -3.97785,-7.87668 -21.3081,-0.0554 c 0.3918,-0.844905 -0.15237,-1.661734 0.30405,-2.468013 l 23.66302,0.06112 0,-6.31e-4 0,-7.49e-4 z m 23.70175,11.052762 1.6214,6.15898 -0.078,0.37007 -17.81804,-0.0404 c -0.52687,-0.12796 -1.06891,-0.20294 -1.63479,-0.20424 -0.56245,-0.001 -1.09672,0.20162 -1.6357,0.19697 l -13.59924,-0.11988 c -0.003,-0.20649 2.13796,-0.31627 2.13851,-0.52357 0.005,-2.01622 0.20158,-3.98617 0.53784,-5.90729 l 30.46804,0.0686 -10e-6,2e-5 -6e-5,8.1e-4 0,4e-5 0,-1e-4 z m -17.91228,7.56514 c 3.16103,0.008 5.71757,2.59069 5.71046,5.75168 -0.007,3.161 -2.57525,5.71761 -5.73624,5.7105 -3.16102,-0.008 -5.71761,-2.57525 -5.71047,-5.73623 0.007,-3.16103 2.57526,-5.73307 5.73625,-5.72595 l 0,0 z m 19.09732,0.55206 -1.24661,5.53545 -10.97046,0.83923 c 0.0663,-0.38453 0.10978,-0.78438 0.11067,-1.18764 0.005,-2.07703 -0.89904,-3.93259 -2.33314,-5.21953 l 14.43953,0.0329 0,-3.9e-4 10e-6,-4e-5 z m -23.77281,-0.0536 c -1.43696,1.28036 -2.35196,3.1498 -2.35664,5.22441 -6.6e-4,0.40328 0.0561,0.7879 0.12081,1.17272 l -22.41624,-0.0118 c -0.0471,0.0895 0.17496,-6.48938 0.27062,-6.48897 l 24.38155,0.10548 -1e-4,-0.001 0,-4e-5 0,-5.7e-4 z m 4.66842,2.64851 c -1.42527,-0.004 -2.57892,1.16062 -2.58212,2.58589 -0.003,1.42532 1.14521,2.5789 2.57048,2.58213 1.42529,0.004 2.57888,-1.14522 2.58209,-2.57051 0.003,-1.42528 -1.14518,-2.59429 -2.57045,-2.59751 l 0,0 z"
         id="path3836"
         style="fill:#000000;fill-opacity:1;fill-rule:evenodd;stroke:none" />
      <path
         d="m 283.86661,108.36129 -0.04,-7.86822"
         id="path3838"
         style="fill:#000000;fill-opacity:1;stroke:#000000;stroke-width:1.05267143px;stroke-linecap:butt;stroke-linejoin:miter;stroke-opacity:1" />
    </g>
  </g>
</svg>
