<?xml version="1.0" encoding="UTF-8" standalone="no"?>
<!-- Created with Inkscape (http://www.inkscape.org/) -->

<svg
   xmlns:dc="http://purl.org/dc/elements/1.1/"
   xmlns:cc="http://creativecommons.org/ns#"
   xmlns:rdf="http://www.w3.org/1999/02/22-rdf-syntax-ns#"
   xmlns:svg="http://www.w3.org/2000/svg"
   xmlns="http://www.w3.org/2000/svg"
   xmlns:sodipodi="http://sodipodi.sourceforge.net/DTD/sodipodi-0.dtd"
   xmlns:inkscape="http://www.inkscape.org/namespaces/inkscape"
   version="1.1"
   width="200"
   height="200"
   id="svg2"
   inkscape:version="0.47 r22583"
   sodipodi:docname="Italian traffic signs - icona golf.svg"
   sodipodi:version="0.32"
   inkscape:output_extension="org.inkscape.output.svg.inkscape">
  <metadata
     id="metadata2877">
    <rdf:RDF>
      <cc:Work
         rdf:about="">
        <dc:format>image/svg+xml</dc:format>
        <dc:type
           rdf:resource="http://purl.org/dc/dcmitype/StillImage" />
        <dc:title></dc:title>
      </cc:Work>
    </rdf:RDF>
  </metadata>
  <sodipodi:namedview
     pagecolor="#ffffff"
     bordercolor="#666666"
     borderopacity="1"
     objecttolerance="10"
     gridtolerance="10"
     guidetolerance="10"
     inkscape:pageopacity="0"
     inkscape:pageshadow="2"
     inkscape:window-width="1600"
     inkscape:window-height="838"
     id="namedview2875"
     showgrid="false"
     inkscape:zoom="2.3931339"
     inkscape:cx="76.961825"
     inkscape:cy="102.50638"
     inkscape:window-x="-8"
     inkscape:window-y="-8"
     inkscape:window-maximized="1"
     inkscape:current-layer="svg2" />
  <defs
     id="defs4">
    <inkscape:perspective
       sodipodi:type="inkscape:persp3d"
       inkscape:vp_x="0 : 100 : 1"
       inkscape:vp_y="0 : 1000 : 0"
       inkscape:vp_z="200 : 100 : 1"
       inkscape:persp3d-origin="100 : 66.666667 : 1"
       id="perspective2879" />
    <inkscape:perspective
       id="perspective2839"
       inkscape:persp3d-origin="0.5 : 0.33333333 : 1"
       inkscape:vp_z="1 : 0.5 : 1"
       inkscape:vp_y="0 : 1000 : 0"
       inkscape:vp_x="0 : 0.5 : 1"
       sodipodi:type="inkscape:persp3d" />
    <inkscape:perspective
       id="perspective3649"
       inkscape:persp3d-origin="0.5 : 0.33333333 : 1"
       inkscape:vp_z="1 : 0.5 : 1"
       inkscape:vp_y="0 : 1000 : 0"
       inkscape:vp_x="0 : 0.5 : 1"
       sodipodi:type="inkscape:persp3d" />
    <inkscape:perspective
       id="perspective3679"
       inkscape:persp3d-origin="0.5 : 0.33333333 : 1"
       inkscape:vp_z="1 : 0.5 : 1"
       inkscape:vp_y="0 : 1000 : 0"
       inkscape:vp_x="0 : 0.5 : 1"
       sodipodi:type="inkscape:persp3d" />
    <inkscape:perspective
       id="perspective3713"
       inkscape:persp3d-origin="0.5 : 0.33333333 : 1"
       inkscape:vp_z="1 : 0.5 : 1"
       inkscape:vp_y="0 : 1000 : 0"
       inkscape:vp_x="0 : 0.5 : 1"
       sodipodi:type="inkscape:persp3d" />
    <inkscape:perspective
       id="perspective3741"
       inkscape:persp3d-origin="0.5 : 0.33333333 : 1"
       inkscape:vp_z="1 : 0.5 : 1"
       inkscape:vp_y="0 : 1000 : 0"
       inkscape:vp_x="0 : 0.5 : 1"
       sodipodi:type="inkscape:persp3d" />
    <inkscape:perspective
       id="perspective3765"
       inkscape:persp3d-origin="0.5 : 0.33333333 : 1"
       inkscape:vp_z="1 : 0.5 : 1"
       inkscape:vp_y="0 : 1000 : 0"
       inkscape:vp_x="0 : 0.5 : 1"
       sodipodi:type="inkscape:persp3d" />
    <inkscape:perspective
       id="perspective3801"
       inkscape:persp3d-origin="0.5 : 0.33333333 : 1"
       inkscape:vp_z="1 : 0.5 : 1"
       inkscape:vp_y="0 : 1000 : 0"
       inkscape:vp_x="0 : 0.5 : 1"
       sodipodi:type="inkscape:persp3d" />
    <inkscape:perspective
       id="perspective2863"
       inkscape:persp3d-origin="0.5 : 0.33333333 : 1"
       inkscape:vp_z="1 : 0.5 : 1"
       inkscape:vp_y="0 : 1000 : 0"
       inkscape:vp_x="0 : 0.5 : 1"
       sodipodi:type="inkscape:persp3d" />
    <inkscape:perspective
       id="perspective3859"
       inkscape:persp3d-origin="0.5 : 0.33333333 : 1"
       inkscape:vp_z="1 : 0.5 : 1"
       inkscape:vp_y="0 : 1000 : 0"
       inkscape:vp_x="0 : 0.5 : 1"
       sodipodi:type="inkscape:persp3d" />
    <inkscape:perspective
       id="perspective3964"
       inkscape:persp3d-origin="0.5 : 0.33333333 : 1"
       inkscape:vp_z="1 : 0.5 : 1"
       inkscape:vp_y="0 : 1000 : 0"
       inkscape:vp_x="0 : 0.5 : 1"
       sodipodi:type="inkscape:persp3d" />
    <inkscape:perspective
       id="perspective3988"
       inkscape:persp3d-origin="0.5 : 0.33333333 : 1"
       inkscape:vp_z="1 : 0.5 : 1"
       inkscape:vp_y="0 : 1000 : 0"
       inkscape:vp_x="0 : 0.5 : 1"
       sodipodi:type="inkscape:persp3d" />
    <inkscape:perspective
       id="perspective2879-7"
       inkscape:persp3d-origin="0.5 : 0.33333333 : 1"
       inkscape:vp_z="1 : 0.5 : 1"
       inkscape:vp_y="0 : 1000 : 0"
       inkscape:vp_x="0 : 0.5 : 1"
       sodipodi:type="inkscape:persp3d" />
    <inkscape:perspective
       id="perspective4031"
       inkscape:persp3d-origin="0.5 : 0.33333333 : 1"
       inkscape:vp_z="1 : 0.5 : 1"
       inkscape:vp_y="0 : 1000 : 0"
       inkscape:vp_x="0 : 0.5 : 1"
       sodipodi:type="inkscape:persp3d" />
    <inkscape:perspective
       id="perspective4047"
       inkscape:persp3d-origin="0.5 : 0.33333333 : 1"
       inkscape:vp_z="1 : 0.5 : 1"
       inkscape:vp_y="0 : 1000 : 0"
       inkscape:vp_x="0 : 0.5 : 1"
       sodipodi:type="inkscape:persp3d" />
    <inkscape:perspective
       id="perspective4063"
       inkscape:persp3d-origin="0.5 : 0.33333333 : 1"
       inkscape:vp_z="1 : 0.5 : 1"
       inkscape:vp_y="0 : 1000 : 0"
       inkscape:vp_x="0 : 0.5 : 1"
       sodipodi:type="inkscape:persp3d" />
    <inkscape:perspective
       id="perspective4079"
       inkscape:persp3d-origin="0.5 : 0.33333333 : 1"
       inkscape:vp_z="1 : 0.5 : 1"
       inkscape:vp_y="0 : 1000 : 0"
       inkscape:vp_x="0 : 0.5 : 1"
       sodipodi:type="inkscape:persp3d" />
    <inkscape:perspective
       id="perspective4097"
       inkscape:persp3d-origin="0.5 : 0.33333333 : 1"
       inkscape:vp_z="1 : 0.5 : 1"
       inkscape:vp_y="0 : 1000 : 0"
       inkscape:vp_x="0 : 0.5 : 1"
       sodipodi:type="inkscape:persp3d" />
    <inkscape:perspective
       id="perspective4115"
       inkscape:persp3d-origin="0.5 : 0.33333333 : 1"
       inkscape:vp_z="1 : 0.5 : 1"
       inkscape:vp_y="0 : 1000 : 0"
       inkscape:vp_x="0 : 0.5 : 1"
       sodipodi:type="inkscape:persp3d" />
    <inkscape:perspective
       id="perspective4129"
       inkscape:persp3d-origin="0.5 : 0.33333333 : 1"
       inkscape:vp_z="1 : 0.5 : 1"
       inkscape:vp_y="0 : 1000 : 0"
       inkscape:vp_x="0 : 0.5 : 1"
       sodipodi:type="inkscape:persp3d" />
    <inkscape:perspective
       id="perspective4153"
       inkscape:persp3d-origin="0.5 : 0.33333333 : 1"
       inkscape:vp_z="1 : 0.5 : 1"
       inkscape:vp_y="0 : 1000 : 0"
       inkscape:vp_x="0 : 0.5 : 1"
       sodipodi:type="inkscape:persp3d" />
    <inkscape:perspective
       id="perspective4179"
       inkscape:persp3d-origin="0.5 : 0.33333333 : 1"
       inkscape:vp_z="1 : 0.5 : 1"
       inkscape:vp_y="0 : 1000 : 0"
       inkscape:vp_x="0 : 0.5 : 1"
       sodipodi:type="inkscape:persp3d" />
    <inkscape:perspective
       id="perspective4195"
       inkscape:persp3d-origin="0.5 : 0.33333333 : 1"
       inkscape:vp_z="1 : 0.5 : 1"
       inkscape:vp_y="0 : 1000 : 0"
       inkscape:vp_x="0 : 0.5 : 1"
       sodipodi:type="inkscape:persp3d" />
    <inkscape:perspective
       id="perspective4213"
       inkscape:persp3d-origin="0.5 : 0.33333333 : 1"
       inkscape:vp_z="1 : 0.5 : 1"
       inkscape:vp_y="0 : 1000 : 0"
       inkscape:vp_x="0 : 0.5 : 1"
       sodipodi:type="inkscape:persp3d" />
    <inkscape:perspective
       id="perspective4267"
       inkscape:persp3d-origin="0.5 : 0.33333333 : 1"
       inkscape:vp_z="1 : 0.5 : 1"
       inkscape:vp_y="0 : 1000 : 0"
       inkscape:vp_x="0 : 0.5 : 1"
       sodipodi:type="inkscape:persp3d" />
    <inkscape:perspective
       id="perspective4283"
       inkscape:persp3d-origin="0.5 : 0.33333333 : 1"
       inkscape:vp_z="1 : 0.5 : 1"
       inkscape:vp_y="0 : 1000 : 0"
       inkscape:vp_x="0 : 0.5 : 1"
       sodipodi:type="inkscape:persp3d" />
    <inkscape:perspective
       id="perspective4314"
       inkscape:persp3d-origin="0.5 : 0.33333333 : 1"
       inkscape:vp_z="1 : 0.5 : 1"
       inkscape:vp_y="0 : 1000 : 0"
       inkscape:vp_x="0 : 0.5 : 1"
       sodipodi:type="inkscape:persp3d" />
    <inkscape:perspective
       id="perspective4330"
       inkscape:persp3d-origin="0.5 : 0.33333333 : 1"
       inkscape:vp_z="1 : 0.5 : 1"
       inkscape:vp_y="0 : 1000 : 0"
       inkscape:vp_x="0 : 0.5 : 1"
       sodipodi:type="inkscape:persp3d" />
    <inkscape:perspective
       id="perspective4346"
       inkscape:persp3d-origin="0.5 : 0.33333333 : 1"
       inkscape:vp_z="1 : 0.5 : 1"
       inkscape:vp_y="0 : 1000 : 0"
       inkscape:vp_x="0 : 0.5 : 1"
       sodipodi:type="inkscape:persp3d" />
    <inkscape:perspective
       id="perspective3742"
       inkscape:persp3d-origin="0.5 : 0.33333333 : 1"
       inkscape:vp_z="1 : 0.5 : 1"
       inkscape:vp_y="0 : 1000 : 0"
       inkscape:vp_x="0 : 0.5 : 1"
       sodipodi:type="inkscape:persp3d" />
    <inkscape:perspective
       id="perspective3776"
       inkscape:persp3d-origin="0.5 : 0.33333333 : 1"
       inkscape:vp_z="1 : 0.5 : 1"
       inkscape:vp_y="0 : 1000 : 0"
       inkscape:vp_x="0 : 0.5 : 1"
       sodipodi:type="inkscape:persp3d" />
    <inkscape:perspective
       id="perspective3792"
       inkscape:persp3d-origin="0.5 : 0.33333333 : 1"
       inkscape:vp_z="1 : 0.5 : 1"
       inkscape:vp_y="0 : 1000 : 0"
       inkscape:vp_x="0 : 0.5 : 1"
       sodipodi:type="inkscape:persp3d" />
    <inkscape:perspective
       id="perspective3808"
       inkscape:persp3d-origin="0.5 : 0.33333333 : 1"
       inkscape:vp_z="1 : 0.5 : 1"
       inkscape:vp_y="0 : 1000 : 0"
       inkscape:vp_x="0 : 0.5 : 1"
       sodipodi:type="inkscape:persp3d" />
    <inkscape:perspective
       id="perspective3824"
       inkscape:persp3d-origin="0.5 : 0.33333333 : 1"
       inkscape:vp_z="1 : 0.5 : 1"
       inkscape:vp_y="0 : 1000 : 0"
       inkscape:vp_x="0 : 0.5 : 1"
       sodipodi:type="inkscape:persp3d" />
    <inkscape:perspective
       id="perspective4354"
       inkscape:persp3d-origin="0.5 : 0.33333333 : 1"
       inkscape:vp_z="1 : 0.5 : 1"
       inkscape:vp_y="0 : 1000 : 0"
       inkscape:vp_x="0 : 0.5 : 1"
       sodipodi:type="inkscape:persp3d" />
    <inkscape:perspective
       id="perspective4395"
       inkscape:persp3d-origin="0.5 : 0.33333333 : 1"
       inkscape:vp_z="1 : 0.5 : 1"
       inkscape:vp_y="0 : 1000 : 0"
       inkscape:vp_x="0 : 0.5 : 1"
       sodipodi:type="inkscape:persp3d" />
    <inkscape:perspective
       id="perspective4435"
       inkscape:persp3d-origin="0.5 : 0.33333333 : 1"
       inkscape:vp_z="1 : 0.5 : 1"
       inkscape:vp_y="0 : 1000 : 0"
       inkscape:vp_x="0 : 0.5 : 1"
       sodipodi:type="inkscape:persp3d" />
    <inkscape:perspective
       id="perspective4460"
       inkscape:persp3d-origin="0.5 : 0.33333333 : 1"
       inkscape:vp_z="1 : 0.5 : 1"
       inkscape:vp_y="0 : 1000 : 0"
       inkscape:vp_x="0 : 0.5 : 1"
       sodipodi:type="inkscape:persp3d" />
    <inkscape:perspective
       id="perspective4479"
       inkscape:persp3d-origin="0.5 : 0.33333333 : 1"
       inkscape:vp_z="1 : 0.5 : 1"
       inkscape:vp_y="0 : 1000 : 0"
       inkscape:vp_x="0 : 0.5 : 1"
       sodipodi:type="inkscape:persp3d" />
    <inkscape:perspective
       id="perspective4495"
       inkscape:persp3d-origin="0.5 : 0.33333333 : 1"
       inkscape:vp_z="1 : 0.5 : 1"
       inkscape:vp_y="0 : 1000 : 0"
       inkscape:vp_x="0 : 0.5 : 1"
       sodipodi:type="inkscape:persp3d" />
    <inkscape:perspective
       id="perspective4511"
       inkscape:persp3d-origin="0.5 : 0.33333333 : 1"
       inkscape:vp_z="1 : 0.5 : 1"
       inkscape:vp_y="0 : 1000 : 0"
       inkscape:vp_x="0 : 0.5 : 1"
       sodipodi:type="inkscape:persp3d" />
    <inkscape:perspective
       id="perspective4527"
       inkscape:persp3d-origin="0.5 : 0.33333333 : 1"
       inkscape:vp_z="1 : 0.5 : 1"
       inkscape:vp_y="0 : 1000 : 0"
       inkscape:vp_x="0 : 0.5 : 1"
       sodipodi:type="inkscape:persp3d" />
    <inkscape:perspective
       id="perspective4543"
       inkscape:persp3d-origin="0.5 : 0.33333333 : 1"
       inkscape:vp_z="1 : 0.5 : 1"
       inkscape:vp_y="0 : 1000 : 0"
       inkscape:vp_x="0 : 0.5 : 1"
       sodipodi:type="inkscape:persp3d" />
    <inkscape:perspective
       id="perspective4559"
       inkscape:persp3d-origin="0.5 : 0.33333333 : 1"
       inkscape:vp_z="1 : 0.5 : 1"
       inkscape:vp_y="0 : 1000 : 0"
       inkscape:vp_x="0 : 0.5 : 1"
       sodipodi:type="inkscape:persp3d" />
    <inkscape:perspective
       id="perspective4575"
       inkscape:persp3d-origin="0.5 : 0.33333333 : 1"
       inkscape:vp_z="1 : 0.5 : 1"
       inkscape:vp_y="0 : 1000 : 0"
       inkscape:vp_x="0 : 0.5 : 1"
       sodipodi:type="inkscape:persp3d" />
    <inkscape:perspective
       id="perspective4591"
       inkscape:persp3d-origin="0.5 : 0.33333333 : 1"
       inkscape:vp_z="1 : 0.5 : 1"
       inkscape:vp_y="0 : 1000 : 0"
       inkscape:vp_x="0 : 0.5 : 1"
       sodipodi:type="inkscape:persp3d" />
    <inkscape:perspective
       id="perspective4607"
       inkscape:persp3d-origin="0.5 : 0.33333333 : 1"
       inkscape:vp_z="1 : 0.5 : 1"
       inkscape:vp_y="0 : 1000 : 0"
       inkscape:vp_x="0 : 0.5 : 1"
       sodipodi:type="inkscape:persp3d" />
    <inkscape:perspective
       id="perspective4629"
       inkscape:persp3d-origin="0.5 : 0.33333333 : 1"
       inkscape:vp_z="1 : 0.5 : 1"
       inkscape:vp_y="0 : 1000 : 0"
       inkscape:vp_x="0 : 0.5 : 1"
       sodipodi:type="inkscape:persp3d" />
    <inkscape:perspective
       id="perspective4674"
       inkscape:persp3d-origin="0.5 : 0.33333333 : 1"
       inkscape:vp_z="1 : 0.5 : 1"
       inkscape:vp_y="0 : 1000 : 0"
       inkscape:vp_x="0 : 0.5 : 1"
       sodipodi:type="inkscape:persp3d" />
    <inkscape:perspective
       id="perspective4690"
       inkscape:persp3d-origin="0.5 : 0.33333333 : 1"
       inkscape:vp_z="1 : 0.5 : 1"
       inkscape:vp_y="0 : 1000 : 0"
       inkscape:vp_x="0 : 0.5 : 1"
       sodipodi:type="inkscape:persp3d" />
    <inkscape:perspective
       id="perspective4735"
       inkscape:persp3d-origin="0.5 : 0.33333333 : 1"
       inkscape:vp_z="1 : 0.5 : 1"
       inkscape:vp_y="0 : 1000 : 0"
       inkscape:vp_x="0 : 0.5 : 1"
       sodipodi:type="inkscape:persp3d" />
    <inkscape:perspective
       id="perspective4751"
       inkscape:persp3d-origin="0.5 : 0.33333333 : 1"
       inkscape:vp_z="1 : 0.5 : 1"
       inkscape:vp_y="0 : 1000 : 0"
       inkscape:vp_x="0 : 0.5 : 1"
       sodipodi:type="inkscape:persp3d" />
    <inkscape:perspective
       id="perspective4767"
       inkscape:persp3d-origin="0.5 : 0.33333333 : 1"
       inkscape:vp_z="1 : 0.5 : 1"
       inkscape:vp_y="0 : 1000 : 0"
       inkscape:vp_x="0 : 0.5 : 1"
       sodipodi:type="inkscape:persp3d" />
    <inkscape:perspective
       id="perspective4787"
       inkscape:persp3d-origin="0.5 : 0.33333333 : 1"
       inkscape:vp_z="1 : 0.5 : 1"
       inkscape:vp_y="0 : 1000 : 0"
       inkscape:vp_x="0 : 0.5 : 1"
       sodipodi:type="inkscape:persp3d" />
    <inkscape:perspective
       id="perspective4813"
       inkscape:persp3d-origin="0.5 : 0.33333333 : 1"
       inkscape:vp_z="1 : 0.5 : 1"
       inkscape:vp_y="0 : 1000 : 0"
       inkscape:vp_x="0 : 0.5 : 1"
       sodipodi:type="inkscape:persp3d" />
    <inkscape:perspective
       id="perspective4905"
       inkscape:persp3d-origin="0.5 : 0.33333333 : 1"
       inkscape:vp_z="1 : 0.5 : 1"
       inkscape:vp_y="0 : 1000 : 0"
       inkscape:vp_x="0 : 0.5 : 1"
       sodipodi:type="inkscape:persp3d" />
    <inkscape:perspective
       id="perspective2877"
       inkscape:persp3d-origin="0.5 : 0.33333333 : 1"
       inkscape:vp_z="1 : 0.5 : 1"
       inkscape:vp_y="0 : 1000 : 0"
       inkscape:vp_x="0 : 0.5 : 1"
       sodipodi:type="inkscape:persp3d" />
    <inkscape:perspective
       id="perspective2893"
       inkscape:persp3d-origin="0.5 : 0.33333333 : 1"
       inkscape:vp_z="1 : 0.5 : 1"
       inkscape:vp_y="0 : 1000 : 0"
       inkscape:vp_x="0 : 0.5 : 1"
       sodipodi:type="inkscape:persp3d" />
    <inkscape:perspective
       id="perspective3693"
       inkscape:persp3d-origin="0.5 : 0.33333333 : 1"
       inkscape:vp_z="1 : 0.5 : 1"
       inkscape:vp_y="0 : 1000 : 0"
       inkscape:vp_x="0 : 0.5 : 1"
       sodipodi:type="inkscape:persp3d" />
    <inkscape:perspective
       id="perspective3709"
       inkscape:persp3d-origin="0.5 : 0.33333333 : 1"
       inkscape:vp_z="1 : 0.5 : 1"
       inkscape:vp_y="0 : 1000 : 0"
       inkscape:vp_x="0 : 0.5 : 1"
       sodipodi:type="inkscape:persp3d" />
    <inkscape:perspective
       id="perspective3725"
       inkscape:persp3d-origin="0.5 : 0.33333333 : 1"
       inkscape:vp_z="1 : 0.5 : 1"
       inkscape:vp_y="0 : 1000 : 0"
       inkscape:vp_x="0 : 0.5 : 1"
       sodipodi:type="inkscape:persp3d" />
    <inkscape:perspective
       id="perspective3743"
       inkscape:persp3d-origin="0.5 : 0.33333333 : 1"
       inkscape:vp_z="1 : 0.5 : 1"
       inkscape:vp_y="0 : 1000 : 0"
       inkscape:vp_x="0 : 0.5 : 1"
       sodipodi:type="inkscape:persp3d" />
    <inkscape:perspective
       id="perspective3759"
       inkscape:persp3d-origin="0.5 : 0.33333333 : 1"
       inkscape:vp_z="1 : 0.5 : 1"
       inkscape:vp_y="0 : 1000 : 0"
       inkscape:vp_x="0 : 0.5 : 1"
       sodipodi:type="inkscape:persp3d" />
    <inkscape:perspective
       id="perspective3777"
       inkscape:persp3d-origin="0.5 : 0.33333333 : 1"
       inkscape:vp_z="1 : 0.5 : 1"
       inkscape:vp_y="0 : 1000 : 0"
       inkscape:vp_x="0 : 0.5 : 1"
       sodipodi:type="inkscape:persp3d" />
    <inkscape:perspective
       id="perspective3795"
       inkscape:persp3d-origin="0.5 : 0.33333333 : 1"
       inkscape:vp_z="1 : 0.5 : 1"
       inkscape:vp_y="0 : 1000 : 0"
       inkscape:vp_x="0 : 0.5 : 1"
       sodipodi:type="inkscape:persp3d" />
    <inkscape:perspective
       id="perspective3815"
       inkscape:persp3d-origin="0.5 : 0.33333333 : 1"
       inkscape:vp_z="1 : 0.5 : 1"
       inkscape:vp_y="0 : 1000 : 0"
       inkscape:vp_x="0 : 0.5 : 1"
       sodipodi:type="inkscape:persp3d" />
    <inkscape:perspective
       id="perspective3831"
       inkscape:persp3d-origin="0.5 : 0.33333333 : 1"
       inkscape:vp_z="1 : 0.5 : 1"
       inkscape:vp_y="0 : 1000 : 0"
       inkscape:vp_x="0 : 0.5 : 1"
       sodipodi:type="inkscape:persp3d" />
    <inkscape:perspective
       id="perspective4112"
       inkscape:persp3d-origin="0.5 : 0.33333333 : 1"
       inkscape:vp_z="1 : 0.5 : 1"
       inkscape:vp_y="0 : 1000 : 0"
       inkscape:vp_x="0 : 0.5 : 1"
       sodipodi:type="inkscape:persp3d" />
    <inkscape:perspective
       id="perspective5834"
       inkscape:persp3d-origin="0.5 : 0.33333333 : 1"
       inkscape:vp_z="1 : 0.5 : 1"
       inkscape:vp_y="0 : 1000 : 0"
       inkscape:vp_x="0 : 0.5 : 1"
       sodipodi:type="inkscape:persp3d" />
    <inkscape:perspective
       id="perspective6553"
       inkscape:persp3d-origin="0.5 : 0.33333333 : 1"
       inkscape:vp_z="1 : 0.5 : 1"
       inkscape:vp_y="0 : 1000 : 0"
       inkscape:vp_x="0 : 0.5 : 1"
       sodipodi:type="inkscape:persp3d" />
    <inkscape:perspective
       id="perspective6591"
       inkscape:persp3d-origin="0.5 : 0.33333333 : 1"
       inkscape:vp_z="1 : 0.5 : 1"
       inkscape:vp_y="0 : 1000 : 0"
       inkscape:vp_x="0 : 0.5 : 1"
       sodipodi:type="inkscape:persp3d" />
    <inkscape:perspective
       id="perspective6607"
       inkscape:persp3d-origin="0.5 : 0.33333333 : 1"
       inkscape:vp_z="1 : 0.5 : 1"
       inkscape:vp_y="0 : 1000 : 0"
       inkscape:vp_x="0 : 0.5 : 1"
       sodipodi:type="inkscape:persp3d" />
    <inkscape:perspective
       id="perspective6623"
       inkscape:persp3d-origin="0.5 : 0.33333333 : 1"
       inkscape:vp_z="1 : 0.5 : 1"
       inkscape:vp_y="0 : 1000 : 0"
       inkscape:vp_x="0 : 0.5 : 1"
       sodipodi:type="inkscape:persp3d" />
    <inkscape:perspective
       id="perspective6641"
       inkscape:persp3d-origin="0.5 : 0.33333333 : 1"
       inkscape:vp_z="1 : 0.5 : 1"
       inkscape:vp_y="0 : 1000 : 0"
       inkscape:vp_x="0 : 0.5 : 1"
       sodipodi:type="inkscape:persp3d" />
    <inkscape:perspective
       id="perspective6816"
       inkscape:persp3d-origin="0.5 : 0.33333333 : 1"
       inkscape:vp_z="1 : 0.5 : 1"
       inkscape:vp_y="0 : 1000 : 0"
       inkscape:vp_x="0 : 0.5 : 1"
       sodipodi:type="inkscape:persp3d" />
    <inkscape:perspective
       id="perspective6847"
       inkscape:persp3d-origin="0.5 : 0.33333333 : 1"
       inkscape:vp_z="1 : 0.5 : 1"
       inkscape:vp_y="0 : 1000 : 0"
       inkscape:vp_x="0 : 0.5 : 1"
       sodipodi:type="inkscape:persp3d" />
    <inkscape:perspective
       id="perspective6877"
       inkscape:persp3d-origin="0.5 : 0.33333333 : 1"
       inkscape:vp_z="1 : 0.5 : 1"
       inkscape:vp_y="0 : 1000 : 0"
       inkscape:vp_x="0 : 0.5 : 1"
       sodipodi:type="inkscape:persp3d" />
    <inkscape:perspective
       id="perspective6893"
       inkscape:persp3d-origin="0.5 : 0.33333333 : 1"
       inkscape:vp_z="1 : 0.5 : 1"
       inkscape:vp_y="0 : 1000 : 0"
       inkscape:vp_x="0 : 0.5 : 1"
       sodipodi:type="inkscape:persp3d" />
    <inkscape:perspective
       id="perspective6923"
       inkscape:persp3d-origin="0.5 : 0.33333333 : 1"
       inkscape:vp_z="1 : 0.5 : 1"
       inkscape:vp_y="0 : 1000 : 0"
       inkscape:vp_x="0 : 0.5 : 1"
       sodipodi:type="inkscape:persp3d" />
    <inkscape:perspective
       id="perspective6939"
       inkscape:persp3d-origin="0.5 : 0.33333333 : 1"
       inkscape:vp_z="1 : 0.5 : 1"
       inkscape:vp_y="0 : 1000 : 0"
       inkscape:vp_x="0 : 0.5 : 1"
       sodipodi:type="inkscape:persp3d" />
    <inkscape:perspective
       id="perspective6955"
       inkscape:persp3d-origin="0.5 : 0.33333333 : 1"
       inkscape:vp_z="1 : 0.5 : 1"
       inkscape:vp_y="0 : 1000 : 0"
       inkscape:vp_x="0 : 0.5 : 1"
       sodipodi:type="inkscape:persp3d" />
    <inkscape:perspective
       id="perspective6971"
       inkscape:persp3d-origin="0.5 : 0.33333333 : 1"
       inkscape:vp_z="1 : 0.5 : 1"
       inkscape:vp_y="0 : 1000 : 0"
       inkscape:vp_x="0 : 0.5 : 1"
       sodipodi:type="inkscape:persp3d" />
    <inkscape:perspective
       id="perspective6987"
       inkscape:persp3d-origin="0.5 : 0.33333333 : 1"
       inkscape:vp_z="1 : 0.5 : 1"
       inkscape:vp_y="0 : 1000 : 0"
       inkscape:vp_x="0 : 0.5 : 1"
       sodipodi:type="inkscape:persp3d" />
    <inkscape:perspective
       id="perspective7011"
       inkscape:persp3d-origin="0.5 : 0.33333333 : 1"
       inkscape:vp_z="1 : 0.5 : 1"
       inkscape:vp_y="0 : 1000 : 0"
       inkscape:vp_x="0 : 0.5 : 1"
       sodipodi:type="inkscape:persp3d" />
    <inkscape:perspective
       id="perspective7027"
       inkscape:persp3d-origin="0.5 : 0.33333333 : 1"
       inkscape:vp_z="1 : 0.5 : 1"
       inkscape:vp_y="0 : 1000 : 0"
       inkscape:vp_x="0 : 0.5 : 1"
       sodipodi:type="inkscape:persp3d" />
  </defs>
  <path
     style="fill:#ffffff;fill-opacity:1;stroke:none"
     d="m -1.5876605,-3.0202186 207.7153805,0 0,207.3483886 -207.7153805,0 0,-207.3483886 z"
     id="rect2881" />
  <path
     style="fill:none;stroke:#000000;stroke-width:2.99693632;stroke-miterlimit:4;stroke-opacity:1"
     d="m 21.467889,2.4041869 156.802311,0 c 10.23854,0 18.48111,8.3144241 18.48111,18.6422021 l 0,158.169131 c 0,10.32778 -8.24257,18.6422 -18.48111,18.6422 l -156.802311,0 c -10.23853,0 -18.4811103,-8.31442 -18.4811103,-18.6422 l 0,-158.169131 c 0,-10.327778 8.2425803,-18.6422021 18.4811103,-18.6422021 z"
     id="rect4614-9" />
  <path
     sodipodi:type="arc"
     style="fill:#000000;fill-opacity:1;stroke:#000000;stroke-width:7.2750001;stroke-linecap:round;stroke-linejoin:round;stroke-miterlimit:4;stroke-opacity:1;stroke-dasharray:none;stroke-dashoffset:0"
     id="path6631"
     sodipodi:cx="23.922606"
     sodipodi:cy="69.418091"
     sodipodi:rx="6.5813284"
     sodipodi:ry="6.8947248"
     d="m 30.503934,69.418091 a 6.5813284,6.8947248 0 1 1 -13.162657,0 6.5813284,6.8947248 0 1 1 13.162657,0 z"
     transform="matrix(0.79554304,0,0,0.79554304,114.37101,-2.248466)" />
  <path
     sodipodi:type="arc"
     style="fill:#000000;fill-opacity:1;stroke:#000000;stroke-width:7.2750001;stroke-linecap:round;stroke-linejoin:round;stroke-miterlimit:4;stroke-opacity:1;stroke-dasharray:none;stroke-dashoffset:0"
     id="path7001"
     sodipodi:cx="23.922606"
     sodipodi:cy="69.418091"
     sodipodi:rx="6.5813284"
     sodipodi:ry="6.8947248"
     d="m 30.503934,69.418091 a 6.5813284,6.8947248 0 1 1 -13.162657,0 6.5813284,6.8947248 0 1 1 13.162657,0 z"
     transform="matrix(0.39240473,0,0,0.39240473,40.961444,0.8546078)" />
  <path
     style="fill:#000000"
     d="m 84.630575,178.67845 c -1.70804,-0.75914 -3.265513,-2.40017 -3.921689,-4.13208 -0.721258,-1.90367 0.374326,-2.09039 3.647229,-0.6216 1.495505,0.67115 3.216738,1.21843 3.824967,1.21619 0.609277,-0.002 9.949143,-5.28196 20.799198,-11.75754 l 19.69334,-11.75346 2.26696,2.09557 c 1.24683,1.15256 2.12829,2.22942 1.95879,2.39302 -1.40486,1.35604 -36.869867,21.92523 -38.782257,22.49315 -2.96026,0.87911 -7.585555,0.91165 -9.486538,0.0668 l 0,-5e-5 z m -12.592048,-7.19469 c -0.779216,-0.47518 -1.984052,-1.53815 -2.677413,-2.36217 -2.469405,-2.93472 -1.108701,-4.07147 2.617118,-2.18638 1.331932,0.67389 2.900617,1.22526 3.485964,1.22526 0.585348,0 8.644698,-4.51946 17.909662,-10.04325 11.201282,-6.67823 16.910382,-9.8375 17.039372,-9.42915 0.10669,0.33775 1.02423,1.41259 2.03897,2.38851 1.01475,0.97593 1.77041,1.83159 1.67926,1.90145 -1.93547,1.48345 -30.644731,17.9586 -32.294707,18.53269 -3.180684,1.10671 -7.960775,1.09355 -9.798226,-0.027 l 0,4e-5 z m 62.333963,-19.36874 c -3.20957,-1.39609 -3.15256,-1.00311 -3.41102,-23.51257 l -0.23282,-20.27635 -2.91023,5.69689 -2.91023,5.6969 0,13.20896 c 0,12.97864 -0.0185,13.23643 -1.06166,14.78436 -1.45721,2.16234 -2.91133,2.83014 -5.6612,2.59985 -1.92351,-0.16108 -2.55136,-0.46759 -3.8415,-1.87538 l -1.54221,-1.68284 0,-16.06289 0,-16.0629 5.78276,-11.87778 5.78275,-11.877769 -0.44693,-5.009995 c -0.24582,-2.755501 -0.50546,-5.211234 -0.57699,-5.457189 -0.0715,-0.245954 -1.66868,2.225406 -3.54922,5.491912 -1.88054,3.266505 -3.64691,5.851653 -3.92526,5.74477 -5.11916,-1.965617 -18.372149,-7.540882 -19.173315,-8.065827 -2.340287,-1.533418 -2.403805,-5.265584 -0.116874,-6.867413 1.763577,-1.235256 4.031369,-0.866677 10.065049,1.635858 3.15776,1.309716 5.88683,2.23585 6.0646,2.058074 0.17778,-0.177775 2.0029,-3.289745 4.05584,-6.915489 4.15582,-7.339728 4.61932,-7.756678 11.03585,-9.927539 4.94793,-1.674007 9.06328,-1.368959 14.17862,1.050985 3.56879,1.688312 4.64628,2.710893 12.3578,11.728069 l 6.89159,8.058415 0,6.621956 c 0,7.433681 -0.26902,8.247261 -3.02809,9.157832 -1.23045,0.40609 -2.02612,0.40609 -3.25657,0 -2.55297,-0.842551 -3.02809,-1.920781 -3.02809,-6.871977 l 0,-4.336106 -3.14305,-4.14764 c -1.72868,-2.281203 -3.25704,-4.159761 -3.39637,-4.174577 -0.13933,-0.01481 -0.71555,2.344818 -1.2805,5.243629 -0.99026,5.081126 -1.02718,6.290576 -1.02718,33.649551 0,26.5955 -0.0535,28.47869 -0.85085,29.96548 -0.94228,1.75699 -3.39062,3.29802 -5.19517,3.26994 -0.64425,-0.01 -1.83654,-0.30756 -2.64953,-0.6612 z m -38.558402,-2.2308 c -0.107455,-0.32013 -0.258035,-1.09314 -0.334614,-1.71781 -0.114482,-0.93377 -0.545773,-1.23908 -2.425164,-1.7168 -1.257258,-0.31959 -2.68743,-0.98256 -3.17816,-1.4733 -0.819996,-0.81999 -0.831572,-0.9529 -0.142964,-1.64151 0.755989,-0.75598 3.537603,-1.70825 5.003899,-1.71305 0.537839,-0.002 0.866816,-0.49052 1.020332,-1.51592 0.317723,-2.12213 1.835519,-45.979541 1.599408,-46.215647 -0.106272,-0.106272 -1.832426,0.741043 -3.8359,1.88293 -2.003474,1.141886 -3.735383,2.076146 -3.848691,2.076146 -0.113308,0 -0.141582,-0.87488 -0.06283,-1.944171 0.139942,-1.900153 0.230169,-1.995441 3.984689,-4.208117 2.737733,-1.613442 3.841507,-2.526524 3.841507,-3.177834 0,-1.136327 -0.173157,-1.154822 3.06403,0.327213 l 2.71093,1.241104 -1.47349,0.697837 c -1.21988,0.577725 -1.51304,1.025305 -1.70325,2.600402 -0.126357,1.046412 -0.453416,11.017407 -0.726792,22.157777 -0.273375,11.14037 -0.607386,21.51244 -0.742249,23.04904 l -0.2452,2.79383 2.894431,0.69845 c 4.9078,1.1843 4.8576,3.25131 -0.10384,4.27608 -2.49858,0.51607 -2.743296,0.67461 -2.743296,1.77724 0,1.88032 -2.039481,3.27532 -2.552786,1.74611 z m -0.24104,-5.70406 c 0,-0.73892 -0.811116,-0.89402 -2.096326,-0.40084 -0.618687,0.23742 -0.649941,0.37726 -0.154494,0.69133 0.994755,0.63057 2.25082,0.46847 2.25082,-0.29049 z m 5.354812,0.23282 c 0.15828,-0.2561 0.11828,-0.4685 -0.0889,-0.47199 -0.20719,-0.004 -0.848164,-0.13271 -1.42439,-0.28714 -0.770225,-0.20641 -1.047684,-0.0814 -1.047684,0.472 0,0.84038 2.075284,1.07304 2.561004,0.28713 z m 44.934,0.30747 0,-3.41762 10.36043,-6.10171 10.36042,-6.10172 1.31048,2.83075 c 0.72077,1.55691 1.13984,2.977 0.93128,3.15576 -0.58459,0.50104 -22.42216,13.05217 -22.70934,13.05217 -0.1393,0 -0.25327,-1.53793 -0.25327,-3.41763 z m 29.44497,0.58587 c -0.66018,-1.68065 -0.88476,-1.86949 -1.9415,-1.6326 -0.65723,0.14734 -2.18585,0.40261 -3.39692,0.56727 -1.8632,0.25332 -2.25181,0.16942 -2.52611,-0.54537 -0.24417,-0.63631 0.27043,-1.39147 2.08554,-3.06047 1.32533,-1.21865 2.4097,-2.35781 2.4097,-2.53148 0,-0.17366 -3.16452,-7.84865 -7.03226,-17.05553 -3.86773,-9.20687 -6.94546,-16.82657 -6.83938,-16.93265 0.10608,-0.10607 0.68193,-0.24977 1.27967,-0.31932 1.01063,-0.11758 1.57973,1.03569 8.11988,16.4547 3.86821,9.11963 7.24263,16.61454 7.49873,16.65537 0.2561,0.0408 1.58285,-0.1577 2.94832,-0.44117 2.74059,-0.56894 4.7347,-0.28616 4.7347,0.67141 0,0.7433 -1.45238,2.33823 -3.87561,4.25599 -1.63502,1.29398 -1.73428,1.50448 -1.2768,2.70773 0.78622,2.06792 0.62818,3.1066 -0.4727,3.1066 -0.70105,0 -1.17502,-0.52515 -1.71526,-1.90048 z m -3.05312,-3.31507 c 0.85051,-0.30755 1.54638,-0.72662 1.54638,-0.93127 0,-0.70515 -1.76181,-0.37007 -2.85865,0.54368 -1.27182,1.05954 -0.87229,1.17754 1.31227,0.38759 z m 5.73711,-2.70028 c 0.97928,-0.766 1.02986,-0.91221 0.31862,-0.92092 -1.0789,-0.0132 -2.6468,0.81785 -2.6468,1.40294 0,0.72241 1.0722,0.50043 2.32818,-0.48202 z m -32.12896,-8.76606 0,-3.69902 6.16969,-3.50436 c 5.89531,-3.34851 6.27323,-3.49352 8.49788,-3.26078 2.37908,0.24889 3.49228,1.05501 3.49228,2.52894 0,0.56155 -2.71447,2.43802 -8.7307,6.03536 -4.80188,2.87124 -8.88785,5.30559 -9.07992,5.40965 -0.19208,0.10407 -0.34923,-1.47534 -0.34923,-3.50979 z m 27.10448,-1.56067 c -0.56021,-1.326 -0.92603,-2.50346 -0.81292,-2.61657 0.20999,-0.20999 6.66819,1.23981 7.41084,1.66365 0.35375,0.20189 -4.62364,3.34213 -5.32253,3.35799 -0.14124,0.003 -0.71517,-1.07908 -1.27539,-2.40507 z M 55.484112,113.31149 c -1.739062,-1.55385 -1.574836,-2.42157 0.296904,-1.56875 0.653382,0.2977 1.68807,0.54127 2.299307,0.54127 0.611232,0 5.844151,-2.8437 11.628705,-6.31934 l 10.517374,-6.319341 1.371097,1.153711 c 1.015415,0.85441 1.224286,1.26787 0.805175,1.59384 -0.311255,0.24208 -5.036857,3.00272 -10.501338,6.13475 -8.301798,4.75828 -10.337992,5.73616 -12.383848,5.9473 -2.243374,0.23154 -2.581175,0.1341 -4.033376,-1.16344 z m -6.986099,-3.79535 c -1.831725,-1.83172 -1.29992,-2.8331 0.900333,-1.69531 0.785008,0.40595 1.680722,0.73809 1.990468,0.73809 0.309747,0 4.629365,-2.42454 9.599143,-5.38787 l 9.035963,-5.387871 1.227839,1.22784 c 1.019875,1.019881 1.113301,1.302351 0.551589,1.667731 -0.371937,0.24194 -4.199577,2.57302 -8.505864,5.18018 -7.148424,4.32788 -8.06842,4.75757 -10.574456,4.93884 -2.582829,0.18683 -2.83221,0.11117 -4.225015,-1.28163 z m 33.783214,-10.481621 -1.14293,-1.14293 -0.03566,-10.614409 -0.03567,-10.614409 -1.325581,2.793824 c -1.277661,2.692826 -1.327126,3.063142 -1.368377,10.244017 -0.02356,4.097608 -0.196736,7.680747 -0.384891,7.962537 -0.507633,0.76025 -2.242625,1.58302 -3.338129,1.58302 -0.529038,0 -1.380959,-0.41907 -1.89316,-0.93127 -0.865968,-0.86597 -0.931274,-1.55212 -0.931274,-9.784586 l 0,-8.853314 3.24875,-6.485129 3.248751,-6.485129 -0.497892,-2.704998 c -0.273841,-1.487748 -0.569879,-2.778858 -0.657862,-2.869126 -0.08798,-0.09027 -0.904365,1.314047 -1.814187,3.12071 -1.924166,3.820879 -1.249644,3.808609 -8.649569,0.157352 -3.462631,-1.708525 -4.456603,-2.415814 -4.575704,-3.255972 -0.198897,-1.40304 0.681912,-2.418967 2.097239,-2.418967 0.622929,0 2.583094,0.61724 4.355924,1.371646 l 3.223322,1.371646 2.151071,-3.946186 c 2.603736,-4.776618 4.33538,-5.949498 8.842864,-5.989449 4.452562,-0.03949 7.242841,1.690933 11.597712,7.192343 l 3.501643,4.423553 0.0019,3.74838 c 0.0019,4.202198 -0.357512,4.865908 -2.63594,4.865908 -1.870571,0 -2.484314,-0.983598 -2.484314,-3.981328 0,-1.771852 -0.315557,-2.609883 -1.685452,-4.476049 -0.927,-1.262827 -1.817531,-2.164235 -1.978958,-2.003129 -0.161427,0.161105 -0.398274,8.571244 -0.526324,18.689204 l -0.232818,18.39628 -1.099267,0.88945 c -1.530731,1.238541 -3.587967,1.133721 -4.975179,-0.25349 l -3.8e-5,0 z M 62.04717,98.198339 c 0,-0.89693 -0.335953,-1.20082 -1.71077,-1.54745 -2.401035,-0.6054 -2.477949,-1.488245 -0.207362,-2.380159 1.043716,-0.409985 1.991651,-1.082137 2.106524,-1.493676 0.114872,-0.41154 0.352938,-6.772437 0.529033,-14.135325 0.176095,-7.362887 0.4534,-13.38386 0.616238,-13.379939 1.22796,0.02957 1.317274,1.025896 0.959413,10.702526 -0.203632,5.506159 -0.383801,11.708093 -0.400383,13.782073 l -0.03013,3.770874 1.862548,0.731628 c 2.745811,1.078588 2.326207,2.669098 -0.704155,2.669098 -0.777935,0 -1.136574,0.30105 -1.242418,1.04292 -0.212307,1.48802 -1.778538,1.69711 -1.778538,0.23743 z m 4e-6,-2.677262 c 0,-0.2561 -0.197169,-0.465637 -0.438155,-0.465637 -0.240986,0 -0.567658,0.209537 -0.725938,0.465637 -0.158279,0.256101 0.03888,0.465642 0.438155,0.465642 0.399266,0 0.725938,-0.209541 0.725938,-0.465642 z m 3.026641,0 c -0.158279,-0.2561 -0.484951,-0.465637 -0.725937,-0.465637 -0.240986,0 -0.438155,0.209537 -0.438155,0.465637 0,0.256101 0.326672,0.465642 0.725937,0.465642 0.399265,0 0.596435,-0.209541 0.438155,-0.465642 z M 27.240798,93.090805 c -0.576226,-0.617118 -1.047684,-1.394881 -1.047684,-1.728371 0,-0.416349 0.328286,-0.502734 1.047684,-0.275685 3.005649,0.94861 3.207838,0.875715 12.152818,-4.381385 l 8.776947,-5.158347 1.333008,1.12165 1.333007,1.12165 -8.713045,5.022083 c -7.641002,4.404178 -9.028146,5.045361 -11.274048,5.211258 -2.239259,0.165403 -2.692627,0.04821 -3.608687,-0.932853 z m -7.196349,-4.112396 c -1.826136,-1.826136 -1.168592,-2.340236 1.47087,-1.150007 l 1.759736,0.793529 7.355987,-4.451715 7.355986,-4.451715 1.113389,1.201368 c 0.612364,0.660748 1.0494,1.25708 0.971191,1.325175 -0.07821,0.06809 -3.075712,1.866996 -6.661118,3.997556 -5.72032,3.399193 -6.844615,3.897755 -9.177546,4.069715 -2.501213,0.184365 -2.749206,0.105383 -4.188495,-1.333906 z m 69.475316,-0.828964 c 0,-1.644333 0.158196,-1.87101 1.832716,-2.626115 1.783208,-0.804113 1.86483,-0.801171 3.021924,0.109001 1.382435,1.087421 1.25621,1.249235 -2.410045,3.089638 l -2.444595,1.227149 0,-1.799673 z m -59.135915,-7.7063 c 0,-0.925557 -0.346304,-1.196013 -2.095369,-1.636431 -1.152452,-0.290194 -2.095367,-0.614404 -2.095367,-0.720476 0,-0.659994 1.667738,-1.656285 2.77253,-1.656285 l 1.309099,0 0.29759,-10.826064 c 0.387792,-14.107564 0.697395,-18.138063 1.375247,-17.903368 0.567937,0.196634 0.588238,8.200853 0.05486,21.628465 l -0.282069,7.100967 1.33811,0 c 0.73596,0 1.722718,0.281231 2.192795,0.624959 0.816071,0.596728 0.804892,0.659841 -0.247429,1.396912 -0.606163,0.424573 -1.579333,0.771952 -2.162599,0.771952 -0.82076,0 -1.060486,0.263145 -1.060486,1.164093 0,0.724326 -0.263861,1.164093 -0.698456,1.164093 -0.425309,0 -0.698456,-0.433625 -0.698456,-1.108817 z m -0.34923,-2.924663 c -0.320125,-0.129172 -0.843967,-0.129172 -1.164092,0 -0.320126,0.129173 -0.0582,0.234863 0.582046,0.234863 0.640251,0 0.902172,-0.10569 0.582046,-0.234863 z m 2.764721,-0.0097 c -0.336132,-0.134509 -0.737744,-0.117969 -0.892471,0.03674 -0.154727,0.154726 0.12029,0.26478 0.611148,0.244562 0.542441,-0.02235 0.652777,-0.132679 0.281323,-0.28132 l 0,1.8e-5 z m 17.141267,3.11189 c -0.875249,-0.875233 -0.932634,-1.56853 -0.953867,-11.524505 l -0.02259,-10.593245 -1.584545,3.026641 -1.584544,3.026642 -0.02259,7.261616 c -0.02511,8.07102 -0.285343,8.802866 -3.13014,8.802866 -2.733946,0 -2.945736,-0.747994 -2.945736,-10.40374 l 0,-8.700682 3.06439,-6.115316 c 3.039559,-6.065762 3.061747,-6.13808 2.738299,-8.924928 l -0.326091,-2.809618 -1.61667,2.878295 c -0.889169,1.583064 -1.859483,2.878927 -2.156253,2.879696 -0.968232,0.0023 -9.365059,-3.367326 -10.201553,-4.094111 -1.01245,-0.879667 -1.05238,-2.587809 -0.08315,-3.55704 1.004762,-1.004762 1.515542,-0.937993 5.088749,0.665196 1.712398,0.768301 3.170407,1.396912 3.240019,1.396912 0.06961,0 1.110742,-1.693818 2.313623,-3.764039 1.892964,-3.257893 2.475735,-3.891736 4.33387,-4.713677 2.632544,-1.164499 7.160534,-0.968471 9.52483,0.412353 0.84041,0.490825 3.25276,2.873014 5.360783,5.293751 l 3.832762,4.401342 0.01541,3.748379 c 0.01639,3.989305 -0.369106,4.865908 -2.139835,4.865908 -1.69878,0 -2.501152,-1.217897 -2.501152,-3.7964 0,-1.994236 -0.246177,-2.633402 -1.69551,-4.40212 -0.932532,-1.138031 -1.823063,-1.941861 -1.978958,-1.786291 -0.155895,0.155569 -0.388216,8.206496 -0.516266,17.890944 -0.217885,16.47862 -0.289719,17.670898 -1.119852,18.587277 -1.157709,1.277979 -3.678874,1.302466 -4.933431,0.04791 l -2e-6,-1.6e-5 z m 7.915832,-2.282576 c 0,-1.487082 0.248264,-2.016647 1.280502,-2.731377 2.448413,-1.695306 2.444837,-1.695962 2.441009,0.446509 -0.0033,1.851062 -0.147541,2.088648 -1.862548,3.068028 l -1.858963,1.061587 0,-1.844747 z m 7.915831,-4.651711 c 0,-1.810579 0.09018,-1.917671 2.971715,-3.52912 2.348273,-1.313227 3.203029,-1.576252 4.074325,-1.253737 0.606437,0.224479 1.364531,0.315995 1.684657,0.203376 0.644833,-0.226854 0.752781,0.292765 0.225689,1.086355 -0.188154,0.283279 -2.123161,1.515197 -4.300014,2.737592 -2.176854,1.222396 -4.115069,2.312592 -4.307144,2.422655 -0.192075,0.110067 -0.349228,-0.64014 -0.349228,-1.667121 z M 57.85644,69.99676 c 0,-1.588046 0.197868,-1.888015 1.862548,-2.823615 l 1.862549,-1.046813 0,2.038919 c 0,1.875465 -0.131915,2.101825 -1.645529,2.823619 -0.90504,0.43158 -1.743187,0.784696 -1.862549,0.784696 -0.119361,0 -0.217019,-0.799564 -0.217019,-1.776806 z m 7.915831,-2.879566 c 0,-0.2561 0.431441,-0.465637 0.958756,-0.465637 0.527316,0 0.829254,0.209537 0.670974,0.465637 -0.158279,0.256101 -0.58972,0.465638 -0.958756,0.465638 -0.369036,0 -0.670974,-0.209537 -0.670974,-0.465638 z m 20.953672,-21.68793 c 0,0.744763 0.259392,1.19991 0.683844,1.19991 0.416554,0 0.57908,-0.272999 0.415818,-0.698456 -0.314999,-0.820867 -0.157497,-0.848303 1.422135,-0.247724 0.731851,0.278246 1.090057,0.699485 0.936061,1.10078 -0.168681,0.439585 0.211097,0.742166 1.172991,0.934544 0.782336,0.156468 1.422433,0.508755 1.422433,0.782861 0,0.321569 -0.604825,0.384915 -1.704841,0.178549 -1.502318,-0.281836 -1.667438,-0.22236 -1.389993,0.500658 0.258946,0.674796 0.127594,0.770308 -0.739753,0.537904 -0.58003,-0.155416 -1.225873,-0.28544 -1.43521,-0.288937 -0.209332,-0.0035 -0.247598,-0.42543 -0.08503,-0.937631 0.424028,-1.336001 -0.846435,-1.206601 -2.285854,0.232819 -8.269977,6.337775 -8.901653,-13.966149 1.587399,-3.295277 z"
     id="path7033"
     sodipodi:nodetypes="cssscccsscccssssssssccccccccsscccccccsssssssssscccsscccsssssccsssssssssssscccsscccssccssccsssccccccssccsssssssssssssssccssccssccccssssccsssccsscccsssccsscccsssccccccsssscccccssssscccscccssssccccccsssssscccssccsssccsssccsscccccscccccccsssccssccccsscccscccsssssccssccssccccccccsccccccsssssssscccsssssscccssccccsssssscccccssccsssccssssssssssscc" />
  <path
     transform="matrix(0.39240473,0,0,0.39240473,73.315752,18.730732)"
     d="m 30.503934,69.418091 a 6.5813284,6.8947248 0 1 1 -13.162657,0 6.5813284,6.8947248 0 1 1 13.162657,0 z"
     sodipodi:ry="6.8947248"
     sodipodi:rx="6.5813284"
     sodipodi:cy="69.418091"
     sodipodi:cx="23.922606"
     id="path7035"
     style="fill:#000000;fill-opacity:1;stroke:#000000;stroke-width:7.2750001;stroke-linecap:round;stroke-linejoin:round;stroke-miterlimit:4;stroke-opacity:1;stroke-dasharray:none;stroke-dashoffset:0"
     sodipodi:type="arc" />
</svg>
