<?xml version="1.0" encoding="UTF-8" standalone="no"?>
<!-- Created with Inkscape (http://www.inkscape.org/) -->

<svg
   xmlns:dc="http://purl.org/dc/elements/1.1/"
   xmlns:cc="http://creativecommons.org/ns#"
   xmlns:rdf="http://www.w3.org/1999/02/22-rdf-syntax-ns#"
   xmlns:svg="http://www.w3.org/2000/svg"
   xmlns="http://www.w3.org/2000/svg"
   xmlns:sodipodi="http://sodipodi.sourceforge.net/DTD/sodipodi-0.dtd"
   xmlns:inkscape="http://www.inkscape.org/namespaces/inkscape"
   width="4636.0005"
   height="4636"
   id="svg2994"
   version="1.1"
   inkscape:version="0.48.5 r10040"
   sodipodi:docname="CANC Bus.svg"
   inkscape:export-filename="C:\Users\utente\Desktop\CANC drittok.png"
   inkscape:export-xdpi="90"
   inkscape:export-ydpi="90">
  <defs
     id="defs2996" />
  <sodipodi:namedview
     id="base"
     pagecolor="#ffffff"
     bordercolor="#666666"
     borderopacity="1.0"
     inkscape:pageopacity="0.0"
     inkscape:pageshadow="2"
     inkscape:zoom="0.071944445"
     inkscape:cx="2399.1856"
     inkscape:cy="1333.8763"
     inkscape:document-units="px"
     inkscape:current-layer="layer1"
     showgrid="false"
     inkscape:window-width="1366"
     inkscape:window-height="705"
     inkscape:window-x="-8"
     inkscape:window-y="-8"
     inkscape:window-maximized="1"
     fit-margin-top="0"
     fit-margin-left="0"
     fit-margin-right="0"
     fit-margin-bottom="0"
     inkscape:object-nodes="true"
     inkscape:object-paths="true"
     inkscape:snap-midpoints="true"
     inkscape:snap-nodes="true"
     inkscape:snap-object-midpoints="true" />
  <metadata
     id="metadata2999">
    <rdf:RDF>
      <cc:Work
         rdf:about="">
        <dc:format>image/svg+xml</dc:format>
        <dc:type
           rdf:resource="http://purl.org/dc/dcmitype/StillImage" />
        <dc:title />
      </cc:Work>
    </rdf:RDF>
  </metadata>
  <g
     inkscape:label="Livello 1"
     inkscape:groupmode="layer"
     id="layer1"
     transform="translate(-398.66428,4315.0942)">
    <rect
       style="fill:#989898;fill-opacity:1;stroke:none"
       id="rect6590-1"
       width="4636"
       height="4636"
       x="398.66428"
       y="-4315.0942"
       inkscape:export-filename="C:\Users\utente\Desktop\CANC okk.png"
       inkscape:export-xdpi="90"
       inkscape:export-ydpi="90" />
    <path
       sodipodi:nodetypes="cssccc"
       inkscape:connector-curvature="0"
       id="path4312"
       d="m 5034.6643,-1279.0941 -1412.0297,0 c -104.1355,0 -187.9703,83.8347 -187.9703,187.9703 l 0,1412.0297 c 0,0 1600,-1.4e-4 1600,0 z"
       style="fill:#d0d0d0;fill-opacity:1;stroke:none" />
    <path
       sodipodi:nodetypes="cssccc"
       inkscape:connector-curvature="0"
       id="path4314"
       d="m 398.66428,-2715.0942 1412.02972,0 c 104.1355,0 187.9703,-83.8347 187.9703,-187.9703 l 0,-1412.0297 c 0,0 -1600.00002,10e-5 -1600.00002,0 z"
       style="fill:#d0d0d0;fill-opacity:1;stroke:none" />
    <path
       style="fill:#d0d0d0;fill-opacity:1;stroke:none"
       d="m 5034.6643,-2715.0942 -1412.0297,0 c -104.1355,0 -187.9703,-83.8347 -187.9703,-187.9703 l 0,-1412.0297 c 0,0 1600,10e-5 1600,0 z"
       id="path4316"
       inkscape:connector-curvature="0"
       sodipodi:nodetypes="cssccc" />
    <path
       style="fill:#d0d0d0;fill-opacity:1;stroke:none"
       d="m 398.66428,-1279.0941 1412.02972,0 c 104.1355,0 187.9703,83.8347 187.9703,187.9703 l 0,1412.0297 c 0,0 -1600.00002,-1.4e-4 -1600.00002,0 z"
       id="rect4309"
       inkscape:connector-curvature="0"
       sodipodi:nodetypes="cssccc" />
    <path
       style="fill:#ffffff;fill-opacity:1;stroke:none"
       d="m 2300,650 0,50 0,1000 12,0 0,-1000 12,0 0,1000 12,0 0,-1000 344,0 0,1000 12,0 0,-1000 344,0 0,-50 -736,0 z"
       transform="translate(398.66428,-1379.0941)"
       id="rect8024-7"
       inkscape:connector-curvature="0" />
    <rect
       style="fill:#ffffff;fill-opacity:1;stroke:none"
       id="rect8540-1"
       width="50"
       height="250"
       x="2041.6646"
       y="-1079.094" />
    <rect
       y="-1079.094"
       x="2141.6641"
       height="250"
       width="50"
       id="rect8542-1"
       style="fill:#ffffff;fill-opacity:1;stroke:none" />
    <rect
       y="-1079.094"
       x="2241.6641"
       height="250"
       width="50"
       id="rect8544-5"
       style="fill:#ffffff;fill-opacity:1;stroke:none" />
    <rect
       style="fill:#ffffff;fill-opacity:1;stroke:none"
       id="rect8546-2"
       width="50"
       height="250"
       x="2341.6636"
       y="-1079.094" />
    <rect
       style="fill:#ffffff;fill-opacity:1;stroke:none"
       id="rect8548-7"
       width="50"
       height="250"
       x="2441.6641"
       y="-1079.094" />
    <rect
       y="-1079.094"
       x="2541.6636"
       height="250"
       width="50"
       id="rect8550-6"
       style="fill:#ffffff;fill-opacity:1;stroke:none" />
    <rect
       y="-1079.094"
       x="2641.6641"
       height="250"
       width="50"
       id="rect8552-1"
       style="fill:#ffffff;fill-opacity:1;stroke:none" />
    <rect
       style="fill:#ffffff;fill-opacity:1;stroke:none"
       id="rect3953"
       width="50"
       height="250"
       x="2741.6636"
       y="-1079.094" />
    <rect
       style="fill:#ffffff;fill-opacity:1;stroke:none"
       id="rect3955"
       width="50"
       height="250"
       x="2841.6636"
       y="-1079.094" />
    <rect
       y="-1079.094"
       x="2941.6631"
       height="250"
       width="50"
       id="rect3957"
       style="fill:#ffffff;fill-opacity:1;stroke:none" />
    <rect
       y="-1079.094"
       x="3041.6636"
       height="250"
       width="50"
       id="rect3959"
       style="fill:#ffffff;fill-opacity:1;stroke:none" />
    <rect
       style="fill:#ffffff;fill-opacity:1;stroke:none"
       id="rect3961"
       width="50"
       height="250"
       x="3141.6631"
       y="-1079.094" />
    <rect
       style="fill:#ffffff;fill-opacity:1;stroke:none"
       id="rect3963"
       width="50"
       height="250"
       x="3241.6636"
       y="-1079.094" />
    <rect
       y="70.906082"
       x="2342.6643"
       height="249.99968"
       width="12"
       id="rect3965"
       style="fill:#ffffff;fill-opacity:1;stroke:none" />
    <rect
       style="fill:#ffffff;fill-opacity:1;stroke:none"
       id="rect3967"
       width="12"
       height="300"
       x="2342.6643"
       y="-529.09381" />
    <rect
       y="-1079.094"
       x="3341.6641"
       height="250"
       width="50"
       id="rect3971"
       style="fill:#ffffff;fill-opacity:1;stroke:none" />
    <path
       style="fill:#ffffff;fill-opacity:1;stroke:none"
       d="m 0,-636 0,12 1000,0 0,12 -1000,0 0,12 1000,0 0,344 -1000,0 0,12 1000,0 0,344 50,0 0,-736 -50,0 -1000,0 z"
       transform="translate(398.66428,-1379.0941)"
       id="rect8024-7-2"
       inkscape:connector-curvature="0" />
    <rect
       style="fill:#ffffff;fill-opacity:1;stroke:none"
       id="rect8540-1-1"
       width="50"
       height="250"
       x="-2672.094"
       y="-1798.6641"
       transform="matrix(0,1,-1,0,0,0)" />
    <rect
       y="-1798.6641"
       x="-2572.0945"
       height="250"
       width="50"
       id="rect8542-1-3"
       style="fill:#ffffff;fill-opacity:1;stroke:none"
       transform="matrix(0,1,-1,0,0,0)" />
    <rect
       y="-1798.6641"
       x="-2472.0945"
       height="250"
       width="50"
       id="rect8544-5-8"
       style="fill:#ffffff;fill-opacity:1;stroke:none"
       transform="matrix(0,1,-1,0,0,0)" />
    <rect
       style="fill:#ffffff;fill-opacity:1;stroke:none"
       id="rect8546-2-7"
       width="50"
       height="250"
       x="-2372.095"
       y="-1798.6641"
       transform="matrix(0,1,-1,0,0,0)" />
    <rect
       style="fill:#ffffff;fill-opacity:1;stroke:none"
       id="rect8548-7-4"
       width="50"
       height="250"
       x="-2272.0945"
       y="-1798.6641"
       transform="matrix(0,1,-1,0,0,0)" />
    <rect
       y="-1798.6641"
       x="-2172.095"
       height="250"
       width="50"
       id="rect8550-6-2"
       style="fill:#ffffff;fill-opacity:1;stroke:none"
       transform="matrix(0,1,-1,0,0,0)" />
    <rect
       y="-1798.6641"
       x="-2072.0945"
       height="250"
       width="50"
       id="rect8552-1-7"
       style="fill:#ffffff;fill-opacity:1;stroke:none"
       transform="matrix(0,1,-1,0,0,0)" />
    <rect
       style="fill:#ffffff;fill-opacity:1;stroke:none"
       id="rect3953-1"
       width="50"
       height="250"
       x="-1972.0948"
       y="-1798.6641"
       transform="matrix(0,1,-1,0,0,0)" />
    <rect
       style="fill:#ffffff;fill-opacity:1;stroke:none"
       id="rect3955-9"
       width="50"
       height="250"
       x="-1872.0948"
       y="-1798.6641"
       transform="matrix(0,1,-1,0,0,0)" />
    <rect
       y="-1798.6641"
       x="-1772.0953"
       height="250"
       width="50"
       id="rect3957-8"
       style="fill:#ffffff;fill-opacity:1;stroke:none"
       transform="matrix(0,1,-1,0,0,0)" />
    <rect
       y="-1798.6641"
       x="-1672.0951"
       height="250"
       width="50"
       id="rect3959-6"
       style="fill:#ffffff;fill-opacity:1;stroke:none"
       transform="matrix(0,1,-1,0,0,0)" />
    <rect
       style="fill:#ffffff;fill-opacity:1;stroke:none"
       id="rect3961-5"
       width="50"
       height="250"
       x="-1572.0956"
       y="-1798.6641"
       transform="matrix(0,1,-1,0,0,0)" />
    <rect
       style="fill:#ffffff;fill-opacity:1;stroke:none"
       id="rect3963-0"
       width="50"
       height="250"
       x="-1472.0951"
       y="-1798.6641"
       transform="matrix(0,1,-1,0,0,0)" />
    <rect
       y="-648.66412"
       x="-2371.0945"
       height="249.99985"
       width="12"
       id="rect3965-2"
       style="fill:#ffffff;fill-opacity:1;stroke:none"
       transform="matrix(0,1,-1,0,0,0)" />
    <rect
       style="fill:#ffffff;fill-opacity:1;stroke:none"
       id="rect3967-8"
       width="12"
       height="300"
       x="-2371.0945"
       y="-1248.6641"
       transform="matrix(0,1,-1,0,0,0)" />
    <rect
       y="-1798.6641"
       x="-1372.0944"
       height="250"
       width="50"
       id="rect3971-6"
       style="fill:#ffffff;fill-opacity:1;stroke:none"
       transform="matrix(0,1,-1,0,0,0)" />
    <path
       style="fill:#ffffff;fill-opacity:1;stroke:none"
       d="m 1944,-2936 0,1000 -344,0 0,50 736,0 0,-50 0,-1000 -12,0 0,1000 -12,0 0,-1000 -12,0 0,1000 -344,0 0,-1000 -12,0 z"
       transform="translate(398.66428,-1379.0941)"
       id="rect8024-7-2-2"
       inkscape:connector-curvature="0" />
    <rect
       style="fill:#ffffff;fill-opacity:1;stroke:none"
       id="rect8540-1-1-6"
       width="50"
       height="250"
       x="-3391.6643"
       y="2915.0938"
       transform="scale(-1,-1)" />
    <rect
       y="2915.0938"
       x="-3291.6648"
       height="250"
       width="50"
       id="rect8542-1-3-5"
       style="fill:#ffffff;fill-opacity:1;stroke:none"
       transform="scale(-1,-1)" />
    <rect
       y="2915.0938"
       x="-3191.6648"
       height="250"
       width="50"
       id="rect8544-5-8-0"
       style="fill:#ffffff;fill-opacity:1;stroke:none"
       transform="scale(-1,-1)" />
    <rect
       style="fill:#ffffff;fill-opacity:1;stroke:none"
       id="rect8546-2-7-9"
       width="50"
       height="250"
       x="-3091.6653"
       y="2915.0938"
       transform="scale(-1,-1)" />
    <rect
       style="fill:#ffffff;fill-opacity:1;stroke:none"
       id="rect8548-7-4-0"
       width="50"
       height="250"
       x="-2991.6648"
       y="2915.0938"
       transform="scale(-1,-1)" />
    <rect
       y="2915.0938"
       x="-2891.6653"
       height="250"
       width="50"
       id="rect8550-6-2-0"
       style="fill:#ffffff;fill-opacity:1;stroke:none"
       transform="scale(-1,-1)" />
    <rect
       y="2915.0938"
       x="-2791.6648"
       height="250"
       width="50"
       id="rect8552-1-7-6"
       style="fill:#ffffff;fill-opacity:1;stroke:none"
       transform="scale(-1,-1)" />
    <rect
       style="fill:#ffffff;fill-opacity:1;stroke:none"
       id="rect3953-1-9"
       width="50"
       height="250"
       x="-2691.6653"
       y="2915.0938"
       transform="scale(-1,-1)" />
    <rect
       style="fill:#ffffff;fill-opacity:1;stroke:none"
       id="rect3955-9-3"
       width="50"
       height="250"
       x="-2591.6653"
       y="2915.0938"
       transform="scale(-1,-1)" />
    <rect
       y="2915.0938"
       x="-2491.6658"
       height="250"
       width="50"
       id="rect3957-8-4"
       style="fill:#ffffff;fill-opacity:1;stroke:none"
       transform="scale(-1,-1)" />
    <rect
       y="2915.0938"
       x="-2391.6655"
       height="250"
       width="50"
       id="rect3959-6-4"
       style="fill:#ffffff;fill-opacity:1;stroke:none"
       transform="scale(-1,-1)" />
    <rect
       style="fill:#ffffff;fill-opacity:1;stroke:none"
       id="rect3961-5-6"
       width="50"
       height="250"
       x="-2291.6658"
       y="2915.0938"
       transform="scale(-1,-1)" />
    <rect
       style="fill:#ffffff;fill-opacity:1;stroke:none"
       id="rect3963-0-0"
       width="50"
       height="250"
       x="-2191.6658"
       y="2915.0938"
       transform="scale(-1,-1)" />
    <rect
       y="4065.0933"
       x="-3090.6646"
       height="250.00098"
       width="12"
       id="rect3965-2-6"
       style="fill:#ffffff;fill-opacity:1;stroke:none"
       transform="scale(-1,-1)" />
    <rect
       style="fill:#ffffff;fill-opacity:1;stroke:none"
       id="rect3967-8-6"
       width="12"
       height="300"
       x="-3090.6646"
       y="3465.0935"
       transform="scale(-1,-1)" />
    <rect
       y="2915.0938"
       x="-2091.6648"
       height="250"
       width="50"
       id="rect3971-6-1"
       style="fill:#ffffff;fill-opacity:1;stroke:none"
       transform="scale(-1,-1)" />
    <path
       style="fill:#ffffff;fill-opacity:1;stroke:none"
       d="m 3586,-1336 0,736 50,0 1000,0 0,-12 -1000,0 0,-12 1000,0 0,-12 -1000,0 0,-344 1000,0 0,-12 -1000,0 0,-344 -50,0 z"
       transform="translate(398.66428,-1379.0941)"
       id="rect8024-7-2-4"
       inkscape:connector-curvature="0" />
    <rect
       style="fill:#ffffff;fill-opacity:1;stroke:none"
       id="rect8540-1-1-9"
       width="50"
       height="250"
       x="1322.0944"
       y="3634.6641"
       transform="matrix(0,-1,1,0,0,0)" />
    <rect
       y="3634.6641"
       x="1422.0939"
       height="250"
       width="50"
       id="rect8542-1-3-6"
       style="fill:#ffffff;fill-opacity:1;stroke:none"
       transform="matrix(0,-1,1,0,0,0)" />
    <rect
       y="3634.6641"
       x="1522.0939"
       height="250"
       width="50"
       id="rect8544-5-8-3"
       style="fill:#ffffff;fill-opacity:1;stroke:none"
       transform="matrix(0,-1,1,0,0,0)" />
    <rect
       style="fill:#ffffff;fill-opacity:1;stroke:none"
       id="rect8546-2-7-7"
       width="50"
       height="250"
       x="1622.0934"
       y="3634.6641"
       transform="matrix(0,-1,1,0,0,0)" />
    <rect
       style="fill:#ffffff;fill-opacity:1;stroke:none"
       id="rect8548-7-4-8"
       width="50"
       height="250"
       x="1722.0939"
       y="3634.6641"
       transform="matrix(0,-1,1,0,0,0)" />
    <rect
       y="3634.6641"
       x="1822.0934"
       height="250"
       width="50"
       id="rect8550-6-2-8"
       style="fill:#ffffff;fill-opacity:1;stroke:none"
       transform="matrix(0,-1,1,0,0,0)" />
    <rect
       y="3634.6641"
       x="1922.0939"
       height="250"
       width="50"
       id="rect8552-1-7-2"
       style="fill:#ffffff;fill-opacity:1;stroke:none"
       transform="matrix(0,-1,1,0,0,0)" />
    <rect
       style="fill:#ffffff;fill-opacity:1;stroke:none"
       id="rect3953-1-5"
       width="50"
       height="250"
       x="2022.0934"
       y="3634.6641"
       transform="matrix(0,-1,1,0,0,0)" />
    <rect
       style="fill:#ffffff;fill-opacity:1;stroke:none"
       id="rect3955-9-9"
       width="50"
       height="250"
       x="2122.0933"
       y="3634.6641"
       transform="matrix(0,-1,1,0,0,0)" />
    <rect
       y="3634.6641"
       x="2222.0928"
       height="250"
       width="50"
       id="rect3957-8-8"
       style="fill:#ffffff;fill-opacity:1;stroke:none"
       transform="matrix(0,-1,1,0,0,0)" />
    <rect
       y="3634.6641"
       x="2322.0933"
       height="250"
       width="50"
       id="rect3959-6-40"
       style="fill:#ffffff;fill-opacity:1;stroke:none"
       transform="matrix(0,-1,1,0,0,0)" />
    <rect
       style="fill:#ffffff;fill-opacity:1;stroke:none"
       id="rect3961-5-7"
       width="50"
       height="250"
       x="2422.0928"
       y="3634.6641"
       transform="matrix(0,-1,1,0,0,0)" />
    <rect
       style="fill:#ffffff;fill-opacity:1;stroke:none"
       id="rect3963-0-6"
       width="50"
       height="250"
       x="2522.0933"
       y="3634.6641"
       transform="matrix(0,-1,1,0,0,0)" />
    <rect
       y="4784.6641"
       x="1623.0941"
       height="250.00021"
       width="12"
       id="rect3965-2-3"
       style="fill:#ffffff;fill-opacity:1;stroke:none"
       transform="matrix(0,-1,1,0,0,0)" />
    <rect
       style="fill:#ffffff;fill-opacity:1;stroke:none"
       id="rect3967-8-61"
       width="12"
       height="300"
       x="1623.0941"
       y="4184.6641"
       transform="matrix(0,-1,1,0,0,0)" />
    <rect
       y="3634.6641"
       x="2622.0938"
       height="250"
       width="50"
       id="rect3971-6-5"
       style="fill:#ffffff;fill-opacity:1;stroke:none"
       transform="matrix(0,-1,1,0,0,0)" />
    <rect
       style="fill:#646464;fill-opacity:1;stroke:none"
       id="rect6537-0"
       width="1350"
       height="1350"
       x="398.66428"
       y="-1029.0942" />
    <rect
       y="-1029.0941"
       x="3684.6643"
       height="1350"
       width="1350"
       id="rect4318"
       style="fill:#646464;fill-opacity:1;stroke:none" />
    <rect
       y="-4315.0942"
       x="398.66428"
       height="1350"
       width="1350"
       id="rect4320"
       style="fill:#646464;fill-opacity:1;stroke:none" />
    <rect
       style="fill:#646464;fill-opacity:1;stroke:none"
       id="rect4322"
       width="1350"
       height="1350"
       x="3684.6646"
       y="-4315.0942" />
    <path
       style="fill:none;stroke:#ffffff;stroke-width:12;stroke-miterlimit:4;stroke-opacity:1;stroke-dasharray:none;stroke-dashoffset:0"
       d="m 2715.3568,-2865.6698 c -1.771,33.3832 -5.3254,66.2934 -10.57,98.6368"
       id="path4584"
       inkscape:connector-curvature="0" />
    <path
       style="fill:none;stroke:#ffffff;stroke-width:12;stroke-miterlimit:4;stroke-opacity:1;stroke-dasharray:none;stroke-dashoffset:0"
       d="m 2668.7872,-2621.7191 c -10.7391,31.8629 -23.1792,62.9434 -37.2124,93.1334"
       id="path4588"
       inkscape:connector-curvature="0" />
    <path
       style="fill:none;stroke:#ffffff;stroke-width:12;stroke-miterlimit:4;stroke-opacity:1;stroke-dasharray:none;stroke-dashoffset:0"
       d="m 2558.7609,-2400.1722 c -18.6305,27.4477 -38.7088,53.8331 -60.1251,79.0465"
       id="path4592"
       inkscape:connector-curvature="0" />
    <path
       style="fill:none;stroke:#ffffff;stroke-width:12;stroke-miterlimit:4;stroke-opacity:1;stroke-dasharray:none;stroke-dashoffset:0"
       d="m 2393.7836,-2216.1019 c -25.3748,21.6249 -51.9417,41.8925 -79.5885,60.6905"
       id="path4600"
       inkscape:connector-curvature="0" />
    <path
       style="fill:none;stroke:#ffffff;stroke-width:12;stroke-miterlimit:4;stroke-opacity:1;stroke-dasharray:none;stroke-dashoffset:0"
       d="m 2183.8917,-2081.5898 c -30.1316,13.9494 -61.1472,26.3131 -92.9398,36.9839"
       id="path4598"
       inkscape:connector-curvature="0" />
    <path
       style="fill:none;stroke:#ffffff;stroke-width:12;stroke-miterlimit:4;stroke-opacity:1;stroke-dasharray:none;stroke-dashoffset:0"
       d="m 1942.4291,-2008.286 c -32.9551,5.1832 -66.4924,8.613 -100.5134,10.1909"
       id="path4342"
       inkscape:connector-curvature="0" />
    <path
       id="path4602"
       d="m 2715.3568,-2865.6698 c 1.771,33.3832 5.3254,66.2934 10.57,98.6368"
       style="fill:none;stroke:#ffffff;stroke-width:12;stroke-miterlimit:4;stroke-opacity:1;stroke-dasharray:none;stroke-dashoffset:0"
       inkscape:connector-curvature="0" />
    <path
       id="path4604"
       d="m 2761.9264,-2621.7191 c 10.7391,31.8629 23.1792,62.9434 37.2124,93.1334"
       style="fill:none;stroke:#ffffff;stroke-width:12;stroke-miterlimit:4;stroke-opacity:1;stroke-dasharray:none;stroke-dashoffset:0"
       inkscape:connector-curvature="0" />
    <path
       id="path4606"
       d="m 2871.9527,-2400.1722 c 18.6305,27.4477 38.7088,53.8331 60.1251,79.0465"
       style="fill:none;stroke:#ffffff;stroke-width:12;stroke-miterlimit:4;stroke-opacity:1;stroke-dasharray:none;stroke-dashoffset:0"
       inkscape:connector-curvature="0" />
    <path
       id="path4608"
       d="m 3036.93,-2216.1019 c 25.3748,21.6249 51.9417,41.8925 79.5885,60.6905"
       style="fill:none;stroke:#ffffff;stroke-width:12;stroke-miterlimit:4;stroke-opacity:1;stroke-dasharray:none;stroke-dashoffset:0"
       inkscape:connector-curvature="0" />
    <path
       id="path4610"
       d="m 3246.8219,-2081.5898 c 30.1316,13.9494 61.1472,26.3131 92.9398,36.9839"
       style="fill:none;stroke:#ffffff;stroke-width:12;stroke-miterlimit:4;stroke-opacity:1;stroke-dasharray:none;stroke-dashoffset:0"
       inkscape:connector-curvature="0" />
    <path
       id="path4612"
       d="m 3488.2845,-2008.286 c 32.9551,5.1832 66.4924,8.613 100.5134,10.1909"
       style="fill:none;stroke:#ffffff;stroke-width:12;stroke-miterlimit:4;stroke-opacity:1;stroke-dasharray:none;stroke-dashoffset:0"
       inkscape:connector-curvature="0" />
    <path
       id="path4614"
       d="m 2715.3568,-1130.5204 c -1.771,-33.3832 -5.3254,-66.2934 -10.57,-98.6368"
       style="fill:none;stroke:#ffffff;stroke-width:12;stroke-miterlimit:4;stroke-opacity:1;stroke-dasharray:none;stroke-dashoffset:0"
       inkscape:connector-curvature="0" />
    <path
       id="path4616"
       d="m 2668.7872,-1374.4711 c -10.7391,-31.8629 -23.1792,-62.9434 -37.2124,-93.1334"
       style="fill:none;stroke:#ffffff;stroke-width:12;stroke-miterlimit:4;stroke-opacity:1;stroke-dasharray:none;stroke-dashoffset:0"
       inkscape:connector-curvature="0" />
    <path
       id="path4618"
       d="m 2558.7609,-1596.018 c -18.6305,-27.4477 -38.7088,-53.8331 -60.1251,-79.0465"
       style="fill:none;stroke:#ffffff;stroke-width:12;stroke-miterlimit:4;stroke-opacity:1;stroke-dasharray:none;stroke-dashoffset:0"
       inkscape:connector-curvature="0" />
    <path
       id="path4620"
       d="m 2393.7836,-1780.0883 c -25.3748,-21.6249 -51.9417,-41.8925 -79.5885,-60.6905"
       style="fill:none;stroke:#ffffff;stroke-width:12;stroke-miterlimit:4;stroke-opacity:1;stroke-dasharray:none;stroke-dashoffset:0"
       inkscape:connector-curvature="0" />
    <path
       id="path4622"
       d="m 2183.8917,-1914.6004 c -30.1316,-13.9494 -61.1472,-26.3131 -92.9398,-36.9839"
       style="fill:none;stroke:#ffffff;stroke-width:12;stroke-miterlimit:4;stroke-opacity:1;stroke-dasharray:none;stroke-dashoffset:0"
       inkscape:connector-curvature="0" />
    <path
       id="path4624"
       d="m 1942.4291,-1987.9042 c -32.9551,-5.1832 -66.4924,-8.613 -100.5134,-10.1909"
       style="fill:none;stroke:#ffffff;stroke-width:12;stroke-miterlimit:4;stroke-opacity:1;stroke-dasharray:none;stroke-dashoffset:0"
       inkscape:connector-curvature="0" />
    <path
       inkscape:connector-curvature="0"
       style="fill:none;stroke:#ffffff;stroke-width:12;stroke-miterlimit:4;stroke-opacity:1;stroke-dasharray:none;stroke-dashoffset:0"
       d="m 2715.3568,-1130.5204 c 1.771,-33.3832 5.3254,-66.2934 10.57,-98.6368"
       id="path4626" />
    <path
       inkscape:connector-curvature="0"
       style="fill:none;stroke:#ffffff;stroke-width:12;stroke-miterlimit:4;stroke-opacity:1;stroke-dasharray:none;stroke-dashoffset:0"
       d="m 2761.9264,-1374.4711 c 10.7391,-31.8629 23.1792,-62.9434 37.2124,-93.1334"
       id="path4628" />
    <path
       inkscape:connector-curvature="0"
       style="fill:none;stroke:#ffffff;stroke-width:12;stroke-miterlimit:4;stroke-opacity:1;stroke-dasharray:none;stroke-dashoffset:0"
       d="m 2871.9527,-1596.018 c 18.6305,-27.4477 38.7088,-53.8331 60.1251,-79.0465"
       id="path4630" />
    <path
       inkscape:connector-curvature="0"
       style="fill:none;stroke:#ffffff;stroke-width:12;stroke-miterlimit:4;stroke-opacity:1;stroke-dasharray:none;stroke-dashoffset:0"
       d="m 3036.93,-1780.0883 c 25.3748,-21.6249 51.9417,-41.8925 79.5885,-60.6905"
       id="path4632" />
    <path
       inkscape:connector-curvature="0"
       style="fill:none;stroke:#ffffff;stroke-width:12;stroke-miterlimit:4;stroke-opacity:1;stroke-dasharray:none;stroke-dashoffset:0"
       d="m 3246.8219,-1914.6004 c 30.1316,-13.9494 61.1472,-26.3131 92.9398,-36.9839"
       id="path4634" />
    <path
       inkscape:connector-curvature="0"
       style="fill:none;stroke:#ffffff;stroke-width:12;stroke-miterlimit:4;stroke-opacity:1;stroke-dasharray:none;stroke-dashoffset:0"
       d="m 3488.2845,-1987.9042 c 32.9551,-5.1832 66.4924,-8.613 100.5134,-10.1909"
       id="path4636" />
    <path
       sodipodi:type="arc"
       style="fill:#000000;fill-opacity:1;stroke:none"
       id="path4656"
       sodipodi:cx="1513.3204"
       sodipodi:cy="3126.5889"
       sodipodi:rx="16.505791"
       sodipodi:ry="20.415058"
       d="m 1529.8262,3126.5889 a 16.505791,20.415058 0 1 1 -33.0116,0 16.505791,20.415058 0 1 1 33.0116,0 z"
       transform="matrix(1.211696,0,0,0.97966902,49.979963,-4227.1165)" />
    <path
       transform="matrix(-1.211696,0,0,0.97966902,5383.3486,-4227.1165)"
       d="m 1529.8262,3126.5889 a 16.505791,20.415058 0 1 1 -33.0116,0 16.505791,20.415058 0 1 1 33.0116,0 z"
       sodipodi:ry="20.415058"
       sodipodi:rx="16.505791"
       sodipodi:cy="3126.5889"
       sodipodi:cx="1513.3204"
       id="path4660"
       style="fill:#000000;fill-opacity:1;stroke:none"
       sodipodi:type="arc" />
    <path
       transform="matrix(1.211696,0,0,0.97966902,49.979963,-5893.1166)"
       d="m 1529.8262,3126.5889 a 16.505791,20.415058 0 1 1 -33.0116,0 16.505791,20.415058 0 1 1 33.0116,0 z"
       sodipodi:ry="20.415058"
       sodipodi:rx="16.505791"
       sodipodi:cy="3126.5889"
       sodipodi:cx="1513.3204"
       id="path4662"
       style="fill:#000000;fill-opacity:1;stroke:none"
       sodipodi:type="arc" />
    <path
       sodipodi:type="arc"
       style="fill:#000000;fill-opacity:1;stroke:none"
       id="path4664"
       sodipodi:cx="1513.3204"
       sodipodi:cy="3126.5889"
       sodipodi:rx="16.505791"
       sodipodi:ry="20.415058"
       d="m 1529.8262,3126.5889 a 16.505791,20.415058 0 1 1 -33.0116,0 16.505791,20.415058 0 1 1 33.0116,0 z"
       transform="matrix(-1.211696,0,0,0.97966902,5383.3486,-5893.1165)" />
  </g>
</svg>
