<?xml version="1.0" encoding="UTF-8" standalone="no"?>
<!-- Created with Inkscape (http://www.inkscape.org/) -->
<svg
   xmlns:dc="http://purl.org/dc/elements/1.1/"
   xmlns:cc="http://creativecommons.org/ns#"
   xmlns:rdf="http://www.w3.org/1999/02/22-rdf-syntax-ns#"
   xmlns:svg="http://www.w3.org/2000/svg"
   xmlns="http://www.w3.org/2000/svg"
   xmlns:sodipodi="http://sodipodi.sourceforge.net/DTD/sodipodi-0.dtd"
   xmlns:inkscape="http://www.inkscape.org/namespaces/inkscape"
   version="1.1"
   width="200"
   height="200"
   id="svg2"
   inkscape:version="0.46"
   sodipodi:docname="Italian_traffic_signs_-_icona_autotreno.svg"
   sodipodi:version="0.32"
   inkscape:output_extension="org.inkscape.output.svg.inkscape">
  <metadata
     id="metadata2877">
    <rdf:RDF>
      <cc:Work
         rdf:about="">
        <dc:format>image/svg+xml</dc:format>
        <dc:type
           rdf:resource="http://purl.org/dc/dcmitype/StillImage" />
      </cc:Work>
    </rdf:RDF>
  </metadata>
  <sodipodi:namedview
     pagecolor="#ffffff"
     bordercolor="#666666"
     borderopacity="1"
     objecttolerance="10"
     gridtolerance="10"
     guidetolerance="10"
     inkscape:pageopacity="0"
     inkscape:pageshadow="2"
     inkscape:window-width="1024"
     inkscape:window-height="708"
     id="namedview2875"
     showgrid="false"
     inkscape:zoom="1.9914447"
     inkscape:cx="115.51255"
     inkscape:cy="118.43692"
     inkscape:window-x="0"
     inkscape:window-y="26"
     inkscape:window-maximized="1"
     inkscape:current-layer="svg2" />
  <defs
     id="defs4">
    <inkscape:perspective
       sodipodi:type="inkscape:persp3d"
       inkscape:vp_x="0 : 100 : 1"
       inkscape:vp_y="0 : 1000 : 0"
       inkscape:vp_z="200 : 100 : 1"
       inkscape:persp3d-origin="100 : 66.666667 : 1"
       id="perspective2879" />
  </defs>
  <rect
     style="fill:#ffffff;fill-opacity:1;stroke:none"
     id="rect2881"
     width="200.9709"
     height="200.61583"
     x="0.1366235"
     y="-0.46875373"
     rx="0"
     ry="0" />
  <rect
     width="194.80612"
     height="194.80614"
     ry="18.580454"
     x="3.2339785"
     y="2.8621521"
     id="rect4614"
     style="fill:none;stroke:#000000;stroke-width:3;stroke-miterlimit:4;stroke-opacity:1;stroke-dasharray:none" />
  <g
     transform="translate(7.1677951e-3,-2.7885921)"
     id="g5684">
    <path
       d="M 14.628506,116.25347 L 14.628506,105.06205 L 17.758445,96.350159 L 20.888383,87.638279 L 31.124167,87.479593 L 41.359952,87.320901 L 41.359952,102.15283 L 41.359952,116.98476 L 68.886413,116.98476 L 96.412868,116.98476 L 94.478087,119.03623 C 92.671018,120.95227 91.346882,124.07063 91.339374,126.42793 C 91.336474,127.38083 89.743739,127.44489 66.057482,127.44489 L 40.778834,127.44489 L 40.778834,125.73936 C 40.778834,121.52695 37.51247,117.44037 33.097612,116.12929 C 26.566016,114.18962 19.277454,119.20759 19.277454,125.64408 C 19.277454,127.35761 19.164797,127.44489 16.952981,127.44489 L 14.628506,127.44489 L 14.628506,116.25347 L 14.628506,116.25347 z M 38.912824,97.953129 L 38.744919,92.868344 L 30.976016,92.868344 L 23.207114,92.868344 L 21.548539,97.517289 C 20.636322,100.07421 19.8829,102.36237 19.874268,102.60208 C 19.865668,102.84179 24.183558,103.03792 29.46965,103.03792 L 39.080728,103.03792 L 38.912824,97.953129 z M 137.82559,122.21482 L 137.82559,116.98476 L 145.48886,116.98476 L 153.15212,116.98476 L 151.65694,118.58283 C 149.60813,120.77264 148.28573,123.55373 148.28573,125.67268 L 148.28573,127.44489 L 143.05566,127.44489 L 137.82559,127.44489 L 137.82559,122.21482 L 137.82559,122.21482 z M 112.90183,123.68233 C 112.49673,122.07355 111.46589,120.30083 110.19844,119.03338 L 108.14982,116.98476 L 117.46708,116.98476 L 126.78435,116.98476 L 126.78435,121.63371 L 126.78435,126.28265 L 120.17047,126.28265 L 113.5566,126.28265 L 112.90183,123.68233 L 112.90183,123.68233 z M 170.10796,125.55625 C 169.98488,125.15674 169.72495,124.10413 169.53033,123.21713 C 169.33572,122.33013 168.23744,120.56498 167.0897,119.29458 L 165.00292,116.98476 L 176.11179,116.98476 L 187.22066,116.98476 L 187.22066,121.63371 L 187.22066,126.28265 L 178.7762,126.28265 C 172.5274,126.28265 170.27356,126.09378 170.10796,125.55625 z M 43.684425,95.192819 L 43.684425,75.144233 L 85.234388,75.144233 L 126.78435,75.144233 L 126.78435,93.740019 L 126.78435,112.33581 L 132.30497,112.33581 L 137.82559,112.33581 L 137.82559,93.740019 L 137.82559,75.144233 L 162.52313,75.144233 L 187.22066,75.144233 L 187.22066,95.192819 L 187.22066,115.2414 L 115.45254,115.2414 L 43.684425,115.2414 L 43.684425,95.192819 L 43.684425,95.192819 z"
       id="path5668"
       style="fill:#000000" />
    <path
       d="M 29.971973,117.52547 C 24.981651,117.52847 20.921755,121.5614 20.924151,126.55173 C 20.926651,131.54204 24.990357,135.60192 29.980684,135.59952 C 34.971014,135.59652 39.00062,131.53335 38.998225,126.54301 C 38.995725,121.5527 34.962302,117.52306 29.971973,117.52547 L 29.971973,117.52547 z M 29.974373,122.27855 C 32.33467,122.27759 34.244047,124.18494 34.245182,126.54523 C 34.246382,128.90552 32.338787,130.84519 29.978501,130.84633 C 27.618213,130.84729 25.708825,128.90965 25.707686,126.54934 C 25.706486,124.18906 27.614085,122.27968 29.974373,122.27855 L 29.974373,122.27855 z"
       id="rect1885"
       style="fill:#000000;fill-opacity:1;fill-rule:evenodd;stroke:none" />
    <path
       d="M 101.97197,117.52547 C 96.981651,117.52847 92.921755,121.5614 92.924151,126.55173 C 92.926651,131.54204 96.990357,135.60192 101.98068,135.59952 C 106.97101,135.59652 111.00062,131.53335 110.99823,126.54301 C 110.99523,121.5527 106.9623,117.52306 101.97197,117.52547 L 101.97197,117.52547 z M 101.97397,122.27855 C 104.33427,122.27759 106.24365,124.18494 106.24478,126.54523 C 106.24578,128.90552 104.33839,130.84519 101.9781,130.84633 C 99.61781,130.84729 97.708425,128.90965 97.707286,126.54934 C 97.706086,124.18906 99.61368,122.27968 101.97397,122.27855 z"
       id="path5680"
       style="fill:#000000;fill-opacity:1;fill-rule:evenodd;stroke:none" />
    <path
       d="M 158.97182,117.52547 C 153.9815,117.52847 149.92161,121.5614 149.924,126.55173 C 149.926,131.54204 153.99021,135.60192 158.98053,135.59952 C 163.97086,135.59652 168.00047,131.53335 167.99808,126.54301 C 167.99508,121.5527 163.96215,117.52306 158.97182,117.52547 L 158.97182,117.52547 z M 158.97382,122.27855 C 161.33412,122.27759 163.2435,124.18494 163.24463,126.54523 C 163.24563,128.90552 161.33824,130.84519 158.97795,130.84633 C 156.61766,130.84729 154.70827,128.90965 154.70714,126.54934 C 154.70614,124.18906 156.61353,122.27968 158.97382,122.27855 z"
       id="path5682"
       style="fill:#000000;fill-opacity:1;fill-rule:evenodd;stroke:none" />
  </g>
</svg>
