<?xml version="1.0" encoding="UTF-8" standalone="no"?>
<!-- Created with Inkscape (http://www.inkscape.org/) -->

<svg
   xmlns:dc="http://purl.org/dc/elements/1.1/"
   xmlns:cc="http://creativecommons.org/ns#"
   xmlns:rdf="http://www.w3.org/1999/02/22-rdf-syntax-ns#"
   xmlns:svg="http://www.w3.org/2000/svg"
   xmlns="http://www.w3.org/2000/svg"
   xmlns:sodipodi="http://sodipodi.sourceforge.net/DTD/sodipodi-0.dtd"
   xmlns:inkscape="http://www.inkscape.org/namespaces/inkscape"
   width="600"
   height="600"
   id="svg2"
   version="1.1"
   inkscape:version="0.48.5 r10040"
   sodipodi:docname="CANC2.svg">
  <defs
     id="defs4" />
  <sodipodi:namedview
     id="base"
     pagecolor="#ffffff"
     bordercolor="#666666"
     borderopacity="1.0"
     inkscape:pageopacity="0.0"
     inkscape:pageshadow="2"
     inkscape:zoom="0.175"
     inkscape:cx="542.49767"
     inkscape:cy="-128.75677"
     inkscape:document-units="px"
     inkscape:current-layer="layer1"
     showgrid="false"
     inkscape:object-paths="true"
     inkscape:snap-object-midpoints="true"
     inkscape:snap-global="true"
     fit-margin-top="0"
     fit-margin-left="0"
     fit-margin-right="0"
     fit-margin-bottom="0"
     inkscape:window-width="1366"
     inkscape:window-height="705"
     inkscape:window-x="-8"
     inkscape:window-y="-8"
     inkscape:window-maximized="1"
     inkscape:snap-midpoints="true"
     inkscape:object-nodes="true" />
  <metadata
     id="metadata7">
    <rdf:RDF>
      <cc:Work
         rdf:about="">
        <dc:format>image/svg+xml</dc:format>
        <dc:type
           rdf:resource="http://purl.org/dc/dcmitype/StillImage" />
        <dc:title></dc:title>
      </cc:Work>
    </rdf:RDF>
  </metadata>
  <g
     inkscape:label="Livello 1"
     inkscape:groupmode="layer"
     id="layer1"
     transform="translate(0,-452.375)">
    <rect
       style="fill:#ffffff;fill-opacity:1;fill-rule:evenodd;stroke:#000000;stroke-width:0.99999994000000003px;stroke-linecap:butt;stroke-linejoin:miter;stroke-opacity:1;opacity:1"
       id="rect2985"
       width="599"
       height="599"
       x="0.49999997"
       y="452.875" />
    <path
       sodipodi:type="arc"
       style="fill:#000000;fill-opacity:1;stroke:none"
       id="path6792"
       sodipodi:cx="380.17856"
       sodipodi:cy="143.57143"
       sodipodi:rx="25.535715"
       sodipodi:ry="25.357143"
       d="m 405.71427,143.57143 a 25.535715,25.357143 0 1 1 -51.07143,0 25.535715,25.357143 0 1 1 51.07143,0 z"
       transform="matrix(1.1748251,0,0,1.1830986,-64.216641,426.51771)" />
    <rect
       style="fill:none;stroke:#000000;stroke-width:10;stroke-linecap:butt;stroke-linejoin:miter;stroke-miterlimit:4;stroke-opacity:1;stroke-dasharray:none"
       id="rect3755"
       width="580"
       height="580"
       x="10"
       y="462.375"
       rx="30.000029"
       ry="30.000029" />
    <g
       style="font-size:106.08192444px;font-style:normal;font-weight:normal;line-height:125%;letter-spacing:0px;word-spacing:0px;fill:#000000;fill-opacity:1;stroke:none;font-family:Sans"
       id="text6759">
      <path
         d="m 100.68201,871.31315 0,20.04899 13.898,0 0,14.95985 -13.5775,0 0,22.16947 c -3e-5,2.4043 1.69634,3.60644 5.08913,3.60642 1.06182,2e-5 2.47655,-0.12354 4.24419,-0.37068 1.76755,-0.24709 2.82833,-0.37065 3.18233,-0.37067 l 2.97189,14.10843 c -4.24314,2.12155 -9.65385,3.18233 -16.23214,3.18232 -4.454634,10e-6 -8.343782,-1.13199 -11.667453,-3.39599 -3.67766,-2.54456 -5.516481,-5.76142 -5.516467,-9.65058 l 0,-29.27872 -8.805629,0 0,-14.95985 8.805629,0 0,-15.59438 z"
         style="font-variant:normal;font-stretch:normal;text-align:center;text-anchor:middle;font-family:CodiceNero;-inkscape-font-specification:CodiceNero"
         id="path6770" />
      <path
         d="m 171.70976,900.38143 c 4.87973,5.30285 7.31962,11.52614 7.31968,18.66988 -6e-5,9.2632 -3.00541,16.75984 -9.01605,22.48996 -5.23379,4.94886 -11.20995,7.42328 -17.92852,7.42328 -9.9711,0 -17.67926,-3.85354 -23.12449,-11.56063 -1.91005,-2.75822 -3.18341,-5.09235 -3.82009,-7.00242 -0.91941,-2.5467 -1.37912,-6.01175 -1.37912,-10.39517 0,-9.05379 3.04096,-16.30331 9.12289,-21.74861 5.09344,-4.597 11.35233,-6.89552 18.77671,-6.89558 7.78043,6e-5 14.46342,3.00649 20.04899,9.01929 z m -31.50602,16.33574 0,5.83373 c -2e-5,2.9007 1.13198,5.41181 3.396,7.53334 2.26397,2.12157 4.84522,3.18235 7.74377,3.18233 2.96971,2e-5 5.55096,-1.06076 7.74377,-3.18233 2.19274,-2.12153 3.28912,-4.63264 3.28917,-7.53334 l 0,-5.83373 c -5e-5,-3.04093 -1.20219,-5.58657 -3.60643,-7.63694 -2.19281,-1.83878 -4.66831,-2.75819 -7.42651,-2.75824 -2.89855,5e-5 -5.44419,0.91946 -7.63694,2.75824 -2.33524,2.05037 -3.50285,4.59601 -3.50283,7.63694 z"
         style="font-variant:normal;font-stretch:normal;text-align:center;text-anchor:middle;font-family:CodiceNero;-inkscape-font-specification:CodiceNero"
         id="path6772" />
      <path
         d="m 225.48885,909.92842 c -1.55613,-0.42513 -3.11223,-0.63772 -4.66828,-0.63776 -3.60646,4e-5 -6.57619,0.95506 -8.90922,2.86506 -2.61798,2.05037 -3.92695,4.94997 -3.92692,8.6988 l 0,26.52048 -17.18393,0 0,-53.88915 17.39759,0 0,3.39276 c 1.55607,-0.91936 3.07655,-1.83877 4.56145,-2.75824 2.68698,-1.2733 5.51535,-1.90998 8.48513,-1.91004 1.41361,6e-5 2.82833,0.1425 4.24418,0.42733 z"
         style="font-variant:normal;font-stretch:normal;text-align:center;text-anchor:middle;font-family:CodiceNero;-inkscape-font-specification:CodiceNero"
         id="path6774" />
      <path
         d="m 269.67239,947.375 0,-29.91648 c -4e-5,-2.61575 -0.72521,-4.80798 -2.17551,-6.5767 -1.45038,-1.76864 -3.51905,-2.65298 -6.20603,-2.65302 -2.96977,4e-5 -5.19707,1.02629 -6.68191,3.07873 -1.06188,1.55614 -1.59281,3.35935 -1.59279,5.40964 l 0,30.65783 -16.97349,0 0,-53.78556 14.95985,0 0.84819,3.28917 c 3.74668,-2.96969 8.661,-4.45456 14.74295,-4.45462 6.93223,6e-5 12.27172,2.68707 16.01848,8.06104 2.75818,3.96042 4.13729,7.9564 4.13735,11.98796 l 0,34.90201 z"
         style="font-variant:normal;font-stretch:normal;text-align:center;text-anchor:middle;font-family:CodiceNero;-inkscape-font-specification:CodiceNero"
         id="path6776" />
      <path
         d="m 337.93543,896.03042 c 1.20209,0.42523 2.61682,1.41586 4.24418,2.9719 2.68696,2.61584 4.03047,5.58557 4.03052,8.90922 l 0,24.71727 c -5e-5,1.27338 0.8136,2.08704 2.44097,2.44097 0.14239,0.0691 1.27439,0.17484 3.396,0.31726 -0.63674,1.83884 -2.47557,6.18769 -5.51647,13.04658 -5.51652,0 -10.14918,-1.55501 -13.898,-4.66504 -4.95105,3.25247 -9.90205,4.87871 -14.85303,4.8787 -5.16253,10e-6 -9.70617,-1.66184 -13.63092,-4.98554 -3.92477,-3.32368 -5.88715,-7.46102 -5.88714,-12.41205 -1e-5,-8.20345 5.05675,-13.86127 15.17028,-16.97349 3.74885,-0.56543 8.84121,-1.44922 15.27712,-2.6514 -3e-5,-3.11215 -1.98022,-4.66824 -5.94056,-4.66828 -3.9604,4e-5 -7.74487,1.02521 -11.35343,3.07549 -0.21153,0.14249 -1.6964,1.27449 -4.45462,3.396 l -8.06103,-12.19839 c 0.14028,-0.3539 1.20105,-1.13194 3.18233,-2.33414 2.40427,-1.55604 5.09128,-2.97076 8.06103,-4.24418 3.53734,-1.55603 7.7103,-2.33408 12.51889,-2.33414 5.51643,6e-5 10.60772,1.23781 15.27388,3.71326 z m -22.70039,34.47792 c 0.0712,1.13094 0.81363,2.08488 2.2273,2.86183 1.20212,0.70792 2.43987,1.06187 3.71326,1.06185 1.98123,2e-5 3.67869,-0.44188 5.09237,-1.3257 1.41361,-0.88378 2.29741,-1.89114 2.6514,-3.02208 l 0,-5.41287 c -2.96977,0.56764 -5.93951,1.13418 -8.90922,1.69962 -3.25466,0.70577 -4.84636,2.08488 -4.77511,4.13735 z"
         style="font-variant:normal;font-stretch:normal;text-align:center;text-anchor:middle;font-family:CodiceNero;-inkscape-font-specification:CodiceNero"
         id="path6778" />
      <path
         d="m 396.05904,947.375 0,-29.91648 c -4e-5,-2.61575 -0.7252,-4.80798 -2.1755,-6.5767 -1.45038,-1.76864 -3.51905,-2.65298 -6.20603,-2.65302 -2.96977,4e-5 -5.19707,1.02629 -6.68192,3.07873 -1.06188,1.55614 -1.5928,3.35935 -1.59278,5.40964 l 0,30.65783 -16.9735,0 0,-53.78556 14.95986,0 0.84819,3.28917 c 3.74668,-2.96969 8.66099,-4.45456 14.74295,-4.45462 6.93223,6e-5 12.27172,2.68707 16.01848,8.06104 2.75817,3.96042 4.13729,7.9564 4.13735,11.98796 l 0,34.90201 z"
         style="font-variant:normal;font-stretch:normal;text-align:center;text-anchor:middle;font-family:CodiceNero;-inkscape-font-specification:CodiceNero"
         id="path6780" />
      <path
         d="m 450.21369,871.31315 0,20.04899 13.898,0 0,14.95985 -13.5775,0 0,22.16947 c -4e-5,2.4043 1.69634,3.60644 5.08913,3.60642 1.06182,2e-5 2.47654,-0.12354 4.24418,-0.37068 1.76756,-0.24709 2.82834,-0.37065 3.18233,-0.37067 l 2.9719,14.10843 c -4.24314,2.12155 -9.65385,3.18233 -16.23214,3.18232 -4.45464,10e-6 -8.34379,-1.13199 -11.66746,-3.39599 -3.67766,-2.54456 -5.51648,-5.76142 -5.51646,-9.65058 l 0,-29.27872 -8.80563,0 0,-14.95985 8.80563,0 0,-15.59438 z"
         style="font-variant:normal;font-stretch:normal;text-align:center;text-anchor:middle;font-family:CodiceNero;-inkscape-font-specification:CodiceNero"
         id="path6782" />
      <path
         d="m 500.45108,892.31716 c 6.78979,6e-5 12.69474,2.40434 17.71485,7.21285 5.65886,5.37622 8.48831,12.44878 8.48837,21.21768 -6e-5,1.13094 -0.17703,2.93415 -0.53093,5.40963 l -35.43294,0 c 1.62729,5.02225 5.23479,7.46214 10.82251,7.31968 4.38335,-0.14027 8.69659,-1.83772 12.93974,-5.09237 l 11.35343,11.13976 c -8.77114,6.08194 -16.94008,9.1229 -24.50684,9.12289 -7.14165,10e-6 -13.36493,-2.2273 -18.66987,-6.68191 -5.79921,-4.951 -8.80456,-11.49262 -9.01606,-19.6249 0,-1.06183 0,-2.68914 0,-4.88195 0.0691,-5.37398 2.08378,-10.5721 6.04416,-15.59437 5.09343,-6.36461 12.02462,-9.54693 20.79358,-9.54699 z m -9.54698,21.00401 18.56304,0 c -0.42306,-1.97906 -1.48329,-3.65817 -3.18071,-5.03733 -1.69749,-1.37908 -3.71383,-2.10424 -6.04901,-2.17551 -2.40431,-0.0712 -4.49025,0.70687 -6.25783,2.33414 -1.48489,1.34462 -2.51006,2.97086 -3.07549,4.8787 z"
         style="font-variant:normal;font-stretch:normal;text-align:center;text-anchor:middle;font-family:CodiceNero;-inkscape-font-specification:CodiceNero"
         id="path6784" />
    </g>
    <g
       style="font-size:353.60641479px;font-style:normal;font-weight:normal;line-height:125%;letter-spacing:0px;word-spacing:0px;fill:#000000;fill-opacity:1;stroke:none;font-family:Sans"
       id="text6765"
       transform="translate(-0.310145,0)">
      <path
         d="m 329.66224,564.51789 0,249.99999 -58.70419,0 0,-163.36815 -42.77636,0 0,-50.2115 25.81258,0 c 15.32346,-2.82707 22.98521,-12.61109 22.98528,-29.3521 -7e-5,-2.35222 -0.11877,-4.7083 -0.35611,-7.06824 z"
         style="font-variant:normal;font-stretch:normal;text-align:center;text-anchor:middle;font-family:CodiceNero;-inkscape-font-specification:CodiceNero"
         id="path6790"
         inkscape:connector-curvature="0" />
    </g>
    <path
       transform="matrix(0.39160836,0,0,0.39436619,233.54557,539.75715)"
       d="m 405.71427,143.57143 a 25.535715,25.357143 0 1 1 -51.07143,0 25.535715,25.357143 0 1 1 51.07143,0 z"
       sodipodi:ry="25.357143"
       sodipodi:rx="25.535715"
       sodipodi:cy="143.57143"
       sodipodi:cx="380.17856"
       id="path6794"
       style="fill:#ffffff;fill-opacity:1;stroke:none"
       sodipodi:type="arc" />
  </g>
</svg>
