<?xml version="1.0" encoding="UTF-8" standalone="no"?>
<!-- Created with Inkscape (http://www.inkscape.org/) -->

<svg
   xmlns:dc="http://purl.org/dc/elements/1.1/"
   xmlns:cc="http://creativecommons.org/ns#"
   xmlns:rdf="http://www.w3.org/1999/02/22-rdf-syntax-ns#"
   xmlns:svg="http://www.w3.org/2000/svg"
   xmlns="http://www.w3.org/2000/svg"
   xmlns:sodipodi="http://sodipodi.sourceforge.net/DTD/sodipodi-0.dtd"
   xmlns:inkscape="http://www.inkscape.org/namespaces/inkscape"
   width="899.97974"
   height="1085.5625"
   id="svg13190"
   version="1.1"
   inkscape:version="0.48.5 r10040"
   sodipodi:docname="CANC SP37.svg">
  <defs
     id="defs13192">
    <inkscape:path-effect
       effect="spiro"
       id="path-effect12676"
       is_visible="true" />
    <inkscape:path-effect
       is_visible="true"
       id="path-effect3657-6"
       effect="spiro" />
    <inkscape:path-effect
       is_visible="true"
       id="path-effect3690-1"
       effect="spiro" />
  </defs>
  <sodipodi:namedview
     id="base"
     pagecolor="#ffffff"
     bordercolor="#666666"
     borderopacity="1.0"
     inkscape:pageopacity="0.0"
     inkscape:pageshadow="2"
     inkscape:zoom="0.125"
     inkscape:cx="358.9282"
     inkscape:cy="377.42904"
     inkscape:document-units="px"
     inkscape:current-layer="layer1"
     showgrid="false"
     fit-margin-top="0"
     fit-margin-left="0"
     fit-margin-right="0"
     fit-margin-bottom="0"
     inkscape:window-width="1366"
     inkscape:window-height="705"
     inkscape:window-x="-8"
     inkscape:window-y="-8"
     inkscape:window-maximized="1" />
  <metadata
     id="metadata13195">
    <rdf:RDF>
      <cc:Work
         rdf:about="">
        <dc:format>image/svg+xml</dc:format>
        <dc:type
           rdf:resource="http://purl.org/dc/dcmitype/StillImage" />
        <dc:title />
      </cc:Work>
    </rdf:RDF>
  </metadata>
  <g
     inkscape:label="Livello 1"
     inkscape:groupmode="layer"
     id="layer1"
     transform="translate(-964.0103,33.1875)">
    <rect
       y="-32.694168"
       x="1014.5"
       height="269"
       width="799"
       id="rect14417"
       style="fill:#ffffff;fill-opacity:1;stroke:#000000;stroke-width:1;stroke-opacity:1" />
    <rect
       ry="25.75"
       rx="25.75"
       y="-25.19417"
       x="1022"
       height="254"
       width="784"
       id="rect14419"
       style="fill:none;stroke:#000000;stroke-width:8;stroke-miterlimit:4;stroke-opacity:1;stroke-dasharray:none" />
    <path
       style="fill:#ffffff;fill-opacity:1;fill-rule:nonzero;stroke:#000000;stroke-width:3.23707771;stroke-linecap:round;stroke-linejoin:round;stroke-miterlimit:2;stroke-opacity:1;stroke-dasharray:none;stroke-dashoffset:0"
       d="m 1454.9334,1028.1595 c -8.0218,13.893 -23.7157,22.5841 -40.9335,22.5841 -17.5309,0 -33.2306,-9.1664 -41.4041,-23.3234 L 972.63692,334.60854 c -8.58386,-14.8692 -9.85485,-33.5984 -0.67212,-49.5033 8.76545,-15.1823 24.55279,-24.1972 40.8999,-24.1972 l 802.2703,0 c 16.3471,0 32.1345,9.0151 40.8999,24.1972 9.1828,15.9048 7.9125,34.6345 -0.6722,49.5033 l -400.4293,693.55096 z"
       id="path14421"
       sodipodi:nodetypes="cscssssssc"
       inkscape:connector-curvature="0" />
    <path
       id="path14423"
       d="m 1414.0109,1034.5524 c 11.7713,0 21.9959,-5.9916 26.9083,-14.4994 l 400.4197,-693.54386 c 5.9875,-10.3704 6.7829,-22.7348 0.6744,-33.3149 -5.945,-10.2969 -16.4779,-16.0842 -26.8745,-16.0843 l -802.2895,0 c -10.3966,0 -20.92944,5.7871 -26.87444,16.0843 -6.10847,10.5801 -5.31312,22.9434 0.67439,33.3149 l 399.94765,692.80206 c 5.1989,9.0047 15.5252,15.2412 27.414,15.2412 z"
       style="fill:#d40000;fill-opacity:1;fill-rule:nonzero;stroke:none"
       inkscape:connector-curvature="0" />
    <path
       id="path14425"
       d="m 1413.9772,894.07684 306.3759,-530.6448 -612.7181,0 306.3422,530.6448 z"
       style="fill:#ffffff;fill-opacity:1;fill-rule:nonzero;stroke:none"
       inkscape:connector-curvature="0" />
    <g
       style="font-size:106.98706818px;font-style:normal;font-weight:normal;line-height:125%;letter-spacing:0px;word-spacing:0px;fill:#000000;fill-opacity:1;stroke:none;font-family:Sans"
       id="text14427">
      <path
         d="m 1161.5805,62.383111 c 12.2676,8.1e-5 23.1084,4.100899 32.5225,12.302468 l -12.7302,11.339297 c -0.714,-1.21234 -3.068,-2.745793 -7.0621,-4.600366 -4.5645,-2.13959 -8.5935,-3.209416 -12.087,-3.209481 -2.2834,6.5e-5 -4.2805,0.606264 -5.9913,1.818597 -1.9263,1.427949 -2.8895,3.247633 -2.8895,5.459057 0,1.140625 0.7128,2.102707 2.1386,2.886248 0.9272,0.500686 5.385,1.748998 13.3734,3.744939 7.2046,1.713079 12.6256,4.031217 16.2629,6.954421 5.2783,4.207519 7.9175,10.128019 7.9176,17.761529 -10e-5,8.34314 -3.8517,14.58361 -11.5548,18.72143 -5.7073,2.99508 -12.2688,4.49262 -19.6846,4.49262 -13.4104,0 -25.3581,-5.34913 -35.8431,-16.04741 l 14.5521,-11.23482 c 3.4239,4.92145 8.7371,8.0961 15.9397,9.52397 2.1396,0.42664 4.2792,0.63996 6.4189,0.63994 6.5626,2e-5 9.8439,-2.21038 9.844,-6.63119 -10e-5,-1.713 -0.7848,-3.15776 -2.3541,-4.33427 -1.5694,-1.17645 -5.9913,-2.62121 -13.2656,-4.33427 -7.4899,-1.71082 -12.9109,-3.74272 -16.2629,-6.09573 -5.2066,-3.708978 -7.8099,-9.129938 -7.8099,-16.262896 0,-4.492558 1.1765,-8.522636 3.5295,-12.090244 4.6362,-7.202482 12.9815,-10.803758 25.0359,-10.803839 z"
         style="font-variant:normal;font-stretch:normal;fill:#000000;font-family:CodiceNero;-inkscape-font-specification:CodiceNero"
         id="path14508"
         inkscape:connector-curvature="0" />
      <path
         d="m 1196.506,63.66625 61.9466,0 0,15.939663 -22.2541,0 0,59.700277 -17.5461,0 0,-59.700277 -22.1464,0 z"
         style="font-variant:normal;font-stretch:normal;fill:#000000;font-family:CodiceNero;-inkscape-font-specification:CodiceNero"
         id="path14510"
         inkscape:connector-curvature="0" />
      <path
         d="m 1300.3489,62.167622 c 8.5586,8.1e-5 16.19,2.390048 22.8941,7.169909 9.7731,6.917485 14.6597,17.722402 14.6598,32.414779 -10e-5,11.98253 -3.9942,21.61206 -11.9825,28.8886 -7.2766,6.48862 -15.9071,9.73293 -25.8913,9.73293 -10.1281,0 -18.6518,-3.28022 -25.5714,-9.84067 -7.6314,-7.27437 -11.4471,-17.15312 -11.4471,-29.63628 0,-10.056107 2.8885,-18.686545 8.6653,-25.891343 6.8478,-8.55854 16.4055,-12.837844 28.6731,-12.837925 z m -17.9737,39.264728 c 0,6.98928 1.676,12.41024 5.0281,16.26289 3.2105,3.56539 7.4898,5.34807 12.8379,5.34805 5.5635,2e-5 9.9679,-1.96115 13.2134,-5.88351 3.2453,-3.9223 4.868,-9.27143 4.8681,-16.0474 -10e-5,-6.349264 -1.4617,-11.591738 -4.3849,-15.727441 -3.2824,-4.564389 -7.7762,-6.846612 -13.4811,-6.846676 -12.0544,6.4e-5 -18.0815,7.631418 -18.0815,22.894087 z"
         style="font-variant:normal;font-stretch:normal;fill:#000000;font-family:CodiceNero;-inkscape-font-specification:CodiceNero"
         id="path14512"
         inkscape:connector-curvature="0" />
      <path
         d="m 1349.216,63.558506 32.5258,0 c 7.9883,8e-5 14.5139,2.603359 19.5768,7.809847 4.7081,4.84966 7.0621,10.627591 7.0622,17.333812 -10e-5,7.631408 -2.9603,13.907795 -8.8808,18.829175 -4.8496,4.06385 -9.8777,6.09576 -15.0842,6.09573 l -17.0106,0 0,25.67912 -18.1892,0 z m 18.297,15.40747 0,19.149144 13.1579,0 c 2.2832,4.5e-5 4.3521,-0.820554 6.2067,-2.4618 2.2114,-1.852286 3.3172,-4.27708 3.3172,-7.274389 0,-2.566222 -0.9452,-4.776615 -2.8356,-6.631187 -1.8905,-1.854449 -4.0481,-2.781704 -6.4729,-2.781768 z"
         style="font-variant:normal;font-stretch:normal;fill:#000000;font-family:CodiceNero;-inkscape-font-specification:CodiceNero"
         id="path14514"
         inkscape:connector-curvature="0" />
    </g>
    <g
       style="font-size:106.98706818px;font-style:normal;font-weight:normal;line-height:125%;letter-spacing:0px;word-spacing:0px;fill:#000000;fill-opacity:1;stroke:none;font-family:Sans"
       id="text14435">
      <path
         d="m 1482.371,61.955398 c 5.2065,0.213393 9.6643,1.068819 13.3734,2.566279 9.057,3.709099 13.764,10.449112 14.121,20.220059 0.2155,4.708164 -0.8892,8.38127 -3.3139,11.019329 -1.8546,1.497586 -3.6743,2.960299 -5.4591,4.388145 6.2774,2.06786 9.4162,7.23851 9.4162,15.51195 0,6.77595 -1.7479,12.26765 -5.2435,16.47512 -4.8497,5.77903 -12.6595,8.66854 -23.4296,8.66853 -10.1998,1e-5 -17.9737,-2.85359 -23.3218,-8.56079 -3.8527,-4.20746 -6.2426,-9.62842 -7.1699,-16.2629 l 18.1893,-2.56627 c -1e-4,3.28024 1.1411,5.77632 3.4233,7.48824 2.2822,1.71196 5.3137,2.56793 9.0946,2.56791 2.7099,2e-5 5.1347,-0.71338 7.2744,-2.1402 2.1396,-1.42677 3.2095,-3.28074 3.2095,-5.5619 0,-5.27836 -4.3153,-7.91756 -12.9457,-7.91759 -1.1406,3e-5 -2.4596,0.0359 -3.9571,0.10774 l 0,-15.191978 c 4.7777,5.1e-5 8.3082,-0.392835 10.5916,-1.17866 3.4935,-1.140515 5.2402,-3.316082 5.2403,-6.526707 -10e-5,-4.84953 -3.2095,-7.274324 -9.6285,-7.274389 -7.9883,6.5e-5 -11.9825,3.423944 -11.9825,10.271646 l -17.6537,-1.818597 c 0.3569,-4.708048 1.5693,-8.77404 3.6372,-12.197988 4.9214,-8.057909 13.7662,-12.086898 26.5345,-12.086979 z"
         style="font-variant:normal;font-stretch:normal;fill:#000000;font-family:CodiceNero;-inkscape-font-specification:CodiceNero"
         id="path14517"
         inkscape:connector-curvature="0" />
      <path
         d="m 1551.3797,62.703079 c 10.9834,8.1e-5 18.8651,3.815758 23.6451,11.447042 2.9232,4.708175 4.3848,9.843993 4.3849,15.40747 -10e-5,5.278443 -1.4617,10.163946 -4.3849,14.656519 -2.0701,3.28026 -5.3155,6.77488 -9.7362,10.48387 -3.3521,2.85363 -6.7401,5.70722 -10.1639,8.5608 l 23.6417,0 0,16.04741 -54.2412,0 0,-14.22881 c 0,-0.71393 3.1736,-3.24647 9.5207,-7.59763 8.0602,-5.63533 13.9448,-10.16386 17.6538,-13.5856 6.3471,-5.848638 9.5207,-10.8778 9.5207,-15.087506 0,-2.709881 -0.8555,-4.956189 -2.5663,-6.738931 -1.996,-1.998109 -4.7419,-2.997193 -8.2375,-2.997258 -3.6373,6.5e-5 -6.419,1.248376 -8.3453,3.744939 -1.6413,2.139713 -2.4619,4.921479 -2.4618,8.345305 -10e-5,0.855478 0.036,1.676077 0.1077,2.4618 l -18.186,0 c -0.1436,-0.999035 -0.2155,-2.140691 -0.2154,-3.424971 -10e-5,-6.775874 1.8185,-12.552718 5.4557,-17.330546 5.1348,-6.775858 13.3375,-10.163822 24.6082,-10.163903 z"
         style="font-variant:normal;font-stretch:normal;fill:#000000;font-family:CodiceNero;-inkscape-font-specification:CodiceNero"
         id="path14519"
         inkscape:connector-curvature="0" />
      <path
         d="m 1624.4109,61.955398 c 7.9883,8.1e-5 14.7283,2.246389 20.2201,6.738931 8.0601,6.632343 12.0902,17.651661 12.0903,33.057981 -10e-5,14.33767 -3.9584,24.89445 -11.8748,31.67037 -5.7769,4.92143 -12.5887,7.38214 -20.4356,7.38213 -7.1329,1e-5 -13.7303,-2.4607 -19.7923,-7.38213 -8.6305,-6.99141 -12.9457,-17.54818 -12.9457,-31.67037 0,-14.620548 3.9234,-25.354723 11.7703,-32.202554 5.705,-5.062827 12.6942,-7.594277 20.9677,-7.594358 z m -14.6565,39.369202 c 0,6.63449 0.8206,11.62774 2.4618,14.97976 2.2811,4.84961 6.3101,7.27441 12.087,7.27439 9.9865,2e-5 14.9797,-7.41802 14.9798,-22.25415 -10e-5,-14.836039 -4.9215,-22.25408 -14.7643,-22.254145 -9.8429,6.5e-5 -14.7643,7.418106 -14.7643,22.254145 z"
         style="font-variant:normal;font-stretch:normal;fill:#000000;font-family:CodiceNero;-inkscape-font-specification:CodiceNero"
         id="path14521"
         inkscape:connector-curvature="0" />
    </g>
    <g
       style="font-size:71.32471466px;font-style:normal;font-weight:normal;line-height:125%;letter-spacing:0px;word-spacing:0px;fill:#000000;fill-opacity:1;stroke:none;font-family:Sans"
       id="text14443">
      <path
         d="m 1693.3846,102.50325 c 3.5175,4e-5 6.6316,1.47363 9.3423,4.42079 l 0.072,0 c -0.096,4e-5 0.3083,-0.41607 1.2124,-1.24831 0.904,-0.83217 2.0213,-1.53342 3.352,-2.10374 1.8545,-0.76034 3.947,-1.14053 6.2775,-1.14057 3.709,4e-5 6.8949,1.29551 9.5577,3.88642 2.6627,2.59098 3.9941,5.59876 3.9942,9.02333 l 0,23.965 -11.5559,0 0,-21.969 c 0,-1.18843 -0.4042,-2.19876 -1.2124,-3.031 -0.8083,-0.83218 -1.9496,-1.24828 -3.4239,-1.24831 -1.3786,3e-5 -2.4959,0.40416 -3.352,1.2124 -0.8562,0.80829 -1.2843,1.83059 -1.2842,3.06691 l 0,21.969 -11.6256,0 0,-21.969 c 0,-1.18843 -0.4517,-2.21073 -1.3549,-3.06691 -0.9034,-0.85612 -2.0204,-1.2842 -3.351,-1.28423 -1.2843,3e-5 -2.3544,0.42811 -3.2106,1.28423 -0.8561,0.85618 -1.2842,1.87848 -1.2842,3.06691 l 0,21.969 -11.5537,0 0,-36.16298 10.4131,0 0.8555,1.99817 c 1.0941,-1.14053 2.2354,-1.87769 3.4238,-2.21149 0.9984,-0.28437 2.5677,-0.42658 4.7081,-0.42662 z"
         style="font-variant:normal;font-stretch:normal;fill:#000000;font-family:CodiceNero;-inkscape-font-specification:CodiceNero"
         id="path14524"
         inkscape:connector-curvature="0" />
    </g>
  </g>
</svg>
