<svg xmlns="http://www.w3.org/2000/svg" width="200" height="200" xmlns:v="https://vecta.io/nano"><path d="M-4.931-3.438h207.715V203.91H-4.931V-3.438z" fill="#fff"/><path d="M21.814 2.862H179.46a18.54 18.54 0 0 1 18.58 18.58v157.645a18.54 18.54 0 0 1-18.58 18.58H21.814a18.54 18.54 0 0 1-18.58-18.58V21.443a18.54 18.54 0 0 1 18.58-18.58z" fill="none" stroke="#000" stroke-width="3"/><path d="M98.778 119.377V69.785H69.115 39.453v-2.549-2.549h61.642 61.642v2.549 2.549h-29.662-29.662v49.592 49.592h-2.317-2.317v-49.592zm-67.667 40.529c-7.125-1.53-14.527-6.726-16.91-11.87-2.465-5.321-3.142-2.951 10.667-37.366l12.858-31.499c.582-.747 2.409-.747 2.997 0 .251.319 6.039 14.5 12.862 31.513 13.861 34.562 13.154 32.037 10.456 37.381-2.727 5.401-9.599 10.171-17.032 11.82-4.072.904-11.738.913-15.898.019h0zm29.662-18.854c0-.676-21.41-54.645-21.602-54.453-.294.294-21.184 53.02-21.388 53.983l-.221 1.043h21.606c16.84 0 21.606-.126 21.606-.573zm92.361 18.685c-5.187-1.275-9.204-3.476-12.686-6.952-3.286-3.28-5.056-6.817-5.056-10.103 0-1.119 4.089-12.026 12.113-32.31l12.571-31.2c.686-.869 3.021-.715 3.516.232.233.446 5.894 14.635 12.58 31.532 13.51 34.14 12.864 31.842 10.427 37.101-2.422 5.227-9.827 10.366-17.142 11.896-4.419.925-12.142.832-16.323-.196zm30.466-18.459c.009-.49-21.916-54.834-22.063-54.687-.163.163-21.51 54.584-21.51 54.836 0 .357 43.566.208 43.573-.149zM67.934 45.905L66.79 56.152H39.776v-.796h1.01c.882 0 1.593-.151 2.131-.452.389-.201.688-.545.897-1.033.165-.344.247-1.249.247-2.712V31.956c0-1.492-.082-2.425-.247-2.798s-.497-.7-.998-.979-1.178-.42-2.03-.42h-1.01v-.796h16.221v.796h-1.324c-.883 0-1.593.151-2.131.452-.389.201-.696.545-.92 1.033-.165.344-.247 1.249-.247 2.712v18.599c0 1.492.09 2.443.269 2.852s.531.714 1.054.915c.374.129 1.279.194 2.715.194h2.535c1.615 0 2.962-.273 4.038-.818s2.008-1.406 2.793-2.583 1.529-2.913 2.232-5.209zm77.5-6.867l8.391 11.947c1.391 1.98 2.382 3.182 2.973 3.606s1.29.678 2.098.764v.796h-14.83v-.796c1.182-.086 1.944-.258 2.288-.517s.516-.574.516-.947a1.47 1.47 0 0 0-.157-.689c-.209-.431-.733-1.234-1.571-2.411l-4.442-6.307-4.644 5.446c-1.391 1.65-2.087 2.77-2.087 3.358 0 .416.179.804.538 1.162s.89.617 1.593.775c.314.086.957.129 1.93.129v.796h-11.689v-.796c1.331-.187 2.378-.531 3.141-1.033 1.002-.66 2.401-2.038 4.196-4.133l6.035-7.061-7.74-10.914-2.176-2.992c-.404-.474-.8-.811-1.189-1.012s-.927-.352-1.615-.452v-.796h15.099v.796h-.763c-.868 0-1.473.133-1.817.398s-.516.599-.516 1.001c0 .316.052.588.157.818l1.548 2.239 3.769 5.511 3.208-3.767c1.645-1.937 2.468-3.294 2.468-4.068 0-.387-.116-.746-.348-1.076s-.565-.588-.998-.775-1.107-.28-2.019-.28v-.796h11.196v.796c-.883.014-1.593.118-2.131.312s-1.114.556-1.728 1.087c-.389.344-1.361 1.414-2.917 3.207zM94.363 28.641v11.883h.606c1.929 0 3.328-.581 4.196-1.744s1.421-2.877 1.66-5.145h.853v15.284h-.853c-.18-1.665-.557-3.028-1.133-4.09s-1.245-1.776-2.008-2.142-1.87-.549-3.321-.549v8.223c0 1.607.071 2.59.213 2.949s.408.653.796.883 1.017.344 1.885.344h1.817c2.842 0 5.119-.631 6.832-1.894s2.943-3.186 3.691-5.769h.83l-1.369 9.278H82.764v-.796h1.01c.882 0 1.593-.151 2.131-.452.389-.201.688-.545.897-1.033.165-.344.247-1.249.247-2.712V31.956l-.112-2.432c-.15-.502-.426-.89-.83-1.162-.568-.402-1.346-.603-2.333-.603h-1.01v-.796h25.465v8.632h-.853c-.434-2.11-1.043-3.624-1.829-4.542s-1.896-1.593-3.332-2.023c-.838-.258-2.408-.387-4.712-.387z"/></svg>