<?xml version="1.0" encoding="UTF-8" standalone="no"?>
<!-- Created with Inkscape (http://www.inkscape.org/) -->
<svg
   xmlns:dc="http://purl.org/dc/elements/1.1/"
   xmlns:cc="http://creativecommons.org/ns#"
   xmlns:rdf="http://www.w3.org/1999/02/22-rdf-syntax-ns#"
   xmlns:svg="http://www.w3.org/2000/svg"
   xmlns="http://www.w3.org/2000/svg"
   xmlns:sodipodi="http://sodipodi.sourceforge.net/DTD/sodipodi-0.dtd"
   xmlns:inkscape="http://www.inkscape.org/namespaces/inkscape"
   version="1.1"
   width="200"
   height="200"
   id="svg2"
   inkscape:version="0.46"
   sodipodi:docname="Italian_traffic_signs_-_icona_autocarro.svg"
   sodipodi:version="0.32"
   inkscape:output_extension="org.inkscape.output.svg.inkscape">
  <metadata
     id="metadata2877">
    <rdf:RDF>
      <cc:Work
         rdf:about="">
        <dc:format>image/svg+xml</dc:format>
        <dc:type
           rdf:resource="http://purl.org/dc/dcmitype/StillImage" />
      </cc:Work>
    </rdf:RDF>
  </metadata>
  <sodipodi:namedview
     pagecolor="#ffffff"
     bordercolor="#666666"
     borderopacity="1"
     objecttolerance="10"
     gridtolerance="10"
     guidetolerance="10"
     inkscape:pageopacity="0"
     inkscape:pageshadow="2"
     inkscape:window-width="1024"
     inkscape:window-height="708"
     id="namedview2875"
     showgrid="false"
     inkscape:zoom="1.9914447"
     inkscape:cx="115.51255"
     inkscape:cy="118.43692"
     inkscape:window-x="0"
     inkscape:window-y="26"
     inkscape:window-maximized="1"
     inkscape:current-layer="svg2" />
  <defs
     id="defs4">
    <inkscape:perspective
       sodipodi:type="inkscape:persp3d"
       inkscape:vp_x="0 : 100 : 1"
       inkscape:vp_y="0 : 1000 : 0"
       inkscape:vp_z="200 : 100 : 1"
       inkscape:persp3d-origin="100 : 66.666667 : 1"
       id="perspective2879" />
  </defs>
  <rect
     style="fill:#ffffff;fill-opacity:1;stroke:none"
     id="rect2881"
     width="200.9709"
     height="200.61583"
     x="-0.36552453"
     y="-0.46875373"
     rx="0"
     ry="0" />
  <rect
     width="194.80612"
     height="194.80614"
     ry="18.580454"
     x="3.2339785"
     y="2.8621521"
     id="rect4614"
     style="fill:none;stroke:#000000;stroke-width:3;stroke-miterlimit:4;stroke-opacity:1;stroke-dasharray:none" />
  <path
     style="fill:#000000;fill-opacity:1;fill-rule:evenodd;stroke:none"
     d="M 62.090471,57.863357 L 62.118081,115.17195 L 183.021,115.11385 L 182.9934,57.80525 L 62.090471,57.86358 L 62.090471,57.863357 z M 30.423791,73.936807 L 20.908771,98.544324 L 20.924751,131.64283 L 25.835501,131.64083 C 25.830901,122.12419 33.547331,114.40036 43.063991,114.39576 C 52.580621,114.39176 60.353581,122.10758 60.358161,131.62421 L 130.68027,131.59021 C 130.67727,125.51673 133.83105,120.17332 138.57962,117.09968 L 60.154771,117.13748 L 60.133961,73.922794 L 30.423831,73.936774 L 30.423791,73.936807 z M 33.176881,80.466838 L 55.766371,80.456838 L 55.774371,96.907894 L 26.850011,96.921874 L 33.176961,80.467761 L 33.176881,80.466838 z M 43.114181,116.94901 C 35.019571,116.95301 28.434171,123.49554 28.438061,131.59015 C 28.442061,139.68476 35.033701,146.27014 43.128311,146.26623 C 51.222941,146.26223 57.759201,139.67064 57.755321,131.57603 C 57.751321,123.48142 51.208801,116.94511 43.114181,116.94901 L 43.114181,116.94901 z M 147.95894,116.89851 C 139.86434,116.90251 133.27891,123.44502 133.28282,131.53963 C 133.28682,139.63427 139.87845,146.21963 147.97305,146.21571 C 156.0677,146.21171 162.60396,139.62016 162.60007,131.52553 C 162.59607,123.43094 156.05357,116.89462 147.95894,116.89851 z M 157.24037,117.09047 C 161.64324,119.93433 164.68119,124.72686 165.10392,130.24755 L 183.02455,122.62723 L 183.02255,117.07807 L 157.24106,117.09007 L 157.24037,117.09047 z M 43.117981,124.65888 C 46.946531,124.65688 50.043661,127.75117 50.045501,131.5797 C 50.047301,135.40825 46.953211,138.5545 43.124681,138.55636 C 39.296151,138.55836 36.199001,135.41493 36.197151,131.58638 C 36.195351,127.75785 39.289451,124.66072 43.117981,124.65888 L 43.117981,124.65888 z M 147.96274,124.60838 C 151.7913,124.60638 154.8884,127.70069 154.89026,131.52922 C 154.89226,135.35777 151.79797,138.50399 147.96943,138.50585 C 144.14089,138.50785 141.04374,135.36442 141.04192,131.53589 C 141.03992,127.70736 144.13419,124.61021 147.96274,124.60838 L 147.96274,124.60838 z"
     id="rect1885" />
</svg>
