<?xml version="1.0" encoding="UTF-8" standalone="no"?>
<!-- Created with Inkscape (http://www.inkscape.org/) -->

<svg
   width="238.65416mm"
   height="159.27916mm"
   viewBox="0 0 238.65416 159.27916"
   version="1.1"
   id="svg19577"
   inkscape:version="1.2.1 (9c6d41e410, 2022-07-14)"
   sodipodi:docname="Segnale stradale italiano - guardia di finanza (figura II 381).svg"
   xmlns:inkscape="http://www.inkscape.org/namespaces/inkscape"
   xmlns:sodipodi="http://sodipodi.sourceforge.net/DTD/sodipodi-0.dtd"
   xmlns="http://www.w3.org/2000/svg"
   xmlns:svg="http://www.w3.org/2000/svg">
  <sodipodi:namedview
     id="namedview19579"
     pagecolor="#ffffff"
     bordercolor="#000000"
     borderopacity="0.25"
     inkscape:showpageshadow="2"
     inkscape:pageopacity="0.0"
     inkscape:pagecheckerboard="0"
     inkscape:deskcolor="#d1d1d1"
     inkscape:document-units="mm"
     showgrid="false"
     inkscape:zoom="0.76257015"
     inkscape:cx="332.42843"
     inkscape:cy="-4.5897417"
     inkscape:window-width="1920"
     inkscape:window-height="991"
     inkscape:window-x="-9"
     inkscape:window-y="-9"
     inkscape:window-maximized="1"
     inkscape:current-layer="layer1" />
  <defs
     id="defs19574" />
  <g
     inkscape:label="Livello 1"
     inkscape:groupmode="layer"
     id="layer1"
     transform="translate(-17.376228,12.328829)">
    <g
       id="g5700"
       transform="translate(-469.7873,-1582.8436)">
      <rect
         style="fill:#000000;fill-rule:evenodd;stroke-width:29.5609;paint-order:markers fill stroke"
         id="rect3812-8-5-6-9"
         width="159.27916"
         height="238.65416"
         x="1570.5148"
         y="-725.81769"
         transform="rotate(90)" />
      <rect
         style="fill:#ffffff;fill-rule:evenodd;stroke-width:29.4791;paint-order:markers fill stroke"
         id="rect3812-8-5-6"
         width="158.75"
         height="238.125"
         x="1570.7792"
         y="-725.55316"
         transform="rotate(90)" />
      <rect
         style="fill:none;fill-rule:evenodd;stroke:#000000;stroke-width:3.175;paint-order:markers fill stroke"
         id="rect3812-0-2-3-7"
         width="152.39999"
         height="231.77499"
         x="1573.9541"
         y="-722.37817"
         ry="10.31875"
         rx="10.31875"
         transform="rotate(90)" />
      <g
         aria-label="localita'"
         id="text16023-1-9"
         style="font-size:3.175px;font-family:'Stradale Stretto Positivo';-inkscape-font-specification:'Stradale Stretto Positivo';fill:#000000;fill-rule:evenodd;stroke-width:0.293013;stroke-linecap:round;paint-order:markers fill stroke"
         transform="matrix(4.1406528,0,0,4.1406528,-981.18895,-2261.1356)">
        <path
           d="m 358.86734,941.11177 h 0.56741 v 1.86345 q 0,0.11317 0.0884,0.12557 0.0899,0.0109 0.22944,-0.0465 l 0.0481,0.524 q -0.15348,0.0481 -0.31781,0.0496 -0.16278,0.002 -0.30076,-0.0512 -0.13797,-0.0527 -0.22634,-0.16123 -0.0884,-0.11007 -0.0884,-0.28835 z"
           style="-inkscape-font-specification:'Stradale Normale Positivo'"
           id="path16171-1-6" />
        <path
           d="m 360.84246,943.12095 q 0.17363,-0.003 0.262,-0.11782 0.0899,-0.11473 0.0899,-0.30076 0,-0.0868 -0.0232,-0.16278 -0.0217,-0.076 -0.0651,-0.13488 -0.0419,-0.0589 -0.10852,-0.0915 -0.0667,-0.0341 -0.15503,-0.0341 -0.093,0 -0.15813,0.0357 -0.0651,0.0341 -0.10697,0.0915 -0.0403,0.0574 -0.0589,0.13333 -0.0186,0.076 -0.0186,0.16278 0,0.0853 0.0186,0.16123 0.0186,0.076 0.0589,0.13332 0.0419,0.0574 0.10697,0.0915 0.0651,0.0326 0.15813,0.0326 z m 0.0124,0.50539 q -0.19379,-0.008 -0.35347,-0.0775 -0.15813,-0.0698 -0.2713,-0.19069 -0.11162,-0.12247 -0.17363,-0.28525 -0.062,-0.16433 -0.062,-0.35502 0,-0.19689 0.0574,-0.36277 0.0574,-0.16743 0.16588,-0.2868 0.11007,-0.11937 0.2682,-0.18604 0.15968,-0.0667 0.35967,-0.0667 0.19068,0 0.35036,0.0698 0.16124,0.0698 0.27441,0.19224 0.11472,0.12247 0.17828,0.28835 0.0636,0.16434 0.0636,0.35812 0,0.18449 -0.0651,0.35037 -0.0651,0.16433 -0.17983,0.28835 -0.11318,0.12248 -0.27131,0.19534 -0.15657,0.0713 -0.34106,0.0682 z"
           style="-inkscape-font-specification:'Stradale Normale Positivo'"
           id="path16173-6-3" />
        <path
           d="m 363.56942,943.02173 q -0.008,0.0294 -0.0264,0.0729 -0.0186,0.0419 -0.0481,0.0868 -0.0279,0.045 -0.0589,0.0884 -0.0295,0.0419 -0.0543,0.0729 -0.009,0.0124 -0.0574,0.0589 -0.0481,0.0465 -0.12403,0.0961 -0.076,0.0481 -0.18138,0.0884 -0.10387,0.0403 -0.23099,0.0403 -0.16899,0 -0.32712,-0.0698 -0.15658,-0.0713 -0.27595,-0.19069 -0.11782,-0.12092 -0.19068,-0.2868 -0.0729,-0.16743 -0.0729,-0.36432 0,-0.16588 0.0496,-0.32556 0.0512,-0.16123 0.15503,-0.28681 0.10542,-0.12712 0.2651,-0.20618 0.16123,-0.0806 0.38137,-0.0806 0.30386,0 0.4992,0.15348 0.19533,0.15193 0.2868,0.40618 l -0.46974,0.16743 q -0.0248,-0.0574 -0.0512,-0.10697 -0.0248,-0.0512 -0.0605,-0.0884 -0.0341,-0.0388 -0.0853,-0.0589 -0.0496,-0.0217 -0.11938,-0.0217 -0.093,0 -0.15503,0.0387 -0.062,0.0372 -0.10387,0.0992 -0.0403,0.062 -0.0574,0.14108 -0.0171,0.0791 -0.0171,0.16588 0,0.0791 0.0186,0.15813 0.0186,0.0791 0.0574,0.14263 0.0403,0.0636 0.10232,0.10387 0.062,0.0387 0.14728,0.0387 0.0605,0 0.11472,-0.0248 0.0543,-0.0248 0.0961,-0.0682 0.0434,-0.0434 0.0713,-0.0977 0.0295,-0.0558 0.0388,-0.11627 z"
           style="-inkscape-font-specification:'Stradale Normale Positivo'"
           id="path16175-7-66" />
        <path
           d="m 364.78656,942.845 q -0.0419,0.0341 -0.10387,0.0449 -0.062,0.009 -0.12558,0.0155 -0.10386,0.0124 -0.15657,0.0512 -0.0527,0.0372 -0.0527,0.0853 0,0.0729 0.0589,0.0977 0.0589,0.0233 0.13177,0.0233 0.0403,0 0.0853,-0.008 0.045,-0.009 0.0791,-0.0279 0.0357,-0.0186 0.0589,-0.0496 0.0248,-0.0326 0.0248,-0.0806 z m -0.25735,-1.0294 h 0.0822 q 0.24804,0 0.41857,0.0713 0.17209,0.0713 0.25115,0.2248 0.009,0.0248 0.0202,0.0496 0.0124,0.0232 0.0217,0.0589 0.009,0.0341 0.0155,0.0899 0.006,0.0558 0.006,0.14108 v 0.59376 q 0,0.0977 0.0388,0.12558 0.0403,0.0263 0.14573,0.0263 l -0.17208,0.42943 q -0.12403,0 -0.24495,-0.0465 -0.11937,-0.0465 -0.20309,-0.11007 -0.10077,0.0729 -0.22324,0.11472 -0.12247,0.0419 -0.2434,0.0419 -0.13022,0 -0.24494,-0.0388 -0.11317,-0.0388 -0.19999,-0.11008 -0.0853,-0.0713 -0.13643,-0.17363 -0.0496,-0.10387 -0.0496,-0.23409 0,-0.13023 0.0357,-0.21859 0.0372,-0.0884 0.10077,-0.15038 0.0636,-0.062 0.15348,-0.10232 0.0915,-0.0403 0.19534,-0.0744 0.0992,-0.0294 0.18603,-0.0403 0.0868,-0.0109 0.15348,-0.0202 0.0667,-0.009 0.10542,-0.0217 0.0388,-0.014 0.0388,-0.045 0,-0.0481 -0.0403,-0.0713 -0.0403,-0.0233 -0.0992,-0.031 -0.0574,-0.009 -0.12402,0 -0.0667,0.008 -0.12093,0.0233 -0.0636,0.0155 -0.13642,0.0589 -0.0729,0.0419 -0.16588,0.10852 l -0.25425,-0.38758 q 0.15038,-0.13642 0.32711,-0.20929 0.17828,-0.0729 0.36277,-0.0729 z"
           style="-inkscape-font-specification:'Stradale Normale Positivo'"
           id="path16177-4-7" />
        <path
           d="m 365.7627,941.11177 h 0.56741 v 1.86345 q 0,0.11317 0.0884,0.12557 0.0899,0.0109 0.22945,-0.0465 l 0.048,0.524 q -0.15347,0.0481 -0.31781,0.0496 -0.16278,0.002 -0.30075,-0.0512 -0.13798,-0.0527 -0.22635,-0.16123 -0.0884,-0.11007 -0.0884,-0.28835 z"
           style="-inkscape-font-specification:'Stradale Normale Positivo'"
           id="path16179-7-1" />
        <path
           d="m 367.45538,941.84196 v 1.74563 h -0.5457 v -1.74563 z m -0.27595,-0.71159 q 0.13333,0 0.22169,0.0899 0.0884,0.0884 0.0884,0.22169 0,0.0636 -0.0248,0.11937 -0.0248,0.0543 -0.0682,0.0961 -0.0434,0.0403 -0.0992,0.0667 -0.0543,0.0248 -0.11782,0.0248 -0.0636,0 -0.12092,-0.0248 -0.0574,-0.0263 -0.10077,-0.0667 -0.0419,-0.0419 -0.0667,-0.0961 -0.0233,-0.0558 -0.0233,-0.11937 0,-0.13022 0.0899,-0.22014 0.0915,-0.0915 0.22169,-0.0915 z"
           style="-inkscape-font-specification:'Stradale Normale Positivo'"
           id="path16181-7-6" />
        <path
           d="m 368.55872,941.73033 h 0.43253 v 0.5085 h -0.43253 v 0.71624 q 0,0.0713 0.0481,0.10076 0.048,0.0295 0.11162,0.031 0.0636,0.002 0.13177,-0.014 0.0682,-0.0155 0.11007,-0.0372 l 0.10077,0.48834 q -0.0605,0.0248 -0.13177,0.045 -0.0713,0.0186 -0.14263,0.031 -0.0713,0.0124 -0.13953,0.0186 -0.0682,0.008 -0.12557,0.008 -0.11782,0 -0.21859,-0.0341 -0.0992,-0.0326 -0.17364,-0.0977 -0.0744,-0.0651 -0.11782,-0.15968 -0.0419,-0.0961 -0.0419,-0.22014 v -0.87592 h -0.2837 v -0.5085 h 0.2837 v -0.49609 l 0.58912,-0.17363 z"
           style="-inkscape-font-specification:'Stradale Normale Positivo'"
           id="path16183-6-4" />
        <path
           d="m 370.11632,942.845 q -0.0419,0.0341 -0.10387,0.0449 -0.062,0.009 -0.12558,0.0155 -0.10387,0.0124 -0.15658,0.0512 -0.0527,0.0372 -0.0527,0.0853 0,0.0729 0.0589,0.0977 0.0589,0.0233 0.13178,0.0233 0.0403,0 0.0853,-0.008 0.0449,-0.009 0.0791,-0.0279 0.0357,-0.0186 0.0589,-0.0496 0.0248,-0.0326 0.0248,-0.0806 z m -0.25735,-1.0294 h 0.0822 q 0.24805,0 0.41858,0.0713 0.17208,0.0713 0.25115,0.2248 0.009,0.0248 0.0202,0.0496 0.0124,0.0232 0.0217,0.0589 0.009,0.0341 0.0155,0.0899 0.006,0.0558 0.006,0.14108 v 0.59376 q 0,0.0977 0.0388,0.12558 0.0403,0.0263 0.14573,0.0263 l -0.17209,0.42943 q -0.12402,0 -0.24494,-0.0465 -0.11938,-0.0465 -0.20309,-0.11007 -0.10077,0.0729 -0.22324,0.11472 -0.12248,0.0419 -0.2434,0.0419 -0.13022,0 -0.24495,-0.0388 -0.11317,-0.0388 -0.19998,-0.11008 -0.0853,-0.0713 -0.13643,-0.17363 -0.0496,-0.10387 -0.0496,-0.23409 0,-0.13023 0.0357,-0.21859 0.0372,-0.0884 0.10077,-0.15038 0.0636,-0.062 0.15348,-0.10232 0.0915,-0.0403 0.19533,-0.0744 0.0992,-0.0294 0.18604,-0.0403 0.0868,-0.0109 0.15348,-0.0202 0.0667,-0.009 0.10542,-0.0217 0.0387,-0.014 0.0387,-0.045 0,-0.0481 -0.0403,-0.0713 -0.0403,-0.0233 -0.0992,-0.031 -0.0574,-0.009 -0.12403,0 -0.0667,0.008 -0.12092,0.0233 -0.0636,0.0155 -0.13642,0.0589 -0.0729,0.0419 -0.16589,0.10852 l -0.25424,-0.38758 q 0.15038,-0.13642 0.32711,-0.20929 0.17828,-0.0729 0.36277,-0.0729 z"
           style="-inkscape-font-specification:'Stradale Normale Positivo'"
           id="path16185-6-5" />
        <path
           d="m 371.39221,941.11797 q -0.10077,0 -0.17364,0.0729 -0.0713,0.0713 -0.0713,0.17053 0,0.16744 0.13022,0.23565 0.0729,0.0186 0.0729,0.0279 0,0.0233 -0.11007,0.0233 -0.0419,0 -0.0419,0.0403 v 0.0698 q 0,0.0419 0.0419,0.0419 0.21859,0 0.34261,-0.0729 0.11162,-0.10232 0.11162,-0.26355 0,-0.13487 -0.0837,-0.23719 -0.0884,-0.10852 -0.21859,-0.10852 z"
           style="-inkscape-font-specification:'Stradale Normale Positivo'"
           id="path16187-2-3" />
      </g>
      <g
         aria-label="indirizzo"
         id="text16129-7-73"
         style="font-size:3.175px;font-family:'Stradale Normale Positivo';-inkscape-font-specification:'Stradale Normale Positivo';fill:#000000;fill-rule:evenodd;stroke-width:0.529167;stroke-linecap:round;paint-order:markers fill stroke"
         transform="matrix(4.1406528,0,0,4.1406528,-981.18895,-2261.1356)">
        <path
           d="m 359.37554,949.01865 v 1.74563 h -0.54571 v -1.74563 z m -0.27596,-0.71158 q 0.13333,0 0.2217,0.0899 0.0884,0.0884 0.0884,0.2217 0,0.0636 -0.0248,0.11937 -0.0248,0.0543 -0.0682,0.0961 -0.0434,0.0403 -0.0992,0.0667 -0.0543,0.0248 -0.11783,0.0248 -0.0636,0 -0.12092,-0.0248 -0.0574,-0.0264 -0.10077,-0.0667 -0.0418,-0.0419 -0.0667,-0.0961 -0.0233,-0.0558 -0.0233,-0.11937 0,-0.13023 0.0899,-0.22014 0.0915,-0.0915 0.22169,-0.0915 z"
           id="path16152-4-8" />
        <path
           d="m 360.79549,950.76428 v -0.95498 q 0.006,-0.14418 -0.0775,-0.23254 -0.0822,-0.0884 -0.19223,-0.0822 -0.0574,0.003 -0.10697,0.031 -0.0496,0.0263 -0.0868,0.0698 -0.0357,0.0419 -0.0558,0.0977 -0.0202,0.0558 -0.0202,0.11627 l -0.003,0.95498 h -0.55346 l 0.003,-1.74563 h 0.49299 l 0.0341,0.0946 q 0.0357,-0.0279 0.0868,-0.0496 0.0527,-0.0233 0.11007,-0.0388 0.0574,-0.0171 0.11317,-0.0248 0.0558,-0.008 0.10387,-0.008 0.20929,0 0.34416,0.0667 0.13488,0.0667 0.21239,0.17828 0.0775,0.11162 0.10697,0.2589 0.031,0.14728 0.031,0.31316 v 0.95498 z"
           id="path16154-8-60" />
        <path
           d="m 362.77926,948.28846 h 0.555 v 2.47582 h -0.49764 l -0.045,-0.10542 q -0.0636,0.0543 -0.16898,0.10077 -0.10387,0.0465 -0.21549,0.0434 -0.19999,-0.003 -0.35812,-0.0837 -0.15658,-0.0822 -0.26355,-0.21549 -0.10542,-0.13332 -0.16278,-0.30075 -0.0574,-0.16899 -0.0574,-0.35037 0,-0.18138 0.0574,-0.34727 0.0574,-0.16743 0.16278,-0.293 0.10697,-0.12713 0.26045,-0.20154 0.15503,-0.076 0.34572,-0.076 0.0512,0 0.10697,0.0109 0.0574,0.009 0.11007,0.0263 0.0527,0.0171 0.0961,0.0388 0.045,0.0202 0.0744,0.0419 z m -0.33021,1.13327 q -0.16278,0.003 -0.25425,0.10697 -0.0915,0.10232 -0.0915,0.25735 0,0.10232 0.0109,0.19223 0.0109,0.0899 0.0465,0.16123 0.0372,0.0698 0.10542,0.11163 0.0682,0.0403 0.18294,0.0465 0.0605,0.003 0.11472,-0.0155 0.0558,-0.0202 0.10077,-0.0574 0.045,-0.0388 0.0744,-0.0899 0.031,-0.0527 0.0403,-0.11317 v -0.33641 q 0,-0.0543 -0.0326,-0.10542 -0.031,-0.0512 -0.0791,-0.0884 -0.0481,-0.0388 -0.10697,-0.0574 -0.0574,-0.0186 -0.11162,-0.0124 z"
           id="path16156-1-4" />
        <path
           d="m 364.20181,949.01865 v 1.74563 h -0.5457 v -1.74563 z m -0.27595,-0.71158 q 0.13332,0 0.22169,0.0899 0.0884,0.0884 0.0884,0.2217 0,0.0636 -0.0248,0.11937 -0.0248,0.0543 -0.0682,0.0961 -0.0434,0.0403 -0.0992,0.0667 -0.0543,0.0248 -0.11782,0.0248 -0.0636,0 -0.12093,-0.0248 -0.0574,-0.0264 -0.10077,-0.0667 -0.0419,-0.0419 -0.0667,-0.0961 -0.0233,-0.0558 -0.0233,-0.11937 0,-0.13023 0.0899,-0.22014 0.0915,-0.0915 0.2217,-0.0915 z"
           id="path16158-1-5" />
        <path
           d="m 365.65101,949.54575 q -0.0372,-0.003 -0.0822,-0.006 -0.045,-0.005 -0.0915,0 -0.045,0.003 -0.0899,0.0109 -0.045,0.008 -0.076,0.0233 -0.0186,0.009 -0.0543,0.0263 -0.0341,0.0155 -0.0698,0.0543 -0.0341,0.0372 -0.0605,0.10077 -0.0248,0.0636 -0.0248,0.16743 v 0.84181 h -0.5488 l -0.005,-1.74563 h 0.55346 v 0.10387 q 0.0574,-0.0341 0.0791,-0.0481 0.0217,-0.0155 0.0605,-0.0341 0.0636,-0.0279 0.12867,-0.0372 0.0651,-0.0109 0.11782,-0.009 0.0543,0.002 0.0977,0.0109 0.0434,0.008 0.0651,0.0109 z"
           id="path16160-3-5" />
        <path
           d="m 366.44917,949.01865 v 1.74563 h -0.5457 v -1.74563 z m -0.27595,-0.71158 q 0.13333,0 0.22169,0.0899 0.0884,0.0884 0.0884,0.2217 0,0.0636 -0.0248,0.11937 -0.0248,0.0543 -0.0682,0.0961 -0.0434,0.0403 -0.0992,0.0667 -0.0543,0.0248 -0.11782,0.0248 -0.0636,0 -0.12092,-0.0248 -0.0574,-0.0264 -0.10077,-0.0667 -0.0419,-0.0419 -0.0667,-0.0961 -0.0233,-0.0558 -0.0233,-0.11937 0,-0.13023 0.0899,-0.22014 0.0915,-0.0915 0.22169,-0.0915 z"
           id="path16162-3-3" />
        <path
           d="m 368.14539,949.01865 v 0.46354 l -0.62786,0.79685 h 0.65732 v 0.48524 h -1.37821 v -0.44803 l 0.63562,-0.80615 h -0.61392 v -0.49145 z"
           id="path16164-5-75" />
        <path
           d="m 369.67243,949.01865 v 0.46354 l -0.62787,0.79685 h 0.65733 v 0.48524 h -1.37821 v -0.44803 l 0.63562,-0.80615 h -0.61392 v -0.49145 z"
           id="path16166-9-00" />
        <path
           d="m 370.76229,950.29764 q 0.17363,-0.003 0.262,-0.11782 0.0899,-0.11472 0.0899,-0.30076 0,-0.0868 -0.0232,-0.16278 -0.0217,-0.076 -0.0651,-0.13487 -0.0419,-0.0589 -0.10852,-0.0915 -0.0667,-0.0341 -0.15503,-0.0341 -0.093,0 -0.15813,0.0357 -0.0651,0.0341 -0.10697,0.0915 -0.0403,0.0574 -0.0589,0.13332 -0.0186,0.076 -0.0186,0.16278 0,0.0853 0.0186,0.16124 0.0186,0.076 0.0589,0.13332 0.0419,0.0574 0.10697,0.0915 0.0651,0.0326 0.15813,0.0326 z m 0.0124,0.5054 q -0.19379,-0.008 -0.35347,-0.0775 -0.15813,-0.0698 -0.2713,-0.19068 -0.11162,-0.12247 -0.17363,-0.28526 -0.062,-0.16433 -0.062,-0.35501 0,-0.19689 0.0574,-0.36277 0.0574,-0.16743 0.16588,-0.2868 0.11007,-0.11938 0.2682,-0.18604 0.15968,-0.0667 0.35967,-0.0667 0.19068,0 0.35037,0.0698 0.16123,0.0698 0.2744,0.19224 0.11472,0.12247 0.17828,0.28835 0.0636,0.16433 0.0636,0.35812 0,0.18448 -0.0651,0.35037 -0.0651,0.16433 -0.17983,0.28835 -0.11318,0.12247 -0.2713,0.19534 -0.15658,0.0713 -0.34107,0.0682 z"
           id="path16168-0-6" />
      </g>
      <g
         aria-label="telefoni"
         id="text16133-5-0"
         style="font-size:3.175px;font-family:'Stradale Normale Positivo';-inkscape-font-specification:'Stradale Normale Positivo';fill:#000000;fill-rule:evenodd;stroke-width:0.529167;stroke-linecap:round;paint-order:markers fill stroke"
         transform="matrix(4.1406528,0,0,4.1406528,-981.18895,-2261.1356)">
        <path
           d="m 359.4398,956.32335 h 0.43253 v 0.5085 h -0.43253 v 0.71623 q 0,0.0713 0.0481,0.10077 0.0481,0.0295 0.11162,0.031 0.0636,0.002 0.13178,-0.0139 0.0682,-0.0155 0.11007,-0.0372 l 0.10077,0.48834 q -0.0605,0.0248 -0.13178,0.045 -0.0713,0.0186 -0.14262,0.031 -0.0713,0.0124 -0.13953,0.0186 -0.0682,0.008 -0.12557,0.008 -0.11783,0 -0.2186,-0.0341 -0.0992,-0.0326 -0.17363,-0.0977 -0.0744,-0.0651 -0.11782,-0.15968 -0.0419,-0.0961 -0.0419,-0.22015 v -0.87591 h -0.2837 v -0.5085 h 0.2837 v -0.49609 l 0.58911,-0.17363 z"
           id="path16135-7-9" />
        <path
           d="m 361.66835,957.49227 h -1.11156 q 0.0419,0.13023 0.13642,0.18604 0.0946,0.0543 0.20619,0.0543 0.11473,0 0.2248,-0.045 0.11162,-0.0465 0.18138,-0.12247 l 0.34261,0.34881 q -0.0791,0.0884 -0.17983,0.14728 -0.0992,0.0589 -0.20619,0.0946 -0.10542,0.0341 -0.21704,0.0481 -0.11007,0.0155 -0.21549,0.0155 -0.18759,0 -0.33951,-0.0791 -0.15193,-0.0806 -0.26045,-0.21084 -0.10852,-0.13023 -0.16743,-0.29921 -0.0574,-0.17053 -0.0574,-0.34882 0,-0.17363 0.062,-0.33176 0.062,-0.15968 0.17208,-0.2806 0.11162,-0.12093 0.26355,-0.19069 0.15193,-0.0698 0.33021,-0.0698 0.19379,0 0.34727,0.0667 0.15503,0.0667 0.26355,0.18294 0.11007,0.11627 0.16898,0.27905 0.0589,0.16123 0.0589,0.35191 0,0.0558 0.002,0.11783 0.002,0.062 -0.005,0.0853 z m -0.5364,-0.41703 q -0.0264,-0.10076 -0.10852,-0.16588 -0.0822,-0.0651 -0.18139,-0.0589 -0.0884,0.006 -0.15968,0.0574 -0.0713,0.0512 -0.12247,0.16743 z"
           id="path16137-6-8" />
        <path
           d="m 361.84334,955.70479 h 0.56741 v 1.86345 q 0,0.11317 0.0884,0.12557 0.0899,0.0109 0.22944,-0.0465 l 0.0481,0.524 q -0.15348,0.0481 -0.31781,0.0496 -0.16278,0.002 -0.30076,-0.0512 -0.13797,-0.0527 -0.22634,-0.16123 -0.0884,-0.11007 -0.0884,-0.28835 z"
           id="path16139-3-8" />
        <path
           d="m 364.45031,957.49227 h -1.11156 q 0.0419,0.13023 0.13643,0.18604 0.0946,0.0543 0.20619,0.0543 0.11472,0 0.22479,-0.045 0.11162,-0.0465 0.18139,-0.12247 l 0.34261,0.34881 q -0.0791,0.0884 -0.17983,0.14728 -0.0992,0.0589 -0.20619,0.0946 -0.10542,0.0341 -0.21704,0.0481 -0.11007,0.0155 -0.21549,0.0155 -0.18759,0 -0.33952,-0.0791 -0.15193,-0.0806 -0.26045,-0.21084 -0.10852,-0.13023 -0.16743,-0.29921 -0.0574,-0.17053 -0.0574,-0.34882 0,-0.17363 0.062,-0.33176 0.062,-0.15968 0.17208,-0.2806 0.11163,-0.12093 0.26355,-0.19069 0.15193,-0.0698 0.33022,-0.0698 0.19378,0 0.34726,0.0667 0.15503,0.0667 0.26355,0.18294 0.11007,0.11627 0.16898,0.27905 0.0589,0.16123 0.0589,0.35191 0,0.0558 0.002,0.11783 0.002,0.062 -0.005,0.0853 z m -0.5364,-0.41703 q -0.0263,-0.10076 -0.10852,-0.16588 -0.0822,-0.0651 -0.18138,-0.0589 -0.0884,0.006 -0.15968,0.0574 -0.0713,0.0512 -0.12247,0.16743 z"
           id="path16141-3-8" />
        <path
           d="m 364.78765,958.1806 v -1.35185 h -0.26355 v -0.46044 h 0.26355 v -0.22944 q 0,-0.10697 0.031,-0.19224 0.031,-0.0868 0.0977,-0.14418 0.0961,-0.0853 0.21239,-0.11627 0.11782,-0.0326 0.23874,-0.0326 0.12093,0 0.2372,0.0217 0.11627,0.0217 0.21084,0.045 l -0.10852,0.47284 q -0.0403,-0.0155 -0.10232,-0.0295 -0.062,-0.0155 -0.11937,-0.0124 -0.0574,0.003 -0.0992,0.031 -0.0403,0.0263 -0.0403,0.093 v 0.093 h 0.35812 v 0.46044 h -0.35812 v 1.35185 z"
           id="path16143-6-4" />
        <path
           d="m 366.76968,957.71396 q 0.17363,-0.003 0.262,-0.11782 0.0899,-0.11472 0.0899,-0.30075 0,-0.0868 -0.0233,-0.16279 -0.0217,-0.076 -0.0651,-0.13487 -0.0419,-0.0589 -0.10852,-0.0915 -0.0667,-0.0341 -0.15503,-0.0341 -0.093,0 -0.15813,0.0357 -0.0651,0.0341 -0.10697,0.0915 -0.0403,0.0574 -0.0589,0.13332 -0.0186,0.076 -0.0186,0.16279 0,0.0853 0.0186,0.16123 0.0186,0.076 0.0589,0.13332 0.0419,0.0574 0.10697,0.0915 0.0651,0.0326 0.15813,0.0326 z m 0.0124,0.5054 q -0.19379,-0.008 -0.35347,-0.0775 -0.15813,-0.0698 -0.2713,-0.19069 -0.11162,-0.12247 -0.17363,-0.28525 -0.062,-0.16434 -0.062,-0.35502 0,-0.19689 0.0574,-0.36277 0.0574,-0.16743 0.16588,-0.2868 0.11007,-0.11938 0.2682,-0.18604 0.15968,-0.0667 0.35967,-0.0667 0.19068,0 0.35036,0.0698 0.16124,0.0698 0.27441,0.19224 0.11472,0.12247 0.17828,0.28835 0.0636,0.16433 0.0636,0.35812 0,0.18448 -0.0651,0.35037 -0.0651,0.16433 -0.17983,0.28835 -0.11318,0.12247 -0.27131,0.19534 -0.15657,0.0713 -0.34106,0.0682 z"
           id="path16145-3-6" />
        <path
           d="m 369.05171,958.1806 v -0.95498 q 0.006,-0.14417 -0.0775,-0.23254 -0.0822,-0.0884 -0.19223,-0.0822 -0.0574,0.003 -0.10697,0.031 -0.0496,0.0263 -0.0868,0.0698 -0.0357,0.0419 -0.0558,0.0977 -0.0202,0.0558 -0.0202,0.11627 l -0.003,0.95498 h -0.55346 l 0.003,-1.74563 h 0.493 l 0.0341,0.0946 q 0.0357,-0.0279 0.0868,-0.0496 0.0527,-0.0232 0.11007,-0.0388 0.0574,-0.0171 0.11317,-0.0248 0.0558,-0.008 0.10387,-0.008 0.20929,0 0.34417,0.0667 0.13487,0.0667 0.21239,0.17828 0.0775,0.11163 0.10697,0.2589 0.031,0.14728 0.031,0.31316 v 0.95498 z"
           id="path16147-8-03" />
        <path
           d="m 370.59425,956.43497 v 1.74563 h -0.5457 v -1.74563 z m -0.27595,-0.71158 q 0.13332,0 0.22169,0.0899 0.0884,0.0884 0.0884,0.22169 0,0.0636 -0.0248,0.11937 -0.0248,0.0543 -0.0682,0.0961 -0.0434,0.0403 -0.0992,0.0667 -0.0543,0.0248 -0.11782,0.0248 -0.0636,0 -0.12093,-0.0248 -0.0574,-0.0263 -0.10076,-0.0667 -0.0419,-0.0419 -0.0667,-0.0961 -0.0233,-0.0558 -0.0233,-0.11937 0,-0.13023 0.0899,-0.22014 0.0915,-0.0915 0.22169,-0.0915 z"
           id="path16149-4-3" />
      </g>
      <rect
         style="fill:#b3b3b3;fill-rule:evenodd;stroke-width:2.22205;stroke-linecap:round;paint-order:markers fill stroke"
         id="rect16325-7-17"
         width="129.64583"
         height="19.049999"
         x="580.09216"
         y="1626.4591" />
      <rect
         style="fill:#b3b3b3;fill-rule:evenodd;stroke-width:2.22205;stroke-linecap:round;paint-order:markers fill stroke"
         id="rect16325-5-8-4"
         width="129.64583"
         height="19.049999"
         x="580.0921"
         y="1656.8862" />
      <rect
         style="fill:#b3b3b3;fill-rule:evenodd;stroke-width:1.46158;stroke-linecap:round;paint-order:markers fill stroke"
         id="rect16325-2-3-5"
         width="56.091667"
         height="19.049999"
         x="580.0921"
         y="1687.3132" />
      <rect
         style="fill:#b3b3b3;fill-rule:evenodd;stroke-width:1.46158;stroke-linecap:round;paint-order:markers fill stroke"
         id="rect16325-2-0-9-1"
         width="56.091667"
         height="19.049999"
         x="653.6463"
         y="1687.3132" />
      <g
         aria-label="GUARDIA di FINANZA"
         id="text4381-7"
         style="font-size:5.70659px;font-family:'Stradale Stretto Positivo';-inkscape-font-specification:'Stradale Stretto Positivo';fill:#000000;fill-rule:evenodd;stroke-width:0.126813;stroke-linecap:round;paint-order:markers fill stroke"
         transform="matrix(4.1725272,0,0,4.1725192,-1397.4873,-2629.5075)">
        <path
           d="m 456.52811,1014.8187 v -0.2759 H 456.099 v -0.8777 h 1.32912 v 2.7279 h -0.75233 l -0.0697,-0.1755 q -0.0557,0.044 -0.0947,0.078 -0.0362,0.033 -0.0892,0.061 -0.0502,0.025 -0.13097,0.045 -0.078,0.019 -0.21455,0.036 -0.287,0.011 -0.53499,-0.1644 -0.248,-0.1756 -0.43469,-0.4876 -0.1839,-0.3121 -0.287,-0.7273 -0.10309,-0.418 -0.0975,-0.8916 0,-0.4737 0.11703,-0.8889 0.11703,-0.418 0.31765,-0.7245 0.20062,-0.3093 0.46255,-0.4876 0.26192,-0.1811 0.55449,-0.1811 0.17555,0 0.33716,0.056 0.1644,0.053 0.31487,0.1755 0.15046,0.1227 0.28978,0.3205 0.14211,0.195 0.27307,0.482 l -0.77741,0.3762 q -0.0613,-0.2675 -0.16161,-0.3706 -0.10031,-0.1031 -0.24799,-0.1031 -0.14768,0 -0.23963,0.1644 -0.092,0.1616 -0.1449,0.3818 -0.0501,0.2173 -0.0697,0.4458 -0.0195,0.2285 -0.0195,0.3594 0,0.131 0.0139,0.3539 0.0139,0.2229 0.0613,0.4403 0.0502,0.2173 0.13375,0.3733 0.0864,0.1561 0.22291,0.1561 0.11424,0 0.18669,-0.067 0.0725,-0.07 0.10867,-0.17 0.0362,-0.1031 0.0529,-0.2201 0.0195,-0.117 0.0195,-0.2201 z"
           id="path4553" />
        <path
           d="m 460.01392,1011.9292 h 0.95853 v 3.1458 q 0.0112,0.2508 -0.0613,0.4988 -0.0697,0.248 -0.22849,0.4458 -0.15604,0.1979 -0.39846,0.3149 -0.24241,0.1142 -0.56843,0.1031 -0.25635,0.011 -0.48762,-0.1087 -0.23127,-0.1198 -0.4096,-0.3148 -0.17555,-0.1979 -0.27864,-0.4459 -0.10032,-0.248 -0.0892,-0.4987 v -3.1403 h 0.99197 v 3.3214 q 0,0.1337 0.0752,0.2257 0.078,0.089 0.21177,0.089 0.12539,0 0.20341,-0.089 0.0808,-0.092 0.0808,-0.2257 z"
           id="path4555" />
        <path
           d="m 462.97031,1014.7546 h 0.32602 l -0.15883,-1.0031 z m -0.12538,0.8053 -0.13097,0.8331 h -1.02261 l 0.71332,-4.4638 h 1.45173 l 0.70775,4.4638 h -1.01147 l -0.13097,-0.8331 z"
           id="path4557" />
        <path
           d="m 467.10258,1014.4481 0.82199,1.9449 h -0.94738 l -0.69661,-1.6496 h -0.0501 v 1.6496 h -0.99754 v -4.4638 h 1.10621 q 0.27864,0 0.52106,0.1031 0.24242,0.1031 0.42075,0.2842 0.18112,0.1783 0.28421,0.4291 0.1031,0.2508 0.1031,0.5433 0,0.2062 -0.0585,0.3985 -0.0557,0.1895 -0.14211,0.3427 -0.0836,0.1533 -0.18391,0.2647 -0.10031,0.1115 -0.18111,0.1533 z m -0.87215,-0.5768 q 0.10867,-0.01 0.19505,-0.058 0.0892,-0.056 0.15325,-0.1366 0.0641,-0.081 0.0975,-0.1839 0.0334,-0.1058 0.0334,-0.2201 0,-0.1365 -0.0613,-0.234 -0.0585,-0.098 -0.13653,-0.1561 -0.0752,-0.061 -0.15883,-0.084 -0.0836,-0.022 -0.1226,-0.011 z"
           id="path4559" />
        <path
           d="m 469.92801,1016.393 h -1.12293 v -4.4555 h 1.15637 q 0.29257,-0.025 0.56007,0.1728 0.26749,0.1978 0.46811,0.5238 0.20063,0.3232 0.30372,0.7356 0.10589,0.4096 0.078,0.8192 0.0223,0.3957 -0.0892,0.7886 -0.10867,0.3929 -0.31208,0.7078 -0.20341,0.3148 -0.47369,0.5127 -0.27028,0.195 -0.56843,0.195 z m -0.1031,-0.9084 q 0.31487,-0.045 0.45697,-0.365 0.14211,-0.3232 0.14211,-0.9474 0,-0.6158 -0.16161,-0.9613 -0.16161,-0.3455 -0.43747,-0.4235 z"
           id="path4561" />
        <path
           d="m 473.24942,1016.393 h -1.05605 v -4.4638 h 1.05605 z"
           id="path4563" />
        <path
           d="m 475.31416,1014.7546 h 0.32601 l -0.15882,-1.0031 z m -0.12539,0.8053 -0.13096,0.8331 h -1.02262 l 0.71333,-4.4638 h 1.45172 l 0.70775,4.4638 h -1.01147 l -0.13096,-0.8331 z"
           id="path4565" />
        <path
           d="m 480.10261,1014.3171 q 0.006,-0.036 -0.0195,-0.095 -0.0251,-0.061 -0.11703,-0.056 -0.0919,0.011 -0.14489,0.095 -0.0502,0.084 -0.0752,0.1978 -0.0251,0.1143 -0.0306,0.2341 -0.006,0.1198 -0.006,0.1923 0,0.098 0.006,0.2117 0.006,0.1143 0.0306,0.2174 0.0251,0.1031 0.0724,0.1839 0.0502,0.078 0.14211,0.1058 0.078,0.01 0.10867,-0.061 0.0334,-0.07 0.0334,-0.1198 z m 0.0864,1.9394 q -0.0167,0.028 -0.0502,0.061 -0.0306,0.031 -0.0864,0.058 -0.0529,0.028 -0.13653,0.045 -0.0808,0.017 -0.20062,0.017 -0.20063,0 -0.36224,-0.1198 -0.15883,-0.1198 -0.27307,-0.3205 -0.11424,-0.2034 -0.18112,-0.4737 -0.0641,-0.273 -0.0697,-0.574 -0.0111,-0.3538 0.0864,-0.691 0.0975,-0.3372 0.27029,-0.5684 0.17554,-0.2313 0.4096,-0.3121 0.23406,-0.084 0.49598,0.058 v -1.5074 h 0.91952 v 4.4638 h -0.76626 z"
           id="path4567" />
        <path
           d="m 482.66054,1013.3391 v 3.0539 h -0.9028 v -3.0539 z m -0.46254,-1.4099 q 0.20062,0 0.33994,0.1393 0.13932,0.1365 0.13932,0.3344 0,0.195 -0.13932,0.3343 -0.13932,0.1393 -0.33994,0.1393 -0.19505,0 -0.33437,-0.1393 -0.13932,-0.1393 -0.13932,-0.3343 0,-0.1979 0.13653,-0.3344 0.13654,-0.1393 0.33716,-0.1393 z"
           id="path4569" />
        <path
           d="m 485.289,1016.393 v -4.4638 h 1.89477 v 0.8582 h -0.88608 v 0.9223 h 0.75512 v 0.8526 h -0.74955 v 1.8307 z"
           id="path4571" />
        <path
           d="m 489.01445,1016.393 h -1.05605 v -4.4638 h 1.05605 z"
           id="path4573" />
        <path
           d="m 490.20147,1016.393 v -4.4638 h 0.99753 l 0.48484,1.7025 v -1.7025 h 1.01147 v 4.4638 h -0.96967 l -0.48484,-1.6941 v 1.6941 z"
           id="path4575" />
        <path
           d="m 494.70153,1014.7546 h 0.32601 l -0.15882,-1.0031 z m -0.12539,0.8053 -0.13096,0.8331 h -1.02261 l 0.71332,-4.4638 h 1.45173 l 0.70775,4.4638 h -1.01147 l -0.13097,-0.8331 z"
           id="path4577" />
        <path
           d="m 496.98083,1016.393 v -4.4638 h 0.99754 l 0.48483,1.7025 v -1.7025 h 1.01147 v 4.4638 H 498.505 l -0.48484,-1.6941 v 1.6941 z"
           id="path4579" />
        <path
           d="m 500.42485,1011.9292 h 2.02015 v 0.7941 l -1.05048,2.7669 h 1.0672 v 0.9028 h -2.17341 v -0.8053 l 1.08949,-2.8115 h -0.95295 z"
           id="path4581" />
        <path
           d="m 504.24224,1014.7546 h 0.32601 l -0.15882,-1.0031 z m -0.12539,0.8053 -0.13096,0.8331 h -1.02262 l 0.71333,-4.4638 h 1.45172 l 0.70775,4.4638 h -1.01147 l -0.13096,-0.8331 z"
           id="path4583" />
      </g>
    </g>
  </g>
</svg>
