<?xml version="1.0" encoding="UTF-8" standalone="no"?>
<!-- Created with Inkscape (http://www.inkscape.org/) -->

<svg
   xmlns:dc="http://purl.org/dc/elements/1.1/"
   xmlns:cc="http://creativecommons.org/ns#"
   xmlns:rdf="http://www.w3.org/1999/02/22-rdf-syntax-ns#"
   xmlns:svg="http://www.w3.org/2000/svg"
   xmlns="http://www.w3.org/2000/svg"
   xmlns:sodipodi="http://sodipodi.sourceforge.net/DTD/sodipodi-0.dtd"
   xmlns:inkscape="http://www.inkscape.org/namespaces/inkscape"
   width="682.9281"
   height="455.50955"
   id="svg14633"
   version="1.1"
   inkscape:version="0.47 r22583"
   sodipodi:docname="Italian traffic signs - uso corsie 2.svg">
  <defs
     id="defs14635">
    <inkscape:perspective
       sodipodi:type="inkscape:persp3d"
       inkscape:vp_x="0 : 526.18109 : 1"
       inkscape:vp_y="0 : 1000 : 0"
       inkscape:vp_z="744.09448 : 526.18109 : 1"
       inkscape:persp3d-origin="372.04724 : 350.78739 : 1"
       id="perspective14641" />
    <inkscape:perspective
       id="perspective14615"
       inkscape:persp3d-origin="0.5 : 0.33333333 : 1"
       inkscape:vp_z="1 : 0.5 : 1"
       inkscape:vp_y="0 : 1000 : 0"
       inkscape:vp_x="0 : 0.5 : 1"
       sodipodi:type="inkscape:persp3d" />
    <inkscape:perspective
       id="perspective14686"
       inkscape:persp3d-origin="0.5 : 0.33333333 : 1"
       inkscape:vp_z="1 : 0.5 : 1"
       inkscape:vp_y="0 : 1000 : 0"
       inkscape:vp_x="0 : 0.5 : 1"
       sodipodi:type="inkscape:persp3d" />
    <inkscape:perspective
       id="perspective14775"
       inkscape:persp3d-origin="0.5 : 0.33333333 : 1"
       inkscape:vp_z="1 : 0.5 : 1"
       inkscape:vp_y="0 : 1000 : 0"
       inkscape:vp_x="0 : 0.5 : 1"
       sodipodi:type="inkscape:persp3d" />
    <inkscape:perspective
       id="perspective14848"
       inkscape:persp3d-origin="0.5 : 0.33333333 : 1"
       inkscape:vp_z="1 : 0.5 : 1"
       inkscape:vp_y="0 : 1000 : 0"
       inkscape:vp_x="0 : 0.5 : 1"
       sodipodi:type="inkscape:persp3d" />
    <inkscape:perspective
       id="perspective14952"
       inkscape:persp3d-origin="100 : 66.666667 : 1"
       inkscape:vp_z="200 : 100 : 1"
       inkscape:vp_y="0 : 1000 : 0"
       inkscape:vp_x="0 : 100 : 1"
       sodipodi:type="inkscape:persp3d" />
    <inkscape:perspective
       id="perspective14975"
       inkscape:persp3d-origin="0.5 : 0.33333333 : 1"
       inkscape:vp_z="1 : 0.5 : 1"
       inkscape:vp_y="0 : 1000 : 0"
       inkscape:vp_x="0 : 0.5 : 1"
       sodipodi:type="inkscape:persp3d" />
    <inkscape:perspective
       inkscape:vp_x="0 : 100 : 1"
       inkscape:vp_y="0 : 1000 : 0"
       inkscape:vp_z="200 : 100 : 1"
       inkscape:persp3d-origin="100 : 66.666667 : 1"
       sodipodi:type="inkscape:persp3d"
       id="perspective3691" />
    <inkscape:perspective
       inkscape:vp_x="0 : 0.5 : 1"
       inkscape:vp_y="0 : 1000 : 0"
       inkscape:vp_z="1 : 0.5 : 1"
       inkscape:persp3d-origin="0.5 : 0.33333333 : 1"
       sodipodi:type="inkscape:persp3d"
       id="perspective3725" />
    <inkscape:perspective
       id="perspective16114"
       inkscape:persp3d-origin="0.5 : 0.33333333 : 1"
       inkscape:vp_z="1 : 0.5 : 1"
       inkscape:vp_y="0 : 1000 : 0"
       inkscape:vp_x="0 : 0.5 : 1"
       sodipodi:type="inkscape:persp3d" />
    <inkscape:perspective
       id="perspective16322"
       inkscape:persp3d-origin="0.5 : 0.33333333 : 1"
       inkscape:vp_z="1 : 0.5 : 1"
       inkscape:vp_y="0 : 1000 : 0"
       inkscape:vp_x="0 : 0.5 : 1"
       sodipodi:type="inkscape:persp3d" />
  </defs>
  <sodipodi:namedview
     id="base"
     pagecolor="#ffffff"
     bordercolor="#666666"
     borderopacity="1.0"
     inkscape:pageopacity="0.0"
     inkscape:pageshadow="2"
     inkscape:zoom="1.4097936"
     inkscape:cx="546.19401"
     inkscape:cy="117.20054"
     inkscape:document-units="px"
     inkscape:current-layer="layer1"
     showgrid="false"
     units="cm"
     inkscape:window-width="1600"
     inkscape:window-height="838"
     inkscape:window-x="-8"
     inkscape:window-y="-8"
     inkscape:window-maximized="1" />
  <metadata
     id="metadata14638">
    <rdf:RDF>
      <cc:Work
         rdf:about="">
        <dc:format>image/svg+xml</dc:format>
        <dc:type
           rdf:resource="http://purl.org/dc/dcmitype/StillImage" />
        <dc:title />
      </cc:Work>
    </rdf:RDF>
  </metadata>
  <g
     inkscape:label="Livello 1"
     inkscape:groupmode="layer"
     id="layer1"
     transform="translate(47.847062,-733.82384)">
    <path
       d="m -47.752062,733.91884 682.738112,0 0,455.31956 -682.738112,0 0,-455.31956 z"
       style="fill:#ffffff;fill-opacity:1;fill-rule:nonzero;stroke:none"
       id="path4720" />
    <path
       d="m -47.752062,733.91884 682.738112,0 0,455.31956 -682.738112,0 0,-455.31956 z"
       style="fill:none;stroke:#000000;stroke-width:0.19000001;stroke-linecap:butt;stroke-linejoin:miter;stroke-miterlimit:4;stroke-opacity:1;stroke-dasharray:none"
       id="path4722" />
    <path
       d="m 379.8156,796.8037 27.48291,0 0,329.899 -27.48291,0 0,-329.899 z"
       style="fill:#ffd500;fill-opacity:1;fill-rule:nonzero;stroke:#000000;stroke-width:0.25249997;stroke-linecap:butt;stroke-linejoin:miter;stroke-miterlimit:4;stroke-opacity:1;stroke-dasharray:none"
       id="path4724" />
    <g
       id="g4726"
       transform="matrix(6.1222781,0,0,-6.126144,293.61515,1177.5588)">
      <path
         d="m 0,0 0,-1.346 49.308,0 c 3.254,0 5.834,2.58 5.834,5.834 l 0,61.535 c 0,3.197 -2.58,5.777 -5.834,5.777 L 0,71.8 l 0,-1.29 49.308,0 c 2.524,0 4.487,-2.019 4.487,-4.487 l 0,-61.535 C 53.795,1.963 51.832,0 49.308,0 L 0,0 z"
         style="fill:#000000;fill-opacity:1;fill-rule:nonzero;stroke:none"
         id="path4728" />
    </g>
    <g
       id="g4730"
       transform="matrix(6.1222781,0,0,-6.126144,293.61515,745.60385)">
      <path
         d="m 0,0 0,1.29 -49.364,0 c -3.198,0 -5.834,-2.58 -5.834,-5.777 l 0,-61.535 c 0,-3.254 2.636,-5.834 5.834,-5.834 l 49.364,0 0,1.346 -49.364,0 c -2.468,0 -4.488,1.963 -4.488,4.488 l 0,61.535 c 0,2.468 2.02,4.487 4.488,4.487 L 0,0 z"
         style="fill:#000000;fill-opacity:1;fill-rule:nonzero;stroke:none"
         id="path4732" />
    </g>
    <g
       id="g4734"
       transform="matrix(6.1222781,0,0,-6.126144,77.596686,1126.7057)">
      <path
         d="m 0,0 -2.861,0 0,35.845 c 0,0.28 -0.28,0.505 -0.505,0.505 l -0.112,0 -6.283,-1.291 c -0.224,-0.056 -0.561,0.169 -0.617,0.449 0,0.112 0,0.28 0.056,0.337 L 0,53.851 10.322,35.845 c 0.112,-0.225 0,-0.562 -0.225,-0.673 C 9.985,35.059 9.873,35.059 9.761,35.059 L 3.534,36.35 C 3.253,36.406 2.973,36.237 2.917,35.957 2.861,35.901 2.861,35.845 2.861,35.845 L 2.861,0 0,0 z"
         style="fill:#000000;fill-opacity:1;fill-rule:nonzero;stroke:none"
         id="path4736" />
    </g>
    <g
       id="g4738"
       transform="matrix(6.1222781,0,0,-6.126144,277.81786,1126.7057)">
      <path
         d="m 0,0 2.861,0 0,35.845 c 0,0.28 0.28,0.505 0.504,0.505 l 0.112,0 6.283,-1.291 c 0.225,-0.056 0.562,0.169 0.618,0.449 0,0.112 0,0.28 -0.056,0.337 L 0,53.851 -10.266,35.845 c -0.168,-0.225 -0.056,-0.562 0.169,-0.673 0.112,-0.113 0.224,-0.113 0.336,-0.113 l 6.227,1.291 c 0.337,0.056 0.561,-0.113 0.617,-0.393 0.056,-0.056 0.056,-0.112 0.056,-0.112 L -2.861,0 0,0 z"
         style="fill:#000000;fill-opacity:1;fill-rule:nonzero;stroke:none"
         id="path4740" />
    </g>
    <g
       id="g4742"
       transform="matrix(6.1222781,0,0,-6.126144,509.29015,1126.7057)">
      <path
         d="m 0,0 2.917,0 0,35.845 c 0,0.28 0.225,0.505 0.505,0.505 l 0.112,0 6.226,-1.291 c 0.281,-0.056 0.562,0.169 0.618,0.449 0.056,0.112 0,0.28 -0.056,0.337 L 0,53.851 -10.266,35.845 c -0.168,-0.225 -0.056,-0.562 0.169,-0.673 0.112,-0.113 0.28,-0.113 0.393,-0.113 l 6.17,1.291 c 0.336,0.056 0.617,-0.113 0.673,-0.393 l 0,-0.112 L -2.861,0 0,0 z"
         style="fill:#000000;fill-opacity:1;fill-rule:nonzero;stroke:none"
         id="path4744" />
    </g>
    <g
       id="g4746"
       transform="matrix(6.1222781,0,0,-6.126144,507.37206,1074.6464)">
      <path
         d="m 0,0 c 5.245,0 9.564,4.32 9.564,9.564 0,5.307 -4.319,9.565 -9.564,9.565 -5.307,0 -9.626,-4.258 -9.626,-9.565 C -9.626,4.32 -5.307,0 0,0"
         style="fill:#ffffff;fill-opacity:1;fill-rule:nonzero;stroke:none"
         id="path4748" />
    </g>
    <g
       id="g4750"
       transform="matrix(6.1222781,0,0,-6.126144,507.37206,1074.6464)">
      <path
         d="m 0,0 c 5.245,0 9.564,4.32 9.564,9.564 0,5.307 -4.319,9.565 -9.564,9.565 -5.307,0 -9.626,-4.258 -9.626,-9.565 C -9.626,4.32 -5.307,0 0,0 z"
         style="fill:none;stroke:#000000;stroke-width:0.03408602;stroke-linecap:butt;stroke-linejoin:miter;stroke-miterlimit:4;stroke-opacity:1;stroke-dasharray:none"
         id="path4752" />
    </g>
    <path
       id="path4756"
       style="fill:#00408c;fill-opacity:1;fill-rule:nonzero;stroke:none"
       d="m 507.37206,1071.6207 c 30.59915,0 55.53518,-24.9457 55.53518,-55.5641 0,-30.62462 -24.93603,-55.95623 -55.53518,-55.95623 -30.97873,0 -55.90864,25.33161 -55.90864,55.95623 0,30.6184 24.92991,55.5641 55.90864,55.5641" />
    <g
       id="g16542"
       transform="matrix(0.97542558,0,0,0.97542558,395.59528,763.43665)"
       style="fill:#ffffff">
      <path
         d="m 88.906546,264.94221 c -2.947001,0 -5.326653,2.60226 -5.326648,5.82495 0,3.2227 2.379641,5.86104 5.326648,5.86104 2.946996,0 5.343141,-2.63833 5.343141,-5.86104 0,-3.22269 -2.39615,-5.82495 -5.343141,-5.82495 z m 0,3.08381 c 1.393853,0 2.52315,1.21689 2.52315,2.74114 0,1.52425 -1.129297,2.77723 -2.52315,2.77723 -1.393852,0 -2.523161,-1.25298 -2.52315,-2.77723 0,-1.52425 1.129293,-2.74114 2.52315,-2.74114 z"
         style="fill:#ffffff;fill-opacity:1;fill-rule:evenodd;stroke:#ffffff;stroke-width:0;stroke-miterlimit:4;stroke-opacity:1;stroke-dasharray:none"
         id="path4153-9" />
      <path
         d="m 67.117829,266.69607 c -0.113166,-2.0468 -0.205758,-4.63998 -0.205758,-5.76263 l 0,-2.04117 1.09487,0 1.094871,0 0.08861,4.27832 0.08861,4.27831 1.341283,0.1074 1.341282,0.10739 0,-9.4699 0,-9.4699 -1.341282,0.1074 -1.341283,0.10739 -0.08833,4.45294 -0.08833,4.45295 -1.204455,0 -1.204454,0 -0.206298,-4.24584 c -0.113464,-2.33521 -0.206298,-4.9284 -0.206298,-5.76263 l 0,-1.51679 6.311901,0 6.3119,0 0,12.0491 0,12.04911 -5.790563,0 -5.790563,0 -0.205758,-3.72145 z m 9.893335,-8.50232 0,-9.42975 -1.262385,0 -1.262386,0 0,9.42975 0,9.42974 1.262386,0 1.262385,0 0,-9.42974 z m 2.840364,6.46113 0,-5.76263 13.886248,0 13.886244,0 0,5.76263 0,5.76263 -5.67472,0 -5.674721,0 -0.192154,-0.96044 c -0.462661,-2.31249 -0.862703,-3.23286 -1.937514,-4.45756 -2.996983,-3.41497 -7.208768,-3.48916 -10.199316,-0.17967 -1.32001,1.46077 -2.200436,3.47214 -2.200436,5.027 0,0.40125 -0.281092,0.57067 -0.946787,0.57067 l -0.946788,0 0,-5.76263 z m 29.034832,-6.28648 0,-12.0491 6.15413,0 6.15413,0 0,12.0491 0,12.04911 -6.15413,0 -6.15413,0 0,-12.04911 z m 5.04954,0 0,-9.6044 -1.26239,0 -1.26238,0 0,9.6044 0,9.60441 1.26238,0 1.26239,0 0,-9.60441 z m 4.73394,0 0,-9.6044 -1.42018,0 -1.42019,0 0,9.6044 0,9.60441 1.42019,0 1.42018,0 0,-9.60441 z m 3.78715,6.28648 0,-5.76263 13.88625,0 13.88625,0 0,5.76263 0,5.76263 -0.94679,0 c -0.66569,0 -0.94679,-0.16942 -0.94679,-0.57067 0,-1.55486 -0.88043,-3.56623 -2.20044,-5.027 -2.33616,-2.58529 -5.2587,-3.12641 -8.18116,-1.51478 -1.98461,1.09443 -3.29291,2.93371 -3.82162,5.37265 l -0.37715,1.7398 -5.64923,0 -5.64923,0 0,-5.76263 z m 28.40364,-6.28648 0,-12.0491 5.80907,0 5.80907,0 0.19004,3.40519 c 0.10452,1.87286 0.26078,4.46604 0.34725,5.76263 l 0.15721,2.35744 -1.25488,0 -1.25487,0 -0.0886,-4.27832 -0.0886,-4.27832 -1.26239,0 -1.26238,0 -0.0841,9.34245 -0.084,9.34245 1.42534,0 1.42533,0 0,-4.54025 0,-4.54026 1.23126,0 1.23125,0 0.19413,4.10369 c 0.10677,2.25703 0.24195,4.85022 0.3004,5.76263 l 0.10627,1.65894 -6.42338,0 -6.42338,0 0,-12.0491 z m 4.73394,0.17463 0,-9.42975 -1.42018,0 -1.42018,0 0,9.42975 0,9.42975 1.42018,0 1.42018,0 0,-9.42975 z m -75.743081,-6.46135 0,-5.76263 13.886248,0 13.886253,0 0,5.76263 0,5.76263 -13.886253,0 -13.886248,0 0,-5.76263 z m 12.939454,0 0,-3.31788 -5.365135,0 -5.365135,0 0,3.31788 0,3.31788 5.365135,0 5.365135,0 0,-3.31788 z m 12.308257,0 0,-3.31788 -5.207334,0 -5.207336,0 0,3.31788 0,3.31788 5.207336,0 5.207334,0 0,-3.31788 z m 17.35777,0 0,-5.76263 13.88625,0 13.88625,0 0,5.76263 0,5.76263 -13.88625,0 -13.88625,0 0,-5.76263 z m 12.93946,0 0,-3.31788 -5.36514,0 -5.36513,0 0,3.31788 0,3.31788 5.36513,0 5.36514,0 0,-3.31788 z m 12.30825,0 0,-3.31788 -5.20733,0 -5.20734,0 0,3.31788 0,3.31788 5.20734,0 5.20733,0 0,-3.31788 z"
         style="fill:#ffffff"
         id="path5800" />
      <path
         d="m 141.06819,264.73059 c -2.94701,0 -5.32666,2.50801 -5.32665,5.61399 0,3.10597 2.37964,5.64876 5.32665,5.64876 2.94699,0 5.34314,-2.54278 5.34314,-5.64876 0,-3.10598 -2.39615,-5.61399 -5.34314,-5.61399 z m 0,2.97212 c 1.39385,0 2.52315,1.17282 2.52315,2.64187 0,1.46904 -1.1293,2.67664 -2.52315,2.67664 -1.39386,0 -2.52317,-1.2076 -2.52315,-2.67664 0,-1.46905 1.12928,-2.64187 2.52315,-2.64187 z"
         style="fill:#ffffff;fill-opacity:1;fill-rule:evenodd;stroke:#ffffff;stroke-width:0;stroke-miterlimit:4;stroke-opacity:1;stroke-dasharray:none"
         id="path5807" />
    </g>
  </g>
</svg>
