<?xml version="1.0" encoding="UTF-8" standalone="no"?>
<!-- Created with Inkscape (http://www.inkscape.org/) -->
<svg
   xmlns:dc="http://purl.org/dc/elements/1.1/"
   xmlns:cc="http://creativecommons.org/ns#"
   xmlns:rdf="http://www.w3.org/1999/02/22-rdf-syntax-ns#"
   xmlns:svg="http://www.w3.org/2000/svg"
   xmlns="http://www.w3.org/2000/svg"
   xmlns:sodipodi="http://sodipodi.sourceforge.net/DTD/sodipodi-0.dtd"
   xmlns:inkscape="http://www.inkscape.org/namespaces/inkscape"
   version="1.1"
   width="200"
   height="200"
   id="svg2"
   inkscape:version="0.46"
   sodipodi:docname="Italian_traffic_signs_-_icona_trasporto_container.svg"
   sodipodi:version="0.32"
   inkscape:output_extension="org.inkscape.output.svg.inkscape">
  <metadata
     id="metadata2877">
    <rdf:RDF>
      <cc:Work
         rdf:about="">
        <dc:format>image/svg+xml</dc:format>
        <dc:type
           rdf:resource="http://purl.org/dc/dcmitype/StillImage" />
      </cc:Work>
    </rdf:RDF>
  </metadata>
  <sodipodi:namedview
     pagecolor="#ffffff"
     bordercolor="#666666"
     borderopacity="1"
     objecttolerance="10"
     gridtolerance="10"
     guidetolerance="10"
     inkscape:pageopacity="0"
     inkscape:pageshadow="2"
     inkscape:window-width="1024"
     inkscape:window-height="708"
     id="namedview2875"
     showgrid="false"
     inkscape:zoom="1.9914447"
     inkscape:cx="115.51255"
     inkscape:cy="118.43692"
     inkscape:window-x="-4"
     inkscape:window-y="-4"
     inkscape:window-maximized="1"
     inkscape:current-layer="svg2" />
  <defs
     id="defs4">
    <inkscape:perspective
       sodipodi:type="inkscape:persp3d"
       inkscape:vp_x="0 : 100 : 1"
       inkscape:vp_y="0 : 1000 : 0"
       inkscape:vp_z="200 : 100 : 1"
       inkscape:persp3d-origin="100 : 66.666667 : 1"
       id="perspective2879" />
  </defs>
  <rect
     style="fill:#ffffff;fill-opacity:1;stroke:none"
     id="rect2881"
     width="200.9709"
     height="200.61583"
     x="0"
     y="-0.61582947"
     rx="0"
     ry="0" />
  <rect
     width="194.80612"
     height="194.80614"
     ry="18.580454"
     x="3.2339785"
     y="2.8621521"
     id="rect4614"
     style="fill:none;stroke:#000000;stroke-width:3;stroke-miterlimit:4;stroke-opacity:1;stroke-dasharray:none" />
  <g
     id="g5746"
     transform="translate(0.1457505,5.9063941)">
    <path
       d="M 29.971974,111.84431 C 24.981652,111.84731 20.921756,115.88024 20.924152,120.87057 C 20.926652,125.86088 24.990358,129.92076 29.980685,129.91836 C 34.971015,129.91536 39.000621,125.85219 38.998226,120.86185 C 38.995726,115.87154 34.962303,111.8419 29.971974,111.84431 L 29.971974,111.84431 z M 29.974374,116.59739 C 32.334671,116.59643 34.244048,118.50378 34.245183,120.86407 C 34.246383,123.22436 32.338788,125.16403 29.978502,125.16517 C 27.618214,125.16613 25.708826,123.22849 25.707687,120.86818 C 25.706487,118.5079 27.614086,116.59852 29.974374,116.59739 z"
       id="rect1885"
       style="fill:#000000;fill-opacity:1;fill-rule:evenodd;stroke:none" />
    <path
       d="M 56.387823,111.84395 C 51.397501,111.84695 47.337605,115.87988 47.340001,120.87021 C 47.342501,125.86052 51.406207,129.9204 56.396534,129.918 C 61.386864,129.915 65.41647,125.85183 65.414075,120.86149 C 65.411575,115.87118 61.378152,111.84154 56.387823,111.84395 z M 56.390223,116.59703 C 58.75052,116.59607 60.659897,118.50342 60.661032,120.86371 C 60.662232,123.224 58.754637,125.16367 56.394351,125.16481 C 54.034063,125.16577 52.124675,123.22813 52.123536,120.86782 C 52.122336,118.50754 54.029935,116.59816 56.390223,116.59703 z"
       id="path5712"
       style="fill:#000000;fill-opacity:1;fill-rule:evenodd;stroke:none" />
    <path
       d="M 122.58782,111.84395 C 117.5975,111.84695 113.53761,115.87988 113.54,120.87021 C 113.542,125.86052 117.60621,129.9204 122.59653,129.918 C 127.58686,129.915 131.61647,125.85183 131.61407,120.86149 C 131.61207,115.87118 127.57815,111.84154 122.58782,111.84395 z M 122.58982,116.59703 C 124.95012,116.59607 126.8595,118.50342 126.86063,120.86371 C 126.86163,123.224 124.95424,125.16367 122.59395,125.16481 C 120.23366,125.16577 118.32427,123.22813 118.32314,120.86782 C 118.32214,118.50754 120.22953,116.59816 122.58982,116.59703 z"
       id="path5714"
       style="fill:#000000;fill-opacity:1;fill-rule:evenodd;stroke:none" />
    <path
       d="M 148.58782,111.84395 C 143.5975,111.84695 139.53761,115.87988 139.54,120.87021 C 139.542,125.86052 143.60621,129.9204 148.59653,129.918 C 153.58686,129.915 157.61647,125.85183 157.61407,120.86149 C 157.61207,115.87118 153.57815,111.84154 148.58782,111.84395 z M 148.58982,116.59703 C 150.95012,116.59607 152.8595,118.50342 152.86063,120.86371 C 152.86163,123.224 150.95424,125.16367 148.59395,125.16481 C 146.23366,125.16577 144.32427,123.22813 144.32314,120.86782 C 144.32214,118.50754 146.22953,116.59816 148.58982,116.59703 z"
       id="path5716"
       style="fill:#000000;fill-opacity:1;fill-rule:evenodd;stroke:none" />
    <path
       d="M 16.527018,109.90366 L 16.548168,98.94238 L 19.231663,92.55986 L 21.915156,86.17734 L 32.021973,86.02578 L 42.12879,85.87422 L 42.12879,98.65207 L 42.12879,111.42992 L 46.671252,111.42992 L 51.213716,111.42992 L 48.736521,113.65559 C 47.030662,115.18823 46.033946,116.66587 45.535509,118.40111 C 44.817888,120.89939 44.792195,120.91953 42.533476,120.7542 C 40.381382,120.59668 40.842568,120.32804 40.153628,118.04386 C 38.429687,112.32814 31.081743,109.32981 25.44671,111.62474 C 22.9976,112.62218 20.135191,115.88093 19.288421,118.63574 C 18.810883,120.18932 18.285378,120.86495 17.554541,120.86495 C 16.570601,120.86495 16.507178,120.18838 16.527022,109.90366 L 16.527018,109.90366 z M 39.281793,95.04213 L 39.281793,90.30938 L 31.21891,90.46336 L 23.156024,90.61735 L 21.578319,95.19612 L 20.000613,99.77488 L 29.641203,99.77488 L 39.281793,99.77488 L 39.281793,95.04213 L 39.281793,95.04213 z M 66.045133,118.3731 C 65.555293,116.6678 65.049582,115.05318 63.354314,113.53005 L 60.374971,111.42992 L 89.533729,111.42992 L 118.6925,111.42992 L 116.62831,112.7971 C 114.61832,114.1284 112.16476,118.04936 112.16476,119.93017 C 112.16476,120.79091 110.36664,120.86495 89.462828,120.86495 L 66.760902,120.86495 L 66.045133,118.3731 L 66.045133,118.3731 z M 133.00951,119.06119 C 132.50754,116.4722 130.68487,113.81151 128.54016,112.53692 L 126.68441,111.43407 L 135.79479,111.43407 L 144.90516,111.43407 L 143.13351,112.48707 C 140.81427,113.86554 138.93649,116.48974 138.53236,118.91717 C 138.2206,120.78974 138.11447,120.86495 135.78366,120.86495 C 133.49975,120.86495 133.33896,120.76041 133.00951,119.06119 L 133.00951,119.06119 z M 158.85704,118.3731 C 158.36719,116.6678 157.35934,115.17872 155.66407,113.65559 L 153.18688,111.42992 L 169.11729,111.42992 L 185.04772,111.42992 L 185.04372,113.51117 L 185.03972,115.59243 L 178.48926,118.22869 C 172.05088,120.81984 171.83302,120.86495 165.756,120.86495 L 159.57319,120.86495 L 158.85742,118.3731 L 158.85724,118.3731 L 158.85704,118.3731 L 158.85704,118.3731 z M 44.975775,90.06235 L 44.975775,71.46979 L 64.050612,71.46979 L 83.125449,71.46979 L 83.125449,90.06235 L 83.125449,108.65491 L 64.050612,108.65491 L 44.975775,108.65491 L 44.975775,90.06235 L 44.975775,90.06235 z M 95.652209,90.06235 L 95.652209,71.46979 L 115.01176,71.46979 L 134.37129,71.46979 L 134.37129,90.06235 L 134.37129,108.65491 L 115.01176,108.65491 L 95.652209,108.65491 L 95.652209,90.06235 L 95.652209,90.06235 z M 146.89805,90.06235 L 146.89805,71.46979 L 165.97288,71.46979 L 185.04772,71.46979 L 185.04772,90.06235 L 185.04772,108.65491 L 165.97288,108.65491 L 146.89805,108.65491 L 146.89805,90.06235 L 146.89805,90.06235 z"
       id="path5739"
       style="fill:#000000" />
  </g>
</svg>
