<?xml version="1.0" encoding="UTF-8" standalone="no"?>
<!-- Created with Inkscape (http://www.inkscape.org/) -->

<svg
   xmlns:dc="http://purl.org/dc/elements/1.1/"
   xmlns:cc="http://creativecommons.org/ns#"
   xmlns:rdf="http://www.w3.org/1999/02/22-rdf-syntax-ns#"
   xmlns:svg="http://www.w3.org/2000/svg"
   xmlns="http://www.w3.org/2000/svg"
   xmlns:sodipodi="http://sodipodi.sourceforge.net/DTD/sodipodi-0.dtd"
   xmlns:inkscape="http://www.inkscape.org/namespaces/inkscape"
   width="900"
   height="779.88"
   id="svg2"
   version="1.1"
   inkscape:version="0.48.5 r10040"
   sodipodi:docname="CANC Tornante.svg">
  <defs
     id="defs4" />
  <sodipodi:namedview
     id="base"
     pagecolor="#ffffff"
     bordercolor="#666666"
     borderopacity="1.0"
     inkscape:pageopacity="0.0"
     inkscape:pageshadow="2"
     inkscape:zoom="0.35000001"
     inkscape:cx="105.91233"
     inkscape:cy="554.66386"
     inkscape:document-units="px"
     inkscape:current-layer="layer1"
     showgrid="false"
     inkscape:object-paths="true"
     inkscape:snap-intersection-paths="true"
     inkscape:object-nodes="true"
     inkscape:snap-nodes="false"
     inkscape:snap-smooth-nodes="true"
     inkscape:window-width="1366"
     inkscape:window-height="705"
     inkscape:window-x="-8"
     inkscape:window-y="-8"
     inkscape:window-maximized="1"
     fit-margin-top="0"
     fit-margin-left="0"
     fit-margin-right="0"
     fit-margin-bottom="0" />
  <metadata
     id="metadata7">
    <rdf:RDF>
      <cc:Work
         rdf:about="">
        <dc:format>image/svg+xml</dc:format>
        <dc:type
           rdf:resource="http://purl.org/dc/dcmitype/StillImage" />
        <dc:title></dc:title>
      </cc:Work>
    </rdf:RDF>
  </metadata>
  <g
     inkscape:label="Livello 1"
     inkscape:groupmode="layer"
     id="layer1"
     transform="translate(0,-272.48218)">
    <rect
       style="fill:none;fill-opacity:1;stroke:none"
       id="rect3923"
       width="900"
       height="779.88"
       x="0"
       y="272.48218" />
    <rect
       style="fill:#ffffff;fill-opacity:1;fill-rule:evenodd;stroke:#000000;stroke-width:1;stroke-linecap:butt;stroke-linejoin:miter;stroke-miterlimit:4;stroke-opacity:1;stroke-dasharray:none"
       id="rect2985"
       width="799"
       height="269"
       x="50.5"
       y="320.6286" />
    <rect
       style="fill:none;stroke:#000000;stroke-width:8;stroke-miterlimit:4;stroke-opacity:1;stroke-dasharray:none"
       id="rect3755"
       width="784"
       height="254"
       x="58"
       y="328.12866"
       ry="25.999937"
       rx="25.999937" />
    <g
       style="font-size:141.8405304px;font-style:normal;font-weight:normal;line-height:125%;letter-spacing:0px;word-spacing:0px;fill:#000000;fill-opacity:1;stroke:none;font-family:Sans"
       id="text3763-7-4"
       transform="translate(-114.89046,0)">
      <path
         d="m 297.76874,403.28458 0,26.80721 18.58281,0 0,20.00259 -18.15427,0 0,29.64246 c -4e-5,3.21475 2.26816,4.82212 6.8046,4.82209 1.41974,3e-5 3.31135,-0.16518 5.67484,-0.49563 2.36337,-0.33039 3.78172,-0.4956 4.25504,-0.49562 l 3.97368,18.86416 c -5.67345,2.8367 -12.90802,4.25505 -21.70375,4.25505 -5.95623,0 -11.15635,-1.51358 -15.60038,-4.54074 -4.91734,-3.40229 -7.376,-7.7035 -7.37598,-12.90364 l 0,-39.14813 -11.77387,0 0,-20.00259 11.77387,0 0,-20.85101 z"
         style="font-variant:normal;font-stretch:normal;fill:#000000;font-family:CodiceNero;-inkscape-font-specification:CodiceNero"
         id="path4189"
         inkscape:connector-curvature="0" />
      <path
         d="m 392.73888,442.15135 c 6.52461,7.09036 9.78695,15.41142 9.78703,24.96321 -8e-5,12.38568 -4.01849,22.40933 -12.05524,30.07098 -6.99801,6.61704 -14.98865,9.92555 -23.97195,9.92555 -13.3322,0 -23.63866,-5.1525 -30.9194,-15.45753 -2.5539,-3.68797 -4.25649,-6.80891 -5.10778,-9.36283 -1.22934,-3.40516 -1.844,-8.03823 -1.844,-13.89923 0,-12.10568 4.06602,-21.79891 12.19808,-29.07973 6.81036,-6.14658 15.17903,-9.2199 25.10605,-9.21998 10.40309,8e-5 19.33882,4.01993 26.80721,12.05956 z m -42.12623,21.84226 0,7.80019 c -2e-5,3.87849 1.51355,7.23606 4.54074,10.07272 3.02712,2.83673 6.47847,4.25507 10.35408,4.25505 3.97075,2e-5 7.4221,-1.41832 10.35408,-4.25505 2.93187,-2.83666 4.39783,-6.19423 4.39789,-10.07272 l 0,-7.80019 c -6e-5,-4.06597 -1.60742,-7.46971 -4.8221,-10.21123 -2.93197,-2.45861 -6.24193,-3.68794 -9.92987,-3.688 -3.87561,6e-5 -7.27935,1.22939 -10.21124,3.688 -3.12241,2.74152 -4.6836,6.14526 -4.68358,10.21123 z"
         style="font-variant:normal;font-stretch:normal;fill:#000000;font-family:CodiceNero;-inkscape-font-specification:CodiceNero"
         id="path4191"
         inkscape:connector-curvature="0" />
      <path
         d="m 464.64607,454.91648 c -2.08068,-0.56844 -4.16131,-0.85269 -6.24188,-0.85274 -4.82214,5e-5 -8.79294,1.277 -11.91239,3.83083 -3.50046,2.74152 -5.25066,6.61852 -5.25063,11.63103 l 0,35.46013 -22.97636,0 0,-72.05436 23.26205,0 0,4.5364 c 2.08059,-1.22925 4.1136,-2.45858 6.09904,-3.68799 3.59272,-1.70252 7.37449,-2.55381 11.34534,-2.55389 1.89011,8e-5 3.78172,0.19054 5.67483,0.57138 z"
         style="font-variant:normal;font-stretch:normal;fill:#000000;font-family:CodiceNero;-inkscape-font-specification:CodiceNero"
         id="path4193"
         inkscape:connector-curvature="0" />
      <path
         d="m 523.72321,504.98573 0,-40.00086 c -6e-5,-3.49748 -0.96967,-6.42869 -2.90884,-8.79361 -1.93928,-2.36482 -4.70527,-3.54726 -8.29798,-3.54731 -3.97084,5e-5 -6.94893,1.37223 -8.93429,4.11652 -1.41983,2.08068 -2.12972,4.49173 -2.12969,7.23314 l 0,40.99212 -22.695,0 0,-71.91585 20.00259,0 1.1341,4.39789 c 5.00964,-3.97072 11.58049,-5.95611 19.71258,-5.95619 9.26898,8e-5 16.40833,3.59284 21.41806,10.77829 3.68792,5.29541 5.53191,10.63838 5.53199,16.02891 l 0,46.66695 z"
         style="font-variant:normal;font-stretch:normal;fill:#000000;font-family:CodiceNero;-inkscape-font-specification:CodiceNero"
         id="path4195"
         inkscape:connector-curvature="0" />
      <path
         d="m 614.99668,436.33367 c 1.6073,0.56857 3.49891,1.89313 5.67483,3.97368 3.5927,3.4976 5.38908,7.46839 5.38915,11.91239 l 0,33.04909 c -7e-5,1.70261 1.08785,2.79054 3.26378,3.26378 0.19039,0.0924 1.70396,0.23377 4.54074,0.42421 -0.85138,2.45868 -3.31004,8.27347 -7.37599,17.44438 -7.37605,0 -13.57031,-2.07918 -18.5828,-6.23756 -6.61997,4.34884 -13.23988,6.52325 -19.85976,6.52325 -6.90274,0 -12.97797,-2.22203 -18.22569,-6.66609 -5.24775,-4.44405 -7.87162,-9.97603 -7.87161,-16.59597 -1e-5,-10.96871 6.7613,-18.5337 20.28395,-22.695 5.01252,-0.75602 11.82145,-1.93773 20.42681,-3.54515 -5e-5,-4.1612 -2.64773,-6.24183 -7.94304,-6.24188 -5.29539,5e-5 -10.35555,1.37079 -15.1805,4.11219 -0.28283,0.19052 -2.26823,1.70409 -5.9562,4.54074 l -10.77828,-16.31028 c 0.18756,-0.4732 1.60591,-1.51351 4.25504,-3.12094 3.21471,-2.08056 6.80747,-3.97217 10.77829,-5.67484 4.72972,-2.08055 10.30932,-3.12086 16.73881,-3.12094 7.37593,8e-5 14.18342,1.65506 20.42247,4.96494 z m -30.35235,46.0999 c 0.0952,1.51217 1.0879,2.78767 2.9781,3.82651 1.60733,0.94655 3.26231,1.41982 4.96494,1.41979 2.64908,3e-5 4.91872,-0.59083 6.80893,-1.77257 1.89012,-1.18169 3.07184,-2.52861 3.54515,-4.04078 l 0,-7.23746 c -3.97084,0.75898 -7.94164,1.51649 -11.91239,2.27253 -4.35175,0.94367 -6.47999,2.78766 -6.38473,5.53198 z"
         style="font-variant:normal;font-stretch:normal;fill:#000000;font-family:CodiceNero;-inkscape-font-specification:CodiceNero"
         id="path4197"
         inkscape:connector-curvature="0" />
      <path
         d="m 692.71289,504.98573 0,-40.00086 c -5e-5,-3.49748 -0.96966,-6.42869 -2.90883,-8.79361 -1.93928,-2.36482 -4.70527,-3.54726 -8.29799,-3.54731 -3.97083,5e-5 -6.94893,1.37223 -8.93429,4.11652 -1.41982,2.08068 -2.12972,4.49173 -2.12968,7.23314 l 0,40.99212 -22.69501,0 0,-71.91585 20.0026,0 1.1341,4.39789 c 5.00963,-3.97072 11.58048,-5.95611 19.71258,-5.95619 9.26898,8e-5 16.40832,3.59284 21.41806,10.77829 3.68791,5.29541 5.53191,10.63838 5.53199,16.02891 l 0,46.66695 z"
         style="font-variant:normal;font-stretch:normal;fill:#000000;font-family:CodiceNero;-inkscape-font-specification:CodiceNero"
         id="path4199"
         inkscape:connector-curvature="0" />
      <path
         d="m 765.1222,403.28458 0,26.80721 18.5828,0 0,20.00259 -18.15427,0 0,29.64246 c -4e-5,3.21475 2.26816,4.82212 6.80461,4.82209 1.41974,3e-5 3.31135,-0.16518 5.67483,-0.49563 2.36338,-0.33039 3.78172,-0.4956 4.25504,-0.49562 l 3.97369,18.86416 c -5.67345,2.8367 -12.90803,4.25505 -21.70375,4.25505 -5.95623,0 -11.15635,-1.51358 -15.60038,-4.54074 -4.91735,-3.40229 -7.37601,-7.7035 -7.37599,-12.90364 l 0,-39.14813 -11.77387,0 0,-20.00259 11.77387,0 0,-20.85101 z"
         style="font-variant:normal;font-stretch:normal;fill:#000000;font-family:CodiceNero;-inkscape-font-specification:CodiceNero"
         id="path4201"
         inkscape:connector-curvature="0" />
      <path
         d="m 832.29388,431.36873 c 9.07853,8e-5 16.97394,3.21481 23.68626,9.64419 7.56637,7.18847 11.34959,16.64508 11.34967,28.36984 -8e-5,1.51217 -0.23671,3.92322 -0.7099,7.23314 l -47.37685,0 c 2.17583,6.71517 6.99936,9.97751 14.47061,9.78703 5.86092,-0.18755 11.62809,-2.45719 17.30153,-6.80894 l 15.1805,14.89482 c -11.72776,8.13206 -22.65032,12.19808 -32.76772,12.19808 -9.54899,0 -17.87005,-2.97809 -24.96321,-8.9343 -7.75402,-6.61989 -11.77243,-15.3666 -12.05523,-26.24015 0,-1.41975 0,-3.5956 0,-6.52757 0.0923,-7.18547 2.78619,-14.1358 8.08155,-20.85101 6.81036,-8.51001 16.07795,-12.76505 27.80279,-12.76513 z m -12.76513,28.08415 24.82036,0 c -0.56566,-2.64618 -1.98328,-4.89129 -4.25288,-6.73535 -2.26969,-1.84393 -4.9657,-2.81355 -8.08804,-2.90884 -3.21477,-0.0952 -6.00384,0.94515 -8.36724,3.12095 -1.98543,1.79788 -3.35616,3.97229 -4.1122,6.52324 z"
         style="font-variant:normal;font-stretch:normal;fill:#000000;font-family:CodiceNero;-inkscape-font-specification:CodiceNero"
         id="path4203"
         inkscape:connector-curvature="0" />
    </g>
    <rect
       y="720.62866"
       x="50.5"
       height="269"
       width="799"
       id="rect3880"
       style="fill:#ffffff;fill-opacity:1;fill-rule:evenodd;stroke:#000000;stroke-width:1;stroke-linecap:butt;stroke-linejoin:miter;stroke-miterlimit:4;stroke-opacity:1;stroke-dasharray:none" />
    <rect
       rx="25.999937"
       ry="25.999937"
       y="728.12872"
       x="58"
       height="254"
       width="784"
       id="rect3882"
       style="fill:none;stroke:#000000;stroke-width:8;stroke-miterlimit:4;stroke-opacity:1;stroke-dasharray:none" />
    <g
       style="font-size:141.8405304px;font-style:normal;font-weight:normal;line-height:125%;letter-spacing:0px;word-spacing:0px;fill:#000000;fill-opacity:1;stroke:none;font-family:Sans"
       id="text3884"
       transform="translate(-183.60995,0)">
      <path
         d="m 318.18992,802.43623 c 6.90266,0.28292 12.81268,1.41702 17.73006,3.40231 12.00754,4.91742 18.24798,13.85315 18.72133,26.8072 0.2856,6.24195 -1.17892,11.11166 -4.39356,14.60912 -2.45874,1.98546 -4.87123,3.92469 -7.23747,5.81768 8.32243,2.74152 12.48368,9.59662 12.48377,20.56532 -9e-5,8.98338 -2.31735,16.26412 -6.95178,21.84226 -6.42953,7.66169 -16.78361,11.49252 -31.06225,11.49252 -13.52267,0 -23.82913,-3.78322 -30.9194,-11.34967 -5.10779,-5.57814 -8.27635,-12.7651 -9.50567,-21.5609 l 24.1148,-3.40231 c -4e-5,4.34887 1.51282,7.6581 4.53856,9.92772 3.02568,2.26967 7.0448,3.40449 12.0574,3.40446 3.59271,3e-5 6.80744,-0.94578 9.64419,-2.83741 2.83663,-1.89158 4.25498,-4.34952 4.25504,-7.37382 -6e-5,-6.99791 -5.72106,-10.49688 -17.16302,-10.49693 -1.51217,5e-5 -3.26094,0.0477 -5.24629,0.14284 l 0,-20.14111 c 6.33418,7e-5 11.01486,-0.52081 14.04207,-1.56263 4.63157,-1.51207 6.94739,-4.39638 6.94745,-8.65293 -6e-5,-6.42938 -4.2551,-9.6441 -12.76513,-9.64419 -10.59075,9e-5 -15.8861,4.53937 -15.88607,13.61787 l -23.4049,-2.41105 c 0.47326,-6.2418 2.08062,-11.63238 4.8221,-16.17176 6.52466,-10.68295 18.25091,-16.02448 35.17877,-16.02459 z"
         style="font-variant:normal;font-stretch:normal;fill:#000000;font-family:CodiceNero;-inkscape-font-specification:CodiceNero"
         id="path4206"
         inkscape:connector-curvature="0" />
      <path
         d="m 463.86994,803.28465 0,26.8072 18.58281,0 0,20.00259 -18.15428,0 0,29.64246 c -4e-5,3.21476 2.26816,4.82212 6.80461,4.82209 1.41974,3e-5 3.31135,-0.16518 5.67483,-0.49563 2.36338,-0.33039 3.78172,-0.4956 4.25505,-0.49562 l 3.97368,18.86416 c -5.67345,2.8367 -12.90802,4.25505 -21.70375,4.25505 -5.95623,0 -11.15635,-1.51358 -15.60038,-4.54074 -4.91734,-3.40229 -7.376,-7.7035 -7.37599,-12.90364 l 0,-39.14813 -11.77387,0 0,-20.00259 11.77387,0 0,-20.85101 z"
         style="font-variant:normal;font-stretch:normal;fill:#000000;font-family:CodiceNero;-inkscape-font-specification:CodiceNero"
         id="path4208"
         inkscape:connector-curvature="0" />
      <path
         d="m 558.84008,842.15141 c 6.52461,7.09036 9.78695,15.41142 9.78703,24.96321 -8e-5,12.38568 -4.01849,22.40933 -12.05523,30.07098 -6.99801,6.61704 -14.98866,9.92556 -23.97195,9.92555 -13.33221,1e-5 -23.63867,-5.1525 -30.9194,-15.45753 -2.5539,-3.68797 -4.2565,-6.80891 -5.10779,-9.36283 -1.22933,-3.40516 -1.844,-8.03823 -1.84399,-13.89923 -10e-6,-12.10568 4.06602,-21.79891 12.19808,-29.07973 6.81035,-6.14658 15.17902,-9.2199 25.10605,-9.21998 10.40308,8e-5 19.33881,4.01993 26.8072,12.05956 z m -42.12622,21.84226 0,7.80019 c -3e-5,3.87849 1.51355,7.23606 4.54073,10.07273 3.02712,2.83672 6.47848,4.25506 10.35408,4.25504 3.97075,2e-5 7.42211,-1.41832 10.35408,-4.25504 2.93187,-2.83667 4.39783,-6.19424 4.39789,-10.07273 l 0,-7.80019 c -6e-5,-4.06597 -1.60742,-7.46971 -4.82209,-10.21123 -2.93198,-2.45861 -6.24193,-3.68793 -9.92988,-3.688 -3.8756,7e-5 -7.27935,1.22939 -10.21124,3.688 -3.12241,2.74152 -4.6836,6.14526 -4.68357,10.21123 z"
         style="font-variant:normal;font-stretch:normal;fill:#000000;font-family:CodiceNero;-inkscape-font-specification:CodiceNero"
         id="path4210"
         inkscape:connector-curvature="0" />
      <path
         d="m 630.74727,854.91654 c -2.08069,-0.56844 -4.16131,-0.85269 -6.24189,-0.85274 -4.82214,5e-5 -8.79293,1.277 -11.91239,3.83084 -3.50045,2.74151 -5.25066,6.61852 -5.25062,11.63102 l 0,35.46014 -22.97637,0 0,-72.05437 23.26206,0 0,4.5364 c 2.08059,-1.22925 4.1136,-2.45858 6.09904,-3.68799 3.59271,-1.70252 7.37449,-2.55381 11.34533,-2.55389 1.89012,8e-5 3.78173,0.19054 5.67484,0.57138 z"
         style="font-variant:normal;font-stretch:normal;fill:#000000;font-family:CodiceNero;-inkscape-font-specification:CodiceNero"
         id="path4212"
         inkscape:connector-curvature="0" />
      <path
         d="m 689.82441,904.9858 0,-40.00087 c -6e-5,-3.49748 -0.96967,-6.42868 -2.90884,-8.79361 -1.93928,-2.36482 -4.70527,-3.54725 -8.29799,-3.54731 -3.97083,6e-5 -6.94893,1.37223 -8.93429,4.11652 -1.41982,2.08068 -2.12972,4.49173 -2.12968,7.23314 l 0,40.99213 -22.69501,0 0,-71.91585 20.0026,0 1.1341,4.39788 c 5.00963,-3.97072 11.58048,-5.95611 19.71258,-5.95619 9.26898,8e-5 16.40832,3.59284 21.41806,10.77829 3.68791,5.29542 5.53191,10.63838 5.53199,16.02891 l 0,46.66696 z"
         style="font-variant:normal;font-stretch:normal;fill:#000000;font-family:CodiceNero;-inkscape-font-specification:CodiceNero"
         id="path4214"
         inkscape:connector-curvature="0" />
      <path
         d="m 781.09788,836.33373 c 1.6073,0.56857 3.49891,1.89313 5.67483,3.97368 3.59269,3.4976 5.38907,7.4684 5.38914,11.91239 l 0,33.04909 c -7e-5,1.70262 1.08786,2.79054 3.26379,3.26378 0.19039,0.0924 1.70396,0.23377 4.54073,0.42421 -0.85137,2.45868 -3.31003,8.27347 -7.37598,17.44438 -7.37605,0 -13.57031,-2.07918 -18.58281,-6.23756 -6.61996,4.34884 -13.23987,6.52325 -19.85975,6.52325 -6.90275,0 -12.97797,-2.22203 -18.22569,-6.66609 -5.24776,-4.44405 -7.87162,-9.97603 -7.87162,-16.59597 0,-10.96871 6.76131,-18.5337 20.28396,-22.695 5.01252,-0.75602 11.82145,-1.93773 20.4268,-3.54515 -5e-5,-4.1612 -2.64772,-6.24182 -7.94303,-6.24188 -5.29539,6e-5 -10.35556,1.37079 -15.18051,4.11219 -0.28282,0.19052 -2.26822,1.7041 -5.95619,4.54074 l -10.77829,-16.31028 c 0.18757,-0.4732 1.60591,-1.51351 4.25505,-3.12094 3.21471,-2.08056 6.80747,-3.97217 10.77828,-5.67483 4.72972,-2.08055 10.30932,-3.12087 16.73881,-3.12095 7.37594,8e-5 14.18342,1.65506 20.42248,4.96494 z m -30.35235,46.09991 c 0.0952,1.51216 1.08789,2.78766 2.97809,3.8265 1.60733,0.94655 3.26231,1.41982 4.96494,1.41979 2.64908,3e-5 4.91873,-0.59083 6.80894,-1.77257 1.89012,-1.18169 3.07183,-2.52861 3.54514,-4.04077 l 0,-7.23747 c -3.97084,0.75898 -7.94163,1.51649 -11.91238,2.27253 -4.35175,0.94367 -6.47999,2.78767 -6.38473,5.53199 z"
         style="font-variant:normal;font-stretch:normal;fill:#000000;font-family:CodiceNero;-inkscape-font-specification:CodiceNero"
         id="path4216"
         inkscape:connector-curvature="0" />
      <path
         d="m 858.81409,904.9858 0,-40.00087 c -5e-5,-3.49748 -0.96967,-6.42868 -2.90884,-8.79361 -1.93927,-2.36482 -4.70527,-3.54725 -8.29798,-3.54731 -3.97084,6e-5 -6.94893,1.37223 -8.93429,4.11652 -1.41983,2.08068 -2.12972,4.49173 -2.12969,7.23314 l 0,40.99213 -22.695,0 0,-71.91585 20.00259,0 1.13411,4.39788 c 5.00963,-3.97072 11.58048,-5.95611 19.71257,-5.95619 9.26898,8e-5 16.40833,3.59284 21.41806,10.77829 3.68792,5.29542 5.53191,10.63838 5.53199,16.02891 l 0,46.66696 z"
         style="font-variant:normal;font-stretch:normal;fill:#000000;font-family:CodiceNero;-inkscape-font-specification:CodiceNero"
         id="path4218"
         inkscape:connector-curvature="0" />
      <path
         d="m 931.22339,803.28465 0,26.8072 18.58281,0 0,20.00259 -18.15427,0 0,29.64246 c -4e-5,3.21476 2.26816,4.82212 6.8046,4.82209 1.41974,3e-5 3.31135,-0.16518 5.67484,-0.49563 2.36337,-0.33039 3.78172,-0.4956 4.25504,-0.49562 l 3.97368,18.86416 c -5.67344,2.8367 -12.90802,4.25505 -21.70375,4.25505 -5.95622,0 -11.15635,-1.51358 -15.60038,-4.54074 -4.91734,-3.40229 -7.376,-7.7035 -7.37598,-12.90364 l 0,-39.14813 -11.77387,0 0,-20.00259 11.77387,0 0,-20.85101 z"
         style="font-variant:normal;font-stretch:normal;fill:#000000;font-family:CodiceNero;-inkscape-font-specification:CodiceNero"
         id="path4220"
         inkscape:connector-curvature="0" />
      <path
         d="m 965.91304,832.93143 22.83785,0 0,72.19721 -22.83785,0 z m -0.42421,-22.41364 c 2.36343,-4.72676 6.24043,-7.09019 11.63103,-7.0903 2.08061,1.1e-4 4.01839,0.42576 5.81335,1.27695 4.82206,2.36353 7.23311,6.28815 7.23314,11.77387 -3e-5,1.98549 -0.42568,3.87565 -1.27695,5.6705 -2.36346,4.72984 -6.28663,7.09471 -11.76954,7.09463 -2.08064,8e-5 -4.01987,-0.42557 -5.81768,-1.27695 -4.72687,-2.36335 -7.0903,-6.24035 -7.09029,-11.63103 -1e-5,-2.08053 0.42564,-4.01975 1.27694,-5.81767 z"
         style="font-variant:normal;font-stretch:normal;fill:#000000;font-family:CodiceNero;-inkscape-font-specification:CodiceNero"
         id="path4222"
         inkscape:connector-curvature="0" />
    </g>
  </g>
</svg>
