<?xml version="1.0" encoding="UTF-8" standalone="no"?>
<!-- Created with Inkscape (http://www.inkscape.org/) -->

<svg
   xmlns:dc="http://purl.org/dc/elements/1.1/"
   xmlns:cc="http://creativecommons.org/ns#"
   xmlns:rdf="http://www.w3.org/1999/02/22-rdf-syntax-ns#"
   xmlns:svg="http://www.w3.org/2000/svg"
   xmlns="http://www.w3.org/2000/svg"
   xmlns:sodipodi="http://sodipodi.sourceforge.net/DTD/sodipodi-0.dtd"
   xmlns:inkscape="http://www.inkscape.org/namespaces/inkscape"
   version="1.1"
   width="200"
   height="200"
   id="svg2"
   inkscape:version="0.47 r22583"
   sodipodi:docname="Italian traffic signs - icona autocisterna.svg"
   sodipodi:version="0.32"
   inkscape:output_extension="org.inkscape.output.svg.inkscape">
  <metadata
     id="metadata2877">
    <rdf:RDF>
      <cc:Work
         rdf:about="">
        <dc:format>image/svg+xml</dc:format>
        <dc:type
           rdf:resource="http://purl.org/dc/dcmitype/StillImage" />
        <dc:title></dc:title>
      </cc:Work>
    </rdf:RDF>
  </metadata>
  <sodipodi:namedview
     pagecolor="#ffffff"
     bordercolor="#666666"
     borderopacity="1"
     objecttolerance="10"
     gridtolerance="10"
     guidetolerance="10"
     inkscape:pageopacity="0"
     inkscape:pageshadow="2"
     inkscape:window-width="1600"
     inkscape:window-height="838"
     id="namedview2875"
     showgrid="false"
     inkscape:zoom="3.3608915"
     inkscape:cx="98.027808"
     inkscape:cy="95.844821"
     inkscape:window-x="-8"
     inkscape:window-y="-8"
     inkscape:window-maximized="1"
     inkscape:current-layer="svg2" />
  <defs
     id="defs4">
    <inkscape:perspective
       sodipodi:type="inkscape:persp3d"
       inkscape:vp_x="0 : 100 : 1"
       inkscape:vp_y="0 : 1000 : 0"
       inkscape:vp_z="200 : 100 : 1"
       inkscape:persp3d-origin="100 : 66.666667 : 1"
       id="perspective2879" />
    <inkscape:perspective
       id="perspective2839"
       inkscape:persp3d-origin="0.5 : 0.33333333 : 1"
       inkscape:vp_z="1 : 0.5 : 1"
       inkscape:vp_y="0 : 1000 : 0"
       inkscape:vp_x="0 : 0.5 : 1"
       sodipodi:type="inkscape:persp3d" />
    <inkscape:perspective
       id="perspective3649"
       inkscape:persp3d-origin="0.5 : 0.33333333 : 1"
       inkscape:vp_z="1 : 0.5 : 1"
       inkscape:vp_y="0 : 1000 : 0"
       inkscape:vp_x="0 : 0.5 : 1"
       sodipodi:type="inkscape:persp3d" />
    <inkscape:perspective
       id="perspective3679"
       inkscape:persp3d-origin="0.5 : 0.33333333 : 1"
       inkscape:vp_z="1 : 0.5 : 1"
       inkscape:vp_y="0 : 1000 : 0"
       inkscape:vp_x="0 : 0.5 : 1"
       sodipodi:type="inkscape:persp3d" />
    <inkscape:perspective
       id="perspective3713"
       inkscape:persp3d-origin="0.5 : 0.33333333 : 1"
       inkscape:vp_z="1 : 0.5 : 1"
       inkscape:vp_y="0 : 1000 : 0"
       inkscape:vp_x="0 : 0.5 : 1"
       sodipodi:type="inkscape:persp3d" />
    <inkscape:perspective
       id="perspective3741"
       inkscape:persp3d-origin="0.5 : 0.33333333 : 1"
       inkscape:vp_z="1 : 0.5 : 1"
       inkscape:vp_y="0 : 1000 : 0"
       inkscape:vp_x="0 : 0.5 : 1"
       sodipodi:type="inkscape:persp3d" />
    <inkscape:perspective
       id="perspective3765"
       inkscape:persp3d-origin="0.5 : 0.33333333 : 1"
       inkscape:vp_z="1 : 0.5 : 1"
       inkscape:vp_y="0 : 1000 : 0"
       inkscape:vp_x="0 : 0.5 : 1"
       sodipodi:type="inkscape:persp3d" />
    <inkscape:perspective
       id="perspective3801"
       inkscape:persp3d-origin="0.5 : 0.33333333 : 1"
       inkscape:vp_z="1 : 0.5 : 1"
       inkscape:vp_y="0 : 1000 : 0"
       inkscape:vp_x="0 : 0.5 : 1"
       sodipodi:type="inkscape:persp3d" />
    <inkscape:perspective
       id="perspective2863"
       inkscape:persp3d-origin="0.5 : 0.33333333 : 1"
       inkscape:vp_z="1 : 0.5 : 1"
       inkscape:vp_y="0 : 1000 : 0"
       inkscape:vp_x="0 : 0.5 : 1"
       sodipodi:type="inkscape:persp3d" />
    <inkscape:perspective
       id="perspective3859"
       inkscape:persp3d-origin="0.5 : 0.33333333 : 1"
       inkscape:vp_z="1 : 0.5 : 1"
       inkscape:vp_y="0 : 1000 : 0"
       inkscape:vp_x="0 : 0.5 : 1"
       sodipodi:type="inkscape:persp3d" />
    <inkscape:perspective
       id="perspective3964"
       inkscape:persp3d-origin="0.5 : 0.33333333 : 1"
       inkscape:vp_z="1 : 0.5 : 1"
       inkscape:vp_y="0 : 1000 : 0"
       inkscape:vp_x="0 : 0.5 : 1"
       sodipodi:type="inkscape:persp3d" />
    <inkscape:perspective
       id="perspective3988"
       inkscape:persp3d-origin="0.5 : 0.33333333 : 1"
       inkscape:vp_z="1 : 0.5 : 1"
       inkscape:vp_y="0 : 1000 : 0"
       inkscape:vp_x="0 : 0.5 : 1"
       sodipodi:type="inkscape:persp3d" />
    <inkscape:perspective
       id="perspective2879-7"
       inkscape:persp3d-origin="0.5 : 0.33333333 : 1"
       inkscape:vp_z="1 : 0.5 : 1"
       inkscape:vp_y="0 : 1000 : 0"
       inkscape:vp_x="0 : 0.5 : 1"
       sodipodi:type="inkscape:persp3d" />
    <inkscape:perspective
       id="perspective4031"
       inkscape:persp3d-origin="0.5 : 0.33333333 : 1"
       inkscape:vp_z="1 : 0.5 : 1"
       inkscape:vp_y="0 : 1000 : 0"
       inkscape:vp_x="0 : 0.5 : 1"
       sodipodi:type="inkscape:persp3d" />
    <inkscape:perspective
       id="perspective4047"
       inkscape:persp3d-origin="0.5 : 0.33333333 : 1"
       inkscape:vp_z="1 : 0.5 : 1"
       inkscape:vp_y="0 : 1000 : 0"
       inkscape:vp_x="0 : 0.5 : 1"
       sodipodi:type="inkscape:persp3d" />
    <inkscape:perspective
       id="perspective4063"
       inkscape:persp3d-origin="0.5 : 0.33333333 : 1"
       inkscape:vp_z="1 : 0.5 : 1"
       inkscape:vp_y="0 : 1000 : 0"
       inkscape:vp_x="0 : 0.5 : 1"
       sodipodi:type="inkscape:persp3d" />
    <inkscape:perspective
       id="perspective4079"
       inkscape:persp3d-origin="0.5 : 0.33333333 : 1"
       inkscape:vp_z="1 : 0.5 : 1"
       inkscape:vp_y="0 : 1000 : 0"
       inkscape:vp_x="0 : 0.5 : 1"
       sodipodi:type="inkscape:persp3d" />
    <inkscape:perspective
       id="perspective4097"
       inkscape:persp3d-origin="0.5 : 0.33333333 : 1"
       inkscape:vp_z="1 : 0.5 : 1"
       inkscape:vp_y="0 : 1000 : 0"
       inkscape:vp_x="0 : 0.5 : 1"
       sodipodi:type="inkscape:persp3d" />
    <inkscape:perspective
       id="perspective4115"
       inkscape:persp3d-origin="0.5 : 0.33333333 : 1"
       inkscape:vp_z="1 : 0.5 : 1"
       inkscape:vp_y="0 : 1000 : 0"
       inkscape:vp_x="0 : 0.5 : 1"
       sodipodi:type="inkscape:persp3d" />
    <inkscape:perspective
       id="perspective4129"
       inkscape:persp3d-origin="0.5 : 0.33333333 : 1"
       inkscape:vp_z="1 : 0.5 : 1"
       inkscape:vp_y="0 : 1000 : 0"
       inkscape:vp_x="0 : 0.5 : 1"
       sodipodi:type="inkscape:persp3d" />
    <inkscape:perspective
       id="perspective4153"
       inkscape:persp3d-origin="0.5 : 0.33333333 : 1"
       inkscape:vp_z="1 : 0.5 : 1"
       inkscape:vp_y="0 : 1000 : 0"
       inkscape:vp_x="0 : 0.5 : 1"
       sodipodi:type="inkscape:persp3d" />
  </defs>
  <path
     style="fill:#ffffff;fill-opacity:1;stroke:none"
     d="m -2.1039262,-3.1405409 207.7153762,0 0,207.3483909 -207.7153762,0 0,-207.3483909 z"
     id="rect2881" />
  <path
     style="fill:none;stroke:#000000;stroke-width:3;stroke-miterlimit:4;stroke-opacity:1"
     d="m 21.814432,2.8621521 157.645218,0 c 10.29357,0 18.58045,8.2868829 18.58045,18.5804539 l 0,157.645234 c 0,10.29357 -8.28688,18.58045 -18.58045,18.58045 l -157.645218,0 c -10.293571,0 -18.5804535,-8.28688 -18.5804535,-18.58045 l 0,-157.645234 c 0,-10.293571 8.2868825,-18.5804539 18.5804535,-18.5804539 z"
     id="rect4614" />
  <path
     style="fill:#000000"
     d="m 56.014577,174.17143 c -0.850632,-0.49545 -0.999064,-1.46827 -0.999064,-6.54792 l 0,-5.96602 7.992518,0 7.992518,0 0,5.9743 c 0,5.32233 -0.120504,6.03879 -1.104258,6.56528 -1.419671,0.75979 -12.568571,0.73919 -13.881714,-0.0256 l 0,-4e-5 z m 70.933603,-0.52517 c -0.98154,-0.98154 -1.14179,-1.90298 -1.14179,-6.56528 l 0,-5.42349 8.27796,0 8.27797,0 0,5.66816 c 0,7.49393 0.0339,7.4624 -8.0333,7.4624 -5.47787,0 -6.37836,-0.1393 -7.38084,-1.14179 z M 50.305636,159.89908 c -1.253692,-0.73021 -1.314091,-3.55395 -0.101945,-4.7661 0.801062,-0.80106 5.93972,-0.89712 47.99264,-0.89712 31.372389,0 47.464189,0.1973 48.199779,0.59098 0.76222,0.40793 1.10426,1.19745 1.10426,2.54894 0,1.35149 -0.34204,2.14101 -1.10426,2.54894 -1.51582,0.81124 -94.696324,0.78637 -96.090474,-0.0256 l 0,-4e-5 z m 5.566218,-8.32293 c -8.255924,-4.34473 -8.693449,-15.03607 -0.780527,-19.07294 2.685338,-1.36996 13.625834,-3.06895 25.328975,-3.93344 22.558828,-1.66637 55.453788,0.59231 61.668528,4.23439 7.43446,4.35688 6.78636,15.04998 -1.13013,18.64593 -2.16975,0.98558 -4.72196,1.0474 -42.840679,1.0377 -35.811613,-0.009 -40.733001,-0.11532 -42.246167,-0.91164 z m 8.258047,-3.52971 c 4.385414,-2.35192 5.075614,-7.70857 1.459216,-11.32496 -1.538211,-1.53821 -2.343075,-1.89602 -4.26503,-1.89602 -4.605306,0 -7.450363,2.77475 -7.450363,7.26625 0,2.54607 1.130023,4.38381 3.634718,5.9111 2.249157,1.37147 4.122552,1.38381 6.621459,0.0436 l 0,3e-5 z m 76.947559,-1.47404 c 4.52496,-4.93757 0.71058,-12.34548 -5.96909,-11.59259 -6.98831,0.78769 -8.57928,10.01024 -2.28079,13.22137 2.84557,1.45075 5.99811,0.82834 8.24988,-1.62878 z M 57.227168,128.45738 c 1.354287,-3.54079 7.191565,-17.60595 8.204046,-19.76796 2.627049,-5.60971 9.711417,-7.24361 31.259572,-7.20954 10.651494,0.0168 16.469944,0.29078 21.683884,1.02087 7.46104,1.04475 9.94913,1.87304 11.88002,3.9549 0.98069,1.05736 10.06489,22.64562 9.67199,22.9851 -0.0734,0.0634 -1.70486,-0.14203 -3.62555,-0.45646 l -3.49216,-0.57171 -3.24479,-8.14915 c -3.32152,-8.34187 -4.0472,-9.47354 -6.72867,-10.49304 -3.24718,-1.23458 -20.39849,-1.87458 -32.382845,-1.20837 -13.557491,0.75365 -17.621276,1.3332 -18.953314,2.70298 -0.540278,0.55558 -2.548763,4.5993 -4.463302,8.98605 -1.91454,4.38675 -3.668292,8.1499 -3.897221,8.36256 -0.228934,0.21266 -1.767945,0.56578 -3.420021,0.78471 -2.977259,0.39454 -2.999255,0.38623 -2.491639,-0.94094 z"
     id="path4159"
     sodipodi:nodetypes="ccccccsccccccccsccssssscccsssssccsssscccssccssssscccssssssc" />
  <g
     id="g4167"
     transform="translate(4,0)">
    <path
       id="path4165"
       d="M 75.665246,96.995525 C 69.375055,87.04926 50.128502,56.310185 50.166979,56.271707 c 0.02836,-0.02836 2.693084,1.555666 5.921617,3.520052 6.987714,4.251639 9.964175,6.031999 11.208772,6.704487 0.911395,0.492449 0.920468,0.494813 0.920468,0.23977 0,-0.638713 -1.495312,-5.702958 -6.048629,-20.485181 -3.446874,-11.190188 -3.96711,-12.925475 -3.918633,-13.070905 0.05268,-0.158048 3.968771,4.197098 12.014081,13.361055 2.0534,2.338911 3.281951,3.660137 3.325791,3.576675 0.08595,-0.163627 0.375144,-2.800897 0.516309,-4.708396 0.158251,-2.138387 0.307527,-6.945626 0.386645,-12.451507 l 0.07084,-4.929972 5.232935,10.505376 c 2.878114,5.777957 5.643917,11.262789 6.146229,12.188517 1.312766,2.419343 2.179159,3.849656 2.306224,3.807301 0.15296,-0.05099 1.385184,-3.113287 6.442213,-16.010073 3.964065,-10.109435 6.278669,-15.939685 6.426309,-16.187233 0.2036,-0.341368 1.68939,4.935263 4.97269,17.659981 1.16445,4.512922 2.33192,8.986395 2.59438,9.941052 0.26245,0.954656 0.52506,1.913258 0.58358,2.130225 0.0585,0.216967 0.16762,0.394486 0.24246,0.394486 0.1901,0 3.87636,-1.845066 6.5183,-3.262576 4.71749,-2.531134 8.0594,-4.311558 8.09292,-4.311558 0.0193,0 2.22999,-1.17582 4.91274,-2.612935 6.48138,-3.472003 7.81081,-4.156835 7.8487,-4.043142 0.0433,0.129811 -0.64053,1.995628 -3.8466,10.495742 -3.75098,9.944822 -5.48876,14.874911 -5.48876,15.57162 0,0.231136 0.0322,0.249018 0.34188,0.189897 0.92957,-0.177459 5.79369,-1.688448 19.01424,-5.906576 4.91889,-1.569416 7.22159,-2.258058 7.37716,-2.206202 0.24891,0.08297 -4.93355,5.362577 -33.00793,33.626665 l -7.97945,8.033369 -3.36629,-0.226245 c -5.22188,-0.350958 -7.32321,-0.424385 -12.217107,-0.426901 -7.759214,-0.004 -13.591865,0.223349 -20.403793,0.795275 l -0.851615,0.0715 -0.790411,-1.249826 0,0 z"
       style="fill:#f8991d;fill-opacity:1;stroke:none" />
    <path
       sodipodi:nodetypes="cccccccccccc"
       id="path4163"
       d="m 88.245399,97.501198 -14.93788,-19.207355 8.83649,1.47275 -5.04942,-15.779449 13.25473,10.098849 8.41571,-22.301621 4.207851,16.831409 16.20023,-12.413164 -8.20531,19.566516 8.83649,-1.68314 -16.20023,23.353585 c -5.157479,-0.09324 -10.299267,-0.1394 -15.358661,0.06162 z"
       style="fill:#ffe500;fill-opacity:1;stroke:none" />
  </g>
</svg>
