<?xml version="1.0" encoding="UTF-8" standalone="no"?>
<!-- Created with Inkscape (http://www.inkscape.org/) -->

<svg
   width="529.16669mm"
   height="568.85449mm"
   viewBox="0 0 529.16669 568.85449"
   version="1.1"
   id="svg34925"
   inkscape:version="1.2.1 (9c6d41e410, 2022-07-14)"
   sodipodi:docname="Segnale stradale italiano - preavviso di deviazione (figura II 405).svg"
   xmlns:inkscape="http://www.inkscape.org/namespaces/inkscape"
   xmlns:sodipodi="http://sodipodi.sourceforge.net/DTD/sodipodi-0.dtd"
   xmlns="http://www.w3.org/2000/svg"
   xmlns:svg="http://www.w3.org/2000/svg">
  <sodipodi:namedview
     id="namedview34927"
     pagecolor="#ffffff"
     bordercolor="#000000"
     borderopacity="0.25"
     inkscape:showpageshadow="2"
     inkscape:pageopacity="0.0"
     inkscape:pagecheckerboard="0"
     inkscape:deskcolor="#d1d1d1"
     inkscape:document-units="mm"
     showgrid="false"
     inkscape:zoom="0.19064254"
     inkscape:cx="1151.3695"
     inkscape:cy="994.0069"
     inkscape:window-width="1920"
     inkscape:window-height="991"
     inkscape:window-x="-9"
     inkscape:window-y="-9"
     inkscape:window-maximized="1"
     inkscape:current-layer="layer1" />
  <defs
     id="defs34922" />
  <g
     inkscape:label="Livello 1"
     inkscape:groupmode="layer"
     id="layer1"
     transform="translate(196.57867,160.21465)">
    <g
       id="g985">
      <rect
         style="fill:#f2ef0c;fill-rule:evenodd;stroke-width:2.69693;paint-order:markers fill stroke"
         id="rect8219-22"
         width="529.16669"
         height="463.02084"
         x="-196.57867"
         y="-160.21466" />
      <rect
         style="fill:none;fill-rule:evenodd;stroke:#000000;stroke-width:7.9375;paint-order:markers fill stroke"
         id="rect8219-2-5"
         width="513.29169"
         height="447.14584"
         x="-188.6413"
         y="-152.27716"
         ry="27.78125"
         rx="27.78125" />
      <rect
         style="fill:#ffffff;fill-rule:evenodd;stroke-width:1.28937;paint-order:markers fill stroke"
         id="rect8219-9-4"
         width="529.16669"
         height="105.83334"
         x="-196.57867"
         y="-408.63983"
         transform="scale(1,-1)" />
      <rect
         style="fill:none;fill-rule:evenodd;stroke:#000000;stroke-width:4.7625;paint-order:markers fill stroke"
         id="rect8219-9-0-4"
         width="519.64166"
         height="96.308334"
         x="-191.81628"
         y="-403.87714"
         transform="scale(1,-1)"
         ry="16.668751"
         rx="16.668751" />
      <path
         id="path4594-1-7-9-0-1-0-3-0-6-1-8-6-3-0-3-8-6-1-0-9"
         style="fill:#000000;stroke-width:107.068;paint-order:fill markers stroke"
         d="m -81.50718,-128.6255 -39.6041,68.6203 c -2.5557,4.4249 0.7114,5.9346 3.9597,5.0642 l 17.9153,-4.4079 c 4.0885,-1.0914 5.5235,-1.1267 5.502,3.2023 l -6e-4,73.3405 h 24.4558 l 10e-5,-10.7513 54.76641,31.5708 v 71.3419 l -54.76641,31.5706 v -7.8508 h -24.4559 v 139.1133 h 24.4559 V 169.1553 L 9.94193,123.4858 V 23.8827 l -79.22091,-45.6695 v -34.3598 c 0,-4.3313 1.4151,-4.2971 5.5033,-3.2023 l 17.9164,4.4079 c 3.253,0.8777 6.5134,-0.6404 3.9586,-5.0642 z"
         sodipodi:nodetypes="cccccccccccccccccccscccc" />
      <g
         id="g10369"
         transform="translate(-403.28439,-9775.5086)">
        <path
           id="rect14439-7-2-2-2-0-3-8-5-17-1-6-9"
           style="fill:#f2ef0c;fill-rule:evenodd;stroke-width:0.695085;stroke-linecap:round;stroke-linejoin:round;paint-order:markers fill stroke"
           d="m 321.65643,9811.2618 c -0.0312,0 -0.0621,0.01 -0.0931,0.01 -0.0704,0 -0.14019,0.01 -0.21017,0.016 -0.072,0.01 -0.14383,0.015 -0.21574,0.026 -0.0692,0.01 -0.13776,0.023 -0.20636,0.036 -0.0911,0.018 -0.18215,0.036 -0.27262,0.059 -0.0111,0 -0.0222,0.01 -0.0333,0.01 -0.12036,0.033 -0.23985,0.071 -0.35849,0.1145 -0.0177,0.01 -0.0356,0.013 -0.053,0.019 -0.11265,0.043 -0.22414,0.091 -0.33454,0.1439 -0.0201,0.01 -0.04,0.019 -0.06,0.029 -0.0852,0.042 -0.1699,0.086 -0.25345,0.1346 -0.0248,0.015 -0.0484,0.03 -0.0728,0.045 -0.0135,0.01 -0.0267,0.016 -0.0402,0.024 -0.73531,0.4537 -1.29317,1.0874 -1.6477,1.8112 l -36.32291,62.9131 c -0.12147,0.2054 -0.22683,0.4206 -0.31421,0.6457 -0.006,0.015 -0.0103,0.029 -0.0158,0.044 -0.11947,0.3176 -0.20684,0.651 -0.25065,0.9992 0,0.01 -0.004,0.017 -0.004,0.026 -0.0153,0.1265 -0.0248,0.2546 -0.0293,0.3843 0,0.021 0,0.041 0,0.062 0,0.03 -0.004,0.059 -0.004,0.088 0,0.097 0.004,0.1938 0.0103,0.2897 0,0.012 0,0.023 0.004,0.034 0.03,0.4163 0.12047,0.8144 0.25712,1.1901 0.006,0.016 0.0114,0.032 0.0177,0.048 0.0464,0.1231 0.0981,0.2432 0.15482,0.3606 0.004,0.01 0.005,0.011 0.008,0.016 0.69696,1.428 2.13705,2.4203 3.82573,2.4719 0.0177,0 0.0356,0 0.0536,0 0.0282,0 0.0563,0 0.0847,0 h 72.99473 c 0.0285,0 0.0564,0 0.0847,0 0.0177,0 0.0356,0 0.0533,0 1.68889,-0.051 3.12911,-1.0438 3.82616,-2.4719 0.004,-0.01 0.005,-0.011 0.008,-0.016 0.0566,-0.117 0.10798,-0.2367 0.15424,-0.3594 0.007,-0.017 0.0127,-0.034 0.019,-0.051 0.13599,-0.3745 0.22627,-0.7711 0.25635,-1.1859 0,-0.013 0.004,-0.025 0.004,-0.038 0.006,-0.096 0.0103,-0.1916 0.0103,-0.2887 0,-0.03 0,-0.059 -0.004,-0.088 0,-0.02 0,-0.041 0,-0.061 -0.004,-0.1297 -0.014,-0.2578 -0.0293,-0.3844 0,-0.01 -0.004,-0.017 -0.004,-0.026 -0.0429,-0.3416 -0.12793,-0.669 -0.24386,-0.9813 -0.007,-0.02 -0.014,-0.04 -0.0219,-0.06 0,0 0,0 0,0 -0.0879,-0.2263 -0.1942,-0.4425 -0.31651,-0.6487 l -36.3241,-62.9159 c -0.35469,-0.7209 -0.91104,-1.3521 -1.64403,-1.8044 -0.0135,-0.01 -0.0267,-0.016 -0.0402,-0.025 -0.0246,-0.015 -0.048,-0.03 -0.0728,-0.045 -0.0836,-0.048 -0.16829,-0.092 -0.2535,-0.1345 -0.0201,-0.01 -0.0399,-0.019 -0.06,-0.029 -0.11053,-0.053 -0.22205,-0.101 -0.33472,-0.1438 -0.0174,-0.01 -0.0349,-0.013 -0.0523,-0.019 -0.1188,-0.043 -0.23837,-0.082 -0.35886,-0.1147 -0.0111,0 -0.0222,-0.01 -0.0334,-0.01 -0.0905,-0.024 -0.18152,-0.042 -0.27264,-0.059 -0.0686,-0.013 -0.13711,-0.026 -0.20632,-0.036 -0.0719,-0.01 -0.14373,-0.019 -0.21576,-0.026 -0.07,-0.01 -0.1398,-0.013 -0.21017,-0.016 -0.0713,0 -0.1423,0 -0.21341,0 -0.0401,-10e-5 -0.08,0 -0.12015,0 z"
           sodipodi:nodetypes="ssssssssssssscccscscsssscscscssssscscscscsssscsscccsssssssssssssss" />
        <path
           id="rect14439-6-0-0-9-4-1-24-4-3-6-9-9-3"
           style="fill:#d92124;fill-rule:evenodd;stroke-width:0.557236;stroke-linecap:round;stroke-linejoin:round;paint-order:markers fill stroke"
           d="m 321.69638,9812.7339 c -0.0211,0 -0.0424,0 -0.0636,0 -0.0458,0 -0.0913,0.01 -0.13681,0.01 -0.0486,0 -0.0971,0.01 -0.1456,0.017 -0.046,0.01 -0.0916,0.015 -0.13718,0.024 -0.0476,0.01 -0.0951,0.019 -0.14254,0.031 -0.0459,0.012 -0.0912,0.024 -0.13642,0.038 -0.0456,0.014 -0.091,0.028 -0.1362,0.044 -0.049,0.017 -0.0969,0.037 -0.14487,0.057 -0.0397,0.016 -0.0795,0.033 -0.1188,0.051 -0.05,0.023 -0.0987,0.049 -0.1475,0.076 -0.0278,0.015 -0.0567,0.027 -0.0843,0.043 -0.0113,0.01 -0.0214,0.014 -0.0326,0.021 -0.0372,0.022 -0.0731,0.047 -0.1094,0.071 -0.0496,0.033 -0.0993,0.065 -0.14637,0.1 -0.014,0.011 -0.0274,0.022 -0.0416,0.033 -0.3662,0.2827 -0.65303,0.6367 -0.84627,1.0329 l -36.37694,63.0071 c -0.14819,0.2498 -0.26023,0.5231 -0.32952,0.814 -0.004,0.017 -0.009,0.034 -0.0129,0.052 -0.0129,0.06 -0.0227,0.1208 -0.0319,0.182 -0.006,0.039 -0.0135,0.078 -0.0177,0.1174 -0.005,0.046 -0.007,0.092 -0.0103,0.138 -0.004,0.054 -0.007,0.1076 -0.008,0.1613 -1.6e-4,0.013 0,0.025 0,0.038 0,0.032 0.004,0.063 0.005,0.094 0.004,0.052 0.004,0.1035 0.008,0.155 0.004,0.053 0.0113,0.1057 0.019,0.1581 0.006,0.039 0.0108,0.078 0.0174,0.1163 0.0119,0.066 0.0264,0.1296 0.0421,0.1935 0.006,0.023 0.0111,0.045 0.0172,0.068 0.0211,0.076 0.0452,0.1512 0.072,0.225 0.004,0.01 0.007,0.021 0.0116,0.031 0.0311,0.083 0.0661,0.164 0.10439,0.2432 0,0 0.004,0 0.004,0.01 0.42021,0.8623 1.24714,1.4844 2.23574,1.6207 0.0211,0 0.0421,0.01 0.0632,0.01 0.0555,0.01 0.11196,0.01 0.16839,0.013 0.0459,0 0.0917,0.01 0.13758,0.01 0.0129,2e-4 0.0256,0 0.0387,0 h 72.99434 c 0.0129,0 0.0256,0 0.0387,0 0.0459,0 0.0917,0 0.13755,-0.01 0.0565,0 0.11292,-0.01 0.16845,-0.013 0.0211,0 0.0421,-0.01 0.0632,-0.01 0.98857,-0.1363 1.81551,-0.7584 2.23569,-1.6207 0,0 0.004,0 0.004,-0.01 0.0385,-0.08 0.0734,-0.1609 0.1048,-0.2443 0.004,-0.01 0.007,-0.019 0.0103,-0.029 0.0271,-0.074 0.0515,-0.1495 0.0726,-0.2264 0.006,-0.022 0.0114,-0.044 0.0169,-0.067 0.0164,-0.065 0.0312,-0.1307 0.0429,-0.1975 0.007,-0.036 0.0111,-0.072 0.0164,-0.1087 0.007,-0.054 0.0148,-0.1081 0.0193,-0.163 0.004,-0.051 0.006,-0.103 0.008,-0.1546 0,-0.032 0.005,-0.062 0.005,-0.094 0,-0.013 0,-0.025 0,-0.038 0,-0.054 -0.004,-0.1075 -0.008,-0.1613 -0.004,-0.046 -0.005,-0.092 -0.0103,-0.138 -0.004,-0.039 -0.0113,-0.078 -0.0177,-0.1178 -0.009,-0.061 -0.019,-0.1216 -0.0319,-0.1812 -0.004,-0.018 -0.009,-0.036 -0.0137,-0.054 -0.0693,-0.2903 -0.18107,-0.5629 -0.32897,-0.8122 L 324.434,9814.3826 c -0.19326,-0.3963 -0.48014,-0.7504 -0.84645,-1.033 -0.014,-0.011 -0.0274,-0.023 -0.0418,-0.033 -0.0453,-0.034 -0.0931,-0.065 -0.14083,-0.096 -0.0387,-0.026 -0.077,-0.052 -0.11666,-0.076 -0.0103,-0.01 -0.0201,-0.014 -0.0304,-0.02 -0.0271,-0.016 -0.055,-0.027 -0.0822,-0.042 -0.0496,-0.027 -0.0991,-0.053 -0.15001,-0.077 -0.0377,-0.017 -0.0757,-0.033 -0.11381,-0.049 -0.0509,-0.021 -0.1018,-0.042 -0.15369,-0.06 -0.0425,-0.015 -0.0853,-0.028 -0.12817,-0.041 -0.0466,-0.014 -0.0932,-0.027 -0.14046,-0.039 -0.0474,-0.012 -0.0949,-0.022 -0.14251,-0.031 -0.0455,-0.01 -0.091,-0.017 -0.137,-0.024 -0.0486,-0.01 -0.097,-0.012 -0.14563,-0.017 -0.0455,0 -0.091,-0.01 -0.13676,-0.01 -0.0481,0 -0.0959,0 -0.14388,0 -0.0267,0 -0.0535,0 -0.0803,0 z"
           sodipodi:nodetypes="ssssssssssssscscccscsssssssscscscscsccsssscscscscscscsssssscscccsccssssssssssssss" />
        <path
           sodipodi:type="star"
           style="fill:#f2ef0c;fill-rule:evenodd;stroke-width:2.117;stroke-linecap:round;stroke-linejoin:round;paint-order:markers fill stroke"
           id="path15237-2-9-0-3-31-9-8-8-7-2-7-6"
           inkscape:flatsided="true"
           sodipodi:sides="3"
           sodipodi:cx="-524.04541"
           sodipodi:cy="2136.0657"
           sodipodi:r1="71.351242"
           sodipodi:r2="35.675621"
           sodipodi:arg1="2.6179939"
           sodipodi:arg2="3.6651914"
           inkscape:rounded="0"
           inkscape:randomized="0"
           d="m -585.8374,2171.7413 61.79199,-107.0269 61.79199,107.0269 z"
           inkscape:transform-center-x="5.8311853e-06"
           inkscape:transform-center-y="-21.802717"
           transform="matrix(0.45316541,0,0,0.45316794,559.25587,8889.8303)" />
        <path
           id="path25673-8-9-3-8-5-4-6"
           style="fill:#000000;fill-rule:evenodd;stroke-width:2.01553;stroke-linecap:round;stroke-linejoin:round;paint-order:markers fill stroke"
           d="m 315.22419,9844.7956 c -1.24946,0 -2.12348,0.091 -2.39491,1.3787 l -1.13217,4.5002 -0.89298,-0.7608 c -0.77077,-0.5879 -1.41007,0.5506 -0.73,0.9342 l 1.32374,1.132 c 0.0924,0.4268 0.28197,0.8288 0.73763,1.1179 v 0.3171 l -0.87539,0.7955 c -0.62987,0.6332 -0.59065,1.2663 -0.57843,1.8995 v 6.8749 l -2.08472,6.5241 c 0,0 -0.56377,1.7716 1.30054,2.2711 1.86436,0.4996 2.04392,-1.053 2.04392,-1.053 l 2.47252,-7.5659 0.10824,-0.8164 -0.0828,-4.2942 3.73685,5.0376 -3.46843,6.0492 c 0,0 -1.10557,1.6268 0.47513,2.5395 1.58081,0.9125 2.51871,-0.4129 2.51871,-0.4129 l 4.06716,-7.3086 c 0.38559,-0.7306 0.63161,-1.7781 -0.22706,-2.5601 l -0.59874,-0.6194 0.24199,-0.4263 7.35646,6.2908 c -1.09459,0.6212 -1.22298,1.1045 -1.50365,1.6094 -0.92438,0.064 -1.79082,0.2722 -2.10215,1.8686 -2.34627,0.032 -2.99861,0.9673 -3.21168,1.9271 h 20.70093 c -0.39908,-1.3055 -1.69874,-2.0047 -2.71546,-2.0731 -0.31096,-0.4392 -0.61767,-0.8914 -1.0802,-0.8759 -0.0153,-1.3862 -0.68627,-2.5837 -2.83212,-2.5109 -1.10384,-2.3325 -4.18967,-2.7652 -5.81027,-0.6133 -0.0783,0.031 -0.15422,0.061 -0.22784,0.091 l -7.96512,-6.7863 3.81501,-6.7184 c 0.66959,-1.288 0.79565,-1.7436 -0.22704,-3.0763 l -2.49816,-3.9227 c -0.35828,-0.6006 -1.04843,-0.7328 -2.00257,-0.7643 z m 0.10557,2.9868 h 2.16022 v 0.2918 l -2.62734,2.6277 h -0.23373 z m 5.95627,6.1312 -1.81036,3.3579 -1.78089,-1.5475 z" />
        <ellipse
           style="fill:#000000;fill-rule:evenodd;stroke-width:2.20567;stroke-linecap:round;stroke-linejoin:round;paint-order:markers fill stroke"
           id="path26278-8-5-8-6-5-8-7"
           cx="327.53421"
           cy="9846.585"
           rx="2.5401757"
           ry="2.5401883" />
      </g>
      <g
         id="g959">
        <path
           d="m 6.05007,-87.553 v 27.1401 H -4.50289 v -44.0028 H 6.57358 l 19.12207,27.8014 v -27.8014 h 9.80902 v 44.0028 H 24.73128 Z"
           id="path10304"
           style="fill-rule:evenodd;stroke-width:24.4557;stroke-opacity:0.572308;paint-order:markers fill stroke" />
        <path
           d="m 67.16355,-70.0015 q 2.72779,-0.055 4.65653,-1.0195 1.95629,-0.9643 3.22375,-2.6451 1.26745,-1.7083 1.90118,-4.0228 0.66129,-2.3145 0.66129,-5.0698 0,-2.0941 -0.52352,-4.3535 -0.49596,-2.2593 -1.70831,-4.1605 -1.21235,-1.9288 -3.25131,-3.1687 -2.01139,-1.2399 -5.01472,-1.2399 -2.70023,0 -4.71163,1.1297 -1.98385,1.1297 -3.27886,2.9482 -1.26746,1.791 -1.79097,4.133 -0.52352,2.3421 -0.4133,4.7668 0.16532,2.8104 0.77149,5.0974 0.63373,2.2869 1.84608,3.9677 1.21235,1.6532 3.08599,2.6175 1.90118,0.9644 4.54631,1.0195 z m -0.0551,10.2774 q -5.01472,0 -8.98241,-1.7909 -3.94014,-1.8186 -6.69548,-4.9596 -2.75534,-3.1411 -4.24323,-7.3017 -1.46033,-4.1881 -1.46033,-8.9273 0,-4.9045 1.46033,-9.0375 1.48789,-4.1606 4.24323,-7.1639 2.75534,-3.0309 6.69548,-4.7117 3.96769,-1.7083 8.98241,-1.7083 5.09739,0 9.09263,1.7083 3.99525,1.6808 6.75059,4.7117 2.78289,3.0033 4.24322,7.1639 1.48789,4.133 1.48789,9.0375 0,4.6841 -1.48789,8.8722 -1.46033,4.1606 -4.24322,7.3016 -2.75534,3.1136 -6.75059,4.9597 -3.99524,1.846 -9.09263,1.846 z"
           id="path10306"
           style="fill-rule:evenodd;stroke-width:24.4557;stroke-opacity:0.572308;paint-order:markers fill stroke" />
        <path
           d="m 126.95446,-104.4157 -11.02136,44.0028 h -11.26935 l -11.35201,-44.0028 h 9.58859 l 7.38431,27.9116 6.83325,-27.9116 z"
           id="path10308"
           style="fill-rule:evenodd;stroke-width:24.4557;stroke-opacity:0.572308;paint-order:markers fill stroke" />
        <path
           d="m 155.61001,-76.7796 -4.8494,-14.6584 -4.68408,14.6584 z m -12.64701,9.3681 -2.23183,6.9986 h -10.49785 l 14.27267,-44.0028 h 13.08787 l 14.27267,44.0028 h -10.8836 l -2.25938,-6.9986 z"
           id="path10310"
           style="fill-rule:evenodd;stroke-width:24.4557;stroke-opacity:0.572308;paint-order:markers fill stroke" />
        <path
           d="m 179.58149,-104.4157 h 17.49643 q 3.55439,0 6.61282,0.7439 3.05843,0.7164 5.2627,2.3972 2.23183,1.6532 3.49928,4.2983 1.29501,2.6451 1.29501,6.5302 0,4.0779 -2.17672,6.9985 -2.17672,2.8932 -6.36484,5.2627 l 10.96626,17.772 H 205.04085 L 194.543,-77.0552 h -4.8494 v 16.6423 h -10.11211 z m 16.89025,8.7895 h -6.99857 v 9.3682 h 6.99857 q 1.2399,0 2.36959,-0.1653 1.12969,-0.1653 1.9563,-0.6613 0.85415,-0.5235 1.35011,-1.4328 0.52352,-0.9092 0.52352,-2.3696 0,-2.3145 -1.37767,-3.5819 -1.37767,-1.2675 -4.82185,-1.1573 z"
           id="path10312"
           style="fill-rule:evenodd;stroke-width:24.4557;stroke-opacity:0.572308;paint-order:markers fill stroke" />
        <path
           d="m 246.50876,-76.7796 -4.8494,-14.6584 -4.68409,14.6584 z m -12.64702,9.3681 -2.23183,6.9986 h -10.49785 l 14.27267,-44.0028 h 13.08787 l 14.27267,44.0028 h -10.8836 l -2.25938,-6.9986 z"
           id="path10314"
           style="fill-rule:evenodd;stroke-width:24.4557;stroke-opacity:0.572308;paint-order:markers fill stroke" />
      </g>
      <g
         id="g951">
        <path
           d="m 36.510232,361.75623 q -1.116398,0.974 -1.923897,1.71 -0.807599,0.713 -1.496398,1.306 -0.6651,0.57 -1.306399,1.069 -0.641299,0.475 -1.401298,1.022 h 11.614685 v 8.21799 H 15.20466 v -7.292 q 1.733897,-1.42499 3.467795,-2.73199 1.733898,-1.306 3.562796,-2.731 1.852697,-1.449 3.847895,-3.03999 1.995097,-1.615 4.346594,-3.611 1.591398,-1.472 2.280197,-3.325 0.688799,-1.87599 0.38,-3.58599 -0.285,-1.711 -1.591398,-2.874 -1.282599,-1.164 -3.657796,-1.164 -1.116298,0 -2.066397,0.38 -0.950099,0.356 -1.662698,1.187 -0.688799,0.808 -1.140098,2.186 -0.4275,1.353 -0.475,3.396 h -8.716989 q 0,-1.449 0.2138,-3.088 0.2375,-1.639 0.688799,-3.23 0.475,-1.61499 1.163799,-3.03999 0.712599,-1.449 1.686398,-2.423 1.995197,-1.971 4.869193,-2.85 2.873997,-0.87899 5.771693,-0.87899 2.921496,0 5.652993,0.78399 2.731496,0.76 4.679094,2.85 2.232697,2.399 3.159095,5.34399 0.926299,2.945 0.6175,5.914 -0.285,2.94599 -1.757598,5.70099 -1.448898,2.75499 -4.014095,4.79799 z"
           id="path9350-1"
           style="fill:#000000;fill-rule:evenodd;stroke-width:21.0817;stroke-opacity:0.572308;paint-order:markers fill stroke" />
        <path
           d="m 67.089993,337.03026 h 8.645689 v 7.83799 l 4.085394,-7.83799 h 8.526889 l -6.911791,13.39599 8.550689,24.65497 h -8.550689 l -5.106693,-14.84499 -0.593799,1.116 v 13.72899 h -8.645689 z"
           style="fill:#000000;fill-rule:evenodd;stroke-width:21.0817;stroke-opacity:0.572308;paint-order:markers fill stroke"
           id="path9353-9" />
        <path
           d="m 112.62253,357.90824 v 17.17298 h -7.57689 v -17.17298 q 0,-1.401 -0.475,-1.9 -0.4513,-0.523 -1.18759,-0.523 -1.6152,0 -1.6152,2.423 v 17.17298 h -7.244293 v -25.72397 h 6.080493 l 0.4513,1.497 q 0.57,-0.57 1.7101,-1.378 1.1639,-0.807 2.85019,-0.807 2.0427,0 3.3253,0.783 1.3064,0.76 2.1852,2.043 0.87879,-1.211 2.11389,-2.019 1.2351,-0.807 2.9453,-0.807 2.2802,0 3.70529,0.831 1.4489,0.831 2.2089,2.209 0.7838,1.37699 1.0451,3.18299 0.285,1.805 0.285,3.752 v 16.43698 h -7.55309 v -17.17298 q 0,-2.423 -1.6389,-2.423 -0.8788,0 -1.2588,0.618 -0.3563,0.594 -0.3563,1.805 z"
           style="fill:#000000;fill-rule:evenodd;stroke-width:21.0817;stroke-opacity:0.572308;paint-order:markers fill stroke"
           id="path9355-2" />
      </g>
      <path
         id="path4594-1-7-9-0-1-0-3-0-6-1-8-6-3-0-3-8-6-1-8-6"
         style="fill:#000000;stroke-width:48.4529;paint-order:fill markers stroke"
         d="m -154.42898,323.3134 -17.92261,31.054 c -1.15669,2.002 0.32216,2.686 1.7921,2.291 l 8.10735,-1.994 c 1.85037,-0.493 2.49979,-0.509 2.48998,1.45 l -10e-5,33.345 h 11.06736 l -2e-4,-33.345 c 0,-1.96 0.64031,-1.945 2.49038,-1.45 l 8.10805,1.994 c 1.47214,0.398 2.94779,-0.289 1.7915,-2.291 z"
         sodipodi:nodetypes="cccccccccccc" />
      <path
         id="path4594-1-7-9-0-1-0-3-0-6-1-8-6-3-0-3-8-6-1-8-35-9"
         style="fill:#000000;stroke-width:48.4529;paint-order:fill markers stroke"
         d="m 290.43673,323.3134 -17.9227,31.054 c -1.1567,2.002 0.3221,2.685 1.7921,2.291 l 8.1074,-1.994 c 1.8503,-0.494 2.4998,-0.51 2.4899,1.449 l -1e-4,33.346 h 11.0674 l -3e-4,-33.346 c 0,-1.96 0.6404,-1.944 2.4905,-1.449 l 8.108,1.994 c 1.4722,0.398 2.9478,-0.29 1.7915,-2.291 z"
         sodipodi:nodetypes="cccccccccccc" />
    </g>
  </g>
</svg>
