<?xml version="1.0" encoding="UTF-8" standalone="no"?>
<!-- Created with Inkscape (http://www.inkscape.org/) -->

<svg
   xmlns:dc="http://purl.org/dc/elements/1.1/"
   xmlns:cc="http://creativecommons.org/ns#"
   xmlns:rdf="http://www.w3.org/1999/02/22-rdf-syntax-ns#"
   xmlns:svg="http://www.w3.org/2000/svg"
   xmlns="http://www.w3.org/2000/svg"
   xmlns:sodipodi="http://sodipodi.sourceforge.net/DTD/sodipodi-0.dtd"
   xmlns:inkscape="http://www.inkscape.org/namespaces/inkscape"
   width="1454.8438"
   height="984.03125"
   id="svg16130"
   version="1.1"
   inkscape:version="0.48.5 r10040"
   sodipodi:docname="Nuovo documento 39">
  <defs
     id="defs16132" />
  <sodipodi:namedview
     id="base"
     pagecolor="#ffffff"
     bordercolor="#666666"
     borderopacity="1.0"
     inkscape:pageopacity="0.0"
     inkscape:pageshadow="2"
     inkscape:zoom="0.49497475"
     inkscape:cx="486.11733"
     inkscape:cy="656.13721"
     inkscape:document-units="px"
     inkscape:current-layer="layer1"
     showgrid="false"
     fit-margin-top="0"
     fit-margin-left="0"
     fit-margin-right="0"
     fit-margin-bottom="0"
     inkscape:window-width="1366"
     inkscape:window-height="705"
     inkscape:window-x="-8"
     inkscape:window-y="-8"
     inkscape:window-maximized="1" />
  <metadata
     id="metadata16135">
    <rdf:RDF>
      <cc:Work
         rdf:about="">
        <dc:format>image/svg+xml</dc:format>
        <dc:type
           rdf:resource="http://purl.org/dc/dcmitype/StillImage" />
        <dc:title></dc:title>
      </cc:Work>
    </rdf:RDF>
  </metadata>
  <g
     inkscape:label="Livello 1"
     inkscape:groupmode="layer"
     id="layer1"
     transform="translate(1055.0625,231.65625)">
    <rect
       y="-231.15556"
       x="-1054.5735"
       height="983.03223"
       width="1453.8533"
       id="rect16757"
       style="fill:#ffffff;fill-opacity:1;stroke:none" />
    <path
       sodipodi:nodetypes="ccccccc"
       inkscape:connector-curvature="0"
       id="path16159-9-2"
       d="m -973.79813,141.04899 772.40525,0 -9.8995,-48.428899 -792.72022,0 0,648.428899 30.21447,36.74996 z"
       style="fill:#b4b4b4;fill-opacity:1;stroke:#000000;stroke-width:2;stroke-linecap:butt;stroke-linejoin:miter;stroke-miterlimit:4;stroke-opacity:1;stroke-dasharray:none" />
    <path
       style="fill:#b4b4b4;fill-opacity:1;stroke:#000000;stroke-width:2;stroke-linecap:butt;stroke-linejoin:miter;stroke-miterlimit:4;stroke-opacity:1;stroke-dasharray:none"
       d="m 320.61372,141.04899 -569.40515,0 9.8995,-48.428899 589.72015,0 0,648.428899 -30.2145,36.74996 z"
       id="path16161-9-9"
       inkscape:connector-curvature="0"
       sodipodi:nodetypes="ccccccc" />
    <rect
       style="fill:#00408b;fill-opacity:1;fill-rule:evenodd;stroke:none"
       id="rect4938-7"
       width="550"
       height="375"
       x="-951.09216"
       y="-181.79045" />
    <rect
       style="fill:#ffffff;fill-opacity:1;stroke:#000000;stroke-width:2;stroke-miterlimit:4;stroke-opacity:1;stroke-dasharray:none"
       id="rect12213"
       width="173.00002"
       height="58.000004"
       x="-762.59216"
       y="107.70966" />
    <rect
       y="-76.790459"
       x="-351.09219"
       height="270"
       width="500"
       id="rect8507"
       style="fill:#ffffff;fill-opacity:1;stroke:#000000;stroke-opacity:1" />
    <rect
       y="114.20954"
       x="-756.09216"
       height="45"
       width="160"
       id="rect15859"
       style="fill:#000000;fill-opacity:1;stroke:none" />
    <rect
       style="fill:#08842c;fill-opacity:1;stroke:#ffffff;stroke-width:3.05355239;stroke-miterlimit:4;stroke-opacity:1;stroke-dasharray:none"
       id="rect8538"
       width="331.94644"
       height="66.946449"
       x="-915.17139"
       y="-135.26373" />
    <rect
       style="fill:#00408b;fill-opacity:1;stroke:none"
       id="rect8538-3"
       width="410"
       height="65"
       x="-306.09219"
       y="8.2095423" />
    <rect
       style="fill:none;stroke:#ffffff;stroke-width:5.99999952;stroke-miterlimit:4;stroke-opacity:1;stroke-dasharray:none"
       id="rect4940-8"
       width="538"
       height="363"
       x="-945.09241"
       y="-175.79045"
       rx="21"
       ry="21" />
    <g
       style="font-size:42.67407608px;font-style:normal;font-weight:normal;line-height:125%;letter-spacing:0px;word-spacing:0px;fill:#ffffff;fill-opacity:1;stroke:none;font-family:Sans"
       id="text8509">
      <path
         d="m -891.77765,-26.833479 0,5.504862 -9.34537,0 0,24.5381144 -6.23025,0 0,-24.5797884 -9.34537,0 0,-5.463188 z"
         style="font-variant:normal;font-stretch:normal;letter-spacing:0.80000001px;word-spacing:4px;fill:#ffffff;font-family:CodiceBianco;-inkscape-font-specification:CodiceBianco"
         id="path16841" />
      <path
         d="m -859.0294,-11.981942 c -3e-5,4.80727 -1.37961,8.6477768 -4.13874,11.52153141 -2.64544,2.73137959 -6.05923,4.09706679 -10.24136,4.09706549 -4.18216,1.3e-6 -7.58205,-1.3656859 -10.19969,-4.09706549 -2.75916,-2.87375461 -4.13874,-6.71426141 -4.13873,-11.52153141 -10e-6,-4.69437 1.52196,-8.464118 4.56589,-11.309256 2.73137,-2.531658 5.98888,-3.797502 9.77253,-3.797534 3.78363,3.2e-5 7.04113,1.265876 9.77253,3.797534 3.07169,2.845138 4.60754,6.614886 4.60757,11.309256 z m -6.57145,0 c -2e-5,-2.816442 -0.71825,-5.064009 -2.15467,-6.742707 -1.43647,-1.678652 -3.32113,-2.51799 -5.65398,-2.518016 -2.33288,2.6e-5 -4.20343,0.839364 -5.61165,2.518016 -1.40824,1.678698 -2.11235,3.926265 -2.11234,6.742707 -10e-6,2.9302099 0.59731,5.2201017 1.79197,6.869682 1.33703,1.8779384 3.31437,2.8169026 5.93202,2.8168954 2.64541,7.2e-6 4.63664,-0.938957 5.9737,-2.8168954 1.22327,-1.6782311 1.83493,-3.9681229 1.83495,-6.869682 z"
         style="font-variant:normal;font-stretch:normal;letter-spacing:0.80000001px;word-spacing:4px;fill:#ffffff;font-family:CodiceBianco;-inkscape-font-specification:CodiceBianco"
         id="path16843" />
      <path
         d="m -847.19623,-2.2094122 13.78364,0 0,5.4189096 -19.67268,0 0,-30.0000004 5.88904,0 z"
         style="font-variant:normal;font-stretch:normal;letter-spacing:0.80000001px;word-spacing:4px;fill:#ffffff;font-family:CodiceBianco;-inkscape-font-specification:CodiceBianco"
         id="path16845" />
      <path
         d="m -821.15877,-26.790503 8.32176,11.65046 8.4064,-11.65046 6.95564,0 0,30.0000004 -5.9737,0 0,-20.9528564 -9.38834,12.631099 -9.3024,-12.631099 0,20.9528564 -5.975,0 0,-30.0000004 z"
         style="font-variant:normal;font-stretch:normal;letter-spacing:0.80000001px;word-spacing:4px;fill:#ffffff;font-family:CodiceBianco;-inkscape-font-specification:CodiceBianco"
         id="path16847" />
      <path
         d="m -770.32405,-26.790503 0,5.420212 -14.552,0 0,6.443827 13.05826,0 0,5.4189097 -13.01528,0 0,6.9139608 16.00277,0 0,5.8030909 -22.14837,0 0,-30.0000004 z"
         style="font-variant:normal;font-stretch:normal;letter-spacing:0.80000001px;word-spacing:4px;fill:#ffffff;font-family:CodiceBianco;-inkscape-font-specification:CodiceBianco"
         id="path16849" />
      <path
         d="m -762.8484,-26.790503 21.12345,0 0,5.163657 -13.91126,18.9473001 14.42307,0 0,5.8890433 -22.06242,0 0,-5.9736934 13.35779,-18.478469 -12.93063,0 z"
         style="font-variant:normal;font-stretch:normal;letter-spacing:0.80000001px;word-spacing:4px;fill:#ffffff;font-family:CodiceBianco;-inkscape-font-specification:CodiceBianco"
         id="path16851" />
      <path
         d="m -735.04372,-26.790503 21.12346,0 0,5.163657 -13.91127,18.9473001 14.42308,0 0,5.8890433 -22.06242,0 0,-5.9736934 13.35778,-18.478469 -12.93063,0 z"
         style="font-variant:normal;font-stretch:normal;letter-spacing:0.80000001px;word-spacing:4px;fill:#ffffff;font-family:CodiceBianco;-inkscape-font-specification:CodiceBianco"
         id="path16853" />
      <path
         d="m -679.03231,-11.981942 c -3e-5,4.80727 -1.37961,8.6477768 -4.13874,11.52153141 -2.64545,2.73137959 -6.05923,4.09706679 -10.24136,4.09706549 -4.18216,1.3e-6 -7.58205,-1.3656859 -10.19969,-4.09706549 -2.75916,-2.87375461 -4.13874,-6.71426141 -4.13874,-11.52153141 0,-4.69437 1.52196,-8.464118 4.5659,-11.309256 2.73137,-2.531658 5.98887,-3.797502 9.77253,-3.797534 3.78362,3.2e-5 7.04113,1.265876 9.77253,3.797534 3.07168,2.845138 4.60754,6.614886 4.60757,11.309256 z m -6.57145,0 c -3e-5,-2.816442 -0.71825,-5.064009 -2.15467,-6.742707 -1.43647,-1.678652 -3.32113,-2.51799 -5.65398,-2.518016 -2.33288,2.6e-5 -4.20343,0.839364 -5.61165,2.518016 -1.40824,1.678698 -2.11236,3.926265 -2.11235,6.742707 -1e-5,2.9302099 0.59732,5.2201017 1.79198,6.869682 1.33703,1.8779384 3.31436,2.8169026 5.93202,2.8168954 2.64541,7.2e-6 4.63663,-0.938957 5.97369,-2.8168954 1.22328,-1.6782311 1.83493,-3.9681229 1.83496,-6.869682 z"
         style="font-variant:normal;font-stretch:normal;letter-spacing:0.80000001px;word-spacing:4px;fill:#ffffff;font-family:CodiceBianco;-inkscape-font-specification:CodiceBianco"
         id="path16855" />
    </g>
    <g
       style="font-size:42.67407608px;font-style:normal;font-weight:normal;line-height:125%;letter-spacing:0px;word-spacing:0px;fill:#ffffff;fill-opacity:1;stroke:none;font-family:Sans"
       id="text8513">
      <path
         d="m -915.9311,58.486888 c 0,-5.6329 1.79241,-9.857588 5.37724,-12.674075 2.61763,-2.048068 5.63334,-3.072116 9.04714,-3.072148 3.129,3.2e-5 5.93113,0.846315 8.40641,2.538852 2.47523,1.692596 4.2251,4.060843 5.24961,7.104749 l -5.93202,2.348064 c -0.34123,-1.849257 -1.23027,-3.357113 -2.66713,-4.523572 -1.4369,-1.166409 -3.0943,-1.749626 -4.97222,-1.749653 -1.19466,2.7e-5 -2.34677,0.255713 -3.45633,0.767061 -3.18632,1.451665 -4.7365,4.496027 -4.65054,9.133096 0.0564,2.446619 0.3477,4.238812 0.87385,5.376584 0.52612,1.137795 1.57187,2.218928 3.13726,3.243402 1.13734,0.76837 2.38885,1.152551 3.75456,1.152544 1.93521,7e-6 3.71351,-0.675674 5.33491,-2.027045 1.62135,-1.351353 2.53145,-2.866588 2.73029,-4.545711 l 5.84737,2.389738 c -0.42719,1.67912 -1.50854,3.443314 -3.24405,5.292586 -2.78784,2.930199 -6.28714,4.395295 -10.49792,4.395294 -3.18633,1e-6 -6.04533,-0.86777 -8.57701,-2.603317 -3.84095,-2.617635 -5.76142,-6.799781 -5.76142,-12.546449 z"
         style="font-variant:normal;font-stretch:normal;letter-spacing:1.5px;word-spacing:4px;fill:#ffffff;font-family:CodiceBianco;-inkscape-font-specification:CodiceBianco"
         id="path16807" />
      <path
         d="m -875.11828,43.209496 0,30 -6.18727,0 0,-30 z"
         style="font-variant:normal;font-stretch:normal;letter-spacing:1.5px;word-spacing:4px;fill:#ffffff;font-family:CodiceBianco;-inkscape-font-specification:CodiceBianco"
         id="path16809" />
      <path
         d="m -863.63998,43.209496 5.84737,21.209412 6.27322,-21.209412 6.35787,0 -8.74761,30 -7.80995,0 -8.19283,-30 z"
         style="font-variant:normal;font-stretch:normal;letter-spacing:1.5px;word-spacing:4px;fill:#ffffff;font-family:CodiceBianco;-inkscape-font-specification:CodiceBianco"
         id="path16811" />
      <path
         d="m -833.19485,43.209496 0,30 -6.18728,0 0,-30 z"
         style="font-variant:normal;font-stretch:normal;letter-spacing:1.5px;word-spacing:4px;fill:#ffffff;font-family:CodiceBianco;-inkscape-font-specification:CodiceBianco"
         id="path16813" />
      <path
         d="m -812.36989,42.825315 c 2.67406,3.2e-5 5.36246,1.038405 8.06521,3.115124 3.69853,2.845138 5.54781,6.871007 5.54784,12.077618 -3e-5,5.234427 -1.8211,9.274187 -5.46319,12.119291 -2.6741,2.076753 -5.39071,3.115126 -8.14986,3.115125 l -12.803,0 0,-30.427158 z m -0.47013,5.463188 -5.97369,0 0,19.373155 5.63249,0 c 2.33285,7e-6 4.21034,-0.782246 5.63248,-2.346761 1.53671,-1.706883 2.30507,-4.13916 2.30509,-7.29684 -2e-5,-3.442418 -0.88212,-6.017081 -2.64629,-7.723998 -1.36571,-1.337011 -3.01573,-2.00553 -4.95008,-2.005556 z"
         style="font-variant:normal;font-stretch:normal;letter-spacing:1.5px;word-spacing:4px;fill:#ffffff;font-family:CodiceBianco;-inkscape-font-specification:CodiceBianco"
         id="path16815" />
      <path
         d="m -785.6702,43.209496 8.61999,0 10.19838,30 -6.61443,0 -1.70602,-5.03603 -12.24822,0 -1.66435,5.03603 -6.40086,0 z m 4.30934,6.742056 -4.18171,12.632402 8.53533,0 z"
         style="font-variant:normal;font-stretch:normal;letter-spacing:1.5px;word-spacing:4px;fill:#ffffff;font-family:CodiceBianco;-inkscape-font-specification:CodiceBianco"
         id="path16817" />
      <path
         d="m -755.53111,67.790587 13.78364,0 0,5.418909 -19.67268,0 0,-30 5.88904,0 z"
         style="font-variant:normal;font-stretch:normal;letter-spacing:1.5px;word-spacing:4px;fill:#ffffff;font-family:CodiceBianco;-inkscape-font-specification:CodiceBianco"
         id="path16819" />
      <path
         d="m -715.26526,43.209496 0,5.420212 -14.55201,0 0,6.443827 13.05826,0 0,5.41891 -13.01528,0 0,6.913961 16.00278,0 0,5.80309 -22.14838,0 0,-30 z"
         style="font-variant:normal;font-stretch:normal;letter-spacing:1.5px;word-spacing:4px;fill:#ffffff;font-family:CodiceBianco;-inkscape-font-specification:CodiceBianco"
         id="path16821" />
    </g>
    <g
       style="font-size:42.67407608px;font-style:normal;font-weight:normal;line-height:125%;letter-spacing:0px;word-spacing:0px;fill:#ffffff;fill-opacity:1;stroke:none;font-family:Sans"
       id="text8513-6">
      <path
         d="m -821.69211,-108.80995 c 2.21825,2e-5 4.15261,0.45496 5.80309,1.36482 1.96299,1.10959 2.9445,2.6602 2.94452,4.65185 l 0,8.492358 c -2e-5,1.138226 0.0568,1.835395 0.1706,2.091509 0.2561,0.711067 0.95327,1.066597 2.09151,1.066591 l -2.04853,4.7365 c -0.71108,-0.02865 -1.36571,-0.114168 -1.96388,-0.256555 -1.45079,-0.341203 -2.54604,-0.966745 -3.28573,-1.876628 -1.56452,1.422124 -3.74068,2.133184 -6.52848,2.133183 -1.93437,10e-7 -3.61999,-0.668517 -5.05687,-2.005557 -1.43688,-1.337033 -2.14099,-2.83078 -2.11234,-4.481247 0.0564,-4.039752 2.60244,-6.429487 7.63804,-7.169214 l 4.95008,-0.72539 c 0.0859,-1.10955 -0.1984,-1.8918 -0.85301,-2.34676 -0.56869,-0.34118 -1.50765,-0.51179 -2.8169,-0.5118 -2.07676,10e-6 -4.03977,0.78227 -5.88904,2.34676 l -2.85857,-4.18172 c 2.56034,-2.21911 5.83217,-3.32868 9.81551,-3.3287 z m -2.00686,13.271834 c -1.47943,0.256131 -2.21915,0.981517 -2.21914,2.176159 -1e-5,0.625984 0.32731,1.116737 0.98194,1.472261 0.65462,0.355537 1.42298,0.533302 2.30509,0.533296 0.90987,6e-6 1.70623,-0.170814 2.38909,-0.512459 0.68283,-0.341632 1.08112,-0.825006 1.19487,-1.450122 l 0,-2.987498 z"
         style="font-variant:normal;font-stretch:normal;letter-spacing:1px;fill:#ffffff;font-family:CodiceBianco;-inkscape-font-specification:CodiceBianco"
         id="path16858" />
      <path
         d="m -799.96846,-108.51172 0,12.205241 c -10e-6,1.223313 0.44104,2.219145 1.32314,2.987498 0.76835,0.682418 1.70688,1.023623 2.8156,1.023615 1.08177,8e-6 1.99946,-0.341414 2.75308,-1.024266 0.75358,-0.682835 1.13039,-1.664125 1.1304,-2.94387 l 0,-12.248218 6.18858,0 0,21.507638 -5.50486,0 -0.64074,-1.237194 c -1.36571,1.251955 -3.27185,1.877931 -5.71844,1.87793 -2.30423,1e-6 -4.22427,-0.6403 -5.76012,-1.920906 -1.79285,-1.50807 -2.68927,-3.670336 -2.68927,-6.486804 l 0,-13.740664 z"
         style="font-variant:normal;font-stretch:normal;letter-spacing:1px;fill:#ffffff;font-family:CodiceBianco;-inkscape-font-specification:CodiceBianco"
         id="path16860" />
      <path
         d="m -771.97289,-108.76698 5.59081,0 0,5.07771 -5.59081,0 0,9.302395 c -10e-6,1.621817 0.9103,2.432721 2.73094,2.432715 0.76835,6e-6 1.56493,-0.128054 2.38974,-0.384182 l 1.15254,5.036031 c -1.87707,0.625978 -3.76889,0.938966 -5.67546,0.938965 -4.52336,1e-6 -6.78504,-1.863602 -6.78503,-5.590814 l 0,-11.73511 -3.49931,0 0,-5.07771 3.49931,0 0,-6.35917 6.18727,-1.749 z"
         style="font-variant:normal;font-stretch:normal;letter-spacing:1px;fill:#ffffff;font-family:CodiceBianco;-inkscape-font-specification:CodiceBianco"
         id="path16862" />
      <path
         d="m -751.50206,-109.23711 c 3.15765,2e-5 5.74642,1.08116 7.76632,3.2434 2.01986,2.16229 3.0298,4.79404 3.02983,7.895254 -3e-5,3.413796 -0.96721,6.215929 -2.90155,8.406407 -1.99168,2.275571 -4.62321,3.413354 -7.8946,3.413353 -3.10124,10e-7 -5.66201,-1.038372 -7.68232,-3.115124 -2.16184,-2.190478 -3.24276,-5.092021 -3.24275,-8.704636 -10e-6,-3.214954 0.99583,-5.875134 2.98749,-7.980554 1.99166,-2.10538 4.63752,-3.15808 7.93758,-3.1581 z m -5.16366,11.180327 c -0.0287,4.43828 1.69256,6.657413 5.16366,6.657406 3.32869,7e-6 4.99304,-2.219126 4.99305,-6.657406 -10e-6,-2.161817 -0.72583,-3.783187 -2.17746,-4.864127 -0.93854,-0.68326 -1.87707,-1.0249 -2.81559,-1.02492 -1.08093,2e-5 -2.06243,0.29869 -2.94452,0.89599 -1.45078,0.99585 -2.19049,2.6602 -2.21914,4.993057 z"
         style="font-variant:normal;font-stretch:normal;letter-spacing:1px;fill:#ffffff;font-family:CodiceBianco;-inkscape-font-specification:CodiceBianco"
         id="path16864" />
      <path
         d="m -728.29899,-109.74892 c 3.61346,3e-5 6.92783,1.06662 9.94313,3.19978 l -3.92516,4.22469 c -1.28062,-1.27972 -2.63198,-2.0051 -4.05409,-2.17616 -0.34208,-0.0278 -0.6694,-0.0417 -0.98194,-0.0417 -0.91076,2e-5 -1.66479,0.15629 -2.26211,0.46883 -0.59733,0.31257 -0.896,0.71108 -0.89599,1.19552 -10e-6,0.4263 0.27044,0.72497 0.81134,0.89599 0.28389,0.11375 1.39346,0.36944 3.3287,0.76706 l 2.43141,0.51311 c 1.6791,0.34122 3.01657,1.066603 4.01242,2.176156 1.10955,1.223315 1.66433,2.730954 1.66435,4.522921 -2e-5,1.593166 -0.54091,3.044371 -1.62268,4.35362 -1.62095,1.877065 -4.12443,2.815595 -7.51042,2.815593 -4.06842,2e-6 -7.66713,-1.35136 -10.79614,-4.054089 l 4.13874,-3.883487 c 2.19134,1.792854 4.496,2.689276 6.91396,2.689269 1.59315,7e-6 2.38972,-0.540451 2.38974,-1.621375 -2e-5,-0.625968 -0.3842,-1.081341 -1.15255,-1.366123 -0.31256,-0.08507 -1.79198,-0.412387 -4.43827,-0.981941 -2.07675,-0.426278 -3.59872,-1.080471 -4.56589,-1.96258 -1.13822,-1.052252 -1.70733,-2.546004 -1.70733,-4.481244 0,-2.47437 0.92464,-4.36619 2.77392,-5.67547 1.50807,-1.05224 3.34302,-1.57837 5.50486,-1.5784 z"
         style="font-variant:normal;font-stretch:normal;letter-spacing:1px;fill:#ffffff;font-family:CodiceBianco;-inkscape-font-specification:CodiceBianco"
         id="path16866" />
      <path
         d="m -705.54521,-108.76698 5.59081,0 0,5.07771 -5.59081,0 0,9.302395 c -10e-6,1.621817 0.9103,2.432721 2.73094,2.432715 0.76835,6e-6 1.56493,-0.128054 2.38974,-0.384182 l 1.15254,5.036031 c -1.87708,0.625978 -3.7689,0.938966 -5.67546,0.938965 -4.52336,1e-6 -6.78504,-1.863602 -6.78504,-5.590814 l 0,-11.73511 -3.4993,0 0,-5.07771 3.4993,0 0,-6.35917 6.18728,-1.749 z"
         style="font-variant:normal;font-stretch:normal;letter-spacing:1px;fill:#ffffff;font-family:CodiceBianco;-inkscape-font-specification:CodiceBianco"
         id="path16868" />
      <path
         d="m -681.83163,-109.02353 0,6.18727 c -0.4263,-0.0564 -0.85303,-0.0846 -1.28017,-0.0847 -1.67825,2e-5 -3.05783,0.38377 -4.13874,1.15124 -1.19553,0.82568 -1.79329,1.949575 -1.79328,3.371682 l 0,11.564508 -5.97369,0 0,-21.67824 5.97369,0 0,1.87793 c 1.79284,-1.62179 3.91256,-2.43269 6.35918,-2.43272 0.34119,3e-5 0.62553,0.0143 0.85301,0.043 z"
         style="font-variant:normal;font-stretch:normal;letter-spacing:1px;fill:#ffffff;font-family:CodiceBianco;-inkscape-font-specification:CodiceBianco"
         id="path16870" />
      <path
         d="m -667.99997,-108.80995 c 2.21825,2e-5 4.15261,0.45496 5.80309,1.36482 1.96299,1.10959 2.9445,2.6602 2.94452,4.65185 l 0,8.492358 c -2e-5,1.138226 0.0568,1.835395 0.1706,2.091509 0.2561,0.711067 0.95327,1.066597 2.09151,1.066591 l -2.04853,4.7365 c -0.71108,-0.02865 -1.36571,-0.114168 -1.96389,-0.256555 -1.45079,-0.341203 -2.54603,-0.966745 -3.28572,-1.876628 -1.56452,1.422124 -3.74068,2.133184 -6.52848,2.133183 -1.93437,10e-7 -3.61999,-0.668517 -5.05687,-2.005557 -1.43688,-1.337033 -2.141,-2.83078 -2.11234,-4.481247 0.0564,-4.039752 2.60244,-6.429487 7.63804,-7.169214 l 4.95008,-0.72539 c 0.0859,-1.10955 -0.1984,-1.8918 -0.85301,-2.34676 -0.56869,-0.34118 -1.50766,-0.51179 -2.8169,-0.5118 -2.07676,10e-6 -4.03977,0.78227 -5.88904,2.34676 l -2.85857,-4.18172 c 2.56033,-2.21911 5.83217,-3.32868 9.81551,-3.3287 z m -2.00686,13.271834 c -1.47944,0.256131 -2.21915,0.981517 -2.21914,2.176159 -1e-5,0.625984 0.32731,1.116737 0.98194,1.472261 0.65462,0.355537 1.42298,0.533302 2.30509,0.533296 0.90987,6e-6 1.70623,-0.170814 2.38909,-0.512459 0.68283,-0.341632 1.08112,-0.825006 1.19487,-1.450122 l 0,-2.987498 z"
         style="font-variant:normal;font-stretch:normal;letter-spacing:1px;fill:#ffffff;font-family:CodiceBianco;-inkscape-font-specification:CodiceBianco"
         id="path16872" />
      <path
         d="m -631.46907,-116.57693 0,29.74345 -5.50486,0 -0.51181,-1.194217 c -1.82064,1.223304 -3.5844,1.834955 -5.29128,1.834954 -2.67409,10e-7 -4.92144,-0.853445 -6.74206,-2.560341 -2.21914,-2.076744 -3.3287,-5.064239 -3.3287,-8.962493 0,-3.356473 1.02404,-6.044873 3.07215,-8.065203 1.9057,-1.84926 4.23857,-2.7739 6.99861,-2.77392 1.963,2e-5 3.69854,0.56913 5.20663,1.70733 l 0,-9.72956 z m -15.66027,19.074931 c -1e-5,4.153507 1.69256,6.230255 5.0777,6.230249 1.42211,6e-6 2.57422,-0.440608 3.45633,-1.321844 0.797,-0.825656 1.1955,-1.764621 1.19552,-2.816896 l 0,-3.883487 c -2e-5,-1.024463 -0.36987,-1.934783 -1.10957,-2.730943 -0.91076,-0.93851 -2.14839,-1.40778 -3.71288,-1.4078 -1.39435,2e-5 -2.53257,0.46929 -3.41465,1.4078 -0.99498,1.05228 -1.49246,2.559921 -1.49245,4.522921 z"
         style="font-variant:normal;font-stretch:normal;letter-spacing:1px;fill:#ffffff;font-family:CodiceBianco;-inkscape-font-specification:CodiceBianco"
         id="path16874" />
      <path
         d="m -626.44753,-98.482638 c -10e-6,-3.272252 0.9815,-5.960872 2.94452,-8.065852 1.963,-2.10494 4.50945,-3.15743 7.63934,-3.15745 2.93019,2e-5 5.41933,0.99542 7.46745,2.98619 2.13403,2.13408 3.14418,4.79426 3.03047,7.980557 -2e-5,0.39852 -0.0287,1.180773 -0.0859,2.346762 l -15.10679,0 c 0.71192,2.702735 2.29119,4.054096 4.7378,4.054089 1.53584,7e-6 2.8299,-0.241788 3.88218,-0.725386 0.36984,-0.142378 1.05269,-0.569101 2.04854,-1.28017 l 4.01241,4.054089 c -3.01616,2.304222 -6.33054,3.456331 -9.94313,3.456329 -2.36153,2e-6 -4.5238,-0.739709 -6.4868,-2.219135 -2.76003,-2.076743 -4.14005,-5.220081 -4.14004,-9.430023 z m 6.18857,-2.262112 8.79059,0 c -0.11375,-1.16685 -0.59734,-2.12014 -1.45077,-2.85987 -0.85347,-0.73969 -1.82065,-1.10955 -2.90155,-1.10957 -1.33792,2e-5 -2.43359,0.45539 -3.28703,1.36612 -0.7675,0.79703 -1.15125,1.66481 -1.15124,2.60332 z"
         style="font-variant:normal;font-stretch:normal;letter-spacing:1px;fill:#ffffff;font-family:CodiceBianco;-inkscape-font-specification:CodiceBianco"
         id="path16876" />
    </g>
    <g
       style="font-size:47.00882339px;font-style:normal;font-weight:normal;line-height:125%;letter-spacing:0px;word-spacing:0px;fill:#ffffff;fill-opacity:1;stroke:none;font-family:Sans"
       id="text8509-1">
      <path
         d="m -284.39043,24.208814 c 2.00555,3.5e-5 3.98003,0.893309 5.92345,2.679825 2.22456,2.037155 3.33684,4.465923 3.33687,7.28631 -3e-5,2.820437 -1.03437,5.249204 -3.10303,7.28631 -2.2246,2.162429 -4.99815,3.149908 -8.32066,2.96244 l 0,12.597182 -6.76842,0 0,-32.812067 z m -2.16337,14.479372 c 1.78654,0.03158 3.13458,-0.501131 4.04413,-1.598139 0.68859,-0.846389 1.03289,-1.818087 1.03291,-2.915098 -2e-5,-1.0654 -0.39166,-2.036621 -1.17494,-2.913664 -0.94015,-1.066353 -2.24085,-1.536422 -3.9021,-1.410207 z"
         style="font-variant:normal;font-stretch:normal;word-spacing:4.40631199px;fill:#ffffff;font-family:CodiceBiancoCondensed;-inkscape-font-specification:CodiceBiancoCondensed"
         id="path16788" />
      <path
         d="m -262.38373,23.927634 c 2.5067,3.5e-5 4.66911,1.159665 6.48724,3.478894 2.28768,2.977292 3.43153,7.364759 3.43155,13.162413 -2e-5,5.859857 -1.09701,10.294187 -3.29096,13.303003 -1.75501,2.476115 -3.9332,3.714169 -6.53458,3.714168 -2.72574,10e-7 -5.01344,-1.425985 -6.86311,-4.277964 -2.03713,-3.165665 -3.05569,-7.459405 -3.05569,-12.881232 0,-5.390229 1.00278,-9.573984 3.00835,-12.551276 1.78654,-2.63197 4.05894,-3.947971 6.8172,-3.948006 z m -3.05569,16.453375 c -1e-5,7.145253 1.04964,10.71787 3.14894,10.717862 2.03711,8e-6 3.05567,-3.572609 3.05568,-10.717862 -10e-6,-7.019928 -1.04965,-10.529902 -3.14893,-10.529931 -2.03714,2.9e-5 -3.0557,3.510003 -3.05569,10.529931 z"
         style="font-variant:normal;font-stretch:normal;word-spacing:4.40631199px;fill:#ffffff;font-family:CodiceBiancoCondensed;-inkscape-font-specification:CodiceBiancoCondensed"
         id="path16790" />
      <path
         d="m -239.13755,24.208814 c 2.35081,3.5e-5 4.46636,0.90909 6.34665,2.727166 2.03711,1.943429 3.05567,4.293772 3.05569,7.051037 -2e-5,3.666847 -1.55129,6.51882 -4.65383,8.555927 l 6.72252,14.477937 -6.72252,0 -5.17171,-12.644524 -1.50346,0 0,12.644524 -6.67517,0 0,-32.812067 z m -2.02134,5.171717 0,9.59027 c 1.1907,2.1e-5 2.27191,-0.392102 3.24362,-1.176368 1.1907,-0.940116 1.78605,-2.225034 1.78607,-3.854758 -2e-5,-1.472824 -0.56381,-2.647757 -1.69139,-3.524801 -1.00327,-0.783259 -2.11604,-1.12804 -3.3383,-1.034343 z"
         style="font-variant:normal;font-stretch:normal;word-spacing:4.40631199px;fill:#ffffff;font-family:CodiceBiancoCondensed;-inkscape-font-specification:CodiceBiancoCondensed"
         id="path16792" />
      <path
         d="m -223.32114,24.49143 7.19163,0 c 3.00881,3.4e-5 5.57865,1.363377 7.70952,4.090031 2.3508,2.977292 3.52621,6.89469 3.52623,11.752206 -2e-5,6.674707 -1.70814,11.406954 -5.12437,14.196757 -2.00558,1.660308 -4.2775,2.490459 -6.81576,2.490457 l -6.48725,0 z m 6.39256,26.795373 c 2.06868,-0.12528 3.54942,-1.049876 4.44223,-2.77379 0.89278,-1.723893 1.33918,-4.4819 1.33919,-8.274029 -10e-6,-6.831518 -1.92715,-10.278847 -5.78142,-10.341999 z"
         style="font-variant:normal;font-stretch:normal;word-spacing:4.40631199px;fill:#ffffff;font-family:CodiceBiancoCondensed;-inkscape-font-specification:CodiceBiancoCondensed"
         id="path16794" />
      <path
         d="m -186.55676,24.208814 0,5.124375 -6.67517,0 0,8.08538 5.59492,0 0,5.264965 -5.64226,0 0,9.072382 7.99213,0 0,5.264965 -14.6673,0 0,-32.812067 z"
         style="font-variant:normal;font-stretch:normal;word-spacing:4.40631199px;fill:#ffffff;font-family:CodiceBiancoCondensed;-inkscape-font-specification:CodiceBiancoCondensed"
         id="path16796" />
      <path
         d="m -161.69522,57.020881 -6.72108,0 -4.79585,-16.734556 0,16.734556 -6.72251,0 0,-32.764725 6.72251,0 4.84176,16.546624 0,-16.546624 6.67517,0 z"
         style="font-variant:normal;font-stretch:normal;word-spacing:4.40631199px;fill:#ffffff;font-family:CodiceBiancoCondensed;-inkscape-font-specification:CodiceBiancoCondensed"
         id="path16798" />
      <path
         d="m -147.24884,23.927634 c 2.5067,3.5e-5 4.66911,1.159665 6.48724,3.478894 2.28768,2.977292 3.43153,7.364759 3.43155,13.162413 -2e-5,5.859857 -1.09701,10.294187 -3.29096,13.303003 -1.755,2.476115 -3.9332,3.714169 -6.53458,3.714168 -2.72574,10e-7 -5.01344,-1.425985 -6.86311,-4.277964 -2.03713,-3.165665 -3.05569,-7.459405 -3.05569,-12.881232 0,-5.390229 1.00278,-9.573984 3.00835,-12.551276 1.78654,-2.63197 4.05894,-3.947971 6.8172,-3.948006 z m -3.05569,16.453375 c -1e-5,7.145253 1.04964,10.71787 3.14894,10.717862 2.03711,8e-6 3.05567,-3.572609 3.05569,-10.717862 -2e-5,-7.019928 -1.04966,-10.529902 -3.14894,-10.529931 -2.03714,2.9e-5 -3.0557,3.510003 -3.05569,10.529931 z"
         style="font-variant:normal;font-stretch:normal;word-spacing:4.40631199px;fill:#ffffff;font-family:CodiceBiancoCondensed;-inkscape-font-specification:CodiceBiancoCondensed"
         id="path16800" />
      <path
         d="m -114.31913,57.020881 -6.72108,0 -4.79586,-16.734556 0,16.734556 -6.72251,0 0,-32.764725 6.72251,0 4.84176,16.546624 0,-16.546624 6.67518,0 z"
         style="font-variant:normal;font-stretch:normal;word-spacing:4.40631199px;fill:#ffffff;font-family:CodiceBiancoCondensed;-inkscape-font-specification:CodiceBiancoCondensed"
         id="path16802" />
      <path
         d="m -94.467202,24.208814 0,5.124375 -6.675168,0 0,8.08538 5.594917,0 0,5.264965 -5.642267,0 0,9.072382 7.992135,0 0,5.264965 -14.667305,0 0,-32.812067 z"
         style="font-variant:normal;font-stretch:normal;word-spacing:4.40631199px;fill:#ffffff;font-family:CodiceBiancoCondensed;-inkscape-font-specification:CodiceBiancoCondensed"
         id="path16804" />
    </g>
    <g
       style="font-size:47.00882339px;font-style:normal;font-weight:normal;line-height:125%;letter-spacing:0px;word-spacing:0px;fill:#ffffff;fill-opacity:1;stroke:none;font-family:Sans"
       id="text8565">
      <path
         d="m -34.599333,24.115566 0,5.640829 -3.808851,0 0,27.35917 -7.003695,0 0,-27.311828 -4.18328,0 0,-5.688171 z"
         style="font-variant:normal;font-stretch:normal;word-spacing:4.40631199px;fill:#ffffff;font-family:CodiceBiancoCondensed;-inkscape-font-specification:CodiceBiancoCondensed"
         id="path16760" />
      <path
         d="m -20.127133,24.208814 c 2.350809,3.5e-5 4.466357,0.90909 6.34665,2.727166 2.037105,1.943429 3.055667,4.293772 3.055688,7.051037 -2.1e-5,3.666847 -1.551296,6.51882 -4.653827,8.555927 l 6.7225137,14.477937 -6.7225137,0 -5.171717,-12.644524 -1.503456,0 0,12.644524 -6.675173,0 0,-32.812067 z m -2.021345,5.171717 0,9.59027 c 1.190703,2.1e-5 2.271908,-0.392102 3.24362,-1.176368 1.1907,-0.940116 1.786056,-2.225034 1.786071,-3.854758 -1.5e-5,-1.472824 -0.56381,-2.647757 -1.691388,-3.524801 -1.003273,-0.783259 -2.116039,-1.12804 -3.338303,-1.034343 z"
         style="font-variant:normal;font-stretch:normal;word-spacing:4.40631199px;fill:#ffffff;font-family:CodiceBiancoCondensed;-inkscape-font-specification:CodiceBiancoCondensed"
         id="path16762" />
      <path
         d="m 9.1328725,24.208814 0,5.124375 -6.6751726,0 0,8.08538 5.5949222,0 0,5.264965 -5.6422638,0 0,9.072382 7.9921307,0 0,5.264965 -14.6673033,0 0,-32.812067 z"
         style="font-variant:normal;font-stretch:normal;word-spacing:4.40631199px;fill:#ffffff;font-family:CodiceBiancoCondensed;-inkscape-font-specification:CodiceBiancoCondensed"
         id="path16764" />
      <path
         d="m 20.220861,24.350839 3.243621,24.491414 3.338303,-24.491414 6.863105,0 -5.500239,32.670042 -9.448246,0 -5.500239,-32.670042 z"
         style="font-variant:normal;font-stretch:normal;word-spacing:4.40631199px;fill:#ffffff;font-family:CodiceBiancoCondensed;-inkscape-font-specification:CodiceBiancoCondensed"
         id="path16766" />
      <path
         d="m 45.299027,24.208814 0,33.001434 -6.957788,0 0,-33.001434 z"
         style="font-variant:normal;font-stretch:normal;word-spacing:4.40631199px;fill:#ffffff;font-family:CodiceBiancoCondensed;-inkscape-font-specification:CodiceBiancoCondensed"
         id="path16768" />
      <path
         d="m 58.695281,23.739702 c 4.042675,0.09376 6.957292,2.161968 8.743859,6.204625 l -4.84176,3.055688 c -1.160122,-2.225507 -2.507684,-3.338274 -4.04269,-3.338303 -0.689571,2.9e-5 -1.277277,0.242954 -1.763118,0.728774 -0.485857,0.485878 -0.760343,1.120447 -0.823457,1.903708 -0.06217,0.627423 0.18888,1.270121 0.753162,1.928096 0.187446,0.21904 0.735939,0.72067 1.645481,1.504891 2.381416,1.848737 5.07654,4.136436 8.08538,6.863105 1.190695,1.504427 1.786052,3.337838 1.786071,5.500239 -1.9e-5,2.475163 -0.752225,4.606014 -2.256618,6.392557 -1.692839,1.974006 -3.933674,3.008348 -6.722514,3.10303 -4.136424,0.125289 -7.129465,-2.193971 -8.979133,-6.957788 l 5.031126,-2.867756 c 1.065418,2.601408 2.334556,3.902107 3.807416,3.902099 0.438975,8e-6 0.877483,-0.1095 1.315524,-0.328522 1.128536,-0.564266 1.692809,-1.520184 1.692823,-2.867756 -1.4e-5,-0.971688 -0.344795,-1.786537 -1.034344,-2.444551 -1.754999,-1.472837 -3.509985,-2.945687 -5.264965,-4.418554 -2.601404,-2.162394 -4.168459,-3.729449 -4.701169,-4.701169 -0.814852,-1.410662 -1.222277,-2.883512 -1.222275,-4.418554 -2e-6,-2.382356 0.893272,-4.451041 2.679824,-6.20606 1.786544,-1.754954 3.823667,-2.600886 6.111377,-2.537799 z"
         style="font-variant:normal;font-stretch:normal;word-spacing:4.40631199px;fill:#ffffff;font-family:CodiceBiancoCondensed;-inkscape-font-specification:CodiceBiancoCondensed"
         id="path16770" />
      <path
         d="m 81.218429,23.927634 c 2.506702,3.5e-5 4.669114,1.159665 6.48724,3.478894 2.287682,2.977292 3.431531,7.364759 3.431553,13.162413 -2.2e-5,5.859857 -1.097008,10.294187 -3.290962,13.303003 -1.755005,2.476115 -3.933197,3.714169 -6.534583,3.714168 -2.72574,10e-7 -5.013439,-1.425985 -6.863104,-4.277964 -2.037128,-3.165665 -3.05569,-7.459405 -3.055689,-12.881232 -10e-7,-5.390229 1.00278,-9.573984 3.008347,-12.551276 1.786543,-2.63197 4.05894,-3.947971 6.817198,-3.948006 z M 78.16274,40.381009 c -8e-6,7.145253 1.049637,10.71787 3.148937,10.717862 2.037112,8e-6 3.055674,-3.572609 3.055689,-10.717862 -1.5e-5,-7.019928 -1.04966,-10.529902 -3.148937,-10.529931 -2.037135,2.9e-5 -3.055697,3.510003 -3.055689,10.529931 z"
         style="font-variant:normal;font-stretch:normal;word-spacing:4.40631199px;fill:#ffffff;font-family:CodiceBiancoCondensed;-inkscape-font-specification:CodiceBiancoCondensed"
         id="path16772" />
    </g>
    <g
       style="font-size:42.55215836px;font-style:normal;font-weight:normal;line-height:125%;letter-spacing:0px;word-spacing:0px;fill:#000000;fill-opacity:1;stroke:none;font-family:Sans"
       id="text8509-4">
      <path
         d="m -120.12523,-38.049545 c 2.52444,2.4e-5 4.77965,0.836747 6.76565,2.510172 1.67342,1.446648 2.69455,2.978548 3.06337,4.595706 l -5.95663,2.169942 c -0.11343,-0.935834 -0.45409,-1.730137 -1.02199,-2.382911 -0.70904,-0.793853 -1.67346,-1.190788 -2.89325,-1.190806 -1.21982,1.8e-5 -2.21974,0.446733 -2.99974,1.340144 -0.78003,0.893445 -1.17004,2.035336 -1.17003,3.425677 l 0,1.616743 c -1e-5,1.163546 0.32637,2.198954 0.97913,3.106225 0.76529,1.106405 1.85741,1.659603 3.27634,1.659596 0.87957,7e-6 1.73772,-0.354507 2.57446,-1.063544 0.8367,-0.709021 1.26935,-1.616733 1.29793,-2.723141 l 6.04234,2.127089 c -2e-5,0.510786 -0.34069,1.290804 -1.02199,2.340057 -0.85103,1.361792 -1.91457,2.468188 -3.19063,3.319193 -1.70204,1.134968 -3.63131,1.702451 -5.78781,1.70245 -3.12009,10e-7 -5.7441,-1.177385 -7.87205,-3.532162 -1.81543,-1.985102 -2.72314,-4.112622 -2.72314,-6.382564 l 0,-1.999826 c 0,-2.581579 0.87957,-4.907783 2.63873,-6.978617 2.04224,-2.439593 4.70868,-3.659399 7.99931,-3.659423 z"
         style="font-variant:normal;font-stretch:normal;word-spacing:3.98857236px;fill:#000000;font-family:CodiceNero;-inkscape-font-specification:CodiceNero"
         id="path16775" />
      <path
         d="m -96.688299,-38.092398 c 2.723558,2.3e-5 5.092182,0.964441 7.105878,2.893255 2.269911,2.156542 3.404877,4.993523 3.4049,8.510952 -2.3e-5,0.453652 -0.07101,1.176965 -0.212969,2.169941 l -14.21305,0 c 0.652744,2.014553 2.099803,2.993255 4.341178,2.93611 1.758275,-0.05626 3.488426,-0.737158 5.19046,-2.04268 l 4.554151,4.468444 c -3.518329,2.439618 -6.795099,3.659424 -9.830318,3.659423 -2.864697,10e-7 -5.361011,-0.893427 -7.488961,-2.680287 -2.32621,-1.98597 -3.53173,-4.609982 -3.61657,-7.872046 0,-0.425925 0,-1.078681 0,-1.958272 0.0277,-2.155641 0.83586,-4.24074 2.42446,-6.255302 2.04311,-2.553003 4.82339,-3.829515 8.340841,-3.829538 z m -3.829541,8.425244 7.446111,0 c -0.169698,-0.793855 -0.594986,-1.467389 -1.275864,-2.020604 -0.680907,-0.553181 -1.489711,-0.844065 -2.426413,-0.872652 -0.96443,-0.02855 -1.801153,0.283543 -2.510172,0.936282 -0.595629,0.539364 -1.006852,1.191688 -1.233662,1.956974 z"
         style="font-variant:normal;font-stretch:normal;word-spacing:3.98857236px;fill:#000000;font-family:CodiceNero;-inkscape-font-specification:CodiceNero"
         id="path16777" />
      <path
         d="m -68.33491,-16.007298 0,-12.00026 c -1.7e-5,-1.049245 -0.2909,-1.928605 -0.872652,-2.638083 -0.581783,-0.709445 -1.41158,-1.064176 -2.489395,-1.064193 -1.191251,1.7e-5 -2.084679,0.411669 -2.680287,1.234958 -0.425947,0.624203 -0.638916,1.347517 -0.638906,2.169941 l 0,12.297637 -6.808501,0 0,-21.574755 6.000779,0 0.34023,1.319366 c 1.50289,-1.191216 3.474145,-1.786834 5.913774,-1.786858 2.780693,2.4e-5 4.922497,1.077851 6.425417,3.233486 1.106375,1.588626 1.659573,3.191516 1.659597,4.808675 l 0,14.000086 z"
         style="font-variant:normal;font-stretch:normal;word-spacing:3.98857236px;fill:#000000;font-family:CodiceNero;-inkscape-font-specification:CodiceNero"
         id="path16779" />
      <path
         d="m -46.61212,-46.517643 0,8.042161 5.574842,0 0,6.000779 -5.446282,0 0,8.892736 c -1.2e-5,0.964427 0.680448,1.446636 2.041382,1.446628 0.425922,8e-6 0.993405,-0.04956 1.70245,-0.148689 0.709012,-0.09912 1.134516,-0.14868 1.276513,-0.148688 l 1.192104,5.65925 c -1.702034,0.85101 -3.872407,1.276514 -6.511124,1.276513 -1.786869,10e-7 -3.346905,-0.454072 -4.680114,-1.36222 -1.475203,-1.020687 -2.212801,-2.31105 -2.212796,-3.871093 l 0,-11.744437 -3.532161,0 0,-6.000779 3.532161,0 0,-6.255303 z"
         style="font-variant:normal;font-stretch:normal;word-spacing:3.98857236px;fill:#000000;font-family:CodiceNero;-inkscape-font-specification:CodiceNero"
         id="path16781" />
      <path
         d="m -21.481829,-31.028075 c -0.624205,-0.170531 -1.248393,-0.255805 -1.872565,-0.255822 -1.446642,1.7e-5 -2.63788,0.3831 -3.573717,1.149251 -1.050136,0.822454 -1.575198,1.985556 -1.575188,3.489308 l 0,10.63804 -6.89291,0 0,-21.61631 6.978617,0 0,1.360921 c 0.624177,-0.368777 1.23408,-0.737576 1.829711,-1.106397 1.077816,-0.510755 2.212348,-0.766144 3.403602,-0.766168 0.567034,2.4e-5 1.134517,0.05716 1.70245,0.171414 z"
         style="font-variant:normal;font-stretch:normal;word-spacing:3.98857236px;fill:#000000;font-family:CodiceNero;-inkscape-font-specification:CodiceNero"
         id="path16783" />
      <path
         d="m 0.49549562,-34.857614 c 1.95738358,2.127107 2.93608578,4.623425 2.93610928,7.488962 -2.35e-5,3.715705 -1.2055456,6.722801 -3.61656982,9.021296 -2.09940308,1.985112 -4.49659568,2.977666 -7.19158488,2.977665 -3.9996622,10e-7 -7.0915992,-1.545751 -9.2758202,-4.637261 -0.76617,-1.106391 -1.276948,-2.042673 -1.532335,-2.808848 -0.3688,-1.021547 -0.5532,-2.411468 -0.553198,-4.169768 -2e-6,-3.631704 1.219805,-6.539674 3.659423,-8.72392 2.043106,-1.843973 4.553708,-2.76597 7.5318151,-2.765994 3.1209261,2.4e-5 5.8016436,1.205979 8.04216052,3.617868 z m -12.63786662,6.552679 0,2.340057 c -8e-6,1.163546 0.454065,2.170818 1.36222,3.021817 0.9081361,0.851016 1.9435432,1.27652 3.1062244,1.276512 1.1912251,8e-6 2.2266322,-0.425496 3.1062244,-1.276512 0.8795611,-0.850999 1.3193494,-1.858271 1.3193663,-3.021817 l 0,-2.340057 c -1.69e-5,-1.219792 -0.4822258,-2.240915 -1.446628,-3.063371 -0.879592,-0.73758 -1.8725786,-1.106379 -2.9789627,-1.106397 -1.1626812,1.8e-5 -2.1838038,0.368817 -3.0633714,1.106397 -0.936724,0.822456 -1.405081,1.843579 -1.405073,3.063371 z"
         style="font-variant:normal;font-stretch:normal;word-spacing:3.98857236px;fill:#000000;font-family:CodiceNero;-inkscape-font-specification:CodiceNero"
         id="path16785" />
    </g>
    <path
       inkscape:connector-curvature="0"
       d="m 123.12612,136.47799 -36.7186,36.7316 -36.7174,-36.7315 c -0.8737,-0.8741 -1.032,-2.1902 -0.392,-3.2464 0.6412,-1.0562 1.882,-1.5227 3.0593,-1.1508 l 23.3446,7.3727 c 0.7001,0.2209 1.4069,0.077 1.9628,-0.403 0.5567,-0.4784 0.8054,-1.1568 0.6901,-1.8819 l -2.9901,-18.9594 22.0852,0 -2.9911,18.9594 c -0.1174,0.725 0.135,1.4029 0.6909,1.8819 0.5568,0.4787 1.264,0.6244 1.9629,0.403 l 23.3443,-7.3727 c 1.1786,-0.3721 2.4179,0.094 3.0594,1.1508 0.6411,1.0562 0.4832,2.3723 -0.3904,3.2463 z"
       style="fill:#000000;fill-opacity:1;fill-rule:evenodd;stroke:none"
       id="path12948-6" />
    <path
       id="path8608"
       style="fill:#000000;fill-opacity:1;fill-rule:evenodd;stroke:none"
       d="m -251.87385,136.47799 -36.7186,36.7316 -36.7174,-36.7315 c -0.8737,-0.8741 -1.032,-2.1902 -0.392,-3.2464 0.6412,-1.0562 1.882,-1.5227 3.0593,-1.1508 l 23.3446,7.3727 c 0.7001,0.2209 1.4069,0.077 1.9628,-0.403 0.5567,-0.4784 0.8054,-1.1568 0.6901,-1.8819 l -2.9901,-18.9594 22.0852,0 -2.9911,18.9594 c -0.1174,0.725 0.135,1.4029 0.6909,1.8819 0.5568,0.4787 1.264,0.6244 1.9629,0.403 l 23.3443,-7.3727 c 1.1786,-0.3721 2.4179,0.094 3.0594,1.1508 0.6411,1.0562 0.4832,2.3723 -0.3904,3.2463 z"
       inkscape:connector-curvature="0" />
    <path
       inkscape:connector-curvature="0"
       d="m -864.15505,163.19959 -51.93713,0.01 0.01,-51.9362 c 1.4e-4,-1.2357 0.8189,-2.2783 2.01836,-2.5727 1.20017,-0.2934 2.40749,0.2538 2.97699,1.3495 l 11.29384,21.7204 c 0.33885,0.6513 0.94038,1.0491 1.67273,1.1031 0.73207,0.055 1.38749,-0.2485 1.81868,-0.8427 l 11.292,-15.5207 15.61659,15.6166 -15.52134,11.2913 c -0.59567,0.4297 -0.89654,1.0875 -0.84217,1.8193 0.0552,0.7322 0.45227,1.3353 1.10316,1.6728 l 21.7202,11.2936 c 1.09651,0.5703 1.64324,1.7762 1.34958,2.977 -0.29359,1.2003 -1.33593,2.0193 -2.57153,2.0195 z"
       style="fill:#ffffff;fill-opacity:1;fill-rule:evenodd;stroke:none"
       id="path8610" />
    <path
       sodipodi:nodetypes="sssss"
       inkscape:connector-curvature="0"
       style="font-size:16.94802094px;font-style:normal;font-weight:normal;line-height:125%;letter-spacing:0px;word-spacing:0px;fill:none;stroke:#000000;stroke-width:1.6206845;stroke-linecap:butt;stroke-linejoin:miter;stroke-miterlimit:4;stroke-opacity:1;stroke-dashoffset:0;font-family:Sans"
       d="m -161.42598,-29.290309 c 0,11.9784 -9.7105,21.6895004 -21.6895,21.6895004 -11.9788,0 -21.6899,-9.7111004 -21.6899,-21.6895004 0,-11.9788 9.7111,-21.6898 21.6899,-21.6898 11.979,0 21.6895,9.711 21.6895,21.6898 z"
       id="path9938" />
    <path
       sodipodi:nodetypes="sssss"
       inkscape:connector-curvature="0"
       style="font-size:16.94802094px;font-style:normal;font-weight:normal;line-height:125%;letter-spacing:0px;word-spacing:0px;fill:none;stroke:#000000;stroke-width:1.6206845;stroke-linecap:butt;stroke-linejoin:miter;stroke-miterlimit:4;stroke-opacity:1;stroke-dashoffset:0;font-family:Sans"
       d="m -165.42888,-29.291909 c 0,9.7125 -7.9183,17.5862 -17.6866,17.5862 -9.768,0 -17.6864,-7.8737 -17.6864,-17.5862 0,-9.7135 7.9184,-17.5876 17.6864,-17.5876 9.7683,0 17.6866,7.8741 17.6866,17.5876 z"
       id="path9941" />
    <path
       sodipodi:nodetypes="sssss"
       inkscape:connector-curvature="0"
       style="font-size:16.94802094px;font-style:normal;font-weight:normal;line-height:125%;letter-spacing:0px;word-spacing:0px;fill:none;stroke:#000000;stroke-width:1.6206845;stroke-linecap:butt;stroke-linejoin:miter;stroke-miterlimit:4;stroke-opacity:1;stroke-dashoffset:0;font-family:Sans"
       d="m -169.49248,-29.344009 c 0,7.4515 -6.0756,13.4927 -13.5702,13.4927 -7.4947,0 -13.5704,-6.0412 -13.5704,-13.4927 0,-7.4533 6.0757,-13.4947 13.5704,-13.4947 7.4946,0 13.5702,6.0414 13.5702,13.4947 z"
       id="path9943" />
    <path
       sodipodi:nodetypes="sssss"
       inkscape:connector-curvature="0"
       style="font-size:16.94802094px;font-style:normal;font-weight:normal;line-height:125%;letter-spacing:0px;word-spacing:0px;fill:#000000;fill-opacity:1;stroke:none;font-family:Sans"
       d="m -175.40008,-29.780409 c 0,4.208 -3.431,7.6188 -7.6626,7.6188 -4.2318,0 -7.6621,-3.4108 -7.6621,-7.6188 0,-4.2077 3.4303,-7.6189 7.6621,-7.6189 4.2316,0 7.6626,3.4112 7.6626,7.6189 z"
       id="path9945" />
    <rect
       ry="26.25"
       rx="26.25"
       y="-69.290459"
       x="-343.59219"
       height="255"
       width="485"
       id="rect12217"
       style="fill:none;stroke:#000000;stroke-width:7.49999952;stroke-miterlimit:4;stroke-opacity:1;stroke-dasharray:none" />
    <rect
       style="fill:#ffffff;fill-opacity:1;stroke:none"
       id="rect12255"
       width="15"
       height="8"
       x="-78.87587"
       y="36.078194" />
    <g
       style="font-size:42.67407608px;font-style:normal;font-weight:normal;line-height:125%;letter-spacing:0px;word-spacing:0px;fill:#ffffff;fill-opacity:1;stroke:none;font-family:Sans"
       id="text12342">
      <path
         d="m -614.04116,-26.833479 0,5.504862 -9.34537,0 0,24.5381144 -6.23025,0 0,-24.5797884 -9.34537,0 0,-5.463188 z"
         style="font-variant:normal;font-stretch:normal;text-align:end;letter-spacing:1px;word-spacing:4px;text-anchor:end;fill:#ffffff;font-family:CodiceBianco;-inkscape-font-specification:CodiceBianco"
         id="path16824" />
      <path
         d="m -601.53265,-26.790503 8.61999,0 10.19838,30.0000004 -6.61443,0 -1.70602,-5.0360306 -12.24822,0 -1.66435,5.0360306 -6.40085,0 z m 4.30934,6.742056 -4.18171,12.6324016 8.53534,0 z"
         style="font-variant:normal;font-stretch:normal;text-align:end;letter-spacing:1px;word-spacing:4px;text-anchor:end;fill:#ffffff;font-family:CodiceBianco;-inkscape-font-specification:CodiceBianco"
         id="path16826" />
      <path
         d="m -563.4012,-26.790503 c 2.3042,3.2e-5 4.3384,0.839152 6.10262,2.517364 1.84925,1.764223 2.77389,3.926488 2.77392,6.486803 -3e-5,2.30424 -0.76839,4.267253 -2.30509,5.889044 -1.13824,1.223318 -2.51782,2.1197401 -4.13874,2.6892688 l 7.724,12.4175206 -6.74336,0 -7.38279,-11.905713 -4.47994,0 0,11.905713 -5.93202,0 0,-30.0000004 z m -8.44938,5.334259 0,7.468745 7.33981,0 c 0.76835,1.9e-5 1.52238,-0.355728 2.26211,-1.067242 0.7397,-0.711475 1.10955,-1.593355 1.10957,-2.645642 -2e-5,-1.053111 -0.36293,-1.94237 -1.08873,-2.667781 -0.72584,-0.72536 -1.51547,-1.088053 -2.3689,-1.08808 z"
         style="font-variant:normal;font-stretch:normal;text-align:end;letter-spacing:1px;word-spacing:4px;text-anchor:end;fill:#ffffff;font-family:CodiceBianco;-inkscape-font-specification:CodiceBianco"
         id="path16828" />
      <path
         d="m -543.89668,-26.790503 5.84737,21.2094116 6.27322,-21.2094116 6.35788,0 -8.74762,30.0000004 -7.80995,0 -8.19283,-30.0000004 z"
         style="font-variant:normal;font-stretch:normal;text-align:end;letter-spacing:1px;word-spacing:4px;text-anchor:end;fill:#ffffff;font-family:CodiceBianco;-inkscape-font-specification:CodiceBianco"
         id="path16830" />
      <path
         d="m -513.95155,-26.790503 0,30.0000004 -6.18728,0 0,-30.0000004 z"
         style="font-variant:normal;font-stretch:normal;text-align:end;letter-spacing:1px;word-spacing:4px;text-anchor:end;fill:#ffffff;font-family:CodiceBianco;-inkscape-font-specification:CodiceBianco"
         id="path16832" />
      <path
         d="m -495.20628,-27.004082 c 5.20661,3.2e-5 9.63056,1.636165 13.27184,4.908405 l -4.43827,3.797534 c -0.88212,-0.768339 -1.97736,-1.451182 -3.28573,-2.048533 -1.62183,-0.768336 -3.18633,-1.152517 -4.69352,-1.152544 -0.82568,2.7e-5 -1.60837,0.128087 -2.34807,0.384182 -1.73555,0.569568 -2.53213,1.664809 -2.38974,3.285726 0.0573,0.65465 0.6264,1.195542 1.70733,1.622678 0.96717,0.397659 2.90153,0.909466 5.80309,1.535423 6.08871,1.309273 9.13307,4.310659 9.1331,9.0041672 -3e-5,2.8737705 -1.13087,5.18536751 -3.39252,6.9347978 -2.2617,1.7494376 -5.34165,2.6241546 -9.23988,2.6241536 -3.24276,10e-7 -6.32923,-0.8677704 -9.25942,-2.6033166 -1.84929,-1.0522614 -3.3999,-2.2894541 -4.65185,-3.7115819 l 5.20663,-3.926463 c 0.48359,0.7397222 1.47942,1.5363007 2.9875,2.3897378 2.01944,1.1382262 4.11007,1.7216602 6.27192,1.7503039 1.47941,0.02779 2.67449,-0.2641444 3.58526,-0.8758031 0.91073,-0.6116428 1.3661,-1.4010586 1.36612,-2.3682497 -2e-5,-1.1095562 -0.71151,-1.9773276 -2.13448,-2.6033166 -0.88212,-0.3976252 -2.44684,-0.8312938 -4.69418,-1.3010072 -2.24736,-0.4696849 -3.76911,-0.8894622 -4.56524,-1.2593332 -1.39435,-0.625961 -2.36197,-1.180744 -2.90285,-1.664351 -1.50721,-1.33702 -2.26081,-3.100779 -2.26081,-5.291284 0,-3.214942 1.18032,-5.661545 3.54098,-7.339816 1.963,-1.394308 4.42393,-2.091477 7.38279,-2.091509 z"
         style="font-variant:normal;font-stretch:normal;text-align:end;letter-spacing:1px;word-spacing:4px;text-anchor:end;fill:#ffffff;font-family:CodiceBianco;-inkscape-font-specification:CodiceBianco"
         id="path16834" />
      <path
         d="m -470.361,-26.790503 0,30.0000004 -6.18727,0 0,-30.0000004 z"
         style="font-variant:normal;font-stretch:normal;text-align:end;letter-spacing:1px;word-spacing:4px;text-anchor:end;fill:#ffffff;font-family:CodiceBianco;-inkscape-font-specification:CodiceBianco"
         id="path16836" />
      <path
         d="m -435.48533,-11.981942 c -3e-5,4.80727 -1.37961,8.6477768 -4.13874,11.52153141 -2.64545,2.73137959 -6.05923,4.09706679 -10.24136,4.09706549 -4.18216,1.3e-6 -7.58205,-1.3656859 -10.19969,-4.09706549 -2.75916,-2.87375461 -4.13874,-6.71426141 -4.13874,-11.52153141 0,-4.69437 1.52197,-8.464118 4.5659,-11.309256 2.73137,-2.531658 5.98888,-3.797502 9.77253,-3.797534 3.78362,3.2e-5 7.04113,1.265876 9.77253,3.797534 3.07169,2.845138 4.60754,6.614886 4.60757,11.309256 z m -6.57145,0 c -3e-5,-2.816442 -0.71825,-5.064009 -2.15467,-6.742707 -1.43647,-1.678652 -3.32113,-2.51799 -5.65398,-2.518016 -2.33288,2.6e-5 -4.20343,0.839364 -5.61165,2.518016 -1.40824,1.678698 -2.11236,3.926265 -2.11235,6.742707 -1e-5,2.9302099 0.59732,5.2201017 1.79198,6.869682 1.33703,1.8779384 3.31437,2.8169026 5.93202,2.8168954 2.64541,7.2e-6 4.63664,-0.938957 5.97369,-2.8168954 1.22328,-1.6782311 1.83493,-3.9681229 1.83496,-6.869682 z"
         style="font-variant:normal;font-stretch:normal;text-align:end;letter-spacing:1px;word-spacing:4px;text-anchor:end;fill:#ffffff;font-family:CodiceBianco;-inkscape-font-specification:CodiceBianco"
         id="path16838" />
    </g>
    <rect
       style="fill:#ffffff;fill-opacity:1;stroke:none"
       id="rect12255-8"
       width="12"
       height="6"
       x="-663.94067"
       y="-13.143973" />
    <path
       style="fill:none;stroke:#ffffff;stroke-width:1.3686136;stroke-miterlimit:4;stroke-opacity:1;stroke-dasharray:none"
       inkscape:connector-curvature="0"
       id="rect4614-9-7"
       d="m -891.85273,-123.60621 h 35.30632 c 2.30535,0 4.16385,1.8559 4.16385,4.1616 v 35.308101 c 0,2.3058 -1.8585,4.1617 -4.16385,4.1617 h -35.30632 c -2.30534,0 -4.16114,-1.8559 -4.16114,-4.1617 v -35.308101 c 0,-2.3057 1.8558,-4.1616 4.16114,-4.1616 z" />
    <path
       style="fill:#ffffff"
       inkscape:connector-curvature="0"
       d="m -856.18731,-108.97331 v 1.8004 h -4.02695 v 2.3088 h -1.55204 l -0.85073,-2.3088 h -22.54431 l -0.85241,2.3088 h -1.55306 v -2.3089 h -4.02593 v -1.8003 h 35.40543 z m -18.81235,-0.9255 0.66452,-9.7435 h -3.51943 l -3.84526,9.7435 h 6.70017 z m 9.10011,0 -3.84526,-9.7438 h -3.51843 l 0.66351,9.7436 h 6.70018 z m -17.59206,4.5393 -8.12577,20.583001 h 14.90581 l 1.40366,-20.583001 h -8.1837 z m 11.20013,0 1.40479,20.583001 h 14.90469 l -8.12576,-20.583001 h -8.18372 z"
       id="path6721-4" />
    <path
       sodipodi:type="arc"
       style="fill:#fae708;fill-opacity:1;stroke:none"
       id="path15861"
       sodipodi:cx="842.25"
       sodipodi:cy="1025.4062"
       sodipodi:rx="18.25"
       sodipodi:ry="18"
       d="m 860.5,1025.4063 c 0,9.9411 -8.1708,18 -18.25,18 -10.0792,0 -18.25,-8.0589 -18.25,-18 0,-9.9412 8.1708,-18.0001 18.25,-18.0001 10.0792,0 18.25,8.0589 18.25,18.0001 z"
       transform="matrix(1.0958905,0,0,1.1111111,-1599.106,-1002.6307)" />
    <path
       transform="matrix(1.0958904,0,0,1.1111111,-1649.1059,-1002.6307)"
       d="m 860.5,1025.4063 c 0,9.9411 -8.1708,18 -18.25,18 -10.0792,0 -18.25,-8.0589 -18.25,-18 0,-9.9412 8.1708,-18.0001 18.25,-18.0001 10.0792,0 18.25,8.0589 18.25,18.0001 z"
       sodipodi:ry="18"
       sodipodi:rx="18.25"
       sodipodi:cy="1025.4062"
       sodipodi:cx="842.25"
       id="path15863"
       style="fill:#fa1911;fill-opacity:1;stroke:none"
       sodipodi:type="arc" />
    <path
       sodipodi:type="arc"
       style="fill:#0fd203;fill-opacity:1;stroke:none"
       id="path15865"
       sodipodi:cx="842.25"
       sodipodi:cy="1025.4062"
       sodipodi:rx="18.25"
       sodipodi:ry="18"
       d="m 860.5,1025.4063 c 0,9.9411 -8.1708,18 -18.25,18 -10.0792,0 -18.25,-8.0589 -18.25,-18 0,-9.9412 8.1708,-18.0001 18.25,-18.0001 10.0792,0 18.25,8.0589 18.25,18.0001 z"
       transform="matrix(1.0958905,0,0,1.1111111,-1549.106,-1002.6307)" />
    <rect
       y="107.70966"
       x="-187.59218"
       height="58.000004"
       width="173.00002"
       id="rect15906"
       style="fill:#ffffff;fill-opacity:1;stroke:#000000;stroke-width:2;stroke-miterlimit:4;stroke-opacity:1;stroke-dasharray:none" />
    <rect
       style="fill:#000000;fill-opacity:1;stroke:none"
       id="rect15908"
       width="160"
       height="45"
       x="-181.09218"
       y="114.20954" />
    <path
       transform="matrix(1.0958905,0,0,1.1111111,-1024.106,-1002.6307)"
       d="m 860.5,1025.4063 c 0,9.9411 -8.1708,18 -18.25,18 -10.0792,0 -18.25,-8.0589 -18.25,-18 0,-9.9412 8.1708,-18.0001 18.25,-18.0001 10.0792,0 18.25,8.0589 18.25,18.0001 z"
       sodipodi:ry="18"
       sodipodi:rx="18.25"
       sodipodi:cy="1025.4062"
       sodipodi:cx="842.25"
       id="path15911"
       style="fill:#fae708;fill-opacity:1;stroke:none"
       sodipodi:type="arc" />
    <path
       sodipodi:type="arc"
       style="fill:#fa1911;fill-opacity:1;stroke:none"
       id="path15913"
       sodipodi:cx="842.25"
       sodipodi:cy="1025.4062"
       sodipodi:rx="18.25"
       sodipodi:ry="18"
       d="m 860.5,1025.4063 c 0,9.9411 -8.1708,18 -18.25,18 -10.0792,0 -18.25,-8.0589 -18.25,-18 0,-9.9412 8.1708,-18.0001 18.25,-18.0001 10.0792,0 18.25,8.0589 18.25,18.0001 z"
       transform="matrix(1.0958904,0,0,1.1111111,-1074.1059,-1002.6307)" />
    <path
       transform="matrix(1.0958905,0,0,1.1111111,-974.10598,-1002.6307)"
       d="m 860.5,1025.4063 c 0,9.9411 -8.1708,18 -18.25,18 -10.0792,0 -18.25,-8.0589 -18.25,-18 0,-9.9412 8.1708,-18.0001 18.25,-18.0001 10.0792,0 18.25,8.0589 18.25,18.0001 z"
       sodipodi:ry="18"
       sodipodi:rx="18.25"
       sodipodi:cy="1025.4062"
       sodipodi:cx="842.25"
       id="path15915"
       style="fill:#0fd203;fill-opacity:1;stroke:none"
       sodipodi:type="arc" />
    <rect
       style="fill:#646464;fill-opacity:1;stroke:none"
       id="rect13141-5-3"
       width="1800"
       height="200"
       x="-1235.0922"
       y="703.20953" />
    <rect
       y="694.75665"
       x="-480.78323"
       height="19.382116"
       width="9.3821163"
       id="rect16231-5-5"
       style="fill:#646464;fill-opacity:1;stroke:#646464;stroke-width:10.61788368;stroke-miterlimit:4;stroke-opacity:1;stroke-dasharray:none" />
    <rect
       style="fill:#646464;fill-opacity:1;stroke:#646464;stroke-width:10.61788368;stroke-miterlimit:4;stroke-opacity:1;stroke-dasharray:none"
       id="rect15962"
       width="9.3821163"
       height="19.382116"
       x="96.401138"
       y="694.75665"
       transform="scale(-1,1)" />
    <rect
       y="694.75665"
       x="-584.06897"
       height="19.382116"
       width="314.85223"
       id="rect15964"
       style="fill:#646464;fill-opacity:1;stroke:#646464;stroke-width:10.61788368;stroke-miterlimit:4;stroke-opacity:1;stroke-dasharray:none"
       transform="scale(-1,1)" />
    <path
       style="fill:none;stroke:#000000;stroke-width:5;stroke-linecap:butt;stroke-linejoin:miter;stroke-miterlimit:4;stroke-opacity:1;stroke-dasharray:10, 10;stroke-dashoffset:0"
       d="m -288.59218,218.32779 0,475.851"
       id="path15958-0-0"
       inkscape:connector-curvature="0"
       sodipodi:nodetypes="cc" />
    <path
       sodipodi:nodetypes="cc"
       inkscape:connector-curvature="0"
       id="path15984"
       d="m 86.40782,218.32779 0,475.851"
       style="fill:none;stroke:#000000;stroke-width:5;stroke-linecap:butt;stroke-linejoin:miter;stroke-miterlimit:4;stroke-opacity:1;stroke-dasharray:10, 10;stroke-dashoffset:0" />
    <path
       sodipodi:nodetypes="cc"
       inkscape:connector-curvature="0"
       id="path15987"
       d="m -663.59218,218.32779 0,475.851"
       style="fill:none;stroke:#000000;stroke-width:5;stroke-linecap:butt;stroke-linejoin:miter;stroke-miterlimit:4;stroke-opacity:1;stroke-dasharray:10, 10;stroke-dashoffset:0" />
    <rect
       style="fill:#646464;fill-opacity:1;stroke:#646464;stroke-width:10.61788368;stroke-miterlimit:4;stroke-opacity:1;stroke-dasharray:none"
       id="rect15991"
       width="314.85223"
       height="19.382116"
       x="-1161.3083"
       y="694.75665" />
    <rect
       style="fill:none;stroke:#000000;stroke-opacity:1"
       id="rect3966-1"
       width="1453.8533"
       height="983.03223"
       x="-1054.5735"
       y="-231.15556" />
  </g>
</svg>
