<?xml version="1.0" encoding="UTF-8" standalone="no"?>
<!-- Created with Inkscape (http://www.inkscape.org/) -->

<svg
   xmlns:dc="http://purl.org/dc/elements/1.1/"
   xmlns:cc="http://creativecommons.org/ns#"
   xmlns:rdf="http://www.w3.org/1999/02/22-rdf-syntax-ns#"
   xmlns:svg="http://www.w3.org/2000/svg"
   xmlns="http://www.w3.org/2000/svg"
   xmlns:sodipodi="http://sodipodi.sourceforge.net/DTD/sodipodi-0.dtd"
   xmlns:inkscape="http://www.inkscape.org/namespaces/inkscape"
   version="1.1"
   width="200"
   height="200"
   id="svg2"
   inkscape:version="0.47 r22583"
   sodipodi:docname="Italian traffic signs - icona wc.svg"
   sodipodi:version="0.32"
   inkscape:output_extension="org.inkscape.output.svg.inkscape">
  <metadata
     id="metadata2877">
    <rdf:RDF>
      <cc:Work
         rdf:about="">
        <dc:format>image/svg+xml</dc:format>
        <dc:type
           rdf:resource="http://purl.org/dc/dcmitype/StillImage" />
        <dc:title></dc:title>
      </cc:Work>
    </rdf:RDF>
  </metadata>
  <sodipodi:namedview
     pagecolor="#ffffff"
     bordercolor="#666666"
     borderopacity="1"
     objecttolerance="10"
     gridtolerance="10"
     guidetolerance="10"
     inkscape:pageopacity="0"
     inkscape:pageshadow="2"
     inkscape:window-width="1600"
     inkscape:window-height="838"
     id="namedview2875"
     showgrid="false"
     inkscape:zoom="2.3765092"
     inkscape:cx="48.767272"
     inkscape:cy="95.299806"
     inkscape:window-x="-8"
     inkscape:window-y="-8"
     inkscape:window-maximized="1"
     inkscape:current-layer="svg2" />
  <defs
     id="defs4">
    <inkscape:perspective
       sodipodi:type="inkscape:persp3d"
       inkscape:vp_x="0 : 100 : 1"
       inkscape:vp_y="0 : 1000 : 0"
       inkscape:vp_z="200 : 100 : 1"
       inkscape:persp3d-origin="100 : 66.666667 : 1"
       id="perspective2879" />
    <inkscape:perspective
       id="perspective2839"
       inkscape:persp3d-origin="0.5 : 0.33333333 : 1"
       inkscape:vp_z="1 : 0.5 : 1"
       inkscape:vp_y="0 : 1000 : 0"
       inkscape:vp_x="0 : 0.5 : 1"
       sodipodi:type="inkscape:persp3d" />
    <inkscape:perspective
       id="perspective3649"
       inkscape:persp3d-origin="0.5 : 0.33333333 : 1"
       inkscape:vp_z="1 : 0.5 : 1"
       inkscape:vp_y="0 : 1000 : 0"
       inkscape:vp_x="0 : 0.5 : 1"
       sodipodi:type="inkscape:persp3d" />
    <inkscape:perspective
       id="perspective3679"
       inkscape:persp3d-origin="0.5 : 0.33333333 : 1"
       inkscape:vp_z="1 : 0.5 : 1"
       inkscape:vp_y="0 : 1000 : 0"
       inkscape:vp_x="0 : 0.5 : 1"
       sodipodi:type="inkscape:persp3d" />
    <inkscape:perspective
       id="perspective3713"
       inkscape:persp3d-origin="0.5 : 0.33333333 : 1"
       inkscape:vp_z="1 : 0.5 : 1"
       inkscape:vp_y="0 : 1000 : 0"
       inkscape:vp_x="0 : 0.5 : 1"
       sodipodi:type="inkscape:persp3d" />
    <inkscape:perspective
       id="perspective3741"
       inkscape:persp3d-origin="0.5 : 0.33333333 : 1"
       inkscape:vp_z="1 : 0.5 : 1"
       inkscape:vp_y="0 : 1000 : 0"
       inkscape:vp_x="0 : 0.5 : 1"
       sodipodi:type="inkscape:persp3d" />
    <inkscape:perspective
       id="perspective3765"
       inkscape:persp3d-origin="0.5 : 0.33333333 : 1"
       inkscape:vp_z="1 : 0.5 : 1"
       inkscape:vp_y="0 : 1000 : 0"
       inkscape:vp_x="0 : 0.5 : 1"
       sodipodi:type="inkscape:persp3d" />
    <inkscape:perspective
       id="perspective3801"
       inkscape:persp3d-origin="0.5 : 0.33333333 : 1"
       inkscape:vp_z="1 : 0.5 : 1"
       inkscape:vp_y="0 : 1000 : 0"
       inkscape:vp_x="0 : 0.5 : 1"
       sodipodi:type="inkscape:persp3d" />
    <inkscape:perspective
       id="perspective2863"
       inkscape:persp3d-origin="0.5 : 0.33333333 : 1"
       inkscape:vp_z="1 : 0.5 : 1"
       inkscape:vp_y="0 : 1000 : 0"
       inkscape:vp_x="0 : 0.5 : 1"
       sodipodi:type="inkscape:persp3d" />
    <inkscape:perspective
       id="perspective3859"
       inkscape:persp3d-origin="0.5 : 0.33333333 : 1"
       inkscape:vp_z="1 : 0.5 : 1"
       inkscape:vp_y="0 : 1000 : 0"
       inkscape:vp_x="0 : 0.5 : 1"
       sodipodi:type="inkscape:persp3d" />
    <inkscape:perspective
       id="perspective3964"
       inkscape:persp3d-origin="0.5 : 0.33333333 : 1"
       inkscape:vp_z="1 : 0.5 : 1"
       inkscape:vp_y="0 : 1000 : 0"
       inkscape:vp_x="0 : 0.5 : 1"
       sodipodi:type="inkscape:persp3d" />
    <inkscape:perspective
       id="perspective3988"
       inkscape:persp3d-origin="0.5 : 0.33333333 : 1"
       inkscape:vp_z="1 : 0.5 : 1"
       inkscape:vp_y="0 : 1000 : 0"
       inkscape:vp_x="0 : 0.5 : 1"
       sodipodi:type="inkscape:persp3d" />
    <inkscape:perspective
       id="perspective2879-7"
       inkscape:persp3d-origin="0.5 : 0.33333333 : 1"
       inkscape:vp_z="1 : 0.5 : 1"
       inkscape:vp_y="0 : 1000 : 0"
       inkscape:vp_x="0 : 0.5 : 1"
       sodipodi:type="inkscape:persp3d" />
    <inkscape:perspective
       id="perspective4031"
       inkscape:persp3d-origin="0.5 : 0.33333333 : 1"
       inkscape:vp_z="1 : 0.5 : 1"
       inkscape:vp_y="0 : 1000 : 0"
       inkscape:vp_x="0 : 0.5 : 1"
       sodipodi:type="inkscape:persp3d" />
    <inkscape:perspective
       id="perspective4047"
       inkscape:persp3d-origin="0.5 : 0.33333333 : 1"
       inkscape:vp_z="1 : 0.5 : 1"
       inkscape:vp_y="0 : 1000 : 0"
       inkscape:vp_x="0 : 0.5 : 1"
       sodipodi:type="inkscape:persp3d" />
    <inkscape:perspective
       id="perspective4063"
       inkscape:persp3d-origin="0.5 : 0.33333333 : 1"
       inkscape:vp_z="1 : 0.5 : 1"
       inkscape:vp_y="0 : 1000 : 0"
       inkscape:vp_x="0 : 0.5 : 1"
       sodipodi:type="inkscape:persp3d" />
    <inkscape:perspective
       id="perspective4079"
       inkscape:persp3d-origin="0.5 : 0.33333333 : 1"
       inkscape:vp_z="1 : 0.5 : 1"
       inkscape:vp_y="0 : 1000 : 0"
       inkscape:vp_x="0 : 0.5 : 1"
       sodipodi:type="inkscape:persp3d" />
    <inkscape:perspective
       id="perspective4097"
       inkscape:persp3d-origin="0.5 : 0.33333333 : 1"
       inkscape:vp_z="1 : 0.5 : 1"
       inkscape:vp_y="0 : 1000 : 0"
       inkscape:vp_x="0 : 0.5 : 1"
       sodipodi:type="inkscape:persp3d" />
    <inkscape:perspective
       id="perspective4115"
       inkscape:persp3d-origin="0.5 : 0.33333333 : 1"
       inkscape:vp_z="1 : 0.5 : 1"
       inkscape:vp_y="0 : 1000 : 0"
       inkscape:vp_x="0 : 0.5 : 1"
       sodipodi:type="inkscape:persp3d" />
    <inkscape:perspective
       id="perspective4129"
       inkscape:persp3d-origin="0.5 : 0.33333333 : 1"
       inkscape:vp_z="1 : 0.5 : 1"
       inkscape:vp_y="0 : 1000 : 0"
       inkscape:vp_x="0 : 0.5 : 1"
       sodipodi:type="inkscape:persp3d" />
    <inkscape:perspective
       id="perspective4153"
       inkscape:persp3d-origin="0.5 : 0.33333333 : 1"
       inkscape:vp_z="1 : 0.5 : 1"
       inkscape:vp_y="0 : 1000 : 0"
       inkscape:vp_x="0 : 0.5 : 1"
       sodipodi:type="inkscape:persp3d" />
    <inkscape:perspective
       id="perspective4179"
       inkscape:persp3d-origin="0.5 : 0.33333333 : 1"
       inkscape:vp_z="1 : 0.5 : 1"
       inkscape:vp_y="0 : 1000 : 0"
       inkscape:vp_x="0 : 0.5 : 1"
       sodipodi:type="inkscape:persp3d" />
    <inkscape:perspective
       id="perspective4195"
       inkscape:persp3d-origin="0.5 : 0.33333333 : 1"
       inkscape:vp_z="1 : 0.5 : 1"
       inkscape:vp_y="0 : 1000 : 0"
       inkscape:vp_x="0 : 0.5 : 1"
       sodipodi:type="inkscape:persp3d" />
    <inkscape:perspective
       id="perspective4213"
       inkscape:persp3d-origin="0.5 : 0.33333333 : 1"
       inkscape:vp_z="1 : 0.5 : 1"
       inkscape:vp_y="0 : 1000 : 0"
       inkscape:vp_x="0 : 0.5 : 1"
       sodipodi:type="inkscape:persp3d" />
    <inkscape:perspective
       id="perspective4267"
       inkscape:persp3d-origin="0.5 : 0.33333333 : 1"
       inkscape:vp_z="1 : 0.5 : 1"
       inkscape:vp_y="0 : 1000 : 0"
       inkscape:vp_x="0 : 0.5 : 1"
       sodipodi:type="inkscape:persp3d" />
    <inkscape:perspective
       id="perspective4283"
       inkscape:persp3d-origin="0.5 : 0.33333333 : 1"
       inkscape:vp_z="1 : 0.5 : 1"
       inkscape:vp_y="0 : 1000 : 0"
       inkscape:vp_x="0 : 0.5 : 1"
       sodipodi:type="inkscape:persp3d" />
    <inkscape:perspective
       id="perspective4314"
       inkscape:persp3d-origin="0.5 : 0.33333333 : 1"
       inkscape:vp_z="1 : 0.5 : 1"
       inkscape:vp_y="0 : 1000 : 0"
       inkscape:vp_x="0 : 0.5 : 1"
       sodipodi:type="inkscape:persp3d" />
    <inkscape:perspective
       id="perspective4330"
       inkscape:persp3d-origin="0.5 : 0.33333333 : 1"
       inkscape:vp_z="1 : 0.5 : 1"
       inkscape:vp_y="0 : 1000 : 0"
       inkscape:vp_x="0 : 0.5 : 1"
       sodipodi:type="inkscape:persp3d" />
    <inkscape:perspective
       id="perspective4346"
       inkscape:persp3d-origin="0.5 : 0.33333333 : 1"
       inkscape:vp_z="1 : 0.5 : 1"
       inkscape:vp_y="0 : 1000 : 0"
       inkscape:vp_x="0 : 0.5 : 1"
       sodipodi:type="inkscape:persp3d" />
    <inkscape:perspective
       id="perspective3742"
       inkscape:persp3d-origin="0.5 : 0.33333333 : 1"
       inkscape:vp_z="1 : 0.5 : 1"
       inkscape:vp_y="0 : 1000 : 0"
       inkscape:vp_x="0 : 0.5 : 1"
       sodipodi:type="inkscape:persp3d" />
    <inkscape:perspective
       id="perspective3776"
       inkscape:persp3d-origin="0.5 : 0.33333333 : 1"
       inkscape:vp_z="1 : 0.5 : 1"
       inkscape:vp_y="0 : 1000 : 0"
       inkscape:vp_x="0 : 0.5 : 1"
       sodipodi:type="inkscape:persp3d" />
    <inkscape:perspective
       id="perspective3792"
       inkscape:persp3d-origin="0.5 : 0.33333333 : 1"
       inkscape:vp_z="1 : 0.5 : 1"
       inkscape:vp_y="0 : 1000 : 0"
       inkscape:vp_x="0 : 0.5 : 1"
       sodipodi:type="inkscape:persp3d" />
    <inkscape:perspective
       id="perspective3808"
       inkscape:persp3d-origin="0.5 : 0.33333333 : 1"
       inkscape:vp_z="1 : 0.5 : 1"
       inkscape:vp_y="0 : 1000 : 0"
       inkscape:vp_x="0 : 0.5 : 1"
       sodipodi:type="inkscape:persp3d" />
    <inkscape:perspective
       id="perspective3824"
       inkscape:persp3d-origin="0.5 : 0.33333333 : 1"
       inkscape:vp_z="1 : 0.5 : 1"
       inkscape:vp_y="0 : 1000 : 0"
       inkscape:vp_x="0 : 0.5 : 1"
       sodipodi:type="inkscape:persp3d" />
    <inkscape:perspective
       id="perspective4354"
       inkscape:persp3d-origin="0.5 : 0.33333333 : 1"
       inkscape:vp_z="1 : 0.5 : 1"
       inkscape:vp_y="0 : 1000 : 0"
       inkscape:vp_x="0 : 0.5 : 1"
       sodipodi:type="inkscape:persp3d" />
  </defs>
  <path
     style="fill:#ffffff;fill-opacity:1;stroke:none"
     d="m -4.9305571,-3.438081 207.7153771,0 0,207.348391 -207.7153771,0 0,-207.348391 z"
     id="rect2881" />
  <path
     style="fill:none;stroke:#000000;stroke-width:3;stroke-miterlimit:4;stroke-opacity:1"
     d="m 21.814432,2.8621521 157.645218,0 c 10.29357,0 18.58045,8.2868829 18.58045,18.5804539 l 0,157.645234 c 0,10.29357 -8.28688,18.58045 -18.58045,18.58045 l -157.645218,0 c -10.293571,0 -18.5804535,-8.28688 -18.5804535,-18.58045 l 0,-157.645234 c 0,-10.293571 8.2868825,-18.5804539 18.5804535,-18.5804539 z"
     id="rect4614" />
  <g
     id="g4376"
     transform="translate(0,0.42078524)">
    <path
       transform="matrix(0.8768116,0,0,0.8768116,-10.615099,19.198724)"
       d="m 64.714971,38.510113 c 0,5.874685 -4.595857,10.637058 -10.265134,10.637058 -5.669277,0 -10.265134,-4.762373 -10.265134,-10.637058 0,-5.874685 4.595857,-10.637058 10.265134,-10.637058 5.669277,0 10.265134,4.762373 10.265134,10.637058 z"
       sodipodi:ry="10.637058"
       sodipodi:rx="10.265134"
       sodipodi:cy="38.510113"
       sodipodi:cx="54.449837"
       id="path3832"
       style="fill:#000000;fill-opacity:1;stroke:none"
       sodipodi:type="arc" />
    <path
       sodipodi:nodetypes="cssssssssssssscccsscccscccccsscccccccccsc"
       id="path4360"
       d="m 52.498457,162.75049 c -0.982409,-0.42733 -2.171692,-1.36691 -2.64285,-2.08798 -1.188028,-1.81815 -8.793625,-31.88025 -8.793625,-34.75792 0,-1.96704 1.038401,-4.13155 6.470671,-13.48792 3.558869,-6.12969 6.47067,-11.43991 6.47067,-11.80049 0,-0.36059 -1.519201,-2.582334 -3.376002,-4.937219 -1.856801,-2.35488 -3.376002,-4.160073 -3.376002,-4.01154 0,0.70267 -5.144144,20.042719 -5.686016,21.377279 -1.396043,3.4383 -6.368405,4.40986 -9.421456,1.84089 -0.929393,-0.78203 -1.844826,-2.12768 -2.034296,-2.99034 -0.233186,-1.06168 1.369241,-8.10144 4.959533,-21.788127 2.917213,-11.120826 5.479965,-21.04634 5.695003,-22.056704 0.391942,-1.841547 2.873281,-5.330032 6.597722,-9.27565 1.394863,-1.477698 2.477653,-2.113472 3.613284,-2.121584 0.962456,-0.0069 8.713896,3.439063 19.070435,8.477848 l 17.448871,8.489424 2.947807,6.583912 c 3.496334,7.809053 3.713839,9.907998 1.305961,12.602875 -1.393546,1.559651 -2.024886,1.837546 -4.174674,1.837546 -3.388273,0 -4.525609,-1.16059 -7.942235,-8.104633 L 76.865637,80.919232 73.574828,79.68855 c -1.809942,-0.676871 -3.434958,-1.086527 -3.61114,-0.910344 -0.176188,0.176182 0.244152,2.915014 0.934083,6.08629 l 1.254427,5.765952 9.553495,11.070712 9.553489,11.07071 9.364758,4.4101 c 5.15061,2.42555 10.06487,4.88682 10.92057,5.46949 5.7654,3.9258 3.17337,12.91217 -3.74681,12.98989 -1.72993,0.0194 -4.85743,-1.13465 -12.449004,-4.59381 l -10.138651,-4.61976 -8.659434,-8.67297 -8.659428,-8.67297 -6.304965,8.3441 -6.304968,8.34411 3.879963,15.87846 3.879966,15.87844 -1.030666,1.98605 c -1.129261,2.17604 -4.091743,4.07099 -6.31041,4.03647 -0.778495,-0.0121 -2.219236,-0.37165 -3.201646,-0.79898 z"
       style="fill:#000000" />
    <path
       id="path4362"
       d="m 176.73473,166.86244 c -1.10185,-0.66551 -1.53664,-0.85526 -2.87391,-1.25422 -2.15883,-0.64406 -3.6469,-0.96515 -9.474,-2.04429 -5.78698,-1.07171 -9.14407,-2.08737 -13.68685,-4.14082 -3.68813,-1.66714 -6.73618,-3.38549 -9.04645,-5.09998 -2.41274,-1.79055 -5.22166,-4.44203 -7.0354,-6.6411 -2.93081,-3.55345 -5.56045,-8.39146 -6.89351,-12.68265 -0.43428,-1.39799 -1.05753,-4.21833 -0.99916,-4.52144 0.0141,-0.0731 0.68479,0.6534 1.74038,1.88512 2.92393,3.4118 4.08338,4.58545 6.01821,6.09191 2.1667,1.687 7.18916,4.69989 10.78583,6.47025 3.97497,1.95657 6.98752,2.99378 16.43909,5.65993 8.4008,2.36975 11.80628,3.45482 14.63525,4.66314 l 1.39472,0.59573 -3e-4,4.80801 c -3e-4,4.59087 -0.0449,6.70497 -0.14135,6.70472 -0.0244,-6e-5 -0.41252,-0.2225 -0.86254,-0.49431 l -10e-6,0 z"
       style="fill:#ff0000;fill-opacity:1;stroke:none" />
    <path
       id="path4364"
       d="m 176.44141,151.99233 c -0.48863,-0.30575 -1.14136,-0.67657 -1.45051,-0.82405 -1.55509,-0.74186 -4.9672,-1.86687 -15.85124,-5.22636 -7.35357,-2.26976 -8.83462,-2.77325 -11.56386,-3.93116 -6.86073,-2.91076 -11.29381,-6.57446 -15.41422,-12.73903 -0.4512,-0.67504 -2.08434,-3.28596 -3.62921,-5.80203 -3.79585,-6.18217 -5.62169,-9.05409 -6.72711,-10.58127 -0.17028,-0.23524 -0.28265,-0.42756 -0.24972,-0.42737 0.0896,5.2e-4 2.56476,0.97931 3.68846,1.4586 3.29831,1.40683 6.16926,3.15062 9.05407,5.49934 1.38527,1.12785 2.57108,2.21942 4.76065,4.38233 2.03738,2.01257 3.09326,2.95953 4.28885,3.84643 1.91,1.41686 3.95558,2.40235 6.52686,3.14443 2.1051,0.60754 3.4501,0.88481 8.85165,1.82475 8.67512,1.50958 10.30676,1.93729 14.47536,3.79453 1.8855,0.84005 3.9604,2.03841 4.2228,2.43889 0.25245,0.38529 0.3007,3.49049 0.15256,9.81727 -0.0611,2.60769 -0.11667,3.88562 -0.169,3.8836 -0.0429,-0.002 -0.47777,-0.25316 -0.96639,-0.5589 z"
       style="fill:#ff0000;fill-opacity:1;stroke:none" />
    <path
       id="path4366"
       d="m 176.29554,134.25679 c -0.9029,-0.59508 -1.2125,-0.75962 -2.24163,-1.19135 -3.52098,-1.4771 -9.98607,-3.24958 -15.72947,-4.31243 -3.87927,-0.71787 -5.54591,-1.05394 -6.88062,-1.38743 -2.98101,-0.74483 -4.77191,-1.44754 -6.46613,-2.53717 -2.13916,-1.3758 -5.28632,-4.77148 -8.25545,-8.90736 -0.68497,-0.95414 -2.12984,-3.18437 -2.08928,-3.22493 0.0153,-0.0152 1.0926,0.32589 2.39411,0.75809 1.30151,0.4322 2.76806,0.8859 3.259,1.00821 2.2515,0.56095 4.52859,0.86613 9.22342,1.23614 4.60072,0.3626 5.98101,0.51226 8.56001,0.92813 6.43153,1.03712 11.86203,2.79383 15.99301,5.17357 1.08009,0.62221 2.47294,1.57965 2.86612,1.97016 0.74801,0.74294 0.84793,1.52712 0.78508,6.16144 -0.0323,2.38157 -0.0764,3.51913 -0.15606,4.02613 -0.0611,0.38866 -0.1122,0.73176 -0.11364,0.76245 -0.008,0.17379 -0.45501,-0.007 -1.14847,-0.46365 z"
       style="fill:#ff0000;fill-opacity:1;stroke:none" />
    <path
       id="path4368"
       d="m 176.25123,119.17768 c -1.8024,-1.28342 -2.91678,-1.96242 -4.5003,-2.74206 -4.457,-2.19441 -8.6881,-3.17506 -20.3443,-4.71522 -6.948,-0.91805 -8.87684,-1.21183 -11.75283,-1.79002 -7.29277,-1.46613 -10.92437,-3.28965 -15.59387,-7.83009 -4.87533,-4.740583 -8.52824,-10.859222 -9.99117,-16.735259 -0.19879,-0.798435 -0.18515,-0.992567 0.0678,-0.964259 0.22566,0.02526 1.35863,0.788348 3.35054,2.256673 5.40967,3.987717 10.038,6.43299 14.11609,7.457905 3.10857,0.781252 6.31482,1.045918 17.2,1.419803 10.66914,0.366466 11.82351,0.487179 15.10016,1.579038 5.71816,1.905428 12.64567,5.195749 13.56865,6.444619 0.15463,0.20922 0.15532,0.23732 0.14086,5.72764 -0.008,3.03457 -0.0415,6.69815 -0.0744,8.14129 l -0.0599,2.62389 -1.22735,-0.87395 z"
       style="fill:#ff0000;fill-opacity:1;stroke:none" />
    <path
       id="path4370"
       d="m 176.99508,99.165172 c -0.14319,-0.06593 -1.23107,-0.587011 -2.41752,-1.157948 -3.05209,-1.46872 -4.42019,-2.032105 -6.95499,-2.864072 -2.71311,-0.890487 -5.38973,-1.586563 -10.22795,-2.659858 -4.88316,-1.083264 -6.62446,-1.545457 -8.41532,-2.233681 -2.19325,-0.842858 -3.72765,-1.749095 -5.60625,-3.311138 -1.48582,-1.235442 -2.84179,-2.79996 -5.40836,-6.240163 -2.36982,-3.176494 -4.31696,-6.248342 -3.9606,-6.248342 0.17576,0 0.85331,0.41128 2.00484,1.216947 4.29983,3.008374 9.22542,5.122419 15.61333,6.701183 2.49001,0.615401 4.13236,0.912985 7.81795,1.41657 6.1576,0.841349 9.60281,1.710825 12.68265,3.200749 1.70425,0.824459 3.63105,2.092225 4.57628,3.011021 0.5664,0.550567 0.76396,0.970905 0.9038,1.92304 0.12002,0.817107 0.11858,5.603148 -0.002,6.408083 -0.16173,1.080405 -0.14098,1.05171 -0.60594,0.837609 l 0,0 z"
       style="fill:#ff0000;fill-opacity:1;stroke:none" />
    <path
       id="path4372"
       d="m 176.77192,86.101103 c -0.30684,-0.136761 -1.44493,-0.685209 -2.52909,-1.218774 -2.3172,-1.140401 -2.87381,-1.376289 -4.61187,-1.954492 -1.76425,-0.586916 -3.50506,-1.010963 -6.71007,-1.634516 -11.8387,-2.303292 -15.20183,-3.226536 -20.32889,-5.580685 -7.96056,-3.655188 -13.31939,-8.761123 -16.93906,-16.139671 -0.58985,-1.202397 -2.31359,-5.394914 -2.27084,-5.523182 0.0119,-0.03577 0.77543,0.614905 1.69667,1.445935 1.99299,1.797819 2.66258,2.360252 3.752,3.151559 3.91549,2.844023 9.98275,5.872724 13.92548,6.951432 1.97057,0.539136 5.66643,1.370196 11.92332,2.68111 9.0409,1.894205 14.20396,3.458533 18.31599,5.549466 0.88167,0.448321 2.9607,1.775722 4.07796,2.603651 l 0.41317,0.306177 0.0906,2.928008 c 0.10912,3.525277 0.11103,4.531651 0.0107,5.60587 -0.08,0.856276 -0.12291,1.079185 -0.20738,1.077675 -0.0279,-5.21e-4 -0.30183,-0.112803 -0.60867,-0.249563 l 0,0 z"
       style="fill:#ff0000;fill-opacity:1;stroke:none" />
    <path
       id="path4374"
       d="m 175.8793,71.797292 c -3.55475,-1.89839 -4.86701,-2.486914 -7.62446,-3.419443 -3.05717,-1.033888 -5.32681,-1.611572 -12.23634,-3.114474 -7.93909,-1.726844 -12.67329,-3.116332 -17.03417,-4.999526 -4.97702,-2.149265 -9.68038,-5.426215 -11.83437,-8.245305 -1.72367,-2.255895 -2.52943,-4.150451 -4.15499,-9.769531 -1.29018,-4.45981 -1.79644,-5.94561 -2.61905,-7.686647 -0.24611,-0.520874 -0.43537,-0.983316 -0.4206,-1.027648 0.0465,-0.13942 1.12419,0.607896 5.14717,3.569184 4.46404,3.285943 8.99717,6.117192 12.5801,7.857128 2.30652,1.120083 4.21639,1.705709 11.61075,3.560208 4.30551,1.079818 7.70722,2.088993 10.92737,3.24179 7.26798,2.6019 12.90898,5.403916 16.06771,7.9812 1.07829,0.879803 1.28565,1.295011 1.36465,2.732557 0.0463,0.842225 0.004,3.775095 -0.11931,8.191467 l -0.0552,1.983122 -1.59928,-0.854082 z"
       style="fill:#ff0000;fill-opacity:1;stroke:none" />
  </g>
</svg>
