<?xml version="1.0" encoding="UTF-8" standalone="no"?>
<!-- Created with Inkscape (http://www.inkscape.org/) -->

<svg
   width="158.75mm"
   height="158.75mm"
   viewBox="0 0 158.75 158.75"
   version="1.1"
   id="svg5041"
   inkscape:version="1.2.1 (9c6d41e410, 2022-07-14)"
   sodipodi:docname="Segnale stradale italiano - diritto di precedenza nei sensi unici alternati.svg"
   xmlns:inkscape="http://www.inkscape.org/namespaces/inkscape"
   xmlns:sodipodi="http://sodipodi.sourceforge.net/DTD/sodipodi-0.dtd"
   xmlns="http://www.w3.org/2000/svg"
   xmlns:svg="http://www.w3.org/2000/svg">
  <sodipodi:namedview
     id="namedview5043"
     pagecolor="#ffffff"
     bordercolor="#000000"
     borderopacity="0.25"
     inkscape:showpageshadow="2"
     inkscape:pageopacity="0.0"
     inkscape:pagecheckerboard="0"
     inkscape:deskcolor="#d1d1d1"
     inkscape:document-units="mm"
     showgrid="false"
     inkscape:zoom="0.76257015"
     inkscape:cx="151.46148"
     inkscape:cy="41.307675"
     inkscape:window-width="1920"
     inkscape:window-height="991"
     inkscape:window-x="-9"
     inkscape:window-y="-9"
     inkscape:window-maximized="1"
     inkscape:current-layer="layer1" />
  <defs
     id="defs5038" />
  <g
     inkscape:label="Livello 1"
     inkscape:groupmode="layer"
     id="layer1"
     transform="translate(-65.308411,-0.42639786)">
    <g
       id="g8547"
       transform="translate(75.630555,-348.08291)">
      <rect
         style="fill:#00408b;fill-rule:evenodd;stroke-width:4.61138"
         id="rect6284"
         width="158.75"
         height="158.75"
         x="-10.322144"
         y="348.50931" />
      <rect
         style="fill:none;fill-opacity:0.449231;fill-rule:evenodd;stroke:#ffffff;stroke-width:2.64583"
         id="rect6284-3"
         width="153.45833"
         height="153.45833"
         x="-7.6763563"
         y="351.15518"
         ry="7.9375"
         rx="7.9375" />
      <g
         id="g8540"
         transform="translate(-0.70507681,0.65100952)">
        <path
           id="path4594-1-7-9-0-1-8"
           style="fill:#ffffff;stroke-width:57.5145;paint-order:fill markers stroke"
           d="m 102.74895,386.0531 -21.767078,37.71366 c -1.40518,2.43398 0.38781,3.26367 2.17627,2.78443 l 9.846401,-2.42183 c 2.24656,-0.60207 3.03556,-0.62037 3.02403,1.75976 v 42.52396 h 13.440907 v -42.52396 c -0.0103,-2.38013 0.77747,-2.36183 3.02404,-1.75976 l 9.84629,2.42183 c 1.78848,0.47924 3.58142,-0.35079 2.17629,-2.78443 z"
           sodipodi:nodetypes="cccccccccccc" />
        <path
           id="path4594-1-7-9-0-1-8-9"
           style="fill:#d40000;stroke-width:57.5145;paint-order:fill markers stroke"
           d="m 36.767073,468.41308 -21.7671,-37.71366 c -1.40518,-2.43398 0.3878,-3.26368 2.17629,-2.78444 l 9.84637,2.42183 c 2.24656,0.60208 3.03559,0.62038 3.02403,-1.75975 V 386.0531 h 13.44092 v 42.52396 c -0.0103,2.38013 0.77747,2.36183 3.02403,1.75975 l 9.84629,-2.42183 c 1.788479,-0.47924 3.581449,0.3508 2.176289,2.78444 z"
           sodipodi:nodetypes="cccccccccccc" />
      </g>
    </g>
  </g>
</svg>
