<svg xmlns="http://www.w3.org/2000/svg" width="400" height="600" xmlns:v="https://vecta.io/nano"><g stroke="#000"><path d="M.5.5h399v399H.5z" fill="#fff"/><rect width="388" height="388" x="6" y="6" rx="21" fill="none" stroke-width="6"/></g><path d="M144.835 243.113h34.238v31.665h-75.32v-25.246c7.562-12.129 18.333-30.39 32.312-54.782 6.561-12.268 9.985-21.968 10.272-29.099s-1.929-10.703-6.635-10.703c-.858 0-1.785.144-2.782.431-2.995.853-5.063 3.777-6.204 8.77-.858 3.566-1.143 6.491-.855 8.777H99.9c0-16.548 4.495-29.316 13.485-38.306 8.128-8.272 18.326-12.053 30.594-11.343 11.558.714 20.831 5.209 27.819 13.485 6.565 7.562 9.632 16.193 9.201 25.892-.283 8.272-2.78 17.614-7.49 28.028-2.708 5.995-7.593 14.876-14.654 26.643s-11.735 20.364-14.02 25.788zm96.667-117.91h37.875v94.153h10.912v30.816h-10.266v24.821h-33.814v-24.822h-48.357v-19.904zm-9.841 93.944h14.125V186.62z"/><path d="M0 400h400v200H0z" fill="#00408b" fill-rule="evenodd"/><path d="M87.077 453.581c11.105.258 19.111 5.939 24.018 17.043l-13.3 8.394c-3.187-6.113-6.888-9.17-11.105-9.17-1.894 0-3.508.667-4.843 2.002s-2.089 3.078-2.262 5.229c-.171 1.723.519 3.489 2.069 5.296.515.602 2.022 1.98 4.52 4.134 6.541 5.078 13.945 11.362 22.209 18.852 3.271 4.132 4.906 9.169 4.906 15.108 0 6.799-2.066 12.652-6.199 17.559-4.65 5.422-10.805 8.264-18.466 8.524-11.362.344-19.584-6.027-24.664-19.112l13.82-7.877c2.927 7.146 6.413 10.719 10.458 10.719 1.206 0 2.41-.301 3.614-.902 3.1-1.55 4.65-4.176 4.65-7.877 0-2.669-.947-4.907-2.841-6.715L79.2 502.65c-7.146-5.94-11.45-10.244-12.913-12.913-2.238-3.875-3.357-7.921-3.357-12.137 0-6.544 2.454-12.226 7.361-17.047s10.503-7.144 16.787-6.971zm65.225 1.289c5.509 0 10.933 2.454 16.271 7.361 6.111 5.596 9.166 12.267 9.166 20.014s-2.841 14.419-8.524 20.014c-6.111 5.94-13.729 8.652-22.856 8.137V545h-18.592v-90.13zm-5.942 39.773c4.907.087 8.61-1.377 11.109-4.39 1.891-2.325 2.837-4.994 2.837-8.007 0-2.926-1.076-5.594-3.227-8.003-2.582-2.929-6.155-4.22-10.719-3.874zm93.681-14.849c-.431-4.737 1.162-9.945 4.78-15.625 4.647-7.059 10.888-10.503 18.722-10.332 6.371.087 11.729 2.304 16.076 6.652s6.52 9.492 6.52 15.431c0 4.303-1.248 8.478-3.744 12.523-1.807 2.927-5.337 6.069-10.588 9.426 1.55.431 4.176 1.593 7.877 3.487 6.111 4.477 9.166 10.804 9.166 18.982 0 7.059-2.517 13.171-7.552 18.336s-11.082 7.747-18.141 7.747c-8.438 0-14.852-3.271-19.242-9.812-3.097-4.65-4.646-9.557-4.646-14.722l15.751-3.617c.173 8.094 2.799 12.141 7.877 12.141 2.152 0 4.002-1.033 5.552-3.099s2.325-4.865 2.325-8.395c0-4.132-1.032-7.144-3.097-9.036-1.466-1.466-3.704-2.371-6.715-2.715a189.67 189.67 0 0 0-6.975-.642v-14.982c4.907 0 8.696-1.463 11.365-4.39 2.496-2.666 3.744-6.281 3.744-10.845s-1.722-6.845-5.166-6.845c-4.734 0-7.919 4.176-9.556 12.527zm57.182-24.924h40.675v15.108l-20.661 75.412h-18.466l20.535-74.249h-22.083z" fill="#fff"/><rect width="388" height="188" x="6" y="406" rx="21" fill="none" stroke="#fff" stroke-width="6"/></svg>