<?xml version="1.0" encoding="UTF-8" standalone="no"?>
<!-- Created with Inkscape (http://www.inkscape.org/) -->

<svg
   xmlns:dc="http://purl.org/dc/elements/1.1/"
   xmlns:cc="http://creativecommons.org/ns#"
   xmlns:rdf="http://www.w3.org/1999/02/22-rdf-syntax-ns#"
   xmlns:svg="http://www.w3.org/2000/svg"
   xmlns="http://www.w3.org/2000/svg"
   xmlns:sodipodi="http://sodipodi.sourceforge.net/DTD/sodipodi-0.dtd"
   xmlns:inkscape="http://www.inkscape.org/namespaces/inkscape"
   version="1.1"
   width="200"
   height="200"
   id="svg2"
   inkscape:version="0.48.5 r10040"
   sodipodi:docname="CANC ett.svg">
  <metadata
     id="metadata4585">
    <rdf:RDF>
      <cc:Work
         rdf:about="">
        <dc:format>image/svg+xml</dc:format>
        <dc:type
           rdf:resource="http://purl.org/dc/dcmitype/StillImage" />
      </cc:Work>
    </rdf:RDF>
  </metadata>
  <sodipodi:namedview
     pagecolor="#ffffff"
     bordercolor="#666666"
     borderopacity="1"
     objecttolerance="10"
     gridtolerance="10"
     guidetolerance="10"
     inkscape:pageopacity="0"
     inkscape:pageshadow="2"
     inkscape:window-width="1366"
     inkscape:window-height="705"
     id="namedview4583"
     showgrid="false"
     inkscape:zoom="0.417193"
     inkscape:cx="-66.141076"
     inkscape:cy="128.4134"
     inkscape:window-x="-8"
     inkscape:window-y="-8"
     inkscape:window-maximized="1"
     inkscape:current-layer="svg2" />
  <defs
     id="defs4" />
  <rect
     style="fill:#ffffff;fill-opacity:1;stroke:none"
     id="rect5142"
     width="200"
     height="200"
     x="-3.9274139e-015"
     y="-2.4494295e-014" />
  <g
     style="font-size:76.80288696px;font-style:normal;font-weight:normal;line-height:125%;letter-spacing:0px;word-spacing:0px;fill:#000000;fill-opacity:1;stroke:none;font-family:Sans"
     id="text5134"
     transform="matrix(1,0,0,1.0001613,0,7.2503363)">
    <path
       d="m 76.489754,112.73148 c 7.884638,6e-5 13.542658,2.73922 16.974075,8.21749 2.098473,3.37987 3.14773,7.06672 3.147775,11.06058 -4.5e-5,3.78924 -1.049302,7.2964 -3.147775,10.52149 -1.486033,2.3548 -3.815806,4.86348 -6.989325,7.52606 -2.406373,2.04853 -4.838493,4.09705 -7.296368,6.14554 l 16.971732,0 0,11.51997 -38.938183,0 0,-10.21445 c -5e-6,-0.5125 2.278203,-2.33054 6.834632,-5.45411 5.786137,-4.04544 10.01051,-7.29634 12.673133,-9.75271 4.556391,-4.19856 6.8346,-7.80885 6.834632,-10.83088 -3.2e-5,-1.94534 -0.614117,-3.5579 -1.842257,-4.83768 -1.432895,-1.43438 -3.404061,-2.1516 -5.913503,-2.15164 -2.611058,4e-5 -4.608006,0.89617 -5.990851,2.68838 -1.178186,1.53604 -1.76727,3.53299 -1.767254,5.99085 -1.6e-5,0.61412 0.02577,1.20321 0.07735,1.76725 l -13.055178,0 c -0.103132,-0.71717 -0.154697,-1.53673 -0.154694,-2.45868 -3e-6,-4.8642 1.305514,-9.01123 3.916554,-12.44109 3.686065,-4.86419 9.574562,-7.29631 17.665508,-7.29637 z"
       style="font-variant:normal;font-stretch:normal;fill:#000000;fill-opacity:1;font-family:CodiceNero;-inkscape-font-specification:CodiceNero"
       id="path5147"
       inkscape:connector-curvature="0" />
    <path
       d="m 128.30264,113.42291 15.59121,0 0,33.94581 6.52759,0 0,11.752 -6.83463,0 0,8.60189 -12.67313,0 0,-8.67923 -26.95883,0 0,-13.67161 z m 2.68838,15.35917 -14.28569,18.58664 14.28569,0 z"
       style="font-variant:normal;font-stretch:normal;fill:#000000;fill-opacity:1;font-family:CodiceNero;-inkscape-font-specification:CodiceNero"
       id="path5149"
       inkscape:connector-curvature="0" />
  </g>
  <g
     style="font-size:76.80288696px;font-style:normal;font-weight:normal;line-height:125%;letter-spacing:0px;word-spacing:0px;fill:#000000;fill-opacity:1;stroke:none;font-family:Sans"
     id="text5138"
     transform="matrix(1.012897,0,0,1.012897,-0.42411,-0.60217)">
    <path
       d="m 46.401488,25.276182 -13.516915,0 15.436518,54.299697 16.589686,0 15.436518,-54.299697 -13.516914,0 -10.214447,35.713061 z"
       style="font-variant:normal;font-stretch:normal;fill:#000000;fill-opacity:1;font-family:CodiceNero;-inkscape-font-specification:CodiceNero"
       id="path5152"
       inkscape:connector-curvature="0" />
    <path
       d="m 103.91693,25.735574 0,53.840305 -12.518438,0 0,-53.840305 z"
       style="font-variant:normal;font-stretch:normal;fill:#000000;fill-opacity:1;font-family:CodiceNero;-inkscape-font-specification:CodiceNero"
       id="path5154"
       inkscape:connector-curvature="0" />
    <path
       d="m 132.418,25.735574 0,53.840305 -12.51844,0 0,-53.840305 z"
       style="font-variant:normal;font-stretch:normal;fill:#000000;fill-opacity:1;font-family:CodiceNero;-inkscape-font-specification:CodiceNero"
       id="path5156"
       inkscape:connector-curvature="0" />
    <path
       d="m 160.91907,25.735574 0,53.840305 -12.51844,0 0,-53.840305 z"
       style="font-variant:normal;font-stretch:normal;fill:#000000;fill-opacity:1;font-family:CodiceNero;-inkscape-font-specification:CodiceNero"
       id="path5158"
       inkscape:connector-curvature="0" />
  </g>
  <path
     style="fill:none;stroke:#000000;stroke-width:3.00000024;stroke-linecap:butt;stroke-linejoin:miter;stroke-miterlimit:4;stroke-opacity:1;stroke-dasharray:none"
     d="m 31.5,100 c 136.97678,0 136.97678,0 136.97678,0"
     id="path5144"
     inkscape:connector-curvature="0" />
  <rect
     style="fill:none;stroke:#000000;stroke-width:3;stroke-miterlimit:4;stroke-opacity:1;stroke-dasharray:none"
     id="rect5160"
     width="193.99998"
     height="193.99998"
     x="3"
     y="3"
     rx="10.486753"
     ry="10.486753" />
</svg>
