<?xml version="1.0" encoding="UTF-8" standalone="no"?>
<!-- Created with Inkscape (http://www.inkscape.org/) -->

<svg
   xmlns:dc="http://purl.org/dc/elements/1.1/"
   xmlns:cc="http://creativecommons.org/ns#"
   xmlns:rdf="http://www.w3.org/1999/02/22-rdf-syntax-ns#"
   xmlns:svg="http://www.w3.org/2000/svg"
   xmlns="http://www.w3.org/2000/svg"
   xmlns:sodipodi="http://sodipodi.sourceforge.net/DTD/sodipodi-0.dtd"
   xmlns:inkscape="http://www.inkscape.org/namespaces/inkscape"
   width="635"
   height="895"
   id="svg2"
   version="1.1"
   inkscape:version="0.48.5 r10040"
   sodipodi:docname="CANC Frecce.svg">
  <defs
     id="defs4" />
  <sodipodi:namedview
     id="base"
     pagecolor="#ffffff"
     bordercolor="#666666"
     borderopacity="1.0"
     inkscape:pageopacity="0.0"
     inkscape:pageshadow="2"
     inkscape:zoom="0.35355339"
     inkscape:cx="214.68706"
     inkscape:cy="389.33898"
     inkscape:document-units="px"
     inkscape:current-layer="layer1"
     showgrid="false"
     inkscape:window-width="1366"
     inkscape:window-height="705"
     inkscape:window-x="-8"
     inkscape:window-y="-8"
     inkscape:window-maximized="1"
     fit-margin-top="0"
     fit-margin-left="0"
     fit-margin-right="0"
     fit-margin-bottom="0" />
  <metadata
     id="metadata7">
    <rdf:RDF>
      <cc:Work
         rdf:about="">
        <dc:format>image/svg+xml</dc:format>
        <dc:type
           rdf:resource="http://purl.org/dc/dcmitype/StillImage" />
        <dc:title />
      </cc:Work>
    </rdf:RDF>
  </metadata>
  <g
     inkscape:label="Livello 1"
     inkscape:groupmode="layer"
     id="layer1"
     transform="translate(11728,-4701.3623)">
    <rect
       style="fill:#989898;fill-opacity:1;stroke-width:5.1999898;stroke-linecap:round;stroke-linejoin:round;stroke-miterlimit:4;stroke-dasharray:15.6, 15.6;stroke-dashoffset:0"
       id="rect917-6-8"
       width="635"
       height="895"
       x="-11728"
       y="4701.3623"
       inkscape:export-filename="C:\Users\utente\Desktop\CANCdx.png"
       inkscape:export-xdpi="90"
       inkscape:export-ydpi="90" />
    <path
       style="fill:#ffffff;fill-opacity:1;stroke:none"
       d="m -11455.5,4766.3623 -18.75,102.5 -18.75,102.5 30,0 0,545 15,0 0,-145 c 0,0 59.609,-59.839 60,-60 l 0,120 c -0.03,0.1383 30,-169.9189 30,-170 0,-0.086 -30.03,-180.1464 -30,-180 l 0,130 c -0.161,0.391 -60,60 -60,60 l 0,-300 30,0 -18.75,-102.5 -18.75,-102.5 z"
       id="rect4908"
       inkscape:connector-curvature="0" />
    <path
       id="path4917"
       d="m -11610.5,4766.3623 -18.75,102.5 -18.75,102.5 30,0 0,545 15,0 0,-545 30,0 -18.75,-102.5 -18.75,-102.5 z"
       style="fill:#ffffff;fill-opacity:1;stroke:none"
       inkscape:connector-curvature="0" />
    <path
       style="fill:#ffffff;fill-opacity:1;stroke:none"
       d="m -11203,4766.3623 0,130 c 0.01,0 -75,75 -75,75 l 0,545 15,0 0,-460 c 0,0 60,-60.0168 60,-60 l 0,120 c 0,0 30,-170.0477 30,-170 0,0.05 -30,-180 -30,-180 z"
       id="rect5040"
       inkscape:connector-curvature="0"
       sodipodi:nodetypes="ccccccscsc" />
  </g>
</svg>
