<?xml version="1.0" encoding="UTF-8" standalone="no"?>
<!-- Created with Inkscape (http://www.inkscape.org/) -->

<svg
   xmlns:dc="http://purl.org/dc/elements/1.1/"
   xmlns:cc="http://creativecommons.org/ns#"
   xmlns:rdf="http://www.w3.org/1999/02/22-rdf-syntax-ns#"
   xmlns:svg="http://www.w3.org/2000/svg"
   xmlns="http://www.w3.org/2000/svg"
   xmlns:sodipodi="http://sodipodi.sourceforge.net/DTD/sodipodi-0.dtd"
   xmlns:inkscape="http://www.inkscape.org/namespaces/inkscape"
   width="600"
   height="900"
   id="svg2"
   version="1.1"
   inkscape:version="0.48.5 r10040"
   sodipodi:docname="Nuovo documento 1">
  <defs
     id="defs4" />
  <sodipodi:namedview
     id="base"
     pagecolor="#ffffff"
     bordercolor="#666666"
     borderopacity="1.0"
     inkscape:pageopacity="0.0"
     inkscape:pageshadow="2"
     inkscape:zoom="0.24748737"
     inkscape:cx="178.45625"
     inkscape:cy="306.82365"
     inkscape:document-units="px"
     inkscape:current-layer="layer1"
     showgrid="false"
     inkscape:object-paths="true"
     inkscape:snap-intersection-paths="false"
     inkscape:object-nodes="false"
     inkscape:snap-smooth-nodes="true"
     inkscape:snap-object-midpoints="true"
     fit-margin-top="0"
     fit-margin-left="0"
     fit-margin-right="0"
     fit-margin-bottom="0"
     inkscape:snap-nodes="true"
     inkscape:window-width="1366"
     inkscape:window-height="705"
     inkscape:window-x="-8"
     inkscape:window-y="-8"
     inkscape:window-maximized="1" />
  <metadata
     id="metadata7">
    <rdf:RDF>
      <cc:Work
         rdf:about="">
        <dc:format>image/svg+xml</dc:format>
        <dc:type
           rdf:resource="http://purl.org/dc/dcmitype/StillImage" />
        <dc:title></dc:title>
      </cc:Work>
    </rdf:RDF>
  </metadata>
  <g
     inkscape:label="Livello 1"
     inkscape:groupmode="layer"
     id="layer1"
     transform="translate(0,-152.375)">
    <rect
       style="fill:#ffffff;fill-opacity:1;fill-rule:evenodd;stroke:#000000;stroke-width:0.99999994;stroke-opacity:1"
       id="rect2985"
       width="599"
       height="899"
       x="0.49999997"
       y="152.875" />
    <rect
       style="fill:none;stroke:#000000;stroke-width:12;stroke-miterlimit:4;stroke-opacity:1;stroke-dasharray:none"
       id="rect3755"
       width="576"
       height="876"
       x="12"
       y="164.375"
       rx="39.000023"
       ry="39.000023" />
    <rect
       ry="50.70277"
       rx="50.70277"
       y="233"
       x="80.625"
       height="438.75"
       width="438.75"
       id="rect19093"
       style="fill:#00408b;fill-opacity:1;stroke:#00408b;stroke-width:11.25;stroke-linejoin:miter;stroke-miterlimit:4;stroke-opacity:1;stroke-dasharray:none" />
    <g
       transform="matrix(2.25,0,0,2.25,781.76755,235.73194)"
       id="g2822">
      <path
         inkscape:connector-curvature="0"
         d="m -191.8258,15.785807 0,17.293103 -17.29309,0 0,24.413791 17.29309,0 0,17.293104 24.4138,0 0,-17.293104 17.2931,0 0,-24.413791 -17.2931,0 0,-17.293103 -24.4138,0 z"
         id="rect1883"
         style="fill:#d40000;fill-opacity:1;fill-rule:evenodd;stroke:#ffffff;stroke-width:2.99999952;stroke-linecap:butt;stroke-linejoin:miter;stroke-miterlimit:4;stroke-opacity:1;stroke-dasharray:none" />
      <path
         inkscape:connector-curvature="0"
         d="m -276.26437,81.689585 43.83562,-12.702366 c 3.05367,-0.818228 5.72851,2.554919 5.72851,5.728518 l 0,37.608973 c 0,0 -55.29265,18.67995 -55.29265,18.67995 l 0,-42.714826 c 0,-3.173599 2.69385,-5.787114 5.72852,-6.600249 z"
         id="rect3662"
         style="fill:#ffffff;fill-opacity:1;fill-rule:evenodd;stroke:none" />
      <path
         inkscape:connector-curvature="0"
         d="m -226.27492,86.537457 68.59375,35.343753 -38.0625,16.40625 -0.75,0.3125 -0.21875,0.78125 -5.625,19.71875 -67.5,-38.78125 0,-20.937503 43.5625,-12.84375 z"
         id="rect7228"
         style="fill:#ffffff;fill-opacity:1;fill-rule:evenodd;stroke:none" />
      <path
         inkscape:connector-curvature="0"
         d="m -226.80617,80.881207 -46.4375,13.625 0,26.781253 0,1 0.875,0.46875 70.21875,40.34375 1.90625,1.09375 0.59375,-2.09375 6,-21.03125 40.59375,-17.46875 3.3125,-1.4375 -3.1875,-1.625 -49.75,-25.656253 2.8125,-0.84375 -3.90625,-1.90625 -23.03125,-11.25 z m 0.53125,5.65625 14.53125,7.5 -39.40625,11.750003 -14.34375,-7.687503 39.21875,-11.5625 z m 18.90625,9.75 49.6875,25.593753 -38.0625,16.40625 -0.75,0.3125 -0.21875,0.78125 -5.625,19.71875 -67.5,-38.78125 0,-20.687503 18.28125,9.781253 44.1875,-13.125003 z"
         id="path9940"
         style="fill:#00408b;fill-opacity:1;fill-rule:evenodd;stroke:none" />
      <path
         inkscape:connector-curvature="0"
         d="m -227.11867,84.506207 17.9375,8.75 -41.96875,12.531253 -17.15625,-9.187503 41.1875,-12.09375 z"
         id="rect5437"
         style="fill:#ffffff;fill-opacity:1;fill-rule:evenodd;stroke:none" />
      <path
         inkscape:connector-curvature="0"
         d="m -194.81979,134.24251 41.09589,-11.95517 c 3.60395,-0.96567 6.22665,2.77709 6.22665,6.22665 l 0,32.12952 c 0,0 -7.22291,2.49066 -7.22291,2.49066 l 0,-15.33906 -37.85803,11.46069 0,13.09382 c 0,0 -8.46825,2.73972 -8.46825,2.73972 l 0,-33.56348 c 0,-3.44956 2.63511,-6.321 6.22665,-7.28335 z"
         id="rect7233"
         style="fill:#ffffff;fill-opacity:1;fill-rule:evenodd;stroke:#00408b;stroke-width:3.4000001;stroke-linecap:butt;stroke-linejoin:miter;stroke-miterlimit:4;stroke-opacity:1" />
    </g>
    <path
       id="path9576-5-8"
       style="fill:#000000;fill-opacity:1;fill-rule:evenodd;stroke:none"
       d="m 464.77377,827.2963 0.2262,51.53385 -176.52687,0 10.62285,60.80115 c -0.2259,1.5831 -0.6774,3.1644 -1.5831,4.06845 -0.9033,1.12935 -3.16395,1.35525 -4.74645,1.35525 L 135,853.06225 292.9923,760.8433 c 1.5831,0 3.84255,0.4515 4.52055,0.90345 0.9033,1.12935 1.3572,2.2602 1.1295,3.8424 L 287.5674,827.2945 z"
       inkscape:connector-curvature="0" />
  </g>
</svg>
