<svg xmlns="http://www.w3.org/2000/svg" width="200" height="200" xmlns:v="https://vecta.io/nano"><path d="M-2.104-3.141h207.715v207.348H-2.104V-3.141z" fill="#fff"/><g fill="none" stroke="#000"><path d="M191.836 100.274c0 50.638-40.862 91.689-91.268 91.689S9.3 150.912 9.3 100.274 50.162 8.585 100.568 8.585s91.268 41.05 91.268 91.689z" stroke-width="7.732"/><g stroke-width="7.733"><path d="M174.991 100.266c0 41.06-33.321 74.346-74.423 74.346s-74.423-33.286-74.423-74.346 33.321-74.346 74.423-74.346 74.423 33.286 74.423 74.346z"/><path d="M157.892 100.045c0 31.504-25.566 57.043-57.103 57.043s-57.103-25.539-57.103-57.043 25.566-57.043 57.103-57.043 57.103 25.539 57.103 57.043z"/></g></g><path d="M129.359 100.044c0 15.762-12.791 28.539-28.569 28.539s-28.569-12.777-28.569-28.539 12.791-28.539 28.569-28.539 28.569 12.777 28.569 28.539z"/></svg>