<?xml version="1.0" encoding="UTF-8" standalone="no"?>
<!-- Created with Inkscape (http://www.inkscape.org/) -->
<svg
   xmlns:dc="http://purl.org/dc/elements/1.1/"
   xmlns:cc="http://creativecommons.org/ns#"
   xmlns:rdf="http://www.w3.org/1999/02/22-rdf-syntax-ns#"
   xmlns:svg="http://www.w3.org/2000/svg"
   xmlns="http://www.w3.org/2000/svg"
   xmlns:sodipodi="http://sodipodi.sourceforge.net/DTD/sodipodi-0.dtd"
   xmlns:inkscape="http://www.inkscape.org/namespaces/inkscape"
   version="1.1"
   width="200"
   height="200"
   id="svg2"
   inkscape:version="0.46"
   sodipodi:docname="Italian_traffic_signs_-_icona_guardia_di_finanza.svg"
   sodipodi:version="0.32"
   inkscape:output_extension="org.inkscape.output.svg.inkscape">
  <metadata
     id="metadata2877">
    <rdf:RDF>
      <cc:Work
         rdf:about="">
        <dc:format>image/svg+xml</dc:format>
        <dc:type
           rdf:resource="http://purl.org/dc/dcmitype/StillImage" />
      </cc:Work>
    </rdf:RDF>
  </metadata>
  <sodipodi:namedview
     pagecolor="#ffffff"
     bordercolor="#666666"
     borderopacity="1"
     objecttolerance="10"
     gridtolerance="10"
     guidetolerance="10"
     inkscape:pageopacity="0"
     inkscape:pageshadow="2"
     inkscape:window-width="1024"
     inkscape:window-height="708"
     id="namedview2875"
     showgrid="false"
     inkscape:zoom="1.9914447"
     inkscape:cx="115.51255"
     inkscape:cy="118.43692"
     inkscape:window-x="0"
     inkscape:window-y="26"
     inkscape:window-maximized="1"
     inkscape:current-layer="svg2" />
  <defs
     id="defs4">
    <inkscape:perspective
       sodipodi:type="inkscape:persp3d"
       inkscape:vp_x="0 : 100 : 1"
       inkscape:vp_y="0 : 1000 : 0"
       inkscape:vp_z="200 : 100 : 1"
       inkscape:persp3d-origin="100 : 66.666667 : 1"
       id="perspective2879" />
  </defs>
  <rect
     style="fill:#ffffff;fill-opacity:1;stroke:none"
     id="rect2881"
     width="200.9709"
     height="200.61583"
     x="0.1366235"
     y="0.033394299"
     rx="0"
     ry="0" />
  <rect
     width="194.80612"
     height="194.80614"
     ry="18.580454"
     x="3.2339785"
     y="2.8621521"
     id="rect4614"
     style="fill:none;stroke:#000000;stroke-width:3;stroke-miterlimit:4;stroke-opacity:1;stroke-dasharray:none" />
  <g
     id="g7780"
     transform="translate(1.2425119,0.5659414)">
    <path
       d="M 63.55538,184.1646 C 60.71634,181.82409 58.84839,179.83902 58.74114,179.04851 C 58.59687,177.98514 60.25437,176.46642 68.11817,170.45665 C 80.8443,160.73092 79.43969,161.43054 82.94425,163.07199 C 84.55922,163.8284 85.88055,164.68204 85.88055,164.96898 C 85.88055,165.25592 82.335,170.56066 78.00155,176.75729 C 73.06007,183.82337 69.7631,188.01739 69.15846,188.00645 C 68.62821,187.99645 66.10683,186.26803 63.55538,184.1646 L 63.55538,184.1646 z M 123.89098,176.78884 C 119.56966,170.60956 116.03403,165.30482 116.03403,165.00053 C 116.03403,164.69625 117.35348,163.82929 118.96613,163.07396 C 122.469,161.4333 121.07396,160.73389 133.90768,170.565 C 140.89324,175.91619 143.28111,178.06286 143.26063,178.97318 C 143.23023,180.32267 134.188,188.02389 132.63388,188.02389 C 132.14002,188.02389 128.27073,183.05167 123.89098,176.78884 z M 78.74263,180.64673 C 77.6124,180.47683 77.16974,180.10991 77.2971,179.44854 C 77.44686,178.6709 78.01417,178.54505 80.3759,178.76554 C 84.58358,179.15837 92.77603,179.02719 95.35915,178.52563 L 97.58932,178.09259 L 95.06922,176.49059 C 92.57028,174.90205 86.46043,168.67436 86.46043,167.71577 C 86.46043,166.07502 88.10169,166.97095 91.54094,170.48915 C 93.69009,172.68762 96.68797,175.07663 98.20289,175.79805 L 100.95729,177.10973 L 103.7117,175.79805 C 105.22662,175.07663 108.20779,172.70486 110.33653,170.52745 C 112.46527,168.35005 114.35711,166.56853 114.54062,166.56853 C 114.72413,166.56853 114.87428,167.1016 114.87428,167.75312 C 114.87428,169.24302 110.17537,174.35084 106.84537,176.48073 L 104.32527,178.09259 L 106.55543,178.56422 C 107.78202,178.82361 112.37357,178.9852 116.75887,178.92332 C 123.18394,178.83262 124.73215,178.96532 124.73215,179.60644 C 124.73215,180.13823 123.64902,180.5374 121.46589,180.81017 C 117.13172,181.35168 105.16634,180.79227 103.03171,179.94838 C 101.69584,179.42024 100.50503,179.46757 97.40843,180.17187 C 93.73742,181.00683 82.96171,181.28097 78.74263,180.64673 L 78.74263,180.64673 z M 94.28874,164.24815 C 84.1707,162.72638 75.1823,157.84468 67.93427,149.93473 C 63.2656,144.8397 58.95456,136.31617 57.63398,129.56961 C 56.96517,126.15286 56.38277,124.58861 55.62932,124.18537 C 54.42579,123.54127 54.21857,121.33915 55.26318,120.29454 C 55.75874,119.79898 59.35084,119.59869 67.74291,119.59869 L 79.5268,119.59869 L 80.21952,121.11905 C 80.84303,122.48751 80.75489,122.76487 79.33727,123.89523 C 78.0388,124.9306 77.76586,125.60533 77.78254,127.73872 C 77.80724,130.89749 79.13127,138.39011 80.08429,140.76411 L 80.78263,142.50374 L 81.60806,139.31443 C 83.1682,133.28629 87.22386,128.77165 93.60604,125.95862 C 98.02256,124.01198 104.5497,124.21849 109.33146,126.45615 C 115.69763,129.43524 119.49963,134.50642 120.79218,141.74269 L 121.44601,145.40311 L 122.53546,142.92876 C 124.16659,139.22412 125.73542,132.54433 125.97195,128.29681 C 126.18021,124.5568 126.16949,124.52621 124.58696,124.34412 C 122.67041,124.1236 121.78687,122.69264 122.46249,120.90341 C 122.95123,119.60908 123.04938,119.59869 134.79026,119.59869 C 144.55701,119.59869 146.75044,119.74939 147.34101,120.46097 C 148.33542,121.65917 147.6022,124.23769 146.26708,124.23769 C 145.40023,124.23769 145.03053,125.14598 144.22162,129.26296 C 139.70992,152.22522 117.5556,167.74753 94.28874,164.24815 L 94.28874,164.24815 z M 104.64024,156.08408 C 107.77761,155.21292 111.56327,151.26396 112.51306,147.87162 C 114.63095,140.30725 108.79509,132.63343 100.96541,132.68713 C 90.98864,132.75553 85.36051,143.77788 91.28855,151.63864 C 94.54601,155.95813 99.34249,157.55512 104.64024,156.08408 L 104.64024,156.08408 z M 80.08666,115.69357 L 73.0426,105.9897 L 74.34265,104.93698 C 75.98053,103.6107 75.62915,103.25199 83.79667,114.58816 C 89.74087,122.83848 89.96255,123.25128 89.01251,124.30106 C 88.4668,124.90407 87.82015,125.39744 87.57552,125.39744 C 87.33088,125.39744 83.9609,121.0307 80.08666,115.69357 L 80.08666,115.69357 z M 112.54794,124.34875 L 111.25287,123.30007 L 118.32325,113.62251 C 124.52664,105.13164 125.52687,104.01626 126.48028,104.52651 C 127.07794,104.84636 127.7182,105.35283 127.90309,105.65198 C 128.17958,106.09936 114.61775,125.39744 114.02686,125.39744 C 113.92575,125.39744 113.26023,124.92553 112.54794,124.34875 z M 94.69465,120.06259 C 94.31193,119.67988 93.9988,118.81876 93.9988,118.14901 C 93.9988,115.95329 95.10205,115.53957 100.95729,115.53957 C 106.81254,115.53957 107.91579,115.95329 107.91579,118.14901 C 107.91579,120.34472 106.81254,120.75844 100.95729,120.75844 C 97.40073,120.75844 95.13922,120.50716 94.69465,120.06259 z"
       id="path4776"
       style="fill:#000000" />
    <path
       d="M 101.67215,107.1926 C 101.67215,106.83274 100.72152,100.55955 99.657955,93.900918 C 98.101089,84.153903 97.535286,80.334328 97.235719,77.549073 C 96.960435,74.989598 96.949432,68.126469 97.216869,65.793423 C 97.328322,64.821151 97.539746,63.003431 97.686701,61.754046 C 98.057515,58.601437 98.288009,51.086909 98.492724,35.47622 C 98.684665,20.83969 98.804998,18.498639 99.446558,16.919751 C 100.81518,13.551553 104.70526,10.197153 107.24272,10.197153 C 108.94285,10.197153 108.85246,10.659471 106.55412,13.719228 C 104.25815,16.775844 103.66781,17.900745 103.19885,20.112827 C 102.59042,22.982738 102.51077,25.276552 102.51801,39.718861 C 102.52501,54.086744 102.67072,61.68276 103.19525,75.0742 C 103.75437,89.348433 103.20985,105.1471 102.10002,106.84981 C 101.8729,107.19827 101.67215,107.3591 101.67215,107.1926 L 101.67215,107.1926 z"
       id="path4778"
       style="fill:#f8991d;fill-opacity:1;stroke:#ffffff;stroke-width:0.42426407;stroke-linecap:butt;stroke-linejoin:miter;stroke-miterlimit:4;stroke-dasharray:none;stroke-dashoffset:0;stroke-opacity:1" />
    <path
       d="M 98.175031,108.26612 C 98.071223,108.14104 97.509472,106.90997 96.926695,105.53041 C 95.755226,102.75729 94.02193,99.476736 91.949714,96.110626 C 91.201536,94.895287 89.943624,92.85184 89.154352,91.569634 C 85.742857,86.027512 83.096504,80.190916 82.31509,76.48548 C 81.495981,72.601297 81.828486,70.05378 84.142072,62.487898 C 85.382612,58.431084 85.799814,56.304463 85.799824,54.037773 C 85.799833,51.857164 85.542893,50.89125 84.597802,49.51902 C 84.233617,48.99024 83.988146,48.505102 84.052311,48.440937 C 84.426114,48.067134 87.758276,49.880533 88.224758,50.711628 C 88.450791,51.114335 88.457827,51.362506 88.272338,52.390022 C 87.905184,54.423898 87.56824,57.338377 87.325663,60.578511 C 87.012156,64.766058 87.014628,75.709806 87.329563,77.814238 C 87.601598,79.632042 88.406815,81.746569 91.757701,89.442673 C 94.917412,96.699698 97.60422,104.00516 98.233239,107.04973 C 98.511679,108.39743 98.499268,108.6568 98.175029,108.26612 L 98.175029,108.26612 L 98.175031,108.26612 z"
       id="path4780"
       style="fill:#f8991d;fill-opacity:1;stroke:#ffffff;stroke-width:0.42426407;stroke-linecap:butt;stroke-linejoin:miter;stroke-miterlimit:4;stroke-dasharray:none;stroke-dashoffset:0;stroke-opacity:1" />
    <path
       d="M 99.151476,104.46333 C 98.990646,104.0015 98.419865,102.14002 97.883074,100.3267 C 96.14976,94.47147 95.071979,91.558955 92.654653,86.197801 C 90.112392,80.559565 89.603414,78.734589 89.26453,74.042276 C 89.103848,71.817418 89.104387,69.909448 89.26683,65.733772 C 89.578104,57.734607 89.672212,57.03435 91.341017,50.299755 C 92.817171,44.342617 93.182779,42.188731 93.302095,38.746589 C 93.416936,35.433541 93.196927,34.054949 92.235241,32.06159 C 91.898755,31.364131 91.65229,30.764641 91.68754,30.729391 C 91.72279,30.694141 92.173985,30.907386 92.690196,31.203269 C 94.477149,32.227517 95.251697,33.401606 95.772962,35.876242 C 96.381553,38.765446 96.264355,51.729258 95.575213,57.750084 C 95.09264,61.966181 94.921828,66.006674 94.92878,73.041268 C 94.93688,81.224231 95.048097,82.421792 96.283367,87.625345 C 97.952819,94.657886 99.901942,105.30301 99.520148,105.30301 C 99.478178,105.30301 99.31226,104.92515 99.15143,104.46333 L 99.15143,104.46333 L 99.151476,104.46333 z"
       id="path4782"
       style="fill:#f8991d;fill-opacity:1;stroke:#ffffff;stroke-width:0.42426407;stroke-linecap:butt;stroke-linejoin:miter;stroke-miterlimit:4;stroke-dasharray:none;stroke-dashoffset:0;stroke-opacity:1" />
    <path
       d="M 104.65921,104.6843 C 104.57081,104.1076 104.72471,101.26963 105.01873,98.05517 C 105.31182,94.850541 105.24129,81.183576 104.83993,63.406938 C 104.28843,38.980496 104.4577,27.317167 105.4069,24.339288 C 105.92402,22.716948 106.90524,21.950144 109.13758,21.423824 C 110.41889,21.121727 112.73505,21.071281 112.90225,21.341824 C 113.11255,21.682088 112.63366,21.995459 111.71769,22.116966 C 110.5562,22.271044 110.01996,22.554651 109.22372,23.435991 C 107.87139,24.93286 107.33362,26.725529 107.33534,29.730973 C 107.33734,33.792922 108.02025,42.252099 109.36092,54.833264 C 110.4086,64.664953 110.53142,66.347773 110.52858,70.831555 C 110.52458,77.55244 109.93668,82.012435 107.5822,93.193807 C 106.42356,98.696153 105.45443,102.91132 105.04221,104.24121 C 104.76276,105.1428 104.73449,105.17549 104.65921,104.6843 L 104.65921,104.6843 z"
       id="path4784"
       style="fill:#f8991d;fill-opacity:1;stroke:#ffffff;stroke-width:0.42426407;stroke-linecap:butt;stroke-linejoin:miter;stroke-miterlimit:4;stroke-dasharray:none;stroke-dashoffset:0;stroke-opacity:1" />
    <path
       d="M 105.57059,107.90512 C 105.56559,107.82922 106.32218,105.2439 107.25222,102.15988 C 111.14816,89.240951 112.85035,80.520057 113.10825,72.157384 C 113.25399,67.431691 112.84292,62.639727 111.37194,51.916453 C 110.97638,49.032908 110.61332,45.580834 110.55982,44.194693 C 110.46452,41.726703 110.47022,41.675592 110.92632,40.897352 C 111.50424,39.91121 113.29954,38.268642 114.32768,37.785361 C 114.76154,37.581422 115.46364,37.420764 115.92101,37.420764 L 116.7387,37.420764 L 115.65712,38.576978 C 112.69907,41.739143 112.63268,43.991101 115.12311,56.689423 C 117.03701,66.448116 116.96341,65.845079 116.94627,71.627054 C 116.91667,81.611784 116.3282,84.968391 113.45968,91.514432 C 111.10125,96.896429 105.59926,108.32759 105.57059,107.90512 L 105.57059,107.90512 L 105.57059,107.90512 z"
       id="path4786"
       style="fill:#f8991d;fill-opacity:1;stroke:#ffffff;stroke-width:0.42426407;stroke-linecap:butt;stroke-linejoin:miter;stroke-miterlimit:4;stroke-dasharray:none;stroke-dashoffset:0;stroke-opacity:1" />
    <path
       d="M 106.6219,109.08223 C 106.6219,108.90732 108.40729,105.71315 111.30337,100.70682 C 117.01965,90.82533 118.28249,87.870419 119.1605,82.322044 C 119.75632,78.556826 119.90394,75.602029 119.84652,68.59035 C 119.78592,61.18542 119.75162,61.441394 120.96137,60.258641 C 122.17835,59.06882 125.11216,58.484111 125.90202,59.273969 L 126.27334,59.645294 L 125.49619,59.840984 C 124.39808,60.117489 123.17661,61.103738 122.7882,62.027475 C 122.49739,62.719097 122.4572,63.711797 122.34583,72.952879 C 122.23262,82.348103 122.19562,83.237972 121.8571,84.708529 C 120.54592,90.404358 116.64005,97.897238 111.97174,103.67225 C 109.7218,106.45558 106.6219,109.59033 106.6219,109.08223 z"
       id="path4788"
       style="fill:#f8991d;fill-opacity:1;stroke:#ffffff;stroke-width:0.42426407;stroke-linecap:butt;stroke-linejoin:miter;stroke-miterlimit:4;stroke-dasharray:none;stroke-dashoffset:0;stroke-opacity:1" />
    <path
       d="M 107.97904,111.25076 C 108.2535,110.92462 109.3837,109.63194 110.49062,108.37814 C 115.17797,103.06877 118.80743,97.612954 120.88592,92.751869 C 122.47995,89.023839 124.30006,82.911259 124.73517,79.824748 C 125.01121,77.866597 125.32484,77.147129 126.12011,76.647684 C 126.8149,76.211339 128.0025,76.280398 128.69498,76.797412 C 129.35535,77.290446 129.27533,77.564656 128.39528,77.824507 C 127.38454,78.122943 127.08404,78.421356 126.51306,79.693663 C 126.13739,80.530778 125.98209,81.2875 125.78788,83.227268 C 125.42911,86.810622 124.72649,89.281656 122.92882,93.282199 C 120.58218,98.504446 117.36868,103.40192 114.22686,106.54427 C 112.30781,108.46363 108.07701,111.84375 107.59364,111.84375 C 107.53114,111.84375 107.70459,111.57691 107.97904,111.25076 z"
       id="path4790"
       style="fill:#f8991d;fill-opacity:1;stroke:#ffffff;stroke-width:0.42426407;stroke-linecap:butt;stroke-linejoin:miter;stroke-miterlimit:4;stroke-dasharray:none;stroke-dashoffset:0;stroke-opacity:1" />
    <path
       d="M 95.461161,109.9434 C 93.856111,108.27541 92.454391,106.49373 90.767272,103.97719 C 89.063942,101.43646 88.510834,100.52479 85.944347,96.027713 C 84.610925,93.691248 82.555355,90.21215 81.376414,88.296382 C 79.234659,84.816049 77.916158,82.366257 77.019255,80.200724 C 76.757507,79.568747 75.943717,77.800174 75.210832,76.270562 C 73.767635,73.258453 73.6733,72.711898 74.558272,72.489784 C 76.537209,71.993102 80.917957,77.664409 82.221386,82.410432 C 83.384328,86.644918 85.225801,90.19393 91.390983,100.0827 C 93.086394,102.80209 94.905622,105.81823 95.433713,106.78523 C 96.8178,109.31968 97.587033,111.4902 97.101157,111.4902 C 97.017787,111.4902 96.279792,110.79414 95.461161,109.9434 L 95.461161,109.9434 z"
       id="path4792"
       style="fill:#f8991d;fill-opacity:1;stroke:#ffffff;stroke-width:0.42426407;stroke-linecap:butt;stroke-linejoin:miter;stroke-miterlimit:4;stroke-dasharray:none;stroke-dashoffset:0;stroke-opacity:1" />
    <path
       d="M 92.64689,111.89435 C 88.693214,109.21947 84.754465,104.16638 81.41145,97.480196 C 79.741189,94.139596 78.924316,92.79271 77.930361,91.740465 C 76.996003,90.751312 76.962719,90.491047 77.708117,90.002643 C 78.330933,89.594559 78.97773,89.795463 79.789956,90.649289 C 80.739949,91.64794 81.35786,92.668796 84.126859,97.81433 C 87.825777,104.6879 88.645545,105.92505 92.368905,110.25276 C 95.033626,113.35 95.064053,113.52969 92.64689,111.89435 L 92.64689,111.89435 L 92.64689,111.89435 z"
       id="path4794"
       style="fill:#f8991d;fill-opacity:1;stroke:#ffffff;stroke-width:0.42426407;stroke-linecap:butt;stroke-linejoin:miter;stroke-miterlimit:4;stroke-dasharray:none;stroke-dashoffset:0;stroke-opacity:1" />
  </g>
</svg>
