<?xml version="1.0" encoding="UTF-8" standalone="no"?>
<!-- Created with Inkscape (http://www.inkscape.org/) -->

<svg
   xmlns:dc="http://purl.org/dc/elements/1.1/"
   xmlns:cc="http://creativecommons.org/ns#"
   xmlns:rdf="http://www.w3.org/1999/02/22-rdf-syntax-ns#"
   xmlns:svg="http://www.w3.org/2000/svg"
   xmlns="http://www.w3.org/2000/svg"
   xmlns:sodipodi="http://sodipodi.sourceforge.net/DTD/sodipodi-0.dtd"
   xmlns:inkscape="http://www.inkscape.org/namespaces/inkscape"
   width="600"
   height="600"
   id="svg2"
   version="1.1"
   inkscape:version="0.48.5 r10040"
   sodipodi:docname="Nuovo documento 1">
  <defs
     id="defs4" />
  <sodipodi:namedview
     id="base"
     pagecolor="#ffffff"
     bordercolor="#666666"
     borderopacity="1.0"
     inkscape:pageopacity="0.0"
     inkscape:pageshadow="2"
     inkscape:zoom="0.35"
     inkscape:cx="95.608828"
     inkscape:cy="226.43482"
     inkscape:document-units="px"
     inkscape:current-layer="layer1"
     showgrid="false"
     inkscape:object-paths="true"
     inkscape:snap-object-midpoints="true"
     inkscape:snap-global="false"
     fit-margin-top="0"
     fit-margin-left="0"
     fit-margin-right="0"
     fit-margin-bottom="0"
     inkscape:window-width="1366"
     inkscape:window-height="705"
     inkscape:window-x="-8"
     inkscape:window-y="-8"
     inkscape:window-maximized="1" />
  <metadata
     id="metadata7">
    <rdf:RDF>
      <cc:Work
         rdf:about="">
        <dc:format>image/svg+xml</dc:format>
        <dc:type
           rdf:resource="http://purl.org/dc/dcmitype/StillImage" />
        <dc:title></dc:title>
      </cc:Work>
    </rdf:RDF>
  </metadata>
  <g
     inkscape:label="Livello 1"
     inkscape:groupmode="layer"
     id="layer1"
     transform="translate(0,-452.375)">
    <rect
       style="fill:#d40000;fill-opacity:1;fill-rule:evenodd;stroke:#d40000;stroke-width:0.99999994px;stroke-linecap:butt;stroke-linejoin:miter;stroke-opacity:1"
       id="rect2985"
       width="599"
       height="599"
       x="0.49999997"
       y="452.875" />
    <rect
       style="fill:none;stroke:#ffffff;stroke-width:10;stroke-linecap:butt;stroke-linejoin:miter;stroke-miterlimit:4;stroke-opacity:1;stroke-dasharray:none"
       id="rect3755"
       width="580"
       height="580"
       x="10"
       y="462.375"
       rx="30.000029"
       ry="30.000029" />
    <path
       style="fill:#ffffff;fill-opacity:1;fill-rule:evenodd;stroke:none"
       d="m 403.32967,698.13298 -147.9166,10.60606 -13.447,50.94697 -0.094,0 0.094,0.1894 -0.094,0.18939 0.094,0 13.447,50.94697 147.9166,10.60606 153.9773,-6.0606 0,-55.49243 0,-0.37879 0,-55.49242 -153.9773,-6.06061 z m 6.8182,5.68182 0,14.48864 -47.5379,0.18939 -27.9354,-10.51136 75.4733,-4.16667 z m 4.1667,0.1894 69.3182,3.40909 -20.644,10.70075 -48.6742,0.1894 0,-14.29924 z m 85.3221,4.73484 0,50.94697 0,0.37879 0,50.94697 -23.0115,-11.64773 0,-39.29924 0,-0.37879 0,-39.29924 23.0115,-11.64773 z m -168.75,4.92425 30.9658,8.23863 0,37.78409 0,0.37879 0,37.78409 -30.9658,8.23864 0,-46.02273 0,-0.37879 0,-46.02272 z m 31.7233,87.59469 47.5379,0.1894 0,14.48863 -75.4733,-4.16666 27.9354,-10.51137 z m 51.7046,0.1894 48.6742,0.18939 20.644,10.70076 -69.3182,3.40909 0,-14.29924 z"
       id="path4601"
       inkscape:connector-curvature="0" />
    <path
       style="fill:#ffffff;fill-opacity:1;fill-rule:evenodd;stroke:none"
       d="m 151.43577,622.4701 -49.14761,25.85228 -0.2848,0.18939 -49.147588,25.75758 66.287898,139.10985 78.2197,126.04166 51.3257,-11.83712 0.1879,-0.0945 0.1879,0 38.8257,-35.60606 -36.2691,-70.54925 -3.2197,5.96591 -40.7196,21.40152 -0.3788,0.18939 -40.7197,21.40152 -7.1022,-31.25 33.4279,-17.51894 0.3788,-0.1894 33.4282,-17.61363 2.6515,-2.27273 -21.9697,-42.14015 12.8788,-6.72349 10.6203,18.70343 -2.4764,-15.29449 -76.9887,-133.52273 z m 22.8221,53.2197 0.3788,25.75758 -34.7539,18.27651 -0.3788,0.1894 -34.7537,18.27651 -21.022695,-14.96212 45.075795,-23.67424 0.3788,-0.1894 45.0757,-23.67424 z m 8.6173,13.54167 35.2273,59.75379 -12.5946,6.62878 -22.5379,-43.18181 -0.094,-23.20076 z m -92.897595,48.76894 19.128795,13.35227 22.7273,42.99242 -12.5949,6.62879 -29.261195,-62.97348 z m 43.844595,60.03788 22.2539,41.95075 3.693,29.64016 -38.8257,-64.86743 12.8788,-6.72348 z"
       id="path8158"
       sodipodi:nodetypes="ccccccccccccccccccccccccccccccccccccccccccccccccc"
       inkscape:connector-curvature="0" />
    <path
       style="fill:#ffffff;fill-opacity:1;fill-rule:evenodd;stroke:none"
       d="m 217.70697,711.73574 -48.3036,-106.41912 12.076,-6.03797 36.2276,112.45709 z"
       id="path9048"
       inkscape:connector-curvature="0" />
    <path
       style="fill:#ffffff;fill-opacity:1;fill-rule:evenodd;stroke:none"
       d="m 230.53787,704.18829 -18.8688,-120.00455 14.3403,0 4.5285,120.00455 z"
       id="path9050"
       inkscape:connector-curvature="0" />
    <path
       style="fill:#ffffff;fill-opacity:1;fill-rule:evenodd;stroke:none"
       d="m 241.85907,707.96201 16.6043,-116.23081 12.8306,0 -29.4349,116.23081 z"
       id="path9052"
       inkscape:connector-curvature="0" />
    <path
       style="fill:#ffffff;fill-opacity:1;fill-rule:evenodd;stroke:none"
       d="m 308.27667,845.32568 89.06,36.98255 -3.7739,11.32118 -85.2861,-48.30373 z"
       id="path9054"
       inkscape:connector-curvature="0" />
    <path
       style="fill:#ffffff;fill-opacity:1;fill-rule:evenodd;stroke:none"
       d="m 319.59787,860.42059 73.9649,70.19133 -12.0758,6.7927 -61.8891,-76.98403 z"
       id="path9056"
       inkscape:connector-curvature="0" />
    <path
       style="fill:#ffffff;fill-opacity:1;fill-rule:evenodd;stroke:none"
       d="m 306.01247,866.45856 52.0772,84.53148 -12.0757,5.28322 -40.0015,-89.8147 z"
       id="path9058"
       inkscape:connector-curvature="0" />
  </g>
</svg>
