<?xml version="1.0" encoding="UTF-8" standalone="no"?>
<!-- Created with Inkscape (http://www.inkscape.org/) -->

<svg
   width="357.1875mm"
   height="529.16663mm"
   viewBox="0 0 357.1875 529.16663"
   version="1.1"
   id="svg4449"
   inkscape:version="1.2.1 (9c6d41e410, 2022-07-14)"
   sodipodi:docname="Segnale stradale italiano - corsie chiuse (figura II 411d).svg"
   xmlns:inkscape="http://www.inkscape.org/namespaces/inkscape"
   xmlns:sodipodi="http://sodipodi.sourceforge.net/DTD/sodipodi-0.dtd"
   xmlns="http://www.w3.org/2000/svg"
   xmlns:svg="http://www.w3.org/2000/svg">
  <sodipodi:namedview
     id="namedview4451"
     pagecolor="#ffffff"
     bordercolor="#000000"
     borderopacity="0.25"
     inkscape:showpageshadow="2"
     inkscape:pageopacity="0.0"
     inkscape:pagecheckerboard="0"
     inkscape:deskcolor="#d1d1d1"
     inkscape:document-units="mm"
     showgrid="false"
     inkscape:zoom="0.76257015"
     inkscape:cx="771.73228"
     inkscape:cy="1247.7541"
     inkscape:window-width="1920"
     inkscape:window-height="991"
     inkscape:window-x="-9"
     inkscape:window-y="-9"
     inkscape:window-maximized="1"
     inkscape:current-layer="layer1" />
  <defs
     id="defs4446" />
  <g
     inkscape:label="Livello 1"
     inkscape:groupmode="layer"
     id="layer1"
     transform="translate(98.792371,189.63943)">
    <g
       id="g5739"
       transform="translate(-3746.162,-8304.2864)">
      <rect
         style="fill:#f2ef0c;fill-rule:evenodd;stroke-width:19.237;stroke-opacity:0.68;paint-order:markers fill stroke"
         id="rect4727-8-95-5-2"
         width="357.1875"
         height="529.16663"
         x="3647.3696"
         y="8114.647" />
      <rect
         style="fill:none;fill-opacity:0.704615;fill-rule:evenodd;stroke:#000000;stroke-width:7.9375;paint-order:markers fill stroke"
         id="rect4727-8-9-0-4-3"
         width="341.3125"
         height="513.29169"
         x="3655.3069"
         y="8122.5845"
         ry="27.78125"
         rx="27.78125" />
      <path
         id="path4594-1-7-9-0-1-0-3-0-6-1-8-6-3-0-9-6-4"
         style="fill:#000000;stroke-width:101.124;paint-order:fill markers stroke"
         d="m 3943.765,8187.0544 30.2341,52.3847 c 1.9512,3.378 -0.5432,4.5307 -3.0232,3.8661 l -13.6763,-3.3646 c -3.1212,-0.8331 -4.2169,-0.8603 -4.2004,2.4445 v 55.5978 c 0,15.3963 -0.129,25.6354 -3.5572,32.406 l -91.9824,179.6083 c -4.8693,5.5466 -7.2944,22.7208 -7.2944,26.1012 v 80.8766 h -18.6687 v -80.8766 c 0,-14.1794 2.301,-27.7524 9.262,-39.9061 l 90.4044,-174.2805 c 3.1307,-6.0163 3.1674,-14.5849 3.1674,-23.9289 v -55.5978 c 0,-3.3063 -1.0803,-3.2802 -4.2013,-2.4445 l -13.6773,3.3646 c -2.4835,0.6701 -4.9726,-0.4889 -3.0224,-3.8661 z"
         sodipodi:nodetypes="cccccccccccccccccccc" />
      <path
         id="path4594-1-7-9-0-1-0-3-0-6-1-8-6-3-0-9-6-0-7"
         style="fill:#000000;stroke-width:101.124;paint-order:fill markers stroke"
         d="m 3867.4014,8187.0543 30.2342,52.3847 c 1.9511,3.378 -0.5433,4.5307 -3.0233,3.8661 l -13.6763,-3.3646 c -3.1212,-0.8331 -4.2169,-0.8603 -4.2004,2.4445 v 35.2557 c 0,15.3963 2.3293,23.2217 -10.4979,45.8224 l -85.0567,170.4565 c -4.8694,7.5255 -7.2793,16.2845 -7.2793,27.5799 v 95.4753 l -18.6688,10e-5 v -102.4157 c 0,-11.2112 -1.0559,-17.1377 4.7948,-27.2714 l 91.3937,-179.4748 c 4.862,-9.9737 6.6453,-22.3123 6.6453,-30.1723 v -35.2557 c 0,-3.3063 -1.0803,-3.2802 -4.2012,-2.4445 l -13.6774,3.3646 c -2.4834,0.6701 -4.9726,-0.489 -3.0224,-3.8661 z"
         sodipodi:nodetypes="cccccccccccccccccccc" />
      <path
         style="color:#000000;fill:#d92124;fill-rule:evenodd;paint-order:markers fill stroke"
         d="m 3804.1133,8149.2086 v 98.3809 l -126.0664,252.5546 v 116.8307 h 23.0195 v -111.4049 l 126.0645,-252.5547 v -103.8066 z"
         id="path5180-4"
         sodipodi:nodetypes="ccccccccc" />
    </g>
  </g>
</svg>
