<?xml version="1.0" encoding="UTF-8" standalone="no"?>
<!-- Created with Inkscape (http://www.inkscape.org/) -->

<svg
   xmlns:dc="http://purl.org/dc/elements/1.1/"
   xmlns:cc="http://creativecommons.org/ns#"
   xmlns:rdf="http://www.w3.org/1999/02/22-rdf-syntax-ns#"
   xmlns:svg="http://www.w3.org/2000/svg"
   xmlns="http://www.w3.org/2000/svg"
   xmlns:sodipodi="http://sodipodi.sourceforge.net/DTD/sodipodi-0.dtd"
   xmlns:inkscape="http://www.inkscape.org/namespaces/inkscape"
   width="400"
   height="200"
   id="svg12429"
   version="1.1"
   inkscape:version="0.48.5 r10040"
   sodipodi:docname="Strada regionale caricare.svg"
   inkscape:export-filename="C:\Users\utente\Desktop\Cartelli.png"
   inkscape:export-xdpi="90"
   inkscape:export-ydpi="90">
  <defs
     id="defs12431" />
  <sodipodi:namedview
     id="base"
     pagecolor="#ffffff"
     bordercolor="#666666"
     borderopacity="1.0"
     inkscape:pageopacity="0.0"
     inkscape:pageshadow="2"
     inkscape:zoom="0.49497475"
     inkscape:cx="615.009"
     inkscape:cy="-66.086062"
     inkscape:document-units="px"
     inkscape:current-layer="text12527-6"
     showgrid="false"
     fit-margin-top="0"
     fit-margin-left="0"
     fit-margin-right="0"
     fit-margin-bottom="0"
     inkscape:window-width="1366"
     inkscape:window-height="705"
     inkscape:window-x="-8"
     inkscape:window-y="-8"
     inkscape:window-maximized="1" />
  <metadata
     id="metadata12434">
    <rdf:RDF>
      <cc:Work
         rdf:about="">
        <dc:format>image/svg+xml</dc:format>
        <dc:type
           rdf:resource="http://purl.org/dc/dcmitype/StillImage" />
        <dc:title />
      </cc:Work>
    </rdf:RDF>
  </metadata>
  <g
     inkscape:label="Livello 1"
     inkscape:groupmode="layer"
     id="layer1"
     transform="translate(0,-852.36218)">
    <g
       style="font-size:128.20588684px;font-style:normal;font-weight:normal;line-height:125%;letter-spacing:0px;word-spacing:0px;fill:#ffffff;fill-opacity:1;stroke:none;font-family:Sans"
       id="text12255">
      <g
         style="line-height:125%;fill:#ffffff;font-family:Sans"
         id="text12291">
        <g
           style="font-size:92.59313965px;font-style:normal;font-weight:normal;line-height:125%;letter-spacing:0px;word-spacing:0px;fill:#ffffff;fill-opacity:1;stroke:none;font-family:Sans"
           id="text12551">
          <flowRoot
             xml:space="preserve"
             id="flowRoot16731"
             style="fill:black;stroke:none;stroke-opacity:1;stroke-width:1px;stroke-linejoin:miter;stroke-linecap:butt;fill-opacity:1;font-family:Sans;font-style:normal;font-weight:normal;font-size:40px;line-height:125%;letter-spacing:0px;word-spacing:0px"><flowRegion
               id="flowRegion16733"><rect
                 id="rect16735"
                 width="703.06616"
                 height="416.18286"
                 x="-109.09647"
                 y="-82.842712" /></flowRegion><flowPara
               id="flowPara16737" /></flowRoot>          <flowRoot
             xml:space="preserve"
             id="flowRoot16907"
             style="fill:black;stroke:none;stroke-opacity:1;stroke-width:1px;stroke-linejoin:miter;stroke-linecap:butt;fill-opacity:1;font-family:Sans;font-style:normal;font-weight:normal;font-size:40px;line-height:125%;letter-spacing:0px;word-spacing:0px"><flowRegion
               id="flowRegion16909"><rect
                 id="rect16911"
                 width="824.28448"
                 height="527.29962"
                 x="-113.13708"
                 y="-72.741188" /></flowRegion><flowPara
               id="flowPara16913" /></flowRoot>          <flowRoot
             xml:space="preserve"
             id="flowRoot19391"
             style="fill:black;stroke:none;stroke-opacity:1;stroke-width:1px;stroke-linejoin:miter;stroke-linecap:butt;fill-opacity:1;font-family:Sans;font-style:normal;font-weight:normal;font-size:40px;line-height:125%;letter-spacing:0px;word-spacing:0px"><flowRegion
               id="flowRegion19393"><rect
                 id="rect19395"
                 width="195.96959"
                 height="185.86807"
                 x="-113.13708"
                 y="-62.63966" /></flowRegion><flowPara
               id="flowPara19397" /></flowRoot>          <g
             style="font-size:113.96078491px;line-height:125%;fill:#ffffff;font-family:Sans"
             id="text12515">
            <g
               style="font-size:92.59313965px;font-style:normal;font-weight:normal;line-height:125%;letter-spacing:0px;word-spacing:0px;fill:#ffffff;fill-opacity:1;stroke:none;font-family:Sans"
               id="text12551-1">
              <g
                 style="font-size:128.20588684px;line-height:125%;fill:#ffffff;font-family:Sans"
                 id="text12527">
                <flowRoot
                   xml:space="preserve"
                   id="flowRoot3235"
                   style="fill:black;stroke:none;stroke-opacity:1;stroke-width:1px;stroke-linejoin:miter;stroke-linecap:butt;fill-opacity:1;font-family:Sans;font-style:normal;font-weight:normal;font-size:40px;line-height:125%;letter-spacing:0px;word-spacing:0px"><flowRegion
                     id="flowRegion3237"><rect
                       id="rect3239"
                       width="739.43164"
                       height="395.9798"
                       x="-92.934036"
                       y="-99.00515" /></flowRegion><flowPara
                     id="flowPara3241" /></flowRoot>                <g
                   style="font-style:normal;font-weight:normal;line-height:125%;letter-spacing:0px;word-spacing:0px;fill:#ffffff;fill-opacity:1;stroke:none;font-family:Sans"
                   id="text12527-6">
                  <flowRoot
                     xml:space="preserve"
                     id="flowRoot3263"
                     style="fill:black;stroke:none;stroke-opacity:1;stroke-width:1px;stroke-linejoin:miter;stroke-linecap:butt;fill-opacity:1;font-family:Sans;font-style:normal;font-weight:normal;font-size:40px;line-height:125%;letter-spacing:0px;word-spacing:0px"><flowRegion
                       id="flowRegion3265"><rect
                         id="rect3267"
                         width="1030.3556"
                         height="598.01031"
                         x="-147.48227"
                         y="-141.43156" /></flowRegion><flowPara
                       id="flowPara3269" /></flowRoot>                  <rect
                     y="852.36218"
                     x="0"
                     height="200"
                     width="400"
                     id="rect12379"
                     style="fill:#00408b;fill-opacity:1;fill-rule:evenodd;stroke:none" />
                  <rect
                     ry="21.071428"
                     y="858.36218"
                     x="6"
                     height="188"
                     width="388"
                     id="rect12381"
                     style="fill:none;stroke:#ffffff;stroke-width:6;stroke-miterlimit:4;stroke-opacity:1;stroke-dasharray:none"
                     rx="21.071428" />
                  <g
                     style="font-size:128.20588684px;line-height:125%;fill:#ffffff;font-family:Sans"
                     id="text12387">
                    <path
                       d="m 90.295386,906.33728 c 11.025484,0.25571 18.974434,5.89628 23.846894,16.9217 l -13.2048,8.3337 c -3.163974,-6.06957 -6.839143,-9.10438 -11.025522,-9.10446 -1.880649,8e-5 -3.483482,0.6626 -4.808503,1.98756 -1.325066,1.32512 -2.073663,3.05577 -2.245794,5.19193 -0.169563,1.71116 0.515129,3.46397 2.05408,5.25845 0.511215,0.59738 2.007105,1.96546 4.487675,4.10425 6.494772,5.04201 13.845114,11.28119 22.051034,18.71755 3.24735,4.10299 4.87105,9.1032 4.87111,15.00066 -6e-5,6.75044 -2.05153,12.56185 -6.15442,17.43424 -4.61683,5.38366 -10.7282,8.20459 -18.334128,8.46281 -11.281155,0.3417 -19.443995,-5.98355 -24.488545,-18.97578 l 13.721254,-7.82116 c 2.905686,7.09475 6.366971,10.64211 10.383863,10.64209 1.197205,2e-5 2.393135,-0.29863 3.587793,-0.89597 3.077824,-1.5389 4.616752,-4.14595 4.616789,-7.82115 -3.7e-5,-2.65006 -0.940348,-4.87237 -2.820937,-6.66696 -4.786361,-4.01682 -9.572689,-8.03369 -14.358996,-12.0506 -7.09474,-5.89744 -11.368526,-10.17122 -12.821372,-12.82137 -2.222323,-3.84726 -3.333481,-7.86412 -3.333478,-12.0506 -3e-6,-6.49734 2.436198,-12.1392 7.308612,-16.92562 4.872392,-4.78624 10.428184,-7.09333 16.667391,-6.92127 z"
                       style="font-variant:normal;font-stretch:normal;text-align:center;text-anchor:middle;fill:#ffffff;font-family:CodiceBiancoCondensed;-inkscape-font-specification:CodiceBiancoCondensed"
                       id="path3565" />
                    <path
                       d="m 155.05564,907.61668 c 5.46968,9e-5 10.85462,2.43629 16.15484,7.30861 6.06698,5.55588 9.1005,12.17979 9.10056,19.87175 -6e-5,7.69211 -2.821,14.31602 -8.46281,19.87176 -6.06708,5.89753 -13.63131,8.59066 -22.69269,8.07938 l 0,34.35596 -18.45934,0 0,-89.48746 z m -5.9001,39.48919 c 4.87237,0.0861 8.54884,-1.36672 11.02943,-4.35856 1.87797,-2.30833 2.81698,-4.95842 2.81702,-7.95027 -4e-5,-2.90563 -1.06816,-5.55441 -3.20436,-7.94635 -2.56405,-2.90824 -6.11141,-4.19024 -10.64209,-3.84602 z"
                       style="font-variant:normal;font-stretch:normal;text-align:center;text-anchor:middle;fill:#ffffff;font-family:CodiceBiancoCondensed;-inkscape-font-specification:CodiceBiancoCondensed"
                       id="path3567" />
                    <path
                       d="m 242.16818,932.36345 c -0.42777,-4.70279 1.15419,-9.87385 4.7459,-15.51319 4.61417,-7.00856 10.81031,-10.42811 18.58845,-10.25867 6.32523,0.0862 11.64561,2.28763 15.96118,6.60436 4.31547,4.31691 6.47323,9.42407 6.47329,15.32148 -6e-5,4.27256 -1.23902,8.41723 -3.71691,12.43403 -1.7946,2.90577 -5.29892,6.02536 -10.51298,9.35878 1.53889,0.42782 4.14594,1.58202 7.82116,3.46259 6.06698,4.44468 9.10049,10.7269 9.10055,18.84667 -6e-5,7.00868 -2.49951,13.07701 -7.49837,18.20502 -4.99896,5.12803 -11.00273,7.69204 -18.01135,7.69204 -8.37806,0 -14.74635,-3.24739 -19.1049,-9.74221 -3.07526,-4.61677 -4.61288,-9.48917 -4.61287,-14.61722 l 15.63839,-3.59171 c 0.17213,8.03637 2.77918,12.05454 7.82115,12.05452 2.13622,2e-5 3.9738,-1.02572 5.51276,-3.07721 1.5389,-2.05145 2.30836,-4.82999 2.3084,-8.33565 -4e-5,-4.10291 -1.02512,-7.09339 -3.07525,-8.97144 -1.4555,-1.45542 -3.67781,-2.354 -6.66696,-2.69574 -2.30842,-0.25557 -4.61681,-0.46815 -6.92518,-0.63774 l 0,-14.87545 c 4.87238,6e-5 8.63362,-1.45279 11.28374,-4.35856 2.47791,-2.64742 3.71687,-6.23651 3.71691,-10.76729 -4e-5,-4.53064 -1.70981,-6.79599 -5.12933,-6.79607 -4.70028,8e-5 -7.86291,4.14605 -9.48789,12.43794 z"
                       style="font-variant:normal;font-stretch:normal;text-align:center;text-anchor:middle;fill:#ffffff;font-family:CodiceBiancoCondensed;-inkscape-font-specification:CodiceBiancoCondensed"
                       id="path3569" />
                    <path
                       d="m 298.94295,907.61668 40.38517,0 0,15.00065 -20.51342,74.87415 -18.33413,0 20.38821,-73.71995 -21.92583,0 z"
                       style="font-variant:normal;font-stretch:normal;text-align:center;text-anchor:middle;fill:#ffffff;font-family:CodiceBiancoCondensed;-inkscape-font-specification:CodiceBiancoCondensed"
                       id="path3571" />
                  </g>
                </g>
              </g>
            </g>
          </g>
        </g>
      </g>
    </g>
  </g>
</svg>
