<?xml version="1.0" encoding="UTF-8" standalone="no"?>
<!-- Created with Inkscape (http://www.inkscape.org/) -->

<svg
   xmlns:dc="http://purl.org/dc/elements/1.1/"
   xmlns:cc="http://creativecommons.org/ns#"
   xmlns:rdf="http://www.w3.org/1999/02/22-rdf-syntax-ns#"
   xmlns:svg="http://www.w3.org/2000/svg"
   xmlns="http://www.w3.org/2000/svg"
   xmlns:sodipodi="http://sodipodi.sourceforge.net/DTD/sodipodi-0.dtd"
   xmlns:inkscape="http://www.inkscape.org/namespaces/inkscape"
   width="3350"
   height="1000"
   id="svg5070"
   version="1.1"
   inkscape:version="0.48.5 r10040"
   sodipodi:docname="Nuovo documento 5">
  <defs
     id="defs5072" />
  <sodipodi:namedview
     id="base"
     pagecolor="#ffffff"
     bordercolor="#666666"
     borderopacity="1.0"
     inkscape:pageopacity="0.0"
     inkscape:pageshadow="2"
     inkscape:zoom="0.0875"
     inkscape:cx="4763.6673"
     inkscape:cy="-2.0523656"
     inkscape:document-units="px"
     inkscape:current-layer="layer1"
     showgrid="false"
     fit-margin-top="0"
     fit-margin-left="0"
     fit-margin-right="0"
     fit-margin-bottom="0"
     inkscape:window-width="1366"
     inkscape:window-height="705"
     inkscape:window-x="-8"
     inkscape:window-y="-8"
     inkscape:window-maximized="1" />
  <metadata
     id="metadata5075">
    <rdf:RDF>
      <cc:Work
         rdf:about="">
        <dc:format>image/svg+xml</dc:format>
        <dc:type
           rdf:resource="http://purl.org/dc/dcmitype/StillImage" />
        <dc:title></dc:title>
      </cc:Work>
    </rdf:RDF>
  </metadata>
  <g
     inkscape:label="Livello 1"
     inkscape:groupmode="layer"
     id="layer1"
     transform="translate(0,-52.362183)">
    <rect
       y="52.362183"
       x="0"
       height="1000"
       width="3350"
       id="rect5049"
       style="fill:#ffffff;fill-opacity:1;stroke:none" />
    <rect
       style="fill:none;stroke:#000000;stroke-width:32.625;stroke-miterlimit:4;stroke-opacity:1;stroke-dasharray:none"
       id="rect5051"
       width="3284.75"
       height="934.75"
       x="32.625"
       y="84.987175"
       rx="114.65231"
       ry="114.65231" />
    <g
       style="font-size:485.00805664px;font-style:normal;font-weight:normal;line-height:125%;letter-spacing:0px;word-spacing:0px;fill:#000000;fill-opacity:1;stroke:none;font-family:Sans"
       id="text5045"
       transform="translate(21.191222,-2.0276896)">
      <path
         d="m 460.38982,383.9163 280.82452,0 0,72.25981 -100.88547,0 0,270.64124 -79.54203,0 0,-270.64124 -100.39702,0 z"
         style="font-variant:normal;font-stretch:normal;text-align:center;text-anchor:middle;fill:#000000;fill-opacity:1;font-family:CodiceNero;-inkscape-font-specification:CodiceNero"
         id="path5054"
         inkscape:connector-curvature="0" />
      <path
         d="m 866.6403,383.9163 99.90858,0 111.55722,342.90105 -82.45792,0 -17.4507,-51.41961 -123.67942,0 -18.42758,51.41961 -80.03048,0 z m 50.44273,96.03065 -0.97688,0 -37.34361,119.31305 0.97689,-0.48845 73.71033,0.48845 z"
         style="font-variant:normal;font-stretch:normal;text-align:center;text-anchor:middle;fill:#000000;fill-opacity:1;font-family:CodiceNero;-inkscape-font-specification:CodiceNero"
         id="path5056"
         inkscape:connector-curvature="0" />
      <path
         d="m 1308.3398,383.9163 c 24.5699,3.6e-4 47.0431,8.57029 67.4198,25.70981 23.6028,20.04124 35.4043,46.39241 35.4047,79.05359 -4e-4,29.09952 -10.1886,53.34892 -30.5647,72.74825 -8.0817,7.75604 -20.8503,16.16315 -38.3057,25.22136 l 83.42,140.16804 -85.3589,0 -79.5421,-132.41217 -40.2594,0 0,132.41217 -78.0915,0 0,-342.90105 z m -87.2979,67.89343 0,71.78617 73.7104,0 c 7.1142,2.2e-4 14.1473,-3.79877 21.0992,-11.39698 6.9514,-7.59775 10.4272,-15.43748 10.4275,-23.51922 -3e-4,-8.40686 -2.9062,-16.49328 -8.718,-24.25929 -6.7989,-8.40683 -14.7225,-12.61039 -23.7708,-12.61068 z"
         style="font-variant:normal;font-stretch:normal;text-align:center;text-anchor:middle;fill:#000000;fill-opacity:1;font-family:CodiceNero;-inkscape-font-specification:CodiceNero"
         id="path5058"
         inkscape:connector-curvature="0" />
      <path
         d="m 1575.2068,383.9163 99.9086,0 111.5571,342.90105 -82.4579,0 -17.4506,-51.41961 -123.6795,0 -18.4276,51.41961 -80.0304,0 z m 50.4427,96.03065 -0.9769,0 -37.3436,119.31305 0.9769,-0.48845 73.7103,0.48845 z"
         style="font-variant:normal;font-stretch:normal;text-align:center;text-anchor:middle;fill:#000000;fill-opacity:1;font-family:CodiceNero;-inkscape-font-specification:CodiceNero"
         id="path5060"
         inkscape:connector-curvature="0" />
      <path
         d="m 2076.5554,726.81735 -150.825,-213.40473 0,213.89317 -82.9463,0 0,-343.38949 89.7253,0 153.2672,221.1606 -0.9769,-221.64904 79.542,0 0,343.38949 z"
         style="font-variant:normal;font-stretch:normal;text-align:center;text-anchor:middle;fill:#000000;fill-opacity:1;font-family:CodiceNero;-inkscape-font-specification:CodiceNero"
         id="path5062"
         inkscape:connector-curvature="0" />
      <path
         d="m 2206.2293,383.9163 280.8245,0 0,72.25981 -100.8854,0 0,270.64124 -79.5421,0 0,-270.64124 -100.397,0 z"
         style="font-variant:normal;font-stretch:normal;text-align:center;text-anchor:middle;fill:#000000;fill-opacity:1;font-family:CodiceNero;-inkscape-font-specification:CodiceNero"
         id="path5064"
         inkscape:connector-curvature="0" />
      <path
         d="m 2676.9838,377.12252 c 38.7988,3.6e-4 73.3943,10.83488 103.7865,32.50359 44.3048,31.35926 66.4573,80.34155 66.4577,146.94702 -4e-4,54.3208 -18.1072,97.97464 -54.3207,130.96165 -32.9873,29.41509 -72.112,44.1226 -117.374,44.12259 -45.9137,10e-6 -84.5549,-14.87032 -115.9236,-44.61103 -34.5955,-32.97715 -51.8933,-77.76081 -51.8933,-134.35114 0,-45.58768 13.0942,-84.71234 39.2826,-117.37408 31.0431,-38.79872 74.3713,-58.19824 129.9848,-58.1986 z m -81.481,178.00008 c -1e-4,31.68475 7.5979,56.25977 22.7939,73.72514 14.5545,16.16309 33.954,24.24457 58.1986,24.24448 25.2212,9e-5 45.1881,-8.89053 59.9008,-26.67189 14.7122,-17.78113 22.0684,-42.03052 22.0687,-72.74825 -3e-4,-28.78332 -6.6263,-52.5492 -19.8781,-71.29772 -14.8805,-20.6919 -35.2519,-31.03798 -61.1145,-31.03827 -54.6464,2.9e-4 -81.9695,34.59576 -81.9694,103.78651 z"
         style="font-variant:normal;font-stretch:normal;text-align:center;text-anchor:middle;fill:#000000;fill-opacity:1;font-family:CodiceNero;-inkscape-font-specification:CodiceNero"
         id="path5066"
         inkscape:connector-curvature="0" />
    </g>
  </g>
</svg>
