<?xml version="1.0" encoding="UTF-8" standalone="no"?>
<!-- Created with Inkscape (http://www.inkscape.org/) -->

<svg
   xmlns:dc="http://purl.org/dc/elements/1.1/"
   xmlns:cc="http://creativecommons.org/ns#"
   xmlns:rdf="http://www.w3.org/1999/02/22-rdf-syntax-ns#"
   xmlns:svg="http://www.w3.org/2000/svg"
   xmlns="http://www.w3.org/2000/svg"
   xmlns:sodipodi="http://sodipodi.sourceforge.net/DTD/sodipodi-0.dtd"
   xmlns:inkscape="http://www.inkscape.org/namespaces/inkscape"
   width="900"
   height="1350"
   id="svg2"
   version="1.1"
   inkscape:version="0.48.5 r10040"
   sodipodi:docname="CANC giustoo.svg">
  <defs
     id="defs4" />
  <sodipodi:namedview
     id="base"
     pagecolor="#ffffff"
     bordercolor="#666666"
     borderopacity="1.0"
     inkscape:pageopacity="0.0"
     inkscape:pageshadow="2"
     inkscape:zoom="0.175"
     inkscape:cx="-109.17757"
     inkscape:cy="297.89924"
     inkscape:document-units="px"
     inkscape:current-layer="g1439"
     showgrid="false"
     inkscape:object-nodes="true"
     inkscape:object-paths="true"
     inkscape:snap-object-midpoints="true"
     inkscape:snap-global="true"
     inkscape:snap-midpoints="true"
     fit-margin-top="0"
     fit-margin-left="0"
     fit-margin-right="0"
     fit-margin-bottom="0"
     inkscape:window-width="1366"
     inkscape:window-height="705"
     inkscape:window-x="-8"
     inkscape:window-y="-8"
     inkscape:window-maximized="1" />
  <metadata
     id="metadata7">
    <rdf:RDF>
      <cc:Work
         rdf:about="">
        <dc:format>image/svg+xml</dc:format>
        <dc:type
           rdf:resource="http://purl.org/dc/dcmitype/StillImage" />
        <dc:title></dc:title>
      </cc:Work>
    </rdf:RDF>
  </metadata>
  <g
     inkscape:label="Livello 1"
     inkscape:groupmode="layer"
     id="layer1"
     transform="translate(0,297.625)">
    <rect
       style="fill:#ffffff;fill-opacity:1;fill-rule:evenodd;stroke:#000000;stroke-width:1px;stroke-linecap:butt;stroke-linejoin:miter;stroke-opacity:1"
       id="rect2985"
       width="899"
       height="1349"
       x="0.5"
       y="-297.13782" />
    <g
       id="g1439"
       transform="matrix(3.7669712,0,0,3.7669712,-2114.8509,-3792.5089)">
      <path
         inkscape:connector-curvature="0"
         sodipodi:nodetypes="cssssssccsssscccccssscccccccsccccccccccccccccccccccccccccccccccccccccccccccssccccccccccccccssccccccccccccccccsscccccsccccccccccccccccccccsccccccsssssc"
         d="m 710.04274,1264.7067 c -2.25156,-0.5862 -5.15596,-2.2341 -6.5707,-3.7279 -4.68584,-4.9478 -4.28717,-13.8597 0.82065,-18.3444 2.65455,-2.3307 4.78091,-3.1002 8.6428,-3.1268 2.89301,0 3.74618,0.1877 5.99906,1.4441 6.23616,3.4828 8.40895,11.1627 4.95408,17.5104 -2.07061,3.8046 -5.37379,5.9017 -10.04588,6.3787 -1.29811,0.1325 -3.00807,0.072 -3.79996,-0.1325 z m 6.28695,-8.8833 c 1.33773,-1.3376 1.63174,-1.995 1.63174,-3.6473 0,-2.748 -2.40425,-5.279 -5.01502,-5.279 -3.47684,0 -5.77903,2.2324 -5.68606,5.5138 0.085,2.9963 2.31002,4.9974 5.5899,5.0272 1.47386,0 2.17788,-0.3146 3.47944,-1.6147 z m -94.81953,7.3663 c 0.28981,-0.541 0.6526,-2.4847 0.80635,-4.319 l 0.27988,-3.3349 1.79873,0 c 0.99714,0 1.90063,0.2651 2.02738,0.5995 0.33122,0.8689 -0.41126,5.8196 -1.05294,7.0179 -0.41733,0.7801 -0.99929,1.0213 -2.46624,1.0213 -1.78687,0 -1.8832,-0.067 -1.39289,-0.9848 z m 6.77394,-0.4471 c 0.27382,-0.7856 0.42452,-2.7298 0.3351,-4.3202 l -0.16286,-2.891 2.11009,6e-4 2.11013,0 -0.2981,3.5284 c -0.40906,4.8403 -0.55418,5.1097 -2.74844,5.1097 -1.83673,0 -1.84157,0 -1.34525,-1.4287 l 0,0 z m 6.17087,-3.1301 0,-4.5592 2.1597,0 2.15965,0 0,4.5592 0,4.5593 -2.15965,0 -2.1597,0 0,-4.5593 z m 6.23903,0 0,-4.5592 1.91969,0 1.91967,0 0,4.5592 0,4.5593 -1.91967,0 -1.91969,0 0,-4.5593 z m 6.23899,0 0,-4.5592 1.91973,0 1.91969,0 0,4.5592 0,4.5593 -1.91969,0 -1.91973,0 0,-4.5593 z m 6.55188,3.856 c -0.14851,-0.3865 -0.41735,-2.3301 -0.59748,-4.3191 l -0.3279,-3.6163 2.10588,-6e-4 2.10582,-5e-4 -0.16064,2.5751 c -0.0883,1.4161 0.0563,3.3597 0.32129,4.3197 l 0.48192,1.7455 -1.82971,0 c -1.16405,0 -1.92774,-0.2539 -2.09941,-0.7032 l 0,-6e-4 z m 6.14164,-0.9611 c -0.38255,-0.9153 -0.69538,-2.859 -0.69538,-4.319 l 0,-2.6553 1.85006,0 1.85007,0 0.27989,3.3347 c 0.154,1.8345 0.51668,3.7781 0.80639,4.3197 0.49131,0.9175 0.39415,0.9843 -1.43427,0.9843 -1.78417,0 -2.02385,-0.1491 -2.65648,-1.6644 z m 5.91637,-10.6939 -0.13304,-7.0787 -17.87713,-0.127 -17.87713,-0.1268 0.0112,-8.9926 0.0112,-8.9926 8.77231,-13.4381 8.77229,-13.438 15.45158,-0.1271 15.45146,-0.1269 0,23.0434 0,23.0428 10.31831,0 c 5.67513,0 10.31604,0.056 10.31322,0.1213 -0.002,0.067 -0.3268,1.1803 -0.71989,2.4759 -0.40133,1.3232 -0.71471,4.2159 -0.71471,6.5989 l 0,4.243 -15.82458,0 -15.82464,0 -0.13304,-7.0788 z m 8.63376,-36.4743 -0.12864,-11.878 -12.31864,-0.1269 -12.3187,-0.127 -6.83092,10.9264 c -3.75706,6.0093 -7.14707,11.4121 -7.53338,12.006 l -0.70235,1.0798 19.98037,0 19.98043,0 -0.12862,-11.878 z m 53.78547,40.9463 c 0.1507,-2.4184 -0.41954,-7.2167 -1.1592,-9.7512 -0.31412,-1.0769 -0.30031,-1.0797 5.38001,-1.0763 3.13232,0 7.15282,0.1434 8.93462,0.3091 l 3.2395,0.3036 -0.011,2.6901 -0.011,2.6899 -7.1504,3.7197 c -3.93262,2.0452 -7.65379,3.7196 -8.26925,3.7201 -1.05482,0 -1.10969,-0.149 -0.9565,-2.6078 l 5e-5,0 z m -105.50572,-6.5118 0,-3.3596 20.1568,0 20.15675,0 0,3.3596 0,3.3597 -20.15675,0 -20.1568,0 0,-3.3597 z m 58.55065,-28.0756 0,-22.3163 31.91486,0 31.91494,0 0,22.3163 0,22.3162 -9.7482,0 -9.74823,0 -1.0446,-1.4125 c -2.61304,-3.5341 -9.04269,-6.1882 -13.47946,-5.5634 -3.23825,0.4582 -6.87248,2.377 -9.1305,4.8264 l -1.98168,2.1495 -9.34855,0 -9.34862,0 0,-22.3162 z m -26.39566,-24.2424 c 0,-1.3244 2.028,-7.5804 2.79835,-8.6327 1.42948,-1.9514 3.92266,-3.0759 5.96881,-2.6916 2.98599,0.5597 4.40349,2.1976 5.81188,6.7148 0.69213,2.2198 1.25841,4.275 1.25841,4.5659 0,0.3644 -2.46388,0.5299 -7.91871,0.5299 -5.02523,0 -7.91874,-0.1766 -7.91874,-0.4857 z"
         style="fill:#000000;fill-opacity:1"
         id="path4069" />
      <circle
         sodipodi:ry="79.63958"
         sodipodi:rx="79.63958"
         sodipodi:cy="1163.4292"
         sodipodi:cx="425.63202"
         style="fill:#000000;stroke-width:11.76229954;stroke-linejoin:bevel"
         id="path1239"
         cx="425.63202"
         cy="1163.4292"
         r="79.63958"
         d="m 505.2716,1163.4292 c 0,43.9837 -35.65586,79.6396 -79.63958,79.6396 -43.98373,0 -79.63958,-35.6559 -79.63958,-79.6396 0,-43.9837 35.65585,-79.6396 79.63958,-79.6396 43.98372,0 79.63958,35.6559 79.63958,79.6396 z"
         transform="translate(255.2468,-133.4548)" />
      <circle
         sodipodi:ry="79.375"
         sodipodi:rx="79.375"
         sodipodi:cy="1163.4292"
         sodipodi:cx="425.63196"
         style="fill:#ffffff;stroke-width:18.9204998;stroke-linejoin:bevel;stroke-opacity:0.643077"
         id="path2877-8"
         cx="425.63196"
         cy="1163.4292"
         r="79.375"
         d="m 505.00696,1163.4292 c 0,43.8376 -35.5374,79.375 -79.375,79.375 -43.8376,0 -79.375,-35.5374 -79.375,-79.375 0,-43.8376 35.5374,-79.375 79.375,-79.375 43.8376,0 79.375,35.5374 79.375,79.375 z"
         transform="matrix(0.99998883,0,0,0.99998883,255.25162,-133.4418)" />
      <circle
         sodipodi:ry="76.729164"
         sodipodi:rx="76.729164"
         sodipodi:cy="1163.4292"
         sodipodi:cx="425.63202"
         style="fill:#d40000;stroke-width:18.28980064;stroke-linejoin:bevel;stroke-opacity:0.643077"
         id="path2877-8-4"
         cx="425.63202"
         cy="1163.4292"
         r="76.729164"
         d="m 502.36118,1163.4292 c 0,42.3763 -34.35281,76.7292 -76.72916,76.7292 -42.37635,0 -76.72917,-34.3529 -76.72917,-76.7292 0,-42.3763 34.35282,-76.7292 76.72917,-76.7292 42.37635,0 76.72916,34.3529 76.72916,76.7292 z"
         transform="translate(255.2468,-133.4548)" />
      <circle
         sodipodi:ry="56.885418"
         sodipodi:rx="56.885418"
         sodipodi:cy="1163.4292"
         sodipodi:cx="425.63205"
         style="fill:#ffffff;stroke-width:10.81709957;stroke-linejoin:bevel"
         id="path2447-7"
         cx="425.63205"
         cy="1163.4292"
         r="56.885418"
         d="m 482.51747,1163.4292 c 0,31.4169 -25.46847,56.8854 -56.88542,56.8854 -31.41695,0 -56.88542,-25.4685 -56.88542,-56.8854 0,-31.4169 25.46847,-56.8854 56.88542,-56.8854 31.41695,0 56.88542,25.4685 56.88542,56.8854 z"
         transform="translate(255.2468,-133.4548)" />
      <circle
         sodipodi:ry="52.916668"
         sodipodi:rx="52.916668"
         sodipodi:cy="1163.4292"
         sodipodi:cx="425.63205"
         style="fill:#00408b;stroke-width:12.90939999;stroke-linejoin:bevel"
         id="path2609-5"
         cx="425.63205"
         cy="1163.4292"
         r="52.916668"
         d="m 478.54872,1163.4292 c 0,29.2251 -23.6916,52.9167 -52.91667,52.9167 -29.22507,0 -52.91667,-23.6916 -52.91667,-52.9167 0,-29.2251 23.6916,-52.9167 52.91667,-52.9167 29.22507,0 52.91667,23.6916 52.91667,52.9167 z"
         transform="translate(255.2468,-133.4548)" />
      <g
         id="g1134"
         transform="matrix(0.70710653,0.70710703,-0.70710703,0.70710653,1348.1895,2.3539905)">
        <g
           id="g1129">
          <path
             inkscape:connector-curvature="0"
             style="color:#000000;fill:#ffffff;stroke-linejoin:bevel"
             d="m 201.86121,1188.9063 v 19.1816 h 105.83333 v -19.1816 z"
             id="path2769-1-9-8"
             sodipodi:nodetypes="ccccc" />
          <path
             inkscape:connector-curvature="0"
             style="color:#000000;fill:#d40000;stroke-linejoin:bevel"
             d="m 197.36323,1192.875 1.2e-4,11.2441 h 114.82911 v -11.2441 z"
             id="path1119"
             sodipodi:nodetypes="ccccc" />
        </g>
      </g>
      <g
         style="font-size:33.88836288px;font-style:normal;font-weight:normal;line-height:125%;letter-spacing:0px;word-spacing:0px;fill:#000000;fill-opacity:1;stroke:none;font-family:Sans"
         id="text3997">
        <path
           d="m 604.6044,1114.6976 5.38916,0 0,18.842 10.50531,0 0,5.0499 -15.89447,0 z"
           style="font-variant:normal;font-stretch:normal;text-align:center;letter-spacing:-0.79639578px;text-anchor:middle;fill:#000000;font-family:CodiceNero;-inkscape-font-specification:CodiceNero"
           id="path4028" />
        <path
           d="m 628.87368,1121.3744 0,9.861 c -1e-5,0.6329 0.25992,1.1922 0.77978,1.678 0.51984,0.4857 1.1638,0.7285 1.93187,0.7285 0.85837,0 1.5361,-0.2937 2.03322,-0.8811 0.40677,-0.4743 0.61016,-0.9828 0.61017,-1.5254 l 0,-9.861 5.55774,0 0,17.2492 -4.60939,0 c -0.0221,-0.023 -0.0727,-0.1132 -0.15202,-0.2714 -0.0793,-0.1583 -0.19789,-0.3842 -0.35576,-0.678 -0.49712,0.2938 -1.0056,0.5875 -1.52544,0.8812 -0.79082,0.3392 -1.78467,0.5088 -2.98157,0.5088 -1.92084,0 -3.54193,-0.6271 -4.86328,-1.8812 -1.32135,-1.2541 -1.98203,-2.7847 -1.98203,-4.5918 l 0,-11.2168 z"
           style="font-variant:normal;font-stretch:normal;text-align:center;letter-spacing:-0.79639578px;text-anchor:middle;fill:#000000;font-family:CodiceNero;-inkscape-font-specification:CodiceNero"
           id="path4030" />
        <path
           d="m 653.9879,1138.5895 0,-9.5569 c -10e-6,-0.8357 -0.23167,-1.536 -0.69498,-2.101 -0.46333,-0.565 -1.12417,-0.8475 -1.98254,-0.8475 -0.94871,0 -1.66023,0.3278 -2.13457,0.9835 -0.33922,0.4971 -0.50883,1.0731 -0.50882,1.7281 l 0,9.7938 -5.42226,0 0,-17.182 4.77899,0 0.27096,1.0507 c 1.19689,-0.9487 2.76679,-1.423 4.7097,-1.423 2.21454,0 3.92026,0.8584 5.11718,2.5751 0.88111,1.2652 1.32168,2.5417 1.3217,3.8296 l 0,11.1496 z"
           style="font-variant:normal;font-stretch:normal;text-align:center;letter-spacing:-0.79639578px;text-anchor:middle;fill:#000000;font-family:CodiceNero;-inkscape-font-specification:CodiceNero"
           id="path4032" />
        <path
           d="m 684.37125,1125.6435 0,4.6094 -8.30248,0 0,-4.6094 z"
           style="font-variant:normal;font-stretch:normal;text-align:center;letter-spacing:-0.79639578px;text-anchor:middle;fill:#000000;font-family:CodiceNero;-inkscape-font-specification:CodiceNero"
           id="path4034" />
        <path
           d="m 705.48722,1114.6304 -5.96418,0 6.81118,23.9591 7.32001,0 6.81118,-23.9591 -5.96418,0 -4.50701,15.758 z"
           style="font-variant:normal;font-stretch:normal;text-align:center;letter-spacing:-0.79639578px;text-anchor:middle;fill:#000000;font-family:CodiceNero;-inkscape-font-specification:CodiceNero"
           id="path4036" />
        <path
           d="m 730.67901,1121.001 c 2.16903,0 4.05539,0.7681 5.65909,2.3042 1.80775,1.7175 2.71163,3.9768 2.71165,6.7781 -2e-5,0.3613 -0.0566,0.9373 -0.16961,1.7281 l -11.31922,0 c 0.51985,1.6044 1.67228,2.3838 3.4573,2.3383 1.40028,-0.045 2.77817,-0.587 4.13366,-1.6268 l 3.62691,3.5587 c -2.80198,1.9429 -5.41159,2.9143 -7.82882,2.9143 -2.28144,0 -4.26949,-0.7115 -5.96418,-2.1345 -1.85259,-1.5816 -2.81266,-3.6714 -2.88022,-6.2693 0,-0.3392 0,-0.859 0,-1.5595 0.0221,-1.7168 0.66567,-3.3774 1.93083,-4.9817 1.62712,-2.0332 3.84132,-3.0499 6.64261,-3.0499 z m -3.04983,6.7099 5.93005,0 c -0.13515,-0.6323 -0.47385,-1.1687 -1.01609,-1.6092 -0.54228,-0.4406 -1.1864,-0.6723 -1.93239,-0.695 -0.76807,-0.023 -1.43443,0.2258 -1.99909,0.7456 -0.47436,0.4296 -0.80185,0.9491 -0.98248,1.5586 z"
           style="font-variant:normal;font-stretch:normal;text-align:center;letter-spacing:-0.79639578px;text-anchor:middle;fill:#000000;font-family:CodiceNero;-inkscape-font-specification:CodiceNero"
           id="path4038" />
        <path
           d="m 752.46314,1138.5895 0,-9.5569 c -2e-5,-0.8357 -0.23168,-1.536 -0.69498,-2.101 -0.46333,-0.565 -1.12418,-0.8475 -1.98254,-0.8475 -0.94871,0 -1.66023,0.3278 -2.13457,0.9835 -0.33923,0.4971 -0.50883,1.0731 -0.50883,1.7281 l 0,9.7938 -5.42226,0 0,-17.182 4.779,0 0.27095,1.0507 c 1.1969,-0.9487 2.7668,-1.423 4.70971,-1.423 2.21453,0 3.92026,0.8584 5.11718,2.5751 0.88111,1.2652 1.32167,2.5417 1.32169,3.8296 l 0,11.1496 z"
           style="font-variant:normal;font-stretch:normal;text-align:center;letter-spacing:-0.79639578px;text-anchor:middle;fill:#000000;font-family:CodiceNero;-inkscape-font-specification:CodiceNero"
           id="path4040" />
      </g>
      <g
         style="font-size:33.88836288px;font-style:normal;font-weight:normal;line-height:125%;letter-spacing:0px;word-spacing:0px;fill:#000000;fill-opacity:1;stroke:none;font-family:Sans"
         id="text4001"
         transform="translate(0,-3.3846269)">
        <path
           d="m 615.76463,1175.485 5.42226,0 0,5.0148 -11.92836,0 0,-3.9982 c 1.19759,-1.9208 2.90332,-4.8128 5.11718,-8.6758 1.03901,-1.9429 1.58127,-3.479 1.62678,-4.6084 0.0448,-1.13 -0.30544,-1.695 -1.05074,-1.695 -0.13583,0 -0.28268,0.023 -0.44056,0.068 -0.47436,0.1352 -0.80185,0.5982 -0.98248,1.389 -0.13583,0.5646 -0.18099,1.028 -0.13548,1.3899 l -4.74487,0 c 0,-2.6206 0.71187,-4.6428 2.1356,-6.0666 1.28722,-1.3099 2.90228,-1.9087 4.84519,-1.7963 1.8305,0.1131 3.29905,0.8249 4.40565,2.1356 1.03969,1.1976 1.52542,2.5644 1.45717,4.1005 -0.0448,1.31 -0.44023,2.7896 -1.18621,4.4388 -0.42886,0.9494 -1.20243,2.3559 -2.32073,4.2195 -1.11831,1.8636 -1.85845,3.2249 -2.2204,4.084 z"
           style="font-variant:normal;font-stretch:normal;text-align:start;text-anchor:start;fill:#000000;font-family:CodiceNeroCondensed;-inkscape-font-specification:CodiceNeroCondensed"
           id="path4043"
           inkscape:connector-curvature="0" />
        <path
           d="m 632.2941,1156.8799 0,23.654 -5.52362,0 0,-15.1147 -2.60926,0 0,-4.0664 c 2.16835,-0.1579 3.25253,-1.6488 3.25253,-4.4729 z"
           style="font-variant:normal;font-stretch:normal;text-align:start;text-anchor:start;fill:#000000;font-family:CodiceNeroCondensed;-inkscape-font-specification:CodiceNeroCondensed"
           id="path4045"
           inkscape:connector-curvature="0" />
        <path
           d="m 639.20559,1175.9256 c 1.06177,0 1.87499,0.3275 2.43966,0.9824 0.56466,0.655 0.84699,1.491 0.847,2.508 -10e-6,0.9714 -0.39541,1.8525 -1.18621,2.6433 -0.9032,0.8584 -2.03288,1.2876 -3.38905,1.2876 -0.29371,0 -0.48572,-0.056 -0.57604,-0.1696 -0.18064,-0.1806 -0.31612,-0.5988 -0.40644,-1.2545 -0.0228,-0.2027 0.27665,-0.3831 0.8982,-0.5414 0.62154,-0.1582 0.93232,-0.3052 0.93232,-0.441 0,-0.068 -0.0452,-0.1466 -0.13548,-0.2369 -0.61018,0 -1.13554,-0.2316 -1.57611,-0.695 -0.44056,-0.4633 -0.66085,-0.9997 -0.66084,-1.6092 -10e-6,-0.7232 0.25406,-1.3163 0.76219,-1.7793 0.50813,-0.4629 1.19173,-0.6944 2.0508,-0.6944 z"
           style="font-variant:normal;font-stretch:normal;text-align:start;text-anchor:start;fill:#000000;font-family:CodiceNeroCondensed;-inkscape-font-specification:CodiceNeroCondensed"
           id="path4047"
           inkscape:connector-curvature="0" />
      </g>
      <g
         style="font-size:24.44107246px;font-style:normal;font-weight:normal;line-height:125%;letter-spacing:0px;word-spacing:0px;fill:#000000;fill-opacity:1;stroke:none;font-family:Sans"
         id="text4005"
         transform="translate(0,-3.3846269)">
        <path
           d="m 648.98401,1163.2185 c 1.69464,0 3.03896,0.9858 4.03299,2.9574 0.84731,1.6942 1.27097,3.6412 1.27098,5.841 -10e-6,2.2322 -0.3911,4.1956 -1.17327,5.8902 -0.97762,2.0855 -2.34631,3.1283 -4.10609,3.1283 -1.7757,0 -3.16055,-1.0428 -4.15456,-3.1283 -0.79859,-1.7105 -1.19789,-3.6739 -1.19789,-5.8902 0,-2.1183 0.38289,-4.0001 1.14866,-5.6456 0.9776,-2.1019 2.37066,-3.1528 4.17918,-3.1528 z m -1.27024,8.7984 c 0,3.4216 0.43161,5.1324 1.29485,5.1324 0.19542,0 0.35852,-0.098 0.4893,-0.2931 0.47239,-0.6678 0.70858,-2.2809 0.70859,-4.8393 -10e-6,-1.0427 -0.0572,-2.0042 -0.17155,-2.8843 -0.21184,-1.5151 -0.56215,-2.2727 -1.05095,-2.2727 -0.84683,0 -1.27024,1.719 -1.27024,5.157 z"
           style="font-variant:normal;font-stretch:normal;text-align:start;text-anchor:start;fill:#000000;font-family:CodiceNeroCondensed;-inkscape-font-specification:CodiceNeroCondensed"
           id="path4050"
           inkscape:connector-curvature="0" />
        <path
           d="m 661.72965,1163.2185 c 1.69463,0 3.03896,0.9858 4.03298,2.9574 0.84731,1.6942 1.27097,3.6412 1.27099,5.841 -2e-5,2.2322 -0.39111,4.1956 -1.17328,5.8902 -0.97761,2.0855 -2.3463,3.1283 -4.10608,3.1283 -1.7757,0 -3.16055,-1.0428 -4.15456,-3.1283 -0.7986,-1.7105 -1.19789,-3.6739 -1.19789,-5.8902 0,-2.1183 0.38288,-4.0001 1.14866,-5.6456 0.9776,-2.1019 2.37066,-3.1528 4.17918,-3.1528 z m -1.27024,8.7984 c -1e-5,3.4216 0.43161,5.1324 1.29485,5.1324 0.19542,0 0.35852,-0.098 0.4893,-0.2931 0.47239,-0.6678 0.70858,-2.2809 0.70859,-4.8393 -10e-6,-1.0427 -0.0572,-2.0042 -0.17155,-2.8843 -0.21184,-1.5151 -0.56216,-2.2727 -1.05095,-2.2727 -0.84683,0 -1.27025,1.719 -1.27024,5.157 z"
           style="font-variant:normal;font-stretch:normal;text-align:start;text-anchor:start;fill:#000000;font-family:CodiceNeroCondensed;-inkscape-font-specification:CodiceNeroCondensed"
           id="path4052"
           inkscape:connector-curvature="0" />
      </g>
      <g
         style="font-size:24.44107246px;font-style:normal;font-weight:normal;line-height:125%;letter-spacing:0px;word-spacing:0px;fill:#000000;fill-opacity:1;stroke:none;font-family:Sans"
         id="text4013"
         transform="translate(0,-3.3846269)">
        <path
           d="m 737.46021,1163.2185 c 1.69463,0 3.03896,0.9858 4.03298,2.9574 0.84731,1.6942 1.27097,3.6412 1.27099,5.841 -2e-5,2.2322 -0.39111,4.1956 -1.17328,5.8902 -0.97761,2.0855 -2.3463,3.1283 -4.10608,3.1283 -1.7757,0 -3.16055,-1.0428 -4.15456,-3.1283 -0.7986,-1.7105 -1.19789,-3.6739 -1.19789,-5.8902 0,-2.1183 0.38288,-4.0001 1.14866,-5.6456 0.9776,-2.1019 2.37066,-3.1528 4.17918,-3.1528 z m -1.27024,8.7984 c -10e-6,3.4216 0.43161,5.1324 1.29485,5.1324 0.19542,0 0.35851,-0.098 0.4893,-0.2931 0.47238,-0.6678 0.70858,-2.2809 0.70859,-4.8393 -1e-5,-1.0427 -0.0572,-2.0042 -0.17156,-2.8843 -0.21183,-1.5151 -0.56215,-2.2727 -1.05094,-2.2727 -0.84683,0 -1.27025,1.719 -1.27024,5.157 z"
           style="font-variant:normal;font-stretch:normal;text-align:start;text-anchor:start;fill:#000000;font-family:CodiceNeroCondensed;-inkscape-font-specification:CodiceNeroCondensed"
           id="path4063"
           inkscape:connector-curvature="0" />
        <path
           d="m 750.20584,1163.2185 c 1.69464,0 3.03897,0.9858 4.03299,2.9574 0.84731,1.6942 1.27097,3.6412 1.27098,5.841 -10e-6,2.2322 -0.3911,4.1956 -1.17327,5.8902 -0.97761,2.0855 -2.34631,3.1283 -4.10608,3.1283 -1.7757,0 -3.16056,-1.0428 -4.15457,-3.1283 -0.79859,-1.7105 -1.19788,-3.6739 -1.19788,-5.8902 0,-2.1183 0.38288,-4.0001 1.14865,-5.6456 0.9776,-2.1019 2.37066,-3.1528 4.17918,-3.1528 z m -1.27023,8.7984 c -10e-6,3.4216 0.43161,5.1324 1.29485,5.1324 0.19541,0 0.35851,-0.098 0.4893,-0.2931 0.47238,-0.6678 0.70858,-2.2809 0.70858,-4.8393 0,-1.0427 -0.0572,-2.0042 -0.17155,-2.8843 -0.21184,-1.5151 -0.56215,-2.2727 -1.05095,-2.2727 -0.84683,0 -1.27024,1.719 -1.27023,5.157 z"
           style="font-variant:normal;font-stretch:normal;text-align:start;text-anchor:start;fill:#000000;font-family:CodiceNeroCondensed;-inkscape-font-specification:CodiceNeroCondensed"
           id="path4065"
           inkscape:connector-curvature="0" />
      </g>
      <g
         style="font-size:33.88836288px;font-style:normal;font-weight:normal;line-height:125%;letter-spacing:0px;word-spacing:0px;fill:#000000;fill-opacity:1;stroke:none;font-family:Sans"
         id="text4017"
         transform="translate(0,-3.3846269)">
        <path
           d="m 713.59605,1156.8116 5.99831,0 0,14.911 1.72813,0 0,4.8804 -1.62575,0 0,3.9309 -5.35504,0 0,-3.9309 -7.65818,0 0,-3.1523 z m -1.55852,14.8779 2.23695,0 0,-5.1513 z"
           style="font-variant:normal;font-stretch:normal;text-align:start;text-anchor:start;fill:#000000;font-family:CodiceNeroCondensed;-inkscape-font-specification:CodiceNeroCondensed"
           id="path4058"
           inkscape:connector-curvature="0" />
        <path
           d="m 727.68483,1175.9256 c 1.06177,0 1.87498,0.3275 2.43966,0.9824 0.56466,0.655 0.84699,1.491 0.847,2.508 -10e-6,0.9714 -0.39541,1.8525 -1.18622,2.6433 -0.90319,0.8584 -2.03287,1.2876 -3.38904,1.2876 -0.29371,0 -0.48573,-0.056 -0.57604,-0.1696 -0.18064,-0.1806 -0.31612,-0.5988 -0.40644,-1.2545 -0.0228,-0.2027 0.27664,-0.3831 0.8982,-0.5414 0.62154,-0.1582 0.93231,-0.3052 0.93232,-0.441 -10e-6,-0.068 -0.0452,-0.1466 -0.13548,-0.2369 -0.61018,0 -1.13555,-0.2316 -1.57611,-0.695 -0.44057,-0.4633 -0.66085,-0.9997 -0.66085,-1.6092 0,-0.7232 0.25407,-1.3163 0.7622,-1.7793 0.50813,-0.4629 1.19173,-0.6944 2.0508,-0.6944 z"
           style="font-variant:normal;font-stretch:normal;text-align:start;text-anchor:start;fill:#000000;font-family:CodiceNeroCondensed;-inkscape-font-specification:CodiceNeroCondensed"
           id="path4060"
           inkscape:connector-curvature="0" />
      </g>
      <g
         style="font-size:33.88836288px;font-style:normal;font-weight:normal;line-height:125%;letter-spacing:0px;word-spacing:0px;fill:#000000;fill-opacity:1;stroke:none;font-family:Sans"
         id="text4021"
         transform="translate(0,-3.3846269)">
        <path
           d="m 683.96735,1167.7575 0,4.6094 -8.30249,0 0,-4.6094 z"
           style="font-variant:normal;font-stretch:normal;text-align:start;text-anchor:start;fill:#000000;font-family:CodiceNeroCondensed;-inkscape-font-specification:CodiceNeroCondensed"
           id="path4055"
           inkscape:connector-curvature="0" />
      </g>
    </g>
    <rect
       style="fill:none;stroke:#000000;stroke-width:15.99999905000000000;stroke-miterlimit:4;stroke-opacity:1;stroke-dasharray:none"
       id="rect3755"
       width="868"
       height="1318"
       x="16"
       y="-281.63782"
       rx="61.999996"
       ry="61.999996" />
  </g>
</svg>
