<?xml version="1.0" encoding="UTF-8" standalone="no"?>
<!-- Created with Inkscape (http://www.inkscape.org/) -->

<svg
   xmlns:dc="http://purl.org/dc/elements/1.1/"
   xmlns:cc="http://creativecommons.org/ns#"
   xmlns:rdf="http://www.w3.org/1999/02/22-rdf-syntax-ns#"
   xmlns:svg="http://www.w3.org/2000/svg"
   xmlns="http://www.w3.org/2000/svg"
   xmlns:sodipodi="http://sodipodi.sourceforge.net/DTD/sodipodi-0.dtd"
   xmlns:inkscape="http://www.inkscape.org/namespaces/inkscape"
   version="1.1"
   width="200"
   height="200"
   id="svg2"
   inkscape:version="0.47 r22583"
   sodipodi:docname="Italian traffic signs - icona foresta.svg"
   sodipodi:version="0.32"
   inkscape:output_extension="org.inkscape.output.svg.inkscape">
  <metadata
     id="metadata2877">
    <rdf:RDF>
      <cc:Work
         rdf:about="">
        <dc:format>image/svg+xml</dc:format>
        <dc:type
           rdf:resource="http://purl.org/dc/dcmitype/StillImage" />
        <dc:title></dc:title>
      </cc:Work>
    </rdf:RDF>
  </metadata>
  <sodipodi:namedview
     pagecolor="#ffffff"
     bordercolor="#666666"
     borderopacity="1"
     objecttolerance="10"
     gridtolerance="10"
     guidetolerance="10"
     inkscape:pageopacity="0"
     inkscape:pageshadow="2"
     inkscape:window-width="1600"
     inkscape:window-height="838"
     id="namedview2875"
     showgrid="false"
     inkscape:zoom="2.8360295"
     inkscape:cx="130.07525"
     inkscape:cy="112.89416"
     inkscape:window-x="-8"
     inkscape:window-y="-8"
     inkscape:window-maximized="1"
     inkscape:current-layer="svg2" />
  <defs
     id="defs4">
    <inkscape:perspective
       sodipodi:type="inkscape:persp3d"
       inkscape:vp_x="0 : 100 : 1"
       inkscape:vp_y="0 : 1000 : 0"
       inkscape:vp_z="200 : 100 : 1"
       inkscape:persp3d-origin="100 : 66.666667 : 1"
       id="perspective2879" />
    <inkscape:perspective
       id="perspective2839"
       inkscape:persp3d-origin="0.5 : 0.33333333 : 1"
       inkscape:vp_z="1 : 0.5 : 1"
       inkscape:vp_y="0 : 1000 : 0"
       inkscape:vp_x="0 : 0.5 : 1"
       sodipodi:type="inkscape:persp3d" />
    <inkscape:perspective
       id="perspective3649"
       inkscape:persp3d-origin="0.5 : 0.33333333 : 1"
       inkscape:vp_z="1 : 0.5 : 1"
       inkscape:vp_y="0 : 1000 : 0"
       inkscape:vp_x="0 : 0.5 : 1"
       sodipodi:type="inkscape:persp3d" />
    <inkscape:perspective
       id="perspective3679"
       inkscape:persp3d-origin="0.5 : 0.33333333 : 1"
       inkscape:vp_z="1 : 0.5 : 1"
       inkscape:vp_y="0 : 1000 : 0"
       inkscape:vp_x="0 : 0.5 : 1"
       sodipodi:type="inkscape:persp3d" />
    <inkscape:perspective
       id="perspective3713"
       inkscape:persp3d-origin="0.5 : 0.33333333 : 1"
       inkscape:vp_z="1 : 0.5 : 1"
       inkscape:vp_y="0 : 1000 : 0"
       inkscape:vp_x="0 : 0.5 : 1"
       sodipodi:type="inkscape:persp3d" />
    <inkscape:perspective
       id="perspective3741"
       inkscape:persp3d-origin="0.5 : 0.33333333 : 1"
       inkscape:vp_z="1 : 0.5 : 1"
       inkscape:vp_y="0 : 1000 : 0"
       inkscape:vp_x="0 : 0.5 : 1"
       sodipodi:type="inkscape:persp3d" />
    <inkscape:perspective
       id="perspective3765"
       inkscape:persp3d-origin="0.5 : 0.33333333 : 1"
       inkscape:vp_z="1 : 0.5 : 1"
       inkscape:vp_y="0 : 1000 : 0"
       inkscape:vp_x="0 : 0.5 : 1"
       sodipodi:type="inkscape:persp3d" />
    <inkscape:perspective
       id="perspective3801"
       inkscape:persp3d-origin="0.5 : 0.33333333 : 1"
       inkscape:vp_z="1 : 0.5 : 1"
       inkscape:vp_y="0 : 1000 : 0"
       inkscape:vp_x="0 : 0.5 : 1"
       sodipodi:type="inkscape:persp3d" />
    <inkscape:perspective
       id="perspective2863"
       inkscape:persp3d-origin="0.5 : 0.33333333 : 1"
       inkscape:vp_z="1 : 0.5 : 1"
       inkscape:vp_y="0 : 1000 : 0"
       inkscape:vp_x="0 : 0.5 : 1"
       sodipodi:type="inkscape:persp3d" />
    <inkscape:perspective
       id="perspective3859"
       inkscape:persp3d-origin="0.5 : 0.33333333 : 1"
       inkscape:vp_z="1 : 0.5 : 1"
       inkscape:vp_y="0 : 1000 : 0"
       inkscape:vp_x="0 : 0.5 : 1"
       sodipodi:type="inkscape:persp3d" />
    <inkscape:perspective
       id="perspective3964"
       inkscape:persp3d-origin="0.5 : 0.33333333 : 1"
       inkscape:vp_z="1 : 0.5 : 1"
       inkscape:vp_y="0 : 1000 : 0"
       inkscape:vp_x="0 : 0.5 : 1"
       sodipodi:type="inkscape:persp3d" />
    <inkscape:perspective
       id="perspective3988"
       inkscape:persp3d-origin="0.5 : 0.33333333 : 1"
       inkscape:vp_z="1 : 0.5 : 1"
       inkscape:vp_y="0 : 1000 : 0"
       inkscape:vp_x="0 : 0.5 : 1"
       sodipodi:type="inkscape:persp3d" />
    <inkscape:perspective
       id="perspective2879-7"
       inkscape:persp3d-origin="0.5 : 0.33333333 : 1"
       inkscape:vp_z="1 : 0.5 : 1"
       inkscape:vp_y="0 : 1000 : 0"
       inkscape:vp_x="0 : 0.5 : 1"
       sodipodi:type="inkscape:persp3d" />
    <inkscape:perspective
       id="perspective4031"
       inkscape:persp3d-origin="0.5 : 0.33333333 : 1"
       inkscape:vp_z="1 : 0.5 : 1"
       inkscape:vp_y="0 : 1000 : 0"
       inkscape:vp_x="0 : 0.5 : 1"
       sodipodi:type="inkscape:persp3d" />
    <inkscape:perspective
       id="perspective4047"
       inkscape:persp3d-origin="0.5 : 0.33333333 : 1"
       inkscape:vp_z="1 : 0.5 : 1"
       inkscape:vp_y="0 : 1000 : 0"
       inkscape:vp_x="0 : 0.5 : 1"
       sodipodi:type="inkscape:persp3d" />
    <inkscape:perspective
       id="perspective4063"
       inkscape:persp3d-origin="0.5 : 0.33333333 : 1"
       inkscape:vp_z="1 : 0.5 : 1"
       inkscape:vp_y="0 : 1000 : 0"
       inkscape:vp_x="0 : 0.5 : 1"
       sodipodi:type="inkscape:persp3d" />
    <inkscape:perspective
       id="perspective4079"
       inkscape:persp3d-origin="0.5 : 0.33333333 : 1"
       inkscape:vp_z="1 : 0.5 : 1"
       inkscape:vp_y="0 : 1000 : 0"
       inkscape:vp_x="0 : 0.5 : 1"
       sodipodi:type="inkscape:persp3d" />
    <inkscape:perspective
       id="perspective4097"
       inkscape:persp3d-origin="0.5 : 0.33333333 : 1"
       inkscape:vp_z="1 : 0.5 : 1"
       inkscape:vp_y="0 : 1000 : 0"
       inkscape:vp_x="0 : 0.5 : 1"
       sodipodi:type="inkscape:persp3d" />
    <inkscape:perspective
       id="perspective4115"
       inkscape:persp3d-origin="0.5 : 0.33333333 : 1"
       inkscape:vp_z="1 : 0.5 : 1"
       inkscape:vp_y="0 : 1000 : 0"
       inkscape:vp_x="0 : 0.5 : 1"
       sodipodi:type="inkscape:persp3d" />
    <inkscape:perspective
       id="perspective4129"
       inkscape:persp3d-origin="0.5 : 0.33333333 : 1"
       inkscape:vp_z="1 : 0.5 : 1"
       inkscape:vp_y="0 : 1000 : 0"
       inkscape:vp_x="0 : 0.5 : 1"
       sodipodi:type="inkscape:persp3d" />
    <inkscape:perspective
       id="perspective4153"
       inkscape:persp3d-origin="0.5 : 0.33333333 : 1"
       inkscape:vp_z="1 : 0.5 : 1"
       inkscape:vp_y="0 : 1000 : 0"
       inkscape:vp_x="0 : 0.5 : 1"
       sodipodi:type="inkscape:persp3d" />
    <inkscape:perspective
       id="perspective4179"
       inkscape:persp3d-origin="0.5 : 0.33333333 : 1"
       inkscape:vp_z="1 : 0.5 : 1"
       inkscape:vp_y="0 : 1000 : 0"
       inkscape:vp_x="0 : 0.5 : 1"
       sodipodi:type="inkscape:persp3d" />
    <inkscape:perspective
       id="perspective4195"
       inkscape:persp3d-origin="0.5 : 0.33333333 : 1"
       inkscape:vp_z="1 : 0.5 : 1"
       inkscape:vp_y="0 : 1000 : 0"
       inkscape:vp_x="0 : 0.5 : 1"
       sodipodi:type="inkscape:persp3d" />
    <inkscape:perspective
       id="perspective4213"
       inkscape:persp3d-origin="0.5 : 0.33333333 : 1"
       inkscape:vp_z="1 : 0.5 : 1"
       inkscape:vp_y="0 : 1000 : 0"
       inkscape:vp_x="0 : 0.5 : 1"
       sodipodi:type="inkscape:persp3d" />
    <inkscape:perspective
       id="perspective4267"
       inkscape:persp3d-origin="0.5 : 0.33333333 : 1"
       inkscape:vp_z="1 : 0.5 : 1"
       inkscape:vp_y="0 : 1000 : 0"
       inkscape:vp_x="0 : 0.5 : 1"
       sodipodi:type="inkscape:persp3d" />
    <inkscape:perspective
       id="perspective4283"
       inkscape:persp3d-origin="0.5 : 0.33333333 : 1"
       inkscape:vp_z="1 : 0.5 : 1"
       inkscape:vp_y="0 : 1000 : 0"
       inkscape:vp_x="0 : 0.5 : 1"
       sodipodi:type="inkscape:persp3d" />
    <inkscape:perspective
       id="perspective4314"
       inkscape:persp3d-origin="0.5 : 0.33333333 : 1"
       inkscape:vp_z="1 : 0.5 : 1"
       inkscape:vp_y="0 : 1000 : 0"
       inkscape:vp_x="0 : 0.5 : 1"
       sodipodi:type="inkscape:persp3d" />
    <inkscape:perspective
       id="perspective4330"
       inkscape:persp3d-origin="0.5 : 0.33333333 : 1"
       inkscape:vp_z="1 : 0.5 : 1"
       inkscape:vp_y="0 : 1000 : 0"
       inkscape:vp_x="0 : 0.5 : 1"
       sodipodi:type="inkscape:persp3d" />
    <inkscape:perspective
       id="perspective4346"
       inkscape:persp3d-origin="0.5 : 0.33333333 : 1"
       inkscape:vp_z="1 : 0.5 : 1"
       inkscape:vp_y="0 : 1000 : 0"
       inkscape:vp_x="0 : 0.5 : 1"
       sodipodi:type="inkscape:persp3d" />
    <inkscape:perspective
       id="perspective3742"
       inkscape:persp3d-origin="0.5 : 0.33333333 : 1"
       inkscape:vp_z="1 : 0.5 : 1"
       inkscape:vp_y="0 : 1000 : 0"
       inkscape:vp_x="0 : 0.5 : 1"
       sodipodi:type="inkscape:persp3d" />
    <inkscape:perspective
       id="perspective3776"
       inkscape:persp3d-origin="0.5 : 0.33333333 : 1"
       inkscape:vp_z="1 : 0.5 : 1"
       inkscape:vp_y="0 : 1000 : 0"
       inkscape:vp_x="0 : 0.5 : 1"
       sodipodi:type="inkscape:persp3d" />
    <inkscape:perspective
       id="perspective3792"
       inkscape:persp3d-origin="0.5 : 0.33333333 : 1"
       inkscape:vp_z="1 : 0.5 : 1"
       inkscape:vp_y="0 : 1000 : 0"
       inkscape:vp_x="0 : 0.5 : 1"
       sodipodi:type="inkscape:persp3d" />
    <inkscape:perspective
       id="perspective3808"
       inkscape:persp3d-origin="0.5 : 0.33333333 : 1"
       inkscape:vp_z="1 : 0.5 : 1"
       inkscape:vp_y="0 : 1000 : 0"
       inkscape:vp_x="0 : 0.5 : 1"
       sodipodi:type="inkscape:persp3d" />
    <inkscape:perspective
       id="perspective3824"
       inkscape:persp3d-origin="0.5 : 0.33333333 : 1"
       inkscape:vp_z="1 : 0.5 : 1"
       inkscape:vp_y="0 : 1000 : 0"
       inkscape:vp_x="0 : 0.5 : 1"
       sodipodi:type="inkscape:persp3d" />
    <inkscape:perspective
       id="perspective4354"
       inkscape:persp3d-origin="0.5 : 0.33333333 : 1"
       inkscape:vp_z="1 : 0.5 : 1"
       inkscape:vp_y="0 : 1000 : 0"
       inkscape:vp_x="0 : 0.5 : 1"
       sodipodi:type="inkscape:persp3d" />
    <inkscape:perspective
       id="perspective4395"
       inkscape:persp3d-origin="0.5 : 0.33333333 : 1"
       inkscape:vp_z="1 : 0.5 : 1"
       inkscape:vp_y="0 : 1000 : 0"
       inkscape:vp_x="0 : 0.5 : 1"
       sodipodi:type="inkscape:persp3d" />
    <inkscape:perspective
       id="perspective4435"
       inkscape:persp3d-origin="0.5 : 0.33333333 : 1"
       inkscape:vp_z="1 : 0.5 : 1"
       inkscape:vp_y="0 : 1000 : 0"
       inkscape:vp_x="0 : 0.5 : 1"
       sodipodi:type="inkscape:persp3d" />
    <inkscape:perspective
       id="perspective4460"
       inkscape:persp3d-origin="0.5 : 0.33333333 : 1"
       inkscape:vp_z="1 : 0.5 : 1"
       inkscape:vp_y="0 : 1000 : 0"
       inkscape:vp_x="0 : 0.5 : 1"
       sodipodi:type="inkscape:persp3d" />
    <inkscape:perspective
       id="perspective4479"
       inkscape:persp3d-origin="0.5 : 0.33333333 : 1"
       inkscape:vp_z="1 : 0.5 : 1"
       inkscape:vp_y="0 : 1000 : 0"
       inkscape:vp_x="0 : 0.5 : 1"
       sodipodi:type="inkscape:persp3d" />
    <inkscape:perspective
       id="perspective4495"
       inkscape:persp3d-origin="0.5 : 0.33333333 : 1"
       inkscape:vp_z="1 : 0.5 : 1"
       inkscape:vp_y="0 : 1000 : 0"
       inkscape:vp_x="0 : 0.5 : 1"
       sodipodi:type="inkscape:persp3d" />
    <inkscape:perspective
       id="perspective4511"
       inkscape:persp3d-origin="0.5 : 0.33333333 : 1"
       inkscape:vp_z="1 : 0.5 : 1"
       inkscape:vp_y="0 : 1000 : 0"
       inkscape:vp_x="0 : 0.5 : 1"
       sodipodi:type="inkscape:persp3d" />
    <inkscape:perspective
       id="perspective4527"
       inkscape:persp3d-origin="0.5 : 0.33333333 : 1"
       inkscape:vp_z="1 : 0.5 : 1"
       inkscape:vp_y="0 : 1000 : 0"
       inkscape:vp_x="0 : 0.5 : 1"
       sodipodi:type="inkscape:persp3d" />
    <inkscape:perspective
       id="perspective4543"
       inkscape:persp3d-origin="0.5 : 0.33333333 : 1"
       inkscape:vp_z="1 : 0.5 : 1"
       inkscape:vp_y="0 : 1000 : 0"
       inkscape:vp_x="0 : 0.5 : 1"
       sodipodi:type="inkscape:persp3d" />
    <inkscape:perspective
       id="perspective4559"
       inkscape:persp3d-origin="0.5 : 0.33333333 : 1"
       inkscape:vp_z="1 : 0.5 : 1"
       inkscape:vp_y="0 : 1000 : 0"
       inkscape:vp_x="0 : 0.5 : 1"
       sodipodi:type="inkscape:persp3d" />
    <inkscape:perspective
       id="perspective4575"
       inkscape:persp3d-origin="0.5 : 0.33333333 : 1"
       inkscape:vp_z="1 : 0.5 : 1"
       inkscape:vp_y="0 : 1000 : 0"
       inkscape:vp_x="0 : 0.5 : 1"
       sodipodi:type="inkscape:persp3d" />
    <inkscape:perspective
       id="perspective4591"
       inkscape:persp3d-origin="0.5 : 0.33333333 : 1"
       inkscape:vp_z="1 : 0.5 : 1"
       inkscape:vp_y="0 : 1000 : 0"
       inkscape:vp_x="0 : 0.5 : 1"
       sodipodi:type="inkscape:persp3d" />
    <inkscape:perspective
       id="perspective4607"
       inkscape:persp3d-origin="0.5 : 0.33333333 : 1"
       inkscape:vp_z="1 : 0.5 : 1"
       inkscape:vp_y="0 : 1000 : 0"
       inkscape:vp_x="0 : 0.5 : 1"
       sodipodi:type="inkscape:persp3d" />
    <inkscape:perspective
       id="perspective4629"
       inkscape:persp3d-origin="0.5 : 0.33333333 : 1"
       inkscape:vp_z="1 : 0.5 : 1"
       inkscape:vp_y="0 : 1000 : 0"
       inkscape:vp_x="0 : 0.5 : 1"
       sodipodi:type="inkscape:persp3d" />
    <inkscape:perspective
       id="perspective4674"
       inkscape:persp3d-origin="0.5 : 0.33333333 : 1"
       inkscape:vp_z="1 : 0.5 : 1"
       inkscape:vp_y="0 : 1000 : 0"
       inkscape:vp_x="0 : 0.5 : 1"
       sodipodi:type="inkscape:persp3d" />
    <inkscape:perspective
       id="perspective4690"
       inkscape:persp3d-origin="0.5 : 0.33333333 : 1"
       inkscape:vp_z="1 : 0.5 : 1"
       inkscape:vp_y="0 : 1000 : 0"
       inkscape:vp_x="0 : 0.5 : 1"
       sodipodi:type="inkscape:persp3d" />
    <inkscape:perspective
       id="perspective4735"
       inkscape:persp3d-origin="0.5 : 0.33333333 : 1"
       inkscape:vp_z="1 : 0.5 : 1"
       inkscape:vp_y="0 : 1000 : 0"
       inkscape:vp_x="0 : 0.5 : 1"
       sodipodi:type="inkscape:persp3d" />
    <inkscape:perspective
       id="perspective4751"
       inkscape:persp3d-origin="0.5 : 0.33333333 : 1"
       inkscape:vp_z="1 : 0.5 : 1"
       inkscape:vp_y="0 : 1000 : 0"
       inkscape:vp_x="0 : 0.5 : 1"
       sodipodi:type="inkscape:persp3d" />
    <inkscape:perspective
       id="perspective4767"
       inkscape:persp3d-origin="0.5 : 0.33333333 : 1"
       inkscape:vp_z="1 : 0.5 : 1"
       inkscape:vp_y="0 : 1000 : 0"
       inkscape:vp_x="0 : 0.5 : 1"
       sodipodi:type="inkscape:persp3d" />
    <inkscape:perspective
       id="perspective4787"
       inkscape:persp3d-origin="0.5 : 0.33333333 : 1"
       inkscape:vp_z="1 : 0.5 : 1"
       inkscape:vp_y="0 : 1000 : 0"
       inkscape:vp_x="0 : 0.5 : 1"
       sodipodi:type="inkscape:persp3d" />
    <inkscape:perspective
       id="perspective4813"
       inkscape:persp3d-origin="0.5 : 0.33333333 : 1"
       inkscape:vp_z="1 : 0.5 : 1"
       inkscape:vp_y="0 : 1000 : 0"
       inkscape:vp_x="0 : 0.5 : 1"
       sodipodi:type="inkscape:persp3d" />
    <inkscape:perspective
       id="perspective4905"
       inkscape:persp3d-origin="0.5 : 0.33333333 : 1"
       inkscape:vp_z="1 : 0.5 : 1"
       inkscape:vp_y="0 : 1000 : 0"
       inkscape:vp_x="0 : 0.5 : 1"
       sodipodi:type="inkscape:persp3d" />
    <inkscape:perspective
       id="perspective2877"
       inkscape:persp3d-origin="0.5 : 0.33333333 : 1"
       inkscape:vp_z="1 : 0.5 : 1"
       inkscape:vp_y="0 : 1000 : 0"
       inkscape:vp_x="0 : 0.5 : 1"
       sodipodi:type="inkscape:persp3d" />
    <inkscape:perspective
       id="perspective2893"
       inkscape:persp3d-origin="0.5 : 0.33333333 : 1"
       inkscape:vp_z="1 : 0.5 : 1"
       inkscape:vp_y="0 : 1000 : 0"
       inkscape:vp_x="0 : 0.5 : 1"
       sodipodi:type="inkscape:persp3d" />
    <inkscape:perspective
       id="perspective3693"
       inkscape:persp3d-origin="0.5 : 0.33333333 : 1"
       inkscape:vp_z="1 : 0.5 : 1"
       inkscape:vp_y="0 : 1000 : 0"
       inkscape:vp_x="0 : 0.5 : 1"
       sodipodi:type="inkscape:persp3d" />
    <inkscape:perspective
       id="perspective3709"
       inkscape:persp3d-origin="0.5 : 0.33333333 : 1"
       inkscape:vp_z="1 : 0.5 : 1"
       inkscape:vp_y="0 : 1000 : 0"
       inkscape:vp_x="0 : 0.5 : 1"
       sodipodi:type="inkscape:persp3d" />
    <inkscape:perspective
       id="perspective3725"
       inkscape:persp3d-origin="0.5 : 0.33333333 : 1"
       inkscape:vp_z="1 : 0.5 : 1"
       inkscape:vp_y="0 : 1000 : 0"
       inkscape:vp_x="0 : 0.5 : 1"
       sodipodi:type="inkscape:persp3d" />
    <inkscape:perspective
       id="perspective3743"
       inkscape:persp3d-origin="0.5 : 0.33333333 : 1"
       inkscape:vp_z="1 : 0.5 : 1"
       inkscape:vp_y="0 : 1000 : 0"
       inkscape:vp_x="0 : 0.5 : 1"
       sodipodi:type="inkscape:persp3d" />
    <inkscape:perspective
       id="perspective3759"
       inkscape:persp3d-origin="0.5 : 0.33333333 : 1"
       inkscape:vp_z="1 : 0.5 : 1"
       inkscape:vp_y="0 : 1000 : 0"
       inkscape:vp_x="0 : 0.5 : 1"
       sodipodi:type="inkscape:persp3d" />
    <inkscape:perspective
       id="perspective3777"
       inkscape:persp3d-origin="0.5 : 0.33333333 : 1"
       inkscape:vp_z="1 : 0.5 : 1"
       inkscape:vp_y="0 : 1000 : 0"
       inkscape:vp_x="0 : 0.5 : 1"
       sodipodi:type="inkscape:persp3d" />
    <inkscape:perspective
       id="perspective3795"
       inkscape:persp3d-origin="0.5 : 0.33333333 : 1"
       inkscape:vp_z="1 : 0.5 : 1"
       inkscape:vp_y="0 : 1000 : 0"
       inkscape:vp_x="0 : 0.5 : 1"
       sodipodi:type="inkscape:persp3d" />
    <inkscape:perspective
       id="perspective3815"
       inkscape:persp3d-origin="0.5 : 0.33333333 : 1"
       inkscape:vp_z="1 : 0.5 : 1"
       inkscape:vp_y="0 : 1000 : 0"
       inkscape:vp_x="0 : 0.5 : 1"
       sodipodi:type="inkscape:persp3d" />
    <inkscape:perspective
       id="perspective3831"
       inkscape:persp3d-origin="0.5 : 0.33333333 : 1"
       inkscape:vp_z="1 : 0.5 : 1"
       inkscape:vp_y="0 : 1000 : 0"
       inkscape:vp_x="0 : 0.5 : 1"
       sodipodi:type="inkscape:persp3d" />
    <inkscape:perspective
       id="perspective3857"
       inkscape:persp3d-origin="0.5 : 0.33333333 : 1"
       inkscape:vp_z="1 : 0.5 : 1"
       inkscape:vp_y="0 : 1000 : 0"
       inkscape:vp_x="0 : 0.5 : 1"
       sodipodi:type="inkscape:persp3d" />
    <inkscape:perspective
       id="perspective3897"
       inkscape:persp3d-origin="0.5 : 0.33333333 : 1"
       inkscape:vp_z="1 : 0.5 : 1"
       inkscape:vp_y="0 : 1000 : 0"
       inkscape:vp_x="0 : 0.5 : 1"
       sodipodi:type="inkscape:persp3d" />
    <inkscape:perspective
       id="perspective3945"
       inkscape:persp3d-origin="0.5 : 0.33333333 : 1"
       inkscape:vp_z="1 : 0.5 : 1"
       inkscape:vp_y="0 : 1000 : 0"
       inkscape:vp_x="0 : 0.5 : 1"
       sodipodi:type="inkscape:persp3d" />
    <inkscape:perspective
       id="perspective4112"
       inkscape:persp3d-origin="0.5 : 0.33333333 : 1"
       inkscape:vp_z="1 : 0.5 : 1"
       inkscape:vp_y="0 : 1000 : 0"
       inkscape:vp_x="0 : 0.5 : 1"
       sodipodi:type="inkscape:persp3d" />
  </defs>
  <path
     style="fill:#ffffff;fill-opacity:1;stroke:none"
     d="m -4.2253436,-1.6750534 207.7153836,0 0,207.3483934 -207.7153836,0 0,-207.3483934 z"
     id="rect2881" />
  <path
     style="fill:#3ba253;fill-opacity:1;stroke:#3aa354;stroke-width:0.77292246;stroke-linecap:butt;stroke-linejoin:round;stroke-miterlimit:4;stroke-opacity:1;stroke-dasharray:none;stroke-dashoffset:0"
     d="m 56.572811,145.45827 c 0,-3.02243 -0.08955,-4.40296 -0.299195,-4.61261 -0.460323,-0.46032 -2.40805,-0.36103 -7.307185,0.3725 -3.933724,0.58898 -5.253641,0.67267 -10.719363,0.67969 -6.781654,0.009 -7.268745,-0.055 -12.706103,-1.6606 l -2.752347,-0.81277 2.119304,-0.1758 c 13.113846,-1.08783 18.514077,-2.14058 23.494079,-4.58005 2.993798,-1.46652 9.41746,-6.14391 9.41746,-6.85732 0,-0.1265 -0.16662,-0.22999 -0.37027,-0.22999 -0.612162,0 -5.466126,1.68869 -9.464077,3.29255 -4.891182,1.9622 -5.272846,2.0664 -5.953972,1.62557 -0.925261,-0.59885 -1.759546,-0.69196 -8.283054,-0.92446 -6.69906,-0.23875 -10.20414,-0.69841 -11.545364,-1.51405 -0.724003,-0.44029 -0.767551,-0.54623 -0.63244,-1.53856 0.134809,-0.99012 0.03758,-1.22931 -1.37066,-3.37202 -0.833669,-1.26846 -1.43368,-2.30624 -1.333358,-2.30618 0.100323,7e-5 0.743397,0.21278 1.429054,0.47268 1.741355,0.66008 5.865586,1.27251 8.569299,1.27251 2.087256,0 2.276549,-0.0402 2.276549,-0.48395 0,-0.26616 -0.112199,-0.55328 -0.24933,-0.63804 -0.137132,-0.0847 -0.24933,-0.30371 -0.24933,-0.48657 0,-0.25848 0.985042,-0.36876 4.425605,-0.49547 5.07375,-0.18686 7.327689,-0.55193 9.583481,-1.55223 3.04877,-1.35194 3.670068,-2.26337 1.951312,-2.86253 -0.413204,-0.14404 -0.750413,-0.33507 -0.749358,-0.42451 9.97e-4,-0.0894 0.4662,-0.42781 1.033652,-0.75195 1.638416,-0.9359 3.167558,-2.48427 3.447015,-3.49037 0.633756,-2.28163 0.04308,-4.75113 -1.140373,-4.76767 -0.150186,-0.002 -1.440468,0.87375 -2.867293,1.94634 -2.74568,2.06402 -4.904722,3.42701 -5.107435,3.2243 -0.06713,-0.0671 -0.0087,-0.6137 0.129833,-1.21461 0.478329,-2.07478 0.542292,-2.06407 -2.794781,-0.46777 -3.430029,1.64077 -6.38515,2.57865 -9.496251,3.01387 -2.647812,0.37041 -3.367462,0.21167 -3.567169,-0.78687 -0.196126,-0.98063 -0.71464,-1.22743 -2.623404,-1.24867 -0.866087,-0.01 -1.782951,-0.0994 -2.037477,-0.19954 -0.567887,-0.22335 0.135932,-0.55421 4.285699,-2.01465 1.554082,-0.54693 3.214739,-1.23492 3.690347,-1.52886 1.789212,-1.10579 2.0187,-2.46168 0.562263,-3.32202 l -0.796202,-0.47033 2.842909,-1.14798 c 1.563601,-0.63139 3.684398,-1.59647 4.712884,-2.14462 5.439504,-2.899083 11.791643,-9.137345 14.44999,-14.190947 0.743901,-1.414176 0.787209,-1.891149 0.171709,-1.891149 -0.169764,0 -1.750712,1.072302 -3.513222,2.382895 -6.672605,4.961716 -15.754436,8.366218 -22.203655,8.323475 l -1.994639,-0.01321 2.780725,-1.32849 c 4.407773,-2.105817 10.736451,-5.982869 10.845151,-6.643924 0.128727,-0.782854 0.0229,-0.856132 -1.408714,-0.975434 l -1.495979,-0.124664 4.861932,-4.267884 c 4.970278,-4.362991 6.506235,-5.832002 6.092896,-5.82734 -0.128505,0.0015 -1.636125,0.403982 -3.350268,0.894511 -3.089598,0.884139 -8.209269,1.499492 -7.60456,0.914021 0.137131,-0.132771 1.539612,-1.202102 3.116623,-2.376293 3.070606,-2.286275 6.178588,-5.057898 5.939649,-5.296838 -0.08023,-0.08023 -1.408219,-0.0374 -2.951087,0.09518 -1.542869,0.132579 -3.025516,0.159556 -3.294772,0.05995 -0.427295,-0.158068 -0.320043,-0.308045 0.843313,-1.179253 0.733079,-0.548985 2.79145,-1.994502 4.574159,-3.212259 6.793009,-4.640262 10.384498,-8.177405 12.224166,-12.039193 0.876322,-1.839555 1.076758,-2.884876 0.608636,-3.17419 -0.29758,-0.183914 -2.311193,0.910308 -4.958173,2.694335 -2.774328,1.869857 -5.777087,3.197152 -7.593792,3.356645 l -1.527486,0.134105 0.491441,-0.596868 c 0.270292,-0.32828 1.849404,-1.999351 3.509138,-3.713494 6.796562,-7.01937 11.358323,-14.301699 15.071752,-24.060329 1.463195,-3.845176 2.74403,-7.796968 2.74403,-8.466226 0,-1.081569 0.466972,-0.9296 1.123273,0.365551 0.353303,0.697208 1.418622,3.05226 2.367374,5.233449 5.525551,12.703275 11.30646,22.282231 17.370865,28.783499 1.271969,1.363597 2.270906,2.521031 2.219861,2.572074 -0.05105,0.05105 -0.899196,-0.01895 -1.884782,-0.155519 -1.913641,-0.26519 -4.617925,-1.405388 -6.651225,-2.804335 -2.118672,-1.457685 -5.661084,-3.462803 -6.117681,-3.462803 -0.2616,0 -0.449048,0.182186 -0.448934,0.436328 2.5e-4,0.584257 1.206338,3.096945 2.322084,4.837739 2.091132,3.262591 3.703306,4.709746 11.209024,10.061671 2.889935,2.060659 5.300528,3.88495 5.356874,4.053986 0.07725,0.231767 -0.607671,0.307334 -2.785627,0.307334 -3.69249,0 -3.724442,0.09014 -0.893431,2.520492 0.891354,0.765206 2.734916,2.22216 4.096806,3.237676 l 2.476159,1.846392 -1.404939,0.07443 c -1.343366,0.07116 -3.019581,-0.255634 -7.392031,-1.44117 C 82.50289,77.9427 81.605303,77.783047 81.525759,77.8638 c -0.177607,0.1803 1.646919,1.907139 6.82416,6.45879 l 3.970376,3.490618 -1.801036,0.07344 -1.801037,0.07344 0.518571,0.728265 c 0.782931,1.099525 4.13992,3.217485 9.507722,5.998517 3.803465,1.970556 4.615495,2.474352 3.829655,2.375956 -0.54853,-0.06868 -1.89491,-0.196708 -2.991961,-0.284505 -4.414652,-0.3533 -9.142295,-1.657916 -13.463812,-3.715401 -2.664593,-1.26862 -4.64291,-2.508846 -8.690414,-5.448104 -2.06755,-1.501434 -2.654093,-1.714085 -2.654093,-0.962246 0,1.84722 8.302566,11.173458 12.461014,13.9974 1.946216,1.32165 7.095134,3.80113 9.085532,4.37517 l 1.475494,0.42554 -0.753629,0.31687 c -0.783061,0.32926 -1.066075,0.92764 -1.071972,2.2665 -0.002,0.42521 -0.129955,1.13614 -0.28463,1.57984 -0.387939,1.11285 -0.07948,1.35668 2.778368,2.19626 2.808423,0.82506 2.986643,1.18436 1.246018,2.51198 -1.080655,0.82424 -1.174097,0.84808 -2.742628,0.69979 -2.156758,-0.20389 -5.703328,-1.17501 -8.679107,-2.37649 -3.746465,-1.51266 -3.541267,-1.50307 -3.541267,-0.16537 0,0.62633 -0.06057,1.13879 -0.134598,1.13879 -0.44633,0 -2.553362,-1.31534 -4.647556,-2.90129 -2.913872,-2.2067 -3.635368,-2.58461 -3.954176,-2.07113 -0.270079,0.43498 -0.739149,2.53992 -0.735768,3.30171 0.0043,0.97632 1.154552,3.05647 2.138587,3.8676 0.527285,0.43463 1.438928,0.98767 2.025867,1.22898 0.586943,0.24131 1.067,0.49484 1.066793,0.5634 -2.04e-4,0.0686 -0.532728,0.29297 -1.183382,0.49866 -0.709635,0.22435 -1.213795,0.54096 -1.259948,0.79125 -0.155245,0.8419 3.803389,2.59249 7.661993,3.38829 1.154888,0.23819 2.108575,0.53988 2.119304,0.67042 0.02384,0.28986 -2.627221,2.54254 -5.912753,5.02426 -1.99502,1.50693 -2.607454,1.84429 -3.34813,1.84429 -0.498568,0 -2.785845,-0.5049 -5.082834,-1.12199 -2.296991,-0.61709 -4.352633,-1.12198 -4.568091,-1.12198 -0.818376,0 -0.329053,0.77667 1.415894,2.24737 3.600039,3.03423 5.862271,4.26208 12.00409,6.51534 2.198349,0.80652 4.078014,1.54906 4.177033,1.6501 0.09902,0.10104 0.114799,0.89396 0.03507,1.76205 -0.128437,1.39831 -0.217246,1.60581 -0.778619,1.81925 -0.805797,0.30636 -4.053443,0.093 -10.286065,-0.67583 -2.686213,-0.33135 -5.182628,-0.60246 -5.547589,-0.60246 l -0.663567,0 0,4.73727 0,4.73726 -6.357911,0 -6.357911,0 0,-4.3134 z"
     id="path3953" />
  <path
     style="fill:#3ba253;fill-opacity:1;stroke:#3aa354;stroke-width:0.77292246;stroke-linecap:butt;stroke-linejoin:round;stroke-miterlimit:4;stroke-opacity:1;stroke-dasharray:none;stroke-dashoffset:0"
     d="m 126.23014,177.66145 c 0.2585,-1.29252 0.48977,-7.07049 0.31143,-7.78102 -0.14762,-0.58818 -0.28521,-0.66103 -1.24844,-0.66103 -0.5954,0 -2.52869,0.23414 -4.29619,0.52031 -2.62122,0.4244 -4.76518,0.54523 -11.62992,0.65549 -9.36318,0.15039 -9.914491,0.0974 -14.272748,-1.37269 l -2.742629,-0.92509 1.869974,-0.16637 c 1.028486,-0.0915 3.55295,-0.29381 5.609922,-0.44957 7.410301,-0.56112 14.424531,-2.17733 18.699741,-4.30877 2.64588,-1.31913 7.26497,-4.4717 8.41488,-5.74324 0.57266,-0.63323 0.5516,-0.92589 -0.0666,-0.92589 -0.6999,0 -5.84659,1.74444 -9.65416,3.27221 -4.52253,1.81466 -4.51571,1.81329 -5.93147,1.18703 -1.11354,-0.49257 -1.67107,-0.53457 -7.70272,-0.58033 -5.891981,-0.0447 -6.673003,-0.10071 -8.321084,-0.59677 -1.000337,-0.30109 -2.315061,-0.78072 -2.921609,-1.06583 -1.094295,-0.51438 -1.101704,-0.52648 -0.959051,-1.56725 0.135287,-0.98703 0.05527,-1.16571 -1.357149,-3.0306 -0.825502,-1.08995 -1.406766,-2.01644 -1.291698,-2.05887 0.115068,-0.0424 1.591716,0.20056 3.281439,0.53997 2.907405,0.58399 4.760008,0.75344 7.519744,0.68783 l 1.206228,-0.0287 -0.15789,-0.93499 -0.15788,-0.93498 4.18758,-0.0125 c 3.68222,-0.011 4.49467,-0.0915 6.73222,-0.66701 3.56093,-0.9159 6.30657,-2.37448 6.30657,-3.35027 0,-0.18938 -0.42074,-0.39486 -0.99732,-0.48706 -0.54852,-0.0877 -0.99732,-0.2519 -0.99732,-0.36486 0,-0.11296 0.76781,-0.70208 1.70625,-1.30915 1.97978,-1.28071 2.81069,-2.44965 2.97785,-4.18929 0.1257,-1.30818 -0.3114,-3.28531 -0.81954,-3.70703 -0.22899,-0.19004 -0.9001,0.17126 -2.52456,1.35914 -3.14985,2.30331 -5.51822,3.87684 -5.83517,3.87684 -0.18075,0 -0.21743,-0.36822 -0.10882,-1.09251 0.10428,-0.69537 0.0641,-1.15411 -0.11039,-1.26198 -0.15083,-0.0932 -1.7043,0.44263 -3.45218,1.19078 -3.43164,1.46885 -6.37953,2.28345 -9.198183,2.54179 -2.077901,0.19043 -2.719091,-0.0518 -2.952698,-1.11538 -0.191629,-0.87248 -0.326525,-0.92005 -3.242164,-1.14322 l -2.241907,-0.17161 2.989897,-1.05612 c 3.631354,-1.2827 5.470544,-2.18301 6.542846,-3.20283 1.014579,-0.96491 1.020519,-1.46951 0.02649,-2.24746 -0.919674,-0.71975 -0.999808,-0.64905 2.155149,-1.90155 3.61618,-1.4356 7.12757,-3.54052 10.56745,-6.33471 3.74247,-3.03999 10.03313,-11.63149 8.51652,-11.63149 -0.1315,0 -1.84253,1.07846 -3.80228,2.39658 -7.77688,5.23066 -15.4134,8.07528 -21.678501,8.07528 l -2.329201,0 4.113675,-2.05697 c 6.778987,-3.38972 10.419287,-6.0561 9.252577,-6.77716 -0.12193,-0.0754 -0.74466,-0.0393 -1.38385,0.0801 -1.76251,0.32928 -1.4405,-0.19868 1.85575,-3.04261 4.31965,-3.72689 7.47901,-6.65874 7.47901,-6.94041 0,-0.30876 -0.59057,-0.18981 -5.11126,1.02944 -4.25898,1.14868 -4.91988,1.27488 -5.33446,1.01866 -0.41635,-0.25732 0.068,-0.72423 3.32546,-3.20541 3.05939,-2.33035 4.96725,-4.14522 4.81757,-4.58277 -0.0884,-0.25834 -0.79363,-0.31081 -3.20625,-0.23851 l -3.09294,0.0927 0.4755,-0.52959 c 0.26153,-0.29127 2.49086,-1.902774 4.95408,-3.581118 5.67478,-3.866589 8.74215,-6.40746 10.68727,-8.852872 1.51485,-1.904471 3.45555,-5.467741 3.45555,-6.344646 0,-0.981161 -1.35141,-0.497316 -4.76434,1.705772 -3.6708,2.369544 -5.79693,3.436461 -7.62439,3.826014 -0.65986,0.140657 -1.4522,0.313123 -1.76074,0.383257 -0.30855,0.07013 -0.56099,0.01449 -0.56099,-0.123652 0,-0.138144 1.49,-1.795208 3.31112,-3.682368 5.05418,-5.237472 7.03631,-7.738545 10.03033,-12.656399 3.33692,-5.48109 5.60442,-10.729018 7.79728,-18.046101 l 1.19557,-3.989341 2.22855,5.15847 c 6.41905,14.858335 11.6212,23.565507 18.78462,31.441029 1.00873,1.109009 1.68192,2.012436 1.49598,2.007619 -0.83853,-0.02172 -3.46401,-0.714752 -4.82601,-1.273884 -0.82279,-0.337772 -3.11116,-1.645938 -5.08527,-2.907034 -2.43308,-1.55429 -3.82491,-2.292899 -4.32075,-2.292899 -0.69393,0 -0.72273,0.04158 -0.56128,0.810322 0.27127,1.291636 1.86052,4.061289 3.5181,6.131145 1.80157,2.249668 4.91083,4.863939 9.56618,8.043259 4.3361,2.961295 5.60956,3.936607 5.60956,4.296227 0,0.20974 -0.74239,0.26614 -2.64832,0.20118 -1.7266,-0.0589 -2.70644,0.004 -2.81532,0.17995 -0.29946,0.48453 0.62919,1.5183 3.19358,3.55509 3.69833,2.93743 4.88802,3.96116 4.88802,4.20614 0,0.56832 -1.21514,0.41923 -4.87766,-0.59848 -4.72897,-1.31404 -5.59419,-1.50246 -5.59419,-1.2182 0,0.3203 2.42504,2.60483 6.49104,6.11496 4.84234,4.18034 4.72345,4.0107 2.73236,3.89844 -2.2616,-0.12752 -2.27968,0.35426 -0.0732,1.94995 2.41709,1.74801 4.17545,2.7731 8.42753,4.9131 l 3.73995,1.88225 -2.2048,0.008 c -6.21162,0.0217 -13.96296,-2.84564 -21.56935,-7.97874 -2.02562,-1.36698 -3.81627,-2.48542 -3.97921,-2.48542 -1.55105,0 3.79807,7.34537 8.08564,11.10314 3.70985,3.25145 8.39361,6.10505 11.86292,7.22755 2.04972,0.66319 2.20389,0.939 0.97825,1.75009 -0.56503,0.37393 -1.02734,0.76553 -1.02734,0.87023 0,0.32325 1.70501,1.70732 2.77676,2.25408 0.9764,0.49812 5.76495,2.40204 7.3211,2.91086 0.6459,0.2112 0.44173,0.26777 -1.49598,0.41452 -2.63284,0.19939 -2.91491,0.31825 -3.21177,1.35335 -0.28814,1.00467 -1.0528,1.15918 -3.95051,0.79824 -2.6472,-0.32973 -4.74992,-0.95328 -8.09696,-2.4011 -1.39889,-0.60511 -2.80137,-1.1279 -3.11663,-1.16175 -0.53518,-0.0575 -0.56823,0.017 -0.49838,1.12276 0.0411,0.65137 -0.021,1.18432 -0.13818,1.18432 -0.32535,0 -2.19026,-1.2272 -4.80519,-3.16204 -3.02999,-2.24195 -3.34957,-2.41162 -3.71444,-1.97199 -0.58073,0.69974 -0.89157,3.05985 -0.56421,4.28382 0.42547,1.59079 0.91085,2.1812 2.89359,3.51975 l 1.72495,1.1645 -1.03929,0.44139 c -1.19334,0.50681 -1.25236,0.67811 -0.4783,1.38819 0.96823,0.88819 3.12384,1.8204 5.75383,2.4883 2.19346,0.55704 3.10086,0.64786 6.71131,0.67171 4.11219,0.0272 4.59773,0.13107 3.8952,0.83361 -0.15534,0.15534 -0.20947,0.47259 -0.12028,0.70501 0.14514,0.37823 0.52146,0.40833 3.58605,0.28689 2.00325,-0.0794 4.40185,-0.34745 5.78084,-0.64606 1.29632,-0.28071 2.39807,-0.46925 2.44835,-0.41898 0.0503,0.0503 -0.44936,1.02257 -1.1103,2.16067 -0.89729,1.54511 -1.20169,2.3249 -1.20169,3.07847 0,0.91138 -0.0871,1.05179 -0.89846,1.44861 -0.49416,0.24168 -1.95274,0.68444 -3.24129,0.9839 -2.02982,0.47175 -3.15893,0.55061 -8.45141,0.59031 -5.69066,0.0427 -6.19007,0.083 -7.29965,0.58907 -1.38837,0.63323 -0.9519,0.73018 -6.66282,-1.4799 -4.6113,-1.78453 -8.95017,-3.24209 -9.65109,-3.24209 -0.59257,0 0.81894,1.43402 3.16852,3.21903 6.8051,5.16996 14.2003,7.36386 27.77832,8.24087 2.18203,0.14093 4.0055,0.29442 4.05217,0.34109 0.14091,0.14091 -5.66688,1.8896 -7.2715,2.1894 -2.16876,0.4052 -16.37384,0.12245 -19.94639,-0.39703 -1.50845,-0.21934 -3.54394,-0.4657 -4.52333,-0.54746 -2.38883,-0.19942 -2.46164,-0.0645 -2.23677,4.14517 0.0919,1.72112 0.23438,3.55005 0.31654,4.0643 l 0.14938,0.93498 -6.67027,0 -6.67028,0 0.15664,-0.78315 0,0 z"
     id="path3955" />
  <path
     style="fill:none;stroke:#000000;stroke-width:2.99693632;stroke-miterlimit:4;stroke-opacity:1"
     d="m 21.386239,2.8384437 156.802321,0 c 10.23854,0 18.48111,8.3144243 18.48111,18.6422013 l 0,158.169125 c 0,10.32778 -8.24257,18.6422 -18.48111,18.6422 l -156.802321,0 c -10.238534,0 -18.4811077,-8.31442 -18.4811077,-18.6422 l 0,-158.169125 c 0,-10.327777 8.2425737,-18.6422013 18.4811077,-18.6422013 z"
     id="rect4614" />
</svg>
