<?xml version="1.0" encoding="UTF-8" standalone="no"?>
<!-- Created with Inkscape (http://www.inkscape.org/) -->

<svg
   xmlns:dc="http://purl.org/dc/elements/1.1/"
   xmlns:cc="http://creativecommons.org/ns#"
   xmlns:rdf="http://www.w3.org/1999/02/22-rdf-syntax-ns#"
   xmlns:svg="http://www.w3.org/2000/svg"
   xmlns="http://www.w3.org/2000/svg"
   xmlns:sodipodi="http://sodipodi.sourceforge.net/DTD/sodipodi-0.dtd"
   xmlns:inkscape="http://www.inkscape.org/namespaces/inkscape"
   version="1.1"
   width="200"
   height="200"
   id="svg2"
   inkscape:version="0.47 r22583"
   sodipodi:docname="Italian traffic signs - icona autocaravan.svg"
   sodipodi:version="0.32"
   inkscape:output_extension="org.inkscape.output.svg.inkscape">
  <metadata
     id="metadata2877">
    <rdf:RDF>
      <cc:Work
         rdf:about="">
        <dc:format>image/svg+xml</dc:format>
        <dc:type
           rdf:resource="http://purl.org/dc/dcmitype/StillImage" />
        <dc:title></dc:title>
      </cc:Work>
    </rdf:RDF>
  </metadata>
  <sodipodi:namedview
     pagecolor="#ffffff"
     bordercolor="#666666"
     borderopacity="1"
     objecttolerance="10"
     gridtolerance="10"
     guidetolerance="10"
     inkscape:pageopacity="0"
     inkscape:pageshadow="2"
     inkscape:window-width="1600"
     inkscape:window-height="838"
     id="namedview2875"
     showgrid="false"
     inkscape:zoom="2.3765092"
     inkscape:cx="150.92145"
     inkscape:cy="77.088807"
     inkscape:window-x="-8"
     inkscape:window-y="-8"
     inkscape:window-maximized="1"
     inkscape:current-layer="svg2" />
  <defs
     id="defs4">
    <inkscape:perspective
       sodipodi:type="inkscape:persp3d"
       inkscape:vp_x="0 : 100 : 1"
       inkscape:vp_y="0 : 1000 : 0"
       inkscape:vp_z="200 : 100 : 1"
       inkscape:persp3d-origin="100 : 66.666667 : 1"
       id="perspective2879" />
    <inkscape:perspective
       id="perspective2839"
       inkscape:persp3d-origin="0.5 : 0.33333333 : 1"
       inkscape:vp_z="1 : 0.5 : 1"
       inkscape:vp_y="0 : 1000 : 0"
       inkscape:vp_x="0 : 0.5 : 1"
       sodipodi:type="inkscape:persp3d" />
    <inkscape:perspective
       id="perspective3649"
       inkscape:persp3d-origin="0.5 : 0.33333333 : 1"
       inkscape:vp_z="1 : 0.5 : 1"
       inkscape:vp_y="0 : 1000 : 0"
       inkscape:vp_x="0 : 0.5 : 1"
       sodipodi:type="inkscape:persp3d" />
    <inkscape:perspective
       id="perspective3679"
       inkscape:persp3d-origin="0.5 : 0.33333333 : 1"
       inkscape:vp_z="1 : 0.5 : 1"
       inkscape:vp_y="0 : 1000 : 0"
       inkscape:vp_x="0 : 0.5 : 1"
       sodipodi:type="inkscape:persp3d" />
    <inkscape:perspective
       id="perspective3713"
       inkscape:persp3d-origin="0.5 : 0.33333333 : 1"
       inkscape:vp_z="1 : 0.5 : 1"
       inkscape:vp_y="0 : 1000 : 0"
       inkscape:vp_x="0 : 0.5 : 1"
       sodipodi:type="inkscape:persp3d" />
    <inkscape:perspective
       id="perspective3741"
       inkscape:persp3d-origin="0.5 : 0.33333333 : 1"
       inkscape:vp_z="1 : 0.5 : 1"
       inkscape:vp_y="0 : 1000 : 0"
       inkscape:vp_x="0 : 0.5 : 1"
       sodipodi:type="inkscape:persp3d" />
  </defs>
  <path
     style="fill:#ffffff;fill-opacity:1;stroke:none"
     d="m 0,-0.61582947 200.9709,0 L 200.9709,200 0,200 0,-0.61582947 z"
     id="rect2881" />
  <path
     style="fill:none;stroke:#000000;stroke-width:3;stroke-miterlimit:4;stroke-opacity:1"
     d="m 21.814432,2.8621521 157.645218,0 c 10.29357,0 18.58045,8.2868829 18.58045,18.5804539 l 0,157.645234 c 0,10.29357 -8.28688,18.58045 -18.58045,18.58045 l -157.645218,0 c -10.293571,0 -18.5804535,-8.28688 -18.5804535,-18.58045 l 0,-157.645234 c 0,-10.293571 8.2868825,-18.5804539 18.5804535,-18.5804539 z"
     id="rect4614" />
  <path
     transform="matrix(0.67912836,0,0,0.67912836,-53.64049,50.558263)"
     d="m 269.30256,116.89491 a 13.465128,13.254735 0 1 1 -26.93026,0 13.465128,13.254735 0 1 1 26.93026,0 z"
     sodipodi:ry="13.254735"
     sodipodi:rx="13.465128"
     sodipodi:cy="116.89491"
     sodipodi:cx="255.83743"
     id="path3731"
     style="fill:none;stroke:#000000;stroke-width:10.63480473;stroke-miterlimit:4;stroke-opacity:1;stroke-dasharray:none"
     sodipodi:type="arc" />
  <path
     style="fill:#000000"
     d="m 27.185974,125.40962 0,-2.67069 9.275109,0 9.275108,0 -0.487903,-9.72896 c -0.268346,-5.35093 -0.67281,-11.01662 -0.898809,-12.59043 l -0.410907,-2.861455 10.673265,0 10.673264,0 0,12.971945 0,12.97195 10.583091,0 10.58309,0 0,-12.97195 0,-12.971945 39.204978,0 c 36.99852,0 39.18566,0.07516 38.86164,1.335348 -0.18884,0.734441 -1.07448,7.601947 -1.96809,15.261117 l -1.62473,13.92577 -13.24857,0 c -11.45847,0 -13.24855,-0.15876 -13.24855,-1.17498 0,-1.88501 -2.52356,-6.66325 -4.69778,-8.89503 -5.43382,-5.57769 -13.4016,-5.76751 -18.99864,-0.45263 -2.53716,2.40926 -5.23069,7.2228 -5.23069,9.34766 0,1.04383 -4.37094,1.17498 -39.15744,1.17498 l -39.157436,0 0,-2.6707 z M 44.114067,92.788986 c -0.0027,-0.524601 1.652779,-8.250542 3.678774,-17.168757 l 3.683627,-16.214937 55.939302,0 55.9393,0 0,1.789205 c 0,2.077333 1.2844,24.520244 1.67713,29.305321 l 0.26616,3.242988 -39.42354,0 -39.423538,0 0,-14.498062 0,-14.498061 -10.93586,0 -10.93586,0 0,14.498061 0,14.498062 -10.230321,0 c -7.71131,0 -10.231517,-0.234861 -10.235174,-0.95382 z m 115.007773,-16.596465 0,-11.445838 -20.46064,0 -20.46065,0 0,11.445838 0,11.445838 20.46065,0 20.46064,0 0,-11.445838 z"
     id="path3755"
     sodipodi:nodetypes="ccccccccccccccccscccsssscccccccccccccccccccccccccccccc" />
</svg>
