<?xml version="1.0" encoding="UTF-8" standalone="no"?>
<!-- Created with Inkscape (http://www.inkscape.org/) -->

<svg
   xmlns:svg="http://www.w3.org/2000/svg"
   xmlns="http://www.w3.org/2000/svg"
   version="1.1"
   width="200"
   height="200"
   id="svg2">
  <defs
     id="defs4" />
  <rect
     width="200.9709"
     height="200.61583"
     rx="0"
     ry="0"
     x="0"
     y="-0.61582947"
     id="rect2881"
     style="fill:#ffffff;fill-opacity:1;stroke:none" />
  <rect
     width="194.80612"
     height="194.80614"
     ry="18.580454"
     x="3.2339785"
     y="2.8621521"
     id="rect4614"
     style="fill:none;stroke:#000000;stroke-width:3;stroke-miterlimit:4;stroke-opacity:1;stroke-dasharray:none" />
  <path
     d="m 11.654086,132.5731 0,-6.29571 89.570884,0 89.57088,0 0,6.29571 0,6.29572 -89.57088,0 -89.570884,0 0,-6.29572 z m 32.050923,-13.16377 0,-4.00636 54.085933,0 54.085928,0 0,-1.71337 0,-1.71338 -42.78225,-0.14672 -42.782263,-0.14673 -0.157994,-8.72815 -0.157989,-8.728154 -8.570162,0 c -4.713589,0 -8.568725,-0.193165 -8.56697,-0.429254 0.0018,-0.236089 0.269317,-1.387478 0.594581,-2.558648 1.101223,-3.965133 0.544959,-3.880153 25.399252,-3.880153 12.269562,0 22.06362,-0.218009 21.764574,-0.484461 -0.299047,-0.266452 -6.269269,-2.90636 -13.267159,-5.866463 -6.997896,-2.960103 -12.728429,-5.53042 -12.734519,-5.711829 -0.0061,-0.181402 5.994931,-2.904563 13.335617,-6.051471 l 13.346691,-5.721656 13.696271,5.866584 13.69627,5.866577 -2.57552,1.104904 c -1.41653,0.607697 -7.59778,3.266418 -13.73611,5.908272 l -11.160586,4.803374 47.074796,0.14641 47.07479,0.14641 0,3.430702 0,3.430702 -2.59426,0 -2.59427,0 0.16183,6.438804 0.16183,6.4388 2.43243,0.17599 c 2.41892,0.17502 2.43244,0.18849 2.43244,2.42379 l 0,2.2478 -16.74088,0.15173 -16.74089,0.15173 -0.1811,1.57393 -0.1811,1.57393 16.92199,0 16.92198,0 0,4.00636 0,4.00637 -73.83159,0 -73.831591,0 0,-4.00637 z m 50.365736,-18.88715 0,-6.295714 -10.87442,0 -10.87442,0 0,6.295714 0,6.29572 10.87442,0 10.87442,0 0,-6.29572 z m 29.189235,0 0,-6.295714 -11.16059,0 -11.16059,0 0,6.295714 0,6.29572 11.16059,0 11.16059,0 0,-6.29572 z m 28.61689,0 0,-6.295714 -11.16059,0 -11.16058,0 0,6.295714 0,6.29572 11.16058,0 11.16059,0 0,-6.29572 z m 28.6169,0 0,-6.295714 -11.16059,0 -11.16059,0 0,6.295714 0,6.29572 11.16059,0 11.16059,0 0,-6.29572 z M 103.11425,79.264507 c 3.05311,-1.303792 6.44006,-2.745471 7.52655,-3.20373 l 1.97543,-0.833204 -7.66538,-3.27795 -7.665369,-3.277945 -7.330744,3.145151 c -4.031915,1.729828 -7.327133,3.294434 -7.322714,3.476901 0.0081,0.333976 13.617842,6.275616 14.47268,6.318375 0.252137,0.01259 2.956437,-1.043813 6.009547,-2.347598 z M 43.705009,109.79739 c 0,-1.23573 1.086074,-4.87379 2.520197,-8.44199 l 2.520197,-6.270428 8.068055,-0.158801 8.068054,-0.158795 0,8.600774 0,8.60079 -10.588252,0 -10.588251,0 0,-2.17155 z m 16.025462,-6.1535 0,-3.746346 -3.774794,0.169236 -3.774795,0.16923 -1.376247,3.38817 c -0.756935,1.86349 -1.376247,3.47319 -1.376247,3.57711 0,0.10392 2.317969,0.18895 5.151041,0.18895 l 5.151042,0 0,-3.74635 z"
     id="path2853"
     style="fill:#000000" />
  <path
     d="m 192.2109,86.035705 0,56.099185"
     id="path2855"
     style="fill:none;stroke:#ffffff;stroke-width:3.58227944;stroke-linecap:butt;stroke-linejoin:miter;stroke-miterlimit:4;stroke-opacity:1;stroke-dasharray:none" />
</svg>
