<?xml version="1.0" encoding="UTF-8" standalone="no"?>
<!-- Created with Inkscape (http://www.inkscape.org/) -->

<svg
   width="159.27916mm"
   height="159.27916mm"
   viewBox="0 0 159.27916 159.27916"
   version="1.1"
   id="svg2679"
   inkscape:version="1.2.1 (9c6d41e410, 2022-07-14)"
   sodipodi:docname="Merci pericolose aggiornate.svg"
   xmlns:inkscape="http://www.inkscape.org/namespaces/inkscape"
   xmlns:sodipodi="http://sodipodi.sourceforge.net/DTD/sodipodi-0.dtd"
   xmlns="http://www.w3.org/2000/svg"
   xmlns:svg="http://www.w3.org/2000/svg">
  <sodipodi:namedview
     id="namedview2681"
     pagecolor="#ffffff"
     bordercolor="#000000"
     borderopacity="0.25"
     inkscape:showpageshadow="2"
     inkscape:pageopacity="0.0"
     inkscape:pagecheckerboard="0"
     inkscape:deskcolor="#d1d1d1"
     inkscape:document-units="mm"
     showgrid="false"
     inkscape:zoom="0.76257015"
     inkscape:cx="365.2123"
     inkscape:cy="-3.2783869"
     inkscape:window-width="1920"
     inkscape:window-height="991"
     inkscape:window-x="-9"
     inkscape:window-y="-9"
     inkscape:window-maximized="1"
     inkscape:current-layer="layer1" />
  <defs
     id="defs2676" />
  <g
     inkscape:label="Livello 1"
     inkscape:groupmode="layer"
     id="layer1"
     transform="translate(-8.8358904,11.981876)">
    <g
       id="g1539-6-1"
       transform="translate(128.65375,-27.41003)">
      <circle
         style="fill:#000000;fill-rule:evenodd;stroke-width:8.23434"
         id="path5438-9-9-7-9-1-9-9"
         cx="-40.17828"
         cy="95.067734"
         r="79.63958" />
      <g
         id="g4092-1-7-6-0-1-2-5"
         transform="translate(-850.78044,-396.24123)">
        <circle
           style="fill:#ffffff;fill-rule:evenodd;stroke-width:7.2697"
           id="path2578-4-52-7-2-5-7-8-2"
           cx="810.60211"
           cy="491.30896"
           r="79.375" />
        <circle
           style="fill:#d40000;fill-rule:evenodd;stroke-width:7.02738"
           id="path2578-41-65-5-2-3-5-9-4"
           cx="810.60211"
           cy="491.30893"
           r="76.729164" />
        <circle
           style="fill:#ffffff;fill-rule:evenodd;stroke-width:5.20995"
           id="path2578-41-6-8-9-7-7-4-2-6"
           cx="810.60211"
           cy="491.30893"
           r="56.885418" />
      </g>
      <g
         id="g1357-7-04-8-1-5"
         transform="matrix(2.0529261,0,0,2.0529237,-1201.1768,-2616.275)">
        <path
           id="rect13498-0-0-0-8-5-4-8"
           style="fill:#000000;fill-rule:evenodd;stroke-width:1.09007;stroke-opacity:0.646154"
           d="m 578.21973,1333.696 c -0.1215,0.045 -0.2524,0.071 -0.3898,0.071 h -2.8371 v 5.3166 c 0,0.6044 0.4864,1.0908 1.0907,1.0908 h 1.0448 c 0.6044,0 1.0914,-0.4864 1.0914,-1.0908 z m -25.3724,0.071 v 5.3166 c 0,0.6044 0.487,1.0908 1.0914,1.0908 h 1.0447 c 0.6044,0 1.0909,-0.4864 1.0909,-1.0908 v -5.3166 z m 4.0279,0 v 5.3166 c 0,0.6044 0.4865,1.0908 1.0909,1.0908 h 1.0447 c 0.6045,0 1.0908,-0.4864 1.0908,-1.0908 v -2.3454 h 3.9332 a 1.6250043,1.6249891 0 0 0 1.4984,0.9987 1.6250043,1.6249891 0 0 0 1.499,-0.9987 h 3.9332 v 2.3454 c 0,0.6044 0.4864,1.0908 1.0909,1.0908 h 1.0447 c 0.6045,0 1.0908,-0.4864 1.0908,-1.0908 v -5.3166 h -3.2264 v 1.7176 h -3.9332 a 1.6250043,1.6249891 0 0 0 -1.499,-0.9977 1.6250043,1.6249891 0 0 0 -1.4977,0.9977 h -3.9339 v -1.7176 z" />
        <rect
           style="fill:#000000;fill-rule:evenodd;stroke-width:0.803846;stroke-opacity:0.646154"
           id="rect13628-0-1-6-12-0-6-0"
           width="27.392557"
           height="3.180336"
           x="551.83722"
           y="1329.6813" />
        <path
           id="rect13628-1-4-7-5-5-6-1-5"
           style="fill:#000000;fill-rule:evenodd;stroke-width:2.16526;stroke-opacity:0.646154"
           d="m 551.83703,1305.7568 c 0,0 9.1289,-0.4045 13.6964,-0.4045 4.5675,0 13.6964,0.4045 13.6964,0.4045 l 10e-5,23.0752 h -27.3926 z"
           sodipodi:nodetypes="czcccc" />
        <rect
           style="fill:#ff6600;fill-rule:evenodd;stroke-width:0.801346;stroke-opacity:0.646154"
           id="rect13653-0-8-9-0-1-2-1"
           width="21.010908"
           height="16.841654"
           x="555.02789"
           y="1308.8962" />
      </g>
    </g>
  </g>
</svg>
