<?xml version="1.0" encoding="UTF-8" standalone="no"?>
<!-- Created with Inkscape (http://www.inkscape.org/) -->

<svg
   xmlns:dc="http://purl.org/dc/elements/1.1/"
   xmlns:cc="http://creativecommons.org/ns#"
   xmlns:rdf="http://www.w3.org/1999/02/22-rdf-syntax-ns#"
   xmlns:svg="http://www.w3.org/2000/svg"
   xmlns="http://www.w3.org/2000/svg"
   xmlns:sodipodi="http://sodipodi.sourceforge.net/DTD/sodipodi-0.dtd"
   xmlns:inkscape="http://www.inkscape.org/namespaces/inkscape"
   width="900"
   height="1750"
   id="svg9488"
   version="1.1"
   inkscape:version="0.48.5 r10040"
   sodipodi:docname="disegno2.svg">
  <defs
     id="defs9490" />
  <sodipodi:namedview
     id="base"
     pagecolor="#ffffff"
     bordercolor="#666666"
     borderopacity="1.0"
     inkscape:pageopacity="0.0"
     inkscape:pageshadow="2"
     inkscape:zoom="0.12374369"
     inkscape:cx="1058.3172"
     inkscape:cy="495.287"
     inkscape:document-units="px"
     inkscape:current-layer="layer1"
     showgrid="false"
     inkscape:snap-object-midpoints="true"
     inkscape:object-paths="true"
     inkscape:snap-midpoints="true"
     inkscape:window-width="1366"
     inkscape:window-height="705"
     inkscape:window-x="-8"
     inkscape:window-y="-8"
     inkscape:window-maximized="1"
     fit-margin-top="0"
     fit-margin-left="0"
     fit-margin-right="0"
     fit-margin-bottom="0"
     inkscape:snap-global="true"
     inkscape:snap-intersection-paths="true"
     inkscape:object-nodes="true"
     showborder="true" />
  <metadata
     id="metadata9493">
    <rdf:RDF>
      <cc:Work
         rdf:about="">
        <dc:format>image/svg+xml</dc:format>
        <dc:type
           rdf:resource="http://purl.org/dc/dcmitype/StillImage" />
        <dc:title></dc:title>
      </cc:Work>
    </rdf:RDF>
  </metadata>
  <g
     inkscape:label="Livello 1"
     inkscape:groupmode="layer"
     id="layer1"
     transform="translate(0,697.625)">
    <rect
       style="fill:#ffffff;fill-opacity:1;stroke:#000000;stroke-width:0.99999994;stroke-miterlimit:4;stroke-opacity:1;stroke-dasharray:none"
       id="rect10815"
       width="899"
       height="299"
       x="0.5"
       y="752.86218" />
    <rect
       style="fill:#00408b;fill-opacity:1;stroke:none"
       id="rect9496"
       width="900"
       height="1350"
       x="0"
       y="-697.625" />
    <g
       style="font-size:639.19543457px;font-style:normal;font-weight:normal;line-height:125%;letter-spacing:0px;word-spacing:0px;fill:#ffffff;fill-opacity:1;stroke:none;font-family:Sans"
       id="text10006"
       transform="matrix(1.3333334,0,0,1.3333334,31.201353,-1285.7747)">
      <path
         d="m 338.83783,527.36219 c 37.92074,4.7e-4 71.58276,13.42757 100.98617,40.28133 31.53545,29.4035 47.30335,65.83547 47.30374,109.29602 -3.9e-4,41.75762 -15.98286,76.91515 -47.94746,105.47271 -29.40341,26.8414 -62.85086,40.262 -100.34245,40.26182 l -102.91733,0 0,154.6881 -94.58797,0 0,-449.99998 z m -102.91733,79.89943 0,132.95764 96.51914,0 c 15.34501,2.6e-4 29.19475,-6.81732 41.54926,-20.45277 12.35395,-13.63488 18.53106,-28.12509 18.53136,-43.47067 -3e-4,-19.16824 -6.81463,-35.78793 -20.44302,-49.85912 -12.3545,-12.783 -25.56703,-19.17469 -39.6376,-19.17508 z"
         style="font-variant:normal;font-stretch:normal;text-align:center;text-anchor:middle;fill:#ffffff;font-family:CodiceBianco;-inkscape-font-specification:CodiceBianco"
         id="path10032"
         inkscape:connector-curvature="0" />
    </g>
    <path
       style="fill:none;stroke:#000000;stroke-width:1px;stroke-linecap:butt;stroke-linejoin:miter;stroke-opacity:1"
       d="M 560,92.374987 z"
       id="path10025"
       inkscape:connector-curvature="0" />
    <rect
       style="fill:none;stroke:#ffffff;stroke-width:16;stroke-miterlimit:4;stroke-opacity:1;stroke-dasharray:none"
       id="rect10597"
       width="868"
       height="1318"
       x="16"
       y="-681.62506"
       rx="62.066509"
       ry="62.066509" />
    <g
       id="Layer1076"
       transform="matrix(-1.7853721,0,0,1.7853721,17739.909,-537.73251)"
       style="fill:#ffffff;fill-opacity:1;stroke:none">
      <path
         inkscape:connector-curvature="0"
         d="m 9674.7188,429.4377 16.1239,-69.8406 c 0.7713,-3.3409 -0.4416,-6.6287 -3.1978,-8.6679 -2.7562,-2.0393 -6.2545,-2.2381 -9.2239,-0.5238 l -136.8883,79.0325 136.8883,79.0322 c 2.9694,1.7144 6.4678,1.5157 9.2241,-0.5237 2.7562,-2.0394 3.9687,-5.327 3.1976,-8.668 z"
         style="fill:#ffffff;fill-opacity:1;fill-rule:evenodd;stroke:none"
         id="path7813" />
      <path
         inkscape:connector-curvature="0"
         d="m 9609.9188,429.4378 h 189.8983"
         style="fill:#ffffff;fill-opacity:1;stroke:none"
         id="path7815" />
    </g>
    <path
       style="fill:none;stroke:#ffffff;stroke-width:80;stroke-miterlimit:4;stroke-opacity:1"
       d="m 466.93582,228.97376 -35.7429,1e-5 c -108.5671,4e-5 -195.9695,87.40244 -195.9696,195.96962 l -1e-4,142.4316"
       id="rect10739"
       inkscape:connector-curvature="0"
       sodipodi:nodetypes="cssc" />
    <g
       style="font-size:156.02458191px;font-style:normal;font-weight:normal;line-height:125%;letter-spacing:0px;word-spacing:0px;fill:#000000;fill-opacity:1;stroke:none;font-family:Sans"
       id="text10850-1">
      <path
         d="m 272.85258,844.40054 c 7.59293,0.31121 14.09395,1.55872 19.50307,3.74254 13.2083,5.40916 20.07278,15.23846 20.59346,29.48792 0.31416,6.86615 -1.29681,12.22282 -4.83292,16.07004 -2.70461,2.184 -5.35835,4.31715 -7.96121,6.39944 9.15467,3.01567 13.73205,10.55628 13.73214,22.62185 -9e-5,9.88172 -2.54907,17.89054 -7.64695,24.02649 -7.07249,8.42785 -18.46197,12.64177 -34.16847,12.64176 -14.87494,10e-6 -26.21205,-4.16153 -34.01134,-12.48463 -5.61858,-6.13595 -9.10399,-14.04161 -10.45624,-23.71699 l 26.52627,-3.74253 c -3e-5,4.78375 1.66411,8.4239 4.99243,10.92048 3.32824,2.49664 7.74928,3.74494 13.26314,3.74491 3.95198,3e-5 7.48817,-1.04035 10.6086,-3.12116 3.1203,-2.08073 4.68048,-4.78447 4.68055,-8.1112 -7e-5,-7.6977 -6.29317,-11.54657 -18.87932,-11.54662 -1.6634,5e-5 -3.58704,0.0524 -5.77093,0.15713 l 0,-22.15522 c 6.9676,7e-5 12.11636,-0.57289 15.44628,-1.7189 5.09474,-1.66327 7.64213,-4.83601 7.6422,-9.51822 -7e-5,-7.07232 -4.68061,-10.60851 -14.04164,-10.60861 -11.64983,10e-5 -17.47472,4.99331 -17.47468,14.97966 l -25.74539,-2.65216 c 0.52058,-6.86598 2.28868,-12.79562 5.3043,-17.78893 7.17714,-11.75125 20.07601,-17.62693 38.69665,-17.62705 z"
         style="font-variant:normal;font-stretch:normal;fill:#000000;font-family:CodiceNero;-inkscape-font-specification:CodiceNero"
         id="path11063"
         inkscape:connector-curvature="0" />
      <path
         d="m 380.0433,844.40054 c 11.64971,1.2e-4 21.47901,3.27603 29.48792,9.82772 11.75444,9.67228 17.6317,25.7423 17.63181,48.21011 -1.1e-4,20.90934 -5.77262,36.30482 -17.31755,46.18648 -8.42475,7.17716 -18.3588,10.76574 -29.80218,10.76573 -10.40232,10e-6 -20.0237,-3.58857 -28.86417,-10.76573 -12.58623,-10.19592 -18.87932,-25.59139 -18.87932,-46.18648 0,-21.32188 5.72172,-36.97606 17.16518,-46.96259 8.31988,-7.38338 18.51264,-11.07512 30.57831,-11.07524 z m -21.37434,57.41408 c -4e-5,9.6754 1.19668,16.9573 3.59016,21.84573 3.32666,7.07243 9.20233,10.60863 17.62705,10.6086 14.56375,3e-5 21.84565,-10.81807 21.84573,-32.45433 -8e-5,-21.63614 -7.17723,-32.45424 -21.53147,-32.45433 -14.35436,9e-5 -21.53151,10.81819 -21.53147,32.45433 z"
         style="font-variant:normal;font-stretch:normal;fill:#000000;font-family:CodiceNero;-inkscape-font-specification:CodiceNero"
         id="path11065"
         inkscape:connector-curvature="0" />
      <path
         d="m 494.31912,844.40054 c 11.64971,1.2e-4 21.47901,3.27603 29.48792,9.82772 11.75444,9.67228 17.6317,25.7423 17.63181,48.21011 -1.1e-4,20.90934 -5.77262,36.30482 -17.31755,46.18648 -8.42475,7.17716 -18.3588,10.76574 -29.80218,10.76573 -10.40232,10e-6 -20.0237,-3.58857 -28.86417,-10.76573 -12.58623,-10.19592 -18.87933,-25.59139 -18.87932,-46.18648 -10e-6,-21.32188 5.72171,-36.97606 17.16518,-46.96259 8.31988,-7.38338 18.51264,-11.07512 30.57831,-11.07524 z m -21.37434,57.41408 c -4e-5,9.6754 1.19668,16.9573 3.59016,21.84573 3.32666,7.07243 9.20233,10.60863 17.62705,10.6086 14.56374,3e-5 21.84565,-10.81807 21.84572,-32.45433 -7e-5,-21.63614 -7.17722,-32.45424 -21.53146,-32.45433 -14.35436,9e-5 -21.53151,10.81819 -21.53147,32.45433 z"
         style="font-variant:normal;font-stretch:normal;fill:#000000;font-family:CodiceNero;-inkscape-font-specification:CodiceNero"
         id="path11067"
         inkscape:connector-curvature="0" />
    </g>
    <g
       style="font-size:127.65647888px;font-style:normal;font-weight:normal;line-height:125%;letter-spacing:0px;word-spacing:0px;fill:#000000;fill-opacity:1;stroke:none;font-family:Sans"
       id="text10879">
      <path
         d="m 611.84119,891.36401 c 6.29551,7e-5 11.86905,2.6375 16.72063,7.9123 l 0.12856,0 c -0.17147,7e-5 0.55184,-0.74467 2.16994,-2.23422 1.61798,-1.48941 3.61781,-2.7445 5.99948,-3.76526 3.31913,-1.36085 7.06425,-2.04131 11.2354,-2.04138 6.63829,7e-5 12.34039,2.3187 17.10631,6.95589 4.76572,4.63732 7.14862,10.02062 7.14873,16.1499 l 0,42.89239 -20.68263,0 0,-39.31997 c -8e-5,-2.12704 -0.72339,-3.93532 -2.16994,-5.42485 -1.44671,-1.48943 -3.48939,-2.23417 -6.12804,-2.23423 -2.46739,6e-5 -4.46722,0.72337 -5.99948,2.16995 -1.5324,1.44667 -2.29857,3.27638 -2.2985,5.48913 l 0,39.31997 -20.80729,0 0,-39.31997 c -5e-5,-2.12704 -0.80842,-3.95675 -2.42512,-5.48913 -1.61678,-1.53229 -3.61596,-2.29845 -5.99753,-2.29851 -2.29854,6e-5 -4.21395,0.76622 -5.74625,2.29851 -1.53237,1.53238 -2.29854,3.36209 -2.29851,5.48913 l 0,39.31997 -20.67873,0 0,-64.72426 18.63735,0 1.53104,3.57631 c 1.95824,-2.04131 4.00092,-3.36068 6.12804,-3.9581 1.78682,-0.50897 4.59566,-0.7635 8.42654,-0.76357 z"
         style="font-variant:normal;font-stretch:normal;fill:#000000;font-family:CodiceNero;-inkscape-font-specification:CodiceNero"
         id="path11070"
         inkscape:connector-curvature="0" />
    </g>
    <rect
       style="fill:none;stroke:#000000;stroke-width:9;stroke-miterlimit:4;stroke-opacity:1;stroke-dasharray:none"
       id="rect10883"
       width="882"
       height="282"
       x="9.0000029"
       y="761.36218"
       rx="31.499998"
       ry="31.499998" />
  </g>
</svg>
