<svg xmlns="http://www.w3.org/2000/svg" width="200" height="200" xmlns:v="https://vecta.io/nano"><defs><clipPath id="A"><path d="M0 0l-11-5.5v11L0 0l.2-11h10z"/></clipPath><clipPath id="B"><path d="M0 0l-11-11v22L0 0v-11h11z"/></clipPath></defs><path d="M-1.588-3.02h207.715v207.348H-1.588V-3.02z" fill="#fff"/><g fill="none"><path d="M21.468 2.404H178.27c10.239 0 18.481 8.314 18.481 18.642v158.169c0 10.328-8.243 18.642-18.481 18.642H21.468c-10.239 0-18.481-8.314-18.481-18.642V21.046c0-10.328 8.243-18.642 18.481-18.642z" stroke="#000" stroke-width="2.997"/><g transform="matrix(2.7176 0 0 2.7176 100.14466 86.871961)" stroke="#fff"><g stroke-width="3"><circle cx="-11" cy="9" r="9"/><circle cx="11" cy="9" r="9"/></g><g stroke-width="2"><circle cx="-11" cy="9" r="9" stroke="#f4c300"/><circle cx="11" cy="9" r="9" stroke="#009f3d"/></g><g stroke-width="3"><circle cx="-22" cy="0" r="9"/><circle cx="0" cy="0" r="9"/><circle cx="22" cy="0" r="9"/></g><g stroke-width="2"><circle cx="-22" cy="0" r="9" stroke="#0085c7"/><circle cx="0" cy="0" r="9" stroke="#000"/><circle cx="22" cy="0" r="9" stroke="#df0024"/></g><g transform="translate(-11 9)"><circle r="9" clip-path="url(#A)" cx="0" cy="0" stroke-width="3"/><circle r="9" clip-path="url(#B)" cx="0" cy="0" stroke="#f4c300" stroke-width="2"/></g><g transform="translate(11 9)"><circle r="9" clip-path="url(#A)" cx="0" cy="0" stroke-width="3"/><circle r="9" clip-path="url(#B)" cx="0" cy="0" stroke="#009f3d" stroke-width="2"/></g></g></g></svg>