<svg xmlns="http://www.w3.org/2000/svg" width="400" height="600" xmlns:v="https://vecta.io/nano"><g stroke="#000"><path d="M.5.5h399v399H.5z" fill="#fff"/><rect width="388" height="388" x="6" y="6" rx="21" fill="none" stroke-width="6"/></g><path d="M176.585 125.203v27.394l-33.592 122.612h-34.885l32.527-118.55h-34.663v-31.456zm59.275 0h37.875v94.153h10.912v30.816h-10.266v24.821h-33.814v-24.822H192.21v-19.904zm-9.841 93.944h14.125V186.62z"/><path d="M0 400h400v200H0z" fill="#00408b" fill-rule="evenodd"/><path d="M66.917 453.581c11.105.258 19.111 5.939 24.018 17.043l-13.3 8.394c-3.187-6.113-6.888-9.17-11.105-9.17-1.894 0-3.508.667-4.843 2.002s-2.089 3.078-2.262 5.229c-.171 1.723.519 3.489 2.069 5.296.515.602 2.022 1.98 4.52 4.134 6.541 5.078 13.945 11.362 22.209 18.852 3.271 4.132 4.906 9.169 4.906 15.108 0 6.799-2.066 12.652-6.199 17.559-4.65 5.422-10.805 8.264-18.466 8.524-11.362.344-19.584-6.027-24.664-19.112l13.82-7.877c2.927 7.146 6.413 10.719 10.458 10.719 1.206 0 2.41-.301 3.614-.902 3.1-1.55 4.65-4.176 4.65-7.877 0-2.669-.947-4.907-2.841-6.715L59.04 502.65c-7.146-5.94-11.45-10.244-12.913-12.913-2.238-3.875-3.357-7.921-3.357-12.137 0-6.544 2.454-12.226 7.361-17.047s10.503-7.144 16.787-6.971zm58.511 0c11.105.258 19.111 5.939 24.018 17.043l-13.3 8.394c-3.187-6.113-6.888-9.17-11.105-9.17-1.894 0-3.508.667-4.843 2.002s-2.089 3.078-2.262 5.229c-.171 1.723.519 3.489 2.069 5.296.515.602 2.022 1.98 4.52 4.134 6.541 5.078 13.945 11.362 22.209 18.852 3.271 4.132 4.906 9.169 4.906 15.108 0 6.799-2.066 12.652-6.199 17.559-4.65 5.422-10.805 8.264-18.466 8.524-11.362.344-19.584-6.027-24.664-19.112l13.82-7.877c2.927 7.146 6.413 10.719 10.458 10.719 1.206 0 2.41-.301 3.614-.902 3.1-1.55 4.65-4.176 4.65-7.877 0-2.669-.947-4.907-2.841-6.715L117.55 502.65c-7.146-5.94-11.45-10.244-12.913-12.913-2.238-3.875-3.357-7.921-3.357-12.137 0-6.544 2.454-12.226 7.361-17.047s10.503-7.144 16.787-6.971zm109.612 23.888c.084 4.647-1.553 10.631-4.91 17.95-2.152 4.561-5.681 10.887-10.588 18.978-4.647 7.577-7.445 12.527-8.394 14.852h22.6v16.141h-43.776v-13.56c.26-.946 2.757-5.078 7.491-12.397 5.682-8.78 9.9-15.795 12.653-21.047 4.477-8.522 6.715-15.15 6.715-19.884 0-2.152-.602-3.895-1.807-5.229s-2.625-2.002-4.262-2.002c-2.065 0-3.787.99-5.166 2.971-1.634 2.152-2.451 5.25-2.451 9.296h-15.238c.257-9.555 2.84-16.914 7.747-22.079 4.306-4.563 9.643-6.845 16.011-6.845 6.113 0 11.408 2.023 15.885 6.069 4.821 4.303 7.318 9.899 7.491 16.787zM291.249 455v58.365h6.585v16.141h-6.585v15.755h-17.303v-15.755h-29.827v-10.458L270.588 455zm-17.563 28.794l-12.783 29.961h12.783zm34.287-4.26c0-8.178 2.454-14.677 7.361-19.498 4.39-4.39 9.899-6.585 16.527-6.585 5.853 0 10.975 2.066 15.365 6.199 4.907 4.734 7.361 11.018 7.361 18.852 0 5.509-1.463 10.243-4.39 14.202-2.068 2.843-4.262 4.737-6.585 5.682 3.184.431 6.154 2.54 8.91 6.329 3.013 4.303 4.52 9.468 4.52 15.495 0 7.747-2.454 14.203-7.361 19.368s-10.891 7.747-17.95 7.747c-6.197 0-11.663-1.936-16.397-5.808-6.027-4.907-9.04-11.923-9.04-21.047 0-11.365 3.959-18.726 11.877-22.083-6.799-3.184-10.198-9.468-10.198-18.852zm17.429-.776c0 8.094 1.937 12.141 5.812 12.141 3.959 0 5.938-4.047 5.939-12.141 0-6.972-1.936-10.458-5.808-10.458-1.55 0-2.885.818-4.004 2.455-1.293 1.894-1.939 4.562-1.939 8.003zm-.126 40.033c0 8.176 2.152 12.263 6.455 12.263 4.046 0 6.069-4.131 6.069-12.393 0-8.696-2.152-13.043-6.455-13.043-1.807 0-3.271 1.205-4.39 3.616s-1.679 5.596-1.679 9.558z" fill="#fff"/><rect width="388" height="188" x="6" y="406" rx="21" fill="none" stroke="#fff" stroke-width="6"/></svg>