<?xml version="1.0" encoding="UTF-8" standalone="no"?>
<!-- Created with Inkscape (http://www.inkscape.org/) -->

<svg
   width="158.75mm"
   height="238.125mm"
   viewBox="0 0 158.75 238.125"
   version="1.1"
   id="svg5937"
   inkscape:version="1.2.1 (9c6d41e410, 2022-07-14)"
   sodipodi:docname="Segnale stradale italiano - bar (figura II 366).svg"
   xmlns:inkscape="http://www.inkscape.org/namespaces/inkscape"
   xmlns:sodipodi="http://sodipodi.sourceforge.net/DTD/sodipodi-0.dtd"
   xmlns="http://www.w3.org/2000/svg"
   xmlns:svg="http://www.w3.org/2000/svg">
  <sodipodi:namedview
     id="namedview5939"
     pagecolor="#ffffff"
     bordercolor="#000000"
     borderopacity="0.25"
     inkscape:showpageshadow="2"
     inkscape:pageopacity="0.0"
     inkscape:pagecheckerboard="0"
     inkscape:deskcolor="#d1d1d1"
     inkscape:document-units="mm"
     showgrid="false"
     inkscape:zoom="0.76257015"
     inkscape:cx="102.94135"
     inkscape:cy="382.25992"
     inkscape:window-width="1920"
     inkscape:window-height="991"
     inkscape:window-x="-9"
     inkscape:window-y="-9"
     inkscape:window-maximized="1"
     inkscape:current-layer="layer1" />
  <defs
     id="defs5934" />
  <g
     inkscape:label="Livello 1"
     inkscape:groupmode="layer"
     id="layer1"
     transform="translate(-78.14603,-11.395432)">
    <g
       id="g5916"
       transform="translate(635.4426,-550.25325)">
      <rect
         style="fill:#234f86;fill-rule:evenodd;stroke-width:29.4791;paint-order:markers fill stroke"
         id="rect3812-6-0"
         width="158.75"
         height="238.125"
         x="-557.29657"
         y="561.64868" />
      <rect
         style="fill:none;fill-rule:evenodd;stroke:#ffffff;stroke-width:3.175;paint-order:markers fill stroke"
         id="rect3812-0-8-2"
         width="152.39999"
         height="231.77499"
         x="-554.12158"
         y="564.82367"
         ry="10.31875"
         rx="10.31875" />
      <rect
         style="fill:#ffffff;fill-rule:evenodd;stroke-width:4.84527;paint-order:markers fill stroke"
         id="rect10936-6-3"
         width="119.0625"
         height="119.0625"
         x="-537.45282"
         y="581.49237" />
      <g
         id="g5907">
        <path
           id="rect4142-1"
           style="fill:#000000;fill-rule:evenodd;stroke-width:11.0972;paint-order:markers fill stroke"
           d="m -503.75286,606.17306 v 41.00155 c 0,6.20808 4.99739,11.20711 11.2055,11.20711 h 27.33707 c 6.20808,0 11.20711,-4.99903 11.20711,-11.20711 v -41.00155 z" />
        <path
           id="rect5662-3"
           style="fill:#000000;fill-rule:evenodd;stroke-width:8.92735;stroke-opacity:0.329231;paint-order:markers fill stroke"
           d="m -525.82349,664.24583 c 0,6.45845 5.18325,11.66159 11.63379,11.69404 h 73.7598 c 6.4506,-0.0324 11.63539,-5.23553 11.63539,-11.69404 z" />
        <path
           id="rect5450-2"
           style="color:#000000;fill:#000000;fill-rule:evenodd;stroke-width:3.15127;paint-order:markers fill stroke"
           d="m -450.24957,606.17596 v 5.711 h 6.75165 c 0.76888,0 1.29788,0.529 1.29788,1.29788 v 11.81773 c 0,0.76885 -0.529,1.29949 -1.29788,1.29949 h -6.75165 v 5.71752 h 6.75165 c 3.83551,0 7.01055,-3.18153 7.01055,-7.01701 v -11.81773 c 0,-3.83548 -3.17504,-7.00888 -7.01055,-7.00888 z" />
      </g>
    </g>
  </g>
</svg>
