<?xml version="1.0" encoding="UTF-8" standalone="no"?>
<!-- Created with Inkscape (http://www.inkscape.org/) -->

<svg
   xmlns:dc="http://purl.org/dc/elements/1.1/"
   xmlns:cc="http://creativecommons.org/ns#"
   xmlns:rdf="http://www.w3.org/1999/02/22-rdf-syntax-ns#"
   xmlns:svg="http://www.w3.org/2000/svg"
   xmlns="http://www.w3.org/2000/svg"
   xmlns:sodipodi="http://sodipodi.sourceforge.net/DTD/sodipodi-0.dtd"
   xmlns:inkscape="http://www.inkscape.org/namespaces/inkscape"
   version="1.1"
   width="200"
   height="200"
   id="svg2"
   inkscape:version="0.47 r22583"
   sodipodi:docname="Italian traffic signs - icona taxi.svg"
   sodipodi:version="0.32"
   inkscape:output_extension="org.inkscape.output.svg.inkscape">
  <metadata
     id="metadata2877">
    <rdf:RDF>
      <cc:Work
         rdf:about="">
        <dc:format>image/svg+xml</dc:format>
        <dc:type
           rdf:resource="http://purl.org/dc/dcmitype/StillImage" />
        <dc:title></dc:title>
      </cc:Work>
    </rdf:RDF>
  </metadata>
  <sodipodi:namedview
     pagecolor="#ffffff"
     bordercolor="#666666"
     borderopacity="1"
     objecttolerance="10"
     gridtolerance="10"
     guidetolerance="10"
     inkscape:pageopacity="0"
     inkscape:pageshadow="2"
     inkscape:window-width="1600"
     inkscape:window-height="838"
     id="namedview2875"
     showgrid="false"
     inkscape:zoom="2.3765092"
     inkscape:cx="174.31694"
     inkscape:cy="105.44553"
     inkscape:window-x="-8"
     inkscape:window-y="-8"
     inkscape:window-maximized="1"
     inkscape:current-layer="svg2" />
  <defs
     id="defs4">
    <inkscape:perspective
       sodipodi:type="inkscape:persp3d"
       inkscape:vp_x="0 : 100 : 1"
       inkscape:vp_y="0 : 1000 : 0"
       inkscape:vp_z="200 : 100 : 1"
       inkscape:persp3d-origin="100 : 66.666667 : 1"
       id="perspective2879" />
    <inkscape:perspective
       id="perspective2839"
       inkscape:persp3d-origin="0.5 : 0.33333333 : 1"
       inkscape:vp_z="1 : 0.5 : 1"
       inkscape:vp_y="0 : 1000 : 0"
       inkscape:vp_x="0 : 0.5 : 1"
       sodipodi:type="inkscape:persp3d" />
    <inkscape:perspective
       id="perspective3649"
       inkscape:persp3d-origin="0.5 : 0.33333333 : 1"
       inkscape:vp_z="1 : 0.5 : 1"
       inkscape:vp_y="0 : 1000 : 0"
       inkscape:vp_x="0 : 0.5 : 1"
       sodipodi:type="inkscape:persp3d" />
    <inkscape:perspective
       id="perspective3679"
       inkscape:persp3d-origin="0.5 : 0.33333333 : 1"
       inkscape:vp_z="1 : 0.5 : 1"
       inkscape:vp_y="0 : 1000 : 0"
       inkscape:vp_x="0 : 0.5 : 1"
       sodipodi:type="inkscape:persp3d" />
    <inkscape:perspective
       id="perspective3713"
       inkscape:persp3d-origin="0.5 : 0.33333333 : 1"
       inkscape:vp_z="1 : 0.5 : 1"
       inkscape:vp_y="0 : 1000 : 0"
       inkscape:vp_x="0 : 0.5 : 1"
       sodipodi:type="inkscape:persp3d" />
  </defs>
  <path
     style="fill:#ffffff;fill-opacity:1;stroke:none"
     d="m 0,-0.61582947 200.9709,0 L 200.9709,200 0,200 0,-0.61582947 z"
     id="rect2881" />
  <path
     style="fill:none;stroke:#000000;stroke-width:3;stroke-miterlimit:4;stroke-opacity:1"
     d="m 21.814432,2.8621521 157.645218,0 c 10.29357,0 18.58045,8.2868829 18.58045,18.5804539 l 0,157.645234 c 0,10.29357 -8.28688,18.58045 -18.58045,18.58045 l -157.645218,0 c -10.293571,0 -18.5804535,-8.28688 -18.5804535,-18.58045 l 0,-157.645234 c 0,-10.293571 8.2868825,-18.5804539 18.5804535,-18.5804539 z"
     id="rect4614" />
  <path
     style="fill:#000000"
     d="m 24.013026,115.22486 0.01038,-14.90019 9.505167,-14.860185 9.505167,-14.860183 16.605556,-0.04001 16.605556,-0.04001 0,29.800388 0,29.80038 -9.245906,0 -9.245905,0 -0.506401,-2.82915 c -1.576836,-8.80944 -11.054827,-13.96263 -19.286171,-10.48593 -3.401673,1.43678 -7.080742,5.96818 -8.06998,9.93956 -0.788281,3.16462 -0.99848,3.37552 -3.364325,3.37552 l -2.523511,0 0.01037,-14.90019 z m 48.500244,-27.725673 0,-12.44826 -13.072758,0 -13.072758,0 -7.824121,11.984317 c -4.303268,6.591377 -7.824123,12.193094 -7.824123,12.448261 0,0.255167 9.403596,0.463943 20.89688,0.463943 l 20.89688,0 0,-12.448261 z m 8.209488,10.184941 0,-31.686482 -22.05159,0 -22.05159,0 4.326558,-6.412682 4.326558,-6.412682 27.810971,-5.8e-5 27.810975,-5.8e-5 9.6808,4.90386 9.68081,4.90386 27.59058,0 27.59056,0 0.37189,2.45193 c 0.34247,2.258001 1.95112,27.910917 1.9397,30.932042 -0.004,1.237764 -2.10369,1.32027 -33.58927,1.32027 l -33.58427,0 0,1.8861 0,1.886102 33.65431,0 33.6543,0 -0.42497,3.58359 c -0.23373,1.97097 -0.78007,7.48782 -1.21407,12.25965 -1.24049,13.63925 0.73557,12.07104 -15.21039,12.07104 l -13.69565,0 -0.91844,-3.31602 c -1.14441,-4.13193 -5.27809,-8.299 -9.46313,-9.53955 -7.32967,-2.1727 -14.6031,1.69925 -17.22839,9.17136 l -1.29443,3.68421 -18.855911,0 -18.855911,0 0,-31.686482 z m 25.374782,0.75444 0,-26.405402 -10.075281,0 -10.075281,0 0,26.405402 0,26.405402 10.075281,0 10.075281,0 0,-26.405402 z m 64.18327,-16.220461 0,-10.184941 -19.40424,0 -19.40425,0 0,10.184941 0,10.18494 19.40425,0 19.40424,0 0,-10.18494 z"
     id="path3727"
     sodipodi:nodetypes="cccccccccccssccccccccsccccccccccccccccscccccccscccsccccccccccccccccccccccc" />
  <path
     sodipodi:type="arc"
     style="fill:none;stroke:#000000;stroke-width:10.63480473;stroke-miterlimit:4;stroke-opacity:1;stroke-dasharray:none"
     id="path3729"
     sodipodi:cx="255.83743"
     sodipodi:cy="116.89491"
     sodipodi:rx="13.465128"
     sodipodi:ry="13.254735"
     d="m 269.30256,116.89491 a 13.465128,13.254735 0 1 1 -26.93026,0 13.465128,13.254735 0 1 1 26.93026,0 z"
     transform="matrix(0.57717275,0,0,0.57717275,-13.852683,63.677087)" />
  <path
     transform="matrix(0.57717275,0,0,0.57717275,-103.85268,63.677087)"
     d="m 269.30256,116.89491 a 13.465128,13.254735 0 1 1 -26.93026,0 13.465128,13.254735 0 1 1 26.93026,0 z"
     sodipodi:ry="13.254735"
     sodipodi:rx="13.465128"
     sodipodi:cy="116.89491"
     sodipodi:cx="255.83743"
     id="path3731"
     style="fill:none;stroke:#000000;stroke-width:10.63480473;stroke-miterlimit:4;stroke-opacity:1;stroke-dasharray:none"
     sodipodi:type="arc" />
</svg>
