<?xml version="1.0" encoding="UTF-8" standalone="no"?>
<!-- Created with Inkscape (http://www.inkscape.org/) -->

<svg
   xmlns:dc="http://purl.org/dc/elements/1.1/"
   xmlns:cc="http://creativecommons.org/ns#"
   xmlns:rdf="http://www.w3.org/1999/02/22-rdf-syntax-ns#"
   xmlns:svg="http://www.w3.org/2000/svg"
   xmlns="http://www.w3.org/2000/svg"
   xmlns:sodipodi="http://sodipodi.sourceforge.net/DTD/sodipodi-0.dtd"
   xmlns:inkscape="http://www.inkscape.org/namespaces/inkscape"
   width="400"
   height="200"
   id="svg12429"
   version="1.1"
   inkscape:version="0.48.5 r10040"
   sodipodi:docname="Strada regionale caricare.svg">
  <defs
     id="defs12431" />
  <sodipodi:namedview
     id="base"
     pagecolor="#ffffff"
     bordercolor="#666666"
     borderopacity="1.0"
     inkscape:pageopacity="0.0"
     inkscape:pageshadow="2"
     inkscape:zoom="0.49497475"
     inkscape:cx="341.10227"
     inkscape:cy="-75.202432"
     inkscape:document-units="px"
     inkscape:current-layer="text12255"
     showgrid="false"
     fit-margin-top="0"
     fit-margin-left="0"
     fit-margin-right="0"
     fit-margin-bottom="0"
     inkscape:window-width="1366"
     inkscape:window-height="705"
     inkscape:window-x="-8"
     inkscape:window-y="-8"
     inkscape:window-maximized="1" />
  <metadata
     id="metadata12434">
    <rdf:RDF>
      <cc:Work
         rdf:about="">
        <dc:format>image/svg+xml</dc:format>
        <dc:type
           rdf:resource="http://purl.org/dc/dcmitype/StillImage" />
        <dc:title></dc:title>
      </cc:Work>
    </rdf:RDF>
  </metadata>
  <g
     inkscape:label="Livello 1"
     inkscape:groupmode="layer"
     id="layer1"
     transform="translate(0,-852.36218)">
    <g
       style="font-size:128.20588684px;font-style:normal;font-weight:normal;line-height:125%;letter-spacing:0px;word-spacing:0px;fill:#ffffff;fill-opacity:1;stroke:none;font-family:Sans"
       id="text12255">
      <rect
         style="fill:#00408b;fill-opacity:1;fill-rule:evenodd;stroke:none"
         id="rect12247"
         width="400"
         height="200"
         x="0"
         y="852.36218" />
      <rect
         rx="21.071428"
         style="fill:none;stroke:#ffffff;stroke-width:6;stroke-miterlimit:4;stroke-opacity:1;stroke-dasharray:none"
         id="rect12249"
         width="388"
         height="188"
         x="6"
         y="858.36218"
         ry="21.071428" />
      <g
         style="line-height:125%;fill:#ffffff;font-family:Sans"
         id="text12255-1">
        <path
           d="m 117.46402,906.33697 c 11.02548,0.25572 18.97443,5.89628 23.84689,16.92171 l -13.2048,8.3337 c -3.16397,-6.06957 -6.83914,-9.10439 -11.02552,-9.10447 -1.88065,8e-5 -3.48348,0.6626 -4.8085,1.98757 -1.32507,1.32512 -2.07367,3.05576 -2.2458,5.19193 -0.16956,1.71115 0.51513,3.46396 2.05408,5.25844 0.51122,0.59738 2.00711,1.96547 4.48768,4.10425 6.49477,5.04201 13.84511,11.28119 22.05103,18.71756 3.24735,4.10298 4.87105,9.1032 4.87111,15.00065 -6e-5,6.75045 -2.05153,12.56186 -6.15442,17.43425 -4.61683,5.38365 -10.7282,8.20459 -18.33413,8.46281 -11.28115,0.3417 -19.443993,-5.98356 -24.488543,-18.97579 l 13.721253,-7.82115 c 2.90569,7.09475 6.36697,10.64211 10.38386,10.64209 1.19721,2e-5 2.39314,-0.29864 3.5878,-0.89597 3.07782,-1.53891 4.61675,-4.14596 4.61679,-7.82115 -4e-5,-2.65006 -0.94035,-4.87238 -2.82094,-6.66696 -4.78636,-4.01683 -9.57269,-8.03369 -14.359,-12.0506 -7.09474,-5.89744 -11.368523,-10.17123 -12.821368,-12.82137 -2.222324,-3.84726 -3.333482,-7.86413 -3.333478,-12.05061 -4e-6,-6.49733 2.436197,-12.1392 7.308616,-16.92562 4.87239,-4.78623 10.42818,-7.09332 16.66739,-6.92127 z"
           style="font-variant:normal;font-stretch:normal;text-align:center;text-anchor:middle;fill:#ffffff;font-family:CodiceBiancoCondensed;-inkscape-font-specification:CodiceBiancoCondensed"
           id="path12939" />
        <path
           d="m 175.55731,906.33697 c 11.02548,0.25572 18.97443,5.89628 23.84689,16.92171 l -13.2048,8.3337 c -3.16397,-6.06957 -6.83914,-9.10439 -11.02552,-9.10447 -1.88065,8e-5 -3.48348,0.6626 -4.8085,1.98757 -1.32507,1.32512 -2.07367,3.05576 -2.2458,5.19193 -0.16956,1.71115 0.51513,3.46396 2.05408,5.25844 0.51122,0.59738 2.00711,1.96547 4.48768,4.10425 6.49477,5.04201 13.84511,11.28119 22.05104,18.71756 3.24735,4.10298 4.87105,9.1032 4.8711,15.00065 -5e-5,6.75045 -2.05152,12.56186 -6.15441,17.43425 -4.61684,5.38365 -10.72821,8.20459 -18.33414,8.46281 -11.28115,0.3417 -19.44399,-5.98356 -24.48854,-18.97579 l 13.72125,-7.82115 c 2.90569,7.09475 6.36697,10.64211 10.38387,10.64209 1.1972,2e-5 2.39313,-0.29864 3.58779,-0.89597 3.07782,-1.53891 4.61675,-4.14596 4.61679,-7.82115 -4e-5,-2.65006 -0.94035,-4.87238 -2.82094,-6.66696 -4.78636,-4.01683 -9.57269,-8.03369 -14.35899,-12.0506 -7.09474,-5.89744 -11.36853,-10.17123 -12.82138,-12.82137 -2.22232,-3.84726 -3.33348,-7.86413 -3.33347,-12.05061 -1e-5,-6.49733 2.43619,-12.1392 7.30861,-16.92562 4.87239,-4.78623 10.42818,-7.09332 16.66739,-6.92127 z"
           style="font-variant:normal;font-stretch:normal;text-align:center;text-anchor:middle;fill:#ffffff;font-family:CodiceBiancoCondensed;-inkscape-font-specification:CodiceBiancoCondensed"
           id="path12941" />
        <path
           d="m 309.20944,930.05475 c 0.0834,4.61425 -1.54158,10.55477 -4.87501,17.82159 -2.13629,4.52815 -5.64061,10.80907 -10.51298,18.84276 -4.61421,7.52252 -7.39211,12.43796 -8.33369,14.74634 l 22.43837,0 0,16.02573 -43.46433,0 0,-13.46303 c 0.25822,-0.93898 2.73746,-5.04192 7.43773,-12.30882 5.64185,-8.71709 9.82956,-15.68269 12.56314,-20.89684 4.44461,-8.46145 6.66693,-15.04232 6.66696,-19.74265 -3e-5,-2.13617 -0.598,-3.86681 -1.7939,-5.19193 -1.19596,-1.32496 -2.60643,-1.98749 -4.2314,-1.98757 -2.0502,8e-5 -3.75997,0.98343 -5.12933,2.95005 -1.62242,2.13632 -2.43362,5.21287 -2.4336,9.22967 l -15.12976,0 c 0.25561,-9.48651 2.81962,-16.79381 7.69204,-21.92192 4.27507,-4.53062 9.57394,-6.79598 15.89662,-6.79607 6.06961,9e-5 11.32674,2.00852 15.77142,6.0253 4.78628,4.27257 7.26552,9.82836 7.43772,16.66739 z"
           style="font-variant:normal;font-stretch:normal;text-align:center;text-anchor:middle;fill:#ffffff;font-family:CodiceBiancoCondensed;-inkscape-font-specification:CodiceBiancoCondensed"
           id="path12943" />
      </g>
    </g>
  </g>
</svg>
