<?xml version="1.0" encoding="UTF-8" standalone="no"?>
<!-- Created with Inkscape (http://www.inkscape.org/) -->

<svg
   width="238.65416mm"
   height="159.27916mm"
   viewBox="0 0 238.65416 159.27916"
   version="1.1"
   id="svg14214"
   inkscape:version="1.2.1 (9c6d41e410, 2022-07-14)"
   sodipodi:docname="Segnale stradale italiano - polizia di stato (figura II 378).svg"
   xmlns:inkscape="http://www.inkscape.org/namespaces/inkscape"
   xmlns:sodipodi="http://sodipodi.sourceforge.net/DTD/sodipodi-0.dtd"
   xmlns="http://www.w3.org/2000/svg"
   xmlns:svg="http://www.w3.org/2000/svg">
  <sodipodi:namedview
     id="namedview14216"
     pagecolor="#ffffff"
     bordercolor="#000000"
     borderopacity="0.25"
     inkscape:showpageshadow="2"
     inkscape:pageopacity="0.0"
     inkscape:pagecheckerboard="0"
     inkscape:deskcolor="#d1d1d1"
     inkscape:document-units="mm"
     showgrid="false"
     inkscape:zoom="0.76257015"
     inkscape:cx="377.0145"
     inkscape:cy="26.882773"
     inkscape:window-width="1920"
     inkscape:window-height="991"
     inkscape:window-x="-9"
     inkscape:window-y="-9"
     inkscape:window-maximized="1"
     inkscape:current-layer="layer1" />
  <defs
     id="defs14211" />
  <g
     inkscape:label="Livello 1"
     inkscape:groupmode="layer"
     id="layer1"
     transform="translate(-5.5794438,4.0017025)">
    <g
       id="g5645"
       transform="translate(-73.5561,-1595.3341)">
      <rect
         style="fill:#000000;fill-rule:evenodd;stroke-width:29.5609;paint-order:markers fill stroke"
         id="rect3812-8-5-6-9-6"
         width="159.27916"
         height="238.65416"
         x="1591.3324"
         y="-317.7897"
         transform="rotate(90)" />
      <rect
         style="fill:#ffffff;fill-rule:evenodd;stroke-width:29.4791;paint-order:markers fill stroke"
         id="rect3812-8-5-0"
         width="158.75"
         height="238.125"
         x="1591.5969"
         y="-317.52512"
         transform="rotate(90)" />
      <rect
         style="fill:none;fill-rule:evenodd;stroke:#000000;stroke-width:3.175;paint-order:markers fill stroke"
         id="rect3812-0-2-3-6"
         width="152.39999"
         height="231.77499"
         x="1594.7719"
         y="-314.35013"
         ry="10.31875"
         rx="10.31875"
         transform="rotate(90)" />
      <g
         aria-label="localita'"
         id="text16023-1-8"
         style="font-size:3.175px;font-family:'Stradale Stretto Positivo';-inkscape-font-specification:'Stradale Stretto Positivo';fill:#000000;fill-rule:evenodd;stroke-width:0.293013;stroke-linecap:round;paint-order:markers fill stroke"
         transform="matrix(4.1406528,0,0,4.1406528,-1389.217,-2240.3178)">
        <path
           d="m 358.86734,941.11177 h 0.56741 v 1.86345 q 0,0.11317 0.0884,0.12557 0.0899,0.0109 0.22944,-0.0465 l 0.0481,0.524 q -0.15348,0.0481 -0.31781,0.0496 -0.16278,0.002 -0.30076,-0.0512 -0.13797,-0.0527 -0.22634,-0.16123 -0.0884,-0.11007 -0.0884,-0.28835 z"
           style="-inkscape-font-specification:'Stradale Normale Positivo'"
           id="path16171-1-3" />
        <path
           d="m 360.84246,943.12095 q 0.17363,-0.003 0.262,-0.11782 0.0899,-0.11473 0.0899,-0.30076 0,-0.0868 -0.0232,-0.16278 -0.0217,-0.076 -0.0651,-0.13488 -0.0419,-0.0589 -0.10852,-0.0915 -0.0667,-0.0341 -0.15503,-0.0341 -0.093,0 -0.15813,0.0357 -0.0651,0.0341 -0.10697,0.0915 -0.0403,0.0574 -0.0589,0.13333 -0.0186,0.076 -0.0186,0.16278 0,0.0853 0.0186,0.16123 0.0186,0.076 0.0589,0.13332 0.0419,0.0574 0.10697,0.0915 0.0651,0.0326 0.15813,0.0326 z m 0.0124,0.50539 q -0.19379,-0.008 -0.35347,-0.0775 -0.15813,-0.0698 -0.2713,-0.19069 -0.11162,-0.12247 -0.17363,-0.28525 -0.062,-0.16433 -0.062,-0.35502 0,-0.19689 0.0574,-0.36277 0.0574,-0.16743 0.16588,-0.2868 0.11007,-0.11937 0.2682,-0.18604 0.15968,-0.0667 0.35967,-0.0667 0.19068,0 0.35036,0.0698 0.16124,0.0698 0.27441,0.19224 0.11472,0.12247 0.17828,0.28835 0.0636,0.16434 0.0636,0.35812 0,0.18449 -0.0651,0.35037 -0.0651,0.16433 -0.17983,0.28835 -0.11318,0.12248 -0.27131,0.19534 -0.15657,0.0713 -0.34106,0.0682 z"
           style="-inkscape-font-specification:'Stradale Normale Positivo'"
           id="path16173-6-7" />
        <path
           d="m 363.56942,943.02173 q -0.008,0.0294 -0.0264,0.0729 -0.0186,0.0419 -0.0481,0.0868 -0.0279,0.045 -0.0589,0.0884 -0.0295,0.0419 -0.0543,0.0729 -0.009,0.0124 -0.0574,0.0589 -0.0481,0.0465 -0.12403,0.0961 -0.076,0.0481 -0.18138,0.0884 -0.10387,0.0403 -0.23099,0.0403 -0.16899,0 -0.32712,-0.0698 -0.15658,-0.0713 -0.27595,-0.19069 -0.11782,-0.12092 -0.19068,-0.2868 -0.0729,-0.16743 -0.0729,-0.36432 0,-0.16588 0.0496,-0.32556 0.0512,-0.16123 0.15503,-0.28681 0.10542,-0.12712 0.2651,-0.20618 0.16123,-0.0806 0.38137,-0.0806 0.30386,0 0.4992,0.15348 0.19533,0.15193 0.2868,0.40618 l -0.46974,0.16743 q -0.0248,-0.0574 -0.0512,-0.10697 -0.0248,-0.0512 -0.0605,-0.0884 -0.0341,-0.0388 -0.0853,-0.0589 -0.0496,-0.0217 -0.11938,-0.0217 -0.093,0 -0.15503,0.0387 -0.062,0.0372 -0.10387,0.0992 -0.0403,0.062 -0.0574,0.14108 -0.0171,0.0791 -0.0171,0.16588 0,0.0791 0.0186,0.15813 0.0186,0.0791 0.0574,0.14263 0.0403,0.0636 0.10232,0.10387 0.062,0.0387 0.14728,0.0387 0.0605,0 0.11472,-0.0248 0.0543,-0.0248 0.0961,-0.0682 0.0434,-0.0434 0.0713,-0.0977 0.0295,-0.0558 0.0388,-0.11627 z"
           style="-inkscape-font-specification:'Stradale Normale Positivo'"
           id="path16175-7-6" />
        <path
           d="m 364.78656,942.845 q -0.0419,0.0341 -0.10387,0.0449 -0.062,0.009 -0.12558,0.0155 -0.10386,0.0124 -0.15657,0.0512 -0.0527,0.0372 -0.0527,0.0853 0,0.0729 0.0589,0.0977 0.0589,0.0233 0.13177,0.0233 0.0403,0 0.0853,-0.008 0.045,-0.009 0.0791,-0.0279 0.0357,-0.0186 0.0589,-0.0496 0.0248,-0.0326 0.0248,-0.0806 z m -0.25735,-1.0294 h 0.0822 q 0.24804,0 0.41857,0.0713 0.17209,0.0713 0.25115,0.2248 0.009,0.0248 0.0202,0.0496 0.0124,0.0232 0.0217,0.0589 0.009,0.0341 0.0155,0.0899 0.006,0.0558 0.006,0.14108 v 0.59376 q 0,0.0977 0.0388,0.12558 0.0403,0.0263 0.14573,0.0263 l -0.17208,0.42943 q -0.12403,0 -0.24495,-0.0465 -0.11937,-0.0465 -0.20309,-0.11007 -0.10077,0.0729 -0.22324,0.11472 -0.12247,0.0419 -0.2434,0.0419 -0.13022,0 -0.24494,-0.0388 -0.11317,-0.0388 -0.19999,-0.11008 -0.0853,-0.0713 -0.13643,-0.17363 -0.0496,-0.10387 -0.0496,-0.23409 0,-0.13023 0.0357,-0.21859 0.0372,-0.0884 0.10077,-0.15038 0.0636,-0.062 0.15348,-0.10232 0.0915,-0.0403 0.19534,-0.0744 0.0992,-0.0294 0.18603,-0.0403 0.0868,-0.0109 0.15348,-0.0202 0.0667,-0.009 0.10542,-0.0217 0.0388,-0.014 0.0388,-0.045 0,-0.0481 -0.0403,-0.0713 -0.0403,-0.0233 -0.0992,-0.031 -0.0574,-0.009 -0.12402,0 -0.0667,0.008 -0.12093,0.0233 -0.0636,0.0155 -0.13642,0.0589 -0.0729,0.0419 -0.16588,0.10852 l -0.25425,-0.38758 q 0.15038,-0.13642 0.32711,-0.20929 0.17828,-0.0729 0.36277,-0.0729 z"
           style="-inkscape-font-specification:'Stradale Normale Positivo'"
           id="path16177-4-3" />
        <path
           d="m 365.7627,941.11177 h 0.56741 v 1.86345 q 0,0.11317 0.0884,0.12557 0.0899,0.0109 0.22945,-0.0465 l 0.048,0.524 q -0.15347,0.0481 -0.31781,0.0496 -0.16278,0.002 -0.30075,-0.0512 -0.13798,-0.0527 -0.22635,-0.16123 -0.0884,-0.11007 -0.0884,-0.28835 z"
           style="-inkscape-font-specification:'Stradale Normale Positivo'"
           id="path16179-7-3" />
        <path
           d="m 367.45538,941.84196 v 1.74563 h -0.5457 v -1.74563 z m -0.27595,-0.71159 q 0.13333,0 0.22169,0.0899 0.0884,0.0884 0.0884,0.22169 0,0.0636 -0.0248,0.11937 -0.0248,0.0543 -0.0682,0.0961 -0.0434,0.0403 -0.0992,0.0667 -0.0543,0.0248 -0.11782,0.0248 -0.0636,0 -0.12092,-0.0248 -0.0574,-0.0263 -0.10077,-0.0667 -0.0419,-0.0419 -0.0667,-0.0961 -0.0233,-0.0558 -0.0233,-0.11937 0,-0.13022 0.0899,-0.22014 0.0915,-0.0915 0.22169,-0.0915 z"
           style="-inkscape-font-specification:'Stradale Normale Positivo'"
           id="path16181-7-7" />
        <path
           d="m 368.55872,941.73033 h 0.43253 v 0.5085 h -0.43253 v 0.71624 q 0,0.0713 0.0481,0.10076 0.048,0.0295 0.11162,0.031 0.0636,0.002 0.13177,-0.014 0.0682,-0.0155 0.11007,-0.0372 l 0.10077,0.48834 q -0.0605,0.0248 -0.13177,0.045 -0.0713,0.0186 -0.14263,0.031 -0.0713,0.0124 -0.13953,0.0186 -0.0682,0.008 -0.12557,0.008 -0.11782,0 -0.21859,-0.0341 -0.0992,-0.0326 -0.17364,-0.0977 -0.0744,-0.0651 -0.11782,-0.15968 -0.0419,-0.0961 -0.0419,-0.22014 v -0.87592 h -0.2837 v -0.5085 h 0.2837 v -0.49609 l 0.58912,-0.17363 z"
           style="-inkscape-font-specification:'Stradale Normale Positivo'"
           id="path16183-6-9" />
        <path
           d="m 370.11632,942.845 q -0.0419,0.0341 -0.10387,0.0449 -0.062,0.009 -0.12558,0.0155 -0.10387,0.0124 -0.15658,0.0512 -0.0527,0.0372 -0.0527,0.0853 0,0.0729 0.0589,0.0977 0.0589,0.0233 0.13178,0.0233 0.0403,0 0.0853,-0.008 0.0449,-0.009 0.0791,-0.0279 0.0357,-0.0186 0.0589,-0.0496 0.0248,-0.0326 0.0248,-0.0806 z m -0.25735,-1.0294 h 0.0822 q 0.24805,0 0.41858,0.0713 0.17208,0.0713 0.25115,0.2248 0.009,0.0248 0.0202,0.0496 0.0124,0.0232 0.0217,0.0589 0.009,0.0341 0.0155,0.0899 0.006,0.0558 0.006,0.14108 v 0.59376 q 0,0.0977 0.0388,0.12558 0.0403,0.0263 0.14573,0.0263 l -0.17209,0.42943 q -0.12402,0 -0.24494,-0.0465 -0.11938,-0.0465 -0.20309,-0.11007 -0.10077,0.0729 -0.22324,0.11472 -0.12248,0.0419 -0.2434,0.0419 -0.13022,0 -0.24495,-0.0388 -0.11317,-0.0388 -0.19998,-0.11008 -0.0853,-0.0713 -0.13643,-0.17363 -0.0496,-0.10387 -0.0496,-0.23409 0,-0.13023 0.0357,-0.21859 0.0372,-0.0884 0.10077,-0.15038 0.0636,-0.062 0.15348,-0.10232 0.0915,-0.0403 0.19533,-0.0744 0.0992,-0.0294 0.18604,-0.0403 0.0868,-0.0109 0.15348,-0.0202 0.0667,-0.009 0.10542,-0.0217 0.0387,-0.014 0.0387,-0.045 0,-0.0481 -0.0403,-0.0713 -0.0403,-0.0233 -0.0992,-0.031 -0.0574,-0.009 -0.12403,0 -0.0667,0.008 -0.12092,0.0233 -0.0636,0.0155 -0.13642,0.0589 -0.0729,0.0419 -0.16589,0.10852 l -0.25424,-0.38758 q 0.15038,-0.13642 0.32711,-0.20929 0.17828,-0.0729 0.36277,-0.0729 z"
           style="-inkscape-font-specification:'Stradale Normale Positivo'"
           id="path16185-6-9" />
        <path
           d="m 371.39221,941.11797 q -0.10077,0 -0.17364,0.0729 -0.0713,0.0713 -0.0713,0.17053 0,0.16744 0.13022,0.23565 0.0729,0.0186 0.0729,0.0279 0,0.0233 -0.11007,0.0233 -0.0419,0 -0.0419,0.0403 v 0.0698 q 0,0.0419 0.0419,0.0419 0.21859,0 0.34261,-0.0729 0.11162,-0.10232 0.11162,-0.26355 0,-0.13487 -0.0837,-0.23719 -0.0884,-0.10852 -0.21859,-0.10852 z"
           style="-inkscape-font-specification:'Stradale Normale Positivo'"
           id="path16187-2-8" />
      </g>
      <g
         aria-label="indirizzo"
         id="text16129-7-7"
         style="font-size:3.175px;font-family:'Stradale Normale Positivo';-inkscape-font-specification:'Stradale Normale Positivo';fill:#000000;fill-rule:evenodd;stroke-width:0.529167;stroke-linecap:round;paint-order:markers fill stroke"
         transform="matrix(4.1406528,0,0,4.1406528,-1389.217,-2240.3178)">
        <path
           d="m 359.37554,949.01865 v 1.74563 h -0.54571 v -1.74563 z m -0.27596,-0.71158 q 0.13333,0 0.2217,0.0899 0.0884,0.0884 0.0884,0.2217 0,0.0636 -0.0248,0.11937 -0.0248,0.0543 -0.0682,0.0961 -0.0434,0.0403 -0.0992,0.0667 -0.0543,0.0248 -0.11783,0.0248 -0.0636,0 -0.12092,-0.0248 -0.0574,-0.0264 -0.10077,-0.0667 -0.0418,-0.0419 -0.0667,-0.0961 -0.0233,-0.0558 -0.0233,-0.11937 0,-0.13023 0.0899,-0.22014 0.0915,-0.0915 0.22169,-0.0915 z"
           id="path16152-4-3" />
        <path
           d="m 360.79549,950.76428 v -0.95498 q 0.006,-0.14418 -0.0775,-0.23254 -0.0822,-0.0884 -0.19223,-0.0822 -0.0574,0.003 -0.10697,0.031 -0.0496,0.0263 -0.0868,0.0698 -0.0357,0.0419 -0.0558,0.0977 -0.0202,0.0558 -0.0202,0.11627 l -0.003,0.95498 h -0.55346 l 0.003,-1.74563 h 0.49299 l 0.0341,0.0946 q 0.0357,-0.0279 0.0868,-0.0496 0.0527,-0.0233 0.11007,-0.0388 0.0574,-0.0171 0.11317,-0.0248 0.0558,-0.008 0.10387,-0.008 0.20929,0 0.34416,0.0667 0.13488,0.0667 0.21239,0.17828 0.0775,0.11162 0.10697,0.2589 0.031,0.14728 0.031,0.31316 v 0.95498 z"
           id="path16154-8-6" />
        <path
           d="m 362.77926,948.28846 h 0.555 v 2.47582 h -0.49764 l -0.045,-0.10542 q -0.0636,0.0543 -0.16898,0.10077 -0.10387,0.0465 -0.21549,0.0434 -0.19999,-0.003 -0.35812,-0.0837 -0.15658,-0.0822 -0.26355,-0.21549 -0.10542,-0.13332 -0.16278,-0.30075 -0.0574,-0.16899 -0.0574,-0.35037 0,-0.18138 0.0574,-0.34727 0.0574,-0.16743 0.16278,-0.293 0.10697,-0.12713 0.26045,-0.20154 0.15503,-0.076 0.34572,-0.076 0.0512,0 0.10697,0.0109 0.0574,0.009 0.11007,0.0263 0.0527,0.0171 0.0961,0.0388 0.045,0.0202 0.0744,0.0419 z m -0.33021,1.13327 q -0.16278,0.003 -0.25425,0.10697 -0.0915,0.10232 -0.0915,0.25735 0,0.10232 0.0109,0.19223 0.0109,0.0899 0.0465,0.16123 0.0372,0.0698 0.10542,0.11163 0.0682,0.0403 0.18294,0.0465 0.0605,0.003 0.11472,-0.0155 0.0558,-0.0202 0.10077,-0.0574 0.045,-0.0388 0.0744,-0.0899 0.031,-0.0527 0.0403,-0.11317 v -0.33641 q 0,-0.0543 -0.0326,-0.10542 -0.031,-0.0512 -0.0791,-0.0884 -0.0481,-0.0388 -0.10697,-0.0574 -0.0574,-0.0186 -0.11162,-0.0124 z"
           id="path16156-1-9" />
        <path
           d="m 364.20181,949.01865 v 1.74563 h -0.5457 v -1.74563 z m -0.27595,-0.71158 q 0.13332,0 0.22169,0.0899 0.0884,0.0884 0.0884,0.2217 0,0.0636 -0.0248,0.11937 -0.0248,0.0543 -0.0682,0.0961 -0.0434,0.0403 -0.0992,0.0667 -0.0543,0.0248 -0.11782,0.0248 -0.0636,0 -0.12093,-0.0248 -0.0574,-0.0264 -0.10077,-0.0667 -0.0419,-0.0419 -0.0667,-0.0961 -0.0233,-0.0558 -0.0233,-0.11937 0,-0.13023 0.0899,-0.22014 0.0915,-0.0915 0.2217,-0.0915 z"
           id="path16158-1-4" />
        <path
           d="m 365.65101,949.54575 q -0.0372,-0.003 -0.0822,-0.006 -0.045,-0.005 -0.0915,0 -0.045,0.003 -0.0899,0.0109 -0.045,0.008 -0.076,0.0233 -0.0186,0.009 -0.0543,0.0263 -0.0341,0.0155 -0.0698,0.0543 -0.0341,0.0372 -0.0605,0.10077 -0.0248,0.0636 -0.0248,0.16743 v 0.84181 h -0.5488 l -0.005,-1.74563 h 0.55346 v 0.10387 q 0.0574,-0.0341 0.0791,-0.0481 0.0217,-0.0155 0.0605,-0.0341 0.0636,-0.0279 0.12867,-0.0372 0.0651,-0.0109 0.11782,-0.009 0.0543,0.002 0.0977,0.0109 0.0434,0.008 0.0651,0.0109 z"
           id="path16160-3-3" />
        <path
           d="m 366.44917,949.01865 v 1.74563 h -0.5457 v -1.74563 z m -0.27595,-0.71158 q 0.13333,0 0.22169,0.0899 0.0884,0.0884 0.0884,0.2217 0,0.0636 -0.0248,0.11937 -0.0248,0.0543 -0.0682,0.0961 -0.0434,0.0403 -0.0992,0.0667 -0.0543,0.0248 -0.11782,0.0248 -0.0636,0 -0.12092,-0.0248 -0.0574,-0.0264 -0.10077,-0.0667 -0.0419,-0.0419 -0.0667,-0.0961 -0.0233,-0.0558 -0.0233,-0.11937 0,-0.13023 0.0899,-0.22014 0.0915,-0.0915 0.22169,-0.0915 z"
           id="path16162-3-7" />
        <path
           d="m 368.14539,949.01865 v 0.46354 l -0.62786,0.79685 h 0.65732 v 0.48524 h -1.37821 v -0.44803 l 0.63562,-0.80615 h -0.61392 v -0.49145 z"
           id="path16164-5-7" />
        <path
           d="m 369.67243,949.01865 v 0.46354 l -0.62787,0.79685 h 0.65733 v 0.48524 h -1.37821 v -0.44803 l 0.63562,-0.80615 h -0.61392 v -0.49145 z"
           id="path16166-9-0" />
        <path
           d="m 370.76229,950.29764 q 0.17363,-0.003 0.262,-0.11782 0.0899,-0.11472 0.0899,-0.30076 0,-0.0868 -0.0232,-0.16278 -0.0217,-0.076 -0.0651,-0.13487 -0.0419,-0.0589 -0.10852,-0.0915 -0.0667,-0.0341 -0.15503,-0.0341 -0.093,0 -0.15813,0.0357 -0.0651,0.0341 -0.10697,0.0915 -0.0403,0.0574 -0.0589,0.13332 -0.0186,0.076 -0.0186,0.16278 0,0.0853 0.0186,0.16124 0.0186,0.076 0.0589,0.13332 0.0419,0.0574 0.10697,0.0915 0.0651,0.0326 0.15813,0.0326 z m 0.0124,0.5054 q -0.19379,-0.008 -0.35347,-0.0775 -0.15813,-0.0698 -0.2713,-0.19068 -0.11162,-0.12247 -0.17363,-0.28526 -0.062,-0.16433 -0.062,-0.35501 0,-0.19689 0.0574,-0.36277 0.0574,-0.16743 0.16588,-0.2868 0.11007,-0.11938 0.2682,-0.18604 0.15968,-0.0667 0.35967,-0.0667 0.19068,0 0.35037,0.0698 0.16123,0.0698 0.2744,0.19224 0.11472,0.12247 0.17828,0.28835 0.0636,0.16433 0.0636,0.35812 0,0.18448 -0.0651,0.35037 -0.0651,0.16433 -0.17983,0.28835 -0.11318,0.12247 -0.2713,0.19534 -0.15658,0.0713 -0.34107,0.0682 z"
           id="path16168-0-9" />
      </g>
      <g
         aria-label="telefoni"
         id="text16133-5-5"
         style="font-size:3.175px;font-family:'Stradale Normale Positivo';-inkscape-font-specification:'Stradale Normale Positivo';fill:#000000;fill-rule:evenodd;stroke-width:0.529167;stroke-linecap:round;paint-order:markers fill stroke"
         transform="matrix(4.1406528,0,0,4.1406528,-1389.217,-2240.3178)">
        <path
           d="m 359.4398,956.32335 h 0.43253 v 0.5085 h -0.43253 v 0.71623 q 0,0.0713 0.0481,0.10077 0.0481,0.0295 0.11162,0.031 0.0636,0.002 0.13178,-0.0139 0.0682,-0.0155 0.11007,-0.0372 l 0.10077,0.48834 q -0.0605,0.0248 -0.13178,0.045 -0.0713,0.0186 -0.14262,0.031 -0.0713,0.0124 -0.13953,0.0186 -0.0682,0.008 -0.12557,0.008 -0.11783,0 -0.2186,-0.0341 -0.0992,-0.0326 -0.17363,-0.0977 -0.0744,-0.0651 -0.11782,-0.15968 -0.0419,-0.0961 -0.0419,-0.22015 v -0.87591 h -0.2837 v -0.5085 h 0.2837 v -0.49609 l 0.58911,-0.17363 z"
           id="path16135-7-3" />
        <path
           d="m 361.66835,957.49227 h -1.11156 q 0.0419,0.13023 0.13642,0.18604 0.0946,0.0543 0.20619,0.0543 0.11473,0 0.2248,-0.045 0.11162,-0.0465 0.18138,-0.12247 l 0.34261,0.34881 q -0.0791,0.0884 -0.17983,0.14728 -0.0992,0.0589 -0.20619,0.0946 -0.10542,0.0341 -0.21704,0.0481 -0.11007,0.0155 -0.21549,0.0155 -0.18759,0 -0.33951,-0.0791 -0.15193,-0.0806 -0.26045,-0.21084 -0.10852,-0.13023 -0.16743,-0.29921 -0.0574,-0.17053 -0.0574,-0.34882 0,-0.17363 0.062,-0.33176 0.062,-0.15968 0.17208,-0.2806 0.11162,-0.12093 0.26355,-0.19069 0.15193,-0.0698 0.33021,-0.0698 0.19379,0 0.34727,0.0667 0.15503,0.0667 0.26355,0.18294 0.11007,0.11627 0.16898,0.27905 0.0589,0.16123 0.0589,0.35191 0,0.0558 0.002,0.11783 0.002,0.062 -0.005,0.0853 z m -0.5364,-0.41703 q -0.0264,-0.10076 -0.10852,-0.16588 -0.0822,-0.0651 -0.18139,-0.0589 -0.0884,0.006 -0.15968,0.0574 -0.0713,0.0512 -0.12247,0.16743 z"
           id="path16137-6-9" />
        <path
           d="m 361.84334,955.70479 h 0.56741 v 1.86345 q 0,0.11317 0.0884,0.12557 0.0899,0.0109 0.22944,-0.0465 l 0.0481,0.524 q -0.15348,0.0481 -0.31781,0.0496 -0.16278,0.002 -0.30076,-0.0512 -0.13797,-0.0527 -0.22634,-0.16123 -0.0884,-0.11007 -0.0884,-0.28835 z"
           id="path16139-3-5" />
        <path
           d="m 364.45031,957.49227 h -1.11156 q 0.0419,0.13023 0.13643,0.18604 0.0946,0.0543 0.20619,0.0543 0.11472,0 0.22479,-0.045 0.11162,-0.0465 0.18139,-0.12247 l 0.34261,0.34881 q -0.0791,0.0884 -0.17983,0.14728 -0.0992,0.0589 -0.20619,0.0946 -0.10542,0.0341 -0.21704,0.0481 -0.11007,0.0155 -0.21549,0.0155 -0.18759,0 -0.33952,-0.0791 -0.15193,-0.0806 -0.26045,-0.21084 -0.10852,-0.13023 -0.16743,-0.29921 -0.0574,-0.17053 -0.0574,-0.34882 0,-0.17363 0.062,-0.33176 0.062,-0.15968 0.17208,-0.2806 0.11163,-0.12093 0.26355,-0.19069 0.15193,-0.0698 0.33022,-0.0698 0.19378,0 0.34726,0.0667 0.15503,0.0667 0.26355,0.18294 0.11007,0.11627 0.16898,0.27905 0.0589,0.16123 0.0589,0.35191 0,0.0558 0.002,0.11783 0.002,0.062 -0.005,0.0853 z m -0.5364,-0.41703 q -0.0263,-0.10076 -0.10852,-0.16588 -0.0822,-0.0651 -0.18138,-0.0589 -0.0884,0.006 -0.15968,0.0574 -0.0713,0.0512 -0.12247,0.16743 z"
           id="path16141-3-4" />
        <path
           d="m 364.78765,958.1806 v -1.35185 h -0.26355 v -0.46044 h 0.26355 v -0.22944 q 0,-0.10697 0.031,-0.19224 0.031,-0.0868 0.0977,-0.14418 0.0961,-0.0853 0.21239,-0.11627 0.11782,-0.0326 0.23874,-0.0326 0.12093,0 0.2372,0.0217 0.11627,0.0217 0.21084,0.045 l -0.10852,0.47284 q -0.0403,-0.0155 -0.10232,-0.0295 -0.062,-0.0155 -0.11937,-0.0124 -0.0574,0.003 -0.0992,0.031 -0.0403,0.0263 -0.0403,0.093 v 0.093 h 0.35812 v 0.46044 h -0.35812 v 1.35185 z"
           id="path16143-6-6" />
        <path
           d="m 366.76968,957.71396 q 0.17363,-0.003 0.262,-0.11782 0.0899,-0.11472 0.0899,-0.30075 0,-0.0868 -0.0233,-0.16279 -0.0217,-0.076 -0.0651,-0.13487 -0.0419,-0.0589 -0.10852,-0.0915 -0.0667,-0.0341 -0.15503,-0.0341 -0.093,0 -0.15813,0.0357 -0.0651,0.0341 -0.10697,0.0915 -0.0403,0.0574 -0.0589,0.13332 -0.0186,0.076 -0.0186,0.16279 0,0.0853 0.0186,0.16123 0.0186,0.076 0.0589,0.13332 0.0419,0.0574 0.10697,0.0915 0.0651,0.0326 0.15813,0.0326 z m 0.0124,0.5054 q -0.19379,-0.008 -0.35347,-0.0775 -0.15813,-0.0698 -0.2713,-0.19069 -0.11162,-0.12247 -0.17363,-0.28525 -0.062,-0.16434 -0.062,-0.35502 0,-0.19689 0.0574,-0.36277 0.0574,-0.16743 0.16588,-0.2868 0.11007,-0.11938 0.2682,-0.18604 0.15968,-0.0667 0.35967,-0.0667 0.19068,0 0.35036,0.0698 0.16124,0.0698 0.27441,0.19224 0.11472,0.12247 0.17828,0.28835 0.0636,0.16433 0.0636,0.35812 0,0.18448 -0.0651,0.35037 -0.0651,0.16433 -0.17983,0.28835 -0.11318,0.12247 -0.27131,0.19534 -0.15657,0.0713 -0.34106,0.0682 z"
           id="path16145-3-5" />
        <path
           d="m 369.05171,958.1806 v -0.95498 q 0.006,-0.14417 -0.0775,-0.23254 -0.0822,-0.0884 -0.19223,-0.0822 -0.0574,0.003 -0.10697,0.031 -0.0496,0.0263 -0.0868,0.0698 -0.0357,0.0419 -0.0558,0.0977 -0.0202,0.0558 -0.0202,0.11627 l -0.003,0.95498 h -0.55346 l 0.003,-1.74563 h 0.493 l 0.0341,0.0946 q 0.0357,-0.0279 0.0868,-0.0496 0.0527,-0.0232 0.11007,-0.0388 0.0574,-0.0171 0.11317,-0.0248 0.0558,-0.008 0.10387,-0.008 0.20929,0 0.34417,0.0667 0.13487,0.0667 0.21239,0.17828 0.0775,0.11163 0.10697,0.2589 0.031,0.14728 0.031,0.31316 v 0.95498 z"
           id="path16147-8-0" />
        <path
           d="m 370.59425,956.43497 v 1.74563 h -0.5457 v -1.74563 z m -0.27595,-0.71158 q 0.13332,0 0.22169,0.0899 0.0884,0.0884 0.0884,0.22169 0,0.0636 -0.0248,0.11937 -0.0248,0.0543 -0.0682,0.0961 -0.0434,0.0403 -0.0992,0.0667 -0.0543,0.0248 -0.11782,0.0248 -0.0636,0 -0.12093,-0.0248 -0.0574,-0.0263 -0.10076,-0.0667 -0.0419,-0.0419 -0.0667,-0.0961 -0.0233,-0.0558 -0.0233,-0.11937 0,-0.13023 0.0899,-0.22014 0.0915,-0.0915 0.22169,-0.0915 z"
           id="path16149-4-7" />
      </g>
      <rect
         style="fill:#b3b3b3;fill-rule:evenodd;stroke-width:2.22205;stroke-linecap:round;paint-order:markers fill stroke"
         id="rect16325-7-1"
         width="129.64583"
         height="19.049999"
         x="172.06413"
         y="1647.2769" />
      <rect
         style="fill:#b3b3b3;fill-rule:evenodd;stroke-width:2.22205;stroke-linecap:round;paint-order:markers fill stroke"
         id="rect16325-5-8-3"
         width="129.64583"
         height="19.049999"
         x="172.0641"
         y="1677.704" />
      <rect
         style="fill:#b3b3b3;fill-rule:evenodd;stroke-width:1.46158;stroke-linecap:round;paint-order:markers fill stroke"
         id="rect16325-2-3-0"
         width="56.091667"
         height="19.049999"
         x="172.0641"
         y="1708.131" />
      <rect
         style="fill:#b3b3b3;fill-rule:evenodd;stroke-width:1.46158;stroke-linecap:round;paint-order:markers fill stroke"
         id="rect16325-2-0-9-9"
         width="56.091667"
         height="19.049999"
         x="245.61826"
         y="1708.131" />
      <g
         aria-label="POLIZIA DI STATO"
         id="text4377-6"
         style="font-size:5.70619px;font-family:'Stradale Stretto Positivo';-inkscape-font-specification:'Stradale Stretto Positivo';fill:#000000;fill-rule:evenodd;stroke-width:0.126804;stroke-linecap:round;paint-order:markers fill stroke"
         transform="matrix(4.1726007,0,0,4.1725985,-1808.8027,-2294.8151)">
        <path
           d="m 459.89965,936.68698 h 1.05041 q 0.27584,0 0.53217,0.0975 0.25633,0.0975 0.44858,0.27583 0.19504,0.17554 0.31206,0.42908 0.11702,0.25355 0.11702,0.56282 0,0.2229 -0.0892,0.46251 -0.0864,0.23962 -0.24797,0.44301 -0.15882,0.20061 -0.38172,0.33992 -0.22289,0.13653 -0.49037,0.14767 l -0.22847,0.0112 v 1.69402 h -1.02255 z m 1.0114,1.85563 q 0.25634,-0.0167 0.37057,-0.13374 0.11424,-0.11702 0.11424,-0.35664 0,-0.23404 -0.13374,-0.33713 -0.13374,-0.10309 -0.35107,-0.11424 z"
           id="path4448" />
        <path
           d="m 464.19601,940.17533 q 0.0919,0 0.15046,-0.10309 0.0613,-0.10309 0.0947,-0.27583 0.0362,-0.17554 0.0474,-0.40401 0.0111,-0.22847 0.0111,-0.47923 0,-0.27305 -0.0111,-0.51266 -0.0111,-0.23962 -0.0474,-0.41515 -0.0334,-0.17832 -0.0919,-0.27862 -0.0557,-0.10031 -0.15325,-0.10031 -0.0975,0 -0.15603,0.10309 -0.0557,0.10309 -0.0864,0.28141 -0.0307,0.17554 -0.0418,0.41236 -0.0111,0.23683 -0.0167,0.50988 -0.006,0.25634 0.0111,0.48481 0.0167,0.22847 0.0529,0.40121 0.0362,0.16996 0.0919,0.27305 0.0585,0.10309 0.14488,0.10309 z m 0,1.01976 q -0.27862,0.006 -0.52102,-0.17553 -0.2424,-0.18389 -0.42351,-0.49316 -0.17832,-0.31206 -0.28141,-0.72442 -0.10309,-0.41515 -0.10309,-0.87766 0,-0.49038 0.0975,-0.90831 0.0975,-0.42072 0.27026,-0.72442 0.17554,-0.30648 0.41794,-0.47644 0.2424,-0.17275 0.53217,-0.17275 0.28419,-0.0111 0.52938,0.16717 0.24797,0.17554 0.42908,0.48759 0.18389,0.30927 0.28141,0.72999 0.1003,0.41794 0.0947,0.89717 0.006,0.46251 -0.0947,0.88323 -0.0975,0.41794 -0.27584,0.72999 -0.17553,0.30927 -0.42072,0.49038 -0.24519,0.17832 -0.53217,0.16717 z"
           id="path4450" />
        <path
           d="m 466.228,936.68698 h 1.01976 v 3.60259 h 0.83865 v 0.86094 H 466.228 Z"
           id="path4452" />
        <path
           d="m 469.8891,941.15051 h -1.05598 v -4.46353 h 1.05598 z"
           id="path4454" />
        <path
           d="m 470.49752,936.68698 h 2.02002 v 0.79407 l -1.05041,2.76673 h 1.06712 v 0.90273 H 470.361 v -0.80522 l 1.08941,-2.8113 h -0.95289 z"
           id="path4456" />
        <path
           d="M 474.36498,941.15051 H 473.309 v -4.46353 h 1.05598 z"
           id="path4458" />
        <path
           d="m 476.22988,939.51221 h 0.32599 l -0.15882,-1.00304 z m -0.12538,0.80522 -0.13096,0.83308 H 474.951 l 0.71327,-4.46353 h 1.45163 l 0.7077,4.46353 h -1.0114 l -0.13095,-0.83308 z"
           id="path4460" />
        <path
           d="M 481.66784,941.15051 H 480.545 v -4.45517 h 1.15628 q 0.29255,-0.0251 0.56003,0.17274 0.26748,0.19783 0.46809,0.52381 0.20061,0.32321 0.3037,0.73557 0.10587,0.40957 0.078,0.81915 0.0223,0.39564 -0.0892,0.7885 -0.10866,0.39286 -0.31206,0.7077 -0.20339,0.31484 -0.47366,0.51267 -0.27026,0.19503 -0.56839,0.19503 z m -0.10309,-0.90831 q 0.31485,-0.0446 0.45695,-0.36499 0.14209,-0.3232 0.14209,-0.94732 0,-0.61576 -0.1616,-0.96125 -0.1616,-0.34549 -0.43744,-0.4235 z"
           id="path4462" />
        <path
           d="m 484.98903,941.15051 h -1.05598 v -4.46353 h 1.05598 z"
           id="path4464" />
        <path
           d="m 489.03003,938.58161 q -0.13652,-0.15881 -0.21175,-0.35942 -0.0752,-0.20339 -0.0752,-0.40958 0,-0.24518 0.10031,-0.45694 0.1003,-0.21175 0.26469,-0.37056 0.16717,-0.15882 0.38728,-0.25076 0.22012,-0.0919 0.45973,-0.0919 0.16996,0 0.33992,0.0697 0.17275,0.0669 0.32877,0.18389 0.15882,0.11702 0.29534,0.27305 0.13653,0.15324 0.23962,0.32877 l -0.73556,0.46809 q -0.0307,-0.0446 -0.0641,-0.0892 -0.0334,-0.0474 -0.11423,-0.13931 -0.13653,-0.14767 -0.26469,-0.15325 -0.12817,-0.006 -0.20061,0.0669 -0.0697,0.0697 -0.0669,0.18947 0.003,0.1198 0.12259,0.22289 0.13653,0.13096 0.23126,0.22012 0.0975,0.0892 0.19225,0.17831 0.0947,0.0864 0.21175,0.19783 0.11702,0.11145 0.3037,0.28698 0.2424,0.19503 0.37057,0.45973 0.12817,0.2619 0.12817,0.55167 0.006,0.23404 -0.0892,0.45694 -0.0947,0.2229 -0.26748,0.39843 -0.16996,0.17275 -0.40958,0.27862 -0.23961,0.10309 -0.53495,0.10309 -0.21733,0 -0.40679,-0.0752 -0.18668,-0.078 -0.34271,-0.20896 -0.15324,-0.13096 -0.27305,-0.3037 -0.1198,-0.17553 -0.20618,-0.365 l 0.79408,-0.46251 q 0.0641,0.20618 0.15881,0.31484 0.0975,0.10867 0.20061,0.1421 0.10309,0.0307 0.18946,-0.003 0.0892,-0.0362 0.13653,-0.11423 0.0502,-0.0808 0.0362,-0.19782 -0.0139,-0.11702 -0.11702,-0.2424 -0.37057,-0.34828 -0.64362,-0.59904 -0.27026,-0.25355 -0.46809,-0.49874 z"
           id="path4466" />
        <path
           d="m 492.19518,937.61201 h -0.52381 v -0.92503 h 2.03674 v 0.91388 h -0.48481 v 3.54965 h -1.02812 z"
           id="path4468" />
        <path
           d="m 495.26003,939.51221 h 0.32599 l -0.15881,-1.00304 z m -0.12538,0.80522 -0.13095,0.83308 h -1.02254 l 0.71327,-4.46353 h 1.45162 l 0.7077,4.46353 h -1.0114 l -0.13095,-0.83308 z"
           id="path4470" />
        <path
           d="m 497.59489,937.61201 h -0.52381 v -0.92503 h 2.03673 v 0.91388 h -0.4848 v 3.54965 h -1.02812 z"
           id="path4472" />
        <path
           d="m 500.89378,940.17533 q 0.0919,0 0.15046,-0.10309 0.0613,-0.10309 0.0947,-0.27583 0.0362,-0.17554 0.0474,-0.40401 0.0111,-0.22847 0.0111,-0.47923 0,-0.27305 -0.0111,-0.51266 -0.0111,-0.23962 -0.0474,-0.41515 -0.0334,-0.17832 -0.092,-0.27862 -0.0557,-0.10031 -0.15324,-0.10031 -0.0975,0 -0.15603,0.10309 -0.0557,0.10309 -0.0864,0.28141 -0.0307,0.17554 -0.0418,0.41236 -0.0112,0.23683 -0.0167,0.50988 -0.006,0.25634 0.0111,0.48481 0.0167,0.22847 0.0529,0.40121 0.0362,0.16996 0.0919,0.27305 0.0585,0.10309 0.14488,0.10309 z m 0,1.01976 q -0.27862,0.006 -0.52102,-0.17553 -0.24241,-0.18389 -0.42351,-0.49316 -0.17832,-0.31206 -0.28141,-0.72442 -0.10309,-0.41515 -0.10309,-0.87766 0,-0.49038 0.0975,-0.90831 0.0975,-0.42072 0.27026,-0.72442 0.17553,-0.30648 0.41794,-0.47644 0.2424,-0.17275 0.53217,-0.17275 0.28419,-0.0111 0.52938,0.16717 0.24797,0.17554 0.42908,0.48759 0.18389,0.30927 0.28141,0.72999 0.1003,0.41794 0.0947,0.89717 0.006,0.46251 -0.0947,0.88323 -0.0975,0.41794 -0.27584,0.72999 -0.17553,0.30927 -0.42072,0.49038 -0.24519,0.17832 -0.53217,0.16717 z"
           id="path4474" />
      </g>
    </g>
  </g>
</svg>
