<svg xmlns="http://www.w3.org/2000/svg" xmlns:xlink="http://www.w3.org/1999/xlink" width="200" height="200" xmlns:v="https://vecta.io/nano"><style><![CDATA[.B{fill:#e30000}.C{fill:none}.D{stroke:#000}.E{fill-rule:evenodd}.F{fill:#fff}]]></style><path d="M0 0h200v200H0z" class="F"/><rect rx="14.292" y="3.021" x="3.021" height="193.958" width="193.958" stroke-width="2.042" class="C D"/><g transform="matrix(.56665 0 0 .561393 -39.3534 -331.538846)"><use xlink:href="#B" class="E"/><g transform="rotate(270)" class="B"><rect width="7.616" height="15.438" x="-659.522" y="361.759" rx="3.808" ry=".255"/><rect width="7.616" height="15.438" x="-659.522" y="308.756" rx="3.808" ry=".255"/></g></g><g transform="matrix(.584108 0 0 .578689 -100.27138 -343.220393)"><use xlink:href="#B" class="E"/><g transform="rotate(270)" class="B"><rect width="7.616" height="15.438" x="-659.522" y="361.759" rx="3.808" ry=".255"/><rect width="7.616" height="15.438" x="-659.522" y="308.756" rx="3.808" ry=".255"/></g></g><g transform="matrix(.789608 0 0 .789608 -101.43854 -348.643107)"><use xlink:href="#C" class="F"/><use xlink:href="#D" class="E"/><g transform="rotate(270)" class="B"><rect width="5.673" height="11.606" x="-511.25" y="324.545" rx="2.836" ry=".191"/><rect width="5.673" height="11.606" x="-511.25" y="284.697" rx="2.836" ry=".191"/></g></g><g transform="matrix(.789608 0 0 .789608 -158.65134 -348.643107)"><use xlink:href="#C" class="F"/><use xlink:href="#D" class="E"/><g transform="rotate(270)" class="B"><rect width="5.673" height="11.606" x="-511.25" y="324.545" rx="2.836" ry=".191"/><rect width="5.673" height="11.606" x="-511.25" y="284.697" rx="2.836" ry=".191"/></g></g><g transform="matrix(.825499 0 0 .825499 -183.240359 -346.887565)"><use xlink:href="#C" class="F"/><use xlink:href="#D" class="E"/><g transform="rotate(270)" class="B"><rect width="5.673" height="11.606" x="-511.25" y="324.545" rx="2.836" ry=".191"/><rect width="5.673" height="11.606" x="-511.25" y="284.697" rx="2.836" ry=".191"/></g></g><g transform="matrix(1.207629 0 0 1.207629 -319.273228 -518.62219)"><use xlink:href="#C" class="F"/><use xlink:href="#D" class="E"/><g transform="rotate(270)" class="B"><rect width="5.673" height="11.606" x="-511.25" y="324.545" rx="2.836" ry=".191"/><rect width="5.673" height="11.606" x="-511.25" y="284.697" rx="2.836" ry=".191"/></g></g><g transform="matrix(.825499 0 0 .825499 -131.15106 -346.887565)"><use xlink:href="#C" class="F"/><use xlink:href="#D" class="E"/><g transform="rotate(270)" class="B"><rect width="5.673" height="11.606" x="-511.25" y="324.545" rx="2.836" ry=".191"/><rect width="5.673" height="11.606" x="-511.25" y="284.697" rx="2.836" ry=".191"/></g></g><g transform="matrix(1.207629 0 0 1.207629 -250.959432 -518.62219)"><use xlink:href="#C" class="F"/><use xlink:href="#D" class="E"/><g transform="rotate(270)" class="B"><rect width="5.673" height="11.606" x="-511.25" y="324.545" rx="2.836" ry=".191"/><rect width="5.673" height="11.606" x="-511.25" y="284.697" rx="2.836" ry=".191"/></g></g><rect transform="matrix(0 -1 1 0 -280.931 -382.958)" ry=".231" rx="3.425" y="305.855" x="-481.892" height="14.016" width="6.85" class="B"/><path d="M40.023 95.832l-15.351-.183" class="C D"/><g transform="matrix(1.207629 0 0 1.207629 -334.643842 -494.71235)"><use xlink:href="#C" class="F"/><use xlink:href="#D" class="E"/><g transform="rotate(270)" class="B"><rect width="5.673" height="11.606" x="-511.25" y="324.545" rx="2.836" ry=".191"/><rect width="5.673" height="11.606" x="-511.25" y="284.697" rx="2.836" ry=".191"/></g></g><rect transform="matrix(0 -1 1 0 -212.765 -383.323)" ry=".231" rx="3.425" y="353.977" x="-481.892" height="14.016" width="6.85" class="B"/><path d="M155.092 95.284l-15.351-.183" class="C D"/><g transform="matrix(1.207629 0 0 1.207629 -243.274124 -494.71235)"><use xlink:href="#C" class="F"/><use xlink:href="#D" class="E"/><g transform="rotate(270)" class="B"><rect width="5.673" height="11.606" x="-511.25" y="324.545" rx="2.836" ry=".191"/><rect width="5.673" height="11.606" x="-511.25" y="284.697" rx="2.836" ry=".191"/></g></g><rect transform="matrix(0 -1 1 0 -296.465 -359.2)" ry=".231" rx="3.425" y="353.977" x="-481.892" height="14.016" width="6.85" class="B"/><path d="M71.392 119.407l-15.351-.183" class="C D"/><g transform="matrix(1.207629 0 0 1.207629 -323.542848 -469.82251)"><use xlink:href="#C" class="F"/><use xlink:href="#D" class="E"/><g transform="rotate(270)" class="B"><rect width="5.673" height="11.606" x="-511.25" y="324.545" rx="2.836" ry=".191"/><rect width="5.673" height="11.606" x="-511.25" y="284.697" rx="2.836" ry=".191"/></g></g><rect width="6.85" height="14.016" x="-481.892" y="353.977" rx="3.425" ry=".231" transform="matrix(0 -1 1 0 -205.455 -359.565)" class="B"/><path d="M162.402 119.042l-15.351-.183" class="C D"/><g transform="matrix(1.207629 0 0 1.207629 -228.883518 -470.67643)"><use xlink:href="#C" class="F"/><use xlink:href="#D" class="E"/><g transform="rotate(270)" class="B"><rect width="5.673" height="11.606" x="-511.25" y="324.545" rx="2.836" ry=".191"/><rect width="5.673" height="11.606" x="-511.25" y="284.697" rx="2.836" ry=".191"/></g></g><path d="M37.213 158.051c-2.388-5.471 1.277-11.228 9.23-14.502s18.568-3.392 26.735-.299 12.215 8.764 10.196 14.284l-23.184-2.831z" class="F"/><path d="M42.506 141.214c-1.817.413-3.574 1.49-4.152 2.418l-5.276 11.797 5.095-.725 3.108-7.569c.661-1.714 2.468-2.435 4.45-2.598 9.559-.665 19.133-.65 28.693-.01 1.982.163 3.755.89 4.416 2.604l3.132 7.593 5.086.738-5.288-11.842c-.661-1.061-2.81-2.28-4.886-2.525a200.53 200.53 0 0 0-17.364-.722c-5.591.01-11.016.246-16.253.715a7.08 7.08 0 0 0-.76.128zm-4.48 15.009c-2.384.43-4.766.948-7.132 1.522-.552 0-1.027 1.031-1.027 2.283l-.004.65 11.642-.006c.37 0 .661.279.661.603l-.088 4.626c0 .224-.329.409-.697.409l-11.497-.019s-.077-.578.007.031c.167 1.218.446 2.268.998 2.268l58.672.023c.552 0 .991-1.025.991-2.277l.029-.037-11.266.007c-.367 0-.619-.191-.619-.416l-.028-4.639c0-.324.328-.572.698-.572l11.194.005-.002-.682c0-1.253-.446-2.268-.998-2.268-10.095-2.273-20.059-3.427-29.842-3.434-7.337-.005-14.54.63-21.691 1.92zm13.358 4.123a1.11 1.11 0 0 1 .398-.067l16.19.01c.584 0 1.071.403 1.071.924l-.004 3.833c0 .521-.485.926-1.069.926l-16.183.021c-.584 0-1.042-.44-1.042-.962l.004-3.833c0-.391.259-.714.635-.853zm-22.288 9.132c-.374.116-.634.38-.634.691l.022 2.107c0 .414.447.705 1.022.705l61.152.029c.575 0 1.039-.312 1.039-.726l.014-2.113c0-.414-.461-.768-1.036-.768l-61.181.008c-.144 0-.273.028-.398.067zm1.836 4.498l.01 5.227c0 1.006.893 1.798 2.056 1.798l7.137.004c1.164 0 2.109-.809 2.109-1.815l-.002-5.196-11.309-.017zm46.726.015l-.034 5.202c0 1.006.929 1.792 2.093 1.792l7.137.004c1.164 0 2.116-.778 2.116-1.784l-.01-5.227-11.302.014z" class="E"/><g transform="matrix(1.207629 0 0 1.207629 -218.671328 -449.27922)"><use xlink:href="#C" class="F"/><use xlink:href="#D" class="E"/><g transform="rotate(270)" class="B"><rect width="5.673" height="11.606" x="-511.25" y="324.545" rx="2.836" ry=".191"/><rect width="5.673" height="11.606" x="-511.25" y="284.697" rx="2.836" ry=".191"/></g></g><rect transform="matrix(0 -1 1 0 -276.728 -315.157)" ry=".231" rx="3.425" y="305.855" x="-481.892" height="14.016" width="6.85" class="B"/><path d="M44.226 163.633l-15.351-.183" class="C D"/><rect width="6.85" height="14.016" x="-481.892" y="353.977" rx="3.425" ry=".231" transform="matrix(0 -1 1 0 -276.728 -315.157)" class="B"/><path d="M91.129 163.45l-15.351-.183" class="C D"/><rect width="6.85" height="14.016" x="-481.892" y="305.855" rx="3.425" ry=".231" transform="matrix(0 -1 1 0 -285.135 -334.346)" class="B"/><path d="M35.819 144.444l-15.351-.183" class="C D"/><rect width="6.85" height="14.016" x="-481.892" y="353.977" rx="3.425" ry=".231" transform="matrix(0 -1 1 0 -281.297 -383.506)" class="B"/><path d="M86.56 95.101l-15.351-.183" class="C D"/><rect width="6.85" height="14.016" x="-481.892" y="305.855" rx="3.425" ry=".231" transform="matrix(0 -1 1 0 -296.648 -359.2)" class="B"/><path d="M24.306 119.59l-15.351-.183" class="C D"/><rect transform="matrix(0 -1 1 0 -180.236 -314.06)" ry=".231" rx="3.425" y="305.855" x="-481.892" height="14.016" width="6.85" class="B"/><path d="M140.718 164.73l-15.351-.183" class="C D"/><rect width="6.85" height="14.016" x="-481.892" y="305.855" rx="3.425" ry=".231" transform="matrix(0 -1 1 0 -190.47 -335.077)" class="B"/><path d="M130.484 143.713l-15.351-.183" class="C D"/><rect transform="matrix(0 -1 1 0 -204.907 -359.017)" ry=".231" rx="3.425" y="305.855" x="-481.892" height="14.016" width="6.85" class="B"/><path d="M116.047 119.773l-15.351-.183" class="C D"/><rect width="6.85" height="14.016" x="-481.892" y="305.855" rx="3.425" ry=".231" transform="matrix(0 -1 1 0 -212.765 -383.14)" class="B"/><path d="M108.189 95.65l-15.351-.183" class="C D"/><rect transform="matrix(0 -1 1 0 -180.601 -313.878)" ry=".231" rx="3.425" y="353.977" x="-481.892" height="14.016" width="6.85" class="B"/><g class="C D"><path d="M187.256 164.729l-15.351-.183"/><path d="M84.145 72.891l10.143.091M66.231 52.835l10.143.091m20.232-.091l10.143.091M80.153 36.382l10.143.091m19.648-.091l10.143.091m3.293 16.362l10.143.091m-29.517 19.77l10.143.091m22.179.104l10.143.091m7.479-20.147l10.143.091m-28.446-16.35l10.143.091m18.48.007l10.143.091" stroke-width=".7"/></g><defs ><path id="B" d="M323.492 631.148c-2.001.459-3.936 1.656-4.573 2.688l-5.811 13.116 5.612-.807 3.423-8.415c.728-1.905 2.718-2.707 4.901-2.888 10.529-.74 21.074-.723 31.603-.011 2.183.182 4.136.989 4.864 2.895l3.45 8.442 5.602.82-5.825-13.166c-.728-1.179-3.095-2.535-5.382-2.807-6.599-.567-12.967-.814-19.125-.803s-12.133.273-17.901.795a7.71 7.71 0 0 0-.837.142zm-4.934 16.686c-2.626.478-5.249 1.054-7.856 1.692-.608 0-1.131 1.146-1.131 2.538l-.005.723 12.823-.006c.407 0 .728.311.728.671l-.097 5.143c0 .25-.363.455-.768.455l-12.663-.021s-.084-.642.008.035c.184 1.354.491 2.522 1.099 2.522l64.624.026c.608 0 1.091-1.139 1.092-2.532l.032-.042-12.409.008c-.405 0-.682-.213-.682-.462l-.03-5.158c0-.36.361-.636.769-.636l12.329.005-.003-.758c0-1.393-.491-2.522-1.099-2.522-11.119-2.527-22.093-3.81-32.869-3.818a132.29 132.29 0 0 0-23.891 2.135zm14.713 4.584a1.21 1.21 0 0 1 .439-.074l17.832.011c.643 0 1.18.448 1.18 1.028l-.004 4.261c0 .58-.534 1.03-1.177 1.03l-17.825.024c-.643 0-1.148-.49-1.148-1.069l.004-4.261c0-.435.285-.793.699-.949zm-24.548 10.153c-.412.129-.698.423-.698.768l.025 2.343c0 .461.492.784 1.126.784l67.355.033c.633 0 1.144-.347 1.144-.808l.015-2.349c0-.461-.508-.854-1.141-.854l-67.387.009c-.158 0-.301.031-.439.074zm2.023 5.001l.01 5.811c0 1.119.983 1.999 2.265 1.999l7.861.004c1.282 0 2.323-.9 2.323-2.018l-.003-5.776-12.456-.019zm51.466.017l-.037 5.783c0 1.119 1.023 1.992 2.305 1.992l7.861.004c1.282 0 2.33-.865 2.33-1.983l-.01-5.811-12.449.015z"/><path id="C" d="M291.393 504.059c-2.65-6.072 3.72-12.236 14.228-13.767s21.175 2.15 23.825 8.222c.731 1.676.79 3.426.172 5.117l-19.198-2.345z"/><path id="D" d="M295.776 490.117c-1.504.342-2.959 1.234-3.438 2.002l-4.369 9.769 4.219-.601 2.574-6.267c.547-1.419 2.043-2.016 3.685-2.151 7.916-.551 15.844-.539 23.759-.008 1.641.135 3.11.737 3.656 2.156l2.594 6.288 4.211.611-4.379-9.806c-.547-.878-2.327-1.888-4.046-2.091a166.05 166.05 0 0 0-14.379-.598c-4.63.008-9.122.203-13.458.592a5.85 5.85 0 0 0-.629.106zm-3.71 12.428c-1.974.356-3.947.785-5.906 1.26-.457 0-.851.853-.851 1.891l-.003.538 9.64-.005c.306 0 .548.231.548.5l-.073 3.831c0 .186-.273.339-.577.339l-9.52-.015s-.063-.479.006.026c.139 1.009.369 1.878.826 1.878l48.584.019c.457 0 .821-.848.821-1.886l.024-.031-9.329.006c-.304 0-.513-.158-.513-.344l-.023-3.842c0-.268.272-.474.578-.474l9.269.004-.002-.564c0-1.037-.369-1.878-.826-1.878-8.359-1.882-16.61-2.838-24.711-2.844-6.076-.004-12.04.522-17.962 1.59zm11.061 3.414c.104-.039.209-.055.33-.055l13.407.008c.484 0 .887.334.887.765l-.003 3.174c0 .432-.402.767-.885.767l-13.401.018c-.484 0-.863-.365-.863-.796l.003-3.174c0-.324.215-.591.526-.707zm-18.456 7.562c-.31.096-.525.315-.525.572l.019 1.745c0 .343.37.584.846.584l50.638.024c.476 0 .86-.258.86-.602l.011-1.75c0-.343-.382-.636-.858-.636l-50.662.007c-.119 0-.226.023-.33.055zm1.521 3.725l.008 4.328c0 .833.739 1.489 1.703 1.489l5.91.003c.964 0 1.746-.67 1.746-1.503l-.002-4.302-9.365-.014zm38.693.013l-.028 4.307c0 .833.769 1.484 1.733 1.484l5.91.003c.964 0 1.752-.644 1.752-1.477l-.008-4.328-9.359.011z"/></defs></svg>