<?xml version="1.0" encoding="UTF-8" standalone="no"?>
<!-- Created with Inkscape (http://www.inkscape.org/) -->

<svg
   xmlns:dc="http://purl.org/dc/elements/1.1/"
   xmlns:cc="http://creativecommons.org/ns#"
   xmlns:rdf="http://www.w3.org/1999/02/22-rdf-syntax-ns#"
   xmlns:svg="http://www.w3.org/2000/svg"
   xmlns="http://www.w3.org/2000/svg"
   xmlns:sodipodi="http://sodipodi.sourceforge.net/DTD/sodipodi-0.dtd"
   xmlns:inkscape="http://www.inkscape.org/namespaces/inkscape"
   version="1.1"
   width="200"
   height="200"
   id="svg2"
   inkscape:version="0.47 r22583"
   sodipodi:docname="Italian traffic signs - icona spazzatrice.svg"
   sodipodi:version="0.32"
   inkscape:output_extension="org.inkscape.output.svg.inkscape">
  <metadata
     id="metadata2877">
    <rdf:RDF>
      <cc:Work
         rdf:about="">
        <dc:format>image/svg+xml</dc:format>
        <dc:type
           rdf:resource="http://purl.org/dc/dcmitype/StillImage" />
        <dc:title></dc:title>
      </cc:Work>
    </rdf:RDF>
  </metadata>
  <sodipodi:namedview
     pagecolor="#ffffff"
     bordercolor="#666666"
     borderopacity="1"
     objecttolerance="10"
     gridtolerance="10"
     guidetolerance="10"
     inkscape:pageopacity="0"
     inkscape:pageshadow="2"
     inkscape:window-width="1600"
     inkscape:window-height="838"
     id="namedview2875"
     showgrid="false"
     inkscape:zoom="2.3765092"
     inkscape:cx="125.22015"
     inkscape:cy="128.51928"
     inkscape:window-x="-8"
     inkscape:window-y="-8"
     inkscape:window-maximized="1"
     inkscape:current-layer="svg2" />
  <defs
     id="defs4">
    <inkscape:perspective
       sodipodi:type="inkscape:persp3d"
       inkscape:vp_x="0 : 100 : 1"
       inkscape:vp_y="0 : 1000 : 0"
       inkscape:vp_z="200 : 100 : 1"
       inkscape:persp3d-origin="100 : 66.666667 : 1"
       id="perspective2879" />
    <inkscape:perspective
       id="perspective2839"
       inkscape:persp3d-origin="0.5 : 0.33333333 : 1"
       inkscape:vp_z="1 : 0.5 : 1"
       inkscape:vp_y="0 : 1000 : 0"
       inkscape:vp_x="0 : 0.5 : 1"
       sodipodi:type="inkscape:persp3d" />
    <inkscape:perspective
       id="perspective3649"
       inkscape:persp3d-origin="0.5 : 0.33333333 : 1"
       inkscape:vp_z="1 : 0.5 : 1"
       inkscape:vp_y="0 : 1000 : 0"
       inkscape:vp_x="0 : 0.5 : 1"
       sodipodi:type="inkscape:persp3d" />
    <inkscape:perspective
       id="perspective3679"
       inkscape:persp3d-origin="0.5 : 0.33333333 : 1"
       inkscape:vp_z="1 : 0.5 : 1"
       inkscape:vp_y="0 : 1000 : 0"
       inkscape:vp_x="0 : 0.5 : 1"
       sodipodi:type="inkscape:persp3d" />
    <inkscape:perspective
       id="perspective3713"
       inkscape:persp3d-origin="0.5 : 0.33333333 : 1"
       inkscape:vp_z="1 : 0.5 : 1"
       inkscape:vp_y="0 : 1000 : 0"
       inkscape:vp_x="0 : 0.5 : 1"
       sodipodi:type="inkscape:persp3d" />
    <inkscape:perspective
       id="perspective3741"
       inkscape:persp3d-origin="0.5 : 0.33333333 : 1"
       inkscape:vp_z="1 : 0.5 : 1"
       inkscape:vp_y="0 : 1000 : 0"
       inkscape:vp_x="0 : 0.5 : 1"
       sodipodi:type="inkscape:persp3d" />
    <inkscape:perspective
       id="perspective3765"
       inkscape:persp3d-origin="0.5 : 0.33333333 : 1"
       inkscape:vp_z="1 : 0.5 : 1"
       inkscape:vp_y="0 : 1000 : 0"
       inkscape:vp_x="0 : 0.5 : 1"
       sodipodi:type="inkscape:persp3d" />
    <inkscape:perspective
       id="perspective3801"
       inkscape:persp3d-origin="0.5 : 0.33333333 : 1"
       inkscape:vp_z="1 : 0.5 : 1"
       inkscape:vp_y="0 : 1000 : 0"
       inkscape:vp_x="0 : 0.5 : 1"
       sodipodi:type="inkscape:persp3d" />
    <inkscape:perspective
       id="perspective2863"
       inkscape:persp3d-origin="0.5 : 0.33333333 : 1"
       inkscape:vp_z="1 : 0.5 : 1"
       inkscape:vp_y="0 : 1000 : 0"
       inkscape:vp_x="0 : 0.5 : 1"
       sodipodi:type="inkscape:persp3d" />
    <inkscape:perspective
       id="perspective3859"
       inkscape:persp3d-origin="0.5 : 0.33333333 : 1"
       inkscape:vp_z="1 : 0.5 : 1"
       inkscape:vp_y="0 : 1000 : 0"
       inkscape:vp_x="0 : 0.5 : 1"
       sodipodi:type="inkscape:persp3d" />
    <inkscape:perspective
       id="perspective3964"
       inkscape:persp3d-origin="0.5 : 0.33333333 : 1"
       inkscape:vp_z="1 : 0.5 : 1"
       inkscape:vp_y="0 : 1000 : 0"
       inkscape:vp_x="0 : 0.5 : 1"
       sodipodi:type="inkscape:persp3d" />
    <inkscape:perspective
       id="perspective3988"
       inkscape:persp3d-origin="0.5 : 0.33333333 : 1"
       inkscape:vp_z="1 : 0.5 : 1"
       inkscape:vp_y="0 : 1000 : 0"
       inkscape:vp_x="0 : 0.5 : 1"
       sodipodi:type="inkscape:persp3d" />
    <inkscape:perspective
       id="perspective2879-7"
       inkscape:persp3d-origin="0.5 : 0.33333333 : 1"
       inkscape:vp_z="1 : 0.5 : 1"
       inkscape:vp_y="0 : 1000 : 0"
       inkscape:vp_x="0 : 0.5 : 1"
       sodipodi:type="inkscape:persp3d" />
    <inkscape:perspective
       id="perspective4031"
       inkscape:persp3d-origin="0.5 : 0.33333333 : 1"
       inkscape:vp_z="1 : 0.5 : 1"
       inkscape:vp_y="0 : 1000 : 0"
       inkscape:vp_x="0 : 0.5 : 1"
       sodipodi:type="inkscape:persp3d" />
    <inkscape:perspective
       id="perspective4047"
       inkscape:persp3d-origin="0.5 : 0.33333333 : 1"
       inkscape:vp_z="1 : 0.5 : 1"
       inkscape:vp_y="0 : 1000 : 0"
       inkscape:vp_x="0 : 0.5 : 1"
       sodipodi:type="inkscape:persp3d" />
    <inkscape:perspective
       id="perspective4063"
       inkscape:persp3d-origin="0.5 : 0.33333333 : 1"
       inkscape:vp_z="1 : 0.5 : 1"
       inkscape:vp_y="0 : 1000 : 0"
       inkscape:vp_x="0 : 0.5 : 1"
       sodipodi:type="inkscape:persp3d" />
    <inkscape:perspective
       id="perspective4079"
       inkscape:persp3d-origin="0.5 : 0.33333333 : 1"
       inkscape:vp_z="1 : 0.5 : 1"
       inkscape:vp_y="0 : 1000 : 0"
       inkscape:vp_x="0 : 0.5 : 1"
       sodipodi:type="inkscape:persp3d" />
  </defs>
  <path
     style="fill:#ffffff;fill-opacity:1;stroke:none"
     d="m -2.1039262,-3.1405409 207.7153762,0 0,207.3483909 -207.7153762,0 0,-207.3483909 z"
     id="rect2881" />
  <path
     style="fill:none;stroke:#000000;stroke-width:3;stroke-miterlimit:4;stroke-opacity:1"
     d="m 21.814432,2.8621521 157.645218,0 c 10.29357,0 18.58045,8.2868829 18.58045,18.5804539 l 0,157.645234 c 0,10.29357 -8.28688,18.58045 -18.58045,18.58045 l -157.645218,0 c -10.293571,0 -18.5804535,-8.28688 -18.5804535,-18.58045 l 0,-157.645234 c 0,-10.293571 8.2868825,-18.5804539 18.5804535,-18.5804539 z"
     id="rect4614" />
  <path
     style="fill:#000000"
     d="m 143.27483,158.67338 c -12.45056,-1.91654 -23.23582,-12.0978 -26.05288,-24.59383 -2.48868,-11.03944 0.43331,-21.23716 8.43919,-29.45263 8.00588,-8.215476 18.12469,-11.399978 29.22474,-9.197357 12.86778,2.553394 23.29801,13.428957 25.38259,26.466297 3.42297,21.40775 -15.38321,40.10405 -36.99364,36.77752 z m 11.24878,-22.16816 c 6.67541,-3.95732 7.1735,-14.07856 0.92101,-18.71501 -4.76175,-3.531 -10.83496,-3.02683 -14.99789,1.24509 -3.02174,3.10085 -4.03795,6.62362 -3.01917,10.46614 2.08617,7.86838 10.09977,11.15133 17.09605,7.00378 z M 41.832921,158.70396 c -5.914822,-1.58988 -10.641765,-5.62692 -13.35583,-11.40656 -1.979226,-4.21479 -1.973885,-11.34327 0.01181,-15.76236 1.95076,-4.34131 5.301061,-7.95928 9.310372,-10.0542 2.946693,-1.53968 3.844405,-1.72389 8.710638,-1.78732 4.654992,-0.0607 5.874098,0.13412 8.585541,1.37192 4.133045,1.88676 7.812002,5.45032 9.745708,9.44001 1.343393,2.77172 1.564655,3.95118 1.61999,8.63563 0.07652,6.47189 -0.946764,9.31307 -4.926483,13.67945 -4.733278,5.19316 -13.040574,7.67392 -19.701746,5.88343 z m 9.4847,-12.53033 c 2.485741,-1.55992 4.22725,-5.54784 3.658447,-8.37758 -0.227958,-1.13407 -1.1835,-2.91532 -2.123426,-3.95834 -5.646922,-6.26631 -15.5245,-0.87385 -13.831069,7.55078 0.366232,1.82197 3.187592,5.01284 4.985575,5.63853 1.971868,0.6862 5.516475,0.27242 7.310473,-0.85339 z m 11.168942,-22.45256 -3.831744,-3.89951 20.977012,-0.27104 20.977009,-0.27104 1.2047,2.98317 c 0.66259,1.64074 1.39147,3.43056 1.61974,3.97739 0.39049,0.93539 -0.69508,1.00563 -18.349963,1.18738 l -18.76501,0.19315 -3.831744,-3.89952 0,2e-5 z m 43.479647,0.0587 c -0.66446,-0.64751 -1.16678,-1.88889 -1.18005,-2.91625 -0.022,-1.70151 5.86923,-25.421781 7.12604,-28.692156 0.66726,-1.73631 1.60151,-2.121269 12.7127,-5.238325 3.75622,-1.053744 7.05522,-2.123229 7.33111,-2.376636 0.47375,-0.435147 -2.43466,-7.918371 -3.07431,-7.910106 -0.16168,0.0021 -3.70887,1.847163 -7.88263,4.100164 -4.48983,2.42361 -8.28881,4.105412 -9.30323,4.11852 -3.63079,0.04691 -5.87726,-4.504333 -3.6139,-7.321618 0.54106,-0.673488 7.45863,-4.903893 15.37238,-9.400905 12.80386,-7.275831 14.68675,-8.180241 17.0953,-8.211361 3.23012,-0.04174 5.38183,1.357607 6.25702,4.069196 0.32659,1.011866 0.83171,6.789555 1.12249,12.839313 0.59981,12.479026 0.49894,12.904494 -3.56715,15.04551 -2.56647,1.351383 -10.07803,3.105449 -18.19024,4.247703 -2.97904,0.419463 -5.61899,0.948765 -5.86656,1.176211 -0.24758,0.227454 -1.86775,5.99684 -3.60037,12.82086 -1.82348,7.18189 -3.57973,12.89442 -4.17008,13.56394 -1.38099,1.56618 -5.00091,1.61354 -6.56852,0.0859 l 0,7e-5 0,-3e-5 z m -69.492742,-7.24151 c -0.142348,-0.39085 -2.153705,-7.24054 -4.469682,-15.22151 -2.315977,-7.980987 -4.35933,-14.958771 -4.540788,-15.506196 -0.311529,-0.939827 1.452626,-1.018346 31.644354,-1.408453 l 31.974273,-0.413139 0.398435,1.708414 c 0.501753,2.151418 0.91826,2.137903 2.51529,-0.08162 l 1.280221,-1.779226 -1.212038,-1.257203 c -2.09016,-2.16805 -1.36714,-5.465478 1.205699,-5.498722 0.614724,-0.0079 3.380695,2.159143 6.258938,4.903773 4.76662,4.545319 5.14656,5.070643 5.01391,6.932264 -0.12664,1.777326 -0.34605,2.036768 -1.86531,2.205638 -1.30609,0.145176 -2.13175,-0.2256 -3.41977,-1.5357 l -1.697989,-1.727078 -2.924703,2.96399 c -2.85429,2.892624 -2.910036,3.013899 -2.315222,5.036922 0.335218,1.140117 1.762353,6.234856 3.17141,11.321636 l 2.561924,9.24869 -31.66007,0.40908 c -24.814213,0.32062 -31.716032,0.25542 -31.918882,-0.30156 z"
     id="path4085"
     sodipodi:nodetypes="cssssccsssccssssssssccssssccccccscccccsssssssssssssssssccccsccccccsssscccsccccc" />
  <path
     sodipodi:type="arc"
     style="fill:#000000;fill-opacity:1;stroke:#000000;stroke-width:0.63;stroke-linecap:butt;stroke-linejoin:miter;stroke-miterlimit:4;stroke-opacity:1;stroke-dasharray:none;stroke-dashoffset:0"
     id="path4087"
     sodipodi:cx="98.039459"
     sodipodi:cy="48.031395"
     sodipodi:rx="6.3971124"
     sodipodi:ry="6.4714971"
     d="m 104.43657,48.031395 a 6.3971124,6.4714971 0 1 1 -12.794223,0 6.3971124,6.4714971 0 1 1 12.794223,0 z"
     transform="matrix(1.1753718,0,0,1.1753718,21.771348,-7.2331931)" />
</svg>
