<?xml version="1.0" encoding="UTF-8" standalone="no"?>
<!-- Created with Inkscape (http://www.inkscape.org/) -->

<svg
   xmlns:dc="http://purl.org/dc/elements/1.1/"
   xmlns:cc="http://creativecommons.org/ns#"
   xmlns:rdf="http://www.w3.org/1999/02/22-rdf-syntax-ns#"
   xmlns:svg="http://www.w3.org/2000/svg"
   xmlns="http://www.w3.org/2000/svg"
   xmlns:sodipodi="http://sodipodi.sourceforge.net/DTD/sodipodi-0.dtd"
   xmlns:inkscape="http://www.inkscape.org/namespaces/inkscape"
   version="1.1"
   width="200"
   height="200"
   id="svg2"
   inkscape:version="0.47 r22583"
   sodipodi:docname="Italian traffic signs - icona biblioteca.svg"
   sodipodi:version="0.32"
   inkscape:output_extension="org.inkscape.output.svg.inkscape">
  <metadata
     id="metadata2877">
    <rdf:RDF>
      <cc:Work
         rdf:about="">
        <dc:format>image/svg+xml</dc:format>
        <dc:type
           rdf:resource="http://purl.org/dc/dcmitype/StillImage" />
        <dc:title></dc:title>
      </cc:Work>
    </rdf:RDF>
  </metadata>
  <sodipodi:namedview
     pagecolor="#ffffff"
     bordercolor="#666666"
     borderopacity="1"
     objecttolerance="10"
     gridtolerance="10"
     guidetolerance="10"
     inkscape:pageopacity="0"
     inkscape:pageshadow="2"
     inkscape:window-width="1600"
     inkscape:window-height="838"
     id="namedview2875"
     showgrid="false"
     inkscape:zoom="1.6804458"
     inkscape:cx="133.98844"
     inkscape:cy="149.42389"
     inkscape:window-x="-8"
     inkscape:window-y="-8"
     inkscape:window-maximized="1"
     inkscape:current-layer="svg2" />
  <defs
     id="defs4">
    <inkscape:perspective
       sodipodi:type="inkscape:persp3d"
       inkscape:vp_x="0 : 100 : 1"
       inkscape:vp_y="0 : 1000 : 0"
       inkscape:vp_z="200 : 100 : 1"
       inkscape:persp3d-origin="100 : 66.666667 : 1"
       id="perspective2879" />
    <inkscape:perspective
       id="perspective2839"
       inkscape:persp3d-origin="0.5 : 0.33333333 : 1"
       inkscape:vp_z="1 : 0.5 : 1"
       inkscape:vp_y="0 : 1000 : 0"
       inkscape:vp_x="0 : 0.5 : 1"
       sodipodi:type="inkscape:persp3d" />
    <inkscape:perspective
       id="perspective3649"
       inkscape:persp3d-origin="0.5 : 0.33333333 : 1"
       inkscape:vp_z="1 : 0.5 : 1"
       inkscape:vp_y="0 : 1000 : 0"
       inkscape:vp_x="0 : 0.5 : 1"
       sodipodi:type="inkscape:persp3d" />
    <inkscape:perspective
       id="perspective3679"
       inkscape:persp3d-origin="0.5 : 0.33333333 : 1"
       inkscape:vp_z="1 : 0.5 : 1"
       inkscape:vp_y="0 : 1000 : 0"
       inkscape:vp_x="0 : 0.5 : 1"
       sodipodi:type="inkscape:persp3d" />
    <inkscape:perspective
       id="perspective3713"
       inkscape:persp3d-origin="0.5 : 0.33333333 : 1"
       inkscape:vp_z="1 : 0.5 : 1"
       inkscape:vp_y="0 : 1000 : 0"
       inkscape:vp_x="0 : 0.5 : 1"
       sodipodi:type="inkscape:persp3d" />
    <inkscape:perspective
       id="perspective3741"
       inkscape:persp3d-origin="0.5 : 0.33333333 : 1"
       inkscape:vp_z="1 : 0.5 : 1"
       inkscape:vp_y="0 : 1000 : 0"
       inkscape:vp_x="0 : 0.5 : 1"
       sodipodi:type="inkscape:persp3d" />
    <inkscape:perspective
       id="perspective3765"
       inkscape:persp3d-origin="0.5 : 0.33333333 : 1"
       inkscape:vp_z="1 : 0.5 : 1"
       inkscape:vp_y="0 : 1000 : 0"
       inkscape:vp_x="0 : 0.5 : 1"
       sodipodi:type="inkscape:persp3d" />
    <inkscape:perspective
       id="perspective3801"
       inkscape:persp3d-origin="0.5 : 0.33333333 : 1"
       inkscape:vp_z="1 : 0.5 : 1"
       inkscape:vp_y="0 : 1000 : 0"
       inkscape:vp_x="0 : 0.5 : 1"
       sodipodi:type="inkscape:persp3d" />
    <inkscape:perspective
       id="perspective2863"
       inkscape:persp3d-origin="0.5 : 0.33333333 : 1"
       inkscape:vp_z="1 : 0.5 : 1"
       inkscape:vp_y="0 : 1000 : 0"
       inkscape:vp_x="0 : 0.5 : 1"
       sodipodi:type="inkscape:persp3d" />
    <inkscape:perspective
       id="perspective3859"
       inkscape:persp3d-origin="0.5 : 0.33333333 : 1"
       inkscape:vp_z="1 : 0.5 : 1"
       inkscape:vp_y="0 : 1000 : 0"
       inkscape:vp_x="0 : 0.5 : 1"
       sodipodi:type="inkscape:persp3d" />
    <inkscape:perspective
       id="perspective3964"
       inkscape:persp3d-origin="0.5 : 0.33333333 : 1"
       inkscape:vp_z="1 : 0.5 : 1"
       inkscape:vp_y="0 : 1000 : 0"
       inkscape:vp_x="0 : 0.5 : 1"
       sodipodi:type="inkscape:persp3d" />
    <inkscape:perspective
       id="perspective3988"
       inkscape:persp3d-origin="0.5 : 0.33333333 : 1"
       inkscape:vp_z="1 : 0.5 : 1"
       inkscape:vp_y="0 : 1000 : 0"
       inkscape:vp_x="0 : 0.5 : 1"
       sodipodi:type="inkscape:persp3d" />
    <inkscape:perspective
       id="perspective2879-7"
       inkscape:persp3d-origin="0.5 : 0.33333333 : 1"
       inkscape:vp_z="1 : 0.5 : 1"
       inkscape:vp_y="0 : 1000 : 0"
       inkscape:vp_x="0 : 0.5 : 1"
       sodipodi:type="inkscape:persp3d" />
    <inkscape:perspective
       id="perspective4031"
       inkscape:persp3d-origin="0.5 : 0.33333333 : 1"
       inkscape:vp_z="1 : 0.5 : 1"
       inkscape:vp_y="0 : 1000 : 0"
       inkscape:vp_x="0 : 0.5 : 1"
       sodipodi:type="inkscape:persp3d" />
    <inkscape:perspective
       id="perspective4047"
       inkscape:persp3d-origin="0.5 : 0.33333333 : 1"
       inkscape:vp_z="1 : 0.5 : 1"
       inkscape:vp_y="0 : 1000 : 0"
       inkscape:vp_x="0 : 0.5 : 1"
       sodipodi:type="inkscape:persp3d" />
    <inkscape:perspective
       id="perspective4063"
       inkscape:persp3d-origin="0.5 : 0.33333333 : 1"
       inkscape:vp_z="1 : 0.5 : 1"
       inkscape:vp_y="0 : 1000 : 0"
       inkscape:vp_x="0 : 0.5 : 1"
       sodipodi:type="inkscape:persp3d" />
    <inkscape:perspective
       id="perspective4079"
       inkscape:persp3d-origin="0.5 : 0.33333333 : 1"
       inkscape:vp_z="1 : 0.5 : 1"
       inkscape:vp_y="0 : 1000 : 0"
       inkscape:vp_x="0 : 0.5 : 1"
       sodipodi:type="inkscape:persp3d" />
    <inkscape:perspective
       id="perspective4097"
       inkscape:persp3d-origin="0.5 : 0.33333333 : 1"
       inkscape:vp_z="1 : 0.5 : 1"
       inkscape:vp_y="0 : 1000 : 0"
       inkscape:vp_x="0 : 0.5 : 1"
       sodipodi:type="inkscape:persp3d" />
    <inkscape:perspective
       id="perspective4115"
       inkscape:persp3d-origin="0.5 : 0.33333333 : 1"
       inkscape:vp_z="1 : 0.5 : 1"
       inkscape:vp_y="0 : 1000 : 0"
       inkscape:vp_x="0 : 0.5 : 1"
       sodipodi:type="inkscape:persp3d" />
    <inkscape:perspective
       id="perspective4129"
       inkscape:persp3d-origin="0.5 : 0.33333333 : 1"
       inkscape:vp_z="1 : 0.5 : 1"
       inkscape:vp_y="0 : 1000 : 0"
       inkscape:vp_x="0 : 0.5 : 1"
       sodipodi:type="inkscape:persp3d" />
    <inkscape:perspective
       id="perspective4153"
       inkscape:persp3d-origin="0.5 : 0.33333333 : 1"
       inkscape:vp_z="1 : 0.5 : 1"
       inkscape:vp_y="0 : 1000 : 0"
       inkscape:vp_x="0 : 0.5 : 1"
       sodipodi:type="inkscape:persp3d" />
    <inkscape:perspective
       id="perspective4179"
       inkscape:persp3d-origin="0.5 : 0.33333333 : 1"
       inkscape:vp_z="1 : 0.5 : 1"
       inkscape:vp_y="0 : 1000 : 0"
       inkscape:vp_x="0 : 0.5 : 1"
       sodipodi:type="inkscape:persp3d" />
    <inkscape:perspective
       id="perspective4195"
       inkscape:persp3d-origin="0.5 : 0.33333333 : 1"
       inkscape:vp_z="1 : 0.5 : 1"
       inkscape:vp_y="0 : 1000 : 0"
       inkscape:vp_x="0 : 0.5 : 1"
       sodipodi:type="inkscape:persp3d" />
    <inkscape:perspective
       id="perspective4213"
       inkscape:persp3d-origin="0.5 : 0.33333333 : 1"
       inkscape:vp_z="1 : 0.5 : 1"
       inkscape:vp_y="0 : 1000 : 0"
       inkscape:vp_x="0 : 0.5 : 1"
       sodipodi:type="inkscape:persp3d" />
    <inkscape:perspective
       id="perspective4267"
       inkscape:persp3d-origin="0.5 : 0.33333333 : 1"
       inkscape:vp_z="1 : 0.5 : 1"
       inkscape:vp_y="0 : 1000 : 0"
       inkscape:vp_x="0 : 0.5 : 1"
       sodipodi:type="inkscape:persp3d" />
    <inkscape:perspective
       id="perspective4283"
       inkscape:persp3d-origin="0.5 : 0.33333333 : 1"
       inkscape:vp_z="1 : 0.5 : 1"
       inkscape:vp_y="0 : 1000 : 0"
       inkscape:vp_x="0 : 0.5 : 1"
       sodipodi:type="inkscape:persp3d" />
    <inkscape:perspective
       id="perspective4314"
       inkscape:persp3d-origin="0.5 : 0.33333333 : 1"
       inkscape:vp_z="1 : 0.5 : 1"
       inkscape:vp_y="0 : 1000 : 0"
       inkscape:vp_x="0 : 0.5 : 1"
       sodipodi:type="inkscape:persp3d" />
    <inkscape:perspective
       id="perspective4330"
       inkscape:persp3d-origin="0.5 : 0.33333333 : 1"
       inkscape:vp_z="1 : 0.5 : 1"
       inkscape:vp_y="0 : 1000 : 0"
       inkscape:vp_x="0 : 0.5 : 1"
       sodipodi:type="inkscape:persp3d" />
    <inkscape:perspective
       id="perspective4346"
       inkscape:persp3d-origin="0.5 : 0.33333333 : 1"
       inkscape:vp_z="1 : 0.5 : 1"
       inkscape:vp_y="0 : 1000 : 0"
       inkscape:vp_x="0 : 0.5 : 1"
       sodipodi:type="inkscape:persp3d" />
    <inkscape:perspective
       id="perspective3742"
       inkscape:persp3d-origin="0.5 : 0.33333333 : 1"
       inkscape:vp_z="1 : 0.5 : 1"
       inkscape:vp_y="0 : 1000 : 0"
       inkscape:vp_x="0 : 0.5 : 1"
       sodipodi:type="inkscape:persp3d" />
    <inkscape:perspective
       id="perspective3776"
       inkscape:persp3d-origin="0.5 : 0.33333333 : 1"
       inkscape:vp_z="1 : 0.5 : 1"
       inkscape:vp_y="0 : 1000 : 0"
       inkscape:vp_x="0 : 0.5 : 1"
       sodipodi:type="inkscape:persp3d" />
    <inkscape:perspective
       id="perspective3792"
       inkscape:persp3d-origin="0.5 : 0.33333333 : 1"
       inkscape:vp_z="1 : 0.5 : 1"
       inkscape:vp_y="0 : 1000 : 0"
       inkscape:vp_x="0 : 0.5 : 1"
       sodipodi:type="inkscape:persp3d" />
    <inkscape:perspective
       id="perspective3808"
       inkscape:persp3d-origin="0.5 : 0.33333333 : 1"
       inkscape:vp_z="1 : 0.5 : 1"
       inkscape:vp_y="0 : 1000 : 0"
       inkscape:vp_x="0 : 0.5 : 1"
       sodipodi:type="inkscape:persp3d" />
    <inkscape:perspective
       id="perspective3824"
       inkscape:persp3d-origin="0.5 : 0.33333333 : 1"
       inkscape:vp_z="1 : 0.5 : 1"
       inkscape:vp_y="0 : 1000 : 0"
       inkscape:vp_x="0 : 0.5 : 1"
       sodipodi:type="inkscape:persp3d" />
    <inkscape:perspective
       id="perspective4354"
       inkscape:persp3d-origin="0.5 : 0.33333333 : 1"
       inkscape:vp_z="1 : 0.5 : 1"
       inkscape:vp_y="0 : 1000 : 0"
       inkscape:vp_x="0 : 0.5 : 1"
       sodipodi:type="inkscape:persp3d" />
    <inkscape:perspective
       id="perspective4395"
       inkscape:persp3d-origin="0.5 : 0.33333333 : 1"
       inkscape:vp_z="1 : 0.5 : 1"
       inkscape:vp_y="0 : 1000 : 0"
       inkscape:vp_x="0 : 0.5 : 1"
       sodipodi:type="inkscape:persp3d" />
    <inkscape:perspective
       id="perspective4435"
       inkscape:persp3d-origin="0.5 : 0.33333333 : 1"
       inkscape:vp_z="1 : 0.5 : 1"
       inkscape:vp_y="0 : 1000 : 0"
       inkscape:vp_x="0 : 0.5 : 1"
       sodipodi:type="inkscape:persp3d" />
    <inkscape:perspective
       id="perspective4460"
       inkscape:persp3d-origin="0.5 : 0.33333333 : 1"
       inkscape:vp_z="1 : 0.5 : 1"
       inkscape:vp_y="0 : 1000 : 0"
       inkscape:vp_x="0 : 0.5 : 1"
       sodipodi:type="inkscape:persp3d" />
    <inkscape:perspective
       id="perspective4479"
       inkscape:persp3d-origin="0.5 : 0.33333333 : 1"
       inkscape:vp_z="1 : 0.5 : 1"
       inkscape:vp_y="0 : 1000 : 0"
       inkscape:vp_x="0 : 0.5 : 1"
       sodipodi:type="inkscape:persp3d" />
    <inkscape:perspective
       id="perspective4495"
       inkscape:persp3d-origin="0.5 : 0.33333333 : 1"
       inkscape:vp_z="1 : 0.5 : 1"
       inkscape:vp_y="0 : 1000 : 0"
       inkscape:vp_x="0 : 0.5 : 1"
       sodipodi:type="inkscape:persp3d" />
    <inkscape:perspective
       id="perspective4511"
       inkscape:persp3d-origin="0.5 : 0.33333333 : 1"
       inkscape:vp_z="1 : 0.5 : 1"
       inkscape:vp_y="0 : 1000 : 0"
       inkscape:vp_x="0 : 0.5 : 1"
       sodipodi:type="inkscape:persp3d" />
    <inkscape:perspective
       id="perspective4527"
       inkscape:persp3d-origin="0.5 : 0.33333333 : 1"
       inkscape:vp_z="1 : 0.5 : 1"
       inkscape:vp_y="0 : 1000 : 0"
       inkscape:vp_x="0 : 0.5 : 1"
       sodipodi:type="inkscape:persp3d" />
    <inkscape:perspective
       id="perspective4543"
       inkscape:persp3d-origin="0.5 : 0.33333333 : 1"
       inkscape:vp_z="1 : 0.5 : 1"
       inkscape:vp_y="0 : 1000 : 0"
       inkscape:vp_x="0 : 0.5 : 1"
       sodipodi:type="inkscape:persp3d" />
    <inkscape:perspective
       id="perspective4559"
       inkscape:persp3d-origin="0.5 : 0.33333333 : 1"
       inkscape:vp_z="1 : 0.5 : 1"
       inkscape:vp_y="0 : 1000 : 0"
       inkscape:vp_x="0 : 0.5 : 1"
       sodipodi:type="inkscape:persp3d" />
    <inkscape:perspective
       id="perspective4575"
       inkscape:persp3d-origin="0.5 : 0.33333333 : 1"
       inkscape:vp_z="1 : 0.5 : 1"
       inkscape:vp_y="0 : 1000 : 0"
       inkscape:vp_x="0 : 0.5 : 1"
       sodipodi:type="inkscape:persp3d" />
    <inkscape:perspective
       id="perspective4591"
       inkscape:persp3d-origin="0.5 : 0.33333333 : 1"
       inkscape:vp_z="1 : 0.5 : 1"
       inkscape:vp_y="0 : 1000 : 0"
       inkscape:vp_x="0 : 0.5 : 1"
       sodipodi:type="inkscape:persp3d" />
    <inkscape:perspective
       id="perspective4607"
       inkscape:persp3d-origin="0.5 : 0.33333333 : 1"
       inkscape:vp_z="1 : 0.5 : 1"
       inkscape:vp_y="0 : 1000 : 0"
       inkscape:vp_x="0 : 0.5 : 1"
       sodipodi:type="inkscape:persp3d" />
    <inkscape:perspective
       id="perspective4629"
       inkscape:persp3d-origin="0.5 : 0.33333333 : 1"
       inkscape:vp_z="1 : 0.5 : 1"
       inkscape:vp_y="0 : 1000 : 0"
       inkscape:vp_x="0 : 0.5 : 1"
       sodipodi:type="inkscape:persp3d" />
    <inkscape:perspective
       id="perspective4674"
       inkscape:persp3d-origin="0.5 : 0.33333333 : 1"
       inkscape:vp_z="1 : 0.5 : 1"
       inkscape:vp_y="0 : 1000 : 0"
       inkscape:vp_x="0 : 0.5 : 1"
       sodipodi:type="inkscape:persp3d" />
    <inkscape:perspective
       id="perspective4690"
       inkscape:persp3d-origin="0.5 : 0.33333333 : 1"
       inkscape:vp_z="1 : 0.5 : 1"
       inkscape:vp_y="0 : 1000 : 0"
       inkscape:vp_x="0 : 0.5 : 1"
       sodipodi:type="inkscape:persp3d" />
  </defs>
  <path
     style="fill:#ffffff;fill-opacity:1;stroke:none"
     d="m -4.9305571,-3.438081 207.7153771,0 0,207.348391 -207.7153771,0 0,-207.348391 z"
     id="rect2881" />
  <path
     style="fill:none;stroke:#000000;stroke-width:3;stroke-miterlimit:4;stroke-opacity:1"
     d="m 21.814432,2.8621521 157.645218,0 c 10.29357,0 18.58045,8.2868829 18.58045,18.5804539 l 0,157.645234 c 0,10.29357 -8.28688,18.58045 -18.58045,18.58045 l -157.645218,0 c -10.293571,0 -18.5804535,-8.28688 -18.5804535,-18.58045 l 0,-157.645234 c 0,-10.293571 8.2868825,-18.5804539 18.5804535,-18.5804539 z"
     id="rect4614" />
  <g
     id="g4718">
    <path
       sodipodi:nodetypes="csssssssssssssssssssscc"
       style="fill:#00599e;fill-opacity:1;stroke:none"
       d="M 53.511017,72.135117 C 50.218076,71.417033 47.343962,70.345678 42.448057,68.011302 39.702488,66.70221 37.154994,65.727272 35.305312,65.277749 33.046991,64.728904 31.943787,64.430558 31.663569,64.003387 31.503802,63.759837 31.791561,60.294729 31.3593,51.542379 30.8591,41.414356 30.48478,32.487022 30.42391,29.233812 c -0.01065,-0.568669 -0.0024,-0.586744 0.253222,-0.561115 0.145319,0.01456 1.419398,0.570616 2.831288,1.235671 8.482016,3.995362 13.253689,5.42504 20.520453,6.148292 3.890228,0.387224 6.076951,-0.392986 9.163559,-0.892274 4.532269,-0.733138 6.243174,-1.586555 10.821489,-5.924705 4.244525,-4.021873 6.718789,-5.08006 9.161718,-5.908922 1.349727,-0.45795 2.417372,-0.563168 4.382355,-0.431889 1.881587,0.125709 2.857877,0.344451 3.085642,0.691363 0.155598,0.236991 0.298952,2.552294 0.785036,12.679076 0.579342,12.069609 1.416325,22.234716 1.349657,22.946282 -0.04058,0.433085 -0.563696,1.148463 -2.26847,1.089454 -3.21592,-0.111312 -7.014556,-0.07418 -8.947165,0.857455 -1.535896,0.740395 -3.16563,2.065085 -6.151876,5.00042 -2.190381,2.153032 -3.2072,3.030332 -4.300692,3.710598 -3.818144,2.375267 -8.058082,3.198374 -14.023873,2.722473 C 55.574324,72.47537 54.34416,72.316931 53.511018,72.1351 l -10e-7,1.7e-5 z"
       id="path4706" />
    <path
       id="path4714"
       d="m 149.85181,72.029921 c 3.29294,-0.718084 6.16706,-1.789439 11.06296,-4.123815 2.74557,-1.309092 5.29307,-2.28403 7.14275,-2.733553 2.25832,-0.548845 3.36152,-0.847191 3.64174,-1.274362 0.15977,-0.24355 -0.12799,-3.708658 0.30427,-12.461008 0.5002,-10.128023 0.87452,-19.055357 0.93539,-22.308567 0.0106,-0.568669 0.002,-0.586744 -0.25322,-0.561115 -0.14532,0.01456 -1.4194,0.570616 -2.83129,1.235671 -8.48202,3.995362 -13.25369,5.42504 -20.52045,6.148292 -3.89023,0.387224 -6.07695,-0.392986 -9.16356,-0.892274 -4.53227,-0.733138 -6.24318,-1.586555 -10.82149,-5.924705 -4.24453,-4.021873 -6.71879,-5.08006 -9.16172,-5.908922 -1.34973,-0.45795 -2.41737,-0.563168 -4.38235,-0.431889 -1.88159,0.125709 -2.85788,0.344451 -3.08565,0.691363 -0.15559,0.236991 -0.29895,2.552294 -0.78503,12.679076 -0.57934,12.069609 -1.41633,22.234716 -1.34966,22.946282 0.0406,0.433085 0.5637,1.148463 2.26847,1.089454 3.21592,-0.111312 7.01456,-0.07418 8.94717,0.857455 1.53589,0.740395 3.16563,2.065085 6.15187,5.00042 2.19038,2.153032 3.2072,3.030332 4.30069,3.710598 3.81815,2.375267 8.05809,3.198374 14.02388,2.722473 1.51193,-0.120621 2.74209,-0.27906 3.57523,-0.460891 l 0,1.7e-5 z"
       style="fill:#008c4a;fill-opacity:1;stroke:none"
       sodipodi:nodetypes="csssssssssssssssssssscc" />
    <path
       sodipodi:nodetypes="cccccssssssssssssssssssssssscccccsssssssssssssssssssssssssssssssssssscccccssssssssssssssssssssssssccccccc"
       id="path4696"
       d="m 63.381617,174.0764 0,-5.08518 14.140428,0 14.140428,0 -0.276888,-1.73358 c -0.152287,-0.95347 -2.557411,-17.20896 -5.344723,-36.12331 -2.787307,-18.91435 -5.173279,-34.495164 -5.302151,-34.624036 -0.128872,-0.128872 -1.746603,-0.255728 -3.594961,-0.281898 -4.324536,-0.06123 -5.777088,0.76787 -9.13925,5.216544 -4.030683,5.33324 -8.853482,8.00143 -16.791407,9.28976 -6.3559,1.03156 -10.403405,0.50289 -19.960513,-2.60716 -3.680424,-1.19767 -6.348362,-1.74609 -9.65791,-1.98525 -4.848398,-0.35037 -5.828747,-0.856 -5.828747,-3.00625 0,-0.52696 -1.352194,-9.761799 -3.004874,-20.521868 C 11.108368,71.854102 9.7561748,62.8502 9.7561748,62.605506 c 0,-0.244698 0.5106182,-0.955522 1.1347072,-1.579611 1.666545,-1.666545 4.409618,-1.494878 11.827618,0.740202 9.565625,2.882169 17.080892,3.791675 22.686348,2.74553 4.527032,-0.844878 7.668623,-2.790362 11.851273,-7.339099 4.297173,-4.673282 6.759653,-6.146132 11.787298,-7.050169 2.437262,-0.438254 3.646862,-0.439082 5.532633,-0.0037 3.532637,0.815431 6.203331,2.526984 6.770314,4.338849 0.258909,0.827376 3.407347,21.267148 6.99653,45.421711 3.589179,24.154561 6.692936,44.333451 6.897235,44.841971 0.215732,0.53698 0.294538,-0.52892 0.187985,-2.54259 -0.100908,-1.90694 -0.799995,-19.45376 -1.553524,-38.99294 -0.75353,-19.539177 -1.499187,-35.734712 -1.657013,-35.990085 -0.475593,-0.769622 -3.275446,-1.756931 -4.982113,-1.756931 -1.732384,0 -1.830176,-0.148191 -2.364309,-3.582734 l -0.305549,-1.964726 3.738941,0 3.738942,0 1.89e-4,-1.964725 c 3.19e-4,-3.274226 -1.932319,-33.846686 -2.154369,-34.080052 -0.113788,-0.11959 -1.635942,-0.298184 -3.382555,-0.396876 -4.470161,-0.252587 -7.031016,1.010937 -12.441888,6.138809 -2.330798,2.208891 -5.115955,4.403603 -6.189241,4.877137 -7.39646,3.263322 -20.172439,2.082313 -32.08279,-2.965728 -2.72138,-1.15342 -5.047428,-1.997662 -5.168996,-1.876094 -0.121567,0.121568 0.11302,7.237365 0.521306,15.812881 0.408286,8.575515 0.979389,15.949876 0.905458,16.023809 -0.258436,0.258438 -5.42506,-1.209505 -5.883196,-1.640187 -0.263245,-0.247467 -0.796302,-7.839623 -1.238051,-17.633162 -0.84794,-18.798724 -0.845183,-18.829826 1.726059,-19.475166 1.841216,-0.462116 5.842965,0.524581 11.464727,2.826817 6.471257,2.650123 10.961218,3.778899 16.449648,4.135441 7.646946,0.496764 11.59885,-0.803459 16.588998,-5.457971 3.977385,-3.70987 5.808749,-4.839188 9.289521,-5.728427 5.96626,-1.524212 13.493433,0.09983 15.638885,3.374201 0.658668,1.005257 1.133457,7.466155 3.198734,43.528305 2.79572,48.816504 2.41971,42.780974 2.65019,42.540454 0.10152,-0.10595 1.18789,-19.196314 2.41416,-42.423037 2.50873,-47.517546 2.01893,-43.918999 6.28365,-46.165993 2.22462,-1.172108 2.87973,-1.287527 7.30797,-1.287527 4.5642,0 5.04906,0.09262 7.8589,1.501262 1.64704,0.825693 4.72762,3.050863 6.84575,4.944822 5.08843,4.549912 6.73788,5.12881 14.40925,5.057129 6.68617,-0.06248 10.16398,-0.84386 18.22409,-4.094537 6.57148,-2.650306 9.41499,-3.273624 11.61766,-2.546675 0.94311,0.311253 1.81036,0.971559 2.02236,1.539777 0.49586,1.329053 -1.0155,34.834422 -1.59454,35.349355 -0.47699,0.424178 -5.76286,1.666864 -5.94834,1.398432 -0.0596,-0.08621 0.2925,-7.188542 0.78238,-15.782953 0.48988,-8.59441 0.78971,-15.727172 0.66631,-15.850583 -0.12342,-0.123409 -2.10447,0.602965 -4.40235,1.614166 -10.46052,4.603233 -20.69491,6.187564 -28.83075,4.463133 -4.29668,-0.910705 -5.99273,-1.92478 -11.1538,-6.668937 -5.39359,-4.957889 -7.28226,-5.845093 -11.68985,-5.491294 -1.66634,0.133758 -3.10346,0.318224 -3.19359,0.409924 -0.20226,0.205771 -2.09775,30.762049 -2.09661,33.798201 l 8.3e-4,2.195869 3.46716,0 3.46716,0 0,1.329079 c 0,0.730994 -0.13002,1.979172 -0.28893,2.77373 -0.2547,1.273507 -0.47265,1.444651 -1.83979,1.444651 -2.32229,0 -5.23756,1.31521 -5.49467,2.478896 -0.1201,0.543545 -0.73677,16.486481 -1.37038,35.42875 -0.63361,18.94226 -1.23867,36.10471 -1.34459,38.13878 -0.11812,2.26832 -0.0409,3.34081 0.19972,2.77373 0.21576,-0.50852 3.32278,-20.6874 6.90449,-44.841966 3.58171,-24.154564 6.8175,-44.606235 7.19065,-45.448164 0.78515,-1.771512 4.23919,-3.595932 7.70807,-4.071396 2.84528,-0.389991 8.47159,0.90235 11.05149,2.538471 1.12131,0.711111 3.68105,3.097059 5.68833,5.30211 4.07358,4.474937 6.41817,5.876193 11.35241,6.78482 5.58838,1.029086 15.4511,-0.313635 23.80784,-3.241228 3.38937,-1.187383 7.88258,-1.651428 9.57957,-0.989348 0.73722,0.287627 1.37943,0.973242 1.55065,1.655445 0.36399,1.450245 -5.79718,42.123736 -6.53336,43.130516 -0.3945,0.53951 -1.74718,0.82048 -5.10929,1.06125 -3.51025,0.25138 -5.91168,0.77142 -10.33527,2.23818 -7.38907,2.45003 -10.76887,3.02426 -15.70711,2.66863 -7.93322,-0.57133 -13.71366,-2.8811 -17.40393,-6.95436 -1.24855,-1.37813 -3.14778,-3.53953 -4.22052,-4.803119 -2.29947,-2.708551 -4.76474,-3.577279 -8.74161,-3.080402 -2.30906,0.2885 -2.47647,0.396865 -2.71599,1.758022 -0.37293,2.119319 -10.39981,70.258759 -10.39981,70.673749 0,0.19317 6.3449,0.35121 14.09979,0.35121 l 14.09979,0 0,5.08518 0,5.08517 -38.36993,0 -38.369923,0 0,-5.08517 z"
       style="fill:#000000" />
    <path
       id="path4700"
       d="m 43.27237,104.984 c -3.272609,-0.36543 -6.169547,-1.10305 -11.150809,-2.83921 -2.793437,-0.97362 -5.363472,-1.65127 -7.205947,-1.90001 -2.249522,-0.303704 -2.837278,-0.459628 -3.14917,-0.835434 C 21.58862,99.19508 21.038788,95.884043 19.819171,87.683043 18.407858,78.19303 17.228704,69.821788 16.872575,66.764094 c -0.06225,-0.534494 -0.05596,-0.552281 0.195419,-0.552281 0.142859,0 1.434459,0.403376 2.870223,0.896392 8.625435,2.961822 13.403153,3.857783 20.546451,3.853057 3.824133,-0.0025 6.022971,-0.250127 8.983546,-1.011584 4.347205,-1.118096 6.132606,-2.31439 10.195709,-6.831552 3.766877,-4.187831 5.74278,-5.880036 8.046384,-6.891095 1.272751,-0.558614 2.30296,-0.758451 4.228689,-0.820271 1.844,-0.0592 2.814795,0.05465 3.068277,0.359831 0.173166,0.208482 0.524047,2.375195 1.921498,11.865372 1.665554,11.310869 3.004513,20.947552 3.004513,21.623902 0,0.411651 -0.37776,0.528892 -2.043471,0.63421 -3.142231,0.198675 -6.501146,1.054376 -8.298358,2.11405 -1.428294,0.842153 -2.894661,2.243374 -5.535209,5.289299 -1.936814,2.234153 -2.847072,3.156236 -3.849981,3.900016 -3.501859,2.59704 -7.556147,3.77227 -13.409819,3.88714 -1.483518,0.0291 -2.696065,-0.004 -3.524076,-0.0966 z"
       style="fill:#ffe500;fill-opacity:1;stroke:none" />
    <path
       id="path4704"
       d="m 155.48191,104.95926 c -4.99327,-0.21509 -8.86071,-1.37542 -11.99465,-3.5987 -1.16337,-0.82532 -2.86934,-2.486071 -3.68758,-3.589854 -0.32168,-0.433935 -0.91957,-1.238686 -1.32864,-1.788337 -0.95097,-1.27776 -1.9786,-2.337089 -2.97643,-3.068228 -2.26152,-1.65709 -4.43169,-2.39602 -8.4479,-2.876466 -2.12835,-0.254607 -2.98753,-0.406612 -3.35531,-0.59362 -0.20629,-0.104889 -0.20937,-0.05148 0.18999,-3.297541 0.72314,-5.877759 3.99475,-26.675576 4.68879,-29.806866 0.18937,-0.854382 0.32757,-0.910557 2.23877,-0.909976 2.90906,8.83e-4 5.10672,0.680079 7.36724,2.276883 1.21863,0.860821 4.00748,3.630219 5.92823,5.886887 0.81795,0.961002 1.85447,2.065803 2.30338,2.455112 2.92769,2.538997 6.51342,3.991457 11.43608,4.632372 1.79139,0.233234 5.82354,0.402877 7.73687,0.325512 5.42726,-0.21945 9.0143,-0.982944 17.05492,-3.630101 1.94546,-0.640488 3.5738,-1.164524 3.61854,-1.164524 0.27863,0 -0.5381,5.783289 -3.71399,26.299078 l -1.13178,7.311143 -1.57577,0.178716 c -3.68513,0.41794 -5.39885,0.83762 -9.97301,2.44232 -4.61291,1.6183 -5.92675,1.98235 -8.17117,2.26412 -0.9069,0.11385 -4.77772,0.3349 -5.25982,0.30036 -0.14464,-0.0104 -0.57069,-0.0321 -0.94676,-0.0483 l 0,0 z"
       style="fill:#ff0000;fill-opacity:1;stroke:none" />
    <path
       sodipodi:nodetypes="cccac"
       id="path4712"
       d="m 31.032912,62.551995 c 13.006243,2.845734 18.521487,0.461247 23.563973,-4.418244 3.452006,-2.748561 4.64268,-6.45331 10.83522,-8.205313 3.855501,-1.151672 11.122803,-1.592532 15.043072,1.577945 2.638362,2.133747 2.626041,6.487106 3.15589,9.678061"
       style="fill:none;stroke:#ffffff;stroke-width:2.4000001;stroke-linecap:butt;stroke-linejoin:round;stroke-miterlimit:4;stroke-opacity:1;stroke-dasharray:none" />
    <path
       style="fill:none;stroke:#ffffff;stroke-width:2.70000005;stroke-linecap:butt;stroke-linejoin:round;stroke-miterlimit:4;stroke-opacity:1;stroke-dasharray:none"
       d="m 172.25895,62.499397 c -13.00624,2.845734 -18.52148,0.461247 -23.56397,-4.418244 -3.45201,-2.748561 -4.64268,-6.45331 -10.83522,-8.205313 -3.8555,-1.151672 -11.1228,-1.592532 -15.04307,1.577945 -2.63836,2.133747 -2.62604,6.487106 -3.15589,9.678061"
       id="path4716"
       sodipodi:nodetypes="cccac" />
  </g>
</svg>
