<?xml version="1.0" encoding="UTF-8"?>
<svg width="159.28mm" height="159.28mm" version="1.1" viewBox="0 0 159.28 159.28" xmlns="http://www.w3.org/2000/svg">
<g transform="translate(-.85575 7.1244)">
<g transform="translate(-152.34 535.71)" fill-rule="evenodd">
<circle cx="232.83" cy="-463.19" r="79.64" stroke-width="8.2343"/>
<circle cx="232.83" cy="-463.19" r="79.375" fill="#fff" stroke-width="7.2697"/>
<circle cx="232.83" cy="-463.19" r="76.729" fill="#d40000" stroke-width="7.0274"/>
<circle cx="232.83" cy="-463.19" r="56.885" fill="#fff" stroke-width="5.21"/>
<g transform="translate(-3.9722e-5)">
<g transform="matrix(2.5874 0 0 2.5874 -173.25 -599.34)" stroke-linejoin="bevel" stroke-width=".32446">
<path d="m147 59.005c-0.44431 0-0.80245 0.35771-0.80243 0.80202l4.1e-4 7.5908c2e-5 0.44431 0.35771 0.80202 0.80202 0.80202h2.0609c0.4443 0 0.80201-0.35771 0.80201-0.80202v-2.9931h4.6535c0.57907 0.07903 0.7896 0.2973 1.0299 0.53382 0.30682 0.30198 0.76234 0.54157 1.3963 0.54157s1.0895-0.23959 1.3963-0.54157c0.24031-0.23652 0.45084-0.45479 1.0299-0.53382h4.6535v2.9931c0 0.44431 0.35772 0.80202 0.80202 0.80202h2.0608c0.44431 0 0.80202-0.35771 0.80202-0.80202v-7.5908c0-0.4443-0.35771-0.80202-0.80202-0.80202h-2.0608c-0.4443 0-0.80202 0.35771-0.80202 0.80202v3.0541l-4.8318-5.16e-4c-0.4477-0.1929-0.63769-0.55528-0.85163-0.76584-0.30682-0.30198-0.76233-0.54105-1.3963-0.54105s-1.0895 0.23907-1.3963 0.54105c-0.21394 0.21056-0.40393 0.57294-0.85163 0.76584l-4.8318 5.16e-4v-3.0541c0-0.44431-0.35771-0.80202-0.80201-0.80202z"/>
<rect x="141.61" y="59.005" width="3.6648" height="9.1945" rx=".802" ry=".802"/>
<rect x="168.62" y="59.005" width="3.6648" height="9.1945" rx=".802" ry=".802"/>
</g>
<g transform="translate(-228.41 -401.51)" stroke-linejoin="bevel" stroke-width=".4598" aria-label="6">
<path d="m447.55-73.67q0.4088 0 0.67541-0.17774 0.28438-0.17774 0.56876-0.71096 0.28439-0.55099 0.44435-1.2086 0.17774-0.65764 0.17774-1.3864 0-0.69318-0.10664-1.2975-0.10665-0.60431-0.4088-1.102-0.28439-0.55099-0.551-0.72873-0.24883-0.19551-0.63986-0.19551-0.3377 0-0.63986 0.19551-0.28438 0.17774-0.56876 0.72873-0.28439 0.49767-0.4088 1.102-0.10665 0.60431-0.10665 1.2975 0 1.493 0.4799 2.4883 0.47989 0.99534 1.0842 0.99534zm2.2573-14.592q-0.24884-1.0842-0.60432-1.9196-0.3377-0.83538-1.2442-0.83538-0.55099 0-0.97757 0.46212-0.4088 0.44435-0.58654 1.0664-0.17774 0.67541-0.26661 1.0842-0.0711 0.4088-0.10664 0.78205-0.0356 0.35548-0.0533 0.83538-0.0178 0.46212-0.0533 1.2975 0.55099-0.30216 0.87092-0.4799 0.3377-0.17774 0.65763-0.28438 0.33771-0.10664 0.74651-0.15996 0.42657-0.05332 1.1553-0.05332 1.2264 0 2.2928 0.60431 1.0842 0.58654 1.9018 1.7063 0.8176 1.102 1.2975 2.7372 0.47989 1.6352 0.47989 3.7148 0 1.5286-0.53321 3.3237-0.53322 1.7774-1.5108 3.2882-0.97756 1.5108-2.3995 2.5061-1.4219 0.99534-3.1993 0.92424-1.8307 0.0711-3.377-1.1198-1.5463-1.2086-2.6661-3.2526-1.102-2.0618-1.7063-4.7812-0.58654-2.7372-0.51544-5.7232-0.0356-3.0571 0.60431-5.6699 0.65764-2.6305 1.8307-4.5146 1.1908-1.9018 2.7905-2.9505 1.6174-1.0664 3.4659-1.0309 2.2573-0.17774 4.1769 1.6174 1.9374 1.7774 3.0749 5.1189z"/>
</g>
<g transform="translate(-228.41 -401.51)" stroke-linejoin="bevel" stroke-width=".30736" aria-label="5">
<path d="m467.72-73.572 3.8732-0.6891q0.1901 1.0931 0.49901 1.5208 0.32079 0.42772 0.95048 0.42772 0.24951 0 0.48713-0.22574 0.2495-0.23762 0.42771-0.60593 0.1901-0.38019 0.29703-0.84356t0.10693-0.92672q0-1.3426-0.28515-2.1267-0.27326-0.79603-0.92672-0.77227-0.27326 0-0.51088 0.17822-0.22574 0.16634-0.48713 0.79603l-3.3861-0.72474 1.4614-9.7662h7.6395v3.6356h-4.0158l-0.39207 2.7445q0.2495-0.09505 0.41584-0.10693 0.16633-0.01188 0.51088-0.01188 1.0931 0 1.9485 0.54653 0.85543 0.54653 1.402 1.4257 0.54653 0.86732 0.76039 2.0079 0.22574 1.1287 0.0713 2.293-0.0475 1.3663-0.48712 2.5782-0.42772 1.2-1.1881 2.1267-0.7485 0.91484-1.7465 1.4495-0.99801 0.53465-2.1505 0.53465-1.0693 0-1.9723-0.38019-0.89108-0.39208-1.5683-1.0931-0.66533-0.71286-1.1168-1.7346t-0.61782-2.2574z"/>
</g>
<g transform="translate(-228.41 -401.51)" stroke-linejoin="bevel" stroke-width=".46578" aria-label=",">
<path d="m462.48-73.253q-0.97226-0.64818-1.7645-0.64818-1.1703 0-2.0526 0.90024-0.86423 0.88224-0.86423 1.9985 0 0.91825 0.41411 1.6204 0.43212 0.70219 1.0983 1.0803 0.12603 0.05401 0.39611 0.07202 0.27007 0.01801 0.39611 0.07202 0.14403 0.07202 0.14403 0.21606 0 0.19805-1.3324 0.19805-0.21606 0-0.34209 0.14404-0.10803 0.16204-0.10803 0.28808v0.84623q0 0.14404 0.12603 0.30608 0.12604 0.18005 0.32409 0.18005 1.5484 0 2.4307-0.21606 0.88224-0.21606 1.5124-0.63017 1.3324-1.2243 1.3324-3.0608 0-1.0263-0.45012-1.9265-0.45012-0.91825-1.2603-1.4404z"/>
</g>
<g transform="translate(-228.41 -401.51)" stroke-linejoin="bevel" stroke-width=".2804" aria-label="t">
<path d="m462.53-114.23v5.246h1.7126v2.5905h-1.7126v5.7988q0 0.75872 0.17342 0.92131 0.18426 0.16258 0.49859 0.16258 0.1951 0 0.57446-0.16258 0.37937-0.16258 0.91047-0.54195l0.59614 2.6881q-0.30349 0.17342-0.7262 0.33601-0.42272 0.15174-0.86712 0.27097-0.44439 0.11923-0.87795 0.18426-0.43356 0.06503-0.76956 0.06503-1.0839 0-1.6909-0.4444-0.59614-0.4444-0.87796-0.99718-0.27097-0.55278-0.32516-1.0405-0.0542-0.48775-0.0542-0.57446v-6.6659h-1.7776v-2.5905h1.7559v-3.7936z"/>
</g>
<path d="m232.83-442.17 7.1361-12.358c0.62329-0.86036 0.36446-1.3877-0.78126-1.0807l-4.2934 1.0346v-6.8833h-4.1232v6.8833l-4.2934-1.0346c-1.1458-0.30699-1.4046 0.22036-0.78127 1.0807z" stroke-width="2.3916"/>
</g>
</g>
</g>
</svg>
