<?xml version="1.0" encoding="UTF-8" standalone="no"?>
<!-- Created with Inkscape (http://www.inkscape.org/) -->

<svg
   width="53.445728mm"
   height="174.88918mm"
   viewBox="0 0 53.445728 174.88918"
   version="1.1"
   id="svg16603"
   inkscape:version="1.2.1 (9c6d41e410, 2022-07-14)"
   sodipodi:docname="Segnale stradale italiano - lanterne semaforiche gialle lampeggianti (figura II 460).svg"
   xmlns:inkscape="http://www.inkscape.org/namespaces/inkscape"
   xmlns:sodipodi="http://sodipodi.sourceforge.net/DTD/sodipodi-0.dtd"
   xmlns="http://www.w3.org/2000/svg"
   xmlns:svg="http://www.w3.org/2000/svg">
  <sodipodi:namedview
     id="namedview16605"
     pagecolor="#ffffff"
     bordercolor="#000000"
     borderopacity="0.25"
     inkscape:showpageshadow="2"
     inkscape:pageopacity="0.0"
     inkscape:pagecheckerboard="0"
     inkscape:deskcolor="#d1d1d1"
     inkscape:document-units="mm"
     showgrid="false"
     inkscape:zoom="0.76257015"
     inkscape:cx="51.798514"
     inkscape:cy="345.54198"
     inkscape:window-width="1920"
     inkscape:window-height="991"
     inkscape:window-x="-9"
     inkscape:window-y="-9"
     inkscape:window-maximized="1"
     inkscape:current-layer="layer1" />
  <defs
     id="defs16600" />
  <g
     inkscape:label="Livello 1"
     inkscape:groupmode="layer"
     id="layer1"
     transform="translate(-91.591365,-64.871941)">
    <g
       id="g22638"
       transform="translate(-4585.6804,-15265.455)">
      <g
         id="g22623">
        <circle
           style="fill:#000000;fill-rule:evenodd;stroke-width:0.373688;paint-order:markers fill stroke"
           id="path18594-0-0"
           cx="4703.9946"
           cy="15417.904"
           r="26.458281" />
        <g
           id="g18598-5-1"
           transform="matrix(0.99999798,0,0,0.99999798,1401.0556,1180.0441)">
          <path
             style="fill:#f2ef0c;fill-rule:evenodd;stroke-width:0.326111;paint-order:markers fill stroke"
             d="m 3305.2243,14223.718 8.2755,8.624 v 4.869 c 0,0 -0.18,1.774 -1.9213,1.774 -1.7413,0 -1.9213,-1.834 -1.9213,-1.834 v -3.646 l -2.2103,-2.137 c -0.3273,-0.262 -0.7752,-0.242 -0.7752,0.448 l -0.3274,4.894 7.7421,18.359 c 0,0 1.0881,1.896 -0.9186,2.904 -2.0069,1.009 -3.3261,-1.374 -3.3261,-1.374 l -6.7369,-16.46 -7.8056,16.214 c 0,0 -1.2893,2.517 -3.3001,1.579 -2.0108,-0.936 -1.0078,-2.957 -1.0078,-2.957 l 9.3048,-18.781 -1.2062,-3.206 c -0.1451,-0.187 -0.4975,-0.265 -0.6547,0 l -3.722,5.276 c 0,0 -1.3842,1.496 -2.757,0.551 -1.3728,-0.946 -0.4134,-2.447 -0.4134,-2.447 l 7.0647,-9.718 c 1.397,-1.881 3.3036,-3.344 5.6863,-3.343 z"
             id="path18484-4-3"
             sodipodi:nodetypes="ccczcccccczccczccccczcccc" />
          <circle
             style="fill:#f2ef0c;fill-rule:evenodd;stroke-width:0.362038;paint-order:markers fill stroke"
             id="path18592-9-9"
             cx="3300.3977"
             cy="14219.081"
             r="3.1922622" />
        </g>
      </g>
      <circle
         style="fill:#f2ef0c;fill-rule:evenodd;stroke:#000000;stroke-width:0.529167;paint-order:markers fill stroke"
         id="path18594-0-1-6"
         cx="4703.9946"
         cy="15357.05"
         r="26.458281" />
      <g
         id="g22627">
        <circle
           style="fill:#000000;fill-rule:evenodd;stroke-width:0.722611;paint-order:markers fill stroke"
           id="path10991-3-25-9-8"
           cx="4703.9946"
           cy="15478.758"
           r="26.458303" />
        <path
           id="path5866-0-6-6-0-5-9-9-7"
           style="color:#000000;fill:#f2ef0c;fill-rule:evenodd;stroke-width:1.11223;paint-order:markers fill stroke"
           d="m 4698.164,15467.459 c -0.765,0 -1.4356,0.338 -1.7978,0.88 -0.3621,0.542 -0.3967,1.266 -0.072,1.859 0.2527,0.459 0.4949,0.675 0.5197,0.73 0.025,0.05 0.095,0.06 -0.2183,0.567 l -0.01,0.01 -2.497,4.367 c -0.9969,-0.489 -2.1178,-0.765 -3.3024,-0.765 -4.1255,0 -7.487,3.332 -7.487,7.421 0,4.089 3.3615,7.42 7.487,7.42 4.1256,0 7.4841,-3.331 7.4841,-7.42 0,-2.392 -1.1489,-4.524 -2.9277,-5.881 l 0.9578,-1.675 8.1642,6.294 c -0.073,0.261 -0.1184,0.583 -0.1184,0.98 0,2.355 2.12,2.032 2.12,2.032 l 4.8393,-0.451 c 0.622,3.472 3.6933,6.121 7.372,6.121 4.1257,0 7.4842,-3.331 7.4842,-7.42 0,-4.089 -3.3585,-7.421 -7.4842,-7.421 -1.1094,0 -2.1635,0.242 -3.1118,0.674 l -2.2758,-3.319 1.3324,-2.348 0.8267,0.184 c 0.7363,0.182 1.0381,-0.04 1.0324,-0.275 v -1.065 c 0,-0.456 -0.085,-0.619 -1.0242,-0.619 h -3.7729 c -0.4814,0 -0.924,0.69 0,1.13 l 1.4301,0.314 -1.3111,2.311 h -13.8546 c 0.3549,-0.651 0.421,-1.286 0.2171,-1.749 -0.2218,-0.506 -0.4984,-0.704 -0.5761,-0.846 -0.079,-0.143 -0.064,-0.247 0.01,-0.348 0.069,-0.103 0.2097,-0.226 0.567,-0.226 h 3.677 c 0,0 0.8273,0.06 0.8273,-0.732 0,-0.789 -0.8273,-0.734 -0.8273,-0.734 z m -1.0524,6.1 h 13.8625 l -3.7811,6.663 -1.2891,-0.04 c 0,0 -0.1796,-0.04 -0.4163,0.01 l -8.4477,-6.513 z m 15.3712,0.33 1.8069,2.634 c -1.3012,0.938 -2.2883,2.28 -2.7701,3.838 l -2.662,-0.09 z m -21.6937,2.683 c 0.9227,0 1.7951,0.205 2.575,0.571 l -2.4907,4.355 c -0.5862,0.108 -1.0117,0.613 -1.0121,1.204 1e-4,0.677 0.5536,1.226 1.2367,1.226 0.6831,0 1.2371,-0.548 1.2371,-1.226 1e-4,-0.192 -0.046,-0.382 -0.1345,-0.557 l 2.4122,-4.217 c 1.3349,1.092 2.1835,2.744 2.1835,4.601 0,3.296 -2.6804,5.952 -6.0072,5.952 -3.3267,0 -6.0072,-2.656 -6.0072,-5.952 0,-3.299 2.6805,-5.957 6.0072,-5.957 z m 27.8913,0 c 3.3267,0 6.0073,2.658 6.0073,5.957 0,3.296 -2.6806,5.952 -6.0073,5.952 -2.9257,0 -5.353,-2.054 -5.8957,-4.792 l 6.4408,-0.601 c 1.2884,-0.199 1.5021,-2.323 -0.2119,-2.486 h -0.142 l -2.4607,-3.588 c 0.6998,-0.282 1.466,-0.439 2.2695,-0.439 z m -3.5639,1.156 1.9283,2.811 -3.9848,-0.129 c 0.4132,-1.08 1.1334,-2.008 2.0565,-2.682 z" />
      </g>
    </g>
  </g>
</svg>
