<?xml version="1.0" encoding="UTF-8" standalone="no"?>
<!-- Created with Inkscape (http://www.inkscape.org/) -->

<svg
   xmlns:dc="http://purl.org/dc/elements/1.1/"
   xmlns:cc="http://creativecommons.org/ns#"
   xmlns:rdf="http://www.w3.org/1999/02/22-rdf-syntax-ns#"
   xmlns:svg="http://www.w3.org/2000/svg"
   xmlns="http://www.w3.org/2000/svg"
   xmlns:sodipodi="http://sodipodi.sourceforge.net/DTD/sodipodi-0.dtd"
   xmlns:inkscape="http://www.inkscape.org/namespaces/inkscape"
   width="1678.5625"
   height="1828.5938"
   id="svg7780"
   version="1.1"
   inkscape:version="0.48.5 r10040"
   sodipodi:docname="CANC trans1.svg">
  <defs
     id="defs7782" />
  <sodipodi:namedview
     id="base"
     pagecolor="#ffffff"
     bordercolor="#666666"
     borderopacity="1.0"
     inkscape:pageopacity="0.0"
     inkscape:pageshadow="2"
     inkscape:zoom="0.12374369"
     inkscape:cx="487.11355"
     inkscape:cy="1075.271"
     inkscape:document-units="px"
     inkscape:current-layer="layer1"
     showgrid="false"
     inkscape:object-nodes="true"
     inkscape:snap-midpoints="true"
     inkscape:snap-object-midpoints="true"
     fit-margin-top="0"
     fit-margin-left="0"
     fit-margin-right="0"
     fit-margin-bottom="0"
     inkscape:window-width="1366"
     inkscape:window-height="705"
     inkscape:window-x="-8"
     inkscape:window-y="-8"
     inkscape:window-maximized="1" />
  <metadata
     id="metadata7785">
    <rdf:RDF>
      <cc:Work
         rdf:about="">
        <dc:format>image/svg+xml</dc:format>
        <dc:type
           rdf:resource="http://purl.org/dc/dcmitype/StillImage" />
        <dc:title></dc:title>
      </cc:Work>
    </rdf:RDF>
  </metadata>
  <g
     inkscape:label="Livello 1"
     inkscape:groupmode="layer"
     id="layer1"
     transform="translate(1948.5625,1261.9375)">
    <rect
       style="fill:#ffffff;fill-opacity:1;fill-rule:evenodd;stroke:#000000;stroke-width:1;stroke-opacity:1"
       id="rect2996"
       width="1677.5714"
       height="1827.5714"
       x="-1948.0714"
       y="-1261.4235" />
    <rect
       y="-1097.6377"
       x="-1769.2856"
       height="380"
       width="1320"
       id="rect5126-1-7-0"
       style="fill:#08842c;fill-opacity:1;stroke:none" />
    <g
       style="font-size:120.90988159px;font-style:normal;font-weight:normal;line-height:125%;letter-spacing:0px;word-spacing:0px;fill:#ffffff;fill-opacity:1;stroke:none;font-family:Sans"
       id="text6544-9">
      <path
         d="m -1694.497,-1015.0262 c 6.285,10e-5 11.7657,1.2891 16.4421,3.867 5.5618,3.1439 8.3427,7.5373 8.3428,13.18027 l 0,24.06169 c -10e-5,3.22498 0.161,5.20029 0.4833,5.92594 0.7257,2.01469 2.701,3.02203 5.926,3.02201 l -5.8042,13.42008 c -2.0147,-0.0812 -3.8695,-0.32347 -5.5643,-0.7269 -4.1106,-0.96675 -7.2138,-2.73911 -9.3096,-5.31712 -4.4328,4.02936 -10.5986,6.04403 -18.4973,6.04402 -5.4808,10e-6 -10.2567,-1.89413 -14.3278,-5.68241 -4.0712,-3.78826 -6.0662,-8.02054 -5.985,-12.69686 0.1599,-11.44597 7.3736,-18.21688 21.6411,-20.31277 l 14.0252,-2.05527 c 0.2435,-3.14372 -0.5621,-5.36011 -2.4168,-6.64915 -1.6113,-0.9667 -4.2717,-1.45003 -7.9812,-1.45013 -5.8842,10e-5 -11.4461,2.21644 -16.6857,6.64916 l -8.0992,-11.84816 c 7.2542,-6.2875 16.5244,-9.4313 27.8106,-9.4314 z m -5.6861,37.60358 c -4.1918,0.7257 -6.2876,2.78096 -6.2876,6.16578 0,1.77362 0.9274,3.16409 2.7822,4.17141 1.8547,1.00735 4.0318,1.51102 6.5311,1.511 2.5779,2e-5 4.8343,-0.48397 6.769,-1.45197 1.9347,-0.96795 3.0632,-2.33751 3.3855,-4.10867 l 0,-8.46458 z"
         style="font-variant:normal;font-stretch:normal;fill:#ffffff;font-family:CodiceBianco;-inkscape-font-specification:CodiceBianco"
         id="path8415" />
      <path
         d="m -1590.8004,-983.47033 c -10e-5,10.72035 -3.2251,19.02256 -9.6749,24.90667 -5.4807,4.99856 -12.2111,7.49783 -20.191,7.49783 -5.8842,0 -10.9221,-1.41076 -15.1137,-4.23229 l 0,20.79614 -17.4126,0 0,-79.80092 15.2355,0 1.8155,3.509 c 3.5447,-3.3872 8.5826,-5.0809 15.1137,-5.0809 7.8987,0 14.6697,2.4993 20.3128,7.4978 6.6097,5.8842 9.9146,14.18639 9.9147,24.90667 z m -16.8074,0.48337 c -10e-5,-5.88408 -1.572,-10.47797 -4.7157,-13.78169 -2.8216,-2.90265 -6.247,-4.35395 -10.2763,-4.35405 -3.6284,10e-5 -6.7316,1.16851 -9.3095,3.50538 -2.7429,2.5805 -4.1143,5.96658 -4.1143,10.15823 l 0,6.89269 c 0,4.5927 1.5325,8.34038 4.5976,11.24306 2.7403,2.74036 6.0452,4.11054 9.9147,4.11052 3.867,2e-5 7.0501,-1.41074 9.5494,-4.23229 2.9027,-3.22247 4.354,-7.73641 4.3541,-13.54185 z"
         style="font-variant:normal;font-stretch:normal;fill:#ffffff;font-family:CodiceBianco;-inkscape-font-specification:CodiceBianco"
         id="path8417" />
      <path
         d="m -1583.6126,-985.76543 c 0,-9.27139 2.781,-16.88917 8.3428,-22.85327 5.5619,-5.964 12.7768,-8.946 21.6449,-8.9461 8.3021,10e-5 15.3547,2.8204 21.1577,8.4609 6.0464,6.0465 8.9085,13.58371 8.5864,22.61156 -1e-4,1.12914 -0.081,3.34552 -0.2436,6.64916 l -42.8025,0 c 2.0171,7.65775 6.4917,11.4866 13.4237,11.48658 4.3516,2e-5 8.0181,-0.68506 10.9996,-2.05526 1.0478,-0.4034 2.9826,-1.61245 5.8041,-3.62715 l 11.3685,11.48659 c -8.5458,6.52863 -17.9365,9.79294 -28.1722,9.79293 -6.691,10e-6 -12.8174,-2.09584 -18.3792,-6.28755 -7.8201,-5.8841 -11.7302,-14.79023 -11.7302,-26.71839 z m 17.5343,-6.40932 24.9067,0 c -0.3223,-3.30608 -1.6925,-6.00707 -4.1105,-8.10295 -2.4182,-2.0958 -5.1585,-3.1437 -8.2211,-3.1438 -3.7907,1e-4 -6.8951,1.2903 -9.3132,3.87069 -2.1746,2.25825 -3.2619,4.71694 -3.2619,7.37606 z"
         style="font-variant:normal;font-stretch:normal;fill:#ffffff;font-family:CodiceBianco;-inkscape-font-specification:CodiceBianco"
         id="path8419" />
      <path
         d="m -1476.7537,-1015.6313 0,17.53061 c -1.2079,-0.15985 -2.4169,-0.23979 -3.6272,-0.23984 -4.755,5e-5 -8.6638,1.08733 -11.7264,3.26185 -3.3873,2.33942 -5.081,5.52378 -5.081,9.55309 l 0,32.7661 -16.9254,0 0,-61.42171 16.9254,0 0,5.3208 c 5.0797,-4.595 11.0856,-6.8926 18.0177,-6.8927 0.9667,10e-5 1.7723,0.041 2.4169,0.1218 z"
         style="font-variant:normal;font-stretch:normal;fill:#ffffff;font-family:CodiceBianco;-inkscape-font-specification:CodiceBianco"
         id="path8421" />
      <path
         d="m -1444.995,-1014.9044 15.8407,0 0,14.3868 -15.8407,0 0,26.35683 c 0,4.59515 2.5792,6.89271 7.7377,6.89269 2.177,2e-5 4.434,-0.36282 6.7709,-1.08852 l 3.2656,14.26876 c -5.3184,1.7736 -10.6786,2.6604 -16.0805,2.6604 -12.8162,0 -19.2243,-5.28021 -19.2243,-15.84064 l 0,-33.24952 -9.9147,0 0,-14.3868 9.9147,0 0,-18.0177 17.5306,-4.9555 z"
         style="font-variant:normal;font-stretch:normal;fill:#ffffff;font-family:CodiceBianco;-inkscape-font-specification:CodiceBianco"
         id="path8423" />
      <path
         d="m -1389.8276,-1016.2364 c 8.9467,0 16.2815,3.0632 22.0046,9.1896 5.7229,6.1265 8.5844,13.5831 8.5845,22.36988 -10e-5,9.67242 -2.7405,17.6118 -8.2211,23.81815 -5.6431,6.44746 -13.0991,9.67117 -22.368,9.67117 -8.7869,0 -16.0424,-2.94205 -21.7666,-8.82618 -6.1252,-6.20636 -9.1878,-14.4274 -9.1878,-24.66314 0,-9.10903 2.8215,-16.64618 8.4646,-22.61158 5.643,-5.9652 13.1396,-8.9479 22.4898,-8.9479 z m -14.6304,31.67756 c -0.081,12.57512 4.7956,18.86266 14.6304,18.86265 9.4313,10e-6 14.1469,-6.28753 14.147,-18.86265 -10e-5,-6.12516 -2.0566,-10.71905 -6.1695,-13.78169 -2.6592,-1.93587 -5.3184,-2.90387 -7.9775,-2.90397 -3.0626,10e-5 -5.8436,0.8463 -8.3428,2.53867 -4.1106,2.82157 -6.2064,7.53723 -6.2876,14.14699 z"
         style="font-variant:normal;font-stretch:normal;fill:#ffffff;font-family:CodiceBianco;-inkscape-font-specification:CodiceBianco"
         id="path8425" />
    </g>
    <g
       style="font-size:120.90988159px;font-style:normal;font-weight:normal;line-height:125%;letter-spacing:0px;word-spacing:0px;fill:#ffffff;fill-opacity:1;stroke:none;font-family:Sans"
       id="text6548-8">
      <path
         d="m -1693.0469,-871.23638 c 8.9467,7e-5 16.2815,3.06328 22.0046,9.18964 5.7229,6.12648 8.5844,13.5831 8.5845,22.36988 -1e-4,9.67242 -2.7405,17.6118 -8.2211,23.81816 -5.6431,6.44745 -13.0991,9.67117 -22.368,9.67116 -8.7869,10e-6 -16.0424,-2.94205 -21.7666,-8.82618 -6.1252,-6.20636 -9.1878,-14.42739 -9.1878,-24.66314 0,-9.10903 2.8215,-16.64621 8.4646,-22.61156 5.643,-5.96524 13.1396,-8.94789 22.4898,-8.94796 z m -14.6304,31.6776 c -0.081,12.57512 4.7956,18.86266 14.6304,18.86265 9.4313,1e-5 14.1469,-6.28753 14.147,-18.86265 -1e-4,-6.12516 -2.0566,-10.71905 -6.1695,-13.78169 -2.6592,-1.93591 -5.3184,-2.90388 -7.9775,-2.90394 -3.0626,6e-5 -5.8436,0.84627 -8.3428,2.53864 -4.1106,2.82157 -6.2064,7.53723 -6.2876,14.14699 z"
         style="font-variant:normal;font-stretch:normal;fill:#ffffff;font-family:CodiceBianco;-inkscape-font-specification:CodiceBianco"
         id="path8406" />
      <path
         d="m -1589.1474,-838.47027 c 0,10.72035 -3.225,19.02256 -9.6748,24.90667 -5.4808,4.99856 -12.2111,7.49783 -20.191,7.49783 -5.8842,0 -10.9221,-1.41076 -15.1138,-4.23229 l 0,20.79614 -17.4125,0 0,-79.80096 15.2355,0 1.8154,3.50907 c 3.5447,-3.38724 8.5826,-5.08089 15.1138,-5.08096 7.8987,7e-5 14.6696,2.49934 20.3127,7.49783 6.6098,5.88418 9.9147,14.18639 9.9147,24.90667 z m -16.8074,0.48337 c 0,-5.88408 -1.5719,-10.47797 -4.7156,-13.78169 -2.8216,-2.90265 -6.247,-4.354 -10.2763,-4.35405 -3.6284,5e-5 -6.7316,1.16851 -9.3096,3.50538 -2.7428,2.5805 -4.1142,5.96658 -4.1142,10.15823 l 0,6.89269 c 0,4.5927 1.5325,8.34038 4.5976,11.24306 2.7403,2.74036 6.0452,4.11054 9.9147,4.11052 3.8669,2e-5 7.0501,-1.41074 9.5494,-4.23229 2.9026,-3.22247 4.354,-7.73641 4.354,-13.54185 z"
         style="font-variant:normal;font-stretch:normal;fill:#ffffff;font-family:CodiceBianco;-inkscape-font-specification:CodiceBianco"
         id="path8408" />
      <path
         d="m -1581.9595,-840.76537 c 0,-9.27139 2.7809,-16.88913 8.3428,-22.85325 5.5619,-5.96401 12.7768,-8.94604 21.6448,-8.94611 8.3022,7e-5 15.3548,2.82036 21.1578,8.46089 6.0464,6.04653 8.9085,13.58371 8.5863,22.61156 0,1.12914 -0.081,3.34552 -0.2435,6.64916 l -42.8026,0 c 2.0171,7.65775 6.4917,11.48661 13.4238,11.48659 4.3516,2e-5 8.0181,-0.68507 10.9995,-2.05527 1.0479,-0.4034 2.9826,-1.61245 5.8042,-3.62714 l 11.3685,11.48658 c -8.5458,6.52863 -17.9365,9.79294 -28.1722,9.79293 -6.691,10e-6 -12.8174,-2.09584 -18.3793,-6.28755 -7.8201,-5.8841 -11.7301,-14.79023 -11.7301,-26.71839 z m 17.5343,-6.40932 24.9067,0 c -0.3223,-3.30608 -1.6925,-6.00707 -4.1105,-8.10297 -2.4182,-2.09579 -5.1585,-3.14372 -8.2211,-3.14377 -3.7908,5e-5 -6.8952,1.29028 -9.3132,3.87068 -2.1746,2.25825 -3.2619,4.71694 -3.2619,7.37606 z"
         style="font-variant:normal;font-stretch:normal;fill:#ffffff;font-family:CodiceBianco;-inkscape-font-specification:CodiceBianco"
         id="path8410" />
      <path
         d="m -1454.9097,-846.93485 0,39.29719 -17.6523,0 0,-35.54827 c -0.3223,-3.30363 -1.6322,-5.90253 -3.9298,-7.79671 -2.2976,-1.89409 -4.8965,-2.84116 -7.7967,-2.84121 -2.9027,5e-5 -5.3208,0.88685 -7.2543,2.6604 -2.177,1.93355 -3.2655,4.59271 -3.2655,7.97752 l 0,35.4265 -17.4125,0 0,-61.06008 15.1137,0 1.8154,3.38731 c 4.4328,-3.46596 9.7929,-5.19897 16.0805,-5.19904 6.6098,7e-5 12.1716,1.9348 16.6856,5.80418 5.0772,4.35165 7.6159,10.31572 7.6159,17.89221 z"
         style="font-variant:normal;font-stretch:normal;fill:#ffffff;font-family:CodiceBianco;-inkscape-font-specification:CodiceBianco"
         id="path8412" />
    </g>
    <g
       style="font-size:120.90988159px;font-style:normal;font-weight:normal;line-height:125%;letter-spacing:0px;word-spacing:0px;fill:#ffffff;fill-opacity:1;stroke:none;font-family:Sans"
       id="text6560-2">
      <path
         d="m -823.66979,-1016.2364 c 8.94667,0 16.28153,3.0632 22.00458,9.1896 5.72293,6.1265 8.58443,13.5831 8.58449,22.36988 -6e-5,9.67242 -2.74041,17.6118 -8.22104,23.81815 -5.6431,6.44746 -13.09911,9.67117 -22.36803,9.67117 -8.78686,0 -16.04238,-2.94205 -21.76659,-8.82618 -6.1252,-6.20636 -9.18779,-14.4274 -9.18779,-24.66314 0,-9.10903 2.82152,-16.64618 8.46458,-22.61158 5.64303,-5.9652 13.13962,-8.9479 22.4898,-8.9479 z m -14.63037,31.67756 c -0.0812,12.57512 4.79559,18.86266 14.63037,18.86265 9.43128,10e-6 14.14693,-6.28753 14.14698,-18.86265 -5e-5,-6.12516 -2.05654,-10.71905 -6.16947,-13.78169 -2.65921,-1.93587 -5.31838,-2.90387 -7.97751,-2.90397 -3.06263,10e-5 -5.84357,0.8463 -8.34282,2.53867 -4.11054,2.82157 -6.20639,7.53723 -6.28755,14.14699 z"
         style="font-variant:normal;font-stretch:normal;text-align:end;text-anchor:end;fill:#ffffff;font-family:CodiceBianco;-inkscape-font-specification:CodiceBianco"
         id="path8428" />
      <path
         d="m -764.74985,-1014.1812 0,34.58155 c -2e-5,3.46605 1.24962,6.28758 3.74892,8.46458 2.177,1.93351 4.83616,2.90026 7.97751,2.90024 3.06502,2e-5 5.66515,-0.96734 7.8004,-2.90209 2.13516,-1.9347 3.20277,-4.71502 3.20282,-8.34096 l 0,-34.70332 17.53429,0 0,60.93834 -15.59711,0 -1.81542,-3.50538 c -3.86949,3.5472 -9.27024,5.3208 -16.20225,5.3208 -6.52864,0 -11.96875,-1.81419 -16.32032,-5.44257 -5.07974,-4.27286 -7.61961,-10.39928 -7.6196,-18.37928 l 0,-38.93191 z"
         style="font-variant:normal;font-stretch:normal;text-align:end;text-anchor:end;fill:#ffffff;font-family:CodiceBianco;-inkscape-font-specification:CodiceBianco"
         id="path8430" />
      <path
         d="m -716.19107,-1013.9376 17.29076,0 13.05848,40.86534 12.81494,-40.86534 17.5306,0 -20.06924,61.17811 -20.07293,0 z"
         style="font-variant:normal;font-stretch:normal;text-align:end;text-anchor:end;fill:#ffffff;font-family:CodiceBianco;-inkscape-font-specification:CodiceBianco"
         id="path8432" />
      <path
         d="m -650.23822,-985.76543 c 0,-9.27139 2.78094,-16.88917 8.34282,-22.85327 5.56185,-5.964 12.77678,-8.946 21.64481,-8.9461 8.30218,10e-5 15.35476,2.8204 21.15776,8.4609 6.04641,6.0465 8.90852,13.58371 8.58634,22.61156 -6e-5,1.12914 -0.0812,3.34552 -0.24353,6.64916 l -42.80257,0 c 2.01711,7.65775 6.49169,11.4866 13.42377,11.48658 4.35156,2e-5 8.01806,-0.68506 10.99952,-2.05526 1.04788,-0.4034 2.9826,-1.61245 5.80418,-3.62715 l 11.36851,11.48659 c -8.54581,6.52863 -17.93654,9.79294 -28.17221,9.79293 -6.691,10e-6 -12.81742,-2.09584 -18.37928,-6.28755 -7.82008,-5.8841 -11.73012,-14.79023 -11.73012,-26.71839 z m 17.5343,-6.40932 24.90667,0 c -0.3223,-3.30608 -1.69247,-6.00707 -4.11053,-8.10295 -2.41813,-2.0958 -5.15848,-3.1437 -8.22104,-3.1438 -3.79076,1e-4 -6.89518,1.2903 -9.31325,3.87069 -2.17459,2.25825 -3.26187,4.71694 -3.26185,7.37606 z"
         style="font-variant:normal;font-stretch:normal;text-align:end;text-anchor:end;fill:#ffffff;font-family:CodiceBianco;-inkscape-font-specification:CodiceBianco"
         id="path8434" />
      <path
         d="m -543.3794,-1015.6313 0,17.53061 c -1.20786,-0.15985 -2.41691,-0.23979 -3.62715,-0.23984 -4.75506,5e-5 -8.66386,1.08733 -11.72643,3.26185 -3.38733,2.33942 -5.08098,5.52378 -5.08096,9.55309 l 0,32.7661 -16.92546,0 0,-61.42171 16.92546,0 0,5.3208 c 5.0797,-4.595 11.08559,-6.8926 18.01767,-6.8927 0.9667,10e-5 1.77233,0.041 2.41687,0.1218 z"
         style="font-variant:normal;font-stretch:normal;text-align:end;text-anchor:end;fill:#ffffff;font-family:CodiceBianco;-inkscape-font-specification:CodiceBianco"
         id="path8436" />
      <path
         d="m -511.62061,-1014.9044 15.84064,0 0,14.3868 -15.84064,0 0,26.35683 c -3e-5,4.59515 2.57919,6.89271 7.73767,6.89269 2.17699,2e-5 4.43396,-0.36282 6.77093,-1.08852 l 3.26554,14.26876 c -5.31839,1.7736 -10.67854,2.6604 -16.08049,2.6604 -12.81619,0 -19.22426,-5.28021 -19.22425,-15.84064 l 0,-33.24952 -9.9147,0 0,-14.3868 9.9147,0 0,-18.0177 17.5306,-4.9555 z"
         style="font-variant:normal;font-stretch:normal;text-align:end;text-anchor:end;fill:#ffffff;font-family:CodiceBianco;-inkscape-font-specification:CodiceBianco"
         id="path8438" />
    </g>
    <g
       style="font-size:120.90988159px;font-style:normal;font-weight:normal;line-height:125%;letter-spacing:0px;word-spacing:0px;fill:#ffffff;fill-opacity:1;stroke:none;font-family:Sans"
       id="text6564-5">
      <path
         d="m -944.04464,-870.63124 c 5.72419,7e-5 10.31931,1.61255 13.78538,4.83743 0.3222,-0.80679 0.76498,-1.8953 1.32835,-3.26554 l 16.08048,0 0,58.52145 c -6e-5,4.91492 -2.21644,9.58999 -6.64915,14.02522 -5.56193,5.72176 -13.09911,8.58264 -22.61157,8.58265 -4.75505,-10e-6 -10.27633,-0.80564 -16.56385,-2.41687 -5.88414,-1.53254 -10.31691,-3.1856 -13.29832,-4.95919 l 7.01077,-13.42008 c 8.22348,4.0318 15.2367,6.0477 21.03967,6.0477 3.70706,0 6.76966,-0.60513 9.1878,-1.81541 2.90265,-1.53253 4.354,-3.74891 4.35405,-6.64916 l 0,-4.35406 c -4.19174,2.33694 -8.86681,3.50539 -14.02522,3.50539 -7.57657,0 -14.06583,-2.3775 -19.46779,-7.13254 -6.04403,-5.32078 -9.06603,-12.41394 -9.06603,-21.27952 0,-9.02785 2.86088,-16.36331 8.58265,-22.00642 5.48068,-5.48063 12.2516,-8.22098 20.31278,-8.22105 z m -12.45334,30.46732 c -2e-5,4.67633 1.53128,8.22353 4.5939,10.6416 2.41807,2.0147 5.40072,3.02203 8.94795,3.02201 3.14374,2e-5 6.0858,-1.20902 8.82619,-3.62715 2.7403,-2.41807 4.11047,-5.23959 4.11052,-8.46458 l 0,-5.31711 c -5e-5,-3.38726 -1.30995,-6.24937 -3.92972,-8.58634 -2.61985,-2.33687 -5.70213,-3.50533 -9.24683,-3.50538 -3.70959,5e-5 -6.73282,1.12792 -9.06972,3.38361 -2.82155,2.82158 -4.23231,6.97268 -4.23229,12.45334 z"
         style="font-variant:normal;font-stretch:normal;text-align:end;text-anchor:end;fill:#ffffff;font-family:CodiceBianco;-inkscape-font-specification:CodiceBianco"
         id="path8441" />
      <path
         d="m -902.44866,-840.76537 c -10e-6,-9.27139 2.78093,-16.88913 8.34281,-22.85325 5.56185,-5.96401 12.77679,-8.94604 21.64482,-8.94611 8.30218,7e-5 15.35475,2.82036 21.15775,8.46089 6.04642,6.04653 8.90853,13.58371 8.58634,22.61156 -6e-5,1.12914 -0.0812,3.34552 -0.24353,6.64916 l -42.80257,0 c 2.01711,7.65775 6.4917,11.48661 13.42377,11.48659 4.35156,2e-5 8.01806,-0.68507 10.99952,-2.05527 1.04788,-0.4034 2.98261,-1.61245 5.80418,-3.62714 l 11.36851,11.48658 c -8.54581,6.52863 -17.93654,9.79294 -28.17221,9.79293 -6.691,10e-6 -12.81742,-2.09584 -18.37927,-6.28755 -7.82009,-5.8841 -11.73013,-14.79023 -11.73012,-26.71839 z m 17.53429,-6.40932 24.90667,0 c -0.3223,-3.30608 -1.69247,-6.00707 -4.11052,-8.10297 -2.41814,-2.09579 -5.15849,-3.14372 -8.22105,-3.14377 -3.79076,5e-5 -6.89518,1.29028 -9.31325,3.87068 -2.17459,2.25825 -3.26187,4.71694 -3.26185,7.37606 z"
         style="font-variant:normal;font-stretch:normal;text-align:end;text-anchor:end;fill:#ffffff;font-family:CodiceBianco;-inkscape-font-specification:CodiceBianco"
         id="path8443" />
      <path
         d="m -804.77762,-871.23638 c 8.94668,7e-5 16.28153,3.06328 22.00458,9.18964 5.72294,6.12648 8.58443,13.5831 8.5845,22.36988 -7e-5,9.67242 -2.74041,17.6118 -8.22105,23.81816 -5.6431,6.44745 -13.0991,9.67117 -22.36803,9.67116 -8.78685,10e-6 -16.04237,-2.94205 -21.76658,-8.82618 -6.1252,-6.20636 -9.1878,-14.42739 -9.1878,-24.66314 0,-9.10903 2.82152,-16.64621 8.46458,-22.61156 5.64304,-5.96524 13.13963,-8.94789 22.4898,-8.94796 z m -14.63036,31.6776 c -0.0812,12.57512 4.79558,18.86266 14.63036,18.86265 9.43128,1e-5 14.14694,-6.28753 14.14699,-18.86265 -5e-5,-6.12516 -2.05654,-10.71905 -6.16948,-13.78169 -2.65921,-1.93591 -5.31838,-2.90388 -7.97751,-2.90394 -3.06263,6e-5 -5.84356,0.84627 -8.34281,2.53864 -4.11055,2.82157 -6.20639,7.53723 -6.28755,14.14699 z"
         style="font-variant:normal;font-stretch:normal;text-align:end;text-anchor:end;fill:#ffffff;font-family:CodiceBianco;-inkscape-font-specification:CodiceBianco"
         id="path8445" />
      <path
         d="m -741.26378,-893.84794 c 6.12762,9e-5 11.2467,0.36293 15.35727,1.08851 l -3.50908,13.90715 c -3.54478,-0.48453 -5.64062,-0.72683 -6.28755,-0.72691 -4.91494,8e-5 -7.3724,2.01475 -7.37237,6.04402 l 0,4.47582 13.05847,0 0,13.29832 -12.81863,0 0,48.0016 -16.68562,0 0,-47.87984 -8.94795,0 0,-13.42008 8.94795,0 0,-9.79293 c -10e-6,-3.6283 1.29021,-6.85325 3.87068,-9.67486 3.22247,-3.54711 8.01808,-5.32071 14.38683,-5.3208 z"
         style="font-variant:normal;font-stretch:normal;text-align:end;text-anchor:end;fill:#ffffff;font-family:CodiceBianco;-inkscape-font-specification:CodiceBianco"
         id="path8447" />
      <path
         d="m -695.21411,-893.84794 c 6.12762,9e-5 11.2467,0.36293 15.35726,1.08851 l -3.50907,13.90715 c -3.54478,-0.48453 -5.64063,-0.72683 -6.28755,-0.72691 -4.91495,8e-5 -7.3724,2.01475 -7.37237,6.04402 l 0,4.47582 13.05847,0 0,13.29832 -12.81863,0 0,48.0016 -16.68562,0 0,-47.87984 -8.94796,0 0,-13.42008 8.94796,0 0,-9.79293 c -2e-5,-3.6283 1.29021,-6.85325 3.87068,-9.67486 3.22247,-3.54711 8.01808,-5.32071 14.38683,-5.3208 z"
         style="font-variant:normal;font-stretch:normal;text-align:end;text-anchor:end;fill:#ffffff;font-family:CodiceBianco;-inkscape-font-specification:CodiceBianco"
         id="path8449" />
      <path
         d="m -614.3431,-846.93485 0,39.29719 -17.65237,0 0,-35.54827 c -0.32229,-3.30363 -1.6322,-5.90253 -3.92971,-7.79671 -2.29761,-1.89409 -4.89651,-2.84116 -7.79671,-2.84121 -2.90274,5e-5 -5.32084,0.88685 -7.2543,2.6604 -2.17705,1.93355 -3.26557,4.59271 -3.26554,7.97752 l 0,35.4265 -17.41253,0 0,-61.06008 15.11373,0 1.81542,3.38731 c 4.43275,-3.46596 9.7929,-5.19897 16.08049,-5.19904 6.60975,7e-5 12.17162,1.9348 16.68562,5.80418 5.07721,4.35165 7.61584,10.31572 7.6159,17.89221 z"
         style="font-variant:normal;font-stretch:normal;text-align:end;text-anchor:end;fill:#ffffff;font-family:CodiceBianco;-inkscape-font-specification:CodiceBianco"
         id="path8451" />
      <path
         d="m -603.24393,-840.76537 c 0,-9.27139 2.78093,-16.88913 8.34281,-22.85325 5.56186,-5.96401 12.77679,-8.94604 21.64482,-8.94611 8.30218,7e-5 15.35476,2.82036 21.15775,8.46089 6.04642,6.04653 8.90853,13.58371 8.58635,22.61156 -7e-5,1.12914 -0.0812,3.34552 -0.24354,6.64916 l -42.80257,0 c 2.01711,7.65775 6.4917,11.48661 13.42378,11.48659 4.35155,2e-5 8.01806,-0.68507 10.99952,-2.05527 1.04788,-0.4034 2.9826,-1.61245 5.80417,-3.62714 l 11.36852,11.48658 c -8.54581,6.52863 -17.93654,9.79294 -28.17221,9.79293 -6.69101,10e-6 -12.81743,-2.09584 -18.37928,-6.28755 -7.82009,-5.8841 -11.73012,-14.79023 -11.73012,-26.71839 z m 17.5343,-6.40932 24.90666,0 c -0.32229,-3.30608 -1.69246,-6.00707 -4.11052,-8.10297 -2.41814,-2.09579 -5.15848,-3.14372 -8.22104,-3.14377 -3.79077,5e-5 -6.89518,1.29028 -9.31325,3.87068 -2.17459,2.25825 -3.26188,4.71694 -3.26185,7.37606 z"
         style="font-variant:normal;font-stretch:normal;text-align:end;text-anchor:end;fill:#ffffff;font-family:CodiceBianco;-inkscape-font-specification:CodiceBianco"
         id="path8453" />
      <path
         d="m -511.62062,-869.90433 15.84065,0 0,14.38683 -15.84065,0 0,26.35679 c -2e-5,4.59515 2.5792,6.89271 7.73768,6.89269 2.17698,2e-5 4.43396,-0.36282 6.77092,-1.08851 l 3.26554,14.26875 c -5.31838,1.7736 -10.67854,2.6604 -16.08048,2.6604 -12.81619,0 -19.22427,-5.2802 -19.22426,-15.84064 l 0,-33.24948 -9.9147,0 0,-14.38683 9.9147,0 0,-18.01767 17.5306,-4.9555 z"
         style="font-variant:normal;font-stretch:normal;text-align:end;text-anchor:end;fill:#ffffff;font-family:CodiceBianco;-inkscape-font-specification:CodiceBianco"
         id="path8455" />
    </g>
    <path
       sodipodi:type="arc"
       style="font-size:120.90988159px;font-style:normal;font-weight:normal;line-height:125%;letter-spacing:0px;word-spacing:0px;fill:#ffffff;fill-opacity:1;stroke:none;font-family:Sans"
       id="path6657-2"
       sodipodi:cx="5526.166"
       sodipodi:cy="1838.6179"
       sodipodi:rx="11.743023"
       sodipodi:ry="12.121831"
       d="m 5537.909,1838.6179 c 0,6.6947 -5.2575,12.1219 -11.743,12.1219 -6.4855,0 -11.743,-5.4272 -11.743,-12.1219 0,-6.6947 5.2575,-12.1218 11.743,-12.1218 6.4855,0 11.743,5.4271 11.743,12.1218 z"
       transform="matrix(0.85156949,0,0,0.82495788,-5496.5985,-2403.115)" />
    <path
       transform="matrix(0.85156949,0,0,0.82495788,-5526.1321,-2402.7579)"
       d="m 5537.909,1838.6179 c 0,6.6947 -5.2575,12.1219 -11.743,12.1219 -6.4855,0 -11.743,-5.4272 -11.743,-12.1219 0,-6.6947 5.2575,-12.1218 11.743,-12.1218 6.4855,0 11.743,5.4271 11.743,12.1218 z"
       sodipodi:ry="12.121831"
       sodipodi:rx="11.743023"
       sodipodi:cy="1838.6179"
       sodipodi:cx="5526.166"
       id="path6678-7"
       style="font-size:120.90988159px;font-style:normal;font-weight:normal;line-height:125%;letter-spacing:0px;word-spacing:0px;fill:#ffffff;fill-opacity:1;stroke:none;font-family:Sans"
       sodipodi:type="arc" />
    <rect
       style="fill:#ffffff;fill-opacity:1;stroke:#000000;stroke-width:5;stroke-miterlimit:4;stroke-opacity:1;stroke-dasharray:none"
       id="rect5120-8"
       width="1320"
       height="380"
       x="-1769.2856"
       y="-537.63776" />
    <rect
       style="fill:#ffffff;fill-opacity:1;stroke:#000000;stroke-width:5;stroke-miterlimit:4;stroke-opacity:1;stroke-dasharray:none"
       id="rect7720"
       width="1320"
       height="380"
       x="-1769.2856"
       y="22.36224" />
    <g
       style="font-size:40px;font-style:normal;font-weight:normal;line-height:125%;letter-spacing:0px;word-spacing:0px;fill:#000000;fill-opacity:1;stroke:none;font-family:Sans"
       id="text8371">
      <path
         d="m -1852.8086,-796.67297 c -2.6042,2.21354 -5.1107,3.77604 -7.5195,4.6875 -2.4089,0.91145 -4.9935,1.36718 -7.7539,1.36718 -4.5573,0 -8.0599,-1.11328 -10.5078,-3.33984 -2.448,-2.22656 -3.6719,-5.07161 -3.6719,-8.53516 0,-2.03123 0.4622,-3.8867 1.3867,-5.5664 0.9245,-1.67967 2.1354,-3.02733 3.6328,-4.04297 1.4974,-1.0156 3.1836,-1.78383 5.0586,-2.30469 1.3802,-0.36456 3.4635,-0.71612 6.25,-1.05469 5.6771,-0.67705 9.8567,-1.48435 12.5391,-2.42187 0.026,-0.96352 0.039,-1.57549 0.039,-1.83594 0,-2.86455 -0.6641,-4.88278 -1.9922,-6.05469 -1.7969,-1.5885 -4.4661,-2.38277 -8.0078,-2.38281 -3.3073,4e-5 -5.7487,0.57946 -7.3242,1.73828 -1.5755,1.15889 -2.7409,3.20967 -3.4961,6.15235 l -6.875,-0.9375 c 0.625,-2.94268 1.6537,-5.31898 3.086,-7.12891 1.4322,-1.80986 3.5025,-3.20308 6.2109,-4.17969 2.7083,-0.97652 5.8463,-1.4648 9.4141,-1.46484 3.5416,4e-5 6.4192,0.41671 8.6328,1.25 2.2135,0.83337 3.8411,1.88155 4.8828,3.14453 1.0416,1.26306 1.7708,2.85811 2.1875,4.78516 0.2343,1.19795 0.3515,3.3594 0.3515,6.48437 l 0,9.375 c 0,6.53647 0.1497,10.67058 0.4493,12.40235 0.2994,1.73177 0.8918,3.39192 1.7773,4.98046 l -7.3437,0 c -0.7292,-1.45833 -1.198,-3.16406 -1.4063,-5.11718 z m -0.5859,-15.70313 c -2.5521,1.04169 -6.3803,1.9271 -11.4844,2.65625 -2.8906,0.41669 -4.9349,0.88544 -6.1328,1.40625 -1.1979,0.52085 -2.1224,1.28257 -2.7735,2.28516 -0.651,1.00262 -0.9765,2.1159 -0.9765,3.33984 0,1.87501 0.7096,3.43751 2.1289,4.6875 1.4192,1.25001 3.4961,1.87501 6.2305,1.875 2.7083,10e-6 5.1171,-0.59244 7.2265,-1.77734 2.1094,-1.18489 3.6588,-2.80598 4.6485,-4.86328 0.7551,-1.58853 1.1327,-3.93228 1.1328,-7.03125 z"
         style="font-size:80px"
         id="path8464" />
    </g>
    <g
       style="font-size:40px;font-style:normal;font-weight:normal;line-height:125%;letter-spacing:0px;word-spacing:0px;fill:#000000;fill-opacity:1;stroke:none;font-family:Sans"
       id="text8377">
      <path
         d="m -1873.3945,-231.55577 -6.5235,0 0,-57.26563 7.0313,0 0,20.42969 c 2.9687,-3.72392 6.7578,-5.58589 11.3672,-5.58594 2.552,5e-5 4.9674,0.51437 7.2461,1.54297 2.2786,1.02869 4.1536,2.474 5.625,4.33594 1.4713,1.86201 2.6236,4.10811 3.457,6.73828 0.8333,2.63024 1.25,5.44273 1.25,8.4375 0,7.10939 -1.7579,12.60418 -5.2734,16.48438 -3.5157,3.88021 -7.7344,5.82031 -12.6563,5.82031 -4.8958,0 -8.737,-2.04427 -11.5234,-6.13281 z m -0.078,-21.05469 c 0,4.97398 0.6771,8.56772 2.0313,10.78125 2.2135,3.6198 5.2083,5.42969 8.9844,5.42969 3.0729,0 5.7291,-1.33463 7.9687,-4.00391 2.2396,-2.66926 3.3594,-6.64712 3.3594,-11.93359 0,-5.41664 -1.0743,-9.41403 -3.2227,-11.99219 -2.1484,-2.57809 -4.7461,-3.86715 -7.7929,-3.86719 -3.073,4e-5 -5.7292,1.33467 -7.9688,4.00391 -2.2396,2.6693 -3.3594,6.52997 -3.3594,11.58203 z"
         style="font-size:80px"
         id="path8461" />
    </g>
    <g
       style="font-size:40px;font-style:normal;font-weight:normal;line-height:125%;letter-spacing:0px;word-spacing:0px;fill:#000000;fill-opacity:1;stroke:none;font-family:Sans"
       id="text8377-8">
      <path
         d="m -1852.8086,313.2489 6.9141,0.89844 c -0.7553,4.76563 -2.6889,8.4961 -5.8008,11.19141 -3.112,2.69531 -6.9336,4.04296 -11.4649,4.04296 -5.6771,0 -10.2409,-1.85546 -13.6914,-5.5664 -3.4505,-3.71093 -5.1757,-9.02994 -5.1757,-15.95703 0,-4.47915 0.7421,-8.39841 2.2265,-11.75782 1.4844,-3.35934 3.7435,-5.87886 6.7774,-7.55859 3.0338,-1.67965 6.3346,-2.51949 9.9023,-2.51953 4.5052,4e-5 8.1901,1.13936 11.0547,3.41797 2.8645,2.27868 4.7005,5.51435 5.5078,9.70703 l -6.8359,1.05469 c -0.6511,-2.78643 -1.8034,-4.88278 -3.4571,-6.28907 -1.6536,-1.40621 -3.6523,-2.10933 -5.9961,-2.10937 -3.5416,4e-5 -6.4192,1.26957 -8.6328,3.80859 -2.2135,2.5391 -3.3203,6.55602 -3.3203,12.05078 0,5.57294 1.0677,9.62241 3.2031,12.14844 2.1354,2.52605 4.9219,3.78907 8.3594,3.78906 2.7604,10e-6 5.0651,-0.84634 6.9141,-2.53906 1.8489,-1.6927 3.0208,-4.29686 3.5156,-7.8125 z"
         style="font-size:80px"
         id="path8458" />
    </g>
    <path
       inkscape:connector-curvature="0"
       style="fill:#000000;fill-opacity:1;fill-rule:evenodd;stroke:none"
       id="path2683-1"
       d="m -941.28649,-347.99882 c 0.0169,93.88378 -76.10061,170.00007 -170.00011,170.00007 -93.8995,0 -170.0155,-76.11629 -169.9999,-170.00007 -0.017,-93.88381 76.1004,-169.99993 169.9999,-169.99993 93.8995,0 170.01581,76.11612 170.00011,169.99993 l 0,0 z" />
    <path
       inkscape:connector-curvature="0"
       style="fill:#ffffff;fill-opacity:1;fill-rule:evenodd;stroke:none"
       id="path2685-7"
       d="m -942.98653,-348.0272 c 0,92.94938 -75.35047,168.29986 -168.30007,168.29986 -92.9493,0 -168.2998,-75.35048 -168.2998,-168.29986 0,-92.94958 75.3505,-168.30006 168.2998,-168.30006 92.9496,0 168.30007,75.35048 168.30007,168.30006 l 0,0 z" />
    <path
       inkscape:connector-curvature="0"
       style="fill:#00408b;fill-opacity:1;fill-rule:evenodd;stroke:none"
       id="path1877-1"
       d="m -1111.2866,-512.92715 c 91.0719,0 164.89995,73.82815 164.89995,164.89995 0,91.0716 -73.82805,164.89991 -164.89995,164.89991 -91.0717,0 -164.8999,-73.82831 -164.8999,-164.89991 0,-91.0718 73.8282,-164.89995 164.8999,-164.89995 z" />
    <g
       id="g3610"
       transform="matrix(1.6894083,0,0,1.6894083,-1283.0973,-520.41325)">
      <path
         inkscape:connector-curvature="0"
         style="fill:#ffffff;fill-opacity:1"
         d="M 81.33548,189.89755 C 69.10633,187.04975 57.755319,167.04415 52.004913,138.20384 47.410878,115.16314 46.731867,85.475208 50.29782,63.565719 52.945822,47.296256 57.296105,34.798056 63.55947,25.465495 c 3.150316,-4.694038 6.438432,-7.856181 10.088315,-9.701811 2.326849,-1.17662 3.023744,-1.317615 7.216148,-1.459989 2.552323,-0.08669 13.18345,-0.0053 23.624727,0.181014 l 18.98415,0.338608 2.11497,1.158556 c 7.1286,3.904952 13.29172,11.567036 19.17654,23.840575 5.79096,12.077814 10.00391,27.930654 12.03089,45.270963 1.6842,14.408 1.68055,35.701059 -0.008,50.449649 -3.56701,31.14368 -13.61002,50.3918 -28.26881,54.17918 -2.08156,0.53781 -5.93977,0.63402 -24.01225,0.59873 -11.8427,-0.0232 -22.2692,-0.21366 -23.169995,-0.42342 l -3.01e-4,0 -6.2e-5,0 z"
         id="path2836"
         sodipodi:nodetypes="cssssscccsssssccc" />
      <path
         inkscape:connector-curvature="0"
         sodipodi:nodetypes="cssssscccssssscccsssscccssssssssssssssssssssssscccssssssssssssssssssssssssssssssscccsscccccccsssssssscccssssssssccccssssssssssssscccsssssssssssssccsssssccsssssssccsssscccccsssssscccsssssccccccssccccccssssssscccssssssssssssscccscccssssssssssssssssssssssssssssssssscccsssssccsssscccsssccsssssssccsscccssscccsssssccsssssccsssssccsssssssccsssssssscccsssssssssssccccccssccssssscccssssccccsssssccsssssssccsssssssssccsssssscccssssssscccscccccccccssssssccccccssssssscccccssscccsssssscccccssccccsssssscccscccccscccsssssscccssssssssccssssssscccsscccsssscccsssssssccccccsssssssssccccccssscccsssssssssscccccccccsssssssccsssssssccsscccssccsssssssccssssssssccsscccccssccsssssscccssssssssssssccccccsssccssssssssccssssssssccsssscccsccssssssccssssssccssssssccssssssssssssssssssscccsscccsssssccssssscccsssssscccssssscc"
         id="path4517"
         d="M 82.205231,187.40955 C 70.443831,184.64844 59.526982,165.25184 53.996517,137.28949 49.5782,114.95017 48.925156,86.165975 52.354724,64.923443 c 2.546713,-15.774197 6.730601,-27.891934 12.75441,-36.940398 3.029819,-4.551145 6.19217,-7.617029 9.702445,-9.406474 2.237852,-1.140802 2.908089,-1.277505 6.940143,-1.415545 2.454696,-0.08404 12.679196,-0.0051 22.721118,0.175503 l 18.25802,0.328301 2.03408,1.123287 c 6.85594,3.78608 12.78332,11.214919 18.44306,23.114833 5.56947,11.710149 9.62127,27.080406 11.57073,43.89285 1.61978,13.9694 1.61627,34.61427 -0.008,48.9139 -3.43058,30.19561 -13.08945,48.8578 -27.18757,52.52989 -2.00194,0.52143 -5.71257,0.61471 -23.0938,0.5805 -11.389736,-0.0225 -21.417441,-0.20716 -22.283782,-0.41054 l -2.87e-4,0 z m 45.642029,-4.83831 c 3.27094,-1.1019 5.38392,-2.4829 8.06995,-5.27435 7.47753,-7.77099 12.50846,-23.06698 15.27548,-46.44345 1.03432,-8.73814 1.04003,-31.385631 0.0104,-40.774493 -2.36221,-21.537767 -5.8169,-34.679961 -12.852,-48.890948 -4.88313,-9.863994 -9.71471,-15.697041 -15.55154,-18.775013 l -2.09724,-1.105953 -20.31796,-0.12199 C 80.623785,21.0664 80.004266,21.086278 77.804177,21.909435 c -3.066303,1.147248 -5.503287,3.094879 -7.985899,6.382293 -2.068168,2.738606 -6.671302,11.477504 -7.166995,13.606306 -0.254918,1.094758 -0.224204,1.115768 1.631082,1.115768 1.730411,0 1.926422,-0.101898 2.309438,-1.200624 0.230192,-0.660345 0.746454,-1.304702 1.147251,-1.431909 0.400797,-0.127209 1.506497,-1.433956 2.457126,-2.903882 2.401467,-3.713343 5.675539,-6.807706 8.761282,-8.280396 1.425317,-0.680238 2.591478,-1.39701 2.591478,-1.592825 0,-0.195815 0.28691,-0.64294 0.637588,-0.993609 0.493989,-0.493998 1.544766,-0.637582 4.665933,-0.637582 3.487381,0 4.137338,0.108969 4.839833,0.811467 0.44631,0.446308 0.811464,1.085339 0.811464,1.42007 0,0.450815 0.473363,0.6086 1.825803,0.6086 1.532779,0 1.825804,-0.125585 1.825804,-0.782487 0,-1.653282 1.031499,-2.05765 5.248805,-2.05765 3.40566,0 4.12645,0.120197 5.0427,0.840916 0.58797,0.462504 1.06905,1.101535 1.06905,1.420069 0,0.405189 0.48749,0.579152 1.62293,0.579152 1.33666,0 1.62294,-0.139079 1.62294,-0.78846 0,-1.516728 1.50459,-2.051677 5.77055,-2.051677 4.89287,0 5.59,0.460228 5.59,3.690437 0,1.174259 0.28292,2.546435 0.65483,3.176041 0.55201,0.934475 0.91833,1.103577 2.33297,1.076936 l 1.67814,-0.0316 1.70855,3.448739 c 1.84953,3.73328 2.04349,4.704656 1.17628,5.890628 -0.51597,0.705629 -0.43381,0.829422 0.96645,1.456338 7.35099,3.291144 13.63603,30.426002 14.83821,64.062226 0.90074,25.20174 -4.06444,49.19129 -10.98054,53.05322 -0.6502,0.36307 -0.71068,0.55491 -0.3043,0.96527 0.79196,0.79975 0.61433,1.955 -0.86838,5.64751 -1.21135,3.01673 -1.53385,3.47899 -2.7018,3.8727 -0.72944,0.24588 -1.72668,0.83246 -2.21609,1.3035 -0.80016,0.77012 -0.8704,1.15962 -0.69681,3.86445 0.17147,2.67187 0.0967,3.10426 -0.66857,3.86959 -0.75449,0.7545 -1.32957,0.8616 -4.6258,0.8616 -4.05447,0 -5.56768,-0.5576 -5.56768,-2.05166 0,-0.66398 -0.28825,-0.78847 -1.82581,-0.78847 -1.31118,0 -1.8258,0.16324 -1.8258,0.57916 0,0.31853 -0.48108,0.95756 -1.06905,1.42006 -0.90447,0.71146 -1.64011,0.84091 -4.77853,0.84091 -3.99752,0 -5.51297,-0.56397 -5.51297,-2.05166 0,-0.64939 -0.28627,-0.78847 -1.62293,-0.78847 -1.135447,0 -1.622941,0.17396 -1.622941,0.57916 0,0.31853 -0.481078,0.95756 -1.069053,1.42006 -0.900268,0.70816 -1.641113,0.84091 -4.692607,0.84091 -3.967435,0 -5.039172,-0.35362 -5.608271,-1.85047 -0.206952,-0.54431 -0.660737,-0.98966 -1.008397,-0.98966 -2.374311,0 -8.030917,-4.57144 -11.579231,-9.35786 -1.147424,-1.54778 -2.246835,-2.81416 -2.443134,-2.81416 -0.196299,0 -0.640156,-0.54774 -0.986354,-1.2172 -0.557087,-1.0773 -0.83809,-1.2172 -2.444826,-1.2172 -0.998458,0 -1.815381,0.18865 -1.815381,0.41922 0,0.23058 0.478062,1.3717 1.06234,2.53583 2.820679,5.61992 7.586898,11.31524 11.281104,13.48019 3.695668,2.16581 3.770214,2.17219 25.706921,2.20138 19.49082,0.0259 20.51038,-0.009 22.85447,-0.79939 l -9e-5,0 z m -32.237685,-3.56705 c -0.836155,-0.92395 -0.864716,-1.69243 -0.06288,-1.69243 0.334727,0 0.608601,-0.18257 0.608601,-0.40573 0,-0.23867 -1.420065,-0.40574 -3.448744,-0.40574 l -3.448731,0 0,1.62294 0,1.62293 3.511623,0 c 3.376305,0 3.485746,-0.0286 2.840131,-0.74197 z m 14.827535,0.2551 c -0.58958,-0.58959 -0.64616,-1.94753 -0.0812,-1.94753 0.22316,0 0.40574,-0.18257 0.40574,-0.40573 0,-0.23845 -1.41208,-0.40574 -3.42479,-0.40574 -1.88363,0 -3.53763,0.18259 -3.67556,0.40574 -0.13791,0.22316 0.0232,0.40573 0.35786,0.40573 0.94334,0 1.26157,0.87945 0.5156,1.42492 -0.36883,0.26968 -0.67058,0.60715 -0.67058,0.74991 0,0.14277 1.58845,0.25957 3.52988,0.25957 2.74547,0 3.42168,-0.10814 3.043,-0.48687 l 4e-5,0 z m 15.33676,-0.67406 c 0,-1.01956 -0.12354,-1.13733 -1.01434,-0.96704 -0.74362,0.14215 -1.01434,0.0189 -1.01434,-0.462 0,-0.53044 -0.46105,-0.6559 -2.41045,-0.6559 -1.32576,0 -2.5233,0.18259 -2.66122,0.40574 -0.13792,0.22316 0.0339,0.40573 0.38178,0.40573 0.36206,0 0.63256,0.347 0.63256,0.81147 0,0.44631 -0.18258,0.81147 -0.40574,0.81147 -0.22316,0 -0.40574,0.18258 -0.40574,0.40573 0,0.23867 1.42008,0.40573 3.44875,0.40573 l 3.44874,0 0,-1.16093 z m -38.544739,-1.95155 c 0,-0.37295 0.30217,-1.01198 0.671493,-1.42007 0.558804,-0.61748 1.30452,-0.74198 4.443976,-0.74198 4.185743,0 5.741645,0.48376 6.095939,1.89536 0.197462,0.78674 0.501232,0.94477 1.816071,0.94477 1.20494,0 1.57895,-0.16062 1.57895,-0.67808 0,-0.37295 0.30217,-1.01198 0.67149,-1.42007 0.5627,-0.62177 1.30974,-0.74198 4.61122,-0.74198 3.37136,0 4.09396,0.12131 5.00879,0.84091 0.58797,0.4625 1.06905,1.10154 1.06905,1.42006 0,0.41592 0.51461,0.57916 1.8258,0.57916 1.4356,0 1.82581,-0.14492 1.82581,-0.67808 0,-0.37295 0.30217,-1.01198 0.67148,-1.42007 0.55171,-0.60962 1.29605,-0.74198 4.17272,-0.74198 3.43722,0 3.51402,-0.0216 4.19981,-1.18259 l 0.69857,-1.18257 -1.40489,-0.86827 c -0.7727,-0.47755 -2.23869,-1.79566 -3.25778,-2.92912 -1.82552,-2.03042 -1.86514,-2.04976 -2.68293,-1.30968 -0.65549,0.59322 -1.656,0.78434 -4.75795,0.90887 -5.06198,0.20321 -7.30328,-0.35874 -7.91714,-1.98503 -0.41112,-1.08919 -0.61385,-1.18923 -2.4097,-1.18923 -1.80312,0 -1.99413,0.0956 -2.37489,1.18777 -0.55088,1.58024 -2.054322,2.0581 -6.475334,2.0581 -4.249349,0 -5.396749,-0.36949 -6.245734,-2.01124 -0.567867,-1.09814 -0.840267,-1.23463 -2.463875,-1.23463 -1.529414,0 -1.882741,0.15074 -2.178853,0.92958 -0.612125,1.61 -1.557871,2.03912 -4.923592,2.23396 -1.772827,0.10261 -3.223319,0.31268 -3.223319,0.46681 0,0.76984 5.780777,6.28658 7.887951,7.52765 2.734605,1.61062 3.066867,1.69097 3.066867,0.74167 z m 44.326449,-8.98663 c 0.61367,-1.51648 1.11576,-2.97939 1.11576,-3.25091 0,-0.44935 -1.58137,-1.28507 -2.43166,-1.28507 -0.34208,0 -1.74611,3.38796 -2.27141,5.48092 -0.24378,0.97128 -0.18321,1.03067 0.79959,0.784 0.81718,-0.2051 1.06334,-0.1158 1.06334,0.38571 0,1.34535 0.64362,0.55605 1.72438,-2.11465 z m -4.8033,-2.47498 c 0.57726,-1.43272 1.34136,-2.92737 1.69799,-3.32145 0.61381,-0.67824 0.57073,-0.69266 -0.80684,-0.26986 -1.23565,0.37922 -1.57681,0.33664 -2.26066,-0.28224 -0.44296,-0.40089 -0.91334,-1.06901 -1.04529,-1.48473 -0.21476,-0.67664 -0.42844,-0.59826 -2.03903,0.74803 -0.98952,0.82714 -1.79913,1.67326 -1.79913,1.88027 0,0.7146 4.55584,6.01302 4.87916,5.67443 0.17833,-0.18673 0.79653,-1.51174 1.3738,-2.94445 z m -45.507721,-0.30103 c -0.646456,-0.26084 -0.660426,-2.25588 -0.02027,-2.89603 0.378685,-0.37868 -0.387704,-0.48688 -3.448743,-0.48688 -2.353259,0 -3.935615,0.16313 -3.935615,0.40574 0,0.22315 0.206468,0.40574 0.458817,0.40574 0.297771,0 0.377937,0.49844 0.228373,1.42006 l -0.230446,1.42007 3.727535,-0.032 c 2.050144,-0.0176 3.4993,-0.12412 3.220359,-0.23668 z m 17.852294,-1e-5 c -0.599734,-0.24199 -0.691624,-2.57142 -0.101461,-2.57142 0.223144,0 0.405726,-0.18259 0.405726,-0.40574 0,-0.24494 -1.648138,-0.40063 -4.158769,-0.39283 -3.545518,0.0115 -4.054075,0.0924 -3.448744,0.55189 0.820113,0.62256 0.929231,1.89386 0.223155,2.59993 -0.378686,0.37869 0.410241,0.47977 3.550181,0.45485 2.22037,-0.0176 3.808818,-0.12413 3.529877,-0.23668 l 3.5e-5,0 z m 17.649427,-0.16952 c -0.89292,-0.52008 -0.90837,-1.51025 -0.0386,-2.47139 0.6465,-0.71437 0.51438,-0.74151 -3.55017,-0.72908 -3.59781,0.0115 -4.11673,0.0926 -3.51162,0.55189 0.8201,0.62256 0.92922,1.89386 0.22315,2.59993 -0.37868,0.37869 0.41024,0.48414 3.55017,0.47454 2.94093,-0.009 3.84427,-0.12462 3.32703,-0.42589 l 2e-5,0 z m -48.579572,-6.15495 c -0.859776,-1.84101 -2.325078,-5.6752 -3.256233,-8.52041 l -1.693007,-5.17311 -1.586248,0 c -0.872444,0 -1.58626,0.15092 -1.58626,0.33537 0,1.11593 2.915345,10.4913 4.91082,15.79256 0.298612,0.79329 0.633892,0.9129 2.558898,0.9129 l 2.215257,0 -1.563227,-3.34731 z m 21.091101,2.01989 0.608601,-1.30985 5.335504,-0.11298 c 5.692516,-0.12048 6.633646,0.15868 6.633646,1.96771 0,0.67798 0.29804,0.78249 2.23154,0.78249 1.45004,0 2.23154,-0.16845 2.23154,-0.48102 0,-0.26456 0.39698,-0.90358 0.88219,-1.42006 0.79289,-0.84401 1.24462,-0.93906 4.46306,-0.93906 1.9695,0 3.58089,-0.15687 3.58089,-0.34859 0,-0.19173 -0.66566,-1.7893 -1.47924,-3.55017 -0.81358,-1.76087 -1.78925,-4.11448 -2.16815,-5.23026 l -0.68892,-2.02866 -5.00782,-0.11448 c -5.20668,-0.11906 -5.87501,-0.32422 -6.51172,-1.99889 -0.303679,-0.79873 -0.64041,-0.92958 -2.392139,-0.92958 -1.301364,0 -2.038708,0.17397 -2.038708,0.48102 0,0.26456 -0.396986,0.90359 -0.882188,1.42007 -0.830098,0.8836 -1.179106,0.93905 -5.90982,0.93905 -5.354585,0 -6.415186,-0.27988 -7.012328,-1.85047 -0.322336,-0.84781 -0.639419,-0.98967 -2.212113,-0.98967 -1.144959,0 -1.835845,0.18103 -1.835845,0.48102 0,0.26456 -0.396986,0.90359 -0.882199,1.42007 -0.811671,0.86399 -1.217052,0.93905 -5.071671,0.93905 -2.30421,0 -4.189484,0.083 -4.189484,0.1845 0,0.3003 3.105781,8.81193 3.822315,10.4753 0.575376,1.33571 0.761125,1.47635 1.457586,1.10362 0.474457,-0.25393 2.897828,-0.38111 5.975256,-0.31359 l 5.17707,0.11356 0.608601,1.30985 c 0.566946,1.22018 0.747479,1.30985 2.637267,1.30985 1.889801,0 2.070333,-0.0897 2.637279,-1.30985 l 0,2e-5 z m 43.258661,-1.31895 c 2.75385,-2.10046 5.59928,-9.72106 7.2329,-19.37114 2.42398,-14.31875 2.5962,-37.26897 0.40412,-53.854756 -2.3472,-17.759527 -6.88582,-32.174743 -11.57042,-36.749132 -1.91779,-1.872664 -2.02679,-1.784862 -3.04599,2.453752 -0.80245,3.337206 -1.08167,3.774545 -2.51718,3.942686 -1.48302,0.173703 -1.99122,2.384226 -0.7952,3.458889 0.70999,0.637945 0.77715,1.065806 0.56513,3.601164 -0.33467,4.002099 -1.03321,5.921577 -2.39195,6.572801 -1.34263,0.643496 -1.48129,2.025833 -0.3043,3.033607 0.69944,0.598882 0.81148,1.196899 0.81148,4.331287 0,3.837379 -0.47386,5.54151 -1.64418,5.912952 -0.39026,0.12386 -0.82431,0.682422 -0.96457,1.24126 -0.20209,0.805199 2e-5,1.230654 0.97399,2.050191 1.21303,1.020695 1.22894,1.085152 1.22281,4.953983 -0.007,4.196878 -0.10848,4.552599 -1.51529,5.293444 -1.22936,0.647401 -1.20536,2.217365 0.0426,2.785969 1.11605,0.508499 1.4677,2.049523 1.47446,6.461503 0.005,2.62572 -0.0954,2.9906 -1.00987,3.71 -1.18619,0.93305 -1.32572,2.0957 -0.28419,2.36807 1.2354,0.32306 1.67422,1.56739 1.95341,5.5393 0.24974,3.55263 0.20788,3.88011 -0.59892,4.68692 -1.14597,1.14595 -1.09677,1.93909 0.13952,2.24938 1.46494,0.36768 2.1327,2.04263 2.27978,5.71838 0.13252,3.312 -0.18205,5.07169 -0.90662,5.07169 -0.22294,0 -0.34757,0.49153 -0.27695,1.09231 0.0989,0.84147 0.42427,1.16846 1.41679,1.42383 1.41778,0.36481 1.65994,0.86547 2.77762,5.74257 0.58567,2.55565 0.58347,2.86361 -0.0272,3.79552 -0.45428,0.69332 -0.58423,1.44224 -0.41072,2.36711 0.21696,1.15646 0.44027,1.37123 1.53791,1.47903 1.19157,0.11703 1.38054,0.36004 2.62208,3.37198 0.87815,2.13038 1.29992,3.76877 1.22725,4.76738 -0.0609,0.83683 -0.0319,1.5215 0.0646,1.5215 0.0964,0 0.7791,-0.46054 1.51708,-1.02343 l -2e-5,0 z m -7.70231,-24.00831 c -0.8878,-2.99503 -2.6098,-23.92778 -3.09397,-37.610669 -0.38695,-10.93539 -0.12336,-27.040353 0.45198,-27.615705 1.21721,-1.217202 3.93576,4.206517 5.38038,10.734254 1.60193,7.238569 2.31938,13.986294 2.56683,24.14118 0.33912,13.91814 -0.73179,24.03512 -3.02619,28.58827 -1.19539,2.37222 -1.92994,2.94034 -2.27903,1.76267 z m -1.88043,21.54664 c 0,-0.0371 -0.27388,-0.72287 -0.6086,-1.52399 -0.8092,-1.93668 -0.7812,-2.15841 0.4248,-3.36442 0.94103,-0.94103 0.99216,-1.15842 0.57196,-2.43166 -0.36226,-1.09769 -0.62474,-1.34645 -1.22096,-1.15722 -1.14834,0.36448 -2.3016,-0.45235 -2.87416,-2.0357 l -0.5134,-1.4198 -2.9615,0 c -1.62882,0 -2.9615,0.16804 -2.9615,0.37341 0,0.72258 2.53246,7.57261 3.89533,10.53646 1.90391,4.14042 2.31845,4.37504 4.50331,2.54872 0.95959,-0.80213 1.74472,-1.48874 1.74472,-1.5258 z m 6.09099,1.51817 c 0.007,-0.86868 -2.14292,-5.71684 -2.54082,-5.7311 -0.16736,-0.006 -0.30431,0.28425 -0.30431,0.64499 0,0.48609 -0.27071,0.60414 -1.04569,0.45599 -0.95564,-0.18267 -1.02281,-0.10814 -0.77987,0.86561 0.14622,0.58603 0.5255,1.35375 0.84284,1.70605 0.31735,0.3523 0.577,1.09176 0.577,1.64322 0,0.55147 0.20261,1.2053 0.45025,1.45294 0.6317,0.6317 2.79414,-0.16954 2.8006,-1.0377 z m -6.33446,-13.1374 c 0.24548,-0.16227 0.78387,-0.18988 1.19642,-0.0614 0.58478,0.18215 0.70162,0.0683 0.53014,-0.51644 -0.12097,-0.41254 -0.52599,-1.83045 -0.90004,-3.1509 l -0.68008,-2.40081 -0.74499,0.98074 c -0.63577,0.83696 -0.86164,0.90898 -1.54075,0.49117 -0.78962,-0.4858 -0.78976,-0.46853 -0.0199,2.23153 1.07555,3.77241 1.22262,4.09966 1.49646,3.32972 0.11906,-0.33473 0.41732,-0.74136 0.6628,-0.90364 l -4e-5,1e-5 z m -48.951777,-0.34606 c -0.867377,-0.50519 -0.938929,-2.33954 -0.103764,-2.66002 1.378284,-0.52889 -0.04975,-0.9587 -3.166058,-0.95287 -3.344934,0.006 -5.071188,0.43696 -3.763121,0.93892 0.711616,0.27308 0.873262,1.70458 0.236895,2.09787 -1.138234,0.70346 -0.04088,1.0132 3.550168,1.00199 2.885794,-0.009 3.763835,-0.1242 3.24588,-0.42589 z m 17.629138,-0.0486 c -0.697774,-0.69777 -0.600643,-2.33506 0.155749,-2.62532 1.301468,-0.49943 -0.410679,-0.93271 -3.685638,-0.93271 -3.274959,0 -4.987094,0.43328 -3.685625,0.93271 0.770937,0.29583 0.878029,2.54385 0.135457,2.84349 -0.278942,0.11251 1.309506,0.21907 3.529888,0.23667 3.139928,0.0249 3.928854,-0.0761 3.550169,-0.45484 z m 17.466859,0.0685 c -1.04109,-0.41846 -1.20021,-1.67076 -0.32363,-2.54733 0.90022,-0.90023 0.36243,-1.09163 -3.06736,-1.09163 -2.9257,0 -4.19621,0.4 -3.20882,1.01025 0.5663,0.34999 0.51925,1.96645 -0.0745,2.56021 -0.37868,0.37869 0.41024,0.48116 3.55017,0.46117 2.83078,-0.018 3.76428,-0.13537 3.12415,-0.39267 z m -46.355116,-3.04278 c 0,-0.1184 -0.445147,-2.62889 -0.98921,-5.57884 -0.544062,-2.94995 -1.283145,-8.01097 -1.642414,-11.24669 -0.359257,-3.23573 -0.729996,-6.11137 -0.823856,-6.39031 -0.09881,-0.29365 -0.859304,-0.50718 -1.806329,-0.50718 -1.475574,0 -1.635677,0.0996 -1.635677,1.01749 0,2.39984 2.68961,19.48718 3.496053,22.21079 0.154033,0.52021 0.636805,0.71004 1.805833,0.71004 0.877581,0 1.5956,-0.0969 1.5956,-0.2153 z m 18.790416,-0.92517 c 0.339126,-1.69562 1.703762,-2.10541 7.011223,-2.10541 4.412294,0 4.719301,0.054 5.661189,0.9959 0.547738,0.54774 0.995891,1.28759 0.995891,1.64413 0,0.5271 0.398091,0.62533 2.130103,0.52561 1.853051,-0.10664 2.146906,-0.24091 2.259284,-1.03197 0.229271,-1.61379 1.55437,-2.13367 5.43851,-2.13367 1.95872,0 3.56132,-0.0718 3.56132,-0.15947 0,-0.0878 -0.28261,-1.52603 -0.62803,-3.19628 -0.34541,-1.67025 -0.94512,-5.47832 -1.3327,-8.46238 l -0.70467,-5.42556 -4.43846,-0.11609 c -3.882808,-0.10158 -4.554036,-0.22469 -5.361895,-0.98362 -0.507901,-0.47716 -0.923462,-1.20089 -0.923462,-1.6083 0,-0.61941 -0.335718,-0.74074 -2.049777,-0.74074 -1.915932,0 -2.077681,0.08 -2.477073,1.22577 -0.235017,0.67418 -0.761264,1.4045 -1.169432,1.62294 -0.408156,0.21844 -2.94508,0.39717 -5.637592,0.39717 -4.354504,0 -4.985159,-0.0897 -5.706956,-0.81147 -0.446311,-0.44631 -0.811464,-1.17663 -0.811464,-1.62293 0,-0.70328 -0.270488,-0.81148 -2.028678,-0.81148 -1.732715,0 -2.028666,0.11413 -2.028666,0.78202 0,0.43012 -0.481079,1.16044 -1.069054,1.62294 -0.937892,0.73775 -1.630034,0.84092 -5.641669,0.84092 l -4.572615,0 0.202609,1.72437 c 0.394153,3.35455 1.712608,11.89513 2.145248,13.89639 l 0.438583,2.02867 5.067157,-0.14335 c 5.577522,-0.15779 6.829136,0.21438 7.321754,2.17716 0.225527,0.89852 0.46537,1.0092 2.187271,1.0092 1.795342,0 1.950308,-0.0818 2.162051,-1.14047 z m 36.4687,-0.25996 c -0.13026,-1.11581 0.0548,-1.60271 0.91039,-2.39568 1.33792,-1.23994 1.12054,-3.10138 -0.36219,-3.10138 -1.74888,0 -2.27179,-1.19679 -2.53223,-5.79563 -0.22974,-4.05695 -0.19875,-4.29412 0.62868,-4.81086 1.01061,-0.63113 1.15581,-1.56553 0.24327,-1.56553 -1.18184,0 -2.61883,-1.8924 -2.61883,-3.44883 l 0,-1.45705 -2.71092,0.11997 c -2.55169,0.11298 -2.72785,0.18351 -2.99881,1.20167 -0.28834,1.08346 1.07106,11.47142 2.17682,16.63434 0.3185,1.48714 0.96982,3.20062 1.4474,3.80776 0.47757,0.60712 0.86831,1.35312 0.86831,1.65776 0,0.4094 0.66669,0.55389 2.5558,0.55389 l 2.5558,0 -0.16349,-1.40043 z m 2.73076,-8.63323 c 0.97453,0.25485 0.97088,0.35632 0.16099,-4.47134 -0.24127,-1.43815 -0.94237,-1.81547 -0.94237,-0.50716 0,0.8864 -0.47856,1.01818 -1.57211,0.43294 -0.64476,-0.34507 -0.69196,-0.1568 -0.53388,2.1301 0.20059,2.90204 0.72349,3.90412 1.49012,2.85568 0.3214,-0.43954 0.81055,-0.59364 1.39725,-0.44022 z m -3.39025,-11.83 c -0.34218,-0.55367 0.89292,-1.38569 1.63454,-1.10111 0.48384,0.18567 0.59303,0.0811 0.41089,-0.39353 -0.13642,-0.35551 -0.24804,-1.58087 -0.24804,-2.72302 0,-1.61515 -0.10825,-1.96843 -0.48688,-1.58975 -0.7234,0.7234 -1.94752,0.59589 -1.94752,-0.20286 0,-0.51077 -0.11839,-0.57136 -0.45627,-0.23348 -0.70511,0.70511 -0.064,6.6035 0.7177,6.6035 0.32886,0 0.49787,-0.16189 0.37558,-0.35975 z m -46.890687,-1.46606 c 0.413684,-0.49844 0.385952,-0.6086 -0.153181,-0.6086 -0.460937,0 -0.658283,-0.3649 -0.658283,-1.2172 0,-0.66945 0.193362,-1.2172 0.42968,-1.2172 0.23633,0 0.316842,-0.18258 0.178921,-0.40573 -0.276293,-0.44706 -7.20766,-0.56891 -7.642212,-0.13436 -0.149254,0.14925 0.02499,0.5989 0.387323,0.99922 0.764649,0.84493 0.48367,1.97527 -0.491006,1.97527 -0.550455,0 -0.580259,0.1093 -0.165919,0.6086 0.378594,0.45618 1.394764,0.60861 4.057344,0.60861 2.662569,0 3.678751,-0.15243 4.057333,-0.60861 z m 17.210513,0.36234 c 0.814147,-0.31242 0.836662,-0.97094 0.03317,-0.97094 -0.79655,0 -0.783606,-1.37833 0.01923,-2.0446 1.028999,-0.854 -0.0638,-1.18819 -3.90748,-1.19506 -3.753044,-0.007 -4.309763,0.17126 -3.395606,1.08541 0.770281,0.77029 0.757866,2.15425 -0.01935,2.15425 -0.633591,0 -0.804969,0.47987 -0.338113,0.94672 0.338148,0.33816 6.736946,0.35852 7.608135,0.0242 l 0,4e-5 z m 17.987984,-0.46376 c 0.0985,-0.29721 -0.18196,-0.50718 -0.67729,-0.50718 -1.00806,0 -1.15575,-1.2659 -0.23667,-2.02866 0.33472,-0.2778 0.6086,-0.66532 0.6086,-0.86115 0,-0.41183 -6.62669,-0.4916 -7.033614,-0.0846 -0.149254,0.14926 0.02499,0.59891 0.387323,0.99922 0.764638,0.84493 0.483658,1.97528 -0.491006,1.97528 -0.557572,0 -0.583541,0.10537 -0.153561,0.62349 0.663523,0.79951 7.326668,0.69746 7.596218,-0.11632 l 0,-3e-5 z M 58.614622,105.59827 C 58.485396,100.07521 58.289638,94.962969 58.179598,94.237717 57.984877,92.954376 57.925717,92.919089 55.969236,92.919089 l -2.010286,0 0,3.151364 c 0,3.491631 0.677377,15.148767 1.03698,17.845367 l 0.229939,1.72437 1.811845,0 1.811845,0 -0.234937,-10.04192 z m 18.597825,8.90146 c 0.334704,-1.67352 1.716327,-2.10541 6.735196,-2.10541 3.826138,0 4.526411,0.10791 5.458314,0.84091 0.587975,0.46251 1.069054,1.19284 1.069054,1.62294 0,0.67742 0.298496,0.78202 2.23153,0.78202 1.933046,0 2.231542,-0.10457 2.231542,-0.78202 0,-0.4301 0.481079,-1.16043 1.069053,-1.62294 0.919985,-0.72365 1.635954,-0.84091 5.134574,-0.84091 l 4.06552,0 -0.26576,-5.54155 c -0.14618,-3.04787 -0.26577,-6.60818 -0.26577,-7.911829 l 0,-2.370246 -3.95591,-0.0058 c -4.509963,-0.0069 -5.713979,-0.43051 -6.593173,-2.320068 -0.553506,-1.189574 -0.77392,-1.307998 -2.434404,-1.307998 -1.660495,0 -1.880909,0.118424 -2.434404,1.307998 -0.875645,1.881923 -2.087988,2.31408 -6.491748,2.31408 -4.40376,0 -5.616102,-0.432157 -6.491748,-2.31408 -0.55718,-1.197509 -0.768669,-1.308735 -2.503595,-1.316785 -1.768497,-0.0081 -1.91243,0.0706 -2.156177,1.180383 -0.432019,1.966938 -1.143312,2.244808 -6.153382,2.403851 l -4.604735,0.146156 0,7.868028 0,7.86803 5.016957,0 c 4.46117,0 5.135392,0.0932 6.08601,0.84091 0.587975,0.4625 1.069054,1.19283 1.069054,1.62294 0,0.66526 0.295317,0.78202 1.977959,0.78202 1.843561,0 1.993449,-0.0775 2.206043,-1.14046 l 0,2e-5 z m 36.389403,-0.29848 c 0,-1.17374 0.22386,-1.56633 1.21463,-2.1301 1.35286,-0.76981 1.72887,-2.51697 0.54168,-2.51697 -0.37295,0 -1.01198,-0.30216 -1.42006,-0.67148 -0.62711,-0.56752 -0.74199,-1.31689 -0.74199,-4.83983 0,-4.423434 0.38558,-5.443508 2.05765,-5.443508 1.38619,0 0.99695,-1.787834 -0.53615,-2.46262 -1.04167,-0.458472 -1.34534,-0.857357 -1.44578,-1.899025 l -0.12714,-1.318628 -2.76169,0 -2.76171,0 -0.49908,1.78257 c -0.63907,2.28249 -0.0319,18.240921 0.72272,18.995521 0.26531,0.26531 0.48237,0.81102 0.48237,1.21269 0,0.62836 0.36817,0.73032 2.63727,0.73032 l 2.63728,0 0,-1.43894 z m 2.69341,-7.69008 c 0.3156,-0.82241 1.23017,-0.76901 1.73716,0.10147 0.30638,0.52602 0.41675,-0.12494 0.42589,-2.51196 0.0104,-2.80892 -0.0582,-3.12557 -0.53759,-2.46991 -0.63525,0.86875 -1.88447,0.59351 -1.88447,-0.41519 0,-0.36033 -0.22823,-0.57908 -0.50717,-0.48609 -0.50307,0.16769 -0.52725,0.445 -0.38038,4.36164 0.0732,1.95423 0.66185,2.6832 1.14656,1.42007 l 0,-3e-5 z m 0.75127,-13.186354 c 0.52291,0 1.04286,0.228222 1.15541,0.507175 0.11252,0.278941 0.21906,-0.956572 0.23668,-2.74558 l 0.032,-3.252744 -1.62293,-0.0425 -1.62294,-0.04261 0,3.126247 c 0,2.866929 0.42476,4.64396 0.73979,3.095013 0.075,-0.368689 0.53845,-0.644993 1.08194,-0.644993 l 4e-5,-1.1e-5 z m -47.890612,0.02925 c 0.127994,-0.20709 -0.1351,-0.493264 -0.584659,-0.635942 -1.06743,-0.338792 -1.074835,-1.836306 -0.01036,-2.114648 1.819837,-0.475896 0.125979,-0.930222 -3.468103,-0.930222 -3.474413,0 -4.550388,0.318673 -3.4248,1.014327 0.620786,0.383661 0.48238,1.821864 -0.200537,2.083922 -0.333448,0.12796 -0.505252,0.396099 -0.381783,0.595864 0.297989,0.482173 7.771749,0.46985 8.070349,-0.01336 l 1.2e-5,1.1e-5 z m 17.373114,0.129917 c 0.13563,-0.135641 0.03086,-0.592086 -0.232841,-1.014339 -0.371188,-0.594366 -0.365798,-0.949719 0.02384,-1.573684 0.276834,-0.443281 0.503329,-0.899738 0.503329,-1.014338 -1.1e-5,-0.11459 -1.825815,-0.208368 -4.057355,-0.208368 -2.434405,0 -4.057344,0.16229 -4.057344,0.405726 0,0.223155 0.182582,0.405738 0.405737,0.405738 0.646951,0 0.468941,2.029887 -0.200536,2.286785 -0.333449,0.12796 -0.505252,0.396099 -0.381784,0.595864 0.248422,0.401961 7.604288,0.509225 7.996897,0.116616 z m 17.873768,-0.02142 c 0.14745,-0.147445 -0.14164,-0.47236 -0.64241,-0.722015 -1.16717,-0.581906 -1.16606,-1.535058 0.002,-2.047692 1.722,-0.755494 0.90756,-1.019567 -3.14446,-1.019567 -2.434406,0 -4.057334,0.162302 -4.057334,0.405738 0,0.223155 0.182583,0.405738 0.405726,0.405738 0.532086,0 0.526443,1.906177 -0.0069,2.235618 -0.226783,0.140167 -0.307306,0.42482 -0.17892,0.632555 0.263002,0.425546 7.205808,0.525394 7.621588,0.109637 l 8e-5,1.2e-5 z M 58.18531,89.36899 c 0.128432,-0.613669 0.513935,-4.402205 0.85669,-8.418976 0.342742,-4.016772 0.798531,-8.398697 1.012864,-9.737617 0.214334,-1.33892 0.391078,-3.027791 0.392759,-3.753043 l 0.0035,-1.318628 -2.231529,0 c -1.227348,0 -2.231541,0.150797 -2.231541,0.335107 0,0.18431 -0.264949,2.238336 -0.588781,4.564508 -0.72903,5.236772 -1.605332,18.022321 -1.291311,18.840649 0.157119,0.409435 0.813088,0.603776 2.037983,0.603776 1.643416,0 1.827358,-0.100654 2.039803,-1.115776 l -4.6e-5,0 z m 17.683277,0.56189 c 0,-0.304635 0.378409,-1.034965 0.840912,-1.62294 0.830547,-1.055856 0.905277,-1.069054 6.056562,-1.069054 5.151285,0 5.226027,0.01313 6.056563,1.069054 0.462502,0.587975 0.840912,1.318305 0.840912,1.62294 0,0.394163 0.584969,0.553886 2.028677,0.553886 1.443697,0 2.028667,-0.159723 2.028667,-0.553886 0,-0.304635 0.378409,-1.034965 0.840924,-1.62294 0.823557,-1.047 0.939677,-1.069054 5.628136,-1.069054 l 4.78723,0 0.28596,-4.76737 c 0.15727,-2.622054 0.50592,-6.730116 0.77476,-9.129015 l 0.48881,-4.361645 -4.06994,-0.0058 c -4.457246,-0.0069 -6.021475,-0.491616 -6.228253,-1.931409 -0.115822,-0.806443 -0.364739,-0.902767 -2.33298,-0.902767 -1.638222,0 -2.203314,0.14854 -2.203314,0.579153 0,0.318535 -0.481079,0.957574 -1.069054,1.420077 -0.942487,0.741363 -1.628272,0.840912 -5.792869,0.840912 -5.0586,0 -6.527299,-0.461639 -6.527299,-2.051676 0,-0.685221 -0.292197,-0.788466 -2.231541,-0.788466 -1.662672,0 -2.231541,0.147641 -2.231541,0.579153 0,0.318535 -0.481067,0.957574 -1.069042,1.420077 -0.931455,0.73268 -1.632338,0.840912 -5.445175,0.840912 l -4.376121,0 -0.230502,1.115764 c -0.390617,1.890906 -1.456907,12.943822 -1.456907,15.102061 l 0,2.040204 4.46307,0 c 3.922095,0 4.561433,0.09835 5.274547,0.811464 0.446298,0.446311 0.811464,1.17663 0.811464,1.62294 0,0.703279 0.270488,0.811465 2.028666,0.811465 1.443709,0 2.028678,-0.159711 2.028678,-0.553875 l 0,2.3e-5 z m 37.351763,-1.62666 c 0.22327,-1.944157 1.0724,-3.093999 2.28484,-3.093999 0.31957,0 0.53106,-0.48473 0.53106,-1.217202 0,-0.749137 -0.20985,-1.217202 -0.54572,-1.217202 -0.30014,0 -0.86943,-0.357691 -1.26505,-0.794869 -0.61314,-0.677504 -0.69547,-1.389362 -0.55762,-4.821429 0.17425,-4.338243 0.58931,-5.338521 2.2152,-5.338521 0.68045,0 0.96466,-0.229293 0.96466,-0.778285 0,-0.428057 0.11078,-1.067084 0.24628,-1.420065 0.1454,-0.37895 0.0339,-0.641792 -0.27236,-0.641792 -0.7995,0 -2.00259,-1.256542 -2.00259,-2.091546 0,-0.648909 -0.34252,-0.748584 -2.57234,-0.748584 l -2.57232,0 -0.4708,1.521503 c -0.93488,3.021331 -2.37619,19.3945 -1.89866,21.568701 l 0.28316,1.289261 2.70258,-0.11915 2.70258,-0.11915 0.2271,-1.977671 z m 3.22163,-8.774271 c 0,-1.252028 1.62498,-0.943743 2.13867,0.405726 0.12742,0.334739 0.24608,-0.698015 0.2637,-2.294985 0.0298,-2.705296 -0.023,-2.88918 -0.7745,-2.692674 -0.51158,0.133776 -0.89842,-0.02844 -1.05775,-0.443719 -0.13816,-0.360052 -0.50554,-0.654632 -0.81639,-0.654632 -0.436,0 -0.5652,0.741939 -0.5652,3.245879 0,1.893417 0.16905,3.245869 0.40574,3.245869 0.22315,0 0.40573,-0.365165 0.40573,-0.811464 z m 1.77848,-13.389223 c 0.49466,0 1.10032,0.200951 1.34594,0.446575 0.53271,0.532708 0.74918,-0.06967 1.14451,-3.18528 0.2634,-2.07578 0.24432,-2.130103 -0.7483,-2.130103 -0.56023,0 -1.09024,-0.21491 -1.1778,-0.477578 -0.35594,-1.067844 -1.04749,0.203508 -1.30518,2.399452 -0.15092,1.286082 -0.35315,2.703487 -0.44941,3.149797 -0.0963,0.446311 -0.0703,0.583242 0.0579,0.304301 0.12812,-0.278941 0.63765,-0.507164 1.13231,-0.507164 z m -47.545274,-0.08119 c -0.720611,-0.720622 -0.612701,-2.353259 0.15553,-2.353259 0.353327,0 0.566785,-0.228234 0.474353,-0.507175 -0.114358,-0.345035 -1.364164,-0.544547 -3.909575,-0.624103 l -3.741516,-0.116938 0.270143,1.440023 c 0.172379,0.918833 0.08868,1.658676 -0.231252,2.044168 -0.43826,0.528077 4.04e-4,0.604155 3.483903,0.604155 3.099678,0 3.8771,-0.10814 3.498414,-0.486871 z m 17.669722,-0.07797 c -0.390525,-0.296446 -0.710039,-0.829315 -0.710039,-1.184138 0,-0.354835 0.319514,-0.825422 0.710039,-1.045779 0.514108,-0.290066 0.587859,-0.524174 0.267275,-0.848363 -0.630828,-0.637922 -7.552384,-0.374597 -7.774422,0.295767 -0.09236,0.278941 0.121096,0.507175 0.474422,0.507175 0.889869,0 0.837089,1.874955 -0.0676,2.401904 -0.514592,0.299717 0.462617,0.413397 3.550168,0.412994 3.62824,-4.15e-4 4.154878,-0.0805 3.550181,-0.53956 z m 17.649432,0.06956 c -0.56238,-0.271225 -0.9129,-0.805948 -0.9129,-1.39261 0,-0.753525 0.2188,-0.952334 1.04814,-0.952334 0.65819,0 0.98524,-0.188687 0.87909,-0.507175 -0.11996,-0.359891 -1.32765,-0.507164 -4.15877,-0.507164 -2.83113,0 -4.038818,0.147273 -4.158774,0.507164 -0.09294,0.278941 0.120025,0.507175 0.473351,0.507175 0.768243,0 0.876143,1.632637 0.155531,2.353247 -0.378686,0.378686 0.410241,0.480779 3.550172,0.459428 3.20671,-0.02188 3.84929,-0.118021 3.12416,-0.467731 z M 60.387645,62.691845 c 0.08073,-0.446311 0.408283,-1.10684 0.727855,-1.467836 0.319571,-0.361008 1.111641,-2.734547 1.760159,-5.274546 0.648528,-2.539999 1.6354,-5.941881 2.193052,-7.559742 l 1.013913,-2.941568 -2.392576,0 -2.392588,0 -1.060128,3.347306 c -1.34902,4.259447 -3.438252,12.773101 -3.438252,14.010964 0,0.862252 0.153043,0.935324 1.720877,0.821656 1.34743,-0.09766 1.75273,-0.300857 1.867688,-0.936234 z m 17.972214,-0.371154 c 0.172944,-0.65044 0.550408,-1.332321 0.838816,-1.515284 0.288408,-0.182974 2.85228,-0.335475 5.69749,-0.338884 4.636912,-0.0058 5.257213,0.07785 5.984573,0.805257 0.44631,0.446299 0.811475,1.186165 0.811475,1.64413 0,0.749586 0.212572,0.820435 2.130104,0.710038 1.822775,-0.104915 2.148013,-0.248238 2.254206,-0.993171 0.260319,-1.82608 1.194688,-2.139524 6.740367,-2.261162 l 5.20581,-0.114128 1.38757,-4.868808 c 0.76316,-2.67784 1.49201,-5.279614 1.61967,-5.78171 0.2285,-0.898748 0.17256,-0.912902 -3.6068,-0.912902 -4.07129,0 -4.90491,-0.354662 -5.2452,-2.231529 -0.12139,-0.669615 -0.51883,-0.832908 -2.273424,-0.934115 -1.847834,-0.106528 -2.126291,-0.02361 -2.126291,0.633534 0,0.415896 -0.372271,1.15575 -0.827277,1.644142 -0.771548,0.828163 -1.19357,0.887968 -6.265876,0.887968 -5.160141,0 -5.470925,-0.04618 -6.070198,-0.901742 -0.347384,-0.495958 -0.631611,-1.226277 -0.631611,-1.622939 0,-0.594931 -0.355134,-0.721187 -2.028666,-0.721187 -1.687789,0 -2.028678,0.123492 -2.028678,0.73496 0,0.404229 -0.381288,1.144234 -0.847292,1.644441 -0.808562,0.867884 -1.09515,0.90385 -6.266692,0.786531 l -5.41939,-0.122927 -1.230941,4.260207 c -0.67702,2.343113 -1.349377,5.036166 -1.494116,5.984573 l -0.263175,1.724366 3.906339,0 c 3.365352,0 4.018707,0.112401 4.717793,0.811476 0.44631,0.446299 0.811464,1.186165 0.811464,1.64413 0,0.748411 0.212813,0.820263 2.102763,0.710038 1.938861,-0.113092 2.127259,-0.214805 2.417187,-1.305257 z m 37.010151,0.675454 c 0.10998,-0.390524 0.32593,-1.349066 0.47993,-2.130103 0.35854,-1.818329 0.78233,-2.322614 2.21658,-2.637624 1.7269,-0.379285 2.02755,-2.193813 0.60003,-3.621341 -0.8153,-0.815288 -1.03909,-1.3977 -0.94714,-2.4649 0.0969,-1.124621 -0.14439,-1.670561 -1.23615,-2.796955 -0.74608,-0.769763 -1.59086,-1.309657 -1.8773,-1.199743 -0.6839,0.262438 -1.93287,3.707311 -3.43517,9.474695 -1.66925,6.408414 -1.74287,6.08601 1.38938,6.08601 2.13899,0 2.646,-0.128121 2.80984,-0.710039 z m 8.38675,-12.312314 c 0.47158,-1.583461 0.79882,-2.913214 0.72723,-2.955019 -1.99303,-1.163535 -2.45037,-1.234581 -3.01112,-0.467697 -0.549,0.750819 -0.73301,1.71589 -0.59512,3.121329 0.0364,0.370751 -0.12518,0.792335 -0.35901,0.936856 -0.23383,0.144509 -0.42516,0.639488 -0.42516,1.099953 0,0.710222 0.0954,0.758027 0.62897,0.315206 0.51957,-0.431201 0.74639,-0.404563 1.30415,0.153193 0.37135,0.371349 0.71962,0.675178 0.77392,0.675178 0.0544,0 0.48458,-1.295549 0.95614,-2.878999 z m -3.86604,-4.13462 c 0.78644,-1.656925 0.87003,-1.708933 2.70994,-1.685969 1.40911,0.01762 1.7564,-0.08695 1.3473,-0.405734 -0.30315,-0.236186 -1.13626,-1.753136 -1.85136,-3.371001 -0.7151,-1.617864 -1.45718,-2.941571 -1.64906,-2.941571 -0.40402,0 -2.39759,2.662824 -3.89393,5.201133 l -1.03306,1.752397 1.5574,1.594909 c 0.85656,0.8772 1.65726,1.588298 1.77935,1.580213 0.12207,-0.0081 0.58711,-0.784054 1.03342,-1.724377 z M 77.260149,45.900026 c 0.122236,-0.197784 -0.140859,-0.454579 -0.584659,-0.570631 -0.956583,-0.25015 -1.100367,-1.822773 -0.198302,-2.168926 1.387542,-0.532453 0.436383,-0.957844 -2.130104,-0.952654 -3.881049,0.0078 -4.564508,0.25353 -4.564508,1.640772 0,0.630267 -0.182582,1.258781 -0.405737,1.396691 -0.223156,0.137922 -0.405738,0.422564 -0.405738,0.632556 0,0.485731 7.989342,0.507106 8.289048,0.02223 z m 17.810604,0.09167 c 0.147353,-0.147353 -0.09605,-0.52286 -0.540988,-0.834474 -0.955594,-0.669326 -1.056974,-1.668024 -0.202611,-1.995873 1.305454,-0.500948 0.02603,-0.956765 -2.557458,-0.911084 -2.404438,0.04252 -5.960722,0.590639 -4.64199,0.715463 0.717005,0.06787 0.632705,2.053964 -0.09916,2.334794 -0.333449,0.127948 -0.505252,0.396087 -0.381796,0.595864 0.256588,0.415147 8.016304,0.502948 8.423942,0.09536 z m 17.313897,0.11148 c 0,-0.08603 -0.27251,-0.679462 -0.60558,-1.318639 -0.56321,-1.080901 -0.54903,-1.187759 0.20288,-1.52845 1.54353,-0.699387 0.79247,-1.053508 -2.13315,-1.005766 -2.56883,0.04192 -6.25773,0.583998 -4.8688,0.715463 0.73194,0.06928 0.62517,1.944571 -0.12715,2.233266 -0.34887,0.13388 -0.52068,0.427274 -0.38179,0.652007 0.23045,0.37287 7.91359,0.617641 7.91359,0.252119 z M 84.033798,41.82602 c 0.56341,-1.616176 2.083116,-2.066695 6.806056,-2.017659 4.984239,0.05174 5.78239,0.282242 6.532633,1.886485 0.559863,1.197171 0.764626,1.302085 2.556939,1.310164 1.789264,0.0081 1.981894,-0.08748 2.359304,-1.170104 0.24376,-0.699251 0.89154,-1.37795 1.59216,-1.668151 1.62776,-0.674245 9.76846,-0.389757 10.68815,0.37351 0.37144,0.308269 0.72389,0.488829 0.78321,0.401239 1.09463,-1.616042 4.87792,-6.042393 5.16455,-6.042393 0.21354,0 0.38826,-0.273871 0.38826,-0.608601 0,-0.498956 -0.7127,-0.609681 -3.95591,-0.614582 -4.33974,-0.0066 -5.90898,-0.502267 -6.11423,-1.931412 -0.10814,-0.753095 -0.38673,-0.902746 -1.68039,-0.902746 -1.28529,0 -1.59131,0.161717 -1.78785,0.944776 -0.34702,1.382628 -1.89619,1.895363 -5.72666,1.895363 -4.209168,0 -5.484735,-0.422289 -5.484735,-1.815762 0,-0.939842 -0.147043,-1.024377 -1.781823,-1.024377 -1.556674,0 -1.813607,0.126686 -2.033457,1.002625 -0.397596,1.584132 -1.549315,1.924568 -5.997517,1.772791 -4.067133,-0.138774 -4.746308,-0.401925 -5.29637,-2.052109 -0.465831,-1.397503 -5.59649,2.492459 -8.347183,6.328667 l -1.343849,1.874175 2.763914,0.04046 c 3.810545,0.05576 4.688425,0.362381 5.401193,1.886484 0.545283,1.166003 0.79017,1.302297 2.354076,1.310164 1.568352,0.0078 1.787488,-0.111744 2.159529,-1.17899 l 0,-1.4e-5 z m 43.926412,0.348826 c 0.41127,-0.374663 -1.60884,-5.410881 -2.45063,-6.109507 -0.43644,-0.36221 -0.54719,-0.229202 -0.54719,0.657193 0,0.96662 -0.13206,1.086068 -1.01432,0.917413 -0.5579,-0.106643 -1.01434,-0.05477 -1.01434,0.115281 0,0.332543 1.62842,3.913784 2.16118,4.752885 0.33056,0.520638 2.16175,0.307649 2.8653,-0.333265 z M 90.272137,31.247504 c 0.137921,-0.223154 -0.03386,-0.405734 -0.381784,-0.405734 -0.834647,0 -0.826286,-1.574062 0.01036,-1.895 1.190668,-0.4569 -0.299337,-0.932362 -2.942409,-0.938924 -3.326506,-0.0083 -3.786211,0.209729 -3.786211,1.795375 0,0.71997 0.121718,1.43076 0.270488,1.579526 0.432963,0.432963 6.553592,0.311762 6.829861,-0.135243 l 3.5e-5,0 z m 14.809303,0.08115 c 0,-0.178523 -0.22367,-0.54824 -0.49702,-0.821596 -0.38387,-0.383877 -0.38822,-0.671197 -0.0191,-1.262267 0.61531,-0.985224 0.007,-1.243155 -2.93262,-1.243155 -2.967247,0 -3.547333,0.25367 -2.922471,1.277991 0.402525,0.659858 0.364716,0.891699 -0.215658,1.322674 -0.387047,0.287417 -0.584842,0.641457 -0.439539,0.786758 0.382624,0.382628 7.026418,0.325513 7.026418,-0.0604 l 1e-5,-10e-7 z m 13.89663,-0.547555 c -0.15169,-0.580118 0.0302,-1.060965 0.54319,-1.436087 1.17281,-0.85758 0.0776,-1.33095 -3.07928,-1.33095 -2.75402,0 -4.29242,0.46632 -3.07703,0.932711 0.81318,0.312045 0.83665,1.440278 0.0364,1.747381 -1.32658,0.509055 -10e-4,0.959087 2.82376,0.959087 2.85045,0 2.97109,-0.03822 2.75301,-0.872142 l -5e-5,0 z"
         style="fill:#000000" />
    </g>
  </g>
</svg>
