<?xml version="1.0" encoding="UTF-8" standalone="no"?>
<!-- Created with Inkscape (http://www.inkscape.org/) -->

<svg
   xmlns:dc="http://purl.org/dc/elements/1.1/"
   xmlns:cc="http://creativecommons.org/ns#"
   xmlns:rdf="http://www.w3.org/1999/02/22-rdf-syntax-ns#"
   xmlns:svg="http://www.w3.org/2000/svg"
   xmlns="http://www.w3.org/2000/svg"
   xmlns:sodipodi="http://sodipodi.sourceforge.net/DTD/sodipodi-0.dtd"
   xmlns:inkscape="http://www.inkscape.org/namespaces/inkscape"
   version="1.1"
   width="200"
   height="200"
   id="svg2"
   inkscape:version="0.47 r22583"
   sodipodi:docname="Italian traffic signs - icona fonte.svg"
   sodipodi:version="0.32"
   inkscape:output_extension="org.inkscape.output.svg.inkscape">
  <metadata
     id="metadata2877">
    <rdf:RDF>
      <cc:Work
         rdf:about="">
        <dc:format>image/svg+xml</dc:format>
        <dc:type
           rdf:resource="http://purl.org/dc/dcmitype/StillImage" />
        <dc:title></dc:title>
      </cc:Work>
    </rdf:RDF>
  </metadata>
  <sodipodi:namedview
     pagecolor="#ffffff"
     bordercolor="#666666"
     borderopacity="1"
     objecttolerance="10"
     gridtolerance="10"
     guidetolerance="10"
     inkscape:pageopacity="0"
     inkscape:pageshadow="2"
     inkscape:window-width="1600"
     inkscape:window-height="838"
     id="namedview2875"
     showgrid="false"
     inkscape:zoom="2.3931339"
     inkscape:cx="108.95998"
     inkscape:cy="128.68445"
     inkscape:window-x="-8"
     inkscape:window-y="-8"
     inkscape:window-maximized="1"
     inkscape:current-layer="svg2" />
  <defs
     id="defs4">
    <inkscape:perspective
       sodipodi:type="inkscape:persp3d"
       inkscape:vp_x="0 : 100 : 1"
       inkscape:vp_y="0 : 1000 : 0"
       inkscape:vp_z="200 : 100 : 1"
       inkscape:persp3d-origin="100 : 66.666667 : 1"
       id="perspective2879" />
    <inkscape:perspective
       id="perspective2839"
       inkscape:persp3d-origin="0.5 : 0.33333333 : 1"
       inkscape:vp_z="1 : 0.5 : 1"
       inkscape:vp_y="0 : 1000 : 0"
       inkscape:vp_x="0 : 0.5 : 1"
       sodipodi:type="inkscape:persp3d" />
    <inkscape:perspective
       id="perspective3649"
       inkscape:persp3d-origin="0.5 : 0.33333333 : 1"
       inkscape:vp_z="1 : 0.5 : 1"
       inkscape:vp_y="0 : 1000 : 0"
       inkscape:vp_x="0 : 0.5 : 1"
       sodipodi:type="inkscape:persp3d" />
    <inkscape:perspective
       id="perspective3679"
       inkscape:persp3d-origin="0.5 : 0.33333333 : 1"
       inkscape:vp_z="1 : 0.5 : 1"
       inkscape:vp_y="0 : 1000 : 0"
       inkscape:vp_x="0 : 0.5 : 1"
       sodipodi:type="inkscape:persp3d" />
    <inkscape:perspective
       id="perspective3713"
       inkscape:persp3d-origin="0.5 : 0.33333333 : 1"
       inkscape:vp_z="1 : 0.5 : 1"
       inkscape:vp_y="0 : 1000 : 0"
       inkscape:vp_x="0 : 0.5 : 1"
       sodipodi:type="inkscape:persp3d" />
    <inkscape:perspective
       id="perspective3741"
       inkscape:persp3d-origin="0.5 : 0.33333333 : 1"
       inkscape:vp_z="1 : 0.5 : 1"
       inkscape:vp_y="0 : 1000 : 0"
       inkscape:vp_x="0 : 0.5 : 1"
       sodipodi:type="inkscape:persp3d" />
    <inkscape:perspective
       id="perspective3765"
       inkscape:persp3d-origin="0.5 : 0.33333333 : 1"
       inkscape:vp_z="1 : 0.5 : 1"
       inkscape:vp_y="0 : 1000 : 0"
       inkscape:vp_x="0 : 0.5 : 1"
       sodipodi:type="inkscape:persp3d" />
    <inkscape:perspective
       id="perspective3801"
       inkscape:persp3d-origin="0.5 : 0.33333333 : 1"
       inkscape:vp_z="1 : 0.5 : 1"
       inkscape:vp_y="0 : 1000 : 0"
       inkscape:vp_x="0 : 0.5 : 1"
       sodipodi:type="inkscape:persp3d" />
    <inkscape:perspective
       id="perspective2863"
       inkscape:persp3d-origin="0.5 : 0.33333333 : 1"
       inkscape:vp_z="1 : 0.5 : 1"
       inkscape:vp_y="0 : 1000 : 0"
       inkscape:vp_x="0 : 0.5 : 1"
       sodipodi:type="inkscape:persp3d" />
    <inkscape:perspective
       id="perspective3859"
       inkscape:persp3d-origin="0.5 : 0.33333333 : 1"
       inkscape:vp_z="1 : 0.5 : 1"
       inkscape:vp_y="0 : 1000 : 0"
       inkscape:vp_x="0 : 0.5 : 1"
       sodipodi:type="inkscape:persp3d" />
    <inkscape:perspective
       id="perspective3964"
       inkscape:persp3d-origin="0.5 : 0.33333333 : 1"
       inkscape:vp_z="1 : 0.5 : 1"
       inkscape:vp_y="0 : 1000 : 0"
       inkscape:vp_x="0 : 0.5 : 1"
       sodipodi:type="inkscape:persp3d" />
    <inkscape:perspective
       id="perspective3988"
       inkscape:persp3d-origin="0.5 : 0.33333333 : 1"
       inkscape:vp_z="1 : 0.5 : 1"
       inkscape:vp_y="0 : 1000 : 0"
       inkscape:vp_x="0 : 0.5 : 1"
       sodipodi:type="inkscape:persp3d" />
    <inkscape:perspective
       id="perspective2879-7"
       inkscape:persp3d-origin="0.5 : 0.33333333 : 1"
       inkscape:vp_z="1 : 0.5 : 1"
       inkscape:vp_y="0 : 1000 : 0"
       inkscape:vp_x="0 : 0.5 : 1"
       sodipodi:type="inkscape:persp3d" />
    <inkscape:perspective
       id="perspective4031"
       inkscape:persp3d-origin="0.5 : 0.33333333 : 1"
       inkscape:vp_z="1 : 0.5 : 1"
       inkscape:vp_y="0 : 1000 : 0"
       inkscape:vp_x="0 : 0.5 : 1"
       sodipodi:type="inkscape:persp3d" />
    <inkscape:perspective
       id="perspective4047"
       inkscape:persp3d-origin="0.5 : 0.33333333 : 1"
       inkscape:vp_z="1 : 0.5 : 1"
       inkscape:vp_y="0 : 1000 : 0"
       inkscape:vp_x="0 : 0.5 : 1"
       sodipodi:type="inkscape:persp3d" />
    <inkscape:perspective
       id="perspective4063"
       inkscape:persp3d-origin="0.5 : 0.33333333 : 1"
       inkscape:vp_z="1 : 0.5 : 1"
       inkscape:vp_y="0 : 1000 : 0"
       inkscape:vp_x="0 : 0.5 : 1"
       sodipodi:type="inkscape:persp3d" />
    <inkscape:perspective
       id="perspective4079"
       inkscape:persp3d-origin="0.5 : 0.33333333 : 1"
       inkscape:vp_z="1 : 0.5 : 1"
       inkscape:vp_y="0 : 1000 : 0"
       inkscape:vp_x="0 : 0.5 : 1"
       sodipodi:type="inkscape:persp3d" />
    <inkscape:perspective
       id="perspective4097"
       inkscape:persp3d-origin="0.5 : 0.33333333 : 1"
       inkscape:vp_z="1 : 0.5 : 1"
       inkscape:vp_y="0 : 1000 : 0"
       inkscape:vp_x="0 : 0.5 : 1"
       sodipodi:type="inkscape:persp3d" />
    <inkscape:perspective
       id="perspective4115"
       inkscape:persp3d-origin="0.5 : 0.33333333 : 1"
       inkscape:vp_z="1 : 0.5 : 1"
       inkscape:vp_y="0 : 1000 : 0"
       inkscape:vp_x="0 : 0.5 : 1"
       sodipodi:type="inkscape:persp3d" />
    <inkscape:perspective
       id="perspective4129"
       inkscape:persp3d-origin="0.5 : 0.33333333 : 1"
       inkscape:vp_z="1 : 0.5 : 1"
       inkscape:vp_y="0 : 1000 : 0"
       inkscape:vp_x="0 : 0.5 : 1"
       sodipodi:type="inkscape:persp3d" />
    <inkscape:perspective
       id="perspective4153"
       inkscape:persp3d-origin="0.5 : 0.33333333 : 1"
       inkscape:vp_z="1 : 0.5 : 1"
       inkscape:vp_y="0 : 1000 : 0"
       inkscape:vp_x="0 : 0.5 : 1"
       sodipodi:type="inkscape:persp3d" />
    <inkscape:perspective
       id="perspective4179"
       inkscape:persp3d-origin="0.5 : 0.33333333 : 1"
       inkscape:vp_z="1 : 0.5 : 1"
       inkscape:vp_y="0 : 1000 : 0"
       inkscape:vp_x="0 : 0.5 : 1"
       sodipodi:type="inkscape:persp3d" />
    <inkscape:perspective
       id="perspective4195"
       inkscape:persp3d-origin="0.5 : 0.33333333 : 1"
       inkscape:vp_z="1 : 0.5 : 1"
       inkscape:vp_y="0 : 1000 : 0"
       inkscape:vp_x="0 : 0.5 : 1"
       sodipodi:type="inkscape:persp3d" />
    <inkscape:perspective
       id="perspective4213"
       inkscape:persp3d-origin="0.5 : 0.33333333 : 1"
       inkscape:vp_z="1 : 0.5 : 1"
       inkscape:vp_y="0 : 1000 : 0"
       inkscape:vp_x="0 : 0.5 : 1"
       sodipodi:type="inkscape:persp3d" />
    <inkscape:perspective
       id="perspective4267"
       inkscape:persp3d-origin="0.5 : 0.33333333 : 1"
       inkscape:vp_z="1 : 0.5 : 1"
       inkscape:vp_y="0 : 1000 : 0"
       inkscape:vp_x="0 : 0.5 : 1"
       sodipodi:type="inkscape:persp3d" />
    <inkscape:perspective
       id="perspective4283"
       inkscape:persp3d-origin="0.5 : 0.33333333 : 1"
       inkscape:vp_z="1 : 0.5 : 1"
       inkscape:vp_y="0 : 1000 : 0"
       inkscape:vp_x="0 : 0.5 : 1"
       sodipodi:type="inkscape:persp3d" />
    <inkscape:perspective
       id="perspective4314"
       inkscape:persp3d-origin="0.5 : 0.33333333 : 1"
       inkscape:vp_z="1 : 0.5 : 1"
       inkscape:vp_y="0 : 1000 : 0"
       inkscape:vp_x="0 : 0.5 : 1"
       sodipodi:type="inkscape:persp3d" />
    <inkscape:perspective
       id="perspective4330"
       inkscape:persp3d-origin="0.5 : 0.33333333 : 1"
       inkscape:vp_z="1 : 0.5 : 1"
       inkscape:vp_y="0 : 1000 : 0"
       inkscape:vp_x="0 : 0.5 : 1"
       sodipodi:type="inkscape:persp3d" />
    <inkscape:perspective
       id="perspective4346"
       inkscape:persp3d-origin="0.5 : 0.33333333 : 1"
       inkscape:vp_z="1 : 0.5 : 1"
       inkscape:vp_y="0 : 1000 : 0"
       inkscape:vp_x="0 : 0.5 : 1"
       sodipodi:type="inkscape:persp3d" />
    <inkscape:perspective
       id="perspective3742"
       inkscape:persp3d-origin="0.5 : 0.33333333 : 1"
       inkscape:vp_z="1 : 0.5 : 1"
       inkscape:vp_y="0 : 1000 : 0"
       inkscape:vp_x="0 : 0.5 : 1"
       sodipodi:type="inkscape:persp3d" />
    <inkscape:perspective
       id="perspective3776"
       inkscape:persp3d-origin="0.5 : 0.33333333 : 1"
       inkscape:vp_z="1 : 0.5 : 1"
       inkscape:vp_y="0 : 1000 : 0"
       inkscape:vp_x="0 : 0.5 : 1"
       sodipodi:type="inkscape:persp3d" />
    <inkscape:perspective
       id="perspective3792"
       inkscape:persp3d-origin="0.5 : 0.33333333 : 1"
       inkscape:vp_z="1 : 0.5 : 1"
       inkscape:vp_y="0 : 1000 : 0"
       inkscape:vp_x="0 : 0.5 : 1"
       sodipodi:type="inkscape:persp3d" />
    <inkscape:perspective
       id="perspective3808"
       inkscape:persp3d-origin="0.5 : 0.33333333 : 1"
       inkscape:vp_z="1 : 0.5 : 1"
       inkscape:vp_y="0 : 1000 : 0"
       inkscape:vp_x="0 : 0.5 : 1"
       sodipodi:type="inkscape:persp3d" />
    <inkscape:perspective
       id="perspective3824"
       inkscape:persp3d-origin="0.5 : 0.33333333 : 1"
       inkscape:vp_z="1 : 0.5 : 1"
       inkscape:vp_y="0 : 1000 : 0"
       inkscape:vp_x="0 : 0.5 : 1"
       sodipodi:type="inkscape:persp3d" />
    <inkscape:perspective
       id="perspective4354"
       inkscape:persp3d-origin="0.5 : 0.33333333 : 1"
       inkscape:vp_z="1 : 0.5 : 1"
       inkscape:vp_y="0 : 1000 : 0"
       inkscape:vp_x="0 : 0.5 : 1"
       sodipodi:type="inkscape:persp3d" />
    <inkscape:perspective
       id="perspective4395"
       inkscape:persp3d-origin="0.5 : 0.33333333 : 1"
       inkscape:vp_z="1 : 0.5 : 1"
       inkscape:vp_y="0 : 1000 : 0"
       inkscape:vp_x="0 : 0.5 : 1"
       sodipodi:type="inkscape:persp3d" />
    <inkscape:perspective
       id="perspective4435"
       inkscape:persp3d-origin="0.5 : 0.33333333 : 1"
       inkscape:vp_z="1 : 0.5 : 1"
       inkscape:vp_y="0 : 1000 : 0"
       inkscape:vp_x="0 : 0.5 : 1"
       sodipodi:type="inkscape:persp3d" />
    <inkscape:perspective
       id="perspective4460"
       inkscape:persp3d-origin="0.5 : 0.33333333 : 1"
       inkscape:vp_z="1 : 0.5 : 1"
       inkscape:vp_y="0 : 1000 : 0"
       inkscape:vp_x="0 : 0.5 : 1"
       sodipodi:type="inkscape:persp3d" />
    <inkscape:perspective
       id="perspective4479"
       inkscape:persp3d-origin="0.5 : 0.33333333 : 1"
       inkscape:vp_z="1 : 0.5 : 1"
       inkscape:vp_y="0 : 1000 : 0"
       inkscape:vp_x="0 : 0.5 : 1"
       sodipodi:type="inkscape:persp3d" />
    <inkscape:perspective
       id="perspective4495"
       inkscape:persp3d-origin="0.5 : 0.33333333 : 1"
       inkscape:vp_z="1 : 0.5 : 1"
       inkscape:vp_y="0 : 1000 : 0"
       inkscape:vp_x="0 : 0.5 : 1"
       sodipodi:type="inkscape:persp3d" />
    <inkscape:perspective
       id="perspective4511"
       inkscape:persp3d-origin="0.5 : 0.33333333 : 1"
       inkscape:vp_z="1 : 0.5 : 1"
       inkscape:vp_y="0 : 1000 : 0"
       inkscape:vp_x="0 : 0.5 : 1"
       sodipodi:type="inkscape:persp3d" />
    <inkscape:perspective
       id="perspective4527"
       inkscape:persp3d-origin="0.5 : 0.33333333 : 1"
       inkscape:vp_z="1 : 0.5 : 1"
       inkscape:vp_y="0 : 1000 : 0"
       inkscape:vp_x="0 : 0.5 : 1"
       sodipodi:type="inkscape:persp3d" />
    <inkscape:perspective
       id="perspective4543"
       inkscape:persp3d-origin="0.5 : 0.33333333 : 1"
       inkscape:vp_z="1 : 0.5 : 1"
       inkscape:vp_y="0 : 1000 : 0"
       inkscape:vp_x="0 : 0.5 : 1"
       sodipodi:type="inkscape:persp3d" />
    <inkscape:perspective
       id="perspective4559"
       inkscape:persp3d-origin="0.5 : 0.33333333 : 1"
       inkscape:vp_z="1 : 0.5 : 1"
       inkscape:vp_y="0 : 1000 : 0"
       inkscape:vp_x="0 : 0.5 : 1"
       sodipodi:type="inkscape:persp3d" />
    <inkscape:perspective
       id="perspective4575"
       inkscape:persp3d-origin="0.5 : 0.33333333 : 1"
       inkscape:vp_z="1 : 0.5 : 1"
       inkscape:vp_y="0 : 1000 : 0"
       inkscape:vp_x="0 : 0.5 : 1"
       sodipodi:type="inkscape:persp3d" />
    <inkscape:perspective
       id="perspective4591"
       inkscape:persp3d-origin="0.5 : 0.33333333 : 1"
       inkscape:vp_z="1 : 0.5 : 1"
       inkscape:vp_y="0 : 1000 : 0"
       inkscape:vp_x="0 : 0.5 : 1"
       sodipodi:type="inkscape:persp3d" />
    <inkscape:perspective
       id="perspective4607"
       inkscape:persp3d-origin="0.5 : 0.33333333 : 1"
       inkscape:vp_z="1 : 0.5 : 1"
       inkscape:vp_y="0 : 1000 : 0"
       inkscape:vp_x="0 : 0.5 : 1"
       sodipodi:type="inkscape:persp3d" />
    <inkscape:perspective
       id="perspective4629"
       inkscape:persp3d-origin="0.5 : 0.33333333 : 1"
       inkscape:vp_z="1 : 0.5 : 1"
       inkscape:vp_y="0 : 1000 : 0"
       inkscape:vp_x="0 : 0.5 : 1"
       sodipodi:type="inkscape:persp3d" />
    <inkscape:perspective
       id="perspective4674"
       inkscape:persp3d-origin="0.5 : 0.33333333 : 1"
       inkscape:vp_z="1 : 0.5 : 1"
       inkscape:vp_y="0 : 1000 : 0"
       inkscape:vp_x="0 : 0.5 : 1"
       sodipodi:type="inkscape:persp3d" />
    <inkscape:perspective
       id="perspective4690"
       inkscape:persp3d-origin="0.5 : 0.33333333 : 1"
       inkscape:vp_z="1 : 0.5 : 1"
       inkscape:vp_y="0 : 1000 : 0"
       inkscape:vp_x="0 : 0.5 : 1"
       sodipodi:type="inkscape:persp3d" />
    <inkscape:perspective
       id="perspective4735"
       inkscape:persp3d-origin="0.5 : 0.33333333 : 1"
       inkscape:vp_z="1 : 0.5 : 1"
       inkscape:vp_y="0 : 1000 : 0"
       inkscape:vp_x="0 : 0.5 : 1"
       sodipodi:type="inkscape:persp3d" />
    <inkscape:perspective
       id="perspective4751"
       inkscape:persp3d-origin="0.5 : 0.33333333 : 1"
       inkscape:vp_z="1 : 0.5 : 1"
       inkscape:vp_y="0 : 1000 : 0"
       inkscape:vp_x="0 : 0.5 : 1"
       sodipodi:type="inkscape:persp3d" />
    <inkscape:perspective
       id="perspective4767"
       inkscape:persp3d-origin="0.5 : 0.33333333 : 1"
       inkscape:vp_z="1 : 0.5 : 1"
       inkscape:vp_y="0 : 1000 : 0"
       inkscape:vp_x="0 : 0.5 : 1"
       sodipodi:type="inkscape:persp3d" />
    <inkscape:perspective
       id="perspective4787"
       inkscape:persp3d-origin="0.5 : 0.33333333 : 1"
       inkscape:vp_z="1 : 0.5 : 1"
       inkscape:vp_y="0 : 1000 : 0"
       inkscape:vp_x="0 : 0.5 : 1"
       sodipodi:type="inkscape:persp3d" />
    <inkscape:perspective
       id="perspective4813"
       inkscape:persp3d-origin="0.5 : 0.33333333 : 1"
       inkscape:vp_z="1 : 0.5 : 1"
       inkscape:vp_y="0 : 1000 : 0"
       inkscape:vp_x="0 : 0.5 : 1"
       sodipodi:type="inkscape:persp3d" />
    <inkscape:perspective
       id="perspective4905"
       inkscape:persp3d-origin="0.5 : 0.33333333 : 1"
       inkscape:vp_z="1 : 0.5 : 1"
       inkscape:vp_y="0 : 1000 : 0"
       inkscape:vp_x="0 : 0.5 : 1"
       sodipodi:type="inkscape:persp3d" />
    <inkscape:perspective
       id="perspective2877"
       inkscape:persp3d-origin="0.5 : 0.33333333 : 1"
       inkscape:vp_z="1 : 0.5 : 1"
       inkscape:vp_y="0 : 1000 : 0"
       inkscape:vp_x="0 : 0.5 : 1"
       sodipodi:type="inkscape:persp3d" />
    <inkscape:perspective
       id="perspective2893"
       inkscape:persp3d-origin="0.5 : 0.33333333 : 1"
       inkscape:vp_z="1 : 0.5 : 1"
       inkscape:vp_y="0 : 1000 : 0"
       inkscape:vp_x="0 : 0.5 : 1"
       sodipodi:type="inkscape:persp3d" />
    <inkscape:perspective
       id="perspective3693"
       inkscape:persp3d-origin="0.5 : 0.33333333 : 1"
       inkscape:vp_z="1 : 0.5 : 1"
       inkscape:vp_y="0 : 1000 : 0"
       inkscape:vp_x="0 : 0.5 : 1"
       sodipodi:type="inkscape:persp3d" />
    <inkscape:perspective
       id="perspective3709"
       inkscape:persp3d-origin="0.5 : 0.33333333 : 1"
       inkscape:vp_z="1 : 0.5 : 1"
       inkscape:vp_y="0 : 1000 : 0"
       inkscape:vp_x="0 : 0.5 : 1"
       sodipodi:type="inkscape:persp3d" />
    <inkscape:perspective
       id="perspective3725"
       inkscape:persp3d-origin="0.5 : 0.33333333 : 1"
       inkscape:vp_z="1 : 0.5 : 1"
       inkscape:vp_y="0 : 1000 : 0"
       inkscape:vp_x="0 : 0.5 : 1"
       sodipodi:type="inkscape:persp3d" />
    <inkscape:perspective
       id="perspective3743"
       inkscape:persp3d-origin="0.5 : 0.33333333 : 1"
       inkscape:vp_z="1 : 0.5 : 1"
       inkscape:vp_y="0 : 1000 : 0"
       inkscape:vp_x="0 : 0.5 : 1"
       sodipodi:type="inkscape:persp3d" />
    <inkscape:perspective
       id="perspective3759"
       inkscape:persp3d-origin="0.5 : 0.33333333 : 1"
       inkscape:vp_z="1 : 0.5 : 1"
       inkscape:vp_y="0 : 1000 : 0"
       inkscape:vp_x="0 : 0.5 : 1"
       sodipodi:type="inkscape:persp3d" />
    <inkscape:perspective
       id="perspective3777"
       inkscape:persp3d-origin="0.5 : 0.33333333 : 1"
       inkscape:vp_z="1 : 0.5 : 1"
       inkscape:vp_y="0 : 1000 : 0"
       inkscape:vp_x="0 : 0.5 : 1"
       sodipodi:type="inkscape:persp3d" />
    <inkscape:perspective
       id="perspective3795"
       inkscape:persp3d-origin="0.5 : 0.33333333 : 1"
       inkscape:vp_z="1 : 0.5 : 1"
       inkscape:vp_y="0 : 1000 : 0"
       inkscape:vp_x="0 : 0.5 : 1"
       sodipodi:type="inkscape:persp3d" />
    <inkscape:perspective
       id="perspective3815"
       inkscape:persp3d-origin="0.5 : 0.33333333 : 1"
       inkscape:vp_z="1 : 0.5 : 1"
       inkscape:vp_y="0 : 1000 : 0"
       inkscape:vp_x="0 : 0.5 : 1"
       sodipodi:type="inkscape:persp3d" />
    <inkscape:perspective
       id="perspective3831"
       inkscape:persp3d-origin="0.5 : 0.33333333 : 1"
       inkscape:vp_z="1 : 0.5 : 1"
       inkscape:vp_y="0 : 1000 : 0"
       inkscape:vp_x="0 : 0.5 : 1"
       sodipodi:type="inkscape:persp3d" />
    <inkscape:perspective
       id="perspective4112"
       inkscape:persp3d-origin="0.5 : 0.33333333 : 1"
       inkscape:vp_z="1 : 0.5 : 1"
       inkscape:vp_y="0 : 1000 : 0"
       inkscape:vp_x="0 : 0.5 : 1"
       sodipodi:type="inkscape:persp3d" />
    <inkscape:perspective
       id="perspective5834"
       inkscape:persp3d-origin="0.5 : 0.33333333 : 1"
       inkscape:vp_z="1 : 0.5 : 1"
       inkscape:vp_y="0 : 1000 : 0"
       inkscape:vp_x="0 : 0.5 : 1"
       sodipodi:type="inkscape:persp3d" />
  </defs>
  <path
     style="fill:#ffffff;fill-opacity:1;stroke:none"
     d="m -1.5876605,-3.0202186 207.7153805,0 0,207.3483886 -207.7153805,0 0,-207.3483886 z"
     id="rect2881" />
  <path
     style="fill:none;stroke:#000000;stroke-width:2.99693632;stroke-miterlimit:4;stroke-opacity:1"
     d="m 21.467889,2.4041869 156.802311,0 c 10.23854,0 18.48111,8.3144241 18.48111,18.6422021 l 0,158.169131 c 0,10.32778 -8.24257,18.6422 -18.48111,18.6422 l -156.802311,0 c -10.23853,0 -18.4811103,-8.31442 -18.4811103,-18.6422 l 0,-158.169131 c 0,-10.327778 8.2425803,-18.6422021 18.4811103,-18.6422021 z"
     id="rect4614-9" />
  <path
     style="fill:#000000"
     d="m 117.15785,174.92043 c -0.90391,-1.08915 -0.20667,-3.1258 1.07011,-3.1258 2.0639,0 11.97878,-2.80325 16.64833,-4.707 6.03152,-2.45903 13.48261,-7.37664 16.84729,-11.11898 1.41544,-1.57431 3.40279,-4.54685 4.41634,-6.60566 1.64702,-3.34559 1.84216,-4.25336 1.83666,-8.54413 -0.006,-4.19038 -0.22729,-5.26653 -1.74524,-8.46302 -3.19553,-6.72918 -9.7481,-13.21394 -17.40459,-17.22445 l -2.81706,-1.47559 2.06636,1.88482 c 5.67939,5.18042 8.80208,12.34945 8.14905,18.70848 -0.83872,8.1671 -6.68677,15.1236 -16.85625,20.05119 -17.59132,8.52381 -42.037909,8.32983 -60.405108,-0.47931 -9.328424,-4.47404 -14.592436,-9.07941 -18.095108,-15.83103 -1.434882,-2.76582 -1.608503,-3.67383 -1.615948,-8.45117 -0.0073,-4.65557 0.190844,-5.77751 1.521609,-8.61766 0.904278,-1.92993 2.901905,-4.63722 4.884777,-6.62009 1.845153,-1.84515 3.209319,-3.35482 3.031484,-3.35482 -0.177841,0 -1.868918,0.8778 -3.757954,1.95066 -10.47552,5.94951 -15.343252,13.10425 -14.899128,21.89919 0.375467,7.43531 5.089004,14.13538 14.138377,20.09704 7.597308,5.00504 14.818388,7.58563 29.722292,10.6218 1.392065,0.28359 2.021356,0.74202 2.139982,1.55894 0.339428,2.33747 -0.985265,2.57022 -7.487077,1.3155 -20.02373,-3.86419 -35.008755,-13.31099 -40.653052,-25.62836 -2.031974,-4.43431 -2.480312,-11.12186 -1.042532,-15.55073 1.373631,-4.23127 2.767867,-6.38713 7.011811,-10.84218 4.02868,-4.22906 3.84736,-4.32885 -2.605244,-1.43377 -8.084761,3.62739 -15.054655,9.95017 -16.868376,15.30224 -0.552522,1.63043 -1.055575,4.61239 -1.117897,6.62659 -0.06232,2.01419 -0.138675,3.86916 -0.169676,4.12215 -0.031,0.25299 -0.738935,0.37976 -1.573188,0.28171 -1.201578,-0.14123 -1.623052,-0.58811 -2.02796,-2.15022 -0.59089,-2.27961 0.315166,-8.83614 1.551455,-11.22686 0.588777,-1.13857 0.789625,-3.85904 0.775764,-10.50769 -0.01029,-4.93425 0.285011,-13.78853 0.656216,-19.676179 0.371205,-5.887648 0.669505,-15.268447 0.662889,-20.846219 -0.01123,-9.472793 0.09562,-10.531426 1.620836,-16.057223 1.743526,-6.316744 2.755628,-12.257469 2.773753,-16.281083 0.02016,-4.474647 1.982977,-8.562914 6.114155,-12.734894 2.05709,-2.077406 4.66716,-4.148012 5.800155,-4.601347 1.918144,-0.76749 2.403651,-0.720211 7.050911,0.686627 2.745007,0.83098 5.299316,1.758855 5.676243,2.061944 0.376927,0.303089 1.010765,0.436738 1.408528,0.296996 0.397764,-0.139742 1.2818,-0.04773 1.964525,0.204474 0.755382,0.279042 2.475462,0.137096 4.393929,-0.362601 1.733932,-0.451633 3.655734,-0.821151 4.270669,-0.821151 0.614935,0 2.437391,-0.668552 4.049897,-1.485671 4.194124,-2.125324 13.38862,-3.195609 28.018333,-3.261472 7.803618,-0.03514 9.604198,0.116461 11.213938,0.944117 1.05471,0.542283 2.2197,0.98597 2.58888,0.98597 0.36918,0 1.13012,0.50707 1.69099,1.126822 1.22302,1.35142 1.85647,1.405966 3.11378,0.268122 1.06526,-0.964046 2.54353,-0.627617 3.05081,0.694308 0.35594,0.927582 -0.2374,1.751172 -6.2069,8.615563 -8.15413,9.376504 -18.543848,26.52838 -25.032088,41.324244 -3.50665,7.996609 -8.730104,22.810923 -8.222132,23.318893 0.156994,0.15699 1.686448,0.1104 3.39879,-0.10355 3.088035,-0.38582 3.118211,-0.40814 3.710841,-2.744339 4.484355,-17.677679 13.680834,-39.197924 22.516329,-52.689392 6.03775,-9.219417 12.60255,-16.993615 14.34999,-16.993615 0.8752,0 1.48861,0.411541 1.7254,1.15759 0.35786,1.127511 0.40207,1.120191 1.7013,-0.281705 1.49532,-1.613482 1.98813,-1.740322 2.96525,-0.763202 1.15901,1.159008 0.79613,2.040137 -3.50848,8.519267 -9.9587,14.989419 -17.99649,35.209137 -22.55776,56.745867 l -1.2782,6.035179 3.6581,0.37479 c 2.01195,0.20613 3.77074,0.26213 3.90843,0.12445 0.13768,-0.13768 0.71956,-3.760885 1.29308,-8.051567 2.81964,-21.094791 8.3455,-39.997382 15.8288,-54.146391 4.36811,-8.258975 5.5273,-9.799718 7.22399,-9.601811 2.1754,0.253746 2.05993,1.665789 -0.46289,5.660383 -9.25862,14.659994 -16.46193,38.321485 -19.4537,63.901661 -0.37902,3.240615 -0.79975,2.908945 4.86004,3.831235 l 2.0755,0.33821 0.31291,-2.41304 c 0.1721,-1.327165 0.58168,-4.948379 0.91017,-8.047141 1.87976,-17.732262 6.52799,-36.794922 12.29569,-50.425314 2.56618,-6.064481 6.97683,-14.184444 7.96546,-14.664348 2.87429,-1.395242 5.48238,-1.746892 10.56511,-1.424497 8.37572,0.531267 13.10785,2.672797 17.1938,7.781083 4.96766,6.210595 6.16544,10.166533 6.35371,20.984517 0.1,5.745348 0.38287,8.456703 1.04149,9.982454 0.49732,1.152086 0.90422,2.744321 0.90422,3.538297 0,0.793982 0.63384,2.949537 1.40853,4.790117 0.77469,1.840581 1.40853,4.337332 1.40853,5.548329 0,1.211001 0.34818,3.056771 0.77373,4.101713 0.42555,1.044936 0.9462,3.493268 1.15701,5.440722 0.35433,3.273516 0.25339,3.767853 -1.33715,6.547815 -0.94623,1.653837 -1.72042,3.515529 -1.72042,4.137084 0,0.621561 -0.36696,1.434659 -0.81546,1.806879 -0.44851,0.37223 -1.24391,1.79865 -1.76757,3.16981 -1.57557,4.12559 -0.51482,8.93602 4.94399,22.42061 0.99651,2.46162 1.08519,3.72256 0.85191,12.11334 -0.14322,5.15113 -0.45002,9.8231 -0.68178,10.38215 -0.28592,0.68967 -0.89637,0.96137 -1.8988,0.84512 l -1.4774,-0.17134 0,-5.36405 c 0,-4.92845 -0.1508,-5.67039 -1.85692,-9.13619 -3.55207,-7.21566 -12.2541,-13.96226 -24.16341,-18.73366 -8.92685,-3.57649 -9.40172,-3.61326 -5.19495,-0.40224 10.52645,8.03481 15.76313,18.61511 14.03173,28.34998 -2.53339,14.24392 -15.67111,24.97418 -36.86388,30.10863 -6.66225,1.61409 -6.7424,1.61995 -7.62368,0.55808 z m 0.22972,-20.25016 c 10.76465,-2.80378 19.52324,-8.50688 23.13534,-15.06441 1.3946,-2.5318 1.66745,-3.66683 1.67513,-6.96832 0.0117,-5.00893 -1.93767,-9.2467 -6.22594,-13.53496 -2.89841,-2.89841 -9.98022,-7.59296 -11.45411,-7.59296 -0.56058,0 -0.65257,1.34981 -0.41279,6.05667 0.1697,3.33117 0.46638,7.20044 0.65929,8.59837 0.29128,2.11077 0.13586,2.81489 -0.9167,4.15301 -2.31456,2.94248 -6.84051,3.92229 -11.21967,2.42893 -1.54847,-0.52806 -1.97194,-0.97495 -1.97194,-2.081 0,-1.38228 0.0716,-1.40519 3.84349,-1.22939 5.01845,0.23391 6.89652,-0.803 6.28279,-3.46882 -0.22551,-0.97956 -0.51799,-5.12112 -0.64995,-9.20346 l -0.23993,-7.42244 -2.60577,-0.88788 c -4.6301,-1.57763 -4.64959,-1.56096 -4.72535,4.04198 -0.0938,6.93857 -0.45573,8.31032 -2.19252,8.31032 l -1.40299,0 -0.28171,-7.32435 -0.2817,-7.32435 -3.56079,-0.47699 c -1.95844,-0.26235 -3.7291,-0.30869 -3.9348,-0.10299 -0.2057,0.20571 -0.76154,3.20924 -1.235205,6.67452 -0.848362,6.20658 -0.88424,6.30318 -2.406786,6.47909 -0.997058,0.11521 -1.663872,-0.12967 -1.878887,-0.68999 -0.316947,-0.82594 0.620423,-9.65531 1.246672,-11.74279 0.264448,-0.88148 -0.181667,-0.98597 -4.209517,-0.98597 l -4.505313,0 -0.656053,3.23962 c -0.360826,1.78179 -0.902427,4.42313 -1.203554,5.86966 -0.551461,2.64904 -1.451263,3.52397 -3.009281,2.92611 -1.075209,-0.4126 -1.087705,-3.32311 -0.03352,-7.80515 0.436705,-1.85671 0.712743,-3.45709 0.613414,-3.55642 -0.41497,-0.41497 -10.290754,2.27441 -13.862111,3.77493 -4.407928,1.85202 -10.354357,5.90686 -12.65938,8.63237 -0.860191,1.0171 -2.184804,3.19983 -2.943588,4.85051 -1.771044,3.85276 -1.61821,9.13484 0.383352,13.24898 3.661914,7.52695 14.224119,14.53412 26.835355,17.80311 7.339785,1.90256 10.733567,2.23318 20.822442,2.02853 8.07264,-0.16375 10.45885,-0.42372 15.18255,-1.65407 l 3e-5,0 z M 75.161267,142.22429 c -5.72582,-2.50466 -10.066899,-5.55895 -12.31824,-8.66683 -1.56652,-2.16252 -1.767044,-2.87248 -1.767044,-6.25627 0,-3.1826 0.237517,-4.15077 1.429172,-5.82559 2.059048,-2.89391 4.256865,-4.48073 5.610822,-4.051 1.7392,0.552 1.34813,2.31753 -1.04297,4.70863 -2.816398,2.8164 -3.203016,4.72151 -1.604027,7.90407 1.517565,3.02051 5.649557,6.05993 11.945932,8.78724 4.083211,1.76866 4.507291,2.09954 4.507291,3.51679 0,2.23947 -1.430411,2.21471 -6.760936,-0.11704 z m 18.87428,1.12937 c -0.464814,-0.12177 -2.036648,-0.3779 -3.492959,-0.56917 -2.001395,-0.26288 -2.737683,-0.63084 -3.015817,-1.50716 -0.681074,-2.14587 0.76389,-2.81144 4.559649,-2.10025 5.440007,1.01927 19.41057,0.33367 24.20388,-1.1878 9.77914,-3.10403 12.82901,-6.99619 9.71884,-12.40294 -1.21245,-2.10774 -1.22426,-2.24717 -0.27113,-3.20083 3.04504,-3.04672 7.11045,6.31513 4.73617,10.90648 -2.1826,4.22068 -7.4187,7.19248 -15.82885,8.98381 -3.71224,0.7907 -18.711509,1.57513 -20.609783,1.07786 z m 4.547338,-10.29443 c -3.700356,-1.88686 -5.377987,-5.76236 -3.49048,-8.06336 0.920209,-1.1218 1.312985,-1.25853 2.14746,-0.74755 0.595582,0.3647 1.029837,1.30407 1.041826,2.25366 0.01132,0.89557 0.210355,1.9354 0.442323,2.31073 0.674105,1.09073 4.126226,1.47359 6.927256,0.76828 2.95104,-0.74308 4.33165,-0.10684 4.04613,1.8646 -0.33485,2.31208 -7.65934,3.37547 -11.114515,1.61364 z m -16.41188,-2.35203 c -3.45983,-1.07967 -5.60121,-3.41096 -5.60121,-6.09796 0,-0.68284 -0.692663,-1.29209 -2.010984,-1.7688 -3.697241,-1.33694 -5.323691,-6.37072 -3.31407,-10.25689 1.554418,-3.00592 6.44289,-5.06847 7.219035,-3.04587 0.390985,1.01889 -0.119241,2.53535 -0.853045,2.53535 -1.207407,0 -3.294581,2.83005 -3.294581,4.46722 0,2.06265 2.452541,3.70292 4.131636,2.76325 1.689975,-0.94576 2.762152,0.45718 2.325334,3.04268 -0.526615,3.11702 0.728339,4.37554 4.363148,4.37554 1.516742,0 3.52394,-0.39623 4.460437,-0.88051 1.937882,-1.00211 3.312019,-0.36127 3.312019,1.5446 0,2.02052 -7.486029,4.3361 -10.737719,3.32139 z M 97.690396,99.490861 c 4.389494,-19.665636 6.572074,-27.030262 11.799574,-39.815085 3.0577,-7.478174 7.95845,-17.019564 11.86479,-23.099859 3.30852,-5.14977 2.128,-4.296604 -3.03627,2.194322 -11.84435,14.887071 -21.090829,34.019494 -28.128085,58.201429 -0.603881,2.075106 -1.022112,3.849852 -0.929403,3.943882 0.09271,0.094 1.965917,0.0868 4.162669,-0.0162 3.561768,-0.16687 4.023608,-0.31933 4.266725,-1.408531 l 0,4.2e-5 z"
     id="path5840"
     sodipodi:nodetypes="csssssscccssssssssssssssssssssssssssssssssssssssssssssssssssssssscccsssssscccssssssssssssssssssscccsssssccssssssssssscccscccccssssscccsssssssssscccssssssssccssssssssccssssssccsssssssssssccsssssscc" />
  <path
     style="fill:none;stroke:#0060a8;stroke-width:4.59999999999999960;stroke-linecap:round;stroke-linejoin:miter;stroke-opacity:1;stroke-miterlimit:4;stroke-dasharray:none"
     d="m 21.102037,140.87251 c -1.319094,-15.11061 8.484869,-24.71626 26.116383,-30.295 22.898621,-7.24529 34.005463,-6.88092 47.42735,-7.31259 19.51753,-0.62772 33.97286,3.14423 49.93452,7.93938 12.81723,3.85051 26.59103,9.67287 34.05577,23.19135 3.0035,5.43927 2.30517,11.11856 2.08931,14.62517"
     id="path5842"
     sodipodi:nodetypes="csssss" />
  <path
     style="fill:#0060a8;fill-opacity:1;stroke:#0060a8;stroke-width:0.6795882;stroke-linecap:round;stroke-linejoin:round;stroke-miterlimit:4;stroke-opacity:1;stroke-dasharray:none;stroke-dashoffset:0"
     d="m 117.43217,175.0662 c -0.54767,-0.56017 -0.71156,-1.26909 -0.47551,-2.05693 0.23121,-0.77172 0.66856,-1.02361 2.19912,-1.26654 3.00135,-0.47638 11.35747,-2.87268 14.94474,-4.28573 5.75451,-2.26675 12.34951,-6.3547 16.3313,-10.12306 2.26899,-2.14737 4.50275,-5.32103 6.09023,-8.65282 1.22079,-2.56218 1.39353,-3.38775 1.47531,-7.05102 0.0842,-3.77227 -0.1276,-5.47977 -0.93184,-7.51183 -2.36207,-5.96818 -7.26804,-11.7936 -13.73083,-16.30419 -1.98506,-1.38543 -7.09448,-4.29411 -7.25722,-4.13136 -0.031,0.031 0.71873,0.77931 1.66609,1.66287 4.55583,4.24902 7.43944,9.26485 8.24147,14.33548 1.08651,6.86912 -1.90739,13.89215 -8.15206,19.12295 -9.08008,7.60586 -23.97836,11.989 -39.478117,11.61464 -12.205309,-0.29478 -23.215567,-3.13688 -32.837935,-8.47653 -7.394867,-4.10355 -11.76057,-8.38514 -14.807837,-14.52252 -1.14955,-2.31527 -1.401658,-3.7306 -1.402353,-7.8728 -7.24e-4,-4.31597 0.344883,-6.15323 1.64103,-8.72374 1.16299,-2.30644 2.481877,-4.02546 5.806455,-7.56804 1.130535,-1.20467 1.981054,-2.21513 1.890046,-2.24547 -0.454646,-0.15154 -6.128103,3.13152 -8.673133,5.0189 -2.000448,1.48351 -5.19527,4.65204 -6.329636,6.27753 -1.747569,2.50419 -2.931686,5.30598 -3.414231,8.07855 -0.296358,1.70279 -0.295058,4.94514 0.0027,6.66572 1.049605,6.06566 5.071758,11.60508 12.031111,16.56959 7.900476,5.63587 15.036186,8.42278 29.467217,11.50868 2.865705,0.6128 3.514087,0.83725 3.924013,1.35838 0.318942,0.40547 0.400476,1.47996 0.14809,1.95155 -0.481408,0.89952 -3.055699,0.77028 -8.721962,-0.43789 -18.913067,-4.03267 -32.846601,-12.81902 -38.616339,-24.3511 -1.563595,-3.12519 -2.146408,-5.57543 -2.265292,-9.52364 -0.128711,-4.2746 0.372875,-6.71078 2.105046,-10.22412 1.142945,-2.31822 2.081405,-3.57968 5.34074,-7.17893 1.368081,-1.51075 2.620382,-2.922 2.782893,-3.13609 0.245365,-0.32325 0.827665,-0.55249 3.433681,-1.35179 11.298009,-3.46525 20.620593,-5.30523 30.619598,-6.04331 l 1.108024,-0.0818 -2.14218,0.56821 c -2.943843,0.78085 -6.923382,1.97234 -8.426607,2.52296 -4.175848,1.52958 -10.14106,5.2973 -13.066356,8.2529 -1.301227,1.31471 -2.252163,2.67883 -3.310459,4.74887 -0.92692,1.81306 -1.308909,2.95671 -1.57322,4.71011 -0.343253,2.27708 -0.224709,4.32704 0.389728,6.73947 1.067959,4.19309 4.283426,8.38699 9.261649,12.07988 4.055551,3.00844 9.455925,5.73513 14.804689,7.475 8.072276,2.62579 13.678121,3.39506 23.342377,3.2032 8.41293,-0.16702 11.56377,-0.4669 15.80546,-1.50427 7.17624,-1.75507 13.71959,-4.90637 18.50404,-8.91162 3.16933,-2.65317 5.66308,-6.08036 6.61568,-9.09198 0.45889,-1.4508 0.58029,-5.04069 0.23829,-7.04703 -0.99461,-5.83498 -4.665,-10.58044 -11.94704,-15.44639 -2.13634,-1.42752 -4.1389,-2.55734 -5.03975,-2.84336 -0.82766,-0.26278 -0.99425,-0.0328 -1.09019,1.50503 -0.0865,1.38672 0.15437,6.41129 0.49093,10.23998 0.44693,5.08428 0.44686,4.98189 0.004,5.88709 -0.52263,1.06821 -2.13973,2.58991 -3.38268,3.18312 -1.55669,0.74293 -2.70331,0.9431 -4.90799,0.8568 -2.37521,-0.093 -4.12371,-0.57714 -4.90469,-1.35812 -0.42245,-0.42246 -0.48769,-0.58708 -0.48769,-1.2306 0,-1.22998 0.0768,-1.26041 2.94812,-1.16869 6.02099,0.19232 7.55824,-0.60257 7.11812,-3.68068 -0.25157,-1.75943 -0.43135,-4.54279 -0.60925,-9.43254 -0.0887,-2.43765 -0.19723,-5.03568 -0.24119,-5.77341 l -0.0799,-1.34132 -2.61043,-0.84377 c -1.43574,-0.46408 -2.89671,-0.85213 -3.2466,-0.86234 -1.29091,-0.0377 -1.44219,0.50341 -1.57824,5.64451 -0.14014,5.29596 -0.44306,6.95525 -1.34474,7.36608 -0.20338,0.0927 -0.75516,0.16848 -1.22618,0.16848 l -0.8564,0 -0.0916,-2.17911 c -0.0504,-1.19851 -0.17347,-4.46306 -0.27359,-7.25455 -0.17535,-4.88902 -0.19319,-5.08038 -0.48552,-5.20996 -0.74164,-0.32874 6.08875,0.38971 10.03807,1.05585 6.87167,1.15906 14.95077,3.11871 23.66931,5.74117 l 2.98618,0.89822 2.7738,2.25537 c 4.43308,3.60451 7.00964,6.31589 9.39228,9.88374 2.21225,3.3127 3.70827,6.81333 4.41777,10.33747 0.48936,2.43063 0.48817,6.17089 -0.003,8.479 -1.77146,8.32967 -6.6615,15.05593 -14.94511,20.55699 -4.51233,2.9966 -9.92279,5.48344 -16.25102,7.46955 -2.09798,0.65845 -7.48022,2.04849 -9.62088,2.48473 -2.10125,0.4282 -2.65025,0.39785 -3.2129,-0.17764 l 0,0 z"
     id="path6354" />
  <path
     style="fill:#0060a8;fill-opacity:1;stroke:#0060a8;stroke-width:0.6795882;stroke-linecap:round;stroke-linejoin:round;stroke-miterlimit:4;stroke-opacity:1;stroke-dasharray:none;stroke-dashoffset:0"
     d="m 79.07523,143.64079 c -1.913518,-0.55732 -5.809464,-2.28287 -8.125511,-3.59887 -4.016814,-2.28238 -6.535324,-4.4074 -8.421697,-7.10588 -1.067217,-1.52667 -1.283041,-2.30082 -1.365431,-4.89771 -0.121689,-3.83562 0.254483,-5.11896 2.21472,-7.55567 2.099771,-2.61017 4.225225,-3.64428 5.293856,-2.57565 0.83205,0.83206 0.443665,1.77936 -1.753108,4.276 -1.857037,2.11052 -2.304554,2.95201 -2.367557,4.45183 -0.121145,2.88392 2.08257,5.99618 6.145929,8.67974 2.006149,1.32493 3.862952,2.30846 7.196907,3.81215 3.514291,1.58503 3.915019,1.9196 3.915019,3.26869 0,1.46015 -0.77821,1.81475 -2.733127,1.24537 l 0,0 z"
     id="path6356" />
  <path
     style="fill:#0060a8;fill-opacity:1;stroke:#0060a8;stroke-width:0.6795882;stroke-linecap:round;stroke-linejoin:round;stroke-miterlimit:4;stroke-opacity:1;stroke-dasharray:none;stroke-dashoffset:0"
     d="m 82.768645,130.77575 c -2.225325,-0.47267 -4.691015,-2.18662 -5.543507,-3.85341 -0.147696,-0.28877 -0.346816,-0.95359 -0.442489,-1.47737 -0.300064,-1.64274 -0.447104,-1.82476 -2.143227,-2.6531 -2.278778,-1.11288 -3.338207,-2.38974 -3.932401,-4.73946 -0.517098,-2.04484 -0.179936,-4.20111 0.926509,-5.92536 1.307754,-2.03796 4.654726,-3.76517 6.114323,-3.15531 0.644532,0.2693 0.917747,1.05534 0.677254,1.94846 -0.185337,0.68829 -0.494079,1.00543 -1.122715,1.15325 -0.611867,0.14388 -1.996798,1.60331 -2.502696,2.63733 -0.817259,1.67041 -0.623096,3.00228 0.593844,4.07347 1.030543,0.90712 1.718094,0.99166 3.57719,0.43985 0.713521,-0.21178 0.938,-0.12883 1.426715,0.52722 0.275176,0.3694 0.302888,0.61842 0.302888,2.7217 0,2.15941 0.02287,2.35189 0.340064,2.86202 0.230366,0.37048 0.611626,0.67904 1.181893,0.95653 0.786391,0.38265 0.968305,0.40987 2.762403,0.41338 2.067455,0.004 2.858672,-0.13488 4.68587,-0.82276 1.284217,-0.48347 1.720183,-0.52383 2.318145,-0.21461 0.399948,0.20682 0.64559,0.62605 0.82861,1.41416 0.354682,1.52731 -3.931983,3.48365 -8.201966,3.7432 -0.690669,0.042 -1.521687,0.0198 -1.846707,-0.0492 l 0,0 z"
     id="path6358" />
  <path
     style="fill:#0060a8;fill-opacity:1;stroke:#0060a8;stroke-width:0.6795882;stroke-linecap:round;stroke-linejoin:round;stroke-miterlimit:4;stroke-opacity:1;stroke-dasharray:none;stroke-dashoffset:0"
     d="m 83.290816,117.34947 c -0.200337,-0.0588 -0.496659,-0.33354 -0.658492,-0.61064 -0.515913,-0.88336 -0.394039,-2.84057 0.442713,-7.10963 l 0.712566,-3.63548 1.925115,-0.0856 c 1.058814,-0.0471 1.943596,-0.0671 1.966184,-0.0446 0.05345,0.0534 -1.529291,7.87331 -1.825116,9.01737 -0.525308,2.03153 -1.348742,2.82463 -2.56297,2.46855 z"
     id="path6360" />
  <path
     style="fill:#0060a8;fill-opacity:1;stroke:#0060a8;stroke-width:0.6795882;stroke-linecap:round;stroke-linejoin:round;stroke-miterlimit:4;stroke-opacity:1;stroke-dasharray:none;stroke-dashoffset:0"
     d="m 95.789386,118.35087 c -0.345604,-0.27186 -0.389208,-0.40856 -0.38876,-1.21883 0.0016,-2.83551 1.12461,-11.22295 1.541202,-11.51047 0.08649,-0.0597 0.995164,-0.10956 2.019264,-0.1108 l 1.861998,-0.002 -0.19282,0.74334 c -0.10605,0.40884 -0.43268,2.28694 -0.725851,4.17356 -1.188166,7.6462 -1.229939,7.82197 -1.921379,8.08485 -0.677453,0.25757 -1.763933,0.17862 -2.193654,-0.15939 z"
     id="path6362" />
  <path
     style="fill:#0060a8;fill-opacity:1;stroke:#0060a8;stroke-width:0.6795882;stroke-linecap:round;stroke-linejoin:round;stroke-miterlimit:4;stroke-opacity:1;stroke-dasharray:none;stroke-dashoffset:0"
     d="m 100.71864,133.65178 c -1.514772,-0.2889 -3.066991,-1.1041 -4.200811,-2.2062 -1.103962,-1.07307 -1.615157,-1.9104 -1.939695,-3.1772 -0.377288,-1.4727 -0.05181,-2.66717 0.993712,-3.64678 0.664081,-0.62222 0.844148,-0.65955 1.484961,-0.30783 0.724352,0.39758 0.987686,0.99925 1.220336,2.78823 0.166394,1.27949 0.247536,1.53417 0.609018,1.91147 1.038009,1.08345 3.416489,1.24609 7.520339,0.51422 1.3915,-0.24815 2.2858,-0.13229 2.81481,0.3647 0.29346,0.27569 0.36152,0.48396 0.36152,1.10628 0,0.6382 -0.0681,0.83553 -0.40627,1.17773 -0.49238,0.4982 -1.67381,1.04213 -2.89799,1.33424 -1.34892,0.32188 -4.22896,0.39499 -5.55993,0.14114 z"
     id="path6364" />
  <path
     style="fill:#0060a8;fill-opacity:1;stroke:#0060a8;stroke-width:0.6795882;stroke-linecap:round;stroke-linejoin:round;stroke-miterlimit:4;stroke-opacity:1;stroke-dasharray:none;stroke-dashoffset:0"
     d="m 94.809175,143.37128 c -1.871773,-0.21083 -5.810767,-0.93804 -6.275508,-1.15857 -0.389728,-0.18494 -0.640281,-0.4462 -0.831344,-0.86688 -0.926417,-2.03975 0.56393,-2.7122 4.59533,-2.07344 4.436016,0.70287 14.558797,0.47195 20.387397,-0.46508 4.94322,-0.79468 10.12441,-2.95954 12.46004,-5.20617 1.43823,-1.38343 2.03082,-2.60034 2.03582,-4.18065 0.004,-1.32838 -0.30952,-2.35813 -1.28517,-4.21852 -0.44031,-0.83958 -0.80057,-1.63659 -0.80057,-1.77112 0,-0.13453 0.30034,-0.53237 0.66741,-0.88409 0.77659,-0.74411 1.41141,-0.83971 2.22733,-0.33545 1.91925,1.18616 3.47443,5.75118 3.02305,8.87371 -0.60012,4.15143 -4.84402,7.72199 -11.75338,9.88861 -2.28655,0.717 -4.80397,1.29059 -6.72202,1.53158 -4.54227,0.5707 -15.56845,1.10935 -17.728385,0.86607 z"
     id="path6366" />
  <path
     style="fill:#0060a8;fill-opacity:1;stroke:#0060a8;stroke-width:0.6795882;stroke-linecap:round;stroke-linejoin:round;stroke-miterlimit:4;stroke-opacity:1;stroke-dasharray:none;stroke-dashoffset:0"
     d="m 84.884027,100.89204 c 0.24914,-0.27153 0.599511,-1.314466 1.284941,-3.824828 4.323665,-15.835278 11.819328,-33.754497 19.675942,-47.037535 2.49558,-4.219238 7.17326,-10.872701 10.53969,-14.991514 1.77513,-2.17186 4.44559,-4.859025 5.34954,-5.383013 0.66648,-0.386329 0.73328,-0.396782 1.32963,-0.208068 0.54185,0.171464 0.67852,0.304733 0.99725,0.972362 0.20313,0.425515 0.45557,0.806897 0.56096,0.847515 0.10626,0.04095 0.59986,-0.357609 1.10802,-0.89467 0.98629,-1.04238 1.67047,-1.539062 2.12004,-1.539062 0.35778,0 1.3578,0.961136 1.47154,1.414317 0.20105,0.801056 -0.40794,1.976724 -3.52028,6.795888 -1.25559,1.944169 -2.91473,4.598556 -3.68698,5.898638 -7.45719,12.554139 -13.62751,28.108405 -17.83247,44.95249 -0.7439,2.979905 -2.82453,12.36937 -2.82453,12.74656 0,0.0676 0.28255,0.14327 0.62788,0.16826 0.34534,0.025 -1.06476,0.0459 -3.133554,0.0464 -2.068789,5.9e-4 -3.438859,-0.0451 -3.044601,-0.10155 1.028839,-0.14716 1.513457,-0.38601 1.695186,-0.835463 0.08753,-0.21648 0.520147,-1.989156 0.96137,-3.939279 3.554769,-15.711401 5.943389,-23.722147 10.291309,-34.514186 3.26154,-8.095491 7.21922,-15.992646 11.94838,-23.841759 2.42996,-4.033076 2.57699,-4.30498 2.39026,-4.420385 -0.3416,-0.211117 -4.90878,5.287639 -8.39894,10.112087 -6.17703,8.538488 -11.97507,19.218008 -16.841609,31.020836 -2.884233,6.995143 -6.728705,18.299665 -8.312878,24.443699 -0.519715,2.01566 -0.52736,2.10568 -0.186399,2.19478 0.142197,0.0372 -0.179868,0.0753 -0.7157,0.0847 -0.535832,0.009 -1.699257,0.0597 -2.58539,0.11162 l -1.61115,0.0945 0.342543,-0.37333 z"
     id="path6372" />
  <path
     style="fill:#0060a8;fill-opacity:1;stroke:#0060a8;stroke-width:0.6795882;stroke-linecap:round;stroke-linejoin:round;stroke-miterlimit:4;stroke-opacity:1;stroke-dasharray:none;stroke-dashoffset:0"
     d="m 110.9454,101.44528 c -0.91632,-0.0989 -1.69381,-0.20765 -1.72774,-0.24159 -0.0339,-0.0339 3.9e-4,-0.32577 0.0763,-0.64851 0.0759,-0.32273 0.40207,-2.381794 0.72484,-4.575682 1.57241,-10.687996 2.42926,-15.571931 3.77124,-21.495671 3.46094,-15.277261 7.64728,-26.699637 14.10501,-38.485376 2.40434,-4.388065 3.64635,-6.091733 4.69276,-6.437078 0.63365,-0.209125 1.54351,-0.05264 1.96226,0.337478 0.27383,0.255114 0.31807,0.422661 0.26299,0.995897 -0.0792,0.824064 -0.61726,1.904605 -2.59458,5.210282 -1.53612,2.568074 -3.87986,7.082166 -5.19901,10.013376 -5.65509,12.56593 -10.24326,29.274094 -12.69821,46.241546 -0.73777,5.099066 -1.07548,8.021858 -1.00288,8.679528 0.0807,0.73061 0.29531,0.6939 -2.37297,0.4058 l 0,0 z"
     id="path6374" />
  <path
     style="fill:none;stroke:#0060a8;stroke-width:4.20000000000000020;stroke-linecap:round;stroke-linejoin:miter;stroke-opacity:1;stroke-miterlimit:4;stroke-dasharray:none"
     d="m 122.01574,103.05599 c 3.66519,-27.060808 6.78513,-52.063726 20.26632,-73.125873"
     id="path6378"
     sodipodi:nodetypes="cc" />
  <path
     sodipodi:nodetypes="cc"
     id="path6380"
     d="M 77.513424,102.84705 C 83.13199,71.977168 111.02125,33.899846 116.16568,29.094393"
     style="fill:none;stroke:#0060a8;stroke-width:4.19999981;stroke-linecap:round;stroke-linejoin:miter;stroke-miterlimit:4;stroke-opacity:1;stroke-dasharray:none" />
</svg>
