<?xml version="1.0" encoding="UTF-8" standalone="no"?>
<!-- Created with Inkscape (http://www.inkscape.org/) -->

<svg
   xmlns:dc="http://purl.org/dc/elements/1.1/"
   xmlns:cc="http://creativecommons.org/ns#"
   xmlns:rdf="http://www.w3.org/1999/02/22-rdf-syntax-ns#"
   xmlns:svg="http://www.w3.org/2000/svg"
   xmlns="http://www.w3.org/2000/svg"
   xmlns:sodipodi="http://sodipodi.sourceforge.net/DTD/sodipodi-0.dtd"
   xmlns:inkscape="http://www.inkscape.org/namespaces/inkscape"
   width="1251"
   height="1931.2812"
   id="svg3695"
   version="1.1"
   inkscape:version="0.48.5 r10040"
   sodipodi:docname="Italian_traffic_signs_-_gruppo_segnaletico_unitario_urbano_monofilare_(figura_II_253).svg">
  <defs
     id="defs3697" />
  <sodipodi:namedview
     id="base"
     pagecolor="#ffffff"
     bordercolor="#666666"
     borderopacity="1.0"
     inkscape:pageopacity="0.0"
     inkscape:pageshadow="2"
     inkscape:zoom="0.175"
     inkscape:cx="-1013.5235"
     inkscape:cy="1093.9776"
     inkscape:document-units="px"
     inkscape:current-layer="layer1"
     showgrid="false"
     fit-margin-top="0"
     fit-margin-left="0"
     fit-margin-right="0"
     fit-margin-bottom="0"
     inkscape:window-width="1366"
     inkscape:window-height="705"
     inkscape:window-x="-8"
     inkscape:window-y="-8"
     inkscape:window-maximized="1" />
  <metadata
     id="metadata3700">
    <rdf:RDF>
      <cc:Work
         rdf:about="">
        <dc:format>image/svg+xml</dc:format>
        <dc:type
           rdf:resource="http://purl.org/dc/dcmitype/StillImage" />
        <dc:title />
      </cc:Work>
    </rdf:RDF>
  </metadata>
  <g
     inkscape:label="Livello 1"
     inkscape:groupmode="layer"
     id="layer1"
     transform="translate(1,877.90625)">
    <rect
       y="-412.39978"
       x="1094"
       height="1460.7748"
       width="70"
       id="rect5492"
       style="fill:#ffffff;stroke:#000000;stroke-width:10;stroke-miterlimit:4;stroke-opacity:1;stroke-dasharray:none;stroke-dashoffset:0;fill-opacity:1" />
    <rect
       style="fill:#ffffff;stroke:#000000;stroke-width:10;stroke-miterlimit:4;stroke-opacity:1;stroke-dasharray:none;stroke-dashoffset:0;fill-opacity:1"
       id="rect5490"
       width="70"
       height="1460.7748"
       x="84"
       y="-412.39978" />
    <rect
       transform="scale(-1,1)"
       y="472.60666"
       x="-1249.5"
       height="250"
       width="1250"
       id="rect5452"
       style="fill:#784421;fill-opacity:1;stroke:#784421;stroke-width:1;stroke-miterlimit:4;stroke-opacity:1;stroke-dasharray:none" />
    <rect
       transform="scale(-1,1)"
       style="fill:#ffffff;fill-opacity:1;stroke-width:22.5;stroke-miterlimit:4;stroke-dasharray:none"
       id="rect5454"
       width="1250"
       height="20"
       x="-1249.5"
       y="702.60663" />
    <path
       inkscape:connector-curvature="0"
       d="m 1039.4998,587.60724 0,17.704 109.5611,0 -72.768,72.29501 52.369,0 90.838,-89.99901 -90.8381,-90.0009 -52.3689,0 72.768,72.2949 -109.5611,0 z"
       style="fill:#ffffff;fill-opacity:1;fill-rule:evenodd;stroke-width:3.53692007"
       id="path5456" />
    <rect
       style="fill:#00408b;fill-opacity:1;stroke:#00408b;stroke-width:1;stroke-miterlimit:4;stroke-opacity:1;stroke-dasharray:none"
       id="rect5458"
       width="1250"
       height="250"
       x="-1249.5"
       y="222.60666"
       transform="scale(-1,1)" />
    <rect
       y="452.60666"
       x="-1249.5"
       height="20"
       width="1250"
       id="rect5460"
       style="fill:#ffffff;fill-opacity:1;stroke-width:22.5;stroke-miterlimit:4;stroke-dasharray:none"
       transform="scale(-1,1)" />
    <path
       id="path5462"
       style="fill:#ffffff;fill-opacity:1;fill-rule:evenodd;stroke-width:3.53692007"
       d="m 1039.4998,337.60724 0,17.704 109.5611,0 -72.768,72.29501 52.369,0 90.838,-89.99901 -90.8381,-90.0009 -52.3689,0 72.768,72.2949 -109.5611,0 z"
       inkscape:connector-curvature="0" />
    <rect
       style="fill:#08842c;fill-opacity:1;stroke:#08842c;stroke-width:1;stroke-miterlimit:4;stroke-opacity:1;stroke-dasharray:none"
       id="rect5464"
       width="1250"
       height="250"
       x="-0.49975586"
       y="-77.393349" />
    <rect
       y="152.60666"
       x="-0.49975586"
       height="20"
       width="1250"
       id="rect5466"
       style="fill:#ffffff;fill-opacity:1;stroke-width:22.5;stroke-miterlimit:4;stroke-dasharray:none" />
    <path
       id="path5468"
       style="fill:#ffffff;fill-opacity:1;fill-rule:evenodd;stroke-width:3.53692007"
       d="m 209.50053,37.607241 0,17.704 -109.560997,0 72.767897,72.294999 -52.369,0 -90.837897,-89.998999 90.837997,-90.0009 52.3689,0 -72.767897,72.2949 109.560997,0 z"
       inkscape:connector-curvature="0" />
    <rect
       y="-327.39337"
       x="-0.49975586"
       height="250"
       width="1250"
       id="rect5470"
       style="fill:#ffffff;fill-opacity:1;stroke:#000000;stroke-width:1;stroke-miterlimit:4;stroke-opacity:1;stroke-dasharray:none" />
    <rect
       style="fill:#000000;fill-opacity:1;stroke-width:22.5;stroke-miterlimit:4;stroke-dasharray:none"
       id="rect5472"
       width="1250"
       height="20"
       x="-0.49975586"
       y="-97.393349" />
    <path
       inkscape:connector-curvature="0"
       d="m 209.50063,-212.39298 0,17.704 -109.561097,0 72.767997,72.295 -52.369,0 -90.837997,-89.999 90.838097,-90.00091 52.3689,0 -72.767997,72.29491 109.561097,0 z"
       style="fill:#000000;fill-opacity:1;fill-rule:evenodd;stroke-width:3.53692007"
       id="path5474" />
    <rect
       y="-627.39337"
       x="-0.49975586"
       height="250"
       width="1250"
       id="rect5476"
       style="fill:#00408b;fill-opacity:1;stroke:#00408b;stroke-width:1;stroke-miterlimit:4;stroke-opacity:1;stroke-dasharray:none" />
    <rect
       style="fill:#ffffff;fill-opacity:1;stroke-width:22.5;stroke-miterlimit:4;stroke-dasharray:none"
       id="rect5478"
       width="1250"
       height="20"
       x="-0.49975586"
       y="-397.39334" />
    <path
       inkscape:connector-curvature="0"
       d="m 119.49923,-422.39445 -17.704,0 0,-109.56111 -72.294997,72.76811 0,-52.3691 89.998997,-90.83801 90.001,90.83801 0,52.3691 -72.295,-72.76811 0,109.56111 z"
       style="fill:#ffffff;fill-opacity:1;fill-rule:evenodd;stroke-width:3.53692007"
       id="path5480" />
    <rect
       style="fill:#ffffff;fill-opacity:1;stroke:#000000;stroke-width:1;stroke-miterlimit:4;stroke-opacity:1;stroke-dasharray:none"
       id="rect5482"
       width="1250"
       height="250"
       x="-0.49975586"
       y="-877.39337" />
    <rect
       y="-647.39337"
       x="-0.49975586"
       height="20"
       width="1250"
       id="rect5484"
       style="fill:#000000;fill-opacity:1;stroke-width:22.5;stroke-miterlimit:4;stroke-dasharray:none" />
    <path
       id="path5486"
       style="fill:#000000;fill-opacity:1;fill-rule:evenodd;stroke-width:3.53692007"
       d="m 119.49953,-672.3943 -17.704,0 0,-109.561 -72.294997,72.768 0,-52.369 89.998997,-90.838 90.001,90.838 0,52.369 -72.295,-72.768 0,109.561 z"
       inkscape:connector-curvature="0" />
  </g>
</svg>
