<?xml version="1.0" encoding="UTF-8" standalone="no"?>
<!-- Created with Inkscape (http://www.inkscape.org/) -->

<svg
   width="212.19583mm"
   height="71.966667mm"
   viewBox="0 0 212.19583 71.966667"
   version="1.1"
   id="svg13146"
   inkscape:version="1.2.1 (9c6d41e410, 2022-07-14)"
   sodipodi:docname="Segnale stradale italiano 1992 - zona soggetta allagamenti.svg"
   xmlns:inkscape="http://www.inkscape.org/namespaces/inkscape"
   xmlns:sodipodi="http://sodipodi.sourceforge.net/DTD/sodipodi-0.dtd"
   xmlns="http://www.w3.org/2000/svg"
   xmlns:svg="http://www.w3.org/2000/svg">
  <sodipodi:namedview
     id="namedview13148"
     pagecolor="#ffffff"
     bordercolor="#000000"
     borderopacity="0.25"
     inkscape:showpageshadow="2"
     inkscape:pageopacity="0.0"
     inkscape:pagecheckerboard="0"
     inkscape:deskcolor="#d1d1d1"
     inkscape:document-units="mm"
     showgrid="false"
     inkscape:zoom="0.76257015"
     inkscape:cx="540.93384"
     inkscape:cy="-39.996321"
     inkscape:window-width="1920"
     inkscape:window-height="991"
     inkscape:window-x="-9"
     inkscape:window-y="-9"
     inkscape:window-maximized="1"
     inkscape:current-layer="layer1" />
  <defs
     id="defs13143" />
  <g
     inkscape:label="Livello 1"
     inkscape:groupmode="layer"
     id="layer1"
     transform="translate(37.746276,-65.676708)">
    <g
       id="g13125"
       transform="translate(317.12613,121.63882)">
      <rect
         style="opacity:0.993;fill:#000000;stroke-width:2.23486;paint-order:fill markers stroke"
         id="rect1594-8-6-6"
         width="212.19583"
         height="71.966667"
         x="-354.87241"
         y="-55.962112" />
      <g
         id="g13116">
        <rect
           style="opacity:0.993;fill:#ffffff;stroke-width:2.22385;paint-order:fill markers stroke"
           id="rect1594-8-6"
           width="211.66667"
           height="71.437492"
           x="-354.6077"
           y="-55.69754" />
        <rect
           style="opacity:0.993;fill:none;stroke:#000400;stroke-width:2.117;paint-order:fill markers stroke"
           id="rect3048-8-2"
           width="207.433"
           height="67.203827"
           x="-352.49103"
           y="-53.580559"
           rx="6.8791666"
           ry="6.8791666" />
        <path
           id="path12788"
           style="color:#000000;fill:#00408b;fill-rule:evenodd;stroke-width:2.5998"
           d="m -245.58549,-34.231377 c -13.94847,0 -29.43396,4.22526 -43.37446,4.22526 -11.76878,0 -24.63739,-3.01162 -36.75375,-3.94985 v 4.78147 c 11.4555,0.97288 24.3413,3.91626 36.75375,3.91626 14.86884,0 30.42013,-4.22526 43.37446,-4.22526 12.9543,0 28.50565,4.22526 43.37446,4.22526 10.32202,0 20.97119,-2.03438 30.85316,-3.27945 v -4.82446 c -10.32927,1.23669 -20.97846,3.35603 -30.85316,3.35603 -13.94046,0 -29.42602,-4.22526 -43.37446,-4.22526 z" />
        <path
           id="path12788-8"
           style="color:#000000;fill:#00408b;fill-rule:evenodd;stroke-width:2.5998"
           d="m -245.58516,-24.784267 c -13.94847,0 -29.43396,4.22526 -43.37445,4.22526 -11.76879,0 -24.6374,-3.01161 -36.75376,-3.94984 v 4.78146 c 11.4555,0.97288 24.3413,3.91626 36.75376,3.91626 14.86883,0 30.42013,-4.22526 43.37445,-4.22526 12.9543,0 28.50566,4.22526 43.37446,4.22526 10.32202,0 20.97119,-2.03438 30.85316,-3.27944 v -4.82446 c -10.32926,1.23669 -20.97845,3.35602 -30.85316,3.35602 -13.94046,0 -29.42602,-4.22526 -43.37446,-4.22526 z" />
        <path
           id="path12788-1"
           style="color:#000000;fill:#00408b;fill-rule:evenodd;stroke-width:2.5998"
           d="m -245.58516,-15.336897 c -13.94847,0 -29.43396,4.22526 -43.37445,4.22526 -11.76879,0 -24.6374,-3.01161 -36.75376,-3.94985 v 4.78147 c 11.4555,0.9728797 24.3413,3.9162597 36.75376,3.9162597 14.86883,0 30.42013,-4.2252597 43.37445,-4.2252597 12.9543,0 28.50566,4.2252597 43.37446,4.2252597 10.32202,0 20.97119,-2.03438 30.85316,-3.27945 v -4.8244597 c -10.32926,1.23669 -20.97845,3.35603 -30.85316,3.35603 -13.94046,0 -29.42602,-4.22526 -43.37446,-4.22526 z" />
      </g>
    </g>
  </g>
</svg>
