<?xml version="1.0" encoding="UTF-8" standalone="no"?>
<!-- Created with Inkscape (http://www.inkscape.org/) -->

<svg
   xmlns:dc="http://purl.org/dc/elements/1.1/"
   xmlns:cc="http://creativecommons.org/ns#"
   xmlns:rdf="http://www.w3.org/1999/02/22-rdf-syntax-ns#"
   xmlns:svg="http://www.w3.org/2000/svg"
   xmlns="http://www.w3.org/2000/svg"
   xmlns:sodipodi="http://sodipodi.sourceforge.net/DTD/sodipodi-0.dtd"
   xmlns:inkscape="http://www.inkscape.org/namespaces/inkscape"
   width="902.5"
   height="747"
   id="svg8920"
   version="1.1"
   inkscape:version="0.48.5 r10040"
   sodipodi:docname="CANC Terni.svg">
  <defs
     id="defs8922" />
  <sodipodi:namedview
     id="base"
     pagecolor="#ffffff"
     bordercolor="#666666"
     borderopacity="1.0"
     inkscape:pageopacity="0.0"
     inkscape:pageshadow="2"
     inkscape:zoom="0.5"
     inkscape:cx="312.24534"
     inkscape:cy="407.82941"
     inkscape:document-units="px"
     inkscape:current-layer="layer1"
     showgrid="false"
     fit-margin-top="0"
     fit-margin-left="0"
     fit-margin-right="0"
     fit-margin-bottom="0"
     inkscape:window-width="1366"
     inkscape:window-height="705"
     inkscape:window-x="-8"
     inkscape:window-y="-8"
     inkscape:window-maximized="1" />
  <metadata
     id="metadata8925">
    <rdf:RDF>
      <cc:Work
         rdf:about="">
        <dc:format>image/svg+xml</dc:format>
        <dc:type
           rdf:resource="http://purl.org/dc/dcmitype/StillImage" />
        <dc:title />
      </cc:Work>
    </rdf:RDF>
  </metadata>
  <g
     inkscape:label="Livello 1"
     inkscape:groupmode="layer"
     id="layer1"
     transform="translate(50.1875,-253.75)">
    <rect
       transform="scale(1,-1)"
       style="fill:#00408b;fill-opacity:1;stroke:#00408b;stroke-opacity:1"
       id="rect9353"
       width="323.40427"
       height="380"
       x="478.96875"
       y="-683.86768" />
    <rect
       y="-489.51703"
       x="478.96875"
       height="185.64937"
       width="323.40427"
       id="rect9374"
       style="fill:#ffffff;fill-opacity:1;stroke:#000000;stroke-opacity:1"
       transform="scale(1,-1)" />
    <rect
       y="-773.86768"
       x="-0.03125"
       height="470"
       width="400"
       id="rect9238"
       style="fill:#00408b;fill-opacity:1;stroke:none"
       transform="scale(1,-1)" />
    <rect
       ry="30.935921"
       rx="30.935921"
       y="309.86758"
       x="5.96875"
       height="217.4939"
       width="388"
       id="rect9240"
       style="fill:none;stroke:#ffffff;stroke-width:6.00000048;stroke-miterlimit:4;stroke-opacity:1;stroke-dasharray:none" />
    <path
       inkscape:connector-curvature="0"
       d="m 309.81801,670.17848 0.1508,-34.356 -117.6846,0 7.0819,-40.534 c -0.1506,-1.0554 -0.4516,-2.1097 -1.0554,-2.7124 -0.6022,-0.7528 -2.1093,-0.9034 -3.1643,-0.9034 l -105.177597,61.3284 105.328197,61.4793 c 1.0554,0 2.5617,-0.3009 3.0137,-0.6022 0.6022,-0.7529 0.9048,-1.5069 0.753,-2.5617 l -7.3833,-41.1369 z"
       style="fill:#ffffff;fill-opacity:1;fill-rule:evenodd;stroke-width:0.15289199"
       id="path9252" />
    <g
       style="font-size:163.57138062px;font-style:normal;font-weight:normal;line-height:125%;letter-spacing:0px;word-spacing:0px;fill:#ffffff;fill-opacity:1;stroke:none;font-family:Sans"
       id="text9254"
       transform="translate(553.17999,-506.58792)">
      <path
         d="m -470.77172,866.89605 c 14.06685,0.32625 24.20852,7.52276 30.42503,21.58954 l -16.84733,10.63254 c -4.03675,-7.74385 -8.72571,-11.61582 -14.0669,-11.61592 -2.39942,10e-5 -4.4444,0.84538 -6.13492,2.53584 -1.69059,1.69065 -2.64568,3.89869 -2.8653,6.62412 -0.21633,2.18317 0.65723,4.4195 2.6207,6.70898 0.65223,0.76217 2.56076,2.50763 5.7256,5.2364 8.28635,6.43284 17.66427,14.3931 28.13379,23.88078 4.14313,5.23479 6.21473,11.61431 6.2148,19.13857 -7e-5,8.61256 -2.61744,16.02704 -7.85211,22.24347 -5.89038,6.86873 -13.68757,10.46782 -23.39158,10.79727 -14.39306,0.43596 -24.80761,-7.63411 -31.24369,-24.21024 l 17.50625,-9.97861 c 3.70721,9.05183 8.12329,13.57773 13.24824,13.5777 1.52745,3e-5 3.05328,-0.38101 4.57748,-1.14312 3.92684,-1.96341 5.89028,-5.28962 5.89033,-9.97861 -5e-5,-3.38108 -1.19974,-6.21642 -3.59909,-8.50604 -6.10668,-5.12486 -12.21331,-10.24977 -18.31991,-15.37475 -9.05182,-7.52424 -14.50453,-12.97695 -16.35814,-16.35813 -2.83535,-4.90853 -4.25302,-10.03344 -4.25302,-15.37475 0,-8.28962 3.10822,-15.4878 9.32469,-21.59454 6.21644,-6.10652 13.30479,-9.05002 21.26508,-8.8305 z"
         style="font-variant:normal;font-stretch:normal;word-spacing:-25px;fill:#ffffff;fill-opacity:1;font-family:CodiceBiancoCondensed;-inkscape-font-specification:CodiceBiancoCondensed"
         id="path9364"
         inkscape:connector-curvature="0" />
      <path
         d="m -396.65344,866.89605 c 14.06685,0.32625 24.20852,7.52276 30.42503,21.58954 l -16.84733,10.63254 c -4.03675,-7.74385 -8.72571,-11.61582 -14.0669,-11.61592 -2.39943,10e-5 -4.4444,0.84538 -6.13492,2.53584 -1.69059,1.69065 -2.64569,3.89869 -2.8653,6.62412 -0.21634,2.18317 0.65723,4.4195 2.6207,6.70898 0.65223,0.76217 2.56076,2.50763 5.72559,5.2364 8.28635,6.43284 17.66428,14.3931 28.1338,23.88078 4.14313,5.23479 6.21473,11.61431 6.2148,19.13857 -7e-5,8.61256 -2.61744,16.02704 -7.85211,22.24347 -5.89038,6.86873 -13.68757,10.46782 -23.39158,10.79727 -14.39306,0.43596 -24.80761,-7.63411 -31.2437,-24.21024 l 17.50626,-9.97861 c 3.70721,9.05183 8.12329,13.57773 13.24824,13.5777 1.52745,3e-5 3.05328,-0.38101 4.57748,-1.14312 3.92684,-1.96341 5.89028,-5.28962 5.89033,-9.97861 -5e-5,-3.38108 -1.19974,-6.21642 -3.59909,-8.50604 -6.10668,-5.12486 -12.21331,-10.24977 -18.31992,-15.37475 -9.05181,-7.52424 -14.50452,-12.97695 -16.35813,-16.35813 -2.83535,-4.90853 -4.25302,-10.03344 -4.25302,-15.37475 0,-8.28962 3.10822,-15.4878 9.32469,-21.59454 6.21644,-6.10652 13.30479,-9.05002 21.26508,-8.8305 z"
         style="font-variant:normal;font-stretch:normal;word-spacing:-25px;fill:#ffffff;fill-opacity:1;font-family:CodiceBiancoCondensed;-inkscape-font-specification:CodiceBiancoCondensed"
         id="path9366"
         inkscape:connector-curvature="0" />
      <path
         d="m -210.32156,897.15636 c 0.10643,5.88708 -1.96683,13.46629 -6.21978,22.73766 -2.72559,5.77724 -7.19657,13.79074 -13.41298,24.04052 -5.88704,9.5976 -9.43121,15.86897 -10.63254,18.8141 l 28.62799,0 0,20.44642 -55.45393,0 0,-17.17679 c 0.32945,-1.19801 3.49258,-6.43274 9.48941,-15.70421 7.19816,-11.12169 12.54104,-20.00875 16.02868,-26.66122 5.67065,-10.79552 8.50599,-19.19173 8.50603,-25.18863 -4e-5,-2.72543 -0.76295,-4.93347 -2.28874,-6.62412 -1.52587,-1.69046 -3.32541,-2.53574 -5.39863,-2.53584 -2.61574,10e-5 -4.79716,1.25471 -6.54426,3.76382 -2.06996,2.72562 -3.10492,6.65083 -3.1049,11.77566 l -19.3033,0 c 0.32613,-12.10336 3.59742,-21.42637 9.81389,-27.96907 5.45435,-5.78039 12.21491,-8.67064 20.28169,-8.67076 7.7439,1.2e-4 14.45122,2.56258 20.12195,7.68738 6.10658,5.45115 9.26972,12.53951 9.48942,21.26508 z"
         style="font-variant:normal;font-stretch:normal;word-spacing:-25px;fill:#ffffff;fill-opacity:1;font-family:CodiceBiancoCondensed;-inkscape-font-specification:CodiceBiancoCondensed"
         id="path9368"
         inkscape:connector-curvature="0" />
    </g>
    <path
       style="fill:#ffffff;fill-opacity:1;stroke:#000000;stroke-width:4;stroke-linecap:butt;stroke-linejoin:miter;stroke-miterlimit:4;stroke-opacity:1;stroke-dasharray:none"
       d="m 416.96875,1044.8622 0,-738.99999 45,0 0,744.49999 z"
       id="path9258-1"
       inkscape:connector-curvature="0"
       sodipodi:nodetypes="ccccc" />
    <rect
       style="fill:none;stroke:#000000;stroke-width:4.85106421;stroke-miterlimit:4;stroke-opacity:1;stroke-dasharray:none"
       id="rect9355"
       width="313.70212"
       height="175.84613"
       x="483.81982"
       y="308.71866"
       rx="25.01202"
       ry="25.01202" />
    <path
       id="path9357"
       style="fill:#ffffff;fill-opacity:1;fill-rule:evenodd;stroke-width:0.15289199"
       d="m 551.85668,600.03388 -0.12192,-27.7772 95.14924,0 -5.72579,-32.7722 c 0.12176,-0.8533 0.36512,-1.7057 0.8533,-2.193 0.48689,-0.6086 1.70539,-0.7304 2.55837,-0.7304 l 85.03721,49.5846 -85.15897,49.7067 c -0.8533,0 -2.07116,-0.2433 -2.43661,-0.4868 -0.48688,-0.6087 -0.73154,-1.2184 -0.60881,-2.0712 l 5.96948,-33.2596 z"
       inkscape:connector-curvature="0" />
    <g
       style="font-size:136.73919678px;font-style:normal;font-weight:normal;line-height:125%;letter-spacing:0px;word-spacing:0px;fill:#000000;fill-opacity:1;stroke:none;font-family:Sans"
       id="text9359">
      <path
         d="m 539.75536,345.11329 c 10.75782,1.1e-4 20.05654,6.0161 27.89617,18.04801 l -16.68345,9.84816 c -0.63711,-1.36865 -1.77633,-2.96411 -3.41765,-4.78637 -2.46207,-2.64279 -4.69599,-3.96422 -6.70175,-3.9643 -0.45628,8e-5 -0.86662,0.0446 -1.23102,0.13353 -0.82071,0.36452 -1.50369,0.82076 -2.04892,1.36873 -1.36876,1.09339 -2.09902,2.37031 -2.1908,3.83076 -0.089,2.27851 1.55231,4.96728 4.92408,8.06631 l 19.96339,17.9103 c 2.18935,1.91683 4.10334,4.46928 5.74198,7.65736 2.00573,3.83081 3.00863,7.56838 3.00869,11.21272 -6e-5,8.11502 -2.59772,15.04419 -7.79298,20.78754 -5.19537,5.74338 -11.71281,8.61506 -19.55235,8.61506 -12.03481,0 -21.37942,-6.92848 -28.03387,-20.78546 l 17.77676,-10.1194 c 2.55382,7.65878 5.79063,11.21413 9.71045,10.66605 4.46502,-0.54802 6.69754,-2.69013 6.69758,-6.42634 -4e-5,-3.01005 -2.91692,-7.11205 -8.75067,-12.30602 -9.66179,-8.66021 -15.08523,-13.6288 -16.27033,-14.90578 -5.83379,-6.47357 -8.75068,-12.76359 -8.75067,-18.87007 -10e-6,-7.38326 2.39248,-13.55922 7.17747,-18.5279 4.78496,-4.96849 10.96092,-7.45278 18.52789,-7.45289 z"
         style="font-variant:normal;font-stretch:normal;word-spacing:-20.8990078px;fill:#000000;font-family:CodiceNeroCondensed;-inkscape-font-specification:CodiceNeroCondensed"
         id="path3006" />
      <path
         d="m 611.28806,344.42893 c 11.57849,1.1e-4 19.92021,5.97159 25.02517,17.91447 2.09476,5.01319 3.46209,11.02918 4.10201,18.04801 l -19.96339,1.63997 c -0.45629,-10.75501 -3.19096,-16.13254 -8.20402,-16.13263 -6.01742,9e-5 -9.02611,9.84546 -9.02609,29.53614 -2e-5,7.65601 0.274,13.07945 0.82208,16.27033 1.27411,8.02322 4.00878,12.03481 8.20401,12.03478 2.82366,3e-5 5.10209,-2.14208 6.83529,-6.42634 1.18508,-3.01005 1.91395,-6.38318 2.18663,-10.1194 l 19.55444,6.83529 c -1.27699,6.01742 -3.10056,11.16823 -5.47074,15.45243 -5.74203,10.39065 -13.76382,15.58597 -24.06539,15.58596 -9.38917,10e-6 -17.04652,-5.42343 -22.97209,-16.27032 -5.37755,-9.75355 -8.06631,-20.87445 -8.06631,-33.36273 0,-14.22134 2.78057,-26.16431 8.34173,-35.82894 5.83376,-10.11791 13.39931,-15.17691 22.69667,-15.17702 z"
         style="font-variant:normal;font-stretch:normal;word-spacing:-20.8990078px;fill:#000000;font-family:CodiceNeroCondensed;-inkscape-font-specification:CodiceNeroCondensed"
         id="path3008" />
      <path
         d="m 697.27497,347.57533 0,95.4437 -22.28772,0 0,-60.98765 -10.52835,0 0,-16.40804 c 8.74926,-0.63699 13.1239,-6.65298 13.12392,-18.04801 z"
         style="font-variant:normal;font-stretch:normal;word-spacing:-20.8990078px;fill:#000000;font-family:CodiceNeroCondensed;-inkscape-font-specification:CodiceNeroCondensed"
         id="path3010" />
      <path
         d="m 737.3311,345.65995 c 10.93865,1e-4 19.05225,6.062 24.34082,18.18571 3.91973,8.93575 5.87962,19.6018 5.87968,31.99818 -6e-5,15.22295 -3.28278,27.39265 -9.84816,36.50913 -5.92285,8.20403 -13.07806,12.30603 -21.46565,12.30603 -7.01892,0 -13.08082,-3.50945 -18.18571,-10.52835 -3.46356,-4.83226 -5.51526,-9.20829 -6.1551,-13.1281 l 19.00778,-5.60427 c 1.00148,3.73621 1.54814,5.742 1.63997,6.01739 1.09328,2.37026 2.87096,3.41767 5.33303,3.14223 2.3702,-0.27261 4.19378,-2.68735 5.47074,-7.24424 1.00146,-3.64712 1.50222,-7.65871 1.50226,-12.03478 -4.10066,2.55388 -8.02044,3.8308 -11.75937,3.83076 -3.37177,4e-5 -6.6531,-1.04876 -9.84399,-3.1464 -7.47515,-4.92403 -11.21272,-12.99173 -11.21271,-24.20311 -10e-6,-8.93281 2.0503,-16.86419 6.15092,-23.79415 4.74046,-8.20392 11.12228,-12.30593 19.14549,-12.30603 z m -4.64866,31.86047 c -3e-5,7.56701 2.05028,11.35048 6.15093,11.35042 1.73312,6e-5 3.19226,-1.50359 4.37742,-4.51096 0.91244,-2.37017 1.36869,-4.64999 1.36873,-6.83946 -4e-5,-3.00723 -0.41038,-5.60559 -1.23102,-7.79507 -1.00433,-2.82362 -2.50937,-4.23546 -4.51513,-4.23554 -4.10065,8e-5 -6.15096,4.01028 -6.15093,12.03061 z"
         style="font-variant:normal;font-stretch:normal;word-spacing:-20.8990078px;fill:#000000;font-family:CodiceNeroCondensed;-inkscape-font-specification:CodiceNeroCondensed"
         id="path3012" />
    </g>
    <rect
       style="fill:none;stroke:none;stroke-width:2.24023556999999980;stroke-opacity:1"
       id="rect9380"
       width="900.25519"
       height="744.78027"
       x="-49.052551"
       y="254.85484" />
  </g>
</svg>
