<?xml version="1.0" encoding="UTF-8" standalone="no"?>
<!-- Created with Inkscape (http://www.inkscape.org/) -->

<svg
   xmlns:dc="http://purl.org/dc/elements/1.1/"
   xmlns:cc="http://creativecommons.org/ns#"
   xmlns:rdf="http://www.w3.org/1999/02/22-rdf-syntax-ns#"
   xmlns:svg="http://www.w3.org/2000/svg"
   xmlns="http://www.w3.org/2000/svg"
   xmlns:sodipodi="http://sodipodi.sourceforge.net/DTD/sodipodi-0.dtd"
   xmlns:inkscape="http://www.inkscape.org/namespaces/inkscape"
   width="900"
   height="1350"
   id="svg2"
   version="1.1"
   inkscape:version="0.48.5 r10040"
   sodipodi:docname="Nuovo documento 1">
  <defs
     id="defs4" />
  <sodipodi:namedview
     id="base"
     pagecolor="#ffffff"
     bordercolor="#666666"
     borderopacity="1.0"
     inkscape:pageopacity="0.0"
     inkscape:pageshadow="2"
     inkscape:zoom="0.35"
     inkscape:cx="208.9052"
     inkscape:cy="527.50222"
     inkscape:document-units="px"
     inkscape:current-layer="layer1"
     showgrid="false"
     inkscape:object-nodes="true"
     inkscape:object-paths="true"
     inkscape:snap-object-midpoints="true"
     inkscape:snap-global="true"
     inkscape:snap-midpoints="true"
     fit-margin-top="0"
     fit-margin-left="0"
     fit-margin-right="0"
     fit-margin-bottom="0"
     inkscape:window-width="1366"
     inkscape:window-height="705"
     inkscape:window-x="-8"
     inkscape:window-y="-8"
     inkscape:window-maximized="1" />
  <metadata
     id="metadata7">
    <rdf:RDF>
      <cc:Work
         rdf:about="">
        <dc:format>image/svg+xml</dc:format>
        <dc:type
           rdf:resource="http://purl.org/dc/dcmitype/StillImage" />
        <dc:title></dc:title>
      </cc:Work>
    </rdf:RDF>
  </metadata>
  <g
     inkscape:label="Livello 1"
     inkscape:groupmode="layer"
     id="layer1"
     transform="translate(0,297.625)">
    <rect
       style="fill:#ffffff;fill-opacity:1;fill-rule:evenodd;stroke:#000000;stroke-width:1px;stroke-linecap:butt;stroke-linejoin:miter;stroke-opacity:1"
       id="rect2985"
       width="899"
       height="1349"
       x="0.5"
       y="-297.13782" />
    <rect
       style="fill:none;stroke:#000000;stroke-width:15.99999905;stroke-miterlimit:4;stroke-opacity:1;stroke-dasharray:none"
       id="rect3755"
       width="868"
       height="1318"
       x="16"
       y="-281.63782"
       rx="61.999996"
       ry="61.999996" />
    <path
       inkscape:connector-curvature="0"
       id="rect13498-0"
       style="fill:#000000;fill-rule:evenodd;stroke-width:1.09007001;stroke-opacity:0.64615401"
       d="m 614.40864,878.40946 c -1.57458,0.58055 -3.27098,0.91622 -5.05163,0.91622 h -36.76762 v 68.89984 c 0,7.83314 6.30355,14.13666 14.13502,14.13666 h 13.54016 c 7.83277,0 14.14407,-6.30352 14.14407,-14.13666 z m -328.81556,0.91622 v 68.89984 c 0,7.83314 6.31133,14.13666 14.14406,14.13666 h 13.5389 c 7.83275,0 14.13758,-6.30352 14.13758,-14.13666 v -68.89984 z m 52.19986,0 v 68.89984 c 0,7.83314 6.30484,14.13666 14.13762,14.13666 h 13.53887 c 7.83406,0 14.13632,-6.30352 14.13632,-14.13666 v -30.39533 h 50.97257 a 21.059369,21.059174 0 0 0 19.41868,12.94319 21.059369,21.059174 0 0 0 19.42637,-12.94319 h 50.97264 v 30.39533 c 0,7.83314 6.30352,14.13666 14.13758,14.13666 h 13.53885 c 7.83408,0 14.13631,-6.30352 14.13631,-14.13666 v -68.89984 h -41.81274 v 22.25923 H 469.42337 A 21.059369,21.059174 0 0 0 449.997,888.65515 21.059369,21.059174 0 0 0 430.58741,901.58491 h -50.98166 v -22.25923 z" />
    <rect
       style="fill:#000000;fill-rule:evenodd;stroke-width:0.803846;stroke-opacity:0.64615401"
       id="rect13628-0"
       width="354.99597"
       height="41.215813"
       x="272.50223"
       y="826.37927" />
    <path
       inkscape:connector-curvature="0"
       id="rect13628-1-4"
       style="fill:#000000;fill-rule:evenodd;stroke-width:2.16526008;stroke-opacity:0.64615401"
       d="m 272.5,516.32883 c 0,0 118.30671,-5.24242 177.49956,-5.24242 59.19288,0 177.49955,5.24242 177.49955,5.24242 L 627.5,815.37313 H 272.50379 z"
       sodipodi:nodetypes="czcccc" />
    <rect
       style="fill:#ff6600;fill-rule:evenodd;stroke-width:0.801346;stroke-opacity:0.64615401"
       id="rect13653-0"
       width="272.29245"
       height="218.26073"
       x="313.8519"
       y="557.01324" />
    <path
       inkscape:connector-curvature="0"
       d="M 750,87.362109 C 750.028,253.03936 615.705,387.36218 450,387.36218 c -165.7051,0 -300.02779,-134.32282 -300,-300.000071 -0.028,-165.677304 134.2949,-300.000019 300,-300.000019 165.705,0 300.0277,134.322715 300,300.000019 l 0,0 z"
       style="fill:#000000;fill-opacity:1;fill-rule:evenodd;stroke:none"
       id="path2683" />
    <path
       inkscape:connector-curvature="0"
       d="M 748.9999,87.362139 C 748.9999,252.4953 615.1331,386.36218 450,386.36218 c -165.1332,0 -299,-133.86688 -299,-299.000041 0,-165.133124 133.8668,-298.999979 299,-298.999979 165.1331,0 298.9999,133.866855 298.9999,298.999979 l 0,0 z"
       style="fill:#ffffff;fill-opacity:1;fill-rule:evenodd;stroke:none"
       id="path2685" />
    <path
       inkscape:connector-curvature="0"
       style="fill:#00408b;fill-opacity:1;fill-rule:evenodd;stroke:none"
       d="m 450,-203.68806 c -160.7149,0 -290.9999,130.285085 -290.9999,290.999939 0,160.714881 130.285,290.999901 290.9999,290.999901 160.7148,0 290.9999,-130.28502 290.9999,-290.999901 C 740.9999,-73.402985 610.7148,-203.68806 450,-203.68806 z"
       id="path1877"
       sodipodi:nodetypes="cssss" />
    <path
       inkscape:connector-curvature="0"
       style="fill:#ffffff"
       d="m 208.5176,127.24659 271.484,0 c 2.5213,0 4.567,2.0457 4.567,4.55006 0,0.59374 -0.1209,1.17621 -0.3124,1.68271 l -24.357,72.01868 c -0.3348,1.1762 -0.529,2.41713 -0.529,3.69463 0,7.18949 5.8416,13.01424 13.0198,13.01424 2.5438,0 4.9075,-0.72598 6.9138,-1.98942 L 691.4823,86.968589 479.3066,-45.599365 c -2.0063,-1.26345 -4.37,-1.98381 -6.9138,-1.98381 -7.1782,0 -13.0198,5.81913 -13.0198,13.01424 0,1.28031 0.1914,2.50719 0.529,3.67776 l 24.357,71.3968 c 0.1914,0.51774 0.3124,1.09461 0.3124,1.67706 0,2.52126 -2.0457,4.5557 -4.567,4.5557 l -271.484,0 0,80.508205"
       id="path1889" />
  </g>
</svg>
