<?xml version="1.0" encoding="UTF-8" standalone="no"?>
<!-- Created with Inkscape (http://www.inkscape.org/) -->

<svg
   xmlns:dc="http://purl.org/dc/elements/1.1/"
   xmlns:cc="http://creativecommons.org/ns#"
   xmlns:rdf="http://www.w3.org/1999/02/22-rdf-syntax-ns#"
   xmlns:svg="http://www.w3.org/2000/svg"
   xmlns="http://www.w3.org/2000/svg"
   xmlns:sodipodi="http://sodipodi.sourceforge.net/DTD/sodipodi-0.dtd"
   xmlns:inkscape="http://www.inkscape.org/namespaces/inkscape"
   width="600"
   height="600"
   id="svg3922"
   version="1.1"
   inkscape:version="0.48.5 r10040"
   sodipodi:docname="Nuovo documento 7">
  <defs
     id="defs3924" />
  <sodipodi:namedview
     id="base"
     pagecolor="#ffffff"
     bordercolor="#666666"
     borderopacity="1.0"
     inkscape:pageopacity="0.0"
     inkscape:pageshadow="2"
     inkscape:zoom="0.35"
     inkscape:cx="375"
     inkscape:cy="520.01282"
     inkscape:document-units="px"
     inkscape:current-layer="layer1"
     showgrid="false"
     fit-margin-top="0"
     fit-margin-left="0"
     fit-margin-right="0"
     fit-margin-bottom="0"
     inkscape:window-width="1366"
     inkscape:window-height="705"
     inkscape:window-x="-8"
     inkscape:window-y="-8"
     inkscape:window-maximized="1" />
  <metadata
     id="metadata3927">
    <rdf:RDF>
      <cc:Work
         rdf:about="">
        <dc:format>image/svg+xml</dc:format>
        <dc:type
           rdf:resource="http://purl.org/dc/dcmitype/StillImage" />
        <dc:title></dc:title>
      </cc:Work>
    </rdf:RDF>
  </metadata>
  <g
     inkscape:label="Livello 1"
     inkscape:groupmode="layer"
     id="layer1"
     transform="translate(0,-452.375)">
    <rect
       style="fill:#ffffff;fill-opacity:1;stroke:#000000;stroke-width:0.99999994;stroke-linecap:butt;stroke-linejoin:miter;stroke-miterlimit:4;stroke-opacity:1;stroke-dasharray:none"
       id="rect3798"
       width="599"
       height="598.99994"
       x="0.49999997"
       y="452.86224"
       inkscape:export-filename="C:\Users\utente\Desktop\CANC30.png"
       inkscape:export-xdpi="90"
       inkscape:export-ydpi="90" />
    <rect
       style="fill:none;stroke:#000000;stroke-width:8.99999905;stroke-linecap:butt;stroke-linejoin:miter;stroke-miterlimit:4;stroke-opacity:1;stroke-dasharray:none"
       id="rect3802"
       width="581.99994"
       height="581.99994"
       x="9"
       y="461.36224"
       rx="31.726187"
       ry="31.726187"
       inkscape:export-filename="C:\Users\utente\Desktop\CANC30.png"
       inkscape:export-xdpi="90"
       inkscape:export-ydpi="90" />
    <path
       sodipodi:type="arc"
       style="fill:#ffffff;fill-opacity:1;stroke:#000000;stroke-width:0.60889953;stroke-miterlimit:4;stroke-opacity:1;stroke-dasharray:none"
       id="path3808-1-2"
       sodipodi:cx="1450.5791"
       sodipodi:cy="727.09308"
       sodipodi:rx="169.70563"
       sodipodi:ry="195.96959"
       d="m 1620.2847,727.09308 c 0,108.23101 -75.9798,195.96959 -169.7056,195.96959 -93.7258,0 -169.7056,-87.73858 -169.7056,-195.96959 0,-108.23102 75.9798,-195.96959 169.7056,-195.96959 93.7258,0 169.7056,87.73857 169.7056,195.96959 z"
       transform="matrix(0.88241029,0,0,0.76414918,-980.00599,286.76742)" />
    <path
       sodipodi:type="arc"
       style="fill:#d40000;fill-opacity:1;fill-rule:evenodd;stroke:none"
       id="path3002"
       sodipodi:cx="-134.28572"
       sodipodi:cy="285"
       sodipodi:rx="95.714287"
       sodipodi:ry="103.57143"
       d="m -38.571434,285 c 0,57.20092 -42.852746,103.57143 -95.714286,103.57143 -52.86154,0 -95.71429,-46.37051 -95.71429,-103.57143 0,-57.20092 42.85275,-103.57143 95.71429,-103.57143 52.86154,0 95.714286,46.37051 95.714286,103.57143 z"
       transform="matrix(1.5149254,0,0,1.4,503.43283,443.375)" />
    <path
       transform="matrix(1.1231343,0,0,1.0379311,450.82088,546.56463)"
       d="m -38.571434,285 c 0,57.20092 -42.852746,103.57143 -95.714286,103.57143 -52.86154,0 -95.71429,-46.37051 -95.71429,-103.57143 0,-57.20092 42.85275,-103.57143 95.71429,-103.57143 52.86154,0 95.714286,46.37051 95.714286,103.57143 z"
       sodipodi:ry="103.57143"
       sodipodi:rx="95.714287"
       sodipodi:cy="285"
       sodipodi:cx="-134.28572"
       id="path3772"
       style="fill:#ffffff;fill-opacity:1;fill-rule:evenodd;stroke:none"
       sodipodi:type="arc" />
    <g
       style="font-size:85.59338379px;font-style:normal;font-weight:normal;line-height:125%;letter-spacing:0px;word-spacing:0px;fill:#000000;fill-opacity:1;stroke:none;font-family:Sans"
       id="text3787">
      <path
         d="m 231.7901,514.73162 24.47801,0 0,9.75882 -11.63953,21.56813 11.89813,0 0,10.44319 -25.2512,0 0,-9.75882 11.64215,-21.74053 -11.12756,0 z"
         style="font-variant:normal;font-stretch:normal;text-align:center;text-anchor:middle;fill:#000000;font-family:CodiceNeroCondensed;-inkscape-font-specification:CodiceNeroCondensed"
         id="path3979"
         inkscape:connector-curvature="0" />
      <path
         d="m 278.05044,514.64542 c 5.02044,5e-5 8.98648,2.28303 11.89813,6.84894 2.56679,4.05053 3.8502,8.92907 3.85024,14.63561 -4e-5,5.47847 -1.28345,10.21508 -3.85024,14.20984 -3.02485,4.56422 -7.07708,6.84632 -12.15673,6.84632 -4.67742,0 -8.49979,-2.05398 -11.46713,-6.16195 -2.85416,-3.9373 -4.28124,-8.90203 -4.28124,-14.89421 0,-5.64908 1.22682,-10.44228 3.68046,-14.37963 2.85414,-4.73657 6.96298,-7.10487 12.32651,-7.10492 z m -0.1724,31.84154 c 1.54112,1e-5 2.62514,-1.02654 3.25207,-3.07967 0.4005,-1.48366 0.60076,-3.93816 0.60078,-7.36352 -2e-5,-2.96558 -0.11408,-5.07616 -0.34218,-6.33174 -0.5712,-2.73919 -1.74143,-4.1088 -3.51067,-4.10883 -1.59688,3e-5 -2.6809,1.08405 -3.25207,3.25206 -0.39879,1.42624 -0.59818,3.82241 -0.59817,7.18851 -1e-5,3.65348 0.17064,6.13585 0.51197,7.44711 0.57117,1.9974 1.68392,2.99609 3.33827,2.99608 z"
         style="font-variant:normal;font-stretch:normal;text-align:center;text-anchor:middle;fill:#000000;font-family:CodiceNeroCondensed;-inkscape-font-specification:CodiceNeroCondensed"
         id="path3981"
         inkscape:connector-curvature="0" />
      <path
         d="m 330.21936,524.23445 0,32.26731 -12.06792,0 0,-28.75925 c -2e-5,-1.59858 -0.85592,-2.39788 -2.5677,-2.39791 -1.71181,3e-5 -2.56771,0.79933 -2.56769,2.39791 l 0,28.75925 -12.07053,0 0,-40.99957 9.84502,0 0.68437,1.79713 c 2.11056,-2.05307 4.59292,-3.07962 7.4471,-3.07967 2.90986,5e-5 5.52022,1.01267 7.83109,3.03788 2.3108,2.02529 3.46622,4.35093 3.46626,6.97692 z"
         style="font-variant:normal;font-stretch:normal;text-align:center;text-anchor:middle;fill:#000000;font-family:CodiceNeroCondensed;-inkscape-font-specification:CodiceNeroCondensed"
         id="path3983"
         inkscape:connector-curvature="0" />
      <path
         d="m 366.11226,525.4308 0,19.17283 c -4e-5,1.65609 0.77053,2.48412 2.31171,2.48411 0.62861,10e-6 1.25638,-0.11492 1.88332,-0.3448 l -2.99608,9.33043 c -0.96999,0.2856 -2.02528,0.42839 -3.16587,0.42839 -3.3679,0 -6.16371,-1.16935 -8.38746,-3.50805 -2.16981,2.3387 -4.93776,3.50805 -8.30387,3.50805 -2.85243,0 -5.22074,-0.88463 -7.10492,-2.6539 -2.16805,-1.99738 -3.25208,-4.76446 -3.25207,-8.30126 -10e-6,-2.56855 0.59904,-5.02218 1.79712,-7.36091 1.65607,-3.19544 4.1959,-5.62121 7.61951,-7.27731 l 7.10231,-3.42186 c -2e-5,-0.45621 -0.0566,-0.85586 -0.16979,-1.19895 -0.22814,-0.79927 -0.65653,-1.25552 -1.28516,-1.36875 -2.85243,-0.45621 -6.01916,1.19812 -9.50021,4.963 l -5.81977,-7.36091 c 5.47844,-5.19281 10.98475,-7.78924 16.51894,-7.78929 2.39615,5e-5 4.73572,0.51376 7.01872,1.54114 2.05483,0.91254 3.59509,2.42495 4.62081,4.53723 0.74181,1.5969 1.11272,3.13717 1.11276,4.62081 z m -12.4963,12.4963 c -1.02571,0.45801 -1.9382,1.22858 -2.73749,2.31171 -1.02744,1.3705 -1.54115,2.79758 -1.54114,4.28123 -1e-5,0.96998 0.34217,1.45496 1.02656,1.45495 0.91248,10e-6 1.9965,-0.5999 3.25207,-1.79974 z"
         style="font-variant:normal;font-stretch:normal;text-align:center;text-anchor:middle;fill:#000000;font-family:CodiceNeroCondensed;-inkscape-font-specification:CodiceNeroCondensed"
         id="path3985"
         inkscape:connector-curvature="0" />
    </g>
    <g
       style="font-size:85.59338379px;font-style:normal;font-weight:normal;line-height:125%;letter-spacing:0px;word-spacing:0px;fill:#000000;fill-opacity:1;stroke:none;font-family:Sans"
       id="text3791">
      <path
         d="m 50.43964,593.9815 0,18.06007 6.16195,0 0,8.81585 -6.16195,0 0,22.25512 c -2e-5,1.19809 0.599022,1.79714 1.797126,1.79712 0.969939,2e-5 2.14016,-0.34304 3.510667,-1.02917 1.198058,-0.56942 1.939895,-1.08226 2.225511,-1.53852 l 2.053113,9.41401 c -3.366155,1.88246 -6.761015,2.82369 -10.184589,2.82369 -3.367886,0 -6.164575,-0.89856 -8.390074,-2.69569 -2.22552,-1.79712 -3.338274,-4.23595 -3.338267,-7.3165 l 0,-23.79626 -6.161951,0 0,-8.72965 6.161951,0 0,-12.32651 z"
         style="font-variant:normal;font-stretch:normal;text-align:center;text-anchor:middle;fill:#000000;font-family:CodiceNeroCondensed;-inkscape-font-specification:CodiceNeroCondensed"
         id="path3988"
         inkscape:connector-curvature="0" />
      <path
         d="m 79.65601,628.7303 0,25.3374 -12.668699,0 0,-41.25556 12.838486,0 c 0.285572,5e-5 0.428366,0.22817 0.428384,0.68437 -1.8e-5,0.39883 -0.142812,0.99787 -0.428384,1.79713 2.967328,-2.45359 6.248996,-3.62381 9.845015,-3.51066 l 0,11.21375 c -0.686139,-0.1149 -1.427976,-0.17236 -2.225512,-0.1724 -5.19288,4e-5 -7.789308,1.96869 -7.78929,5.90597 z"
         style="font-variant:normal;font-stretch:normal;text-align:center;text-anchor:middle;fill:#000000;font-family:CodiceNeroCondensed;-inkscape-font-specification:CodiceNeroCondensed"
         id="path3990"
         inkscape:connector-curvature="0" />
      <path
         d="m 123.54195,622.91053 0,19.17284 c -4e-5,1.65608 0.77053,2.48412 2.31171,2.48411 0.62861,10e-6 1.25638,-0.11492 1.88332,-0.3448 l -2.99608,9.33043 c -0.96999,0.28559 -2.02528,0.42839 -3.16587,0.42839 -3.36789,0 -6.16371,-1.16935 -8.38746,-3.50806 -2.1698,2.33871 -4.93776,3.50806 -8.30387,3.50806 -2.85243,0 -5.220734,-0.88463 -7.104923,-2.6539 -2.168049,-1.99738 -3.252071,-4.76447 -3.252068,-8.30126 -3e-6,-2.56855 0.599039,-5.02219 1.797127,-7.36091 1.656067,-3.19545 4.195894,-5.62122 7.619504,-7.27732 l 7.10231,-3.42185 c -2e-5,-0.45622 -0.0566,-0.85587 -0.16979,-1.19896 -0.22814,-0.79927 -0.65653,-1.25551 -1.28515,-1.36874 -2.85244,-0.45621 -6.01917,1.19812 -9.50022,4.963 l -5.819767,-7.36091 c 5.478442,-5.19282 10.984747,-7.78924 16.518937,-7.78929 2.39615,5e-5 4.73572,0.51376 7.01872,1.54114 2.05483,0.91254 3.5951,2.42494 4.62081,4.53722 0.74181,1.59691 1.11272,3.13717 1.11276,4.62081 z m -12.4963,12.4963 c -1.02571,0.45801 -1.9382,1.22858 -2.73749,2.31171 -1.02744,1.37051 -1.54115,2.79758 -1.54114,4.28124 -1e-5,0.96998 0.34217,1.45496 1.02656,1.45494 0.91248,2e-5 1.9965,-0.5999 3.25207,-1.79974 z"
         style="font-variant:normal;font-stretch:normal;text-align:center;text-anchor:middle;fill:#000000;font-family:CodiceNeroCondensed;-inkscape-font-specification:CodiceNeroCondensed"
         id="path3992"
         inkscape:connector-curvature="0" />
      <path
         d="m 155.42789,603.9101 c -1.4837,-0.51366 -2.79672,-0.77052 -3.93906,-0.77057 -2.11059,5e-5 -3.16588,0.88468 -3.16586,2.65389 l 0,5.47758 5.73356,0 0,8.72965 -5.81976,0 0,33.81106 -12.4101,0 0,-33.81106 -5.394,0 0,-8.72965 5.56378,0 0,-7.2747 c 0,-2.91157 1.11275,-5.36607 3.33827,-7.36352 2.45362,-2.16798 5.73442,-3.252 9.8424,-3.25207 3.0248,7e-5 6.27773,0.62784 9.75882,1.88333 z"
         style="font-variant:normal;font-stretch:normal;text-align:center;text-anchor:middle;fill:#000000;font-family:CodiceNeroCondensed;-inkscape-font-specification:CodiceNeroCondensed"
         id="path3994"
         inkscape:connector-curvature="0" />
      <path
         d="m 185.68648,603.9101 c -1.4837,-0.51366 -2.79671,-0.77052 -3.93905,-0.77057 -2.1106,5e-5 -3.16589,0.88468 -3.16587,2.65389 l 0,5.47758 5.73357,0 0,8.72965 -5.81977,0 0,33.81106 -12.4101,0 0,-33.81106 -5.39399,0 0,-8.72965 5.56378,0 0,-7.2747 c -1e-5,-2.91157 1.11275,-5.36607 3.33827,-7.36352 2.45362,-2.16798 5.73442,-3.252 9.8424,-3.25207 3.02479,7e-5 6.27773,0.62784 9.75882,1.88333 z"
         style="font-variant:normal;font-stretch:normal;text-align:center;text-anchor:middle;fill:#000000;font-family:CodiceNeroCondensed;-inkscape-font-specification:CodiceNeroCondensed"
         id="path3996"
         inkscape:connector-curvature="0" />
      <path
         d="m 200.62249,593.55311 c 1.99738,6e-5 3.55245,0.62784 4.66522,1.88333 1.11274,1.25561 1.66912,2.73928 1.66913,4.45102 -1e-5,1.71185 -0.51373,3.16679 -1.54114,4.36482 -1.1981,1.25561 -2.79583,1.91211 -4.79321,1.96953 -2.05486,0.0558 -3.63866,-0.54414 -4.75141,-1.79974 -1.11276,-1.2555 -1.66914,-2.73917 -1.66913,-4.45102 -1e-5,-1.71174 0.55637,-3.20935 1.66913,-4.49282 1.11275,-1.28335 2.69655,-1.92506 4.75141,-1.92512 z m -6.24815,18.83065 12.4963,0 0,41.42795 -12.4963,0 z"
         style="font-variant:normal;font-stretch:normal;text-align:center;text-anchor:middle;fill:#000000;font-family:CodiceNeroCondensed;-inkscape-font-specification:CodiceNeroCondensed"
         id="path3998"
         inkscape:connector-curvature="0" />
      <path
         d="m 229.56198,611.61319 c 5.02044,4e-5 8.81495,2.45368 11.38354,7.3609 1.0274,2.05489 1.79797,4.50853 2.31171,7.36091 l -10.35698,2.5677 c 0.11317,-4.05221 -1.05705,-6.07833 -3.51067,-6.07837 -2.62431,4e-5 -3.99392,2.99612 -4.10884,8.98825 -0.17067,7.64651 1.02829,11.52722 3.59687,11.64214 2.39615,0.11321 3.67956,-1.91291 3.85024,-6.07836 l 10.35699,2.13931 c -0.28563,2.05487 -0.82807,3.93819 -1.62734,5.64998 -1.93995,4.10797 -4.99263,6.90379 -9.15804,8.38746 -1.08317,0.40053 -2.25252,0.60079 -3.50805,0.60078 -3.99479,10e-6 -7.47585,-1.74052 -10.44319,-5.22159 -3.4236,-3.99476 -5.13539,-9.41574 -5.13539,-16.26295 0,-7.36087 1.91118,-12.92465 5.73356,-16.69134 2.96734,-2.90984 6.50587,-4.36478 10.61559,-4.36482 z"
         style="font-variant:normal;font-stretch:normal;text-align:center;text-anchor:middle;fill:#000000;font-family:CodiceNeroCondensed;-inkscape-font-specification:CodiceNeroCondensed"
         id="path4000"
         inkscape:connector-curvature="0" />
      <path
         d="m 265.34518,612.12516 c 5.02043,5e-5 8.98647,2.28302 11.89812,6.84893 2.5668,4.05054 3.85021,8.92907 3.85024,14.63562 -3e-5,5.47846 -1.28344,10.21507 -3.85024,14.20984 -3.02484,4.56421 -7.07708,6.84632 -12.15672,6.84632 -4.67742,0 -8.4998,-2.05398 -11.46713,-6.16195 -2.85417,-3.9373 -4.28124,-8.90203 -4.28124,-14.89421 0,-5.64908 1.22681,-10.44229 3.68045,-14.37963 2.85415,-4.73657 6.96298,-7.10487 12.32652,-7.10492 z m -0.1724,31.84153 c 1.54112,2e-5 2.62514,-1.02654 3.25206,-3.07967 0.4005,-1.48365 0.60076,-3.93816 0.60079,-7.36351 -3e-5,-2.96558 -0.11409,-5.07616 -0.34219,-6.33174 -0.5712,-2.73919 -1.74142,-4.1088 -3.51066,-4.10884 -1.59689,4e-5 -2.68091,1.08406 -3.25207,3.25207 -0.3988,1.42624 -0.59819,3.8224 -0.59817,7.18851 -2e-5,3.65348 0.17064,6.13584 0.51197,7.4471 0.57116,1.9974 1.68392,2.9961 3.33827,2.99608 z"
         style="font-variant:normal;font-stretch:normal;text-align:center;text-anchor:middle;fill:#000000;font-family:CodiceNeroCondensed;-inkscape-font-specification:CodiceNeroCondensed"
         id="path4002"
         inkscape:connector-curvature="0" />
      <path
         d="m 309.72481,593.8091 12.5825,0 0,48.19068 c -2e-5,1.36876 0.91247,2.05313 2.73748,2.05311 1.42793,2e-5 2.76968,-0.3709 4.02525,-1.11275 l 2.3091,9.50022 c -2.90991,1.54114 -5.93385,2.31171 -9.07183,2.31171 -3.87986,0 -7.01873,-1.28428 -9.41663,-3.85286 -2.11059,-2.2255 -3.16588,-4.73573 -3.16587,-7.53069 z"
         style="font-variant:normal;font-stretch:normal;text-align:center;text-anchor:middle;fill:#000000;font-family:CodiceNeroCondensed;-inkscape-font-specification:CodiceNeroCondensed"
         id="path4004"
         inkscape:connector-curvature="0" />
      <path
         d="m 343.72394,593.55311 c 1.99737,6e-5 3.55244,0.62784 4.66521,1.88333 1.11274,1.25561 1.66912,2.73928 1.66913,4.45102 -1e-5,1.71185 -0.51373,3.16679 -1.54114,4.36482 -1.1981,1.25561 -2.79583,1.91211 -4.7932,1.96953 -2.05487,0.0558 -3.63867,-0.54414 -4.75142,-1.79974 -1.11276,-1.2555 -1.66914,-2.73917 -1.66913,-4.45102 -10e-6,-1.71174 0.55637,-3.20935 1.66913,-4.49282 1.11275,-1.28335 2.69655,-1.92506 4.75142,-1.92512 z m -6.24815,18.83065 12.4963,0 0,41.42795 -12.4963,0 z"
         style="font-variant:normal;font-stretch:normal;text-align:center;text-anchor:middle;fill:#000000;font-family:CodiceNeroCondensed;-inkscape-font-specification:CodiceNeroCondensed"
         id="path4006"
         inkscape:connector-curvature="0" />
      <path
         d="m 386.18628,615.97801 c 1.82669,-2.90984 4.79404,-4.36478 8.90204,-4.36482 3.0805,4e-5 5.70566,0.91254 7.87549,2.73748 2.45359,2.0549 3.6804,4.79412 3.68046,8.21768 l 0,31.32695 -12.49892,0 0,-28.67306 c -4e-5,-1.82669 -0.97,-2.74006 -2.90988,-2.74009 -1.82502,3e-5 -2.73752,0.9134 -2.73748,2.74009 l 0,28.67306 -12.4963,0 0,-28.67306 c -2e-5,-1.93988 -0.94212,-2.90984 -2.8263,-2.90988 -1.88247,4e-5 -2.8237,0.97 -2.82368,2.90988 l 0,28.67306 -11.81193,0 0,-41.34175 10.101,0 0.68437,2.05572 c 2.16803,-2.168 4.90725,-3.25202 8.21768,-3.25207 3.70742,5e-5 6.58856,1.54032 8.64345,4.62081 z"
         style="font-variant:normal;font-stretch:normal;text-align:center;text-anchor:middle;fill:#000000;font-family:CodiceNeroCondensed;-inkscape-font-specification:CodiceNeroCondensed"
         id="path4008"
         inkscape:connector-curvature="0" />
      <path
         d="m 421.96164,593.55311 c 1.99737,6e-5 3.55244,0.62784 4.66521,1.88333 1.11274,1.25561 1.66912,2.73928 1.66914,4.45102 -2e-5,1.71185 -0.51373,3.16679 -1.54114,4.36482 -1.1981,1.25561 -2.79584,1.91211 -4.79321,1.96953 -2.05487,0.0558 -3.63867,-0.54414 -4.75142,-1.79974 -1.11276,-1.2555 -1.66914,-2.73917 -1.66913,-4.45102 -10e-6,-1.71174 0.55637,-3.20935 1.66913,-4.49282 1.11275,-1.28335 2.69655,-1.92506 4.75142,-1.92512 z m -6.24815,18.83065 12.4963,0 0,41.42795 -12.4963,0 z"
         style="font-variant:normal;font-stretch:normal;text-align:center;text-anchor:middle;fill:#000000;font-family:CodiceNeroCondensed;-inkscape-font-specification:CodiceNeroCondensed"
         id="path4010"
         inkscape:connector-curvature="0" />
      <path
         d="m 451.15711,593.9815 0,18.06007 6.16195,0 0,8.81585 -6.16195,0 0,22.25512 c -2e-5,1.19809 0.59902,1.79714 1.79712,1.79712 0.96994,2e-5 2.14016,-0.34304 3.51067,-1.02917 1.19806,-0.56942 1.9399,-1.08226 2.22551,-1.53852 l 2.05312,9.41401 c -3.36616,1.88246 -6.76102,2.82369 -10.18459,2.82369 -3.36789,0 -6.16458,-0.89856 -8.39008,-2.69569 -2.22552,-1.79712 -3.33827,-4.23595 -3.33827,-7.3165 l 0,-23.79626 -6.16195,0 0,-8.72965 6.16195,0 0,-12.32651 z"
         style="font-variant:normal;font-stretch:normal;text-align:center;text-anchor:middle;fill:#000000;font-family:CodiceNeroCondensed;-inkscape-font-specification:CodiceNeroCondensed"
         id="path4012"
         inkscape:connector-curvature="0" />
      <path
         d="m 494.8367,622.91053 0,19.17284 c -3e-5,1.65608 0.77054,2.48412 2.31171,2.48411 0.62861,10e-6 1.25639,-0.11492 1.88333,-0.3448 l -2.99608,9.33043 c -0.97,0.28559 -2.02529,0.42839 -3.16587,0.42839 -3.3679,0 -6.16372,-1.16935 -8.38746,-3.50806 -2.16981,2.33871 -4.93777,3.50806 -8.30388,3.50806 -2.85243,0 -5.22073,-0.88463 -7.10492,-2.6539 -2.16805,-1.99738 -3.25207,-4.76447 -3.25207,-8.30126 0,-2.56855 0.59904,-5.02219 1.79713,-7.36091 1.65607,-3.19545 4.1959,-5.62122 7.6195,-7.27732 l 7.10231,-3.42185 c -2e-5,-0.45622 -0.0566,-0.85587 -0.16979,-1.19896 -0.22814,-0.79927 -0.65652,-1.25551 -1.28515,-1.36874 -2.85243,-0.45621 -6.01917,1.19812 -9.50022,4.963 l -5.81976,-7.36091 c 5.47844,-5.19282 10.98475,-7.78924 16.51894,-7.78929 2.39614,5e-5 4.73571,0.51376 7.01872,1.54114 2.05482,0.91254 3.59509,2.42494 4.62081,4.53722 0.7418,1.59691 1.11272,3.13717 1.11275,4.62081 z m -12.4963,12.4963 c -1.0257,0.45801 -1.9382,1.22858 -2.73748,2.31171 -1.02745,1.37051 -1.54116,2.79758 -1.54114,4.28124 -2e-5,0.96998 0.34217,1.45496 1.02655,1.45494 0.91248,2e-5 1.9965,-0.5999 3.25207,-1.79974 z"
         style="font-variant:normal;font-stretch:normal;text-align:center;text-anchor:middle;fill:#000000;font-family:CodiceNeroCondensed;-inkscape-font-specification:CodiceNeroCondensed"
         id="path4014"
         inkscape:connector-curvature="0" />
      <path
         d="m 519.5315,593.9815 0,18.06007 6.16195,0 0,8.81585 -6.16195,0 0,22.25512 c -2e-5,1.19809 0.59902,1.79714 1.79712,1.79712 0.96994,2e-5 2.14016,-0.34304 3.51067,-1.02917 1.19806,-0.56942 1.9399,-1.08226 2.22551,-1.53852 l 2.05311,9.41401 c -3.36615,1.88246 -6.76101,2.82369 -10.18458,2.82369 -3.36789,0 -6.16458,-0.89856 -8.39008,-2.69569 -2.22552,-1.79712 -3.33827,-4.23595 -3.33827,-7.3165 l 0,-23.79626 -6.16195,0 0,-8.72965 6.16195,0 0,-12.32651 z"
         style="font-variant:normal;font-stretch:normal;text-align:center;text-anchor:middle;fill:#000000;font-family:CodiceNeroCondensed;-inkscape-font-specification:CodiceNeroCondensed"
         id="path4016"
         inkscape:connector-curvature="0" />
      <path
         d="m 550.545,612.12516 c 5.02044,5e-5 8.98648,2.28302 11.89813,6.84893 2.56679,4.05054 3.85021,8.92907 3.85024,14.63562 -3e-5,5.47846 -1.28345,10.21507 -3.85024,14.20984 -3.02484,4.56421 -7.07708,6.84632 -12.15672,6.84632 -4.67742,0 -8.4998,-2.05398 -11.46714,-6.16195 -2.85416,-3.9373 -4.28123,-8.90203 -4.28123,-14.89421 0,-5.64908 1.22681,-10.44229 3.68045,-14.37963 2.85415,-4.73657 6.96298,-7.10487 12.32651,-7.10492 z m -0.17239,31.84153 c 1.54112,2e-5 2.62514,-1.02654 3.25206,-3.07967 0.4005,-1.48365 0.60076,-3.93816 0.60079,-7.36351 -3e-5,-2.96558 -0.11409,-5.07616 -0.34219,-6.33174 -0.5712,-2.73919 -1.74142,-4.1088 -3.51066,-4.10884 -1.59689,4e-5 -2.68091,1.08406 -3.25207,3.25207 -0.3988,1.42624 -0.59819,3.8224 -0.59817,7.18851 -2e-5,3.65348 0.17064,6.13584 0.51197,7.4471 0.57116,1.9974 1.68392,2.9961 3.33827,2.99608 z"
         style="font-variant:normal;font-stretch:normal;text-align:center;text-anchor:middle;fill:#000000;font-family:CodiceNeroCondensed;-inkscape-font-specification:CodiceNeroCondensed"
         id="path4018"
         inkscape:connector-curvature="0" />
    </g>
    <path
       inkscape:connector-curvature="0"
       id="path4175"
       d="m 527.49998,697.375 -88.0347,0 -366.965299,290 88.084899,0 z"
       style="fill:#d40000;fill-opacity:1;stroke:#ffffff;stroke-width:10;stroke-miterlimit:4;stroke-opacity:1;stroke-dasharray:none" />
    <path
       style="fill:#d40000;fill-opacity:1;stroke:none"
       d="m 527.49998,697.375 -88.0347,0 -366.965299,290 88.084899,0 z"
       id="path4103"
       inkscape:connector-curvature="0" />
  </g>
</svg>
