<?xml version="1.0" encoding="UTF-8" standalone="no"?>
<!-- Created with Inkscape (http://www.inkscape.org/) -->

<svg
   xmlns:dc="http://purl.org/dc/elements/1.1/"
   xmlns:cc="http://creativecommons.org/ns#"
   xmlns:rdf="http://www.w3.org/1999/02/22-rdf-syntax-ns#"
   xmlns:svg="http://www.w3.org/2000/svg"
   xmlns="http://www.w3.org/2000/svg"
   xmlns:sodipodi="http://sodipodi.sourceforge.net/DTD/sodipodi-0.dtd"
   xmlns:inkscape="http://www.inkscape.org/namespaces/inkscape"
   version="1.1"
   width="200"
   height="200"
   id="svg2"
   inkscape:version="0.47 r22583"
   sodipodi:docname="Italian traffic signs - icona parco giochi.svg"
   sodipodi:version="0.32"
   inkscape:output_extension="org.inkscape.output.svg.inkscape">
  <metadata
     id="metadata2877">
    <rdf:RDF>
      <cc:Work
         rdf:about="">
        <dc:format>image/svg+xml</dc:format>
        <dc:type
           rdf:resource="http://purl.org/dc/dcmitype/StillImage" />
        <dc:title></dc:title>
      </cc:Work>
    </rdf:RDF>
  </metadata>
  <sodipodi:namedview
     pagecolor="#ffffff"
     bordercolor="#666666"
     borderopacity="1"
     objecttolerance="10"
     gridtolerance="10"
     guidetolerance="10"
     inkscape:pageopacity="0"
     inkscape:pageshadow="2"
     inkscape:window-width="1600"
     inkscape:window-height="838"
     id="namedview2875"
     showgrid="false"
     inkscape:zoom="2.3765092"
     inkscape:cx="130.20913"
     inkscape:cy="113.34438"
     inkscape:window-x="-8"
     inkscape:window-y="-8"
     inkscape:window-maximized="1"
     inkscape:current-layer="svg2" />
  <defs
     id="defs4">
    <inkscape:perspective
       sodipodi:type="inkscape:persp3d"
       inkscape:vp_x="0 : 100 : 1"
       inkscape:vp_y="0 : 1000 : 0"
       inkscape:vp_z="200 : 100 : 1"
       inkscape:persp3d-origin="100 : 66.666667 : 1"
       id="perspective2879" />
    <inkscape:perspective
       id="perspective2839"
       inkscape:persp3d-origin="0.5 : 0.33333333 : 1"
       inkscape:vp_z="1 : 0.5 : 1"
       inkscape:vp_y="0 : 1000 : 0"
       inkscape:vp_x="0 : 0.5 : 1"
       sodipodi:type="inkscape:persp3d" />
    <inkscape:perspective
       id="perspective3649"
       inkscape:persp3d-origin="0.5 : 0.33333333 : 1"
       inkscape:vp_z="1 : 0.5 : 1"
       inkscape:vp_y="0 : 1000 : 0"
       inkscape:vp_x="0 : 0.5 : 1"
       sodipodi:type="inkscape:persp3d" />
    <inkscape:perspective
       id="perspective3679"
       inkscape:persp3d-origin="0.5 : 0.33333333 : 1"
       inkscape:vp_z="1 : 0.5 : 1"
       inkscape:vp_y="0 : 1000 : 0"
       inkscape:vp_x="0 : 0.5 : 1"
       sodipodi:type="inkscape:persp3d" />
    <inkscape:perspective
       id="perspective3713"
       inkscape:persp3d-origin="0.5 : 0.33333333 : 1"
       inkscape:vp_z="1 : 0.5 : 1"
       inkscape:vp_y="0 : 1000 : 0"
       inkscape:vp_x="0 : 0.5 : 1"
       sodipodi:type="inkscape:persp3d" />
    <inkscape:perspective
       id="perspective3741"
       inkscape:persp3d-origin="0.5 : 0.33333333 : 1"
       inkscape:vp_z="1 : 0.5 : 1"
       inkscape:vp_y="0 : 1000 : 0"
       inkscape:vp_x="0 : 0.5 : 1"
       sodipodi:type="inkscape:persp3d" />
    <inkscape:perspective
       id="perspective3765"
       inkscape:persp3d-origin="0.5 : 0.33333333 : 1"
       inkscape:vp_z="1 : 0.5 : 1"
       inkscape:vp_y="0 : 1000 : 0"
       inkscape:vp_x="0 : 0.5 : 1"
       sodipodi:type="inkscape:persp3d" />
    <inkscape:perspective
       id="perspective3801"
       inkscape:persp3d-origin="0.5 : 0.33333333 : 1"
       inkscape:vp_z="1 : 0.5 : 1"
       inkscape:vp_y="0 : 1000 : 0"
       inkscape:vp_x="0 : 0.5 : 1"
       sodipodi:type="inkscape:persp3d" />
    <inkscape:perspective
       id="perspective2863"
       inkscape:persp3d-origin="0.5 : 0.33333333 : 1"
       inkscape:vp_z="1 : 0.5 : 1"
       inkscape:vp_y="0 : 1000 : 0"
       inkscape:vp_x="0 : 0.5 : 1"
       sodipodi:type="inkscape:persp3d" />
    <inkscape:perspective
       id="perspective3859"
       inkscape:persp3d-origin="0.5 : 0.33333333 : 1"
       inkscape:vp_z="1 : 0.5 : 1"
       inkscape:vp_y="0 : 1000 : 0"
       inkscape:vp_x="0 : 0.5 : 1"
       sodipodi:type="inkscape:persp3d" />
    <inkscape:perspective
       id="perspective3964"
       inkscape:persp3d-origin="0.5 : 0.33333333 : 1"
       inkscape:vp_z="1 : 0.5 : 1"
       inkscape:vp_y="0 : 1000 : 0"
       inkscape:vp_x="0 : 0.5 : 1"
       sodipodi:type="inkscape:persp3d" />
    <inkscape:perspective
       id="perspective3988"
       inkscape:persp3d-origin="0.5 : 0.33333333 : 1"
       inkscape:vp_z="1 : 0.5 : 1"
       inkscape:vp_y="0 : 1000 : 0"
       inkscape:vp_x="0 : 0.5 : 1"
       sodipodi:type="inkscape:persp3d" />
    <inkscape:perspective
       id="perspective2879-7"
       inkscape:persp3d-origin="0.5 : 0.33333333 : 1"
       inkscape:vp_z="1 : 0.5 : 1"
       inkscape:vp_y="0 : 1000 : 0"
       inkscape:vp_x="0 : 0.5 : 1"
       sodipodi:type="inkscape:persp3d" />
    <inkscape:perspective
       id="perspective4031"
       inkscape:persp3d-origin="0.5 : 0.33333333 : 1"
       inkscape:vp_z="1 : 0.5 : 1"
       inkscape:vp_y="0 : 1000 : 0"
       inkscape:vp_x="0 : 0.5 : 1"
       sodipodi:type="inkscape:persp3d" />
    <inkscape:perspective
       id="perspective4047"
       inkscape:persp3d-origin="0.5 : 0.33333333 : 1"
       inkscape:vp_z="1 : 0.5 : 1"
       inkscape:vp_y="0 : 1000 : 0"
       inkscape:vp_x="0 : 0.5 : 1"
       sodipodi:type="inkscape:persp3d" />
    <inkscape:perspective
       id="perspective4063"
       inkscape:persp3d-origin="0.5 : 0.33333333 : 1"
       inkscape:vp_z="1 : 0.5 : 1"
       inkscape:vp_y="0 : 1000 : 0"
       inkscape:vp_x="0 : 0.5 : 1"
       sodipodi:type="inkscape:persp3d" />
    <inkscape:perspective
       id="perspective4079"
       inkscape:persp3d-origin="0.5 : 0.33333333 : 1"
       inkscape:vp_z="1 : 0.5 : 1"
       inkscape:vp_y="0 : 1000 : 0"
       inkscape:vp_x="0 : 0.5 : 1"
       sodipodi:type="inkscape:persp3d" />
    <inkscape:perspective
       id="perspective4097"
       inkscape:persp3d-origin="0.5 : 0.33333333 : 1"
       inkscape:vp_z="1 : 0.5 : 1"
       inkscape:vp_y="0 : 1000 : 0"
       inkscape:vp_x="0 : 0.5 : 1"
       sodipodi:type="inkscape:persp3d" />
    <inkscape:perspective
       id="perspective4115"
       inkscape:persp3d-origin="0.5 : 0.33333333 : 1"
       inkscape:vp_z="1 : 0.5 : 1"
       inkscape:vp_y="0 : 1000 : 0"
       inkscape:vp_x="0 : 0.5 : 1"
       sodipodi:type="inkscape:persp3d" />
    <inkscape:perspective
       id="perspective4129"
       inkscape:persp3d-origin="0.5 : 0.33333333 : 1"
       inkscape:vp_z="1 : 0.5 : 1"
       inkscape:vp_y="0 : 1000 : 0"
       inkscape:vp_x="0 : 0.5 : 1"
       sodipodi:type="inkscape:persp3d" />
    <inkscape:perspective
       id="perspective4153"
       inkscape:persp3d-origin="0.5 : 0.33333333 : 1"
       inkscape:vp_z="1 : 0.5 : 1"
       inkscape:vp_y="0 : 1000 : 0"
       inkscape:vp_x="0 : 0.5 : 1"
       sodipodi:type="inkscape:persp3d" />
    <inkscape:perspective
       id="perspective4179"
       inkscape:persp3d-origin="0.5 : 0.33333333 : 1"
       inkscape:vp_z="1 : 0.5 : 1"
       inkscape:vp_y="0 : 1000 : 0"
       inkscape:vp_x="0 : 0.5 : 1"
       sodipodi:type="inkscape:persp3d" />
    <inkscape:perspective
       id="perspective4195"
       inkscape:persp3d-origin="0.5 : 0.33333333 : 1"
       inkscape:vp_z="1 : 0.5 : 1"
       inkscape:vp_y="0 : 1000 : 0"
       inkscape:vp_x="0 : 0.5 : 1"
       sodipodi:type="inkscape:persp3d" />
    <inkscape:perspective
       id="perspective4213"
       inkscape:persp3d-origin="0.5 : 0.33333333 : 1"
       inkscape:vp_z="1 : 0.5 : 1"
       inkscape:vp_y="0 : 1000 : 0"
       inkscape:vp_x="0 : 0.5 : 1"
       sodipodi:type="inkscape:persp3d" />
    <inkscape:perspective
       id="perspective4267"
       inkscape:persp3d-origin="0.5 : 0.33333333 : 1"
       inkscape:vp_z="1 : 0.5 : 1"
       inkscape:vp_y="0 : 1000 : 0"
       inkscape:vp_x="0 : 0.5 : 1"
       sodipodi:type="inkscape:persp3d" />
    <inkscape:perspective
       id="perspective4283"
       inkscape:persp3d-origin="0.5 : 0.33333333 : 1"
       inkscape:vp_z="1 : 0.5 : 1"
       inkscape:vp_y="0 : 1000 : 0"
       inkscape:vp_x="0 : 0.5 : 1"
       sodipodi:type="inkscape:persp3d" />
    <inkscape:perspective
       id="perspective4314"
       inkscape:persp3d-origin="0.5 : 0.33333333 : 1"
       inkscape:vp_z="1 : 0.5 : 1"
       inkscape:vp_y="0 : 1000 : 0"
       inkscape:vp_x="0 : 0.5 : 1"
       sodipodi:type="inkscape:persp3d" />
    <inkscape:perspective
       id="perspective4330"
       inkscape:persp3d-origin="0.5 : 0.33333333 : 1"
       inkscape:vp_z="1 : 0.5 : 1"
       inkscape:vp_y="0 : 1000 : 0"
       inkscape:vp_x="0 : 0.5 : 1"
       sodipodi:type="inkscape:persp3d" />
    <inkscape:perspective
       id="perspective4346"
       inkscape:persp3d-origin="0.5 : 0.33333333 : 1"
       inkscape:vp_z="1 : 0.5 : 1"
       inkscape:vp_y="0 : 1000 : 0"
       inkscape:vp_x="0 : 0.5 : 1"
       sodipodi:type="inkscape:persp3d" />
    <inkscape:perspective
       id="perspective3742"
       inkscape:persp3d-origin="0.5 : 0.33333333 : 1"
       inkscape:vp_z="1 : 0.5 : 1"
       inkscape:vp_y="0 : 1000 : 0"
       inkscape:vp_x="0 : 0.5 : 1"
       sodipodi:type="inkscape:persp3d" />
    <inkscape:perspective
       id="perspective3776"
       inkscape:persp3d-origin="0.5 : 0.33333333 : 1"
       inkscape:vp_z="1 : 0.5 : 1"
       inkscape:vp_y="0 : 1000 : 0"
       inkscape:vp_x="0 : 0.5 : 1"
       sodipodi:type="inkscape:persp3d" />
    <inkscape:perspective
       id="perspective3792"
       inkscape:persp3d-origin="0.5 : 0.33333333 : 1"
       inkscape:vp_z="1 : 0.5 : 1"
       inkscape:vp_y="0 : 1000 : 0"
       inkscape:vp_x="0 : 0.5 : 1"
       sodipodi:type="inkscape:persp3d" />
    <inkscape:perspective
       id="perspective3808"
       inkscape:persp3d-origin="0.5 : 0.33333333 : 1"
       inkscape:vp_z="1 : 0.5 : 1"
       inkscape:vp_y="0 : 1000 : 0"
       inkscape:vp_x="0 : 0.5 : 1"
       sodipodi:type="inkscape:persp3d" />
    <inkscape:perspective
       id="perspective3824"
       inkscape:persp3d-origin="0.5 : 0.33333333 : 1"
       inkscape:vp_z="1 : 0.5 : 1"
       inkscape:vp_y="0 : 1000 : 0"
       inkscape:vp_x="0 : 0.5 : 1"
       sodipodi:type="inkscape:persp3d" />
    <inkscape:perspective
       id="perspective4354"
       inkscape:persp3d-origin="0.5 : 0.33333333 : 1"
       inkscape:vp_z="1 : 0.5 : 1"
       inkscape:vp_y="0 : 1000 : 0"
       inkscape:vp_x="0 : 0.5 : 1"
       sodipodi:type="inkscape:persp3d" />
    <inkscape:perspective
       id="perspective4395"
       inkscape:persp3d-origin="0.5 : 0.33333333 : 1"
       inkscape:vp_z="1 : 0.5 : 1"
       inkscape:vp_y="0 : 1000 : 0"
       inkscape:vp_x="0 : 0.5 : 1"
       sodipodi:type="inkscape:persp3d" />
    <inkscape:perspective
       id="perspective4435"
       inkscape:persp3d-origin="0.5 : 0.33333333 : 1"
       inkscape:vp_z="1 : 0.5 : 1"
       inkscape:vp_y="0 : 1000 : 0"
       inkscape:vp_x="0 : 0.5 : 1"
       sodipodi:type="inkscape:persp3d" />
    <inkscape:perspective
       id="perspective4460"
       inkscape:persp3d-origin="0.5 : 0.33333333 : 1"
       inkscape:vp_z="1 : 0.5 : 1"
       inkscape:vp_y="0 : 1000 : 0"
       inkscape:vp_x="0 : 0.5 : 1"
       sodipodi:type="inkscape:persp3d" />
    <inkscape:perspective
       id="perspective4479"
       inkscape:persp3d-origin="0.5 : 0.33333333 : 1"
       inkscape:vp_z="1 : 0.5 : 1"
       inkscape:vp_y="0 : 1000 : 0"
       inkscape:vp_x="0 : 0.5 : 1"
       sodipodi:type="inkscape:persp3d" />
    <inkscape:perspective
       id="perspective4495"
       inkscape:persp3d-origin="0.5 : 0.33333333 : 1"
       inkscape:vp_z="1 : 0.5 : 1"
       inkscape:vp_y="0 : 1000 : 0"
       inkscape:vp_x="0 : 0.5 : 1"
       sodipodi:type="inkscape:persp3d" />
    <inkscape:perspective
       id="perspective4511"
       inkscape:persp3d-origin="0.5 : 0.33333333 : 1"
       inkscape:vp_z="1 : 0.5 : 1"
       inkscape:vp_y="0 : 1000 : 0"
       inkscape:vp_x="0 : 0.5 : 1"
       sodipodi:type="inkscape:persp3d" />
    <inkscape:perspective
       id="perspective4527"
       inkscape:persp3d-origin="0.5 : 0.33333333 : 1"
       inkscape:vp_z="1 : 0.5 : 1"
       inkscape:vp_y="0 : 1000 : 0"
       inkscape:vp_x="0 : 0.5 : 1"
       sodipodi:type="inkscape:persp3d" />
    <inkscape:perspective
       id="perspective4543"
       inkscape:persp3d-origin="0.5 : 0.33333333 : 1"
       inkscape:vp_z="1 : 0.5 : 1"
       inkscape:vp_y="0 : 1000 : 0"
       inkscape:vp_x="0 : 0.5 : 1"
       sodipodi:type="inkscape:persp3d" />
    <inkscape:perspective
       id="perspective4559"
       inkscape:persp3d-origin="0.5 : 0.33333333 : 1"
       inkscape:vp_z="1 : 0.5 : 1"
       inkscape:vp_y="0 : 1000 : 0"
       inkscape:vp_x="0 : 0.5 : 1"
       sodipodi:type="inkscape:persp3d" />
    <inkscape:perspective
       id="perspective4575"
       inkscape:persp3d-origin="0.5 : 0.33333333 : 1"
       inkscape:vp_z="1 : 0.5 : 1"
       inkscape:vp_y="0 : 1000 : 0"
       inkscape:vp_x="0 : 0.5 : 1"
       sodipodi:type="inkscape:persp3d" />
    <inkscape:perspective
       id="perspective4591"
       inkscape:persp3d-origin="0.5 : 0.33333333 : 1"
       inkscape:vp_z="1 : 0.5 : 1"
       inkscape:vp_y="0 : 1000 : 0"
       inkscape:vp_x="0 : 0.5 : 1"
       sodipodi:type="inkscape:persp3d" />
    <inkscape:perspective
       id="perspective4607"
       inkscape:persp3d-origin="0.5 : 0.33333333 : 1"
       inkscape:vp_z="1 : 0.5 : 1"
       inkscape:vp_y="0 : 1000 : 0"
       inkscape:vp_x="0 : 0.5 : 1"
       sodipodi:type="inkscape:persp3d" />
    <inkscape:perspective
       id="perspective4629"
       inkscape:persp3d-origin="0.5 : 0.33333333 : 1"
       inkscape:vp_z="1 : 0.5 : 1"
       inkscape:vp_y="0 : 1000 : 0"
       inkscape:vp_x="0 : 0.5 : 1"
       sodipodi:type="inkscape:persp3d" />
    <inkscape:perspective
       id="perspective4674"
       inkscape:persp3d-origin="0.5 : 0.33333333 : 1"
       inkscape:vp_z="1 : 0.5 : 1"
       inkscape:vp_y="0 : 1000 : 0"
       inkscape:vp_x="0 : 0.5 : 1"
       sodipodi:type="inkscape:persp3d" />
    <inkscape:perspective
       id="perspective4690"
       inkscape:persp3d-origin="0.5 : 0.33333333 : 1"
       inkscape:vp_z="1 : 0.5 : 1"
       inkscape:vp_y="0 : 1000 : 0"
       inkscape:vp_x="0 : 0.5 : 1"
       sodipodi:type="inkscape:persp3d" />
    <inkscape:perspective
       id="perspective4735"
       inkscape:persp3d-origin="0.5 : 0.33333333 : 1"
       inkscape:vp_z="1 : 0.5 : 1"
       inkscape:vp_y="0 : 1000 : 0"
       inkscape:vp_x="0 : 0.5 : 1"
       sodipodi:type="inkscape:persp3d" />
    <inkscape:perspective
       id="perspective4751"
       inkscape:persp3d-origin="0.5 : 0.33333333 : 1"
       inkscape:vp_z="1 : 0.5 : 1"
       inkscape:vp_y="0 : 1000 : 0"
       inkscape:vp_x="0 : 0.5 : 1"
       sodipodi:type="inkscape:persp3d" />
    <inkscape:perspective
       id="perspective4767"
       inkscape:persp3d-origin="0.5 : 0.33333333 : 1"
       inkscape:vp_z="1 : 0.5 : 1"
       inkscape:vp_y="0 : 1000 : 0"
       inkscape:vp_x="0 : 0.5 : 1"
       sodipodi:type="inkscape:persp3d" />
    <inkscape:perspective
       id="perspective4787"
       inkscape:persp3d-origin="0.5 : 0.33333333 : 1"
       inkscape:vp_z="1 : 0.5 : 1"
       inkscape:vp_y="0 : 1000 : 0"
       inkscape:vp_x="0 : 0.5 : 1"
       sodipodi:type="inkscape:persp3d" />
    <inkscape:perspective
       id="perspective4813"
       inkscape:persp3d-origin="0.5 : 0.33333333 : 1"
       inkscape:vp_z="1 : 0.5 : 1"
       inkscape:vp_y="0 : 1000 : 0"
       inkscape:vp_x="0 : 0.5 : 1"
       sodipodi:type="inkscape:persp3d" />
    <inkscape:perspective
       id="perspective4905"
       inkscape:persp3d-origin="0.5 : 0.33333333 : 1"
       inkscape:vp_z="1 : 0.5 : 1"
       inkscape:vp_y="0 : 1000 : 0"
       inkscape:vp_x="0 : 0.5 : 1"
       sodipodi:type="inkscape:persp3d" />
    <inkscape:perspective
       id="perspective4921"
       inkscape:persp3d-origin="0.5 : 0.33333333 : 1"
       inkscape:vp_z="1 : 0.5 : 1"
       inkscape:vp_y="0 : 1000 : 0"
       inkscape:vp_x="0 : 0.5 : 1"
       sodipodi:type="inkscape:persp3d" />
    <inkscape:perspective
       id="perspective4941"
       inkscape:persp3d-origin="0.5 : 0.33333333 : 1"
       inkscape:vp_z="1 : 0.5 : 1"
       inkscape:vp_y="0 : 1000 : 0"
       inkscape:vp_x="0 : 0.5 : 1"
       sodipodi:type="inkscape:persp3d" />
    <inkscape:perspective
       id="perspective4957"
       inkscape:persp3d-origin="0.5 : 0.33333333 : 1"
       inkscape:vp_z="1 : 0.5 : 1"
       inkscape:vp_y="0 : 1000 : 0"
       inkscape:vp_x="0 : 0.5 : 1"
       sodipodi:type="inkscape:persp3d" />
  </defs>
  <path
     style="fill:#ffffff;fill-opacity:1;stroke:none"
     d="m -4.9305571,-3.438081 207.7153771,0 0,207.348391 -207.7153771,0 0,-207.348391 z"
     id="rect2881" />
  <path
     style="fill:none;stroke:#000000;stroke-width:3.01908374000000010;stroke-miterlimit:4;stroke-opacity:1;fill-opacity:1"
     d="m 21.822154,0.3469825 157.629776,0 c 10.29256,0 18.57863,8.3934701 18.57863,18.8194385 l 0,159.672889 c 0,10.42597 -8.28607,18.81944 -18.57863,18.81944 l -157.629776,0 c -10.292563,0 -18.5786336,-8.39347 -18.5786336,-18.81944 l 0,-159.672889 c 0,-10.4259684 8.2860706,-18.8194385 18.5786336,-18.8194385 z"
     id="rect4614" />
  <path
     style="fill:#000000"
     d="m 104.07173,178.21039 c -0.39223,-0.15827 -0.71315,-0.65147 -0.71315,-1.096 0,-0.9964 5.42485,-1.15288 6.02988,-0.17393 0.78104,1.26375 -3.05897,2.18095 -5.31673,1.26993 z m 7.66159,-0.0273 c -0.36314,-0.58757 0.52943,-5.22144 2.20831,-11.46453 0.56512,-2.1015 1.69675,-1.10957 1.56105,1.36834 -0.29904,5.46048 -0.33071,8.01389 -0.11253,9.07504 0.19009,0.92457 -0.10702,1.1742 -1.56605,1.31582 -0.99035,0.0961 -1.93121,-0.0365 -2.09078,-0.29467 z M 40.6937,177.10438 c 0.471724,-2.44946 10.747639,-2.88338 10.747639,-0.45384 0,0.69627 -0.715108,0.85538 -3.565744,0.79339 -1.96116,-0.0426 -4.425277,0.10184 -5.475815,0.32108 -1.661351,0.34671 -1.883508,0.26068 -1.70608,-0.66063 z m 77.29755,-2.08189 c -0.774,-6.44384 -0.12081,-11.83828 1.43345,-11.83828 0.26341,0 0.47894,3.33754 0.47894,7.41675 0,5.87489 -0.16139,7.41675 -0.77631,7.41675 -0.51048,0 -0.89951,-1.02568 -1.13608,-2.99522 z m 29.02739,-1.33698 c -0.87997,-8.21699 -5.39469,-19.7654 -8.87042,-22.69004 -3.54661,-2.98426 -8.60041,-3.13916 -11.13253,-0.3412 -1.41209,1.56034 -3.11842,1.4659 -3.11842,-0.1726 0,-0.71069 -0.80874,-2.94988 -1.79721,-4.97597 -1.24868,-2.55944 -1.95688,-5.08175 -2.32035,-8.26403 -0.92339,-8.08454 -1.93782,-11.53606 -4.20299,-14.30041 -1.14217,-1.39386 -2.30463,-2.3934 -2.58325,-2.22121 -0.72873,0.45038 -0.62422,4.66511 0.15163,6.11479 0.84973,1.58774 0.7381,4.21185 -0.28514,6.70276 -0.44654,1.08704 -0.96869,4.67214 -1.16034,7.96689 -1.08304,18.61997 -1.6681,24.85674 -2.40521,25.6394 -1.26094,1.33886 -1.61152,0.22404 -0.89954,-2.86043 0.49515,-2.14511 0.50694,-3.92139 0.0457,-6.89384 -0.63277,-4.07833 -0.54111,-6.44217 0.50539,-13.03254 0.32387,-2.0396 0.76556,-7.23224 0.98154,-11.53919 l 0.39268,-7.83082 -1.72381,-1.72381 c -1.38725,-1.38725 -1.98331,-1.63223 -3.05293,-1.25477 -1.80566,0.63721 -3.89646,4.88767 -3.89646,7.92124 0,2.54752 0.79975,3.27948 1.4263,1.30541 0.19918,-0.62757 0.72995,-1.14104 1.17948,-1.14104 1.05898,0 1.06091,2.25096 0.003,3.76103 -1.44176,2.05809 -3.17973,8.10064 -3.17973,11.05447 0,3.45356 0.70965,3.70758 1.64415,0.58852 0.49542,-1.65358 0.99167,-2.28208 1.80186,-2.28208 1.37496,0 1.37515,-0.0393 -0.0229,4.84942 -1.5766,5.51311 -1.49576,8.73162 0.28526,11.3561 2.70708,3.9891 1.18348,4.36454 -1.81318,0.4468 -2.79323,-3.65181 -3.573734,-8.44044 -3.74603,-22.98311 -0.153173,-12.92644 -0.403009,-14.2079 -2.770042,-14.2079 -2.03074,0 -2.969678,2.55013 -3.248679,8.82329 -0.305792,6.87562 0.433013,10.82525 4.2393,22.66326 2.434782,7.57245 2.601021,7.88861 5.465471,10.39436 1.62487,1.4214 2.77665,2.76202 2.55951,2.97917 -0.21714,0.21714 -1.91243,-0.35259 -3.76732,-1.26606 -3.280196,-1.6154 -3.412329,-1.77017 -4.82725,-5.65449 -2.425745,-6.6593 -4.248405,-13.65524 -6.986002,-26.8144 -2.559086,-12.30109 -2.602651,-12.68797 -2.184221,-19.39765 0.234826,-3.76543 0.420039,-7.87317 0.41159,-9.12831 -0.01238,-1.83692 -2.866522,-7.902181 -14.63174,-31.093294 -8.039008,-15.84617 -15.054859,-29.133338 -15.590782,-29.527042 -1.183918,-0.869743 -2.209734,-0.595162 -7.137829,1.91059 -8.423122,4.282843 -12.377641,1.27105 -7.238961,-5.51325 2.904775,-3.835006 4.470563,-7.121089 4.48696,-9.416677 0.0069,-0.964843 -0.61401,-3.596363 -1.379781,-5.847822 -0.765771,-2.251458 -1.193433,-4.093561 -0.950361,-4.093561 0.243072,0 1.880858,1.007959 3.639525,2.239909 3.544275,2.482773 4.179027,2.327597 4.504353,-1.101162 0.147171,-1.551099 0.442922,-1.994526 1.330283,-1.994526 0.96833,0 1.141038,0.380346 1.141038,2.51287 0,1.382078 0.277495,2.608484 0.616657,2.725345 1.065724,0.367207 3.558311,-2.039974 3.947587,-3.812327 0.435409,-1.982404 1.266593,-2.669489 2.154828,-1.781254 0.458589,0.458588 0.359462,1.194848 -0.365565,2.715241 -0.548851,1.150957 -0.776625,2.304175 -0.508133,2.57267 0.268497,0.268495 2.728679,-0.178227 5.488325,-0.996575 2.750935,-0.815763 5.141776,-1.343131 5.312977,-1.171928 0.171201,0.171202 -0.58404,1.416465 -1.678313,2.767251 -3.914098,4.831608 -3.997149,5.273379 -2.069747,11.009054 3.075504,9.152234 10.088947,21.130297 18.421698,31.461908 4.951239,6.13894 27.828064,26.407283 40.267454,35.67604 3.48419,2.59612 4.04415,3.24912 3.83046,4.46691 -0.13764,0.78447 -0.69727,3.86527 -1.24361,6.84623 -0.69,3.76481 -0.89742,6.90084 -0.67921,10.26935 0.30799,4.75443 2.17928,12.18148 3.23334,12.83292 0.29341,0.18134 1.17695,-0.64263 1.96341,-1.83106 1.34702,-2.03549 1.38467,-2.29302 0.64932,-4.44187 -0.52658,-1.5388 -0.84564,-6.02668 -0.98047,-13.79142 l -0.19988,-11.51034 1.66005,-0.3319 c 0.91303,-0.18255 1.77572,-0.21623 1.91709,-0.0749 0.45044,0.45044 0.12515,8.50618 -0.43916,10.876 -0.74252,3.11816 -0.71184,12.64788 0.0453,14.06256 0.57504,1.07447 0.6849,1.08844 1.65506,0.21046 1.47617,-1.33592 1.63656,-2.93027 1.83278,-18.21904 0.13521,-10.53489 0.0126,-13.69905 -0.53802,-13.882634 -0.45123,-0.150452 -0.71315,0.318884 -0.71315,1.277884 0,1.99347 -1.90941,1.75257 -2.19674,-0.27715 -0.23251,-1.642471 2.11792,-6.278105 3.18323,-6.278105 0.39879,0 0.72701,0.19255 0.72937,0.42789 0.0161,1.598874 1.32886,8.316915 2.06951,10.590715 0.6213,1.90741 1.31241,2.90498 2.26293,3.26637 1.69472,0.64433 1.74509,1.74876 0.14458,3.17006 -2.51129,2.23011 -3.60267,5.79133 -3.5365,11.53976 0.0577,5.01322 0.15322,5.4143 1.66535,6.99263 1.06244,1.10894 1.79555,1.48296 2.17096,1.10755 0.75669,-0.75669 0.7598,-6.36254 0.006,-10.38222 -0.33422,-1.78174 -0.50107,-3.96592 -0.37076,-4.85375 0.32152,-2.19065 3.08293,-5.49412 4.37488,-5.23365 0.9421,0.18993 0.92787,0.31757 -0.19399,1.74054 -0.66585,0.84457 -1.5763,2.41072 -2.0232,3.48032 -0.75504,1.80706 -0.71358,2.1307 0.58569,4.57137 1.69513,3.18429 1.7308,4.38634 0.25722,8.66934 -1.88374,5.4752 -1.3571,6.91222 1.35289,3.69158 0.79987,-0.95059 1.60085,-2.55518 1.77996,-3.56574 0.458,-2.58406 -1.10799,-10.17449 -2.22846,-10.80154 -1.27023,-0.71086 -1.12518,-2.01401 0.2736,-2.45796 0.64789,-0.20563 1.37271,-0.9003 1.61072,-1.5437 0.36126,-0.97656 0.76954,-0.47349 2.47153,3.0454 1.12134,2.31837 2.95728,5.62725 4.07987,7.35307 2.92684,4.49959 2.6291,2.02341 -0.51014,-4.24259 -3.10892,-6.20549 -3.22753,-7.0544 -0.78682,-5.63112 4.24438,2.47506 9.99416,9.00425 14.17766,16.09948 3.61439,6.13003 9.04849,20.84576 8.36015,22.63956 -0.55223,1.43908 -1.31135,0.84907 -2.32605,-1.80787 -1.76865,-4.63115 -3.52377,-4.0102 -5.48219,1.93956 -1.86917,5.6786 -4.75901,11.10288 -7.64837,14.35615 -2.31601,2.60768 -2.57294,3.17992 -2.57294,5.73052 l 0,2.83355 -7.06502,0 -7.06503,0 -0.40284,-3.76168 2.6e-4,4e-5 z m -18.12933,-28.94223 c 1.59574,-1.43655 1.63433,-3.57114 0.10497,-5.80613 -2.06868,-3.02314 -2.37945,-4.4194 -2.75427,-12.37458 -0.33926,-7.20043 -0.47517,-7.9245 -1.74008,-9.27094 -1.73009,-1.8416 -3.16944,-1.85657 -4.35621,-0.0453 -1.17656,1.79565 -0.95244,4.02138 1.40857,13.98883 1.00342,4.23611 2.10411,9.11405 2.44599,10.83987 0.62596,3.15984 1.8147,4.82653 2.97827,4.17574 0.346,-0.19352 1.20675,-0.87188 1.91276,-1.50747 l 0,-2e-5 z m 30.41234,-5.8552 c 1.07684,-0.30628 1.14435,-0.61413 0.78205,-3.56618 -0.48787,-3.97517 -1.00908,-5.42264 -2.48353,-6.89709 -0.62938,-0.62938 -1.79927,-2.43677 -2.59973,-4.01642 -0.80047,-1.57964 -1.51525,-2.87213 -1.58842,-2.87218 -0.0732,-6e-5 -0.13301,2.80594 -0.13301,6.23555 0,6.08233 -0.0401,6.2776 -1.63125,7.94102 -1.61506,1.68842 -1.63491,2.93911 -0.0466,2.93911 0.45216,0 0.82211,-0.47816 0.82211,-1.06259 0,-0.58442 0.76645,-2.02704 1.70322,-3.20582 0.93678,-1.17878 1.56204,-2.37167 1.38948,-2.65089 -0.5527,-0.89427 0.34729,-2.73724 1.18054,-2.41749 0.81304,0.31199 1.11513,1.3513 1.76038,6.0563 0.31087,2.26683 0.22111,2.70997 -0.54891,2.70997 -0.50633,0 -0.92058,-0.36995 -0.92058,-0.82211 0,-1.16349 -1.11812,-1.71109 -1.89913,-0.93008 -0.49788,0.49788 -0.45092,0.80274 0.19234,1.24886 0.6988,0.48463 0.71191,0.64581 0.0733,0.90109 -1.14446,0.45749 0.45742,1.37517 1.77343,1.01596 0.54765,-0.14948 1.52609,-0.42264 2.17431,-0.60701 z M 55.434973,175.78994 c 0,-1.23539 0.472166,-1.52233 4.749498,-2.88631 2.664193,-0.84957 3.02896,-0.55963 2.104308,1.67268 -0.580537,1.40154 -1.055294,1.73132 -2.501498,1.73763 -0.981732,0.005 -2.362622,0.1626 -3.06864,0.35181 -1.038218,0.27823 -1.283668,0.11076 -1.283668,-0.87581 z m 51.681867,-1.05271 c -0.23406,-0.23534 -2.0098,-0.94136 -3.9461,-1.56893 -2.73164,-0.88535 -3.691957,-1.5023 -4.285536,-2.7532 -1.012461,-2.13366 -0.416616,-2.60122 1.281696,-1.00575 0.79506,0.74693 2.40692,1.41747 3.84875,1.60111 3.39658,0.43259 4.4776,1.09615 4.4776,2.74843 0,1.39745 -0.56219,1.79704 -1.37641,0.97834 z m -64.423461,-2.80506 c -0.20919,-0.20918 -0.379188,-1.04357 -0.377772,-1.85419 0.0025,-1.42565 0.13772,-1.48208 4.136264,-1.72614 7.884087,-0.48123 9.229826,-0.39343 9.42843,0.61512 0.321193,1.63108 -4.189972,3.34556 -8.802896,3.34556 -2.202024,0 -4.174836,-0.17116 -4.384026,-0.38035 z m 15.741378,-1.70753 c -1.181083,-0.47711 0.213825,-2.42424 1.496421,-2.08883 0.598731,0.15657 2.590487,-0.50879 4.428991,-1.47955 2.802824,-1.47993 3.372259,-1.61775 3.535228,-0.85561 0.562828,2.63203 -6.138849,5.76586 -9.46064,4.42399 z m -4.619702,-4.79499 c -0.734061,-0.29416 -3.877611,-0.70149 -6.985664,-0.90517 l -5.651007,-0.37033 -0.562365,-2.03672 c -0.829693,-3.0049 -0.0079,-3.38963 3.537381,-1.65597 1.7705,0.86578 4.496633,1.61003 6.623141,1.80814 3.731027,0.3476 6.940509,1.75081 6.940509,3.03444 0,0.84326 -1.954144,0.90617 -3.901995,0.12561 z m 7.047136,-0.52209 c -0.474689,-0.76806 0.642975,-2.71425 1.965102,-3.42183 2.225161,-1.19087 7.441178,-0.38614 7.441178,1.14804 0,0.30274 -1.091118,0.55615 -2.424706,0.56313 -1.523982,0.008 -2.954548,0.42713 -3.851005,1.12835 -1.580857,1.23657 -2.608122,1.42765 -3.130569,0.58231 z m 52.027799,-0.9399 c -0.19668,-0.19668 -0.005,-1.04057 0.42725,-1.87532 0.58855,-1.13811 0.71641,-3.22477 0.51123,-8.34282 -0.29019,-7.23852 0.21805,-11.71896 1.37301,-12.10394 0.38583,-0.12862 0.93401,0.36468 1.21818,1.0962 0.28417,0.73152 1.44105,2.85534 2.57084,4.71959 1.1298,1.86426 2.05418,3.82263 2.05418,4.35194 0,0.52931 0.51321,1.31461 1.14046,1.74512 1.1304,0.77583 1.12742,0.80973 -0.33719,3.84014 -0.81271,1.68157 -1.6831,2.83687 -1.9342,2.56733 -0.2511,-0.26953 -0.5678,-2.13283 -0.70376,-4.14066 -0.20341,-3.00378 -0.49239,-3.85 -1.63097,-4.77599 l -1.38376,-1.12538 -0.19461,2.49391 c -0.10704,1.37165 0.13291,4.25982 0.53322,6.41817 0.67737,3.65215 0.65364,3.97853 -0.34232,4.70678 -1.12735,0.82435 -2.69977,1.02673 -3.30156,0.42493 z m -92.827204,-1.10839 c 0,-0.59467 0.416173,-0.83421 1.238981,-0.71314 1.826514,0.26876 2.022135,1.6086 0.23486,1.6086 -0.958761,0 -1.473841,-0.31294 -1.473841,-0.89546 z m 60.844989,0.50473 c -0.203476,-0.20348 -0.369959,-1.57065 -0.369959,-3.03816 0,-3.03782 -1.584321,-8.05979 -3.759391,-11.91649 -2.601943,-4.61361 -3.546672,-7.70117 -4.484982,-14.65783 -0.504099,-3.7374 -1.357921,-7.63937 -1.897387,-8.67105 -0.863081,-1.65058 -0.878246,-1.94063 -0.126318,-2.41597 1.114925,-0.70482 3.791168,-0.70549 5.10699,-0.001 0.987255,0.52836 0.994546,0.76176 0.144735,4.63451 -1.147667,5.23015 -0.453482,8.90753 2.675826,14.17493 1.23518,2.07912 2.777744,5.35931 3.427913,7.28932 1.11617,3.31329 3.197247,13.78875 2.803509,14.11191 -0.53141,0.43616 -3.203009,0.80804 -3.520936,0.49011 l 0,-2.8e-4 z m 6.76153,-0.0459 c -0.313785,-0.23054 -0.600294,-2.60139 -0.636688,-5.26857 -0.07973,-5.8431 -1.547562,-11.55082 -5.195176,-20.20163 -2.687584,-6.37396 -3.298975,-10.22956 -2.252803,-14.20684 0.36354,-1.3821 0.667285,-1.57912 2.198883,-1.42629 2.716784,0.27108 3.060864,1.34444 2.201605,6.868 -0.705783,4.53697 -0.6776,5.02197 0.487355,8.38822 0.680047,1.96505 1.870087,4.82323 2.644527,6.35152 0.77444,1.52829 1.408076,3.17985 1.408076,3.67013 0,2.31046 3.962187,12.91834 5.218818,13.97224 1.145739,0.9609 1.216917,1.20953 0.486373,1.699 -0.989457,0.66293 -5.717281,0.77406 -6.56097,0.15422 z m -15.392224,-3.69964 c -0.743261,-1.64738 -2.024294,-6.07603 -2.846737,-9.84146 -3.167762,-14.50308 -6.198816,-20.25874 -12.663984,-24.04758 -1.359833,-0.79692 -2.472425,-1.79392 -2.472425,-2.21555 0,-0.93269 3.70729,-1.56066 7.702008,-1.30462 2.703291,0.17327 2.861593,0.27242 3.024505,1.89439 0.09455,0.94136 1.03228,4.79236 2.083844,8.55779 1.051569,3.76543 2.58715,9.6703 3.412406,13.12194 1.457973,6.098 3.509366,11.18227 6.042528,14.97613 l 1.238044,1.85418 -2.084403,0 c -1.962575,0 -2.163397,-0.17507 -3.435786,-2.99522 z m -17.2562,0.76088 c -3.15375,-2.28457 -5.81941,-3.56178 -12.02155,-5.75994 -3.018259,-1.06973 -5.537472,-2.31586 -5.845544,-2.89149 -0.494336,-0.92368 -0.107691,-0.8952 4.448373,0.3277 6.16903,1.65583 9.591791,3.10796 13.605946,5.7724 3.529334,2.34264 4.944279,4.21516 3.185135,4.21516 -0.591532,0 -2.10909,-0.74873 -3.37236,-1.66383 z m -31.998759,-1.61666 c 0.143057,-0.75013 0.933757,-1.07328 3.179688,-1.29951 1.644106,-0.1656 2.989282,-0.11597 2.989282,0.11029 0,0.89054 -2.637101,2.18763 -4.44767,2.18763 -1.512861,0 -1.871981,-0.2083 -1.7213,-0.99841 z m 37.418632,-0.57052 c -0.48194,-0.54912 -1.663948,-2.60297 -2.626682,-4.5641 -2.534926,-5.16374 -4.326097,-7.25588 -8.581756,-10.02371 -4.947966,-3.21811 -8.21656,-4.59417 -10.070743,-4.23971 -0.985347,0.18836 -1.610412,0.006 -1.815731,-0.5287 -0.373215,-0.97258 1.405562,-5.1435 2.347746,-5.50505 0.363376,-0.13944 3.23984,0.97294 6.392142,2.47195 6.998506,3.32801 8.904182,5.3583 12.237285,13.03753 1.313159,3.02544 2.837255,6.27099 3.386882,7.21234 1.515652,2.59592 0.554099,4.21686 -1.269143,2.13945 z m 6.72221,-0.84009 c -0.488467,-0.69739 -0.888127,-1.56452 -0.888127,-1.92696 0,-0.36244 -0.377239,-0.97206 -0.838309,-1.35472 -0.461077,-0.38265 -2.364848,-3.83553 -4.230617,-7.67306 -2.292728,-4.71571 -4.338895,-8.01305 -6.312654,-10.17266 -2.780425,-3.04223 -7.702073,-6.13058 -9.76979,-6.13058 -0.527539,0 -1.253066,-0.35413 -1.612281,-0.78695 -0.525464,-0.63316 -0.138737,-1.02875 1.978607,-2.02402 2.296768,-1.07961 2.897454,-1.15107 4.719525,-0.56146 6.388139,2.06719 10.958654,5.98002 12.065073,10.32896 2.025868,7.96296 3.64228,12.91568 5.14679,15.76985 1.685593,3.1977 2.209632,5.79958 1.168081,5.79958 -0.295991,0 -0.937825,-0.57059 -1.426298,-1.26798 z m -11.292925,-1.91903 c -3.666336,-3.9626 -13.911023,-8.22337 -19.772439,-8.22337 -2.510494,0 -2.662141,-0.22566 -1.755032,-2.61154 0.576889,-1.51733 0.655443,-1.53902 4.421524,-1.22135 4.535248,0.38255 8.44328,1.94489 12.474167,4.98689 3.661887,2.76352 7.205803,7.02563 6.949287,8.3576 -0.155621,0.80807 -0.613366,0.55362 -2.317507,-1.28823 z M 28.620573,154.0328 c 0,-0.32649 0.561748,-1.35343 1.248329,-2.28208 1.031491,-1.39516 1.650873,-1.68598 3.565745,-1.67419 l 2.317416,0.0143 -2.402615,2.26781 c -2.255339,2.1288 -4.728875,3.00452 -4.728875,1.6742 l 0,-4e-5 z M 132.48356,105.31086 c -0.85261,-1.02733 -0.1509,-7.225404 0.85563,-7.5576 1.13815,-0.375635 3.31143,3.37205 3.35399,5.78375 0.0384,2.17378 -0.0631,2.32016 -1.71938,2.48179 -1.06771,0.10419 -2.04737,-0.17431 -2.49024,-0.70794 z"
     id="path4963"
     sodipodi:nodetypes="cssccssssccsssccsssccsssssssssssssscccsssssssssssssssssssssssssssssssssssssssssssssssssscccssssssssssssssssssssssssssssssssssssscccccccssssssscccssssssssssssssssssccssssccsssssccssssccssscccccsssccssssccsssssssssscccssccssccsssssssssscccssssssssssccssssssscccccsssssccsssccssssssssccsssssssssssccsssssccsccccccsssc" />
</svg>
