<?xml version="1.0" encoding="UTF-8" standalone="no"?>
<!-- Created with Inkscape (http://www.inkscape.org/) -->

<svg
   xmlns:dc="http://purl.org/dc/elements/1.1/"
   xmlns:cc="http://creativecommons.org/ns#"
   xmlns:rdf="http://www.w3.org/1999/02/22-rdf-syntax-ns#"
   xmlns:svg="http://www.w3.org/2000/svg"
   xmlns="http://www.w3.org/2000/svg"
   xmlns:sodipodi="http://sodipodi.sourceforge.net/DTD/sodipodi-0.dtd"
   xmlns:inkscape="http://www.inkscape.org/namespaces/inkscape"
   width="5500"
   height="3470"
   id="svg2994"
   version="1.1"
   inkscape:version="0.48.5 r10040"
   sodipodi:docname="CANC Stop.svg"
   inkscape:export-filename="C:\Users\utente\Desktop\CANC drittok.png"
   inkscape:export-xdpi="90"
   inkscape:export-ydpi="90">
  <defs
     id="defs2996" />
  <sodipodi:namedview
     id="base"
     pagecolor="#ffffff"
     bordercolor="#666666"
     borderopacity="1.0"
     inkscape:pageopacity="0.0"
     inkscape:pageshadow="2"
     inkscape:zoom="0.14388889"
     inkscape:cx="1853.9549"
     inkscape:cy="1596.7481"
     inkscape:document-units="px"
     inkscape:current-layer="layer1"
     showgrid="false"
     inkscape:window-width="1366"
     inkscape:window-height="705"
     inkscape:window-x="-8"
     inkscape:window-y="-8"
     inkscape:window-maximized="1"
     fit-margin-top="0"
     fit-margin-left="0"
     fit-margin-right="0"
     fit-margin-bottom="0"
     inkscape:object-nodes="true"
     inkscape:object-paths="false" />
  <metadata
     id="metadata2999">
    <rdf:RDF>
      <cc:Work
         rdf:about="">
        <dc:format>image/svg+xml</dc:format>
        <dc:type
           rdf:resource="http://purl.org/dc/dcmitype/StillImage" />
        <dc:title />
      </cc:Work>
    </rdf:RDF>
  </metadata>
  <g
     inkscape:label="Livello 1"
     inkscape:groupmode="layer"
     id="layer1"
     transform="translate(-398.66428,3149.0942)">
    <rect
       style="fill:#989898;fill-opacity:1;stroke:none"
       id="rect6590"
       width="5500"
       height="3470"
       x="398.66428"
       y="-3149.0942"
       inkscape:export-filename="C:\Users\utente\Desktop\CANC okk.png"
       inkscape:export-xdpi="90"
       inkscape:export-ydpi="90" />
    <rect
       style="fill:#ffffff;fill-opacity:1;stroke:none"
       id="rect3882"
       width="450"
       height="15"
       x="838.66418"
       y="-2538.5942" />
    <rect
       y="-2538.5942"
       x="2138.6641"
       height="15"
       width="450"
       id="rect3884"
       style="fill:#ffffff;fill-opacity:1;stroke:none" />
    <rect
       style="fill:#ffffff;fill-opacity:1;stroke:none"
       id="rect3886"
       width="450"
       height="15"
       x="3438.6641"
       y="-2538.5942" />
    <rect
       y="-2538.5942"
       x="4738.6641"
       height="15"
       width="450"
       id="rect3888"
       style="fill:#ffffff;fill-opacity:1;stroke:none" />
    <rect
       y="-2223.094"
       x="838.66418"
       height="12"
       width="300"
       id="rect3890"
       style="fill:#ffffff;fill-opacity:1;stroke:none" />
    <rect
       style="fill:#ffffff;fill-opacity:1;stroke:none"
       id="rect3892"
       width="300"
       height="12"
       x="1588.6642"
       y="-2223.094" />
    <rect
       y="-2223.094"
       x="2338.6641"
       height="12"
       width="300"
       id="rect3894"
       style="fill:#ffffff;fill-opacity:1;stroke:none" />
    <rect
       style="fill:#ffffff;fill-opacity:1;stroke:none"
       id="rect3896"
       width="300"
       height="12"
       x="3088.6641"
       y="-2223.094" />
    <rect
       y="-2223.094"
       x="3838.6641"
       height="12"
       width="300"
       id="rect3900"
       style="fill:#ffffff;fill-opacity:1;stroke:none" />
    <rect
       style="fill:#ffffff;fill-opacity:1;stroke:none"
       id="rect3902"
       width="300"
       height="12"
       x="4588.6641"
       y="-2223.094" />
    <rect
       y="-2223.094"
       x="5338.6641"
       height="12"
       width="300"
       id="rect3904"
       style="fill:#ffffff;fill-opacity:1;stroke:none" />
    <rect
       style="fill:#ffffff;fill-opacity:1;stroke:none"
       id="rect3906"
       width="300"
       height="12"
       x="838.66418"
       y="-1911.0941" />
    <rect
       y="-1911.0941"
       x="1438.6642"
       height="12"
       width="300"
       id="rect3908"
       style="fill:#ffffff;fill-opacity:1;stroke:none" />
    <rect
       style="fill:#ffffff;fill-opacity:1;stroke:none"
       id="rect3910"
       width="300"
       height="12"
       x="2038.6642"
       y="-1911.0941" />
    <rect
       y="-1911.0941"
       x="2638.6641"
       height="12"
       width="300"
       id="rect3912"
       style="fill:#ffffff;fill-opacity:1;stroke:none" />
    <rect
       style="fill:#ffffff;fill-opacity:1;stroke:none"
       id="rect3914"
       width="300"
       height="12"
       x="3238.6641"
       y="-1911.0941" />
    <rect
       y="-1911.0941"
       x="3838.6641"
       height="12"
       width="300"
       id="rect3916"
       style="fill:#ffffff;fill-opacity:1;stroke:none" />
    <rect
       style="fill:#ffffff;fill-opacity:1;stroke:none"
       id="rect3918"
       width="300"
       height="12"
       x="4438.6641"
       y="-1911.0941" />
    <rect
       y="-1911.0941"
       x="5038.6641"
       height="12"
       width="300"
       id="rect3920"
       style="fill:#ffffff;fill-opacity:1;stroke:none" />
    <rect
       y="-1599.0941"
       x="838.66418"
       height="12"
       width="450"
       id="rect3924"
       style="fill:#ffffff;fill-opacity:1;stroke:none" />
    <rect
       style="fill:#ffffff;fill-opacity:1;stroke:none"
       id="rect3926"
       width="450"
       height="12"
       x="1438.6642"
       y="-1599.0941" />
    <rect
       y="-1599.0941"
       x="2038.6642"
       height="12"
       width="450"
       id="rect3928"
       style="fill:#ffffff;fill-opacity:1;stroke:none" />
    <rect
       style="fill:#ffffff;fill-opacity:1;stroke:none"
       id="rect3930"
       width="450"
       height="12"
       x="2638.6641"
       y="-1599.0941" />
    <rect
       y="-1599.0941"
       x="3238.6641"
       height="12"
       width="450"
       id="rect3932"
       style="fill:#ffffff;fill-opacity:1;stroke:none" />
    <rect
       style="fill:#ffffff;fill-opacity:1;stroke:none"
       id="rect3934"
       width="450"
       height="12"
       x="3838.6641"
       y="-1599.0941" />
    <rect
       y="-1599.0941"
       x="4438.6641"
       height="12"
       width="450"
       id="rect3936"
       style="fill:#ffffff;fill-opacity:1;stroke:none" />
    <rect
       style="fill:#ffffff;fill-opacity:1;stroke:none"
       id="rect3938"
       width="450"
       height="12"
       x="5038.6641"
       y="-1599.0941" />
    <rect
       style="fill:#ffffff;fill-opacity:1;stroke:none"
       id="rect3942"
       width="100"
       height="12"
       x="838.66418"
       y="-1287.0941" />
    <rect
       y="-1287.0941"
       x="1038.6642"
       height="12"
       width="100"
       id="rect3944"
       style="fill:#ffffff;fill-opacity:1;stroke:none" />
    <rect
       style="fill:#ffffff;fill-opacity:1;stroke:none"
       id="rect3946"
       width="100"
       height="12"
       x="1238.6642"
       y="-1287.0941" />
    <rect
       y="-1287.0941"
       x="1438.6642"
       height="12"
       width="100"
       id="rect3948"
       style="fill:#ffffff;fill-opacity:1;stroke:none" />
    <rect
       style="fill:#ffffff;fill-opacity:1;stroke:none"
       id="rect3950"
       width="100"
       height="12"
       x="1638.6642"
       y="-1287.0941" />
    <rect
       y="-1287.0941"
       x="1838.6642"
       height="12"
       width="100"
       id="rect3952"
       style="fill:#ffffff;fill-opacity:1;stroke:none" />
    <rect
       y="-1287.0941"
       x="2038.6642"
       height="12"
       width="100"
       id="rect3954"
       style="fill:#ffffff;fill-opacity:1;stroke:none" />
    <rect
       style="fill:#ffffff;fill-opacity:1;stroke:none"
       id="rect3956"
       width="100"
       height="12"
       x="2238.6641"
       y="-1287.0941" />
    <rect
       y="-1287.0941"
       x="2438.6641"
       height="12"
       width="100"
       id="rect3958"
       style="fill:#ffffff;fill-opacity:1;stroke:none" />
    <rect
       style="fill:#ffffff;fill-opacity:1;stroke:none"
       id="rect3960"
       width="100"
       height="12"
       x="2638.6641"
       y="-1287.0941" />
    <rect
       y="-1287.0941"
       x="2838.6641"
       height="12"
       width="100"
       id="rect3962"
       style="fill:#ffffff;fill-opacity:1;stroke:none" />
    <rect
       style="fill:#ffffff;fill-opacity:1;stroke:none"
       id="rect3964"
       width="100"
       height="12"
       x="3038.6641"
       y="-1287.0941" />
    <rect
       y="-1287.0941"
       x="3238.6641"
       height="12"
       width="100"
       id="rect3966"
       style="fill:#ffffff;fill-opacity:1;stroke:none" />
    <rect
       style="fill:#ffffff;fill-opacity:1;stroke:none"
       id="rect3968"
       width="100"
       height="12"
       x="3438.6641"
       y="-1287.0941" />
    <rect
       y="-1287.0941"
       x="3638.6641"
       height="12"
       width="100"
       id="rect3970"
       style="fill:#ffffff;fill-opacity:1;stroke:none" />
    <rect
       style="fill:#ffffff;fill-opacity:1;stroke:none"
       id="rect3972"
       width="100"
       height="12"
       x="3838.6641"
       y="-1287.0941" />
    <rect
       y="-1287.0941"
       x="4038.6641"
       height="12"
       width="100"
       id="rect3974"
       style="fill:#ffffff;fill-opacity:1;stroke:none" />
    <rect
       style="fill:#ffffff;fill-opacity:1;stroke:none"
       id="rect3976"
       width="100"
       height="12"
       x="4238.6641"
       y="-1287.0941" />
    <rect
       style="fill:#ffffff;fill-opacity:1;stroke:none"
       id="rect3978"
       width="100"
       height="12"
       x="4438.6641"
       y="-1287.0941" />
    <rect
       y="-1287.0941"
       x="4638.6641"
       height="12"
       width="100"
       id="rect3980"
       style="fill:#ffffff;fill-opacity:1;stroke:none" />
    <rect
       style="fill:#ffffff;fill-opacity:1;stroke:none"
       id="rect3982"
       width="100"
       height="12"
       x="4838.6641"
       y="-1287.0941" />
    <rect
       y="-1287.0941"
       x="5038.6641"
       height="12"
       width="100"
       id="rect3984"
       style="fill:#ffffff;fill-opacity:1;stroke:none" />
    <rect
       style="fill:#ffffff;fill-opacity:1;stroke:none"
       id="rect3986"
       width="100"
       height="12"
       x="5238.6641"
       y="-1287.0941" />
    <rect
       y="-1287.0941"
       x="5438.6641"
       height="12"
       width="100"
       id="rect3988"
       style="fill:#ffffff;fill-opacity:1;stroke:none" />
    <rect
       y="-975.09412"
       x="838.66418"
       height="12"
       width="100"
       id="rect4000"
       style="fill:#ffffff;fill-opacity:1;stroke:none" />
    <rect
       style="fill:#ffffff;fill-opacity:1;stroke:none"
       id="rect4002"
       width="100"
       height="12"
       x="1088.6642"
       y="-975.09412" />
    <rect
       y="-975.09412"
       x="1338.6642"
       height="12"
       width="100"
       id="rect4004"
       style="fill:#ffffff;fill-opacity:1;stroke:none" />
    <rect
       style="fill:#ffffff;fill-opacity:1;stroke:none"
       id="rect4006"
       width="100"
       height="12"
       x="1588.6642"
       y="-975.09412" />
    <rect
       y="-975.09412"
       x="1838.6642"
       height="12"
       width="100"
       id="rect4008"
       style="fill:#ffffff;fill-opacity:1;stroke:none" />
    <rect
       style="fill:#ffffff;fill-opacity:1;stroke:none"
       id="rect4010"
       width="100"
       height="12"
       x="2088.6641"
       y="-975.09412" />
    <rect
       style="fill:#ffffff;fill-opacity:1;stroke:none"
       id="rect4012"
       width="100"
       height="12"
       x="2338.6641"
       y="-975.09412" />
    <rect
       y="-975.09412"
       x="2588.6641"
       height="12"
       width="100"
       id="rect4014"
       style="fill:#ffffff;fill-opacity:1;stroke:none" />
    <rect
       style="fill:#ffffff;fill-opacity:1;stroke:none"
       id="rect4016"
       width="100"
       height="12"
       x="2838.6641"
       y="-975.09412" />
    <rect
       y="-975.09412"
       x="3088.6641"
       height="12"
       width="100"
       id="rect4018"
       style="fill:#ffffff;fill-opacity:1;stroke:none" />
    <rect
       style="fill:#ffffff;fill-opacity:1;stroke:none"
       id="rect4020"
       width="100"
       height="12"
       x="3338.6641"
       y="-975.09412" />
    <rect
       y="-975.09412"
       x="3588.6641"
       height="12"
       width="100"
       id="rect4022"
       style="fill:#ffffff;fill-opacity:1;stroke:none" />
    <rect
       style="fill:#ffffff;fill-opacity:1;stroke:none"
       id="rect4024"
       width="100"
       height="12"
       x="3838.6641"
       y="-975.09412" />
    <rect
       y="-975.09412"
       x="4088.6641"
       height="12"
       width="100"
       id="rect4026"
       style="fill:#ffffff;fill-opacity:1;stroke:none" />
    <rect
       style="fill:#ffffff;fill-opacity:1;stroke:none"
       id="rect4028"
       width="100"
       height="12"
       x="4338.6641"
       y="-975.09412" />
    <rect
       style="fill:#ffffff;fill-opacity:1;stroke:none"
       id="rect4030"
       width="100"
       height="12"
       x="4588.6641"
       y="-975.09412" />
    <rect
       y="-975.09412"
       x="4838.6641"
       height="12"
       width="100"
       id="rect4032"
       style="fill:#ffffff;fill-opacity:1;stroke:none" />
    <rect
       style="fill:#ffffff;fill-opacity:1;stroke:none"
       id="rect4034"
       width="100"
       height="12"
       x="5088.6641"
       y="-975.09412" />
    <rect
       y="-975.09412"
       x="5338.6641"
       height="12"
       width="100"
       id="rect4036"
       style="fill:#ffffff;fill-opacity:1;stroke:none" />
    <rect
       y="-663.09412"
       x="838.66418"
       height="12"
       width="450"
       id="rect4044"
       style="fill:#ffffff;fill-opacity:1;stroke:none" />
    <rect
       style="fill:#ffffff;fill-opacity:1;stroke:none"
       id="rect4046"
       width="450"
       height="12"
       x="1588.6642"
       y="-663.09412" />
    <rect
       y="-663.09412"
       x="2338.6643"
       height="12"
       width="450"
       id="rect4050"
       style="fill:#ffffff;fill-opacity:1;stroke:none" />
    <rect
       y="-663.09412"
       x="3088.6641"
       height="12"
       width="450"
       id="rect4054"
       style="fill:#ffffff;fill-opacity:1;stroke:none" />
    <rect
       style="fill:#ffffff;fill-opacity:1;stroke:none"
       id="rect4056"
       width="450"
       height="12"
       x="3838.6641"
       y="-663.09412" />
    <rect
       y="-663.09412"
       x="4588.6646"
       height="12"
       width="450"
       id="rect4060"
       style="fill:#ffffff;fill-opacity:1;stroke:none" />
    <rect
       style="fill:#ffffff;fill-opacity:1;stroke:none"
       id="rect4062"
       width="450"
       height="12"
       x="5338.6646"
       y="-663.09412" />
    <rect
       y="-351.09409"
       x="598.66431"
       height="12"
       width="5100"
       id="rect4068"
       style="fill:#ffffff;fill-opacity:1;stroke:none" />
    <rect
       style="fill:#ffffff;fill-opacity:1;stroke:none"
       id="rect4086"
       width="300"
       height="12"
       x="598.66431"
       y="-327.09409" />
    <rect
       y="-327.09409"
       x="1198.6643"
       height="12"
       width="300"
       id="rect4088"
       style="fill:#ffffff;fill-opacity:1;stroke:none" />
    <rect
       style="fill:#ffffff;fill-opacity:1;stroke:none"
       id="rect4090"
       width="300"
       height="12"
       x="1798.6643"
       y="-327.09409" />
    <rect
       y="-327.09409"
       x="2398.6641"
       height="12"
       width="300"
       id="rect4092"
       style="fill:#ffffff;fill-opacity:1;stroke:none" />
    <rect
       style="fill:#ffffff;fill-opacity:1;stroke:none"
       id="rect4094"
       width="300"
       height="12"
       x="2998.6641"
       y="-327.09409" />
    <rect
       y="-327.09409"
       x="3598.6641"
       height="12"
       width="300"
       id="rect4096"
       style="fill:#ffffff;fill-opacity:1;stroke:none" />
    <rect
       style="fill:#ffffff;fill-opacity:1;stroke:none"
       id="rect4098"
       width="300"
       height="12"
       x="4198.6641"
       y="-327.09409" />
    <rect
       y="-327.09409"
       x="4798.6641"
       height="12"
       width="300"
       id="rect4100"
       style="fill:#ffffff;fill-opacity:1;stroke:none" />
    <rect
       style="fill:#ffffff;fill-opacity:1;stroke:none"
       id="rect4102"
       width="300"
       height="12"
       x="5398.6641"
       y="-327.09409" />
    <rect
       style="fill:#ffffff;fill-opacity:1;stroke:none"
       id="rect4104"
       width="5100"
       height="12"
       x="598.66431"
       y="-15.0941" />
    <rect
       y="8.9059"
       x="598.66431"
       height="12"
       width="5100"
       id="rect4106"
       style="fill:#ffffff;fill-opacity:1;stroke:none" />
    <g
       style="font-size:100px;font-style:normal;font-weight:normal;line-height:125%;letter-spacing:0px;word-spacing:0px;fill:#000000;fill-opacity:1;stroke:none;font-family:Sans"
       id="text4108">
      <path
         d="m 644.73724,-2512.6321 c -5.20839,4.4271 -10.2214,7.5521 -15.03906,9.375 -4.81775,1.8229 -9.98702,2.7344 -15.50781,2.7344 -9.11461,0 -16.11981,-2.2266 -21.01563,-6.6797 -4.89584,-4.4531 -7.34375,-10.1432 -7.34375,-17.0703 0,-4.0625 0.92448,-7.7734 2.77344,-11.1328 1.84895,-3.3594 4.27082,-6.0547 7.26563,-8.086 2.99477,-2.0312 6.36716,-3.5676 10.11718,-4.6093 2.76039,-0.7292 6.92705,-1.4323 12.5,-2.1094 11.35412,-1.3541 19.71349,-2.9687 25.07813,-4.8438 0.052,-1.927 0.0781,-3.1509 0.0781,-3.6718 -6e-5,-5.7291 -1.32818,-9.7656 -3.98437,-12.1094 -3.59381,-3.177 -8.93234,-4.7656 -16.01563,-4.7656 -6.61462,0 -11.49742,1.1589 -14.64843,3.4765 -3.15107,2.3178 -5.4818,6.4194 -6.99219,12.3047 l -13.75,-1.875 c 1.24999,-5.8853 3.30728,-10.6379 6.17187,-14.2578 2.86457,-3.6197 7.00519,-6.4062 12.42188,-8.3594 5.41663,-1.953 11.69267,-2.9296 18.82812,-2.9297 7.08328,1e-4 12.83849,0.8335 17.26563,2.5 4.42701,1.6668 7.68222,3.7631 9.76562,6.2891 2.08326,2.5261 3.54159,5.7162 4.375,9.5703 0.46868,2.3959 0.70305,6.7188 0.70313,12.9688 l 0,18.75 c -8e-5,13.0729 0.2994,21.3411 0.89844,24.8047 0.59888,3.4635 1.78377,6.7838 3.55468,9.9609 l -14.6875,0 c -1.4584,-2.9167 -2.39589,-6.3281 -2.8125,-10.2344 z m -1.17187,-31.4062 c -5.10423,2.0833 -12.76047,3.8542 -22.96875,5.3125 -5.78129,0.8333 -9.86982,1.7708 -12.26563,2.8125 -2.39586,1.0417 -4.24481,2.5651 -5.54687,4.5703 -1.30211,2.0052 -1.95315,4.2318 -1.95313,6.6797 -2e-5,3.75 1.41925,6.875 4.25782,9.375 2.83851,2.5 6.99215,3.75 12.46093,3.75 5.41663,0 10.23433,-1.1849 14.45313,-3.5547 4.21869,-2.3698 7.31765,-5.612 9.29687,-9.7266 1.51036,-3.177 2.26557,-7.8645 2.26563,-14.0625 z"
         style="font-size:160px"
         id="path3118" />
    </g>
    <g
       style="font-size:100px;font-style:normal;font-weight:normal;line-height:125%;letter-spacing:0px;word-spacing:0px;fill:#000000;fill-opacity:1;stroke:none;font-family:Sans"
       id="text4112">
      <path
         d="m 603.56537,-2188.3977 -13.04688,0 0,-114.5313 14.0625,0 0,40.8594 c 5.93747,-7.4478 13.51559,-11.1718 22.73438,-11.1719 5.10411,1e-4 9.93484,1.0288 14.49219,3.086 4.55722,2.0574 8.30722,4.948 11.25,8.6719 2.94263,3.724 5.24731,8.2162 6.91406,13.4765 1.66658,5.2605 2.49992,10.8855 2.5,16.875 -8e-5,14.2188 -3.51571,25.2084 -10.54688,32.9688 -7.03131,7.7604 -15.4688,11.6406 -25.3125,11.6406 -9.7917,0 -17.47398,-4.0885 -23.04687,-12.2656 z m -0.15625,-42.1094 c -2e-5,9.948 1.35414,17.1355 4.0625,21.5625 4.42705,7.2396 10.41663,10.8594 17.96875,10.8594 6.14578,0 11.45828,-2.6693 15.9375,-8.0078 4.4791,-5.3385 6.71868,-13.2943 6.71875,-23.8672 -7e-5,-10.8333 -2.1485,-18.8281 -6.44531,-23.9844 -4.29694,-5.1562 -9.49224,-7.7343 -15.58594,-7.7344 -6.14587,1e-4 -11.45837,2.6694 -15.9375,8.0079 -4.47919,5.3386 -6.71877,13.0599 -6.71875,23.164 z"
         style="font-size:160px"
         id="path3115" />
    </g>
    <g
       style="font-size:100px;font-style:normal;font-weight:normal;line-height:125%;letter-spacing:0px;word-spacing:0px;fill:#000000;fill-opacity:1;stroke:none;font-family:Sans"
       id="text4120">
      <path
         d="m 644.42474,-1564.3978 0,-10.4688 c -5.26047,8.2292 -12.99484,12.3438 -23.20312,12.3438 -6.61462,0 -12.69534,-1.8229 -18.24219,-5.4688 -5.54689,-3.6458 -9.84376,-8.7369 -12.89062,-15.2734 -3.04689,-6.5364 -4.57032,-14.0495 -4.57032,-22.5391 0,-8.2812 1.38021,-15.7942 4.14063,-22.539 2.7604,-6.7448 6.90102,-11.914 12.42187,-15.5079 5.52081,-3.5936 11.69268,-5.3905 18.51563,-5.3906 4.99995,10e-5 9.45307,1.0548 13.35937,3.1641 3.9062,2.1094 7.08328,4.8568 9.53125,8.2422 l 0,-41.0938 13.98438,0 0,114.5313 z m -44.45312,-41.4063 c -2e-5,10.6251 2.23956,18.5678 6.71875,23.8281 4.47913,5.2605 9.76559,7.8907 15.85937,7.8907 6.14579,0 11.36714,-2.513 15.66407,-7.5391 4.29681,-5.026 6.44524,-12.6953 6.44531,-23.0078 -7e-5,-11.3541 -2.18756,-19.6874 -6.5625,-25 -4.37506,-5.3124 -9.76567,-7.9687 -16.17188,-7.9688 -6.25003,1e-4 -11.47138,2.5522 -15.66406,7.6563 -4.19273,5.1042 -6.28908,13.1511 -6.28906,24.1406 z"
         style="font-size:160px"
         id="path3112" />
    </g>
    <g
       style="font-size:100px;font-style:normal;font-weight:normal;line-height:125%;letter-spacing:0px;word-spacing:0px;fill:#000000;fill-opacity:1;stroke:none;font-family:Sans"
       id="text4124">
      <path
         d="m 593.95599,-1252.3977 0,-72.0313 -12.42187,0 0,-10.9375 12.42187,0 0,-8.8281 c -1e-5,-5.5728 0.49478,-9.7134 1.48438,-12.4219 1.35415,-3.6457 3.73696,-6.6014 7.14844,-8.8671 3.41143,-2.2656 8.19007,-3.3984 14.33593,-3.3985 3.9583,10e-5 8.33329,0.4689 13.125,1.4063 l -2.10937,12.2656 c -2.91671,-0.5207 -5.67713,-0.7812 -8.28125,-0.7813 -4.27087,10e-5 -7.2917,0.9116 -9.0625,2.7344 -1.77086,1.823 -2.65628,5.2345 -2.65625,10.2344 l 0,7.6562 16.17187,0 0,10.9375 -16.17187,0 0,72.0313 z"
         style="font-size:160px"
         id="path3109" />
    </g>
    <g
       style="font-size:100px;font-style:normal;font-weight:normal;line-height:125%;letter-spacing:0px;word-spacing:0px;fill:#000000;fill-opacity:1;stroke:none;font-family:Sans"
       id="text4128">
      <path
         d="m 588.01849,-935.52283 13.67188,2.03125 c 0.57289,4.21874 2.16143,7.29165 4.76562,9.21875 3.48956,2.60415 8.25518,3.90623 14.29688,3.90625 6.51037,-2e-5 11.5364,-1.3021 15.07812,-3.90625 3.54161,-2.60418 5.93744,-6.25001 7.1875,-10.9375 0.72911,-2.86458 1.06765,-8.8802 1.01563,-18.04687 -6.14589,7.23958 -13.80213,10.85937 -22.96875,10.85937 -11.40628,0 -20.2344,-4.11458 -26.48438,-12.34375 -6.25,-8.22914 -9.375,-18.09893 -9.375,-29.60937 0,-7.91662 1.43229,-15.2213 4.29688,-21.91405 2.86457,-6.6927 7.01821,-11.8619 12.46094,-15.5078 5.44268,-3.6458 11.8359,-5.4687 19.17968,-5.4688 9.79162,10e-5 17.86453,3.9584 24.21875,11.875 l 0,-10 12.96875,0 0,71.71877 c -7e-5,12.91667 -1.31518,22.0703 -3.94531,27.46094 -2.63028,5.3906 -6.79694,9.64841 -12.5,12.77344 -5.70318,3.12497 -12.7214,4.68746 -21.05469,4.6875 -9.89586,-4e-5 -17.89064,-2.2266 -23.98437,-6.67969 -6.09376,-4.45315 -9.03647,-11.15887 -8.82813,-20.11719 z m 11.64063,-49.84375 c -2e-5,10.88545 2.16144,18.82815 6.48437,23.82813 4.32289,5.00001 9.73955,7.50001 16.25,7.5 6.45829,10e-6 11.87495,-2.48697 16.25,-7.46094 4.37494,-4.97393 6.56244,-12.77341 6.5625,-23.39844 -6e-5,-10.15619 -2.25266,-17.81247 -6.75781,-22.96877 -4.50526,-5.1562 -9.93494,-7.7343 -16.28906,-7.7344 -6.25004,10e-5 -11.56253,2.5392 -15.9375,7.6172 -4.37502,5.0782 -6.56252,12.61728 -6.5625,22.61722 z"
         style="font-size:160px"
         id="path3106" />
    </g>
    <g
       style="font-size:100px;font-style:normal;font-weight:normal;line-height:125%;letter-spacing:0px;word-spacing:0px;fill:#000000;fill-opacity:1;stroke:none;font-family:Sans"
       id="text4132">
      <path
         d="m 590.59662,-628.39783 0,-114.53125 14.0625,0 0,41.09375 c 6.56247,-7.60408 14.84371,-11.40616 24.84375,-11.40625 6.14578,9e-5 11.48431,1.21102 16.01562,3.63282 4.53118,2.42195 7.77337,5.7683 9.72657,10.03906 1.95304,4.2709 2.92961,10.46881 2.92968,18.59375 l 0,52.57812 -14.0625,0 0,-52.57812 c -6e-5,-7.03119 -1.5235,-12.14837 -4.57031,-15.35156 -3.04693,-3.20306 -7.35682,-4.80462 -12.92969,-4.80469 -4.16671,7e-5 -8.08597,1.0808 -11.75781,3.24219 -3.6719,2.16152 -6.28909,5.09121 -7.85156,8.78906 -1.56253,3.69797 -2.34378,8.80213 -2.34375,15.3125 l 0,45.39062 z"
         style="font-size:160px"
         id="path3103" />
    </g>
    <rect
       style="fill:#ffffff;fill-opacity:1;stroke:none"
       id="rect4140"
       width="5100"
       height="12"
       x="598.66431"
       y="-2849.0942" />
    <g
       style="font-size:100px;font-style:normal;font-weight:normal;line-height:125%;letter-spacing:0px;word-spacing:0px;fill:#000000;fill-opacity:1;stroke:none;font-family:Sans"
       id="text4142">
      <path
         d="m 529.1543,-1908.7885 13.82812,1.7969 c -1.51049,9.5313 -5.37768,16.9922 -11.60156,22.3828 -6.22402,5.3907 -13.86724,8.086 -22.92969,8.086 -11.3542,0 -20.48179,-3.711 -27.38281,-11.1328 -6.90105,-7.4219 -10.35157,-18.0599 -10.35156,-31.9141 -10e-6,-8.9583 1.48436,-16.7968 4.45312,-23.5156 2.96874,-6.7187 7.48696,-11.7578 13.55469,-15.1172 6.06768,-3.3593 12.66923,-5.039 19.80469,-5.0391 9.01036,10e-5 16.38014,2.2788 22.10937,6.836 5.7291,4.5573 9.40097,11.0287 11.01563,19.414 l -13.67188,2.1094 c -1.30214,-5.5729 -3.60683,-9.7656 -6.91406,-12.5781 -3.30735,-2.8125 -7.30474,-4.2187 -11.99219,-4.2188 -7.08337,10e-5 -12.83857,2.5392 -17.26562,7.6172 -4.42711,5.0782 -6.64065,13.112 -6.64063,24.1016 -2e-5,11.1458 2.1354,19.2448 6.40625,24.2968 4.2708,5.0521 9.84371,7.5782 16.71875,7.5782 5.52079,0 10.13016,-1.6927 13.82813,-5.0782 3.69785,-3.3854 6.0416,-8.5937 7.03125,-15.625 z"
         style="font-size:160px;text-align:center;text-anchor:middle"
         id="path3096" />
      <path
         d="m 593.91992,-1912.7728 0,-14.1407 43.20313,0 0,14.1407 z"
         style="font-size:160px;text-align:center;text-anchor:middle"
         id="path3098" />
      <path
         d="m 753.99805,-1905.1166 14.53125,1.7969 c -2.29175,8.4896 -6.53654,15.0781 -12.73438,19.7656 -6.19798,4.6875 -14.11464,7.0313 -23.75,7.0313 -12.13545,0 -21.75783,-3.737 -28.86719,-11.211 -7.10938,-7.4739 -10.66406,-17.9557 -10.66406,-31.4453 0,-13.9583 3.59374,-24.7916 10.78125,-32.5 7.18748,-7.7082 16.51039,-11.5624 27.96875,-11.5625 11.0937,10e-5 20.15619,3.7761 27.1875,11.3281 7.03117,7.5522 10.54679,18.1772 10.54688,31.875 -9e-5,0.8334 -0.0261,2.0834 -0.0781,3.75 l -61.875,0 c 0.52081,9.1147 3.09894,16.0938 7.73438,20.9375 4.63538,4.8438 10.41662,7.2657 17.34375,7.2657 5.1562,0 9.55723,-1.3542 13.20312,-4.0625 3.64577,-2.7083 6.5364,-7.0313 8.67188,-12.9688 z m -46.17188,-22.7344 46.32813,0 c -0.62507,-6.9791 -2.3959,-12.2134 -5.3125,-15.7031 -4.47923,-5.4166 -10.28651,-8.1249 -17.42188,-8.125 -6.45837,10e-5 -11.88805,2.1616 -16.28906,6.4844 -4.40107,4.323 -6.83596,10.1042 -7.30469,17.3437 z"
         style="font-size:160px;text-align:center;text-anchor:middle"
         id="path3100" />
    </g>
  </g>
</svg>
