<?xml version="1.0" encoding="UTF-8" standalone="no"?>
<!-- Created with Inkscape (http://www.inkscape.org/) -->

<svg
   xmlns:dc="http://purl.org/dc/elements/1.1/"
   xmlns:cc="http://creativecommons.org/ns#"
   xmlns:rdf="http://www.w3.org/1999/02/22-rdf-syntax-ns#"
   xmlns:svg="http://www.w3.org/2000/svg"
   xmlns="http://www.w3.org/2000/svg"
   xmlns:sodipodi="http://sodipodi.sourceforge.net/DTD/sodipodi-0.dtd"
   xmlns:inkscape="http://www.inkscape.org/namespaces/inkscape"
   width="2000"
   height="2000"
   id="svg2"
   version="1.1"
   inkscape:version="0.48.5 r10040"
   sodipodi:docname="CANC Frecce.svg">
  <defs
     id="defs4" />
  <sodipodi:namedview
     id="base"
     pagecolor="#ffffff"
     bordercolor="#666666"
     borderopacity="1.0"
     inkscape:pageopacity="0.0"
     inkscape:pageshadow="2"
     inkscape:zoom="0.25"
     inkscape:cx="1361.4137"
     inkscape:cy="1040.1758"
     inkscape:document-units="px"
     inkscape:current-layer="layer1"
     showgrid="false"
     inkscape:window-width="1366"
     inkscape:window-height="705"
     inkscape:window-x="-8"
     inkscape:window-y="-8"
     inkscape:window-maximized="1"
     fit-margin-top="0"
     fit-margin-left="0"
     fit-margin-right="0"
     fit-margin-bottom="0" />
  <metadata
     id="metadata7">
    <rdf:RDF>
      <cc:Work
         rdf:about="">
        <dc:format>image/svg+xml</dc:format>
        <dc:type
           rdf:resource="http://purl.org/dc/dcmitype/StillImage" />
        <dc:title />
      </cc:Work>
    </rdf:RDF>
  </metadata>
  <g
     inkscape:label="Livello 1"
     inkscape:groupmode="layer"
     id="layer1"
     transform="translate(11758,-3953.25)">
    <rect
       style="fill:#989898;fill-opacity:1;fill-rule:evenodd;stroke:none"
       id="rect8917"
       width="2000"
       height="2000"
       x="-11758"
       y="3953.25" />
    <rect
       style="fill:#d0d0d0;fill-opacity:1;fill-rule:evenodd;stroke:none"
       id="rect9556"
       width="140"
       height="2000"
       x="-9898"
       y="3953.25" />
    <rect
       y="3953.25"
       x="-11758"
       height="2000"
       width="140"
       id="rect9558"
       style="fill:#d0d0d0;fill-opacity:1;fill-rule:evenodd;stroke:none" />
    <rect
       style="fill:#ffffff;fill-opacity:1;fill-rule:evenodd;stroke:none"
       id="rect9591"
       width="12"
       height="300"
       x="-11076"
       y="5098.3726" />
    <rect
       y="4498.3726"
       x="-11076"
       height="300"
       width="12"
       id="rect9593"
       style="fill:#ffffff;fill-opacity:1;fill-rule:evenodd;stroke:none" />
    <rect
       style="fill:#ffffff;fill-opacity:1;fill-rule:evenodd;stroke:none"
       id="rect9595"
       width="12"
       height="300"
       x="-11076"
       y="3898.3723" />
    <rect
       y="5698.3726"
       x="-11076"
       height="300"
       width="12"
       id="rect9597"
       style="fill:#ffffff;fill-opacity:1;fill-rule:evenodd;stroke:none" />
    <rect
       y="5098.3726"
       x="-10452"
       height="300"
       width="12"
       id="rect9599"
       style="fill:#ffffff;fill-opacity:1;fill-rule:evenodd;stroke:none" />
    <rect
       style="fill:#ffffff;fill-opacity:1;fill-rule:evenodd;stroke:none"
       id="rect9601"
       width="12"
       height="300"
       x="-10452"
       y="4498.3726" />
    <rect
       y="3898.3723"
       x="-10452"
       height="300"
       width="12"
       id="rect9603"
       style="fill:#ffffff;fill-opacity:1;fill-rule:evenodd;stroke:none" />
    <rect
       style="fill:#ffffff;fill-opacity:1;fill-rule:evenodd;stroke:none"
       id="rect9605"
       width="12"
       height="300"
       x="-10452"
       y="5698.3726" />
    <path
       inkscape:connector-curvature="0"
       style="fill:#ffffff;fill-opacity:1;fill-rule:evenodd;stroke:none"
       d="m -11494.645,4503.2498 c 1.07,0 2.011,-0.5703 2.809,-1.7026 0.8,-1.1321 1.421,-2.8897 1.71,-4.8252 0.577,-3.8706 0.23,-7.7931 -0.229,-11.3528 -0.755,-5.8733 -1.829,-9.5223 -2.278,-11.2583 l 10.899,-46.7363 c 3.673,4.8215 7.867,7.5689 12.304,7.5689 14.587,0 26.43,-29.504 26.43,-65.8467 0,-36.3428 -11.843,-65.8468 -26.43,-65.8468 -14.588,0 -26.431,29.504 -26.431,65.8468 0,22.4182 4.515,42.2215 11.393,54.1153 l -3.722,16.0833 -30.228,-60.6436 c 0.406,-1.8568 0.618,-3.9949 0.57,-6.1494 l -0.228,-12.204 c -0.142,-6.453 -2.383,-11.4422 -4.975,-11.1639 l -18.076,2.2704 c -3.106,-27.7587 -13.316,-48.1549 -25.443,-48.1549 -14.587,0 -26.43,29.504 -26.43,65.8468 0,36.3427 11.843,65.8467 26.43,65.8467 4.346,0 8.458,-2.6467 12.077,-7.2848 l 6.873,28.1931 -3.988,16.7454 c -0.507,-0.142 -0.986,-0.2937 -1.481,-0.2838 -2.013,0.042 -3.909,2.6747 -4.974,6.055 -0.267,0.845 -0.549,1.6856 -0.646,2.8381 -0.1,1.1527 0.02,2.6052 0.342,3.6896 0.645,2.169 1.659,2.7437 3.075,2.7437 4.176,0 8.07,-1.4678 12.115,-3.9736 0.488,-0.1968 0.808,-1.2285 0.835,-2.4597 0.03,-1.2312 -0.244,-2.3199 -0.721,-2.649 -1.722,-1.4722 -3.471,-3.2079 -5.241,-4.4466 l 3.912,-16.4617 51.987,0 -3.38,14.3805 c -0.294,1.2902 -0.253,2.8311 0.08,4.0681 0,0 1.602,6.1805 2.317,11.7314 0.357,2.7753 0.435,5.1745 0.303,6.0547 -0.07,0.4402 -0.124,0.5981 -0.303,0.8512 -0.18,0.2539 -0.563,0.5678 -1.253,0.5678 l -14.355,0 c -0.882,0 -1.595,1.7758 -1.595,3.9737 0,2.1973 0.713,3.9734 1.595,3.9734 l 14.355,0 z m 3.986,-53.453 -51.835,0 15.608,-65.4683 3.949,0.7566 c 0.175,0.025 0.395,0.025 0.57,0 0.572,-0.057 1.092,-0.4708 1.594,-1.0404 l 30.989,62.2513 -0.875,3.5008 z m -55.139,-1.5139 -5.962,-24.5979 c 5.654,-9.5423 9.749,-24.4447 11.127,-41.722 l 10.291,1.7977 -15.456,64.5222 z m 76.368,-24.0304 c -3.667,0 -7.131,-2.2108 -10.177,-6.1496 l 9.38,-40.2078 c 0.239,0.1221 0.467,0.2838 0.721,0.2838 2.033,0 3.683,-4.1122 3.683,-9.1768 0,-5.0654 -1.65,-9.2715 -3.683,-9.2715 -2.034,0 -3.684,4.2061 -3.684,9.2715 0,1.4921 0.126,2.8224 0.38,4.0678 l -9.494,40.8705 c -5.61,-10.0101 -9.266,-26.3572 -9.266,-44.8436 0,-30.4413 9.921,-55.1565 22.14,-55.1565 12.219,0 22.139,24.7152 22.139,55.1565 0,30.4405 -9.92,55.1557 -22.139,55.1557 z m -97.14,0 c -12.219,0 -22.139,-24.7152 -22.139,-55.1557 0,-30.4413 9.92,-55.1565 22.139,-55.1565 9.801,0 18.129,15.9335 21.038,37.9379 l -18.911,2.365 -0.646,0 c -2.593,0.035 -4.729,5.2717 -4.746,11.7312 -0.01,5.0058 1.264,9.2548 3.037,10.9745 l 10.101,41.5329 c -2.972,3.6982 -6.327,5.7707 -9.873,5.7707 z m 12.57,-9.8392 -8.81,-36.2344 17.847,3.0275 c -1.239,13.7005 -4.545,25.4623 -9.037,33.2069 z"
       id="path2053" />
    <path
       inkscape:connector-curvature="0"
       style="fill:#ffffff;fill-opacity:1;fill-rule:evenodd;stroke:none"
       d="m -10021.355,5403.2502 c -1.07,0 -2.011,0.5703 -2.809,1.7026 -0.8,1.1321 -1.421,2.8897 -1.71,4.8252 -0.577,3.8706 -0.23,7.7931 0.229,11.3528 0.755,5.8733 1.829,9.5223 2.278,11.2583 l -10.899,46.7363 c -3.673,-4.8215 -7.867,-7.5689 -12.304,-7.5689 -14.587,0 -26.43,29.504 -26.43,65.8467 0,36.3428 11.843,65.8468 26.43,65.8468 14.588,0 26.431,-29.504 26.431,-65.8468 0,-22.4182 -4.515,-42.2215 -11.393,-54.1153 l 3.722,-16.0833 30.228,60.6436 c -0.406,1.8568 -0.618,3.9949 -0.57,6.1494 l 0.228,12.204 c 0.142,6.453 2.383,11.4422 4.975,11.1639 l 18.076,-2.2704 c 3.106,27.7587 13.316,48.1549 25.4433,48.1549 14.587,0 26.43,-29.504 26.43,-65.8468 0,-36.3427 -11.843,-65.8467 -26.43,-65.8467 -4.3463,0 -8.4583,2.6467 -12.0773,7.2848 l -6.873,-28.1931 3.988,-16.7454 c 0.507,0.142 0.986,0.2937 1.481,0.2838 2.013,-0.042 3.909,-2.6747 4.974,-6.055 0.267,-0.845 0.549,-1.6856 0.646,-2.8381 0.1,-1.1527 -0.02,-2.6052 -0.342,-3.6896 -0.645,-2.169 -1.659,-2.7437 -3.075,-2.7437 -4.176,0 -8.07,1.4678 -12.115,3.9736 -0.488,0.1968 -0.808,1.2285 -0.835,2.4597 -0.03,1.2312 0.244,2.3199 0.721,2.649 1.722,1.4722 3.471,3.2079 5.241,4.4466 l -3.912,16.4617 -51.987,0 3.38,-14.3805 c 0.294,-1.2902 0.253,-2.8311 -0.08,-4.0681 0,0 -1.602,-6.1805 -2.317,-11.7314 -0.357,-2.7753 -0.435,-5.1745 -0.303,-6.0547 0.07,-0.4402 0.124,-0.5981 0.303,-0.8512 0.18,-0.2539 0.563,-0.5678 1.253,-0.5678 l 14.355,0 c 0.882,0 1.595,-1.7758 1.595,-3.9737 0,-2.1973 -0.713,-3.9734 -1.595,-3.9734 l -14.355,0 z m -3.986,53.453 51.835,0 -15.608,65.4683 -3.949,-0.7566 c -0.175,-0.025 -0.395,-0.025 -0.57,0 -0.572,0.057 -1.092,0.4708 -1.594,1.0404 l -30.989,-62.2513 0.875,-3.5008 z m 55.139,1.5139 5.962,24.5979 c -5.654,9.5423 -9.749,24.4447 -11.127,41.722 l -10.291,-1.7977 15.456,-64.5222 z m -76.368,24.0304 c 3.667,0 7.131,2.2108 10.177,6.1496 l -9.38,40.2078 c -0.239,-0.1221 -0.467,-0.2838 -0.721,-0.2838 -2.033,0 -3.683,4.1122 -3.683,9.1768 0,5.0654 1.65,9.2715 3.683,9.2715 2.034,0 3.684,-4.2061 3.684,-9.2715 0,-1.4921 -0.126,-2.8224 -0.38,-4.0678 l 9.494,-40.8705 c 5.61,10.0101 9.266,26.3572 9.266,44.8436 0,30.4413 -9.921,55.1565 -22.14,55.1565 -12.219,0 -22.139,-24.7152 -22.139,-55.1565 0,-30.4405 9.92,-55.1557 22.139,-55.1557 z m 97.1403,0 c 12.219,0 22.139,24.7152 22.139,55.1557 0,30.4413 -9.92,55.1565 -22.139,55.1565 -9.8013,0 -18.1293,-15.9335 -21.0383,-37.9379 l 18.911,-2.365 0.646,0 c 2.5933,-0.035 4.7293,-5.2717 4.7463,-11.7312 0.01,-5.0058 -1.264,-9.2548 -3.037,-10.9745 l -10.1013,-41.5329 c 2.972,-3.6982 6.327,-5.7707 9.8733,-5.7707 z m -12.5703,9.8392 8.81,36.2344 -17.847,-3.0275 c 1.239,-13.7005 4.545,-25.4623 9.037,-33.2069 z"
       id="path2053-1" />
    <rect
       style="fill:#fcd647;fill-opacity:1;fill-rule:evenodd;stroke:none"
       id="rect3059"
       width="30"
       height="2000"
       x="-11418"
       y="3953.25" />
    <rect
       style="fill:#ffffff;fill-opacity:1;stroke:none"
       id="rect3829"
       width="12"
       height="2000"
       x="-11376"
       y="3953.25" />
    <rect
       y="3953.25"
       x="-10776"
       height="2000"
       width="12"
       id="rect3831"
       style="fill:#ffffff;fill-opacity:1;stroke:none" />
    <rect
       style="fill:#ffffff;fill-opacity:1;stroke:none"
       id="rect3833"
       width="12"
       height="2000"
       x="-10752"
       y="3953.25" />
    <rect
       y="3953.25"
       x="-10152"
       height="2000"
       width="12"
       id="rect3835"
       style="fill:#ffffff;fill-opacity:1;stroke:none" />
    <rect
       y="3953.25"
       x="-10128"
       height="2000"
       width="30"
       id="rect3837"
       style="fill:#fcd647;fill-opacity:1;fill-rule:evenodd;stroke:none" />
  </g>
</svg>
