<svg xmlns="http://www.w3.org/2000/svg" width="200" height="200" xmlns:v="https://vecta.io/nano"><path d="M-4.931-3.438h207.715V203.91H-4.931V-3.438z" fill="#fff"/><path d="M21.822.347h157.63c10.293 0 18.579 8.393 18.579 18.819v159.673c0 10.426-8.286 18.819-18.579 18.819H21.822c-10.293 0-18.579-8.393-18.579-18.819V19.166C3.244 8.74 11.53.347 21.822.347z" fill="none" stroke="#000" stroke-width="3.019"/><path d="M66.905 164.945c2.061-6.214 3.944-11.515 4.185-11.78s2.434.188 4.873 1.007c9.243 3.104 15.104 3.983 26.578 3.983 11.713 0 17.833-.95 26.992-4.191 2.603-.921 4.763-1.627 4.8-1.568.056.089 5.94 19.596 6.891 22.846.277.947-1.842 1.001-38.887 1.001h-39.18l3.747-11.298zm28.486-14.474c-21.507-1.834-41.864-13.099-54.749-30.297-2.97-3.964-7.319-10.9-7.319-11.672 0-.183 31.173-.333 69.273-.333h69.273l-1.569 2.717c-5.52 9.559-12.98 18.17-20.928 24.159-11.816 8.904-25.578 14.148-40.537 15.446-3.618.314-6.965.537-7.437.494l-6.007-.516z"/><path d="M94.029 80.595c-.004-25.154-.204-28.702-1.872-33.278-1.54-4.225-3.781-7.359-8.348-11.679-3.006-2.844-5.164-4.285-8.316-5.554-5.707-2.299-12.738-2.673-19.058-1.015-3.887 1.02-7.2 2.69-10.337 5.211-5.114 4.109-7.85 8.072-10.094 14.624-.632 1.843-.897 3.004-1.046 4.576-.156 1.642-.404 1.845-1.4 1.14-.65-.46-4.351-4.104-4.351-4.284 0-.28 1.681-5.207 2.194-6.43 1.78-4.245 4.373-8.077 7.713-11.4 3.088-3.072 6.076-5.244 9.603-6.983 5.087-2.507 9.203-3.418 15.468-3.424 6.797-.006 11.066.98 16.503 3.814 8.008 4.174 14.511 11.644 17.621 20.244.714 1.975.935 2.833 1.152 4.484.376 2.86.405 4.334.752 37.248l.08 7.636h-3.13-3.13l-.002-14.929zM82.59 93.186L82.447 71.9l-.146-18.949-1.119-2.244c-1.437-2.882-2.311-4.16-4.014-5.867-3.666-3.678-8.367-5.477-13.715-5.25-4.748.201-8.483 1.867-11.91 5.311-2.329 2.34-3.624 4.469-4.48 7.362-.828 2.799-1.095 5.193-1.229 11.006l-.085 3.71-3.153-3.156-3.153-3.156.323-2.549c.585-4.613.898-6.233 1.63-8.437 1.188-3.571 2.966-6.341 6.027-9.384 3.218-3.199 6.38-4.99 10.98-6.218 1.918-.512 3.552-.696 6.109-.687 4.667.016 8.422 1.041 12.434 3.393 4.581 2.686 8.621 7.854 10.492 13.423 1.1 3.273 1.146 4.28 1.221 27.021l.061 18.295h-3.065-3.065l.003-2.337h0zm-11.472-17.93V54.988l-.94-1.107c-1.428-1.684-2.381-2.368-3.967-2.851-1.033-.315-2.684-.348-3.733-.075-2.193.571-4.14 2.385-4.641 4.324-.387 1.496-.457 3.273-.522 13.163l-.066 10.005-3.036-2.961-3.036-2.961.038-8.477c.042-9.514.027-9.326.973-11.496s2.462-4.167 4.118-5.431a12.85 12.85 0 0 1 8.576-2.669c3.487.178 6.313 1.413 8.744 3.821 1.979 1.96 3.096 3.965 3.488 6.258.399 2.337.502 6.676.801 33.796l.079 7.199h-3.439-3.439v-20.27zm56.099 2.908c.076-19.317.165-21.915.842-24.715.463-1.914 1.509-3.52 3.472-5.333 6.018-5.557 14.798-4.692 19.892 1.959 1.933 2.523 2.272 4.82 2.543 17.212l.098 4.488-3.127 3.066-3.127 3.066-.074-9.299c-.098-12.338-.16-12.863-1.777-15.058-1.382-1.877-3.645-2.938-5.816-2.728-1.895.184-3.411 1.027-5.324 2.962l-1.148 1.161-.135 18.388-.205 20.289-.071 1.901h-3.056-3.056l.069-17.36zM116.33 92.251l.136-22.097.138-18.824.893-1.868c1.623-3.397 2.813-5.46 4.068-7.054a22.21 22.21 0 0 1 7.369-6.143c3.733-1.956 7.316-2.825 11.651-2.825 4.061 0 7.151.66 10.467 2.238 5.36 2.549 9.42 6.844 11.838 12.525 1.408 3.309 1.939 6.248 1.935 10.726l-.002 2.623-3.021 2.636-3.021 2.636-.151-4.88c-.162-5.251-.407-8.476-.748-9.867-.27-1.102-1.25-3.035-2.273-4.488-1.106-1.57-3.745-4.156-5.305-5.198-1.498-1.001-3.832-2.137-4.862-2.365-.541-.12-1.888-.165-4.862-.164-4.958.003-5.224.046-7.605 1.244-2.011 1.012-3.48 2.089-5.177 3.793-2.52 2.531-4.077 5.061-4.545 7.385-.349 1.731-.433 4.568-.564 19.116l-.204 19.354-.073 4.768h-3.04-3.04l-.002-3.272zm-11.463-9.474l.369-29.327c.256-3.267.571-4.815 1.56-7.667 1.173-3.382 2.636-6.101 4.927-9.163 3.47-4.636 7.831-8.28 12.961-10.831 5.301-2.636 10.199-3.819 15.832-3.825 5.729-.006 10.606 1.149 15.854 3.754 8.094 4.018 14.65 11.261 17.655 19.505.565 1.549 1.646 5.053 1.646 5.334 0 .163-4.872 4.618-5.165 4.723-.064.023-.329-.968-.589-2.203s-.667-2.889-.904-3.678c-1.365-4.539-4.283-9.44-7.566-12.707-7.824-7.786-18.896-10.581-29.369-7.416-6.628 2.003-12.268 6.18-16.063 11.895-1.789 2.694-3.009 5.255-3.849 8.079-.956 3.212-.969 3.549-1.036 26.422l-.058 19.853h-3.105-3.105l.004-12.747z" fill="#0060a8"/></svg>