<?xml version="1.0" encoding="UTF-8" standalone="no"?>
<!-- Created with Inkscape (http://www.inkscape.org/) -->

<svg
   width="100.54166mm"
   height="82.020836mm"
   viewBox="0 0 100.54166 82.020836"
   version="1.1"
   id="svg20879"
   inkscape:version="1.2.1 (9c6d41e410, 2022-07-14)"
   sodipodi:docname="Segnale stradale italiano - dimensione del simbolo delle lanterne per velocipedi (figura II 457).svg"
   xmlns:inkscape="http://www.inkscape.org/namespaces/inkscape"
   xmlns:sodipodi="http://sodipodi.sourceforge.net/DTD/sodipodi-0.dtd"
   xmlns="http://www.w3.org/2000/svg"
   xmlns:svg="http://www.w3.org/2000/svg">
  <sodipodi:namedview
     id="namedview20881"
     pagecolor="#ffffff"
     bordercolor="#000000"
     borderopacity="0.25"
     inkscape:showpageshadow="2"
     inkscape:pageopacity="0.0"
     inkscape:pagecheckerboard="0"
     inkscape:deskcolor="#d1d1d1"
     inkscape:document-units="mm"
     showgrid="false"
     inkscape:zoom="0.76257015"
     inkscape:cx="189.49076"
     inkscape:cy="11.146516"
     inkscape:window-width="1920"
     inkscape:window-height="991"
     inkscape:window-x="-9"
     inkscape:window-y="-9"
     inkscape:window-maximized="1"
     inkscape:current-layer="layer1" />
  <defs
     id="defs20876" />
  <g
     inkscape:label="Livello 1"
     inkscape:groupmode="layer"
     id="layer1"
     transform="translate(-55.205836,-69.323594)">
    <g
       id="g8141"
       transform="translate(-4262.6135,-17023.86)">
      <rect
         style="fill:#ffffff;fill-rule:evenodd;stroke-width:0.540299;paint-order:markers fill stroke"
         id="rect8079"
         width="100.54166"
         height="82.020836"
         x="4317.8193"
         y="17093.184" />
      <g
         id="g8121">
        <circle
           style="fill:#000000;fill-rule:evenodd;stroke-width:0.722612;paint-order:markers fill stroke"
           id="path10991"
           cx="4381.002"
           cy="17127.988"
           r="26.458334" />
        <path
           id="path5866-0-6-6-0"
           style="color:#000000;fill:#ffffff;fill-rule:evenodd;stroke-width:1.11223;paint-order:markers fill stroke"
           d="m 4375.1718,17116.69 c -0.765,0 -1.4356,0.338 -1.7978,0.88 -0.3621,0.542 -0.3967,1.266 -0.072,1.859 0.2527,0.459 0.4949,0.675 0.5197,0.73 0.025,0.05 0.095,0.06 -0.2183,0.567 l -0.01,0.01 -2.497,4.367 c -0.9969,-0.489 -2.1178,-0.765 -3.3024,-0.765 -4.1255,0 -7.487,3.332 -7.487,7.421 0,4.089 3.3615,7.42 7.487,7.42 4.1256,0 7.4841,-3.331 7.4841,-7.42 0,-2.392 -1.1489,-4.524 -2.9277,-5.881 l 0.9578,-1.675 8.1642,6.294 c -0.073,0.261 -0.1184,0.583 -0.1184,0.98 0,2.355 2.12,2.032 2.12,2.032 l 4.8393,-0.451 c 0.622,3.472 3.6933,6.121 7.372,6.121 4.1257,0 7.4842,-3.331 7.4842,-7.42 0,-4.089 -3.3585,-7.421 -7.4842,-7.421 -1.1094,0 -2.1635,0.242 -3.1118,0.674 l -2.2758,-3.319 1.3324,-2.348 0.8267,0.184 c 0.7363,0.182 1.0381,-0.04 1.0324,-0.275 v -1.065 c 0,-0.456 -0.085,-0.619 -1.0242,-0.619 h -3.7729 c -0.4814,0 -0.924,0.69 0,1.13 l 1.4301,0.314 -1.3111,2.311 h -13.8546 c 0.3549,-0.651 0.421,-1.286 0.2171,-1.749 -0.2218,-0.506 -0.4984,-0.704 -0.5761,-0.846 -0.079,-0.143 -0.064,-0.247 0.01,-0.348 0.069,-0.103 0.2097,-0.226 0.567,-0.226 h 3.677 c 0,0 0.8273,0.06 0.8273,-0.732 0,-0.789 -0.8273,-0.734 -0.8273,-0.734 z m -1.0524,6.1 h 13.8625 l -3.7811,6.663 -1.2891,-0.04 c 0,0 -0.1796,-0.04 -0.4163,0.01 l -8.4477,-6.513 z m 15.3712,0.33 1.8069,2.634 c -1.3012,0.938 -2.2883,2.28 -2.7701,3.838 l -2.662,-0.09 z m -21.6937,2.683 c 0.9227,0 1.7951,0.205 2.575,0.571 l -2.4907,4.355 c -0.5862,0.108 -1.0117,0.613 -1.0121,1.204 1e-4,0.677 0.5536,1.226 1.2367,1.226 0.6831,0 1.2371,-0.548 1.2371,-1.226 1e-4,-0.192 -0.046,-0.382 -0.1345,-0.557 l 2.4122,-4.217 c 1.3349,1.092 2.1835,2.744 2.1835,4.601 0,3.296 -2.6804,5.952 -6.0072,5.952 -3.3267,0 -6.0072,-2.656 -6.0072,-5.952 0,-3.299 2.6805,-5.957 6.0072,-5.957 z m 27.8913,0 c 3.3267,0 6.0073,2.658 6.0073,5.957 0,3.296 -2.6806,5.952 -6.0073,5.952 -2.9257,0 -5.353,-2.054 -5.8957,-4.792 l 6.4408,-0.601 c 1.2884,-0.199 1.5021,-2.323 -0.2119,-2.486 h -0.142 l -2.4607,-3.588 c 0.6998,-0.282 1.466,-0.439 2.2695,-0.439 z m -3.5639,1.156 1.9283,2.811 -3.9848,-0.129 c 0.4132,-1.08 1.1334,-2.008 2.0565,-2.682 z" />
      </g>
      <path
         style="fill:none;fill-rule:evenodd;stroke:#000000;stroke-width:0.529167;paint-order:markers fill stroke"
         d="m 4360.3069,17155.466 v 5.292 h 42.8625 v -5.292"
         id="path5607"
         sodipodi:nodetypes="cccc" />
      <path
         style="fill:none;fill-rule:evenodd;stroke:#000000;stroke-width:0.529167;paint-order:markers fill stroke"
         d="m 4344.1692,17116.425 h -5.292 v 22.489 h 5.292"
         id="path5607-1"
         sodipodi:nodetypes="cccc" />
      <g
         aria-label="162 mm"
         id="text6571"
         style="font-size:7.9375px;font-family:'Stradale Normale Negativo';-inkscape-font-specification:'Stradale Normale Negativo';fill-rule:evenodd;stroke-width:0.529167;paint-order:markers fill stroke">
        <path
           d="m 4367.2664,17166.692 v 4.206 h 1.2065 v -6.183 h -1.0953 q 0.01,0.373 -0.048,0.54 -0.055,0.167 -0.246,0.286 -0.1588,0.09 -0.389,0.09 -0.2222,0 -0.4524,0 v 1.048 z"
           id="path8098" />
        <path
           d="m 4372.2988,17169.867 q -0.2302,0 -0.4127,-0.09 -0.1747,-0.09 -0.3017,-0.238 -0.127,-0.159 -0.1905,-0.365 -0.064,-0.206 -0.064,-0.437 0,-0.222 0.079,-0.404 0.079,-0.183 0.2143,-0.31 0.135,-0.135 0.3096,-0.206 0.1746,-0.07 0.3651,-0.07 0.2064,0 0.381,0.08 0.1826,0.08 0.3096,0.214 0.1349,0.135 0.2064,0.317 0.071,0.175 0.071,0.381 0,0.207 -0.056,0.413 -0.055,0.199 -0.1746,0.365 -0.1191,0.159 -0.3016,0.254 -0.1826,0.1 -0.4366,0.1 z m -1.0239,-2.85 q -0.01,-0.198 0.048,-0.429 0.056,-0.23 0.1746,-0.42 0.127,-0.191 0.3175,-0.318 0.1905,-0.127 0.4525,-0.127 0.3651,0 0.5635,0.167 0.1985,0.167 0.3652,0.436 l 1.1271,-0.476 q -0.1588,-0.333 -0.3413,-0.579 -0.1747,-0.246 -0.4128,-0.405 -0.2302,-0.159 -0.5397,-0.23 -0.3017,-0.08 -0.7065,-0.08 -0.6905,0 -1.1509,0.27 -0.4524,0.27 -0.7303,0.723 -0.2698,0.452 -0.3889,1.047 -0.1111,0.596 -0.1111,1.246 0,0.572 0.119,1.151 0.127,0.572 0.4049,1.032 0.2778,0.461 0.7223,0.746 0.4524,0.286 1.1112,0.286 0.508,0 0.9208,-0.159 0.4127,-0.158 0.6985,-0.452 0.2857,-0.302 0.4365,-0.73 0.1588,-0.437 0.1588,-0.977 0,-0.468 -0.1429,-0.865 -0.1349,-0.397 -0.3969,-0.682 -0.2619,-0.286 -0.6429,-0.445 -0.3731,-0.167 -0.8493,-0.167 -0.3175,0 -0.6271,0.104 -0.3095,0.09 -0.5794,0.333 z"
           id="path8100" />
        <path
           d="m 4378.7996,17168.779 q 0.5001,-0.436 0.7541,-0.937 0.2619,-0.5 0.2619,-1.055 0,-0.508 -0.1667,-0.921 -0.1587,-0.413 -0.4603,-0.706 -0.3017,-0.294 -0.7224,-0.445 -0.4206,-0.159 -0.9286,-0.159 -0.1667,0 -0.4128,0.03 -0.2461,0.03 -0.5159,0.127 -0.2699,0.09 -0.5318,0.254 -0.254,0.167 -0.4366,0.437 -0.2461,0.357 -0.3334,0.793 -0.079,0.437 -0.079,0.889 h 1.2859 q -0.016,-0.293 0.032,-0.539 0.048,-0.246 0.1667,-0.421 0.119,-0.183 0.3175,-0.278 0.1984,-0.09 0.4841,-0.09 0.2858,0 0.516,0.135 0.2381,0.135 0.3572,0.381 0.119,0.238 0.095,0.571 -0.024,0.334 -0.2619,0.723 -0.3493,0.381 -0.7461,0.706 -0.389,0.318 -0.762,0.595 -0.3731,0.278 -0.6985,0.524 -0.3255,0.238 -0.5398,0.461 v 1.047 h 4.2942 v -1.127 h -2.1908 q 0.3969,-0.333 0.7303,-0.579 0.3334,-0.254 0.4921,-0.413 z"
           id="path8102" />
        <path
           d="m 4387.515,17170.898 h 1.2065 v -2.349 q 0,-0.159 0.01,-0.341 0.016,-0.183 0.079,-0.342 0.064,-0.158 0.1985,-0.262 0.1349,-0.111 0.3889,-0.111 0.254,0 0.3889,0.111 0.135,0.104 0.1985,0.262 0.064,0.151 0.071,0.342 0.016,0.182 0.016,0.333 v 2.357 h 1.2382 v -2.428 -0.651 q -0.048,-0.421 -0.2063,-0.707 -0.1588,-0.286 -0.3969,-0.452 -0.2302,-0.175 -0.516,-0.246 -0.2857,-0.08 -0.5794,-0.08 -0.4127,0 -0.7223,0.159 -0.3016,0.159 -0.5398,0.413 -0.127,-0.143 -0.254,-0.246 -0.119,-0.111 -0.2698,-0.183 -0.1429,-0.07 -0.3175,-0.103 -0.1667,-0.04 -0.389,-0.04 -0.2778,0 -0.5238,0.127 -0.2382,0.127 -0.4207,0.294 l -0.1032,-0.286 h -1.0954 v 4.429 h 1.1906 v -2.349 q 0,-0.159 0.01,-0.341 0.016,-0.183 0.079,-0.342 0.063,-0.158 0.1985,-0.262 0.1349,-0.111 0.3889,-0.111 0.254,0 0.389,0.111 0.1349,0.104 0.1984,0.262 0.064,0.159 0.071,0.342 0.016,0.182 0.016,0.341 z"
           id="path8104" />
        <path
           d="m 4395.0239,17170.898 h 1.2065 v -2.349 q 0,-0.159 0.01,-0.341 0.016,-0.183 0.079,-0.342 0.064,-0.158 0.1984,-0.262 0.135,-0.111 0.389,-0.111 0.254,0 0.3889,0.111 0.1349,0.104 0.1984,0.262 0.064,0.151 0.072,0.342 0.016,0.182 0.016,0.333 v 2.357 h 1.2383 v -2.428 -0.651 q -0.048,-0.421 -0.2064,-0.707 -0.1587,-0.286 -0.3969,-0.452 -0.2301,-0.175 -0.5159,-0.246 -0.2857,-0.08 -0.5794,-0.08 -0.4128,0 -0.7223,0.159 -0.3017,0.159 -0.5398,0.413 -0.127,-0.143 -0.254,-0.246 -0.1191,-0.111 -0.2699,-0.183 -0.1428,-0.07 -0.3175,-0.103 -0.1667,-0.04 -0.3889,-0.04 -0.2778,0 -0.5239,0.127 -0.2381,0.127 -0.4207,0.294 l -0.1032,-0.286 h -1.0953 v 4.429 h 1.1906 v -2.349 q 0,-0.159 0.01,-0.341 0.016,-0.183 0.079,-0.342 0.064,-0.158 0.1984,-0.262 0.135,-0.111 0.389,-0.111 0.254,0 0.3889,0.111 0.135,0.104 0.1985,0.262 0.064,0.159 0.071,0.342 0.016,0.182 0.016,0.341 z"
           id="path8106" />
      </g>
      <rect
         style="fill:#ffffff;fill-rule:evenodd;stroke-width:0.507069;paint-order:markers fill stroke"
         id="rect6573"
         width="33.114693"
         height="10.289877"
         x="4320.064"
         y="17122.498" />
      <g
         aria-label="95 mm"
         id="text6465"
         style="font-size:7.9375px;font-family:'Stradale Normale Negativo';-inkscape-font-specification:'Stradale Normale Negativo';fill-rule:evenodd;stroke-width:0.529167;paint-order:markers fill stroke">
        <path
           d="m 4324.7776,17125.296 q 0.2223,0 0.4048,0.09 0.1826,0.09 0.3017,0.238 0.127,0.151 0.1905,0.341 0.071,0.191 0.071,0.405 0,0.222 -0.071,0.421 -0.072,0.19 -0.1985,0.341 -0.127,0.143 -0.3095,0.23 -0.1747,0.08 -0.389,0.08 -0.2064,0 -0.3889,-0.09 -0.1746,-0.09 -0.3016,-0.238 -0.127,-0.151 -0.1985,-0.341 -0.071,-0.191 -0.071,-0.405 0,-0.214 0.063,-0.405 0.064,-0.19 0.1825,-0.341 0.127,-0.151 0.3017,-0.238 0.1825,-0.09 0.4127,-0.09 z m 1.0398,2.865 q 0.024,0.413 -0.095,0.675 -0.1191,0.254 -0.3016,0.397 -0.1747,0.135 -0.3572,0.182 -0.1826,0.05 -0.2858,0.05 -0.3572,0 -0.5874,-0.183 -0.2222,-0.182 -0.3095,-0.413 l -1.1113,0.445 q 0.079,0.278 0.2302,0.524 0.1588,0.238 0.389,0.413 0.2301,0.174 0.5476,0.269 0.3175,0.104 0.7224,0.104 0.7858,0 1.27,-0.27 0.4841,-0.27 0.7461,-0.715 0.2699,-0.452 0.3651,-1.039 0.095,-0.596 0.095,-1.239 0,-0.666 -0.1191,-1.254 -0.1191,-0.587 -0.4048,-1.024 -0.2858,-0.444 -0.762,-0.698 -0.4763,-0.262 -1.1906,-0.262 -0.5001,0 -0.889,0.182 -0.381,0.183 -0.643,0.493 -0.2619,0.301 -0.3969,0.706 -0.1349,0.405 -0.1349,0.849 0,0.135 0.016,0.357 0.016,0.215 0.079,0.469 0.064,0.246 0.1905,0.5 0.127,0.246 0.3571,0.452 0.2302,0.207 0.5636,0.334 0.3413,0.127 0.8334,0.127 0.3175,0 0.6112,-0.111 0.2937,-0.12 0.5715,-0.318 z"
           id="path8081" />
        <path
           d="m 4328.3574,17127.47 1.2621,0.183 q 0.04,-0.07 0.1191,-0.159 0.079,-0.09 0.1905,-0.174 0.119,-0.08 0.2698,-0.135 0.1508,-0.06 0.3413,-0.06 0.2302,0 0.4287,0.09 0.1984,0.09 0.3413,0.247 0.1508,0.158 0.2222,0.381 0.079,0.214 0.064,0.484 -0.024,0.293 -0.1349,0.508 -0.1032,0.206 -0.254,0.341 -0.1508,0.135 -0.3334,0.198 -0.1746,0.06 -0.3334,0.06 -0.1349,0 -0.2936,-0.05 -0.1588,-0.05 -0.3096,-0.15 -0.1429,-0.112 -0.2699,-0.278 -0.119,-0.167 -0.1905,-0.405 l -1.1985,0.365 q 0.1508,0.421 0.3571,0.738 0.2064,0.318 0.4763,0.532 0.2778,0.214 0.6271,0.318 0.3571,0.111 0.8016,0.111 0.4287,0 0.8414,-0.151 0.4207,-0.143 0.7541,-0.429 0.3334,-0.286 0.5318,-0.714 0.2064,-0.429 0.2064,-1 0,-0.572 -0.1826,-1 -0.1746,-0.437 -0.4762,-0.723 -0.2937,-0.285 -0.6906,-0.428 -0.3969,-0.151 -0.8334,-0.151 -0.1112,0 -0.254,0.02 -0.135,0.02 -0.2699,0.06 -0.135,0.03 -0.2461,0.08 -0.1111,0.04 -0.1667,0.07 l 0.1032,-0.849 h 2.667 v -1.135 h -3.7782 z"
           id="path8083" />
        <path
           d="m 4340.3907,17130.463 h 1.2065 v -2.35 q 0,-0.158 0.01,-0.341 0.016,-0.182 0.079,-0.341 0.063,-0.159 0.1984,-0.262 0.135,-0.111 0.389,-0.111 0.254,0 0.3889,0.111 0.1349,0.103 0.1984,0.262 0.064,0.151 0.072,0.341 0.016,0.183 0.016,0.333 v 2.358 h 1.2382 v -2.429 -0.651 q -0.048,-0.421 -0.2064,-0.706 -0.1587,-0.286 -0.3968,-0.453 -0.2302,-0.174 -0.516,-0.246 -0.2857,-0.08 -0.5794,-0.08 -0.4128,0 -0.7223,0.159 -0.3017,0.158 -0.5398,0.412 -0.127,-0.143 -0.254,-0.246 -0.119,-0.111 -0.2699,-0.182 -0.1428,-0.07 -0.3175,-0.103 -0.1666,-0.04 -0.3889,-0.04 -0.2778,0 -0.5239,0.127 -0.2381,0.127 -0.4207,0.294 l -0.1031,-0.286 h -1.0954 v 4.429 h 1.1906 v -2.35 q 0,-0.158 0.01,-0.341 0.016,-0.182 0.079,-0.341 0.064,-0.159 0.1985,-0.262 0.1349,-0.111 0.3889,-0.111 0.254,0 0.3889,0.111 0.135,0.103 0.1985,0.262 0.064,0.159 0.071,0.341 0.016,0.183 0.016,0.341 z"
           id="path8085" />
        <path
           d="m 4347.8996,17130.463 h 1.2065 v -2.35 q 0,-0.158 0.01,-0.341 0.016,-0.182 0.079,-0.341 0.064,-0.159 0.1984,-0.262 0.1349,-0.111 0.3889,-0.111 0.254,0 0.389,0.111 0.1349,0.103 0.1984,0.262 0.064,0.151 0.072,0.341 0.016,0.183 0.016,0.333 v 2.358 h 1.2383 v -2.429 -0.651 q -0.048,-0.421 -0.2064,-0.706 -0.1587,-0.286 -0.3969,-0.453 -0.2302,-0.174 -0.5159,-0.246 -0.2858,-0.08 -0.5794,-0.08 -0.4128,0 -0.7224,0.159 -0.3016,0.158 -0.5397,0.412 -0.127,-0.143 -0.254,-0.246 -0.1191,-0.111 -0.2699,-0.182 -0.1429,-0.07 -0.3175,-0.103 -0.1667,-0.04 -0.3889,-0.04 -0.2778,0 -0.5239,0.127 -0.2381,0.127 -0.4207,0.294 l -0.1032,-0.286 h -1.0953 v 4.429 h 1.1906 v -2.35 q 0,-0.158 0.01,-0.341 0.016,-0.182 0.079,-0.341 0.064,-0.159 0.1984,-0.262 0.135,-0.111 0.389,-0.111 0.254,0 0.3889,0.111 0.1349,0.103 0.1984,0.262 0.063,0.159 0.072,0.341 0.016,0.183 0.016,0.341 z"
           id="path8087" />
      </g>
    </g>
  </g>
</svg>
