<?xml version="1.0" encoding="UTF-8" standalone="no"?>
<!-- Created with Inkscape (http://www.inkscape.org/) -->

<svg
   xmlns:dc="http://purl.org/dc/elements/1.1/"
   xmlns:cc="http://creativecommons.org/ns#"
   xmlns:rdf="http://www.w3.org/1999/02/22-rdf-syntax-ns#"
   xmlns:svg="http://www.w3.org/2000/svg"
   xmlns="http://www.w3.org/2000/svg"
   xmlns:sodipodi="http://sodipodi.sourceforge.net/DTD/sodipodi-0.dtd"
   xmlns:inkscape="http://www.inkscape.org/namespaces/inkscape"
   width="2200"
   height="2000"
   id="svg2"
   version="1.1"
   inkscape:version="0.48.5 r10040"
   sodipodi:docname="CANC dritto.svg">
  <defs
     id="defs4" />
  <sodipodi:namedview
     id="base"
     pagecolor="#ffffff"
     bordercolor="#666666"
     borderopacity="1.0"
     inkscape:pageopacity="0.0"
     inkscape:pageshadow="2"
     inkscape:zoom="0.25"
     inkscape:cx="1480.3339"
     inkscape:cy="1873.227"
     inkscape:document-units="px"
     inkscape:current-layer="layer1"
     showgrid="false"
     inkscape:window-width="1366"
     inkscape:window-height="705"
     inkscape:window-x="-8"
     inkscape:window-y="-8"
     inkscape:window-maximized="1"
     fit-margin-top="0"
     fit-margin-left="0"
     fit-margin-right="0"
     fit-margin-bottom="0" />
  <metadata
     id="metadata7">
    <rdf:RDF>
      <cc:Work
         rdf:about="">
        <dc:format>image/svg+xml</dc:format>
        <dc:type
           rdf:resource="http://purl.org/dc/dcmitype/StillImage" />
        <dc:title></dc:title>
      </cc:Work>
    </rdf:RDF>
  </metadata>
  <g
     inkscape:label="Livello 1"
     inkscape:groupmode="layer"
     id="layer1"
     transform="translate(11758,-3953.25)">
    <rect
       style="fill:#989898;fill-opacity:1;fill-rule:evenodd;stroke:none"
       id="rect8917"
       width="2082.022"
       height="2263.8066"
       x="-11703.635"
       y="3828.2095" />
    <path
       style="fill:none;stroke:#ffffff;stroke-width:12;stroke-linecap:butt;stroke-linejoin:miter;stroke-miterlimit:4;stroke-opacity:1;stroke-dasharray:none"
       d="m -10046,3875.8208 0,2163.7467"
       id="path8777-6"
       inkscape:connector-curvature="0"
       sodipodi:nodetypes="cc" />
    <path
       inkscape:connector-curvature="0"
       id="path8779-1"
       d="m -10013,3898.4482 0,2118.4919"
       style="fill:none;stroke:#fcd647;stroke-width:30;stroke-linecap:butt;stroke-linejoin:miter;stroke-miterlimit:4;stroke-opacity:1;stroke-dasharray:none"
       sodipodi:nodetypes="cc" />
    <path
       style="fill:none;stroke:#ffffff;stroke-width:12;stroke-linecap:butt;stroke-linejoin:miter;stroke-miterlimit:4;stroke-opacity:1;stroke-dasharray:none"
       d="m -10646,3858.8502 0,2192.031"
       id="path8942"
       inkscape:connector-curvature="0"
       sodipodi:nodetypes="cc" />
    <path
       inkscape:connector-curvature="0"
       id="path8944"
       d="m -10670,3904.1051 0,2118.4918"
       style="fill:none;stroke:#ffffff;stroke-width:12;stroke-linecap:butt;stroke-linejoin:miter;stroke-miterlimit:4;stroke-opacity:1;stroke-dasharray:none"
       sodipodi:nodetypes="cc" />
    <path
       inkscape:connector-curvature="0"
       id="path8948"
       d="m -11270,3836.2228 0,2135.4624"
       style="fill:none;stroke:#ffffff;stroke-width:12;stroke-linecap:butt;stroke-linejoin:miter;stroke-miterlimit:4;stroke-opacity:1;stroke-dasharray:none"
       sodipodi:nodetypes="cc" />
    <path
       style="fill:none;stroke:#fcd647;stroke-width:30;stroke-linecap:butt;stroke-linejoin:miter;stroke-miterlimit:4;stroke-opacity:1;stroke-dasharray:none"
       d="m -11303,3859.7316 0,2208.1202"
       id="path8952"
       inkscape:connector-curvature="0"
       sodipodi:nodetypes="cc" />
    <g
       transform="scale(0.60615741,1.6497365)"
       style="font-size:133.77154541px;font-style:normal;font-weight:normal;line-height:125%;letter-spacing:0px;word-spacing:0px;fill:#fcd647;fill-opacity:1;stroke:none;font-family:Sans"
       id="text7427-0-4-4">
      <path
         d="m -16323.089,3034.8191 c 5.707,0 11.014,2.4087 15.922,7.2258 5.26,5.0813 7.891,10.8769 7.891,17.3868 0,6.8694 -3.122,13.291 -9.365,19.2648 8.829,4.8173 13.243,12.3983 13.243,22.743 0,6.7768 -2.096,12.752 -6.287,17.9257 -4.458,5.6174 -10.388,8.8275 -17.791,9.6304 l -52.303,0 0,-94.1765 z m -28.895,37.8559 22.474,0 c 2.765,10e-5 5.039,-1.0695 6.823,-3.2088 1.784,-2.1391 2.676,-4.5912 2.676,-7.3564 0,-6.1535 -3.388,-9.5432 -10.165,-10.1692 l -21.808,0 z m 0,39.199 24.213,0 c 3.747,1e-4 6.736,-1.1593 8.965,-3.4782 1.872,-2.1418 2.808,-4.7736 2.808,-7.8953 0,-2.942 -0.914,-5.5724 -2.743,-7.8912 -1.829,-2.3188 -4.348,-3.6564 -7.557,-4.013 l -25.686,0 z"
         style="font-variant:normal;font-stretch:normal;fill:#fcd647;font-family:CodiceBianco;-inkscape-font-specification:CodiceBianco"
         id="path9610"
         inkscape:connector-curvature="0" />
      <path
         d="m -16279.705,3034.8191 19.265,0 0,57.2554 c 0,4.0116 1.515,7.9797 4.547,11.9042 3.925,4.9942 9.187,7.4912 15.787,7.4912 6.51,0 11.726,-2.497 15.648,-7.4912 3.211,-3.9245 4.817,-7.8926 4.817,-11.9042 l 0,-57.2554 19.265,0 0,58.9945 c 0,10.7013 -4.326,19.7533 -12.978,27.156 -8.026,6.7768 -16.9,10.1651 -26.622,10.1651 -10.075,0 -19.215,-3.7231 -27.421,-11.1694 -8.205,-7.4462 -12.308,-16.2084 -12.308,-26.2864 z"
         style="font-variant:normal;font-stretch:normal;fill:#fcd647;font-family:CodiceBianco;-inkscape-font-specification:CodiceBianco"
         id="path9612"
         inkscape:connector-curvature="0" />
      <path
         d="m -16146.126,3034.1495 c 16.322,1e-4 30.19,5.129 41.604,15.3865 l -13.913,11.9043 c -2.765,-2.4086 -6.198,-4.5491 -10.3,-6.4216 -5.084,-2.4085 -9.988,-3.6128 -14.713,-3.6129 -2.588,1e-4 -5.041,0.4015 -7.36,1.2043 -5.441,1.7854 -7.938,5.2187 -7.491,10.2998 0.179,2.0522 1.963,3.7477 5.352,5.0867 3.032,1.2465 9.095,2.8509 18.191,4.8131 19.086,4.1042 28.63,13.5127 28.63,28.2256 0,9.0085 -3.545,16.2547 -10.635,21.7387 -7.09,5.484 -16.745,8.226 -28.965,8.226 -10.165,0 -19.84,-2.7202 -29.025,-8.1607 -5.797,-3.2985 -10.658,-7.1768 -14.583,-11.6348 l 16.322,-12.3084 c 1.516,2.3189 4.637,4.8159 9.365,7.4912 6.33,3.568 12.884,5.397 19.661,5.4867 4.637,0.087 8.383,-0.828 11.238,-2.7454 2.855,-1.9173 4.283,-4.3919 4.283,-7.4238 0,-3.4781 -2.231,-6.1984 -6.691,-8.1607 -2.765,-1.2464 -7.67,-2.6058 -14.715,-4.0783 -7.045,-1.4723 -11.815,-2.7882 -14.311,-3.9476 -4.371,-1.9622 -7.404,-3.7013 -9.1,-5.2173 -4.724,-4.1912 -7.087,-9.7201 -7.087,-16.5867 0,-10.078 3.7,-17.7474 11.1,-23.0084 6.154,-4.3707 13.868,-6.5562 23.143,-6.5563 z"
         style="font-variant:normal;font-stretch:normal;fill:#fcd647;font-family:CodiceBianco;-inkscape-font-specification:CodiceBianco"
         id="path9614"
         inkscape:connector-curvature="0" />
    </g>
    <g
       transform="scale(-0.60615741,-1.6497365)"
       style="font-size:133.77154541px;font-style:normal;font-weight:normal;line-height:125%;letter-spacing:0px;word-spacing:0px;fill:#fcd647;fill-opacity:1;stroke:none;font-family:Sans"
       id="text7427-0-4-4-2">
      <path
         d="m 18843.565,-2971.3289 c 5.707,1e-4 11.014,2.4087 15.921,7.2258 5.261,5.0813 7.891,10.8769 7.891,17.3869 0,6.8694 -3.122,13.2909 -9.365,19.2648 8.829,4.8172 13.243,12.3982 13.243,22.7429 0,6.7768 -2.095,12.752 -6.286,17.9258 -4.459,5.6173 -10.389,8.8274 -17.792,9.6303 l -52.303,0 0,-94.1765 z m -28.896,37.8559 22.474,0 c 2.765,10e-5 5.04,-1.0695 6.824,-3.2087 1.784,-2.1391 2.676,-4.5913 2.676,-7.3565 0,-6.1534 -3.389,-9.5431 -10.165,-10.1692 l -21.809,0 z m 0,39.1991 24.213,0 c 3.748,0 6.736,-1.1594 8.965,-3.4782 1.872,-2.1419 2.809,-4.7736 2.809,-7.8953 0,-2.942 -0.915,-5.5724 -2.744,-7.8913 -1.829,-2.3187 -4.347,-3.6564 -7.556,-4.013 l -25.687,0 z"
         style="font-variant:normal;font-stretch:normal;fill:#fcd647;font-family:CodiceBianco;-inkscape-font-specification:CodiceBianco"
         id="path9635" />
      <path
         d="m 18886.948,-2971.3289 19.265,0 0,57.2554 c 0,4.0117 1.516,7.9798 4.548,11.9043 3.924,4.9941 9.186,7.4912 15.786,7.4911 6.51,1e-4 11.726,-2.497 15.648,-7.4911 3.211,-3.9245 4.817,-7.8926 4.817,-11.9043 l 0,-57.2554 19.265,0 0,58.9945 c 0,10.7013 -4.326,19.7533 -12.978,27.156 -8.026,6.7768 -16.9,10.1652 -26.621,10.1652 -10.076,0 -19.216,-3.7231 -27.422,-11.1694 -8.205,-7.4463 -12.308,-16.2084 -12.308,-26.2865 z"
         style="font-variant:normal;font-stretch:normal;fill:#fcd647;font-family:CodiceBianco;-inkscape-font-specification:CodiceBianco"
         id="path9637" />
      <path
         d="m 19020.528,-2971.9984 c 16.321,10e-5 30.189,5.1289 41.603,15.3865 l -13.912,11.9042 c -2.766,-2.4085 -6.199,-4.549 -10.3,-6.4216 -5.084,-2.4085 -9.989,-3.6128 -14.713,-3.6129 -2.588,1e-4 -5.042,0.4015 -7.361,1.2043 -5.44,1.7855 -7.937,5.2188 -7.491,10.2999 0.18,2.0521 1.964,3.7477 5.352,5.0866 3.032,1.2466 9.096,2.851 18.191,4.8132 19.087,4.1042 28.63,13.5127 28.63,28.2256 0,9.0084 -3.545,16.2547 -10.635,21.7387 -7.089,5.484 -16.744,8.226 -28.964,8.226 -10.165,0 -19.841,-2.7203 -29.026,-8.1607 -5.797,-3.2986 -10.658,-7.1768 -14.582,-11.6348 l 16.321,-12.3084 c 1.516,2.3188 4.638,4.8159 9.365,7.4912 6.331,3.568 12.884,5.3969 19.661,5.4867 4.637,0.087 8.384,-0.828 11.239,-2.7454 2.855,-1.9173 4.282,-4.3919 4.282,-7.4238 0,-3.4782 -2.23,-6.1984 -6.691,-8.1607 -2.765,-1.2465 -7.67,-2.6059 -14.715,-4.0783 -7.045,-1.4723 -11.815,-2.7882 -14.311,-3.9477 -4.371,-1.9622 -7.404,-3.7013 -9.099,-5.2173 -4.725,-4.1912 -7.087,-9.7201 -7.087,-16.5867 0,-10.078 3.7,-17.7474 11.1,-23.0083 6.153,-4.3708 13.868,-6.5562 23.143,-6.5563 z"
         style="font-variant:normal;font-stretch:normal;fill:#fcd647;font-family:CodiceBianco;-inkscape-font-specification:CodiceBianco"
         id="path9639" />
    </g>
    <rect
       style="fill:#d0d0d0;fill-opacity:1;fill-rule:evenodd;stroke:none"
       id="rect9556"
       width="168"
       height="2176.1948"
       x="-9688"
       y="3867.6758" />
    <rect
       y="3883.6758"
       x="-11788"
       height="2144.1948"
       width="160"
       id="rect9558"
       style="fill:#d0d0d0;fill-opacity:1;fill-rule:evenodd;stroke:none" />
    <rect
       style="fill:none;stroke:#000000;stroke-width:1;stroke-opacity:1"
       id="rect9560"
       width="2199"
       height="1998.9999"
       x="-11757.5"
       y="3953.75" />
    <rect
       style="fill:#ffffff;fill-opacity:1;fill-rule:evenodd;stroke:none"
       id="rect9591"
       width="12"
       height="300"
       x="-10976"
       y="5098.3726" />
    <rect
       y="4498.3726"
       x="-10976"
       height="300"
       width="12"
       id="rect9593"
       style="fill:#ffffff;fill-opacity:1;fill-rule:evenodd;stroke:none" />
    <rect
       style="fill:#ffffff;fill-opacity:1;fill-rule:evenodd;stroke:none"
       id="rect9595"
       width="12"
       height="300"
       x="-10976"
       y="3898.3723" />
    <rect
       y="5698.3726"
       x="-10976"
       height="300"
       width="12"
       id="rect9597"
       style="fill:#ffffff;fill-opacity:1;fill-rule:evenodd;stroke:none" />
    <rect
       y="5098.3726"
       x="-10352"
       height="300"
       width="12"
       id="rect9599"
       style="fill:#ffffff;fill-opacity:1;fill-rule:evenodd;stroke:none" />
    <rect
       style="fill:#ffffff;fill-opacity:1;fill-rule:evenodd;stroke:none"
       id="rect9601"
       width="12"
       height="300"
       x="-10352"
       y="4498.3726" />
    <rect
       y="3898.3723"
       x="-10352"
       height="300"
       width="12"
       id="rect9603"
       style="fill:#ffffff;fill-opacity:1;fill-rule:evenodd;stroke:none" />
    <rect
       style="fill:#ffffff;fill-opacity:1;fill-rule:evenodd;stroke:none"
       id="rect9605"
       width="12"
       height="300"
       x="-10352"
       y="5698.3726" />
  </g>
</svg>
