<?xml version="1.0" encoding="UTF-8" standalone="no"?>
<!-- Created with Inkscape (http://www.inkscape.org/) -->

<svg
   width="211.66667mm"
   height="71.437492mm"
   viewBox="0 0 211.66667 71.437492"
   version="1.1"
   id="svg8806"
   inkscape:version="1.2.1 (9c6d41e410, 2022-07-14)"
   sodipodi:docname="Segnale stradale italiano 1992 - strada sdrucciolevole per ghiaccio.svg"
   xmlns:inkscape="http://www.inkscape.org/namespaces/inkscape"
   xmlns:sodipodi="http://sodipodi.sourceforge.net/DTD/sodipodi-0.dtd"
   xmlns="http://www.w3.org/2000/svg"
   xmlns:svg="http://www.w3.org/2000/svg">
  <sodipodi:namedview
     id="namedview8808"
     pagecolor="#ffffff"
     bordercolor="#000000"
     borderopacity="0.25"
     inkscape:showpageshadow="2"
     inkscape:pageopacity="0.0"
     inkscape:pagecheckerboard="0"
     inkscape:deskcolor="#d1d1d1"
     inkscape:document-units="mm"
     showgrid="false"
     inkscape:zoom="0.76257015"
     inkscape:cx="454.38443"
     inkscape:cy="-66.223416"
     inkscape:window-width="1920"
     inkscape:window-height="991"
     inkscape:window-x="-9"
     inkscape:window-y="-9"
     inkscape:window-maximized="1"
     inkscape:current-layer="layer1" />
  <defs
     id="defs8803" />
  <g
     inkscape:label="Livello 1"
     inkscape:groupmode="layer"
     id="layer1"
     transform="translate(14.929134,-59.349003)">
    <g
       id="g8787"
       transform="translate(326.83878,-56.381428)">
      <rect
         style="opacity:0.993;fill:#00408b;stroke-width:2.22385;paint-order:fill markers stroke"
         id="rect1594-8"
         width="211.66667"
         height="71.437492"
         x="-341.76791"
         y="115.73043" />
      <rect
         style="opacity:0.993;fill:none;stroke:#ffffff;stroke-width:2.117;paint-order:fill markers stroke"
         id="rect3048-8"
         width="207.433"
         height="67.203827"
         x="-339.65125"
         y="117.84741"
         rx="6.8791666"
         ry="6.8791666" />
      <g
         id="g8780"
         transform="matrix(0.99999866,0,0,0.99999866,2.0544015,-81.858045)"
         style="fill:#ffffff">
        <path
           id="rect6785-9-0"
           style="opacity:0.993;stroke-width:3.28512;stroke-linecap:square;paint-order:fill markers stroke"
           d="m -286.46577,208.29758 -5.02136,2.89918 4.04992,7.01453 -5.82412,-1.56033 -0.87455,3.26724 9.09011,2.4361 3.10115,5.37053 -1.55025,2.684 h -6.19912 l -6.65591,-6.65591 -2.39145,2.39207 4.26382,4.26384 h -8.10106 v 5.79834 h 8.09981 l -4.26317,4.26319 2.39205,2.39142 6.65463,-6.65461 h 6.2004 l 1.55025,2.68462 -3.09927,5.36798 -9.09199,2.43677 0.87577,3.26659 5.8248,-1.5603 -4.05055,7.01576 5.02135,2.89918 4.04989,-7.01516 1.56032,5.82415 3.26724,-0.8758 -2.43612,-9.09076 3.1005,-5.36988 h 3.09925 l 3.09987,5.36988 -2.43609,9.09076 3.26721,0.8758 1.56032,-5.82352 4.04992,7.01453 5.02134,-2.89918 -4.05054,-7.01576 5.82477,1.5603 0.8758,-3.26659 -9.09201,-2.43612 -3.09988,-5.36925 1.55025,-2.684 h 6.20103 l 6.65463,6.65461 2.39207,-2.39142 -4.26322,-4.26319 h 8.09982 v -5.79834 h -8.10105 l 4.26382,-4.26384 -2.39144,-2.39207 -6.65591,6.65591 h -6.19975 l -1.54962,-2.68337 3.10112,-5.37116 9.09014,-2.4361 -0.87452,-3.26724 -5.82415,1.56033 4.0499,-7.01453 -5.02132,-2.89918 -4.05054,7.01578 -1.56033,-5.82477 -3.26786,0.87517 2.43674,9.09199 -3.10052,5.36988 h -3.09988 l -3.1005,-5.36988 2.43675,-9.09199 -3.26786,-0.87454 -1.56033,5.82414 z" />
        <path
           id="rect6785-9-0-9"
           style="opacity:0.993;stroke-width:3.28512;stroke-linecap:square;paint-order:fill markers stroke"
           d="m -211.69764,208.29774 -5.02137,2.89918 4.04992,7.01452 -5.82412,-1.56032 -0.87454,3.26724 9.0901,2.4361 3.10115,5.37053 -1.55025,2.684 h -6.19912 l -6.65591,-6.65591 -2.39144,2.39206 4.26382,4.26385 h -8.10107 v 5.79833 h 8.09981 l -4.26316,4.2632 2.39204,2.39141 6.65463,-6.65461 h 6.2004 l 1.55025,2.68463 -3.09927,5.36798 -9.09198,2.43677 0.87577,3.26659 5.82479,-1.5603 -4.05054,7.01575 5.02134,2.89918 4.04989,-7.01515 1.56033,5.82414 3.26724,-0.8758 -2.43613,-9.09075 3.1005,-5.36988 h 3.09925 l 3.09987,5.36988 -2.43609,9.09075 3.26721,0.8758 1.56033,-5.82351 4.04992,7.01452 5.02134,-2.89918 -4.05055,-7.01575 5.82477,1.5603 0.8758,-3.26659 -9.09201,-2.43612 -3.09987,-5.36926 1.55025,-2.684 h 6.20102 l 6.65464,6.65461 2.39206,-2.39141 -4.26322,-4.2632 h 8.09982 v -5.79833 h -8.10104 l 4.26382,-4.26385 -2.39144,-2.39206 -6.65592,6.65591 h -6.19974 l -1.54963,-2.68337 3.10113,-5.37116 9.09013,-2.4361 -0.87452,-3.26724 -5.82414,1.56032 4.04989,-7.01452 -5.02132,-2.89918 -4.05054,7.01578 -1.56033,-5.82477 -3.26786,0.87517 2.43675,9.09198 -3.10053,5.36988 h -3.09987 l -3.1005,-5.36988 2.43675,-9.09198 -3.26787,-0.87455 -1.56032,5.82415 z" />
      </g>
    </g>
  </g>
</svg>
