<svg xmlns="http://www.w3.org/2000/svg" width="200" height="200" xmlns:v="https://vecta.io/nano"><path d="M-1.588-3.02h207.715v207.348H-1.588V-3.02z" fill="#fff"/><g stroke="#000"><path d="M21.468 2.404H178.27c10.239 0 18.481 8.314 18.481 18.642v158.169c0 10.328-8.243 18.642-18.481 18.642H21.468c-10.239 0-18.481-8.314-18.481-18.642V21.046c0-10.328 8.243-18.642 18.481-18.642z" fill="none" stroke-width="2.997"/><path d="M74.287 46.291c0 3.029-2.344 5.485-5.236 5.485s-5.236-2.456-5.236-5.485 2.344-5.485 5.236-5.485 5.236 2.456 5.236 5.485z" stroke-linejoin="round" stroke-width="5.788"/></g><path d="M62.782 160.289c-1.994-.867-3.394-3.233-3.396-5.74-.001-1.603.299-2.321 1.533-3.668 3.083-3.364 8.145-2.315 9.649 2.001.601 1.725.584 2.138-.174 4.123-.686 1.797-1.2 2.367-2.771 3.081-2.295 1.042-2.858 1.066-4.841.204zm4.346-3.189c1.584-1.362 1.677-3.43.208-4.619-2.2-1.781-5.154-.548-5.141 2.147.008 1.668.327 2.253 1.629 2.991 1.359.77 1.904.685 3.304-.519zm11.953-2.91c-4.128-3.473-1.944-10.5 3.264-10.5 3.832 0 6.017 2.3 6.017 6.333 0 1.848-.238 2.411-1.589 3.762-1.385 1.385-1.89 1.589-3.937 1.589-1.83 0-2.658-.261-3.754-1.184zm6.089-2.394c1.96-1.773.351-5.302-2.417-5.302-2.73 0-4.284 3.248-2.498 5.221.978 1.081 3.76 1.127 4.915.081zm-17.54-6.718c-1.892-.567-3.039-1.746-3.584-3.685-.575-2.043-2.792-25.099-2.792-29.029 0-1.552.298-3.499.663-4.326s3.727-4.764 7.472-8.748 6.811-7.492 6.815-7.795c.007-.676-4.056-9.497-4.374-9.497-.126 0-2.388 4.049-5.027 8.997-5.551 10.407-6.87 12.035-9.755 12.035-2.582 0-5.141-2.348-5.141-4.716 0-1.097 2.911-7.09 10.165-20.927 9.695-18.493 10.262-19.45 12.259-20.719 1.151-.731 3.223-1.686 4.604-2.121 2.418-.762 2.608-.756 5.151.155 2.332.836 25.019 15.73 27.257 17.895.74.716 3.659 12.701 3.659 15.023 0 1.488-2.796 4.062-4.826 4.443-1.929.362-3.528-.413-4.773-2.314-.403-.614-1.086-3.164-1.519-5.665-.879-5.082-.398-4.508-6.821-8.145l-2.75-1.557.208 6.507.208 6.507 5.608 10.037 5.608 10.037 9.319 6.309c7.163 4.849 9.512 6.688 10.153 7.945 2.255 4.426-2.257 9.814-7.064 8.435-.828-.237-6.403-3.826-12.389-7.975l-10.884-7.544-3.943-7.195c-2.168-3.957-4.051-7.201-4.182-7.207s-3.226 2.985-6.876 6.648l-6.637 6.66 1.101 13.295c.606 7.312.999 13.621.875 14.021-.616 1.976-1.395 2.901-3.17 3.76-2.102 1.018-2.59 1.066-4.617.459zm58.632-2.592c-2.935-2.47-2.925-6.817.023-9.298 2.059-1.733 5.445-1.674 7.464.129 2.808 2.509 2.256 7.993-.972 9.662-2.155 1.114-4.845.91-6.514-.494h0zm5.644-2.375c1.056-.956 1.125-3.563.12-4.568-.961-.961-3.405-.939-4.487.039-1.065.964-1.108 3.313-.081 4.448.964 1.065 3.313 1.108 4.448.081h0zm2.613-12.577c-3.609-1.958-3.55-8.359.096-10.244.754-.39 2.244-.709 3.31-.709 1.576 0 2.232.293 3.501 1.562 2.771 2.771 2.751 6.226-.05 8.685-1.866 1.638-4.617 1.922-6.857.706h0zm5.065-2.43c2.541-1.696 1.155-5.718-1.971-5.718-2.928 0-4.482 3.176-2.516 5.141.935.935 3.464 1.26 4.487.577z"/></svg>