<?xml version="1.0" encoding="UTF-8" standalone="no"?>
<!-- Created with Inkscape (http://www.inkscape.org/) -->

<svg
   xmlns:dc="http://purl.org/dc/elements/1.1/"
   xmlns:cc="http://creativecommons.org/ns#"
   xmlns:rdf="http://www.w3.org/1999/02/22-rdf-syntax-ns#"
   xmlns:svg="http://www.w3.org/2000/svg"
   xmlns="http://www.w3.org/2000/svg"
   xmlns:sodipodi="http://sodipodi.sourceforge.net/DTD/sodipodi-0.dtd"
   xmlns:inkscape="http://www.inkscape.org/namespaces/inkscape"
   width="600"
   height="780"
   id="svg2"
   version="1.1"
   inkscape:version="0.48.5 r10040"
   sodipodi:docname="CANC Distanza.svg">
  <defs
     id="defs4" />
  <sodipodi:namedview
     id="base"
     pagecolor="#ffffff"
     bordercolor="#666666"
     borderopacity="1.0"
     inkscape:pageopacity="0.0"
     inkscape:pageshadow="2"
     inkscape:zoom="0.49497475"
     inkscape:cx="401.86958"
     inkscape:cy="244.10405"
     inkscape:document-units="px"
     inkscape:current-layer="text3763-7-4-4"
     showgrid="false"
     inkscape:object-paths="true"
     inkscape:snap-intersection-paths="true"
     inkscape:object-nodes="true"
     inkscape:snap-nodes="false"
     inkscape:snap-smooth-nodes="true"
     inkscape:window-width="1366"
     inkscape:window-height="705"
     inkscape:window-x="-8"
     inkscape:window-y="-8"
     inkscape:window-maximized="1"
     fit-margin-top="0"
     fit-margin-left="0"
     fit-margin-right="0"
     fit-margin-bottom="0" />
  <metadata
     id="metadata7">
    <rdf:RDF>
      <cc:Work
         rdf:about="">
        <dc:format>image/svg+xml</dc:format>
        <dc:type
           rdf:resource="http://purl.org/dc/dcmitype/StillImage" />
        <dc:title></dc:title>
      </cc:Work>
    </rdf:RDF>
  </metadata>
  <g
     inkscape:label="Livello 1"
     inkscape:groupmode="layer"
     id="layer1"
     transform="translate(0,-272.36218)">
    <rect
       style="fill:none;fill-opacity:1;stroke:none"
       id="rect7575"
       width="600"
       height="780"
       x="-6.3393735e-014"
       y="272.36218" />
    <rect
       style="fill:none;stroke:none"
       id="rect3923"
       width="1200"
       height="779.88"
       x="0"
       y="272.48218" />
    <g
       style="font-size:41.90995789px;font-style:normal;font-weight:normal;line-height:125%;letter-spacing:0px;word-spacing:0px;fill:#000000;fill-opacity:1;stroke:none;font-family:Sans"
       id="text3763-7-4-4">
      <g
         style="line-height:125%;fill:#000000;font-family:Sans"
         id="text3763-7-4-4-8">
        <path
           d="m 82.790475,655.53357 0,-7.18281 -13.015007,0 0,-3.37654 13.690314,-19.44065 3.008185,0 0,19.44065 4.051842,0 0,3.37654 -4.051842,0 0,7.18281 z m 0,-10.55935 0,-13.5266 -9.392906,13.5266 z"
           style="font-variant:normal;font-stretch:normal;fill:#000000;font-family:Sans;-inkscape-font-specification:Sans"
           id="path7623" />
        <path
           d="m 92.572193,656.04517 8.697137,-31.0232 2.94679,0 -8.676669,31.0232 z"
           style="font-variant:normal;font-stretch:normal;fill:#000000;font-family:Sans;-inkscape-font-specification:Sans"
           id="path7625" />
        <path
           d="m 121.13972,652.85281 c -1.36427,1.15961 -2.67737,1.97817 -3.93929,2.45566 -1.26195,0.47749 -2.61597,0.71623 -4.06207,0.71623 -2.38746,0 -4.22238,-0.58322 -5.50478,-1.74966 -1.2824,-1.16643 -1.9236,-2.65688 -1.9236,-4.47135 0,-1.06411 0.24215,-2.03614 0.72647,-2.9161 0.48431,-0.87993 1.11868,-1.58593 1.90313,-2.118 0.78445,-0.53205 1.6678,-0.93451 2.65007,-1.20737 0.72305,-0.19098 1.81446,-0.37516 3.27422,-0.55252 2.97406,-0.3547 5.16369,-0.77762 6.56889,-1.26876 0.0136,-0.50476 0.0205,-0.82536 0.0205,-0.9618 -2e-5,-1.50067 -0.3479,-2.55797 -1.04366,-3.1719 -0.94135,-0.83218 -2.33971,-1.24828 -4.19509,-1.24829 -1.73261,10e-6 -3.0116,0.30356 -3.83697,0.91064 -0.82538,0.60711 -1.43589,1.68146 -1.83151,3.22305 l -3.60164,-0.49113 c 0.32742,-1.54159 0.8663,-2.78648 1.61664,-3.73465 0.75034,-0.94814 1.83492,-1.67802 3.25376,-2.18963 1.41881,-0.51158 3.06274,-0.76738 4.93178,-0.7674 1.85538,2e-5 3.36288,0.2183 4.52251,0.65484 1.1596,0.43659 2.01226,0.9857 2.55798,1.64734 0.54569,0.66169 0.92768,1.49729 1.14598,2.50683 0.12276,0.62757 0.18415,1.7599 0.18417,3.39699 l 0,4.91133 c -2e-5,3.42429 0.0784,5.59004 0.23534,6.49727 0.15687,0.90723 0.46723,1.77694 0.9311,2.60914 l -3.8472,0 c -0.38201,-0.76398 -0.62758,-1.65757 -0.7367,-2.68076 z m -0.30696,-8.22647 c -1.33698,0.54571 -3.34244,1.00956 -6.01637,1.39154 -1.51433,0.21829 -2.58527,0.46386 -3.21282,0.7367 -0.62757,0.27286 -1.11188,0.6719 -1.45293,1.19713 -0.34107,0.52525 -0.51161,1.10847 -0.5116,1.74966 -10e-6,0.98227 0.37175,1.80083 1.11528,2.45566 0.74351,0.65485 1.8315,0.98227 3.26398,0.98227 1.41882,0 2.68075,-0.31037 3.78581,-0.93111 1.10504,-0.62073 1.91677,-1.46998 2.4352,-2.54774 0.39562,-0.83219 0.59344,-2.06002 0.59345,-3.6835 z"
           style="font-variant:normal;font-stretch:normal;fill:#000000;font-family:Sans;-inkscape-font-specification:Sans"
           id="path7627" />
      </g>
      <g
         style="line-height:125%;fill:#000000;font-family:Sans"
         id="text3919-6">
        <path
           d="m 82.790475,1035.5337 0,-7.1828 -13.015007,0 0,-3.3766 13.690314,-19.4406 3.008185,0 0,19.4406 4.051842,0 0,3.3766 -4.051842,0 0,7.1828 z m 0,-10.5594 0,-13.5266 -9.392906,13.5266 z"
           style="font-variant:normal;font-stretch:normal;fill:#000000;font-family:Sans;-inkscape-font-specification:Sans"
           id="path7630" />
        <path
           d="m 92.572193,1036.0453 8.697137,-31.0232 2.94679,0 -8.676669,31.0232 z"
           style="font-variant:normal;font-stretch:normal;fill:#000000;font-family:Sans;-inkscape-font-specification:Sans"
           id="path7632" />
        <path
           d="m 110.35527,1035.5337 -3.41746,0 0,-30 3.68349,0 0,10.7026 c 1.55525,-1.9509 3.54024,-2.9263 5.95498,-2.9263 1.33696,0 2.60231,0.2694 3.79605,0.8083 1.1937,0.5389 2.17597,1.296 2.94679,2.2715 0.77079,0.9754 1.37447,2.1521 1.81105,3.53 0.43654,1.3779 0.65482,2.8513 0.65484,4.4202 -2e-5,3.7244 -0.92089,6.603 -2.76262,8.6357 -1.84176,2.0328 -4.05185,3.0491 -6.63028,3.0491 -2.56481,0 -4.57709,-1.0709 -6.03684,-3.2128 z m -0.0409,-11.03 c -1e-5,2.6057 0.3547,4.4884 1.06412,5.648 1.15961,1.8963 2.7285,2.8445 4.70668,2.8445 1.60981,0 3.00135,-0.6992 4.17463,-2.0976 1.17324,-1.3983 1.75987,-3.4822 1.75989,-6.2517 -2e-5,-2.8376 -0.56278,-4.9317 -1.68827,-6.2824 -1.12553,-1.3506 -2.48637,-2.0259 -4.08254,-2.0259 -1.60983,0 -3.00137,0.6992 -4.17462,2.0975 -1.17327,1.3984 -1.7599,3.4209 -1.75989,6.0676 z"
           style="font-variant:normal;font-stretch:normal;fill:#000000;font-family:Sans;-inkscape-font-specification:Sans"
           id="path7634" />
      </g>
    </g>
    <g
       style="font-size:41.90995789px;font-style:normal;font-weight:normal;line-height:125%;letter-spacing:0px;word-spacing:0px;fill:#000000;fill-opacity:1;stroke:none;font-family:Sans"
       id="text3919" />
    <text
       xml:space="preserve"
       style="font-size:106.38040161px;font-style:normal;font-weight:normal;line-height:125%;letter-spacing:0px;word-spacing:-37.5px;fill:#000000;fill-opacity:1;stroke:none;font-family:Sans"
       x="111.98828"
       y="966.7901"
       id="text6467-8"
       sodipodi:linespacing="125%"><tspan
         sodipodi:role="line"
         id="tspan6469-6"
         x="111.98828"
         y="966.7901"
         style="font-style:normal;font-variant:normal;font-weight:normal;font-stretch:normal;word-spacing:-37.5px;fill:#000000;fill-opacity:1;font-family:CodiceNero;-inkscape-font-specification:CodiceNero">M</tspan></text>
    <rect
       style="fill:#ffffff;fill-opacity:1;stroke:#000000;stroke-width:0.99999994;stroke-opacity:1"
       id="rect6463-5"
       width="499"
       height="249"
       x="50.5"
       y="740.62817" />
    <rect
       style="fill:none;stroke:#000000;stroke-width:8;stroke-miterlimit:4;stroke-opacity:1;stroke-dasharray:none"
       id="rect6465-0"
       width="484"
       height="234"
       x="58"
       y="748.12817"
       rx="25.999998"
       ry="25.999998" />
    <g
       transform="matrix(2.2222363,0,0,2.2222363,79.087276,680.56318)"
       id="g5809">
      <path
         inkscape:connector-curvature="0"
         d="m 52.748069,102.43916 c -5.271211,0 -9.527621,4.58689 -9.527612,10.2674 0,5.6805 4.256392,10.33099 9.527612,10.33098 5.271201,0 9.55711,-4.65048 9.55711,-10.33098 0,-5.68051 -4.285918,-10.2674 -9.55711,-10.2674 z m 0,5.43569 c 2.493136,0 4.51308,2.14498 4.51308,4.83171 0,2.68673 -2.019944,4.8953 -4.51308,4.8953 -2.493136,0 -4.513102,-2.20857 -4.513081,-4.8953 0,-2.68673 2.019926,-4.83171 4.513081,-4.83171 z"
         id="path4153-9"
         style="fill:#000000;fill-opacity:1;fill-rule:evenodd;stroke:#000000;stroke-width:1.03184342;stroke-miterlimit:4;stroke-opacity:1;stroke-dasharray:none" />
      <path
         inkscape:connector-curvature="0"
         d="m 13.7753,106.98368 c -0.202418,-3.30827 -0.368033,-7.499661 -0.368033,-9.314203 l 0,-3.299168 1.958365,0 1.958365,0 0.158499,6.915091 0.158499,6.91509 2.399112,0.17358 2.399112,0.17358 0,-15.306336 0,-15.306336 -2.399112,0.173583 -2.399112,0.173583 -0.15799,7.197337 -0.15799,7.197336 -2.154372,0 -2.154373,0 -0.368999,-6.86259 c -0.202949,-3.774424 -0.368998,-7.965815 -0.368998,-9.314201 l 0,-2.45161 11.28994,0 11.289941,0 0,19.475147 0,19.475147 -10.35741,0 -10.357411,0 -0.368033,-6.01503 z m 17.695871,-13.742366 0,-15.241419 -2.257988,0 -2.257988,0 0,15.241419 0,15.241416 2.257988,0 2.257988,0 0,-15.241416 z m 5.080474,10.443196 0,-9.314201 24.837868,0 24.837869,0 0,9.314201 0,9.3142 -10.150193,0 -10.150192,0 -0.3437,-1.55237 c -0.827547,-3.7377 -1.543092,-5.2253 -3.465566,-7.2048 -5.36061,-5.519648 -12.894085,-5.63957 -18.243249,-0.29041 -2.361063,2.36107 -3.935855,5.61207 -3.935855,8.1252 0,0.64854 -0.502782,0.92238 -1.693491,0.92238 l -1.693491,0 0,-9.3142 z m 51.933725,-10.160947 0,-19.475147 11.007692,0 11.007688,0 0,19.475147 0,19.475147 -11.007688,0 -11.007692,0 0,-19.475147 z m 9.031952,0 0,-15.523668 -2.257988,0 -2.257988,0 0,15.523668 0,15.523667 2.257988,0 2.257988,0 0,-15.523667 z m 8.467458,0 0,-15.523668 -2.54024,0 -2.54024,0 0,15.523668 0,15.523667 2.54024,0 2.54024,0 0,-15.523667 z m 6.77396,10.160947 0,-9.314201 24.83787,0 24.83787,0 0,9.314201 0,9.3142 -1.69349,0 c -1.19071,0 -1.69349,-0.27384 -1.69349,-0.92238 0,-2.51313 -1.5748,-5.76413 -3.93586,-8.1252 -4.17863,-4.17863 -9.40607,-5.053245 -14.63341,-2.44835 -3.5498,1.76894 -5.88991,4.74178 -6.8356,8.68387 l -0.6746,2.81206 -10.10464,0 -10.10465,0 0,-9.3142 z m 50.80473,-10.160947 0,-19.475147 10.39052,0 10.39051,0 0.33992,5.503846 c 0.18696,3.027115 0.46646,7.218505 0.62112,9.314201 l 0.2812,3.810354 -2.24456,0 -2.24455,0 -0.1585,-6.915088 -0.1585,-6.915088 -2.25799,0 -2.25798,0 -0.15035,15.100295 -0.15034,15.100294 2.54946,0 2.54945,0 0,-7.33846 0,-7.338461 2.2023,0 2.2023,0 0.34724,6.632841 c 0.19098,3.64806 0.43277,7.83945 0.53732,9.3142 l 0.19008,2.68136 -11.48932,0 -11.48933,0 0,-19.475147 z m 8.46746,0.282249 0,-15.24142 -2.54024,0 -2.54023,0 0,15.24142 0,15.241418 2.54023,0 2.54024,0 0,-15.241418 z M 36.551645,83.362617 l 0,-9.314201 24.837868,0 24.837869,0 0,9.314201 0,9.3142 -24.837869,0 -24.837868,0 0,-9.3142 z m 23.144377,0 0,-5.362722 -9.596449,0 -9.596449,0 0,5.362722 0,5.362721 9.596449,0 9.596449,0 0,-5.362721 z m 22.015384,0 0,-5.362722 -9.314201,0 -9.314201,0 0,5.362722 0,5.362721 9.314201,0 9.314201,0 0,-5.362721 z m 31.047334,0 0,-9.314201 24.83787,0 24.83787,0 0,9.314201 0,9.3142 -24.83787,0 -24.83787,0 0,-9.3142 z m 23.14438,0 0,-5.362722 -9.59645,0 -9.59645,0 0,5.362722 0,5.362721 9.59645,0 9.59645,0 0,-5.362721 z m 22.01538,0 0,-5.362722 -9.3142,0 -9.3142,0 0,5.362722 0,5.362721 9.3142,0 9.3142,0 0,-5.362721 z"
         id="path5800"
         style="fill:#000000" />
      <path
         inkscape:connector-curvature="0"
         d="m 146.04796,102.43916 c -5.27121,0 -9.52762,4.58689 -9.52761,10.2674 0,5.6805 4.25639,10.33099 9.52761,10.33098 5.2712,0 9.55711,-4.65048 9.55711,-10.33098 0,-5.68051 -4.28592,-10.2674 -9.55711,-10.2674 z m 0,5.43569 c 2.49314,0 4.51308,2.14498 4.51308,4.83171 0,2.68673 -2.01994,4.8953 -4.51308,4.8953 -2.49314,0 -4.5131,-2.20857 -4.51308,-4.8953 0,-2.68673 2.01992,-4.83171 4.51308,-4.83171 z"
         id="path5807"
         style="fill:#000000;fill-opacity:1;fill-rule:evenodd;stroke:#000000;stroke-width:1.03184342;stroke-miterlimit:4;stroke-opacity:1;stroke-dasharray:none" />
    </g>
    <text
       sodipodi:linespacing="125%"
       id="text7476"
       y="586.79016"
       x="111.98828"
       style="font-size:106.38040161px;font-style:normal;font-weight:normal;line-height:125%;letter-spacing:0px;word-spacing:-37.5px;fill:#000000;fill-opacity:1;stroke:none;font-family:Sans"
       xml:space="preserve"><tspan
         style="font-style:normal;font-variant:normal;font-weight:normal;font-stretch:normal;word-spacing:-37.5px;fill:#000000;fill-opacity:1;font-family:CodiceNero;-inkscape-font-specification:CodiceNero"
         y="586.79016"
         x="111.98828"
         id="tspan7478"
         sodipodi:role="line">M</tspan></text>
    <rect
       y="360.62817"
       x="50.5"
       height="249"
       width="499"
       id="rect7480"
       style="fill:#ffffff;fill-opacity:1;stroke:#000000;stroke-width:0.99999994;stroke-opacity:1" />
    <rect
       ry="25.999998"
       rx="25.999998"
       y="368.12817"
       x="58"
       height="234"
       width="484"
       id="rect7482"
       style="fill:none;stroke:#000000;stroke-width:8;stroke-miterlimit:4;stroke-opacity:1;stroke-dasharray:none" />
    <g
       id="g7484"
       transform="matrix(2.1784821,0,0,2.1784821,80.52378,272.10336)">
      <path
         style="fill:#000000;fill-opacity:1;fill-rule:evenodd;stroke:none"
         id="path7486"
         d="m 29.971974,111.84431 c -4.990322,0.003 -9.050218,4.03593 -9.047822,9.02626 0.0025,4.99031 4.066206,9.05019 9.056533,9.04779 4.99033,-0.003 9.019936,-4.06617 9.017541,-9.05651 -0.0025,-4.99031 -4.035923,-9.01995 -9.026252,-9.01754 z m 0.0024,4.75308 c 2.360297,-9.6e-4 4.269674,1.90639 4.270809,4.26668 0.0012,2.36029 -1.906395,4.29996 -4.266681,4.3011 -2.360288,9.6e-4 -4.269676,-1.93668 -4.270815,-4.29699 -0.0012,-2.36028 1.906399,-4.26966 4.266687,-4.27079 z"
         inkscape:connector-curvature="0" />
      <path
         style="fill:#000000"
         id="path7488"
         d="m 17.120412,109.70324 0.02813,-10.9187 2.736429,-6.781962 2.736429,-6.781963 9.951624,-0.154329 9.951623,-0.154335 0,9.620824 0,9.620815 14.8994,0 14.8994,0 0.382028,5.51035 c 0.210111,3.03069 0.532045,6.71838 0.715406,8.19487 l 0.333379,2.68453 -3.393145,0 c -3.372512,0 -3.395367,-0.0111 -3.758654,-1.82754 -0.911456,-4.55728 -5.555625,-8.34541 -10.231308,-8.34541 -2.690418,0 -6.664286,1.85611 -8.226845,3.84258 -0.641685,0.81577 -1.458394,2.57383 -1.814908,3.90679 -0.631023,2.35933 -0.71015,2.42358 -2.984767,2.42358 -2.237933,0 -2.365267,-0.0958 -3.016675,-2.27003 -0.840473,-2.80525 -3.681594,-6.12366 -6.11249,-7.13936 -5.593101,-2.33695 -12.263249,0.84404 -13.974624,6.66449 -0.527689,1.79469 -1.052688,2.51128 -1.936273,2.64291 -1.204812,0.17949 -1.212108,0.11332 -1.184155,-10.73811 z m 23.143565,-15.440008 0,-4.80389 -8.170283,0 -8.170282,0 -1.437497,4.550482 c -0.790623,2.502764 -1.437497,4.664515 -1.437497,4.80389 0,0.139374 4.323501,0.253408 9.60778,0.253408 l 9.607779,0 0,-4.80389 z m 36.520747,24.725908 c -0.167582,-0.85481 -0.471414,-3.01656 -0.675189,-4.80389 l -0.370499,-3.24969 21.260383,0 21.260381,0 -2.26245,2.04398 c -1.39909,1.26399 -2.63652,3.09719 -3.24269,4.80389 l -0.98023,2.75991 -17.342503,0 -17.342512,0 -0.304691,-1.5542 z m 56.473836,0.84774 c -0.12205,-0.38855 -0.50143,-1.61821 -0.84307,-2.73259 -0.61241,-1.99765 -2.62505,-4.29216 -4.83375,-5.51074 -0.86342,-0.47637 1.00254,-0.62768 7.90219,-0.64081 l 9.03252,-0.0172 -2.04884,1.39221 c -1.99503,1.35567 -4.43035,5.34842 -4.43035,7.26367 0,0.735 -0.51914,0.9519 -2.27838,0.9519 -1.32759,0 -2.37101,-0.29482 -2.50032,-0.70646 l 0,2e-5 z m 25.46842,-1.13033 c -0.49823,-2.63639 -2.30734,-5.3458 -4.4361,-6.64372 l -1.84195,-1.12305 15.96587,-0.002 15.96587,-0.002 0,2.16831 0,2.16832 -6.47967,2.63557 c -6.34554,2.58102 -6.60746,2.63558 -12.65328,2.63558 l -6.17361,0 -0.34713,-1.83679 0,-2.2e-4 z m -83.535955,-13.8465 -0.169492,-3.24969 -14.835542,-0.15068 -14.835542,-0.15067 0,-15.532613 0,-15.532615 69.515111,0 69.51511,0 0,18.932978 0,18.93298 -54.51008,0 -54.510066,0 -0.169499,-3.24969 z"
         inkscape:connector-curvature="0" />
      <path
         style="fill:#000000;fill-opacity:1;fill-rule:evenodd;stroke:none"
         id="path7490"
         d="m 56.387823,111.84395 c -4.990322,0.003 -9.050218,4.03593 -9.047822,9.02626 0.0025,4.99031 4.066206,9.05019 9.056533,9.04779 4.99033,-0.003 9.019936,-4.06617 9.017541,-9.05651 -0.0025,-4.99031 -4.035923,-9.01995 -9.026252,-9.01754 z m 0.0024,4.75308 c 2.360297,-9.6e-4 4.269674,1.90639 4.270809,4.26668 0.0012,2.36029 -1.906395,4.29996 -4.266681,4.3011 -2.360288,9.6e-4 -4.269676,-1.93668 -4.270815,-4.29699 -0.0012,-2.36028 1.906399,-4.26966 4.266687,-4.27079 z"
         inkscape:connector-curvature="0" />
      <path
         style="fill:#000000;fill-opacity:1;fill-rule:evenodd;stroke:none"
         id="path7492"
         d="m 122.58782,111.84395 c -4.99032,0.003 -9.05021,4.03593 -9.04782,9.02626 0.002,4.99031 4.06621,9.05019 9.05653,9.04779 4.99033,-0.003 9.01994,-4.06617 9.01754,-9.05651 -0.002,-4.99031 -4.03592,-9.01995 -9.02625,-9.01754 z m 0.002,4.75308 c 2.3603,-9.6e-4 4.26968,1.90639 4.27081,4.26668 0.001,2.36029 -1.90639,4.29996 -4.26668,4.3011 -2.36029,9.6e-4 -4.26968,-1.93668 -4.27081,-4.29699 -10e-4,-2.36028 1.90639,-4.26966 4.26668,-4.27079 z"
         inkscape:connector-curvature="0" />
      <path
         style="fill:#000000;fill-opacity:1;fill-rule:evenodd;stroke:none"
         id="path7494"
         d="m 148.58782,111.84395 c -4.99032,0.003 -9.05021,4.03593 -9.04782,9.02626 0.002,4.99031 4.06621,9.05019 9.05653,9.04779 4.99033,-0.003 9.01994,-4.06617 9.01754,-9.05651 -0.002,-4.99031 -4.03592,-9.01995 -9.02625,-9.01754 z m 0.002,4.75308 c 2.3603,-9.6e-4 4.26968,1.90639 4.27081,4.26668 0.001,2.36029 -1.90639,4.29996 -4.26668,4.3011 -2.36029,9.6e-4 -4.26968,-1.93668 -4.27081,-4.29699 -0.001,-2.36028 1.90639,-4.26966 4.26668,-4.27079 z"
         inkscape:connector-curvature="0" />
    </g>
    <g
       style="font-size:56.73621368px;font-style:normal;font-weight:normal;line-height:125%;letter-spacing:0px;word-spacing:0px;fill:#000000;fill-opacity:1;stroke:none;font-family:Sans"
       id="text7496"
       transform="translate(-0.3659225,0)">
      <path
         d="m 209.43066,790.62423 c 3.63141,3e-5 6.78958,1.28592 9.47451,3.85767 3.02655,2.87539 4.53983,6.65803 4.53986,11.34794 -3e-5,0.60487 -0.0947,1.56928 -0.28395,2.89325 l -18.95074,0 c 0.87033,2.68607 2.79974,3.99101 5.78824,3.91481 2.34437,-0.075 4.65123,-0.98287 6.92061,-2.72357 l 6.0722,5.95793 c -4.6911,3.25282 -9.06013,4.87923 -13.10709,4.87923 -3.81959,0 -7.14802,-1.19124 -9.98528,-3.57372 -3.10161,-2.64796 -4.70897,-6.14664 -4.82209,-10.49606 -1e-5,-0.5679 -1e-5,-1.43824 0,-2.61103 0.0369,-2.87419 1.11447,-5.65432 3.23262,-8.3404 2.72414,-3.40401 6.43117,-5.10602 11.12111,-5.10605 z m -5.10605,11.23366 9.92815,0 c -0.22627,-1.05848 -0.79332,-1.95652 -1.70116,-2.69414 -0.90787,-0.73758 -1.98628,-1.12542 -3.23521,-1.16354 -1.28591,-0.0381 -2.40154,0.37806 -3.3469,1.24838 -0.79417,0.71915 -1.34246,1.58891 -1.64488,2.6093 z"
         style="font-variant:normal;font-stretch:normal;font-family:CodiceNero;-inkscape-font-specification:CodiceNero"
         id="path7578"
         inkscape:connector-curvature="0" />
      <path
         d="m 241.78803,790.68136 c 3.36593,4e-5 6.37288,1.11567 9.02087,3.3469 2.23124,1.92886 3.59273,3.9714 4.08449,6.12761 l -7.94217,2.89325 c -0.15123,-1.24778 -0.60545,-2.30685 -1.36265,-3.17721 -0.94539,-1.05847 -2.23128,-1.58772 -3.85767,-1.58774 -1.62643,2e-5 -2.95964,0.59564 -3.99966,1.78686 -1.04003,1.19126 -1.56005,2.71378 -1.56004,4.56757 l 0,2.15565 c -1e-5,1.5514 0.43517,2.93194 1.30552,4.14164 1.02039,1.4752 2.47654,2.2128 4.36845,2.21279 1.17275,10e-6 2.31695,-0.47267 3.43261,-1.41806 1.11561,-0.94536 1.69247,-2.15564 1.73058,-3.63085 l 8.05645,2.83612 c -3e-5,0.68105 -0.45425,1.72107 -1.36266,3.12007 -1.1347,1.81573 -2.55276,3.29092 -4.25417,4.42559 -2.26938,1.5133 -4.84174,2.26994 -7.71708,2.26994 -4.16012,0 -7.6588,-1.56985 -10.49606,-4.70955 -2.42058,-2.64681 -3.63086,-5.4835 -3.63086,-8.51009 l 0,-2.66643 c 0,-3.44211 1.17277,-6.54371 3.51831,-9.30483 2.72299,-3.25279 6.27823,-4.87919 10.66574,-4.87923 z"
         style="font-variant:normal;font-stretch:normal;font-family:CodiceNero;-inkscape-font-specification:CodiceNero"
         id="path7580"
         inkscape:connector-curvature="0" />
      <path
         d="m 273.03728,790.68136 c 3.36592,4e-5 6.37287,1.11567 9.02086,3.3469 2.23124,1.92886 3.59273,3.9714 4.08449,6.12761 l -7.94217,2.89325 c -0.15123,-1.24778 -0.60545,-2.30685 -1.36265,-3.17721 -0.94539,-1.05847 -2.23128,-1.58772 -3.85767,-1.58774 -1.62643,2e-5 -2.95964,0.59564 -3.99966,1.78686 -1.04003,1.19126 -1.56005,2.71378 -1.56003,4.56757 l 0,2.15565 c -2e-5,1.5514 0.43516,2.93194 1.30551,4.14164 1.02039,1.4752 2.47654,2.2128 4.36845,2.21279 1.17276,10e-6 2.31696,-0.47267 3.43261,-1.41806 1.11561,-0.94536 1.69247,-2.15564 1.73058,-3.63085 l 8.05645,2.83612 c -3e-5,0.68105 -0.45425,1.72107 -1.36265,3.12007 -1.13471,1.81573 -2.55277,3.29092 -4.25418,4.42559 -2.26938,1.5133 -4.84174,2.26994 -7.71708,2.26994 -4.16012,0 -7.6588,-1.56985 -10.49606,-4.70955 -2.42058,-2.64681 -3.63086,-5.4835 -3.63086,-8.51009 l 0,-2.66643 c 0,-3.44211 1.17277,-6.54371 3.51831,-9.30483 2.72299,-3.25279 6.27823,-4.87919 10.66575,-4.87923 z"
         style="font-variant:normal;font-stretch:normal;font-family:CodiceNero;-inkscape-font-specification:CodiceNero"
         id="path7582"
         inkscape:connector-curvature="0" />
      <path
         d="m 304.28652,790.62423 c 3.63141,3e-5 6.78958,1.28592 9.4745,3.85767 3.02655,2.87539 4.53984,6.65803 4.53987,11.34794 -3e-5,0.60487 -0.0947,1.56928 -0.28396,2.89325 l -18.95074,0 c 0.87033,2.68607 2.79975,3.99101 5.78825,3.91481 2.34436,-0.075 4.65123,-0.98287 6.92061,-2.72357 l 6.0722,5.95793 c -4.6911,3.25282 -9.06013,4.87923 -13.10709,4.87923 -3.8196,0 -7.14802,-1.19124 -9.98528,-3.57372 -3.10161,-2.64796 -4.70898,-6.14664 -4.8221,-10.49606 0,-0.5679 0,-1.43824 0,-2.61103 0.0369,-2.87419 1.11448,-5.65432 3.23263,-8.3404 2.72414,-3.40401 6.43117,-5.10602 11.12111,-5.10605 z m -5.10605,11.23366 9.92814,0 c -0.22626,-1.05848 -0.79331,-1.95652 -1.70115,-2.69414 -0.90787,-0.73758 -1.98628,-1.12542 -3.23522,-1.16354 -1.2859,-0.0381 -2.40153,0.37806 -3.34689,1.24838 -0.79417,0.71915 -1.34247,1.58891 -1.64488,2.6093 z"
         style="font-variant:normal;font-stretch:normal;font-family:CodiceNero;-inkscape-font-specification:CodiceNero"
         id="path7584"
         inkscape:connector-curvature="0" />
      <path
         d="m 336.81357,779.39057 0,10.72288 7.43312,0 0,8.00104 -7.26171,0 0,11.85698 c -1e-5,1.2859 0.90727,1.92885 2.72185,1.92884 0.56789,10e-6 1.32454,-0.0661 2.26993,-0.19826 0.94535,-0.13215 1.51269,-0.19824 1.70202,-0.19825 l 1.58947,7.54567 c -2.26938,1.13468 -5.16321,1.70202 -8.6815,1.70202 -2.38249,0 -4.46254,-0.60543 -6.24015,-1.8163 -1.96694,-1.36091 -2.9504,-3.0814 -2.9504,-5.16145 l 0,-15.65925 -4.70954,0 0,-8.00104 4.70954,0 0,-8.34041 z"
         style="font-variant:normal;font-stretch:normal;font-family:CodiceNero;-inkscape-font-specification:CodiceNero"
         id="path7586"
         inkscape:connector-curvature="0" />
      <path
         d="m 363.85193,779.39057 0,10.72288 7.43312,0 0,8.00104 -7.2617,0 0,11.85698 c -2e-5,1.2859 0.90726,1.92885 2.72184,1.92884 0.56789,10e-6 1.32454,-0.0661 2.26993,-0.19826 0.94535,-0.13215 1.51269,-0.19824 1.70202,-0.19825 l 1.58947,7.54567 c -2.26938,1.13468 -5.16321,1.70202 -8.6815,1.70202 -2.38249,0 -4.46254,-0.60543 -6.24015,-1.8163 -1.96694,-1.36091 -2.9504,-3.0814 -2.95039,-5.16145 l 0,-15.65925 -4.70955,0 0,-8.00104 4.70955,0 0,-8.34041 z"
         style="font-variant:normal;font-stretch:normal;font-family:CodiceNero;-inkscape-font-specification:CodiceNero"
         id="path7588"
         inkscape:connector-curvature="0" />
      <path
         d="m 401.83998,794.93727 c 2.60984,2.83614 3.91478,6.16457 3.91481,9.98528 -3e-5,4.95428 -1.60739,8.96374 -4.82209,12.0284 -2.79921,2.64682 -5.99546,3.97022 -9.58878,3.97022 -5.33289,0 -9.45547,-2.061 -12.36776,-6.18301 -1.02156,-1.47519 -1.7026,-2.72357 -2.04312,-3.74513 -0.49173,-1.36207 -0.7376,-3.2153 -0.73759,-5.5597 -10e-6,-4.84227 1.6264,-8.71956 4.87923,-11.63189 2.72414,-2.45863 6.07161,-3.68796 10.04242,-3.68799 4.16123,3e-5 7.73552,1.60797 10.72288,4.82382 z m -16.85049,8.73691 0,3.12007 c -10e-6,1.5514 0.60542,2.89443 1.81629,4.02909 1.21085,1.13469 2.59139,1.70203 4.14163,1.70202 1.58831,10e-6 2.96885,-0.56733 4.14164,-1.70202 1.17275,-1.13466 1.75913,-2.47769 1.75915,-4.02909 l 0,-3.12007 c -2e-5,-1.62639 -0.64297,-2.98789 -1.92883,-4.0845 -1.17279,-0.98344 -2.49678,-1.47517 -3.97196,-1.47519 -1.55024,2e-5 -2.91173,0.49175 -4.08449,1.47519 -1.24897,1.09661 -1.87344,2.45811 -1.87343,4.0845 z"
         style="font-variant:normal;font-stretch:normal;font-family:CodiceNero;-inkscape-font-specification:CodiceNero"
         id="path7590"
         inkscape:connector-curvature="0" />
    </g>
  </g>
</svg>
