<?xml version="1.0" encoding="UTF-8" standalone="no"?>
<!-- Created with Inkscape (http://www.inkscape.org/) -->

<svg
   xmlns:dc="http://purl.org/dc/elements/1.1/"
   xmlns:cc="http://creativecommons.org/ns#"
   xmlns:rdf="http://www.w3.org/1999/02/22-rdf-syntax-ns#"
   xmlns:svg="http://www.w3.org/2000/svg"
   xmlns="http://www.w3.org/2000/svg"
   xmlns:sodipodi="http://sodipodi.sourceforge.net/DTD/sodipodi-0.dtd"
   xmlns:inkscape="http://www.inkscape.org/namespaces/inkscape"
   width="600"
   height="600"
   id="svg4183"
   version="1.1"
   inkscape:version="0.48.5 r10040"
   sodipodi:docname="Nuovo documento 7">
  <defs
     id="defs4185" />
  <sodipodi:namedview
     id="base"
     pagecolor="#ffffff"
     bordercolor="#666666"
     borderopacity="1.0"
     inkscape:pageopacity="0.0"
     inkscape:pageshadow="2"
     inkscape:zoom="0.7"
     inkscape:cx="229.09992"
     inkscape:cy="285.62977"
     inkscape:document-units="px"
     inkscape:current-layer="layer1"
     showgrid="false"
     fit-margin-top="0"
     fit-margin-left="0"
     fit-margin-right="0"
     fit-margin-bottom="0"
     inkscape:window-width="1366"
     inkscape:window-height="705"
     inkscape:window-x="-8"
     inkscape:window-y="-8"
     inkscape:window-maximized="1" />
  <metadata
     id="metadata4188">
    <rdf:RDF>
      <cc:Work
         rdf:about="">
        <dc:format>image/svg+xml</dc:format>
        <dc:type
           rdf:resource="http://purl.org/dc/dcmitype/StillImage" />
        <dc:title></dc:title>
      </cc:Work>
    </rdf:RDF>
  </metadata>
  <g
     inkscape:label="Livello 1"
     inkscape:groupmode="layer"
     id="layer1"
     transform="translate(-260,-366.65625)">
    <rect
       style="font-size:128.39006042px;font-style:normal;font-weight:normal;line-height:125%;letter-spacing:0px;word-spacing:0px;fill:#ffffff;fill-opacity:1;stroke:#000000;stroke-width:0.99999994;stroke-linecap:butt;stroke-linejoin:miter;stroke-miterlimit:4;stroke-opacity:1;stroke-dasharray:none;font-family:Sans"
       id="rect3798-3"
       width="599"
       height="598.99994"
       x="260.5"
       y="367.14792"
       inkscape:export-filename="C:\Users\utente\Desktop\CANC30.png"
       inkscape:export-xdpi="90"
       inkscape:export-ydpi="90" />
    <path
       inkscape:connector-curvature="0"
       d="m 457.83026,454.50608 36.71702,0 0,14.6382 -17.45929,32.3522 17.84719,0 0,15.6648 -37.87679,0 0,-14.6383 17.46321,-32.6108 -16.69134,0 z"
       style="font-size:128.39006042px;font-style:normal;font-variant:normal;font-weight:normal;font-stretch:normal;text-align:center;line-height:125%;letter-spacing:0px;word-spacing:0px;text-anchor:middle;fill:#000000;fill-opacity:1;stroke:none;font-family:CodiceNeroCondensed;-inkscape-font-specification:CodiceNeroCondensed"
       id="path5677-1" />
    <path
       inkscape:connector-curvature="0"
       d="m 527.22076,454.37678 c 7.53066,0 13.47971,3.4245 17.84719,10.2734 3.85019,6.0758 5.77531,13.3936 5.77536,21.9534 -5e-5,8.2177 -1.92517,15.3226 -5.77536,21.3147 -4.53726,6.8464 -10.61562,10.2695 -18.23508,10.2695 -7.01613,0 -12.74969,-3.081 -17.2007,-9.2429 -4.28124,-5.906 -6.42186,-13.3531 -6.42185,-22.3413 -1e-5,-8.4736 1.84022,-15.6635 5.52068,-21.5695 4.28122,-7.1048 10.44447,-10.6573 18.48976,-10.6573 z m -0.2586,47.7622 c 2.31168,10e-5 3.93772,-1.5398 4.87811,-4.6195 0.60075,-2.2254 0.90114,-5.9072 0.90117,-11.0452 -3e-5,-4.4484 -0.17113,-7.6143 -0.51328,-9.4976 -0.8568,-4.1088 -2.61213,-6.1632 -5.266,-6.1633 -2.39532,1e-4 -4.02135,1.6261 -4.8781,4.8781 -0.59819,2.1394 -0.89728,5.7336 -0.89725,10.7828 -3e-5,5.4802 0.25596,9.2037 0.76795,11.1706 0.85675,2.9961 2.52588,4.4942 5.0074,4.4941 z"
       style="font-size:128.39006042px;font-style:normal;font-variant:normal;font-weight:normal;font-stretch:normal;text-align:center;line-height:125%;letter-spacing:0px;word-spacing:0px;text-anchor:middle;fill:#000000;fill-opacity:1;stroke:none;font-family:CodiceNeroCondensed;-inkscape-font-specification:CodiceNeroCondensed"
       id="path5679-4" />
    <path
       inkscape:connector-curvature="0"
       d="m 605.47413,468.76028 0,48.401 -18.10187,0 0,-43.1389 c -4e-5,-2.3979 -1.28388,-3.5968 -3.85155,-3.5969 -2.56772,1e-4 -3.85157,1.199 -3.85154,3.5969 l 0,43.1389 -18.10579,0 0,-61.4994 14.76752,0 1.02656,2.6957 c 3.16584,-3.0796 6.88939,-4.6194 11.17065,-4.6195 4.36479,10e-5 8.28032,1.519 11.74663,4.5568 3.46621,3.0379 5.19934,6.5264 5.19939,10.4654 z"
       style="font-size:128.39006042px;font-style:normal;font-variant:normal;font-weight:normal;font-stretch:normal;text-align:center;line-height:125%;letter-spacing:0px;word-spacing:0px;text-anchor:middle;fill:#000000;fill-opacity:1;stroke:none;font-family:CodiceNeroCondensed;-inkscape-font-specification:CodiceNeroCondensed"
       id="path5681-0" />
    <path
       inkscape:connector-curvature="0"
       d="m 659.31348,470.55478 0,28.7593 c -5e-5,2.4841 1.1558,3.7261 3.46756,3.7261 0.94292,0 1.88458,-0.1724 2.82499,-0.5172 l -4.49412,13.9957 c -1.45499,0.4284 -3.03792,0.6426 -4.7488,0.6426 -5.05185,0 -9.24558,-1.7541 -12.5812,-5.2621 -3.2547,3.508 -7.40664,5.2621 -12.45581,5.2621 -4.27864,0 -7.83109,-1.327 -10.65737,-3.9809 -3.25208,-2.9961 -4.87811,-7.1467 -4.87811,-12.4519 0,-3.8528 0.89856,-7.5333 2.69569,-11.0413 2.4841,-4.7932 6.29385,-8.4319 11.42926,-10.916 l 10.65346,-5.1328 c -3e-5,-0.6843 -0.0849,-1.2838 -0.25468,-1.7984 -0.34222,-1.1989 -0.98479,-1.8833 -1.92773,-2.0531 -4.27865,-0.6844 -9.02875,1.7971 -14.25033,7.4444 l -8.72964,-11.0413 c 8.21766,-7.7892 16.47712,-11.6839 24.7784,-11.6839 3.59422,0 7.10358,0.7706 10.52808,2.3117 3.08224,1.3688 5.39264,3.6374 6.93121,6.8058 1.11271,2.3954 1.66909,4.7058 1.66914,6.9312 z m -18.74445,18.7445 c -1.53856,0.687 -2.9073,1.8428 -4.10623,3.4675 -1.54116,2.0558 -2.31173,4.1964 -2.31171,6.4219 -2e-5,1.4549 0.51326,2.1824 1.53984,2.1824 1.36871,0 2.99475,-0.8999 4.8781,-2.6996 z"
       style="font-size:128.39006042px;font-style:normal;font-variant:normal;font-weight:normal;font-stretch:normal;text-align:center;line-height:125%;letter-spacing:0px;word-spacing:0px;text-anchor:middle;fill:#000000;fill-opacity:1;stroke:none;font-family:CodiceNeroCondensed;-inkscape-font-specification:CodiceNeroCondensed"
       id="path5683-9" />
    <path
       sodipodi:type="arc"
       style="font-size:128.39006042px;font-style:normal;font-weight:normal;line-height:125%;letter-spacing:0px;word-spacing:0px;fill:#ffffff;fill-opacity:1;stroke:#000000;stroke-width:0.60889953;stroke-miterlimit:4;stroke-opacity:1;stroke-dasharray:none;font-family:Sans"
       id="path3808-1-2-5"
       sodipodi:cx="1450.5791"
       sodipodi:cy="727.09308"
       sodipodi:rx="169.70563"
       sodipodi:ry="195.96959"
       d="m 1620.2847,727.09308 c 0,108.23101 -75.9798,195.96959 -169.7056,195.96959 -93.7258,0 -169.7056,-87.73858 -169.7056,-195.96959 0,-108.23102 75.9798,-195.96959 169.7056,-195.96959 93.7258,0 169.7056,87.73857 169.7056,195.96959 z"
       transform="matrix(0.88241029,0,0,0.76414918,-720.00598,176.05308)" />
    <path
       transform="matrix(0.74393522,0,0,0.64423261,-519.13688,263.24348)"
       d="m 1620.2847,727.09308 c 0,108.23101 -75.9798,195.96959 -169.7056,195.96959 -93.7258,0 -169.7056,-87.73858 -169.7056,-195.96959 0,-108.23102 75.9798,-195.96959 169.7056,-195.96959 93.7258,0 169.7056,87.73857 169.7056,195.96959 z"
       sodipodi:ry="195.96959"
       sodipodi:rx="169.70563"
       sodipodi:cy="727.09308"
       sodipodi:cx="1450.5791"
       id="path3810-7-4-6-4"
       style="font-size:128.39006042px;font-style:normal;font-weight:normal;line-height:125%;letter-spacing:0px;word-spacing:0px;fill:#ffffff;fill-opacity:1;stroke:#d40000;stroke-width:54.16794205;stroke-miterlimit:4;stroke-opacity:1;stroke-dasharray:none;font-family:Sans"
       sodipodi:type="arc" />
    <g
       transform="translate(259.99999,-85.714323)"
       style="font-size:178.31954956px;font-style:normal;font-weight:normal;line-height:125%;letter-spacing:0px;word-spacing:0px;fill:#000000;fill-opacity:1;stroke:none;font-family:Sans"
       id="text7131-3">
      <path
         inkscape:connector-curvature="0"
         d="m 253.86927,752.91029 c 10.10371,1.3e-4 18.18671,2.94237 24.24902,8.82673 6.06219,5.88461 9.09331,12.98807 9.09339,21.3104 -8e-5,14.26508 -6.59745,24.42869 -19.79212,30.49086 5.94247,0.95059 11.23197,4.04158 15.86852,9.27297 5.47083,6.18203 8.20628,13.61201 8.20636,22.28994 -8e-5,9.51244 -3.38856,17.89474 -10.16544,25.14693 -7.13255,7.60776 -15.87039,11.41163 -26.21354,11.41163 -13.90947,0 -24.01322,-5.88448 -30.31127,-17.65346 -2.61574,-4.8759 -4.34082,-10.70234 -5.17523,-17.47933 l 26.03396,-5.34936 c -0.35557,4.75624 0.35913,8.50206 2.1441,11.23748 1.42573,2.49604 3.38662,3.74404 5.88267,3.74401 2.37624,3e-5 4.51581,-1.15909 6.4187,-3.47736 1.90279,-2.3182 2.85421,-5.43821 2.85427,-9.36003 -6e-5,-6.06584 -2.49606,-10.40664 -7.48803,-13.02242 -3.92545,-2.0207 -9.15691,-2.61386 -15.69439,-1.7795 l 0,-24.78777 c 5.9425,9e-5 11.05424,-2.10955 15.33522,-6.3289 4.2809,-4.21918 5.64863,-9.12412 4.10318,-14.71485 -0.83447,-2.85144 -2.55954,-4.27721 -5.17523,-4.27732 -0.71111,1.1e-4 -1.54191,0.17788 -2.49238,0.53331 -1.66525,0.59508 -3.21075,2.02267 -4.63648,4.28276 -1.78497,2.85164 -2.79535,6.18026 -3.03113,9.98585 l -24.43404,-2.67741 c 1.6652,-14.02543 6.30168,-24.18904 13.90944,-30.49086 5.70669,-4.75607 12.5435,-7.13417 20.51045,-7.1343 z"
         style="font-variant:normal;font-stretch:normal;text-align:center;text-anchor:middle;fill:#000000;font-family:CodiceNeroCondensed;-inkscape-font-specification:CodiceNeroCondensed"
         id="path7312-1" />
      <path
         inkscape:connector-curvature="0"
         d="m 344.12831,752.55657 c 12.36389,1.3e-4 22.17197,7.19248 29.42425,21.57705 6.18189,12.36043 9.27288,26.56554 9.27296,42.61537 -8e-5,16.28579 -2.85344,30.61062 -8.56007,42.97453 -7.13257,15.21552 -17.11841,22.82326 -29.95756,22.82325 -12.95534,10e-6 -23.05908,-7.60773 -30.31127,-22.82325 -5.82645,-12.48 -8.73967,-26.80483 -8.73966,-42.97453 -10e-6,-15.45485 2.79348,-29.1847 8.38049,-41.18959 7.13247,-15.3351 17.29608,-23.0027 30.49086,-23.00283 z m -9.26752,64.19242 c -4e-5,24.96377 3.14899,37.44562 9.4471,37.44558 1.42573,4e-5 2.61568,-0.71285 3.56988,-2.13866 3.44647,-4.87225 5.16973,-16.64121 5.16978,-35.30692 -5e-5,-7.60767 -0.41726,-14.62225 -1.25163,-21.04375 -1.54555,-11.05417 -4.10141,-16.5813 -7.66761,-16.58141 -6.17839,1.1e-4 -9.26756,12.54182 -9.26752,37.62516 z"
         style="font-variant:normal;font-stretch:normal;text-align:center;text-anchor:middle;fill:#000000;font-family:CodiceNeroCondensed;-inkscape-font-specification:CodiceNeroCondensed"
         id="path7314-2" />
    </g>
    <rect
       style="font-size:128.39006042px;font-style:normal;font-weight:normal;line-height:125%;letter-spacing:0px;word-spacing:0px;fill:none;stroke:#000000;stroke-width:8.99999905;stroke-linecap:butt;stroke-linejoin:miter;stroke-miterlimit:4;stroke-opacity:1;stroke-dasharray:none;font-family:Sans"
       id="rect3802-3"
       width="581.99994"
       height="581.99994"
       x="269"
       y="375.64792"
       rx="31.726187"
       ry="31.726187"
       inkscape:export-filename="C:\Users\utente\Desktop\CANC30.png"
       inkscape:export-xdpi="90"
       inkscape:export-ydpi="90" />
    <path
       inkscape:connector-curvature="0"
       id="path4175"
       d="m 787.50017,586.64828 -88.03466,0 -366.96534,290 88.08488,0 z"
       style="fill:#d40000;fill-opacity:1;stroke:#ffffff;stroke-width:10;stroke-miterlimit:4;stroke-opacity:1;stroke-dasharray:none" />
    <path
       style="fill:#d40000;fill-opacity:1;stroke:none"
       d="m 787.50017,586.64828 -88.03466,0 -366.96534,290 88.08488,0 z"
       id="path4103"
       inkscape:connector-curvature="0" />
  </g>
</svg>
