<?xml version="1.0" encoding="UTF-8" standalone="no"?>
<!-- Created with Inkscape (http://www.inkscape.org/) -->

<svg
   xmlns:dc="http://purl.org/dc/elements/1.1/"
   xmlns:cc="http://creativecommons.org/ns#"
   xmlns:rdf="http://www.w3.org/1999/02/22-rdf-syntax-ns#"
   xmlns:svg="http://www.w3.org/2000/svg"
   xmlns="http://www.w3.org/2000/svg"
   xmlns:sodipodi="http://sodipodi.sourceforge.net/DTD/sodipodi-0.dtd"
   xmlns:inkscape="http://www.inkscape.org/namespaces/inkscape"
   version="1.1"
   width="200"
   height="200"
   id="svg2"
   inkscape:version="0.47 r22583"
   sodipodi:docname="Italian traffic signs - icona mezzo d'opera.svg"
   sodipodi:version="0.32"
   inkscape:output_extension="org.inkscape.output.svg.inkscape">
  <metadata
     id="metadata2877">
    <rdf:RDF>
      <cc:Work
         rdf:about="">
        <dc:format>image/svg+xml</dc:format>
        <dc:type
           rdf:resource="http://purl.org/dc/dcmitype/StillImage" />
        <dc:title></dc:title>
      </cc:Work>
    </rdf:RDF>
  </metadata>
  <sodipodi:namedview
     pagecolor="#ffffff"
     bordercolor="#666666"
     borderopacity="1"
     objecttolerance="10"
     gridtolerance="10"
     guidetolerance="10"
     inkscape:pageopacity="0"
     inkscape:pageshadow="2"
     inkscape:window-width="1600"
     inkscape:window-height="838"
     id="namedview2875"
     showgrid="false"
     inkscape:zoom="2.3765092"
     inkscape:cx="116.90413"
     inkscape:cy="109.29905"
     inkscape:window-x="-8"
     inkscape:window-y="-8"
     inkscape:window-maximized="1"
     inkscape:current-layer="svg2" />
  <defs
     id="defs4">
    <inkscape:perspective
       sodipodi:type="inkscape:persp3d"
       inkscape:vp_x="0 : 100 : 1"
       inkscape:vp_y="0 : 1000 : 0"
       inkscape:vp_z="200 : 100 : 1"
       inkscape:persp3d-origin="100 : 66.666667 : 1"
       id="perspective2879" />
    <inkscape:perspective
       id="perspective2839"
       inkscape:persp3d-origin="0.5 : 0.33333333 : 1"
       inkscape:vp_z="1 : 0.5 : 1"
       inkscape:vp_y="0 : 1000 : 0"
       inkscape:vp_x="0 : 0.5 : 1"
       sodipodi:type="inkscape:persp3d" />
    <inkscape:perspective
       id="perspective3649"
       inkscape:persp3d-origin="0.5 : 0.33333333 : 1"
       inkscape:vp_z="1 : 0.5 : 1"
       inkscape:vp_y="0 : 1000 : 0"
       inkscape:vp_x="0 : 0.5 : 1"
       sodipodi:type="inkscape:persp3d" />
    <inkscape:perspective
       id="perspective3679"
       inkscape:persp3d-origin="0.5 : 0.33333333 : 1"
       inkscape:vp_z="1 : 0.5 : 1"
       inkscape:vp_y="0 : 1000 : 0"
       inkscape:vp_x="0 : 0.5 : 1"
       sodipodi:type="inkscape:persp3d" />
    <inkscape:perspective
       id="perspective3713"
       inkscape:persp3d-origin="0.5 : 0.33333333 : 1"
       inkscape:vp_z="1 : 0.5 : 1"
       inkscape:vp_y="0 : 1000 : 0"
       inkscape:vp_x="0 : 0.5 : 1"
       sodipodi:type="inkscape:persp3d" />
    <inkscape:perspective
       id="perspective3741"
       inkscape:persp3d-origin="0.5 : 0.33333333 : 1"
       inkscape:vp_z="1 : 0.5 : 1"
       inkscape:vp_y="0 : 1000 : 0"
       inkscape:vp_x="0 : 0.5 : 1"
       sodipodi:type="inkscape:persp3d" />
    <inkscape:perspective
       id="perspective3765"
       inkscape:persp3d-origin="0.5 : 0.33333333 : 1"
       inkscape:vp_z="1 : 0.5 : 1"
       inkscape:vp_y="0 : 1000 : 0"
       inkscape:vp_x="0 : 0.5 : 1"
       sodipodi:type="inkscape:persp3d" />
    <inkscape:perspective
       id="perspective3801"
       inkscape:persp3d-origin="0.5 : 0.33333333 : 1"
       inkscape:vp_z="1 : 0.5 : 1"
       inkscape:vp_y="0 : 1000 : 0"
       inkscape:vp_x="0 : 0.5 : 1"
       sodipodi:type="inkscape:persp3d" />
    <inkscape:perspective
       id="perspective2863"
       inkscape:persp3d-origin="0.5 : 0.33333333 : 1"
       inkscape:vp_z="1 : 0.5 : 1"
       inkscape:vp_y="0 : 1000 : 0"
       inkscape:vp_x="0 : 0.5 : 1"
       sodipodi:type="inkscape:persp3d" />
    <inkscape:perspective
       id="perspective3859"
       inkscape:persp3d-origin="0.5 : 0.33333333 : 1"
       inkscape:vp_z="1 : 0.5 : 1"
       inkscape:vp_y="0 : 1000 : 0"
       inkscape:vp_x="0 : 0.5 : 1"
       sodipodi:type="inkscape:persp3d" />
    <inkscape:perspective
       id="perspective3964"
       inkscape:persp3d-origin="0.5 : 0.33333333 : 1"
       inkscape:vp_z="1 : 0.5 : 1"
       inkscape:vp_y="0 : 1000 : 0"
       inkscape:vp_x="0 : 0.5 : 1"
       sodipodi:type="inkscape:persp3d" />
    <inkscape:perspective
       id="perspective3988"
       inkscape:persp3d-origin="0.5 : 0.33333333 : 1"
       inkscape:vp_z="1 : 0.5 : 1"
       inkscape:vp_y="0 : 1000 : 0"
       inkscape:vp_x="0 : 0.5 : 1"
       sodipodi:type="inkscape:persp3d" />
    <inkscape:perspective
       id="perspective2879-7"
       inkscape:persp3d-origin="0.5 : 0.33333333 : 1"
       inkscape:vp_z="1 : 0.5 : 1"
       inkscape:vp_y="0 : 1000 : 0"
       inkscape:vp_x="0 : 0.5 : 1"
       sodipodi:type="inkscape:persp3d" />
  </defs>
  <path
     style="fill:#ffffff;fill-opacity:1;stroke:none"
     d="m -2.1039262,-3.1405409 207.7153762,0 0,207.3483909 -207.7153762,0 0,-207.3483909 z"
     id="rect2881" />
  <path
     style="fill:none;stroke:#000000;stroke-width:3;stroke-miterlimit:4;stroke-opacity:1"
     d="m 21.814432,2.8621521 157.645218,0 c 10.29357,0 18.58045,8.2868829 18.58045,18.5804539 l 0,157.645234 c 0,10.29357 -8.28688,18.58045 -18.58045,18.58045 l -157.645218,0 c -10.293571,0 -18.5804535,-8.28688 -18.5804535,-18.58045 l 0,-157.645234 c 0,-10.293571 8.2868825,-18.5804539 18.5804535,-18.5804539 z"
     id="rect4614" />
  <g
     id="g4016"
     transform="translate(0.84157048,-0.42078524)">
    <path
       sodipodi:nodetypes="ccccccccccccccccccccccccccccccscccsccccccccccccccscccccc"
       id="path3994"
       d="m 21.905318,141.13391 -3.134405,0 0,-16.51162 0,-16.51162 4.233109,-10.415761 4.233109,-10.415768 14.003428,-0.152429 14.003428,-0.152429 0,19.671227 0,19.67122 38.50133,0 63.366823,0.002 14.38977,-0.002 0,3.64332 c 0,2.94052 -0.19238,3.71897 -0.99731,4.03547 -18.04769,6.85238 -18.2718,6.92493 -18.17397,6.86295 l -63.71358,0.27544 -34.444053,0 c -22.607613,-0.10666 -23.007453,-1.29132 -32.267679,0 z m 27.639751,-40.76104 0,-6.567534 -9.470756,0.156253 -9.470756,0.156253 -1.124759,2.849459 c -0.618617,1.567198 -1.730762,4.452279 -2.471432,6.411279 l -1.346673,3.56183 11.942188,0 11.942188,0 0,-6.56754 z M 125.05573,95.767804 C 98.726729,79.924277 76.998699,66.781929 76.771221,66.562595 76.20052,66.012319 91.531606,40.548016 92.433603,40.548016 c 0.399636,0 22.431787,13.043905 48.960327,28.986456 l 48.23374,28.986457 -7.80944,12.862701 c -4.29518,7.07448 -8.05292,12.93648 -8.35051,13.02664 -0.29759,0.0902 -22.08299,-12.79894 -48.41199,-28.642466 z M 69.989959,121.33017 c 1.272968,-1.48884 6.249206,-6.79727 11.0583,-11.79651 l 8.743815,-9.08952 1.862971,0.77166 1.862971,0.77167 6.706974,-6.689502 6.70697,-6.689503 2.97798,1.832367 2.97798,1.832373 -2.17178,2.347048 c -1.19448,1.290873 -4.09865,4.349706 -6.45372,6.797397 l -4.281929,4.45036 1.282259,1.05496 c 0.70524,0.58024 1.28225,1.27388 1.28225,1.54144 0,0.26755 -3.401412,3.88087 -7.558704,8.0296 l -7.558703,7.54315 -9.876059,0 -9.876065,0 2.31449,-2.70699 z"
       style="fill:#000000" />
    <path
       transform="matrix(1.4960887,0,0,1.4960887,-50.539983,-84.89115)"
       d="m 132.28436,150.24214 c 0,3.4278 -2.89652,6.20658 -6.46957,6.20658 -3.57305,0 -6.46957,-2.77878 -6.46957,-6.20658 0,-3.4278 2.89652,-6.20658 6.46957,-6.20658 3.57305,0 6.46957,2.77878 6.46957,6.20658 z"
       sodipodi:ry="6.2065825"
       sodipodi:rx="6.469573"
       sodipodi:cy="150.24214"
       sodipodi:cx="125.81479"
       id="path4008"
       style="fill:#ffffff;fill-opacity:1;stroke:#000000;stroke-width:5.50101089;stroke-linecap:butt;stroke-linejoin:miter;stroke-miterlimit:4;stroke-opacity:1;stroke-dasharray:none;stroke-dashoffset:0"
       sodipodi:type="arc" />
    <path
       sodipodi:type="arc"
       style="fill:none;stroke:#ffffff;stroke-width:0.42109802;stroke-linecap:butt;stroke-linejoin:miter;stroke-miterlimit:4;stroke-opacity:1;stroke-dasharray:none;stroke-dashoffset:0"
       id="path4010"
       sodipodi:cx="125.81479"
       sodipodi:cy="150.24214"
       sodipodi:rx="6.469573"
       sodipodi:ry="6.2065825"
       d="m 132.28436,150.24214 c 0,3.4278 -2.89652,6.20658 -6.46957,6.20658 -3.57305,0 -6.46957,-2.77878 -6.46957,-6.20658 0,-3.4278 2.89652,-6.20658 6.46957,-6.20658 3.57305,0 6.46957,2.77878 6.46957,6.20658 z"
       transform="matrix(2.1417103,0,0,2.1417103,-131.45292,-182.19409)" />
    <path
       sodipodi:type="arc"
       style="fill:#ffffff;fill-opacity:1;stroke:#000000;stroke-width:5.50101089;stroke-linecap:butt;stroke-linejoin:miter;stroke-miterlimit:4;stroke-opacity:1;stroke-dasharray:none;stroke-dashoffset:0"
       id="path4012"
       sodipodi:cx="125.81479"
       sodipodi:cy="150.24214"
       sodipodi:rx="6.469573"
       sodipodi:ry="6.2065825"
       d="m 132.28436,150.24214 c 0,3.4278 -2.89652,6.20658 -6.46957,6.20658 -3.57305,0 -6.46957,-2.77878 -6.46957,-6.20658 0,-3.4278 2.89652,-6.20658 6.46957,-6.20658 3.57305,0 6.46957,2.77878 6.46957,6.20658 z"
       transform="matrix(1.5161285,0,0,1.5161285,-151.46755,-87.661223)" />
    <path
       transform="matrix(2.1703981,0,0,2.1703981,-233.4643,-186.26752)"
       d="m 132.28436,150.24214 c 0,3.4278 -2.89652,6.20658 -6.46957,6.20658 -3.57305,0 -6.46957,-2.77878 -6.46957,-6.20658 0,-3.4278 2.89652,-6.20658 6.46957,-6.20658 3.57305,0 6.46957,2.77878 6.46957,6.20658 z"
       sodipodi:ry="6.2065825"
       sodipodi:rx="6.469573"
       sodipodi:cy="150.24214"
       sodipodi:cx="125.81479"
       id="path4014"
       style="fill:none;stroke:#ffffff;stroke-width:0.42109802;stroke-linecap:butt;stroke-linejoin:miter;stroke-miterlimit:4;stroke-opacity:1;stroke-dasharray:none;stroke-dashoffset:0"
       sodipodi:type="arc" />
  </g>
</svg>
