<?xml version="1.0" encoding="UTF-8" standalone="no"?>
<!-- Created with Inkscape (http://www.inkscape.org/) -->

<svg
   width="52.916668mm"
   height="52.916668mm"
   viewBox="0 0 52.916668 52.916668"
   version="1.1"
   id="svg6385"
   inkscape:version="1.2.1 (9c6d41e410, 2022-07-14)"
   sodipodi:docname="Segnale stradale italiano - sovrapassaggio.svg"
   xmlns:inkscape="http://www.inkscape.org/namespaces/inkscape"
   xmlns:sodipodi="http://sodipodi.sourceforge.net/DTD/sodipodi-0.dtd"
   xmlns="http://www.w3.org/2000/svg"
   xmlns:svg="http://www.w3.org/2000/svg">
  <sodipodi:namedview
     id="namedview6387"
     pagecolor="#ffffff"
     bordercolor="#000000"
     borderopacity="0.25"
     inkscape:showpageshadow="2"
     inkscape:pageopacity="0.0"
     inkscape:pagecheckerboard="0"
     inkscape:deskcolor="#d1d1d1"
     inkscape:document-units="mm"
     showgrid="false"
     inkscape:zoom="0.76257015"
     inkscape:cx="-55.732578"
     inkscape:cy="8.523806"
     inkscape:window-width="1920"
     inkscape:window-height="991"
     inkscape:window-x="-9"
     inkscape:window-y="-9"
     inkscape:window-maximized="1"
     inkscape:current-layer="layer1" />
  <defs
     id="defs6382" />
  <g
     inkscape:label="Livello 1"
     inkscape:groupmode="layer"
     id="layer1"
     transform="translate(-119.95988,-97.754279)">
    <g
       id="g1607"
       transform="translate(-1272.0849,-289.52594)">
      <rect
         x="1392.4417"
         y="387.67709"
         width="52.122917"
         height="52.122917"
         rx="4.6302085"
         ry="4.6302085"
         fill="#ffffff"
         stroke="#000000"
         stroke-width="0.80368"
         style="fill-rule:evenodd;stroke:#000000;stroke-width:0.79375;paint-order:markers fill stroke"
         id="rect726-2-2-2-4-2" />
      <g
         id="g32895"
         style="fill:#ffffff"
         transform="matrix(0.32663619,0,0,0.32663619,2733.0029,177.99689)">
        <path
           id="rect21380-7-0"
           style="fill:#000000;fill-rule:evenodd;stroke-width:5.64475"
           d="m -4008.3835,762.005 v 7.97183 h -38.8895 v 7.97183 h -34.9038 v 7.9718 h 42.8755 v -7.9718 h 38.7807 v -7.97183 h 35.0126 V 762.005 Z" />
        <circle
           style="fill:#000000;fill-rule:evenodd;stroke-width:5.62595"
           id="path21575-6-6"
           cx="4022.2566"
           cy="667.65289"
           r="7.7698207"
           transform="scale(-1,1)" />
        <path
           style="fill:#000000;fill-rule:evenodd;stroke-width:5.51563"
           d="m -4033.4333,678.22801 -18.7622,20.11013 v 10.69176 c 0,0 -0.1147,5.39413 4.6988,5.39413 4.813,0 4.6988,-4.91058 4.6988,-4.91058 v -8.00214 l 4.9652,-4.99213 c 0.7498,-0.63069 1.2583,-0.37637 1.5775,0.57242 l 1.7757,10.69217 -10.1308,52.21746 c 0,0 -1.0876,6.4733 4.4165,7.23774 5.5043,0.76444 7.5202,-4.47837 7.5202,-4.47837 l 8.0768,-42.91887 12.7981,11.14594 1.8105,20.29119 c 0,0 0.5172,7.02632 7.0109,6.16252 6.4936,-0.86379 4.6904,-7.57941 4.6904,-7.57941 l -1.8753,-21.40362 c 0,-1.29127 -0.425,-3.18441 -1.7924,-4.31278 l -17.8922,-16.39874 2.8162,-7.75892 9.8687,12.95892 c 0,0 2.6573,4.86124 6.81,2.46374 4.1524,-2.39747 1.3523,-7.12508 1.3523,-7.12508 l -18.5497,-25.26224 c -1.8165,-2.15246 -7.5172,-5.92368 -10.2552,-6.40027 -1.9158,-0.21839 -3.8252,-0.42393 -5.6288,1.60503 z"
           id="path21631-6-3"
           sodipodi:nodetypes="ccczcccccczcccczcccccczcccc" />
      </g>
    </g>
  </g>
</svg>
