<?xml version="1.0" encoding="UTF-8" standalone="no"?>
<!-- Created with Inkscape (http://www.inkscape.org/) -->
<svg
   xmlns:dc="http://purl.org/dc/elements/1.1/"
   xmlns:cc="http://creativecommons.org/ns#"
   xmlns:rdf="http://www.w3.org/1999/02/22-rdf-syntax-ns#"
   xmlns:svg="http://www.w3.org/2000/svg"
   xmlns="http://www.w3.org/2000/svg"
   xmlns:sodipodi="http://sodipodi.sourceforge.net/DTD/sodipodi-0.dtd"
   xmlns:inkscape="http://www.inkscape.org/namespaces/inkscape"
   version="1.1"
   width="200"
   height="200"
   id="svg2"
   sodipodi:version="0.32"
   inkscape:version="0.46"
   sodipodi:docname="Italian_traffic_signs_-_icona_autoarticolato.svg"
   inkscape:output_extension="org.inkscape.output.svg.inkscape">
  <metadata
     id="metadata6180">
    <rdf:RDF>
      <cc:Work
         rdf:about="">
        <dc:format>image/svg+xml</dc:format>
        <dc:type
           rdf:resource="http://purl.org/dc/dcmitype/StillImage" />
      </cc:Work>
    </rdf:RDF>
  </metadata>
  <sodipodi:namedview
     inkscape:window-height="667"
     inkscape:window-width="647"
     inkscape:pageshadow="2"
     inkscape:pageopacity="0.0"
     guidetolerance="10.0"
     gridtolerance="10.0"
     objecttolerance="10.0"
     borderopacity="1.0"
     bordercolor="#666666"
     pagecolor="#ffffff"
     id="base"
     showgrid="false"
     inkscape:zoom="2.31"
     inkscape:cx="111.52997"
     inkscape:cy="100"
     inkscape:window-x="88"
     inkscape:window-y="67"
     inkscape:current-layer="svg2" />
  <defs
     id="defs4">
    <inkscape:perspective
       sodipodi:type="inkscape:persp3d"
       inkscape:vp_x="0 : 100 : 1"
       inkscape:vp_y="0 : 1000 : 0"
       inkscape:vp_z="200 : 100 : 1"
       inkscape:persp3d-origin="100 : 66.666667 : 1"
       id="perspective6182" />
  </defs>
  <rect
     style="fill:#ffffff;fill-opacity:1;stroke:none"
     id="rect2881"
     width="200.9709"
     height="200.61583"
     x="-0.052549619"
     y="0.12498564"
     rx="0"
     ry="0" />
  <rect
     width="194.80612"
     height="194.80614"
     ry="18.580454"
     x="3.3118067"
     y="3.7279539"
     id="rect4614"
     style="fill:none;stroke:#000000;stroke-width:3;stroke-miterlimit:4;stroke-dasharray:none;stroke-opacity:1"
     rx="18.580454" />
  <g
     id="g5718">
    <path
       d="m 29.971974,111.84431 c -4.990322,0.003 -9.050218,4.03593 -9.047822,9.02626 0.0025,4.99031 4.066206,9.05019 9.056533,9.04779 4.99033,-0.003 9.019936,-4.06617 9.017541,-9.05651 -0.0025,-4.99031 -4.035923,-9.01995 -9.026252,-9.01754 z m 0.0024,4.75308 c 2.360297,-9.6e-4 4.269674,1.90639 4.270809,4.26668 0.0012,2.36029 -1.906395,4.29996 -4.266681,4.3011 -2.360288,9.6e-4 -4.269676,-1.93668 -4.270815,-4.29699 -0.0012,-2.36028 1.906399,-4.26966 4.266687,-4.27079 z"
       id="rect1885"
       style="fill:#000000;fill-opacity:1;fill-rule:evenodd;stroke:none" />
    <path
       d="m 17.120412,109.70324 0.02813,-10.9187 2.736429,-6.781962 2.736429,-6.781963 9.951624,-0.154329 9.951623,-0.154335 0,9.620824 0,9.620815 14.8994,0 14.8994,0 0.382028,5.51035 c 0.210111,3.03069 0.532045,6.71838 0.715406,8.19487 l 0.333379,2.68453 -3.393145,0 c -3.372512,0 -3.395367,-0.0111 -3.758654,-1.82754 -0.911456,-4.55728 -5.555625,-8.34541 -10.231308,-8.34541 -2.690418,0 -6.664286,1.85611 -8.226845,3.84258 -0.641685,0.81577 -1.458394,2.57383 -1.814908,3.90679 -0.631023,2.35933 -0.71015,2.42358 -2.984767,2.42358 -2.237933,0 -2.365267,-0.0958 -3.016675,-2.27003 -0.840473,-2.80525 -3.681594,-6.12366 -6.11249,-7.13936 -5.593101,-2.33695 -12.263249,0.84404 -13.974624,6.66449 -0.527689,1.79469 -1.052688,2.51128 -1.936273,2.64291 -1.204812,0.17949 -1.212108,0.11332 -1.184155,-10.73811 z m 23.143565,-15.440008 0,-4.80389 -8.170283,0 -8.170282,0 -1.437497,4.550482 c -0.790623,2.502764 -1.437497,4.664515 -1.437497,4.80389 0,0.139374 4.323501,0.253408 9.60778,0.253408 l 9.607779,0 0,-4.80389 z m 36.520747,24.725908 c -0.167582,-0.85481 -0.471414,-3.01656 -0.675189,-4.80389 l -0.370499,-3.24969 21.260383,0 21.260381,0 -2.26245,2.04398 c -1.39909,1.26399 -2.63652,3.09719 -3.24269,4.80389 l -0.98023,2.75991 -17.342503,0 -17.342512,0 -0.304691,-1.5542 z m 56.473836,0.84774 c -0.12205,-0.38855 -0.50143,-1.61821 -0.84307,-2.73259 -0.61241,-1.99765 -2.62505,-4.29216 -4.83375,-5.51074 -0.86342,-0.47637 1.00254,-0.62768 7.90219,-0.64081 l 9.03252,-0.0172 -2.04884,1.39221 c -1.99503,1.35567 -4.43035,5.34842 -4.43035,7.26367 0,0.735 -0.51914,0.9519 -2.27838,0.9519 -1.32759,0 -2.37101,-0.29482 -2.50032,-0.70646 l 0,2e-5 z m 25.46842,-1.13033 c -0.49823,-2.63639 -2.30734,-5.3458 -4.4361,-6.64372 l -1.84195,-1.12305 15.96587,-0.002 15.96587,-0.002 0,2.16831 0,2.16832 -6.47967,2.63557 c -6.34554,2.58102 -6.60746,2.63558 -12.65328,2.63558 l -6.17361,0 -0.34713,-1.83679 0,-2.2e-4 z m -83.535955,-13.8465 -0.169492,-3.24969 -14.835542,-0.15068 -14.835542,-0.15067 0,-15.532613 0,-15.532615 69.515111,0 69.51511,0 0,18.932978 0,18.93298 -54.51008,0 -54.510066,0 -0.169499,-3.24969 z"
       id="path5706"
       style="fill:#000000" />
    <path
       d="m 56.387823,111.84395 c -4.990322,0.003 -9.050218,4.03593 -9.047822,9.02626 0.0025,4.99031 4.066206,9.05019 9.056533,9.04779 4.99033,-0.003 9.019936,-4.06617 9.017541,-9.05651 -0.0025,-4.99031 -4.035923,-9.01995 -9.026252,-9.01754 z m 0.0024,4.75308 c 2.360297,-9.6e-4 4.269674,1.90639 4.270809,4.26668 0.0012,2.36029 -1.906395,4.29996 -4.266681,4.3011 -2.360288,9.6e-4 -4.269676,-1.93668 -4.270815,-4.29699 -0.0012,-2.36028 1.906399,-4.26966 4.266687,-4.27079 z"
       id="path5712"
       style="fill:#000000;fill-opacity:1;fill-rule:evenodd;stroke:none" />
    <path
       d="m 122.58782,111.84395 c -4.99032,0.003 -9.05021,4.03593 -9.04782,9.02626 0.002,4.99031 4.06621,9.05019 9.05653,9.04779 4.99033,-0.003 9.01994,-4.06617 9.01754,-9.05651 -0.002,-4.99031 -4.03592,-9.01995 -9.02625,-9.01754 z m 0.002,4.75308 c 2.3603,-9.6e-4 4.26968,1.90639 4.27081,4.26668 0.001,2.36029 -1.90639,4.29996 -4.26668,4.3011 -2.36029,9.6e-4 -4.26968,-1.93668 -4.27081,-4.29699 -10e-4,-2.36028 1.90639,-4.26966 4.26668,-4.27079 z"
       id="path5714"
       style="fill:#000000;fill-opacity:1;fill-rule:evenodd;stroke:none" />
    <path
       d="m 148.58782,111.84395 c -4.99032,0.003 -9.05021,4.03593 -9.04782,9.02626 0.002,4.99031 4.06621,9.05019 9.05653,9.04779 4.99033,-0.003 9.01994,-4.06617 9.01754,-9.05651 -0.002,-4.99031 -4.03592,-9.01995 -9.02625,-9.01754 z m 0.002,4.75308 c 2.3603,-9.6e-4 4.26968,1.90639 4.27081,4.26668 0.001,2.36029 -1.90639,4.29996 -4.26668,4.3011 -2.36029,9.6e-4 -4.26968,-1.93668 -4.27081,-4.29699 -0.001,-2.36028 1.90639,-4.26966 4.26668,-4.27079 z"
       id="path5716"
       style="fill:#000000;fill-opacity:1;fill-rule:evenodd;stroke:none" />
  </g>
</svg>
