<svg xmlns="http://www.w3.org/2000/svg" width="200" height="200" xmlns:v="https://vecta.io/nano"><rect rx="22.535" y="2.5" x="2.5" height="195" width="195" fill="#00408b" stroke="#00408b" stroke-width="5"/><g fill-rule="evenodd"><path d="M122.293 19.5v17.293H105v24.414h17.293V78.5h24.414V61.207H164V36.793h-17.293V19.5h-24.414z" fill="#d40000" stroke="#fff" stroke-width="3"/><g fill="#fff"><path d="M37.855 85.404L81.69 72.701c3.054-.818 5.729 2.555 5.729 5.729v37.609l-55.293 18.68V92.004c0-3.174 2.694-5.787 5.729-6.6z"/><path d="M87.844 90.251l68.594 35.344-38.062 16.406-.75.313-.219.781-5.625 19.719-67.5-38.781v-20.938l43.563-12.844z"/></g><path d="M87.313 84.595L40.875 98.22v26.781 1l.875.469 70.219 40.344 1.906 1.094.594-2.094 6-21.031 40.594-17.469 3.313-1.437-3.187-1.625-49.75-25.656 2.813-.844-3.906-1.906-23.031-11.25zm.531 5.656l14.531 7.5-39.406 11.75-14.344-7.688 39.219-11.562zm18.906 9.75l49.688 25.594-38.062 16.406-.75.313-.219.781-5.625 19.719-67.5-38.781v-20.688l18.281 9.781 44.188-13.125z" fill="#00408b"/><g fill="#fff"><path d="M87 88.22l17.938 8.75-41.969 12.531-17.156-9.188L87 88.22z"/><path d="M119.299 137.957l41.096-11.955c3.604-.966 6.227 2.777 6.227 6.227v32.13l-7.223 2.491v-15.339l-37.858 11.461v13.094l-8.468 2.74V145.24c0-3.45 2.635-6.321 6.227-7.283z" stroke="#00408b" stroke-width="3.4"/></g></g></svg>