<?xml version="1.0" encoding="UTF-8" standalone="no"?>
<!-- Created with Inkscape (http://www.inkscape.org/) -->

<svg
   xmlns:dc="http://purl.org/dc/elements/1.1/"
   xmlns:cc="http://creativecommons.org/ns#"
   xmlns:rdf="http://www.w3.org/1999/02/22-rdf-syntax-ns#"
   xmlns:svg="http://www.w3.org/2000/svg"
   xmlns="http://www.w3.org/2000/svg"
   xmlns:sodipodi="http://sodipodi.sourceforge.net/DTD/sodipodi-0.dtd"
   xmlns:inkscape="http://www.inkscape.org/namespaces/inkscape"
   width="200"
   height="200"
   id="svg5948"
   version="1.1"
   inkscape:version="0.48.5 r10040"
   sodipodi:docname="Nuovo documento 29">
  <defs
     id="defs5950" />
  <sodipodi:namedview
     id="base"
     pagecolor="#ffffff"
     bordercolor="#666666"
     borderopacity="1.0"
     inkscape:pageopacity="0.0"
     inkscape:pageshadow="2"
     inkscape:zoom="0.35"
     inkscape:cx="592.14285"
     inkscape:cy="0"
     inkscape:document-units="px"
     inkscape:current-layer="layer1"
     showgrid="false"
     fit-margin-top="0"
     fit-margin-left="0"
     fit-margin-right="0"
     fit-margin-bottom="0"
     inkscape:window-width="1366"
     inkscape:window-height="705"
     inkscape:window-x="-8"
     inkscape:window-y="-8"
     inkscape:window-maximized="1" />
  <metadata
     id="metadata5953">
    <rdf:RDF>
      <cc:Work
         rdf:about="">
        <dc:format>image/svg+xml</dc:format>
        <dc:type
           rdf:resource="http://purl.org/dc/dcmitype/StillImage" />
        <dc:title></dc:title>
      </cc:Work>
    </rdf:RDF>
  </metadata>
  <g
     inkscape:label="Livello 1"
     inkscape:groupmode="layer"
     id="layer1"
     transform="translate(217.14285,-332.36218)">
    <rect
       style="fill:#ffffff;fill-opacity:1;stroke:none"
       id="rect2881"
       width="200"
       height="200"
       x="-217.14285"
       y="332.36218"
       rx="0"
       ry="0" />
    <g
       id="g30427"
       transform="matrix(3.7228347,0,0,3.7228347,-3392.1165,-3783.0645)">
      <path
         d="m 879.2571,1128.0226 c -1.32767,0 -2.27011,0.7273 -3.43864,2.3221 l -6.78753,8.6634 -6.6538,-2.6792 c 0,0 -2.06488,-0.6576 -2.94541,1.5023 -0.88053,2.16 1.09531,3.1461 1.09531,3.1461 l 9.48982,3.9531 c 1.04696,0.6563 1.87532,0.5645 2.58437,-0.3679 l 3.33637,-4.5475 v 6.5848 l 12.67628,-18.5776 z m 12.25557,0 -13.25437,19.4245 h 11.89454 v 2.0094 h -14.21525 v 3.8726 h 18.18971 v -22.5828 c 0,-1.9056 -0.544,-2.6959 -2.6148,-2.7227 z"
         style="fill-rule:evenodd;stroke-width:2.64159012"
         id="path728-3"
         inkscape:connector-curvature="0" />
      <path
         d="m 889.86588,1120.1964 -10.68774,1.3921 a 5.3922172,5.3922172 0 0 0 5.35778,4.817 5.3922172,5.3922172 0 0 0 5.39239,-5.3924 5.3922172,5.3922172 0 0 0 -0.0626,-0.8167 z"
         style="fill-rule:evenodd;stroke-width:5.85257006"
         id="path730-5"
         inkscape:connector-curvature="0" />
      <path
         d="m 877.17012,1111.6746 12.43419,4.0204 c 0.21374,0.068 0.248,0.1026 0.248,0.3998 v 1.2656 H 879.4251 z"
         style="fill-rule:evenodd;stroke-width:2.64159012"
         id="path732-7"
         inkscape:connector-curvature="0" />
      <path
         d="m 879.43101,1118.2834 h 10.42721 v 0.6699 l -13.17349,1.5852 z"
         style="fill-rule:evenodd;stroke-width:2.64159012"
         id="path734-1"
         inkscape:connector-curvature="0" />
    </g>
    <rect
       style="fill:none;stroke:#000000;stroke-width:3;stroke-miterlimit:4;stroke-opacity:1;stroke-dasharray:none"
       id="rect5859"
       width="194"
       height="194"
       x="-214.14291"
       y="335.36218"
       ry="10.500105"
       rx="10.500105" />
  </g>
</svg>
