<?xml version="1.0" encoding="UTF-8" standalone="no"?>
<!-- Created with Inkscape (http://www.inkscape.org/) -->

<svg
   xmlns:dc="http://purl.org/dc/elements/1.1/"
   xmlns:cc="http://creativecommons.org/ns#"
   xmlns:rdf="http://www.w3.org/1999/02/22-rdf-syntax-ns#"
   xmlns:svg="http://www.w3.org/2000/svg"
   xmlns="http://www.w3.org/2000/svg"
   xmlns:sodipodi="http://sodipodi.sourceforge.net/DTD/sodipodi-0.dtd"
   xmlns:inkscape="http://www.inkscape.org/namespaces/inkscape"
   width="1881"
   height="2706.6348"
   id="svg6998"
   version="1.1"
   inkscape:version="0.48.5 r10040"
   sodipodi:docname="Nuovo documento 2">
  <defs
     id="defs7000" />
  <sodipodi:namedview
     id="base"
     pagecolor="#ffffff"
     bordercolor="#666666"
     borderopacity="1.0"
     inkscape:pageopacity="0.0"
     inkscape:pageshadow="2"
     inkscape:zoom="0.0875"
     inkscape:cx="-695.03157"
     inkscape:cy="786.74786"
     inkscape:document-units="px"
     inkscape:current-layer="layer1"
     showgrid="false"
     fit-margin-top="0"
     fit-margin-left="0"
     fit-margin-right="0"
     fit-margin-bottom="0"
     inkscape:window-width="1366"
     inkscape:window-height="705"
     inkscape:window-x="-8"
     inkscape:window-y="-8"
     inkscape:window-maximized="1" />
  <metadata
     id="metadata7003">
    <rdf:RDF>
      <cc:Work
         rdf:about="">
        <dc:format>image/svg+xml</dc:format>
        <dc:type
           rdf:resource="http://purl.org/dc/dcmitype/StillImage" />
        <dc:title></dc:title>
      </cc:Work>
    </rdf:RDF>
  </metadata>
  <g
     inkscape:label="Livello 1"
     inkscape:groupmode="layer"
     id="layer1"
     transform="translate(0,1654.2599)">
    <rect
       style="fill:#ffffff;fill-opacity:1;stroke:#000000;stroke-width:10;stroke-miterlimit:4;stroke-opacity:1;stroke-dasharray:none;stroke-dashoffset:0"
       id="rect8407"
       width="70"
       height="2490"
       x="1375.5"
       y="-1442.6378" />
    <rect
       y="-1442.6378"
       x="435.5"
       height="2490"
       width="70"
       id="rect5492"
       style="fill:#ffffff;fill-opacity:1;stroke:#000000;stroke-width:10;stroke-miterlimit:4;stroke-opacity:1;stroke-dasharray:none;stroke-dashoffset:0" />
    <path
       sodipodi:nodetypes="cccccccccc"
       inkscape:connector-curvature="0"
       id="path7707"
       d="m 380.5,845.73208 0,-399.992 1120.0789,0 c 23.4037,0 44.883,5.10495 69.0791,18.34782 l 300.3949,164.04435 c 6.8933,3.94996 10.4471,10.23589 10.4471,17.45282 0,7.37393 -3.406,13.51187 -10.1461,17.58582 L 1568.47,828.14628 c -20.5795,11.2789 -43.942,17.5938 -67.9538,17.5938 z"
       style="fill:#08842c;fill-opacity:1;stroke:none" />
    <path
       sodipodi:nodetypes="cccccccccccc"
       inkscape:connector-curvature="0"
       id="path7709"
       d="m 470.5569,835.73908 c -44.1852,0 -80.0738,-35.7 -80.0737,-80.06402 l -1e-4,-220.013 c 0,-45.259 36.9616,-79.933 80.0682,-79.933 l 1029.9176,0 c 23.9261,0 43.4222,5.576 63.9062,16.883 l 301.0002,164.375 c 3.2602,1.863 4.8197,4.938 5.0874,8.153 0.196,3.995 -1.8549,7.408 -5.1267,9.303 l -302.6484,165.35702 c -18.396,9.995 -39.3411,15.994 -62.2629,15.994 z"
       style="fill:#ffffff;fill-opacity:1;stroke:none" />
    <path
       sodipodi:nodetypes="cccccsccc"
       inkscape:connector-curvature="0"
       id="path7711"
       d="m 1581.8438,504.44606 c -35.8852,-35.885 -81.2866,-33.709 -81.2866,-33.709 l -1029.9945,0 c -35.117,0 -65.0625,28.235 -65.0625,64.934 l -1e-4,220.004 c 1e-4,35.963 28.8688,65.06002 65.0568,65.06002 l 1030.0092,0 c 0,0 44.0854,3.48 81.2998,-33.73402 l 141.2681,-141.268 z"
       style="fill:#08842c;fill-opacity:1;stroke:none" />
    <path
       sodipodi:nodetypes="cccccccccc"
       inkscape:connector-curvature="0"
       id="path7057"
       d="m 1500.5,-4.2679369 0,-399.9920031 -1120.0789,0 c -23.4037,0 -44.883,5.1049 -69.0791,18.3478 L 10.9471,-221.86777 C 4.0538,-217.91781 0.5,-211.63188 0.5,-204.41495 c 0,7.37393 3.406,13.51187 10.1461,17.58582 L 312.53,-21.853737 c 20.5795,11.2789 43.942,17.5938001 67.9538,17.5938001 z"
       style="fill:#00408b;fill-opacity:1;stroke:none" />
    <path
       sodipodi:nodetypes="cccccccccccc"
       inkscape:connector-curvature="0"
       id="path7059"
       d="m 1410.4431,-14.260937 c 44.1852,0 80.0738,-35.7 80.0737,-80.06402 l 10e-5,-220.013003 c 0,-45.259 -36.9616,-79.93298 -80.0682,-79.93298 l -1029.9176,0 c -23.9261,0 -43.4222,5.576 -63.9062,16.883 L 15.6247,-213.01296 c -3.2602,1.863 -4.8197,4.938 -5.0874,8.153 -0.196,3.995 1.8549,7.408 5.1267,9.303 l 302.6484,165.357023 c 18.396,9.995 39.3411,15.994 62.2629,15.994 z"
       style="fill:#ffffff;fill-opacity:1;stroke:none" />
    <path
       sodipodi:nodetypes="cccccsccc"
       inkscape:connector-curvature="0"
       id="path7061"
       d="m 299.1562,-345.55396 c 35.8852,-35.88498 81.2866,-33.70898 81.2866,-33.70898 l 1029.9945,0 c 35.117,0 65.0625,28.23498 65.0625,64.93398 l 10e-5,220.004003 c -10e-5,35.963 -28.8688,65.06002 -65.0568,65.06002 l -1030.0092,0 c 0,0 -44.0854,3.48 -81.2998,-33.73402 L 157.866,-204.26696 z"
       style="fill:#00408b;fill-opacity:1;stroke:none" />
    <path
       style="fill:#08842c;fill-opacity:1;stroke:none"
       d="m 1500.5,-404.26794 0,-399.992 -1120.0789,0 c -23.4037,0 -44.883,5.1049 -69.0791,18.3478 l -300.3949,164.0444 c -6.8933,3.9499 -10.4471,10.2359 -10.4471,17.4528 0,7.3739 3.406,13.5119 10.1461,17.5858 l 301.8839,164.9754 c 20.5795,11.2789 43.942,17.5938 67.9538,17.5938 z"
       id="path7063"
       inkscape:connector-curvature="0"
       sodipodi:nodetypes="cccccccccc" />
    <path
       style="fill:#ffffff;fill-opacity:1;stroke:none"
       d="m 1410.4431,-414.26094 c 44.1852,0 80.0738,-35.7 80.0737,-80.064 l 10e-5,-220.013 c 0,-45.259 -36.9616,-79.933 -80.0682,-79.933 l -1029.9176,0 c -23.9261,0 -43.4222,5.576 -63.9062,16.883 l -301.0002,164.375 c -3.2602,1.863 -4.8197,4.938 -5.0874,8.153 -0.196,3.995 1.8549,7.408 5.1267,9.303 l 302.6484,165.357 c 18.396,9.995 39.3411,15.994 62.2629,15.994 z"
       id="path7065"
       inkscape:connector-curvature="0"
       sodipodi:nodetypes="cccccccccccc" />
    <path
       style="fill:#08842c;fill-opacity:1;stroke:none"
       d="m 299.1562,-745.55394 c 35.8852,-35.885 81.2866,-33.709 81.2866,-33.709 l 1029.9945,0 c 35.117,0 65.0625,28.235 65.0625,64.934 l 10e-5,220.004 c -10e-5,35.963 -28.8688,65.06 -65.0568,65.06 l -1030.0092,0 c 0,0 -44.0854,3.48 -81.2998,-33.734 l -141.2681,-141.268 z"
       id="path7067"
       inkscape:connector-curvature="0"
       sodipodi:nodetypes="cccccsccc" />
    <path
       style="fill:#ffffff;fill-opacity:1;stroke:#000000;stroke-opacity:1"
       d="m 380.5,445.73206 0,-399.991997 1120.0789,0 c 23.4037,0 44.883,5.10495 69.0791,18.34782 l 300.3949,164.044347 c 6.8933,3.94996 10.4471,10.23589 10.4471,17.45282 0,7.37393 -3.406,13.51187 -10.1461,17.58582 L 1568.47,428.14626 c -20.5795,11.2789 -43.942,17.5938 -67.9538,17.5938 z"
       id="path7051"
       inkscape:connector-curvature="0"
       sodipodi:nodetypes="cccccccccc" />
    <path
       style="fill:#000000;fill-opacity:1;stroke:none"
       d="m 470.5569,435.73906 c -44.1852,0 -80.0738,-35.7 -80.0737,-80.06402 l -1e-4,-220.013 c 0,-45.258997 36.9616,-79.932997 80.0682,-79.932997 l 1029.9176,0 c 23.9261,0 43.4222,5.576 63.9062,16.883 l 301.0002,164.374997 c 3.2602,1.863 4.8197,4.938 5.0874,8.153 0.196,3.995 -1.8549,7.408 -5.1267,9.303 l -302.6484,165.35702 c -18.396,9.995 -39.3411,15.994 -62.2629,15.994 z"
       id="path7053"
       inkscape:connector-curvature="0"
       sodipodi:nodetypes="cccccccccccc" />
    <path
       style="fill:#ffffff;fill-opacity:1;stroke:none"
       d="m 1581.8438,104.44604 c -35.8852,-35.884997 -81.2866,-33.708997 -81.2866,-33.708997 l -1029.9945,0 c -35.117,0 -65.0625,28.235 -65.0625,64.933997 l -1e-4,220.004 c 1e-4,35.963 28.8688,65.06002 65.0568,65.06002 l 1030.0092,0 c 0,0 44.0854,3.48 81.2998,-33.73402 l 141.2681,-141.268 z"
       id="path7055"
       inkscape:connector-curvature="0"
       sodipodi:nodetypes="cccccsccc" />
    <rect
       style="fill:#08842c;fill-opacity:1;stroke:none"
       id="rect8409"
       width="1150"
       height="400"
       x="350.5"
       y="-1654.2599" />
    <rect
       style="fill:#08842c;fill-opacity:1;stroke:#ffffff;stroke-width:11.625;stroke-miterlimit:4;stroke-opacity:1;stroke-dasharray:none"
       id="rect8411"
       width="1126.75"
       height="376.75"
       x="362.125"
       y="-1642.6349"
       rx="40.535713"
       ry="40.535713" />
    <path
       inkscape:connector-curvature="0"
       d="m 489.7114,-1329.431 -39.0413,0.1712 v -133.7324 l -46.0611,8.0481 c -1.1993,-0.1713 -2.3974,-0.5133 -3.0822,-1.1994 -0.8556,-0.6844 -1.0268,-2.3974 -1.0268,-3.5959 l 69.6914,-119.5204 69.863,119.6917 c 0,1.1993 -0.3424,2.911 -0.6843,3.4246 -0.8557,0.6843 -1.7125,1.0281 -2.911,0.8556 l -46.7464,-8.3906 z"
       style="fill:#ffffff;fill-opacity:1;fill-rule:evenodd;stroke-width:0.15289199"
       id="path7285-1" />
    <path
       sodipodi:nodetypes="cccccccccc"
       inkscape:connector-curvature="0"
       id="path7069"
       d="m 1500.5,-804.26794 0,-399.99196 -1120.0789,0 c -23.4037,0 -44.883,5.1049 -69.0791,18.3478 l -300.3949,164.0444 c -6.8933,3.9499 -10.4471,10.2359 -10.4471,17.4528 0,7.37386 3.406,13.51186 10.1461,17.58576 l 301.8839,164.9754 c 20.5795,11.2789 43.942,17.5938 67.9538,17.5938 z"
       style="fill:#ffffff;fill-opacity:1;stroke:#000000;stroke-opacity:1" />
    <path
       sodipodi:nodetypes="cccccccccccc"
       inkscape:connector-curvature="0"
       id="path7071"
       d="m 1410.4431,-814.26094 c 44.1852,0 80.0738,-35.7 80.0737,-80.064 l 10e-5,-220.01296 c 0,-45.259 -36.9616,-79.933 -80.0682,-79.933 l -1029.9176,0 c -23.9261,0 -43.4222,5.576 -63.9062,16.883 l -301.0002,164.375 c -3.2602,1.863 -4.8197,4.938 -5.0874,8.153 -0.196,3.995 1.8549,7.40796 5.1267,9.30296 l 302.6484,165.357 c 18.396,9.995 39.3411,15.994 62.2629,15.994 z"
       style="fill:#000000;fill-opacity:1;stroke:none" />
    <path
       sodipodi:nodetypes="cccccsccc"
       inkscape:connector-curvature="0"
       id="path7073"
       d="m 299.1562,-1145.5539 c 35.8852,-35.885 81.2866,-33.709 81.2866,-33.709 l 1029.9945,0 c 35.117,0 65.0625,28.235 65.0625,64.934 l 10e-5,220.00396 c -10e-5,35.963 -28.8688,65.06 -65.0568,65.06 l -1030.0092,0 c 0,0 -44.0854,3.48 -81.2998,-33.734 L 157.866,-1004.2669 z"
       style="fill:#ffffff;fill-opacity:1;stroke:none" />
    <path
       inkscape:connector-curvature="0"
       style="fill:#000000;fill-opacity:1"
       id="path4612-0"
       d="m 392.54306,-952.82777 -20.5243,-38.68829 -16.9678,-0.81154 c -27.0249,-1.29105 -45.5876,-5.4488 -48.4994,-10.8604 -0.9035,-1.6798 -0.4608,-2.4246 2.5268,-4.2598 7.8361,-4.8097 22.4212,-7.4807 46.8797,-8.5853 l 16.0607,-0.7262 20.5243,-38.6894 20.5135,-38.6897 8.5559,0 c 4.7045,0 8.5668,0.2563 8.5668,0.5684 0,0.3117 -4.2186,14.7274 -9.3874,32.0345 -7.433,24.9559 -9.373,32.9021 -9.373,38.3962 l 0,6.928 13.5807,0 c 13.5053,0 40.577,2.1629 60.025,4.7954 l 10.1648,1.3767 10.1613,-12.4153 10.147,-12.4152 5.3128,0 c 2.9264,0 5.3237,0.3191 5.3237,0.709 0,0.3888 -3.2432,6.3332 -7.2061,13.2069 -3.9739,6.874 -6.9471,12.928 -6.6303,13.4517 0.3312,0.5242 3.5742,1.2972 7.2205,1.7185 3.632,0.4202 6.6159,1.1603 6.6159,1.6459 0,0.4856 -2.9839,1.2261 -6.6159,1.6474 -3.6463,0.4198 -6.8893,1.1932 -7.2205,1.717 -0.3168,0.5241 2.6564,6.57803 6.6303,13.45173 3.9629,6.87405 7.2061,12.81838 7.2061,13.20683 0,0.39025 -2.3973,0.70908 -5.3237,0.70908 l -5.3128,0 -10.334,-12.63165 c -7.0335,-8.60247 -10.8813,-12.46489 -12.0439,-12.11039 -5.0213,1.5149 -44.0793,5.15958 -61.5619,5.74619 l -20.139,0.6748 0,6.76016 c 0,5.28202 2.0516,13.63385 9.373,38.22664 5.1688,17.30742 9.3874,31.72462 9.3874,32.03631 0,0.31169 -3.8478,0.56518 -8.556,0.56518 l -8.5524,0 -20.5278,-38.68791 0,0 0,0 z" />
  </g>
</svg>
