<?xml version="1.0" encoding="UTF-8" standalone="no"?>
<!-- Created with Inkscape (http://www.inkscape.org/) -->

<svg
   xmlns:dc="http://purl.org/dc/elements/1.1/"
   xmlns:cc="http://creativecommons.org/ns#"
   xmlns:rdf="http://www.w3.org/1999/02/22-rdf-syntax-ns#"
   xmlns:svg="http://www.w3.org/2000/svg"
   xmlns="http://www.w3.org/2000/svg"
   xmlns:sodipodi="http://sodipodi.sourceforge.net/DTD/sodipodi-0.dtd"
   xmlns:inkscape="http://www.inkscape.org/namespaces/inkscape"
   version="1.1"
   width="200"
   height="200"
   id="svg2"
   inkscape:version="0.47 r22583"
   sodipodi:docname="Italian traffic signs - icona cinema.svg"
   sodipodi:version="0.32"
   inkscape:output_extension="org.inkscape.output.svg.inkscape">
  <metadata
     id="metadata2877">
    <rdf:RDF>
      <cc:Work
         rdf:about="">
        <dc:format>image/svg+xml</dc:format>
        <dc:type
           rdf:resource="http://purl.org/dc/dcmitype/StillImage" />
        <dc:title></dc:title>
      </cc:Work>
    </rdf:RDF>
  </metadata>
  <sodipodi:namedview
     pagecolor="#ffffff"
     bordercolor="#666666"
     borderopacity="1"
     objecttolerance="10"
     gridtolerance="10"
     guidetolerance="10"
     inkscape:pageopacity="0"
     inkscape:pageshadow="2"
     inkscape:window-width="1600"
     inkscape:window-height="838"
     id="namedview2875"
     showgrid="false"
     inkscape:zoom="3.3608915"
     inkscape:cx="88.830311"
     inkscape:cy="125.10026"
     inkscape:window-x="-8"
     inkscape:window-y="-8"
     inkscape:window-maximized="1"
     inkscape:current-layer="svg2" />
  <defs
     id="defs4">
    <inkscape:perspective
       sodipodi:type="inkscape:persp3d"
       inkscape:vp_x="0 : 100 : 1"
       inkscape:vp_y="0 : 1000 : 0"
       inkscape:vp_z="200 : 100 : 1"
       inkscape:persp3d-origin="100 : 66.666667 : 1"
       id="perspective2879" />
    <inkscape:perspective
       id="perspective2839"
       inkscape:persp3d-origin="0.5 : 0.33333333 : 1"
       inkscape:vp_z="1 : 0.5 : 1"
       inkscape:vp_y="0 : 1000 : 0"
       inkscape:vp_x="0 : 0.5 : 1"
       sodipodi:type="inkscape:persp3d" />
    <inkscape:perspective
       id="perspective3649"
       inkscape:persp3d-origin="0.5 : 0.33333333 : 1"
       inkscape:vp_z="1 : 0.5 : 1"
       inkscape:vp_y="0 : 1000 : 0"
       inkscape:vp_x="0 : 0.5 : 1"
       sodipodi:type="inkscape:persp3d" />
    <inkscape:perspective
       id="perspective3679"
       inkscape:persp3d-origin="0.5 : 0.33333333 : 1"
       inkscape:vp_z="1 : 0.5 : 1"
       inkscape:vp_y="0 : 1000 : 0"
       inkscape:vp_x="0 : 0.5 : 1"
       sodipodi:type="inkscape:persp3d" />
    <inkscape:perspective
       id="perspective3713"
       inkscape:persp3d-origin="0.5 : 0.33333333 : 1"
       inkscape:vp_z="1 : 0.5 : 1"
       inkscape:vp_y="0 : 1000 : 0"
       inkscape:vp_x="0 : 0.5 : 1"
       sodipodi:type="inkscape:persp3d" />
    <inkscape:perspective
       id="perspective3741"
       inkscape:persp3d-origin="0.5 : 0.33333333 : 1"
       inkscape:vp_z="1 : 0.5 : 1"
       inkscape:vp_y="0 : 1000 : 0"
       inkscape:vp_x="0 : 0.5 : 1"
       sodipodi:type="inkscape:persp3d" />
    <inkscape:perspective
       id="perspective3765"
       inkscape:persp3d-origin="0.5 : 0.33333333 : 1"
       inkscape:vp_z="1 : 0.5 : 1"
       inkscape:vp_y="0 : 1000 : 0"
       inkscape:vp_x="0 : 0.5 : 1"
       sodipodi:type="inkscape:persp3d" />
    <inkscape:perspective
       id="perspective3801"
       inkscape:persp3d-origin="0.5 : 0.33333333 : 1"
       inkscape:vp_z="1 : 0.5 : 1"
       inkscape:vp_y="0 : 1000 : 0"
       inkscape:vp_x="0 : 0.5 : 1"
       sodipodi:type="inkscape:persp3d" />
    <inkscape:perspective
       id="perspective2863"
       inkscape:persp3d-origin="0.5 : 0.33333333 : 1"
       inkscape:vp_z="1 : 0.5 : 1"
       inkscape:vp_y="0 : 1000 : 0"
       inkscape:vp_x="0 : 0.5 : 1"
       sodipodi:type="inkscape:persp3d" />
    <inkscape:perspective
       id="perspective3859"
       inkscape:persp3d-origin="0.5 : 0.33333333 : 1"
       inkscape:vp_z="1 : 0.5 : 1"
       inkscape:vp_y="0 : 1000 : 0"
       inkscape:vp_x="0 : 0.5 : 1"
       sodipodi:type="inkscape:persp3d" />
    <inkscape:perspective
       id="perspective3964"
       inkscape:persp3d-origin="0.5 : 0.33333333 : 1"
       inkscape:vp_z="1 : 0.5 : 1"
       inkscape:vp_y="0 : 1000 : 0"
       inkscape:vp_x="0 : 0.5 : 1"
       sodipodi:type="inkscape:persp3d" />
    <inkscape:perspective
       id="perspective3988"
       inkscape:persp3d-origin="0.5 : 0.33333333 : 1"
       inkscape:vp_z="1 : 0.5 : 1"
       inkscape:vp_y="0 : 1000 : 0"
       inkscape:vp_x="0 : 0.5 : 1"
       sodipodi:type="inkscape:persp3d" />
    <inkscape:perspective
       id="perspective2879-7"
       inkscape:persp3d-origin="0.5 : 0.33333333 : 1"
       inkscape:vp_z="1 : 0.5 : 1"
       inkscape:vp_y="0 : 1000 : 0"
       inkscape:vp_x="0 : 0.5 : 1"
       sodipodi:type="inkscape:persp3d" />
    <inkscape:perspective
       id="perspective4031"
       inkscape:persp3d-origin="0.5 : 0.33333333 : 1"
       inkscape:vp_z="1 : 0.5 : 1"
       inkscape:vp_y="0 : 1000 : 0"
       inkscape:vp_x="0 : 0.5 : 1"
       sodipodi:type="inkscape:persp3d" />
    <inkscape:perspective
       id="perspective4047"
       inkscape:persp3d-origin="0.5 : 0.33333333 : 1"
       inkscape:vp_z="1 : 0.5 : 1"
       inkscape:vp_y="0 : 1000 : 0"
       inkscape:vp_x="0 : 0.5 : 1"
       sodipodi:type="inkscape:persp3d" />
    <inkscape:perspective
       id="perspective4063"
       inkscape:persp3d-origin="0.5 : 0.33333333 : 1"
       inkscape:vp_z="1 : 0.5 : 1"
       inkscape:vp_y="0 : 1000 : 0"
       inkscape:vp_x="0 : 0.5 : 1"
       sodipodi:type="inkscape:persp3d" />
    <inkscape:perspective
       id="perspective4079"
       inkscape:persp3d-origin="0.5 : 0.33333333 : 1"
       inkscape:vp_z="1 : 0.5 : 1"
       inkscape:vp_y="0 : 1000 : 0"
       inkscape:vp_x="0 : 0.5 : 1"
       sodipodi:type="inkscape:persp3d" />
    <inkscape:perspective
       id="perspective4097"
       inkscape:persp3d-origin="0.5 : 0.33333333 : 1"
       inkscape:vp_z="1 : 0.5 : 1"
       inkscape:vp_y="0 : 1000 : 0"
       inkscape:vp_x="0 : 0.5 : 1"
       sodipodi:type="inkscape:persp3d" />
    <inkscape:perspective
       id="perspective4115"
       inkscape:persp3d-origin="0.5 : 0.33333333 : 1"
       inkscape:vp_z="1 : 0.5 : 1"
       inkscape:vp_y="0 : 1000 : 0"
       inkscape:vp_x="0 : 0.5 : 1"
       sodipodi:type="inkscape:persp3d" />
    <inkscape:perspective
       id="perspective4129"
       inkscape:persp3d-origin="0.5 : 0.33333333 : 1"
       inkscape:vp_z="1 : 0.5 : 1"
       inkscape:vp_y="0 : 1000 : 0"
       inkscape:vp_x="0 : 0.5 : 1"
       sodipodi:type="inkscape:persp3d" />
    <inkscape:perspective
       id="perspective4153"
       inkscape:persp3d-origin="0.5 : 0.33333333 : 1"
       inkscape:vp_z="1 : 0.5 : 1"
       inkscape:vp_y="0 : 1000 : 0"
       inkscape:vp_x="0 : 0.5 : 1"
       sodipodi:type="inkscape:persp3d" />
    <inkscape:perspective
       id="perspective4179"
       inkscape:persp3d-origin="0.5 : 0.33333333 : 1"
       inkscape:vp_z="1 : 0.5 : 1"
       inkscape:vp_y="0 : 1000 : 0"
       inkscape:vp_x="0 : 0.5 : 1"
       sodipodi:type="inkscape:persp3d" />
    <inkscape:perspective
       id="perspective4195"
       inkscape:persp3d-origin="0.5 : 0.33333333 : 1"
       inkscape:vp_z="1 : 0.5 : 1"
       inkscape:vp_y="0 : 1000 : 0"
       inkscape:vp_x="0 : 0.5 : 1"
       sodipodi:type="inkscape:persp3d" />
    <inkscape:perspective
       id="perspective4213"
       inkscape:persp3d-origin="0.5 : 0.33333333 : 1"
       inkscape:vp_z="1 : 0.5 : 1"
       inkscape:vp_y="0 : 1000 : 0"
       inkscape:vp_x="0 : 0.5 : 1"
       sodipodi:type="inkscape:persp3d" />
    <inkscape:perspective
       id="perspective4267"
       inkscape:persp3d-origin="0.5 : 0.33333333 : 1"
       inkscape:vp_z="1 : 0.5 : 1"
       inkscape:vp_y="0 : 1000 : 0"
       inkscape:vp_x="0 : 0.5 : 1"
       sodipodi:type="inkscape:persp3d" />
    <inkscape:perspective
       id="perspective4283"
       inkscape:persp3d-origin="0.5 : 0.33333333 : 1"
       inkscape:vp_z="1 : 0.5 : 1"
       inkscape:vp_y="0 : 1000 : 0"
       inkscape:vp_x="0 : 0.5 : 1"
       sodipodi:type="inkscape:persp3d" />
    <inkscape:perspective
       id="perspective4314"
       inkscape:persp3d-origin="0.5 : 0.33333333 : 1"
       inkscape:vp_z="1 : 0.5 : 1"
       inkscape:vp_y="0 : 1000 : 0"
       inkscape:vp_x="0 : 0.5 : 1"
       sodipodi:type="inkscape:persp3d" />
    <inkscape:perspective
       id="perspective4330"
       inkscape:persp3d-origin="0.5 : 0.33333333 : 1"
       inkscape:vp_z="1 : 0.5 : 1"
       inkscape:vp_y="0 : 1000 : 0"
       inkscape:vp_x="0 : 0.5 : 1"
       sodipodi:type="inkscape:persp3d" />
    <inkscape:perspective
       id="perspective4346"
       inkscape:persp3d-origin="0.5 : 0.33333333 : 1"
       inkscape:vp_z="1 : 0.5 : 1"
       inkscape:vp_y="0 : 1000 : 0"
       inkscape:vp_x="0 : 0.5 : 1"
       sodipodi:type="inkscape:persp3d" />
    <inkscape:perspective
       id="perspective3742"
       inkscape:persp3d-origin="0.5 : 0.33333333 : 1"
       inkscape:vp_z="1 : 0.5 : 1"
       inkscape:vp_y="0 : 1000 : 0"
       inkscape:vp_x="0 : 0.5 : 1"
       sodipodi:type="inkscape:persp3d" />
    <inkscape:perspective
       id="perspective3776"
       inkscape:persp3d-origin="0.5 : 0.33333333 : 1"
       inkscape:vp_z="1 : 0.5 : 1"
       inkscape:vp_y="0 : 1000 : 0"
       inkscape:vp_x="0 : 0.5 : 1"
       sodipodi:type="inkscape:persp3d" />
    <inkscape:perspective
       id="perspective3792"
       inkscape:persp3d-origin="0.5 : 0.33333333 : 1"
       inkscape:vp_z="1 : 0.5 : 1"
       inkscape:vp_y="0 : 1000 : 0"
       inkscape:vp_x="0 : 0.5 : 1"
       sodipodi:type="inkscape:persp3d" />
    <inkscape:perspective
       id="perspective3808"
       inkscape:persp3d-origin="0.5 : 0.33333333 : 1"
       inkscape:vp_z="1 : 0.5 : 1"
       inkscape:vp_y="0 : 1000 : 0"
       inkscape:vp_x="0 : 0.5 : 1"
       sodipodi:type="inkscape:persp3d" />
    <inkscape:perspective
       id="perspective3824"
       inkscape:persp3d-origin="0.5 : 0.33333333 : 1"
       inkscape:vp_z="1 : 0.5 : 1"
       inkscape:vp_y="0 : 1000 : 0"
       inkscape:vp_x="0 : 0.5 : 1"
       sodipodi:type="inkscape:persp3d" />
    <inkscape:perspective
       id="perspective4354"
       inkscape:persp3d-origin="0.5 : 0.33333333 : 1"
       inkscape:vp_z="1 : 0.5 : 1"
       inkscape:vp_y="0 : 1000 : 0"
       inkscape:vp_x="0 : 0.5 : 1"
       sodipodi:type="inkscape:persp3d" />
    <inkscape:perspective
       id="perspective4395"
       inkscape:persp3d-origin="0.5 : 0.33333333 : 1"
       inkscape:vp_z="1 : 0.5 : 1"
       inkscape:vp_y="0 : 1000 : 0"
       inkscape:vp_x="0 : 0.5 : 1"
       sodipodi:type="inkscape:persp3d" />
    <inkscape:perspective
       id="perspective4435"
       inkscape:persp3d-origin="0.5 : 0.33333333 : 1"
       inkscape:vp_z="1 : 0.5 : 1"
       inkscape:vp_y="0 : 1000 : 0"
       inkscape:vp_x="0 : 0.5 : 1"
       sodipodi:type="inkscape:persp3d" />
    <inkscape:perspective
       id="perspective4460"
       inkscape:persp3d-origin="0.5 : 0.33333333 : 1"
       inkscape:vp_z="1 : 0.5 : 1"
       inkscape:vp_y="0 : 1000 : 0"
       inkscape:vp_x="0 : 0.5 : 1"
       sodipodi:type="inkscape:persp3d" />
    <inkscape:perspective
       id="perspective4479"
       inkscape:persp3d-origin="0.5 : 0.33333333 : 1"
       inkscape:vp_z="1 : 0.5 : 1"
       inkscape:vp_y="0 : 1000 : 0"
       inkscape:vp_x="0 : 0.5 : 1"
       sodipodi:type="inkscape:persp3d" />
    <inkscape:perspective
       id="perspective4495"
       inkscape:persp3d-origin="0.5 : 0.33333333 : 1"
       inkscape:vp_z="1 : 0.5 : 1"
       inkscape:vp_y="0 : 1000 : 0"
       inkscape:vp_x="0 : 0.5 : 1"
       sodipodi:type="inkscape:persp3d" />
    <inkscape:perspective
       id="perspective4511"
       inkscape:persp3d-origin="0.5 : 0.33333333 : 1"
       inkscape:vp_z="1 : 0.5 : 1"
       inkscape:vp_y="0 : 1000 : 0"
       inkscape:vp_x="0 : 0.5 : 1"
       sodipodi:type="inkscape:persp3d" />
    <inkscape:perspective
       id="perspective4527"
       inkscape:persp3d-origin="0.5 : 0.33333333 : 1"
       inkscape:vp_z="1 : 0.5 : 1"
       inkscape:vp_y="0 : 1000 : 0"
       inkscape:vp_x="0 : 0.5 : 1"
       sodipodi:type="inkscape:persp3d" />
    <inkscape:perspective
       id="perspective4543"
       inkscape:persp3d-origin="0.5 : 0.33333333 : 1"
       inkscape:vp_z="1 : 0.5 : 1"
       inkscape:vp_y="0 : 1000 : 0"
       inkscape:vp_x="0 : 0.5 : 1"
       sodipodi:type="inkscape:persp3d" />
    <inkscape:perspective
       id="perspective4559"
       inkscape:persp3d-origin="0.5 : 0.33333333 : 1"
       inkscape:vp_z="1 : 0.5 : 1"
       inkscape:vp_y="0 : 1000 : 0"
       inkscape:vp_x="0 : 0.5 : 1"
       sodipodi:type="inkscape:persp3d" />
    <inkscape:perspective
       id="perspective4575"
       inkscape:persp3d-origin="0.5 : 0.33333333 : 1"
       inkscape:vp_z="1 : 0.5 : 1"
       inkscape:vp_y="0 : 1000 : 0"
       inkscape:vp_x="0 : 0.5 : 1"
       sodipodi:type="inkscape:persp3d" />
    <inkscape:perspective
       id="perspective4591"
       inkscape:persp3d-origin="0.5 : 0.33333333 : 1"
       inkscape:vp_z="1 : 0.5 : 1"
       inkscape:vp_y="0 : 1000 : 0"
       inkscape:vp_x="0 : 0.5 : 1"
       sodipodi:type="inkscape:persp3d" />
    <inkscape:perspective
       id="perspective4607"
       inkscape:persp3d-origin="0.5 : 0.33333333 : 1"
       inkscape:vp_z="1 : 0.5 : 1"
       inkscape:vp_y="0 : 1000 : 0"
       inkscape:vp_x="0 : 0.5 : 1"
       sodipodi:type="inkscape:persp3d" />
    <inkscape:perspective
       id="perspective4629"
       inkscape:persp3d-origin="0.5 : 0.33333333 : 1"
       inkscape:vp_z="1 : 0.5 : 1"
       inkscape:vp_y="0 : 1000 : 0"
       inkscape:vp_x="0 : 0.5 : 1"
       sodipodi:type="inkscape:persp3d" />
    <inkscape:perspective
       id="perspective4674"
       inkscape:persp3d-origin="0.5 : 0.33333333 : 1"
       inkscape:vp_z="1 : 0.5 : 1"
       inkscape:vp_y="0 : 1000 : 0"
       inkscape:vp_x="0 : 0.5 : 1"
       sodipodi:type="inkscape:persp3d" />
    <inkscape:perspective
       id="perspective4690"
       inkscape:persp3d-origin="0.5 : 0.33333333 : 1"
       inkscape:vp_z="1 : 0.5 : 1"
       inkscape:vp_y="0 : 1000 : 0"
       inkscape:vp_x="0 : 0.5 : 1"
       sodipodi:type="inkscape:persp3d" />
    <inkscape:perspective
       id="perspective4735"
       inkscape:persp3d-origin="0.5 : 0.33333333 : 1"
       inkscape:vp_z="1 : 0.5 : 1"
       inkscape:vp_y="0 : 1000 : 0"
       inkscape:vp_x="0 : 0.5 : 1"
       sodipodi:type="inkscape:persp3d" />
    <inkscape:perspective
       id="perspective4751"
       inkscape:persp3d-origin="0.5 : 0.33333333 : 1"
       inkscape:vp_z="1 : 0.5 : 1"
       inkscape:vp_y="0 : 1000 : 0"
       inkscape:vp_x="0 : 0.5 : 1"
       sodipodi:type="inkscape:persp3d" />
    <inkscape:perspective
       id="perspective4767"
       inkscape:persp3d-origin="0.5 : 0.33333333 : 1"
       inkscape:vp_z="1 : 0.5 : 1"
       inkscape:vp_y="0 : 1000 : 0"
       inkscape:vp_x="0 : 0.5 : 1"
       sodipodi:type="inkscape:persp3d" />
    <inkscape:perspective
       id="perspective4787"
       inkscape:persp3d-origin="0.5 : 0.33333333 : 1"
       inkscape:vp_z="1 : 0.5 : 1"
       inkscape:vp_y="0 : 1000 : 0"
       inkscape:vp_x="0 : 0.5 : 1"
       sodipodi:type="inkscape:persp3d" />
    <inkscape:perspective
       id="perspective4813"
       inkscape:persp3d-origin="0.5 : 0.33333333 : 1"
       inkscape:vp_z="1 : 0.5 : 1"
       inkscape:vp_y="0 : 1000 : 0"
       inkscape:vp_x="0 : 0.5 : 1"
       sodipodi:type="inkscape:persp3d" />
    <inkscape:perspective
       id="perspective4905"
       inkscape:persp3d-origin="0.5 : 0.33333333 : 1"
       inkscape:vp_z="1 : 0.5 : 1"
       inkscape:vp_y="0 : 1000 : 0"
       inkscape:vp_x="0 : 0.5 : 1"
       sodipodi:type="inkscape:persp3d" />
  </defs>
  <path
     style="fill:#ffffff;fill-opacity:1;stroke:none"
     d="m -4.9305571,-3.438081 207.7153771,0 0,207.348391 -207.7153771,0 0,-207.348391 z"
     id="rect2881" />
  <path
     style="fill:none;stroke:#000000;stroke-width:3.01908374000000010;stroke-miterlimit:4;stroke-opacity:1;fill-opacity:1"
     d="m 21.822154,0.3469825 157.629776,0 c 10.29256,0 18.57863,8.3934701 18.57863,18.8194385 l 0,159.672889 c 0,10.42597 -8.28607,18.81944 -18.57863,18.81944 l -157.629776,0 c -10.292563,0 -18.5786336,-8.39347 -18.5786336,-18.81944 l 0,-159.672889 c 0,-10.4259684 8.2860706,-18.8194385 18.5786336,-18.8194385 z"
     id="rect4614" />
  <path
     style="fill:#000000"
     d="m 54.6994,164.45579 c -4.828009,-0.86384 -11.876625,-3.7147 -16.05907,-6.49518 -8.553931,-5.68664 -14.81078,-15.44616 -18.257112,-28.47771 -1.308962,-4.94955 -1.319793,-5.25993 -1.319793,-37.822269 0,-29.924295 0.08306,-32.884194 0.937951,-33.423837 0.683679,-0.431569 3.066765,-0.176346 8.79064,0.941466 14.711456,2.872991 20.47247,3.429807 35.358882,3.4175 11.683026,-0.0096 14.937661,-0.202831 20.445621,-1.213533 3.602908,-0.661124 7.239681,-1.463982 8.081716,-1.784126 l 1.530978,-0.582076 0,-12.988768 c 0,-15.14975 -0.08939,-14.888185 4.720012,-13.812053 26.628765,5.958347 52.559415,5.994637 75.203995,0.105248 7.22105,-1.878048 8.916,-1.835651 9.43596,0.236028 0.17707,0.705481 0.22127,14.533727 0.0982,30.729436 -0.21259,27.983197 -0.28682,29.728184 -1.49371,35.10932 -6.49592,28.963424 -24.8005,43.495824 -50.31602,39.946944 -8.42133,-1.1713 -16.8353,-5.14573 -22.46446,-10.61132 -1.47445,-1.43162 -2.76154,-2.49072 -2.86018,-2.35357 -0.0986,0.13716 -0.76114,2.29108 -1.4722,4.78648 -5.03425,17.66709 -15.574043,29.71365 -29.30319,33.49238 -3.98174,1.09591 -16.702652,1.57896 -21.05825,0.79964 l 3e-5,0 z m 7.182946,-25.33528 c 5.651859,-0.22363 10.528543,0.55475 14.887373,2.37621 3.028069,1.26536 -1.268608,-5.02193 -5.34928,-7.82756 -4.155982,-2.85741 -8.404169,-3.6896 -12.273706,-2.40435 -1.572107,0.52217 -4.015359,1.83282 -5.429449,2.91256 -2.397491,1.83062 -6.013389,6.32463 -6.013389,7.47373 0,0.27903 1.850288,-0.12319 4.111751,-0.89382 3.015276,-1.0275 5.699748,-1.46398 10.0667,-1.63677 z m 88.027094,-7.41645 c 10.92822,-3.13662 19.93085,-12.95397 24.43793,-26.64952 3.48971,-10.604089 3.78072,-13.821417 3.80766,-42.096622 0.0132,-13.880703 0.0165,-25.406418 0.007,-25.612698 -0.009,-0.20628 -1.55162,-0.01698 -3.42763,0.420658 -7.65859,1.786629 -20.04556,3.680101 -27.8686,4.259994 -10.5598,0.782759 -23.00165,-0.01481 -36.66905,-2.35062 -5.45338,-0.932004 -9.99485,-1.614941 -10.09216,-1.517638 -0.0973,0.0973 -0.251382,12.544101 -0.342396,27.659553 -0.162219,26.939078 -0.139567,27.59993 1.145216,33.413118 2.48277,11.233625 6.60263,19.150175 13.02411,25.026575 3.8855,3.55568 10.82296,7.03137 16.31411,8.17342 5.18131,1.07761 14.58941,0.73014 19.66349,-0.72622 l 3.2e-4,0 z m -17.22321,-8.85278 c -6.11874,-2.18567 -10.28183,-6.11814 -13.37723,-12.63618 -1.69945,-3.57855 -1.90624,-4.42456 -1.36944,-5.6027 0.85683,-1.88053 2.12908,-1.78611 9.19401,0.68234 5.14918,1.7991 6.62976,2.07495 11.31241,2.1076 4.82194,0.0336 6.03734,-0.18793 11.5721,-2.10953 7.34385,-2.54969 8.84487,-2.46297 8.84487,0.51101 0,2.58179 -2.84778,8.18684 -5.77051,11.35763 -1.32024,1.43229 -4.00165,3.34844 -6.28253,4.48951 -3.45927,1.7306 -4.50654,1.98747 -8.01478,1.96583 -2.21955,-0.0137 -4.96856,-0.35817 -6.1089,-0.76551 z m 9.75714,-5.40636 c 3.16386,-1.20217 6.4606,-3.49279 7.30929,-5.07858 0.51832,-0.96849 0.39528,-0.97907 -2.40272,-0.20646 -3.67432,1.01459 -14.02291,1.13176 -17.32649,0.19618 -1.35718,-0.38435 -2.59919,-0.56723 -2.76002,-0.40639 -0.40705,0.40705 3.16908,3.64455 5.22393,4.72927 3.9517,2.08601 6.05591,2.24791 9.95601,0.76598 z M 115.0401,76.792802 c -3.75436,-1.1542 -7.78671,-5.052219 -7.78671,-7.527311 0,-2.716478 1.2957,-4.733323 4.05615,-6.313676 2.21699,-1.269221 3.09574,-1.411742 8.70445,-1.411742 5.69084,0 6.49475,0.135143 9.15725,1.539411 3.68969,1.946043 5.57972,4.770067 5.11384,7.64096 -0.42392,2.612339 -1.70056,3.997841 -5.19688,5.640062 -3.36722,1.581578 -9.67803,1.775783 -14.0481,0.432296 z m 12.2336,-5.699545 c 2.0162,-1.042615 1.76506,-1.893299 -0.95708,-3.241948 -3.14323,-1.557264 -8.64478,-1.822078 -11.08953,-0.53379 -2.57413,1.356469 -2.74129,2.18993 -0.65551,3.268524 4.00735,2.072283 9.2693,2.282396 12.70212,0.507214 z m 22.3784,5.803252 c -4.75398,-1.696713 -7.07226,-4.573061 -6.34704,-7.874933 0.63565,-2.894111 1.84148,-4.221197 5.49384,-6.046304 3.01736,-1.507793 4.02949,-1.718768 8.24563,-1.718768 5.96516,0 8.85367,0.834549 11.27738,3.258247 1.5538,1.553811 1.8838,2.314162 1.8838,4.340534 0,3.217329 -1.37492,4.91031 -5.77242,7.107765 -3.04739,1.5228 -4.05675,1.737343 -8.07126,1.715565 -2.52357,-0.01367 -5.54303,-0.36564 -6.70993,-0.782106 z m 12.08784,-5.74419 c 0.80254,-0.41075 1.77666,-1.129387 2.16472,-1.596975 0.58309,-0.702577 0.46531,-1.007589 -0.67849,-1.757034 -3.10664,-2.035549 -10.01954,-1.607813 -12.95839,0.801803 -1.18131,0.968581 -1.23479,1.184695 -0.47904,1.936005 2.03333,2.021393 8.54928,2.357355 11.9512,0.616201 z M 48.368161,116.46456 c 0.570432,-0.51623 1.037148,-1.41964 1.037148,-2.00758 0,-1.05465 -2.058064,-5.56088 -2.53974,-5.56088 -0.479639,0 -3.13164,4.93071 -3.13164,5.82248 0,1.16375 1.523764,2.68459 2.689759,2.68459 0.499029,0 1.374041,-0.42237 1.944473,-0.93861 z M 49.14437,99.528509 c 4.078164,-1.038203 6.293894,-3.075544 5.321291,-4.892876 -2.300486,-4.298492 -15.749455,-4.318478 -18.046284,-0.02683 -0.471504,0.881015 -0.357661,1.430487 0.530249,2.559285 1.274626,1.620421 3.714669,2.553062 8.224778,3.143692 0.324372,0.0425 2.110857,-0.30999 3.969966,-0.783287 l 0,1.6e-5 z m 35.722895,-0.01815 c 3.281415,-0.854688 5.93912,-2.618709 5.93912,-3.942006 0,-1.006869 -2.339467,-2.890912 -4.479948,-3.607837 -5.407253,-1.811082 -13.749785,0.170385 -14.120665,3.353861 -0.225897,1.938988 1.233344,3.152165 5.013568,4.16817 3.9504,1.061743 3.682195,1.060763 7.647925,0.02779 l 0,2.2e-5 z"
     id="path4911"
     sodipodi:nodetypes="cssssssscccsssssssssscccssssssccssssssssssscccsssssssssccsssssccssssssccsssccsssssssccssssccssssccsssscccsssscc" />
</svg>
