<?xml version="1.0" encoding="UTF-8" standalone="no"?>
<!-- Created with Inkscape (http://www.inkscape.org/) -->

<svg
   xmlns:dc="http://purl.org/dc/elements/1.1/"
   xmlns:cc="http://creativecommons.org/ns#"
   xmlns:rdf="http://www.w3.org/1999/02/22-rdf-syntax-ns#"
   xmlns:svg="http://www.w3.org/2000/svg"
   xmlns="http://www.w3.org/2000/svg"
   xmlns:sodipodi="http://sodipodi.sourceforge.net/DTD/sodipodi-0.dtd"
   xmlns:inkscape="http://www.inkscape.org/namespaces/inkscape"
   version="1.1"
   width="200"
   height="200"
   id="svg2"
   inkscape:version="0.47 r22583"
   sodipodi:docname="Italian traffic signs - icona piscina.svg"
   sodipodi:version="0.32"
   inkscape:output_extension="org.inkscape.output.svg.inkscape">
  <metadata
     id="metadata2877">
    <rdf:RDF>
      <cc:Work
         rdf:about="">
        <dc:format>image/svg+xml</dc:format>
        <dc:type
           rdf:resource="http://purl.org/dc/dcmitype/StillImage" />
        <dc:title></dc:title>
      </cc:Work>
    </rdf:RDF>
  </metadata>
  <sodipodi:namedview
     pagecolor="#ffffff"
     bordercolor="#666666"
     borderopacity="1"
     objecttolerance="10"
     gridtolerance="10"
     guidetolerance="10"
     inkscape:pageopacity="0"
     inkscape:pageshadow="2"
     inkscape:window-width="1600"
     inkscape:window-height="838"
     id="namedview2875"
     showgrid="false"
     inkscape:zoom="2.3931339"
     inkscape:cx="92.877989"
     inkscape:cy="111.58234"
     inkscape:window-x="-8"
     inkscape:window-y="-8"
     inkscape:window-maximized="1"
     inkscape:current-layer="svg2" />
  <defs
     id="defs4">
    <inkscape:perspective
       sodipodi:type="inkscape:persp3d"
       inkscape:vp_x="0 : 100 : 1"
       inkscape:vp_y="0 : 1000 : 0"
       inkscape:vp_z="200 : 100 : 1"
       inkscape:persp3d-origin="100 : 66.666667 : 1"
       id="perspective2879" />
    <inkscape:perspective
       id="perspective2839"
       inkscape:persp3d-origin="0.5 : 0.33333333 : 1"
       inkscape:vp_z="1 : 0.5 : 1"
       inkscape:vp_y="0 : 1000 : 0"
       inkscape:vp_x="0 : 0.5 : 1"
       sodipodi:type="inkscape:persp3d" />
    <inkscape:perspective
       id="perspective3649"
       inkscape:persp3d-origin="0.5 : 0.33333333 : 1"
       inkscape:vp_z="1 : 0.5 : 1"
       inkscape:vp_y="0 : 1000 : 0"
       inkscape:vp_x="0 : 0.5 : 1"
       sodipodi:type="inkscape:persp3d" />
    <inkscape:perspective
       id="perspective3679"
       inkscape:persp3d-origin="0.5 : 0.33333333 : 1"
       inkscape:vp_z="1 : 0.5 : 1"
       inkscape:vp_y="0 : 1000 : 0"
       inkscape:vp_x="0 : 0.5 : 1"
       sodipodi:type="inkscape:persp3d" />
    <inkscape:perspective
       id="perspective3713"
       inkscape:persp3d-origin="0.5 : 0.33333333 : 1"
       inkscape:vp_z="1 : 0.5 : 1"
       inkscape:vp_y="0 : 1000 : 0"
       inkscape:vp_x="0 : 0.5 : 1"
       sodipodi:type="inkscape:persp3d" />
    <inkscape:perspective
       id="perspective3741"
       inkscape:persp3d-origin="0.5 : 0.33333333 : 1"
       inkscape:vp_z="1 : 0.5 : 1"
       inkscape:vp_y="0 : 1000 : 0"
       inkscape:vp_x="0 : 0.5 : 1"
       sodipodi:type="inkscape:persp3d" />
    <inkscape:perspective
       id="perspective3765"
       inkscape:persp3d-origin="0.5 : 0.33333333 : 1"
       inkscape:vp_z="1 : 0.5 : 1"
       inkscape:vp_y="0 : 1000 : 0"
       inkscape:vp_x="0 : 0.5 : 1"
       sodipodi:type="inkscape:persp3d" />
    <inkscape:perspective
       id="perspective3801"
       inkscape:persp3d-origin="0.5 : 0.33333333 : 1"
       inkscape:vp_z="1 : 0.5 : 1"
       inkscape:vp_y="0 : 1000 : 0"
       inkscape:vp_x="0 : 0.5 : 1"
       sodipodi:type="inkscape:persp3d" />
    <inkscape:perspective
       id="perspective2863"
       inkscape:persp3d-origin="0.5 : 0.33333333 : 1"
       inkscape:vp_z="1 : 0.5 : 1"
       inkscape:vp_y="0 : 1000 : 0"
       inkscape:vp_x="0 : 0.5 : 1"
       sodipodi:type="inkscape:persp3d" />
    <inkscape:perspective
       id="perspective3859"
       inkscape:persp3d-origin="0.5 : 0.33333333 : 1"
       inkscape:vp_z="1 : 0.5 : 1"
       inkscape:vp_y="0 : 1000 : 0"
       inkscape:vp_x="0 : 0.5 : 1"
       sodipodi:type="inkscape:persp3d" />
    <inkscape:perspective
       id="perspective3964"
       inkscape:persp3d-origin="0.5 : 0.33333333 : 1"
       inkscape:vp_z="1 : 0.5 : 1"
       inkscape:vp_y="0 : 1000 : 0"
       inkscape:vp_x="0 : 0.5 : 1"
       sodipodi:type="inkscape:persp3d" />
    <inkscape:perspective
       id="perspective3988"
       inkscape:persp3d-origin="0.5 : 0.33333333 : 1"
       inkscape:vp_z="1 : 0.5 : 1"
       inkscape:vp_y="0 : 1000 : 0"
       inkscape:vp_x="0 : 0.5 : 1"
       sodipodi:type="inkscape:persp3d" />
    <inkscape:perspective
       id="perspective2879-7"
       inkscape:persp3d-origin="0.5 : 0.33333333 : 1"
       inkscape:vp_z="1 : 0.5 : 1"
       inkscape:vp_y="0 : 1000 : 0"
       inkscape:vp_x="0 : 0.5 : 1"
       sodipodi:type="inkscape:persp3d" />
    <inkscape:perspective
       id="perspective4031"
       inkscape:persp3d-origin="0.5 : 0.33333333 : 1"
       inkscape:vp_z="1 : 0.5 : 1"
       inkscape:vp_y="0 : 1000 : 0"
       inkscape:vp_x="0 : 0.5 : 1"
       sodipodi:type="inkscape:persp3d" />
    <inkscape:perspective
       id="perspective4047"
       inkscape:persp3d-origin="0.5 : 0.33333333 : 1"
       inkscape:vp_z="1 : 0.5 : 1"
       inkscape:vp_y="0 : 1000 : 0"
       inkscape:vp_x="0 : 0.5 : 1"
       sodipodi:type="inkscape:persp3d" />
    <inkscape:perspective
       id="perspective4063"
       inkscape:persp3d-origin="0.5 : 0.33333333 : 1"
       inkscape:vp_z="1 : 0.5 : 1"
       inkscape:vp_y="0 : 1000 : 0"
       inkscape:vp_x="0 : 0.5 : 1"
       sodipodi:type="inkscape:persp3d" />
    <inkscape:perspective
       id="perspective4079"
       inkscape:persp3d-origin="0.5 : 0.33333333 : 1"
       inkscape:vp_z="1 : 0.5 : 1"
       inkscape:vp_y="0 : 1000 : 0"
       inkscape:vp_x="0 : 0.5 : 1"
       sodipodi:type="inkscape:persp3d" />
    <inkscape:perspective
       id="perspective4097"
       inkscape:persp3d-origin="0.5 : 0.33333333 : 1"
       inkscape:vp_z="1 : 0.5 : 1"
       inkscape:vp_y="0 : 1000 : 0"
       inkscape:vp_x="0 : 0.5 : 1"
       sodipodi:type="inkscape:persp3d" />
    <inkscape:perspective
       id="perspective4115"
       inkscape:persp3d-origin="0.5 : 0.33333333 : 1"
       inkscape:vp_z="1 : 0.5 : 1"
       inkscape:vp_y="0 : 1000 : 0"
       inkscape:vp_x="0 : 0.5 : 1"
       sodipodi:type="inkscape:persp3d" />
    <inkscape:perspective
       id="perspective4129"
       inkscape:persp3d-origin="0.5 : 0.33333333 : 1"
       inkscape:vp_z="1 : 0.5 : 1"
       inkscape:vp_y="0 : 1000 : 0"
       inkscape:vp_x="0 : 0.5 : 1"
       sodipodi:type="inkscape:persp3d" />
    <inkscape:perspective
       id="perspective4153"
       inkscape:persp3d-origin="0.5 : 0.33333333 : 1"
       inkscape:vp_z="1 : 0.5 : 1"
       inkscape:vp_y="0 : 1000 : 0"
       inkscape:vp_x="0 : 0.5 : 1"
       sodipodi:type="inkscape:persp3d" />
    <inkscape:perspective
       id="perspective4179"
       inkscape:persp3d-origin="0.5 : 0.33333333 : 1"
       inkscape:vp_z="1 : 0.5 : 1"
       inkscape:vp_y="0 : 1000 : 0"
       inkscape:vp_x="0 : 0.5 : 1"
       sodipodi:type="inkscape:persp3d" />
    <inkscape:perspective
       id="perspective4195"
       inkscape:persp3d-origin="0.5 : 0.33333333 : 1"
       inkscape:vp_z="1 : 0.5 : 1"
       inkscape:vp_y="0 : 1000 : 0"
       inkscape:vp_x="0 : 0.5 : 1"
       sodipodi:type="inkscape:persp3d" />
    <inkscape:perspective
       id="perspective4213"
       inkscape:persp3d-origin="0.5 : 0.33333333 : 1"
       inkscape:vp_z="1 : 0.5 : 1"
       inkscape:vp_y="0 : 1000 : 0"
       inkscape:vp_x="0 : 0.5 : 1"
       sodipodi:type="inkscape:persp3d" />
    <inkscape:perspective
       id="perspective4267"
       inkscape:persp3d-origin="0.5 : 0.33333333 : 1"
       inkscape:vp_z="1 : 0.5 : 1"
       inkscape:vp_y="0 : 1000 : 0"
       inkscape:vp_x="0 : 0.5 : 1"
       sodipodi:type="inkscape:persp3d" />
    <inkscape:perspective
       id="perspective4283"
       inkscape:persp3d-origin="0.5 : 0.33333333 : 1"
       inkscape:vp_z="1 : 0.5 : 1"
       inkscape:vp_y="0 : 1000 : 0"
       inkscape:vp_x="0 : 0.5 : 1"
       sodipodi:type="inkscape:persp3d" />
    <inkscape:perspective
       id="perspective4314"
       inkscape:persp3d-origin="0.5 : 0.33333333 : 1"
       inkscape:vp_z="1 : 0.5 : 1"
       inkscape:vp_y="0 : 1000 : 0"
       inkscape:vp_x="0 : 0.5 : 1"
       sodipodi:type="inkscape:persp3d" />
    <inkscape:perspective
       id="perspective4330"
       inkscape:persp3d-origin="0.5 : 0.33333333 : 1"
       inkscape:vp_z="1 : 0.5 : 1"
       inkscape:vp_y="0 : 1000 : 0"
       inkscape:vp_x="0 : 0.5 : 1"
       sodipodi:type="inkscape:persp3d" />
    <inkscape:perspective
       id="perspective4346"
       inkscape:persp3d-origin="0.5 : 0.33333333 : 1"
       inkscape:vp_z="1 : 0.5 : 1"
       inkscape:vp_y="0 : 1000 : 0"
       inkscape:vp_x="0 : 0.5 : 1"
       sodipodi:type="inkscape:persp3d" />
    <inkscape:perspective
       id="perspective3742"
       inkscape:persp3d-origin="0.5 : 0.33333333 : 1"
       inkscape:vp_z="1 : 0.5 : 1"
       inkscape:vp_y="0 : 1000 : 0"
       inkscape:vp_x="0 : 0.5 : 1"
       sodipodi:type="inkscape:persp3d" />
    <inkscape:perspective
       id="perspective3776"
       inkscape:persp3d-origin="0.5 : 0.33333333 : 1"
       inkscape:vp_z="1 : 0.5 : 1"
       inkscape:vp_y="0 : 1000 : 0"
       inkscape:vp_x="0 : 0.5 : 1"
       sodipodi:type="inkscape:persp3d" />
    <inkscape:perspective
       id="perspective3792"
       inkscape:persp3d-origin="0.5 : 0.33333333 : 1"
       inkscape:vp_z="1 : 0.5 : 1"
       inkscape:vp_y="0 : 1000 : 0"
       inkscape:vp_x="0 : 0.5 : 1"
       sodipodi:type="inkscape:persp3d" />
    <inkscape:perspective
       id="perspective3808"
       inkscape:persp3d-origin="0.5 : 0.33333333 : 1"
       inkscape:vp_z="1 : 0.5 : 1"
       inkscape:vp_y="0 : 1000 : 0"
       inkscape:vp_x="0 : 0.5 : 1"
       sodipodi:type="inkscape:persp3d" />
    <inkscape:perspective
       id="perspective3824"
       inkscape:persp3d-origin="0.5 : 0.33333333 : 1"
       inkscape:vp_z="1 : 0.5 : 1"
       inkscape:vp_y="0 : 1000 : 0"
       inkscape:vp_x="0 : 0.5 : 1"
       sodipodi:type="inkscape:persp3d" />
    <inkscape:perspective
       id="perspective4354"
       inkscape:persp3d-origin="0.5 : 0.33333333 : 1"
       inkscape:vp_z="1 : 0.5 : 1"
       inkscape:vp_y="0 : 1000 : 0"
       inkscape:vp_x="0 : 0.5 : 1"
       sodipodi:type="inkscape:persp3d" />
    <inkscape:perspective
       id="perspective4395"
       inkscape:persp3d-origin="0.5 : 0.33333333 : 1"
       inkscape:vp_z="1 : 0.5 : 1"
       inkscape:vp_y="0 : 1000 : 0"
       inkscape:vp_x="0 : 0.5 : 1"
       sodipodi:type="inkscape:persp3d" />
    <inkscape:perspective
       id="perspective4435"
       inkscape:persp3d-origin="0.5 : 0.33333333 : 1"
       inkscape:vp_z="1 : 0.5 : 1"
       inkscape:vp_y="0 : 1000 : 0"
       inkscape:vp_x="0 : 0.5 : 1"
       sodipodi:type="inkscape:persp3d" />
    <inkscape:perspective
       id="perspective4460"
       inkscape:persp3d-origin="0.5 : 0.33333333 : 1"
       inkscape:vp_z="1 : 0.5 : 1"
       inkscape:vp_y="0 : 1000 : 0"
       inkscape:vp_x="0 : 0.5 : 1"
       sodipodi:type="inkscape:persp3d" />
    <inkscape:perspective
       id="perspective4479"
       inkscape:persp3d-origin="0.5 : 0.33333333 : 1"
       inkscape:vp_z="1 : 0.5 : 1"
       inkscape:vp_y="0 : 1000 : 0"
       inkscape:vp_x="0 : 0.5 : 1"
       sodipodi:type="inkscape:persp3d" />
    <inkscape:perspective
       id="perspective4495"
       inkscape:persp3d-origin="0.5 : 0.33333333 : 1"
       inkscape:vp_z="1 : 0.5 : 1"
       inkscape:vp_y="0 : 1000 : 0"
       inkscape:vp_x="0 : 0.5 : 1"
       sodipodi:type="inkscape:persp3d" />
    <inkscape:perspective
       id="perspective4511"
       inkscape:persp3d-origin="0.5 : 0.33333333 : 1"
       inkscape:vp_z="1 : 0.5 : 1"
       inkscape:vp_y="0 : 1000 : 0"
       inkscape:vp_x="0 : 0.5 : 1"
       sodipodi:type="inkscape:persp3d" />
    <inkscape:perspective
       id="perspective4527"
       inkscape:persp3d-origin="0.5 : 0.33333333 : 1"
       inkscape:vp_z="1 : 0.5 : 1"
       inkscape:vp_y="0 : 1000 : 0"
       inkscape:vp_x="0 : 0.5 : 1"
       sodipodi:type="inkscape:persp3d" />
    <inkscape:perspective
       id="perspective4543"
       inkscape:persp3d-origin="0.5 : 0.33333333 : 1"
       inkscape:vp_z="1 : 0.5 : 1"
       inkscape:vp_y="0 : 1000 : 0"
       inkscape:vp_x="0 : 0.5 : 1"
       sodipodi:type="inkscape:persp3d" />
    <inkscape:perspective
       id="perspective4559"
       inkscape:persp3d-origin="0.5 : 0.33333333 : 1"
       inkscape:vp_z="1 : 0.5 : 1"
       inkscape:vp_y="0 : 1000 : 0"
       inkscape:vp_x="0 : 0.5 : 1"
       sodipodi:type="inkscape:persp3d" />
    <inkscape:perspective
       id="perspective4575"
       inkscape:persp3d-origin="0.5 : 0.33333333 : 1"
       inkscape:vp_z="1 : 0.5 : 1"
       inkscape:vp_y="0 : 1000 : 0"
       inkscape:vp_x="0 : 0.5 : 1"
       sodipodi:type="inkscape:persp3d" />
    <inkscape:perspective
       id="perspective4591"
       inkscape:persp3d-origin="0.5 : 0.33333333 : 1"
       inkscape:vp_z="1 : 0.5 : 1"
       inkscape:vp_y="0 : 1000 : 0"
       inkscape:vp_x="0 : 0.5 : 1"
       sodipodi:type="inkscape:persp3d" />
    <inkscape:perspective
       id="perspective4607"
       inkscape:persp3d-origin="0.5 : 0.33333333 : 1"
       inkscape:vp_z="1 : 0.5 : 1"
       inkscape:vp_y="0 : 1000 : 0"
       inkscape:vp_x="0 : 0.5 : 1"
       sodipodi:type="inkscape:persp3d" />
    <inkscape:perspective
       id="perspective4629"
       inkscape:persp3d-origin="0.5 : 0.33333333 : 1"
       inkscape:vp_z="1 : 0.5 : 1"
       inkscape:vp_y="0 : 1000 : 0"
       inkscape:vp_x="0 : 0.5 : 1"
       sodipodi:type="inkscape:persp3d" />
    <inkscape:perspective
       id="perspective4674"
       inkscape:persp3d-origin="0.5 : 0.33333333 : 1"
       inkscape:vp_z="1 : 0.5 : 1"
       inkscape:vp_y="0 : 1000 : 0"
       inkscape:vp_x="0 : 0.5 : 1"
       sodipodi:type="inkscape:persp3d" />
    <inkscape:perspective
       id="perspective4690"
       inkscape:persp3d-origin="0.5 : 0.33333333 : 1"
       inkscape:vp_z="1 : 0.5 : 1"
       inkscape:vp_y="0 : 1000 : 0"
       inkscape:vp_x="0 : 0.5 : 1"
       sodipodi:type="inkscape:persp3d" />
    <inkscape:perspective
       id="perspective4735"
       inkscape:persp3d-origin="0.5 : 0.33333333 : 1"
       inkscape:vp_z="1 : 0.5 : 1"
       inkscape:vp_y="0 : 1000 : 0"
       inkscape:vp_x="0 : 0.5 : 1"
       sodipodi:type="inkscape:persp3d" />
    <inkscape:perspective
       id="perspective4751"
       inkscape:persp3d-origin="0.5 : 0.33333333 : 1"
       inkscape:vp_z="1 : 0.5 : 1"
       inkscape:vp_y="0 : 1000 : 0"
       inkscape:vp_x="0 : 0.5 : 1"
       sodipodi:type="inkscape:persp3d" />
    <inkscape:perspective
       id="perspective4767"
       inkscape:persp3d-origin="0.5 : 0.33333333 : 1"
       inkscape:vp_z="1 : 0.5 : 1"
       inkscape:vp_y="0 : 1000 : 0"
       inkscape:vp_x="0 : 0.5 : 1"
       sodipodi:type="inkscape:persp3d" />
    <inkscape:perspective
       id="perspective4787"
       inkscape:persp3d-origin="0.5 : 0.33333333 : 1"
       inkscape:vp_z="1 : 0.5 : 1"
       inkscape:vp_y="0 : 1000 : 0"
       inkscape:vp_x="0 : 0.5 : 1"
       sodipodi:type="inkscape:persp3d" />
    <inkscape:perspective
       id="perspective4813"
       inkscape:persp3d-origin="0.5 : 0.33333333 : 1"
       inkscape:vp_z="1 : 0.5 : 1"
       inkscape:vp_y="0 : 1000 : 0"
       inkscape:vp_x="0 : 0.5 : 1"
       sodipodi:type="inkscape:persp3d" />
    <inkscape:perspective
       id="perspective4905"
       inkscape:persp3d-origin="0.5 : 0.33333333 : 1"
       inkscape:vp_z="1 : 0.5 : 1"
       inkscape:vp_y="0 : 1000 : 0"
       inkscape:vp_x="0 : 0.5 : 1"
       sodipodi:type="inkscape:persp3d" />
    <inkscape:perspective
       id="perspective2877"
       inkscape:persp3d-origin="0.5 : 0.33333333 : 1"
       inkscape:vp_z="1 : 0.5 : 1"
       inkscape:vp_y="0 : 1000 : 0"
       inkscape:vp_x="0 : 0.5 : 1"
       sodipodi:type="inkscape:persp3d" />
    <inkscape:perspective
       id="perspective2893"
       inkscape:persp3d-origin="0.5 : 0.33333333 : 1"
       inkscape:vp_z="1 : 0.5 : 1"
       inkscape:vp_y="0 : 1000 : 0"
       inkscape:vp_x="0 : 0.5 : 1"
       sodipodi:type="inkscape:persp3d" />
    <inkscape:perspective
       id="perspective3693"
       inkscape:persp3d-origin="0.5 : 0.33333333 : 1"
       inkscape:vp_z="1 : 0.5 : 1"
       inkscape:vp_y="0 : 1000 : 0"
       inkscape:vp_x="0 : 0.5 : 1"
       sodipodi:type="inkscape:persp3d" />
    <inkscape:perspective
       id="perspective3709"
       inkscape:persp3d-origin="0.5 : 0.33333333 : 1"
       inkscape:vp_z="1 : 0.5 : 1"
       inkscape:vp_y="0 : 1000 : 0"
       inkscape:vp_x="0 : 0.5 : 1"
       sodipodi:type="inkscape:persp3d" />
    <inkscape:perspective
       id="perspective3725"
       inkscape:persp3d-origin="0.5 : 0.33333333 : 1"
       inkscape:vp_z="1 : 0.5 : 1"
       inkscape:vp_y="0 : 1000 : 0"
       inkscape:vp_x="0 : 0.5 : 1"
       sodipodi:type="inkscape:persp3d" />
    <inkscape:perspective
       id="perspective3743"
       inkscape:persp3d-origin="0.5 : 0.33333333 : 1"
       inkscape:vp_z="1 : 0.5 : 1"
       inkscape:vp_y="0 : 1000 : 0"
       inkscape:vp_x="0 : 0.5 : 1"
       sodipodi:type="inkscape:persp3d" />
    <inkscape:perspective
       id="perspective3759"
       inkscape:persp3d-origin="0.5 : 0.33333333 : 1"
       inkscape:vp_z="1 : 0.5 : 1"
       inkscape:vp_y="0 : 1000 : 0"
       inkscape:vp_x="0 : 0.5 : 1"
       sodipodi:type="inkscape:persp3d" />
    <inkscape:perspective
       id="perspective3777"
       inkscape:persp3d-origin="0.5 : 0.33333333 : 1"
       inkscape:vp_z="1 : 0.5 : 1"
       inkscape:vp_y="0 : 1000 : 0"
       inkscape:vp_x="0 : 0.5 : 1"
       sodipodi:type="inkscape:persp3d" />
    <inkscape:perspective
       id="perspective3795"
       inkscape:persp3d-origin="0.5 : 0.33333333 : 1"
       inkscape:vp_z="1 : 0.5 : 1"
       inkscape:vp_y="0 : 1000 : 0"
       inkscape:vp_x="0 : 0.5 : 1"
       sodipodi:type="inkscape:persp3d" />
    <inkscape:perspective
       id="perspective3815"
       inkscape:persp3d-origin="0.5 : 0.33333333 : 1"
       inkscape:vp_z="1 : 0.5 : 1"
       inkscape:vp_y="0 : 1000 : 0"
       inkscape:vp_x="0 : 0.5 : 1"
       sodipodi:type="inkscape:persp3d" />
    <inkscape:perspective
       id="perspective3831"
       inkscape:persp3d-origin="0.5 : 0.33333333 : 1"
       inkscape:vp_z="1 : 0.5 : 1"
       inkscape:vp_y="0 : 1000 : 0"
       inkscape:vp_x="0 : 0.5 : 1"
       sodipodi:type="inkscape:persp3d" />
    <inkscape:perspective
       id="perspective4112"
       inkscape:persp3d-origin="0.5 : 0.33333333 : 1"
       inkscape:vp_z="1 : 0.5 : 1"
       inkscape:vp_y="0 : 1000 : 0"
       inkscape:vp_x="0 : 0.5 : 1"
       sodipodi:type="inkscape:persp3d" />
    <inkscape:perspective
       id="perspective5834"
       inkscape:persp3d-origin="0.5 : 0.33333333 : 1"
       inkscape:vp_z="1 : 0.5 : 1"
       inkscape:vp_y="0 : 1000 : 0"
       inkscape:vp_x="0 : 0.5 : 1"
       sodipodi:type="inkscape:persp3d" />
    <inkscape:perspective
       id="perspective6553"
       inkscape:persp3d-origin="0.5 : 0.33333333 : 1"
       inkscape:vp_z="1 : 0.5 : 1"
       inkscape:vp_y="0 : 1000 : 0"
       inkscape:vp_x="0 : 0.5 : 1"
       sodipodi:type="inkscape:persp3d" />
    <inkscape:perspective
       id="perspective6591"
       inkscape:persp3d-origin="0.5 : 0.33333333 : 1"
       inkscape:vp_z="1 : 0.5 : 1"
       inkscape:vp_y="0 : 1000 : 0"
       inkscape:vp_x="0 : 0.5 : 1"
       sodipodi:type="inkscape:persp3d" />
    <inkscape:perspective
       id="perspective6607"
       inkscape:persp3d-origin="0.5 : 0.33333333 : 1"
       inkscape:vp_z="1 : 0.5 : 1"
       inkscape:vp_y="0 : 1000 : 0"
       inkscape:vp_x="0 : 0.5 : 1"
       sodipodi:type="inkscape:persp3d" />
    <inkscape:perspective
       id="perspective6623"
       inkscape:persp3d-origin="0.5 : 0.33333333 : 1"
       inkscape:vp_z="1 : 0.5 : 1"
       inkscape:vp_y="0 : 1000 : 0"
       inkscape:vp_x="0 : 0.5 : 1"
       sodipodi:type="inkscape:persp3d" />
    <inkscape:perspective
       id="perspective6641"
       inkscape:persp3d-origin="0.5 : 0.33333333 : 1"
       inkscape:vp_z="1 : 0.5 : 1"
       inkscape:vp_y="0 : 1000 : 0"
       inkscape:vp_x="0 : 0.5 : 1"
       sodipodi:type="inkscape:persp3d" />
    <inkscape:perspective
       id="perspective6816"
       inkscape:persp3d-origin="0.5 : 0.33333333 : 1"
       inkscape:vp_z="1 : 0.5 : 1"
       inkscape:vp_y="0 : 1000 : 0"
       inkscape:vp_x="0 : 0.5 : 1"
       sodipodi:type="inkscape:persp3d" />
    <inkscape:perspective
       id="perspective6847"
       inkscape:persp3d-origin="0.5 : 0.33333333 : 1"
       inkscape:vp_z="1 : 0.5 : 1"
       inkscape:vp_y="0 : 1000 : 0"
       inkscape:vp_x="0 : 0.5 : 1"
       sodipodi:type="inkscape:persp3d" />
    <inkscape:perspective
       id="perspective6877"
       inkscape:persp3d-origin="0.5 : 0.33333333 : 1"
       inkscape:vp_z="1 : 0.5 : 1"
       inkscape:vp_y="0 : 1000 : 0"
       inkscape:vp_x="0 : 0.5 : 1"
       sodipodi:type="inkscape:persp3d" />
  </defs>
  <path
     style="fill:#ffffff;fill-opacity:1;stroke:none"
     d="m -1.5876605,-3.0202186 207.7153805,0 0,207.3483886 -207.7153805,0 0,-207.3483886 z"
     id="rect2881" />
  <path
     style="fill:none;stroke:#000000;stroke-width:2.99693632;stroke-miterlimit:4;stroke-opacity:1"
     d="m 21.467889,2.4041869 156.802311,0 c 10.23854,0 18.48111,8.3144241 18.48111,18.6422021 l 0,158.169131 c 0,10.32778 -8.24257,18.6422 -18.48111,18.6422 l -156.802311,0 c -10.23853,0 -18.4811103,-8.31442 -18.4811103,-18.6422 l 0,-158.169131 c 0,-10.327778 8.2425803,-18.6422021 18.4811103,-18.6422021 z"
     id="rect4614-9" />
  <path
     sodipodi:type="arc"
     style="fill:#000000;fill-opacity:1;stroke:#000000;stroke-width:7.2750001;stroke-linecap:round;stroke-linejoin:round;stroke-miterlimit:4;stroke-opacity:1;stroke-dasharray:none;stroke-dashoffset:0"
     id="path6631"
     sodipodi:cx="23.922606"
     sodipodi:cy="69.418091"
     sodipodi:rx="6.5813284"
     sodipodi:ry="6.8947248"
     d="m 30.503934,69.418091 a 6.5813284,6.8947248 0 1 1 -13.162657,0 6.5813284,6.8947248 0 1 1 13.162657,0 z"
     transform="matrix(0.79554304,0,0,0.79554304,69.659773,19.062502)" />
  <path
     style="fill:#000000"
     d="m 84.697314,183.38754 c -0.782257,-0.47704 -1.833974,-1.47538 -2.337148,-2.21854 -0.871948,-1.28784 -0.925814,-2.51476 -1.148568,-26.16264 l -0.233715,-24.81144 -6.443031,7.16649 -6.443031,7.1665 4.920351,8.467 c 2.706193,4.65684 5.145134,9.30176 5.419865,10.32203 1.20251,4.46578 -1.592738,8.31106 -6.046431,8.31776 -3.66505,0.006 -4.354836,-0.77881 -11.936115,-13.57197 -7.198762,-12.14768 -8.269419,-14.51307 -7.494364,-16.55716 0.244423,-0.64463 4.906001,-6.21227 10.359063,-12.37254 L 73.22884,117.93255 71.187322,106.33907 69.145805,94.745604 63.917034,82.290114 58.688259,69.834623 66.027558,59.488662 c 7.505284,-10.579943 8.618323,-11.719737 11.444603,-11.719737 3.295435,0 5.609156,2.471687 5.609156,5.992111 0,1.622752 -0.661165,2.700262 -5.796763,9.44708 l -5.796763,7.615416 1.619634,3.547305 c 0.890799,1.951013 2.487272,5.514791 3.547721,7.919506 1.060448,2.40471 2.197452,4.475568 2.526681,4.601905 0.329225,0.126333 4.09258,0.0037 8.363008,-0.272848 6.399476,-0.414203 8.035826,-0.389149 9.308305,0.142529 0.976413,0.407968 4.00611,3.411189 8.24268,8.17067 l 6.6988,7.525591 11.70255,0.0104 c 10.38186,0.009 11.81507,0.10153 12.69956,0.818 1.47481,1.19464 2.04128,2.59064 2.04128,5.03049 0,1.857 -0.23603,2.41693 -1.58926,3.77016 l -1.58926,1.58927 -13.49853,0 c -15.6977,0 -14.23814,0.42918 -19.55578,-5.75041 -1.72605,-2.00584 -3.229418,-3.55583 -3.340811,-3.44444 -0.111393,0.11139 -1.031412,4.69734 -2.044481,10.19098 l -1.841954,9.98846 -0.0054,27.27399 c -0.006,30.18336 0.05196,29.57693 -3.00632,31.44187 -1.868162,1.1392 -5.209915,1.14421 -7.068864,0.0106 l -3.6e-5,-2e-5 z m -61.45126,-65.74303 c -0.424568,-0.51157 -0.440868,-0.86078 -0.06151,-1.31788 0.395126,-0.4761 0.189389,-0.93491 -0.877624,-1.95717 -1.546142,-1.4813 -1.768844,-2.44807 -0.661787,-2.87289 0.453539,-0.17404 1.306008,0.27552 2.24115,1.18189 l 1.509197,1.46277 1.930204,-1.98522 1.930205,-1.98523 -2.002468,-2.19322 -2.002468,-2.19321 -1.549304,1.59847 c -1.18686,1.22453 -1.694248,1.47818 -2.168887,1.08427 -0.943449,-0.783 -0.754427,-1.49794 0.7863,-2.97405 l 1.405883,-1.34692 -1.479013,-1.52595 c -1.26211,-1.30217 -1.388901,-1.63454 -0.86456,-2.26633 0.548565,-0.66098 0.782135,-0.577847 2.178192,0.77526 l 1.563739,1.51564 1.87574,-1.83161 1.875739,-1.831613 -1.868081,-1.868078 -1.868081,-1.868083 -1.649592,1.598848 c -1.550987,1.503277 -1.696976,1.551464 -2.442298,0.806143 -0.745322,-0.745326 -0.697673,-0.890757 0.797139,-2.433013 l 1.589846,-1.640304 -1.589846,-1.640304 c -1.494812,-1.542256 -1.542461,-1.687688 -0.797139,-2.433014 0.745322,-0.745321 0.890929,-0.697503 2.435896,0.799941 l 1.64319,1.59264 2.101469,-2.062435 2.101468,-2.062435 -1.967877,-2.005124 -1.967877,-2.005119 -1.697379,1.657445 c -1.51402,1.4784 -1.763886,1.577313 -2.31304,0.91562 -0.526608,-0.634522 -0.388755,-0.975933 0.95303,-2.360305 l 1.56869,-1.61848 -1.826759,-1.87077 c -1.720485,-1.761939 -1.780454,-1.917079 -1.030813,-2.666719 0.74964,-0.74964 0.905318,-0.689141 2.675995,1.039877 l 1.880049,1.83582 1.868459,-1.868461 1.868458,-1.868456 -2.104733,-2.065642 -2.104734,-2.065637 -1.41387,1.354569 c -1.326266,1.270647 -1.462715,1.305732 -2.202195,0.566254 -0.739478,-0.739483 -0.710114,-0.869962 0.473922,-2.105827 1.505406,-1.571307 1.655549,-2.90235 0.327386,-2.90235 -0.779049,0 -0.934859,-0.311621 -0.934859,-1.869719 l 0,-1.869718 17.061182,0 c 9.383649,0 17.061181,0.09803 17.061181,0.217855 0,0.119821 -0.354475,0.961194 -0.787717,1.869718 -0.749678,1.572088 -0.902892,1.651864 -3.172539,1.651864 -1.993316,0 -2.395609,0.1433 -2.45057,0.87292 -0.03618,0.480102 0.757302,1.676609 1.763262,2.658904 l 1.829015,1.785987 1.08883,-1.022904 c 1.238852,-1.163839 1.772993,-1.260083 2.570012,-0.463064 0.434831,0.434831 0.27849,0.853503 -0.700158,1.874991 l -1.259998,1.315151 3.86253,3.780417 c 3.724535,3.645348 3.833568,3.812417 3.051787,4.676278 -0.797131,0.880815 -0.8293,0.878436 -1.915008,-0.141533 l -1.10426,-1.037399 -1.958619,1.958614 -1.958615,1.958614 2.07055,2.10974 2.07055,2.109734 1.75165,-1.710442 c 1.502917,-1.467556 1.857229,-1.622818 2.495153,-1.093383 0.663152,0.550365 0.55232,0.812846 -1.025465,2.428642 l -1.768974,1.811594 3.428727,3.269437 c 2.922025,2.786268 3.340514,3.375724 2.831815,3.988674 -0.348412,0.41981 -0.997667,0.61444 -1.559546,0.46751 -0.684317,-0.17896 -1.471445,0.24511 -2.72253,1.46675 l -1.759896,1.7185 1.964116,2.00128 1.964116,2.00129 1.085965,-1.02021 c 1.01523,-0.95375 1.136906,-0.96927 1.868008,-0.23817 0.731097,0.7311 0.715583,0.85278 -0.238174,1.86801 l -1.020212,1.08596 2.089981,2.05116 c 1.976652,1.93994 2.047753,2.09782 1.311299,2.91159 -0.747687,0.82619 -0.868176,0.77227 -3.027757,-1.35484 l -2.249084,-2.21526 -1.837634,1.79439 c -1.561734,1.525 -1.756821,1.9238 -1.299389,2.65627 0.767673,1.22924 -0.260966,2.26098 -1.489357,1.49384 -0.678395,-0.42366 -1.015122,-0.38049 -1.600877,0.20527 -0.617007,0.61701 -0.865647,0.63898 -1.478176,0.13062 -0.667961,-0.55436 -0.661754,-0.69363 0.06682,-1.49869 0.768604,-0.8493 0.717869,-0.9723 -1.177436,-2.85442 l -1.980654,-1.96687 -1.889416,2.01174 c -1.03918,1.10646 -1.778588,2.30055 -1.643132,2.65355 0.268786,0.70044 -0.939342,1.96192 -1.419298,1.48196 -0.162946,-0.16295 -0.589107,-0.0532 -0.947022,0.24381 -0.934286,0.77539 -2.402883,-0.67548 -1.628369,-1.60871 0.418017,-0.50368 0.106788,-1.0565 -1.461074,-2.59525 l -1.992236,-1.95523 -1.978474,2.01593 c -1.088162,1.10875 -1.838591,2.15579 -1.667622,2.32677 0.4624,0.4624 -0.816051,1.81317 -1.476297,1.55981 -0.313114,-0.12015 -0.806775,0.019 -1.097025,0.30927 -0.801379,0.80138 -2.274929,-0.78249 -1.545583,-1.6613 0.418379,-0.50412 0.08755,-1.07538 -1.558044,-2.69041 l -2.089207,-2.0504 -1.834063,1.79091 c -1.305719,1.275 -1.811032,2.14427 -1.754117,3.01753 0.06636,1.01808 -0.118714,1.22661 -1.088628,1.22661 -0.642715,0 -1.407669,0.15544 -1.699898,0.34542 -0.292228,0.18998 -0.791256,0.0322 -1.108951,-0.35057 z m 15.20285,-9.55774 -2.109826,-2.10983 -1.973674,1.97367 -1.973674,1.97368 2.071538,2.11074 2.071539,2.11075 2.011962,-1.9746 2.011962,-1.97459 -2.109827,-2.10982 z m 11.348507,4.05196 1.967963,-2.00521 -2.006129,-1.96887 -2.006127,-1.96886 -2.064035,2.1031 -2.064035,2.1031 1.826958,1.87097 c 1.004826,1.02904 1.950816,1.87097 2.102201,1.87097 0.151383,0 1.160824,-0.90234 2.243204,-2.0052 z m 10.98605,-0.2347 1.730779,-1.77249 -2.006376,-1.96911 -2.006381,-1.96911 -1.827837,1.87187 -1.827836,1.87188 1.825733,1.86972 c 1.004151,1.02834 1.950696,1.86971 2.103433,1.86971 0.152738,0 1.056555,-0.79761 2.008485,-1.77247 z m -28.184544,-9.21212 -2.076906,-2.11622 -1.869718,1.86972 -1.869719,1.86972 2.076906,2.11621 2.076906,2.11622 1.869718,-1.86972 1.869719,-1.86972 -2.076906,-2.11621 z m 11.589339,3.83766 1.967962,-2.00521 -2.104354,-2.06526 -2.104354,-2.06527 -2.104354,2.06527 -2.104355,2.06526 1.967962,2.00521 c 1.082379,1.10286 2.090715,2.00521 2.240747,2.00521 0.150031,0 1.158367,-0.90235 2.240746,-2.00521 z m 10.834018,-3.86266 -2.090168,-2.14122 -1.7429,2.01043 -1.742896,2.01042 1.96335,2.00051 1.963349,2.00051 1.869718,-1.86972 1.869719,-1.86972 -2.090172,-2.14121 z m -16.443173,-1.7465 1.967961,-2.005203 -2.104354,-2.065268 -2.104354,-2.065267 -2.104354,2.065267 -2.104354,2.065268 1.967962,2.005203 c 1.082379,1.10287 2.090715,2.00521 2.240746,2.00521 0.150032,0 1.158367,-0.90234 2.240747,-2.00521 z m 10.847283,-3.837658 -2.076906,-2.116213 -1.869719,1.869719 -1.869718,1.869718 2.076906,2.116214 2.076905,2.11621 1.86972,-1.86972 1.869718,-1.869715 -2.076906,-2.116213 z m 11.079199,4.348888 c 0.847772,-0.82169 1.541401,-1.760917 1.541401,-2.087169 0,-0.768108 -2.744093,-3.897723 -3.417579,-3.897723 -0.283884,0 -1.314782,0.779837 -2.290882,1.732972 l -1.774723,1.732972 1.969197,2.006468 c 1.083058,1.10355 2.073144,2.00646 2.200191,2.00646 0.127047,0 0.924627,-0.67229 1.772395,-1.49398 z m -27.692727,-10.197788 -1.87647,-1.876469 -2.069402,2.108566 -2.069402,2.108571 1.834784,1.878987 1.834785,1.878993 2.111088,-2.11109 2.111087,-2.111085 -1.87647,-1.876473 z m 10.95686,0.191333 -2.029394,-2.067802 -1.869718,1.869719 -1.869719,1.869719 2.09017,2.133442 2.09017,2.133447 1.808942,-1.93536 1.808942,-1.935364 -2.029393,-2.067801 z m 11.500763,4.020306 1.826958,-1.870971 -2.064034,-2.103102 -2.064034,-2.103097 -2.006128,1.968865 -2.006129,1.968865 1.967963,2.005208 c 1.08238,1.102863 2.091823,2.005208 2.243204,2.005208 0.151382,0 1.097376,-0.841939 2.1022,-1.870976 z m -5.9414,-9.680197 -1.968867,-2.006128 -2.006127,1.968865 -2.006128,1.968865 1.968865,2.006128 1.968866,2.006129 2.006127,-1.968865 2.006129,-1.968865 -1.968865,-2.006129 z m -10.981013,3.700846 1.73201,-1.773736 -1.870861,-1.826846 -1.870861,-1.826851 -1.870861,1.826851 -1.870861,1.826846 1.73201,1.773736 c 0.952606,0.975559 1.856976,1.773742 2.009712,1.773742 0.152736,0 1.057107,-0.798183 2.009712,-1.773742 z m -5.631515,-9.079475 -1.972053,-1.972053 -1.879523,1.835307 -1.879524,1.835306 1.975467,2.012855 1.975468,2.012855 1.876108,-1.876108 1.876108,-1.876109 -1.972051,-1.972053 z m 11.004275,-0.229606 c -1.082379,-1.102863 -2.015256,-2.005207 -2.073059,-2.005207 -0.05781,0 -0.888637,0.956206 -1.846296,2.124902 l -1.741198,2.124902 1.806872,1.850405 1.806872,1.850404 2.007386,-1.970099 2.007385,-1.970099 -1.967962,-2.005208 z m 11.062825,4.089991 1.807555,-1.851106 -1.904234,-2.065852 -1.904238,-2.065852 -2.007979,2.045982 -2.00798,2.045986 1.826958,1.870971 c 1.004824,1.029037 1.951921,1.870976 2.104658,1.870976 0.152737,0 1.091102,-0.832997 2.08526,-1.851105 z m -16.334393,-5.635421 1.833201,-1.877365 -1.972053,-1.972053 -1.972052,-1.972053 -1.972052,1.972053 -1.972052,1.972053 1.833201,1.877365 c 1.008261,1.032557 1.958167,1.877371 2.110903,1.877371 0.152736,0 1.102643,-0.844814 2.110904,-1.877371 z m 10.880723,-0.127837 1.967963,-2.005208 -2.006129,-1.968865 -2.006127,-1.968865 -2.064035,2.103097 -2.064034,2.103101 1.826957,1.870972 c 1.004827,1.029037 1.950817,1.870976 2.102201,1.870976 0.151384,0 1.160824,-0.902345 2.243204,-2.005208 z M 34.592758,70.629707 c -0.204511,-0.782052 -0.685877,-0.891589 -3.918076,-0.891589 -4.457273,0 -4.71814,0.547842 -1.716976,3.605808 l 1.967945,2.005189 1.950131,-1.913909 c 1.342345,-1.317413 1.877465,-2.191787 1.716976,-2.805499 z m 10.960841,-0.0208 c -0.05784,-0.767838 -0.488402,-0.870784 -3.64174,-0.870784 -4.2332,0 -4.469099,0.464415 -1.834068,3.61073 l 1.636004,1.953445 1.952699,-1.911301 c 1.073984,-1.051217 1.923182,-2.303157 1.887105,-2.78209 z M 170.23725,117.85151 c -0.16972,-0.27462 -0.58306,-0.39398 -0.91853,-0.26524 -0.70204,0.2694 -2.26385,-1.25303 -1.78089,-1.73599 0.17667,-0.17667 -0.49709,-1.15924 -1.49725,-2.1835 l -1.81847,-1.86228 -1.7748,1.73305 c -1.1604,1.13311 -1.68694,2.00986 -1.52101,2.53267 0.30978,0.97601 -0.49327,1.53599 -2.3551,1.64224 -1.83097,0.10449 -2.79332,-0.63383 -2.02804,-1.55594 0.44825,-0.5401 0.18095,-1.04135 -1.39652,-2.61882 l -1.95088,-1.95088 -1.95088,1.95088 c -1.57747,1.57747 -1.84477,2.07872 -1.39652,2.61882 0.74911,0.90263 -0.60085,2.17244 -1.42907,1.34422 -0.38598,-0.38598 -0.69812,-0.39045 -1.14877,-0.0165 -0.95657,0.79389 -2.24224,-0.40721 -1.45335,-1.35776 0.48368,-0.5828 0.20328,-1.02409 -1.69963,-2.67492 -1.407,-1.2206 -2.14751,-2.18952 -1.93552,-2.53252 0.18884,-0.30555 0.12112,-0.82331 -0.15048,-1.15057 -0.36978,-0.44555 0.0898,-1.16985 1.82941,-2.88333 l 2.32324,-2.2883 -1.95885,-1.99593 c -1.85176,-1.88681 -2.00589,-1.95337 -2.81907,-1.21745 -0.80279,0.72651 -0.91273,0.72596 -1.64697,-0.008 -0.73739,-0.73739 -0.73651,-0.837 0.0141,-1.587569 0.75613,-0.756129 0.69109,-0.91261 -1.16565,-2.80449 l -1.96646,-2.003679 -1.77516,1.733398 c -1.67189,1.632558 -1.82147,1.687098 -2.57111,0.937458 -0.74964,-0.74964 -0.6951,-0.899218 0.93746,-2.571111 l 1.7334,-1.775162 -2.00512,-1.967874 -2.00513,-1.967879 -2.06403,2.103097 -2.06403,2.103101 1.75362,1.79587 c 1.56253,1.600175 1.67279,1.862964 1.01179,2.411535 -0.63367,0.5259 -0.96376,0.400549 -2.26407,-0.859758 -0.83725,-0.811472 -1.71372,-1.475409 -1.94773,-1.475409 -0.234,0 -1.21375,0.769735 -2.1772,1.710526 -1.50424,1.468847 -1.85696,1.623211 -2.49639,1.092519 -0.66329,-0.550473 -0.5265,-0.840294 1.25169,-2.65214 l 1.99635,-2.034132 -2.12047,-2.120467 -2.12046,-2.120466 -2.0735,1.840761 -2.07349,1.840762 1.97455,2.342635 c 1.72094,2.041756 1.8832,2.418453 1.2633,2.932925 -0.59742,0.495817 -1.04304,0.264668 -2.78431,-1.444259 l -2.07305,-2.034549 -1.10667,1.039657 c -0.99081,0.930816 -1.17013,0.963191 -1.71285,0.309242 -0.50769,-0.611729 -0.44398,-0.903092 0.39209,-1.79305 l 0.99829,-1.062627 -1.99859,-1.961465 c -1.8636,-1.828992 -2.05109,-1.908964 -2.77594,-1.184112 -0.64799,0.647984 -0.89991,0.675642 -1.51375,0.166195 -0.66717,-0.553699 -0.65839,-0.697854 0.0934,-1.533431 0.80701,-0.896956 0.74956,-0.996196 -2.09164,-3.613718 -1.60679,-1.480288 -2.92144,-2.849437 -2.92144,-3.042551 0,-0.193113 1.27903,-1.534174 2.84227,-2.980135 l 2.84227,-2.62902 -1.88658,-1.827384 c -1.62273,-1.571816 -1.99083,-1.740862 -2.63201,-1.208726 -0.62546,0.519081 -0.87009,0.493998 -1.51995,-0.155855 -0.60494,-0.604943 -0.65097,-0.898045 -0.21025,-1.338765 0.75518,-0.75518 0.71942,-2.247 -0.0539,-2.247 -0.33996,0 -1.168979,-0.841373 -1.842255,-1.869719 l -1.224142,-1.869718 41.573777,0 41.57377,0 0,1.608416 c 0,0.884629 0.22056,1.744732 0.49013,1.911334 0.33505,0.207076 0.31694,0.511583 -0.0572,0.962447 -0.3978,0.479316 -0.40778,0.82771 -0.0366,1.275026 0.39222,0.4726 -0.0289,1.147105 -1.81392,2.905281 l -2.32474,2.289784 2.23361,2.353302 c 1.22849,1.294318 2.22591,2.715766 2.2165,3.158778 -0.009,0.443011 -1.05923,1.863497 -2.33293,3.156636 l -2.31581,2.351167 2.77384,2.803086 2.77384,2.803092 -2.6751,2.703309 -2.6751,2.703309 2.33916,2.303992 c 1.28654,1.26719 2.33917,2.63531 2.33917,3.04027 0,0.40496 -1.05172,1.77219 -2.33715,3.03829 -1.28543,1.26611 -2.33715,2.42568 -2.33715,2.57685 0,0.15116 1.04819,1.45088 2.32932,2.88827 2.03285,2.28081 2.23802,2.6892 1.61198,3.20877 -0.60746,0.50415 -1.1081,0.20941 -3.26875,-1.92439 l -2.55142,-2.51973 -1.9463,1.9463 c -1.65802,1.65802 -1.85657,2.05442 -1.34048,2.67627 0.48442,0.58369 0.48921,0.87048 0.0239,1.43112 -0.68572,0.82624 -1.22887,0.89246 -1.65569,0.20185 l 4e-5,-2.4e-4 z m -20.4108,-9.64959 -1.96887,-2.00613 -2.00613,1.96886 -2.00612,1.96887 1.96886,2.00613 1.96887,2.00613 2.00612,-1.96887 2.00613,-1.96886 -1.96886,-2.00613 z m 10.98695,3.70211 1.73078,-1.77249 -2.00638,-1.96911 -2.00638,-1.96911 -1.82783,1.87187 -1.82784,1.87188 1.82573,1.86972 c 1.00415,1.02834 1.9507,1.86971 2.10344,1.86971 0.15273,0 1.05655,-0.79761 2.00848,-1.77247 z m 10.84583,-0.0972 1.82573,-1.86972 -1.82783,-1.87188 -1.82784,-1.87187 -2.00638,1.96911 -2.00638,1.96911 1.73078,1.77249 c 0.95193,0.97486 1.85575,1.77247 2.00849,1.77247 0.15273,0 1.09928,-0.84137 2.10343,-1.86971 z m -16.47612,-8.9835 -1.97205,-1.97205 -1.87953,1.8353 -1.87952,1.83531 1.97547,2.01285 1.97547,2.01286 1.87611,-1.87611 1.87611,-1.87611 -1.97206,-1.97205 z m 11.00338,-0.23053 -1.96887,-2.00613 -2.00613,1.96887 -2.00613,1.96886 1.96887,2.00613 1.96886,2.00613 2.00613,-1.96887 2.00613,-1.96886 -1.96886,-2.00613 z m 11.0819,3.60487 1.82573,-1.86972 -1.82784,-1.87187 -1.82783,-1.87188 -2.00638,1.96912 -2.00638,1.96911 1.73078,1.77248 c 0.95193,0.97486 1.85575,1.77248 2.00848,1.77248 0.15274,0 1.09929,-0.84137 2.10344,-1.86972 z m -27.69443,-8.983498 -1.97206,-1.972052 -1.87952,1.835306 -1.87952,1.835306 1.97546,2.012858 1.97547,2.01285 1.87611,-1.87611 1.87611,-1.876105 -1.97205,-1.972053 z m 11.34186,3.834118 1.8332,-1.877364 -1.97205,-1.972052 -1.97205,-1.972053 -1.97206,1.972053 -1.97205,1.972052 1.8332,1.877364 c 1.00826,1.03256 1.95817,1.87737 2.11091,1.87737 0.15273,0 1.10264,-0.84481 2.1109,-1.87737 z m 10.87982,-4.064644 -1.96886,-2.006129 -2.00613,1.968865 -2.00613,1.968865 1.96886,2.006133 1.96887,2.00612 2.00613,-1.96886 2.00613,-1.968866 -1.96887,-2.006128 z m -27.83084,-5.378629 -1.97205,-1.972053 -1.87953,1.835306 -1.87952,1.835307 1.97547,2.012855 1.97547,2.012854 1.87611,-1.876108 1.8761,-1.876108 -1.97205,-1.972053 z m 11.34186,3.834119 1.83321,-1.877365 -1.97206,-1.972053 -1.97205,-1.972053 -1.97205,1.972053 -1.97206,1.972053 1.83321,1.877365 c 1.00826,1.032557 1.95816,1.877371 2.1109,1.877371 0.15274,0 1.10264,-0.844814 2.1109,-1.877371 z m 11.21831,0 1.83321,-1.877365 -1.97206,-1.972053 -1.97205,-1.972053 -1.97205,1.972053 -1.97205,1.972053 1.8332,1.877365 c 1.00826,1.032557 1.95816,1.877371 2.1109,1.877371 0.15274,0 1.10264,-0.844814 2.1109,-1.877371 z m 12.37942,-2.051534 c 0,-0.619354 -2.85705,-3.549969 -3.46085,-3.549969 -0.26009,0 -1.27151,0.779836 -2.24761,1.732972 l -1.77472,1.732972 1.96911,2.006381 1.96911,2.006376 1.77248,-1.73078 c 0.97486,-0.95193 1.77248,-1.941011 1.77248,-2.197952 z m -51.43632,-7.529876 -2.11018,-2.110187 -2.071,2.110187 -2.07099,2.110188 2.07099,2.110188 2.071,2.110188 2.11018,-2.110188 2.11019,-2.110188 -2.11019,-2.110188 z m -11.29655,-0.09239 -1.96887,-2.006128 -2.00613,1.968865 -2.00613,1.968865 1.96887,2.006128 1.96886,2.006129 2.00613,-1.968865 2.00613,-1.968865 -1.96886,-2.006129 z m 22.18413,0.230527 -1.97206,-1.972053 -1.87952,1.835307 -1.87952,1.835306 1.97546,2.012855 1.97547,2.012855 1.87611,-1.876109 1.87611,-1.876108 -1.97205,-1.972053 z m 11.34186,3.83412 1.8332,-1.877366 -1.97205,-1.972053 -1.97205,-1.972053 -1.97206,1.972053 -1.97205,1.972053 1.8332,1.877366 c 1.00826,1.032557 1.95817,1.87737 2.11091,1.87737 0.15273,0 1.10264,-0.844813 2.1109,-1.87737 z m 11.21831,0 1.8332,-1.877366 -1.97205,-1.972053 -1.97205,-1.972053 -1.97206,1.972053 -1.97205,1.972053 1.8332,1.877366 c 1.00826,1.032557 1.95817,1.87737 2.11091,1.87737 0.15273,0 1.10264,-0.844813 2.1109,-1.87737 z m 11.21831,0 1.8332,-1.877366 -1.97205,-1.972053 -1.97205,-1.972053 -1.97206,1.972053 -1.97205,1.972053 1.8332,1.877366 c 1.00826,1.032557 1.95817,1.87737 2.11091,1.87737 0.15273,0 1.10264,-0.844813 2.1109,-1.87737 z m 5.48471,-9.444173 -1.97368,-1.973675 -2.11074,2.071541 -2.11075,2.071536 1.9746,2.011962 1.97459,2.011962 2.10982,-2.109823 2.10983,-2.109828 -1.97367,-1.973675 z m -66.72424,3.841411 1.82696,-1.870971 -2.06403,-2.103101 -2.06404,-2.103097 -2.00612,1.968865 -2.00613,1.968865 1.96796,2.005208 c 1.08238,1.102863 2.09182,2.005207 2.2432,2.005207 0.15139,0 1.09738,-0.841939 2.1022,-1.870976 z m 10.88697,-0.134231 1.96797,-2.005208 -2.00613,-1.968865 -2.00613,-1.968865 -1.97482,2.012191 -1.97481,2.012191 1.6793,1.961882 c 0.92361,1.079033 1.82945,1.961881 2.01298,1.961881 0.18352,0 1.21926,-0.902344 2.30164,-2.005207 z m 11.45348,0.232728 1.73078,-1.772484 -2.10209,-2.063042 -2.10209,-2.063048 -1.87313,1.829062 -1.87313,1.829061 1.9692,2.006465 c 1.08306,1.103555 2.09306,2.006465 2.24444,2.006465 0.15138,0 1.05409,-0.797617 2.00602,-1.772479 z m 10.8533,-0.104891 1.83321,-1.877366 -1.97206,-1.972053 -1.97205,-1.972053 -1.97205,1.972053 -1.97206,1.972053 1.83321,1.877366 c 1.00826,1.032557 1.95816,1.87737 2.1109,1.87737 0.15274,0 1.10264,-0.844813 2.1109,-1.87737 z m 11.21831,0 1.83321,-1.877366 -1.97206,-1.972053 -1.97205,-1.972053 -1.97205,1.972053 -1.97206,1.972053 1.83321,1.877366 c 1.00826,1.032557 1.95816,1.87737 2.1109,1.87737 0.15274,0 1.10264,-0.844813 2.1109,-1.87737 z m 11.21207,0.0064 1.82696,-1.870971 -2.0602,-2.099194 -2.06021,-2.099194 -1.34812,1.282445 c -2.44477,2.325677 -2.49656,2.811631 -0.51587,4.840047 0.9763,0.999804 1.90004,1.817833 2.05278,1.817833 0.15274,0 1.09984,-0.841939 2.10466,-1.870976 l 0,1e-5 z m 5.35516,-9.587805 -2.11019,-2.110188 -2.07099,2.110188 -2.071,2.110188 2.071,2.110188 2.07099,2.110187 2.11019,-2.110187 2.11019,-2.110188 -2.11019,-2.110188 z m -55.37013,3.978649 1.82696,-1.870971 -2.06404,-2.103102 -2.06403,-2.103097 -2.00613,1.968866 -2.00613,1.968865 1.96797,2.005207 c 1.08238,1.102863 2.09182,2.005208 2.2432,2.005208 0.15138,0 1.09738,-0.841939 2.1022,-1.870976 z m 10.63357,-3.840514 -1.97205,-1.972053 -1.87952,1.835306 -1.87952,1.835307 1.97546,2.012855 1.97547,2.012855 1.87611,-1.876109 1.87611,-1.876108 -1.97206,-1.972053 z m 11.47171,3.706282 1.96796,-2.005207 -2.00613,-1.968865 -2.00612,-1.968866 -2.06404,2.103097 -2.06403,2.103102 1.82696,1.870971 c 1.00482,1.029037 1.95081,1.870976 2.1022,1.870976 0.15138,0 1.16082,-0.902345 2.2432,-2.005208 z m 11.08847,0.127838 1.8332,-1.877366 -1.97205,-1.972053 -1.97205,-1.972053 -1.97206,1.972053 -1.97205,1.972053 1.8332,1.877366 c 1.00826,1.032547 1.95817,1.877361 2.11091,1.877361 0.15273,0 1.10264,-0.844814 2.1109,-1.877371 l 0,1e-5 z m 11.21831,0 1.8332,-1.877366 -1.97205,-1.972053 -1.97205,-1.972053 -1.97206,1.972053 -1.97205,1.972053 1.8332,1.877366 c 1.00826,1.032547 1.95817,1.877361 2.11091,1.877361 0.15273,0 1.10264,-0.844814 2.1109,-1.877371 l 0,1e-5 z m 7.10434,-8.002737 c -0.0583,-0.77382 -0.49534,-0.870784 -3.9246,-0.870784 -4.43246,0 -4.49244,0.135877 -1.59924,3.622678 l 1.64845,1.986674 1.97049,-1.933892 c 1.08378,-1.063641 1.94098,-2.325743 1.9049,-2.804676 z m 11.35166,-0.03325 c 0,-0.73809 -0.4625,-0.837536 -3.89525,-0.837536 -4.68821,0 -4.98992,0.539704 -2.02563,3.623501 l 1.91046,1.987496 2.00521,-1.967963 c 1.10286,-1.08238 2.00521,-2.344851 2.00521,-2.805498 z m -66.84244,-0.233715 c 0,-0.443156 -0.99498,-0.603821 -3.73943,-0.603821 -4.44462,0 -4.76796,0.543284 -2.00647,3.371313 l 1.73297,1.774723 2.00647,-1.969197 c 1.10355,-1.083058 2.00646,-2.240914 2.00646,-2.573018 z m 9.39112,2.860375 c 1.16377,-1.136392 1.64259,-1.96571 1.48434,-2.570863 -0.20507,-0.784188 -0.68382,-0.893333 -3.91853,-0.893333 -2.57495,0 -3.68492,0.170668 -3.68492,0.566595 0,0.538909 3.67671,4.575131 4.16763,4.575131 0.12844,0 1.00661,-0.75489 1.95148,-1.67753 z m 10.9357,-0.185663 c 2.87177,-2.94096 2.68367,-3.278533 -1.8268,-3.278533 -3.35118,0 -3.85648,0.1067 -3.87375,0.818002 -0.0182,0.750023 2.96019,4.323724 3.60349,4.323724 0.15274,0 1.09641,-0.838438 2.09706,-1.863193 z m 11.08812,0.132324 c 0.97491,-0.951976 1.77257,-2.108865 1.77257,-2.570863 0,-0.738375 -0.45239,-0.839994 -3.73944,-0.839994 -3.21458,0 -3.73944,0.112048 -3.73944,0.798295 0,0.707894 3.09508,4.343431 3.69774,4.343431 0.1298,0 1.03366,-0.778892 2.00857,-1.730869 z m 11.21831,0 c 0.97491,-0.951976 1.77257,-2.108865 1.77257,-2.570863 0,-0.738375 -0.45239,-0.839994 -3.73944,-0.839994 -3.21458,0 -3.73944,0.112048 -3.73944,0.798295 0,0.707894 3.09508,4.343431 3.69774,4.343431 0.1298,0 1.03366,-0.778892 2.00857,-1.730869 z M 106.4528,46.525827 c -4.15146,-1.442828 -7.656242,-4.931929 -9.146623,-9.105713 -1.16841,-3.272106 -0.978241,-8.758335 0.408594,-11.787578 1.571139,-3.431825 4.100849,-6.096594 7.260699,-7.64833 2.27304,-1.116247 3.2058,-1.297626 6.61905,-1.287104 3.61148,0.01113 4.24059,0.156148 6.91105,1.593046 5.52013,2.970216 8.28435,7.58769 8.27451,13.822078 -0.007,4.717204 -1.48709,8.056957 -4.94825,11.168842 -4.15006,3.731255 -10.26626,5.021687 -15.37903,3.244759 z m 4.07445,-4.158652 c 0.68731,-1.965593 0.92585,-6.390187 0.42891,-7.955892 -0.16518,-0.520443 -0.99765,-1.198416 -1.84994,-1.506607 -1.93285,-0.698928 -5.1596,-3.429096 -6.91212,-5.848383 l -1.33066,-1.836924 -0.51181,1.341897 c -0.28149,0.738045 -0.680362,2.240571 -0.886367,3.338949 -0.333638,1.778863 -0.225629,2.202637 0.988557,3.878777 1.66824,2.302939 4.96996,4.464289 7.46323,4.885524 1.39324,0.235386 1.81861,0.507558 1.6983,1.086647 -0.30708,1.47802 -4.97412,0.281385 -8.2506,-2.115465 l -1.1149,-0.815581 0.72445,1.384395 c 0.39844,0.761416 1.426,2.056109 2.28347,2.877094 1.56177,1.495328 5.38864,3.50981 6.19539,3.261286 0.23623,-0.07277 0.71957,-0.961842 1.07409,-1.975717 z m 6.24089,0.944676 c 2.44085,-1.262212 3.03258,-7.58672 1.14519,-12.239923 l -0.80026,-1.972962 -1.70756,0.871507 c -2.33403,1.191247 -3.4131,2.443583 -2.85964,3.318808 0.65709,1.039104 0.49917,7.451512 -0.23416,9.508672 l -0.64408,1.806757 1.88223,-0.300981 c 1.03523,-0.16554 2.48346,-0.611885 3.21828,-0.991878 z m 6.76171,-7.430364 c 0.76691,-2.579741 0.88004,-5.311019 0.26051,-6.289289 -0.22575,-0.356463 -1.48506,-0.751371 -2.79846,-0.877572 l -2.38801,-0.229458 0.79068,1.812432 c 0.55704,1.276877 0.79907,3.16958 0.81904,6.405314 l 0.0284,4.592882 1.3013,-1.55459 c 0.71572,-0.855024 1.60967,-2.591898 1.98657,-3.859719 l -3e-5,0 z m -12.1252,-5.455907 c 0.48944,-0.540817 1.82576,-1.531762 2.9696,-2.2021 1.7072,-1.000486 2.68237,-1.222056 5.44419,-1.236986 l 3.36447,-0.01819 -0.61259,-1.168574 c -0.33692,-0.642716 -1.35388,-1.880995 -2.2599,-2.751731 -1.4849,-1.427061 -1.85092,-1.560208 -3.71223,-1.350411 -1.1357,0.12801 -3.22465,0.76369 -4.6421,1.412622 -2.5219,1.154564 -6.43815,4.251573 -6.43815,5.091353 0,0.412688 4.08947,3.207322 4.69336,3.207322 0.16691,0 0.70392,-0.442487 1.19335,-0.983305 z m -0.59349,-8.868578 c 1.58774,-0.751129 3.20231,-1.380639 3.58794,-1.398911 1.28401,-0.06084 -1.09341,-0.835023 -2.67019,-0.869521 -1.76676,-0.03866 -6.04451,1.510295 -7.37955,2.67209 -2.0438,1.778598 -2.18133,2.211671 -1.12773,3.5511 l 0.98047,1.246476 1.86114,-1.917773 c 1.02362,-1.054775 3.16019,-2.532333 4.74792,-3.283461 z"
     id="path6883"
     sodipodi:nodetypes="cscccccsssscccccccsscccsssscccsscccsscccscccssscccccccscccscccccccscccscccccccscccscccccccssscccsssscccscccscccccccscccsscccccscccscccssssscccsssscccsssscccssscccccccccccccccccsccccccccscccccccccccccccccscccccccccccccccccscccccccccccsscccsccccccccccccccccccccccccccscccccccccccccccccscccccccccccsccccccccccccccsccccccccsccccccccsccscccccscccccsscccssscccssssssscccssscccscccccccssssscccccccscccscccssssscccsssscccccssscccscccccccssssscccssccccccccccccccccccsccccccccsccccccccccccccccccccccccccscccccccccccccccccsccccccccccccccccccccccccccsccccccccsccsccccccccccccccccccccccccccccccccccccccccsccccccccsccccccccscccccccccccccccccsccccccccsccccccccsccccccccsccccccccsccccccssccccccccccccccccccscccccccccccccccccsccccccccscccccccccscccscccccscccccscccccssssccsssccssssccssssccsssssssccsscccsssscccsscccccscccccscccccccccscccsssssccssscccc" />
</svg>
