<?xml version="1.0" encoding="UTF-8" standalone="no"?>
<!-- Created with Inkscape (http://www.inkscape.org/) -->

<svg
   xmlns:dc="http://purl.org/dc/elements/1.1/"
   xmlns:cc="http://creativecommons.org/ns#"
   xmlns:rdf="http://www.w3.org/1999/02/22-rdf-syntax-ns#"
   xmlns:svg="http://www.w3.org/2000/svg"
   xmlns="http://www.w3.org/2000/svg"
   xmlns:sodipodi="http://sodipodi.sourceforge.net/DTD/sodipodi-0.dtd"
   xmlns:inkscape="http://www.inkscape.org/namespaces/inkscape"
   width="4500"
   height="3500"
   id="svg13087"
   version="1.1"
   inkscape:version="0.48.5 r10040"
   sodipodi:docname="Nuovo documento 28">
  <defs
     id="defs13089" />
  <sodipodi:namedview
     id="base"
     pagecolor="#ffffff"
     bordercolor="#666666"
     borderopacity="1.0"
     inkscape:pageopacity="0.0"
     inkscape:pageshadow="2"
     inkscape:zoom="0.030935922"
     inkscape:cx="7942.5047"
     inkscape:cy="-716.97018"
     inkscape:document-units="px"
     inkscape:current-layer="layer1"
     showgrid="false"
     fit-margin-top="0"
     fit-margin-left="0"
     fit-margin-right="0"
     fit-margin-bottom="0"
     inkscape:window-width="1366"
     inkscape:window-height="705"
     inkscape:window-x="-8"
     inkscape:window-y="-8"
     inkscape:window-maximized="1" />
  <metadata
     id="metadata13092">
    <rdf:RDF>
      <cc:Work
         rdf:about="">
        <dc:format>image/svg+xml</dc:format>
        <dc:type
           rdf:resource="http://purl.org/dc/dcmitype/StillImage" />
        <dc:title></dc:title>
      </cc:Work>
    </rdf:RDF>
  </metadata>
  <g
     inkscape:label="Livello 1"
     inkscape:groupmode="layer"
     id="layer1"
     transform="translate(0,2447.6377)">
    <rect
       style="fill:#08842c;fill-opacity:1;stroke:none"
       id="rect13711"
       width="4500"
       height="3500"
       x="0"
       y="-2447.6377"
       rx="0"
       ry="0" />
    <g
       style="font-size:476.52716064px;font-style:normal;font-weight:normal;line-height:125%;letter-spacing:0px;word-spacing:0px;fill:#ffffff;fill-opacity:1;stroke:none;font-family:Sans"
       id="text13683-1">
      <path
         d="m 1601.845,-1456.0185 -78.1511,0 -162.0175,-232.0685 0,232.0685 -66.7208,0 0,-335 78.1512,0 162.032,233.4937 0,-233.4937 66.7062,0 z"
         style="font-variant:normal;font-stretch:normal;fill:#ffffff;font-family:CodiceBianco;-inkscape-font-specification:CodiceBianco"
         id="path13930" />
      <path
         d="m 1752.374,-1791.0185 96.2565,0 113.882,335 -73.8612,0 -19.0506,-56.2357 -136.7718,0 -18.5852,56.2357 -71.4762,0 z m 48.121,75.2863 -46.6959,141.0618 95.3113,0 z"
         style="font-variant:normal;font-stretch:normal;fill:#ffffff;font-family:CodiceBianco;-inkscape-font-specification:CodiceBianco"
         id="path13932" />
      <path
         d="m 2154.6183,-1791.0185 c 28.2703,4e-4 53.3658,10.0104 75.2863,30.0302 23.51,21.9206 35.2652,49.0811 35.2655,81.4814 -3e-4,31.1307 -11.9154,57.3411 -35.7454,78.631 -21.9206,20.0106 -46.856,30.0158 -74.8064,30.0156 l -76.726,0 0,115.3217 -70.5163,0 0,-335.4799 z m -76.726,59.5659 0,99.1214 71.9561,0 c 11.4399,2e-4 21.765,-5.0824 30.9754,-15.2478 9.21,-10.1649 13.8151,-20.9675 13.8154,-32.4078 -3e-4,-14.2902 -5.0804,-26.6803 -15.2405,-37.1705 -9.2105,-9.5299 -19.0605,-14.295 -29.5503,-14.2953 z"
         style="font-variant:normal;font-stretch:normal;fill:#ffffff;font-family:CodiceBianco;-inkscape-font-specification:CodiceBianco"
         id="path13934" />
      <path
         d="m 2623.7433,-1625.6562 c -3e-4,53.6812 -15.4056,96.5668 -46.2159,128.6571 -29.5408,30.5004 -67.6614,45.7506 -114.3619,45.7505 -46.7008,10e-5 -84.6662,-15.2501 -113.8965,-45.7505 -30.8106,-32.0903 -46.2159,-74.9759 -46.2159,-128.6571 0,-52.4205 16.9953,-94.516 50.9859,-126.2867 30.5002,-28.2702 66.8757,-42.4054 109.1265,-42.4058 42.2505,4e-4 78.626,14.1356 109.1266,42.4058 34.3005,31.7707 51.4509,73.8662 51.4512,126.2867 z m -73.3812,0 c -3e-4,-31.4503 -8.0204,-56.5481 -24.0605,-75.2936 -16.0405,-18.7449 -37.0859,-28.1175 -63.1361,-28.1178 -26.0505,3e-4 -46.9383,9.3729 -62.6634,28.1178 -15.7253,18.7455 -23.5879,43.8433 -23.5879,75.2936 0,32.7207 6.6701,58.2911 20.0105,76.7114 14.9301,20.9703 37.0104,31.4554 66.2408,31.4554 29.5404,0 51.7758,-10.4851 66.7063,-31.4554 13.6599,-18.7402 20.49,-44.3107 20.4903,-76.7114 z"
         style="font-variant:normal;font-stretch:normal;fill:#ffffff;font-family:CodiceBianco;-inkscape-font-specification:CodiceBianco"
         id="path13936" />
      <path
         d="m 2746.947,-1516.5296 153.9174,0 0,60.5111 -219.6783,0 0,-335 65.7609,0 z"
         style="font-variant:normal;font-stretch:normal;fill:#ffffff;font-family:CodiceBianco;-inkscape-font-specification:CodiceBianco"
         id="path13938" />
      <path
         d="m 3024.4753,-1791.0185 0,335 -69.0913,0 0,-335 z"
         style="font-variant:normal;font-stretch:normal;fill:#ffffff;font-family:CodiceBianco;-inkscape-font-specification:CodiceBianco"
         id="path13940" />
    </g>
    <g
       style="font-size:476.52716064px;font-style:normal;font-weight:normal;line-height:125%;letter-spacing:0px;word-spacing:0px;fill:#ffffff;fill-opacity:1;stroke:none;font-family:Sans"
       id="text13734">
      <path
         d="m 2799.3444,-101.22062 c 20.3301,3.5e-4 39.2353,8.58039 56.7155,25.740142 18.7401,18.100818 28.1103,38.746236 28.1106,61.936315 -3e-4,24.470345 -11.1204,47.345604 -33.3604,68.625844 31.4502,17.160277 47.1754,44.165589 47.1757,81.016019 -3e-4,24.14056 -7.4654,45.42585 -22.3953,63.85592 -15.8807,20.01045 -37.006,31.44565 -63.3761,34.30565 l -186.3179,0 0,-335.47989 z m -102.9315,134.852181 80.0562,0 c 9.8499,2.18e-4 17.9524,-3.809901 24.3077,-11.43037 6.3548,-7.620009 9.5324,-16.3551677 9.5326,-26.2055036 -2e-4,-21.9200484 -12.0705,-33.9951214 -36.2107,-36.2252554 l -77.6858,0 z m 0,139.636649 86.2513,0 c 13.3497,8e-5 23.9948,-4.12997 31.9352,-12.39017 6.6699,-7.62984 10.005,-17.00487 10.0052,-28.12511 -2e-4,-10.48013 -3.2577,-19.85031 -9.7725,-28.11056 -6.5153,-8.259961 -15.4879,-13.025034 -26.9181,-14.295236 l -91.5011,0 z"
         style="font-variant:normal;font-stretch:normal;fill:#ffffff;font-family:CodiceBianco;-inkscape-font-specification:CodiceBianco"
         id="path13921" />
      <path
         d="m 3035.383,-101.22062 96.2565,0 113.8819,334.99999 -73.8611,0 -19.0506,-56.23568 -136.7718,0 -18.5853,56.23568 -71.4761,0 z m 48.1209,75.286285 -46.6958,141.061815 95.3113,0 z"
         style="font-variant:normal;font-stretch:normal;fill:#ffffff;font-family:CodiceBianco;-inkscape-font-specification:CodiceBianco"
         id="path13923" />
      <path
         d="m 3450.0174,-101.22062 c 25.7302,3.5e-4 48.4455,9.370529 68.146,28.110562 20.65,19.700485 30.9751,43.845783 30.9754,72.43596757 -3e-4,25.73067743 -8.5804,47.65098243 -25.7402,65.76098043 -12.7103,13.660387 -28.1156,23.670433 -46.2159,30.03017 l 86.2513,138.66231 -75.3008,0 -82.4412,-132.94713 -50.026,0 0,132.94713 -66.2409,0 0,-334.99999 z m -94.3514,59.565892 0,83.400978 81.9612,0 c 8.5799,2.11e-4 17,-3.972299 25.2603,-11.917541 8.2599,-7.944798 12.3899,-17.792454 12.3902,-29.54299741 -3e-4,-11.75973459 -4.0528,-21.68979759 -12.1575,-29.79021859 -8.1052,-8.099858 -16.9228,-12.149927 -26.4528,-12.150221 z"
         style="font-variant:normal;font-stretch:normal;fill:#ffffff;font-family:CodiceBianco;-inkscape-font-specification:CodiceBianco"
         id="path13925" />
      <path
         d="m 3687.6266,-101.22062 0,334.99999 -69.0912,0 0,-334.99999 z"
         style="font-variant:normal;font-stretch:normal;fill:#ffffff;font-family:CodiceBianco;-inkscape-font-specification:CodiceBianco"
         id="path13927" />
    </g>
    <path
       style="fill:none;stroke:#ffffff;stroke-width:130;stroke-linecap:butt;stroke-linejoin:miter;stroke-miterlimit:4;stroke-opacity:1;stroke-dasharray:none"
       d="m 769.60817,520.1286 0,-1378.9946"
       id="path13800"
       inkscape:connector-curvature="0"
       sodipodi:nodetypes="cc" />
    <g
       id="Layer1076-2"
       transform="matrix(0,2.9047358,-2.9047358,0,2017.0632,-28862.655)"
       style="fill:#ffffff;fill-opacity:1;stroke:none">
      <path
         inkscape:connector-curvature="0"
         d="m 9674.7188,429.4377 16.1239,-69.8406 c 0.7713,-3.3409 -0.4416,-6.6287 -3.1978,-8.6679 -2.7562,-2.0393 -6.2545,-2.2381 -9.2239,-0.5238 l -136.8883,79.0325 136.8883,79.0322 c 2.9694,1.7144 6.4678,1.5157 9.2241,-0.5237 2.7562,-2.0394 3.9687,-5.327 3.1976,-8.668 z"
         style="fill:#ffffff;fill-opacity:1;fill-rule:evenodd;stroke:none"
         id="path7813-7" />
      <path
         inkscape:connector-curvature="0"
         d="m 9609.9188,429.4378 h 189.8983"
         style="fill:#ffffff;fill-opacity:1;stroke:none"
         id="path7815-9" />
    </g>
    <g
       id="Layer1076-2-5"
       transform="matrix(-2.9047358,0,0,-2.9047358,29244.534,1302.8229)"
       style="fill:#ffffff;fill-opacity:1;stroke:none">
      <path
         inkscape:connector-curvature="0"
         d="m 9674.7188,429.4377 16.1239,-69.8406 c 0.7713,-3.3409 -0.4416,-6.6287 -3.1978,-8.6679 -2.7562,-2.0393 -6.2545,-2.2381 -9.2239,-0.5238 l -136.8883,79.0325 136.8883,79.0322 c 2.9694,1.7144 6.4678,1.5157 9.2241,-0.5237 2.7562,-2.0394 3.9687,-5.327 3.1976,-8.668 z"
         style="fill:#ffffff;fill-opacity:1;fill-rule:evenodd;stroke:none"
         id="path7813-7-4" />
      <path
         inkscape:connector-curvature="0"
         d="m 9609.9188,429.4378 h 189.8983"
         style="fill:#ffffff;fill-opacity:1;stroke:none"
         id="path7815-9-3" />
    </g>
    <path
       style="fill:none;stroke:#ffffff;stroke-width:130;stroke-linecap:butt;stroke-linejoin:miter;stroke-miterlimit:4;stroke-opacity:1;stroke-dasharray:none"
       d="m 1191.9162,55.458395 -59.346,0 c -255.53603,0 -362.96303,201.582705 -362.96303,364.676305"
       id="path13850"
       inkscape:connector-curvature="0"
       sodipodi:nodetypes="ccc" />
    <path
       sodipodi:nodetypes="ccccccccccccc"
       inkscape:connector-curvature="0"
       id="path3339"
       d="m 2270.4655,266.8981 c 11.7672,-1.78331 25.1963,-15.21703 27.2008,-27.47206 L 2325.507,55.231955 2297.6663,-128.94376 c -2.0045,-12.25483 -15.4336,-25.68875 -27.2008,-27.47215 l -185.0982,-28.46857 -185.0705,28.46857 c -11.7672,1.7834 -25.1963,15.21732 -27.2008,27.47215 l -27.8407,184.175715 27.8407,184.194085 c 2.0045,12.25503 15.4336,25.68875 27.2008,27.47206 l 185.0656,28.46876 z"
       style="fill:none;stroke:#ffffff;stroke-width:19.7486515;stroke-linecap:butt;stroke-linejoin:miter;stroke-miterlimit:4;stroke-opacity:1;stroke-dasharray:none" />
    <g
       style="font-size:262.65524292px;font-style:normal;font-weight:normal;line-height:125%;letter-spacing:0px;word-spacing:0px;fill:#ffffff;fill-opacity:1;stroke:none;font-family:Sans"
       id="text3341">
      <path
         d="m 1978.0377,-35.110679 29.4172,182.018289 -38.8676,0 -4.7292,-35.98204 -26.7882,0 -5.2582,35.98204 -38.0821,0 31.2528,-182.018289 z m -26.7882,45.969477 -10.2439,72.228588 19.4378,0 z"
         style="text-align:center;word-spacing:-54.99985123px;text-anchor:middle;fill:#ffffff;font-family:CodiceBiancoCondensed;-inkscape-font-specification:CodiceBiancoCondensed"
         id="path13914" />
      <path
         d="m 2132.1488,-36.946252 0,184.647402 -37.2966,0 0,-122.927268 -20.2233,0 0,-27.3171708 c 17.1587,-1.2235527 25.5644,-12.6911962 25.2171,-34.4029632 z"
         style="text-align:center;word-spacing:-54.99985123px;text-anchor:middle;fill:#ffffff;font-family:CodiceBiancoCondensed;-inkscape-font-specification:CodiceBiancoCondensed"
         id="path13916" />
      <path
         d="m 2251.1805,-36.160723 0,118.71908 13.3941,0 0,32.831903 -13.3941,0 0,32.04638 -35.1965,0 0,-32.04638 -60.6701,0 0,-21.273406 53.8408,-130.277577 z m -35.7255,58.570003 -26.0026,60.942621 26.0026,0 z"
         style="text-align:center;word-spacing:-54.99985123px;text-anchor:middle;fill:#ffffff;font-family:CodiceBiancoCondensed;-inkscape-font-specification:CodiceBiancoCondensed"
         id="path13918" />
    </g>
    <path
       style="fill:none;stroke:#ffffff;stroke-width:19.74865532;stroke-linecap:butt;stroke-linejoin:miter;stroke-miterlimit:4;stroke-opacity:1;stroke-dasharray:none"
       d="m 954.48678,-1422.9229 c 11.76783,-1.7833 25.19691,-15.217 27.2014,-27.4721 l 27.83952,-184.194 -27.83952,-184.1757 c -2.00449,-12.255 -15.43357,-25.6888 -27.2014,-27.4723 l -185.09891,-28.4685 -185.07073,28.4685 c -11.76789,1.7835 -25.19714,15.2173 -27.20146,27.4723 l -27.83935,184.1757 27.83935,184.194 c 2.00432,12.2551 15.43357,25.6888 27.20146,27.4721 l 185.06629,28.4688 z"
       id="path3382"
       inkscape:connector-curvature="0"
       sodipodi:nodetypes="ccccccccccccc" />
    <g
       style="font-size:262.65591431px;font-style:normal;font-weight:normal;line-height:125%;letter-spacing:0px;word-spacing:0px;fill:#ffffff;fill-opacity:1;stroke:none;font-family:Sans"
       id="text3384">
      <path
         d="m 709.89955,-1724.9326 29.41733,182.0187 -38.86775,0 -4.72922,-35.9821 -26.78821,0 -5.25824,35.9821 -38.08223,0 31.25291,-182.0187 z m -26.78821,45.9696 -10.24397,72.2288 19.43789,0 z"
         style="text-align:center;word-spacing:-24.99999809px;text-anchor:middle;fill:#ffffff;font-family:CodiceBiancoCondensed;-inkscape-font-specification:CodiceBiancoCondensed"
         id="path13909" />
      <path
         d="m 894.01111,-1726.7682 0,184.6479 -37.29669,0 0,-122.9276 -20.22342,0 0,-27.3172 c 17.15875,-1.2236 25.56446,-12.6913 25.21715,-34.4031 z"
         style="text-align:center;word-spacing:-24.99999809px;text-anchor:middle;fill:#ffffff;font-family:CodiceBiancoCondensed;-inkscape-font-specification:CodiceBiancoCondensed"
         id="path13911" />
    </g>
    <rect
       style="fill:none;stroke:#ffffff;stroke-width:67.5;stroke-miterlimit:4;stroke-opacity:1;stroke-dasharray:none"
       id="rect13904"
       width="4365"
       height="3365"
       x="67.5"
       y="-2380.1377"
       rx="236.88078"
       ry="236.88078" />
  </g>
</svg>
