<?xml version="1.0" encoding="UTF-8" standalone="no"?>
<!-- Created with Inkscape (http://www.inkscape.org/) -->

<svg
   xmlns:dc="http://purl.org/dc/elements/1.1/"
   xmlns:cc="http://creativecommons.org/ns#"
   xmlns:rdf="http://www.w3.org/1999/02/22-rdf-syntax-ns#"
   xmlns:svg="http://www.w3.org/2000/svg"
   xmlns="http://www.w3.org/2000/svg"
   xmlns:sodipodi="http://sodipodi.sourceforge.net/DTD/sodipodi-0.dtd"
   xmlns:inkscape="http://www.inkscape.org/namespaces/inkscape"
   width="2521"
   height="1604.0625"
   id="svg3695"
   version="1.1"
   inkscape:version="0.48.5 r10040"
   sodipodi:docname="Italian traffic signs - segnale di direzione urbano (figura II 248).svg">
  <defs
     id="defs3697" />
  <sodipodi:namedview
     id="base"
     pagecolor="#ffffff"
     bordercolor="#666666"
     borderopacity="1.0"
     inkscape:pageopacity="0.0"
     inkscape:pageshadow="2"
     inkscape:zoom="0.12374369"
     inkscape:cx="842.11356"
     inkscape:cy="945.58932"
     inkscape:document-units="px"
     inkscape:current-layer="layer1"
     showgrid="false"
     fit-margin-top="0"
     fit-margin-left="0"
     fit-margin-right="0"
     fit-margin-bottom="0"
     inkscape:window-width="1366"
     inkscape:window-height="705"
     inkscape:window-x="-8"
     inkscape:window-y="-8"
     inkscape:window-maximized="1" />
  <metadata
     id="metadata3700">
    <rdf:RDF>
      <cc:Work
         rdf:about="">
        <dc:format>image/svg+xml</dc:format>
        <dc:type
           rdf:resource="http://purl.org/dc/dcmitype/StillImage" />
        <dc:title></dc:title>
      </cc:Work>
    </rdf:RDF>
  </metadata>
  <g
     inkscape:label="Livello 1"
     inkscape:groupmode="layer"
     id="layer1"
     transform="translate(1.5,-2.875)">
    <rect
       y="141.16016"
       x="1094"
       height="1460.7748"
       width="70"
       id="rect5492-0"
       style="fill:#ffffff;fill-opacity:1;stroke:#000000;stroke-width:10;stroke-miterlimit:4;stroke-opacity:1;stroke-dasharray:none;stroke-dashoffset:0" />
    <rect
       style="fill:#ffffff;fill-opacity:1;stroke:#000000;stroke-width:10;stroke-miterlimit:4;stroke-opacity:1;stroke-dasharray:none;stroke-dashoffset:0"
       id="rect5490-9"
       width="70"
       height="1460.7748"
       x="84"
       y="141.16016" />
    <rect
       style="fill:#ffffff;fill-opacity:1;stroke:#000000;stroke-width:10;stroke-miterlimit:4;stroke-opacity:1;stroke-dasharray:none;stroke-dashoffset:0"
       id="rect5766"
       width="70"
       height="1460.7748"
       x="2366"
       y="141.16016" />
    <rect
       y="141.16016"
       x="1356"
       height="1460.7748"
       width="70"
       id="rect5768"
       style="fill:#ffffff;fill-opacity:1;stroke:#000000;stroke-width:10;stroke-miterlimit:4;stroke-opacity:1;stroke-dasharray:none;stroke-dashoffset:0" />
    <rect
       y="803.375"
       x="-1"
       height="250"
       width="1250"
       id="rect5878"
       style="fill:#784421;fill-opacity:1;stroke:#784421;stroke-width:1;stroke-miterlimit:4;stroke-opacity:1;stroke-dasharray:none" />
    <rect
       style="fill:#ffffff;fill-opacity:1;stroke-width:22.5;stroke-miterlimit:4;stroke-dasharray:none"
       id="rect5880"
       width="1250"
       height="20"
       x="-1"
       y="1033.375" />
    <path
       inkscape:connector-curvature="0"
       d="m 209.00024,918.37521 0,17.704 -109.561105,0 72.768005,72.29499 -52.369,0 -90.837995,-89.99899 90.838095,-90.0009 52.3689,0 -72.768005,72.2949 109.561105,0 z"
       style="fill:#ffffff;fill-opacity:1;fill-rule:evenodd;stroke-width:3.53692007"
       id="path5900" />
    <rect
       y="253.37497"
       x="-1"
       height="250"
       width="1250"
       id="rect6138"
       style="fill:#08842c;fill-opacity:1;stroke:#08842c;stroke-width:1;stroke-miterlimit:4;stroke-opacity:1;stroke-dasharray:none" />
    <rect
       style="fill:#ffffff;fill-opacity:1;stroke-width:22.5;stroke-miterlimit:4;stroke-dasharray:none"
       id="rect6140"
       width="1250"
       height="20"
       x="-1"
       y="483.375" />
    <path
       inkscape:connector-curvature="0"
       d="m 118.99945,458.37403 -17.704,0 0,-109.561 -72.295015,72.768 0,-52.369 89.999015,-90.838 90.001,90.838 0,52.369 -72.295,-72.768 0,109.561 z"
       style="fill:#ffffff;fill-opacity:1;fill-rule:evenodd;stroke-width:3.53692007"
       id="path6142" />
    <rect
       style="fill:#08842c;fill-opacity:1;stroke:#08842c;stroke-width:1;stroke-miterlimit:4;stroke-opacity:1;stroke-dasharray:none"
       id="rect5902"
       width="1250"
       height="250"
       x="-2519"
       y="253.375"
       transform="scale(-1,1)" />
    <rect
       y="483.37497"
       x="-2519"
       height="20"
       width="1250"
       id="rect5904"
       style="fill:#ffffff;fill-opacity:1;stroke-width:22.5;stroke-miterlimit:4;stroke-dasharray:none"
       transform="scale(-1,1)" />
    <path
       id="path5912"
       style="fill:#ffffff;fill-opacity:1;fill-rule:evenodd;stroke-width:3.53692007"
       d="m 2308.9999,368.37509 0,17.704 109.5611,0 -72.768,72.295 52.369,0 90.838,-89.999 -90.8381,-90.00091 -52.3689,0 72.768,72.2949 -109.5611,0 z"
       inkscape:connector-curvature="0" />
    <rect
       transform="scale(-1,1)"
       y="3.3749905"
       x="-2519"
       height="250"
       width="1250"
       id="rect6152"
       style="fill:#ffffff;fill-opacity:1;stroke:#000000;stroke-width:1;stroke-miterlimit:4;stroke-opacity:1;stroke-dasharray:none" />
    <rect
       transform="scale(-1,1)"
       style="fill:#000000;fill-opacity:1;stroke-width:22.5;stroke-miterlimit:4;stroke-dasharray:none"
       id="rect6154"
       width="1250"
       height="20"
       x="-2519"
       y="233.375" />
    <rect
       style="fill:#ffffff;fill-opacity:1;stroke:#000000;stroke-width:1;stroke-miterlimit:4;stroke-opacity:1;stroke-dasharray:none"
       id="rect6128"
       width="1250"
       height="250"
       x="-1"
       y="553.375" />
    <rect
       y="783.375"
       x="-1"
       height="20"
       width="1250"
       id="rect6130"
       style="fill:#000000;fill-opacity:1;stroke-width:22.5;stroke-miterlimit:4;stroke-dasharray:none" />
    <path
       id="path6150"
       style="fill:#000000;fill-opacity:1;fill-rule:evenodd;stroke-width:3.53692007"
       d="m 209.00054,668.37537 0,17.704 -109.561098,0 72.767998,72.295 -52.369,0 -90.837998,-89.999 90.838098,-90.0009 52.3689,0 -72.767998,72.2949 109.561098,0 z"
       inkscape:connector-curvature="0" />
    <path
       inkscape:connector-curvature="0"
       d="m 2308.9998,118.37526 0,17.704 109.5611,0 -72.768,72.29491 52.369,0 90.838,-89.99891 -90.8381,-90.000895 -52.3689,0 72.768,72.294895 -109.5611,0 z"
       style="fill:#000000;fill-opacity:1;fill-rule:evenodd;stroke-width:3.53692007"
       id="path6162" />
    <rect
       y="3.3749847"
       x="-1"
       height="250"
       width="1250"
       id="rect6138-1"
       style="fill:#ffffff;fill-opacity:1;stroke:#000000;stroke-width:1;stroke-miterlimit:4;stroke-opacity:1;stroke-dasharray:none" />
    <rect
       style="fill:#000000;fill-opacity:1;stroke-width:22.5;stroke-miterlimit:4;stroke-dasharray:none"
       id="rect6140-7"
       width="1250"
       height="20"
       x="-1"
       y="233.375" />
    <path
       inkscape:connector-curvature="0"
       d="m 118.99944,208.37406 -17.704,0 0,-109.561002 -72.295002,72.768002 0,-52.369 89.999002,-90.838002 90.001,90.838002 0,52.369 -72.295,-72.768002 0,109.561002 z"
       style="fill:#000000;fill-opacity:1;fill-rule:evenodd;stroke-width:3.53692007"
       id="path6142-4" />
    <rect
       transform="scale(-1,1)"
       y="753.375"
       x="-2519"
       height="250"
       width="1250"
       id="rect5733"
       style="fill:#00408b;fill-opacity:1;stroke:#00408b;stroke-width:1;stroke-miterlimit:4;stroke-opacity:1;stroke-dasharray:none" />
    <rect
       transform="scale(-1,1)"
       style="fill:#ffffff;fill-opacity:1;stroke-width:22.5;stroke-miterlimit:4;stroke-dasharray:none"
       id="rect5735"
       width="1250"
       height="20"
       x="-2519"
       y="983.375" />
    <path
       inkscape:connector-curvature="0"
       d="m 2308.9999,868.37509 0,17.704 109.5611,0 -72.768,72.295 52.369,0 90.838,-89.999 -90.8381,-90.00091 -52.3689,0 72.768,72.2949 -109.5611,0 z"
       style="fill:#ffffff;fill-opacity:1;fill-rule:evenodd;stroke-width:3.53692007"
       id="path5737" />
    <rect
       style="fill:#00408b;fill-opacity:1;stroke:#00408b;stroke-width:1;stroke-miterlimit:4;stroke-opacity:1;stroke-dasharray:none"
       id="rect5739"
       width="1250"
       height="250"
       x="-2519"
       y="503.375"
       transform="scale(-1,1)" />
    <rect
       y="733.375"
       x="-2519"
       height="20"
       width="1250"
       id="rect5741"
       style="fill:#ffffff;fill-opacity:1;stroke-width:22.5;stroke-miterlimit:4;stroke-dasharray:none"
       transform="scale(-1,1)" />
    <path
       id="path5743"
       style="fill:#ffffff;fill-opacity:1;fill-rule:evenodd;stroke-width:3.53692007"
       d="m 2308.9999,618.37509 0,17.704 109.5611,0 -72.768,72.295 52.369,0 90.838,-89.999 -90.8381,-90.00091 -52.3689,0 72.768,72.2949 -109.5611,0 z"
       inkscape:connector-curvature="0" />
  </g>
</svg>
