<?xml version="1.0" encoding="UTF-8" standalone="no"?>
<!-- Created with Inkscape (http://www.inkscape.org/) -->

<svg
   xmlns:dc="http://purl.org/dc/elements/1.1/"
   xmlns:cc="http://creativecommons.org/ns#"
   xmlns:rdf="http://www.w3.org/1999/02/22-rdf-syntax-ns#"
   xmlns:svg="http://www.w3.org/2000/svg"
   xmlns="http://www.w3.org/2000/svg"
   xmlns:sodipodi="http://sodipodi.sourceforge.net/DTD/sodipodi-0.dtd"
   xmlns:inkscape="http://www.inkscape.org/namespaces/inkscape"
   width="300.0625"
   height="600.04968"
   id="svg8920"
   version="1.1"
   inkscape:version="0.48.5 r10040"
   sodipodi:docname="Nuovo documento 14">
  <defs
     id="defs8922" />
  <sodipodi:namedview
     id="base"
     pagecolor="#ffffff"
     bordercolor="#666666"
     borderopacity="1.0"
     inkscape:pageopacity="0.0"
     inkscape:pageshadow="2"
     inkscape:zoom="0.49497475"
     inkscape:cx="-301.22406"
     inkscape:cy="180.68451"
     inkscape:document-units="px"
     inkscape:current-layer="layer1"
     showgrid="false"
     fit-margin-top="0"
     fit-margin-left="0"
     fit-margin-right="0"
     fit-margin-bottom="0"
     inkscape:window-width="1366"
     inkscape:window-height="705"
     inkscape:window-x="-8"
     inkscape:window-y="-8"
     inkscape:window-maximized="1" />
  <metadata
     id="metadata8925">
    <rdf:RDF>
      <cc:Work
         rdf:about="">
        <dc:format>image/svg+xml</dc:format>
        <dc:type
           rdf:resource="http://purl.org/dc/dcmitype/StillImage" />
        <dc:title></dc:title>
      </cc:Work>
    </rdf:RDF>
  </metadata>
  <g
     inkscape:label="Livello 1"
     inkscape:groupmode="layer"
     id="layer1"
     transform="translate(0.03125,-452.3125)">
    <rect
       style="fill:#08842c;fill-opacity:1;stroke:none"
       id="rect3380"
       width="300"
       height="600"
       x="0"
       y="452.36218" />
    <path
       style="fill:none;stroke:#ffffff;stroke-width:8.18181801;stroke-linecap:butt;stroke-linejoin:miter;stroke-miterlimit:4;stroke-opacity:1;stroke-dasharray:none"
       d="m 262.46439,730.97259 c 7.1506,-1.08355 15.3106,-9.24641 16.5286,-16.69296 l 16.9163,-111.92304 -16.9163,-111.91187 c -1.218,-7.44654 -9.378,-15.60941 -16.5286,-16.69309 L 149.99159,456.45309 37.535892,473.75163 c -7.1506,1.08368 -15.3107,9.24655 -16.5286,16.69309 L 4.0910924,602.35659 21.007292,714.27963 c 1.2179,7.44655 9.378,15.60941 16.5286,16.69296 l 112.452998,17.29868 z"
       id="path3382"
       inkscape:connector-curvature="0"
       sodipodi:nodetypes="ccccccccccccc" />
    <g
       style="font-size:157.59356689px;font-style:normal;font-weight:normal;line-height:125%;letter-spacing:0px;word-spacing:0px;fill:#ffffff;fill-opacity:1;stroke:none;font-family:Sans"
       id="text3384">
      <path
         d="m 114.29872,548.15054 17.6504,109.21126 -23.32065,0 -2.83753,-21.58928 -16.072931,0 -3.15495,21.58928 -22.849336,0 18.75175,-109.21126 z m -16.072929,27.58176 -6.14638,43.33727 11.662729,0 z"
         style="text-align:center;word-spacing:-15px;text-anchor:middle;fill:#ffffff;font-family:CodiceBiancoCondensed;-inkscape-font-specification:CodiceBiancoCondensed"
         id="path9561" />
      <path
         d="m 224.76567,547.04919 0,110.78874 -22.37801,0 0,-73.75656 -12.13405,0 0,-16.39035 c 10.29525,-0.73413 15.33867,-7.61474 15.13029,-20.64183 z"
         style="text-align:center;word-spacing:-15px;text-anchor:middle;fill:#ffffff;font-family:CodiceBiancoCondensed;-inkscape-font-specification:CodiceBiancoCondensed"
         id="path9563" />
    </g>
    <path
       inkscape:connector-curvature="0"
       d="m 166.32437,1002.2183 -32.79434,0.1439 V 890.02687 l -38.6916,6.76003 c -1.00739,-0.14382 -2.01376,-0.43108 -2.58906,-1.00745 -0.71862,-0.57487 -0.86237,-2.0134 -0.86237,-3.02048 l 58.54079,-100.39677 58.68478,100.5406 c 0,1.00744 -0.28725,2.44521 -0.57489,2.87665 -0.71867,0.5749 -1.43834,0.86363 -2.44521,0.71872 l -39.26703,-7.04766 z"
       style="fill:#ffffff;fill-opacity:1;fill-rule:evenodd;stroke-width:0.15289199"
       id="path7285" />
  </g>
</svg>
