<svg xmlns="http://www.w3.org/2000/svg" xmlns:xlink="http://www.w3.org/1999/xlink" width="500" height="1200" xmlns:v="https://vecta.io/nano"><path d="M0 500h500v700H0z" fill="#009140"/><path d="M0 0h500v500H0z" fill="#fff"/><g fill="none"><rect width="479" height="679" x="10.5" y="510.5" rx="36.811" stroke="#fff" stroke-width="10.5"/><rect width="485" height="485" x="7.5" y="7.5" rx="26.34" stroke="#000" stroke-width="7.5"/></g><g fill="#fff"><path d="M127.258 847.98l16.356 101.203h-21.61l-2.63-20.006H104.48l-2.924 20.006H80.382L97.759 847.98zm-14.894 25.559l-5.696 40.159h10.807zm41.132-27.457h18.544v83.242c0 4.382 2.239 6.574 6.716 6.574 1.655 0 3.408-.391 5.259-1.172l3.36 13.874c-3.604 1.655-7.547 2.482-11.828 2.482-6.135 0-11.198-1.606-15.188-4.818-4.576-3.699-6.863-9.053-6.863-16.062zm42.314 71.704c0-11.682 2.775-21.174 8.325-28.474 5.063-6.718 11.099-10.076 18.108-10.077 6.914 0 12.707 2.921 17.381 8.762 5.063 6.522 7.594 15.429 7.594 26.722a110.54 110.54 0 0 1-.147 5.549h-33.149c.193 11.1 3.21 16.65 9.052 16.65 4.575 0 8.08-4.186 10.513-12.559l13.874 7.01a141.94 141.94 0 0 0-2.772 5.254c-2.433 3.895-5.257 7.06-8.472 9.493-4.38 3.31-9.246 4.965-14.6 4.965-6.914 0-12.804-2.872-17.671-8.615-5.357-6.23-8.035-14.458-8.035-24.681zm18.112-9.635H229.4c-.098-9.543-2.484-14.315-7.157-14.315-5.256 0-8.03 4.772-8.321 14.315zm92.598-13.438v55.058h-17.23V901.14c0-5.161-2.142-7.741-6.427-7.741-1.753 0-3.262.584-4.528 1.752s-1.899 2.677-1.899 4.528v50.093h-16.94v-69.953h15.335l1.457 3.066c3.702-3.604 7.888-5.406 12.559-5.406s8.787 1.704 12.341 5.112 5.33 7.449 5.33 12.122zm37.902-16.209h10.955v12.412H344.57v40.454c0 3.797 2.142 5.696 6.427 5.696 2.823 0 5.451-.876 7.884-2.629l2.924 13.29c-5.841 2.237-11.244 3.356-16.209 3.356-5.939 0-10.613-1.606-14.021-4.818s-5.112-7.349-5.112-12.412v-42.936h-10.224v-12.412h10.807v-21.321l17.377-9.056zm23.497 37.677c0-10.904 2.312-19.837 6.937-26.798s10.929-10.442 18.912-10.442c7.594 0 13.801 3.432 18.62 10.295s7.229 15.845 7.229 26.945c0 10.224-2.508 18.596-7.523 25.118s-11.076 9.783-18.183 9.783c-7.886 0-14.262-3.406-19.128-10.219-4.576-6.427-6.863-14.654-6.863-24.681zm25.992-22.052c-3.503 0-5.887 2.288-7.153 6.863-.877 3.117-1.315 8.179-1.315 15.188 0 5.841.291 9.979.873 12.412 1.266 5.063 3.797 7.594 7.594 7.594 5.452 0 8.178-6.62 8.178-19.859 0-7.205-.389-12.366-1.168-15.483-1.266-4.477-3.603-6.716-7.01-6.716zm-169.472 132.022c0-9.249 2.775-16.6 8.325-22.052 4.965-4.965 11.195-7.447 18.691-7.447 6.62 0 12.412 2.337 17.377 7.01 5.55 5.354 8.325 12.461 8.325 21.321 0 6.231-1.655 11.584-4.965 16.062-2.338 3.215-4.821 5.357-7.447 6.427 3.601.487 6.96 2.873 10.077 7.158 3.408 4.867 5.112 10.708 5.112 17.524 0 8.762-2.775 16.063-8.325 21.905s-12.317 8.762-20.3 8.762c-7.009 0-13.19-2.19-18.544-6.569-6.816-5.55-10.224-13.485-10.224-23.803 0-12.853 4.477-21.178 13.432-24.975-7.689-3.601-11.534-10.708-11.534-21.321zm19.712-.878c0 9.154 2.191 13.731 6.574 13.731 4.477 0 6.716-4.577 6.716-13.731 0-7.885-2.19-11.828-6.569-11.828-1.753 0-3.262.926-4.528 2.776-1.462 2.142-2.193 5.159-2.193 9.052zm-.143 45.276c0 9.246 2.433 13.869 7.3 13.869 4.575 0 6.863-4.672 6.863-14.016 0-9.834-2.433-14.752-7.3-14.752-2.044 0-3.699 1.363-4.965 4.089s-1.899 6.329-1.899 10.81zM90.339 661.925l9.446 58.449h-12.48l-1.519-11.554h-8.602l-1.688 11.554H63.267l10.036-58.449zm-8.602 14.761l-3.289 23.194h6.242zm42.684 1.856v10.121c-.731-.17-1.462-.255-2.193-.255-2.023 0-3.794.577-5.313 1.73s-2.278 2.573-2.278 4.26v26.316h-10.71v-40.992h10.71v2.53c2.699-2.473 5.96-3.709 9.784-3.709zm2.167 23.698c0-6.747 1.603-12.229 4.808-16.445 2.924-3.88 6.41-5.82 10.458-5.82 3.993 0 7.339 1.687 10.038 5.06 2.924 3.766 4.386 8.911 4.386 15.433 0 1.013-.028 2.081-.085 3.205h-19.145c.111 6.411 1.854 9.616 5.228 9.616 2.642 0 4.667-2.418 6.072-7.253l8.013 4.049a81.47 81.47 0 0 0-1.601 3.035c-1.405 2.25-3.036 4.077-4.893 5.482-2.529 1.912-5.34 2.867-8.432 2.867-3.993 0-7.395-1.659-10.206-4.975-3.094-3.598-4.641-8.35-4.641-14.254zm10.46-5.565h8.939c-.057-5.512-1.435-8.267-4.134-8.267-3.035 0-4.637 2.756-4.805 8.267zm37.24-16.699c3.487 0 6.284.97 8.392 2.91s3.162 4.287 3.162 7.041v20.833c0 1.405 1.209 2.192 3.627 2.36l-2.615 7.593c-.674.168-1.461.252-2.36.252-3.205 0-5.933-1.237-8.182-3.712l-2.53 2.108c-1.968 1.126-4.386 1.576-7.253 1.351-2.023-.17-3.794-1.127-5.312-2.87-1.8-1.911-2.643-4.385-2.53-7.421.168-5.06 2.051-9.053 5.65-11.976 1.968-1.575 5.651-3.431 11.05-5.567.281-1.18.155-2.235-.38-3.162s-1.392-1.391-2.573-1.391c-2.531 0-5.539 1.63-9.024 4.89l-4.893-5.987c3.037-2.418 5.399-4.077 7.086-4.978 2.811-1.517 5.706-2.275 8.687-2.275zm-5.313 29.688c.168 1.349.898 2.023 2.19 2.023.788 0 1.603-.267 2.447-.801s1.406-1.138 1.687-1.812v-7.845c-4.722 1.912-6.83 4.723-6.324 8.435zm70.335-49.003c7.253.168 12.483 3.879 15.688 11.132l-8.687 5.483c-2.082-3.993-4.499-5.989-7.253-5.99-1.237 0-2.292.436-3.163 1.308s-1.364 2.01-1.477 3.416c-.112 1.126.339 2.279 1.351 3.459.336.393 1.32 1.293 2.952 2.7 4.273 3.317 9.108 7.421 14.507 12.314 2.136 2.699 3.205 5.989 3.205 9.868 0 4.441-1.35 8.264-4.049 11.469-3.037 3.542-7.058 5.398-12.061 5.567-7.421.225-12.792-3.936-16.11-12.484l9.027-5.145c1.912 4.667 4.189 7.001 6.831 7.001.788 0 1.574-.197 2.36-.589 2.025-1.012 3.037-2.727 3.037-5.145 0-1.743-.619-3.205-1.856-4.386l-9.446-7.928c-4.667-3.88-7.479-6.691-8.435-8.435-1.462-2.531-2.193-5.174-2.193-7.928 0-4.274 1.603-7.986 4.808-11.135s6.86-4.667 10.965-4.553zm20.782 41.579c0-6.747 1.603-12.229 4.808-16.445 2.924-3.88 6.41-5.82 10.458-5.82 3.993 0 7.339 1.687 10.038 5.06 2.924 3.766 4.386 8.911 4.386 15.433 0 1.013-.028 2.081-.085 3.205h-19.145c.111 6.411 1.854 9.616 5.228 9.616 2.643 0 4.667-2.418 6.072-7.253l8.013 4.049a81.47 81.47 0 0 0-1.601 3.035c-1.405 2.25-3.036 4.077-4.893 5.482-2.529 1.912-5.34 2.867-8.432 2.867-3.993 0-7.395-1.659-10.206-4.975-3.094-3.598-4.641-8.35-4.641-14.254zm10.46-5.565h8.939c-.057-5.512-1.435-8.267-4.134-8.267-3.035 0-4.637 2.756-4.805 8.267zm44.323-18.133v10.121c-.731-.17-1.462-.255-2.193-.255-2.023 0-3.794.577-5.312 1.73s-2.278 2.573-2.278 4.26v26.316h-10.71v-40.992h10.71v2.53c2.699-2.473 5.96-3.709 9.784-3.709z"/><path d="M314.682 680.143h10.206l5.06 27.412 4.808-27.412h9.866l-7.421 40.653h-14.677z"/><use xlink:href="#B"/><path d="M364.459 679.976h22.604v8.602l-13.243 23.783h13.41v8.267h-23.783v-8.772l12.736-23.531h-11.724z"/><use xlink:href="#B" x="44.101"/><path d="M406.875 701.314c0-6.297 1.335-11.457 4.006-15.477s6.312-6.031 10.922-6.031c4.386 0 7.97 1.982 10.754 5.946s4.175 9.151 4.175 15.562c0 5.905-1.448 10.74-4.345 14.507s-6.397 5.65-10.502 5.65c-4.554 0-8.236-1.967-11.047-5.902-2.642-3.712-3.964-8.463-3.964-14.254zm15.011-12.736c-2.023 0-3.4 1.321-4.131 3.964-.506 1.8-.759 4.724-.759 8.772 0 3.374.168 5.763.505 7.168.731 2.924 2.193 4.386 4.386 4.386 3.149 0 4.723-3.823 4.723-11.469 0-4.161-.225-7.142-.674-8.942-.731-2.586-2.081-3.879-4.049-3.879z"/></g><path d="M113.113 157.644c11.886.487 22.062 2.44 30.529 5.858 20.676 8.467 31.421 23.854 32.236 46.159.492 10.748-2.03 19.133-7.565 25.155l-12.462 10.017c14.33 4.721 21.495 16.524 21.496 35.411 0 15.468-3.99 28.005-11.97 37.61-11.071 13.193-28.899 19.789-53.486 19.789-23.284 0-41.031-6.514-53.24-19.543-8.795-9.605-14.251-21.98-16.368-37.125l41.523-5.858c0 7.488 2.605 13.186 7.815 17.094s12.13 5.862 20.762 5.862c6.186 0 11.722-1.629 16.606-4.886s7.327-7.489 7.327-12.697c0-12.05-9.851-18.074-29.553-18.075-2.604 0-5.615.082-9.034.246V227.98c10.907 0 18.966-.897 24.179-2.691 7.975-2.604 11.963-7.57 11.963-14.899 0-11.071-7.327-16.606-21.98-16.606-18.236 0-27.354 7.816-27.354 23.448l-40.301-4.152c.815-10.748 3.583-20.03 8.303-27.846 11.235-18.395 31.426-27.592 60.574-27.593zm139.078.485c18.236 0 33.623 4.641 46.163 13.923s18.809 21.086 18.809 35.411c0 17.749-6.84 29.881-20.519 36.395 8.303 3.091 14.571 9.521 18.805 19.29 3.095 6.842 4.643 13.111 4.643 18.805 0 13.516-5.292 25.565-15.876 36.149-12.701 12.701-30.042 19.051-52.025 19.051s-39.317-6.512-52.017-19.535c-10.261-10.748-15.391-22.636-15.391-35.665 0-7.16 1.304-13.836 3.913-20.027 4.234-10.256 11.396-16.199 21.488-17.829-8.139-2.117-14-7.245-17.583-15.384-2.604-5.535-3.906-11.642-3.906-18.321 0-11.394 3.501-21.732 10.502-31.014 11.071-14.166 28.735-21.25 52.994-21.25zm-22.226 53.001c0 5.859 2.932 10.172 8.795 12.939 4.234 2.117 9.2 3.175 14.899 3.175 6.514 0 11.888-1.546 16.122-4.64s6.35-7.164 6.35-12.212c0-5.207-2.036-9.277-6.108-12.209s-9.445-4.397-16.118-4.398c-15.96 0-23.94 5.782-23.94 17.344zm-3.175 70.338c0 6.022 2.932 10.663 8.795 13.923 4.561 2.44 10.097 3.66 16.606 3.66 7.98 0 14.25-1.668 18.809-5.005s6.838-7.529 6.839-12.578c0-13.028-8.549-19.543-25.647-19.543-16.934 0-25.401 6.514-25.401 19.543zm221.155-120.164v36.395H373.21l-1.707 16.606c-.328-.815 1.87-1.792 6.593-2.933s10.178-1.71 16.364-1.711c15.632 0 28.658 3.826 39.078 11.478 14.002 10.261 21.655 26.462 22.957 48.604.815 15.796-4.395 30.45-15.63 43.96-12.865 15.304-29.878 22.957-51.041 22.957-21.009 0-37.943-7.245-50.803-21.734-8.467-9.605-13.19-18.315-14.169-26.132l38.348-11.232c4.234 14.161 12.701 21.242 25.401 21.242 6.022 0 11.558-2.117 16.606-6.35 5.863-4.884 8.795-11.314 8.795-19.289 0-7.816-2.037-14.248-6.112-19.297-4.557-5.699-10.986-8.549-19.289-8.549-7.493 0-14.659 4.316-21.496 12.947l-40.785-5.858 10.502-91.103z"/><defs ><path id="B" d="M358.985 667.577c0 1.574-.534 2.81-1.602 3.71s-2.333 1.35-3.795 1.35-2.727-.45-3.795-1.35-1.602-2.165-1.602-3.795.534-2.909 1.602-3.838 2.333-1.392 3.795-1.392 2.727.464 3.795 1.392 1.602 2.236 1.602 3.923zm-.252 12.399v40.483h-10.291v-40.483z"/></defs></svg>