<?xml version="1.0" encoding="UTF-8" standalone="no"?>
<!-- Created with Inkscape (http://www.inkscape.org/) -->

<svg
   xmlns:dc="http://purl.org/dc/elements/1.1/"
   xmlns:cc="http://creativecommons.org/ns#"
   xmlns:rdf="http://www.w3.org/1999/02/22-rdf-syntax-ns#"
   xmlns:svg="http://www.w3.org/2000/svg"
   xmlns="http://www.w3.org/2000/svg"
   xmlns:sodipodi="http://sodipodi.sourceforge.net/DTD/sodipodi-0.dtd"
   xmlns:inkscape="http://www.inkscape.org/namespaces/inkscape"
   width="830"
   height="910"
   id="svg2"
   version="1.1"
   inkscape:version="0.48.5 r10040"
   sodipodi:docname="CANC Frecce.svg">
  <defs
     id="defs4" />
  <sodipodi:namedview
     id="base"
     pagecolor="#ffffff"
     bordercolor="#666666"
     borderopacity="1.0"
     inkscape:pageopacity="0.0"
     inkscape:pageshadow="2"
     inkscape:zoom="0.35355339"
     inkscape:cx="615.12712"
     inkscape:cy="371.68111"
     inkscape:document-units="px"
     inkscape:current-layer="layer1"
     showgrid="false"
     inkscape:window-width="1366"
     inkscape:window-height="705"
     inkscape:window-x="-8"
     inkscape:window-y="-8"
     inkscape:window-maximized="1"
     fit-margin-top="0"
     fit-margin-left="0"
     fit-margin-right="0"
     fit-margin-bottom="0" />
  <metadata
     id="metadata7">
    <rdf:RDF>
      <cc:Work
         rdf:about="">
        <dc:format>image/svg+xml</dc:format>
        <dc:type
           rdf:resource="http://purl.org/dc/dcmitype/StillImage" />
        <dc:title />
      </cc:Work>
    </rdf:RDF>
  </metadata>
  <g
     inkscape:label="Livello 1"
     inkscape:groupmode="layer"
     id="layer1"
     transform="translate(11728,-4686.3623)">
    <rect
       inkscape:export-ydpi="90"
       inkscape:export-xdpi="90"
       inkscape:export-filename="C:\Users\utente\Desktop\CANCdx.png"
       y="4686.3623"
       x="-11728"
       height="910"
       width="830"
       id="rect5153"
       style="fill:#989898;fill-opacity:1;stroke-width:5.1999898;stroke-linecap:round;stroke-linejoin:round;stroke-miterlimit:4;stroke-dasharray:15.6, 15.6;stroke-dashoffset:0" />
    <path
       inkscape:connector-curvature="0"
       style="fill:#ffffff;fill-opacity:1;stroke:none"
       d="m -11618,5016.3623 0,80 75,75 0,345 -15,0 0,-75 -25,0 0,30 -30,0 0,-110 30,0 0,30 25,0 0,-135 -60,-60 0,70 -30,-120 30,-130 z"
       id="path4253" />
    <path
       style="fill:#ffffff;fill-opacity:1;stroke:none"
       d="M 305 80 C 305 80 275 259.914 275 260 C 275 260.0812 305 430 305 430 L 305 310 C 305 310.02 365 370 365 370 L 365 645 L 340 645 L 340 615 L 310 615 L 310 725 L 340 725 L 340 695 L 365 695 L 365 830 L 380 830 L 380 285 L 365 270 C 365 270 305.02 210 305 210 L 305 80 z "
       transform="translate(-11728,4686.3623)"
       id="rect4945" />
    <path
       id="path5731"
       d="m -11008,5016.3623 0,80 -75,75 0,345 15,0 0,-75 25,0 0,30 30,0 0,-110 -30,0 0,30 -25,0 0,-135 60,-60 0,70 30,-120 -30,-130 z"
       style="fill:#ffffff;fill-opacity:1;stroke:none"
       inkscape:connector-curvature="0" />
    <path
       id="path5736"
       d="m -11193,4766.3623 c 0,0 30,179.914 30,180 0,0.081 -30,170 -30,170 l 0,-120 c 0,0.02 -60,60 -60,60 l 0,275 25,0 0,-30 30,0 0,110 -30,0 0,-30 -25,0 0,135 -15,0 0,-545 15,-15 c 0,0 59.98,-60 60,-60 l 0,-130 z"
       style="fill:#ffffff;fill-opacity:1;stroke:none"
       inkscape:connector-curvature="0" />
  </g>
</svg>
