<?xml version="1.0" encoding="UTF-8" standalone="no"?>
<!-- Created with Inkscape (http://www.inkscape.org/) -->

<svg
   width="238.65416mm"
   height="159.27916mm"
   viewBox="0 0 238.65416 159.27916"
   version="1.1"
   id="svg17265"
   inkscape:version="1.2.1 (9c6d41e410, 2022-07-14)"
   sodipodi:docname="Segnale stradale italiano - carabinieri (figura II 380).svg"
   xmlns:inkscape="http://www.inkscape.org/namespaces/inkscape"
   xmlns:sodipodi="http://sodipodi.sourceforge.net/DTD/sodipodi-0.dtd"
   xmlns="http://www.w3.org/2000/svg"
   xmlns:svg="http://www.w3.org/2000/svg">
  <sodipodi:namedview
     id="namedview17267"
     pagecolor="#ffffff"
     bordercolor="#000000"
     borderopacity="0.25"
     inkscape:showpageshadow="2"
     inkscape:pageopacity="0.0"
     inkscape:pagecheckerboard="0"
     inkscape:deskcolor="#d1d1d1"
     inkscape:document-units="mm"
     showgrid="false"
     inkscape:zoom="0.76257015"
     inkscape:cx="578.96313"
     inkscape:cy="39.996321"
     inkscape:window-width="1920"
     inkscape:window-height="991"
     inkscape:window-x="-9"
     inkscape:window-y="-9"
     inkscape:window-maximized="1"
     inkscape:current-layer="layer1" />
  <defs
     id="defs17262" />
  <g
     inkscape:label="Livello 1"
     inkscape:groupmode="layer"
     id="layer1"
     transform="translate(47.852799,0.53216699)">
    <g
       id="g5750"
       transform="translate(-432.3154,-1379.5235)">
      <rect
         style="fill:#000000;fill-rule:evenodd;stroke-width:29.5609;paint-order:markers fill stroke"
         id="rect3812-8-5-6-9-1"
         width="159.27916"
         height="238.65416"
         x="1378.9913"
         y="-623.11676"
         transform="rotate(90)" />
      <rect
         style="fill:#ffffff;fill-rule:evenodd;stroke-width:29.4791;paint-order:markers fill stroke"
         id="rect3812-8-5-1"
         width="158.75"
         height="238.125"
         x="1379.2559"
         y="-622.85223"
         transform="rotate(90)" />
      <rect
         style="fill:none;fill-rule:evenodd;stroke:#000000;stroke-width:3.175;paint-order:markers fill stroke"
         id="rect3812-0-2-3-8"
         width="152.39999"
         height="231.77499"
         x="1382.4308"
         y="-619.67725"
         ry="10.31875"
         rx="10.31875"
         transform="rotate(90)" />
      <g
         aria-label="localita'"
         id="text16023-1-5"
         style="font-size:3.175px;font-family:'Stradale Stretto Positivo';-inkscape-font-specification:'Stradale Stretto Positivo';fill:#000000;fill-rule:evenodd;stroke-width:0.293013;stroke-linecap:round;paint-order:markers fill stroke"
         transform="matrix(4.1406528,0,0,4.1406528,-1083.8899,-2452.659)">
        <path
           d="m 358.86734,941.11177 h 0.56741 v 1.86345 q 0,0.11317 0.0884,0.12557 0.0899,0.0109 0.22944,-0.0465 l 0.0481,0.524 q -0.15348,0.0481 -0.31781,0.0496 -0.16278,0.002 -0.30076,-0.0512 -0.13797,-0.0527 -0.22634,-0.16123 -0.0884,-0.11007 -0.0884,-0.28835 z"
           style="-inkscape-font-specification:'Stradale Normale Positivo'"
           id="path16171-1-35" />
        <path
           d="m 360.84246,943.12095 q 0.17363,-0.003 0.262,-0.11782 0.0899,-0.11473 0.0899,-0.30076 0,-0.0868 -0.0232,-0.16278 -0.0217,-0.076 -0.0651,-0.13488 -0.0419,-0.0589 -0.10852,-0.0915 -0.0667,-0.0341 -0.15503,-0.0341 -0.093,0 -0.15813,0.0357 -0.0651,0.0341 -0.10697,0.0915 -0.0403,0.0574 -0.0589,0.13333 -0.0186,0.076 -0.0186,0.16278 0,0.0853 0.0186,0.16123 0.0186,0.076 0.0589,0.13332 0.0419,0.0574 0.10697,0.0915 0.0651,0.0326 0.15813,0.0326 z m 0.0124,0.50539 q -0.19379,-0.008 -0.35347,-0.0775 -0.15813,-0.0698 -0.2713,-0.19069 -0.11162,-0.12247 -0.17363,-0.28525 -0.062,-0.16433 -0.062,-0.35502 0,-0.19689 0.0574,-0.36277 0.0574,-0.16743 0.16588,-0.2868 0.11007,-0.11937 0.2682,-0.18604 0.15968,-0.0667 0.35967,-0.0667 0.19068,0 0.35036,0.0698 0.16124,0.0698 0.27441,0.19224 0.11472,0.12247 0.17828,0.28835 0.0636,0.16434 0.0636,0.35812 0,0.18449 -0.0651,0.35037 -0.0651,0.16433 -0.17983,0.28835 -0.11318,0.12248 -0.27131,0.19534 -0.15657,0.0713 -0.34106,0.0682 z"
           style="-inkscape-font-specification:'Stradale Normale Positivo'"
           id="path16173-6-8" />
        <path
           d="m 363.56942,943.02173 q -0.008,0.0294 -0.0264,0.0729 -0.0186,0.0419 -0.0481,0.0868 -0.0279,0.045 -0.0589,0.0884 -0.0295,0.0419 -0.0543,0.0729 -0.009,0.0124 -0.0574,0.0589 -0.0481,0.0465 -0.12403,0.0961 -0.076,0.0481 -0.18138,0.0884 -0.10387,0.0403 -0.23099,0.0403 -0.16899,0 -0.32712,-0.0698 -0.15658,-0.0713 -0.27595,-0.19069 -0.11782,-0.12092 -0.19068,-0.2868 -0.0729,-0.16743 -0.0729,-0.36432 0,-0.16588 0.0496,-0.32556 0.0512,-0.16123 0.15503,-0.28681 0.10542,-0.12712 0.2651,-0.20618 0.16123,-0.0806 0.38137,-0.0806 0.30386,0 0.4992,0.15348 0.19533,0.15193 0.2868,0.40618 l -0.46974,0.16743 q -0.0248,-0.0574 -0.0512,-0.10697 -0.0248,-0.0512 -0.0605,-0.0884 -0.0341,-0.0388 -0.0853,-0.0589 -0.0496,-0.0217 -0.11938,-0.0217 -0.093,0 -0.15503,0.0387 -0.062,0.0372 -0.10387,0.0992 -0.0403,0.062 -0.0574,0.14108 -0.0171,0.0791 -0.0171,0.16588 0,0.0791 0.0186,0.15813 0.0186,0.0791 0.0574,0.14263 0.0403,0.0636 0.10232,0.10387 0.062,0.0387 0.14728,0.0387 0.0605,0 0.11472,-0.0248 0.0543,-0.0248 0.0961,-0.0682 0.0434,-0.0434 0.0713,-0.0977 0.0295,-0.0558 0.0388,-0.11627 z"
           style="-inkscape-font-specification:'Stradale Normale Positivo'"
           id="path16175-7-8" />
        <path
           d="m 364.78656,942.845 q -0.0419,0.0341 -0.10387,0.0449 -0.062,0.009 -0.12558,0.0155 -0.10386,0.0124 -0.15657,0.0512 -0.0527,0.0372 -0.0527,0.0853 0,0.0729 0.0589,0.0977 0.0589,0.0233 0.13177,0.0233 0.0403,0 0.0853,-0.008 0.045,-0.009 0.0791,-0.0279 0.0357,-0.0186 0.0589,-0.0496 0.0248,-0.0326 0.0248,-0.0806 z m -0.25735,-1.0294 h 0.0822 q 0.24804,0 0.41857,0.0713 0.17209,0.0713 0.25115,0.2248 0.009,0.0248 0.0202,0.0496 0.0124,0.0232 0.0217,0.0589 0.009,0.0341 0.0155,0.0899 0.006,0.0558 0.006,0.14108 v 0.59376 q 0,0.0977 0.0388,0.12558 0.0403,0.0263 0.14573,0.0263 l -0.17208,0.42943 q -0.12403,0 -0.24495,-0.0465 -0.11937,-0.0465 -0.20309,-0.11007 -0.10077,0.0729 -0.22324,0.11472 -0.12247,0.0419 -0.2434,0.0419 -0.13022,0 -0.24494,-0.0388 -0.11317,-0.0388 -0.19999,-0.11008 -0.0853,-0.0713 -0.13643,-0.17363 -0.0496,-0.10387 -0.0496,-0.23409 0,-0.13023 0.0357,-0.21859 0.0372,-0.0884 0.10077,-0.15038 0.0636,-0.062 0.15348,-0.10232 0.0915,-0.0403 0.19534,-0.0744 0.0992,-0.0294 0.18603,-0.0403 0.0868,-0.0109 0.15348,-0.0202 0.0667,-0.009 0.10542,-0.0217 0.0388,-0.014 0.0388,-0.045 0,-0.0481 -0.0403,-0.0713 -0.0403,-0.0233 -0.0992,-0.031 -0.0574,-0.009 -0.12402,0 -0.0667,0.008 -0.12093,0.0233 -0.0636,0.0155 -0.13642,0.0589 -0.0729,0.0419 -0.16588,0.10852 l -0.25425,-0.38758 q 0.15038,-0.13642 0.32711,-0.20929 0.17828,-0.0729 0.36277,-0.0729 z"
           style="-inkscape-font-specification:'Stradale Normale Positivo'"
           id="path16177-4-5" />
        <path
           d="m 365.7627,941.11177 h 0.56741 v 1.86345 q 0,0.11317 0.0884,0.12557 0.0899,0.0109 0.22945,-0.0465 l 0.048,0.524 q -0.15347,0.0481 -0.31781,0.0496 -0.16278,0.002 -0.30075,-0.0512 -0.13798,-0.0527 -0.22635,-0.16123 -0.0884,-0.11007 -0.0884,-0.28835 z"
           style="-inkscape-font-specification:'Stradale Normale Positivo'"
           id="path16179-7-19" />
        <path
           d="m 367.45538,941.84196 v 1.74563 h -0.5457 v -1.74563 z m -0.27595,-0.71159 q 0.13333,0 0.22169,0.0899 0.0884,0.0884 0.0884,0.22169 0,0.0636 -0.0248,0.11937 -0.0248,0.0543 -0.0682,0.0961 -0.0434,0.0403 -0.0992,0.0667 -0.0543,0.0248 -0.11782,0.0248 -0.0636,0 -0.12092,-0.0248 -0.0574,-0.0263 -0.10077,-0.0667 -0.0419,-0.0419 -0.0667,-0.0961 -0.0233,-0.0558 -0.0233,-0.11937 0,-0.13022 0.0899,-0.22014 0.0915,-0.0915 0.22169,-0.0915 z"
           style="-inkscape-font-specification:'Stradale Normale Positivo'"
           id="path16181-7-0" />
        <path
           d="m 368.55872,941.73033 h 0.43253 v 0.5085 h -0.43253 v 0.71624 q 0,0.0713 0.0481,0.10076 0.048,0.0295 0.11162,0.031 0.0636,0.002 0.13177,-0.014 0.0682,-0.0155 0.11007,-0.0372 l 0.10077,0.48834 q -0.0605,0.0248 -0.13177,0.045 -0.0713,0.0186 -0.14263,0.031 -0.0713,0.0124 -0.13953,0.0186 -0.0682,0.008 -0.12557,0.008 -0.11782,0 -0.21859,-0.0341 -0.0992,-0.0326 -0.17364,-0.0977 -0.0744,-0.0651 -0.11782,-0.15968 -0.0419,-0.0961 -0.0419,-0.22014 v -0.87592 h -0.2837 v -0.5085 h 0.2837 v -0.49609 l 0.58912,-0.17363 z"
           style="-inkscape-font-specification:'Stradale Normale Positivo'"
           id="path16183-6-41" />
        <path
           d="m 370.11632,942.845 q -0.0419,0.0341 -0.10387,0.0449 -0.062,0.009 -0.12558,0.0155 -0.10387,0.0124 -0.15658,0.0512 -0.0527,0.0372 -0.0527,0.0853 0,0.0729 0.0589,0.0977 0.0589,0.0233 0.13178,0.0233 0.0403,0 0.0853,-0.008 0.0449,-0.009 0.0791,-0.0279 0.0357,-0.0186 0.0589,-0.0496 0.0248,-0.0326 0.0248,-0.0806 z m -0.25735,-1.0294 h 0.0822 q 0.24805,0 0.41858,0.0713 0.17208,0.0713 0.25115,0.2248 0.009,0.0248 0.0202,0.0496 0.0124,0.0232 0.0217,0.0589 0.009,0.0341 0.0155,0.0899 0.006,0.0558 0.006,0.14108 v 0.59376 q 0,0.0977 0.0388,0.12558 0.0403,0.0263 0.14573,0.0263 l -0.17209,0.42943 q -0.12402,0 -0.24494,-0.0465 -0.11938,-0.0465 -0.20309,-0.11007 -0.10077,0.0729 -0.22324,0.11472 -0.12248,0.0419 -0.2434,0.0419 -0.13022,0 -0.24495,-0.0388 -0.11317,-0.0388 -0.19998,-0.11008 -0.0853,-0.0713 -0.13643,-0.17363 -0.0496,-0.10387 -0.0496,-0.23409 0,-0.13023 0.0357,-0.21859 0.0372,-0.0884 0.10077,-0.15038 0.0636,-0.062 0.15348,-0.10232 0.0915,-0.0403 0.19533,-0.0744 0.0992,-0.0294 0.18604,-0.0403 0.0868,-0.0109 0.15348,-0.0202 0.0667,-0.009 0.10542,-0.0217 0.0387,-0.014 0.0387,-0.045 0,-0.0481 -0.0403,-0.0713 -0.0403,-0.0233 -0.0992,-0.031 -0.0574,-0.009 -0.12403,0 -0.0667,0.008 -0.12092,0.0233 -0.0636,0.0155 -0.13642,0.0589 -0.0729,0.0419 -0.16589,0.10852 l -0.25424,-0.38758 q 0.15038,-0.13642 0.32711,-0.20929 0.17828,-0.0729 0.36277,-0.0729 z"
           style="-inkscape-font-specification:'Stradale Normale Positivo'"
           id="path16185-6-6" />
        <path
           d="m 371.39221,941.11797 q -0.10077,0 -0.17364,0.0729 -0.0713,0.0713 -0.0713,0.17053 0,0.16744 0.13022,0.23565 0.0729,0.0186 0.0729,0.0279 0,0.0233 -0.11007,0.0233 -0.0419,0 -0.0419,0.0403 v 0.0698 q 0,0.0419 0.0419,0.0419 0.21859,0 0.34261,-0.0729 0.11162,-0.10232 0.11162,-0.26355 0,-0.13487 -0.0837,-0.23719 -0.0884,-0.10852 -0.21859,-0.10852 z"
           style="-inkscape-font-specification:'Stradale Normale Positivo'"
           id="path16187-2-30" />
      </g>
      <g
         aria-label="indirizzo"
         id="text16129-7-6"
         style="font-size:3.175px;font-family:'Stradale Normale Positivo';-inkscape-font-specification:'Stradale Normale Positivo';fill:#000000;fill-rule:evenodd;stroke-width:0.529167;stroke-linecap:round;paint-order:markers fill stroke"
         transform="matrix(4.1406528,0,0,4.1406528,-1083.8899,-2452.659)">
        <path
           d="m 359.37554,949.01865 v 1.74563 h -0.54571 v -1.74563 z m -0.27596,-0.71158 q 0.13333,0 0.2217,0.0899 0.0884,0.0884 0.0884,0.2217 0,0.0636 -0.0248,0.11937 -0.0248,0.0543 -0.0682,0.0961 -0.0434,0.0403 -0.0992,0.0667 -0.0543,0.0248 -0.11783,0.0248 -0.0636,0 -0.12092,-0.0248 -0.0574,-0.0264 -0.10077,-0.0667 -0.0418,-0.0419 -0.0667,-0.0961 -0.0233,-0.0558 -0.0233,-0.11937 0,-0.13023 0.0899,-0.22014 0.0915,-0.0915 0.22169,-0.0915 z"
           id="path16152-4-9" />
        <path
           d="m 360.79549,950.76428 v -0.95498 q 0.006,-0.14418 -0.0775,-0.23254 -0.0822,-0.0884 -0.19223,-0.0822 -0.0574,0.003 -0.10697,0.031 -0.0496,0.0263 -0.0868,0.0698 -0.0357,0.0419 -0.0558,0.0977 -0.0202,0.0558 -0.0202,0.11627 l -0.003,0.95498 h -0.55346 l 0.003,-1.74563 h 0.49299 l 0.0341,0.0946 q 0.0357,-0.0279 0.0868,-0.0496 0.0527,-0.0233 0.11007,-0.0388 0.0574,-0.0171 0.11317,-0.0248 0.0558,-0.008 0.10387,-0.008 0.20929,0 0.34416,0.0667 0.13488,0.0667 0.21239,0.17828 0.0775,0.11162 0.10697,0.2589 0.031,0.14728 0.031,0.31316 v 0.95498 z"
           id="path16154-8-0" />
        <path
           d="m 362.77926,948.28846 h 0.555 v 2.47582 h -0.49764 l -0.045,-0.10542 q -0.0636,0.0543 -0.16898,0.10077 -0.10387,0.0465 -0.21549,0.0434 -0.19999,-0.003 -0.35812,-0.0837 -0.15658,-0.0822 -0.26355,-0.21549 -0.10542,-0.13332 -0.16278,-0.30075 -0.0574,-0.16899 -0.0574,-0.35037 0,-0.18138 0.0574,-0.34727 0.0574,-0.16743 0.16278,-0.293 0.10697,-0.12713 0.26045,-0.20154 0.15503,-0.076 0.34572,-0.076 0.0512,0 0.10697,0.0109 0.0574,0.009 0.11007,0.0263 0.0527,0.0171 0.0961,0.0388 0.045,0.0202 0.0744,0.0419 z m -0.33021,1.13327 q -0.16278,0.003 -0.25425,0.10697 -0.0915,0.10232 -0.0915,0.25735 0,0.10232 0.0109,0.19223 0.0109,0.0899 0.0465,0.16123 0.0372,0.0698 0.10542,0.11163 0.0682,0.0403 0.18294,0.0465 0.0605,0.003 0.11472,-0.0155 0.0558,-0.0202 0.10077,-0.0574 0.045,-0.0388 0.0744,-0.0899 0.031,-0.0527 0.0403,-0.11317 v -0.33641 q 0,-0.0543 -0.0326,-0.10542 -0.031,-0.0512 -0.0791,-0.0884 -0.0481,-0.0388 -0.10697,-0.0574 -0.0574,-0.0186 -0.11162,-0.0124 z"
           id="path16156-1-6" />
        <path
           d="m 364.20181,949.01865 v 1.74563 h -0.5457 v -1.74563 z m -0.27595,-0.71158 q 0.13332,0 0.22169,0.0899 0.0884,0.0884 0.0884,0.2217 0,0.0636 -0.0248,0.11937 -0.0248,0.0543 -0.0682,0.0961 -0.0434,0.0403 -0.0992,0.0667 -0.0543,0.0248 -0.11782,0.0248 -0.0636,0 -0.12093,-0.0248 -0.0574,-0.0264 -0.10077,-0.0667 -0.0419,-0.0419 -0.0667,-0.0961 -0.0233,-0.0558 -0.0233,-0.11937 0,-0.13023 0.0899,-0.22014 0.0915,-0.0915 0.2217,-0.0915 z"
           id="path16158-1-1" />
        <path
           d="m 365.65101,949.54575 q -0.0372,-0.003 -0.0822,-0.006 -0.045,-0.005 -0.0915,0 -0.045,0.003 -0.0899,0.0109 -0.045,0.008 -0.076,0.0233 -0.0186,0.009 -0.0543,0.0263 -0.0341,0.0155 -0.0698,0.0543 -0.0341,0.0372 -0.0605,0.10077 -0.0248,0.0636 -0.0248,0.16743 v 0.84181 h -0.5488 l -0.005,-1.74563 h 0.55346 v 0.10387 q 0.0574,-0.0341 0.0791,-0.0481 0.0217,-0.0155 0.0605,-0.0341 0.0636,-0.0279 0.12867,-0.0372 0.0651,-0.0109 0.11782,-0.009 0.0543,0.002 0.0977,0.0109 0.0434,0.008 0.0651,0.0109 z"
           id="path16160-3-36" />
        <path
           d="m 366.44917,949.01865 v 1.74563 h -0.5457 v -1.74563 z m -0.27595,-0.71158 q 0.13333,0 0.22169,0.0899 0.0884,0.0884 0.0884,0.2217 0,0.0636 -0.0248,0.11937 -0.0248,0.0543 -0.0682,0.0961 -0.0434,0.0403 -0.0992,0.0667 -0.0543,0.0248 -0.11782,0.0248 -0.0636,0 -0.12092,-0.0248 -0.0574,-0.0264 -0.10077,-0.0667 -0.0419,-0.0419 -0.0667,-0.0961 -0.0233,-0.0558 -0.0233,-0.11937 0,-0.13023 0.0899,-0.22014 0.0915,-0.0915 0.22169,-0.0915 z"
           id="path16162-3-4" />
        <path
           d="m 368.14539,949.01865 v 0.46354 l -0.62786,0.79685 h 0.65732 v 0.48524 h -1.37821 v -0.44803 l 0.63562,-0.80615 h -0.61392 v -0.49145 z"
           id="path16164-5-6" />
        <path
           d="m 369.67243,949.01865 v 0.46354 l -0.62787,0.79685 h 0.65733 v 0.48524 h -1.37821 v -0.44803 l 0.63562,-0.80615 h -0.61392 v -0.49145 z"
           id="path16166-9-8" />
        <path
           d="m 370.76229,950.29764 q 0.17363,-0.003 0.262,-0.11782 0.0899,-0.11472 0.0899,-0.30076 0,-0.0868 -0.0232,-0.16278 -0.0217,-0.076 -0.0651,-0.13487 -0.0419,-0.0589 -0.10852,-0.0915 -0.0667,-0.0341 -0.15503,-0.0341 -0.093,0 -0.15813,0.0357 -0.0651,0.0341 -0.10697,0.0915 -0.0403,0.0574 -0.0589,0.13332 -0.0186,0.076 -0.0186,0.16278 0,0.0853 0.0186,0.16124 0.0186,0.076 0.0589,0.13332 0.0419,0.0574 0.10697,0.0915 0.0651,0.0326 0.15813,0.0326 z m 0.0124,0.5054 q -0.19379,-0.008 -0.35347,-0.0775 -0.15813,-0.0698 -0.2713,-0.19068 -0.11162,-0.12247 -0.17363,-0.28526 -0.062,-0.16433 -0.062,-0.35501 0,-0.19689 0.0574,-0.36277 0.0574,-0.16743 0.16588,-0.2868 0.11007,-0.11938 0.2682,-0.18604 0.15968,-0.0667 0.35967,-0.0667 0.19068,0 0.35037,0.0698 0.16123,0.0698 0.2744,0.19224 0.11472,0.12247 0.17828,0.28835 0.0636,0.16433 0.0636,0.35812 0,0.18448 -0.0651,0.35037 -0.0651,0.16433 -0.17983,0.28835 -0.11318,0.12247 -0.2713,0.19534 -0.15658,0.0713 -0.34107,0.0682 z"
           id="path16168-0-61" />
      </g>
      <g
         aria-label="telefoni"
         id="text16133-5-3"
         style="font-size:3.175px;font-family:'Stradale Normale Positivo';-inkscape-font-specification:'Stradale Normale Positivo';fill:#000000;fill-rule:evenodd;stroke-width:0.529167;stroke-linecap:round;paint-order:markers fill stroke"
         transform="matrix(4.1406528,0,0,4.1406528,-1083.8899,-2452.659)">
        <path
           d="m 359.4398,956.32335 h 0.43253 v 0.5085 h -0.43253 v 0.71623 q 0,0.0713 0.0481,0.10077 0.0481,0.0295 0.11162,0.031 0.0636,0.002 0.13178,-0.0139 0.0682,-0.0155 0.11007,-0.0372 l 0.10077,0.48834 q -0.0605,0.0248 -0.13178,0.045 -0.0713,0.0186 -0.14262,0.031 -0.0713,0.0124 -0.13953,0.0186 -0.0682,0.008 -0.12557,0.008 -0.11783,0 -0.2186,-0.0341 -0.0992,-0.0326 -0.17363,-0.0977 -0.0744,-0.0651 -0.11782,-0.15968 -0.0419,-0.0961 -0.0419,-0.22015 v -0.87591 h -0.2837 v -0.5085 h 0.2837 v -0.49609 l 0.58911,-0.17363 z"
           id="path16135-7-99" />
        <path
           d="m 361.66835,957.49227 h -1.11156 q 0.0419,0.13023 0.13642,0.18604 0.0946,0.0543 0.20619,0.0543 0.11473,0 0.2248,-0.045 0.11162,-0.0465 0.18138,-0.12247 l 0.34261,0.34881 q -0.0791,0.0884 -0.17983,0.14728 -0.0992,0.0589 -0.20619,0.0946 -0.10542,0.0341 -0.21704,0.0481 -0.11007,0.0155 -0.21549,0.0155 -0.18759,0 -0.33951,-0.0791 -0.15193,-0.0806 -0.26045,-0.21084 -0.10852,-0.13023 -0.16743,-0.29921 -0.0574,-0.17053 -0.0574,-0.34882 0,-0.17363 0.062,-0.33176 0.062,-0.15968 0.17208,-0.2806 0.11162,-0.12093 0.26355,-0.19069 0.15193,-0.0698 0.33021,-0.0698 0.19379,0 0.34727,0.0667 0.15503,0.0667 0.26355,0.18294 0.11007,0.11627 0.16898,0.27905 0.0589,0.16123 0.0589,0.35191 0,0.0558 0.002,0.11783 0.002,0.062 -0.005,0.0853 z m -0.5364,-0.41703 q -0.0264,-0.10076 -0.10852,-0.16588 -0.0822,-0.0651 -0.18139,-0.0589 -0.0884,0.006 -0.15968,0.0574 -0.0713,0.0512 -0.12247,0.16743 z"
           id="path16137-6-4" />
        <path
           d="m 361.84334,955.70479 h 0.56741 v 1.86345 q 0,0.11317 0.0884,0.12557 0.0899,0.0109 0.22944,-0.0465 l 0.0481,0.524 q -0.15348,0.0481 -0.31781,0.0496 -0.16278,0.002 -0.30076,-0.0512 -0.13797,-0.0527 -0.22634,-0.16123 -0.0884,-0.11007 -0.0884,-0.28835 z"
           id="path16139-3-7" />
        <path
           d="m 364.45031,957.49227 h -1.11156 q 0.0419,0.13023 0.13643,0.18604 0.0946,0.0543 0.20619,0.0543 0.11472,0 0.22479,-0.045 0.11162,-0.0465 0.18139,-0.12247 l 0.34261,0.34881 q -0.0791,0.0884 -0.17983,0.14728 -0.0992,0.0589 -0.20619,0.0946 -0.10542,0.0341 -0.21704,0.0481 -0.11007,0.0155 -0.21549,0.0155 -0.18759,0 -0.33952,-0.0791 -0.15193,-0.0806 -0.26045,-0.21084 -0.10852,-0.13023 -0.16743,-0.29921 -0.0574,-0.17053 -0.0574,-0.34882 0,-0.17363 0.062,-0.33176 0.062,-0.15968 0.17208,-0.2806 0.11163,-0.12093 0.26355,-0.19069 0.15193,-0.0698 0.33022,-0.0698 0.19378,0 0.34726,0.0667 0.15503,0.0667 0.26355,0.18294 0.11007,0.11627 0.16898,0.27905 0.0589,0.16123 0.0589,0.35191 0,0.0558 0.002,0.11783 0.002,0.062 -0.005,0.0853 z m -0.5364,-0.41703 q -0.0263,-0.10076 -0.10852,-0.16588 -0.0822,-0.0651 -0.18138,-0.0589 -0.0884,0.006 -0.15968,0.0574 -0.0713,0.0512 -0.12247,0.16743 z"
           id="path16141-3-1" />
        <path
           d="m 364.78765,958.1806 v -1.35185 h -0.26355 v -0.46044 h 0.26355 v -0.22944 q 0,-0.10697 0.031,-0.19224 0.031,-0.0868 0.0977,-0.14418 0.0961,-0.0853 0.21239,-0.11627 0.11782,-0.0326 0.23874,-0.0326 0.12093,0 0.2372,0.0217 0.11627,0.0217 0.21084,0.045 l -0.10852,0.47284 q -0.0403,-0.0155 -0.10232,-0.0295 -0.062,-0.0155 -0.11937,-0.0124 -0.0574,0.003 -0.0992,0.031 -0.0403,0.0263 -0.0403,0.093 v 0.093 h 0.35812 v 0.46044 h -0.35812 v 1.35185 z"
           id="path16143-6-0" />
        <path
           d="m 366.76968,957.71396 q 0.17363,-0.003 0.262,-0.11782 0.0899,-0.11472 0.0899,-0.30075 0,-0.0868 -0.0233,-0.16279 -0.0217,-0.076 -0.0651,-0.13487 -0.0419,-0.0589 -0.10852,-0.0915 -0.0667,-0.0341 -0.15503,-0.0341 -0.093,0 -0.15813,0.0357 -0.0651,0.0341 -0.10697,0.0915 -0.0403,0.0574 -0.0589,0.13332 -0.0186,0.076 -0.0186,0.16279 0,0.0853 0.0186,0.16123 0.0186,0.076 0.0589,0.13332 0.0419,0.0574 0.10697,0.0915 0.0651,0.0326 0.15813,0.0326 z m 0.0124,0.5054 q -0.19379,-0.008 -0.35347,-0.0775 -0.15813,-0.0698 -0.2713,-0.19069 -0.11162,-0.12247 -0.17363,-0.28525 -0.062,-0.16434 -0.062,-0.35502 0,-0.19689 0.0574,-0.36277 0.0574,-0.16743 0.16588,-0.2868 0.11007,-0.11938 0.2682,-0.18604 0.15968,-0.0667 0.35967,-0.0667 0.19068,0 0.35036,0.0698 0.16124,0.0698 0.27441,0.19224 0.11472,0.12247 0.17828,0.28835 0.0636,0.16433 0.0636,0.35812 0,0.18448 -0.0651,0.35037 -0.0651,0.16433 -0.17983,0.28835 -0.11318,0.12247 -0.27131,0.19534 -0.15657,0.0713 -0.34106,0.0682 z"
           id="path16145-3-3" />
        <path
           d="m 369.05171,958.1806 v -0.95498 q 0.006,-0.14417 -0.0775,-0.23254 -0.0822,-0.0884 -0.19223,-0.0822 -0.0574,0.003 -0.10697,0.031 -0.0496,0.0263 -0.0868,0.0698 -0.0357,0.0419 -0.0558,0.0977 -0.0202,0.0558 -0.0202,0.11627 l -0.003,0.95498 h -0.55346 l 0.003,-1.74563 h 0.493 l 0.0341,0.0946 q 0.0357,-0.0279 0.0868,-0.0496 0.0527,-0.0232 0.11007,-0.0388 0.0574,-0.0171 0.11317,-0.0248 0.0558,-0.008 0.10387,-0.008 0.20929,0 0.34417,0.0667 0.13487,0.0667 0.21239,0.17828 0.0775,0.11163 0.10697,0.2589 0.031,0.14728 0.031,0.31316 v 0.95498 z"
           id="path16147-8-4" />
        <path
           d="m 370.59425,956.43497 v 1.74563 h -0.5457 v -1.74563 z m -0.27595,-0.71158 q 0.13332,0 0.22169,0.0899 0.0884,0.0884 0.0884,0.22169 0,0.0636 -0.0248,0.11937 -0.0248,0.0543 -0.0682,0.0961 -0.0434,0.0403 -0.0992,0.0667 -0.0543,0.0248 -0.11782,0.0248 -0.0636,0 -0.12093,-0.0248 -0.0574,-0.0263 -0.10076,-0.0667 -0.0419,-0.0419 -0.0667,-0.0961 -0.0233,-0.0558 -0.0233,-0.11937 0,-0.13023 0.0899,-0.22014 0.0915,-0.0915 0.22169,-0.0915 z"
           id="path16149-4-1" />
      </g>
      <rect
         style="fill:#b3b3b3;fill-rule:evenodd;stroke-width:2.22205;stroke-linecap:round;paint-order:markers fill stroke"
         id="rect16325-7-8"
         width="129.64583"
         height="19.049999"
         x="477.39124"
         y="1434.9358" />
      <rect
         style="fill:#b3b3b3;fill-rule:evenodd;stroke-width:2.22205;stroke-linecap:round;paint-order:markers fill stroke"
         id="rect16325-5-8-5"
         width="129.64583"
         height="19.049999"
         x="477.3912"
         y="1465.3629" />
      <rect
         style="fill:#b3b3b3;fill-rule:evenodd;stroke-width:1.46158;stroke-linecap:round;paint-order:markers fill stroke"
         id="rect16325-2-3-4"
         width="56.091667"
         height="19.049999"
         x="477.3912"
         y="1495.7899" />
      <rect
         style="fill:#b3b3b3;fill-rule:evenodd;stroke-width:1.46158;stroke-linecap:round;paint-order:markers fill stroke"
         id="rect16325-2-0-9-4"
         width="56.091667"
         height="19.049999"
         x="550.94537"
         y="1495.7899" />
      <g
         aria-label="CARABINIERI"
         transform="matrix(1.9619175,0,0,1.9619183,-5091.2516,-9922.9302)"
         id="text4319"
         style="font-size:12.1374px;font-family:'Stradale Normale Positivo';-inkscape-font-specification:'Stradale Normale Positivo';white-space:pre;fill-rule:evenodd;stroke-width:2;stroke-linecap:round;paint-order:markers fill stroke">
        <path
           d="m 2823.0415,5778.5957 q -0.1837,0.6875 -0.4267,1.2387 -0.243,0.5452 -0.563,0.9304 -0.3201,0.3793 -0.7468,0.5927 -0.4267,0.2074 -0.9719,0.2311 -0.6164,0.024 -1.1675,-0.3556 -0.5453,-0.3852 -0.9483,-1.043 -0.397,-0.6638 -0.6282,-1.5528 -0.2311,-0.8949 -0.2192,-1.8905 -0.012,-1.0075 0.2252,-1.8965 0.237,-0.8949 0.64,-1.5527 0.4089,-0.6638 0.9601,-1.0312 0.5571,-0.3734 1.1734,-0.3615 0.569,0.012 1.0253,0.2785 0.4564,0.2667 0.7823,0.7349 0.3319,0.4682 0.5334,1.1142 0.2074,0.64 0.2963,1.4045 l -1.8609,0.1482 q -0.1304,-0.8534 -0.2845,-1.1853 -0.1481,-0.3319 -0.4563,-0.3437 -0.3971,-0.041 -0.6282,0.6756 -0.2311,0.7171 -0.2311,2.015 0,0.3141 0.01,0.7882 0.01,0.4741 0.077,0.9127 0.077,0.4385 0.2371,0.7526 0.1659,0.3141 0.48,0.3141 0.6223,0 0.8475,-1.5408 z"
           style="-inkscape-font-specification:'Stradale Stretto Positivo'"
           id="path4775" />
        <path
           d="m 2826.5559,5778.009 h 0.6934 l -0.3378,-2.1335 z m -0.2667,1.7128 -0.2786,1.772 h -2.175 l 1.5172,-9.4942 h 3.0877 l 1.5053,9.4942 h -2.1513 l -0.2785,-1.772 z"
           style="-inkscape-font-specification:'Stradale Stretto Positivo'"
           id="path4777" />
        <path
           d="m 2835.3448,5777.3571 1.7483,4.1367 h -2.015 l -1.4816,-3.5085 h -0.1067 v 3.5085 h -2.1216 v -9.4942 h 2.3528 q 0.5926,0 1.1082,0.2193 0.5156,0.2192 0.8949,0.6045 0.3852,0.3792 0.6045,0.9126 0.2193,0.5334 0.2193,1.1557 0,0.4386 -0.1245,0.8475 -0.1185,0.403 -0.3022,0.7289 -0.1778,0.326 -0.3912,0.563 -0.2133,0.2371 -0.3852,0.326 z m -1.855,-1.2268 q 0.2312,-0.012 0.4149,-0.1244 0.1896,-0.1186 0.3259,-0.2904 0.1364,-0.1719 0.2075,-0.3912 0.071,-0.2252 0.071,-0.4682 0,-0.2904 -0.1304,-0.4978 -0.1244,-0.2074 -0.2904,-0.3319 -0.16,-0.1304 -0.3378,-0.1778 -0.1778,-0.047 -0.2608,-0.024 z"
           style="-inkscape-font-specification:'Stradale Stretto Positivo'"
           id="path4779" />
        <path
           d="m 2840.8683,5778.009 h 0.6934 l -0.3378,-2.1335 z m -0.2667,1.7128 -0.2785,1.772 h -2.1751 l 1.5172,-9.4942 h 3.0877 l 1.5053,9.4942 h -2.1513 l -0.2785,-1.772 z"
           style="-inkscape-font-specification:'Stradale Stretto Positivo'"
           id="path4781" />
        <path
           d="m 2849.3668,5776.314 q 0.729,0.3141 1.1676,0.9601 0.4385,0.6401 0.4385,1.5231 0,0.6105 -0.2193,1.1083 -0.2192,0.4978 -0.6222,0.8475 -0.3971,0.3496 -0.9601,0.5452 -0.5571,0.1956 -1.2209,0.1956 h -2.2698 v -9.4942 h 2.5484 q 0.557,0 0.9897,0.1896 0.4385,0.1897 0.7349,0.5097 0.3022,0.32 0.4563,0.7645 0.16,0.4445 0.16,0.9542 0,0.2785 -0.1067,0.563 -0.1007,0.2845 -0.2785,0.5452 -0.1719,0.2608 -0.3852,0.4682 -0.2134,0.2074 -0.4327,0.32 z m -1.4697,0.9186 v 2.2462 q 0.5867,0 0.8,-0.2904 0.2193,-0.2904 0.2193,-0.8771 0,-0.5097 -0.2193,-0.7942 -0.2133,-0.2845 -0.8,-0.2845 z m 0,-3.3958 v 1.4935 q 0.6697,-0.053 0.6697,-0.7646 0,-0.3318 -0.1838,-0.5274 -0.1777,-0.2015 -0.4859,-0.2015 z"
           style="-inkscape-font-specification:'Stradale Stretto Positivo'"
           id="path4783" />
        <path
           d="m 2855.0088,5781.4938 h -2.2461 v -9.4942 h 2.2461 z"
           style="-inkscape-font-specification:'Stradale Stretto Positivo'"
           id="path4785" />
        <path
           d="m 2857.5335,5781.4938 v -9.4942 h 2.1217 l 1.0312,3.621 v -3.621 h 2.1513 v 9.4942 h -2.0624 l -1.0312,-3.6033 v 3.6033 z"
           style="-inkscape-font-specification:'Stradale Stretto Positivo'"
           id="path4787" />
        <path
           d="m 2867.6381,5781.4938 h -2.2461 v -9.4942 h 2.2461 z"
           style="-inkscape-font-specification:'Stradale Stretto Positivo'"
           id="path4789" />
        <path
           d="m 2870.1154,5781.4938 v -9.4942 h 4.0004 v 1.7898 h -1.7721 v 1.9142 h 1.4817 v 1.7957 h -1.4817 v 2.175 h 2.1276 v 1.8195 z"
           style="-inkscape-font-specification:'Stradale Stretto Positivo'"
           id="path4791" />
        <path
           d="m 2880.22,5777.3571 1.7483,4.1367 h -2.015 l -1.4816,-3.5085 h -0.1067 v 3.5085 h -2.1216 v -9.4942 h 2.3528 q 0.5926,0 1.1082,0.2193 0.5156,0.2192 0.8949,0.6045 0.3852,0.3792 0.6045,0.9126 0.2193,0.5334 0.2193,1.1557 0,0.4386 -0.1245,0.8475 -0.1185,0.403 -0.3022,0.7289 -0.1778,0.326 -0.3912,0.563 -0.2133,0.2371 -0.3852,0.326 z m -1.855,-1.2268 q 0.2312,-0.012 0.4149,-0.1244 0.1896,-0.1186 0.3259,-0.2904 0.1363,-0.1719 0.2075,-0.3912 0.071,-0.2252 0.071,-0.4682 0,-0.2904 -0.1304,-0.4978 -0.1245,-0.2074 -0.2904,-0.3319 -0.16,-0.1304 -0.3378,-0.1778 -0.1778,-0.047 -0.2608,-0.024 z"
           style="-inkscape-font-specification:'Stradale Stretto Positivo'"
           id="path4793" />
        <path
           d="m 2886.2769,5781.4938 h -2.2462 v -9.4942 h 2.2462 z"
           style="-inkscape-font-specification:'Stradale Stretto Positivo'"
           id="path4795" />
      </g>
    </g>
  </g>
</svg>
