<?xml version="1.0" encoding="UTF-8" standalone="no"?>
<!-- Created with Inkscape (http://www.inkscape.org/) -->

<svg
   xmlns:dc="http://purl.org/dc/elements/1.1/"
   xmlns:cc="http://creativecommons.org/ns#"
   xmlns:rdf="http://www.w3.org/1999/02/22-rdf-syntax-ns#"
   xmlns:svg="http://www.w3.org/2000/svg"
   xmlns="http://www.w3.org/2000/svg"
   xmlns:sodipodi="http://sodipodi.sourceforge.net/DTD/sodipodi-0.dtd"
   xmlns:inkscape="http://www.inkscape.org/namespaces/inkscape"
   width="1461.2812"
   height="1080.6562"
   id="svg15282"
   version="1.1"
   inkscape:version="0.48.5 r10040"
   sodipodi:docname="Nuovo documento 87">
  <defs
     id="defs15284" />
  <sodipodi:namedview
     id="base"
     pagecolor="#ffffff"
     bordercolor="#666666"
     borderopacity="1.0"
     inkscape:pageopacity="0.0"
     inkscape:pageshadow="2"
     inkscape:zoom="0.24748737"
     inkscape:cx="890.79163"
     inkscape:cy="638.82818"
     inkscape:document-units="px"
     inkscape:current-layer="layer1"
     showgrid="false"
     fit-margin-top="0"
     fit-margin-left="0"
     fit-margin-right="0"
     fit-margin-bottom="0"
     inkscape:window-width="1366"
     inkscape:window-height="705"
     inkscape:window-x="-8"
     inkscape:window-y="-8"
     inkscape:window-maximized="1" />
  <metadata
     id="metadata15287">
    <rdf:RDF>
      <cc:Work
         rdf:about="">
        <dc:format>image/svg+xml</dc:format>
        <dc:type
           rdf:resource="http://purl.org/dc/dcmitype/StillImage" />
        <dc:title></dc:title>
      </cc:Work>
    </rdf:RDF>
  </metadata>
  <g
     inkscape:label="Livello 1"
     inkscape:groupmode="layer"
     id="layer1"
     transform="translate(813.3125,462.75)">
    <rect
       style="fill:#ffffff;fill-opacity:1;stroke:none"
       id="rect13218"
       width="1460.297"
       height="1079.6508"
       x="-647.47797"
       y="-462.25732"
       transform="scale(-1,1)" />
    <path
       style="fill:#b4b4b4;fill-opacity:1;stroke:#000000;stroke-width:2;stroke-linecap:butt;stroke-linejoin:miter;stroke-miterlimit:4;stroke-opacity:1;stroke-dasharray:none"
       d="m -724.87631,-2.9463474 569.40521,0 -9.8995,-52.9288996 -596.47021,0 0,652.928927 36.9645,36.75 z"
       id="path13059"
       inkscape:connector-curvature="0"
       sodipodi:nodetypes="ccccccc" />
    <path
       sodipodi:nodetypes="ccccccc"
       inkscape:connector-curvature="0"
       id="path13063"
       d="m 559.80097,-2.9463474 -569.4051669,0 9.89950004,-52.9288996 596.47016686,0 0,652.928927 -36.9645,36.75 z"
       style="fill:#b4b4b4;fill-opacity:1;stroke:#000000;stroke-width:2;stroke-linecap:butt;stroke-linejoin:miter;stroke-miterlimit:4;stroke-opacity:1;stroke-dasharray:none" />
    <rect
       style="fill:#08842c;fill-opacity:1;fill-rule:evenodd;stroke:none"
       id="rect3218-0"
       width="325"
       height="470"
       x="-632.06921"
       y="-412.51282" />
    <rect
       style="fill:#ffffff;fill-opacity:1;stroke:none"
       id="rect7246-4"
       width="255"
       height="45"
       x="-597.06921"
       y="-182.51282" />
    <rect
       style="fill:#00408b;fill-opacity:1;stroke:#ffffff;stroke-width:3.52500033;stroke-miterlimit:4;stroke-opacity:1;stroke-dasharray:none"
       id="rect7322-3"
       width="251.47499"
       height="51.475002"
       x="-595.3067"
       y="-375.75031" />
    <rect
       y="-307.51282"
       x="-597.06921"
       height="45"
       width="255"
       id="rect12870"
       style="fill:#ffffff;fill-opacity:1;stroke:none" />
    <rect
       y="-242.01282"
       x="-256.56921"
       height="299"
       width="324"
       id="rect4024"
       style="fill:#ffffff;fill-opacity:1;fill-rule:evenodd;stroke:#000000;stroke-width:0.99999994;stroke-opacity:1" />
    <rect
       style="fill:#08842c;fill-opacity:1;fill-rule:evenodd;stroke:none"
       id="rect4026"
       width="350"
       height="200"
       x="117.93086"
       y="-142.51282" />
    <path
       style="fill:none;stroke:#ffffff;stroke-width:1.36363685;stroke-linecap:butt;stroke-linejoin:miter;stroke-miterlimit:4;stroke-opacity:1;stroke-dasharray:none"
       d="m 229.73727,-46.077637 c 1.1918,-0.18049 2.5518,-1.541 2.7548,-2.78217 l 2.8194,-18.65384 -2.8194,-18.65184 c -0.203,-1.24117 -1.563,-2.60168 -2.7548,-2.78217 l -18.7455,-2.88318 -18.7426,2.88318 c -1.1918,0.18049 -2.5518,1.541 -2.7548,2.78217 l -2.8193,18.65184 2.8193,18.65384 c 0.203,1.24117 1.563,2.60168 2.7548,2.78217 l 18.7422,2.88318 z"
       id="path3382"
       inkscape:connector-curvature="0"
       sodipodi:nodetypes="ccccccccccccc" />
    <rect
       style="fill:none;stroke:#ffffff;stroke-width:5.25;stroke-miterlimit:4;stroke-opacity:1;stroke-dasharray:none"
       id="rect5354"
       width="339.5"
       height="189.5"
       x="123.18086"
       y="-137.26276"
       rx="18.375"
       ry="18.375" />
    <path
       id="path13035"
       style="fill:#ffffff;fill-opacity:1;fill-rule:evenodd;stroke-width:0.15289199"
       d="m 440.42117,-21.949767 0.01,51.93715 -51.9362,-0.01 c -1.2358,-10e-5 -2.2784,-0.8189 -2.5728,-2.0183 -0.2933,-1.2002 0.2541,-2.4075 1.3496,-2.977 l 21.7203,-11.2939 c 0.6513,-0.3388 1.049,-0.9407 1.1031,-1.6727 0.055,-0.7321 -0.2484,-1.3875 -0.8427,-1.8187 l -15.5206,-11.2920404 15.6166,-15.6165996 11.2913,15.5213796 c 0.4296,0.59569002 1.0874,0.89650002 1.8192,0.84217002 0.7322,-0.0553 1.3353,-0.45223 1.6728,-1.10317002 l 11.2935,-21.7202396 c 0.5703,-1.09642 1.7765,-1.64297 2.9771,-1.34957 1.2002,0.29361 2.0193,1.33594 2.0194,2.57159 z"
       inkscape:connector-curvature="0" />
    <g
       style="font-size:35.56172943px;font-style:normal;font-weight:normal;line-height:125%;letter-spacing:0px;word-spacing:0px;fill:#ffffff;fill-opacity:1;stroke:none;font-family:Sans"
       id="text5358-7">
      <path
         d="m 249.74856,-67.352013 c 0,-4.812738 1.56494,-8.369124 4.69483,-10.66917 2.18063,-1.588068 4.6344,-2.382114 7.3613,-2.382141 2.20451,2.7e-5 4.32618,0.675419 6.36504,2.026177 1.82538,1.185848 3.14107,2.572806 3.94708,4.160878 l -4.51576,2.241058 c -1.28062,-2.513437 -3.284,-3.770164 -6.01016,-3.770186 -1.47017,2.2e-5 -2.65563,0.344049 -3.55639,1.03208 -0.97167,0.734378 -1.63549,1.421708 -1.99144,2.06199 -0.64031,1.114216 -0.96046,2.678795 -0.96046,4.69374 0,2.229132 0.16604,3.841462 0.49814,4.836995 0.35595,1.114206 1.09103,2.074297 2.20524,2.880274 1.30375,0.972397 2.67877,1.458592 4.12507,1.458587 1.70673,5e-6 3.1825,-0.604664 4.42731,-1.814009 1.24477,-1.209331 1.86716,-2.596108 1.86718,-4.160336 l -6.61465,0 0,-4.48103 11.09568,0 0,14.260289 -4.37467,0 c -0.0709,-0.213433 -0.2131,-0.545521 -0.42651,-0.996267 -2.10976,1.114199 -4.12508,1.671298 -6.04597,1.671297 -2.6314,10e-7 -5.02584,-0.758594 -7.18332,-2.275786 -3.2717,-2.275418 -4.90754,-5.866895 -4.90754,-10.77444 z"
         style="font-variant:normal;font-stretch:normal;fill:#ffffff;font-family:CodiceBianco;-inkscape-font-specification:CodiceBianco"
         id="path15427"
         inkscape:connector-curvature="0" />
      <path
         d="m 294.66521,-80.012631 0,4.516843 -12.12667,0 0,5.369856 10.88188,0 0,4.515758 -10.84606,0 0,5.761634 13.33564,0 0,4.835909 -18.45698,0 0,-25 z"
         style="font-variant:normal;font-stretch:normal;fill:#ffffff;font-family:CodiceBianco;-inkscape-font-specification:CodiceBianco"
         id="path15429"
         inkscape:connector-curvature="0" />
      <path
         d="m 323.80547,-55.012631 -5.83217,0 -12.09086,-17.318545 0,17.318545 -4.97916,0 0,-25 5.83217,0 12.09194,17.4249 0,-17.4249 4.97808,0 z"
         style="font-variant:normal;font-stretch:normal;fill:#ffffff;font-family:CodiceBianco;-inkscape-font-specification:CodiceBianco"
         id="path15431"
         inkscape:connector-curvature="0" />
      <path
         d="m 352.07209,-67.672164 c -2e-5,4.006059 -1.14967,7.206481 -3.44894,9.601276 -2.20455,2.27615 -5.04937,3.414223 -8.53447,3.414222 -3.48514,1e-6 -6.31838,-1.138072 -8.49974,-3.414222 -2.2993,-2.394795 -3.44895,-5.595217 -3.44895,-9.601276 0,-3.911975 1.2683,-7.053431 3.80491,-9.424379 2.27614,-2.109716 4.99073,-3.164585 8.14378,-3.164612 3.15302,2.7e-5 5.86761,1.054896 8.14377,3.164612 2.55974,2.370948 3.83962,5.512404 3.83964,9.424379 z m -5.47621,0 c -2e-5,-2.347034 -0.59854,-4.220007 -1.79556,-5.618922 -1.19705,-1.398877 -2.7676,-2.098325 -4.71164,-2.098346 -1.94407,2.1e-5 -3.50286,0.699469 -4.67638,2.098346 -1.17353,1.398915 -1.76029,3.271888 -1.76029,5.618922 0,2.441842 0.49777,4.350085 1.49332,5.724735 1.11419,1.564949 2.76197,2.347419 4.94335,2.347413 2.2045,6e-6 3.86386,-0.782464 4.97808,-2.347413 1.01939,-1.398526 1.5291,-3.306769 1.52912,-5.724735 z"
         style="font-variant:normal;font-stretch:normal;fill:#ffffff;font-family:CodiceBianco;-inkscape-font-specification:CodiceBianco"
         id="path15433"
         inkscape:connector-curvature="0" />
      <path
         d="m 359.52348,-80.012631 4.87281,17.67451 5.22769,-17.67451 5.29822,0 -7.28967,25 -6.50829,0 -6.82736,-25 z"
         style="font-variant:normal;font-stretch:normal;fill:#ffffff;font-family:CodiceBianco;-inkscape-font-specification:CodiceBianco"
         id="path15435"
         inkscape:connector-curvature="0" />
      <path
         d="m 384.21418,-80.012631 7.18332,0 8.49866,25 -5.51203,0 -1.42168,-4.196692 -10.20685,0 -1.38696,4.196692 -5.33405,0 z m 3.59112,5.61838 -3.48476,10.527001 7.11278,0 z"
         style="font-variant:normal;font-stretch:normal;fill:#ffffff;font-family:CodiceBianco;-inkscape-font-specification:CodiceBianco"
         id="path15437"
         inkscape:connector-curvature="0" />
    </g>
    <g
       style="font-size:26.26560402px;font-style:normal;font-weight:normal;line-height:125%;letter-spacing:0px;word-spacing:0px;fill:#ffffff;fill-opacity:1;stroke:none;font-family:Sans"
       id="text3384">
      <path
         d="m 204.55572,-76.548007 2.94173,18.201884 -3.88677,0 -0.47293,-3.598215 -2.67882,0 -0.52582,3.598215 -3.80823,0 3.1253,-18.201884 z m -2.67882,4.596961 -1.0244,7.222881 1.94379,0 z"
         style="text-align:center;word-spacing:-2.50000095px;text-anchor:middle;fill:#ffffff;font-family:CodiceBiancoCondensed;-inkscape-font-specification:CodiceBiancoCondensed"
         id="path15422"
         inkscape:connector-curvature="0" />
      <path
         d="m 216.74195,-76.679464 8.27373,0 0,3.073192 -4.2026,15.339503 -3.75612,0 4.17694,-15.103042 -4.49195,0 z"
         style="text-align:center;word-spacing:-2.50000095px;text-anchor:middle;fill:#ffffff;font-family:CodiceBiancoCondensed;-inkscape-font-specification:CodiceBiancoCondensed"
         id="path15424"
         inkscape:connector-curvature="0" />
    </g>
    <g
       style="font-size:35.4601326px;font-style:normal;font-weight:normal;line-height:125%;letter-spacing:0px;word-spacing:0px;fill:#000000;fill-opacity:1;stroke:none;font-family:Sans"
       id="text6830-1-9">
      <path
         d="m -139.87599,-182.51281 -5.67267,0 0,-15.81573 -7.05674,9.60956 -7.09246,-9.53814 0,15.7086 -5.70838,0 0,-24.85824 6.34685,-0.0346 6.38256,8.97108 6.4897,-9.04251 6.31114,0 z"
         style="font-variant:normal;font-stretch:normal;fill:#000000;font-family:CodiceNero;-inkscape-font-specification:CodiceNero"
         id="path15528"
         inkscape:connector-curvature="0" />
      <path
         d="m -128.53389,-207.40676 0,24.85824 -5.77981,0 0,-24.85824 z"
         style="font-variant:normal;font-stretch:normal;fill:#000000;font-family:CodiceNero;-inkscape-font-specification:CodiceNero"
         id="path15530"
         inkscape:connector-curvature="0" />
      <path
         d="m -122.14808,-207.54852 5.63912,0 0,19.71583 10.99255,0 0,5.28417 -16.63167,0 z"
         style="font-variant:normal;font-stretch:normal;fill:#000000;font-family:CodiceNero;-inkscape-font-specification:CodiceNero"
         id="path15532"
         inkscape:connector-curvature="0" />
      <path
         d="m -94.926417,-207.61886 7.304562,0 8.15622,25.07034 -6.028699,0 -1.275863,-3.75941 -9.042507,0 -1.347286,3.75941 -5.85123,0 z m 3.687992,7.02104 -0.07142,0 -2.730283,8.72327 0.07142,-0.0357 5.389144,0.0357 z"
         style="font-variant:normal;font-stretch:normal;fill:#000000;font-family:CodiceNero;-inkscape-font-specification:CodiceNero"
         id="path15534"
         inkscape:connector-curvature="0" />
      <path
         d="m -58.271583,-182.54852 -11.027183,-15.60254 0,15.63825 -6.06441,0 0,-25.10605 6.560038,0 11.205739,16.1696 -0.07142,-16.20531 5.815514,0 0,25.10605 z"
         style="font-variant:normal;font-stretch:normal;fill:#000000;font-family:CodiceNero;-inkscape-font-specification:CodiceNero"
         id="path15536"
         inkscape:connector-curvature="0" />
      <path
         d="m -35.635012,-208.11557 c 2.836678,3e-5 5.366038,0.79217 7.588087,2.37642 3.239233,2.29275 4.858861,5.87397 4.858887,10.74366 -2.6e-5,3.97152 -1.323864,7.16316 -3.971518,9.57493 -2.411788,2.1506 -5.272287,3.22591 -8.581508,3.22591 -3.356862,0 -6.182011,-1.08721 -8.475456,-3.26163 -2.529365,-2.41104 -3.794045,-5.68528 -3.794044,-9.82274 -10e-7,-3.33303 0.957346,-6.19353 2.872046,-8.58151 2.269638,-2.83667 5.43747,-4.25501 9.503506,-4.25504 z m -5.957277,13.01403 c -7e-6,2.31655 0.5555,4.11329 1.666523,5.39022 1.064111,1.18172 2.482457,1.77258 4.255042,1.77258 1.843981,0 3.30381,-0.65001 4.379491,-1.95005 1.075646,-1.30002 1.613477,-3.07296 1.613497,-5.31881 -2e-5,-2.10441 -0.484465,-3.842 -1.453337,-5.21275 -1.087946,-1.51283 -2.577354,-2.26926 -4.468228,-2.26928 -3.995335,2e-5 -5.992995,2.52938 -5.992988,7.58809 z"
         style="font-variant:normal;font-stretch:normal;fill:#000000;font-family:CodiceNero;-inkscape-font-specification:CodiceNero"
         id="path15538"
         inkscape:connector-curvature="0" />
    </g>
    <g
       style="font-size:25.53129578px;font-style:normal;font-weight:normal;line-height:125%;letter-spacing:0px;word-spacing:0px;fill:#000000;fill-opacity:1;stroke:none;font-family:Sans"
       id="text6855-3">
      <path
         d="m -108.1391,-160.76388 c 1.51467,2e-5 2.8678,0.50205 4.05939,1.50611 1.00406,0.86799 1.61673,1.78713 1.83803,2.75742 l -3.57398,1.30197 c -0.0681,-0.5615 -0.27245,-1.03809 -0.61319,-1.42975 -0.42543,-0.47631 -1.00408,-0.71447 -1.73596,-0.71448 -0.73189,1e-5 -1.33184,0.26804 -1.79984,0.80408 -0.46802,0.53607 -0.70202,1.2212 -0.70202,2.05541 l 0,0.97005 c 0,0.69812 0.19582,1.31937 0.58748,1.86373 0.45918,0.66384 1.11445,0.99576 1.96581,0.99576 0.52774,0 1.04263,-0.21271 1.54467,-0.63813 0.50202,-0.42541 0.76161,-0.97004 0.77876,-1.63388 l 3.6254,1.27625 c -10e-6,0.30647 -0.20441,0.77448 -0.61319,1.40403 -0.51062,0.81708 -1.14874,1.48092 -1.91438,1.99152 -1.02122,0.68098 -2.17878,1.02147 -3.47269,1.02147 -1.87205,0 -3.44646,-0.70643 -4.72322,-2.1193 -1.08926,-1.19106 -1.63389,-2.46757 -1.63389,-3.82954 l 0,-1.19989 c 0,-1.54895 0.52775,-2.94467 1.58324,-4.18717 1.22534,-1.46376 2.8252,-2.19564 4.79958,-2.19566 z"
         style="font-variant:normal;font-stretch:normal;fill:#000000;font-family:CodiceNero;-inkscape-font-specification:CodiceNero"
         id="path15541"
         inkscape:connector-curvature="0" />
      <path
         d="m -94.076937,-160.78959 c 1.634135,2e-5 3.05531,0.57867 4.263527,1.73596 1.361947,1.29392 2.042926,2.99611 2.04294,5.10657 -1.4e-5,0.27219 -0.04261,0.70618 -0.127781,1.30196 l -8.527833,0 c 0.391649,1.20873 1.259885,1.79595 2.604709,1.76167 1.054965,-0.0338 2.093056,-0.4423 3.114276,-1.22561 l 2.732491,2.68107 c -2.110998,1.46377 -4.077059,2.19565 -5.898191,2.19565 -1.718818,0 -3.216609,-0.53606 -4.493377,-1.60817 -1.395725,-1.19158 -2.119034,-2.76599 -2.169944,-4.72323 0,-0.25555 0,-0.64721 0,-1.17496 0.0166,-1.29339 0.50152,-2.54445 1.454681,-3.75318 1.225865,-1.53181 2.89403,-2.29771 5.004502,-2.29773 z m -2.297723,5.05515 4.467665,0 c -0.101819,-0.47631 -0.356991,-0.88043 -0.765518,-1.21236 -0.408544,-0.33191 -0.893827,-0.50644 -1.455848,-0.52359 -0.578658,-0.0171 -1.080692,0.17012 -1.506103,0.56176 -0.357377,0.32362 -0.604109,0.71502 -0.740196,1.17419 z"
         style="font-variant:normal;font-stretch:normal;fill:#000000;font-family:CodiceNero;-inkscape-font-specification:CodiceNero"
         id="path15543"
         inkscape:connector-curvature="0" />
      <path
         d="m -77.064905,-147.53853 0,-7.20015 c -1e-5,-0.62955 -0.17454,-1.15717 -0.523591,-1.58285 -0.349069,-0.42567 -0.846948,-0.63851 -1.493637,-0.63852 -0.71475,1e-5 -1.250807,0.247 -1.608172,0.74098 -0.255568,0.37452 -0.383349,0.80851 -0.383344,1.30196 l 0,7.37858 -4.0851,0 0,-12.94485 3.600467,0 0.204138,0.79162 c 0.901734,-0.71473 2.084488,-1.0721 3.548264,-1.07212 1.668417,2e-5 2.953499,0.64672 3.855251,1.9401 0.663825,0.95317 0.995744,1.91491 0.995758,2.8852 l 0,8.40005 z"
         style="font-variant:normal;font-stretch:normal;fill:#000000;font-family:CodiceNero;-inkscape-font-specification:CodiceNero"
         id="path15545"
         inkscape:connector-curvature="0" />
      <path
         d="m -64.031229,-165.84473 0,4.82529 3.344905,0 0,3.60047 -3.267769,0 0,5.33564 c -7e-6,0.57866 0.408269,0.86798 1.224829,0.86798 0.255553,0 0.596043,-0.0297 1.02147,-0.0892 0.425408,-0.0595 0.68071,-0.0892 0.765908,-0.0892 l 0.715263,3.39555 c -1.021221,0.51061 -2.323444,0.76591 -3.906675,0.76591 -1.072121,0 -2.008143,-0.27244 -2.808069,-0.81733 -0.885121,-0.61241 -1.32768,-1.38663 -1.327677,-2.32266 l 0,-7.04666 -2.119297,0 0,-3.60047 2.119297,0 0,-3.75318 z"
         style="font-variant:normal;font-stretch:normal;fill:#000000;font-family:CodiceNero;-inkscape-font-specification:CodiceNero"
         id="path15547"
         inkscape:connector-curvature="0" />
      <path
         d="m -48.953053,-156.55099 c -0.374523,-0.10232 -0.749036,-0.15349 -1.123539,-0.1535 -0.867985,1e-5 -1.582728,0.22986 -2.14423,0.68955 -0.630082,0.49348 -0.945119,1.19134 -0.945113,2.09359 l 0,6.38282 -4.135746,0 0,-12.96978 4.18717,0 0,0.81655 c 0.374507,-0.22127 0.740449,-0.44255 1.097827,-0.66384 0.646689,-0.30645 1.327409,-0.45969 2.042161,-0.4597 0.340221,1e-5 0.68071,0.0343 1.02147,0.10285 z"
         style="font-variant:normal;font-stretch:normal;fill:#000000;font-family:CodiceNero;-inkscape-font-specification:CodiceNero"
         id="path15549"
         inkscape:connector-curvature="0" />
      <path
         d="m -35.766659,-158.84872 c 1.17443,1.27627 1.761651,2.77406 1.761665,4.49338 -1.4e-5,2.22942 -0.723327,4.03368 -2.169942,5.41278 -1.259642,1.19107 -2.697957,1.7866 -4.314951,1.7866 -2.399797,0 -4.25496,-0.92745 -5.565492,-2.78236 -0.459702,-0.66383 -0.766169,-1.2256 -0.919401,-1.68531 -0.22128,-0.61293 -0.33192,-1.44688 -0.331919,-2.50186 -10e-7,-2.17902 0.731883,-3.9238 2.195654,-5.23435 1.225863,-1.10639 2.732225,-1.65958 4.519089,-1.6596 1.872556,2e-5 3.480986,0.72359 4.825297,2.17072 z m -7.582721,3.93161 0,1.40404 c -4e-6,0.69812 0.272439,1.30249 0.817332,1.81308 0.544882,0.51061 1.166126,0.76592 1.863735,0.76591 0.714735,1e-5 1.335979,-0.2553 1.863735,-0.76591 0.527736,-0.51059 0.791609,-1.11496 0.79162,-1.81308 l 0,-1.40404 c -1.1e-5,-0.73187 -0.289336,-1.34455 -0.867977,-1.83802 -0.527756,-0.44255 -1.123547,-0.66383 -1.787378,-0.66384 -0.697609,1e-5 -1.310282,0.22129 -1.838023,0.66384 -0.562034,0.49347 -0.843048,1.10615 -0.843044,1.83802 z"
         style="font-variant:normal;font-stretch:normal;fill:#000000;font-family:CodiceNero;-inkscape-font-specification:CodiceNero"
         id="path15551"
         inkscape:connector-curvature="0" />
    </g>
    <path
       id="path11444-9"
       d="m -132.51951,-153.51282 c 0,5.27412 -4.2755,9.54981 -9.5498,9.54981 -5.2741,0 -9.5497,-4.27569 -9.5497,-9.54981 0,-5.27404 4.2756,-9.54982 9.5497,-9.54982 5.2743,0 9.5498,4.27578 9.5498,9.54982 z"
       style="font-size:16.94802094px;font-style:normal;font-weight:normal;line-height:125%;letter-spacing:0px;word-spacing:0px;fill:none;stroke:#000000;stroke-width:0.90037251;stroke-linecap:butt;stroke-linejoin:miter;stroke-miterlimit:4;stroke-opacity:1;stroke-dashoffset:0;font-family:Sans"
       inkscape:connector-curvature="0" />
    <path
       id="path11446-8"
       d="m -134.28201,-153.51338 c 0,4.27625 -3.4863,7.74301 -7.7873,7.74301 -4.3006,0 -7.7871,-3.46676 -7.7871,-7.74301 0,-4.2768 3.4865,-7.74372 7.7871,-7.74372 4.301,0 7.7873,3.46692 7.7873,7.74372 z"
       style="font-size:16.94802094px;font-style:normal;font-weight:normal;line-height:125%;letter-spacing:0px;word-spacing:0px;fill:none;stroke:#000000;stroke-width:0.90037251;stroke-linecap:butt;stroke-linejoin:miter;stroke-miterlimit:4;stroke-opacity:1;stroke-dashoffset:0;font-family:Sans"
       inkscape:connector-curvature="0" />
    <path
       id="path11448-4"
       d="m -136.07111,-153.53636 c 0,3.28083 -2.6751,5.9408 -5.9749,5.9408 -3.2998,0 -5.9749,-2.65997 -5.9749,-5.9408 0,-3.28163 2.6751,-5.94159 5.9749,-5.94159 3.2998,0 5.9749,2.65996 5.9749,5.94159 z"
       style="font-size:16.94802094px;font-style:normal;font-weight:normal;line-height:125%;letter-spacing:0px;word-spacing:0px;fill:none;stroke:#000000;stroke-width:0.90037251;stroke-linecap:butt;stroke-linejoin:miter;stroke-miterlimit:4;stroke-opacity:1;stroke-dashoffset:0;font-family:Sans"
       inkscape:connector-curvature="0" />
    <path
       id="path11450-0"
       d="m -138.67221,-153.72855 c 0,1.85269 -1.5106,3.35446 -3.3738,3.35446 -1.8632,0 -3.3735,-1.50177 -3.3735,-3.35446 0,-1.85254 1.5103,-3.35454 3.3735,-3.35454 1.8632,0 3.3738,1.502 3.3738,3.35454 z"
       style="font-size:16.94802094px;font-style:normal;font-weight:normal;line-height:125%;letter-spacing:0px;word-spacing:0px;fill:#000000;fill-opacity:1;stroke:none;font-family:Sans"
       inkscape:connector-curvature="0" />
    <g
       style="font-size:35.4601326px;font-style:normal;font-weight:normal;line-height:125%;letter-spacing:0px;word-spacing:0px;fill:#000000;fill-opacity:1;stroke:none;font-family:Sans"
       id="text6830-1-9-7">
      <path
         d="m -563.14627,-272.51281 -5.67266,0 0,-15.81573 -7.05675,9.60956 -7.09246,-9.53814 0,15.7086 -5.70838,0 0,-24.85824 6.34685,-0.0346 6.38257,8.97108 6.48969,-9.04251 6.31114,0 z"
         style="font-variant:normal;font-stretch:normal;fill:#000000;font-family:CodiceNero;-inkscape-font-specification:CodiceNero"
         id="path15465"
         inkscape:connector-curvature="0" />
      <path
         d="m -551.80417,-297.40676 0,24.85824 -5.77981,0 0,-24.85824 z"
         style="font-variant:normal;font-stretch:normal;fill:#000000;font-family:CodiceNero;-inkscape-font-specification:CodiceNero"
         id="path15467"
         inkscape:connector-curvature="0" />
      <path
         d="m -545.41836,-297.54852 5.63912,0 0,19.71583 10.99256,0 0,5.28417 -16.63168,0 z"
         style="font-variant:normal;font-stretch:normal;fill:#000000;font-family:CodiceNero;-inkscape-font-specification:CodiceNero"
         id="path15469"
         inkscape:connector-curvature="0" />
      <path
         d="m -518.1967,-297.61886 7.30457,0 8.15622,25.07034 -6.0287,0 -1.27587,-3.75941 -9.0425,0 -1.34729,3.75941 -5.85122,0 z m 3.688,7.02104 -0.0714,0 -2.73028,8.72327 0.0714,-0.0357 5.38915,0.0357 z"
         style="font-variant:normal;font-stretch:normal;fill:#000000;font-family:CodiceNero;-inkscape-font-specification:CodiceNero"
         id="path15471"
         inkscape:connector-curvature="0" />
      <path
         d="m -481.54186,-272.54852 -11.02719,-15.60254 0,15.63825 -6.06441,0 0,-25.10605 6.56004,0 11.20574,16.1696 -0.0714,-16.20531 5.81551,0 0,25.10605 z"
         style="font-variant:normal;font-stretch:normal;fill:#000000;font-family:CodiceNero;-inkscape-font-specification:CodiceNero"
         id="path15473"
         inkscape:connector-curvature="0" />
      <path
         d="m -458.90529,-298.11557 c 2.83668,3e-5 5.36604,0.79217 7.58809,2.37642 3.23923,2.29275 4.85886,5.87397 4.85888,10.74366 -2e-5,3.97152 -1.32386,7.16316 -3.97151,9.57493 -2.41179,2.1506 -5.27229,3.22591 -8.58151,3.22591 -3.35687,0 -6.18201,-1.08721 -8.47546,-3.26163 -2.52936,-2.41104 -3.79404,-5.68528 -3.79404,-9.82274 0,-3.33303 0.95734,-6.19353 2.87204,-8.58151 2.26964,-2.83667 5.43747,-4.25501 9.50351,-4.25504 z m -5.95728,13.01403 c -10e-6,2.31655 0.5555,4.11329 1.66652,5.39022 1.06412,1.18172 2.48246,1.77258 4.25505,1.77258 1.84398,0 3.30381,-0.65001 4.37949,-1.95005 1.07564,-1.30002 1.61348,-3.07296 1.61349,-5.31881 -1e-5,-2.10441 -0.48446,-3.842 -1.45333,-5.21275 -1.08795,-1.51283 -2.57736,-2.26926 -4.46823,-2.26928 -3.99533,2e-5 -5.993,2.52938 -5.99299,7.58809 z"
         style="font-variant:normal;font-stretch:normal;fill:#000000;font-family:CodiceNero;-inkscape-font-specification:CodiceNero"
         id="path15475"
         inkscape:connector-curvature="0" />
    </g>
    <g
       style="font-size:21.27607918px;font-style:normal;font-weight:normal;line-height:125%;letter-spacing:0px;word-spacing:0px;fill:#000000;fill-opacity:1;stroke:none;font-family:Sans"
       id="text12772">
      <path
         d="m -434.71028,-287.57647 12.31906,0 0,3.16986 -4.42559,0 0,11.87235 -3.48931,0 0,-11.87235 -4.40416,0 z"
         style="font-variant:normal;font-stretch:normal;fill:#000000;font-family:CodiceNero;-inkscape-font-specification:CodiceNero"
         id="path15478"
         inkscape:connector-curvature="0" />
      <path
         d="m -420.9316,-283.34242 3.42567,0 0,10.82958 -3.42567,0 z m -0.0636,-3.36204 c 0.35452,-0.70902 0.93607,-1.06353 1.74466,-1.06355 0.31209,2e-5 0.60276,0.0639 0.872,0.19154 0.72331,0.35453 1.08497,0.94323 1.08497,1.76608 0,0.29783 -0.0639,0.58135 -0.19154,0.85058 -0.35452,0.70948 -0.943,1.06421 -1.76543,1.06419 -0.3121,2e-5 -0.60298,-0.0638 -0.87265,-0.19154 -0.70903,-0.3545 -1.06355,-0.93605 -1.06355,-1.74465 0,-0.31208 0.0639,-0.60297 0.19154,-0.87265 z"
         style="font-variant:normal;font-stretch:normal;fill:#000000;font-family:CodiceNero;-inkscape-font-specification:CodiceNero"
         id="path15480"
         inkscape:connector-curvature="0" />
      <path
         d="m -410.15851,-283.55539 c 1.26222,2e-5 2.38982,0.41838 3.38282,1.25509 0.83671,0.72332 1.34728,1.48927 1.53169,2.29785 l -2.97832,1.08497 c -0.0567,-0.46791 -0.22704,-0.86506 -0.51099,-1.19145 -0.35452,-0.39693 -0.83673,-0.5954 -1.44663,-0.5954 -0.60991,0 -1.10987,0.22336 -1.49987,0.67007 -0.39001,0.44672 -0.58502,1.01767 -0.58501,1.71284 l 0,0.80837 c -1e-5,0.58177 0.16318,1.09947 0.48956,1.55311 0.38265,0.5532 0.92871,0.8298 1.63817,0.8298 0.43979,0 0.86886,-0.17726 1.28723,-0.53177 0.41835,-0.35451 0.63468,-0.80837 0.64897,-1.36157 l 3.02117,1.06354 c -1e-5,0.25539 -0.17035,0.6454 -0.511,1.17003 -0.42551,0.68089 -0.95728,1.23409 -1.59531,1.6596 -0.85102,0.56748 -1.81566,0.85122 -2.89391,0.85122 -1.56004,0 -2.87205,-0.58869 -3.93602,-1.76608 -0.90772,-0.99255 -1.36157,-2.05631 -1.36157,-3.19128 l 0,-0.99992 c 0,-1.29079 0.43978,-2.45389 1.31936,-3.4893 1.02112,-1.2198 2.35434,-1.8297 3.99966,-1.82972 z"
         style="font-variant:normal;font-stretch:normal;fill:#000000;font-family:CodiceNero;-inkscape-font-specification:CodiceNero"
         id="path15482"
         inkscape:connector-curvature="0" />
      <path
         d="m -403.31235,-283.34242 3.42568,0 0,10.82958 -3.42568,0 z m -0.0636,-3.36204 c 0.35451,-0.70902 0.93606,-1.06353 1.74465,-1.06355 0.31209,2e-5 0.60276,0.0639 0.87201,0.19154 0.7233,0.35453 1.08496,0.94323 1.08497,1.76608 -10e-6,0.29783 -0.0639,0.58135 -0.19155,0.85058 -0.35451,0.70948 -0.94299,1.06421 -1.76543,1.06419 -0.31209,2e-5 -0.60298,-0.0638 -0.87265,-0.19154 -0.70903,-0.3545 -1.06354,-0.93605 -1.06354,-1.74465 0,-0.31208 0.0638,-0.60297 0.19154,-0.87265 z"
         style="font-variant:normal;font-stretch:normal;fill:#000000;font-family:CodiceNero;-inkscape-font-specification:CodiceNero"
         id="path15484"
         inkscape:connector-curvature="0" />
      <path
         d="m -390.49658,-272.53426 0,-6.00013 c -1e-5,-0.52462 -0.14545,-0.9643 -0.43632,-1.31904 -0.29089,-0.35473 -0.70579,-0.53209 -1.2447,-0.5321 -0.59563,1e-5 -1.04234,0.20583 -1.34014,0.61748 -0.21298,0.3121 -0.31946,0.67376 -0.31946,1.08497 l 0,6.14882 -3.40425,0 0,-10.78738 3.00039,0 0.17012,0.65968 c 0.75144,-0.5956 1.73707,-0.89341 2.95688,-0.89343 1.39035,2e-5 2.46125,0.53893 3.21271,1.61675 0.55319,0.79431 0.82979,1.59575 0.8298,2.40433 l 0,7.00005 z"
         style="font-variant:normal;font-stretch:normal;fill:#000000;font-family:CodiceNero;-inkscape-font-specification:CodiceNero"
         id="path15486"
         inkscape:connector-curvature="0" />
      <path
         d="m -379.69881,-283.57681 c 1.36178,1e-5 2.54609,0.48222 3.55294,1.44663 1.13495,1.07827 1.70244,2.49676 1.70245,4.25547 -10e-6,0.22683 -0.0355,0.58848 -0.10649,1.08497 l -7.10652,0 c 0.32637,1.00728 1.0499,1.49663 2.17059,1.46806 0.87913,-0.0281 1.74421,-0.36858 2.59523,-1.02134 l 2.27707,2.23422 c -1.75916,1.21981 -3.39755,1.82971 -4.91516,1.82971 -1.43234,0 -2.6805,-0.44671 -3.74448,-1.34014 -1.1631,-0.99299 -1.76586,-2.30499 -1.80828,-3.93603 0,-0.21296 0,-0.53934 0,-0.97913 0.0138,-1.07782 0.41793,-2.12037 1.21223,-3.12765 1.02155,-1.27651 2.41169,-1.91476 4.17042,-1.91477 z m -1.91477,4.21262 3.72305,0 c -0.0848,-0.39693 -0.29749,-0.73369 -0.63793,-1.0103 -0.34045,-0.27659 -0.74485,-0.42203 -1.2132,-0.43633 -0.48222,-0.0143 -0.90058,0.14177 -1.25509,0.46814 -0.29782,0.26968 -0.50342,0.59585 -0.61683,0.97849 z"
         style="font-variant:normal;font-stretch:normal;fill:#000000;font-family:CodiceNero;-inkscape-font-specification:CodiceNero"
         id="path15488"
         inkscape:connector-curvature="0" />
      <path
         d="m -367.81997,-283.51253 c 1.87212,1e-5 3.52458,0.57442 4.95736,1.72322 l -2.17059,2.27643 c -0.55321,-0.70902 -1.35443,-1.06353 -2.40369,-1.06354 -0.75188,10e-6 -1.12783,0.12748 -1.12782,0.38243 -1e-5,0.11342 0.085,0.21276 0.25517,0.29803 0.0567,0.0286 0.69496,0.17034 1.91477,0.42529 1.04969,0.22726 1.84399,0.55363 2.38291,0.97913 0.78001,0.59563 1.17002,1.45378 1.17003,2.57445 -10e-6,0.73761 -0.27661,1.43971 -0.8298,2.10631 -0.82245,1.02113 -2.08467,1.53169 -3.78668,1.53169 -2.09939,0 -3.90789,-0.68782 -5.42551,-2.06346 -0.071,-0.0428 0.69496,-0.76638 2.29786,-2.17059 1.31892,0.87958 2.38268,1.31937 3.19128,1.31937 0.21296,0 0.41164,-0.0426 0.59605,-0.12791 0.2411,-0.11341 0.3333,-0.26231 0.2766,-0.44672 -0.0996,-0.2978 -0.6387,-0.53891 -1.61739,-0.72331 -1.2341,-0.21297 -2.09225,-0.46835 -2.57446,-0.76617 -0.89343,-0.53891 -1.34014,-1.40398 -1.34014,-2.59523 0,-1.07825 0.38655,-1.95772 1.15964,-2.63841 0.77309,-0.68066 1.79789,-1.021 3.07441,-1.02101 z"
         style="font-variant:normal;font-stretch:normal;fill:#000000;font-family:CodiceNero;-inkscape-font-specification:CodiceNero"
         id="path15490"
         inkscape:connector-curvature="0" />
      <path
         d="m -355.68012,-283.57681 c 1.36178,1e-5 2.5461,0.48222 3.55294,1.44663 1.13496,1.07827 1.70244,2.49676 1.70245,4.25547 -10e-6,0.22683 -0.0355,0.58848 -0.10648,1.08497 l -7.10653,0 c 0.32638,1.00728 1.04991,1.49663 2.17059,1.46806 0.87914,-0.0281 1.74422,-0.36858 2.59523,-1.02134 l 2.27708,2.23422 c -1.75917,1.21981 -3.39755,1.82971 -4.91516,1.82971 -1.43235,0 -2.68051,-0.44671 -3.74448,-1.34014 -1.16311,-0.99299 -1.76587,-2.30499 -1.80829,-3.93603 0,-0.21296 0,-0.53934 0,-0.97913 0.0138,-1.07782 0.41793,-2.12037 1.21224,-3.12765 1.02155,-1.27651 2.41169,-1.91476 4.17041,-1.91477 z m -1.91476,4.21262 3.72305,0 c -0.0849,-0.39693 -0.29749,-0.73369 -0.63793,-1.0103 -0.34046,-0.27659 -0.74486,-0.42203 -1.21321,-0.43633 -0.48221,-0.0143 -0.90058,0.14177 -1.25509,0.46814 -0.29781,0.26968 -0.50342,0.59585 -0.61682,0.97849 z"
         style="font-variant:normal;font-stretch:normal;fill:#000000;font-family:CodiceNero;-inkscape-font-specification:CodiceNero"
         id="path15492"
         inkscape:connector-curvature="0" />
    </g>
    <g
       style="font-size:35.56172943px;font-style:normal;font-weight:normal;line-height:125%;letter-spacing:0px;word-spacing:0px;fill:#ffffff;fill-opacity:1;stroke:none;font-family:Sans"
       id="text6826-6">
      <path
         d="m -498.58096,-362.51281 c 2.10973,2e-5 3.98252,0.74704 5.61838,2.24105 1.75448,1.63587 2.63173,3.66277 2.63175,6.0807 -2e-5,2.32319 -0.8892,4.27919 -2.66756,5.86799 -1.63586,1.49333 -3.49672,2.23998 -5.58257,2.23997 l -5.72582,0 0,8.6061 -5.26241,0 0,-25.03581 z m -5.72582,4.44521 0,7.39712 5.36986,0 c 0.85372,10e-6 1.62425,-0.37928 2.3116,-1.13789 0.68731,-0.75858 1.03098,-1.56475 1.03099,-2.4185 -10e-6,-1.06643 -0.37913,-1.99107 -1.13735,-2.77392 -0.68734,-0.71118 -1.42242,-1.06679 -2.20524,-1.06681 z"
         style="font-variant:normal;font-stretch:normal;fill:#ffffff;font-family:CodiceBianco;-inkscape-font-specification:CodiceBianco"
         id="path15454"
         inkscape:connector-curvature="0" />
      <path
         d="m -480.60474,-362.51281 7.18332,0 8.49865,25 -5.51202,0 -1.42169,-4.1967 -10.20685,0 -1.38696,4.1967 -5.33404,0 z m 3.59111,5.61838 -3.48476,10.527 7.11278,0 z"
         style="font-variant:normal;font-stretch:normal;fill:#ffffff;font-family:CodiceBianco;-inkscape-font-specification:CodiceBianco"
         id="path15456"
         inkscape:connector-curvature="0" />
      <path
         d="m -458.48176,-362.51281 4.87281,17.67451 5.22768,-17.67451 5.29823,0 -7.28967,25 -6.5083,0 -6.82735,-25 z"
         style="font-variant:normal;font-stretch:normal;fill:#ffffff;font-family:CodiceBianco;-inkscape-font-specification:CodiceBianco"
         id="path15458"
         inkscape:connector-curvature="0" />
      <path
         d="m -434.36082,-362.51281 0,25 -5.15606,0 0,-25 z"
         style="font-variant:normal;font-stretch:normal;fill:#ffffff;font-family:CodiceBianco;-inkscape-font-specification:CodiceBianco"
         id="path15460"
         inkscape:connector-curvature="0" />
      <path
         d="m -423.16421,-362.51281 7.18332,0 8.49865,25 -5.51202,0 -1.42169,-4.1967 -10.20685,0 -1.38696,4.1967 -5.33404,0 z m 3.59111,5.61838 -3.48476,10.527 7.11278,0 z"
         style="font-variant:normal;font-stretch:normal;fill:#ffffff;font-family:CodiceBianco;-inkscape-font-specification:CodiceBianco"
         id="path15462"
         inkscape:connector-curvature="0" />
    </g>
    <rect
       ry="3.1575432"
       y="-364.56281"
       x="-584.1192"
       height="29.1"
       width="59.100002"
       id="rect12381-1-5"
       style="fill:none;stroke:#ffffff;stroke-width:0.90000004;stroke-miterlimit:4;stroke-opacity:1;stroke-dasharray:none"
       rx="3.1575432" />
    <g
       transform="scale(0.99217699,1.0078847)"
       style="font-size:21.35272217px;font-style:normal;font-weight:normal;line-height:125%;letter-spacing:0px;word-spacing:0px;fill:#ffffff;fill-opacity:1;stroke:none;font-family:Sans"
       id="text12387-3-4">
      <path
         d="m -578.07466,-354.95047 c 1.8363,0.0426 3.1602,0.98202 3.97171,2.81831 l -2.19927,1.38798 c -0.52696,-1.01089 -1.13906,-1.51634 -1.8363,-1.51635 -0.31322,1e-5 -0.58017,0.11036 -0.80086,0.33103 -0.22069,0.2207 -0.34537,0.50894 -0.37404,0.86472 -0.0282,0.28499 0.0858,0.57692 0.34211,0.87579 0.0851,0.0995 0.33429,0.32735 0.74743,0.68357 1.0817,0.83974 2.3059,1.87888 3.6726,3.11741 0.54085,0.68335 0.81128,1.51614 0.81129,2.49836 -10e-6,1.12429 -0.34169,2.09218 -1.02502,2.90368 -0.76894,0.89665 -1.78679,1.36648 -3.05356,1.40948 -1.87888,0.0569 -3.2384,-0.99656 -4.07857,-3.16042 l 2.28528,-1.30261 c 0.48394,1.18163 1.06042,1.77244 1.72943,1.77244 0.1994,0 0.39858,-0.0497 0.59755,-0.14922 0.51261,-0.25631 0.76892,-0.69051 0.76893,-1.30262 -10e-6,-0.44137 -0.15662,-0.81149 -0.46983,-1.11038 -0.79717,-0.66901 -1.59433,-1.33802 -2.3915,-2.00703 -1.18163,-0.98222 -1.89343,-1.69402 -2.1354,-2.13541 -0.37013,-0.64076 -0.55519,-1.30977 -0.55519,-2.00703 0,-1.08213 0.40575,-2.02178 1.21725,-2.81896 0.8115,-0.79715 1.73682,-1.1814 2.77596,-1.15274 z"
         style="font-variant:normal;font-stretch:normal;text-align:center;text-anchor:middle;fill:#ffffff;font-family:CodiceBiancoCondensed;-inkscape-font-specification:CodiceBiancoCondensed"
         id="path15445"
         inkscape:connector-curvature="0" />
      <path
         d="m -568.39921,-354.95047 c 1.8363,0.0426 3.1602,0.98202 3.97171,2.81831 l -2.19927,1.38798 c -0.52696,-1.01089 -1.13906,-1.51634 -1.8363,-1.51635 -0.31322,1e-5 -0.58017,0.11036 -0.80086,0.33103 -0.22069,0.2207 -0.34536,0.50894 -0.37403,0.86472 -0.0282,0.28499 0.0858,0.57692 0.3421,0.87579 0.0851,0.0995 0.33429,0.32735 0.74743,0.68357 1.0817,0.83974 2.3059,1.87888 3.6726,3.11741 0.54085,0.68335 0.81128,1.51614 0.81129,2.49836 -1e-5,1.12429 -0.34168,2.09218 -1.02502,2.90368 -0.76894,0.89665 -1.78679,1.36648 -3.05356,1.40948 -1.87888,0.0569 -3.2384,-0.99656 -4.07857,-3.16042 l 2.28528,-1.30261 c 0.48394,1.18163 1.06042,1.77244 1.72943,1.77244 0.1994,0 0.39858,-0.0497 0.59755,-0.14922 0.51261,-0.25631 0.76892,-0.69051 0.76893,-1.30262 -10e-6,-0.44137 -0.15662,-0.81149 -0.46983,-1.11038 -0.79717,-0.66901 -1.59433,-1.33802 -2.39149,-2.00703 -1.18163,-0.98222 -1.89343,-1.69402 -2.13541,-2.13541 -0.37012,-0.64076 -0.55519,-1.30977 -0.55519,-2.00703 0,-1.08213 0.40575,-2.02178 1.21725,-2.81896 0.8115,-0.79715 1.73682,-1.1814 2.77596,-1.15274 z"
         style="font-variant:normal;font-stretch:normal;text-align:center;text-anchor:middle;fill:#ffffff;font-family:CodiceBiancoCondensed;-inkscape-font-specification:CodiceBiancoCondensed"
         id="path15447"
         inkscape:connector-curvature="0" />
      <path
         d="m -553.656,-350.61581 c -0.0713,-0.78325 0.19223,-1.64449 0.79043,-2.58372 0.76849,-1.16728 1.80046,-1.73681 3.09591,-1.70859 1.05347,0.0144 1.93958,0.38101 2.65834,1.09996 0.71874,0.71898 1.07812,1.56958 1.07812,2.5518 0,0.71159 -0.20635,1.40189 -0.61905,2.07089 -0.29889,0.48395 -0.88253,1.00352 -1.75094,1.55871 0.25631,0.0712 0.69051,0.26348 1.30262,0.57669 1.01046,0.74026 1.51569,1.78657 1.5157,3.13892 -10e-6,1.1673 -0.4163,2.17798 -1.24886,3.03205 -0.83257,0.85407 -1.8325,1.28111 -2.99979,1.28111 -1.39537,0 -2.45601,-0.54085 -3.18193,-1.62257 -0.51218,-0.76892 -0.76827,-1.58042 -0.76827,-2.4345 l 2.60458,-0.5982 c 0.0287,1.33846 0.46287,2.00769 1.30261,2.00768 0.35579,1e-5 0.66184,-0.17083 0.91815,-0.51251 0.25631,-0.34166 0.38446,-0.80443 0.38447,-1.3883 -1e-5,-0.68334 -0.17074,-1.18141 -0.51219,-1.4942 -0.24241,-0.2424 -0.61254,-0.39206 -1.11038,-0.44897 -0.38447,-0.0426 -0.76893,-0.078 -1.15339,-0.10622 l 0,-2.47751 c 0.81149,1e-5 1.43793,-0.24196 1.87931,-0.72592 0.41269,-0.44092 0.61904,-1.03869 0.61905,-1.79329 -1e-5,-0.75458 -0.28477,-1.13188 -0.85429,-1.13189 -0.78283,10e-6 -1.30957,0.69053 -1.58021,2.07154 z"
         style="font-variant:normal;font-stretch:normal;text-align:center;text-anchor:middle;fill:#ffffff;font-family:CodiceBiancoCondensed;-inkscape-font-specification:CodiceBiancoCondensed"
         id="path15449"
         inkscape:connector-curvature="0" />
      <path
         d="m -542.10711,-354.77974 6.0211,0 0,2.32763 -3.39501,0 -0.42682,2.81831 c 0.35578,-0.0995 0.71158,-0.14921 1.06737,-0.14922 0.93965,1e-5 1.70836,0.34147 2.30613,1.02437 0.69768,0.79717 1.04652,1.98597 1.04653,3.56639 -1e-5,1.76506 -0.48418,3.15999 -1.45249,4.18479 -0.85409,0.89708 -1.87172,1.34562 -3.05291,1.34562 -0.93966,0 -1.81523,-0.34884 -2.62673,-1.04652 -0.93966,-0.8115 -1.40948,-1.85781 -1.40948,-3.13892 l 2.64823,-0.49133 c 0.44094,1.2242 0.87493,1.8363 1.30197,1.8363 1.02523,0 1.53785,-0.90381 1.53785,-2.71145 0,-1.56608 -0.40575,-2.34913 -1.21725,-2.34913 -0.59777,0 -0.96073,0.26348 -1.08888,0.79043 l -2.36999,-0.53369 z"
         style="font-variant:normal;font-stretch:normal;text-align:center;text-anchor:middle;fill:#ffffff;font-family:CodiceBiancoCondensed;-inkscape-font-specification:CodiceBiancoCondensed"
         id="path15451"
         inkscape:connector-curvature="0" />
    </g>
    <g
       style="font-size:35.56172943px;font-style:normal;font-weight:normal;line-height:125%;letter-spacing:0px;word-spacing:0px;fill:#ffffff;fill-opacity:1;stroke:none;font-family:Sans"
       id="text6818-7">
      <path
         d="m -516.2113,-237.51281 c 1.51717,2e-5 2.92801,0.64032 4.2325,1.9209 1.39852,1.35081 2.09779,2.89151 2.09781,4.62212 -2e-5,1.82614 -0.82988,3.53325 -2.48958,5.12133 2.34702,1.28062 3.52055,3.29594 3.52057,6.04597 -2e-5,1.80153 -0.55712,3.38999 -1.67129,4.76537 -1.18513,1.49331 -2.76164,2.34669 -4.72956,2.56012 l -13.90432,0 0,-25.03581 z m -7.68146,10.06359 5.97435,0 c 0.73506,2e-5 1.33973,-0.28432 1.81401,-0.85301 0.47424,-0.56866 0.71137,-1.22054 0.71138,-1.95564 -10e-6,-1.63582 -0.90078,-2.53694 -2.70229,-2.70337 l -5.79745,0 z m 0,10.42065 6.43667,0 c 0.99625,0 1.79066,-0.30821 2.38322,-0.92464 0.49776,-0.56939 0.74664,-1.26902 0.74666,-2.09889 -2e-5,-0.7821 -0.24311,-1.48137 -0.72929,-2.0978 -0.48621,-0.61642 -1.15582,-0.97202 -2.00881,-1.06681 l -6.82845,0 z"
         style="font-variant:normal;font-stretch:normal;fill:#ffffff;font-family:CodiceBianco;-inkscape-font-specification:CodiceBianco"
         id="path15495"
         inkscape:connector-curvature="0" />
      <path
         d="m -481.56336,-225.17235 c -3e-5,4.00606 -1.14967,7.20648 -3.44895,9.60128 -2.20454,2.27615 -5.04936,3.41422 -8.53447,3.41422 -3.48513,0 -6.31838,-1.13807 -8.49974,-3.41422 -2.2993,-2.3948 -3.44895,-5.59522 -3.44895,-9.60128 0,-3.91197 1.26831,-7.05343 3.80492,-9.42438 2.27614,-2.10971 4.99073,-3.16458 8.14377,-3.16461 3.15302,3e-5 5.86761,1.0549 8.14378,3.16461 2.55974,2.37095 3.83961,5.51241 3.83964,9.42438 z m -5.47621,0 c -2e-5,-2.34703 -0.59854,-4.22 -1.79556,-5.61892 -1.19706,-1.39888 -2.7676,-2.09832 -4.71165,-2.09835 -1.94407,3e-5 -3.50286,0.69947 -4.67637,2.09835 -1.17354,1.39892 -1.7603,3.27189 -1.76029,5.61892 -1e-5,2.44184 0.49776,4.35009 1.49331,5.72474 1.11419,1.56495 2.76197,2.34742 4.94335,2.34741 2.20451,1e-5 3.86387,-0.78246 4.97808,-2.34741 1.0194,-1.39853 1.52911,-3.30677 1.52913,-5.72474 z"
         style="font-variant:normal;font-stretch:normal;fill:#ffffff;font-family:CodiceBianco;-inkscape-font-specification:CodiceBianco"
         id="path15497"
         inkscape:connector-curvature="0" />
      <path
         d="m -472.36906,-217.02857 11.48637,0 0,4.51576 -16.3939,0 0,-25 4.90753,0 z"
         style="font-variant:normal;font-stretch:normal;fill:#ffffff;font-family:CodiceBianco;-inkscape-font-specification:CodiceBianco"
         id="path15499"
         inkscape:connector-curvature="0" />
      <path
         d="m -434.05511,-225.17235 c -3e-5,4.00606 -1.14967,7.20648 -3.44895,9.60128 -2.20454,2.27615 -5.04936,3.41422 -8.53447,3.41422 -3.48513,0 -6.31838,-1.13807 -8.49974,-3.41422 -2.2993,-2.3948 -3.44895,-5.59522 -3.44895,-9.60128 0,-3.91197 1.26831,-7.05343 3.80492,-9.42438 2.27614,-2.10971 4.99073,-3.16458 8.14377,-3.16461 3.15302,3e-5 5.86761,1.0549 8.14378,3.16461 2.55973,2.37095 3.83961,5.51241 3.83964,9.42438 z m -5.47621,0 c -2e-5,-2.34703 -0.59854,-4.22 -1.79556,-5.61892 -1.19706,-1.39888 -2.7676,-2.09832 -4.71165,-2.09835 -1.94407,3e-5 -3.50286,0.69947 -4.67637,2.09835 -1.17354,1.39892 -1.7603,3.27189 -1.76029,5.61892 -10e-6,2.44184 0.49776,4.35009 1.49331,5.72474 1.11419,1.56495 2.76197,2.34742 4.94335,2.34741 2.20451,1e-5 3.86386,-0.78246 4.97808,-2.34741 1.0194,-1.39853 1.52911,-3.30677 1.52913,-5.72474 z"
         style="font-variant:normal;font-stretch:normal;fill:#ffffff;font-family:CodiceBianco;-inkscape-font-specification:CodiceBianco"
         id="path15501"
         inkscape:connector-curvature="0" />
      <path
         d="m -431.01313,-224.8522 c -1e-5,-4.81273 1.56493,-8.36912 4.69482,-10.66917 2.18064,-1.58806 4.6344,-2.38211 7.3613,-2.38214 2.20451,3e-5 4.32619,0.67542 6.36504,2.02618 1.82538,1.18585 3.14108,2.57281 3.94709,4.16088 l -4.51576,2.24106 c -1.28063,-2.51344 -3.28401,-3.77017 -6.01016,-3.77019 -1.47018,2e-5 -2.65564,0.34405 -3.55639,1.03208 -0.97168,0.73438 -1.63549,1.42171 -1.99145,2.06199 -0.64031,1.11422 -0.96046,2.67879 -0.96045,4.69374 -1e-5,2.22913 0.16604,3.84146 0.49813,4.83699 0.35596,1.11421 1.09104,2.0743 2.20525,2.88028 1.30374,0.9724 2.67876,1.45859 4.12506,1.45859 1.70673,0 3.1825,-0.60467 4.42731,-1.81401 1.24477,-1.20933 1.86717,-2.59611 1.86719,-4.16034 l -6.61465,0 0,-4.48103 11.09568,0 0,14.26029 -4.37468,0 c -0.0709,-0.21343 -0.21309,-0.54552 -0.42651,-0.99627 -2.10975,1.1142 -4.12508,1.6713 -6.04597,1.6713 -2.6314,0 -5.02583,-0.75859 -7.18332,-2.27579 -3.27169,-2.27541 -4.90754,-5.86689 -4.90753,-10.77444 z"
         style="font-variant:normal;font-stretch:normal;fill:#ffffff;font-family:CodiceBianco;-inkscape-font-specification:CodiceBianco"
         id="path15503"
         inkscape:connector-curvature="0" />
      <path
         d="m -380.01578,-212.51281 -5.83217,0 -12.09086,-17.31855 0,17.31855 -4.97917,0 0,-25 5.83218,0 12.09194,17.4249 0,-17.4249 4.97808,0 z"
         style="font-variant:normal;font-stretch:normal;fill:#ffffff;font-family:CodiceBianco;-inkscape-font-specification:CodiceBianco"
         id="path15505"
         inkscape:connector-curvature="0" />
      <path
         d="m -368.78229,-237.51281 7.18333,0 8.49865,25 -5.51202,0 -1.42169,-4.1967 -10.20685,0 -1.38696,4.1967 -5.33404,0 z m 3.59112,5.61838 -3.48476,10.527 7.11278,0 z"
         style="font-variant:normal;font-stretch:normal;fill:#ffffff;font-family:CodiceBianco;-inkscape-font-specification:CodiceBianco"
         id="path15507"
         inkscape:connector-curvature="0" />
    </g>
    <path
       style="fill:none;stroke:#ffffff;stroke-width:1.22727549;stroke-linecap:butt;stroke-linejoin:miter;stroke-miterlimit:4;stroke-opacity:1;stroke-dasharray:none"
       d="m -560.19947,-205.72129 c 1.0726,-0.16245 2.2966,-1.3869 2.4793,-2.50391 l 2.5376,-16.78853 -2.5376,-16.78672 c -0.1827,-1.11702 -1.4067,-2.34147 -2.4793,-2.50392 l -16.871,-2.59482 -16.8684,2.59482 c -1.0725,0.16245 -2.2966,1.3869 -2.4793,2.50392 l -2.5374,16.78672 2.5374,16.78853 c 0.1827,1.11701 1.4068,2.34146 2.4793,2.50391 l 16.8681,2.59482 z"
       id="path3382-3-6"
       inkscape:connector-curvature="0"
       sodipodi:nodetypes="ccccccccccccc" />
    <g
       style="font-size:23.63908958px;font-style:normal;font-weight:normal;line-height:125%;letter-spacing:0px;word-spacing:0px;fill:#ffffff;fill-opacity:1;stroke:none;font-family:Sans"
       id="text3384-4-0">
      <path
         d="m -582.42459,-233.14472 2.64757,16.38173 -3.49811,0 -0.42563,-3.2384 -2.41094,0 -0.47324,3.2384 -3.42741,0 2.81277,-16.38173 z m -2.41094,4.13728 -0.92196,6.5006 1.74941,0 z"
         style="text-align:center;word-spacing:-2.25000525px;text-anchor:middle;fill:#ffffff;font-family:CodiceBiancoCondensed;-inkscape-font-specification:CodiceBiancoCondensed"
         id="path15440"
         inkscape:connector-curvature="0" />
      <path
         d="m -565.85451,-233.30992 0,16.61835 -3.35671,0 0,-11.06351 -1.82011,0 0,-2.45856 c 1.54429,-0.11012 2.30081,-1.14221 2.26955,-3.09628 z"
         style="text-align:center;word-spacing:-2.25000525px;text-anchor:middle;fill:#ffffff;font-family:CodiceBiancoCondensed;-inkscape-font-specification:CodiceBiancoCondensed"
         id="path15442"
         inkscape:connector-curvature="0" />
    </g>
    <rect
       style="fill:none;stroke:#ffffff;stroke-width:7.04999924;stroke-miterlimit:4;stroke-opacity:1;stroke-dasharray:none"
       id="rect12902"
       width="310.89999"
       height="455.90002"
       x="-625.01923"
       y="-405.46283"
       rx="24.626524"
       ry="24.626524" />
    <path
       id="path12906"
       style="fill:#ffffff;fill-opacity:1;fill-rule:evenodd;stroke:none"
       d="m -432.85088,-2.7444274 -36.71854,36.7316104 -36.71744,-36.7315504 c -0.87375,-0.87387 -1.03198,-2.19006 -0.39201,-3.24637 0.64118,-1.05608 1.88197,-1.52274 3.05931,-1.15077 l 23.34457,7.37266002 c 0.70011,0.2209 1.40693,0.0765 1.96278,-0.4028 0.55672,-0.47863 0.80545,-1.15676002 0.6901,-1.88189002 l -2.99002,-18.9593996 22.0852,-10e-6 -2.99113,18.9594096 c -0.11744,0.725 0.13503,1.40288002 0.69087,1.88188002 0.55685,0.47871 1.264,0.62445 1.96291,0.4028 l 23.34435,-7.37272002 c 1.17854,-0.37202 2.4179,0.0944 3.0594,1.15083 0.64107,1.05629 0.48317,2.37247 -0.39046,3.24632 z"
       inkscape:connector-curvature="0" />
    <g
       style="font-size:28.36810684px;font-style:normal;font-weight:normal;line-height:125%;letter-spacing:0px;word-spacing:0px;fill:#000000;fill-opacity:1;stroke:none;font-family:Sans"
       id="text6822-1">
      <path
         d="m -531.81467,-170.04102 4.5113,0 0,15.77266 8.79404,0 0,4.22734 -13.30534,0 z"
         style="font-variant:normal;font-stretch:normal;fill:#000000;font-family:CodiceNero;-inkscape-font-specification:CodiceNero"
         id="path15510"
         inkscape:connector-curvature="0" />
      <path
         d="m -515.42735,-164.4519 4.56757,0 0,14.43944 -4.56757,0 z m -0.0848,-4.48273 c 0.47269,-0.94535 1.24809,-1.41803 2.32621,-1.41806 0.41612,3e-5 0.80368,0.0851 1.16267,0.25539 0.96441,0.47271 1.44662,1.25763 1.44663,2.35478 -10e-6,0.3971 -0.0851,0.77513 -0.25539,1.1341 -0.4727,0.94597 -1.25733,1.41894 -2.35391,1.41892 -0.41613,2e-5 -0.80398,-0.0851 -1.16354,-0.25539 -0.94537,-0.47267 -1.41806,-1.24807 -1.41806,-2.3262 0,-0.41611 0.0851,-0.80395 0.25539,-1.16354 z"
         style="font-variant:normal;font-stretch:normal;fill:#000000;font-family:CodiceNero;-inkscape-font-specification:CodiceNero"
         id="path15512"
         inkscape:connector-curvature="0" />
      <path
         d="m -498.33965,-150.04102 0,-8.00018 c -10e-6,-0.69949 -0.19393,-1.28573 -0.58177,-1.75872 -0.38785,-0.47296 -0.94105,-0.70945 -1.65959,-0.70946 -0.79417,1e-5 -1.38979,0.27444 -1.78686,0.8233 -0.28397,0.41614 -0.42594,0.89835 -0.42594,1.44663 l 0,8.19843 -4.539,0 0,-14.38317 4.00052,0 0.22682,0.87957 c 1.00193,-0.79414 2.3161,-1.19122 3.94252,-1.19124 1.85379,2e-5 3.28166,0.71857 4.28361,2.15566 0.73758,1.05909 1.10638,2.12768 1.1064,3.20578 l 0,9.3334 z"
         style="font-variant:normal;font-stretch:normal;fill:#000000;font-family:CodiceNero;-inkscape-font-specification:CodiceNero"
         id="path15514"
         inkscape:connector-curvature="0" />
      <path
         d="m -480.08495,-163.77144 c 0.32146,0.11372 0.69978,0.37863 1.13496,0.79474 0.71854,0.69952 1.07782,1.49368 1.07783,2.38248 l 0,6.60981 c -10e-6,0.34053 0.21757,0.55811 0.65276,0.65276 0.0381,0.0185 0.34079,0.0468 0.90815,0.0848 -0.17028,0.49174 -0.66201,1.6547 -1.4752,3.48888 -1.47521,0 -2.71406,-0.41584 -3.71656,-1.24751 -1.32399,0.86976 -2.64798,1.30465 -3.97195,1.30465 -1.38055,0 -2.5956,-0.44441 -3.64514,-1.33322 -1.04955,-0.88881 -1.57433,-1.99521 -1.57432,-3.3192 -1e-5,-2.19374 1.35226,-3.70674 4.05679,-4.539 1.0025,-0.1512 2.36429,-0.38754 4.08536,-0.70903 -10e-6,-0.83224 -0.52955,-1.24836 -1.58861,-1.24837 -1.05908,1e-5 -2.07111,0.27416 -3.0361,0.82244 -0.0566,0.0381 -0.45364,0.34082 -1.19124,0.90814 l -2.15566,-3.26205 c 0.0375,-0.0946 0.32119,-0.3027 0.85101,-0.62419 0.64295,-0.41611 1.3615,-0.79443 2.15566,-1.13497 0.94594,-0.41611 2.06186,-0.62417 3.34776,-0.62419 1.47519,2e-5 2.83669,0.33102 4.0845,0.99299 z m -6.07047,9.21998 c 0.019,0.30244 0.21758,0.55754 0.59562,0.76531 0.32146,0.18931 0.65246,0.28396 0.99298,0.28395 0.52982,10e-6 0.98375,-0.11816 1.36179,-0.35451 0.37803,-0.23634 0.61437,-0.50572 0.70903,-0.80816 l 0,-1.44749 c -0.79417,0.1518 -1.58833,0.3033 -2.38248,0.45451 -0.87035,0.18873 -1.296,0.55753 -1.27694,1.10639 z"
         style="font-variant:normal;font-stretch:normal;fill:#000000;font-family:CodiceNero;-inkscape-font-specification:CodiceNero"
         id="path15516"
         inkscape:connector-curvature="0" />
      <path
         d="m -467.18044,-170.38125 0,5.36144 3.71656,0 0,4.00052 -3.63085,0 0,5.92849 c -10e-6,0.64295 0.45363,0.96442 1.36092,0.96441 0.28394,10e-6 0.66227,-0.033 1.13496,-0.0991 0.47268,-0.0661 0.75635,-0.0991 0.85101,-0.0991 l 0.79474,3.77284 c -1.13469,0.56734 -2.58161,0.85101 -4.34075,0.85101 -1.19125,0 -2.23127,-0.30272 -3.12008,-0.90815 -0.98347,-0.68046 -1.4752,-1.5407 -1.47519,-2.58073 l 0,-7.82962 -2.35478,0 0,-4.00052 2.35478,0 0,-4.17021 z"
         style="font-variant:normal;font-stretch:normal;fill:#000000;font-family:CodiceNero;-inkscape-font-specification:CodiceNero"
         id="path15518"
         inkscape:connector-curvature="0" />
      <path
         d="m -453.74611,-164.76443 c 1.81571,2e-5 3.39479,0.64297 4.73725,1.92884 1.51328,1.4377 2.26992,3.32902 2.26994,5.67397 -2e-5,0.30243 -0.0473,0.78464 -0.14198,1.44663 l -9.47537,0 c 0.43516,1.34303 1.39987,1.9955 2.89412,1.9574 1.17218,-0.0375 2.32562,-0.49143 3.4603,-1.36178 l 3.03611,2.97896 c -2.34556,1.62641 -4.53007,2.43962 -6.55355,2.43962 -1.9098,0 -3.57401,-0.59562 -4.99264,-1.78686 -1.55081,-1.32398 -2.35449,-3.07332 -2.41105,-5.24803 0,-0.28395 0,-0.71912 0,-1.30552 0.0185,-1.43709 0.55724,-2.82716 1.61631,-4.1702 1.36207,-1.702 3.21559,-2.55301 5.56056,-2.55303 z m -2.55303,5.61683 4.96408,0 c -0.11314,-0.52923 -0.39666,-0.97825 -0.85058,-1.34707 -0.45394,-0.36878 -0.99314,-0.5627 -1.61761,-0.58176 -0.64295,-0.019 -1.20077,0.18903 -1.67345,0.62419 -0.39708,0.35957 -0.67123,0.79445 -0.82244,1.30464 z"
         style="font-variant:normal;font-stretch:normal;fill:#000000;font-family:CodiceNero;-inkscape-font-specification:CodiceNero"
         id="path15520"
         inkscape:connector-curvature="0" />
    </g>
    <path
       d="m -572.7715,-162.69363 4.2993,-2.3323 0.09,-1.9282 c 0.1435,-3.071 0.6055,-5.1804 1.2069,-5.5113 0.1867,-0.1027 0.2695,-0.052 0.4735,0.2872 0.5344,0.8904 0.8312,2.5478 0.954,5.3272 l 0.08,1.8251 4.2993,2.3323 4.2994,2.3311 0,0.9722 c 0,0.5346 -0.028,0.9735 -0.063,0.9735 -0.035,0 -1.6366,-0.4794 -3.5599,-1.0667 -2.7732,-0.8447 -3.6562,-1.0651 -4.2669,-1.0651 l -0.7698,0 0,1.5432 c 0,1.5347 -0.2403,4.611 -0.5328,6.821 l -0.153,1.1551 1.3796,1.1547 1.3797,1.1531 0,0.6037 c 0,0.3326 -0.036,0.605 -0.078,0.605 -0.044,0 -0.7038,-0.3685 -1.4677,-0.8189 -0.7638,-0.4516 -1.4365,-0.7894 -1.4948,-0.7534 -0.058,0.038 -0.1441,0.4061 -0.1909,0.8205 -0.047,0.4127 -0.1291,0.7518 -0.183,0.7518 -0.054,0 -0.1362,-0.3391 -0.183,-0.7518 -0.047,-0.4144 -0.1326,-0.7829 -0.1908,-0.8205 -0.058,-0.036 -0.731,0.3018 -1.4948,0.7534 -0.764,0.4504 -1.4245,0.8189 -1.4677,0.8189 -0.044,0 -0.078,-0.2724 -0.078,-0.605 l 0,-0.6037 1.4036,-1.1743 c 0.956,-0.7993 1.3852,-1.2365 1.3458,-1.3686 -0.1683,-0.5706 -0.5734,-5.0091 -0.6385,-6.9957 l -0.074,-2.2885 -0.7511,0 c -0.5871,0 -1.5152,0.2331 -4.2481,1.0651 -1.9232,0.5873 -3.5254,1.0667 -3.56,1.0667 -0.035,0 -0.063,-0.4372 -0.063,-0.9722 l 0,-0.9719 4.2991,-2.3327 0,0 0,0 z"
       id="path9254-0"
       style="fill:#000000;fill-opacity:1"
       inkscape:connector-curvature="0" />
    <path
       inkscape:connector-curvature="0"
       d="M -57.850877,-2.7444274 -94.569417,33.987183 -131.28686,-2.7443674 c -0.87375,-0.87387 -1.03198,-2.19006 -0.39201,-3.24637 0.64118,-1.05608 1.88197,-1.52274 3.05931,-1.15077 l 23.34457,7.37266002 c 0.70011,0.2209 1.40693,0.0765 1.96278,-0.4028 0.55672,-0.47863 0.80545,-1.15676002 0.6901,-1.88189002 l -2.99002,-18.9593996 22.085203,-10e-6 -2.99113,18.9594096 c -0.11744,0.725 0.13503,1.40288002 0.69087,1.88188002 0.55685,0.47871 1.264,0.62445 1.96291,0.4028 l 23.34435,-7.37272002 c 1.17854,-0.37202 2.4179,0.0944 3.0594,1.15083 0.64107,1.05629 0.48317,2.37247 -0.39046,3.24632 z"
       style="fill:#000000;fill-opacity:1;fill-rule:evenodd;stroke:none"
       id="path12948" />
    <rect
       style="fill:none;stroke:#000000;stroke-width:4.875;stroke-miterlimit:4;stroke-opacity:1;stroke-dasharray:none"
       id="rect13029"
       width="315.25"
       height="290.25"
       x="-252.1942"
       y="-237.63782"
       rx="17.125"
       ry="17.125" />
    <rect
       style="fill:#646464;fill-opacity:1;stroke:none"
       id="rect13141"
       width="1800"
       height="200"
       x="-960.06921"
       y="567.48718" />
    <rect
       style="fill:#646464;fill-opacity:1;stroke:#646464;stroke-width:10;stroke-miterlimit:4;stroke-opacity:1;stroke-dasharray:none"
       id="rect11456-1-7"
       width="10"
       height="10"
       x="90.430862"
       y="557.48718" />
    <rect
       y="557.48718"
       x="-284.56921"
       height="10"
       width="10"
       id="rect13161"
       style="fill:#646464;fill-opacity:1;stroke:#646464;stroke-width:10;stroke-miterlimit:4;stroke-opacity:1;stroke-dasharray:none" />
    <rect
       style="fill:#646464;fill-opacity:1;stroke:#646464;stroke-width:10;stroke-miterlimit:4;stroke-opacity:1;stroke-dasharray:none"
       id="rect13163"
       width="329.14426"
       height="10"
       x="-956.21344"
       y="557.48718" />
    <rect
       style="fill:#646464;fill-opacity:1;stroke:#646464;stroke-width:10;stroke-miterlimit:4;stroke-opacity:1;stroke-dasharray:none"
       id="rect13165"
       width="393.63971"
       height="17.933472"
       x="465.43085"
       y="557.48718" />
    <rect
       style="fill:none;stroke:#000000;stroke-width:0.99999994;stroke-opacity:1"
       id="rect13214"
       width="1460.297"
       height="1079.6508"
       x="-647.47797"
       y="-462.26282"
       transform="scale(-1,1)" />
    <rect
       transform="scale(-1,1)"
       y="-462.25732"
       x="-647.47797"
       height="1079.6508"
       width="1460.297"
       id="rect13216"
       style="fill:none;stroke:#000000;stroke-width:0.99999994;stroke-opacity:1" />
    <path
       sodipodi:type="arc"
       style="fill:#ffffff;fill-opacity:1;stroke:#000000;stroke-width:0.76251429;stroke-miterlimit:4;stroke-opacity:1;stroke-dasharray:none"
       id="path15098-3-6"
       sodipodi:cx="70.710678"
       sodipodi:cy="-571.1452"
       sodipodi:rx="220.61731"
       sodipodi:ry="237.58788"
       d="m 291.32799,-571.1452 c 0,131.21616 -98.77374,237.58787 -220.617312,237.58787 -121.843576,0 -220.617308,-106.37171 -220.617308,-237.58787 0,-131.21616 98.773732,-237.58788 220.617308,-237.58788 121.843572,0 220.617312,106.37172 220.617312,237.58788 z"
       transform="matrix(0.20363402,0,0,0.18908872,-483.9683,30.484583)" />
    <path
       transform="matrix(0.19717484,0,0,0.18309091,-483.43661,26.983883)"
       d="m 291.32799,-571.1452 c 0,131.21616 -98.77374,237.58787 -220.617312,237.58787 -121.843576,0 -220.617308,-106.37171 -220.617308,-237.58787 0,-131.21616 98.773732,-237.58788 220.617308,-237.58788 121.843572,0 220.617312,106.37172 220.617312,237.58788 z"
       sodipodi:ry="237.58788"
       sodipodi:rx="220.61731"
       sodipodi:cy="-571.1452"
       sodipodi:cx="70.710678"
       id="path15100-2-6"
       style="fill:#00408b;fill-opacity:1;stroke:none"
       sodipodi:type="arc" />
    <g
       style="font-size:49.78642273px;font-style:normal;font-weight:normal;line-height:125%;letter-spacing:0px;word-spacing:0px;fill:#ffffff;fill-opacity:1;stroke:none;font-family:Sans"
       id="text15102-4-2">
      <path
         d="m -500.06658,-82.714837 c -0.0658,-4.248105 1.09596,-7.550686 3.48541,-9.907753 2.22434,-2.190882 5.2114,-3.28634 8.96119,-3.286378 3.71736,3.8e-5 6.70492,1.128922 8.96271,3.386656 3.08631,3.08636 4.62947,8.13114 4.6295,15.134355 -3e-5,11.91585 -4.51405,17.873765 -13.54207,17.873763 -4.04961,2e-6 -7.13644,-1.11217 -9.2605,-3.336517 -0.76273,-0.829565 -1.52595,-2.156979 -2.28968,-3.982245 l 6.52262,-2.737889 c 0.96225,2.322606 2.62139,3.483903 4.97742,3.483895 1.69256,8e-6 3.11974,-0.613813 4.28156,-1.841465 1.16179,-1.227633 1.74269,-2.70445 1.74271,-4.430457 -2e-5,-0.332219 -0.0167,-0.664452 -0.0501,-0.996701 -1.725,1.626743 -4.06481,2.440107 -7.01945,2.440094 -3.0205,1.3e-5 -5.57606,-0.912616 -7.66669,-2.737889 -2.42288,-2.125062 -3.66774,-5.145548 -3.73459,-9.061469 z m 7.06958,-0.398073 c 0,1.62574 0.54772,2.97797 1.64319,4.056694 1.09545,1.078767 2.3902,1.618139 3.88425,1.61812 1.55986,1.9e-5 2.86246,-0.555813 3.9078,-1.667499 1.0453,-1.111643 1.56796,-2.447414 1.56798,-4.007315 -2e-5,-1.725967 -0.43152,-3.153152 -1.2945,-4.281559 -0.96228,-1.294465 -2.35604,-1.941712 -4.18128,-1.941743 -1.75943,3.1e-5 -3.12053,0.572576 -4.08328,1.717637 -0.96278,1.14512 -1.44416,2.647007 -1.44416,4.505665 z"
         style="font-variant:normal;font-stretch:normal;text-align:center;text-anchor:middle;fill:#ffffff;font-family:CodiceBianco;-inkscape-font-specification:CodiceBianco"
         id="path15523"
         inkscape:connector-curvature="0" />
      <path
         d="m -439.56562,-77.687271 c -4e-5,6.771298 -1.8258,11.733527 -5.4773,14.886699 -2.62244,2.25676 -5.74219,3.385138 -9.35927,3.385137 -3.55126,1e-6 -6.65481,-1.161296 -9.31064,-3.483895 -3.61811,-3.220025 -5.42716,-8.16554 -5.42716,-14.836561 0,-7.070066 1.90882,-12.148272 5.72647,-15.234633 2.52213,-2.058191 5.52591,-3.087304 9.01133,-3.087342 3.45197,3.8e-5 6.47246,1.078784 9.06147,3.236239 3.85003,3.186639 5.77506,8.231419 5.7751,15.134356 z m -14.78795,11.501563 c 4.91258,8e-6 7.36888,-3.94982 7.36891,-11.849497 -3e-5,-7.600829 -2.40619,-11.401254 -7.21849,-11.401285 -5.01188,3.1e-5 -7.51781,3.817169 -7.5178,11.451424 -10e-6,7.866251 2.45578,11.799366 7.36738,11.799358 z"
         style="font-variant:normal;font-stretch:normal;text-align:center;text-anchor:middle;fill:#ffffff;font-family:CodiceBianco;-inkscape-font-specification:CodiceBianco"
         id="path15525"
         inkscape:connector-curvature="0" />
    </g>
    <path
       transform="matrix(0.20363402,0,0,0.18908872,-108.9683,30.484583)"
       d="m 291.32799,-571.1452 c 0,131.21616 -98.77374,237.58787 -220.617312,237.58787 -121.843576,0 -220.617308,-106.37171 -220.617308,-237.58787 0,-131.21616 98.773732,-237.58788 220.617308,-237.58788 121.843572,0 220.617312,106.37172 220.617312,237.58788 z"
       sodipodi:ry="237.58788"
       sodipodi:rx="220.61731"
       sodipodi:cy="-571.1452"
       sodipodi:cx="70.710678"
       id="path15195"
       style="fill:#ffffff;fill-opacity:1;stroke:#000000;stroke-width:0.76251429;stroke-miterlimit:4;stroke-opacity:1;stroke-dasharray:none"
       sodipodi:type="arc" />
    <path
       sodipodi:type="arc"
       style="fill:#00408b;fill-opacity:1;stroke:none"
       id="path15197"
       sodipodi:cx="70.710678"
       sodipodi:cy="-571.1452"
       sodipodi:rx="220.61731"
       sodipodi:ry="237.58788"
       d="m 291.32799,-571.1452 c 0,131.21616 -98.77374,237.58787 -220.617312,237.58787 -121.843576,0 -220.617308,-106.37171 -220.617308,-237.58787 0,-131.21616 98.773732,-237.58788 220.617308,-237.58788 121.843572,0 220.617312,106.37172 220.617312,237.58788 z"
       transform="matrix(0.19717484,0,0,0.18309091,-108.43661,26.983883)" />
    <g
       style="font-size:49.78642273px;font-style:normal;font-weight:normal;line-height:125%;letter-spacing:0px;word-spacing:0px;fill:#ffffff;fill-opacity:1;stroke:none;font-family:Sans"
       id="text15199">
      <path
         d="m -111.28137,-95.957588 c 6.04095,3.8e-5 9.8748,2.45583 11.501559,7.367382 l -6.721649,2.737889 c -0.86302,-2.355993 -2.52267,-3.534003 -4.97895,-3.534034 -4.01619,3.1e-5 -6.07391,2.422903 -6.17316,7.268623 2.05821,-1.593278 4.56414,-2.389929 7.51779,-2.389955 3.31928,2.6e-5 6.04932,1.16183 8.19012,3.485414 2.140753,2.32363 3.211142,5.327404 3.21117,9.011331 -2.8e-5,4.049613 -1.24489,7.23571 -3.73459,9.5583 -2.29021,2.157495 -5.22763,3.23624 -8.81229,3.236239 -5.07772,1e-6 -8.79509,-1.97466 -11.15211,-5.923989 -1.85869,-3.15317 -2.78803,-7.401806 -2.78803,-12.74592 0,-12.047488 4.6467,-18.071242 13.94014,-18.07128 z m -5.92399,23.94665 c -1e-5,1.759432 0.4482,3.20333 1.34463,4.331698 0.99568,1.261078 2.40615,1.891612 4.23142,1.891604 1.59329,8e-6 2.92096,-0.547721 3.98301,-1.643189 1.06201,-1.095448 1.59303,-2.622151 1.59305,-4.580113 -2e-5,-1.792831 -0.52294,-3.228372 -1.56874,-4.306629 -1.04585,-1.078221 -2.3487,-1.61734 -3.90856,-1.61736 -1.8587,2e-5 -3.3188,0.729819 -4.38032,2.189399 -0.863,1.128396 -1.2945,2.373257 -1.29449,3.73459 z"
         style="font-variant:normal;font-stretch:normal;text-align:center;text-anchor:middle;fill:#ffffff;font-family:CodiceBianco;-inkscape-font-specification:CodiceBianco"
         id="path15554"
         inkscape:connector-curvature="0" />
      <path
         d="m -64.808678,-77.687271 c -3.2e-5,6.771298 -1.825796,11.733527 -5.477297,14.886699 -2.622441,2.25676 -5.742192,3.385138 -9.359264,3.385137 -3.551266,1e-6 -6.654812,-1.161296 -9.310644,-3.483895 -3.618109,-3.220025 -5.42716,-8.16554 -5.427158,-14.836561 -2e-6,-7.070066 1.90882,-12.148272 5.726472,-15.234633 2.522129,-2.058191 5.525902,-3.087304 9.01133,-3.087342 3.451968,3.8e-5 6.472455,1.078784 9.06147,3.236239 3.85003,3.186639 5.775059,8.231419 5.775091,15.134356 z m -14.787941,11.501563 c 4.912579,8e-6 7.368876,-3.94982 7.368901,-11.849497 -2.5e-5,-7.600829 -2.406184,-11.401254 -7.218484,-11.401285 -5.011878,3.1e-5 -7.517809,3.817169 -7.517799,11.451424 -1e-5,7.866251 2.455782,11.799366 7.367382,11.799358 z"
         style="font-variant:normal;font-stretch:normal;text-align:center;text-anchor:middle;fill:#ffffff;font-family:CodiceBianco;-inkscape-font-specification:CodiceBianco"
         id="path15556"
         inkscape:connector-curvature="0" />
    </g>
    <path
       sodipodi:nodetypes="cc"
       inkscape:connector-curvature="0"
       id="path15203"
       d="m -469.5692,80.781283 0,475.850997"
       style="fill:none;stroke:#000000;stroke-width:5;stroke-linecap:butt;stroke-linejoin:miter;stroke-miterlimit:4;stroke-opacity:1;stroke-dasharray:10, 10;stroke-dashoffset:0" />
    <path
       style="fill:none;stroke:#000000;stroke-width:5;stroke-linecap:butt;stroke-linejoin:miter;stroke-miterlimit:4;stroke-opacity:1;stroke-dasharray:10, 10;stroke-dashoffset:0"
       d="m 280.43077,80.781283 0,475.850997"
       id="path15205"
       inkscape:connector-curvature="0"
       sodipodi:nodetypes="cc" />
    <path
       style="fill:none;stroke:#000000;stroke-width:5;stroke-linecap:butt;stroke-linejoin:miter;stroke-miterlimit:4;stroke-opacity:1;stroke-dasharray:10, 10;stroke-dashoffset:0"
       d="m -94.569297,80.781283 0,475.850997"
       id="path15207"
       inkscape:connector-curvature="0"
       sodipodi:nodetypes="cc" />
  </g>
</svg>
