<svg xmlns="http://www.w3.org/2000/svg" xmlns:xlink="http://www.w3.org/1999/xlink" width="200" height="200" xmlns:v="https://vecta.io/nano"><path d="M-1.588-3.02h207.715v207.348H-1.588V-3.02z" fill="#fff"/><g fill="#0060a8"><use xlink:href="#B"/><use xlink:href="#B" y="-14"/><use xlink:href="#B" y="-28"/></g><path d="M21.468 2.404H178.27c10.239 0 18.481 8.314 18.481 18.642v158.169c0 10.328-8.243 18.642-18.481 18.642H21.468c-10.239 0-18.481-8.314-18.481-18.642V21.046c0-10.328 8.243-18.642 18.481-18.642z" fill="none" stroke="#000" stroke-width="2.997"/><defs ><path id="B" d="M144.377 116.816c-4.881-2.356-7.728-3.432-10.846-4.099-1.674-.358-5.475-.326-7.287.062-3.289.704-6.068 1.837-13.519 5.514-1.762.869-3.409 2.026-5.285 2.608-1.94.602-4 .873-6.031.873s-4.094-.261-6.031-.873c-1.83-.577-3.427-1.73-5.14-2.595-9.807-4.951-13.093-6.027-17.856-5.843-4.296.166-7.224 1.212-18.575 6.634-1.288.615-2.496 1.44-3.865 1.846-1.848.549-3.806.755-5.735.758s-3.866-.266-5.735-.738c-.518-.131-.997-.383-1.496-.574l-5.236-2.076c-4.225-1.697-5.901-2.286-7.386-2.599l-1.028-.217v-3.906c0-2.148.042-3.906.093-3.906s.542.079 1.091.177c1.487.263 3.083.81 7.293 2.5 6.32 2.537 7.959 2.922 12.466 2.929 4.517.007 7.26-.847 15.396-4.794 4.061-1.97 5.857-2.691 8.228-3.304 4.685-1.211 8.76-.763 14.71 1.616 1.339.535 5.82 2.596 10.148 4.667 1.18.565 2.297 1.288 3.541 1.694 1.72.562 3.527.997 5.336.997s3.618-.428 5.336-.997c1.265-.419 2.393-1.173 3.59-1.759 7.404-3.627 9.994-4.793 12.542-5.644 5.453-1.821 9.505-1.639 15.544.697 1.634.632 6.041 2.648 10.846 4.962 1.226.59 2.38 1.363 3.678 1.771 1.606.505 3.303.83 4.987.808 6.643-.087 5.726-.756 14.087-3.992 2.4-.929 4.804-1.817 5.342-1.975l1.727-.535c-.222 2.084-.136 3.421-.114 4.97l.026 3.102c-2.071.681-5.704 1.744-8.851 2.985-4.722 1.863-3.247 1.488-7.082 2.582-1.973.563-6.887 1.125-7.941.379-3.778-.953-7.477-3.011-10.97-4.707z"/></defs></svg>