<?xml version="1.0" encoding="UTF-8" standalone="no"?>
<!-- Created with Inkscape (http://www.inkscape.org/) -->

<svg
   xmlns:dc="http://purl.org/dc/elements/1.1/"
   xmlns:cc="http://creativecommons.org/ns#"
   xmlns:rdf="http://www.w3.org/1999/02/22-rdf-syntax-ns#"
   xmlns:svg="http://www.w3.org/2000/svg"
   xmlns="http://www.w3.org/2000/svg"
   xmlns:sodipodi="http://sodipodi.sourceforge.net/DTD/sodipodi-0.dtd"
   xmlns:inkscape="http://www.inkscape.org/namespaces/inkscape"
   width="1653.5"
   height="3406.4375"
   id="svg2994"
   version="1.1"
   inkscape:version="0.48.5 r10040"
   sodipodi:docname="Italian_traffic_signs_-_Parcheggio_rosa_(non_ufficiale).svg"
   inkscape:export-filename="C:\Users\utente\Desktop\CANC drittok.png"
   inkscape:export-xdpi="90"
   inkscape:export-ydpi="90">
  <defs
     id="defs2996">
    <marker
       inkscape:stockid="DotL"
       orient="auto"
       refY="0"
       refX="0"
       id="DotL"
       style="overflow:visible">
      <path
         id="path14267"
         d="m -2.5,-1 c 0,2.76 -2.24,5 -5,5 -2.76,0 -5,-2.24 -5,-5 0,-2.76 2.24,-5 5,-5 2.76,0 5,2.24 5,5 z"
         style="fill-rule:evenodd;stroke:#000000;stroke-width:1pt"
         transform="matrix(0.8,0,0,0.8,5.92,0.8)"
         inkscape:connector-curvature="0" />
    </marker>
  </defs>
  <sodipodi:namedview
     id="base"
     pagecolor="#ffffff"
     bordercolor="#666666"
     borderopacity="1.0"
     inkscape:pageopacity="0.0"
     inkscape:pageshadow="2"
     inkscape:zoom="0.088388348"
     inkscape:cx="383.57578"
     inkscape:cy="710.8208"
     inkscape:document-units="px"
     inkscape:current-layer="layer1"
     showgrid="false"
     inkscape:window-width="1366"
     inkscape:window-height="705"
     inkscape:window-x="-8"
     inkscape:window-y="-8"
     inkscape:window-maximized="1"
     fit-margin-top="0"
     fit-margin-left="0"
     fit-margin-right="0"
     fit-margin-bottom="0"
     inkscape:object-nodes="true"
     inkscape:object-paths="true"
     inkscape:snap-intersection-paths="true"
     inkscape:snap-global="true"
     inkscape:snap-midpoints="true"
     inkscape:snap-object-midpoints="true" />
  <metadata
     id="metadata2999">
    <rdf:RDF>
      <cc:Work
         rdf:about="">
        <dc:format>image/svg+xml</dc:format>
        <dc:type
           rdf:resource="http://purl.org/dc/dcmitype/StillImage" />
        <dc:title />
      </cc:Work>
    </rdf:RDF>
  </metadata>
  <g
     inkscape:label="Livello 1"
     inkscape:groupmode="layer"
     id="layer1"
     transform="translate(-16954.687,5217.2187)">
    <rect
       style="fill:none;stroke:#000000;stroke-opacity:1"
       id="rect15047"
       width="1652.4955"
       height="3405.4263"
       x="16955.195"
       y="-5216.7202" />
    <path
       style="fill:#989898;fill-opacity:1;stroke:none"
       d="m 17303.549,-2040.8228 800,0 0,-821.0114 -800,0 z"
       id="path14194"
       inkscape:connector-curvature="0" />
    <path
       style="fill:#989898;fill-opacity:1;stroke:none"
       d="m 17303.549,-2886.1411 800,0 0,-1166.634 -800,0 z"
       id="path14196"
       inkscape:connector-curvature="0" />
    <path
       style="fill:#989898;fill-opacity:1;stroke:none"
       d="m 14456.549,4478.6417 800,0 0,-221.1074 -800,-62.3343 z"
       id="path14198"
       inkscape:connector-curvature="0"
       transform="translate(2847,-8555.7236)" />
    <path
       style="fill:none;stroke:#000000;stroke-width:8;stroke-linecap:butt;stroke-linejoin:miter;stroke-miterlimit:4;stroke-opacity:1;stroke-dasharray:64, 16, 8, 16;stroke-dashoffset:0"
       d="m 17203.549,-4052.7751 1000,0"
       id="path14072-0"
       inkscape:connector-curvature="0" />
    <path
       style="fill:#989898;fill-opacity:1;stroke:none"
       d="m 14456.549,3936.0786 0,115.3832 800,62.182 0,-115.3831 z"
       id="path14064"
       inkscape:connector-curvature="0"
       transform="translate(2847,-8555.7236)" />
    <path
       style="fill:#989898;fill-opacity:1;stroke:none"
       d="m 15256.549,4123.6742 0,123.871 -800,-62.182 0,-123.871 z"
       id="path14062"
       inkscape:connector-curvature="0"
       transform="translate(2847,-8555.7236)" />
    <path
       style="fill:#989898;fill-opacity:1;stroke:none"
       d="m 14456.549,3792.1458 800,62.182 0,-348.0207 -800,0 z"
       id="path14060"
       inkscape:connector-curvature="0"
       transform="translate(2847,-8555.7236)" />
    <path
       style="fill:#989898;fill-opacity:1;stroke:none"
       d="m 14456.549,3802.1762 0,123.8725 800,62.1821 0,-123.8725 z"
       id="path14058"
       inkscape:connector-curvature="0"
       transform="translate(2847,-8555.7236)" />
    <path
       style="fill:#ffffff;fill-opacity:1;stroke:none"
       d="m 17755.423,-3947.5062 32.231,0 127.954,325.7963 127.954,-325.7963 32.231,0 -144.105,366.7376 148.533,377.8428 -32.223,0 -132.39,-336.922 -132.389,336.922 -32.085,0 148.395,-377.8428 z"
       id="path13433-4"
       inkscape:connector-curvature="0"
       sodipodi:nodetypes="ccccccccccccc" />
    <g
       transform="scale(0.44941144,2.2251325)"
       style="font-size:255.34378052px;font-style:normal;font-weight:normal;line-height:125%;letter-spacing:0px;word-spacing:0px;fill:#ffffff;fill-opacity:1;stroke:none;font-family:Sans"
       id="text13439-2">
      <path
         d="m 39607.178,-1699.105 c 15.148,2e-4 28.595,5.364 40.341,16.0915 12.598,11.746 18.897,26.2997 18.897,43.6612 0,16.6812 -6.385,30.7258 -19.154,42.1339 -11.746,10.7225 -25.107,16.0837 -40.084,16.0837 l -41.113,0 0,61.7943 -37.786,0 0,-179.7646 z m -41.113,31.918 0,53.1135 38.557,0 c 6.13,10e-5 11.662,-2.7234 16.598,-8.1704 4.935,-5.4469 7.402,-11.2354 7.403,-17.3656 -10e-4,-7.6572 -2.723,-14.2964 -8.167,-19.9175 -4.935,-5.1065 -10.213,-7.6599 -15.834,-7.66 z"
         style="font-variant:normal;font-stretch:normal;fill:#ffffff;font-family:CodiceBianco;-inkscape-font-specification:CodiceBianco"
         id="path15086" />
    </g>
    <g
       transform="scale(0.44941144,2.2251325)"
       style="font-size:255.70956421px;font-style:normal;font-weight:normal;line-height:125%;letter-spacing:0px;word-spacing:0px;fill:#ffffff;fill-opacity:1;stroke:none;font-family:Sans"
       id="text13443-3">
      <path
         d="m 40143.208,-1551.99 82.594,0 0,32.4709 -117.882,0 0,-179.7645 35.288,0 z"
         style="font-variant:normal;font-stretch:normal;fill:#ffffff;font-family:CodiceBianco;-inkscape-font-specification:CodiceBianco"
         id="path15083" />
    </g>
    <rect
       style="fill:none;stroke:#000000;stroke-width:2;stroke-miterlimit:4;stroke-opacity:1;stroke-dasharray:none"
       id="rect13473-2-4-3"
       width="35"
       height="200"
       x="16772.195"
       y="-6118.4204"
       transform="matrix(0.99699283,0.0774938,-0.0774938,0.99699283,0,0)" />
    <rect
       y="-6118.4204"
       x="16827.195"
       height="200"
       width="35"
       id="rect13475-8-4-0"
       style="fill:none;stroke:#000000;stroke-width:2;stroke-miterlimit:4;stroke-opacity:1;stroke-dasharray:none"
       transform="matrix(0.99699283,0.0774938,-0.0774938,0.99699283,0,0)" />
    <rect
       style="fill:none;stroke:#000000;stroke-width:2;stroke-miterlimit:4;stroke-opacity:1;stroke-dasharray:none"
       id="rect13473-9-3-9-3"
       width="35"
       height="200"
       x="16790.961"
       y="-5859.8843"
       transform="matrix(0.99699283,0.0774938,-0.0774938,0.99699283,0,0)" />
    <rect
       y="-5859.8843"
       x="16845.961"
       height="200"
       width="35"
       id="rect13475-7-6-6-8"
       style="fill:none;stroke:#000000;stroke-width:2;stroke-miterlimit:4;stroke-opacity:1;stroke-dasharray:none"
       transform="matrix(0.99699283,0.0774938,-0.0774938,0.99699283,0,0)" />
    <rect
       y="5659.8857"
       x="-17832.146"
       height="200"
       width="35"
       id="rect13510-6-2-2"
       style="fill:none;stroke:#000000;stroke-width:2;stroke-miterlimit:4;stroke-opacity:1;stroke-dasharray:none"
       transform="matrix(-0.99699283,-0.0774938,0.0774938,-0.99699283,0,0)" />
    <rect
       style="fill:none;stroke:#000000;stroke-width:2;stroke-miterlimit:4;stroke-opacity:1;stroke-dasharray:none"
       id="rect13512-2-8-5"
       width="35"
       height="200"
       x="-17777.145"
       y="5659.8857"
       transform="matrix(-0.99699283,-0.0774938,0.0774938,-0.99699283,0,0)" />
    <rect
       transform="matrix(-0.99699283,-0.0774938,0.0774938,-0.99699283,0,0)"
       style="fill:none;stroke:#000000;stroke-width:2;stroke-miterlimit:4;stroke-opacity:1;stroke-dasharray:none"
       id="rect13518-6-5-2"
       width="35"
       height="200"
       x="-17813.381"
       y="5918.4204" />
    <rect
       transform="matrix(-0.99699283,-0.0774938,0.0774938,-0.99699283,0,0)"
       y="5918.4204"
       x="-17758.381"
       height="200"
       width="35"
       id="rect13520-2-8-0"
       style="fill:none;stroke:#000000;stroke-width:2;stroke-miterlimit:4;stroke-opacity:1;stroke-dasharray:none" />
    <path
       style="fill:#ffffff;fill-opacity:1;stroke:none"
       d="m 17733.548,-4052.7751 -12,0 0,1166.634 12,0 z"
       id="path13840-5"
       inkscape:connector-curvature="0" />
    <rect
       style="fill:#ffffff;fill-opacity:1;stroke:none"
       id="rect13842-3"
       width="12"
       height="300"
       x="17697.549"
       y="-4009.6855" />
    <rect
       y="-2861.8342"
       x="17697.549"
       height="191.86075"
       width="12"
       id="rect13848-1"
       style="fill:#ffffff;fill-opacity:1;stroke:none" />
    <rect
       y="-2369.9736"
       x="17697.549"
       height="300"
       width="12"
       id="rect13852-2"
       style="fill:#ffffff;fill-opacity:1;stroke:none" />
    <path
       style="fill:#ffffff;fill-opacity:1;stroke:none"
       d="m 17733.548,-4077.0819 0,-95.5048 370,28.7593 0,-50.1509 -382,-29.6919 0,146.5883 z"
       id="path13854-2"
       inkscape:connector-curvature="0" />
    <path
       style="fill:#ffffff;fill-opacity:1;stroke:none"
       d="m 17709.548,-4224.6029 0,-104.1687 -12,-1.0524 0,104.2884 12,0.9327"
       id="path13856-2"
       inkscape:connector-curvature="0" />
    <path
       style="fill:#ffffff;fill-opacity:1;stroke:none"
       d="m 17709.548,-4338.8028 0,-123.8715 -12,-0.9327 0,123.8715 z"
       id="path13858-6"
       inkscape:connector-curvature="0" />
    <path
       style="fill:#ffffff;fill-opacity:1;stroke:none"
       d="m 17709.548,-4472.7045 -12,-0.9327 0,-115.3831 12,0.9327 z"
       id="path13860-4"
       inkscape:connector-curvature="0" />
    <path
       style="fill:#ffffff;fill-opacity:1;stroke:none"
       d="m 17697.548,-4599.0505 12,0.9328 0,-123.8725 -12,-0.9328 z"
       id="path13862-0"
       inkscape:connector-curvature="0" />
    <path
       style="fill:#ffffff;fill-opacity:1;stroke:none"
       d="m 17303.548,-4917.8984 370,28.7593 0,-160.2774 12,0 0,211.3609 -382,-29.6919 z"
       id="path13898-4"
       inkscape:connector-curvature="0" />
    <path
       style="fill:#ffffff;fill-opacity:1;stroke:none"
       d="m 17697.548,-4837.1229 0,104.1698 12,0.9327 0,-104.1697 z"
       id="path13900-0"
       inkscape:connector-curvature="0" />
    <path
       style="fill:none;stroke:#000000;stroke-width:8;stroke-linecap:butt;stroke-linejoin:miter;stroke-miterlimit:4;stroke-opacity:1;stroke-dasharray:64, 16, 8, 16;stroke-dashoffset:0"
       d="m 14356.549,4478.6417 1000,0"
       id="path14072"
       inkscape:connector-curvature="0"
       transform="translate(2847,-8555.7236)" />
    <path
       style="fill:none;stroke:#000000;stroke-width:8;stroke-linecap:butt;stroke-linejoin:miter;stroke-miterlimit:4;stroke-opacity:1;stroke-dasharray:64, 16, 8, 16;stroke-dashoffset:0"
       d="m 17203.549,-2861.8343 1000,0"
       id="path14072-0-1"
       inkscape:connector-curvature="0" />
    <path
       style="fill:none;stroke:#000000;stroke-width:8;stroke-linecap:butt;stroke-linejoin:miter;stroke-miterlimit:4;stroke-opacity:1;stroke-dasharray:64, 16, 8, 16;stroke-dashoffset:0"
       d="m 17203.549,-2886.1411 1000,0"
       id="path14072-06"
       inkscape:connector-curvature="0" />
    <rect
       transform="matrix(0.99699283,0.0774938,-0.0774938,0.99699283,0,0)"
       y="-5859.8843"
       x="16735.961"
       height="200"
       width="35"
       id="rect14140"
       style="fill:none;stroke:#000000;stroke-width:2;stroke-miterlimit:4;stroke-opacity:1;stroke-dasharray:none" />
    <rect
       transform="matrix(0.99699283,0.0774938,-0.0774938,0.99699283,0,0)"
       y="-6118.4204"
       x="16717.195"
       height="200"
       width="35"
       id="rect14144"
       style="fill:none;stroke:#000000;stroke-width:2;stroke-miterlimit:4;stroke-opacity:1;stroke-dasharray:none" />
    <rect
       transform="matrix(-0.99699283,-0.0774938,0.0774938,-0.99699283,0,0)"
       style="fill:none;stroke:#000000;stroke-width:2;stroke-miterlimit:4;stroke-opacity:1;stroke-dasharray:none"
       id="rect14148"
       width="35"
       height="200"
       x="-17887.146"
       y="5659.8857" />
    <rect
       y="5918.4204"
       x="-17868.381"
       height="200"
       width="35"
       id="rect14152"
       style="fill:none;stroke:#000000;stroke-width:2;stroke-miterlimit:4;stroke-opacity:1;stroke-dasharray:none"
       transform="matrix(-0.99699283,-0.0774938,0.0774938,-0.99699283,0,0)" />
    <path
       style="fill:none;stroke:#000000;stroke-width:5;stroke-linecap:butt;stroke-linejoin:miter;stroke-miterlimit:4;stroke-opacity:1;stroke-dasharray:none"
       d="m 14258.395,3776.6509 1196.308,93.079"
       id="path14186"
       inkscape:connector-curvature="0"
       transform="translate(2847,-8555.7236)" />
    <path
       style="fill:none;stroke:#000000;stroke-width:5;stroke-linecap:butt;stroke-linejoin:miter;stroke-miterlimit:4;stroke-opacity:1;stroke-dasharray:none"
       d="m 15454.703,4013.6627 -1196.308,-93.079"
       id="path14188"
       inkscape:connector-curvature="0"
       transform="translate(2847,-8555.7236)" />
    <path
       style="fill:none;stroke:#000000;stroke-width:5;stroke-linecap:butt;stroke-linejoin:miter;stroke-miterlimit:4;stroke-opacity:1;stroke-dasharray:none"
       d="m 14258.395,4035.9668 1196.308,93.079"
       id="path14190"
       inkscape:connector-curvature="0"
       transform="translate(2847,-8555.7236)" />
    <path
       style="fill:none;stroke:#000000;stroke-width:5;stroke-linecap:butt;stroke-linejoin:miter;stroke-miterlimit:4;stroke-opacity:1;stroke-dasharray:none"
       d="m 15454.703,4272.974 -1196.308,-93.2137"
       id="path14192"
       inkscape:connector-curvature="0"
       transform="translate(2847,-8555.7236)" />
    <path
       sodipodi:type="arc"
       style="fill:#000000;fill-opacity:1;stroke:none"
       id="path14830-5"
       sodipodi:cx="851.17188"
       sodipodi:cy="2992.7031"
       sodipodi:rx="8.984375"
       sodipodi:ry="8.984375"
       d="m 860.15625,2992.7031 c 0,4.962 -4.02244,8.9844 -8.98438,8.9844 -4.96193,0 -8.98437,-4.0224 -8.98437,-8.9844 0,-4.9619 4.02244,-8.9843 8.98437,-8.9843 4.96194,0 8.98438,4.0224 8.98438,8.9843 z"
       transform="matrix(0.83478261,0,0,0.83478261,17440.759,-5879.3878)" />
    <path
       transform="matrix(0.83478261,0,0,0.83478261,17440.759,-6279.3878)"
       d="m 860.15625,2992.7031 c 0,4.962 -4.02244,8.9844 -8.98438,8.9844 -4.96193,0 -8.98437,-4.0224 -8.98437,-8.9844 0,-4.9619 4.02244,-8.9843 8.98437,-8.9843 4.96194,0 8.98438,4.0224 8.98438,8.9843 z"
       sodipodi:ry="8.984375"
       sodipodi:rx="8.984375"
       sodipodi:cy="2992.7031"
       sodipodi:cx="851.17188"
       id="path14832-0"
       style="fill:#000000;fill-opacity:1;stroke:none"
       sodipodi:type="arc" />
    <path
       style="fill:none;stroke:#000000;stroke-width:2;stroke-linecap:butt;stroke-linejoin:miter;stroke-miterlimit:4;stroke-opacity:1;stroke-dasharray:none"
       d="m 18151.303,-3831.1314 0,500"
       id="path14838-5"
       inkscape:connector-curvature="0" />
    <g
       style="font-size:40px;font-style:normal;font-weight:normal;line-height:125%;letter-spacing:0px;word-spacing:0px;fill:#000000;fill-opacity:1;stroke:none;font-family:Sans"
       id="text14840-4">
      <path
         d="m 18176.961,-3566.825 0,-6.8554 -12.422,0 0,-3.2227 13.066,-18.5547 2.872,0 0,18.5547 3.867,0 0,3.2227 -3.867,0 0,6.8554 z m 0,-10.0781 0,-12.9101 -8.965,12.9101 z"
         style=""
         id="path15072" />
      <path
         d="m 18189.852,-3566.825 0,-4.0039 4.003,0 0,4.0039 c 0,1.4714 -0.26,2.6596 -0.781,3.5645 -0.521,0.9049 -1.347,1.6048 -2.48,2.0996 l -0.977,-1.5039 c 0.742,-0.3255 1.289,-0.804 1.641,-1.4355 0.351,-0.6316 0.547,-1.5398 0.586,-2.7247 z"
         style=""
         id="path15074" />
      <path
         d="m 18199.051,-3580.946 c 0,-3.3854 0.348,-6.1101 1.045,-8.1739 0.696,-2.0638 1.731,-3.6555 3.105,-4.7754 1.374,-1.1197 3.102,-1.6796 5.186,-1.6797 1.536,10e-5 2.884,0.3093 4.043,0.9278 1.159,0.6185 2.116,1.5104 2.871,2.6758 0.755,1.1654 1.347,2.5846 1.777,4.2578 0.43,1.6732 0.645,3.929 0.645,6.7676 0,3.3593 -0.345,6.0709 -1.036,8.1347 -0.69,2.0638 -1.722,3.6589 -3.095,4.7852 -1.374,1.1263 -3.109,1.6894 -5.205,1.6894 -2.761,0 -4.929,-0.9896 -6.504,-2.9687 -1.888,-2.3828 -2.832,-6.263 -2.832,-11.6406 z m 3.613,0 c 0,4.7005 0.55,7.8287 1.65,9.3847 1.101,1.556 2.458,2.334 4.073,2.334 1.614,0 2.972,-0.7812 4.072,-2.3437 1.1,-1.5625 1.65,-4.6875 1.65,-9.375 0,-4.7136 -0.55,-7.8451 -1.65,-9.3946 -1.1,-1.5494 -2.471,-2.3242 -4.111,-2.3242 -1.615,0 -2.904,0.6836 -3.868,2.0508 -1.21,1.7448 -1.816,4.9675 -1.816,9.668 z"
         style=""
         id="path15076" />
      <path
         d="m 18221.316,-3580.946 c 0,-3.3854 0.349,-6.1101 1.045,-8.1739 0.697,-2.0638 1.732,-3.6555 3.106,-4.7754 1.373,-1.1197 3.102,-1.6796 5.185,-1.6797 1.537,10e-5 2.884,0.3093 4.043,0.9278 1.159,0.6185 2.116,1.5104 2.871,2.6758 0.756,1.1654 1.348,2.5846 1.778,4.2578 0.429,1.6732 0.644,3.929 0.644,6.7676 0,3.3593 -0.345,6.0709 -1.035,8.1347 -0.69,2.0638 -1.722,3.6589 -3.096,4.7852 -1.373,1.1263 -3.108,1.6894 -5.205,1.6894 -2.76,0 -4.928,-0.9896 -6.504,-2.9687 -1.888,-2.3828 -2.832,-6.263 -2.832,-11.6406 z m 3.614,0 c 0,4.7005 0.55,7.8287 1.65,9.3847 1.1,1.556 2.458,2.334 4.072,2.334 1.615,0 2.972,-0.7812 4.073,-2.3437 1.1,-1.5625 1.65,-4.6875 1.65,-9.375 0,-4.7136 -0.55,-7.8451 -1.65,-9.3946 -1.101,-1.5494 -2.471,-2.3242 -4.112,-2.3242 -1.614,0 -2.903,0.6836 -3.867,2.0508 -1.211,1.7448 -1.816,4.9675 -1.816,9.668 z"
         style=""
         id="path15078" />
      <path
         d="m 18255.652,-3566.825 0,-20.7421 3.145,0 0,2.9101 c 0.651,-1.0156 1.517,-1.8326 2.598,-2.4512 1.08,-0.6184 2.311,-0.9277 3.691,-0.9277 1.536,0 2.796,0.319 3.779,0.957 0.983,0.6381 1.677,1.53 2.08,2.6758 1.641,-2.4218 3.776,-3.6328 6.407,-3.6328 2.057,0 3.639,0.5697 4.746,1.709 1.106,1.1393 1.66,2.8939 1.66,5.2637 l 0,14.2382 -3.496,0 0,-13.0664 c 0,-1.4062 -0.114,-2.4186 -0.342,-3.0371 -0.228,-0.6184 -0.641,-1.1165 -1.24,-1.4941 -0.599,-0.3776 -1.302,-0.5664 -2.11,-0.5664 -1.458,0 -2.669,0.485 -3.633,1.4551 -0.963,0.97 -1.445,2.5228 -1.445,4.6582 l 0,12.0507 -3.515,0 0,-13.4765 c 0,-1.5625 -0.287,-2.7344 -0.86,-3.5156 -0.573,-0.7813 -1.51,-1.1719 -2.812,-1.1719 -0.99,0 -1.905,0.2604 -2.744,0.7812 -0.84,0.5209 -1.449,1.2826 -1.827,2.2852 -0.377,1.0026 -0.566,2.4479 -0.566,4.3359 l 0,10.7617 z"
         style=""
         id="path15080" />
    </g>
    <path
       transform="matrix(0.83478261,0,0,0.83478261,17773.112,-6285.5777)"
       d="m 860.15625,2992.7031 c 0,4.962 -4.02244,8.9844 -8.98438,8.9844 -4.96193,0 -8.98437,-4.0224 -8.98437,-8.9844 0,-4.9619 4.02244,-8.9843 8.98437,-8.9843 4.96194,0 8.98438,4.0224 8.98438,8.9843 z"
       sodipodi:ry="8.984375"
       sodipodi:rx="8.984375"
       sodipodi:cy="2992.7031"
       sodipodi:cx="851.17188"
       id="path14832-0-5"
       style="fill:#000000;fill-opacity:1;stroke:none"
       sodipodi:type="arc" />
    <path
       transform="matrix(0.83478261,0,0,0.83478261,17480.538,-5540.9973)"
       d="m 860.15625,2992.7031 c 0,4.962 -4.02244,8.9844 -8.98438,8.9844 -4.96193,0 -8.98437,-4.0224 -8.98437,-8.9844 0,-4.9619 4.02244,-8.9843 8.98437,-8.9843 4.96194,0 8.98438,4.0224 8.98438,8.9843 z"
       sodipodi:ry="8.984375"
       sodipodi:rx="8.984375"
       sodipodi:cy="2992.7031"
       sodipodi:cx="851.17188"
       id="path14832-0-5-6"
       style="fill:#000000;fill-opacity:1;stroke:none"
       sodipodi:type="arc" />
    <path
       style="fill:none;stroke:#000000;stroke-width:2;stroke-linecap:butt;stroke-linejoin:miter;stroke-miterlimit:4;stroke-opacity:1;stroke-dasharray:none"
       d="m 15328.001,5553.9036 323.601,-823.541"
       id="path14928"
       inkscape:connector-curvature="0"
       transform="translate(2847,-8555.7236)" />
    <path
       style="fill:none;stroke:#000000;stroke-width:1;stroke-linecap:butt;stroke-linejoin:miter;stroke-miterlimit:4;stroke-opacity:1;stroke-dasharray:8, 8;stroke-dashoffset:0"
       d="m 15228.793,4608.2174 407.862,160.185"
       id="path14930"
       inkscape:connector-curvature="0"
       transform="translate(2847,-8555.7236)" />
    <path
       style="fill:none;stroke:#000000;stroke-width:1;stroke-linecap:butt;stroke-linejoin:miter;stroke-miterlimit:4;stroke-opacity:1;stroke-dasharray:8, 8;stroke-dashoffset:0"
       d="m 17783.219,-3202.9258 407.862,160.185"
       id="path14930-4"
       inkscape:connector-curvature="0" />
    <rect
       style="fill:#ffffff;fill-opacity:1;stroke:none"
       id="rect14950"
       width="12"
       height="300"
       x="17697.549"
       y="-3409.6855" />
    <g
       style="font-size:40px;font-style:normal;font-weight:normal;line-height:125%;letter-spacing:0px;word-spacing:0px;fill:#000000;fill-opacity:1;stroke:none;font-family:Sans"
       id="text14840-4-8">
      <path
         d="m 18356.666,-3404.1472 c -1.458,-0.5339 -2.539,-1.2956 -3.242,-2.2852 -0.703,-0.9895 -1.055,-2.1744 -1.055,-3.5547 0,-2.0833 0.749,-3.8346 2.246,-5.2539 1.498,-1.4192 3.49,-2.1288 5.977,-2.1289 2.5,1e-4 4.512,0.726 6.035,2.1778 1.523,1.4518 2.285,3.2194 2.285,5.3027 0,1.3281 -0.348,2.4837 -1.045,3.4668 -0.696,0.9831 -1.754,1.7415 -3.174,2.2754 1.758,0.5729 3.096,1.4974 4.014,2.7734 0.918,1.2761 1.377,2.7995 1.377,4.5703 0,2.448 -0.866,4.5052 -2.598,6.1719 -1.731,1.6667 -4.01,2.5 -6.836,2.5 -2.825,0 -5.104,-0.8366 -6.836,-2.5098 -1.731,-1.6731 -2.597,-3.7597 -2.597,-6.2597 0,-1.862 0.472,-3.4212 1.416,-4.6778 0.944,-1.2565 2.288,-2.1126 4.033,-2.5683 z m -0.703,-5.957 c 0,1.3541 0.436,2.4609 1.308,3.3203 0.873,0.8594 2.006,1.289 3.399,1.289 1.354,0 2.464,-0.4264 3.33,-1.2793 0.866,-0.8528 1.299,-1.8977 1.299,-3.1347 0,-1.2891 -0.446,-2.3731 -1.338,-3.252 -0.892,-0.8789 -2.002,-1.3183 -3.33,-1.3183 -1.341,0 -2.455,0.4297 -3.34,1.289 -0.885,0.8594 -1.328,1.8881 -1.328,3.086 z m -1.133,13.2226 c 0,1.0026 0.238,1.9727 0.713,2.9102 0.475,0.9375 1.182,1.6634 2.119,2.1777 0.938,0.5143 1.947,0.7715 3.027,0.7715 1.68,0 3.067,-0.5404 4.161,-1.6211 1.093,-1.0807 1.64,-2.4544 1.64,-4.1211 0,-1.6927 -0.563,-3.0924 -1.689,-4.1992 -1.127,-1.1068 -2.536,-1.6602 -4.229,-1.6602 -1.653,0 -3.024,0.5469 -4.111,1.6406 -1.087,1.0938 -1.631,2.461 -1.631,4.1016 z"
         style=""
         id="path15061" />
      <path
         d="m 18375.416,-3388.6199 0,-4.0039 4.004,0 0,4.0039 c 0,1.4714 -0.261,2.6595 -0.781,3.5645 -0.521,0.9049 -1.348,1.6048 -2.481,2.0996 l -0.976,-1.5039 c 0.742,-0.3255 1.289,-0.8041 1.64,-1.4356 0.352,-0.6315 0.547,-1.5397 0.586,-2.7246 z"
         style=""
         id="path15063" />
      <path
         d="m 18384.615,-3402.741 c 0,-3.3854 0.349,-6.11 1.045,-8.1738 0.697,-2.0638 1.732,-3.6556 3.106,-4.7754 1.373,-1.1197 3.102,-1.6796 5.185,-1.6797 1.537,1e-4 2.884,0.3093 4.043,0.9278 1.159,0.6185 2.116,1.5104 2.871,2.6757 0.755,1.1654 1.348,2.5847 1.778,4.2579 0.429,1.6732 0.644,3.929 0.644,6.7675 0,3.3594 -0.345,6.071 -1.035,8.1348 -0.69,2.0638 -1.722,3.6589 -3.096,4.7852 -1.373,1.1263 -3.108,1.6894 -5.205,1.6894 -2.76,0 -4.928,-0.9896 -6.504,-2.9687 -1.888,-2.3828 -2.832,-6.2631 -2.832,-11.6407 z m 3.614,0 c 0,4.7006 0.55,7.8288 1.65,9.3848 1.1,1.556 2.458,2.334 4.072,2.334 1.615,0 2.972,-0.7813 4.072,-2.3438 1.101,-1.5625 1.651,-4.6875 1.651,-9.375 0,-4.7135 -0.55,-7.845 -1.651,-9.3945 -1.1,-1.5495 -2.47,-2.3242 -4.111,-2.3242 -1.614,0 -2.904,0.6836 -3.867,2.0508 -1.211,1.7448 -1.816,4.9674 -1.816,9.6679 z"
         style=""
         id="path15065" />
      <path
         d="m 18406.881,-3402.741 c 0,-3.3854 0.348,-6.11 1.045,-8.1738 0.696,-2.0638 1.732,-3.6556 3.105,-4.7754 1.374,-1.1197 3.102,-1.6796 5.186,-1.6797 1.536,1e-4 2.884,0.3093 4.043,0.9278 1.159,0.6185 2.116,1.5104 2.871,2.6757 0.755,1.1654 1.347,2.5847 1.777,4.2579 0.43,1.6732 0.645,3.929 0.645,6.7675 0,3.3594 -0.345,6.071 -1.035,8.1348 -0.691,2.0638 -1.722,3.6589 -3.096,4.7852 -1.374,1.1263 -3.109,1.6894 -5.205,1.6894 -2.761,0 -4.929,-0.9896 -6.504,-2.9687 -1.888,-2.3828 -2.832,-6.2631 -2.832,-11.6407 z m 3.613,0 c 0,4.7006 0.55,7.8288 1.651,9.3848 1.1,1.556 2.457,2.334 4.072,2.334 1.614,0 2.972,-0.7813 4.072,-2.3438 1.1,-1.5625 1.65,-4.6875 1.65,-9.375 0,-4.7135 -0.55,-7.845 -1.65,-9.3945 -1.1,-1.5495 -2.471,-2.3242 -4.111,-2.3242 -1.615,0 -2.904,0.6836 -3.867,2.0508 -1.211,1.7448 -1.817,4.9674 -1.817,9.6679 z"
         style=""
         id="path15067" />
      <path
         d="m 18441.217,-3388.6199 0,-20.7422 3.144,0 0,2.9102 c 0.651,-1.0156 1.517,-1.8327 2.598,-2.4512 1.081,-0.6184 2.311,-0.9277 3.691,-0.9277 1.537,0 2.797,0.319 3.78,0.957 0.983,0.6381 1.676,1.53 2.08,2.6758 1.64,-2.4219 3.776,-3.6328 6.406,-3.6328 2.057,0 3.639,0.5697 4.746,1.709 1.107,1.1393 1.66,2.8939 1.66,5.2636 l 0,14.2383 -3.496,0 0,-13.0664 c 0,-1.4062 -0.114,-2.4186 -0.342,-3.0371 -0.228,-0.6185 -0.641,-1.1165 -1.24,-1.4941 -0.599,-0.3776 -1.302,-0.5664 -2.109,-0.5664 -1.459,0 -2.67,0.485 -3.633,1.455 -0.964,0.9701 -1.445,2.5228 -1.445,4.6582 l 0,12.0508 -3.516,0 0,-13.4765 c 0,-1.5625 -0.286,-2.7344 -0.859,-3.5157 -0.573,-0.7812 -1.511,-1.1718 -2.813,-1.1718 -0.989,0 -1.904,0.2604 -2.744,0.7812 -0.84,0.5209 -1.449,1.2826 -1.826,2.2852 -0.378,1.0026 -0.567,2.4479 -0.567,4.3359 l 0,10.7617 z"
         style=""
         id="path15069" />
    </g>
    <path
       transform="matrix(0.83478261,0,0,0.83478261,17357.262,-5650.7749)"
       d="m 860.15625,2992.7031 c 0,4.962 -4.02244,8.9844 -8.98438,8.9844 -4.96193,0 -8.98437,-4.0224 -8.98437,-8.9844 0,-4.9619 4.02244,-8.9843 8.98437,-8.9843 4.96194,0 8.98438,4.0224 8.98438,8.9843 z"
       sodipodi:ry="8.984375"
       sodipodi:rx="8.984375"
       sodipodi:cy="2992.7031"
       sodipodi:cx="851.17188"
       id="path14832-0-5-6-1"
       style="fill:#000000;fill-opacity:1;stroke:none"
       sodipodi:type="arc" />
    <path
       transform="matrix(0.83478261,0,0,0.83478261,17385.186,-5661.7417)"
       d="m 860.15625,2992.7031 c 0,4.962 -4.02244,8.9844 -8.98438,8.9844 -4.96193,0 -8.98437,-4.0224 -8.98437,-8.9844 0,-4.9619 4.02244,-8.9843 8.98437,-8.9843 4.96194,0 8.98438,4.0224 8.98438,8.9843 z"
       sodipodi:ry="8.984375"
       sodipodi:rx="8.984375"
       sodipodi:cy="2992.7031"
       sodipodi:cx="851.17188"
       id="path14832-0-5-6-6"
       style="fill:#000000;fill-opacity:1;stroke:none"
       sodipodi:type="arc" />
    <path
       style="fill:none;stroke:#000000;stroke-width:2;stroke-linecap:butt;stroke-linejoin:miter;stroke-miterlimit:4;stroke-opacity:1;stroke-dasharray:none"
       d="m 15192.881,5414.1721 83.763,-32.8972"
       id="path15020"
       inkscape:connector-curvature="0"
       transform="translate(2847,-8555.7236)" />
    <path
       inkscape:connector-curvature="0"
       id="path15022"
       d="m 18047.998,-3202.9258 19.807,50.4074"
       style="fill:none;stroke:#000000;stroke-width:1;stroke-linecap:butt;stroke-linejoin:miter;stroke-miterlimit:4;stroke-opacity:1;stroke-dasharray:8, 8;stroke-dashoffset:0"
       sodipodi:nodetypes="cc" />
    <path
       sodipodi:nodetypes="cc"
       style="fill:none;stroke:#000000;stroke-width:1;stroke-linecap:butt;stroke-linejoin:miter;stroke-miterlimit:4;stroke-opacity:1;stroke-dasharray:8, 8;stroke-dashoffset:0"
       d="m 18080.221,-3202.9258 15.499,39.444"
       id="path15024"
       inkscape:connector-curvature="0" />
    <g
       style="font-size:40px;font-style:normal;font-weight:normal;line-height:125%;letter-spacing:0px;word-spacing:0px;fill:#000000;fill-opacity:1;stroke:none;font-family:Sans"
       id="text14840-4-8-8">
      <path
         d="m 18115.986,-3198.3018 c 0,-3.3854 0.349,-6.11 1.045,-8.1738 0.697,-2.0638 1.732,-3.6556 3.106,-4.7754 1.373,-1.1197 3.102,-1.6796 5.185,-1.6797 1.537,10e-5 2.884,0.3093 4.043,0.9278 1.159,0.6185 2.116,1.5104 2.871,2.6758 0.756,1.1653 1.348,2.5846 1.778,4.2578 0.429,1.6732 0.644,3.929 0.644,6.7675 0,3.3594 -0.345,6.071 -1.035,8.1348 -0.69,2.0638 -1.722,3.6589 -3.096,4.7852 -1.373,1.1263 -3.108,1.6894 -5.205,1.6894 -2.76,0 -4.928,-0.9896 -6.504,-2.9687 -1.888,-2.3828 -2.832,-6.263 -2.832,-11.6407 z m 3.614,0 c 0,4.7006 0.55,7.8288 1.65,9.3848 1.1,1.556 2.458,2.334 4.072,2.334 1.615,0 2.972,-0.7813 4.073,-2.3438 1.1,-1.5625 1.65,-4.6874 1.65,-9.375 0,-4.7135 -0.55,-7.845 -1.65,-9.3945 -1.101,-1.5494 -2.471,-2.3242 -4.112,-2.3242 -1.614,0 -2.903,0.6836 -3.867,2.0508 -1.211,1.7448 -1.816,4.9674 -1.816,9.6679 z"
         style=""
         id="path15050" />
      <path
         d="m 18140.146,-3184.1807 0,-4.0039 4.004,0 0,4.0039 c 0,1.4714 -0.26,2.6595 -0.781,3.5645 -0.521,0.9049 -1.348,1.6048 -2.48,2.0996 l -0.977,-1.5039 c 0.742,-0.3255 1.289,-0.804 1.641,-1.4356 0.351,-0.6315 0.547,-1.5397 0.586,-2.7246 z"
         style=""
         id="path15052" />
      <path
         d="m 18149.365,-3191.7393 3.516,-0.4687 c 0.403,1.9922 1.09,3.4277 2.06,4.3066 0.97,0.8789 2.152,1.3184 3.545,1.3184 1.654,0 3.05,-0.5729 4.19,-1.7188 1.139,-1.1458 1.709,-2.5651 1.709,-4.2578 0,-1.6145 -0.528,-2.9459 -1.582,-3.9941 -1.055,-1.0482 -2.396,-1.5723 -4.024,-1.5723 -0.664,0 -1.491,0.1302 -2.48,0.3906 l 0.39,-3.0859 c 0.235,0.026 0.424,0.039 0.567,0.039 1.497,0 2.845,-0.3906 4.043,-1.1719 1.198,-0.7812 1.797,-1.9857 1.797,-3.6133 0,-1.289 -0.437,-2.3567 -1.309,-3.2031 -0.872,-0.8463 -1.999,-1.2695 -3.379,-1.2695 -1.367,0 -2.506,0.4297 -3.418,1.289 -0.911,0.8594 -1.497,2.1485 -1.758,3.8672 l -3.515,-0.625 c 0.429,-2.3567 1.406,-4.1829 2.929,-5.4785 1.524,-1.2955 3.418,-1.9433 5.684,-1.9434 1.563,10e-5 3.001,0.3354 4.316,1.0059 1.316,0.6706 2.321,1.5853 3.018,2.7441 0.697,1.1589 1.045,2.3894 1.045,3.6914 0,1.237 -0.332,2.3633 -0.996,3.3789 -0.664,1.0157 -1.647,1.823 -2.949,2.4219 1.692,0.3907 3.007,1.2012 3.945,2.4317 0.937,1.2304 1.406,2.7702 1.406,4.6191 0,2.5 -0.911,4.6191 -2.734,6.3574 -1.823,1.7383 -4.128,2.6074 -6.914,2.6074 -2.513,0 -4.6,-0.7486 -6.26,-2.246 -1.66,-1.4974 -2.607,-3.4375 -2.842,-5.8204 z"
         style=""
         id="path15054" />
      <path
         d="m 18171.611,-3198.3018 c 0,-3.3854 0.349,-6.11 1.045,-8.1738 0.697,-2.0638 1.732,-3.6556 3.106,-4.7754 1.373,-1.1197 3.102,-1.6796 5.185,-1.6797 1.537,10e-5 2.884,0.3093 4.043,0.9278 1.159,0.6185 2.116,1.5104 2.871,2.6758 0.756,1.1653 1.348,2.5846 1.778,4.2578 0.429,1.6732 0.644,3.929 0.644,6.7675 0,3.3594 -0.345,6.071 -1.035,8.1348 -0.69,2.0638 -1.722,3.6589 -3.096,4.7852 -1.373,1.1263 -3.108,1.6894 -5.205,1.6894 -2.76,0 -4.928,-0.9896 -6.504,-2.9687 -1.888,-2.3828 -2.832,-6.263 -2.832,-11.6407 z m 3.614,0 c 0,4.7006 0.55,7.8288 1.65,9.3848 1.1,1.556 2.458,2.334 4.072,2.334 1.615,0 2.972,-0.7813 4.073,-2.3438 1.1,-1.5625 1.65,-4.6874 1.65,-9.375 0,-4.7135 -0.55,-7.845 -1.65,-9.3945 -1.101,-1.5494 -2.471,-2.3242 -4.112,-2.3242 -1.614,0 -2.903,0.6836 -3.867,2.0508 -1.211,1.7448 -1.816,4.9674 -1.816,9.6679 z"
         style=""
         id="path15056" />
      <path
         d="m 18205.947,-3184.1807 0,-20.7422 3.145,0 0,2.9102 c 0.651,-1.0156 1.517,-1.8327 2.597,-2.4512 1.081,-0.6184 2.312,-0.9277 3.692,-0.9277 1.536,0 2.796,0.319 3.779,0.957 0.983,0.6381 1.677,1.53 2.08,2.6758 1.641,-2.4218 3.776,-3.6328 6.406,-3.6328 2.058,0 3.64,0.5697 4.747,1.709 1.106,1.1393 1.66,2.8939 1.66,5.2637 l 0,14.2382 -3.496,0 0,-13.0664 c 0,-1.4062 -0.114,-2.4186 -0.342,-3.0371 -0.228,-0.6185 -0.641,-1.1165 -1.24,-1.4941 -0.599,-0.3776 -1.302,-0.5664 -2.11,-0.5664 -1.458,0 -2.669,0.485 -3.633,1.4551 -0.963,0.97 -1.445,2.5228 -1.445,4.6582 l 0,12.0507 -3.516,0 0,-13.4765 c 0,-1.5625 -0.286,-2.7344 -0.859,-3.5157 -0.573,-0.7812 -1.51,-1.1718 -2.812,-1.1718 -0.99,0 -1.905,0.2604 -2.745,0.7812 -0.839,0.5209 -1.448,1.2826 -1.826,2.2852 -0.377,1.0026 -0.566,2.4479 -0.566,4.3359 l 0,10.7617 z"
         style=""
         id="path15058" />
    </g>
  </g>
</svg>
