<?xml version="1.0" encoding="UTF-8" standalone="no"?>
<!-- Created with Inkscape (http://www.inkscape.org/) -->

<svg
   xmlns:dc="http://purl.org/dc/elements/1.1/"
   xmlns:cc="http://creativecommons.org/ns#"
   xmlns:rdf="http://www.w3.org/1999/02/22-rdf-syntax-ns#"
   xmlns:svg="http://www.w3.org/2000/svg"
   xmlns="http://www.w3.org/2000/svg"
   xmlns:sodipodi="http://sodipodi.sourceforge.net/DTD/sodipodi-0.dtd"
   xmlns:inkscape="http://www.inkscape.org/namespaces/inkscape"
   width="3500"
   height="3300"
   id="svg3053"
   version="1.1"
   inkscape:version="0.48.5 r10040"
   sodipodi:docname="Nuovo documento 2">
  <defs
     id="defs3055" />
  <sodipodi:namedview
     id="base"
     pagecolor="#ffffff"
     bordercolor="#666666"
     borderopacity="1.0"
     inkscape:pageopacity="0.0"
     inkscape:pageshadow="2"
     inkscape:zoom="0.12374369"
     inkscape:cx="1758.8795"
     inkscape:cy="1462.2064"
     inkscape:document-units="px"
     inkscape:current-layer="layer1"
     showgrid="false"
     fit-margin-top="0"
     fit-margin-left="0"
     fit-margin-right="0"
     fit-margin-bottom="0"
     inkscape:window-width="1366"
     inkscape:window-height="705"
     inkscape:window-x="-8"
     inkscape:window-y="-8"
     inkscape:window-maximized="1" />
  <metadata
     id="metadata3058">
    <rdf:RDF>
      <cc:Work
         rdf:about="">
        <dc:format>image/svg+xml</dc:format>
        <dc:type
           rdf:resource="http://purl.org/dc/dcmitype/StillImage" />
        <dc:title></dc:title>
      </cc:Work>
    </rdf:RDF>
  </metadata>
  <g
     inkscape:label="Livello 1"
     inkscape:groupmode="layer"
     id="layer1"
     transform="translate(0,2247.6377)">
    <rect
       id="rect3117"
       width="3500"
       height="3300"
       x="0"
       y="-2247.6377"
       style="fill:#00408b;fill-opacity:1;stroke:none" />
    <rect
       style="fill:none;stroke:#ffffff;stroke-width:52.5;stroke-miterlimit:4;stroke-opacity:1;stroke-dasharray:none"
       id="rect5487"
       width="3395"
       height="3195"
       x="52.500008"
       y="-2195.1379"
       rx="183.57143"
       ry="183.57143" />
    <rect
       style="fill:#ffffff;fill-opacity:1;stroke:none"
       id="rect5493"
       width="2100"
       height="420"
       x="1147.5"
       y="264.84952" />
    <rect
       style="fill:#08842c;fill-opacity:1;stroke:#ffffff;stroke-width:26.25;stroke-miterlimit:4;stroke-opacity:1;stroke-dasharray:none"
       id="rect5485"
       width="2073.75"
       height="523.75"
       x="1160.625"
       y="-1224.0638" />
    <path
       inkscape:connector-curvature="0"
       style="fill:#ffffff;fill-opacity:1;fill-rule:evenodd;stroke:#00408b;stroke-width:2.45197535px;stroke-linecap:butt;stroke-linejoin:miter;stroke-miterlimit:4;stroke-opacity:1;stroke-dasharray:none"
       d="m 428.86425,683.95566 -0.091,-1991.54926 -102.1256,22.5106 c -22.9894,5.0992 -29.7623,-10.8548 -21.7923,-24.8383 l 172.741,-291.8272 172.7452,291.8272 c 7.9773,13.9848 1.0363,29.9349 -21.7909,24.8383 l -102.0336,-22.5106 -0.3453,353.17106 c 46.7104,-37.1647 106.8545,-59.40566 171.1695,-59.40566 9.3698,0 33.9389,1.3936 33.9389,1.3936 l -24.0161,-104.3506 c 0,0 -7.5164,-32.9786 24.0161,-16.4916 l 289.60475,171.07546 -297.11105,171.0762 c 0,0 -20.8679,10.9237 -15.0111,-17.9949 l 24.0148,-98.234 c -9.5422,-1.7379 -25.4114,-2.407 -35.419,-2.407 -93.7861,0 -171.0739,75.7153 -171.0739,169.5015 l -0.6909,972.8571 c 46.8028,-37.165 106.8544,-59.4057 171.2652,-59.4057 9.3351,0 34.1656,1.3936 34.1656,1.3936 L 707.00965,70.326662 c 0,0 -7.5278,-32.9784 24.0149,-16.4913 L 1020.6341,224.91016 723.51855,395.99026 c 0,0 -20.8679,10.9237 -15.0112,-17.9949 l 24.0149,-98.2352 c -9.5425,-1.738 -25.7329,-2.4071 -35.6494,-2.4071 -93.7861,0 -170.8,75.9953 -170.8,169.7756 l 0.2317,236.9145 z"
       id="path131"
       sodipodi:nodetypes="cccccccccscccccccsccscccccccsccc" />
    <g
       style="font-size:284.49383545px;font-style:normal;font-weight:normal;line-height:125%;letter-spacing:0px;word-spacing:0px;fill:#ffffff;fill-opacity:1;stroke:none;font-family:Sans"
       id="text3090">
      <path
         d="m 406.71966,-1923.2212 c 16.87781,2e-4 31.86014,5.9764 44.94704,17.9285 14.03584,13.0869 21.05383,29.3021 21.05401,48.6456 -1.8e-4,18.5855 -7.11368,34.2335 -21.34052,46.9439 -13.0869,11.9466 -27.97373,17.9199 -44.66053,17.9198 l -45.80656,0 0,68.8487 -42.09932,0 0,-200.2865 z m -45.80656,35.5618 0,59.1769 42.95885,0 c 6.82977,10e-5 12.99403,-3.0343 18.49279,-9.1031 5.49851,-6.0687 8.24783,-12.518 8.24796,-19.348 -1.3e-4,-8.5314 -3.03306,-15.9285 -9.0988,-22.1914 -5.49876,-5.6894 -11.3794,-8.5343 -17.64195,-8.5344 z"
         style="font-variant:normal;font-stretch:normal;fill:#ffffff;font-family:CodiceBianco;-inkscape-font-specification:CodiceBianco"
         id="path8921" />
      <path
         d="m 550.52936,-1923.2212 57.46657,0 67.98923,200 -44.09619,0 -11.37351,-33.5735 -81.6548,0 -11.09567,33.5735 -42.67234,0 z m 28.72894,44.9471 -27.8781,84.216 56.90224,0 z"
         style="font-variant:normal;font-stretch:normal;fill:#ffffff;font-family:CodiceBianco;-inkscape-font-specification:CodiceBianco"
         id="path8923" />
      <path
         d="m 727.51322,-1923.2212 38.98246,141.3961 41.8215,-141.3961 42.38583,0 -58.31741,200 -52.06633,0 -54.61886,-200 z"
         style="font-variant:normal;font-stretch:normal;fill:#ffffff;font-family:CodiceBianco;-inkscape-font-specification:CodiceBianco"
         id="path8925" />
      <path
         d="m 920.48075,-1923.2212 0,200 -41.24848,0 0,-200 z"
         style="font-variant:normal;font-stretch:normal;fill:#ffffff;font-family:CodiceBianco;-inkscape-font-specification:CodiceBianco"
         id="path8927" />
      <path
         d="m 1010.0536,-1923.2212 57.4666,0 67.9892,200 -44.0962,0 -11.3735,-33.5735 -81.65479,0 -11.09568,33.5735 -42.67234,0 z m 28.7289,44.9471 -27.8781,84.216 56.9023,0 z"
         style="font-variant:normal;font-stretch:normal;fill:#ffffff;font-family:CodiceBianco;-inkscape-font-specification:CodiceBianco"
         id="path8929" />
    </g>
    <g
       style="font-size:284.49383545px;font-style:normal;font-weight:normal;line-height:125%;letter-spacing:0px;word-spacing:0px;fill:#ffffff;fill-opacity:1;stroke:none;font-family:Sans"
       id="text3090-1">
      <path
         d="m 1786.6731,-1062.3399 c 12.1374,2e-4 23.4241,5.1226 33.8601,15.3672 11.1881,10.8065 16.7822,23.1321 16.7824,36.9769 -2e-4,14.60918 -6.6391,28.26605 -19.9167,40.97067 18.7763,10.24494 28.1645,26.36752 28.1646,48.36777 -10e-5,14.41228 -4.4569,27.11992 -13.3703,38.12294 -9.481,11.94654 -22.0931,18.77353 -37.8365,20.48099 l -111.2346,0 0,-200.28647 z m -61.4516,80.50873 47.7947,0 c 5.8806,1.3e-4 10.7179,-2.27457 14.5121,-6.8241 3.7939,-4.54926 5.691,-9.76428 5.6911,-15.64503 -10e-5,-13.0866 -7.2063,-20.2956 -21.6183,-21.6271 l -46.3796,0 z m 0,83.36517 51.4933,0 c 7.97,4e-5 14.3253,-2.46566 19.0658,-7.39712 3.982,-4.55513 5.9731,-10.15216 5.9733,-16.79111 -2e-4,-6.2568 -1.945,-11.85093 -5.8344,-16.78243 -3.8897,-4.93132 -9.2465,-7.77614 -16.0705,-8.53446 l -54.6275,0 z"
         style="font-variant:normal;font-stretch:normal;fill:#ffffff;font-family:CodiceBianco;-inkscape-font-specification:CodiceBianco"
         id="path8906" />
      <path
         d="m 2063.8566,-963.6162 c -2e-4,32.04847 -9.1973,57.65184 -27.5915,76.81021 -17.6364,18.2092 -40.3949,27.31378 -68.2758,27.31377 -27.8811,10e-6 -50.547,-9.10457 -67.9979,-27.31377 -18.3944,-19.15837 -27.5916,-44.76174 -27.5916,-76.81021 0,-31.2958 10.1464,-56.4275 30.4393,-75.395 18.2091,-16.8778 39.9258,-25.3167 65.1502,-25.3169 25.2242,2e-4 46.9409,8.4391 65.1502,25.3169 20.4779,18.9675 30.7169,44.0992 30.7171,75.395 z m -43.8096,0 c -2e-4,-18.77628 -4.7884,-33.76006 -14.3645,-44.9514 -9.5765,-11.191 -22.1408,-16.7866 -37.6932,-16.7868 -15.5526,2e-4 -28.0229,5.5958 -37.411,16.7868 -9.3883,11.19134 -14.0824,26.17512 -14.0823,44.9514 -1e-4,19.53473 3.9821,34.80068 11.9465,45.79788 8.9135,12.51959 22.0958,18.77935 39.5468,18.7793 17.636,5e-5 30.9109,-6.25971 39.8246,-18.7793 8.1552,-11.18821 12.2329,-26.45415 12.2331,-45.79788 z"
         style="font-variant:normal;font-stretch:normal;fill:#ffffff;font-family:CodiceBianco;-inkscape-font-specification:CodiceBianco"
         id="path8908" />
      <path
         d="m 2137.4111,-898.466 91.8909,0 0,36.12606 -131.1512,0 0,-199.99996 39.2603,0 z"
         style="font-variant:normal;font-stretch:normal;fill:#ffffff;font-family:CodiceBianco;-inkscape-font-specification:CodiceBianco"
         id="path8910" />
      <path
         d="m 2443.9226,-963.6162 c -2e-4,32.04847 -9.1974,57.65184 -27.5916,76.81021 -17.6363,18.2092 -40.3948,27.31378 -68.2757,27.31377 -27.8811,10e-6 -50.547,-9.10457 -67.9979,-27.31377 -18.3944,-19.15837 -27.5916,-44.76174 -27.5916,-76.81021 0,-31.2958 10.1464,-56.4275 30.4393,-75.395 18.2091,-16.8778 39.9258,-25.3167 65.1502,-25.3169 25.2242,2e-4 46.9409,8.4391 65.1502,25.3169 20.4779,18.9675 30.7169,44.0992 30.7171,75.395 z m -43.8096,0 c -2e-4,-18.77628 -4.7884,-33.76006 -14.3645,-44.9514 -9.5765,-11.191 -22.1409,-16.7866 -37.6932,-16.7868 -15.5526,2e-4 -28.0229,5.5958 -37.411,16.7868 -9.3883,11.19134 -14.0824,26.17512 -14.0823,44.9514 -10e-5,19.53473 3.9821,34.80068 11.9465,45.79788 8.9135,12.51959 22.0958,18.77935 39.5468,18.7793 17.636,5e-5 30.9109,-6.25971 39.8246,-18.7793 8.1552,-11.18821 12.2329,-26.45415 12.2331,-45.79788 z"
         style="font-variant:normal;font-stretch:normal;fill:#ffffff;font-family:CodiceBianco;-inkscape-font-specification:CodiceBianco"
         id="path8912" />
      <path
         d="m 2468.2584,-961.05499 c 0,-38.50191 12.5196,-66.95301 37.5587,-85.35341 17.445,-12.7045 37.0752,-19.0569 58.8904,-19.0571 17.636,2e-4 34.6094,5.4034 50.9203,16.2094 14.603,9.4868 25.1286,20.5825 31.5766,33.2871 l -36.126,17.92842 c -10.245,-20.10752 -26.2721,-30.16132 -48.0813,-30.16152 -11.7614,2e-4 -21.2451,2.7524 -28.4511,8.2567 -7.7734,5.875 -13.0839,11.3736 -15.9316,16.4959 -5.1225,8.91372 -7.6837,21.43035 -7.6836,37.54992 -1e-4,17.83305 1.3283,30.73169 3.9851,38.69595 2.8476,8.91365 8.7283,16.59437 17.6419,23.04219 10.43,7.77918 21.4301,11.66874 33.0005,11.6687 13.6539,4e-5 25.46,-4.83731 35.4185,-14.51207 9.9582,-9.67465 14.9373,-20.76887 14.9375,-33.28269 l -52.9172,0 0,-35.84824 88.7654,0 0,114.08231 -34.9974,0 c -0.5674,-1.70746 -1.7047,-4.36417 -3.412,-7.97013 -16.8781,8.91359 -33.0007,13.37038 -48.3678,13.37037 -21.0512,10e-6 -40.2067,-6.06875 -57.4666,-18.20628 -26.1735,-18.20335 -39.2603,-46.93516 -39.2603,-86.19552 z"
         style="font-variant:normal;font-stretch:normal;fill:#ffffff;font-family:CodiceBianco;-inkscape-font-specification:CodiceBianco"
         id="path8914" />
      <path
         d="m 2876.2373,-862.33994 -46.6574,0 -96.7269,-138.54836 0,138.54836 -39.8333,0 0,-199.99996 46.6574,0 96.7356,139.39916 0,-139.39916 39.8246,0 z"
         style="font-variant:normal;font-stretch:normal;fill:#ffffff;font-family:CodiceBianco;-inkscape-font-specification:CodiceBianco"
         id="path8916" />
      <path
         d="m 2966.1052,-1062.3399 57.4666,0 67.9892,199.99996 -44.0962,0 -11.3735,-33.57354 -81.6548,0 -11.0956,33.57354 -42.6724,0 z m 28.729,44.947 -27.8781,84.21601 56.9022,0 z"
         style="font-variant:normal;font-stretch:normal;fill:#ffffff;font-family:CodiceBianco;-inkscape-font-specification:CodiceBianco"
         id="path8918" />
    </g>
    <rect
       y="-364.17981"
       x="1160.625"
       height="523.75"
       width="2073.75"
       id="rect5491"
       style="fill:#08842c;fill-opacity:1;stroke:#ffffff;stroke-width:26.25;stroke-miterlimit:4;stroke-opacity:1;stroke-dasharray:none" />
    <g
       style="font-size:284.49383545px;font-style:normal;font-weight:normal;line-height:125%;letter-spacing:0px;word-spacing:0px;fill:#ffffff;fill-opacity:1;stroke:none;font-family:Sans"
       id="text5111">
      <path
         d="m 1746.7287,-202.33994 38.9824,141.396077 41.8215,-141.396077 42.3859,0 -58.3174,200.000001 -52.0664,0 -54.6188,-200.000001 z"
         style="font-variant:normal;font-stretch:normal;fill:#ffffff;font-family:CodiceBianco;-inkscape-font-specification:CodiceBianco"
         id="path8893" />
      <path
         d="m 1944.2543,-202.33994 57.4666,0 67.9892,200.000001 -44.0962,0 -11.3735,-33.573537 -81.6548,0 -11.0957,33.573537 -42.6723,0 z m 28.7289,44.94704 -27.8781,84.21601 56.9023,0 z"
         style="font-variant:normal;font-stretch:normal;fill:#ffffff;font-family:CodiceBianco;-inkscape-font-specification:CodiceBianco"
         id="path8895" />
      <path
         d="m 2191.7973,-202.33994 c 15.3613,2.1e-4 28.9227,5.59435 40.6841,16.78243 12.3284,11.76148 18.4926,26.17659 18.4928,43.24535 -2e-4,15.3616 -5.1226,28.44835 -15.3672,39.26029 -7.5883,8.155457 -16.7855,14.131604 -27.5916,17.928462 l 51.4933,82.783469 -44.9558,0 -49.2186,-79.371419 -29.8663,0 0,79.371419 -39.5468,0 0,-200.000001 z m -56.3293,35.56173 0,49.79163 48.9321,0 c 5.1223,1.3e-4 10.1493,-2.37152 15.0808,-7.11495 4.9313,-4.74316 7.397,-10.62236 7.3971,-17.63761 -1e-4,-7.02074 -2.4195,-12.94913 -7.2582,-17.78521 -4.8389,-4.83573 -10.1031,-7.25368 -15.7927,-7.25386 z"
         style="font-variant:normal;font-stretch:normal;fill:#ffffff;font-family:CodiceBianco;-inkscape-font-specification:CodiceBianco"
         id="path8897" />
      <path
         d="m 2426.404,-202.33994 0,36.13475 -97.0134,0 0,42.95884 87.055,0 0,36.126067 -86.7685,0 0,46.093072 106.6852,0 0,38.687272 -147.6559,0 0,-200.000001 z"
         style="font-variant:normal;font-stretch:normal;fill:#ffffff;font-family:CodiceBianco;-inkscape-font-specification:CodiceBianco"
         id="path8899" />
      <path
         d="m 2551.417,-203.7638 c 34.7108,2.2e-4 64.2037,10.90777 88.4789,32.7227 l -29.5885,25.31689 c -5.8808,-5.12225 -13.1824,-9.67454 -21.9048,-13.65688 -10.8122,-5.12225 -21.2422,-7.68345 -31.2902,-7.68363 -5.5045,1.8e-4 -10.7224,0.85391 -15.6537,2.56121 -11.5704,3.79713 -16.8809,11.09873 -15.9316,21.90485 0.3819,4.36433 4.176,7.97027 11.3822,10.81785 6.4478,2.65106 19.3435,6.0631 38.6873,10.23615 40.5913,8.72849 60.8871,28.737728 60.8873,60.027781 -2e-4,19.158469 -7.5391,34.569116 -22.6168,46.231984 -15.078,11.6629171 -35.6111,17.4943635 -61.5992,17.4943569 -21.6185,6.6e-6 -42.1949,-5.7851355 -61.7295,-17.3554439 -12.3286,-7.015076 -22.666,-15.263027 -31.0123,-24.743879 l 34.7108,-26.176419 c 3.2239,4.931481 9.8628,10.242004 19.9167,15.931585 13.4629,7.588174 27.4005,11.477734 41.8128,11.668692 9.8627,0.185265 17.83,-1.760962 23.9017,-5.838687 6.0716,-4.077618 9.1074,-9.34039 9.1075,-15.788331 -1e-4,-7.397041 -4.7434,-13.182183 -14.2299,-17.355444 -5.8808,-2.650834 -16.3122,-5.541958 -31.2945,-8.673381 -14.9824,-3.131232 -25.1274,-5.929748 -30.435,-8.395554 -9.2956,-4.173071 -15.7464,-7.87163 -19.3523,-11.09568 -10.048,-8.91346 -15.0721,-20.67185 -15.072,-35.27522 -10e-5,-21.43295 7.8688,-37.74363 23.6065,-48.9321 13.0867,-9.29539 29.4929,-13.94318 49.2186,-13.9434 z"
         style="font-variant:normal;font-stretch:normal;fill:#ffffff;font-family:CodiceBianco;-inkscape-font-specification:CodiceBianco"
         id="path8901" />
      <path
         d="m 2803.136,-202.33994 0,36.13475 -97.0134,0 0,42.95884 87.0551,0 0,36.126067 -86.7686,0 0,46.093072 106.6852,0 0,38.687272 -147.6558,0 0,-200.000001 z"
         style="font-variant:normal;font-stretch:normal;fill:#ffffff;font-family:CodiceBianco;-inkscape-font-specification:CodiceBianco"
         id="path8903" />
    </g>
    <g
       style="font-size:271.03390503px;font-style:normal;font-weight:normal;line-height:125%;letter-spacing:0px;word-spacing:0px;fill:#000000;fill-opacity:1;stroke:none;font-family:Sans"
       id="text5117">
      <path
         d="m 1495.397,554.4758 -43.3582,0 0,-120.88503 -53.9371,73.44913 -54.2101,-72.90322 0,120.06616 -43.6311,0 0,-189.99999 48.5112,-0.26468 48.7841,68.56906 49.603,-69.11497 48.2382,0 z"
         style="font-variant:normal;font-stretch:normal;fill:#000000;font-family:CodiceNero;-inkscape-font-specification:CodiceNero"
         id="path8876" />
      <path
         d="m 1623.8254,423.02005 c 3.0713,1.08644 6.6859,3.61745 10.8437,7.59305 6.865,6.68334 10.2976,14.27087 10.2978,22.76262 l 0,63.15136 c -2e-4,3.25342 2.0787,5.33227 6.2365,6.23656 0.3638,0.17649 3.256,0.44669 8.6766,0.81059 -1.6268,4.69813 -6.3249,15.80923 -14.0943,33.33333 -14.0944,10e-6 -25.9306,-3.97297 -35.5087,-11.91894 -12.6496,8.30991 -25.2992,12.46485 -37.9487,12.46484 -13.19,1e-5 -24.7988,-4.24592 -34.8263,-12.7378 -10.0276,-8.49183 -15.0414,-19.06254 -15.0413,-31.71215 -10e-5,-20.9594 12.9197,-35.41486 38.7593,-43.36642 9.5781,-1.44462 22.5888,-3.70269 39.0322,-6.77419 -10e-5,-7.95137 -5.0594,-11.9271 -15.1778,-11.92722 -10.1186,1.2e-4 -19.7878,2.61936 -29.0075,7.85774 -0.5404,0.36404 -4.3342,3.25623 -11.3813,8.67659 l -20.5955,-31.16625 c 0.3584,-0.9042 3.0686,-2.89207 8.1307,-5.96361 6.1428,-3.9756 13.0079,-7.59015 20.5955,-10.84367 9.0377,-3.97559 19.6994,-5.96346 31.9851,-5.96361 14.0942,1.5e-4 27.1022,3.16254 39.024,9.48718 z m -57.9983,88.08933 c 0.1819,2.88949 2.0788,5.32676 5.6906,7.31183 3.0714,1.8087 6.2338,2.71303 9.4872,2.71298 5.062,5e-5 9.3989,-1.12898 13.0108,-3.38709 3.6117,-2.25802 5.8697,-4.83177 6.7741,-7.72126 l 0,-13.82961 c -7.5876,1.4503 -15.1751,2.89778 -22.7626,4.34243 -8.3154,1.80321 -12.3822,5.32677 -12.2001,10.57072 z"
         style="font-variant:normal;font-stretch:normal;fill:#000000;font-family:CodiceNero;-inkscape-font-specification:CodiceNero"
         id="path8878" />
      <path
         d="m 1727.3324,362.30872 0,139.58643 c 0,5.96091 0.4521,9.75467 1.3565,11.38131 0.1819,0.54044 1.3565,1.2628 3.5236,2.16708 1.0862,0.54044 2.531,0.81064 4.3342,0.81059 3.7937,5e-5 8.7647,-1.17448 14.9131,-3.52358 3.0713,27.10783 4.4251,40.66172 4.0612,40.66171 -7.5876,1.08079 -18.6987,2.16433 -33.3333,3.25062 -10.4825,0 -20.4219,-4.24592 -29.818,-12.7378 -5.2385,-4.69807 -8.4009,-13.91505 -9.4872,-27.65095 l 0,-153.94541 z"
         style="font-variant:normal;font-stretch:normal;fill:#000000;font-family:CodiceNero;-inkscape-font-specification:CodiceNero"
         id="path8880" />
      <path
         d="m 1861.65,412.72229 c 23.4904,1.5e-4 41.1082,8.40102 52.8536,25.20264 9.3906,13.19008 14.0859,29.45419 14.0861,48.79239 -2e-4,19.87323 -6.6393,36.99204 -19.9173,51.35649 -13.2784,14.3645 -29.5866,21.54674 -48.9248,21.54673 -8.128,10e-6 -18.2465,-2.52825 -30.3556,-7.58478 l 0,44.17701 -45.5335,0 0,-179.69396 38.7593,0.26468 c 1.9905,1.5e-4 2.9404,0.99408 2.8494,2.98181 -0.091,1.98801 0.3157,3.16391 1.2201,3.5277 10.2949,-7.04699 21.9491,-10.57056 34.9627,-10.57071 z m -32.258,65.04549 0,18.97435 c -10e-5,5.42052 2.6219,10.66176 7.866,15.72374 5.5968,5.77893 12.462,8.66837 20.5955,8.66832 8.4918,5e-5 15.2673,-3.20646 20.3267,-9.61952 5.0592,-6.41295 7.5888,-14.95168 7.5889,-25.61621 -10e-5,-9.03217 -2.4387,-16.84578 -7.3159,-23.44086 -4.8774,-6.59487 -11.4738,-9.89236 -19.7891,-9.89247 -11.7453,1.1e-4 -20.1462,3.97584 -25.2027,11.92721 -2.713,4.51623 -4.0695,8.94137 -4.0694,13.27544 z"
         style="font-variant:normal;font-stretch:normal;fill:#000000;font-family:CodiceNero;-inkscape-font-specification:CodiceNero"
         id="path8882" />
      <path
         d="m 2016.282,413.53287 c 17.3475,1.5e-4 32.4344,6.14296 45.2605,18.42846 14.4581,13.73598 21.6872,31.806 21.6873,54.21008 -1e-4,2.88952 -0.4523,7.49663 -1.3564,13.82134 l -90.5294,0 c 4.1576,12.8316 13.3746,19.06539 27.6509,18.70141 11.1993,-0.35838 22.2194,-4.69529 33.0604,-13.01075 l 29.0075,28.46154 c -22.4099,15.53902 -43.2811,23.30852 -62.6138,23.30851 -18.2465,1e-5 -34.1467,-5.69064 -47.7005,-17.07196 -14.8167,-12.64953 -22.4952,-29.36305 -23.0356,-50.14061 0,-2.71291 0,-6.87061 0,-12.47311 0.1764,-13.73026 5.3239,-27.01119 15.4425,-39.84285 13.0135,-16.26123 30.7223,-24.39191 53.1266,-24.39206 z m -24.3921,53.66419 47.4276,0 c -1.0809,-5.05642 -3.7897,-9.34646 -8.1265,-12.87014 -4.337,-3.52346 -9.4887,-5.37623 -15.455,-5.55832 -6.1428,-0.18185 -11.4723,1.80602 -15.9884,5.96361 -3.7938,3.43545 -6.413,7.5904 -7.8577,12.46485 z"
         style="font-variant:normal;font-stretch:normal;fill:#000000;font-family:CodiceNero;-inkscape-font-specification:CodiceNero"
         id="path8884" />
      <path
         d="m 2196.8775,554.20284 0,-76.43506 c -1e-4,-6.68312 -1.8529,-12.28416 -5.5583,-16.80315 -3.7057,-4.51877 -8.991,-6.77822 -15.8561,-6.77833 -7.5876,1.1e-4 -13.2783,2.62211 -17.072,7.86601 -2.713,3.97583 -4.0695,8.58294 -4.0694,13.82134 l 0,78.32919 -43.3665,0 0,-137.41935 38.2217,0 2.1671,8.40364 c 9.5726,-7.58739 22.1284,-11.38115 37.6675,-11.3813 17.7115,1.5e-4 31.3536,6.86532 40.9264,20.59553 7.047,10.11867 10.5705,20.3282 10.5707,30.62862 l 0,89.17286 z"
         style="font-variant:normal;font-stretch:normal;fill:#000000;font-family:CodiceNero;-inkscape-font-specification:CodiceNero"
         id="path8886" />
      <path
         d="m 2331.1786,414.35173 c 23.8488,1.5e-4 44.8992,7.31749 63.1513,21.95203 l -27.6509,28.99917 c -7.0473,-9.03215 -17.2541,-13.54828 -30.6204,-13.54839 -9.5782,1.1e-4 -14.3673,1.62404 -14.3672,4.8718 -1e-4,1.44482 1.0834,2.71033 3.2506,3.79652 0.7223,0.36404 8.853,2.16994 24.3921,5.4177 13.3718,2.89505 23.4903,7.05276 30.3556,12.47312 9.9365,7.58762 14.9048,18.51951 14.9049,32.7957 -10e-5,9.39624 -3.5237,18.34026 -10.5707,26.83209 -10.4771,13.00801 -26.5565,19.512 -48.2382,19.51199 -26.744,1e-5 -49.7823,-8.76204 -69.115,-26.28618 -0.9043,-0.54587 8.853,-9.76285 29.2721,-27.65095 16.8017,11.2049 30.3529,16.80732 40.6535,16.80728 2.7129,4e-5 5.2439,-0.54311 7.593,-1.62945 3.0713,-1.44467 4.2458,-3.34156 3.5236,-5.69065 -1.2684,-3.79372 -8.1363,-6.86512 -20.6038,-9.21423 -15.7211,-2.71292 -26.653,-5.9663 -32.7957,-9.76013 -11.3814,-6.8651 -17.072,-17.88522 -17.072,-33.06038 0,-13.73575 4.9242,-24.93922 14.7726,-33.61042 9.8483,-8.67093 22.9031,-13.00647 39.1646,-13.00662 z"
         style="font-variant:normal;font-stretch:normal;fill:#000000;font-family:CodiceNero;-inkscape-font-specification:CodiceNero"
         id="path8888" />
      <path
         d="m 2522.6839,423.02005 c 3.0713,1.08644 6.6858,3.61745 10.8437,7.59305 6.865,6.68334 10.2976,14.27087 10.2977,22.76262 l 0,63.15136 c -10e-5,3.25342 2.0788,5.33227 6.2366,6.23656 0.3638,0.17649 3.256,0.44669 8.6766,0.81059 -1.6268,4.69813 -6.3249,15.80923 -14.0943,33.33333 -14.0944,10e-6 -25.9306,-3.97297 -35.5087,-11.91894 -12.6496,8.30991 -25.2992,12.46485 -37.9487,12.46484 -13.19,1e-5 -24.7988,-4.24592 -34.8263,-12.7378 -10.0276,-8.49183 -15.0414,-19.06254 -15.0414,-31.71215 0,-20.9594 12.9198,-35.41486 38.7593,-43.36642 9.5781,-1.44462 22.5889,-3.70269 39.0323,-6.77419 -1e-4,-7.95137 -5.0594,-11.9271 -15.1778,-11.92722 -10.1187,1.2e-4 -19.7878,2.61936 -29.0075,7.85774 -0.5404,0.36404 -4.3342,3.25623 -11.3813,8.67659 l -20.5955,-31.16625 c 0.3584,-0.9042 3.0686,-2.89207 8.1307,-5.96361 6.1428,-3.9756 13.0079,-7.59015 20.5955,-10.84367 9.0377,-3.97559 19.6994,-5.96346 31.9851,-5.96361 14.0942,1.5e-4 27.1022,3.16254 39.024,9.48718 z m -57.9983,88.08933 c 0.1819,2.88949 2.0788,5.32676 5.6906,7.31183 3.0714,1.8087 6.2337,2.71303 9.4872,2.71298 5.0619,5e-5 9.3989,-1.12898 13.0107,-3.38709 3.6118,-2.25802 5.8698,-4.83177 6.7742,-7.72126 l 0,-13.82961 c -7.5876,1.4503 -15.1751,2.89778 -22.7626,4.34243 -8.3154,1.80321 -12.3822,5.32677 -12.2001,10.57072 z"
         style="font-variant:normal;font-stretch:normal;fill:#000000;font-family:CodiceNero;-inkscape-font-specification:CodiceNero"
         id="path8890" />
    </g>
    <path
       style="fill:none;stroke:#ffffff;stroke-width:8.18181801;stroke-linecap:butt;stroke-linejoin:miter;stroke-miterlimit:4;stroke-opacity:1;stroke-dasharray:none"
       d="m 1533.8927,-833.67026 c 7.1506,-1.08355 15.3106,-9.24641 16.5286,-16.69296 l 16.9163,-111.92304 -16.9163,-111.91194 c -1.218,-7.4465 -9.378,-15.6094 -16.5286,-16.6931 l -112.4728,-17.2985 -112.4557,17.2985 c -7.1506,1.0837 -15.3107,9.2466 -16.5286,16.6931 l -16.9162,111.91194 16.9162,111.92304 c 1.2179,7.44655 9.378,15.60941 16.5286,16.69296 l 112.453,17.29868 z"
       id="path3382"
       inkscape:connector-curvature="0"
       sodipodi:nodetypes="ccccccccccccc" />
    <g
       style="font-size:157.59356689px;font-style:normal;font-weight:normal;line-height:125%;letter-spacing:0px;word-spacing:0px;fill:#ffffff;fill-opacity:1;stroke:none;font-family:Sans"
       id="text3384">
      <path
         d="m 1385.7272,-1016.4923 17.6504,109.21122 -23.3207,0 -2.8375,-21.58928 -16.0729,0 -3.155,21.58928 -22.8493,0 18.7518,-109.21122 z m -16.0729,27.58171 -6.1464,43.33727 11.6627,0 z"
         style="text-align:center;word-spacing:-15px;text-anchor:middle;fill:#ffffff;font-family:CodiceBiancoCondensed;-inkscape-font-specification:CodiceBiancoCondensed"
         id="path8866" />
      <path
         d="m 1496.1942,-1017.5937 0,110.78875 -22.3781,0 0,-73.75656 -12.134,0 0,-16.39035 c 10.2952,-0.73413 15.3387,-7.61474 15.1303,-20.64184 z"
         style="text-align:center;word-spacing:-15px;text-anchor:middle;fill:#ffffff;font-family:CodiceBiancoCondensed;-inkscape-font-specification:CodiceBiancoCondensed"
         id="path8868" />
    </g>
    <path
       sodipodi:nodetypes="ccccccccccccc"
       inkscape:connector-curvature="0"
       id="path5479"
       d="m 1533.8927,26.286448 c 7.1506,-1.08355 15.3106,-9.246409 16.5286,-16.6929593 l 16.9163,-111.9230387 -16.9163,-111.91194 c -1.218,-7.4465 -9.378,-15.6094 -16.5286,-16.6931 l -112.4728,-17.2985 -112.4557,17.2985 c -7.1506,1.0837 -15.3107,9.2466 -16.5286,16.6931 l -16.9162,111.91194 16.9162,111.9230387 c 1.2179,7.4465503 9.378,15.6094093 16.5286,16.6929593 l 112.453,17.29868 z"
       style="fill:none;stroke:#ffffff;stroke-width:8.18181801;stroke-linecap:butt;stroke-linejoin:miter;stroke-miterlimit:4;stroke-opacity:1;stroke-dasharray:none" />
    <g
       style="font-size:157.59356689px;font-style:normal;font-weight:normal;line-height:125%;letter-spacing:0px;word-spacing:0px;fill:#ffffff;fill-opacity:1;stroke:none;font-family:Sans"
       id="text5481">
      <path
         d="m 1375.8776,-156.53564 17.6504,109.211265 -23.3206,0 -2.8376,-21.58928 -16.0729,0 -3.155,21.58928 -22.8493,0 18.7518,-109.211265 z m -16.0729,27.58176 -6.1464,43.337269 11.6627,0 z"
         style="text-align:center;word-spacing:-15px;text-anchor:middle;fill:#ffffff;font-family:CodiceBiancoCondensed;-inkscape-font-specification:CodiceBiancoCondensed"
         id="path8871" />
      <path
         d="m 1451.3612,-127.22251 c 0,-9.98095 2.9946,-17.91321 8.9839,-23.79678 5.3576,-5.35752 12.0811,-8.03634 20.1705,-8.03646 7.1435,1.2e-4 13.3941,2.52183 18.7517,7.56514 5.9893,5.77777 8.9839,13.44711 8.984,23.00805 -10e-5,6.72358 -1.786,12.50124 -5.3577,17.33298 -2.5234,3.46923 -5.2022,5.78093 -8.0364,6.93512 3.8859,0.52589 7.5105,3.1005 10.8739,7.723854 3.6775,5.251888 5.5163,11.555367 5.5164,18.910459 -10e-5,9.455257 -2.9947,17.334607 -8.9839,23.638073 -5.9893,6.303493 -13.2916,9.455233 -21.9067,9.455229 -7.5636,4e-6 -14.2342,-2.362999 -20.0118,-7.089017 -7.3552,-5.989257 -11.0327,-14.551537 -11.0327,-25.686867 0,-13.870183 4.8318,-22.854081 14.4954,-26.951731 -8.2978,-3.88591 -12.4466,-11.55525 -12.4466,-23.00805 z m 21.2718,-0.94744 c 0,9.87853 2.3646,14.81775 7.0939,14.81768 4.8317,7e-5 7.2476,-4.93915 7.2477,-14.81768 -10e-5,-8.50929 -2.3631,-12.76398 -7.089,-12.76408 -1.8918,1e-4 -3.5205,0.99885 -4.8864,2.99624 -1.5775,2.3118 -2.3662,5.56774 -2.3662,9.76784 z m -0.1539,48.858428 c 0,9.977877 2.6259,14.966796 7.8778,14.966772 4.9376,2.4e-5 7.4064,-5.041798 7.4064,-15.125481 0,-10.612636 -2.6259,-15.918973 -7.8777,-15.919028 -2.206,5.5e-5 -3.9918,1.47092 -5.3577,4.4126 -1.3659,2.941782 -2.0488,6.830157 -2.0488,11.665137 z"
         style="text-align:center;word-spacing:-15px;text-anchor:middle;fill:#ffffff;font-family:CodiceBiancoCondensed;-inkscape-font-specification:CodiceBiancoCondensed"
         id="path8873" />
    </g>
    <path
       inkscape:connector-curvature="0"
       style="fill:#000000;fill-opacity:1"
       id="path6902-9"
       d="m 2950.0937,403.49592 25.1899,47.86349 20.8253,1.00654 c 33.1623,1.59766 55.9407,6.74089 59.5128,13.43757 1.1151,2.0794 0.5608,2.99867 -3.1004,5.27007 -9.608,5.95196 -27.5011,9.25433 -57.5201,10.62276 l -19.7142,0.89832 -25.1793,47.86582 -25.18,47.86466 -10.5021,0 c -5.7752,0 -10.5013,-0.30487 -10.5013,-0.70981 0,-0.38749 5.1773,-18.22125 11.505,-39.632 9.1255,-30.87453 11.506,-40.70602 11.506,-47.50277 l 0,-8.57244 -16.6659,0 c -16.57,0 -49.7901,-2.67402 -73.6505,-5.93101 l -12.4865,-1.70355 -12.4577,15.35988 -12.4593,15.35989 -6.5249,0 c -3.5903,0 -6.5266,-0.3968 -6.5266,-0.88087 0,-0.47825 3.9829,-7.8347 8.85,-16.33966 4.8679,-8.50379 8.5234,-15.9929 8.1242,-16.6422 -0.3959,-0.65163 -4.3813,-1.60581 -8.8516,-2.12595 -4.4662,-0.51083 -8.1226,-1.43708 -8.1226,-2.03751 0,-0.6016 3.6564,-1.51504 8.1226,-2.03635 4.4703,-0.51083 8.4516,-1.47664 8.8516,-2.12478 0.396,-0.65163 -3.2563,-8.13725 -8.1242,-16.64337 -4.8671,-8.50379 -8.85,-15.85559 -8.85,-16.33849 0,-0.47826 2.9363,-0.8704 6.5266,-0.8704 l 6.5249,0 12.6746,15.62752 c 8.633,10.64254 13.3517,15.42039 14.7934,14.98171 6.1613,-1.87228 54.0833,-6.3825 75.5485,-7.10744 l 24.7034,-0.84014 0,-8.36299 c 0,-6.5361 -2.5141,-16.86911 -11.506,-47.29565 -6.3277,-21.41075 -11.505,-39.24683 -11.505,-39.63199 0,-0.38749 4.7204,-0.69236 10.4906,-0.69236 l 10.4897,0 25.1891,47.8635 0,0 0,0 z" />
  </g>
</svg>
