<?xml version="1.0" encoding="UTF-8"?>
<svg width="204.26mm" height="204.26mm" version="1.1" viewBox="0 0 204.26 204.26" xmlns="http://www.w3.org/2000/svg">
<g transform="translate(-2.3066 -11.675)">
<g transform="translate(-966.78 -1935.9)">
<rect x="969.08" y="1947.6" width="204.26" height="204.26" stroke-dasharray="7.18259, 7.18259" stroke-width="2.6602"/>
<rect x="969.35" y="1947.8" width="203.73" height="203.73" fill="#fff" stroke-dasharray="7.16398, 7.16398" stroke-width="2.6533"/>
<rect x="972.4" y="1950.9" width="197.62" height="197.62" rx="10.696" ry="10.696" fill="none" stroke="#000" stroke-width="3.0559"/>
<rect transform="matrix(2.2727 0 0 2.2727 -32.158 -2334)" x="448.18" y="1938.1" width="28.046" height="28.046" rx="3.7042" ry="3.7041" fill="#00408b" stroke="#00408b" stroke-linejoin="bevel" stroke-width="1.0583"/>
<g transform="matrix(2.2727 0 0 2.2727 -32.158 -2334)" fill="#fff" stroke-linejoin="bevel" stroke-width="8.4593" aria-label="P">
<path d="m455.34 1941.9v20.238h4.136v-6.8933q2.3932 0 3.5637 0 1.1706-0.026 1.3006-0.026 1.0665 0 2.159-0.5203 1.1185-0.5462 2.003-1.4827 0.91043-0.9364 1.4567-2.159 0.57227-1.2486 0.57227-2.6273 0-1.3526-0.57227-2.5492-0.57228-1.1966-1.4827-2.081-0.88442-0.8844-1.977-1.3787-1.0925-0.5202-2.159-0.5202zm4.136 3.5637h4.136q1.2226 0.2081 1.9509 0.9625 0.75437 0.7283 0.75437 1.9769 0 0.5463-0.18209 1.1185-0.15608 0.5463-0.49424 0.9885t-0.85841 0.7284q-0.49424 0.2861-1.1706 0.2861h-4.136z"/>
</g>
<g>
<path d="m1080.1 2082.4q-0.189 0-0.3678 0.1667-0.168 0.1567-0.3154 0.4518-0.147 0.2834-0.2417 0.6621-0.084 0.3784-0.084 0.7989 0 0.8198 0.3257 1.4083 0.3047 0.5991 0.6831 0.5991 0.3258 0 0.6727-0.5991 0.3047-0.6515 0.3047-1.4083 0-0.3995-0.095-0.7882-0.084-0.3891-0.2207-0.6622-0.1367-0.2834-0.3154-0.4521-0.1681-0.1767-0.3469-0.1767zm-1.2191 8.7126q0.105 0.4308 0.189 0.7355 0.084 0.3034 0.1891 0.4834 0.1157 0.1801 0.2837 0.2734 0.1787 0.083 0.4309 0.083 0.3048 0 0.5255-0.2634 0.2311-0.2734 0.3679-0.7355 0.147-0.4731 0.21-1.0616 0.063-0.5888 0.063-1.2402-0.3047 0.2633-0.8723 0.4731-0.5675 0.2-1.0195 0.2h-0.074q-0.7251-0.033-1.3872-0.3891-0.6516-0.3677-1.1456-1.0299-0.494-0.6725-0.7883-1.65-0.2944-0.9776-0.2944-2.2282 0.02-0.9248 0.3155-1.9547 0.2943-1.0406 0.8513-1.8918 0.557-0.8619 1.3767-1.419 0.8198-0.5674 1.9129-0.5674 1.4188 0 2.6274 1.1876 1.2297 1.1772 1.7762 2.9743t0.5465 4.1512q0.02 0.2101 0.02 0.4311 0 0.1901 0 0.3995 0 1.6813-0.3889 3.153-0.3783 1.4606-1.0509 2.5539-0.6622 1.0822-1.566 1.7024-0.9039 0.6201-1.9233 0.6201h-0.4099q-1.3768 0-2.4173-1.0719-1.0405-1.0722-1.65-2.9323z" stroke-dasharray="14.1869, 14.1869" stroke-width="5.2544"/>
<path d="m1087.6 2093q-0.5675-0.3784-1.03-0.3784-0.6831 0-1.1981 0.5255-0.5045 0.5151-0.5045 1.1666 0 0.5361 0.2417 0.9458 0.2521 0.4101 0.6411 0.6309 0.074 0.033 0.2311 0.043 0.1577 0 0.231 0.043 0.084 0.043 0.084 0.1267 0 0.1167-0.7777 0.1167-0.126 0-0.1997 0.083-0.063 0.093-0.063 0.1667v0.4941q0 0.083 0.074 0.18 0.074 0.1067 0.1891 0.1067 0.9038 0 1.4188-0.1267t0.8828-0.3681q0.7777-0.7144 0.7777-1.7863 0-0.5992-0.2627-1.1246-0.2627-0.5361-0.7357-0.8409z" stroke-dasharray="14.1869, 14.1869" stroke-width="5.2544"/>
<path d="m1126.1 2079.1v16.837h-3.773v-10.636h-1.8708v-2.9219q1.2507-0.043 1.7552-0.8406 0.5044-0.7988 0.4834-2.4385z" stroke-dasharray="14.1869, 14.1869" stroke-width="5.2544"/>
<path d="m1129 2079.1h7.7248v3.0587l-3.6785 13.778h-3.8571l3.5523-13.264h-3.7415z" stroke-dasharray="14.1869, 14.1869" stroke-width="5.2544"/>
<path d="m1139.8 2093q-0.5675-0.3784-1.0299-0.3784-0.6831 0-1.1981 0.5255-0.5045 0.5151-0.5045 1.1666 0 0.5361 0.2417 0.9458 0.2524 0.4101 0.6411 0.6309 0.074 0.033 0.231 0.043 0.1577 0 0.2311 0.043 0.084 0.043 0.084 0.1267 0 0.1167-0.7777 0.1167-0.126 0-0.1997 0.083-0.063 0.093-0.063 0.1667v0.4941q0 0.083 0.074 0.18 0.074 0.1067 0.189 0.1067 0.9038 0 1.4189-0.1267 0.515-0.1267 0.8828-0.3681 0.7777-0.7144 0.7777-1.7863 0-0.5992-0.2628-1.1246-0.2627-0.5361-0.7356-0.8409z" stroke-dasharray="14.1869, 14.1869" stroke-width="5.2544"/>
<path d="m1064.4 2114.1v-0.9039q0-0.9248 0.3573-1.7867 0.3573-0.8618 0.9564-1.524 0.599-0.6725 1.4083-1.0719 0.8092-0.3994 1.7131-0.3994 0.9249 0 1.7236 0.3364 0.7988 0.3364 1.3768 0.9142 0.5781 0.5781 0.9039 1.377 0.3257 0.7988 0.3257 1.7237 0 1.2926-0.4624 2.4275-0.4625 1.1246-1.03 2.2178-0.2944 0.5148-0.6306 1.1243-0.3363 0.5991-0.8092 1.482-0.2311 0.4311-0.3679 0.6938-0.126 0.2534-0.2207 0.4414-0.095 0.1768-0.1891 0.3468-0.084 0.1567-0.21 0.3677h3.6995v3.5525h-8.1977v-2.901q0.3678-0.5254 0.7041-1.1452 0.3469-0.6202 0.8618-1.482 0.515-0.8619 0.9039-1.4924 0.3888-0.6411 0.7357-1.1982 0.6936-1.1456 0.9564-2.0388 0.2731-0.8935 0.4414-1.4927 0.063-0.2 0.053-0.4624-0.01-0.2734-0.105-0.5045-0.095-0.24-0.2734-0.399-0.1681-0.1701-0.452-0.1701-0.3573 0-0.6411 0.4101-0.2837 0.4098-0.2837 0.8615v0.6938z" stroke-dasharray="7.14535, 7.14535" stroke-width="2.6464"/>
<path d="m1079.9 2121.8q1.4188 0 1.4188-4.9291 0-1.2086-0.1261-2.0811-0.126-0.8722-0.3363-1.4396-0.1997-0.5675-0.4624-0.8302-0.2521-0.2734-0.536-0.2734-0.4519 0-0.7567 0.5571-0.2944 0.5568-0.4625 1.324-0.1577 0.7675-0.2207 1.5766-0.063 0.7989-0.063 1.2927 0 2.3228 0.3994 3.5628 0.3994 1.2402 1.1456 1.2402zm0.063 3.7625q-0.988 0-1.9444-0.6621-0.9563-0.6725-1.7131-1.8288-0.7462-1.1665-1.2086-2.7219-0.4519-1.566-0.4204-3.3527 0-1.8708 0.4624-3.4471 0.4625-1.5871 1.1982-2.7223 0.7462-1.1456 1.6815-1.7864 0.9354-0.6518 1.9023-0.6518t1.8918 0.6938q0.9354 0.6832 1.65 1.8708 0.7252 1.1769 1.1666 2.7536 0.4415 1.5656 0.4415 3.3104 0.02 1.7867-0.4309 3.3527-0.452 1.5554-1.1877 2.7116-0.7357 1.1456-1.65 1.8181-0.9144 0.6621-1.8392 0.6621z" stroke-dasharray="7.14535, 7.14535" stroke-width="2.6464"/>
<path d="m1087.1 2122.4q-0.5676-0.3784-1.03-0.3784-0.6831 0-1.1981 0.5254-0.5045 0.5151-0.5045 1.1666 0 0.5361 0.2417 0.9459 0.2524 0.4101 0.6411 0.6308 0.074 0.033 0.2311 0.043 0.1577 0 0.231 0.043 0.084 0.043 0.084 0.1267 0 0.1167-0.7777 0.1167-0.126 0-0.1997 0.083-0.063 0.093-0.063 0.1667v0.4941q0 0.083 0.074 0.1801 0.074 0.1066 0.189 0.1066 0.9039 0 1.4189-0.1266 0.515-0.1267 0.8828-0.3681 0.7777-0.7145 0.7777-1.7864 0-0.5992-0.2627-1.1246-0.2628-0.5361-0.7357-0.8409z" stroke-dasharray="7.14535, 7.14535" stroke-width="2.6464"/>
<path d="m1129.2 2108.5h7.7247v3.0583l-3.6785 13.778h-3.8571l3.5524-13.264h-3.7415z" stroke-dasharray="7.14535, 7.14535" stroke-width="2.6464"/>
<path d="m1140.3 2122.4q-0.5675-0.3784-1.0299-0.3784-0.6832 0-1.1982 0.5254-0.5045 0.5151-0.5045 1.1666 0 0.5361 0.2418 0.9459 0.252 0.4101 0.641 0.6308 0.074 0.033 0.2311 0.043 0.1577 0 0.231 0.043 0.084 0.043 0.084 0.1267 0 0.1167-0.7776 0.1167-0.1261 0-0.1997 0.083-0.063 0.093-0.063 0.1667v0.4941q0 0.083 0.074 0.1801 0.074 0.1066 0.189 0.1066 0.9038 0 1.4188-0.1266 0.515-0.1267 0.8828-0.3681 0.7777-0.7145 0.7777-1.7864 0-0.5992-0.2627-1.1246-0.2627-0.5361-0.7357-0.8409z" stroke-dasharray="7.14535, 7.14535" stroke-width="2.6464"/>
<path d="m1092.9 2123q1.0726 0 1.0726-3.7265 0-0.9135-0.095-1.573t-0.2544-1.0886q-0.151-0.4287-0.3495-0.6275-0.1908-0.2067-0.4052-0.2067-0.3417 0-0.5721 0.4211-0.2224 0.4211-0.3496 1.0012-0.1193 0.5798-0.1667 1.1916-0.048 0.6038-0.048 0.9773 0 1.756 0.3021 2.6936 0.3021 0.9375 0.866 0.9375zm0.048 2.8443q-0.7469 0-1.4699-0.5004-0.7229-0.5085-1.295-1.3827-0.5641-0.8819-0.9137-2.0578-0.3417-1.1836-0.3177-2.5345 0-1.414 0.3495-2.606 0.3496-1.1996 0.9058-2.0577 0.5641-0.8659 1.2712-1.3507 0.7071-0.4924 1.4381-0.4924 0.7309 0 1.4301 0.5241 0.7071 0.5164 1.2474 1.4143 0.5482 0.8899 0.8819 2.0818 0.3337 1.1836 0.3337 2.5026 0.017 1.3506-0.3257 2.5345-0.3417 1.176-0.8978 2.0498-0.5562 0.8662-1.2475 1.3747-0.6912 0.5004-1.3903 0.5004z" stroke-dasharray="5.40166, 5.40166" stroke-width="2.0006"/>
<path d="m1101.9 2123q1.0726 0 1.0726-3.7265 0-0.9135-0.095-1.573t-0.2544-1.0886q-0.151-0.4287-0.3496-0.6275-0.1907-0.2067-0.4052-0.2067-0.3416 0-0.572 0.4211-0.2224 0.4211-0.3496 1.0012-0.1193 0.5798-0.1667 1.1916-0.048 0.6038-0.048 0.9773 0 1.756 0.3021 2.6936 0.3021 0.9375 0.866 0.9375zm0.048 2.8443q-0.7468 0-1.4698-0.5004-0.723-0.5085-1.295-1.3827-0.5642-0.8819-0.9137-2.0578-0.3417-1.1836-0.3178-2.5345 0-1.414 0.3496-2.606 0.3496-1.1996 0.9058-2.0577 0.5641-0.8659 1.2712-1.3507 0.7071-0.4924 1.438-0.4924 0.731 0 1.4302 0.5241 0.7071 0.5164 1.2474 1.4143 0.5482 0.8899 0.8819 2.0818 0.3337 1.1836 0.3337 2.5026 0.017 1.3506-0.3258 2.5345-0.3416 1.176-0.8978 2.0498-0.5562 0.8662-1.2474 1.3747-0.6912 0.5004-1.3904 0.5004z" stroke-dasharray="5.40166, 5.40166" stroke-width="2.0006"/>
<path d="m1092.9 2093q1.0726 0 1.0726-3.7265 0-0.9135-0.095-1.573t-0.2543-1.0886q-0.1511-0.4287-0.3496-0.6275-0.1907-0.2067-0.4052-0.2067-0.3417 0-0.5721 0.4211-0.2224 0.4211-0.3496 1.0013-0.1193 0.5797-0.1667 1.1915-0.048 0.6038-0.048 0.9773 0 1.756 0.3021 2.6936 0.3021 0.9375 0.866 0.9375zm0.048 2.8443q-0.7468 0-1.4698-0.5004-0.723-0.5085-1.2951-1.3827-0.5641-0.8818-0.9137-2.0578-0.3416-1.1836-0.3177-2.5345 0-1.414 0.3496-2.6059 0.3496-1.1996 0.9057-2.0578 0.5641-0.8659 1.2713-1.3507 0.7071-0.4924 1.438-0.4924 0.731 0 1.4302 0.5241 0.7071 0.5165 1.2473 1.4143 0.5483 0.8899 0.882 2.0818 0.3336 1.1836 0.3336 2.5026 0.017 1.3506-0.3257 2.5345-0.3416 1.176-0.8978 2.0498-0.5562 0.8662-1.2474 1.3747-0.6912 0.5004-1.3904 0.5004z" stroke-dasharray="5.40166, 5.40166" stroke-width="2.0006"/>
<path d="m1102 2093q1.0726 0 1.0726-3.7265 0-0.9135-0.095-1.573t-0.2544-1.0886q-0.1511-0.4287-0.3496-0.6275-0.1907-0.2067-0.4052-0.2067-0.3416 0-0.5721 0.4211-0.2223 0.4211-0.3495 1.0013-0.1194 0.5797-0.1667 1.1915-0.048 0.6038-0.048 0.9773 0 1.756 0.302 2.6936 0.3021 0.9375 0.866 0.9375zm0.048 2.8443q-0.7468 0-1.4698-0.5004-0.7231-0.5085-1.2951-1.3827-0.5641-0.8818-0.9137-2.0578-0.3416-1.1836-0.3177-2.5345 0-1.414 0.3495-2.6059 0.3496-1.1996 0.9058-2.0578 0.5641-0.8659 1.2712-1.3507 0.7072-0.4924 1.4381-0.4924t1.4301 0.5241q0.7071 0.5165 1.2474 1.4143 0.5482 0.8899 0.8819 2.0818 0.3337 1.1836 0.3337 2.5026 0.017 1.3506-0.3257 2.5345-0.3417 1.176-0.8978 2.0498-0.5562 0.8662-1.2474 1.3747-0.6913 0.5004-1.3904 0.5004z" stroke-dasharray="5.40166, 5.40166" stroke-width="2.0006"/>
<path d="m1146.1 2093q1.0726 0 1.0726-3.7265 0-0.9136-0.095-1.573-0.095-0.6595-0.2543-1.0886-0.1511-0.4288-0.3496-0.6275-0.1907-0.2067-0.4052-0.2067-0.3417 0-0.5721 0.4211-0.2224 0.4211-0.3495 1.0012-0.1194 0.5798-0.1668 1.1916-0.048 0.6038-0.048 0.9772 0 1.7561 0.3021 2.6936 0.3021 0.9376 0.866 0.9376zm0.048 2.8443q-0.7468 0-1.4698-0.5005-0.723-0.5084-1.2951-1.3826-0.5641-0.8819-0.9137-2.0578-0.3416-1.1836-0.3177-2.5346 0-1.4139 0.3496-2.6059 0.3496-1.1996 0.9057-2.0578 0.5641-0.8658 1.2712-1.3506 0.7072-0.4924 1.4381-0.4924 0.731 0 1.4301 0.5241 0.7072 0.5164 1.2474 1.4143 0.5482 0.8899 0.8819 2.0818 0.3337 1.1836 0.3337 2.5025 0.017 1.3507-0.3257 2.5346-0.3417 1.1759-0.8978 2.0498-0.5562 0.8662-1.2474 1.3746-0.6912 0.5005-1.3904 0.5005z" stroke-dasharray="5.40166, 5.40166" stroke-width="2.0006"/>
<path d="m1155.1 2093q1.0725 0 1.0725-3.7265 0-0.9136-0.095-1.573-0.095-0.6595-0.2543-1.0886-0.1511-0.4288-0.3496-0.6275-0.1907-0.2067-0.4052-0.2067-0.3417 0-0.5721 0.4211-0.2224 0.4211-0.3496 1.0012-0.1193 0.5798-0.1667 1.1916-0.048 0.6038-0.048 0.9772 0 1.7561 0.3021 2.6936 0.3021 0.9376 0.866 0.9376zm0.048 2.8443q-0.7469 0-1.4699-0.5005-0.723-0.5084-1.295-1.3826-0.5641-0.8819-0.9137-2.0578-0.3417-1.1836-0.3177-2.5346 0-1.4139 0.3495-2.6059 0.3496-1.1996 0.9058-2.0578 0.5641-0.8658 1.2712-1.3506 0.7071-0.4924 1.4381-0.4924 0.7309 0 1.4301 0.5241 0.7071 0.5164 1.2474 1.4143 0.5482 0.8899 0.8819 2.0818 0.3337 1.1836 0.3337 2.5025 0.017 1.3507-0.3257 2.5346-0.3417 1.1759-0.8978 2.0498-0.5562 0.8662-1.2475 1.3746-0.6912 0.5005-1.3904 0.5005z" stroke-dasharray="5.40166, 5.40166" stroke-width="2.0006"/>
<path d="m1146.1 2123q1.0726 0 1.0726-3.7265 0-0.9135-0.095-1.573t-0.2544-1.0886q-0.151-0.4287-0.3496-0.6275-0.1907-0.2067-0.4052-0.2067-0.3416 0-0.572 0.4211-0.2224 0.4211-0.3496 1.0012-0.1194 0.5798-0.1667 1.1916-0.048 0.6038-0.048 0.9773 0 1.756 0.3021 2.6936 0.302 0.9375 0.866 0.9375zm0.048 2.8443q-0.7469 0-1.4699-0.5004-0.723-0.5085-1.295-1.3827-0.5641-0.8819-0.9137-2.0578-0.3417-1.1836-0.3178-2.5345 0-1.414 0.3496-2.606 0.3496-1.1996 0.9058-2.0577 0.5641-0.8659 1.2712-1.3507 0.7071-0.4924 1.4381-0.4924 0.7309 0 1.4301 0.5241 0.7071 0.5164 1.2474 1.4143 0.5482 0.8899 0.8819 2.0818 0.3337 1.1836 0.3337 2.5026 0.017 1.3506-0.3258 2.5345-0.3416 1.176-0.8978 2.0498-0.5561 0.8662-1.2474 1.3747-0.6912 0.5004-1.3904 0.5004z" stroke-dasharray="5.40166, 5.40166" stroke-width="2.0006"/>
<path d="m1155.1 2123q1.0726 0 1.0726-3.7265 0-0.9135-0.095-1.573t-0.2544-1.0886q-0.151-0.4287-0.3496-0.6275-0.1907-0.2067-0.4052-0.2067-0.3416 0-0.572 0.4211-0.2224 0.4211-0.3496 1.0012-0.1194 0.5798-0.1667 1.1916-0.048 0.6038-0.048 0.9773 0 1.756 0.302 2.6936 0.3021 0.9375 0.8661 0.9375zm0.048 2.8443q-0.7468 0-1.4698-0.5004-0.723-0.5085-1.2951-1.3827-0.5641-0.8819-0.9137-2.0578-0.3416-1.1836-0.3177-2.5345 0-1.414 0.3496-2.606 0.3495-1.1996 0.9057-2.0577 0.5641-0.8659 1.2712-1.3507 0.7072-0.4924 1.4381-0.4924 0.731 0 1.4301 0.5241 0.7071 0.5164 1.2474 1.4143 0.5482 0.8899 0.8819 2.0818 0.3337 1.1836 0.3337 2.5026 0.017 1.3506-0.3257 2.5345-0.3417 1.176-0.8978 2.0498-0.5562 0.8662-1.2474 1.3747-0.6912 0.5004-1.3904 0.5004z" stroke-dasharray="5.40166, 5.40166" stroke-width="2.0006"/>
<rect x="1109.1" y="2089.2" width="5.7679" height="3.1221" stroke-dasharray="7.40061, 7.40061" stroke-width="2.741"/>
<rect x="1109.1" y="2119.2" width="5.7679" height="3.1221" stroke-dasharray="7.40061, 7.40061" stroke-width="2.741"/>
</g>
<g>
<path d="m1118.3 2021.4v-0.9038q0-0.9249 0.3573-1.7868 0.3573-0.8618 0.9564-1.524 0.5991-0.6724 1.4083-1.0719 0.8092-0.3994 1.7131-0.3994 0.9249 0 1.7237 0.3364 0.7987 0.3364 1.3768 0.9142 0.578 0.5782 0.9038 1.377 0.3257 0.7988 0.3257 1.7237 0 1.2926-0.4624 2.4276-0.4624 1.1245-1.03 2.2178-0.2944 0.5148-0.6306 1.1242-0.3363 0.5992-0.8092 1.482-0.2311 0.4311-0.3679 0.6938-0.126 0.2534-0.2207 0.4415-0.095 0.1767-0.189 0.3467-0.084 0.1567-0.2101 0.3678h3.6995v3.5524h-8.1977v-2.901q0.3679-0.5254 0.7042-1.1452 0.3468-0.6201 0.8618-1.482t0.9038-1.4923q0.3889-0.6412 0.7357-1.1983 0.6937-1.1456 0.9564-2.0388 0.2731-0.8935 0.4414-1.4927 0.063-0.2 0.053-0.4624-0.01-0.2734-0.105-0.5044-0.095-0.2401-0.2734-0.3991-0.168-0.1701-0.4519-0.1701-0.3574 0-0.6412 0.4101-0.2837 0.4098-0.2837 0.8616v0.6938z" stroke-dasharray="7.14535, 7.14535" stroke-width="2.6464"/>
<path d="m1133.7 2029.1q1.4188 0 1.4188-4.9291 0-1.2086-0.126-2.0812-0.126-0.8722-0.3363-1.4396-0.1997-0.5675-0.4625-0.8302-0.252-0.2734-0.5359-0.2734-0.452 0-0.7568 0.5571-0.2944 0.5568-0.4624 1.324-0.1577 0.7675-0.2207 1.5767-0.063 0.7988-0.063 1.2926 0 2.3228 0.3993 3.5628 0.3994 1.2403 1.1456 1.2403zm0.063 3.7625q-0.9879 0-1.9444-0.6622-0.9563-0.6725-1.7131-1.8287-0.7462-1.1666-1.2086-2.722-0.4519-1.566-0.4204-3.3527 0-1.8708 0.4624-3.4471 0.4624-1.587 1.1982-2.7223 0.7461-1.1456 1.6815-1.7864 0.9354-0.6518 1.9023-0.6518 0.967 0 1.8918 0.6938 0.9354 0.6832 1.6501 1.8708 0.7251 1.1769 1.1665 2.7536 0.4415 1.5657 0.4415 3.3104 0.02 1.7867-0.4309 3.3527-0.4519 1.5554-1.1876 2.7116-0.7357 1.1456-1.6501 1.8181-0.9144 0.6622-1.8392 0.6622z" stroke-dasharray="7.14535, 7.14535" stroke-width="2.6464"/>
<path d="m1141 2029.7q-0.5676-0.3784-1.03-0.3784-0.6831 0-1.1981 0.5254-0.5045 0.5151-0.5045 1.1666 0 0.5361 0.2418 0.9459 0.2523 0.4101 0.641 0.6308 0.074 0.033 0.2311 0.043 0.1577 0 0.231 0.043 0.084 0.043 0.084 0.1267 0 0.1167-0.7777 0.1167-0.126 0-0.1997 0.083-0.063 0.093-0.063 0.1667v0.4941q0 0.083 0.074 0.1801 0.074 0.1067 0.189 0.1067 0.9039 0 1.4189-0.1267t0.8828-0.3681q0.7777-0.7145 0.7777-1.7864 0-0.5991-0.2627-1.1246-0.2628-0.5361-0.7357-0.8408z" stroke-dasharray="7.14535, 7.14535" stroke-width="2.6464"/>
<path d="m1146.7 2030.3q1.0727 0 1.0727-3.7265 0-0.9135-0.095-1.573t-0.2544-1.0886q-0.151-0.4287-0.3496-0.6274-0.1907-0.2067-0.4052-0.2067-0.3416 0-0.572 0.4211-0.2224 0.421-0.3496 1.0012-0.1194 0.5798-0.1667 1.1916-0.048 0.6038-0.048 0.9772 0 1.756 0.3021 2.6936 0.3021 0.9375 0.866 0.9375zm0.048 2.8443q-0.7469 0-1.4699-0.5004-0.723-0.5085-1.2951-1.3827-0.564-0.8818-0.9137-2.0577-0.3416-1.1836-0.3177-2.5346 0-1.414 0.3496-2.6059 0.3496-1.1996 0.9058-2.0578 0.564-0.8659 1.2712-1.3506 0.7071-0.4925 1.4381-0.4925 0.7309 0 1.4301 0.5241 0.7071 0.5165 1.2473 1.4143 0.5483 0.8899 0.882 2.0818 0.3336 1.1836 0.3336 2.5026 0.017 1.3506-0.3257 2.5346-0.3417 1.1759-0.8978 2.0497-0.5561 0.8662-1.2474 1.3747-0.6912 0.5004-1.3904 0.5004z" stroke-dasharray="5.40166, 5.40166" stroke-width="2.0006"/>
<path d="m1155.8 2030.3q1.0725 0 1.0725-3.7265 0-0.9135-0.095-1.573t-0.2544-1.0886q-0.1511-0.4287-0.3496-0.6274-0.1907-0.2067-0.4053-0.2067-0.3415 0-0.5719 0.4211-0.2224 0.421-0.3497 1.0012-0.1193 0.5798-0.1667 1.1916-0.048 0.6038-0.048 0.9772 0 1.756 0.302 2.6936 0.3021 0.9375 0.8661 0.9375zm0.048 2.8443q-0.7468 0-1.4698-0.5004-0.723-0.5085-1.295-1.3827-0.5642-0.8818-0.9138-2.0577-0.3416-1.1836-0.3177-2.5346 0-1.414 0.3496-2.6059 0.3496-1.1996 0.9058-2.0578 0.564-0.8659 1.2712-1.3506 0.7071-0.4925 1.438-0.4925 0.731 0 1.4302 0.5241 0.7071 0.5165 1.2474 1.4143 0.5482 0.8899 0.8818 2.0818 0.3338 1.1836 0.3338 2.5026 0.017 1.3506-0.3258 2.5346-0.3416 1.1759-0.8978 2.0497-0.5562 0.8662-1.2474 1.3747-0.6912 0.5004-1.3904 0.5004z" stroke-dasharray="5.40166, 5.40166" stroke-width="2.0006"/>
<path d="m1132.6 1989q-0.189 0-0.3678 0.1667-0.168 0.1567-0.3154 0.4518-0.147 0.2834-0.2417 0.6621-0.084 0.3785-0.084 0.7989 0 0.8198 0.3258 1.4083 0.3047 0.5991 0.6831 0.5991 0.3257 0 0.6727-0.5991 0.3047-0.6515 0.3047-1.4083 0-0.3994-0.095-0.7882-0.084-0.3891-0.2207-0.6621-0.1367-0.2834-0.3154-0.4521-0.1681-0.1767-0.3469-0.1767zm-1.2191 8.7126q0.105 0.4308 0.189 0.7355 0.084 0.3034 0.1891 0.4835 0.1157 0.18 0.2837 0.2734 0.1787 0.083 0.4309 0.083 0.3048 0 0.5255-0.2634 0.2311-0.2734 0.3679-0.7355 0.147-0.4731 0.21-1.0615 0.063-0.5888 0.063-1.2403-0.3047 0.2634-0.8723 0.4731-0.5675 0.2-1.0195 0.2h-0.074q-0.7252-0.033-1.3873-0.3891-0.6516-0.3677-1.1456-1.0299-0.494-0.6724-0.7882-1.65-0.2944-0.9775-0.2944-2.2282 0.02-0.9248 0.3154-1.9547 0.2944-1.0406 0.8513-1.8918 0.557-0.8618 1.3768-1.419 0.8197-0.5674 1.9128-0.5674 1.4188 0 2.6274 1.1876 1.2297 1.1772 1.7762 2.9743t0.5465 4.1513q0.02 0.21 0.02 0.4311 0 0.19 0 0.3994 0 1.6814-0.3888 3.153-0.3784 1.4607-1.051 2.5539-0.6621 1.0823-1.566 1.7024-0.9038 0.6201-1.9233 0.6201h-0.4099q-1.3768 0-2.4172-1.0719-1.0405-1.0722-1.6501-2.9323z" stroke-dasharray="14.1869, 14.1869" stroke-width="5.2544"/>
<path d="m1140 1999.6q-0.5675-0.3784-1.03-0.3784-0.6831 0-1.1981 0.5254-0.5045 0.5151-0.5045 1.1666 0 0.5361 0.2417 0.9459 0.2521 0.4101 0.6411 0.6308 0.074 0.033 0.2311 0.043 0.1577 0 0.231 0.043 0.084 0.043 0.084 0.1267 0 0.1167-0.7777 0.1167-0.126 0-0.1997 0.083-0.063 0.093-0.063 0.1667v0.4941q0 0.083 0.074 0.1801 0.074 0.1066 0.189 0.1066 0.9039 0 1.4189-0.1266 0.515-0.1267 0.8828-0.3681 0.7777-0.7145 0.7777-1.7864 0-0.5992-0.2627-1.1246-0.2627-0.5361-0.7357-0.8409z" stroke-dasharray="14.1869, 14.1869" stroke-width="5.2544"/>
<path d="m1145.4 1999.5q1.0726 0 1.0726-3.7265 0-0.9135-0.095-1.573t-0.2544-1.0886q-0.151-0.4287-0.3496-0.6274-0.1907-0.2067-0.4052-0.2067-0.3416 0-0.572 0.4211-0.2224 0.421-0.3496 1.0012-0.1194 0.5798-0.1667 1.1916-0.048 0.6038-0.048 0.9772 0 1.756 0.3021 2.6936 0.302 0.9375 0.866 0.9375zm0.048 2.8443q-0.7468 0-1.4698-0.5004-0.723-0.5085-1.2951-1.3827-0.5641-0.8818-0.9137-2.0577-0.3416-1.1836-0.3177-2.5346 0-1.414 0.3495-2.6059 0.3497-1.1996 0.9058-2.0578 0.5641-0.8659 1.2712-1.3506 0.7071-0.4925 1.4381-0.4925 0.7309 0 1.4301 0.5241 0.7072 0.5165 1.2474 1.4143 0.5482 0.8899 0.8819 2.0818 0.3337 1.1836 0.3337 2.5026 0.017 1.3506-0.3257 2.5346-0.3417 1.1759-0.8978 2.0497-0.5562 0.8662-1.2474 1.3747-0.6913 0.5004-1.3904 0.5004z" stroke-dasharray="5.40166, 5.40166" stroke-width="2.0006"/>
<path d="m1154.4 1999.5q1.0726 0 1.0726-3.7265 0-0.9135-0.095-1.573t-0.2544-1.0886q-0.151-0.4287-0.3496-0.6274-0.1907-0.2067-0.4052-0.2067-0.3416 0-0.572 0.4211-0.2224 0.421-0.3496 1.0012-0.1194 0.5798-0.1667 1.1916-0.048 0.6038-0.048 0.9772 0 1.756 0.3021 2.6936 0.3021 0.9375 0.866 0.9375zm0.048 2.8443q-0.7469 0-1.4699-0.5004-0.723-0.5085-1.295-1.3827-0.5641-0.8818-0.9137-2.0577-0.3417-1.1836-0.3178-2.5346 0-1.414 0.3496-2.6059 0.3496-1.1996 0.9058-2.0578 0.5641-0.8659 1.2712-1.3506 0.7071-0.4925 1.438-0.4925 0.731 0 1.4302 0.5241 0.7071 0.5165 1.2474 1.4143 0.5482 0.8899 0.8819 2.0818 0.3337 1.1836 0.3337 2.5026 0.017 1.3506-0.3258 2.5346-0.3416 1.1759-0.8978 2.0497-0.5561 0.8662-1.2474 1.3747-0.6912 0.5004-1.3904 0.5004z" stroke-dasharray="5.40166, 5.40166" stroke-width="2.0006"/>
<path d="m1073.7 2015.8v16.837h-3.7731v-10.636h-1.8707v-2.9219q1.2507-0.043 1.7551-0.8406 0.5045-0.7988 0.4835-2.4385z" stroke-dasharray="14.1869, 14.1869" stroke-width="5.2544"/>
<path d="m1076.6 2015.8h7.7247v3.0587l-3.6784 13.778h-3.8571l3.5523-13.264h-3.7415z" stroke-dasharray="14.1869, 14.1869" stroke-width="5.2544"/>
<path d="m1087.4 2029.7q-0.5675-0.3784-1.0299-0.3784-0.6831 0-1.1982 0.5255-0.5044 0.5151-0.5044 1.1666 0 0.5361 0.2417 0.9458 0.2524 0.4101 0.641 0.6309 0.074 0.033 0.2311 0.043 0.1577 0 0.231 0.043 0.084 0.043 0.084 0.1267 0 0.1167-0.7776 0.1167-0.1261 0-0.1997 0.083-0.063 0.093-0.063 0.1667v0.4941q0 0.083 0.074 0.18 0.074 0.1067 0.1891 0.1067 0.9038 0 1.4188-0.1267t0.8828-0.3681q0.7777-0.7144 0.7777-1.7864 0-0.5991-0.2627-1.1245-0.2628-0.5362-0.7357-0.8409z" stroke-dasharray="14.1869, 14.1869" stroke-width="5.2544"/>
<path d="m1093.7 2029.7q1.0726 0 1.0726-3.7265 0-0.9136-0.095-1.573-0.095-0.6595-0.2544-1.0886-0.151-0.4288-0.3495-0.6275-0.1907-0.2067-0.4052-0.2067-0.3417 0-0.5721 0.4211-0.2224 0.4211-0.3496 1.0012-0.1193 0.5798-0.1667 1.1916-0.048 0.6038-0.048 0.9772 0 1.7561 0.302 2.6936 0.3021 0.9376 0.866 0.9376zm0.048 2.8443q-0.7469 0-1.4699-0.5005-0.723-0.5084-1.2951-1.3826-0.564-0.8819-0.9137-2.0578-0.3416-1.1836-0.3177-2.5346 0-1.414 0.3496-2.6059 0.3496-1.1996 0.9058-2.0578 0.564-0.8658 1.2712-1.3506 0.7071-0.4924 1.4381-0.4924 0.7309 0 1.4301 0.5241 0.7071 0.5164 1.2473 1.4143 0.5483 0.8898 0.882 2.0818 0.3336 1.1836 0.3336 2.5025 0.017 1.3507-0.3257 2.5346-0.3416 1.1759-0.8978 2.0498-0.5561 0.8662-1.2474 1.3746-0.6912 0.5005-1.3904 0.5005z" stroke-dasharray="5.40166, 5.40166" stroke-width="2.0006"/>
<path d="m1102.7 2029.7q1.0726 0 1.0726-3.7265 0-0.9136-0.095-1.573-0.095-0.6595-0.2544-1.0886-0.151-0.4288-0.3495-0.6275-0.1907-0.2067-0.4053-0.2067-0.3416 0-0.572 0.4211-0.2224 0.4211-0.3496 1.0012-0.1193 0.5798-0.1667 1.1916-0.048 0.6038-0.048 0.9772 0 1.7561 0.302 2.6936 0.3021 0.9376 0.8661 0.9376zm0.048 2.8443q-0.7468 0-1.4698-0.5005-0.7231-0.5084-1.2951-1.3826-0.5641-0.8819-0.9137-2.0578-0.3416-1.1836-0.3177-2.5346 0-1.414 0.3496-2.6059 0.3495-1.1996 0.9057-2.0578 0.5641-0.8658 1.2712-1.3506 0.7072-0.4924 1.4381-0.4924 0.731 0 1.4301 0.5241 0.7071 0.5164 1.2474 1.4143 0.5482 0.8898 0.8819 2.0818 0.3337 1.1836 0.3337 2.5025 0.017 1.3507-0.3257 2.5346-0.3417 1.1759-0.8978 2.0498-0.5562 0.8662-1.2474 1.3746-0.6912 0.5005-1.3904 0.5005z" stroke-dasharray="5.40166, 5.40166" stroke-width="2.0006"/>
<path d="m1076.6 1985.7h7.7247v3.0584l-3.6784 13.778h-3.8572l3.5524-13.264h-3.7415z" stroke-dasharray="7.14535, 7.14535" stroke-width="2.6464"/>
<path d="m1087.7 1999.6q-0.5675-0.3784-1.0299-0.3784-0.6832 0-1.1982 0.5255-0.5044 0.5151-0.5044 1.1665 0 0.5362 0.2417 0.9459 0.252 0.4101 0.6411 0.6308 0.074 0.033 0.231 0.043 0.1577 0 0.2311 0.043 0.084 0.043 0.084 0.1267 0 0.1167-0.7777 0.1167-0.126 0-0.1997 0.083-0.063 0.093-0.063 0.1667v0.4941q0 0.083 0.074 0.18 0.074 0.1067 0.189 0.1067 0.9038 0 1.4188-0.1267t0.8828-0.3681q0.7777-0.7145 0.7777-1.7864 0-0.5991-0.2627-1.1246-0.2627-0.5361-0.7357-0.8408z" stroke-dasharray="7.14535, 7.14535" stroke-width="2.6464"/>
<path d="m1093.5 2000.1q1.0726 0 1.0726-3.7264 0-0.9136-0.095-1.5731-0.095-0.6594-0.2544-1.0885-0.1511-0.4288-0.3496-0.6275-0.1907-0.2067-0.4052-0.2067-0.3416 0-0.5721 0.4211-0.2223 0.4211-0.3495 1.0012-0.1194 0.5798-0.1667 1.1916-0.048 0.6038-0.048 0.9772 0 1.7561 0.302 2.6936 0.3021 0.9375 0.8661 0.9375zm0.048 2.8443q-0.7469 0-1.4699-0.5004-0.723-0.5084-1.295-1.3826-0.5641-0.8819-0.9137-2.0578-0.3417-1.1836-0.3178-2.5346 0-1.414 0.3496-2.6059 0.3496-1.1996 0.9058-2.0578 0.5641-0.8659 1.2712-1.3506 0.7071-0.4925 1.4381-0.4925 0.7309 0 1.4301 0.5241 0.7071 0.5165 1.2474 1.4144 0.5482 0.8898 0.8819 2.0818 0.3337 1.1836 0.3337 2.5025 0.017 1.3506-0.3258 2.5346-0.3416 1.1759-0.8978 2.0498-0.5561 0.8662-1.2474 1.3746-0.6912 0.5004-1.3904 0.5004z" stroke-dasharray="5.40166, 5.40166" stroke-width="2.0006"/>
<path d="m1102.5 2000.1q1.0726 0 1.0726-3.7264 0-0.9136-0.095-1.5731-0.095-0.6594-0.2544-1.0885-0.1511-0.4288-0.3496-0.6275-0.1907-0.2067-0.4052-0.2067-0.3416 0-0.5721 0.4211-0.2223 0.4211-0.3495 1.0012-0.1194 0.5798-0.1667 1.1916-0.048 0.6038-0.048 0.9772 0 1.7561 0.302 2.6936 0.3021 0.9375 0.8661 0.9375zm0.048 2.8443q-0.7468 0-1.4698-0.5004-0.723-0.5084-1.2951-1.3826-0.5641-0.8819-0.9137-2.0578-0.3416-1.1836-0.3177-2.5346 0-1.414 0.3496-2.6059 0.3496-1.1996 0.9057-2.0578 0.5641-0.8659 1.2713-1.3506 0.7071-0.4925 1.438-0.4925 0.731 0 1.4302 0.5241 0.7071 0.5165 1.2473 1.4144 0.5483 0.8898 0.8819 2.0818 0.3337 1.1836 0.3337 2.5025 0.017 1.3506-0.3257 2.5346-0.3416 1.1759-0.8978 2.0498-0.5562 0.8662-1.2474 1.3746-0.6912 0.5004-1.3904 0.5004z" stroke-dasharray="5.40166, 5.40166" stroke-width="2.0006"/>
<rect x="1109.4" y="1994.6" width="5.7679" height="3.1221" stroke-dasharray="7.40061, 7.40061" stroke-width="2.741"/>
<rect x="1109.4" y="2024.6" width="5.7679" height="3.1221" stroke-dasharray="7.40061, 7.40061" stroke-width="2.741"/>
</g>
<circle cx="1024.9" cy="2003.4" r="39.952" stroke-dasharray="9.88257, 9.88257" stroke-width="3.6602"/>
<g transform="matrix(.5 0 0 .5 552.07 1177.4)">
<circle cx="945.68" cy="1652" r="79.375" fill="#fff" stroke-linejoin="bevel" stroke-opacity=".64308" stroke-width="18.92"/>
<circle cx="945.68" cy="1652" r="76.729" fill="#d40000" stroke-linejoin="bevel" stroke-opacity=".64308" stroke-width="18.29"/>
<circle cx="945.68" cy="1652" r="56.885" fill="#fff" stroke-linejoin="bevel" stroke-width="10.817"/>
<circle cx="945.68" cy="1652" r="52.917" fill="#00408b" stroke-linejoin="bevel" stroke-width="12.909"/>
<g transform="rotate(45 52.757 2259.3)">
<g stroke-linejoin="bevel">
<path d="m201.86 1188.9v19.182h105.83v-19.182z" color="#000000" fill="#fff"/>
<path d="m197.36 1192.9 1.2e-4 11.244h114.83v-11.244z" color="#000000" fill="#d40000"/>
</g>
</g>
</g>
</g>
</g>
</svg>
