<svg xmlns="http://www.w3.org/2000/svg" height="250" width="1250" xmlns:v="https://vecta.io/nano"><path d="M-.001.001h1250v250h-1250z" fill="#333"/><path d="M-.001 230.001h1250v20h-1250z" fill="#ffda00"/><rect rx="8.125" y="27.7" x="242.699" height="174.6" width="174.6" fill="#fff" stroke="#fff" stroke-width="5.4"/><g fill="#ffda00"><path d="M210 115.001v17.704H100.438L173.206 205h-52.369l-90.838-89.999L120.838 25h52.369l-72.768 72.295H210z" fill-rule="evenodd"/><path d="M1171.545 130.359c0-9.169 2.178-16.618 6.534-22.347 3.973-5.272 8.71-7.908 14.211-7.908 5.426 0 9.973 2.292 13.641 6.877 3.973 5.118 5.96 12.109 5.96 20.972 0 1.376-.039 2.827-.115 4.355h-26.016c.152 8.712 2.52 13.068 7.104 13.067 3.591 0 6.341-3.286 8.251-9.857l10.888 5.502a111.54 111.54 0 0 0-2.176 4.124c-1.91 3.057-4.126 5.54-6.649 7.45-3.437 2.598-7.257 3.896-11.459 3.896-5.426 0-10.049-2.254-13.868-6.761-4.204-4.89-6.306-11.347-6.306-19.37zm14.215-7.562h12.148c-.077-7.49-1.949-11.235-5.617-11.235-4.125 0-6.302 3.745-6.53 11.235zm-46.639-48.713h14.554v65.331c0 3.439 1.757 5.159 5.271 5.159 1.299 0 2.675-.307 4.127-.92l2.637 10.888c-2.829 1.299-5.923 1.948-9.283 1.948-4.815 0-8.789-1.26-11.92-3.781-3.591-2.903-5.387-7.105-5.387-12.606zm-28.083 26.02c4.738 0 8.54 1.318 11.404 3.954s4.297 5.826 4.297 9.568v28.311c0 1.91 1.643 2.979 4.928 3.207l-3.554 10.318c-.916.229-1.986.343-3.207.343-4.356 0-8.062-1.681-11.119-5.044a115.8 115.8 0 0 0-3.438 2.865c-2.675 1.53-5.96 2.142-9.857 1.836-2.749-.231-5.156-1.531-7.219-3.9-2.446-2.598-3.592-5.959-3.438-10.084.229-6.877 2.788-12.301 7.678-16.275 2.675-2.141 7.68-4.662 15.016-7.566.382-1.604.21-3.037-.516-4.297s-1.892-1.89-3.496-1.891c-3.439 0-7.527 2.215-12.263 6.646l-6.649-8.136c4.127-3.285 7.337-5.54 9.629-6.765 3.82-2.061 7.754-3.092 11.805-3.092zm-7.219 40.343c.228 1.833 1.221 2.749 2.977 2.749 1.07 0 2.178-.363 3.325-1.088s1.91-1.546 2.293-2.462v-10.661c-6.417 2.598-9.282 6.418-8.594 11.462zm-22.767-57.191c0 2.138-.726 3.819-2.177 5.042s-3.171 1.835-5.157 1.835-3.706-.611-5.157-1.835-2.177-2.942-2.177-5.157.726-3.954 2.177-5.215 3.171-1.892 5.157-1.892 3.706.631 5.157 1.892 2.177 3.038 2.177 5.331zm-.343 16.849v55.012h-13.984v-55.012zm-22.053-1.948v13.753c-.993-.231-1.987-.346-2.98-.346-2.749 0-5.156.784-7.219 2.35s-3.096 3.497-3.095 5.789v35.761h-14.554V99.757h14.554v3.438c3.668-3.36 8.1-5.04 13.295-5.04zm-49.402 1.375h8.597v9.741h-8.482v31.749c0 2.98 1.681 4.47 5.044 4.47 2.215 0 4.278-.688 6.187-2.064l2.295 10.43c-4.584 1.756-8.825 2.634-12.721 2.634-4.661 0-8.329-1.26-11.004-3.781s-4.012-5.768-4.012-9.741v-33.697h-8.024V99.53h8.482V82.797l13.638-7.107zm-60.224 15.243c0-4.507 1.586-8.213 4.757-11.118s7.049-4.356 11.633-4.356c6.723 0 12.682 3.133 17.877 9.398l-9.626 6.877c-1.681-2.98-4.012-4.47-6.992-4.47-3.057 0-4.586 1.185-4.586 3.554 0 1.453.956 2.943 2.868 4.47l13.638 10.773c3.362 2.598 5.044 6.113 5.044 10.546 0 .916-.115 1.91-.346 2.98-.763 3.973-2.806 7.144-6.13 9.512s-7.164 3.552-11.52 3.552c-8.481 0-15.09-3.972-19.829-11.917l10.888-6.88c2.446 4.204 5.273 6.306 8.482 6.306 2.521 0 3.781-1.109 3.781-3.326 0-1.756-1.108-3.513-3.323-5.271l-8.94-7.107-4.813-4.697c-1.91-2.369-2.865-5.311-2.865-8.825zm-46.062-14.558h13.41v39.314c0 3.286 1.681 4.928 5.044 4.928 3.286 0 4.928-1.643 4.928-4.928v-39.314h13.41v55.016h-11.92l-1.147-2.406c-3.132 2.826-6.493 4.239-10.084 4.239-3.668 0-6.858-1.394-9.572-4.183s-4.07-5.902-4.07-9.339zm-11.588-25.1v80.231h-13.068l-1.144-2.406c-2.292 2.292-5.387 3.438-9.283 3.438-3.745 0-7.069-2.178-9.972-6.534-3.516-5.195-5.275-12.416-5.275-21.661 0-5.578 1.032-10.811 3.095-15.701 1.53-3.745 3.287-6.572 5.271-8.482 2.752-2.675 5.579-4.012 8.482-4.012 1.681 0 3.362.497 5.044 1.49a21.38 21.38 0 0 1 2.179 1.49V75.116zm-25.331 53.641c0 5.118.726 9.053 2.179 11.805 1.145 2.215 2.521 3.323 4.127 3.323 2.978 0 4.467-1.987 4.467-5.96v-19.713c0-3.973-1.299-5.96-3.896-5.96-4.584 0-6.877 5.502-6.877 16.506zm-22.085-16.506v43.211h-13.522v-38.167c0-4.05-1.681-6.075-5.044-6.076a5.06 5.06 0 0 0-3.554 1.375c-.993.916-1.49 2.101-1.49 3.554v39.314h-13.295v-54.9h12.036l1.144 2.406c2.905-2.828 6.191-4.243 9.857-4.243s6.896 1.337 9.685 4.012 4.183 5.846 4.183 9.514zm-48.552-28.996c0 2.138-.726 3.819-2.177 5.042s-3.171 1.835-5.157 1.835-3.706-.611-5.157-1.835-2.177-2.942-2.177-5.157.726-3.954 2.177-5.215 3.171-1.892 5.157-1.892 3.706.631 5.157 1.892 2.177 3.038 2.177 5.331zm-.343 16.849v55.012h-13.984v-55.012zm-73.21 0c4.738 0 8.54 1.318 11.404 3.954s4.297 5.826 4.297 9.568v28.311c0 1.91 1.643 2.979 4.928 3.207l-3.554 10.318c-.916.229-1.986.343-3.207.343-4.356 0-8.062-1.681-11.119-5.044a115.81 115.81 0 0 0-3.438 2.865c-2.675 1.53-5.96 2.142-9.857 1.836-2.749-.231-5.156-1.531-7.219-3.9-2.446-2.598-3.592-5.959-3.438-10.084.229-6.877 2.788-12.301 7.678-16.275 2.675-2.141 7.68-4.662 15.016-7.566.382-1.604.21-3.037-.516-4.297s-1.892-1.89-3.496-1.891c-3.439 0-7.527 2.215-12.263 6.646l-6.649-8.136c4.127-3.285 7.337-5.54 9.629-6.765 3.82-2.061 7.754-3.092 11.805-3.092zm-7.219 40.343c.228 1.833 1.221 2.749 2.977 2.749 1.07 0 2.178-.363 3.325-1.088s1.91-1.546 2.293-2.462v-10.661c-6.417 2.598-9.282 6.418-8.594 11.462zm-23.463-28.195v43.211h-13.522v-38.167c0-4.05-1.681-6.075-5.044-6.076a5.06 5.06 0 0 0-3.554 1.375c-.993.916-1.49 2.101-1.49 3.554v39.314h-13.295v-54.9h12.036l1.144 2.406c2.905-2.828 6.191-4.243 9.857-4.243s6.896 1.337 9.685 4.012 4.183 5.846 4.183 9.514zM604.827 129.1c0-8.558 1.815-15.568 5.444-21.032s8.577-8.195 14.843-8.195c5.96 0 10.831 2.693 14.614 8.08s5.673 12.436 5.673 21.147c0 8.024-1.968 14.595-5.904 19.713s-8.693 7.678-14.271 7.678c-6.189 0-11.193-2.673-15.012-8.02-3.591-5.044-5.387-11.5-5.387-19.37zm20.399-17.307c-2.749 0-4.621 1.796-5.614 5.387-.688 2.446-1.032 6.42-1.032 11.92 0 4.584.229 7.831.686 9.741.993 3.973 2.98 5.96 5.96 5.96 4.279 0 6.418-5.195 6.418-15.586 0-5.655-.305-9.705-.916-12.151-.993-3.514-2.827-5.271-5.502-5.271zm-57.73-11.689h30.717v11.689l-17.996 32.319h18.223v11.235h-32.319v-11.92l17.307-31.976h-15.932z"/></g><path d="M354.852 45.907c-2.686.671-5.372 1.343-7.389 3.367-.669.671-1.349 1.354-2.018 1.354-.669.671-.668 1.332-1.348 1.332-.669.682-2.018 1.364-2.676 2.035-2.017.671-3.364.672-5.381.672-1.337 0-2.007-.672-3.355-.672l-2.016-1.354c-1.337-.682-2.687-1.342-4.035-1.342-1.337-.671-2.686-.672-4.023-.672-2.686 0-5.382 1.333-7.389 2.697l-1.348.67-.668.672c-.669.671-1.339 1.354-2.687 1.354-.669 0-1.336.67-2.016.67-1.337 0-2.686-.67-4.023-1.352h-.68l-1.338-1.344c-2.017-.671-3.354-1.354-5.371-1.354s-4.034.683-6.051 2.025c-2.006.671-3.355 2.695-4.023 4.037-.68 1.353-1.348 2.026-1.348 3.379-.669.671-.67 2.024-.67 2.695 0 2.025.669 4.721 2.018 6.074.669 2.014 2.674 3.366 4.691 4.037 1.348 1.353 3.366 1.354 5.383 1.354s4.034-.682 6.051-1.354l1.338-.67c.658-.682 1.337-1.354 2.686-1.354.669-.671 1.338-.672 2.018-.672.669 0 2.006.001 2.686.672.669 0 .669.672 1.338.672 1.348 1.353 3.364 2.706 5.381 3.377 2.006.671 4.693.672 7.379.672 2.686-.671 4.702-2.025 6.719-3.367l2.018-2.025c.669-.671 2.017-1.341 2.686-2.023h4.033c1.337.682 2.007 1.352 3.355 2.023l.668.672 1.35 1.354c.669.671 2.006 1.342 2.686 1.342 2.017 1.353 5.372 2.025 7.389 2.025 2.686-.671 5.371-1.344 8.057-2.697l1.338-1.352h1.348c1.337 0 2.687.682 4.035.682 1.337.671 2.685 2.024 3.354 2.695 1.337 1.353 2.017 2.685 2.686 4.721.669.671 1.338 2.025 1.338 3.367l.68 1.354h6.041v-2.025c-.669-2.696-1.35-5.391-2.687-7.416-2.017-4.72-4.701-8.087-8.725-11.465l-2.018-.672v-2.023-4.051c-.669-2.685-1.348-4.709-3.365-6.744-1.337-2.014-3.355-4.027-6.041-4.709-2.686-1.342-5.382-1.344-8.057-1.344zm20.145 45.156v51.242L321.94 125.46v6.734l53.057 17.527v8.77l-105.445-33.715v6.746l52.389 16.857v9.43l-52.389-16.848v42.473h120.891V91.063z"/></svg>