<svg xmlns="http://www.w3.org/2000/svg" width="200" height="200" xmlns:v="https://vecta.io/nano"><path d="M-2.423-1.767h207.715v207.348H-2.423V-1.767z" fill="#fff"/><path d="M21.922 2.336h156.802c10.239 0 18.481 8.314 18.481 18.642v158.169c0 10.328-8.243 18.642-18.481 18.642H21.922c-10.239 0-18.481-8.314-18.481-18.642V20.978c0-10.328 8.243-18.642 18.481-18.642z" fill="none" stroke="#000" stroke-width="2.997"/><path d="M42.789 170.684c-15.141-3.567-26.797-26.935-21.334-42.772.702-2.035 2.012-3.881 4.485-6.323 3.383-3.339 5.7-4.563 72.931-38.511l70.7-35.063c1.091 0 1.284.352 1.415 2.587.083 1.423.722 6.466 1.419 11.209 1.464 9.959 1.593 19.507.313 22.992-1.012 2.753 5.664-2.042-64.471 46.315l-57.192 38.891c-2.795 1.356-4.712 1.512-8.264.675zm30.617-18.351c18.118-12.378 25.148-17.366 19.777-14.029-11.332 7.039-42.053 27.596-41.815 27.981.172.278.609.389.972.247s9.843-6.531 21.066-14.199zm37.755-28.892c52.442-34.307 59.728-39.35 58.551-40.527-.271-.271-2.072.868-60.077 37.984-62.132 39.757-56.922 36.246-56.922 38.361 0 .937.246 1.703.546 1.703s26.356-16.885 57.902-37.522zm2.248-7.96l55.988-36.507c0-.438-.323-1.376-.719-2.083l-.779-1.441c-.151-.391-114.407 67.239-115.043 68.095-.395.533-.718 1.954-.718 3.158 0 2.601 1.594 4.489 3.791 4.489.989 0 20.369-12.04 57.48-35.71zm-3.738-9.267c51.181-30.078 58.088-34.301 59.126-36.147 1.27-2.259 1.487-3.685.64-4.208-.573-.354-121.876 64.939-122.639 66.012-.986 1.387.059 5.205 1.865 6.819.973.869 2.059 1.581 2.412 1.581s26.722-15.326 58.595-34.057zm-2.926-9.971l61.13-32.993c.269-.254.175-1.331-.209-2.393-.581-1.606-.541-2.307.237-4.169.514-1.231.861-2.313.77-2.403-.169-.169-127.281 68.141-129.611 69.654-3.04 1.973-.581 4.837 4.151 4.836 2.721-.001 6.433-1.901 63.531-32.531zm-70.413 26.003c3.841-1.797 132.054-70.503 132.74-71.132.295-.271.396-.633.224-.804-.274-.274-134.969 67.793-138.281 69.88-1.254.79-1.692 2.247-.91 3.029.76.76 3.408.346 6.227-.972zm68.113 40.177v-6.588l5.029-.166 5.029-.166.172-2.041c.124-1.478-.153-2.335-1.006-3.107-.846-.766-1.177-1.776-1.177-3.59 0-2.202.219-2.649 1.721-3.503 1.099-.625 1.722-1.441 1.724-2.258.002-.834.597-1.585 1.711-2.161 2.373-1.227 2.891-2.492 2.891-7.053v-3.958l4.303-.669c2.366-.368 5.92-1.214 7.897-1.88 2.85-.96 4.327-1.132 7.135-.832 2.504.268 4.43.115 6.577-.523 5.23-1.553 8.481-1.206 15.791 1.685 5.008 1.981 7.295 2.587 9.763 2.587 2.765 0 3.194.143 3.018 1.006-.364 1.785-6.184 1.178-12.842-1.34-6.829-2.583-11.044-3.058-15.119-1.705-2.164.719-3.899.872-6.81.599-3.159-.295-4.566-.134-7.355.846-1.897.666-4.936 1.368-6.754 1.559l-3.305.348v2.217 2.217h25.499 25.499l-.271 1.417c-.149.779.003 2.202.337 3.161l.608 1.744h-28.135c-24.626 0-28.135.108-28.135.862s3.532.862 28.336.862h28.336l2.225 2.279 2.225 2.279-1.046 2.32-1.046 2.32h-30.09-30.09v2.299 2.299h29.602 29.602l.124 3.018c.191 4.645-.064 7.866-.718 9.09-.579 1.082-1.571 1.113-35.925 1.113h-35.33v-6.588zM46.39 101.43c0-1.088.709-2.248 2.299-3.761 2.006-1.908 2.299-2.511 2.299-4.73 0-2.656-.64-3.213-3.736-3.249-2.085-.024-7.123-2.773-9.977-5.442-3.911-3.659-5.954-8.349-5.989-13.752-.041-6.388 1.321-9.666 5.938-14.29l3.874-3.88h-4.781-4.781l-.388-1.868c-.214-1.027-.945-2.707-1.626-3.732-1.106-1.666-1.529-1.865-3.968-1.868l-2.73-.004V35.37v-9.484h57.48 57.48v8.335 8.335h1.966 1.966l.397 3.711.397 3.711 2.666.35c4.39.576 4.482.637 2.368 1.579-1.112.495-3.958 1.085-6.323 1.311-3.002.286-5.862 1.07-9.474 2.597-2.845 1.203-8.406 3.011-12.358 4.019-7.064 1.802-7.421 1.834-21.268 1.896-16.034.072-18.683-.329-27.732-4.195-9.727-4.156-17.97-5.228-24.862-3.234-2.829.819-4.035 1.597-6.713 4.335-6.629 6.778-6.811 15.674-.463 22.62 3.222 3.525 5.586 4.845 9.931 5.544 7.938 1.277 15.651-2.733 17.569-9.136 1.049-3.502.825-8.67-.468-10.791-3.149-5.164-9.445-5.503-13.465-.726-3.476 4.131-.498 10.523 3.957 8.493 1.684-.767 1.722-.953.539-2.641-1.031-1.472-.671-2.426.916-2.426 1.645 0 3.033 2.471 2.571 4.574-.514 2.339-2.299 3.473-5.466 3.473-3.101 0-4.685-.973-5.96-3.659-2.036-4.29-.467-9.287 3.857-12.283 2.059-1.427 2.765-1.584 6.94-1.548 6.056.053 11.19 1.764 16.045 5.348 6.159 4.546 13.209 7.182 21.032 7.862 2.08.181 4.429.466 5.219.633 1.382.292 1.351.348-.815 1.465-2.392 1.233-5.957 1.165-11.83-.226-3.828-.906-11.61-4.651-15.906-7.654-2.075-1.451-3.898-2.513-4.05-2.36s.479 1.265 1.405 2.471l3.205 4.292c2.444 3.368 8.573 7.075 14.716 8.902 1.134.337-.973 1.89-2.598 1.914-2.162.033-9.371-4.023-12.809-7.206l-3.347-3.099-.318 3.077c-.404 3.913-2.006 7.047-4.972 9.727-1.287 1.163-2.341 2.245-2.341 2.404s3.039.303 6.754.319l6.754.03-10.059 5.112c-7.682 3.904-10.62 5.119-12.431 5.143-2.38.031-3.286.648-4.503 3.064-.931 1.85-2.034 1.897-2.034.087h0zm61.692-42.841c7.844-.711 16.184-2.628 20.672-4.751l2.993-1.416-11.861-.048-11.861-.048-1.004 1.581a26.34 26.34 0 0 1-2.222 2.927l-1.217 1.347-.287-2.784-.287-2.784-18.373-.152c-11.569-.096-18.168.05-17.819.392.725.712 8.291 3.233 13.286 4.427 8.14 1.946 16.593 2.341 27.98 1.309zM61.335 41.896c0-1.772-3.679-11.859-4.739-12.992-1.195-1.278-1.39-1.293-16.341-1.293H25.123v7.472 7.472h18.106c13.231 0 18.106-.177 18.106-.659zm74.149-6.818v-7.477l-36.069.148-36.069.148.153 1.724.375 4.982c.221 3.25.817 6.703 1.297 7.52.14.237 16.017.431 35.282.431h35.029v-7.477z"/></svg>