<?xml version="1.0" encoding="UTF-8" standalone="no"?>
<!-- Created with Inkscape (http://www.inkscape.org/) -->

<svg
   xmlns:dc="http://purl.org/dc/elements/1.1/"
   xmlns:cc="http://creativecommons.org/ns#"
   xmlns:rdf="http://www.w3.org/1999/02/22-rdf-syntax-ns#"
   xmlns:svg="http://www.w3.org/2000/svg"
   xmlns="http://www.w3.org/2000/svg"
   xmlns:sodipodi="http://sodipodi.sourceforge.net/DTD/sodipodi-0.dtd"
   xmlns:inkscape="http://www.inkscape.org/namespaces/inkscape"
   version="1.1"
   width="200"
   height="200"
   id="svg2"
   inkscape:version="0.47 r22583"
   sodipodi:docname="Italian traffic signs - icona campeggio.svg"
   sodipodi:version="0.32"
   inkscape:output_extension="org.inkscape.output.svg.inkscape">
  <metadata
     id="metadata2877">
    <rdf:RDF>
      <cc:Work
         rdf:about="">
        <dc:format>image/svg+xml</dc:format>
        <dc:type
           rdf:resource="http://purl.org/dc/dcmitype/StillImage" />
        <dc:title></dc:title>
      </cc:Work>
    </rdf:RDF>
  </metadata>
  <sodipodi:namedview
     pagecolor="#ffffff"
     bordercolor="#666666"
     borderopacity="1"
     objecttolerance="10"
     gridtolerance="10"
     guidetolerance="10"
     inkscape:pageopacity="0"
     inkscape:pageshadow="2"
     inkscape:window-width="1600"
     inkscape:window-height="838"
     id="namedview2875"
     showgrid="false"
     inkscape:zoom="2.3765092"
     inkscape:cx="100.87585"
     inkscape:cy="87.639452"
     inkscape:window-x="-8"
     inkscape:window-y="-8"
     inkscape:window-maximized="1"
     inkscape:current-layer="svg2" />
  <defs
     id="defs4">
    <inkscape:perspective
       sodipodi:type="inkscape:persp3d"
       inkscape:vp_x="0 : 100 : 1"
       inkscape:vp_y="0 : 1000 : 0"
       inkscape:vp_z="200 : 100 : 1"
       inkscape:persp3d-origin="100 : 66.666667 : 1"
       id="perspective2879" />
    <inkscape:perspective
       id="perspective2839"
       inkscape:persp3d-origin="0.5 : 0.33333333 : 1"
       inkscape:vp_z="1 : 0.5 : 1"
       inkscape:vp_y="0 : 1000 : 0"
       inkscape:vp_x="0 : 0.5 : 1"
       sodipodi:type="inkscape:persp3d" />
    <inkscape:perspective
       id="perspective3649"
       inkscape:persp3d-origin="0.5 : 0.33333333 : 1"
       inkscape:vp_z="1 : 0.5 : 1"
       inkscape:vp_y="0 : 1000 : 0"
       inkscape:vp_x="0 : 0.5 : 1"
       sodipodi:type="inkscape:persp3d" />
    <inkscape:perspective
       id="perspective3679"
       inkscape:persp3d-origin="0.5 : 0.33333333 : 1"
       inkscape:vp_z="1 : 0.5 : 1"
       inkscape:vp_y="0 : 1000 : 0"
       inkscape:vp_x="0 : 0.5 : 1"
       sodipodi:type="inkscape:persp3d" />
    <inkscape:perspective
       id="perspective3713"
       inkscape:persp3d-origin="0.5 : 0.33333333 : 1"
       inkscape:vp_z="1 : 0.5 : 1"
       inkscape:vp_y="0 : 1000 : 0"
       inkscape:vp_x="0 : 0.5 : 1"
       sodipodi:type="inkscape:persp3d" />
    <inkscape:perspective
       id="perspective3741"
       inkscape:persp3d-origin="0.5 : 0.33333333 : 1"
       inkscape:vp_z="1 : 0.5 : 1"
       inkscape:vp_y="0 : 1000 : 0"
       inkscape:vp_x="0 : 0.5 : 1"
       sodipodi:type="inkscape:persp3d" />
    <inkscape:perspective
       id="perspective3765"
       inkscape:persp3d-origin="0.5 : 0.33333333 : 1"
       inkscape:vp_z="1 : 0.5 : 1"
       inkscape:vp_y="0 : 1000 : 0"
       inkscape:vp_x="0 : 0.5 : 1"
       sodipodi:type="inkscape:persp3d" />
    <inkscape:perspective
       id="perspective3801"
       inkscape:persp3d-origin="0.5 : 0.33333333 : 1"
       inkscape:vp_z="1 : 0.5 : 1"
       inkscape:vp_y="0 : 1000 : 0"
       inkscape:vp_x="0 : 0.5 : 1"
       sodipodi:type="inkscape:persp3d" />
    <inkscape:perspective
       id="perspective2863"
       inkscape:persp3d-origin="0.5 : 0.33333333 : 1"
       inkscape:vp_z="1 : 0.5 : 1"
       inkscape:vp_y="0 : 1000 : 0"
       inkscape:vp_x="0 : 0.5 : 1"
       sodipodi:type="inkscape:persp3d" />
    <inkscape:perspective
       id="perspective3859"
       inkscape:persp3d-origin="0.5 : 0.33333333 : 1"
       inkscape:vp_z="1 : 0.5 : 1"
       inkscape:vp_y="0 : 1000 : 0"
       inkscape:vp_x="0 : 0.5 : 1"
       sodipodi:type="inkscape:persp3d" />
    <inkscape:perspective
       id="perspective3964"
       inkscape:persp3d-origin="0.5 : 0.33333333 : 1"
       inkscape:vp_z="1 : 0.5 : 1"
       inkscape:vp_y="0 : 1000 : 0"
       inkscape:vp_x="0 : 0.5 : 1"
       sodipodi:type="inkscape:persp3d" />
    <inkscape:perspective
       id="perspective3988"
       inkscape:persp3d-origin="0.5 : 0.33333333 : 1"
       inkscape:vp_z="1 : 0.5 : 1"
       inkscape:vp_y="0 : 1000 : 0"
       inkscape:vp_x="0 : 0.5 : 1"
       sodipodi:type="inkscape:persp3d" />
    <inkscape:perspective
       id="perspective2879-7"
       inkscape:persp3d-origin="0.5 : 0.33333333 : 1"
       inkscape:vp_z="1 : 0.5 : 1"
       inkscape:vp_y="0 : 1000 : 0"
       inkscape:vp_x="0 : 0.5 : 1"
       sodipodi:type="inkscape:persp3d" />
    <inkscape:perspective
       id="perspective4031"
       inkscape:persp3d-origin="0.5 : 0.33333333 : 1"
       inkscape:vp_z="1 : 0.5 : 1"
       inkscape:vp_y="0 : 1000 : 0"
       inkscape:vp_x="0 : 0.5 : 1"
       sodipodi:type="inkscape:persp3d" />
    <inkscape:perspective
       id="perspective4047"
       inkscape:persp3d-origin="0.5 : 0.33333333 : 1"
       inkscape:vp_z="1 : 0.5 : 1"
       inkscape:vp_y="0 : 1000 : 0"
       inkscape:vp_x="0 : 0.5 : 1"
       sodipodi:type="inkscape:persp3d" />
    <inkscape:perspective
       id="perspective4063"
       inkscape:persp3d-origin="0.5 : 0.33333333 : 1"
       inkscape:vp_z="1 : 0.5 : 1"
       inkscape:vp_y="0 : 1000 : 0"
       inkscape:vp_x="0 : 0.5 : 1"
       sodipodi:type="inkscape:persp3d" />
    <inkscape:perspective
       id="perspective4079"
       inkscape:persp3d-origin="0.5 : 0.33333333 : 1"
       inkscape:vp_z="1 : 0.5 : 1"
       inkscape:vp_y="0 : 1000 : 0"
       inkscape:vp_x="0 : 0.5 : 1"
       sodipodi:type="inkscape:persp3d" />
    <inkscape:perspective
       id="perspective4097"
       inkscape:persp3d-origin="0.5 : 0.33333333 : 1"
       inkscape:vp_z="1 : 0.5 : 1"
       inkscape:vp_y="0 : 1000 : 0"
       inkscape:vp_x="0 : 0.5 : 1"
       sodipodi:type="inkscape:persp3d" />
    <inkscape:perspective
       id="perspective4115"
       inkscape:persp3d-origin="0.5 : 0.33333333 : 1"
       inkscape:vp_z="1 : 0.5 : 1"
       inkscape:vp_y="0 : 1000 : 0"
       inkscape:vp_x="0 : 0.5 : 1"
       sodipodi:type="inkscape:persp3d" />
    <inkscape:perspective
       id="perspective4129"
       inkscape:persp3d-origin="0.5 : 0.33333333 : 1"
       inkscape:vp_z="1 : 0.5 : 1"
       inkscape:vp_y="0 : 1000 : 0"
       inkscape:vp_x="0 : 0.5 : 1"
       sodipodi:type="inkscape:persp3d" />
    <inkscape:perspective
       id="perspective4153"
       inkscape:persp3d-origin="0.5 : 0.33333333 : 1"
       inkscape:vp_z="1 : 0.5 : 1"
       inkscape:vp_y="0 : 1000 : 0"
       inkscape:vp_x="0 : 0.5 : 1"
       sodipodi:type="inkscape:persp3d" />
    <inkscape:perspective
       id="perspective4179"
       inkscape:persp3d-origin="0.5 : 0.33333333 : 1"
       inkscape:vp_z="1 : 0.5 : 1"
       inkscape:vp_y="0 : 1000 : 0"
       inkscape:vp_x="0 : 0.5 : 1"
       sodipodi:type="inkscape:persp3d" />
    <inkscape:perspective
       id="perspective4195"
       inkscape:persp3d-origin="0.5 : 0.33333333 : 1"
       inkscape:vp_z="1 : 0.5 : 1"
       inkscape:vp_y="0 : 1000 : 0"
       inkscape:vp_x="0 : 0.5 : 1"
       sodipodi:type="inkscape:persp3d" />
    <inkscape:perspective
       id="perspective4213"
       inkscape:persp3d-origin="0.5 : 0.33333333 : 1"
       inkscape:vp_z="1 : 0.5 : 1"
       inkscape:vp_y="0 : 1000 : 0"
       inkscape:vp_x="0 : 0.5 : 1"
       sodipodi:type="inkscape:persp3d" />
    <inkscape:perspective
       id="perspective4267"
       inkscape:persp3d-origin="0.5 : 0.33333333 : 1"
       inkscape:vp_z="1 : 0.5 : 1"
       inkscape:vp_y="0 : 1000 : 0"
       inkscape:vp_x="0 : 0.5 : 1"
       sodipodi:type="inkscape:persp3d" />
    <inkscape:perspective
       id="perspective4283"
       inkscape:persp3d-origin="0.5 : 0.33333333 : 1"
       inkscape:vp_z="1 : 0.5 : 1"
       inkscape:vp_y="0 : 1000 : 0"
       inkscape:vp_x="0 : 0.5 : 1"
       sodipodi:type="inkscape:persp3d" />
    <inkscape:perspective
       id="perspective4314"
       inkscape:persp3d-origin="0.5 : 0.33333333 : 1"
       inkscape:vp_z="1 : 0.5 : 1"
       inkscape:vp_y="0 : 1000 : 0"
       inkscape:vp_x="0 : 0.5 : 1"
       sodipodi:type="inkscape:persp3d" />
    <inkscape:perspective
       id="perspective4330"
       inkscape:persp3d-origin="0.5 : 0.33333333 : 1"
       inkscape:vp_z="1 : 0.5 : 1"
       inkscape:vp_y="0 : 1000 : 0"
       inkscape:vp_x="0 : 0.5 : 1"
       sodipodi:type="inkscape:persp3d" />
    <inkscape:perspective
       id="perspective4346"
       inkscape:persp3d-origin="0.5 : 0.33333333 : 1"
       inkscape:vp_z="1 : 0.5 : 1"
       inkscape:vp_y="0 : 1000 : 0"
       inkscape:vp_x="0 : 0.5 : 1"
       sodipodi:type="inkscape:persp3d" />
    <inkscape:perspective
       id="perspective3742"
       inkscape:persp3d-origin="0.5 : 0.33333333 : 1"
       inkscape:vp_z="1 : 0.5 : 1"
       inkscape:vp_y="0 : 1000 : 0"
       inkscape:vp_x="0 : 0.5 : 1"
       sodipodi:type="inkscape:persp3d" />
    <inkscape:perspective
       id="perspective3776"
       inkscape:persp3d-origin="0.5 : 0.33333333 : 1"
       inkscape:vp_z="1 : 0.5 : 1"
       inkscape:vp_y="0 : 1000 : 0"
       inkscape:vp_x="0 : 0.5 : 1"
       sodipodi:type="inkscape:persp3d" />
    <inkscape:perspective
       id="perspective3792"
       inkscape:persp3d-origin="0.5 : 0.33333333 : 1"
       inkscape:vp_z="1 : 0.5 : 1"
       inkscape:vp_y="0 : 1000 : 0"
       inkscape:vp_x="0 : 0.5 : 1"
       sodipodi:type="inkscape:persp3d" />
    <inkscape:perspective
       id="perspective3808"
       inkscape:persp3d-origin="0.5 : 0.33333333 : 1"
       inkscape:vp_z="1 : 0.5 : 1"
       inkscape:vp_y="0 : 1000 : 0"
       inkscape:vp_x="0 : 0.5 : 1"
       sodipodi:type="inkscape:persp3d" />
    <inkscape:perspective
       id="perspective3824"
       inkscape:persp3d-origin="0.5 : 0.33333333 : 1"
       inkscape:vp_z="1 : 0.5 : 1"
       inkscape:vp_y="0 : 1000 : 0"
       inkscape:vp_x="0 : 0.5 : 1"
       sodipodi:type="inkscape:persp3d" />
    <inkscape:perspective
       id="perspective4354"
       inkscape:persp3d-origin="0.5 : 0.33333333 : 1"
       inkscape:vp_z="1 : 0.5 : 1"
       inkscape:vp_y="0 : 1000 : 0"
       inkscape:vp_x="0 : 0.5 : 1"
       sodipodi:type="inkscape:persp3d" />
    <inkscape:perspective
       id="perspective4395"
       inkscape:persp3d-origin="0.5 : 0.33333333 : 1"
       inkscape:vp_z="1 : 0.5 : 1"
       inkscape:vp_y="0 : 1000 : 0"
       inkscape:vp_x="0 : 0.5 : 1"
       sodipodi:type="inkscape:persp3d" />
    <inkscape:perspective
       id="perspective4435"
       inkscape:persp3d-origin="0.5 : 0.33333333 : 1"
       inkscape:vp_z="1 : 0.5 : 1"
       inkscape:vp_y="0 : 1000 : 0"
       inkscape:vp_x="0 : 0.5 : 1"
       sodipodi:type="inkscape:persp3d" />
    <inkscape:perspective
       id="perspective4460"
       inkscape:persp3d-origin="0.5 : 0.33333333 : 1"
       inkscape:vp_z="1 : 0.5 : 1"
       inkscape:vp_y="0 : 1000 : 0"
       inkscape:vp_x="0 : 0.5 : 1"
       sodipodi:type="inkscape:persp3d" />
    <inkscape:perspective
       id="perspective4479"
       inkscape:persp3d-origin="0.5 : 0.33333333 : 1"
       inkscape:vp_z="1 : 0.5 : 1"
       inkscape:vp_y="0 : 1000 : 0"
       inkscape:vp_x="0 : 0.5 : 1"
       sodipodi:type="inkscape:persp3d" />
  </defs>
  <path
     style="fill:#ffffff;fill-opacity:1;stroke:none"
     d="m -4.9305571,-3.438081 207.7153771,0 0,207.348391 -207.7153771,0 0,-207.348391 z"
     id="rect2881" />
  <path
     style="fill:none;stroke:#000000;stroke-width:3;stroke-miterlimit:4;stroke-opacity:1"
     d="m 21.814432,2.8621521 157.645218,0 c 10.29357,0 18.58045,8.2868829 18.58045,18.5804539 l 0,157.645234 c 0,10.29357 -8.28688,18.58045 -18.58045,18.58045 l -157.645218,0 c -10.293571,0 -18.5804535,-8.28688 -18.5804535,-18.58045 l 0,-157.645234 c 0,-10.293571 8.2868825,-18.5804539 18.5804535,-18.5804539 z"
     id="rect4614" />
  <path
     style="fill:#000000"
     d="m 74.26255,179.15501 c -4.418387,-1.07565 -8.843229,-5.17025 -11.960732,-11.06805 -2.380297,-4.50312 -2.003051,-4.99169 3.854313,-4.99169 5.374884,0 7.066468,0.80423 8.384503,3.98625 0.513827,1.24048 1.105054,1.7361 2.071022,1.7361 1.338601,0 1.342749,-0.0192 0.421628,-1.95081 -1.516165,-3.17943 -0.881768,-3.77154 4.040878,-3.77154 5.452451,0 6.838324,0.55717 8.463369,3.40256 1.037445,1.81652 1.656529,2.31192 2.893484,2.31539 1.856702,0.005 1.847501,0.0453 0.593184,-2.58506 -1.284181,-2.69295 -0.637367,-3.11253 4.816126,-3.12413 5.062595,-0.0108 6.393625,0.55954 8.058845,3.45294 0.98047,1.7036 1.66143,2.26065 2.76349,2.26065 l 1.46243,0 -1.47951,-2.64713 c -0.81373,-1.45592 -1.47951,-2.74345 -1.47951,-2.86117 0,-0.11773 1.13641,-0.21405 2.52535,-0.21405 l 2.52535,0 -0.63821,-1.69081 c -0.574,-1.52069 -0.92379,-1.70781 -3.47646,-1.85976 l -2.83825,-0.16896 -1.28396,-3.81434 c -2.30656,-6.85226 -2.3407,-6.19977 0.32445,-6.19977 2.24296,0 2.35613,-0.0815 2.18444,-1.57365 -0.16122,-1.40124 -0.45942,-1.60499 -2.72176,-1.85976 -2.50657,-0.28227 -2.55045,-0.3245 -3.26656,-3.1434 -0.39923,-1.5715 -0.894996,-4.21093 -1.10171,-5.86541 l -0.375844,-3.00813 1.782644,0 c 1.37581,0 1.78264,-0.25051 1.78264,-1.09767 0,-2.17109 -0.65502,-2.90797 -2.58491,-2.90797 l -1.890234,0 -0.382327,-5.00706 c -0.21028,-2.75388 -0.508254,-5.45769 -0.662168,-6.00847 -0.235921,-0.84425 0.114785,-1.00141 2.234675,-1.00141 2.468404,0 2.509894,-0.0315 2.262554,-1.71671 -0.22845,-1.55651 -0.45166,-1.7167 -2.391982,-1.7167 l -2.140027,0 -0.370082,-4.3781 c -0.657384,-7.77684 -0.718321,-7.54784 2.061912,-7.749 2.281629,-0.16508 2.431999,-0.2821 2.431999,-1.89266 0,-1.61056 -0.15037,-1.72759 -2.431999,-1.89267 -2.780233,-0.20116 -2.719296,0.0279 -2.061912,-7.748991 l 0.370082,-4.378102 2.140027,0 c 1.941222,0 2.163472,-0.15978 2.392462,-1.719961 0.31721,-2.161315 0.17871,-2.285685 -2.545414,-2.285685 -1.852428,0 -2.183873,-0.170349 -1.948427,-1.001411 0.156037,-0.550777 0.457697,-3.125835 0.670357,-5.722351 l 0.386647,-4.72094 1.882037,0 c 1.91248,0 2.57673,-0.740736 2.57673,-2.873433 0,-0.787161 -0.49373,-1.109226 -1.90205,-1.240726 l -1.902051,-0.177604 1.096952,-5.836232 1.096949,-5.836231 2.66486,-0.172238 c 2.54664,-0.164596 2.67282,-0.254745 2.84418,-2.032001 0.17527,-1.817739 0.12766,-1.859764 -2.10651,-1.859764 l -2.28582,0 1.58334,-4.72094 1.58334,-4.720939 2.6706,-0.174476 c 2.26527,-0.147994 2.79718,-0.41925 3.50458,-1.787214 1.02948,-1.990788 0.71914,-2.330074 -2.1313,-2.330074 l -2.24794,0 1.50908,-2.575058 1.50909,-2.575058 -1.41689,0 c -1.02947,0 -1.86305,0.664975 -3.04866,2.431999 l -1.63177,2.432 -5.845107,0.163077 c -6.301934,0.175823 -6.568767,0.02931 -4.986754,-2.738135 1.155193,-2.0208 1.066983,-2.288941 -0.752982,-2.288941 -1.276742,0 -1.871443,0.462806 -2.863985,2.228797 -0.688959,1.225838 -1.658709,2.384614 -2.154997,2.575058 -0.496288,0.190443 -3.198834,0.346261 -6.005659,0.346261 -5.631303,0 -5.904734,-0.223763 -4.230265,-3.461828 0.843726,-1.631583 0.829312,-1.68768 -0.429176,-1.670201 -0.919439,0.01277 -1.758319,0.769698 -2.853851,2.575058 l -1.551633,2.556971 -5.744365,0 c -6.782319,0 -6.77056,0.01813 -3.629813,-5.598049 2.472204,-4.420709 5.314971,-7.438299 8.490767,-9.012923 2.128606,-1.055403 3.53504,-1.125493 22.584311,-1.125493 l 20.314349,0 3.41127,1.597348 c 12.23167,5.727546 20.9598,20.029002 25.16533,41.234547 2.38154,12.008468 2.89671,18.500842 2.89011,36.422663 -0.007,18.17949 -0.74062,26.39924 -3.42329,38.33976 -4.07886,18.1549 -11.9728,31.52805 -22.03495,37.3295 -5.32129,3.06804 -7.25787,3.30424 -26.569738,3.24062 -9.77817,-0.0322 -18.551004,-0.24665 -19.495192,-0.47651 z m 51.07906,-24.38353 c 6.09952,-4.27227 10.51623,-25.48303 10.59941,-50.90254 0.0572,-17.480829 -1.94953,-31.805059 -6.06807,-43.314332 -3.1571,-8.822547 -5.87969,-12.168414 -9.60396,-11.802576 -2.77713,0.272799 -2.56451,1.219094 0.49097,2.185158 2.51187,0.794187 2.85156,1.136404 4.5442,4.577881 5.14416,10.459101 8.18599,28.721155 8.18333,49.129789 -0.004,32.01317 -4.11083,49.86689 -11.47023,49.86689 -0.61465,0 -1.11755,0.2575 -1.11755,0.57223 0,0.88774 3.03294,0.67437 4.4419,-0.3125 z m -6.06309,-26.04639 c 2.46286,-3.35563 3.05257,-7.95797 3.03828,-23.71168 -0.0119,-13.110675 -0.16074,-15.547338 -1.25292,-20.511558 -2.09179,-9.507686 -5.23656,-14.081041 -6.28307,-9.13729 -0.254,1.199857 -0.45496,11.451769 -0.44659,22.782028 0.0126,17.12417 0.18383,21.50645 1.01443,25.96935 0.54958,2.95289 1.14571,5.60592 1.32476,5.89562 0.4776,0.77277 1.44398,0.29555 2.60511,-1.28647 z m -62.136362,30.04333 c -1.048175,-1.04817 -2.790019,-6.67643 -2.51364,-8.12206 0.161547,-0.84497 0.971392,-1.02421 5.263756,-1.165 6.061263,-0.19881 6.591965,0.12997 8.065527,4.99682 1.501168,4.95803 1.292433,5.18368 -4.795004,5.18368 -3.884028,0 -5.343828,-0.21663 -6.020639,-0.89344 z m 15.577555,0.17815 c -1.123498,-0.88973 -2.896173,-6.24504 -2.647417,-7.99793 0.174068,-1.22661 0.474669,-1.3104 5.263888,-1.46728 4.007768,-0.1313 5.291183,0.0254 6.083809,0.7427 1.153208,1.04364 3.096616,7.4149 2.631474,8.62704 -0.412358,1.07458 -9.993456,1.1553 -11.331754,0.0955 l 0,-3e-5 z m 16.006858,-0.26606 c -1.137375,-1.27126 -2.944007,-7.37191 -2.514533,-8.4911 0.418441,-1.09045 9.983546,-1.18535 11.338283,-0.11249 1.123498,0.88973 2.896169,6.24504 2.647419,7.99793 -0.17448,1.22951 -0.469188,1.30984 -5.370943,1.46402 -4.387406,0.13798 -5.327108,0.006 -6.100226,-0.85836 z M 53.475372,144.94716 c -0.761421,-1.45452 -1.816108,-6.72837 -1.816108,-9.08124 l 0,-1.99468 5.86541,0.16308 5.86541,0.16308 0.726767,2.86117 c 0.399717,1.57365 0.785976,4.14871 0.858352,5.72236 l 0.131586,2.86117 -5.548271,0.16341 c -4.845321,0.1427 -5.616036,0.0339 -6.083146,-0.85835 z m 15.476602,0.26576 c -0.734441,-0.89541 -2.378089,-9.58646 -1.999544,-10.57294 0.200048,-0.52131 1.87098,-0.7287 5.871333,-0.7287 5.573649,0 5.593632,0.005 6.189409,1.57365 0.918632,2.41857 1.991435,9.14703 1.567729,9.8326 -0.553883,0.8962 -10.884249,0.80327 -11.628927,-0.10461 z m 16.319888,-0.088 c -1.076535,-1.07654 -2.511306,-9.92647 -1.735137,-10.70264 0.306695,-0.3067 2.972744,-0.48204 5.940246,-0.39068 l 5.383823,0.16575 0.729851,2.23202 c 0.401417,1.22761 0.78818,3.80267 0.859463,5.72235 l 0.129611,3.49033 -5.231642,0.16372 c -4.015997,0.12568 -5.42789,-0.0325 -6.076215,-0.68085 z M 50.887892,129.6247 c -0.894287,-0.89429 -1.759389,-6.80007 -1.426101,-9.73554 l 0.19465,-1.71439 5.206241,-0.16339 c 4.092494,-0.12843 5.359731,0.0216 5.923732,0.70114 1.099796,1.32517 2.00078,9.90963 1.147921,10.93726 -0.984559,1.18632 -9.855182,1.16619 -11.046443,-0.0251 l 0,2e-5 z m 15.404242,-0.0461 c -0.494577,-0.49458 -0.907651,-1.20272 -0.917951,-1.57365 -0.0103,-0.37093 -0.250181,-2.4718 -0.533083,-4.66861 -0.346671,-2.69207 -0.317728,-4.23111 0.08879,-4.72094 0.868779,-1.04682 10.396018,-1.00038 11.271852,0.0549 1.037657,1.25029 1.965994,10.03592 1.162725,11.0038 -0.993446,1.19703 -9.85624,1.12055 -11.072337,-0.0956 l 4e-6,1e-4 z m 16.102375,-0.11191 c -0.661641,-0.73111 -0.963541,-2.43474 -1.090102,-6.15153 l -0.175035,-5.14037 5.231642,-0.16372 c 6.557173,-0.2052 6.811892,0.008 7.356729,6.16313 0.538376,6.08199 0.337847,6.30364 -5.70293,6.30364 -3.771681,0 -4.886796,-0.20062 -5.620304,-1.01113 l 0,-2e-5 z M 49.484771,113.76861 c -0.422819,-0.42282 -0.686682,-2.49604 -0.686682,-5.39536 0,-6.1055 0.3757,-6.50714 6.086962,-6.50714 6.318122,0 6.50221,0.17554 6.50221,6.20028 0,3.13799 -0.257054,5.27259 -0.686682,5.70222 -0.427626,0.42762 -2.543265,0.68668 -5.607904,0.68668 -3.06464,0 -5.18028,-0.25906 -5.607904,-0.68668 z m 15.450347,0 c -0.429628,-0.42963 -0.686682,-2.56423 -0.686682,-5.70222 0,-6.02474 0.184088,-6.20028 6.50221,-6.20028 5.711261,0 6.086962,0.40164 6.086962,6.50714 0,2.89932 -0.263863,4.97254 -0.686682,5.39536 -0.427625,0.42762 -2.543264,0.68668 -5.607904,0.68668 -3.064639,0 -5.180278,-0.25906 -5.607904,-0.68668 z m 15.939157,-0.39983 c -0.950042,-1.77517 -0.754195,-8.74358 0.287542,-10.23087 0.799172,-1.14097 1.380603,-1.2718 5.652287,-1.2718 3.382012,0 4.954011,0.23198 5.426019,0.80072 0.428896,0.51679 0.605928,2.6981 0.499246,6.15153 l -0.165295,5.35081 -5.548272,0.16341 c -5.026942,0.14805 -5.604951,0.0575 -6.151527,-0.9638 z M 49.697315,98.10571 c -1.122753,-1.12275 -1.292744,-9.923058 -0.212544,-11.003261 0.427624,-0.427626 2.543264,-0.686682 5.607904,-0.686682 3.064639,0 5.180278,0.259056 5.607904,0.686682 0.429628,0.429628 0.686682,2.564226 0.686682,5.70222 0,6.024731 -0.184088,6.200271 -6.50221,6.200271 -3.135666,0 -4.530241,-0.24173 -5.187736,-0.89923 z m 15.552533,0.28116 c -0.832992,-0.48518 -1.001412,-1.4254 -1.001412,-5.590504 0,-3.131534 0.257231,-5.264466 0.686682,-5.693917 0.427626,-0.427626 2.543265,-0.686682 5.607904,-0.686682 3.06464,0 5.180279,0.259056 5.607904,0.686682 1.080203,1.080203 0.910209,9.880511 -0.212545,11.003261 -1.048106,1.04811 -9.012091,1.2576 -10.688533,0.28116 z m 16.165641,-0.5264 c -0.93569,-0.93569 -1.14447,-1.907449 -1.14447,-5.326863 0,-5.982369 0.250702,-6.201055 6.876143,-5.998026 l 5.426912,0.166303 0.166302,5.426912 c 0.203029,6.625444 -0.01566,6.876144 -5.998025,6.876144 -3.419413,0 -4.391172,-0.20878 -5.326862,-1.14447 z M 49.415697,82.178672 c -0.803268,-0.967879 0.125069,-9.753504 1.162721,-11.003798 0.45888,-0.552916 2.12961,-0.78169 5.70866,-0.78169 4.294922,0 5.143621,0.156397 5.613552,1.034475 0.646093,1.207244 -0.311485,9.714973 -1.220017,10.839403 -0.851211,1.053485 -10.379293,0.978723 -11.264916,-0.08839 z m 15.430135,-0.02438 c -0.84578,-1.019105 0.044,-9.607092 1.131052,-10.916933 0.794731,-0.95759 9.396129,-1.210489 10.806276,-0.317728 0.640835,0.405715 0.725697,1.526437 0.418344,5.524948 -0.212059,2.758802 -0.669721,5.358392 -1.017028,5.776873 -0.92448,1.11393 -10.405036,1.057771 -11.338644,-0.06716 z m 16.378914,0.446546 c -1.094646,-1.09464 0.0854,-10.854476 1.414176,-11.696354 1.37357,-0.870255 9.993663,-0.616726 10.768343,0.31671 0.845781,1.019104 -0.044,9.607095 -1.131051,10.916935 -0.519441,0.625882 -1.989713,0.844201 -5.685305,0.844201 -2.741572,0 -5.156347,-0.17167 -5.366163,-0.381492 z M 51.341244,66.224605 c -0.397214,-1.035121 1.295884,-9.53319 2.089952,-10.489985 0.970161,-1.16897 11.139077,-1.125249 11.589998,0.04983 0.421108,1.097398 -1.17465,9.422194 -1.995773,10.411583 -0.878667,1.058732 -11.279109,1.084168 -11.684177,0.02855 l 0,2.2e-5 z m 15.415648,-0.09042 c -0.408153,-1.063637 1.311969,-9.420347 2.145887,-10.425153 0.967524,-1.165793 11.126505,-1.077082 11.578622,0.101109 0.404542,1.054218 -1.249876,9.434561 -2.059903,10.434313 -0.881179,1.087562 -11.242543,0.989612 -11.664606,-0.110269 z m 16.375302,-1.081799 c 0,-2.575333 1.182353,-8.508784 1.871987,-9.394258 0.375455,-0.482081 2.312517,-0.715294 5.941214,-0.715294 4.350744,0 5.449893,0.171386 5.726786,0.892958 0.483458,1.259876 -1.375241,10.104216 -2.238698,10.652486 -0.393217,0.249683 -3.096868,0.457914 -6.008114,0.462732 l -5.293175,0.0088 0,-1.907385 0,-3.9e-5 z M 54.610212,50.759242 c -0.680651,-0.820137 0.94167,-7.176506 2.226893,-8.7251 0.993743,-1.197389 11.314375,-1.185932 11.774475,0.01307 0.495498,1.291255 -2.032825,8.25533 -3.229666,8.895859 -1.612845,0.863167 -10.021874,0.719659 -10.771702,-0.183829 z m 15.377771,-0.08745 c -0.550633,-0.663473 -0.492231,-1.466573 0.280881,-3.862587 1.798221,-5.57296 1.836761,-5.600012 7.978755,-5.600012 2.964097,0 5.545518,0.252818 5.73649,0.561818 0.612767,0.991478 -1.96133,8.534917 -3.12493,9.157655 -1.745569,0.934199 -10.045455,0.738083 -10.871196,-0.256874 z m 16.198419,-0.05695 c -0.547246,-1.426099 1.524841,-8.22154 2.69846,-8.849642 0.571406,-0.305805 3.252722,-0.556009 5.95849,-0.556009 5.842498,0 6.108128,0.291392 4.620833,5.068978 -1.548938,4.975595 -1.932827,5.231254 -7.855112,5.231254 -4.078554,0 -5.147025,-0.176267 -5.422671,-0.894581 z"
     id="path4485"
     sodipodi:nodetypes="cssssssssssscccsccccccsssscccscccssscccssscccssscccscccccscccccsccccccccssssssscccsscccsssssccssssssssccssssssccssssccsssscccssssccccccccccccssssccscccccccccccsscccsssssccccccsscccsssssccsssssccssscccccsssssccsssssccscccsccssssccssssccssssccssscccsssccsssscccccsssccssssccssssc" />
</svg>
