<?xml version="1.0" encoding="UTF-8" standalone="no"?>
<!-- Created with Inkscape (http://www.inkscape.org/) -->

<svg
   xmlns:dc="http://purl.org/dc/elements/1.1/"
   xmlns:cc="http://creativecommons.org/ns#"
   xmlns:rdf="http://www.w3.org/1999/02/22-rdf-syntax-ns#"
   xmlns:svg="http://www.w3.org/2000/svg"
   xmlns="http://www.w3.org/2000/svg"
   xmlns:sodipodi="http://sodipodi.sourceforge.net/DTD/sodipodi-0.dtd"
   xmlns:inkscape="http://www.inkscape.org/namespaces/inkscape"
   width="1000.0001"
   height="2200"
   id="svg2"
   version="1.1"
   inkscape:version="0.48.5 r10040"
   sodipodi:docname="Nuovo documento 1">
  <defs
     id="defs4" />
  <sodipodi:namedview
     id="base"
     pagecolor="#ffffff"
     bordercolor="#666666"
     borderopacity="1.0"
     inkscape:pageopacity="0.0"
     inkscape:pageshadow="2"
     inkscape:zoom="0.12374369"
     inkscape:cx="1239.6306"
     inkscape:cy="1131.5986"
     inkscape:document-units="px"
     inkscape:current-layer="layer1"
     showgrid="false"
     inkscape:object-nodes="true"
     inkscape:window-width="1366"
     inkscape:window-height="705"
     inkscape:window-x="-8"
     inkscape:window-y="-8"
     inkscape:window-maximized="1"
     inkscape:snap-nodes="true"
     inkscape:object-paths="true"
     inkscape:snap-object-midpoints="true"
     inkscape:snap-center="false"
     inkscape:snap-intersection-paths="false"
     fit-margin-top="0"
     fit-margin-left="0"
     fit-margin-right="0"
     fit-margin-bottom="0" />
  <metadata
     id="metadata7">
    <rdf:RDF>
      <cc:Work
         rdf:about="">
        <dc:format>image/svg+xml</dc:format>
        <dc:type
           rdf:resource="http://purl.org/dc/dcmitype/StillImage" />
        <dc:title></dc:title>
      </cc:Work>
    </rdf:RDF>
  </metadata>
  <g
     inkscape:label="Livello 1"
     inkscape:groupmode="layer"
     id="layer1"
     transform="translate(0,1147.6378)">
    <rect
       y="52.36216"
       x="0.00012304688"
       height="1000"
       width="1000"
       id="rect4479-5"
       style="fill:#989898;fill-opacity:1;stroke:none" />
    <path
       inkscape:connector-curvature="0"
       id="path4666"
       d="m 422.5195,428.6 57.735,-1e-5 28.8677,-50.0002 -57.735,-10e-6 L 422.5195,428.6"
       style="fill:#ffffff;fill-opacity:1;stroke:none" />
    <path
       style="fill:#ffffff;fill-opacity:1;stroke:none"
       d="m 653.4596,428.59994 57.7351,6e-5 28.8676,-50.00027 -57.735,0 -28.8677,50.00021"
       id="path4662"
       inkscape:connector-curvature="0" />
    <rect
       style="fill:#989898;fill-opacity:1;stroke:none"
       id="rect3845-1"
       width="1000"
       height="1000"
       x="0"
       y="-1147.6378" />
    <path
       style="fill:#d0d0d0;fill-opacity:1;stroke:none"
       d="m 5.625e-5,-322.63782 324.49230375,0 c 27.9813,0 50.5077,22.5264 50.5077,50.5076 l 0,124.4924 0,0 -375.00000375,0 0,0 0,-175 z"
       id="rect4397-4"
       inkscape:connector-curvature="0"
       sodipodi:nodetypes="csscccccc" />
    <path
       sodipodi:nodetypes="csscccccc"
       inkscape:connector-curvature="0"
       id="path4426"
       d="m 5.625e-5,-972.63782 324.49230375,0 c 27.9813,0 50.5077,-22.5264 50.5077,-50.50758 l 0,-124.4924 0,0 -375.00000375,0 0,0 0,174.99998 z"
       style="fill:#d0d0d0;fill-opacity:1;stroke:none" />
    <path
       sodipodi:nodetypes="csscccccc"
       inkscape:connector-curvature="0"
       id="path4428"
       d="m 1000.0001,-322.63782 -324.49244,0 c -27.9812,0 -50.5076,22.5264 -50.5076,50.5076 l 0,124.4924 0,0 375.00004,0 0,0 0,-175 z"
       style="fill:#d0d0d0;fill-opacity:1;stroke:none" />
    <path
       style="fill:#d0d0d0;fill-opacity:1;stroke:none"
       d="m 1000.0001,-972.63782 -324.49244,0 c -27.9812,0 -50.5076,-22.5264 -50.5076,-50.50758 l 0,-124.4924 0,0 375.00004,0 0,0 0,174.99998 z"
       id="path4430"
       inkscape:connector-curvature="0"
       sodipodi:nodetypes="csscccccc" />
    <rect
       y="-422.63776"
       x="350"
       height="50"
       width="50"
       id="rect4455"
       style="fill:#ffffff;fill-opacity:1;stroke:none" />
    <rect
       style="fill:#ffffff;fill-opacity:1;stroke:none"
       id="rect4457"
       width="50"
       height="50"
       x="600"
       y="-422.63776" />
    <rect
       style="fill:#ffffff;fill-opacity:1;stroke:none"
       id="rect4459"
       width="50"
       height="50"
       x="350"
       y="-522.63776" />
    <rect
       y="-522.63776"
       x="600"
       height="50"
       width="50"
       id="rect4461"
       style="fill:#ffffff;fill-opacity:1;stroke:none" />
    <rect
       style="fill:#ffffff;fill-opacity:1;stroke:none"
       id="rect4463"
       width="50"
       height="50"
       x="350"
       y="-622.63776" />
    <rect
       y="-622.63776"
       x="600"
       height="50"
       width="50"
       id="rect4465"
       style="fill:#ffffff;fill-opacity:1;stroke:none" />
    <rect
       y="-722.63776"
       x="350"
       height="50"
       width="50"
       id="rect4467"
       style="fill:#ffffff;fill-opacity:1;stroke:none" />
    <rect
       style="fill:#ffffff;fill-opacity:1;stroke:none"
       id="rect4469"
       width="50"
       height="50"
       x="600"
       y="-722.63776" />
    <rect
       y="-822.63788"
       x="350"
       height="50"
       width="50"
       id="rect4471"
       style="fill:#ffffff;fill-opacity:1;stroke:none" />
    <rect
       style="fill:#ffffff;fill-opacity:1;stroke:none"
       id="rect4473"
       width="50"
       height="50"
       x="600"
       y="-822.63788" />
    <rect
       style="fill:#ffffff;fill-opacity:1;stroke:none"
       id="rect4475"
       width="50"
       height="50"
       x="350"
       y="-922.63788" />
    <rect
       y="-922.63788"
       x="600"
       height="50"
       width="50"
       id="rect4477"
       style="fill:#ffffff;fill-opacity:1;stroke:none" />
    <path
       sodipodi:nodetypes="cccc"
       inkscape:connector-curvature="0"
       id="path4588"
       d="m 0,883.60633 111.4664,-2.85707 c 25.9794,0 44.274,28.32711 30.3161,52.5029 l -69.1806,119.11004 -72.6019,0 z"
       style="fill:#d0d0d0;fill-opacity:1;stroke:none" />
    <path
       sodipodi:nodetypes="cccc"
       inkscape:connector-curvature="0"
       id="path4590"
       d="M 340.7207,1052.3622 419.185,915.7435 c 12.492,-21.63678 35.2942,-34.99423 60.632,-34.99435 l 520.183,-10e-6 0,171.61306 z"
       style="fill:#d0d0d0;fill-opacity:1;stroke:none" />
    <path
       style="fill:#d0d0d0;fill-opacity:1;stroke:none"
       d="m 1000,228.93398 -123.5003,-6e-5 c -25.9793,-7e-5 -44.2738,-28.32701 -30.3159,-52.5028 l 71.6312,-124.068987 82.185,2e-5 z"
       id="path4592"
       inkscape:connector-curvature="0"
       sodipodi:nodetypes="cccc" />
    <path
       style="fill:#d0d0d0;fill-opacity:1;stroke:none"
       d="M 650.521,52.362133 568.7812,193.93973 c -12.492,21.63678 -35.2943,34.99418 -60.632,34.99423 L 0,228.93398 0,52.362153 z"
       id="path4594"
       inkscape:connector-curvature="0"
       sodipodi:nodetypes="cccc" />
    <path
       style="fill:#ffffff;fill-opacity:1;stroke:none"
       d="m 422.5196,828.59998 57.735,0 28.8676,-50.00026 -57.735,0 -28.8676,50.00026"
       id="path4630"
       inkscape:connector-curvature="0" />
    <path
       style="fill:#ffffff;fill-opacity:1;stroke:none"
       d="m 480.2547,728.59974 57.735,0 28.8677,-50.00021 -57.735,0 -28.8677,50.00021"
       id="path4630-4"
       inkscape:connector-curvature="0" />
    <path
       inkscape:connector-curvature="0"
       id="path4650"
       d="m 191.5794,828.59999 57.7352,10e-5 28.8675,-50.00032 -57.735,0 -28.8677,50.00022"
       style="fill:#ffffff;fill-opacity:1;stroke:none" />
    <path
       inkscape:connector-curvature="0"
       id="path4652"
       d="m 249.3146,728.59979 57.735,10e-6 28.8678,-50.00016 -57.7352,-10e-5 -28.8676,50.00025"
       style="fill:#ffffff;fill-opacity:1;stroke:none" />
    <path
       inkscape:connector-curvature="0"
       id="path4654"
       d="m 537.9896,628.59996 57.735,0 28.8677,-50.00021 -57.7351,-6e-5 -28.8676,50.00027"
       style="fill:#ffffff;fill-opacity:1;stroke:none" />
    <path
       inkscape:connector-curvature="0"
       id="path4656"
       d="m 595.7247,528.59972 57.7351,6e-5 28.8676,-50.00027 -57.735,0 -28.8677,50.00021"
       style="fill:#ffffff;fill-opacity:1;stroke:none" />
    <path
       style="fill:#ffffff;fill-opacity:1;stroke:none"
       d="m 307.0495,628.60001 57.735,10e-6 28.8676,-50.00027 -57.735,10e-6 -28.8676,50.00025"
       id="path4658"
       inkscape:connector-curvature="0" />
    <path
       style="fill:#ffffff;fill-opacity:1;stroke:none"
       d="m 364.7846,528.59978 57.735,-10e-6 28.8677,-50.0002 -57.735,-1e-5 -28.8677,50.00022"
       id="path4660"
       inkscape:connector-curvature="0" />
    <path
       style="fill:#ffffff;fill-opacity:1;stroke:none"
       d="m 711.1948,328.59975 57.735,0 28.8676,-50.00026 -57.735,0 -28.8676,50.00026"
       id="path4664"
       inkscape:connector-curvature="0" />
    <path
       inkscape:connector-curvature="0"
       id="path4668"
       d="m 480.2547,328.59981 57.735,0 28.8676,-50.00027 -57.735,1e-5 -28.8676,50.00026"
       style="fill:#ffffff;fill-opacity:1;stroke:none" />
  </g>
</svg>
