<?xml version="1.0" encoding="UTF-8" standalone="no"?>
<!-- Created with Inkscape (http://www.inkscape.org/) -->

<svg
   xmlns:dc="http://purl.org/dc/elements/1.1/"
   xmlns:cc="http://creativecommons.org/ns#"
   xmlns:rdf="http://www.w3.org/1999/02/22-rdf-syntax-ns#"
   xmlns:svg="http://www.w3.org/2000/svg"
   xmlns="http://www.w3.org/2000/svg"
   xmlns:sodipodi="http://sodipodi.sourceforge.net/DTD/sodipodi-0.dtd"
   xmlns:inkscape="http://www.inkscape.org/namespaces/inkscape"
   version="1.1"
   width="200"
   height="200"
   id="svg2"
   inkscape:version="0.47 r22583"
   sodipodi:docname="Italian traffic signs - icona cimitero.svg"
   sodipodi:version="0.32"
   inkscape:output_extension="org.inkscape.output.svg.inkscape">
  <metadata
     id="metadata2877">
    <rdf:RDF>
      <cc:Work
         rdf:about="">
        <dc:format>image/svg+xml</dc:format>
        <dc:type
           rdf:resource="http://purl.org/dc/dcmitype/StillImage" />
        <dc:title></dc:title>
      </cc:Work>
    </rdf:RDF>
  </metadata>
  <sodipodi:namedview
     pagecolor="#ffffff"
     bordercolor="#666666"
     borderopacity="1"
     objecttolerance="10"
     gridtolerance="10"
     guidetolerance="10"
     inkscape:pageopacity="0"
     inkscape:pageshadow="2"
     inkscape:window-width="1600"
     inkscape:window-height="838"
     id="namedview2875"
     showgrid="false"
     inkscape:zoom="2.3765092"
     inkscape:cx="100.86616"
     inkscape:cy="99.107029"
     inkscape:window-x="-8"
     inkscape:window-y="-8"
     inkscape:window-maximized="1"
     inkscape:current-layer="svg2" />
  <defs
     id="defs4">
    <inkscape:perspective
       sodipodi:type="inkscape:persp3d"
       inkscape:vp_x="0 : 100 : 1"
       inkscape:vp_y="0 : 1000 : 0"
       inkscape:vp_z="200 : 100 : 1"
       inkscape:persp3d-origin="100 : 66.666667 : 1"
       id="perspective2879" />
    <inkscape:perspective
       id="perspective2839"
       inkscape:persp3d-origin="0.5 : 0.33333333 : 1"
       inkscape:vp_z="1 : 0.5 : 1"
       inkscape:vp_y="0 : 1000 : 0"
       inkscape:vp_x="0 : 0.5 : 1"
       sodipodi:type="inkscape:persp3d" />
    <inkscape:perspective
       id="perspective3649"
       inkscape:persp3d-origin="0.5 : 0.33333333 : 1"
       inkscape:vp_z="1 : 0.5 : 1"
       inkscape:vp_y="0 : 1000 : 0"
       inkscape:vp_x="0 : 0.5 : 1"
       sodipodi:type="inkscape:persp3d" />
    <inkscape:perspective
       id="perspective3679"
       inkscape:persp3d-origin="0.5 : 0.33333333 : 1"
       inkscape:vp_z="1 : 0.5 : 1"
       inkscape:vp_y="0 : 1000 : 0"
       inkscape:vp_x="0 : 0.5 : 1"
       sodipodi:type="inkscape:persp3d" />
    <inkscape:perspective
       id="perspective3713"
       inkscape:persp3d-origin="0.5 : 0.33333333 : 1"
       inkscape:vp_z="1 : 0.5 : 1"
       inkscape:vp_y="0 : 1000 : 0"
       inkscape:vp_x="0 : 0.5 : 1"
       sodipodi:type="inkscape:persp3d" />
    <inkscape:perspective
       id="perspective3741"
       inkscape:persp3d-origin="0.5 : 0.33333333 : 1"
       inkscape:vp_z="1 : 0.5 : 1"
       inkscape:vp_y="0 : 1000 : 0"
       inkscape:vp_x="0 : 0.5 : 1"
       sodipodi:type="inkscape:persp3d" />
    <inkscape:perspective
       id="perspective3765"
       inkscape:persp3d-origin="0.5 : 0.33333333 : 1"
       inkscape:vp_z="1 : 0.5 : 1"
       inkscape:vp_y="0 : 1000 : 0"
       inkscape:vp_x="0 : 0.5 : 1"
       sodipodi:type="inkscape:persp3d" />
    <inkscape:perspective
       id="perspective3801"
       inkscape:persp3d-origin="0.5 : 0.33333333 : 1"
       inkscape:vp_z="1 : 0.5 : 1"
       inkscape:vp_y="0 : 1000 : 0"
       inkscape:vp_x="0 : 0.5 : 1"
       sodipodi:type="inkscape:persp3d" />
    <inkscape:perspective
       id="perspective2863"
       inkscape:persp3d-origin="0.5 : 0.33333333 : 1"
       inkscape:vp_z="1 : 0.5 : 1"
       inkscape:vp_y="0 : 1000 : 0"
       inkscape:vp_x="0 : 0.5 : 1"
       sodipodi:type="inkscape:persp3d" />
    <inkscape:perspective
       id="perspective3859"
       inkscape:persp3d-origin="0.5 : 0.33333333 : 1"
       inkscape:vp_z="1 : 0.5 : 1"
       inkscape:vp_y="0 : 1000 : 0"
       inkscape:vp_x="0 : 0.5 : 1"
       sodipodi:type="inkscape:persp3d" />
    <inkscape:perspective
       id="perspective3964"
       inkscape:persp3d-origin="0.5 : 0.33333333 : 1"
       inkscape:vp_z="1 : 0.5 : 1"
       inkscape:vp_y="0 : 1000 : 0"
       inkscape:vp_x="0 : 0.5 : 1"
       sodipodi:type="inkscape:persp3d" />
    <inkscape:perspective
       id="perspective3988"
       inkscape:persp3d-origin="0.5 : 0.33333333 : 1"
       inkscape:vp_z="1 : 0.5 : 1"
       inkscape:vp_y="0 : 1000 : 0"
       inkscape:vp_x="0 : 0.5 : 1"
       sodipodi:type="inkscape:persp3d" />
    <inkscape:perspective
       id="perspective2879-7"
       inkscape:persp3d-origin="0.5 : 0.33333333 : 1"
       inkscape:vp_z="1 : 0.5 : 1"
       inkscape:vp_y="0 : 1000 : 0"
       inkscape:vp_x="0 : 0.5 : 1"
       sodipodi:type="inkscape:persp3d" />
    <inkscape:perspective
       id="perspective4031"
       inkscape:persp3d-origin="0.5 : 0.33333333 : 1"
       inkscape:vp_z="1 : 0.5 : 1"
       inkscape:vp_y="0 : 1000 : 0"
       inkscape:vp_x="0 : 0.5 : 1"
       sodipodi:type="inkscape:persp3d" />
    <inkscape:perspective
       id="perspective4047"
       inkscape:persp3d-origin="0.5 : 0.33333333 : 1"
       inkscape:vp_z="1 : 0.5 : 1"
       inkscape:vp_y="0 : 1000 : 0"
       inkscape:vp_x="0 : 0.5 : 1"
       sodipodi:type="inkscape:persp3d" />
    <inkscape:perspective
       id="perspective4063"
       inkscape:persp3d-origin="0.5 : 0.33333333 : 1"
       inkscape:vp_z="1 : 0.5 : 1"
       inkscape:vp_y="0 : 1000 : 0"
       inkscape:vp_x="0 : 0.5 : 1"
       sodipodi:type="inkscape:persp3d" />
    <inkscape:perspective
       id="perspective4079"
       inkscape:persp3d-origin="0.5 : 0.33333333 : 1"
       inkscape:vp_z="1 : 0.5 : 1"
       inkscape:vp_y="0 : 1000 : 0"
       inkscape:vp_x="0 : 0.5 : 1"
       sodipodi:type="inkscape:persp3d" />
    <inkscape:perspective
       id="perspective4097"
       inkscape:persp3d-origin="0.5 : 0.33333333 : 1"
       inkscape:vp_z="1 : 0.5 : 1"
       inkscape:vp_y="0 : 1000 : 0"
       inkscape:vp_x="0 : 0.5 : 1"
       sodipodi:type="inkscape:persp3d" />
    <inkscape:perspective
       id="perspective4115"
       inkscape:persp3d-origin="0.5 : 0.33333333 : 1"
       inkscape:vp_z="1 : 0.5 : 1"
       inkscape:vp_y="0 : 1000 : 0"
       inkscape:vp_x="0 : 0.5 : 1"
       sodipodi:type="inkscape:persp3d" />
    <inkscape:perspective
       id="perspective4129"
       inkscape:persp3d-origin="0.5 : 0.33333333 : 1"
       inkscape:vp_z="1 : 0.5 : 1"
       inkscape:vp_y="0 : 1000 : 0"
       inkscape:vp_x="0 : 0.5 : 1"
       sodipodi:type="inkscape:persp3d" />
    <inkscape:perspective
       id="perspective4153"
       inkscape:persp3d-origin="0.5 : 0.33333333 : 1"
       inkscape:vp_z="1 : 0.5 : 1"
       inkscape:vp_y="0 : 1000 : 0"
       inkscape:vp_x="0 : 0.5 : 1"
       sodipodi:type="inkscape:persp3d" />
    <inkscape:perspective
       id="perspective4179"
       inkscape:persp3d-origin="0.5 : 0.33333333 : 1"
       inkscape:vp_z="1 : 0.5 : 1"
       inkscape:vp_y="0 : 1000 : 0"
       inkscape:vp_x="0 : 0.5 : 1"
       sodipodi:type="inkscape:persp3d" />
    <inkscape:perspective
       id="perspective4195"
       inkscape:persp3d-origin="0.5 : 0.33333333 : 1"
       inkscape:vp_z="1 : 0.5 : 1"
       inkscape:vp_y="0 : 1000 : 0"
       inkscape:vp_x="0 : 0.5 : 1"
       sodipodi:type="inkscape:persp3d" />
    <inkscape:perspective
       id="perspective4213"
       inkscape:persp3d-origin="0.5 : 0.33333333 : 1"
       inkscape:vp_z="1 : 0.5 : 1"
       inkscape:vp_y="0 : 1000 : 0"
       inkscape:vp_x="0 : 0.5 : 1"
       sodipodi:type="inkscape:persp3d" />
    <inkscape:perspective
       id="perspective4267"
       inkscape:persp3d-origin="0.5 : 0.33333333 : 1"
       inkscape:vp_z="1 : 0.5 : 1"
       inkscape:vp_y="0 : 1000 : 0"
       inkscape:vp_x="0 : 0.5 : 1"
       sodipodi:type="inkscape:persp3d" />
    <inkscape:perspective
       id="perspective4283"
       inkscape:persp3d-origin="0.5 : 0.33333333 : 1"
       inkscape:vp_z="1 : 0.5 : 1"
       inkscape:vp_y="0 : 1000 : 0"
       inkscape:vp_x="0 : 0.5 : 1"
       sodipodi:type="inkscape:persp3d" />
    <inkscape:perspective
       id="perspective4314"
       inkscape:persp3d-origin="0.5 : 0.33333333 : 1"
       inkscape:vp_z="1 : 0.5 : 1"
       inkscape:vp_y="0 : 1000 : 0"
       inkscape:vp_x="0 : 0.5 : 1"
       sodipodi:type="inkscape:persp3d" />
    <inkscape:perspective
       id="perspective4330"
       inkscape:persp3d-origin="0.5 : 0.33333333 : 1"
       inkscape:vp_z="1 : 0.5 : 1"
       inkscape:vp_y="0 : 1000 : 0"
       inkscape:vp_x="0 : 0.5 : 1"
       sodipodi:type="inkscape:persp3d" />
    <inkscape:perspective
       id="perspective4346"
       inkscape:persp3d-origin="0.5 : 0.33333333 : 1"
       inkscape:vp_z="1 : 0.5 : 1"
       inkscape:vp_y="0 : 1000 : 0"
       inkscape:vp_x="0 : 0.5 : 1"
       sodipodi:type="inkscape:persp3d" />
    <inkscape:perspective
       id="perspective3742"
       inkscape:persp3d-origin="0.5 : 0.33333333 : 1"
       inkscape:vp_z="1 : 0.5 : 1"
       inkscape:vp_y="0 : 1000 : 0"
       inkscape:vp_x="0 : 0.5 : 1"
       sodipodi:type="inkscape:persp3d" />
    <inkscape:perspective
       id="perspective3776"
       inkscape:persp3d-origin="0.5 : 0.33333333 : 1"
       inkscape:vp_z="1 : 0.5 : 1"
       inkscape:vp_y="0 : 1000 : 0"
       inkscape:vp_x="0 : 0.5 : 1"
       sodipodi:type="inkscape:persp3d" />
    <inkscape:perspective
       id="perspective3792"
       inkscape:persp3d-origin="0.5 : 0.33333333 : 1"
       inkscape:vp_z="1 : 0.5 : 1"
       inkscape:vp_y="0 : 1000 : 0"
       inkscape:vp_x="0 : 0.5 : 1"
       sodipodi:type="inkscape:persp3d" />
    <inkscape:perspective
       id="perspective3808"
       inkscape:persp3d-origin="0.5 : 0.33333333 : 1"
       inkscape:vp_z="1 : 0.5 : 1"
       inkscape:vp_y="0 : 1000 : 0"
       inkscape:vp_x="0 : 0.5 : 1"
       sodipodi:type="inkscape:persp3d" />
    <inkscape:perspective
       id="perspective3824"
       inkscape:persp3d-origin="0.5 : 0.33333333 : 1"
       inkscape:vp_z="1 : 0.5 : 1"
       inkscape:vp_y="0 : 1000 : 0"
       inkscape:vp_x="0 : 0.5 : 1"
       sodipodi:type="inkscape:persp3d" />
    <inkscape:perspective
       id="perspective4354"
       inkscape:persp3d-origin="0.5 : 0.33333333 : 1"
       inkscape:vp_z="1 : 0.5 : 1"
       inkscape:vp_y="0 : 1000 : 0"
       inkscape:vp_x="0 : 0.5 : 1"
       sodipodi:type="inkscape:persp3d" />
    <inkscape:perspective
       id="perspective4395"
       inkscape:persp3d-origin="0.5 : 0.33333333 : 1"
       inkscape:vp_z="1 : 0.5 : 1"
       inkscape:vp_y="0 : 1000 : 0"
       inkscape:vp_x="0 : 0.5 : 1"
       sodipodi:type="inkscape:persp3d" />
    <inkscape:perspective
       id="perspective4435"
       inkscape:persp3d-origin="0.5 : 0.33333333 : 1"
       inkscape:vp_z="1 : 0.5 : 1"
       inkscape:vp_y="0 : 1000 : 0"
       inkscape:vp_x="0 : 0.5 : 1"
       sodipodi:type="inkscape:persp3d" />
    <inkscape:perspective
       id="perspective4460"
       inkscape:persp3d-origin="0.5 : 0.33333333 : 1"
       inkscape:vp_z="1 : 0.5 : 1"
       inkscape:vp_y="0 : 1000 : 0"
       inkscape:vp_x="0 : 0.5 : 1"
       sodipodi:type="inkscape:persp3d" />
    <inkscape:perspective
       id="perspective4479"
       inkscape:persp3d-origin="0.5 : 0.33333333 : 1"
       inkscape:vp_z="1 : 0.5 : 1"
       inkscape:vp_y="0 : 1000 : 0"
       inkscape:vp_x="0 : 0.5 : 1"
       sodipodi:type="inkscape:persp3d" />
    <inkscape:perspective
       id="perspective4495"
       inkscape:persp3d-origin="0.5 : 0.33333333 : 1"
       inkscape:vp_z="1 : 0.5 : 1"
       inkscape:vp_y="0 : 1000 : 0"
       inkscape:vp_x="0 : 0.5 : 1"
       sodipodi:type="inkscape:persp3d" />
    <inkscape:perspective
       id="perspective4511"
       inkscape:persp3d-origin="0.5 : 0.33333333 : 1"
       inkscape:vp_z="1 : 0.5 : 1"
       inkscape:vp_y="0 : 1000 : 0"
       inkscape:vp_x="0 : 0.5 : 1"
       sodipodi:type="inkscape:persp3d" />
    <inkscape:perspective
       id="perspective4527"
       inkscape:persp3d-origin="0.5 : 0.33333333 : 1"
       inkscape:vp_z="1 : 0.5 : 1"
       inkscape:vp_y="0 : 1000 : 0"
       inkscape:vp_x="0 : 0.5 : 1"
       sodipodi:type="inkscape:persp3d" />
    <inkscape:perspective
       id="perspective4543"
       inkscape:persp3d-origin="0.5 : 0.33333333 : 1"
       inkscape:vp_z="1 : 0.5 : 1"
       inkscape:vp_y="0 : 1000 : 0"
       inkscape:vp_x="0 : 0.5 : 1"
       sodipodi:type="inkscape:persp3d" />
    <inkscape:perspective
       id="perspective4559"
       inkscape:persp3d-origin="0.5 : 0.33333333 : 1"
       inkscape:vp_z="1 : 0.5 : 1"
       inkscape:vp_y="0 : 1000 : 0"
       inkscape:vp_x="0 : 0.5 : 1"
       sodipodi:type="inkscape:persp3d" />
    <inkscape:perspective
       id="perspective4575"
       inkscape:persp3d-origin="0.5 : 0.33333333 : 1"
       inkscape:vp_z="1 : 0.5 : 1"
       inkscape:vp_y="0 : 1000 : 0"
       inkscape:vp_x="0 : 0.5 : 1"
       sodipodi:type="inkscape:persp3d" />
    <inkscape:perspective
       id="perspective4591"
       inkscape:persp3d-origin="0.5 : 0.33333333 : 1"
       inkscape:vp_z="1 : 0.5 : 1"
       inkscape:vp_y="0 : 1000 : 0"
       inkscape:vp_x="0 : 0.5 : 1"
       sodipodi:type="inkscape:persp3d" />
    <inkscape:perspective
       id="perspective4607"
       inkscape:persp3d-origin="0.5 : 0.33333333 : 1"
       inkscape:vp_z="1 : 0.5 : 1"
       inkscape:vp_y="0 : 1000 : 0"
       inkscape:vp_x="0 : 0.5 : 1"
       sodipodi:type="inkscape:persp3d" />
  </defs>
  <path
     style="fill:#ffffff;fill-opacity:1;stroke:none"
     d="m -4.9305571,-3.438081 207.7153771,0 0,207.348391 -207.7153771,0 0,-207.348391 z"
     id="rect2881" />
  <path
     style="fill:none;stroke:#000000;stroke-width:3;stroke-miterlimit:4;stroke-opacity:1"
     d="m 21.814432,2.8621521 157.645218,0 c 10.29357,0 18.58045,8.2868829 18.58045,18.5804539 l 0,157.645234 c 0,10.29357 -8.28688,18.58045 -18.58045,18.58045 l -157.645218,0 c -10.293571,0 -18.5804535,-8.28688 -18.5804535,-18.58045 l 0,-157.645234 c 0,-10.293571 8.2868825,-18.5804539 18.5804535,-18.5804539 z"
     id="rect4614" />
  <path
     style="fill:#000000"
     d="m 126.63144,175.46686 0,-7.67829 24.43094,0 24.43094,0 0,7.67829 0,7.6783 -24.43094,0 -24.43094,0 0,-7.6783 z m -62.357064,5.32623 c -4.380486,-0.53345 -8.743955,-2.02944 -11.900023,-4.07988 -2.914452,-1.89346 -6.388315,-5.37388 -7.248836,-7.26252 -0.352846,-0.77441 -1.261822,-1.36795 -2.898085,-1.89236 -4.556047,-1.4602 -9.101135,-5.27071 -11.104098,-9.30946 -0.380794,-0.76783 -1.374244,-3.4611 -2.207666,-5.98504 -1.340779,-4.06043 -1.491254,-5.02521 -1.306439,-8.37632 0.426775,-7.73834 5.306747,-13.65864 15.026314,-18.22968 6.386527,-3.00354 9.872096,-3.70636 18.381374,-3.70636 8.19894,0 10.663384,0.55406 14.730182,3.31166 2.960671,2.00755 4.416704,4.16299 5.477756,8.10898 l 0.818595,3.04432 2.965571,1.06357 c 5.814075,2.08516 10.540257,5.96725 12.409643,10.19331 0.802963,1.81524 0.883725,2.9288 0.744185,10.26137 -0.152086,7.99186 -0.194038,8.29657 -1.478947,10.74299 -3.620433,6.89316 -11.39768,11.01422 -22.895732,12.13214 -5.152713,0.50098 -5.264109,0.50079 -9.513794,-0.0167 l 0,-2e-5 z m 15.664337,-14.56592 c 5.826253,-1.59942 11.214969,-5.30839 12.913757,-8.88832 0.848545,-1.78817 0.966055,-5.17381 0.245975,-7.087 -0.901627,-2.39555 -5.421002,-6.43151 -8.182298,-7.30709 -0.952053,-0.30188 -1.004624,-0.15264 -1.164519,3.30582 -0.226151,4.89172 -1.832869,8.16979 -6.047062,12.3374 -2.563304,2.53498 -4.160813,3.61409 -8.389389,5.66703 l -5.223177,2.5358 1.836253,0.21967 c 3.137951,0.37539 11.49082,-0.0916 14.01046,-0.78331 z M 58.22481,153.83256 c 5.081575,-1.43668 10.551225,-4.24544 13.616121,-6.99212 7.880439,-7.06224 7.440361,-14.92549 -1.051638,-18.79053 -7.232666,-3.29187 -17.504252,-2.43877 -27.234706,2.26196 -6.898033,3.3324 -11.856252,9.08785 -11.840032,13.74379 0.01215,3.489 3.050764,7.52868 6.931659,9.21529 4.973696,2.16153 13.095574,2.39451 19.578596,0.56161 z m 68.2373,10.48207 c -2.3813,-0.84891 -4.72272,-2.55273 -6.13087,-4.46138 -1.43893,-1.95036 -1.43414,-2.22854 0.0336,-1.94796 1.77212,0.33876 4.94765,-1.07557 6.81226,-3.03408 1.85183,-1.94507 2.71178,-4.05125 2.71178,-6.64159 0,-1.67844 0.0727,-1.75502 2.16523,-2.28193 1.3163,-0.33145 2.75957,-1.13955 3.68112,-2.0611 1.47809,-1.47809 2.73847,-4.68035 2.34068,-5.947 -0.10908,-0.34734 -0.32451,-1.2074 -0.47873,-1.91124 -0.26819,-1.22396 -0.20192,-1.27972 1.52104,-1.27972 5.74989,0 9.63924,-8.2267 6.04787,-12.79238 -0.92751,-1.17916 -20.97739,-16.52475 -21.5905,-16.52475 -0.15682,0 -1.47043,1.05942 -2.91914,2.35426 -5.27476,4.71454 -12.47878,7.06862 -17.03249,5.56576 -5.261736,-1.73653 -8.141255,-7.97922 -6.782732,-14.704715 2.03338,-10.066412 11.372492,-19.377653 20.141682,-20.081557 3.58716,-0.287941 5.85411,0.363565 8.08713,2.324183 2.05052,1.800378 3.40041,4.438022 3.74039,7.308578 0.24381,2.058588 0.40801,2.303302 1.95252,2.910004 0.92748,0.364328 4.16376,2.495548 7.19173,4.736051 3.02797,2.240499 5.75007,3.977785 6.04909,3.860628 0.65416,-0.256292 8.23509,-10.725977 8.19122,-11.312525 C 152.16937,88.049627 68.497196,25.416468 67.552636,25.032778 67.304459,24.931966 35.680037,67.102131 31.837352,72.657977 l -1.025816,1.483149 47.669906,35.538954 c 32.069158,23.90825 47.765228,35.88262 47.961168,36.58905 0.7755,2.79594 -1.77483,7.18267 -4.93741,8.49266 -2.22391,0.92117 -6.14638,0.38288 -8.107,-1.11256 -3.34592,-2.55206 -4.55391,-7.57717 -2.58667,-10.76024 L 111.74426,141.3798 67.826006,108.44459 23.907745,75.50938 36.086233,59.175571 C 62.943052,23.155167 66.849118,17.985244 67.221775,17.96576 c 0.213378,-0.01115 3.832503,2.606511 8.042494,5.817039 4.20999,3.210527 7.920887,5.939534 8.246442,6.064461 0.325555,0.124927 4.978049,-2.846034 10.338881,-6.602136 5.360828,-3.756101 10.031288,-6.851573 10.378798,-6.878826 0.3475,-0.02725 10.10918,13.666676 21.6926,30.430954 l 21.06078,30.480504 5.78785,4.420837 c 3.18331,2.43146 6.25786,4.734948 6.83232,5.118863 l 1.04447,0.698027 -3.97765,5.790291 c -2.18771,3.184659 -3.97765,5.944466 -3.97765,6.13291 0,0.188444 3.9264,3.213806 8.72534,6.723036 4.79893,3.50922 9.39199,7.00689 10.20679,7.77259 3.57832,3.36268 4.49965,9.36173 4.25902,27.73169 -0.15352,11.71969 -0.17754,11.97471 -1.36669,14.51002 -1.69023,3.6036 -3.73145,5.75098 -7.03662,7.40259 l -2.83736,1.41785 -18.19071,-0.0204 c -14.22806,-0.016 -18.5824,-0.16006 -19.98877,-0.66141 l 0,-2e-5 z m 5.22391,-99.717694 c -4.29142,-6.302671 -28.4862,-41.344479 -28.73283,-41.614339 -0.3645,-0.398857 -14.789455,9.771861 -14.494799,10.219967 0.256576,0.39019 44.294979,33.60479 44.555749,33.60479 0.0973,0 -0.50034,-0.994688 -1.32812,-2.210418 z m -8.44528,75.386894 c -2.67634,-1.98356 -4.90122,-3.81588 -4.94418,-4.07182 -0.043,-0.25594 1.29568,-2.39804 2.97475,-4.76022 l 3.05286,-4.29486 4.5941,3.59684 c 2.52676,1.97826 4.93057,4.15266 5.3418,4.83201 2.13047,3.5195 -0.48996,8.30452 -4.54782,8.30452 -1.27367,0 -2.61105,-0.74529 -6.47151,-3.60647 z m 11.55069,-8.74429 c -0.95825,-0.65029 -3.23861,-2.36128 -5.06747,-3.80221 -1.82886,-1.44094 -3.40198,-2.67838 -3.49583,-2.74989 -0.12456,-0.0949 4.88806,-7.25441 6.27446,-8.96178 0.3075,-0.37868 9.44518,6.76284 10.14188,7.92634 1.45281,2.42624 0.63665,5.82378 -1.87328,7.79808 -1.66018,1.30591 -3.85925,1.22848 -5.97976,-0.21054 z M 59.853539,81.774077 C 51.619554,77.825903 51.448528,66.28033 59.472472,56.049564 c 4.87743,-6.218874 12.133764,-9.697585 17.951738,-8.606126 2.353063,0.441437 5.584192,2.767044 6.76604,4.869859 3.658991,6.510291 1.086041,16.954066 -5.853463,23.759576 -4.266977,4.184587 -8.378928,6.197655 -13.125399,6.425733 -2.740346,0.13168 -3.898968,-0.02499 -5.357849,-0.724529 z"
     id="path4613"
     sodipodi:nodetypes="ccccccccccssssssssscccsssscccssssscccccsssssccsssssssssssssssssssssscccssscccccsssssccccccsssssccccccsssccscccssccsssssccsssssc" />
  <path
     style="fill:#aba8a8;fill-opacity:1;stroke:none"
     d="m 63.23412,79.133414 c -2.515956,-0.420432 -4.389343,-1.881072 -5.595048,-4.362343 -0.6085,-1.252259 -0.707787,-1.927345 -0.633752,-4.309117 0.08811,-2.83465 0.494239,-4.542053 1.651468,-6.942957 0.968524,-2.009399 2.037684,-3.540828 4.125215,-5.90882 3.259045,-3.696899 7.060925,-6.15289 10.639886,-6.8733 0.819213,-0.1649 2.61231,-0.168951 3.330526,-0.0075 2.650693,0.595769 4.622023,2.483543 5.565879,5.329965 0.988046,2.979687 0.324023,6.792974 -1.945688,11.173504 -1.257911,2.427763 -2.535017,4.192445 -4.456067,6.157309 -2.015035,2.060995 -3.791005,3.360793 -6.131311,4.48739 -2.382642,1.146975 -4.627528,1.577336 -6.551108,1.255894 l 0,0 z"
     id="path4617" />
  <path
     style="fill:#aba8a8;fill-opacity:1;stroke:none"
     d="m 106.28587,110.27531 c -1.92322,-0.32384 -3.6715,-1.44058 -4.82363,-3.08116 -1.488315,-1.54647 -1.852909,-3.25757 -2.022239,-5.34793 0.0284,-2.021909 0.507705,-3.952561 1.505749,-5.697432 l 0.62135,-1.271823 c 2.40982,-4.932555 6.94382,-9.614239 11.42362,-11.795724 1.93664,-0.943064 3.48806,-1.355131 5.10203,-1.355131 1.32517,0 1.98657,0.14472 3.10329,0.679029 2.72737,1.304949 4.698,4.416027 4.42312,6.98288 -0.0386,0.360006 -0.16015,0.791835 -0.27022,0.95962 -0.11007,0.167785 -0.62567,0.566987 -1.14578,0.887115 -1.78345,1.097706 -2.79832,2.199042 -3.63833,3.948333 -0.64955,1.35267 -0.82969,2.158496 -0.83481,3.734469 -0.003,1.057432 0.0418,1.474844 0.23119,2.131404 0.1295,0.44904 0.23546,1.04791 0.23546,1.33082 0,0.44459 -0.0629,0.59805 -0.46347,1.13094 -1.33972,1.78222 -4.79542,4.58103 -6.87424,5.56752 -2.22898,1.05774 -4.71345,1.5102 -6.57309,1.19707 l 0,0 z"
     id="path4619"
     sodipodi:nodetypes="cccccsssssssssssscc" />
</svg>
