<svg xmlns="http://www.w3.org/2000/svg" width="200" height="200" xmlns:v="https://vecta.io/nano"><path d="M-5.226-5.802h207.715v207.348H-5.226V-5.802z" fill="#fff"/><path d="M17.58 179.367c.012-2.173 2.975-7.175 6.071-10.246 1.796-1.782 5.812-5.019 8.926-7.195 5.419-3.786 5.749-4.137 7.705-8.202 2.203-4.578 5.361-7.9 7.51-7.9 2.092 0 6.512-1.505 8.578-2.921 2.759-1.891 4.067-4.645 5.643-11.89 1.721-7.909 5.225-15.344 8.154-17.304 2.601-1.741 4.905-1.621 10.408.539 5.107 2.005 4.314 1.954 24.467 1.564 7.133-.138 9.731.022 12.221.754 3.594 1.056 7.598 4.243 9.3 7.403l1.097 2.038-1.26.883c-1.669 1.169-1.712 3.934-.075 4.81l1.185.634-1.185 1.262c-.652.694-1.185 1.578-1.185 1.965s-1.888 1.564-4.196 2.616c-5.011 2.284-5.878 3.719-3.488 5.775.836.719 1.847 1.307 2.248 1.307.525 0 .633.589.386 2.106-.32 1.967-.51 2.139-2.883 2.601-4.598.895-6.136 4.043-2.887 5.908 1.485.852 1.565 1.047.866 2.113-.652.995-.645 1.415.043 2.742.455.877.674 2.262.498 3.144-.256 1.281.022 1.861 1.478 3.087.987.83 2.093 1.52 2.458 1.532s-.036.403-.893.867c-4.013 2.177-.182 6.376 7.457 8.172 3.062.72 13.334.515 15.472-.309.813-.313.991-.066.991 1.377v1.759H80.133c-59.204 0-62.558-.053-62.553-.991h0zm68.29-68.685c-1.913-1.505-1.929-.881.698-27.342 2.121-21.369 2.125-21.457 1.2-26.892l-.928-5.452-.876 1.981-4.131 9.341c-1.79 4.048-3.645 7.806-4.122 8.351-1.788 2.042-5.221.799-5.221-1.891 0-2.255 11.229-28.554 12.918-30.254 2.224-2.239 5.59-2.531 29.199-2.531 20.833 0 22.306.066 23.184 1.035 1.096 1.211 1.229 3.541.258 4.513-.491.491-4.476.679-14.366.679h-13.686l-.297 1.557c-.163.856-.741 5.378-1.283 10.049l-.986 8.492 2.613 23.212c2.551 22.655 2.588 23.246 1.58 24.627-.752 1.03-1.655 1.462-3.318 1.586-4.072.305-4.112.17-6.863-23.162-2.592-21.98-2.749-22.971-3.521-22.199-.274.274-1.527 10.044-2.784 21.712-2.228 20.673-2.323 21.246-3.724 22.488-1.791 1.587-3.611 1.62-5.543.1z"/><path d="M146.217 176.836v-3.461l-.749.109c-4.236.619-11.882 1.072-15.938.944-3.262-.103-3.62-.171-7.555-1.449l-.705-.229 1.058-.021c1.355-.027 5.484-.449 7.757-.793 4.376-.663 7.484-1.497 9.603-2.577 2.842-1.449 6.512-3.887 6.877-4.569.174-.325.143-.361-.313-.361-.702 0-3.999 1.066-6.402 2.07l-2.007.839-3.702-.033c-4.061-.036-9.527-.442-11.46-.851-1.254-.265-2.089-.717-2.148-1.162-.16-1.216-.364-1.731-1.146-2.888-.495-.733-.858-1.375-.807-1.426s.717.065 1.48.258c2.55.646 6.334 1.181 6.956.984.293-.093.356-.227.296-.633-.042-.283.012-.587.119-.676s1.303-.211 2.659-.271c3.085-.138 4.552-.348 6.343-.911 1.887-.593 3.581-1.626 3.33-2.031-.053-.086-.461-.327-.906-.537l-.809-.38.578-.195c.953-.321 1.889-1.249 2.49-2.47.47-.954.548-1.286.478-2.02-.173-1.805-.852-1.867-3.003-.273-1.526 1.13-3.444 2.308-3.554 2.181-.031-.036-.132-.383-.224-.771-.211-.89-.352-.881-2.807.188-2.233.972-4.757 1.643-6.723 1.786l-1.453.106-.271-.649c-.351-.841-.777-.988-2.873-.996l-1.707-.006 2.312-.851c3.118-1.147 4.784-1.934 5.193-2.454.453-.575.434-1.342-.043-1.787-.211-.197-.35-.39-.309-.43s.829-.361 1.75-.713c2.738-1.048 5.324-2.678 8.221-5.179 2.929-2.529 6.63-7.791 5.481-7.791-.125 0-1.16.632-2.301 1.405-2.765 1.873-5.272 3.264-7.522 4.174-2.949 1.192-4.329 1.499-7.14 1.59l-2.468.08 2.556-1.297c3.717-1.886 6.651-3.893 6.473-4.428-.033-.099-.392-.291-.797-.426-.962-.321-.867-.495 1.243-2.272 4.338-3.654 5.245-4.491 5.245-4.839 0-.222-.694-.101-3.737.653-1.328.329-2.66.599-2.959.599-.484 0-.524-.038-.361-.342.101-.188 1.194-1.171 2.43-2.185s2.469-2.077 2.739-2.364c.451-.478.468-.541.199-.764-.194-.161-.974-.275-2.304-.336l-2.011-.093 2.832-1.914c6.042-4.084 8.194-5.949 9.894-8.576.739-1.142 1.388-2.554 1.388-3.02 0-.693-1.236-.239-3.714 1.365-1.82 1.177-3.935 2.115-5.49 2.434-.747.153-1.418.279-1.491.279s.981-1.131 2.341-2.512c3.544-3.601 5.322-5.896 7.827-10.104 2.454-4.123 4.22-8.201 5.377-12.419.741-2.701.887-2.637 1.875.818.385 1.344.982 3.158 1.328 4.031 1.604 4.046 4.66 9.299 7.587 13.046.682.873 2.391 2.816 3.799 4.319s2.539 2.755 2.514 2.783-.671-.079-1.435-.236c-1.73-.357-3.202-1.037-6.216-2.873-1.297-.79-2.459-1.437-2.582-1.437-.64 0-.364 1.253.645 2.932 1.824 3.034 5.161 5.958 10.692 9.368 2.26 1.393 2.399 1.62.996 1.625-.947.004-2.753.342-3.026.566-.381.314.054.78 2.294 2.457 2.144 1.605 3.653 2.921 3.653 3.187 0 .314-1.294.095-3.864-.654-2.684-.783-3.541-.938-3.541-.64 0 .253 1.581 1.779 4.075 3.933 3.352 2.895 3.416 2.989 2.192 3.218-.337.063-.669.206-.737.317-.291.471 3.49 3.01 7.076 4.75l2.116 1.027-1.699.001c-.935.001-2.334-.12-3.11-.267-3.892-.738-8.704-2.878-12.105-5.38-2.033-1.497-2.709-1.725-2.597-.875.179 1.346 3.367 5.322 5.972 7.448 1.626 1.327 3.444 2.506 5.907 3.832 2.485 1.338 3.326 1.986 3.005 2.316-.633.65.007 1.684 1.509 2.437.636.319 5.163 2.088 5.485 2.144.375.065-.963.303-1.782.317-1.338.023-1.885.255-2.107.891-.209.6-.625.778-1.719.738-1.583-.059-6.382-1.551-8.064-2.508-1.13-.643-1.44-.649-1.578-.029-.33 1.484-.313 1.486-2.78-.342-1.587-1.176-2.576-1.729-3.096-1.729-.533 0-.899.675-.899 1.658 0 1.556 1.129 3.283 2.637 4.035l.875.436-1.051.471c-.578.259-1.051.512-1.051.561 0 .202 3.698 1.815 4.76 2.077.63.155 2.058.365 3.173.467 2.538.23 4.576.495 4.78.621.086.053.156.325.156.603 0 .353.108.541.354.619.601.191 4.421-.352 6.903-.981.743-.188 1.395-.342 1.449-.342.173 0-.122.598-.697 1.41-.828 1.17-1.134 1.85-1.134 2.52 0 1.05-.683 1.409-3.416 1.795-2.944.416-6.526.649-10.434.68l-3.692.029-1.322-.598c-1.947-.881-7.581-3.004-7.581-2.857 0 .26 2.767 2.901 3.702 3.535 2.506 1.698 5.12 2.79 8.815 3.684 2.813.681 5.056 1.018 9.344 1.404 1.891.17 3.353.362 3.249.427s-1.214.412-2.468.772c-2.15.618-2.455.66-5.365.737-3.98.105-10.385-.282-15.809-.954l-.912-.113.074.684a197.48 197.48 0 0 1 .428 5.939c0 .273-.394.299-4.584.299h-4.584v-3.461z" fill="#3ba253"/><path d="M104.331 26.254c0 2.425-1.247 4.667-3.273 5.879s-4.522 1.213-6.548 0-3.274-3.454-3.273-5.879 1.247-4.667 3.273-5.879 4.522-1.213 6.548 0 3.274 3.454 3.273 5.879z"/><path d="M22.355 2.403h156.802c10.239 0 18.481 8.314 18.481 18.642v158.169c0 10.328-8.243 18.642-18.481 18.642H22.355c-10.239 0-18.481-8.314-18.481-18.642V21.046c0-10.328 8.243-18.642 18.481-18.642z" fill="none" stroke="#000" stroke-width="2.997"/></svg>