<svg xmlns="http://www.w3.org/2000/svg" width="200" height="200" xmlns:v="https://vecta.io/nano"><path d="M0 0h200v200H0z" fill="#fff"/><path d="M90.687 174.311c-17.584-3.871-30.973-18.919-32.458-36.479l-.361-4.272h83.541l-.398 3.901c-.603 5.902-1.383 8.61-4.123 14.302-4.289 8.91-9.95 14.591-19.041 19.11-2.86 1.422-7.021 2.965-9.246 3.429-4.946 1.032-13.247 1.036-17.914.009h0zm-49.964-46.385c.012-.238 2.558-4.724 5.659-9.968l5.638-9.535 18.515-.152 18.515-.152.635 1.393c1.171 2.57 6.35 5.563 9.612 5.554 3.085-.008 5.935-1.369 8.584-4.1l2.747-2.832h36.807l4.636 7.946 5.922 10.113 1.285 2.167H99.99c-32.608 0-59.278-.195-59.267-.433zm12.866-38.717c.635-18.699 3.979-31.719 10.669-41.541 2.744-4.029 7.936-9.042 12.088-11.674 3.266-2.07 11.142-5.294 12.932-5.294.957 0 1.119-.417 1.119-2.889v-2.889h17.85l.176 2.658.176 2.658 4.045 1.29c17.035 5.432 27.344 18.723 31.182 40.201.943 5.278 2.041 18.239 2.043 24.126l.001 3.612h-35.135l-1.146-1.942c-2.303-3.903-7.914-6.662-11.874-5.838-3.109.647-6.657 3.069-8.037 5.485l-1.305 2.285-17.567.005-17.567.005.348-10.257h0z"/><rect rx="22.535" y="2.5" x="2.5" height="195" width="195" fill="none" stroke="#000" stroke-width="5"/></svg>