<?xml version="1.0" encoding="UTF-8" standalone="no"?>
<!-- Created with Inkscape (http://www.inkscape.org/) -->

<svg
   width="158.75mm"
   height="238.125mm"
   viewBox="0 0 158.75 238.125"
   version="1.1"
   id="svg26527"
   inkscape:version="1.2.1 (9c6d41e410, 2022-07-14)"
   sodipodi:docname="Segnale stradale italiano - rifornimento (figura II 357).svg"
   xmlns:inkscape="http://www.inkscape.org/namespaces/inkscape"
   xmlns:sodipodi="http://sodipodi.sourceforge.net/DTD/sodipodi-0.dtd"
   xmlns="http://www.w3.org/2000/svg"
   xmlns:svg="http://www.w3.org/2000/svg">
  <sodipodi:namedview
     id="namedview26529"
     pagecolor="#ffffff"
     bordercolor="#000000"
     borderopacity="0.25"
     inkscape:showpageshadow="2"
     inkscape:pageopacity="0.0"
     inkscape:pagecheckerboard="0"
     inkscape:deskcolor="#d1d1d1"
     inkscape:document-units="mm"
     showgrid="false"
     inkscape:zoom="0.38128507"
     inkscape:cx="106.21974"
     inkscape:cy="-11.802193"
     inkscape:window-width="1920"
     inkscape:window-height="991"
     inkscape:window-x="-9"
     inkscape:window-y="-9"
     inkscape:window-maximized="1"
     inkscape:current-layer="layer1" />
  <defs
     id="defs26524" />
  <g
     inkscape:label="Livello 1"
     inkscape:groupmode="layer"
     id="layer1"
     transform="translate(-9.4474308,-6.884959)">
    <g
       id="g20825"
       transform="translate(934.7534,-1034.648)">
      <rect
         style="fill:#00408b;fill-rule:evenodd;stroke-width:29.4791;paint-order:markers fill stroke"
         id="rect3812-6-0-8-49-4"
         width="158.75"
         height="238.125"
         x="-925.30597"
         y="1041.533" />
      <rect
         style="fill:none;fill-rule:evenodd;stroke:#ffffff;stroke-width:3.175;paint-order:markers fill stroke"
         id="rect3812-0-8-2-9-8-6"
         width="152.39999"
         height="231.77499"
         x="-922.13098"
         y="1044.708"
         ry="10.31875"
         rx="10.31875" />
      <rect
         style="fill:#ffffff;fill-rule:evenodd;stroke-width:4.84527;paint-order:markers fill stroke"
         id="rect10936-6-3-8-4-8"
         width="119.0625"
         height="119.0625"
         x="-905.46222"
         y="1061.3767" />
      <path
         id="rect10910-2-6-5-4"
         style="fill:#000000;fill-rule:evenodd;stroke-width:5.22552;stroke-opacity:0.329231;paint-order:markers fill stroke"
         d="m -826.65824,1070.3116 h -55.00078 v 37.8758 h 5.12733 v 43.9275 h 12.18376 l 5.1e-4,-25.571 h -5.26686 V 1101.61 h -3.16053 c -1.42312,0 -2.56832,-1.1463 -2.56832,-2.5694 v -19.5828 c 0,-1.4231 1.1452,-2.5678 2.56832,-2.5678 h 37.23132 c 1.42312,0 2.5678,1.1447 2.5678,2.5678 v 3.2959 h 0.002 l 6.31538,5e-4 z" />
      <path
         id="rect10910-2-6-3"
         style="fill:#27884d;fill-rule:evenodd;stroke-width:5.22552;stroke-opacity:0.329231;paint-order:markers fill stroke"
         d="m -866.83909,1087.0252 v 37.8759 h 5.1277 v 43.9289 h 44.44768 v -36.748 c 1.92458,0.025 2.94859,0.3608 3.31792,0.6673 0.38427,0.319 0.83059,0.9685 0.83059,3.3326 v 23.7531 c 0,2.4722 0.99123,4.7009 2.51214,6.1958 1.5209,1.4947 3.45528,2.306 5.4075,2.6112 3.90444,0.6104 8.37362,-0.6607 10.4638,-4.5493 1.05647,-1.9653 1.36486,-4.2793 0.95881,-6.818 v -0.01 l -8.32181,-51.5002 -0.0158,-0.082 c 0.0221,0.098 -0.0485,-0.532 -0.1251,-1.2779 -0.0766,-0.746 -0.30441,-1.6645 -0.57265,-2.738 -0.15631,-0.6255 -0.25557,-1.2068 -0.51294,-1.8754 -0.25935,-0.6737 -0.70951,-1.3274 -1.29394,-1.7646 -0.51694,-0.3867 -1.07018,-0.6282 -1.80544,-0.7271 -0.9208,-0.1238 -2.05946,-0.049 -2.98133,-0.049 h -0.76936 v 5.6785 h 0.77084 c 0.72505,0 0.89206,0.1349 0.96902,0.1922 0.0769,0.057 0.16481,0.1503 0.28109,0.4736 0.1166,0.3233 0.21177,0.8335 0.26944,1.3945 0.0548,0.5294 0.0447,1.0278 0.2042,1.7995 l 8.29853,51.3793 c 0.19664,1.2424 -0.19727,2.9464 -0.35118,3.2321 -0.58643,1.091 -2.63826,1.9355 -4.58859,1.6305 -0.97519,-0.1525 -1.79935,-0.5535 -2.30667,-1.052 -0.50736,-0.4987 -0.8102,-1.0495 -0.8102,-2.1479 v -23.753 c 0,-3.2259 -0.83061,-5.9929 -2.8866,-7.6997 -1.99514,-1.6561 -4.43181,-1.9619 -6.94042,-1.9788 v -1.5023 h 5.42352 v -37.8758 z" />
      <rect
         style="fill:#ffffff;fill-rule:evenodd;stroke-width:3.70531;stroke-opacity:0.329231;paint-order:markers fill stroke"
         id="rect10910-4-8-7-2-7"
         width="42.368961"
         height="24.720078"
         x="-860.5235"
         y="1093.6031"
         ry="2.5688007"
         rx="2.5687923" />
    </g>
  </g>
</svg>
