<?xml version="1.0" encoding="UTF-8" standalone="no"?>
<!-- Created with Inkscape (http://www.inkscape.org/) -->

<svg
   xmlns:dc="http://purl.org/dc/elements/1.1/"
   xmlns:cc="http://creativecommons.org/ns#"
   xmlns:rdf="http://www.w3.org/1999/02/22-rdf-syntax-ns#"
   xmlns:svg="http://www.w3.org/2000/svg"
   xmlns="http://www.w3.org/2000/svg"
   xmlns:sodipodi="http://sodipodi.sourceforge.net/DTD/sodipodi-0.dtd"
   xmlns:inkscape="http://www.inkscape.org/namespaces/inkscape"
   width="3000"
   height="3000"
   id="svg8716"
   version="1.1"
   inkscape:version="0.48.5 r10040"
   sodipodi:docname="CANC Bus.svg">
  <defs
     id="defs8718" />
  <sodipodi:namedview
     id="base"
     pagecolor="#ffffff"
     bordercolor="#666666"
     borderopacity="1.0"
     inkscape:pageopacity="0.0"
     inkscape:pageshadow="2"
     inkscape:zoom="0.0875"
     inkscape:cx="2769.2056"
     inkscape:cy="701.19007"
     inkscape:document-units="px"
     inkscape:current-layer="layer1"
     showgrid="false"
     fit-margin-top="0"
     fit-margin-left="0"
     fit-margin-right="0"
     fit-margin-bottom="0"
     inkscape:window-width="1366"
     inkscape:window-height="705"
     inkscape:window-x="-8"
     inkscape:window-y="-8"
     inkscape:window-maximized="1"
     inkscape:object-nodes="true" />
  <metadata
     id="metadata8721">
    <rdf:RDF>
      <cc:Work
         rdf:about="">
        <dc:format>image/svg+xml</dc:format>
        <dc:type
           rdf:resource="http://purl.org/dc/dcmitype/StillImage" />
        <dc:title></dc:title>
      </cc:Work>
    </rdf:RDF>
  </metadata>
  <g
     inkscape:label="Livello 1"
     inkscape:groupmode="layer"
     id="layer1"
     transform="translate(0,1947.6378)">
    <rect
       style="fill:#08842c;fill-opacity:1;fill-rule:evenodd;stroke:none"
       id="rect8473"
       width="3000"
       height="3000"
       x="0"
       y="-1947.6378" />
    <rect
       style="fill:#ffffff;fill-opacity:1;stroke:none"
       id="rect8487"
       width="1500"
       height="350"
       x="1350.0002"
       y="-622.63782" />
    <path
       sodipodi:type="arc"
       style="fill:none;stroke:#d40000;stroke-width:54.16794205;stroke-miterlimit:4;stroke-opacity:1;stroke-dasharray:none"
       id="path8505"
       sodipodi:cx="1450.5791"
       sodipodi:cy="727.09308"
       sodipodi:rx="169.70563"
       sodipodi:ry="195.96959"
       d="m 1620.2847,727.09308 c 0,108.23101 -75.9798,195.96959 -169.7056,195.96959 -93.7258,0 -169.7056,-87.73858 -169.7056,-195.96959 0,-108.23102 75.9798,-195.96959 169.7056,-195.96959 93.7258,0 169.7056,87.73857 169.7056,195.96959 z"
       transform="matrix(0.76958815,0,0,0.66644753,983.65174,-932.20722)" />
    <g
       id="g8507"
       transform="matrix(1.9857024,0,0,1.9857024,1621.6266,-1252.073)"
       style="fill:#000000;fill-opacity:1;stroke-width:0.260483">
      <path
         inkscape:connector-curvature="0"
         id="path8509"
         style="fill:#000000;fill-opacity:1;fill-rule:evenodd;stroke:none"
         d="m 220.34707,435.60729 16.46671,-33.60791 -1.61644,-5.64009 -9.14622,10.40217 c -2.89564,2.5584 -7.26234,-1.83157 -4.39578,-4.69812 l 16.22831,-18.63554 c 1.79669,-1.2501 2.58746,-1.70364 4.38995,-2.65141 2.0409,-0.94196 2.47118,-0.79077 4.38997,0.94777 l 14.51885,14.63513 c 0.51749,0.55239 0.69773,0.43028 0.91288,1.6804 v 7.28558 c 0,3.16892 -6.00641,3.13985 -6.04128,-0.0639 l 0.093,-5.12258 -5.3668,-5.18074 -2.13392,6.1285 c 4.54114,12.07675 8.23335,23.01967 12.74542,35.10224 2.0467,5.69823 -4.93653,8.47756 -7.74494,2.95377 l -11.31504,-30.06687 c -5.05863,10.33822 -9.5707,20.12405 -14.66422,30.43318 -2.89562,5.33773 -10.09399,1.22105 -7.32047,-3.90153" />
      <path
         inkscape:connector-curvature="0"
         id="path8511"
         style="fill:#000000;fill-opacity:1;fill-rule:evenodd;stroke:none"
         d="m 238.40114,368.08911 c 3.01773,0 5.45983,2.47117 5.45983,5.48891 0,3.01773 -2.4421,5.4889 -5.45983,5.4889 -3.01773,0 -5.48891,-2.47117 -5.48891,-5.4889 0,-3.01774 2.47118,-5.48891 5.48891,-5.48891" />
    </g>
    <rect
       ry="157.5"
       rx="157.5"
       y="-1902.6378"
       x="1245.0002"
       height="2910"
       width="1710"
       id="rect8475"
       style="fill:none;stroke:#ffffff;stroke-width:45;stroke-miterlimit:4;stroke-opacity:1;stroke-dasharray:none" />
    <rect
       ry="110.25001"
       rx="110.25001"
       y="-1916.1378"
       x="31.5"
       height="2937"
       width="1137"
       id="rect8477"
       style="fill:none;stroke:#ffffff;stroke-width:31.5;stroke-miterlimit:4;stroke-opacity:1;stroke-dasharray:none" />
    <rect
       y="387.36221"
       x="1350.0002"
       height="350"
       width="1500"
       id="rect8479"
       style="fill:#ffffff;fill-opacity:1;stroke:none" />
    <g
       transform="translate(-3999.9236,-70.000003)"
       style="font-size:256.78015137px;font-style:normal;font-weight:normal;line-height:125%;letter-spacing:0px;word-spacing:0px;fill:#000000;fill-opacity:1;stroke:none;font-family:Sans"
       id="text8481">
      <path
         inkscape:connector-curvature="0"
         d="m 5588.9197,722.26217 -40.8272,0 -21.5733,-73.44188 0,73.44188 -41.5951,0 0,-181.02656 41.0857,0 21.3069,74.202 0,-74.4606 41.603,0 z"
         style="font-variant:normal;font-stretch:normal;fill:#000000;font-family:CodiceNeroCondensed;-inkscape-font-specification:CodiceNeroCondensed"
         id="path8570" />
      <path
         inkscape:connector-curvature="0"
         d="m 5674.6646,538.14811 c 18.6555,-0.16698 33.2049,10.87436 43.6482,33.12407 8.2176,17.63184 12.3264,36.89085 12.3265,57.7771 -1e-4,24.13591 -4.2787,45.36445 -12.8358,63.68568 -10.2709,21.73794 -24.6505,32.69309 -43.1389,32.86548 -17.9765,0.1724 -32.1864,-10.78275 -42.6295,-32.86548 -8.7297,-18.32123 -13.1807,-39.54977 -13.3531,-63.68568 -0.1724,-21.22582 3.6804,-40.39864 11.5586,-57.5185 10.2707,-22.08253 25.0787,-33.21008 44.424,-33.38267 z m -13.6117,90.90117 c 0,14.03753 0.9403,26.02185 2.8211,35.95298 2.3978,12.83593 5.9947,19.25386 10.7906,19.25381 4.7905,5e-5 8.2986,-6.41788 10.5242,-19.25381 1.7134,-10.10353 2.484,-22.08785 2.3117,-35.95298 -0.3397,-35.09085 -4.6183,-52.63632 -12.8359,-52.63648 -4.7959,1.6e-4 -8.3928,6.1621 -10.7906,18.48585 -1.8808,9.41415 -2.8211,20.79768 -2.8211,34.15063 z"
         style="font-variant:normal;font-stretch:normal;fill:#000000;font-family:CodiceNeroCondensed;-inkscape-font-specification:CodiceNeroCondensed"
         id="path8572" />
      <path
         inkscape:connector-curvature="0"
         d="m 5901.7765,630.07584 0,57.5185 c -1e-4,4.96826 2.3116,7.45237 6.9351,7.45233 1.8858,4e-5 3.7691,-0.34476 5.65,-1.03439 l -8.9883,27.99129 c -2.91,0.85678 -6.0758,1.28517 -9.4976,1.28516 -10.1037,10e-6 -18.4911,-3.50804 -25.1624,-10.52417 -6.5094,7.01613 -14.8133,10.52418 -24.9116,10.52417 -8.5573,10e-6 -15.6622,-2.65389 -21.3148,-7.96169 -6.5041,-5.99214 -9.7562,-14.2934 -9.7562,-24.90379 0,-7.70565 1.7972,-15.06655 5.3914,-22.08272 4.9682,-9.58634 12.5877,-16.86365 22.8585,-21.83195 l 21.307,-10.26557 c -10e-5,-1.36864 -0.1699,-2.56759 -0.5094,-3.59686 -0.6844,-2.39781 -1.9696,-3.76655 -3.8555,-4.10623 -8.5573,-1.36863 -18.0575,3.59436 -28.5006,14.88899 l -17.4593,-22.08272 c 16.4353,-15.57845 32.9542,-23.36774 49.5568,-23.36787 7.1884,1.3e-4 14.2072,1.54127 21.0562,4.62342 6.1644,2.73761 10.7852,7.27483 13.8624,13.61167 2.2254,4.79071 3.3382,9.41151 3.3383,13.86243 z m -37.4889,37.4889 c -3.0772,1.37403 -5.8146,3.68574 -8.2125,6.93513 -3.0823,4.1115 -4.6235,8.39274 -4.6234,12.84371 -10e-5,2.90993 1.0265,4.36486 3.0797,4.36482 2.7374,4e-5 5.9895,-1.79969 9.7562,-5.39921 z"
         style="font-variant:normal;font-stretch:normal;fill:#000000;font-family:CodiceNeroCondensed;-inkscape-font-specification:CodiceNeroCondensed"
         id="path8574" />
      <path
         inkscape:connector-curvature="0"
         d="m 5932.2049,600.03143 35.9529,0 0,87.31215 c 0,5.8198 2.6539,8.72968 7.9617,8.72965 5.3078,3e-5 7.9617,-2.90985 7.9617,-8.72965 l 0,-87.31215 35.9452,0 0,123.77449 -29.2686,0 -3.5969,-5.64998 c -8.0453,5.47498 -15.0641,8.21246 -21.0562,8.21245 -11.3,10e-6 -20.1158,-3.76664 -26.4475,-11.29995 -4.9682,-5.64734 -7.4523,-11.63689 -7.4523,-17.96866 z"
         style="font-variant:normal;font-stretch:normal;fill:#000000;font-family:CodiceNeroCondensed;-inkscape-font-specification:CodiceNeroCondensed"
         id="path8576" />
      <path
         inkscape:connector-curvature="0"
         d="m 6090.2083,543.28872 0,54.18024 18.4859,0 0,26.44754 -18.4859,0 0,66.76535 c 0,3.59429 1.7971,5.39141 5.3914,5.39138 2.9098,3e-5 6.4205,-1.02913 10.532,-3.08751 3.5942,-1.70827 5.8197,-3.2468 6.6765,-4.61558 l 6.1594,28.24205 c -10.0985,5.64738 -20.2831,8.47106 -30.5538,8.47105 -10.1037,10e-6 -18.4937,-2.69568 -25.1702,-8.08707 -6.6766,-5.39136 -10.0148,-12.70785 -10.0148,-21.9495 l 0,-71.38877 -18.4859,0 0,-26.18894 18.4859,0 0,-36.97954 z"
         style="font-variant:normal;font-stretch:normal;fill:#000000;font-family:CodiceNeroCondensed;-inkscape-font-specification:CodiceNeroCondensed"
         id="path8578" />
      <path
         inkscape:connector-curvature="0"
         d="m 6183.2488,597.71972 c 15.0614,1.4e-4 26.9595,6.84906 35.6944,20.5468 7.7004,12.15161 11.5506,26.7872 11.5507,43.90684 -1e-4,16.4354 -3.8503,30.64523 -11.5507,42.62951 -9.0745,13.69266 -21.2312,20.53898 -36.4702,20.53897 -14.0322,10e-6 -25.4993,-6.16194 -34.4013,-18.48585 -8.5625,-11.81189 -12.8438,-26.70609 -12.8438,-44.68263 0,-16.94724 3.6805,-31.32685 11.0414,-43.13888 8.5624,-14.20971 20.8889,-21.31462 36.9795,-21.31476 z m -0.5172,95.5246 c 4.6234,4e-5 7.8755,-3.07963 9.7562,-9.23901 1.2015,-4.45097 1.8023,-11.81448 1.8024,-22.09055 -1e-4,-8.89674 -0.3423,-15.22847 -1.0266,-18.99521 -1.7136,-8.21758 -5.2242,-12.32641 -10.532,-12.32652 -4.7906,1.1e-4 -8.0427,3.25217 -9.7562,9.75621 -1.1963,4.27871 -1.7945,11.46721 -1.7945,21.56552 0,10.96044 0.512,18.40754 1.5359,22.34131 1.7135,5.99221 5.0518,8.98829 10.0148,8.98825 z"
         style="font-variant:normal;font-stretch:normal;fill:#000000;font-family:CodiceNeroCondensed;-inkscape-font-specification:CodiceNeroCondensed"
         id="path8580" />
      <path
         inkscape:connector-curvature="0"
         d="m 6287.3699,597.97832 c 8.2176,1.3e-4 16.8636,2.74023 25.9381,8.22029 6.6765,4.27874 11.9817,8.89955 15.9156,13.86243 l -24.6452,17.97649 c -5.3079,-6.16446 -10.1873,-9.24674 -14.6382,-9.24685 -3.7667,1.1e-4 -5.6501,1.88343 -5.65,5.64998 -1e-4,3.08238 3.7666,7.36361 11.3,12.84371 11.8118,8.38493 18.9167,13.7763 21.3147,16.17414 7.8728,7.18857 11.979,14.54947 12.3187,22.08272 0.6843,13.1807 -3.3384,23.1955 -12.0679,30.0444 -7.1886,5.64738 -16.8586,8.72966 -29.01,9.24685 -7.0214,0.33958 -14.2125,-1.28776 -21.5734,-4.88202 -9.7588,-4.79058 -18.0601,-12.32388 -24.9038,-22.59991 l 27.4741,-17.4593 c 4.963,9.07449 10.1846,13.61171 15.6648,13.61167 1.7083,4e-5 3.1632,-0.68433 4.3648,-2.05311 3.2494,-3.59421 1.6221,-8.04523 -4.882,-13.35307 l -22.5999,-18.48586 c -9.2417,-9.24676 -13.5203,-18.66338 -12.8359,-28.24989 0.8568,-11.81181 6.1646,-20.71385 15.9234,-26.70614 7.1885,-4.45089 14.7191,-6.6764 22.5921,-6.67653 z"
         style="font-variant:normal;font-stretch:normal;fill:#000000;font-family:CodiceNeroCondensed;-inkscape-font-specification:CodiceNeroCondensed"
         id="path8582" />
      <path
         inkscape:connector-curvature="0"
         d="m 6393.1287,543.28872 0,54.18024 18.4858,0 0,26.44754 -18.4858,0 0,66.76535 c -1e-4,3.59429 1.797,5.39141 5.3914,5.39138 2.9098,3e-5 6.4204,-1.02913 10.532,-3.08751 3.5941,-1.70827 5.8196,-3.2468 6.6765,-4.61558 l 6.1593,28.24205 c -10.0984,5.64738 -20.283,8.47106 -30.5537,8.47105 -10.1037,10e-6 -18.4938,-2.69568 -25.1703,-8.08707 -6.6765,-5.39136 -10.0148,-12.70785 -10.0148,-21.9495 l 0,-71.38877 -18.4858,0 0,-26.18894 18.4858,0 0,-36.97954 z"
         style="font-variant:normal;font-stretch:normal;fill:#000000;font-family:CodiceNeroCondensed;-inkscape-font-specification:CodiceNeroCondensed"
         id="path8584" />
      <path
         inkscape:connector-curvature="0"
         d="m 6486.1692,597.71972 c 15.0613,1.4e-4 26.9594,6.84906 35.6944,20.5468 7.7004,12.15161 11.5506,26.7872 11.5507,43.90684 -1e-4,16.4354 -3.8503,30.64523 -11.5507,42.62951 -9.0746,13.69266 -21.2313,20.53898 -36.4702,20.53897 -14.0323,10e-6 -25.4994,-6.16194 -34.4014,-18.48585 -8.5625,-11.81189 -12.8437,-26.70609 -12.8437,-44.68263 0,-16.94724 3.6804,-31.32685 11.0414,-43.13888 8.5624,-14.20971 20.8889,-21.31462 36.9795,-21.31476 z m -0.5172,95.5246 c 4.6234,4e-5 7.8754,-3.07963 9.7562,-9.23901 1.2015,-4.45097 1.8023,-11.81448 1.8023,-22.09055 0,-8.89674 -0.3422,-15.22847 -1.0265,-18.99521 -1.7136,-8.21758 -5.2243,-12.32641 -10.532,-12.32652 -4.7907,1.1e-4 -8.0427,3.25217 -9.7562,9.75621 -1.1964,4.27871 -1.7946,11.46721 -1.7945,21.56552 -1e-4,10.96044 0.5119,18.40754 1.5359,22.34131 1.7135,5.99221 5.0517,8.98829 10.0148,8.98825 z"
         style="font-variant:normal;font-stretch:normal;fill:#000000;font-family:CodiceNeroCondensed;-inkscape-font-specification:CodiceNeroCondensed"
         id="path8586" />
      <path
         inkscape:connector-curvature="0"
         d="m 6608.7839,597.71972 c 11.4671,1.4e-4 20.7949,6.76286 27.9835,20.2882 6.3368,11.63964 9.5053,24.82029 9.5054,39.54202 -10e-5,21.05882 -4.4511,38.00874 -13.3531,50.8498 -7.8782,11.29475 -16.9526,16.94211 -27.2233,16.9421 -4.1063,10e-6 -9.1555,-1.19895 -15.1476,-3.59687 l 0,50.33261 -35.6944,0 0,-171.01959 31.3296,0 1.2851,5.39921 c -0.3448,-0.17227 1.7945,-1.67161 6.418,-4.49804 4.6233,-2.82616 9.5889,-4.2393 14.8968,-4.23944 z m -18.2351,42.88812 0,48.27166 c 0,1.36878 0.6843,2.65263 2.0531,3.85154 1.3687,1.199 2.9099,1.79847 4.6234,1.79843 7.1885,4e-5 10.8689,-10.52672 11.0414,-31.58032 0.1723,-20.02951 -3.4219,-30.0443 -10.7828,-30.0444 -4.6234,10e-5 -6.9351,2.56779 -6.9351,7.70309 z"
         style="font-variant:normal;font-stretch:normal;fill:#000000;font-family:CodiceNeroCondensed;-inkscape-font-specification:CodiceNeroCondensed"
         id="path8588" />
    </g>
    <rect
       y="-1127.6378"
       x="1350.0002"
       height="350"
       width="1500"
       id="rect8489"
       style="fill:#ffffff;fill-opacity:1;stroke:none" />
    <rect
       style="fill:#ffffff;fill-opacity:1;stroke:none"
       id="rect8491"
       width="1500"
       height="350"
       x="1350.0002"
       y="-1632.6378" />
    <g
       transform="translate(-3999.9236,35.000031)"
       style="font-size:156.02458191px;font-style:normal;font-weight:normal;line-height:125%;letter-spacing:0px;word-spacing:0px;fill:#000000;fill-opacity:1;stroke:none;font-family:Sans"
       id="text8497">
      <path
         inkscape:connector-curvature="0"
         d="m 5811.1999,-1044.8233 c 8.8404,10e-5 16.589,0.7287 23.2456,2.1856 l -5.1472,21.5314 c -3.4315,-1.1426 -6.4487,-1.714 -9.0516,-1.7141 -4.8885,10e-5 -7.3327,1.4555 -7.3327,4.3663 l 0,6.3994 16.2272,0 0,19.18883 -16.2272,0 0,60.07099 -25.4311,0 0,-59.60436 -11.699,0 0,-19.65546 11.8561,0 0,-12.6417 c 0,-6.9676 2.7569,-12.2719 8.2707,-15.913 4.3679,-2.8091 9.4642,-4.2138 15.2892,-4.2139 z"
         style="font-variant:normal;font-stretch:normal;text-align:center;text-anchor:middle;fill:#000000;font-family:CodiceNero;-inkscape-font-specification:CodiceNero"
         id="path8591" />
      <path
         inkscape:connector-curvature="0"
         d="m 5847.4967,-1012.0547 25.1217,0 0,79.41695 -25.1217,0 z m -0.4666,-24.655 c 2.5998,-5.1994 6.8645,-7.7992 12.7941,-7.7993 2.2887,10e-5 4.4203,0.4683 6.3947,1.4046 5.3043,2.5999 7.9564,6.917 7.9565,12.9513 -1e-4,2.184 -0.4683,4.2632 -1.4047,6.2375 -2.5998,5.2029 -6.9153,7.8042 -12.9465,7.8041 -2.2887,10e-5 -4.4218,-0.4681 -6.3994,-1.4046 -5.1996,-2.5997 -7.7993,-6.8644 -7.7993,-12.7941 0,-2.2886 0.4682,-4.4218 1.4046,-6.3995 z"
         style="font-variant:normal;font-stretch:normal;text-align:center;text-anchor:middle;fill:#000000;font-family:CodiceNero;-inkscape-font-specification:CodiceNero"
         id="path8593" />
      <path
         inkscape:connector-curvature="0"
         d="m 5941.4791,-932.79488 0,-44.00095 c -10e-5,-3.84723 -1.0667,-7.07155 -3.1998,-9.67297 -2.1332,-2.6013 -5.1758,-3.90198 -9.1277,-3.90204 -4.368,6e-5 -7.6439,1.50945 -9.8278,4.52817 -1.5618,2.28875 -2.3426,4.9409 -2.3426,7.95646 l 0,45.09133 -24.9645,0 0,-79.10742 22.0028,0 1.2475,4.8377 c 5.5106,-4.3678 12.7386,-6.5518 21.6839,-6.5519 10.1959,10e-5 18.0491,3.9522 23.5599,11.8562 4.0567,5.82493 6.0851,11.70219 6.0851,17.63177 l 0,51.33365 z"
         style="font-variant:normal;font-stretch:normal;text-align:center;text-anchor:middle;fill:#000000;font-family:CodiceNero;-inkscape-font-specification:CodiceNero"
         id="path8595" />
      <path
         inkscape:connector-curvature="0"
         d="m 6051.241,-1001.9127 c 7.1771,7.79939 10.7656,16.95256 10.7657,27.45952 -1e-4,13.62425 -4.4203,24.65027 -13.2607,33.07809 -7.6978,7.27874 -16.4875,10.91811 -26.3692,10.9181 -14.6654,10e-6 -26.0025,-5.66775 -34.0113,-17.00329 -2.8093,-4.05676 -4.6822,-7.4898 -5.6186,-10.2991 -1.3522,-3.74568 -2.0284,-8.84206 -2.0284,-15.28916 0,-13.31624 4.4727,-23.9788 13.4179,-31.98766 7.4914,-6.7613 16.697,-10.1419 27.6167,-10.142 11.4434,10e-5 21.2727,4.4219 29.4879,13.2655 z m -46.3388,24.02649 0,8.58021 c -1e-4,4.26633 1.6649,7.95966 4.9948,11.07999 3.3298,3.12039 7.1263,4.68057 11.3895,4.68055 4.3678,2e-5 8.1643,-1.56016 11.3894,-4.68055 3.2251,-3.12033 4.8377,-6.81366 4.8377,-11.07999 l 0,-8.58021 c 0,-4.47258 -1.7681,-8.21669 -5.3043,-11.23236 -3.2252,-2.70447 -6.8661,-4.05673 -10.9228,-4.05679 -4.2632,6e-5 -8.0073,1.35232 -11.2324,4.05679 -3.4347,3.01567 -5.152,6.75978 -5.1519,11.23236 z"
         style="font-variant:normal;font-stretch:normal;text-align:center;text-anchor:middle;fill:#000000;font-family:CodiceNero;-inkscape-font-specification:CodiceNero"
         id="path8597" />
      <path
         inkscape:connector-curvature="0"
         d="m 6197.9045,-1008.3121 c 1.768,0.6254 3.8488,2.0824 6.2423,4.371 3.952,3.8474 5.928,8.21523 5.9281,13.10363 l 0,36.35399 c -10e-5,1.87288 1.1966,3.0696 3.5901,3.59017 0.2094,0.1016 1.8744,0.25714 4.9948,0.46662 -0.9365,2.70455 -3.641,9.10082 -8.1136,19.18882 -8.1136,0 -14.9273,-2.2871 -20.441,-6.86131 -7.282,4.78372 -14.5639,7.17557 -21.8458,7.17557 -7.593,0 -14.2757,-2.44423 -20.0482,-7.3327 -5.7726,-4.88845 -8.6588,-10.97363 -8.6588,-18.25556 0,-12.06558 7.4374,-20.38708 22.3124,-24.96451 5.5137,-0.83162 13.0035,-2.1315 22.4694,-3.89966 0,-4.57732 -2.9125,-6.86601 -8.7373,-6.86607 -5.8249,6e-5 -11.3911,1.50787 -16.6986,4.52342 -0.3111,0.20956 -2.495,1.8745 -6.5518,4.9948 l -11.8561,-17.94131 c 0.2063,-0.5205 1.7665,-1.6649 4.6806,-3.433 3.5361,-2.2886 7.4882,-4.3694 11.8561,-6.2423 5.2027,-2.2886 11.3402,-3.433 18.4127,-3.4331 8.1135,10e-5 15.6017,1.8206 22.4647,5.4615 z m -33.3876,50.70985 c 0.1047,1.66337 1.1967,3.06642 3.2759,4.20915 1.7681,1.04121 3.5885,1.5618 5.4614,1.56177 2.914,3e-5 5.4106,-0.64991 7.4899,-1.94983 2.0791,-1.29986 3.379,-2.78147 3.8996,-4.44485 l 0,-7.96122 c -4.3679,0.83489 -8.7358,1.66815 -13.1036,2.49979 -4.7869,1.03804 -7.128,3.06643 -7.0232,6.08519 z"
         style="font-variant:normal;font-stretch:normal;text-align:center;text-anchor:middle;fill:#000000;font-family:CodiceNero;-inkscape-font-specification:CodiceNero"
         id="path8599" />
      <path
         inkscape:connector-curvature="0"
         d="m 6339.7255,-1043.1044 0,110.30952 -25.9025,0 0,-72.08422 -18.8745,0 0,-22.1552 11.3894,0 c 6.7613,-1.2474 10.142,-5.5645 10.142,-12.9513 0,-1.0379 -0.052,-2.0775 -0.1571,-3.1188 z"
         style="font-variant:normal;font-stretch:normal;text-align:center;text-anchor:middle;fill:#000000;font-family:CodiceNero;-inkscape-font-specification:CodiceNero"
         id="path8601" />
      <path
         inkscape:connector-curvature="0"
         d="m 6406.8626,-1043.1044 31.6734,0 0,68.96072 13.2608,0 0,23.87412 -13.8845,0 0,17.47468 -25.7454,0 0,-17.63181 -54.7667,0 0,-27.77378 z m 5.4614,31.2021 -29.0213,37.75862 29.0213,0 z"
         style="font-variant:normal;font-stretch:normal;text-align:center;text-anchor:middle;fill:#000000;font-family:CodiceNero;-inkscape-font-specification:CodiceNero"
         id="path8603" />
      <path
         inkscape:connector-curvature="0"
         d="m 6506.2064,-1045.1328 c 11.8592,10e-5 21.5853,3.8998 29.1784,11.699 9.361,9.8818 14.0415,24.9646 14.0416,45.24848 -1e-4,16.53829 -2.9649,29.69587 -8.8944,39.47277 -7.3836,11.8593 -18.8255,17.78894 -34.3256,17.78894 -18.827,0 -31.464,-7.8009 -37.911,-23.40274 l 24.0265,-10.14198 c 2.3934,6.34552 6.9184,9.51825 13.575,9.51823 2.8092,2e-5 5.9296,-1.14432 9.3611,-3.43304 4.8884,-3.22508 7.3326,-7.64533 7.3327,-13.26076 -6.7614,3.84733 -13.5751,5.77097 -20.4411,5.77093 -9.9833,4e-5 -18.4604,-3.74407 -25.4312,-11.23236 -6.8629,-7.1771 -10.2943,-15.65413 -10.2943,-25.43117 0,-13.0019 3.4322,-23.3518 10.2967,-31.0496 6.8645,-7.6977 16.693,-11.5466 29.4856,-11.5467 z m -14.5083,39.9394 c 0,10.50712 5.0456,15.76063 15.1368,15.76057 4.5741,6e-5 8.2659,-1.76804 11.0752,-5.3043 2.3934,-3.01554 3.5901,-6.34387 3.5902,-9.98487 -10e-5,-4.4725 -1.3262,-8.3214 -3.9782,-11.5466 -2.6523,-3.225 -6.1639,-4.8376 -10.5348,-4.8377 -4.9933,1e-4 -8.7898,1.5341 -11.3895,4.602 -2.5998,3.0681 -3.8997,6.8384 -3.8997,11.3109 z"
         style="font-variant:normal;font-stretch:normal;text-align:center;text-anchor:middle;fill:#000000;font-family:CodiceNero;-inkscape-font-specification:CodiceNero"
         id="path8605" />
      <path
         inkscape:connector-curvature="0"
         d="m 6666.3973,-1013.6165 c 9.2563,10e-5 17.5254,3.0681 24.8073,9.204 6.1359,5.30439 9.8801,10.92136 11.2324,16.85094 l -21.841,7.95645 c -0.4159,-3.43139 -1.665,-6.34384 -3.7473,-8.73734 -2.5998,-2.91079 -6.136,-4.36622 -10.6086,-4.36629 -4.4726,7e-5 -8.139,1.63802 -10.999,4.91386 -2.8601,3.27597 -4.2901,7.4629 -4.2901,12.56082 l 0,5.92806 c 0,4.26633 1.1967,8.06283 3.5902,11.38949 2.806,4.05682 6.8104,6.08521 12.0132,6.08518 3.2251,3e-5 6.3716,-1.29986 9.4397,-3.89966 3.0679,-2.59974 4.6543,-5.92802 4.7591,-9.98485 l 22.1552,7.79933 c -1e-4,1.87288 -1.2492,4.73295 -3.7473,8.58021 -3.1204,4.99323 -7.0201,9.05002 -11.699,12.17037 -6.2408,4.16155 -13.3148,6.24232 -21.222,6.24232 -11.4403,0 -21.0617,-4.31708 -28.8641,-12.95126 -6.6566,-7.27871 -9.9849,-15.07962 -9.9849,-23.40274 l 0,-7.3327 c 0,-9.46578 3.2251,-17.9952 9.6754,-25.58829 7.4882,-8.9451 17.2651,-13.4178 29.3308,-13.4179 z"
         style="font-variant:normal;font-stretch:normal;text-align:center;text-anchor:middle;fill:#000000;font-family:CodiceNero;-inkscape-font-specification:CodiceNero"
         id="path8607" />
      <path
         inkscape:connector-curvature="0"
         d="m 6752.3326,-1013.6165 c 9.2563,10e-5 17.5254,3.0681 24.8074,9.204 6.1359,5.30439 9.88,10.92136 11.2324,16.85094 l -21.841,7.95645 c -0.4159,-3.43139 -1.665,-6.34384 -3.7473,-8.73734 -2.5998,-2.91079 -6.136,-4.36622 -10.6086,-4.36629 -4.4727,7e-5 -8.139,1.63802 -10.999,4.91386 -2.8601,3.27597 -4.2902,7.4629 -4.2901,12.56082 l 0,5.92806 c -1e-4,4.26633 1.1966,8.06283 3.5901,11.38949 2.8061,4.05682 6.8105,6.08521 12.0133,6.08518 3.225,3e-5 6.3716,-1.29986 9.4396,-3.89966 3.068,-2.59974 4.6543,-5.92802 4.7591,-9.98485 l 22.1553,7.79933 c -10e-5,1.87288 -1.2492,4.73295 -3.7473,8.58021 -3.1205,4.99323 -7.0201,9.05002 -11.699,12.17037 -6.2408,4.16155 -13.3148,6.24232 -21.222,6.24232 -11.4403,0 -21.0617,-4.31708 -28.8642,-12.95126 -6.6565,-7.27871 -9.9848,-15.07962 -9.9848,-23.40274 l 0,-7.3327 c 0,-9.46578 3.2251,-17.9952 9.6753,-25.58829 7.4883,-8.9451 17.2652,-13.4178 29.3308,-13.4179 z"
         style="font-variant:normal;font-stretch:normal;text-align:center;text-anchor:middle;fill:#000000;font-family:CodiceNero;-inkscape-font-specification:CodiceNero"
         id="path8609" />
    </g>
    <g
       transform="translate(-3999.9236,70.0001)"
       style="font-size:156.02458191px;font-style:normal;font-weight:normal;line-height:125%;letter-spacing:0px;word-spacing:0px;fill:#000000;fill-opacity:1;stroke:none;font-family:Sans"
       id="text8501">
      <path
         inkscape:connector-curvature="0"
         d="m 5807.7634,-1584.8233 c 8.8404,10e-5 16.589,0.7287 23.2456,2.1856 l -5.1472,21.5314 c -3.4315,-1.1426 -6.4487,-1.714 -9.0516,-1.7141 -4.8885,10e-5 -7.3327,1.4555 -7.3327,4.3663 l 0,6.3994 16.2272,0 0,19.1888 -16.2272,0 0,60.071 -25.4311,0 0,-59.6043 -11.699,0 0,-19.6555 11.8561,0 0,-12.6417 c 0,-6.9676 2.7569,-12.2719 8.2707,-15.913 4.3679,-2.8091 9.4642,-4.2138 15.2892,-4.2139 z"
         style="font-variant:normal;font-stretch:normal;text-align:center;word-spacing:-10px;text-anchor:middle;fill:#000000;font-family:CodiceNero;-inkscape-font-specification:CodiceNero"
         id="path8612" />
      <path
         inkscape:connector-curvature="0"
         d="m 5844.0602,-1552.0547 25.1217,0 0,79.4169 -25.1217,0 z m -0.4666,-24.655 c 2.5998,-5.1994 6.8645,-7.7992 12.7941,-7.7993 2.2887,10e-5 4.4203,0.4683 6.3947,1.4046 5.3043,2.5999 7.9564,6.917 7.9565,12.9513 -1e-4,2.184 -0.4683,4.2632 -1.4047,6.2375 -2.5998,5.2029 -6.9153,7.8042 -12.9465,7.8041 -2.2887,10e-5 -4.4218,-0.4681 -6.3994,-1.4046 -5.1996,-2.5997 -7.7993,-6.8644 -7.7993,-12.7941 0,-2.2886 0.4682,-4.4218 1.4046,-6.3995 z"
         style="font-variant:normal;font-stretch:normal;text-align:center;word-spacing:-10px;text-anchor:middle;fill:#000000;font-family:CodiceNero;-inkscape-font-specification:CodiceNero"
         id="path8614" />
      <path
         inkscape:connector-curvature="0"
         d="m 5938.0426,-1472.7949 0,-44.0009 c -1e-4,-3.8473 -1.0667,-7.0716 -3.1998,-9.673 -2.1332,-2.6013 -5.1757,-3.902 -9.1277,-3.902 -4.368,0 -7.6439,1.5094 -9.8278,4.5281 -1.5618,2.2888 -2.3426,4.9409 -2.3426,7.9565 l 0,45.0913 -24.9645,0 0,-79.1074 22.0028,0 1.2476,4.8377 c 5.5105,-4.3678 12.7385,-6.5518 21.6838,-6.5519 10.1959,10e-5 18.0491,3.9522 23.5599,11.8562 4.0567,5.8249 6.0851,11.7022 6.0851,17.6318 l 0,51.3336 z"
         style="font-variant:normal;font-stretch:normal;text-align:center;word-spacing:-10px;text-anchor:middle;fill:#000000;font-family:CodiceNero;-inkscape-font-specification:CodiceNero"
         id="path8616" />
      <path
         inkscape:connector-curvature="0"
         d="m 6047.8045,-1541.9127 c 7.1771,7.7994 10.7656,16.9526 10.7657,27.4595 -1e-4,13.6243 -4.4203,24.6503 -13.2607,33.0781 -7.6978,7.2788 -16.4875,10.9181 -26.3692,10.9181 -14.6654,0 -26.0025,-5.6677 -34.0113,-17.0033 -2.8093,-4.0567 -4.6821,-7.4898 -5.6186,-10.2991 -1.3522,-3.7457 -2.0284,-8.842 -2.0284,-15.2891 0,-13.3163 4.4727,-23.9788 13.4179,-31.9877 7.4914,-6.7613 16.697,-10.1419 27.6167,-10.142 11.4434,10e-5 21.2727,4.4219 29.4879,13.2655 z m -46.3388,24.0265 0,8.5802 c -10e-5,4.2663 1.6649,7.9597 4.9948,11.08 3.3298,3.1204 7.1263,4.6806 11.3895,4.6805 4.3678,10e-5 8.1643,-1.5601 11.3894,-4.6805 3.2251,-3.1203 4.8377,-6.8137 4.8377,-11.08 l 0,-8.5802 c 0,-4.4726 -1.7681,-8.2167 -5.3043,-11.2324 -3.2252,-2.7044 -6.8661,-4.0567 -10.9228,-4.0568 -4.2632,10e-5 -8.0073,1.3524 -11.2324,4.0568 -3.4347,3.0157 -5.152,6.7598 -5.1519,11.2324 z"
         style="font-variant:normal;font-stretch:normal;text-align:center;word-spacing:-10px;text-anchor:middle;fill:#000000;font-family:CodiceNero;-inkscape-font-specification:CodiceNero"
         id="path8618" />
      <path
         inkscape:connector-curvature="0"
         d="m 6184.468,-1548.3121 c 1.768,0.6254 3.8488,2.0824 6.2423,4.371 3.952,3.8474 5.928,8.2152 5.9281,13.1036 l 0,36.354 c -1e-4,1.8729 1.1966,3.0696 3.5901,3.5902 0.2095,0.1016 1.8744,0.2571 4.9948,0.4666 -0.9365,2.7046 -3.641,9.1008 -8.1135,19.1888 -8.1137,0 -14.9274,-2.2871 -20.4411,-6.8613 -7.282,4.7837 -14.5639,7.1756 -21.8458,7.1756 -7.593,0 -14.2757,-2.4442 -20.0482,-7.3327 -5.7726,-4.8885 -8.6588,-10.9736 -8.6588,-18.2556 0,-12.0656 7.4374,-20.387 22.3124,-24.9645 5.5137,-0.8316 13.0035,-2.1315 22.4694,-3.8996 0,-4.5774 -2.9125,-6.866 -8.7373,-6.8661 -5.8249,10e-5 -11.3911,1.5079 -16.6986,4.5234 -0.3111,0.2096 -2.495,1.8745 -6.5518,4.9948 l -11.8561,-17.9413 c 0.2063,-0.5205 1.7665,-1.6649 4.6806,-3.433 3.5361,-2.2886 7.4882,-4.3694 11.8561,-6.2423 5.2027,-2.2886 11.3402,-3.433 18.4127,-3.4331 8.1135,10e-5 15.6017,1.8206 22.4647,5.4615 z m -33.3876,50.7098 c 0.1047,1.6634 1.1967,3.0665 3.2759,4.2092 1.7681,1.0412 3.5885,1.5618 5.4614,1.5618 2.914,0 5.4106,-0.6499 7.4899,-1.9499 2.0791,-1.2998 3.379,-2.7814 3.8996,-4.4448 l 0,-7.9612 c -4.3679,0.8349 -8.7358,1.6681 -13.1036,2.4998 -4.7869,1.038 -7.128,3.0664 -7.0232,6.0851 z"
         style="font-variant:normal;font-stretch:normal;text-align:center;word-spacing:-10px;text-anchor:middle;fill:#000000;font-family:CodiceNero;-inkscape-font-specification:CodiceNero"
         id="path8620" />
      <path
         inkscape:connector-curvature="0"
         d="m 6315.0415,-1584.509 c 16.0176,10e-5 27.5118,5.5647 34.4828,16.6938 4.263,6.8661 6.3945,14.356 6.3946,22.4695 -10e-5,7.6978 -2.1316,14.8226 -6.3946,21.3743 -3.0189,4.7838 -7.7518,9.8801 -14.1988,15.2892 -4.8885,4.1615 -9.8294,8.3231 -14.8225,12.4846 l 34.4779,0 0,23.4027 -79.1026,0 0,-20.7506 c -1e-4,-1.0411 4.6281,-4.7344 13.8845,-11.08 11.7545,-8.2182 20.3363,-14.8224 25.7454,-19.8125 9.2562,-8.5294 13.8844,-15.8637 13.8845,-22.0029 -1e-4,-3.9519 -1.2476,-7.2278 -3.7426,-9.8277 -2.9109,-2.9139 -6.9153,-4.371 -12.0132,-4.3711 -5.3044,10e-5 -9.3611,1.8206 -12.1704,5.4615 -2.3935,3.1204 -3.5902,7.1772 -3.5902,12.1704 0,1.2475 0.052,2.4443 0.1572,3.5901 l -26.5215,0 c -0.2096,-1.4569 -0.3143,-3.1219 -0.3143,-4.9948 0,-9.8816 2.6521,-18.3062 7.9565,-25.274 7.4882,-9.8816 19.4506,-14.8224 35.8873,-14.8225 z"
         style="font-variant:normal;font-stretch:normal;text-align:center;word-spacing:-10px;text-anchor:middle;fill:#000000;font-family:CodiceNero;-inkscape-font-specification:CodiceNero"
         id="path8622" />
      <path
         inkscape:connector-curvature="0"
         d="m 6420.2991,-1583.1044 31.6734,0 0,68.9607 13.2608,0 0,23.8741 -13.8845,0 0,17.4747 -25.7454,0 0,-17.6318 -54.7667,0 0,-27.7738 z m 5.4614,31.2021 -29.0213,37.7586 29.0213,0 z"
         style="font-variant:normal;font-stretch:normal;text-align:center;word-spacing:-10px;text-anchor:middle;fill:#000000;font-family:CodiceNero;-inkscape-font-specification:CodiceNero"
         id="path8624" />
      <path
         inkscape:connector-curvature="0"
         d="m 6519.6429,-1585.1328 c 11.8592,10e-5 21.5853,3.8998 29.1784,11.699 9.361,9.8818 14.0415,24.9646 14.0416,45.2485 -1e-4,16.5383 -2.9649,29.6959 -8.8944,39.4728 -7.3836,11.8593 -18.8255,17.7889 -34.3256,17.7889 -18.827,0 -31.464,-7.8009 -37.911,-23.4027 l 24.0264,-10.142 c 2.3934,6.3455 6.9184,9.5182 13.5751,9.5182 2.8092,0 5.9295,-1.1443 9.3611,-3.433 4.8884,-3.2251 7.3326,-7.6454 7.3326,-13.2608 -6.7613,3.8473 -13.575,5.771 -20.441,5.7709 -9.9833,10e-5 -18.4604,-3.744 -25.4312,-11.2323 -6.8629,-7.1771 -10.2943,-15.6542 -10.2943,-25.4312 0,-13.0019 3.4322,-23.3518 10.2967,-31.0496 6.8645,-7.6977 16.693,-11.5466 29.4856,-11.5467 z m -14.5083,39.9394 c 0,10.5071 5.0455,15.7606 15.1368,15.7606 4.5741,0 8.2659,-1.7681 11.0752,-5.3043 2.3934,-3.0156 3.5901,-6.3439 3.5902,-9.9849 -1e-4,-4.4725 -1.3262,-8.3214 -3.9783,-11.5466 -2.6522,-3.225 -6.1638,-4.8376 -10.5348,-4.8377 -4.9932,10e-5 -8.7897,1.5341 -11.3895,4.602 -2.5998,3.0681 -3.8996,6.8384 -3.8996,11.3109 z"
         style="font-variant:normal;font-stretch:normal;text-align:center;word-spacing:-10px;text-anchor:middle;fill:#000000;font-family:CodiceNero;-inkscape-font-specification:CodiceNero"
         id="path8626" />
      <path
         inkscape:connector-curvature="0"
         d="m 6669.8338,-1553.6165 c 9.2562,10e-5 17.5254,3.0681 24.8073,9.204 6.1359,5.3044 9.88,10.9214 11.2324,16.8509 l -21.841,7.9565 c -0.4159,-3.4314 -1.665,-6.3438 -3.7473,-8.7373 -2.5998,-2.9108 -6.136,-4.3663 -10.6086,-4.3663 -4.4726,0 -8.139,1.638 -10.999,4.9138 -2.8601,3.276 -4.2902,7.4629 -4.2901,12.5608 l 0,5.9281 c -1e-4,4.2663 1.1967,8.0628 3.5901,11.3895 2.8061,4.0568 6.8105,6.0852 12.0133,6.0852 3.2251,0 6.3716,-1.2999 9.4396,-3.8997 3.068,-2.5997 4.6543,-5.928 4.7592,-9.9848 l 22.1552,7.7993 c -1e-4,1.8729 -1.2492,4.7329 -3.7473,8.5802 -3.1205,4.9932 -7.0201,9.05 -11.699,12.1704 -6.2408,4.1615 -13.3148,6.2423 -21.222,6.2423 -11.4403,0 -21.0617,-4.3171 -28.8641,-12.9513 -6.6566,-7.2787 -9.9849,-15.0796 -9.9849,-23.4027 l 0,-7.3327 c 0,-9.4658 3.2251,-17.9952 9.6754,-25.5883 7.4882,-8.9451 17.2651,-13.4178 29.3308,-13.4179 z"
         style="font-variant:normal;font-stretch:normal;text-align:center;word-spacing:-10px;text-anchor:middle;fill:#000000;font-family:CodiceNero;-inkscape-font-specification:CodiceNero"
         id="path8628" />
      <path
         inkscape:connector-curvature="0"
         d="m 6755.7692,-1553.6165 c 9.2563,10e-5 17.5254,3.0681 24.8074,9.204 6.1359,5.3044 9.88,10.9214 11.2323,16.8509 l -21.8409,7.9565 c -0.4159,-3.4314 -1.665,-6.3438 -3.7473,-8.7373 -2.5999,-2.9108 -6.1361,-4.3663 -10.6086,-4.3663 -4.4727,0 -8.1391,1.638 -10.9991,4.9138 -2.8601,3.276 -4.2901,7.4629 -4.2901,12.5608 l 0,5.9281 c 0,4.2663 1.1967,8.0628 3.5902,11.3895 2.806,4.0568 6.8104,6.0852 12.0132,6.0852 3.2251,0 6.3716,-1.2999 9.4397,-3.8997 3.0679,-2.5997 4.6543,-5.928 4.7591,-9.9848 l 22.1552,7.7993 c -1e-4,1.8729 -1.2492,4.7329 -3.7473,8.5802 -3.1204,4.9932 -7.0201,9.05 -11.699,12.1704 -6.2408,4.1615 -13.3148,6.2423 -21.2219,6.2423 -11.4404,0 -21.0617,-4.3171 -28.8642,-12.9513 -6.6566,-7.2787 -9.9849,-15.0796 -9.9849,-23.4027 l 0,-7.3327 c 0,-9.4658 3.2251,-17.9952 9.6754,-25.5883 7.4882,-8.9451 17.2651,-13.4178 29.3308,-13.4179 z"
         style="font-variant:normal;font-stretch:normal;text-align:center;word-spacing:-10px;text-anchor:middle;fill:#000000;font-family:CodiceNero;-inkscape-font-specification:CodiceNero"
         id="path8630" />
    </g>
    <path
       sodipodi:type="arc"
       style="fill:none;stroke:#d40000;stroke-width:54.16794205;stroke-miterlimit:4;stroke-opacity:1;stroke-dasharray:none"
       id="path8513"
       sodipodi:cx="1450.5791"
       sodipodi:cy="727.09308"
       sodipodi:rx="169.70563"
       sodipodi:ry="195.96959"
       d="m 1620.2847,727.09308 a 169.70563,195.96959 0 1 1 -339.4112,0 169.70563,195.96959 0 1 1 339.4112,0 z"
       transform="matrix(0.76958815,0,0,0.66644753,443.6515,-932.20722)" />
    <path
       inkscape:connector-curvature="0"
       id="path8515"
       d="m 1530.1779,-493.80162 c -1.3672,0 -2.5684,0.2926 -3.5884,0.8729 -1.0199,0.5803 -1.813,1.4811 -2.182,2.4731 -0.7382,1.984 -0.2943,3.9945 0.2909,5.8189 0.9655,3.0103 2.3368,4.8807 2.9095,5.7705 l -13.9171,23.9547 c -4.6904,-2.4712 -10.0453,-3.8793 -15.7112,-3.8793 -18.6276,0 -33.75,15.1224 -33.75,33.75 0,18.6276 15.1224,33.75 33.75,33.75 18.6276,0 33.75,-15.1224 33.75,-33.75 0,-11.4906 -5.7657,-21.6408 -14.5474,-27.7371 l 4.7522,-8.2435 38.5991,31.083 c -0.5187,0.9518 -0.7896,2.0476 -0.7273,3.1519 l 0.2909,6.2554 c 0.1812,3.3074 3.043,5.8646 6.3524,5.722 l 23.0818,-1.1638 c 3.9662,14.2279 17.0036,24.6821 32.4893,24.6821 18.6276,0 33.75,-15.1224 33.75,-33.75 0,-18.6276 -15.1224,-33.75 -33.75,-33.75 -5.5495,0 -10.8002,1.3567 -15.4203,3.7339 l -8.7769,-14.4505 5.0916,-8.583 c 0.6477,0.073 1.259,0.1507 1.8912,0.1455 2.57,-0.021 4.9916,-1.3709 6.3523,-3.1034 0.3402,-0.4331 0.7014,-0.864 0.8244,-1.4547 0.1229,-0.5908 -0.024,-1.3354 -0.4365,-1.8912 -0.8248,-1.1117 -2.1189,-1.4063 -3.9277,-1.4063 -5.3318,0 -10.3038,0.7524 -15.4688,2.0367 -0.624,0.1001 -1.0318,0.6298 -1.0668,1.2608 -0.035,0.6309 0.3123,1.1891 0.9213,1.3577 2.1988,0.7546 4.4321,1.6442 6.6918,2.2791 l -4.9946,8.4375 -66.3847,0 4.3157,-7.3707 c 0.3764,-0.6614 0.324,-1.4512 -0.097,-2.0851 0,0 -2.0455,-3.1679 -2.958,-6.0129 -0.4563,-1.4226 -0.5558,-2.6523 -0.3879,-3.1035 0.084,-0.2256 0.1594,-0.3065 0.3879,-0.4364 0.2284,-0.13 0.7179,-0.291 1.6002,-0.291 l 18.3297,0 c 1.1263,0 2.0367,-0.9103 2.0367,-2.0366 0,-1.1263 -0.9104,-2.0367 -2.0367,-2.0367 l -18.3297,0 z m -5.0916,27.3977 66.1907,0 -19.9299,33.556 -5.0431,-0.3879 c -0.2238,-0.012 -0.5036,-0.012 -0.7274,0 -0.7306,0.029 -1.3942,0.2413 -2.0366,0.5334 l -39.569,-31.9073 1.1153,-1.7942 z m 70.4095,0.7759 7.6131,12.6077 c -7.2189,4.891 -12.449,12.5293 -14.2079,21.3847 l -13.1412,-0.9213 19.736,-33.0711 z m -97.5162,12.3168 c 4.6825,0 9.105,1.1331 12.9957,3.1519 l -11.9773,20.6088 c -0.3061,-0.063 -0.5969,-0.1455 -0.9214,-0.1455 -2.5961,0 -4.7036,2.1076 -4.7036,4.7037 0,2.5961 2.1075,4.7522 4.7036,4.7522 2.5961,0 4.7037,-2.1561 4.7037,-4.7522 0,-0.7648 -0.1606,-1.4466 -0.4849,-2.0851 l 12.1228,-20.9483 c 7.1641,5.1307 11.8319,13.5095 11.8319,22.9849 0,15.6027 -12.6678,28.2705 -28.2705,28.2705 -15.6026,0 -28.2704,-12.6678 -28.2704,-28.2705 0,-15.6026 12.6678,-28.2704 28.2704,-28.2704 z m 124.041,0 c 15.6026,0 28.2705,12.6678 28.2705,28.2704 0,15.6027 -12.6679,28.2705 -28.2705,28.2705 -12.5156,0 -23.1489,-8.1667 -26.8643,-19.4451 l 24.1488,-1.2122 0.8243,0 c 3.3108,-0.018 6.0384,-2.7022 6.0614,-6.0129 0.018,-2.5659 -1.6136,-4.7436 -3.8793,-5.625 l -12.8987,-21.2878 c 3.7956,-1.8957 8.08,-2.9579 12.6078,-2.9579 z m -16.0506,5.0431 11.25,18.5721 -22.791,-1.5517 c 1.5833,-7.0223 5.8042,-13.0507 11.541,-17.0204 z"
       style="fill:#000000;fill-opacity:1;fill-rule:evenodd;stroke:none" />
    <path
       sodipodi:type="arc"
       style="fill:none;stroke:#d40000;stroke-width:54.16794205;stroke-miterlimit:4;stroke-opacity:1;stroke-dasharray:none"
       id="path8517"
       sodipodi:cx="1450.5791"
       sodipodi:cy="727.09308"
       sodipodi:rx="169.70563"
       sodipodi:ry="195.96959"
       d="m 1620.2847,727.09308 a 169.70563,195.96959 0 1 1 -339.4112,0 169.70563,195.96959 0 1 1 339.4112,0 z"
       transform="matrix(0.76958815,0,0,0.66644753,1523.6515,-932.20722)" />
    <path
       inkscape:connector-curvature="0"
       id="path8519"
       d="m 2671.4065,-516.11102 c -3.316,-0.162 -6.137,2.3889 -6.3,5.7123 -0.162,3.3154 2.397,6.1372 5.713,6.2992 3.331,0.1628 6.137,-2.3969 6.299,-5.7123 0.162,-3.3234 -2.381,-6.1364 -5.712,-6.2992 z m 2.941,14.3201 c -0.494,-0.015 -0.828,0.057 -0.83,0.1051 -3.005,-0.1468 -4.356,0.7096 -4.356,0.7096 0,0 -22.051,7.7665 -22.226,7.7499 -4.401,1.4706 -2.915,6.2661 -2.54,6.2844 1.531,3.6618 4.984,2.3311 4.984,2.3311 0,0 10.726,-3.8072 11.117,-3.9718 1.912,-0.8573 1.796,1.0102 1.796,1.0102 0,0 -0.405,4.6894 -0.23,4.698 -0.07,1.5063 -1.371,1.2438 -1.371,1.2438 0,0 -13.502,-0.8434 -13.319,-0.6508 -3.954,-0.1931 -3.963,3.5932 -3.963,3.5932 0,0 -1.247,25.5141 -1.238,25.3308 -0.183,3.7617 4.173,3.0327 4.155,3.4073 4.495,0.2196 5.076,-3.5388 5.076,-3.5388 l 0.862,-17.6299 c 0.07,-1.5063 1.574,-1.428 1.574,-1.428 0,0 20.817,1.2088 20.827,1.0176 2.638,0.1289 2.791,-2.4853 2.791,-2.4853 0,0 1.333,-23.6754 1.158,-23.684 0.165,-3.3832 -2.784,-4.0484 -4.267,-4.0924 z m 66.979,35.1695 c -0.233,0.01 -0.39,0.03 -0.39,0.03 0,0 -85.107,-3.9667 -85.098,-4.158 -2.63,-0.1285 -2.588,2.301 -2.588,2.301 l -0.523,10.7038 c -0.138,2.8213 0.765,4.2126 0.765,4.2126 l 4.604,20.0331 c 0,0 -41.798,-2.0424 -41.798,-2.0424 0,0 2.086,6.9959 2.086,6.9959 l 49.789,2.4329 c -0.2,1.0966 -0.352,2.2339 -0.407,3.3785 -0.685,14.0028 10.12,25.9343 24.139,26.6192 13.995,0.6838 25.935,-10.1362 26.619,-24.1391 0.06,-1.1446 0.02,-2.2912 -0.08,-3.4022 l 25.379,1.2401 0.303,-6.1995 c 0,0 -13.368,-0.6532 -13.368,-0.6532 4.059,-11.815 7.652,-23.7546 11.787,-35.5447 0.782,-1.6514 -0.525,-1.8235 -1.223,-1.8075 z m -68.6,40.7308 13.271,0.6484 c -0.532,1.0122 -0.881,2.1359 -0.941,3.3525 -0.217,4.4471 3.222,8.2652 7.694,8.4837 4.463,0.218 8.266,-3.2461 8.483,-7.6932 0.06,-1.2181 -0.178,-2.368 -0.609,-3.4283 l 13.222,0.6461 c 0.11,1.051 0.188,2.1224 0.135,3.2108 -0.563,11.5163 -10.346,20.4192 -21.847,19.8573 -11.516,-0.5548 -20.418,-10.3706 -19.855,-21.8949 0.05,-1.0884 0.235,-2.1471 0.447,-3.1824 z"
       style="fill:#000000" />
    <path
       inkscape:connector-curvature="0"
       sodipodi:nodetypes="cscccscccccccccccccccccccccccccsccccccccccccccccccccccsccscscssccccccccccccscc"
       id="path8521"
       d="m 2538.7005,-481.31022 c -1.261,0.348 0.243,3.4914 0.243,3.4914 1.699,3.2077 -0.921,3.7363 -0.921,3.9278 -4.325,1.3166 -2.261,5.2856 -2.086,5.2856 0.95,4.8833 -1.306,16.5251 -1.115,16.3416 -2.442,5.8408 4.86,7.3706 5.043,7.3706 7.333,0 5.857,-4.7036 5.674,-4.7036 -1.325,-2.8247 0.56,-6.2174 0.727,-6.4009 2.258,-3.3832 5.865,0 5.674,0 3.016,3.0082 3.752,6.013 3.927,6.013 1.7,3.7662 5.092,6.5647 5.092,6.7403 -0.934,6.7743 1.126,8.292 1.309,8.292 1.692,2.4416 -0.911,3.2004 -0.727,3.2004 -7.9,5.0668 -9.777,9.2134 -9.601,9.2134 -3.192,5.2663 -0.585,6.2093 -0.776,6.4008 1.691,2.6412 0.97,5.0787 0.97,4.7037 1.133,7.3409 4.52,9.9303 4.703,9.7468 -0.75,5.0827 1.485,6.2553 1.309,6.2553 0.942,1.3166 2.231,-0.3879 2.231,-0.3879 1.133,-3.5667 3.946,-6.5948 4.122,-6.5948 2.449,-2.0667 -2.775,-3.3944 -2.958,-3.3944 -0.375,-1.8751 -1.503,-2.4141 -1.503,-2.2306 -1.883,-1.8831 -2.269,-3.384 -2.086,-3.2004 -3.758,-6.7745 1.892,-9.4074 1.892,-9.4074 8.466,-5.0748 10.719,-1.4848 10.91,-1.3092 5.267,3.7582 8.06,17.2629 8.244,17.2629 1.324,3.9497 -0.917,4.7061 -0.534,4.8976 -2.824,2.6252 -2.454,4.3642 -2.279,4.3642 -1.316,3.3753 7.133,0.5334 7.516,0.5334 2.259,-0.375 0.758,-1.8911 0.582,-1.8911 -1.891,-1.3166 -0.01,-2.6186 -0.194,-2.6186 0.367,-1.6995 1.504,-2.8125 1.504,-2.8125 -6.392,-10.5246 -5.819,-22.5613 -5.819,-22.9364 -0.375,-2.8246 2.241,-0.9698 2.424,-0.9698 8.283,2.8167 19.578,-2.2607 19.203,-2.0851 9.032,-1.8672 5.433,4.7521 5.625,4.7521 -2.266,3.0082 -3.395,9.0378 -3.395,9.2134 -3.941,3.1917 -4.509,5.819 -4.509,5.819 0,0 -3.926,6.0129 -3.734,6.0129 -3.016,3.2076 -2.279,4.7061 -2.279,4.8976 -0.176,2.2661 2.297,1.1153 2.473,1.1153 1.699,-1.6916 6.557,-1.1177 6.74,-1.3093 1.125,-1.3245 -0.531,-2.8125 -0.339,-2.8125 2.441,-0.9415 4.665,-6.5948 4.849,-6.5948 2.441,-6.5749 7.904,-7.7101 7.904,-7.7101 -0.567,-2.6332 0.194,-4.5072 0.194,-4.3157 0.375,-3.7583 3.938,-2.0907 4.122,-1.8912 10.341,1.5001 10.719,16.3416 10.91,16.3416 0.575,2.8246 -1.687,4.3642 -1.503,4.3642 -2.434,1.6916 -2.231,4.5097 -2.231,4.5097 0,0 8.826,0.1835 8.826,0 -1.325,-3.0002 -0.564,-4.6932 -0.388,-4.5097 1.5,-0.5745 0.97,-2.8125 0.97,-2.8125 0,0 -0.582,-2.0747 -0.582,-1.8912 -2.45,-4.7077 -1.697,-9.7952 -1.697,-9.7952 1.133,-6.1999 -2.425,-7.3038 -2.425,-7.1282 -2.641,-2.2582 -3.976,-5.2856 -3.976,-5.2856 -0.839,-2.5276 -0.117,-5.04 0.194,-7.3222 0.155,-1.1395 -0.186,-2.4626 -0.194,-2.2791 -0.184,-1.9709 0.357,-2.4 0.97,-2.3761 0.612,0.024 1.309,0.5334 1.309,0.5334 1.125,2.0667 0.69,3.0934 0.727,4.1218 0.102,2.8341 2.995,4.5574 3.395,7.3222 1.167,8.0858 9.601,10.7375 9.601,11.1045 3.758,2.0667 3.006,-2.2306 3.006,-2.2306 0.375,-3.7502 -2.427,-5.6759 -2.618,-5.8674 -2.442,-1.5001 -2.667,-3.2005 -2.667,-3.2005 0,0 -2.425,-6.8857 -2.425,-6.8857 -3.95,-17.6183 -11.643,-17.7399 -11.444,-17.7479 -4.516,-1.133 -8.098,-2.629 -8.098,-2.8125 -6.008,-4.5083 -13.006,-1.5032 -13.189,-1.5032 -3.384,0.7421 -6.743,0.018 -6.935,0.194 -11.857,-3.3753 -16.926,-0.4144 -17.117,-0.5819 -5.642,1.1091 -13.179,-8.8279 -12.996,-9.0194 -11.666,-12.4158 -21.045,-11.49 -21.045,-11.2985 -2.633,0.9336 -3.976,-0.9214 -3.976,-0.9214 -1.7,-1.508 -3.538,-3.0064 -3.346,-3.0064 -0.636,-0.2858 -1.115,-0.3713 -1.407,-0.291 z"
       style="fill:#000000" />
    <path
       style="fill:#ffffff;fill-opacity:1;stroke:none"
       d="m 89.159789,-899.11922 0,68.1473 129.412901,0 0,93.7038 59.1463,0 14.4898,-93.7038 615.66525,0 14.4898,93.7038 59.0638,0 0,-93.7038 129.41296,0 0,-68.1473 z"
       id="path8523"
       inkscape:connector-curvature="0" />
    <path
       style="fill:#ffffff;fill-opacity:1;stroke:none"
       d="m 347.14829,-745.78662 204.53545,0 -45.22375,1448.14882 -383.2441,0 z"
       id="path8525"
       inkscape:connector-curvature="0" />
    <path
       style="fill:#ffffff;fill-opacity:1;stroke:none"
       d="m 377.44509,-941.71212 180.35725,0 20.4836,-655.92568 -99.41265,0 z"
       id="path8527"
       inkscape:connector-curvature="0" />
    <path
       style="fill:#ffffff;fill-opacity:1;stroke:none"
       d="m 621.73114,-1597.6378 99.4791,0 101.4282,655.92568 -180.4235,0 z"
       id="path8529"
       inkscape:connector-curvature="0" />
    <path
       style="fill:#ffffff;fill-opacity:1;stroke:none"
       d="m 648.33334,-745.78662 204.6019,0 225.06566,1448.14882 -384.44376,0 z"
       id="path8531"
       inkscape:connector-curvature="0" />
    <path
       sodipodi:type="arc"
       style="fill:none;stroke:#d40000;stroke-width:54.16794205;stroke-miterlimit:4;stroke-opacity:1;stroke-dasharray:none"
       id="path8533"
       sodipodi:cx="1450.5791"
       sodipodi:cy="727.09308"
       sodipodi:rx="169.70563"
       sodipodi:ry="195.96959"
       d="m 1620.2847,727.09308 a 169.70563,195.96959 0 1 1 -339.4112,0 169.70563,195.96959 0 1 1 339.4112,0 z"
       transform="matrix(0.76958815,0,0,0.66644753,443.6515,-1437.2072)" />
    <path
       inkscape:connector-curvature="0"
       id="path8535"
       d="m 1547.9112,-1021.6698 c -2.6336,10e-4 -13.2607,1.1093 -14.496,11.9592 -0.1598,0.1598 0.1553,5.0218 0.1553,5.0218 l 2.3815,0 10.6649,-1.3979 0.1553,10.82022 -11.4932,8.64592 1.6049,6.4196 27.4388,-20.08734 0.1553,-9.733 c 0,0 -2.1924,-11.5968 -15.9973,-11.5968 0,-0.02 -0.1933,-0.052 -0.5695,-0.052 z m 17.1363,26.29982 c -1.3886,-0.034 -3.0058,0.3256 -4.9183,1.5014 -0.1598,0 -27.8012,20.76034 -27.8012,20.76034 l -15.6867,0 c 0,0 -6.4714,-0.797 -6.4714,6.5749 0,0 -0.585,6.88556 5.6948,6.88556 l 22.7277,0 c 4.6532,-3.4592 9.3467,-6.81406 13.9782,-10.30246 l 14.7031,11.90736 c 0,0 -22.417,10.199 -22.417,10.199 -4.1058,1.9503 -5.0851,6.5749 -3.1063,10.3543 l 19.4661,34.68682 c 0,0 4.2503,4.8519 9.1117,1.2425 0.1465,-0.1465 5.9389,-3.4689 2.7957,-9.4224 -0.1532,0 -12.3734,-23.40062 -12.3734,-23.40062 -1.0264,-1.745 -1.0825,-4.0683 1.3978,-5.1772 0,0 29.665,-13.1499 29.665,-13.1499 2.2582,-1.0265 4.04,-5.4157 0.4659,-9.8883 0,0 -22.4687,-30.5969 -22.4687,-30.5969 0,0 -1.7081,-2.0987 -4.763,-2.1744 z m -60.3136,44.3163 c -16.7084,0 -30.1827,13.6747 -30.1827,30.3898 0,16.69512 13.4743,30.13092 30.1827,30.13092 16.7151,0 30.3897,-13.4292 30.3897,-30.13092 0,-16.7084 -13.6746,-30.3898 -30.3897,-30.3898 z m 110.3247,0 c -16.7084,0 -30.1826,13.6747 -30.1826,30.3898 0,16.69512 13.4742,30.13092 30.1826,30.13092 16.7084,0 30.3898,-13.4292 30.3898,-30.13092 0,-16.7084 -13.6814,-30.3898 -30.3898,-30.3898 z m -110.3247,8.9564 c 11.8005,0 21.4333,9.6329 21.4333,21.4334 0,11.79382 -9.6329,21.22622 -21.4333,21.22622 -11.7938,0 -21.2262,-9.4391 -21.2262,-21.22622 -1e-4,-11.7938 9.4391,-21.4334 21.2262,-21.4334 z m 110.3247,0 c 11.7938,0 21.4334,9.6329 21.4334,21.4334 0,11.79382 -9.6396,21.22622 -21.4334,21.22622 -11.7937,0 -21.2262,-9.4391 -21.2262,-21.22622 0,-11.7938 9.4391,-21.4334 21.2262,-21.4334 z"
       style="fill:#000000" />
    <path
       sodipodi:type="arc"
       style="fill:none;stroke:#d40000;stroke-width:54.16794205;stroke-miterlimit:4;stroke-opacity:1;stroke-dasharray:none"
       id="path8537"
       sodipodi:cx="1450.5791"
       sodipodi:cy="727.09308"
       sodipodi:rx="169.70563"
       sodipodi:ry="195.96959"
       d="m 1620.2847,727.09308 a 169.70563,195.96959 0 1 1 -339.4112,0 169.70563,195.96959 0 1 1 339.4112,0 z"
       transform="matrix(0.76958815,0,0,0.66644753,443.6515,-1942.2072)" />
    <g
       transform="matrix(0.51724135,0,0,0.51724135,1871.8453,-1612.8101)"
       id="g8539">
      <path
         inkscape:connector-curvature="0"
         d="m -619.93373,169.39529 c -5.12819,-0.16476 -25.89543,1.28539 -28.99973,22.00508 -0.32164,0.29622 -0.0213,9.63614 -0.0213,9.63614 l 4.6385,0.15111 20.85838,-2.00314 -0.39495,20.75121 -22.93921,15.84425 2.71086,12.40747 54.72796,-36.76498 0.92919,-18.64754 c 0,0 -3.52245,-22.36892 -30.40392,-23.24433 10e-4,-0.0383 -0.37443,-0.11184 -1.1057,-0.13527 z m 31.67461,51.50081 c -2.70207,-0.15393 -5.87415,0.43352 -9.67282,2.56612 -0.31095,-0.01 -55.47813,38.03226 -55.47813,38.03226 l -30.54674,-0.99483 c 0,0 -12.54935,-1.93813 -13.02438,12.19326 0,0 -1.58281,13.16178 10.64638,13.56006 l 44.25626,1.4414 c 9.28506,-6.33583 18.64225,-12.46916 27.88676,-18.8624 l 27.86413,23.75793 c 0,0 -44.30962,18.1288 -44.30962,18.1288 -8.12117,3.47793 -10.32881,12.2808 -6.71636,19.65111 -0.92898,0.30447 36.20539,5.35755 36.79802,7.15923 -1.88513,-3.40992 -1.84381,-7.86693 3.05615,-9.83532 0,0 58.61394,-23.32569 58.61394,-23.32569 4.46586,-1.8245 8.21757,-10.12521 1.54671,-18.92536 0,1.2e-4 -41.78356,-60.07631 -41.78356,-60.07631 0,0 -3.19194,-4.13118 -9.13674,-4.47026 z m -120.30453,81.12498 c -32.53821,-1.05975 -59.65722,24.29894 -60.73419,56.33998 -1.07548,32.00279 24.29673,58.61251 56.83481,59.67226 32.55024,1.06023 60.04328,-23.81516 61.11929,-55.83079 1.07644,-32.0282 -24.66969,-59.12134 -57.21991,-60.18145 z m 214.84032,6.99701 c -32.53808,-1.05966 -59.65696,24.29892 -60.73396,56.33984 -1.07571,32.00294 24.29663,58.61263 56.83471,59.67238 32.53532,1.05975 60.04316,-23.81504 61.11917,-55.83079 1.07658,-32.0282 -24.68463,-59.12192 -57.21992,-60.18143 z m -215.41747,10.17162 c 22.97742,0.74829 41.1156,19.8246 40.35538,42.44486 -0.75995,22.60745 -20.1265,40.07765 -43.10392,39.32936 -22.96819,-0.74805 -40.72925,-19.44024 -39.96985,-42.035 0.75983,-22.6073 19.76234,-40.48691 42.71839,-39.73922 z m 214.84045,6.99696 c 22.96515,0.74796 41.11574,19.82459 40.35536,42.44477 -0.75978,22.60769 -20.13875,40.07729 -43.1039,39.32948 -22.96856,-0.74811 -40.72634,-19.44015 -39.96695,-42.03488 0.75984,-22.60746 19.76211,-40.48691 42.71549,-39.73937 z"
         id="path8541"
         style="fill:#000000" />
      <path
         inkscape:connector-curvature="0"
         d="m -498.34219,355.18007 4.17714,43.51043 -70.65313,-5.97012 c 0.2235,-30.59849 -45.05304,-46.96361 -62.03477,-4.68141 l -72.13226,-4.78728 c -47.65276,-21.66047 -30.40434,-35.34119 1.11388,-49.22863 l 59.3959,-15.43998 67.57427,32.89463 72.55897,3.70236 z"
         id="path8543"
         style="fill:#000000;fill-opacity:1;fill-rule:evenodd;stroke:#ffffff;stroke-width:6.89999819;stroke-linecap:butt;stroke-linejoin:miter;stroke-miterlimit:4;stroke-opacity:1;stroke-dasharray:none" />
      <path
         inkscape:connector-curvature="0"
         d="m -500.9488,322.49817 2.08032,32.73074 -74.23714,-4.5915 -61.41791,-29.37431 c -6.25574,-9.73782 -0.7857,-15.43938 7.7781,-18.19877 l 63.10715,18.99425 62.68948,0.43959 z"
         id="path8545"
         style="fill:#000000;fill-opacity:1;fill-rule:evenodd;stroke:#ffffff;stroke-width:6.89999819;stroke-linecap:butt;stroke-linejoin:miter;stroke-miterlimit:4;stroke-opacity:1;stroke-dasharray:none" />
      <path
         inkscape:connector-curvature="0"
         d="m -573.49947,390.773 a 21.691971,21.471001 2.980294 0 1 -43.18814,4.01757 21.691971,21.471001 2.980294 1 1 43.18814,-4.01757 z"
         style="fill:none;stroke:#000000;stroke-width:14.09999657;stroke-linecap:round;stroke-linejoin:round;stroke-miterlimit:4;stroke-opacity:1;stroke-dasharray:none;stroke-dashoffset:0"
         id="path8547" />
      <path
         inkscape:connector-curvature="0"
         d="m -493.15969,281.59674 c -2.81478,-2.13834 -15.08555,-9.60762 -25.35323,0.8087 -0.30291,0.0382 -5.55294,8.04036 -5.55294,8.04036 l 3.07083,5.96116 12.85758,2.77068 -2.93748,4.95106 -20.02815,-3.34041 -5.8611,20.78336 39.75836,1.17396 12.14232,-15.42756 c 0,0 7.22112,-13.98771 -7.53015,-25.20388 0.018,-0.021 -0.1647,-0.21252 -0.56604,-0.51743 z"
         id="path8549"
         style="fill:#000000;stroke:#ffffff;stroke-width:6.89999819;stroke-miterlimit:4;stroke-opacity:1;stroke-dasharray:none" />
    </g>
  </g>
</svg>
