<?xml version="1.0" encoding="UTF-8" standalone="no"?>
<!-- Created with Inkscape (http://www.inkscape.org/) -->
<svg
   xmlns:dc="http://purl.org/dc/elements/1.1/"
   xmlns:cc="http://web.resource.org/cc/"
   xmlns:rdf="http://www.w3.org/1999/02/22-rdf-syntax-ns#"
   xmlns:svg="http://www.w3.org/2000/svg"
   xmlns="http://www.w3.org/2000/svg"
   xmlns:sodipodi="http://sodipodi.sourceforge.net/DTD/sodipodi-0.dtd"
   xmlns:inkscape="http://www.inkscape.org/namespaces/inkscape"
   id="svg2"
   sodipodi:version="0.32"
   inkscape:version="0.44+devel"
   width="1000"
   height="200"
   version="1.0"
   sodipodi:docbase="C:\Documents and Settings\Flanker\Desktop\Temporanei\Segnali"
   sodipodi:docname="Italian traffic signs - delineatore di curva.svg"
   inkscape:output_extension="org.inkscape.output.svg.inkscape"
   sodipodi:modified="true">
  <metadata
     id="metadata7">
    <rdf:RDF>
      <cc:Work
         rdf:about="">
        <dc:format>image/svg+xml</dc:format>
        <dc:type
           rdf:resource="http://purl.org/dc/dcmitype/StillImage" />
      </cc:Work>
    </rdf:RDF>
  </metadata>
  <defs
     id="defs5" />
  <sodipodi:namedview
     inkscape:window-height="1003"
     inkscape:window-width="1280"
     inkscape:pageshadow="2"
     inkscape:pageopacity="0.0"
     guidetolerance="10.0"
     gridtolerance="10.0"
     objecttolerance="10.0"
     borderopacity="1.0"
     bordercolor="#666666"
     pagecolor="#ffffff"
     id="base"
     height="200px"
     width="145px"
     inkscape:zoom="1.0562408"
     inkscape:cx="518.86193"
     inkscape:cy="147.6658"
     inkscape:window-x="-4"
     inkscape:window-y="-4"
     inkscape:current-layer="svg2" />
  <path
     style="fill:black;fill-opacity:1;fill-rule:evenodd;stroke:none;stroke-width:5.83900023;stroke-linecap:round;stroke-linejoin:round;stroke-miterlimit:4;stroke-dasharray:none;stroke-opacity:1"
     d="M 0,0 L 0,200 L 500,200 L 800,200 L 1000,200 L 1000,0 L 800,0 L 500,0 L 0,0 z "
     id="rect1875" />
  <path
     style="fill:white;fill-opacity:1;fill-rule:evenodd;stroke:none;stroke-width:5.83900023;stroke-linecap:round;stroke-linejoin:round;stroke-miterlimit:4;stroke-opacity:1"
     d="M 100,0 L 0,100 L 100,200 L 200,200 L 100,100 L 200,0 L 100,0 z M 300,0 L 200,100 L 300,200 L 400,200 L 300,100 L 400,0 L 300,0 z M 500,0 L 400,100 L 500,200 L 600,100 L 500,0 z M 600,0 L 700,100 L 600,200 L 700,200 L 800,100 L 700,0 L 600,0 z M 800,0 L 900,100 L 800,200 L 900,200 L 1000,100 L 900,0 L 800,0 z "
     id="path1912" />
</svg>
