<?xml version="1.0" encoding="UTF-8" standalone="no"?>
<!-- Created with Inkscape (http://www.inkscape.org/) -->

<svg
   xmlns:dc="http://purl.org/dc/elements/1.1/"
   xmlns:cc="http://creativecommons.org/ns#"
   xmlns:rdf="http://www.w3.org/1999/02/22-rdf-syntax-ns#"
   xmlns:svg="http://www.w3.org/2000/svg"
   xmlns="http://www.w3.org/2000/svg"
   xmlns:sodipodi="http://sodipodi.sourceforge.net/DTD/sodipodi-0.dtd"
   xmlns:inkscape="http://www.inkscape.org/namespaces/inkscape"
   width="4700"
   height="2900"
   id="svg2"
   version="1.1"
   inkscape:version="0.48.5 r10040"
   sodipodi:docname="CANC Terni.svg">
  <defs
     id="defs4" />
  <sodipodi:namedview
     id="base"
     pagecolor="#ffffff"
     bordercolor="#666666"
     borderopacity="1.0"
     inkscape:pageopacity="0.0"
     inkscape:pageshadow="2"
     inkscape:zoom="0.175"
     inkscape:cx="1614.4999"
     inkscape:cy="1132.0043"
     inkscape:document-units="px"
     inkscape:current-layer="layer1"
     showgrid="false"
     fit-margin-top="0"
     fit-margin-left="0"
     fit-margin-right="0"
     fit-margin-bottom="0"
     inkscape:window-width="1366"
     inkscape:window-height="705"
     inkscape:window-x="-8"
     inkscape:window-y="-8"
     inkscape:window-maximized="1" />
  <metadata
     id="metadata7">
    <rdf:RDF>
      <cc:Work
         rdf:about="">
        <dc:format>image/svg+xml</dc:format>
        <dc:type
           rdf:resource="http://purl.org/dc/dcmitype/StillImage" />
        <dc:title />
      </cc:Work>
    </rdf:RDF>
  </metadata>
  <g
     inkscape:label="Livello 1"
     inkscape:groupmode="layer"
     id="layer1"
     transform="translate(0,1847.625)">
    <rect
       style="fill:#ffffff;fill-opacity:1;stroke:#000000;stroke-width:5;stroke-miterlimit:4;stroke-opacity:1;stroke-dasharray:none"
       id="rect5535"
       width="4695"
       height="2895"
       x="2.5"
       y="-1845.125" />
    <rect
       style="fill:#08842c;fill-opacity:1;stroke:none"
       id="rect5701"
       width="2500"
       height="950"
       x="1008.7148"
       y="-1566.0219" />
    <path
       style="fill:none;stroke:#000000;stroke-width:100;stroke-linecap:butt;stroke-linejoin:miter;stroke-miterlimit:4;stroke-opacity:1;stroke-dasharray:none"
       d="m 2352.2263,828.86742 0,-337.1306 c 148.0259,0 264.9678,-120.6729 264.9678,-264.7152 0,-141.737008 -113.4547,-265.296708 -265.0294,-265.296708 -148.0412,0 -264.9535,119.1188 -264.9535,265.296708 l -319.1536,0"
       id="path5627-8"
       inkscape:connector-curvature="0"
       sodipodi:nodetypes="cccccc" />
    <rect
       style="fill:#00408b;fill-opacity:1;stroke:none"
       id="rect3907"
       width="1370"
       height="700"
       x="3146.1404"
       y="-110.7545" />
    <g
       style="font-size:213.97413635px;font-style:normal;font-weight:normal;line-height:125%;letter-spacing:0px;word-spacing:0px;fill:#000000;fill-opacity:1;stroke:none;font-family:Sans"
       id="text2996">
      <path
         d="m 277.71561,385.48626 74.46128,0 c 10.13006,1.6e-4 19.11747,3.28038 26.96226,9.84067 8.98511,7.56185 13.47772,17.47651 13.47786,29.74402 -1.4e-4,11.55381 -4.7779,21.75361 -14.33329,30.59945 5.99003,3.56545 10.91145,8.48687 14.76427,14.76427 4.42282,6.98714 6.63431,14.33335 6.63445,22.03866 -1.4e-4,10.55683 -3.78099,20.11452 -11.34256,28.67311 -8.13212,9.12891 -17.90312,13.69336 -29.31305,13.69335 l -81.31122,0 z m 35.51652,58.20164 31.23939,0 c 2.99935,10e-5 5.88885,-1.39078 8.66854,-4.17265 2.77949,-2.78166 4.16929,-5.88557 4.16939,-9.31174 -1e-4,-3.70891 -1.3899,-6.9543 -4.16939,-9.73619 -2.77969,-2.78164 -5.66919,-4.17252 -8.66854,-4.17265 l -31.23939,0 z m 0,60.55244 31.45488,0 c 12.26754,4e-5 18.40136,-5.41983 18.40146,-16.25963 -10e-5,-4.27925 -1.56947,-7.91753 -4.70811,-10.91485 -3.13884,-2.99719 -6.77603,-4.49582 -10.91158,-4.49589 l -34.23665,0 z"
         style="font-variant:normal;font-stretch:normal;fill:#000000;font-family:CodiceNero;-inkscape-font-specification:CodiceNero"
         id="path12108" />
      <path
         d="m 492.47987,380.56266 c 17.11714,1.6e-4 32.37984,4.7801 45.78817,14.33982 19.54623,13.83497 29.31942,35.4448 29.31957,64.82957 -1.5e-4,23.96505 -7.98848,43.2241 -23.965,57.77719 -14.55325,12.97725 -31.81412,19.46586 -51.78268,19.46585 -20.25603,10e-6 -37.3036,-6.56043 -51.14274,-19.68134 -15.26274,-14.54874 -22.89409,-34.30624 -22.89408,-59.27256 -1e-5,-20.11221 5.77683,-37.37308 17.33054,-51.78268 13.69549,-17.11708 32.81088,-25.67569 57.34622,-25.67585 z m -35.9475,78.52945 c -4e-5,13.97856 3.35201,24.82048 10.05616,32.52579 6.42108,7.13078 14.97969,10.69614 25.67585,10.6961 11.12698,4e-5 19.93591,-3.9223 26.4268,-11.76701 6.49068,-7.84462 9.73607,-18.54288 9.73619,-32.09482 -1.2e-4,-12.69852 -2.92337,-23.18347 -8.76975,-31.45488 -6.56491,-9.12877 -15.55232,-13.69322 -26.96226,-13.69335 -24.10872,1.3e-4 -36.16303,15.26284 -36.16299,45.78817 z"
         style="font-variant:normal;font-stretch:normal;fill:#000000;font-family:CodiceNero;-inkscape-font-specification:CodiceNero"
         id="path12110" />
      <path
         d="m 590.21397,383.98437 34.02768,0 0,118.96956 66.33146,0 0,31.88586 -100.35914,0 z"
         style="font-variant:normal;font-stretch:normal;fill:#000000;font-family:CodiceNero;-inkscape-font-specification:CodiceNero"
         id="path12112" />
      <path
         d="m 782.93303,380.56266 c 17.11713,1.6e-4 32.37984,4.7801 45.78816,14.33982 19.54624,13.83497 29.31942,35.4448 29.31958,64.82957 -1.6e-4,23.96505 -7.98848,43.2241 -23.965,57.77719 -14.55325,12.97725 -31.81413,19.46586 -51.78268,19.46585 -20.25604,10e-6 -37.3036,-6.56043 -51.14274,-19.68134 -15.26274,-14.54874 -22.8941,-34.30624 -22.89409,-59.27256 -10e-6,-20.11221 5.77684,-37.37308 17.33055,-51.78268 13.69549,-17.11708 32.81088,-25.67569 57.34622,-25.67585 z m -35.9475,78.52945 c -5e-5,13.97856 3.352,24.82048 10.05616,32.52579 6.42107,7.13078 14.97968,10.69614 25.67585,10.6961 11.12698,4e-5 19.9359,-3.9223 26.4268,-11.76701 6.49067,-7.84462 9.73607,-18.54288 9.73618,-32.09482 -1.1e-4,-12.69852 -2.92336,-23.18347 -8.76975,-31.45488 -6.5649,-9.12877 -15.55231,-13.69322 -26.96225,-13.69335 -24.10872,1.3e-4 -36.16304,15.26284 -36.16299,45.78817 z"
         style="font-variant:normal;font-stretch:normal;fill:#000000;font-family:CodiceNero;-inkscape-font-specification:CodiceNero"
         id="path12114" />
      <path
         d="m 946.35864,382.05802 c 10.27373,1.6e-4 20.33206,2.42714 30.17501,7.28092 14.26133,6.98722 24.74415,16.75823 31.44835,29.31305 l -30.59293,15.4042 c -1.71532,-3.99187 -4.92588,-8.19935 -9.63171,-12.62243 -6.56054,-5.70707 -13.26464,-8.56067 -20.11231,-8.5608 -7.41813,-0.14353 -13.83708,1.21253 -19.25689,4.06818 -12.83798,6.70422 -19.25694,19.96876 -19.25689,39.79365 l 0,13.69988 c -5e-5,16.40335 6.41891,27.60006 19.25689,33.59018 5.41981,2.56849 11.83876,3.99638 19.25689,4.28366 6.98698,4e-5 13.69108,-2.64025 20.11231,-7.92086 7.27428,-5.99011 11.4121,-13.54963 12.41348,-22.67859 l -37.44939,0 0,-30.81494 69.11325,0 0,87.94567 -27.17124,0 -3.21274,-7.06543 c -12.12409,6.99143 -23.60595,10.48714 -34.44561,10.48713 -25.81957,10e-6 -45.79256,-9.91466 -59.91903,-29.74402 -8.55863,-11.98028 -12.83793,-29.38264 -12.83792,-52.20713 -10e-6,-28.24419 10.62859,-49.07043 31.88585,-62.47878 12.41125,-7.84887 25.81945,-11.77338 40.22463,-11.77354 z"
         style="font-variant:normal;font-stretch:normal;fill:#000000;font-family:CodiceNero;-inkscape-font-specification:CodiceNero"
         id="path12116" />
      <path
         d="m 1152.0201,534.83979 -66.5404,-94.14914 0,94.36463 -36.594,0 0,-151.49536 39.5847,0 67.6179,97.57085 -0.431,-97.78634 35.0921,0 0,151.49536 z"
         style="font-variant:normal;font-stretch:normal;fill:#000000;font-family:CodiceNero;-inkscape-font-specification:CodiceNero"
         id="path12118" />
      <path
         d="m 1260.1565,383.55992 44.0773,0 49.2164,151.27987 -36.3785,0 -7.6988,-22.68513 -54.5644,0 -8.1299,22.68513 -35.3075,0 z m 22.2541,42.36646 -0.4309,0 -16.4752,52.63811 0.431,-0.21549 32.5193,0.21549 z"
         style="font-variant:normal;font-stretch:normal;fill:#000000;font-family:CodiceNero;-inkscape-font-specification:CodiceNero"
         id="path12120" />
    </g>
    <g
       style="font-size:171.17930603px;font-style:normal;font-weight:normal;line-height:125%;letter-spacing:0px;word-spacing:0px;fill:#000000;fill-opacity:1;stroke:none;font-family:Sans"
       id="text3778">
      <path
         d="m 607.24744,686.58399 c 10.15535,10e-5 19.22765,3.36608 27.21692,10.09795 6.73188,5.81959 10.83967,11.98214 12.32337,18.48766 l -23.96239,8.72926 c -0.45629,-3.76468 -1.82671,-6.96001 -4.11127,-9.58599 -2.85235,-3.19353 -6.73202,-4.79032 -11.63902,-4.79039 -4.9071,7e-5 -8.92956,1.79712 -12.06739,5.39114 -3.13791,3.59416 -4.70684,8.18778 -4.70681,13.78086 l 0,6.50385 c -3e-5,4.68073 1.31293,8.84597 3.93888,12.49575 3.07863,4.45086 7.47199,6.67628 13.1801,6.67625 3.53832,3e-5 6.9905,-1.42612 10.35653,-4.27844 3.36592,-2.85226 5.10638,-6.50381 5.22137,-10.95468 l 24.30717,8.55687 c -9e-5,2.0548 -1.37051,5.19267 -4.11127,9.41361 -3.42353,5.47823 -7.70196,9.92906 -12.83531,13.35249 -6.84696,4.56576 -14.60805,6.84864 -23.28327,6.84863 -12.55152,10e-6 -23.10743,-4.73639 -31.66776,-14.20922 -7.30313,-7.98569 -10.95469,-16.5443 -10.95468,-25.67585 l 0,-8.04492 c -1e-5,-10.38521 3.53836,-19.74308 10.61512,-28.07366 8.21555,-9.81402 18.94211,-14.72107 32.17971,-14.72117 z"
         style="font-variant:normal;font-stretch:normal;fill:#000000;font-family:CodiceNero;-inkscape-font-specification:CodiceNero"
         id="path12095" />
      <path
         d="m 701.52979,686.4116 c 10.95636,10e-5 20.48488,3.87977 28.5856,11.63902 9.13143,8.67536 13.69718,20.088 13.69727,34.23795 -9e-5,1.82496 -0.28567,4.73471 -0.85673,8.72927 l -57.17644,0 c 2.62589,8.10416 8.44713,12.0413 17.46376,11.81141 7.07321,-0.22634 14.03328,-2.96544 20.88024,-8.21731 l 18.32049,17.9757 c -14.15357,9.81413 -27.3354,14.72118 -39.54551,14.72117 -11.52414,10e-6 -21.56635,-3.59408 -30.12668,-10.78229 -9.3579,-7.98918 -14.20749,-18.54508 -14.54878,-31.66775 -1e-5,-1.71342 -1e-5,-4.33933 0,-7.87776 0.11144,-8.67174 3.36249,-17.0597 9.75317,-25.1639 8.21903,-10.27025 19.40356,-15.40541 33.55361,-15.40551 z m -15.40551,33.89317 29.95428,0 c -0.68266,-3.19353 -2.39351,-5.90303 -5.13255,-8.12851 -2.73917,-2.22534 -5.99283,-3.39551 -9.76101,-3.51051 -3.87972,-0.11486 -7.2457,1.14064 -10.09795,3.76648 -2.3961,2.16976 -4.05035,4.79394 -4.96277,7.87254 z"
         style="font-variant:normal;font-stretch:normal;fill:#000000;font-family:CodiceNero;-inkscape-font-specification:CodiceNero"
         id="path12097" />
      <path
         d="m 815.59012,775.25579 0,-48.27478 c -6e-5,-4.22091 -1.17023,-7.75841 -3.51051,-10.61251 -2.3404,-2.85396 -5.67852,-4.28098 -10.01437,-4.28105 -4.79217,7e-5 -8.38627,1.65607 -10.78229,4.968 -1.7135,2.51106 -2.57023,5.42081 -2.57019,8.72927 l 0,49.47107 -27.38932,0 0,-86.79117 24.14,0 1.36868,5.30756 c 6.04584,-4.79203 13.97584,-7.18809 23.79,-7.18819 11.18621,10e-5 19.80228,4.33599 25.84824,13.00771 4.45074,6.39074 6.67615,12.83886 6.67625,19.34439 l 0,56.3197 z"
         style="font-variant:normal;font-stretch:normal;fill:#000000;font-family:CodiceNero;-inkscape-font-specification:CodiceNero"
         id="path12099" />
      <path
         d="m 902.97682,652.51843 0,32.3521 22.42654,0 0,24.14 -21.90936,0 0,35.7738 c -5e-5,3.87971 2.73731,5.81954 8.21209,5.81951 1.71341,3e-5 3.99628,-0.19935 6.84864,-0.59815 2.85222,-0.39873 4.56394,-0.59811 5.13517,-0.59814 l 4.79561,22.76609 c -6.84696,3.42346 -15.57796,5.13518 -26.19303,5.13517 -7.18823,10e-6 -13.46396,-1.82664 -18.82721,-5.47995 -5.93447,-4.10603 -8.90168,-9.29692 -8.90166,-15.57268 l 0,-47.24565 -14.20922,0 0,-24.14 14.20922,0 0,-25.1639 z"
         style="font-variant:normal;font-stretch:normal;fill:#000000;font-family:CodiceNero;-inkscape-font-specification:CodiceNero"
         id="path12101" />
      <path
         d="m 1004.0712,714.83004 c -2.511,-0.68602 -5.02201,-1.02906 -7.53293,-1.02912 -5.81957,6e-5 -10.61169,1.54114 -14.37639,4.62322 -4.2245,3.30858 -6.33673,7.98751 -6.33669,14.03682 l 0,42.79483 -27.72887,0 0,-86.95833 28.07366,0 0,5.47472 c 2.51095,-1.48352 4.96447,-2.96712 7.36058,-4.45082 4.33585,-2.05467 8.89986,-3.08206 13.69205,-3.08215 2.28107,9e-5 4.56399,0.22995 6.84859,0.68956 z"
         style="font-variant:normal;font-stretch:normal;fill:#000000;font-family:CodiceNero;-inkscape-font-specification:CodiceNero"
         id="path12103" />
      <path
         d="m 1092.4818,699.42453 c 7.8742,8.55695 11.8113,18.59916 11.8114,30.12668 -10e-5,14.94758 -4.8496,27.04456 -14.5487,36.29097 -8.4455,7.98573 -18.089,11.97859 -28.9304,11.97858 -16.0899,1e-5 -28.5282,-6.21826 -37.3149,-18.65482 -3.0822,-4.4508 -5.1369,-8.21729 -6.1643,-11.29946 -1.4836,-4.1095 -2.2254,-9.70089 -2.2254,-16.7742 0,-14.60966 4.907,-26.30787 14.7212,-35.09468 8.219,-7.41796 18.3187,-11.12698 30.299,-11.12707 12.5549,9e-5 23.339,4.85142 32.3521,14.554 z m -50.8397,26.36019 0,9.41361 c -10e-5,4.68073 1.8266,8.73279 5.4799,12.1562 3.6533,3.42347 7.8185,5.13519 12.4958,5.13517 4.7921,2e-5 8.9573,-1.7117 12.4957,-5.13517 3.5383,-3.42341 5.3075,-7.47547 5.3076,-12.1562 l 0,-9.41361 c -10e-5,-4.90699 -1.9399,-9.01478 -5.8195,-12.32336 -3.5384,-2.96715 -7.533,-4.45076 -11.9838,-4.45083 -4.6773,7e-5 -8.785,1.48368 -12.3234,4.45083 -3.7682,3.30858 -5.6524,7.41637 -5.6523,12.32336 z"
         style="font-variant:normal;font-stretch:normal;fill:#000000;font-family:CodiceNero;-inkscape-font-specification:CodiceNero"
         id="path12105" />
    </g>
    <g
       style="font-size:228.23908997px;font-style:normal;font-weight:normal;line-height:125%;letter-spacing:0px;word-spacing:0px;fill:#000000;fill-opacity:1;stroke:none;font-family:Sans"
       id="text3782">
      <path
         d="m 435.43851,83.538901 -36.51213,0 0,-101.797921 -45.42075,61.851902 -45.6506,-61.392192 0,101.108356 -36.74198,0 0,-160.000004 40.85151,-0.222889 41.08136,57.742372 41.77093,-58.202083 40.62166,0 z"
         style="font-variant:normal;font-stretch:normal;fill:#000000;font-family:CodiceNero;-inkscape-font-specification:CodiceNero"
         id="path12123" />
      <path
         d="m 543.58879,-27.160679 c 2.58635,0.914895 5.63019,3.046276 9.13152,6.394149 5.78109,5.628073 8.67169,12.0175725 8.6718,19.1685175 l 0,53.1800985 c -1.1e-4,2.739724 1.7505,4.490335 5.25184,5.251839 0.30635,0.148628 2.74189,0.376161 7.3066,0.6826 -1.36996,3.956323 -5.32625,13.313039 -11.86887,28.070176 -11.86899,6e-6 -21.83633,-3.345658 -29.90206,-10.037004 -10.65234,6.997819 -21.3046,10.49672 -31.95681,10.496714 -11.10738,6e-6 -20.88318,-3.575513 -29.32741,-10.726569 -8.44429,-7.151021 -12.66642,-16.052671 -12.66641,-26.704976 -1e-5,-17.65002 10.87978,-29.823038 32.63941,-36.51909 8.06577,-1.216526 19.02219,-3.1180519 32.86928,-5.7045845 -8e-5,-6.69588689 -4.26052,-10.0438731 -12.78134,-10.0439688 -8.52094,9.57e-5 -16.66337,2.2057732 -24.42732,6.6170391 -0.45511,0.3065621 -3.64986,2.7420944 -9.58426,7.3066042 L 459.60115,-15.9744 c 0.30182,-0.761432 2.58412,-2.435425 6.8469,-5.021985 5.17287,-3.347873 10.95407,-6.391708 17.34361,-9.131514 7.61071,-3.347864 16.58898,-5.021857 26.93483,-5.021984 11.8688,1.27e-4 22.82289,2.663192 32.8623,7.989204 z m -48.84071,74.18049 c 0.15319,2.433256 1.75056,4.485697 4.79213,6.157329 2.58639,1.523117 5.24946,2.284657 7.9892,2.28462 4.2627,3.7e-5 7.91484,-0.950727 10.95643,-2.852292 3.04144,-1.901487 4.94296,-4.068855 5.70458,-6.502112 l 0,-11.645988 c -6.38958,1.221306 -12.77908,2.440233 -19.16852,3.656784 -7.0025,1.518489 -10.42711,4.485706 -10.27382,8.901659 z"
         style="font-variant:normal;font-stretch:normal;fill:#000000;font-family:CodiceNero;-inkscape-font-specification:CodiceNero"
         id="path12125" />
      <path
         d="m 683.25011,-32.635408 0,29.2124858 -44.50829,55.4647182 47.0158,0 0,31.26725 -95.85651,0 0,-28.300031 44.96104,-56.3771725 -43.13613,0 0,-31.2672505 z"
         style="font-variant:normal;font-stretch:normal;fill:#000000;font-family:CodiceNero;-inkscape-font-specification:CodiceNero"
         id="path12127" />
      <path
         d="m 796.47811,-32.635408 0,29.2124858 -44.50829,55.4647182 47.0158,0 0,31.26725 -95.85652,0 0,-28.300031 44.96104,-56.3771725 -43.13613,0 0,-31.2672505 z"
         style="font-variant:normal;font-stretch:normal;fill:#000000;font-family:CodiceNero;-inkscape-font-specification:CodiceNero"
         id="path12129" />
      <path
         d="m 820.91937,-32.635408 36.74895,0 0,116.174309 -36.74895,0 z m -0.6826,-36.066346 c 3.80304,-7.605944 10.04163,-11.408996 18.71578,-11.409168 3.34795,1.72e-4 6.46608,0.685093 9.3544,2.054765 7.7593,3.803222 11.63897,10.118425 11.63902,18.945627 -5e-5,3.194901 -0.68497,6.236414 -2.05476,9.124549 -3.8031,7.61089 -10.11598,11.416264 -18.93866,11.416133 -3.34802,1.31e-4 -6.46847,-0.68479 -9.36137,-2.054764 -7.60613,-3.80292 -11.40918,-10.041505 -11.40917,-18.715773 -10e-6,-3.347835 0.68491,-6.468288 2.05476,-9.361369 z"
         style="font-variant:normal;font-stretch:normal;fill:#000000;font-family:CodiceNero;-inkscape-font-specification:CodiceNero"
         id="path12131" />
      <path
         d="m 958.40052,83.309046 0,-64.366376 c -8e-5,-5.627887 -1.56031,-10.3445546 -4.68068,-14.1500158 -3.12054,-3.80528694 -7.57136,-5.70797399 -13.35249,-5.70806689 -6.38957,9.29e-5 -11.18169,2.20809219 -14.37639,6.62400439 -2.28467,3.3480725 -3.42698,7.2277433 -3.42693,11.6390233 l 0,65.961431 -36.51909,0 0,-115.721565 32.18667,0 1.82491,7.07675 c 8.06112,-6.389382 18.63445,-9.584132 31.72,-9.584259 14.91494,1.27e-4 26.40304,5.781324 34.46432,17.343608 5.93432,8.5209894 8.90154,17.11848807 8.90166,25.7925212 l 0,75.0929448 z"
         style="font-variant:normal;font-stretch:normal;fill:#000000;font-family:CodiceNero;-inkscape-font-specification:CodiceNero"
         id="path12133" />
      <path
         d="m 1021.9659,-32.635408 36.7489,0 0,116.174309 -36.7489,0 z m -0.6826,-36.066346 c 3.803,-7.605944 10.0416,-11.408996 18.7158,-11.409168 3.3479,1.72e-4 6.466,0.685093 9.3544,2.054765 7.7593,3.803222 11.6389,10.118425 11.639,18.945627 -10e-5,3.194901 -0.685,6.236414 -2.0548,9.124549 -3.8031,7.61089 -10.116,11.416264 -18.9386,11.416133 -3.3481,1.31e-4 -6.4685,-0.68479 -9.3614,-2.054764 -7.6061,-3.80292 -11.4092,-10.041505 -11.4092,-18.715773 0,-3.347835 0.6849,-6.468288 2.0548,-9.361369 z"
         style="font-variant:normal;font-stretch:normal;fill:#000000;font-family:CodiceNero;-inkscape-font-specification:CodiceNero"
         id="path12135" />
    </g>
    <g
       style="font-size:156.91436768px;font-style:normal;font-weight:normal;line-height:125%;letter-spacing:0px;word-spacing:0px;fill:#000000;fill-opacity:1;stroke:none;font-family:Sans"
       id="text3786">
      <path
         d="m 326.77057,-232.73632 c 0.10529,-0.20743 0.31439,-0.99117 0.62732,-2.35123 0.21063,-0.94168 0.62884,-1.41256 1.25462,-1.41265 l 23.22494,0 0,104.03335 -25.73419,0 0,-26.98881 c -6.06568,3.66172 -12.34199,5.49258 -18.82896,5.49257 -10.35628,1e-5 -19.3262,-4.07992 -26.9098,-12.23978 -7.58363,-8.15983 -11.37543,-17.62697 -11.37543,-28.40146 0.10215,-13.8104 4.54761,-24.79554 13.33638,-32.95546 7.63627,-6.90196 16.63253,-10.35297 26.98882,-10.35306 7.00733,9e-5 12.81276,1.7256 17.4163,5.17653 z m -32.95067,37.81594 c -4e-5,12.34516 5.59629,18.51772 16.78899,18.5177 3.45097,2e-5 6.79823,-1.30728 10.04179,-3.92191 3.66166,-2.93061 5.49252,-6.48858 5.49258,-10.67389 l 0,-9.72574 c -6e-5,-2.30169 -0.99291,-4.91788 -2.97854,-7.84859 -3.03606,-4.60023 -7.43043,-6.90038 -13.18314,-6.90044 -4.28748,6e-5 -7.84384,1.36004 -10.66911,4.07993 -3.66175,3.65858 -5.49261,9.14956 -5.49257,16.47294 z"
         style="font-variant:normal;font-stretch:normal;fill:#000000;font-family:CodiceNero;-inkscape-font-specification:CodiceNero"
         id="path12138" />
      <path
         d="m 398.24112,-236.5002 0,45.65975 c -3e-5,2.93069 1.20351,5.52054 3.61064,7.76958 2.40705,2.24909 5.38878,3.37363 8.94519,3.3736 3.97453,3e-5 7.11269,-1.35995 9.41448,-4.07993 1.88348,-2.19636 2.82524,-4.55077 2.8253,-7.06325 l 0,-45.65975 25.73419,0 0,79.86984 -21.343,0 c -0.10222,-0.10535 -0.33686,-0.52435 -0.70393,-1.25702 -0.36719,-0.73266 -0.91629,-1.77898 -1.64729,-3.13896 -2.3018,1.35998 -4.65622,2.71996 -7.06326,4.07993 -3.66177,1.57068 -8.26365,2.35601 -13.80566,2.35601 -8.89415,0 -16.40034,-2.90351 -22.51861,-8.71055 -6.11831,-5.80701 -9.17745,-12.8942 -9.17744,-21.26159 l 0,-51.93766 z"
         style="font-variant:normal;font-stretch:normal;fill:#000000;font-family:CodiceNero;-inkscape-font-specification:CodiceNero"
         id="path12140" />
      <path
         d="m 524.489,-232.73632 c 1.77811,0.62899 3.87075,2.09431 6.27791,4.39598 3.9745,3.8693 5.96179,8.26208 5.96187,13.17835 l 0,36.56132 c -8e-5,1.88356 1.20346,3.0871 3.61064,3.61064 0.21062,0.10218 1.88504,0.25861 5.02329,0.46928 -0.94186,2.71998 -3.6618,9.15272 -8.15986,19.29825 -8.15992,0 -15.01247,-2.30014 -20.55765,-6.90044 -7.32349,4.811 -14.64692,7.21649 -21.97032,7.21649 -7.63632,0 -14.35718,-2.45816 -20.16259,-7.37452 -5.80545,-4.91632 -8.70816,-11.03621 -8.70815,-18.35967 -1e-5,-12.13438 7.47985,-20.50333 22.43959,-25.10687 5.54522,-0.83636 13.07775,-2.14366 22.59763,-3.9219 -6e-5,-4.60342 -2.92911,-6.90516 -8.78717,-6.90523 -5.85815,7e-5 -11.45607,1.51647 -16.79378,4.54922 -0.31289,0.21076 -2.50928,1.88519 -6.58918,5.02329 l -11.92373,-18.04362 c 0.2075,-0.52349 1.77658,-1.67436 4.70724,-3.45262 3.55635,-2.30166 7.53092,-4.3943 11.92373,-6.27791 5.23236,-2.30166 11.40492,-3.45253 18.51769,-3.45262 8.15981,9e-5 15.69074,1.83095 22.59284,5.49258 z m -33.57799,50.99908 c 0.10532,1.67287 1.20351,3.08392 3.29459,4.23317 1.77814,1.04714 3.609,1.5707 5.49258,1.57067 2.9306,3e-5 5.44145,-0.65362 7.53254,-1.96095 2.09099,-1.30727 3.39829,-2.79733 3.9219,-4.4702 l 0,-8.00662 c -4.39284,0.83965 -8.78562,1.67766 -13.17836,2.51404 -4.81422,1.04396 -7.16863,3.08393 -7.06325,6.11989 z"
         style="font-variant:normal;font-stretch:normal;fill:#000000;font-family:CodiceNero;-inkscape-font-specification:CodiceNero"
         id="path12142" />
      <path
         d="m 613.75893,-212.17866 c -2.3018,-0.62885 -4.60354,-0.9433 -6.90522,-0.94336 -5.33461,6e-5 -9.72739,1.41271 -13.17836,4.23795 -3.87246,3.03286 -5.80867,7.32189 -5.80863,12.86709 l 0,39.22859 -25.41813,0 0,-79.71181 25.73418,0 0,5.0185 c 2.30171,-1.35989 4.55077,-2.71986 6.74721,-4.07992 3.97452,-1.88345 8.1582,-2.82522 12.55104,-2.8253 2.09098,8e-5 4.18362,0.21078 6.27791,0.6321 z"
         style="font-variant:normal;font-stretch:normal;fill:#000000;font-family:CodiceNero;-inkscape-font-specification:CodiceNero"
         id="path12144" />
      <path
         d="m 664.51861,-269.29764 0,29.65609 20.55765,0 0,22.12834 -20.08358,0 0,32.79265 c -4e-5,3.5564 2.5092,5.33458 7.52775,5.33455 1.57062,3e-5 3.66326,-0.18274 6.27792,-0.5483 2.61454,-0.3655 4.18362,-0.54827 4.70724,-0.5483 l 4.39598,20.86892 c -6.27639,3.13817 -14.2798,4.70724 -24.01028,4.70724 -6.58921,0 -12.34197,-1.67442 -17.25828,-5.02329 -5.43992,-3.76386 -8.15987,-8.52218 -8.15985,-14.27495 l 0,-43.30852 -13.02512,0 0,-22.12834 13.02512,0 0,-23.06691 z"
         style="font-variant:normal;font-stretch:normal;fill:#000000;font-family:CodiceNero;-inkscape-font-specification:CodiceNero"
         id="path12146" />
      <path
         d="m 702.89483,-236.5002 25.26489,0 0,79.86984 -25.26489,0 z m -0.46929,-24.79561 c 2.61459,-5.22908 6.90361,-7.84368 12.86709,-7.8438 2.30172,1.2e-4 4.44544,0.471 6.43115,1.41265 5.33452,2.61471 8.0018,6.95642 8.00183,13.02512 -3e-5,2.19649 -0.47092,4.28753 -1.41265,6.27312 -2.61463,5.23249 -6.95474,7.84869 -13.02033,7.8486 -2.30176,9e-5 -4.44707,-0.4708 -6.43594,-1.41265 -5.22921,-2.61451 -7.84381,-6.90354 -7.8438,-12.8671 -10e-6,-2.30163 0.47087,-4.44695 1.41265,-6.43594 z"
         style="font-variant:normal;font-stretch:normal;fill:#000000;font-family:CodiceNero;-inkscape-font-specification:CodiceNero"
         id="path12148" />
      <path
         d="m 782.34805,-238.2289 c 10.04334,9e-5 18.77782,3.55645 26.20348,10.66911 8.37047,7.95241 12.55575,18.414 12.55583,31.38479 -8e-5,1.67287 -0.26186,4.34015 -0.78534,8.00182 l -52.41173,0 c 2.40706,7.42882 7.7432,11.03786 16.00844,10.82713 6.48377,-0.20748 12.86384,-2.71832 19.14022,-7.53254 l 16.79378,16.47773 c -12.97411,8.99628 -25.05744,13.49441 -36.25005,13.49441 -10.56379,0 -19.76916,-3.29458 -27.61612,-9.88377 -8.57808,-7.32341 -13.02353,-16.99966 -13.33638,-29.02877 -10e-6,-1.57063 -10e-6,-3.97772 0,-7.22128 0.10215,-7.94909 3.08228,-15.63806 8.9404,-23.06691 7.53411,-9.4144 17.7866,-14.12163 30.75747,-14.12172 z m -14.12171,31.06874 27.4581,0 c -0.62578,-2.9274 -2.19406,-5.41111 -4.70485,-7.45113 -2.5109,-2.0399 -5.49342,-3.11256 -8.94759,-3.21797 -3.55641,-0.10529 -6.64189,1.04558 -9.25645,3.45261 -2.19643,1.98895 -3.71283,4.39444 -4.54921,7.21649 z"
         style="font-variant:normal;font-stretch:normal;fill:#000000;font-family:CodiceNero;-inkscape-font-specification:CodiceNero"
         id="path12150" />
      <path
         d="m 890.19796,-212.17866 c -2.3018,-0.62885 -4.60354,-0.9433 -6.90523,-0.94336 -5.3346,6e-5 -9.72738,1.41271 -13.17835,4.23795 -3.87246,3.03286 -5.80867,7.32189 -5.80863,12.86709 l 0,39.22859 -25.41814,0 0,-79.71181 25.73419,0 0,5.0185 c 2.3017,-1.35989 4.55077,-2.71986 6.7472,-4.07992 3.97453,-1.88345 8.15821,-2.82522 12.55104,-2.8253 2.09099,8e-5 4.18362,0.21078 6.27792,0.6321 z"
         style="font-variant:normal;font-stretch:normal;fill:#000000;font-family:CodiceNero;-inkscape-font-specification:CodiceNero"
         id="path12152" />
      <path
         d="m 940.48831,-238.2289 c 10.04334,9e-5 18.77782,3.55645 26.20348,10.66911 8.37047,7.95241 12.55574,18.414 12.55583,31.38479 -9e-5,1.67287 -0.26186,4.34015 -0.78534,8.00182 l -52.41174,0 c 2.40706,7.42882 7.74321,11.03786 16.00845,10.82713 6.48377,-0.20748 12.86384,-2.71832 19.14022,-7.53254 l 16.79378,16.47773 c -12.97411,8.99628 -25.05745,13.49441 -36.25005,13.49441 -10.56379,0 -19.76916,-3.29458 -27.61613,-9.88377 -8.57807,-7.32341 -13.02352,-16.99966 -13.33638,-29.02877 0,-1.57063 0,-3.97772 0,-7.22128 0.10216,-7.94909 3.08229,-15.63806 8.94041,-23.06691 7.53411,-9.4144 17.78659,-14.12163 30.75747,-14.12172 z m -14.12171,31.06874 27.45809,0 c -0.62577,-2.9274 -2.19405,-5.41111 -4.70484,-7.45113 -2.5109,-2.0399 -5.49343,-3.11256 -8.94759,-3.21797 -3.55641,-0.10529 -6.64189,1.04558 -9.25645,3.45261 -2.19643,1.98895 -3.71283,4.39444 -4.54921,7.21649 z"
         style="font-variant:normal;font-stretch:normal;fill:#000000;font-family:CodiceNero;-inkscape-font-specification:CodiceNero"
         id="path12154" />
    </g>
    <g
       style="font-size:199.14569092px;font-style:normal;font-weight:normal;line-height:125%;letter-spacing:0px;word-spacing:0px;fill:#ffffff;fill-opacity:1;stroke:none;font-family:Sans"
       id="text2996-1">
      <path
         d="m 3343.5997,25.552377 c 24.2975,1.48e-4 44.9426,7.635436 61.9352,22.905887 l -20.7119,17.721827 c -4.1166,-3.58558 -9.2277,-6.772184 -15.3334,-9.55982 -7.5685,-3.58557 -14.8696,-5.378415 -21.9031,-5.378538 -3.8532,1.23e-4 -7.5057,0.597738 -10.9577,1.792846 -8.0992,2.657988 -11.8166,7.769113 -11.1521,15.333392 0.2674,3.055031 2.9232,5.579194 7.9676,7.572495 4.5134,1.855743 13.5404,4.244176 27.0811,7.165307 28.4139,6.109942 42.6209,20.116407 42.6211,42.019447 -2e-4,13.41093 -5.2774,24.19838 -15.8318,32.36239 -10.5546,8.16404 -24.9277,12.24606 -43.1194,12.24605 -15.1329,1e-5 -29.5365,-4.04959 -43.2107,-12.14881 -8.6299,-4.91055 -15.8662,-10.68412 -21.7086,-17.32071 l 24.2976,-18.3235 c 2.2568,3.45204 6.904,7.1694 13.9417,11.15211 9.424,5.31172 19.1803,8.03442 29.269,8.16809 6.9039,0.12968 12.4809,-1.23268 16.7312,-4.08708 4.25,-2.85434 6.3751,-6.53828 6.3752,-11.05184 -10e-5,-5.17793 -3.3204,-9.22753 -9.9609,-12.14881 -4.1166,-1.85558 -11.4186,-3.87937 -21.9062,-6.07136 -10.4877,-2.19187 -17.5892,-4.15083 -21.3045,-5.87689 -6.5069,-2.921153 -11.0224,-5.510141 -13.5466,-7.766977 -7.0336,-6.239423 -10.5504,-14.4703 -10.5504,-24.692656 0,-15.003064 5.5081,-26.420544 16.5245,-34.252475 9.1607,-6.506771 20.6451,-9.760227 34.4531,-9.760375 z"
         style="font-variant:normal;font-stretch:normal;fill:#ffffff;font-family:CodiceBianco;-inkscape-font-specification:CodiceBianco"
         id="path12076" />
      <path
         d="m 3430.185,138.47129 c 4.3798,4e-5 7.9655,1.65918 10.7571,4.97743 2.2567,2.78755 3.3851,5.77562 3.3851,8.96423 0,3.84906 -1.494,7.1015 -4.4821,9.75733 -2.9881,2.65586 -6.2081,3.98378 -9.6601,3.98377 -3.7153,10e-6 -7.0002,-1.36134 -9.8546,-4.08404 -2.8543,-2.72268 -4.2815,-5.9417 -4.2815,-9.65706 0,-3.85308 1.3603,-7.13996 4.081,-9.86066 2.7206,-2.72063 6.0724,-4.08096 10.0551,-4.081 z"
         style="font-variant:normal;font-stretch:normal;fill:#ffffff;font-family:CodiceBianco;-inkscape-font-specification:CodiceBianco"
         id="path12078" />
      <path
         d="m 3492.5335,141.26084 64.3237,0 0,25.28824 -91.8059,0 0,-140.000003 27.4822,0 z"
         style="font-variant:normal;font-stretch:normal;fill:#ffffff;font-family:CodiceBianco;-inkscape-font-specification:CodiceBianco"
         id="path12080" />
      <path
         d="m 3611.7061,26.549077 40.2266,0 47.5925,140.000003 -30.8674,0 -7.9614,-23.50148 -57.1584,0 -7.7669,23.50148 -29.8707,0 z m 20.1103,31.462929 -19.5147,58.951204 39.8316,0 z"
         style="font-variant:normal;font-stretch:normal;fill:#ffffff;font-family:CodiceBianco;-inkscape-font-specification:CodiceBianco"
         id="path12082" />
      <path
         d="m 3715.4846,26.549077 98.5761,0 0,24.097067 -64.9192,88.420736 67.3076,0 0,27.4822 -102.9579,0 0,-27.87723 62.3363,-86.23286 -60.3429,0 z"
         style="font-variant:normal;font-stretch:normal;fill:#ffffff;font-family:CodiceBianco;-inkscape-font-specification:CodiceBianco"
         id="path12084" />
      <path
         d="m 3841.5064,26.549077 98.5762,0 0,24.097067 -64.9193,88.420736 67.3077,0 0,27.4822 -102.958,0 0,-27.87723 62.3364,-86.23286 -60.343,0 z"
         style="font-variant:normal;font-stretch:normal;fill:#ffffff;font-family:CodiceBianco;-inkscape-font-specification:CodiceBianco"
         id="path12086" />
      <path
         d="m 4003.7742,26.549077 40.2266,0 47.5925,140.000003 -30.8674,0 -7.9614,-23.50148 -57.1584,0 -7.767,23.50148 -29.8706,0 z m 20.1103,31.462929 -19.5147,58.951204 39.8316,0 z"
         style="font-variant:normal;font-stretch:normal;fill:#ffffff;font-family:CodiceBianco;-inkscape-font-specification:CodiceBianco"
         id="path12088" />
      <path
         d="m 4177.0543,26.549077 c 10.7529,1.48e-4 20.2459,3.916044 28.4789,11.7477 8.6298,8.233039 12.9448,18.323612 12.9449,30.27175 -1e-4,10.753119 -3.5858,19.913844 -10.757,27.482202 -5.3118,5.708821 -11.7499,9.892121 -19.3142,12.549921 l 36.0454,57.94843 -31.469,0 -34.4531,-55.55999 -20.9064,0 0,55.55999 -27.6827,0 0,-140.000003 z m -39.4305,24.893212 0,34.854142 34.2525,0 c 3.5856,8.8e-5 7.1044,-1.660065 10.5565,-4.980465 3.4519,-3.320214 5.1779,-7.435653 5.178,-12.346328 -1e-4,-4.914516 -1.6937,-9.064394 -5.0808,-12.449645 -3.3872,-3.385015 -7.0722,-5.077581 -11.0548,-5.077704 z"
         style="font-variant:normal;font-stretch:normal;fill:#ffffff;font-family:CodiceBianco;-inkscape-font-specification:CodiceBianco"
         id="path12090" />
      <path
         d="m 4374.9298,95.655695 c -2e-4,22.433925 -6.4382,40.356295 -19.3141,53.767145 -12.3455,12.74644 -28.2765,19.11965 -47.7931,19.11964 -19.5167,10e-6 -35.3829,-6.3732 -47.5985,-19.11964 -12.8761,-13.41085 -19.3141,-31.33322 -19.3141,-53.767145 0,-21.90706 7.1025,-39.499217 21.3075,-52.776525 12.7464,-11.814408 27.9481,-17.721678 45.6051,-17.721827 17.6569,1.49e-4 32.8586,5.907419 45.6052,17.721827 14.3345,13.277308 21.5018,30.869465 21.502,52.776525 z m -30.6668,0 c -1e-4,-13.143394 -3.3518,-23.632039 -10.0551,-31.465967 -6.7036,-7.833708 -15.4986,-11.750616 -26.3853,-11.750738 -10.8868,1.22e-4 -19.616,3.91703 -26.1877,11.750738 -6.5718,7.833928 -9.8576,18.322573 -9.8576,31.465967 0,13.674315 2.7875,24.360475 8.3626,32.058515 6.2394,8.76372 15.467,13.14555 27.6827,13.14552 12.3453,3e-5 21.6377,-4.3818 27.8773,-13.14552 5.7086,-7.83174 8.563,-18.5179 8.5631,-32.058515 z"
         style="font-variant:normal;font-stretch:normal;fill:#ffffff;font-family:CodiceBianco;-inkscape-font-specification:CodiceBianco"
         id="path12092" />
    </g>
    <g
       style="font-size:199.14569092px;font-style:normal;font-weight:normal;line-height:125%;letter-spacing:0px;word-spacing:0px;fill:#ffffff;fill-opacity:1;stroke:none;font-family:Sans"
       id="text3903">
      <path
         d="m 3686.2073,306.74989 96.3883,0 0,25.09377 -67.5083,0 0,30.86734 59.3463,0 0,24.09706 -59.3463,0 0,59.94184 -28.88,0 z"
         style="font-variant:normal;font-stretch:normal;fill:#ffffff;font-family:CodiceBianco;-inkscape-font-specification:CodiceBianco"
         id="path12063" />
      <path
         d="m 3935.4311,375.65595 c -10e-5,22.43393 -6.4381,40.3563 -19.3141,53.76715 -12.3454,12.74644 -28.2764,19.11965 -47.793,19.11964 -19.5168,1e-5 -35.3829,-6.3732 -47.5986,-19.11964 -12.876,-13.41085 -19.3141,-31.33322 -19.3141,-53.76715 0,-21.90706 7.1025,-39.49921 21.3075,-52.77652 12.7464,-11.81441 27.9481,-17.72168 45.6052,-17.72183 17.6569,1.5e-4 32.8586,5.90742 45.6051,17.72183 14.3346,13.27731 21.5019,30.86946 21.502,52.77652 z m -30.6668,0 c -10e-5,-13.14339 -3.3518,-23.63203 -10.0551,-31.46596 -6.7035,-7.83371 -15.4986,-11.75062 -26.3852,-11.75074 -10.8868,1.2e-4 -19.616,3.91703 -26.1877,11.75074 -6.5718,7.83393 -9.8577,18.32257 -9.8576,31.46596 -10e-5,13.67432 2.7874,24.36048 8.3625,32.05852 6.2395,8.76372 15.4671,13.14555 27.6828,13.14551 12.3452,4e-5 21.6376,-4.38179 27.8772,-13.14551 5.7087,-7.83174 8.563,-18.5179 8.5631,-32.05852 z"
         style="font-variant:normal;font-stretch:normal;fill:#ffffff;font-family:CodiceBianco;-inkscape-font-specification:CodiceBianco"
         id="path12065" />
      <path
         d="m 4026.5502,306.54934 c 10.753,1.4e-4 20.2459,3.91604 28.4789,11.7477 8.6299,8.23304 12.9449,18.32361 12.945,30.27175 -10e-5,10.75312 -3.5858,19.91384 -10.7571,27.4822 -5.3118,5.70882 -11.7498,9.89212 -19.3141,12.54992 l 36.0453,57.94843 -31.469,0 -34.453,-55.55999 -20.9064,0 0,55.55999 -27.6828,0 0,-140 z m -39.4304,24.89321 0,34.85414 34.2525,0 c 3.5856,9e-5 7.1044,-1.66006 10.5565,-4.98046 3.4519,-3.32022 5.1779,-7.43566 5.178,-12.34633 -1e-4,-4.91452 -1.6937,-9.0644 -5.0808,-12.44965 -3.3872,-3.38501 -7.0722,-5.07758 -11.0549,-5.0777 z"
         style="font-variant:normal;font-stretch:normal;fill:#ffffff;font-family:CodiceBianco;-inkscape-font-specification:CodiceBianco"
         id="path12067" />
      <path
         d="m 4122.665,421.2611 64.3237,0 0,25.28824 -91.8059,0 0,-140 27.4822,0 z"
         style="font-variant:normal;font-stretch:normal;fill:#ffffff;font-family:CodiceBianco;-inkscape-font-specification:CodiceBianco"
         id="path12069" />
      <path
         d="m 4238.647,306.54934 0,140 -28.874,0 0,-140 z"
         style="font-variant:normal;font-stretch:normal;fill:#ffffff;font-family:CodiceBianco;-inkscape-font-specification:CodiceBianco"
         id="path12071" />
      <path
         d="m 4271.8723,306.1543 c 4.5135,1.5e-4 8.2309,1.39391 11.1521,4.18128 3.3183,3.18473 4.9774,7.63139 4.9775,13.33999 -1e-4,13.67437 -8.0324,21.17596 -24.0971,22.50478 -3.0509,0.26752 -4.5763,-0.99457 -4.5763,-3.78625 0,-0.6603 0.1327,-1.28932 0.3981,-1.88704 0.2653,-0.5975 2.0906,-1.32781 5.4757,-2.19092 3.3852,-0.86288 5.0777,-2.15738 5.0777,-3.88349 0,-1.59622 -0.7961,-2.59292 -2.3884,-2.9901 -2.7916,-0.53064 -4.783,-1.19511 -5.9741,-1.9934 -3.452,-2.38629 -5.178,-5.9031 -5.178,-10.55045 0,-3.31814 1.4596,-6.27178 4.3788,-8.86091 2.9192,-2.58884 6.5039,-3.88334 10.754,-3.88349 z"
         style="font-variant:normal;font-stretch:normal;fill:#ffffff;font-family:CodiceBianco;-inkscape-font-specification:CodiceBianco"
         id="path12073" />
    </g>
    <g
       style="font-size:141.16947937px;font-style:normal;font-weight:normal;line-height:125%;letter-spacing:0px;word-spacing:0px;fill:#ffffff;fill-opacity:1;stroke:none;font-family:Sans"
       id="text2996-4">
      <path
         d="m 3339.9733,325.79264 c 12.1403,0.28157 20.8931,6.49248 26.2582,18.63275 l -14.54,9.17636 c -3.4839,-6.68329 -7.5307,-10.02497 -12.1404,-10.02506 -2.0708,9e-5 -3.8357,0.7296 -5.2947,2.18854 -1.4591,1.45911 -2.2833,3.36475 -2.4729,5.71691 -0.1867,1.88418 0.5672,3.81423 2.2618,5.79016 0.5629,0.65778 2.2101,2.1642 4.9414,4.51925 7.1515,5.55183 15.2451,12.42189 24.2808,20.61019 3.5757,4.51786 5.3636,10.02367 5.3636,16.51745 0,7.43302 -2.2589,13.83205 -6.7767,19.19712 -5.0837,5.92802 -11.813,9.0342 -20.188,9.31853 -12.4218,0.37625 -21.4101,-6.58859 -26.9647,-20.89453 l 15.1087,-8.61199 c 3.1995,7.81213 7.0108,11.71819 11.4338,11.71816 1.3183,3e-5 2.6351,-0.32883 3.9506,-0.98656 3.389,-1.69452 5.0836,-4.56518 5.0836,-8.61199 0,-2.91802 -1.0354,-5.36505 -3.1062,-7.34109 -5.2703,-4.42299 -10.5406,-8.84602 -15.8109,-13.26911 -7.8121,-6.49376 -12.518,-11.19969 -14.1178,-14.11781 -2.447,-4.23627 -3.6705,-8.6593 -3.6705,-13.2691 0,-7.15432 2.6825,-13.36666 8.0476,-18.63706 5.3651,-5.2702 11.4826,-7.81057 18.3527,-7.62112 z"
         style="font-variant:normal;font-stretch:normal;word-spacing:-40px;fill:#ffffff;font-family:CodiceBiancoCondensed;-inkscape-font-specification:CodiceBiancoCondensed"
         id="path12056" />
      <path
         d="m 3403.9407,325.79264 c 12.1404,0.28157 20.8931,6.49248 26.2582,18.63275 l -14.54,9.17636 c -3.4839,-6.68329 -7.5307,-10.02497 -12.1404,-10.02506 -2.0708,9e-5 -3.8357,0.7296 -5.2947,2.18854 -1.459,1.45911 -2.2833,3.36475 -2.4729,5.71691 -0.1867,1.88418 0.5673,3.81423 2.2618,5.79016 0.5629,0.65778 2.2101,2.1642 4.9415,4.51925 7.1515,5.55183 15.245,12.42189 24.2807,20.61019 3.5757,4.51786 5.3636,10.02367 5.3637,16.51745 -10e-5,7.43302 -2.259,13.83205 -6.7768,19.19712 -5.0836,5.92802 -11.813,9.0342 -20.188,9.31853 -12.4218,0.37625 -21.41,-6.58859 -26.9647,-20.89453 l 15.1087,-8.61199 c 3.1995,7.81213 7.0108,11.71819 11.4338,11.71816 1.3183,3e-5 2.6352,-0.32883 3.9506,-0.98656 3.3891,-1.69452 5.0836,-4.56518 5.0836,-8.61199 0,-2.91802 -1.0354,-5.36505 -3.1061,-7.34109 -5.2704,-4.42299 -10.5407,-8.84602 -15.811,-13.26911 -7.8121,-6.49376 -12.518,-11.19969 -14.1178,-14.11781 -2.447,-4.23627 -3.6705,-8.6593 -3.6705,-13.2691 0,-7.15432 2.6825,-13.36666 8.0476,-18.63706 5.3651,-5.2702 11.4826,-7.81057 18.3527,-7.62112 z"
         style="font-variant:normal;font-stretch:normal;word-spacing:-40px;fill:#ffffff;font-family:CodiceBiancoCondensed;-inkscape-font-specification:CodiceBiancoCondensed"
         id="path12058" />
      <path
         d="m 3484.0003,326.07267 c 11.1982,1.1e-4 19.5273,6.11767 24.9872,18.35272 4.0468,9.03571 6.0702,19.71704 6.0702,32.04403 0,17.60027 -3.718,31.01153 -11.1538,40.23382 -5.7413,7.05963 -12.4692,10.58943 -20.1837,10.58943 -5.0836,0 -9.6488,-1.93005 -13.6956,-5.79015 -3.0128,-2.72849 -5.5532,-6.30425 -7.6211,-10.7273 -1.5079,-3.48096 -2.2144,-5.59913 -2.1196,-6.35452 l 16.7975,-4.65711 c 1.7893,6.6834 4.3311,10.02509 7.6254,10.02506 3.5757,3e-5 6.3042,-3.7179 8.1855,-11.1538 1.2235,-4.61255 1.93,-9.50661 2.1196,-14.68218 -4.2364,4.3283 -9.083,6.49243 -14.54,6.49239 -5.9309,4e-5 -10.825,-2.49294 -14.6822,-7.47895 -4.3282,-5.55459 -6.399,-13.08379 -6.2123,-22.58764 0.1895,-8.56452 2.4484,-16.23446 6.7767,-23.00983 4.7045,-7.53054 10.5865,-11.29586 17.6462,-11.29597 z m -5.7859,33.17707 c 0,8.84613 2.3049,13.26916 6.9146,13.2691 5.9309,6e-5 8.8963,-4.56514 8.8963,-13.69561 0,-10.0695 -2.7773,-15.10429 -8.3319,-15.10437 -4.986,8e-5 -7.479,5.17704 -7.479,15.53088 z"
         style="font-variant:normal;font-stretch:normal;word-spacing:-40px;fill:#ffffff;font-family:CodiceBiancoCondensed;-inkscape-font-specification:CodiceBiancoCondensed"
         id="path12060" />
    </g>
    <g
       style="font-size:355.61730957px;font-style:normal;font-weight:normal;line-height:125%;letter-spacing:0px;word-spacing:0px;fill:#ffffff;fill-opacity:1;stroke:none;font-family:Sans"
       id="text2996-1-9">
      <path
         d="m 1372.7246,-1398.0026 46.5901,0 0,42.3142 -46.5901,0 0,77.52 c -10e-5,13.5151 7.5858,20.2727 22.7578,20.2726 6.4029,10e-5 13.0411,-1.0671 19.9145,-3.2015 l 9.6045,41.9669 c -15.6423,5.2165 -31.4074,7.8247 -47.2955,7.8247 -37.6947,0 -56.542,-15.53 -56.5419,-46.5901 l 0,-97.7926 -29.1609,0 0,-42.3142 29.1609,0 0,-52.9931 51.5606,-14.5751 z"
         style="font-variant:normal;font-stretch:normal;fill:#ffffff;font-family:CodiceBianco;-inkscape-font-specification:CodiceBianco"
         id="path12023" />
      <path
         d="m 1530.7164,-1398.3607 c 18.4854,2e-4 34.6051,3.7913 48.3591,11.3735 16.3583,9.2465 24.5375,22.1683 24.5377,38.7654 l 0,70.7697 c -2e-4,9.4852 0.4737,15.2949 1.4217,17.4292 2.1341,5.9256 7.9439,8.8883 17.4292,8.8883 l -17.0711,39.4708 c -5.9257,-0.2388 -11.3809,-0.9514 -16.3657,-2.138 -12.0899,-2.8433 -21.2169,-8.0562 -27.381,-15.6385 -13.0377,11.851 -31.1724,17.7765 -54.404,17.7765 -16.1198,0 -30.1666,-5.571 -42.1406,-16.713 -11.974,-11.1419 -17.8416,-23.5898 -17.6029,-37.3437 0.4703,-33.6646 21.6871,-53.5791 63.6504,-59.7435 l 41.2507,-6.0448 c 0.7161,-9.2463 -1.6534,-15.7651 -7.1085,-19.5564 -4.739,-2.8432 -12.5638,-4.2649 -23.4741,-4.2651 -17.3063,2e-4 -33.6648,6.519 -49.0754,19.5564 l -23.8214,-34.8476 c 21.3361,-18.4926 48.6014,-27.739 81.7959,-27.7392 z m -16.7238,110.5986 c -12.3286,2.1344 -18.4929,8.1793 -18.4928,18.1347 -10e-5,5.2165 2.7275,9.3061 8.1828,12.2688 5.4552,2.9628 11.8582,4.4442 19.2091,4.4441 7.5822,1e-4 14.2186,-1.4234 19.9091,-4.2705 5.6902,-2.8469 9.0093,-6.875 9.9572,-12.0843 l 0,-24.8958 z"
         style="font-variant:normal;font-stretch:normal;fill:#ffffff;font-family:CodiceBianco;-inkscape-font-specification:CodiceBianco"
         id="path12025" />
      <path
         d="m 1819.3407,-1330.4453 0,115.58 -51.9187,0 0,-104.5538 c -0.9479,-9.7165 -4.8006,-17.3603 -11.558,-22.9315 -6.7577,-5.5708 -14.4015,-8.3563 -22.9315,-8.3565 -8.5375,2e-4 -15.6495,2.6084 -21.3362,7.8248 -6.4031,5.6868 -9.6046,13.5079 -9.6045,23.4632 l 0,104.1956 -51.2133,0 0,-179.5884 44.4521,0 5.3395,9.9626 c 13.0375,-10.194 28.8027,-15.2911 47.2956,-15.2913 19.4404,2e-4 35.7988,5.6906 49.0753,17.0712 14.933,12.7989 22.3995,30.3403 22.3997,52.6241 z"
         style="font-variant:normal;font-stretch:normal;fill:#ffffff;font-family:CodiceBianco;-inkscape-font-specification:CodiceBianco"
         id="path12027" />
      <path
         d="m 1936.6246,-1400.1406 c 16.8358,2e-4 30.3509,4.7428 40.5452,14.2278 0.9477,-2.3729 2.25,-5.5744 3.9069,-9.6046 l 47.2956,0 0,172.1219 c -2e-4,14.4557 -6.519,28.2059 -19.5564,41.2507 -16.3586,16.8287 -38.5268,25.2431 -66.5046,25.2431 -13.9854,0 -30.2245,-2.3695 -48.7172,-7.1084 -17.3063,-4.5075 -30.3438,-9.3695 -39.1127,-14.5859 l 20.6199,-39.4708 c 24.1867,11.8582 44.8138,17.7873 61.8814,17.7873 10.9031,0 19.9107,-1.7798 27.0229,-5.3394 8.5373,-4.5075 12.8059,-11.0262 12.8061,-19.5564 l 0,-12.806 c -12.3287,6.8733 -26.0789,10.31 -41.2507,10.3099 -22.284,10e-5 -41.3701,-6.9926 -57.2582,-20.978 -17.7765,-15.6494 -26.6648,-36.5116 -26.6648,-62.5868 0,-26.5525 8.4144,-48.1274 25.2431,-64.7248 16.1197,-16.1195 36.0341,-24.1794 59.7435,-24.1796 z m -36.6275,89.6098 c -10e-5,13.7539 4.5038,24.1869 13.5115,31.2988 7.1119,5.9256 15.8844,8.8884 26.3175,8.8883 9.2463,10e-5 17.8994,-3.556 25.9593,-10.6681 8.0598,-7.112 12.0897,-15.4106 12.0898,-24.8958 l 0,-15.6386 c -10e-5,-9.9625 -3.8528,-18.3805 -11.558,-25.2539 -7.7054,-6.8732 -16.7709,-10.3098 -27.1965,-10.31 -10.9106,2e-4 -19.8025,3.3174 -26.6757,9.9518 -8.2987,8.2988 -12.448,20.5079 -12.4479,36.6275 z"
         style="font-variant:normal;font-stretch:normal;fill:#ffffff;font-family:CodiceBianco;-inkscape-font-specification:CodiceBianco"
         id="path12029" />
      <path
         d="m 2058.9657,-1312.2998 c 0,-27.2688 8.1792,-49.6739 24.5377,-67.2154 16.3584,-17.5412 37.5788,-26.3119 63.6612,-26.3121 24.4182,2e-4 45.1611,8.2952 62.2287,24.885 17.7836,17.7839 26.2016,39.9521 25.254,66.5046 -2e-4,3.321 -0.239,9.8397 -0.7163,19.5563 l -125.8899,0 c 5.9326,22.5228 19.0932,33.7841 39.4817,33.7841 12.7986,0 23.5825,-2.0149 32.3515,-6.0449 3.082,-1.1865 8.7724,-4.7425 17.0711,-10.6681 l 33.4368,33.7841 c -25.1347,19.2019 -52.7545,28.8028 -82.8594,28.8027 -19.6795,10e-5 -37.6984,-6.1642 -54.0567,-18.4928 -23.0003,-17.3061 -34.5004,-43.5006 -34.5004,-78.5835 z m 51.5715,-18.8509 73.2549,0 c -0.948,-9.7238 -4.9779,-17.6679 -12.0898,-23.8323 -7.1122,-6.1641 -15.172,-9.2462 -24.1795,-9.2464 -11.1494,2e-4 -20.28,3.795 -27.392,11.3844 -6.3958,6.6419 -9.5937,13.8733 -9.5936,21.6943 z"
         style="font-variant:normal;font-stretch:normal;fill:#ffffff;font-family:CodiceBianco;-inkscape-font-specification:CodiceBianco"
         id="path12031" />
      <path
         d="m 2432.6417,-1330.4453 0,115.58 -51.9188,0 0,-104.5538 c -0.9479,-9.7165 -4.8006,-17.3603 -11.558,-22.9315 -6.7576,-5.5708 -14.4014,-8.3563 -22.9315,-8.3565 -8.5374,2e-4 -15.6495,2.6084 -21.3361,7.8248 -6.4031,5.6868 -9.6046,13.5079 -9.6046,23.4632 l 0,104.1956 -51.2133,0 0,-179.5884 44.4522,0 5.3394,9.9626 c 13.0375,-10.194 28.8027,-15.2911 47.2956,-15.2913 19.4404,2e-4 35.7989,5.6906 49.0753,17.0712 14.933,12.7989 22.3996,30.3403 22.3998,52.6241 z"
         style="font-variant:normal;font-stretch:normal;fill:#ffffff;font-family:CodiceBianco;-inkscape-font-specification:CodiceBianco"
         id="path12033" />
      <path
         d="m 2470.2675,-1396.5809 142.2448,0 0,44.7994 -79.6579,95.6655 82.5013,0 0,40.8925 -147.9315,0 0,-40.5343 79.2998,-95.6655 -76.4565,0 z"
         style="font-variant:normal;font-stretch:normal;fill:#ffffff;font-family:CodiceBianco;-inkscape-font-specification:CodiceBianco"
         id="path12035" />
      <path
         d="m 2673.1348,-1467.7087 c 7.8283,3e-4 14.8228,2.8454 20.9835,8.5355 6.1606,5.6907 9.2409,12.9203 9.241,21.6889 -1e-4,7.3511 -2.9629,13.8717 -8.8883,19.5618 -5.9256,5.6906 -12.7989,8.5358 -20.6199,8.5355 -7.8284,3e-4 -14.765,-2.7255 -20.8098,-8.1774 -6.0449,-5.4514 -9.0674,-12.3265 -9.0674,-20.6253 0,-8.5371 2.9049,-15.5913 8.7147,-21.1625 5.8097,-5.5708 12.6251,-8.3562 20.4462,-8.3565 z m -24.5377,72.1913 51.2134,0 0,180.2939 -51.2134,0 z"
         style="font-variant:normal;font-stretch:normal;fill:#ffffff;font-family:CodiceBianco;-inkscape-font-specification:CodiceBianco"
         id="path12037" />
      <path
         d="m 2820.5237,-1398.3607 c 18.4855,2e-4 34.6052,3.7913 48.3591,11.3735 16.3583,9.2465 24.5375,22.1683 24.5377,38.7654 l 0,70.7697 c -2e-4,9.4852 0.4737,15.2949 1.4217,17.4292 2.1342,5.9256 7.9439,8.8883 17.4292,8.8883 l -17.0711,39.4708 c -5.9256,-0.2388 -11.3809,-0.9514 -16.3657,-2.138 -12.0899,-2.8433 -21.2169,-8.0562 -27.381,-15.6385 -13.0377,11.851 -31.1723,17.7765 -54.404,17.7765 -16.1198,0 -30.1666,-5.571 -42.1406,-16.713 -11.974,-11.1419 -17.8416,-23.5898 -17.6028,-37.3437 0.4702,-33.6646 21.687,-53.5791 63.6503,-59.7435 l 41.2507,-6.0448 c 0.7161,-9.2463 -1.6533,-15.7651 -7.1085,-19.5564 -4.739,-2.8432 -12.5637,-4.2649 -23.4741,-4.2651 -17.3063,2e-4 -33.6647,6.519 -49.0753,19.5564 l -23.8215,-34.8476 c 21.3362,-18.4926 48.6014,-27.739 81.7959,-27.7392 z m -16.7238,110.5986 c -12.3286,2.1344 -18.4928,8.1793 -18.4928,18.1347 0,5.2165 2.7276,9.3061 8.1829,12.2688 5.4551,2.9628 11.8581,4.4442 19.209,4.4441 7.5823,1e-4 14.2186,-1.4234 19.9091,-4.2705 5.6902,-2.8469 9.0093,-6.875 9.9572,-12.0843 l 0,-24.8958 z"
         style="font-variant:normal;font-stretch:normal;fill:#ffffff;font-family:CodiceBianco;-inkscape-font-specification:CodiceBianco"
         id="path12039" />
      <path
         d="m 2990.0193,-1463.8018 0,185.2861 c 0,13.9854 5.5709,20.9781 16.713,20.978 4.0298,10e-5 9.0075,-0.8283 14.9331,-2.4852 l 4.276,44.7994 c -10.6718,2.3732 -22.1719,3.5597 -34.5004,3.5597 -18.9631,0 -32.8327,-6.1643 -41.6088,-18.4928 -6.6345,-9.4851 -9.9518,-21.8136 -9.9518,-36.9856 l 0,-196.6596 z"
         style="font-variant:normal;font-stretch:normal;fill:#ffffff;font-family:CodiceBianco;-inkscape-font-specification:CodiceBianco"
         id="path12041" />
      <path
         d="m 3048.7209,-1312.2998 c 0,-27.2688 8.1792,-49.6739 24.5377,-67.2154 16.3584,-17.5412 37.5788,-26.3119 63.6612,-26.3121 24.4182,2e-4 45.1611,8.2952 62.2287,24.885 17.7836,17.7839 26.2015,39.9521 25.2539,66.5046 -10e-5,3.321 -0.2389,9.8397 -0.7162,19.5563 l -125.8899,0 c 5.9326,22.5228 19.0932,33.7841 39.4816,33.7841 12.7987,0 23.5826,-2.0149 32.3516,-6.0449 3.082,-1.1865 8.7723,-4.7425 17.0711,-10.6681 l 33.4368,33.7841 c -25.1347,19.2019 -52.7545,28.8028 -82.8595,28.8027 -19.6794,10e-5 -37.6983,-6.1642 -54.0567,-18.4928 -23.0002,-17.3061 -34.5003,-43.5006 -34.5003,-78.5835 z m 51.5715,-18.8509 73.2549,0 c -0.948,-9.7238 -4.9779,-17.6679 -12.0898,-23.8323 -7.1122,-6.1641 -15.172,-9.2462 -24.1796,-9.2464 -11.1493,2e-4 -20.2799,3.795 -27.3919,11.3844 -6.3958,6.6419 -9.5937,13.8733 -9.5936,21.6943 z"
         style="font-variant:normal;font-stretch:normal;fill:#ffffff;font-family:CodiceBianco;-inkscape-font-specification:CodiceBianco"
         id="path12043" />
    </g>
    <g
       style="font-size:284.49383545px;font-style:normal;font-weight:normal;line-height:125%;letter-spacing:0px;word-spacing:0px;fill:#ffffff;fill-opacity:1;stroke:none;font-family:Sans"
       id="text5169">
      <path
         d="m 1268.0941,-978.70291 c 14.7883,1.6e-4 27.6841,3.03309 38.6873,9.0988 13.0866,7.39726 19.63,17.7347 19.6301,31.01233 l 0,56.61573 c -10e-5,7.58818 0.379,12.23597 1.1373,13.9434 1.7074,4.74045 6.3552,7.11065 13.9434,7.11061 l -13.6568,31.57666 c -4.7406,-0.191 -9.1048,-0.76112 -13.0926,-1.71037 -9.6719,-2.27469 -16.9735,-6.44497 -21.9048,-12.51085 -10.4302,9.48083 -24.9379,14.22123 -43.5232,14.22122 -12.8958,10e-6 -24.1333,-4.45678 -33.7125,-13.37038 -9.5792,-8.91355 -14.2733,-18.87187 -14.0823,-29.87498 0.3762,-26.93168 17.3496,-42.86325 50.9203,-47.79475 l 33.0005,-4.83591 c 0.573,-7.39701 -1.3226,-12.61203 -5.6867,-15.64508 -3.7913,-2.27458 -10.051,-3.41193 -18.7793,-3.41205 -13.8451,1.2e-4 -26.9318,5.21515 -39.2603,15.64508 l -19.0571,-27.87811 c 17.0689,-14.79408 38.8811,-22.19119 65.4367,-22.19135 z m -13.3791,88.4789 c -9.8629,1.70754 -14.7943,6.54345 -14.7942,14.50773 -1e-4,4.17323 2.182,7.44492 6.5463,9.81507 4.3641,2.37025 9.4865,3.55535 15.3672,3.55531 6.0658,4e-5 11.3749,-1.13876 15.9273,-3.41639 4.5522,-2.27755 7.2074,-5.50004 7.9658,-9.66748 l 0,-19.91665 z"
         style="font-variant:normal;font-stretch:normal;fill:#ffffff;font-family:CodiceBianco;-inkscape-font-specification:CodiceBianco"
         id="path12002" />
      <path
         d="m 1406.2517,-976.71472 0,81.3683 c 0,8.15541 2.9403,14.79429 8.821,19.91665 5.1224,4.54945 11.3792,6.82415 18.7706,6.8241 7.2118,5e-5 13.3298,-2.2761 18.3539,-6.82844 5.0239,-4.55224 7.5359,-11.09417 7.5361,-19.6258 l 0,-81.65481 41.2571,0 0,143.38427 -36.6991,0 -4.2715,-8.24796 c -9.1047,8.34637 -21.8124,12.51955 -38.123,12.51954 -15.3615,10e-6 -28.1617,-4.26867 -38.4007,-12.80605 -11.9524,-10.05379 -17.9285,-24.4689 -17.9285,-43.24535 l 0,-91.60445 z"
         style="font-variant:normal;font-stretch:normal;fill:#ffffff;font-family:CodiceBianco;-inkscape-font-specification:CodiceBianco"
         id="path12004" />
      <path
         d="m 1586.2222,-978.4164 37.2721,0 0,33.85136 -37.2721,0 0,62.01598 c -10e-5,10.81211 6.0687,16.21814 18.2063,16.21809 5.1223,5e-5 10.4328,-0.85369 15.9316,-2.56121 l 7.6836,33.57354 c -12.5138,4.17319 -25.126,6.25978 -37.8364,6.25977 -30.1558,10e-6 -45.2336,-12.42401 -45.2336,-37.2721 l 0,-78.23407 -23.3287,0 0,-33.85136 23.3287,0 0,-42.3945 41.2485,-11.66 z"
         style="font-variant:normal;font-stretch:normal;fill:#ffffff;font-family:CodiceBianco;-inkscape-font-specification:CodiceBianco"
         id="path12006" />
      <path
         d="m 1716.0277,-981.55062 c 21.051,1.6e-4 38.3095,7.20771 51.7755,21.62267 13.4658,14.41525 20.1987,31.96023 20.1988,52.63501 -10e-5,22.75864 -6.448,41.43953 -19.3436,56.04271 -13.2779,15.17048 -30.8214,22.7557 -52.6307,22.75569 -20.6749,10e-6 -37.7467,-6.92248 -51.2155,-20.76749 -14.4122,-14.60319 -21.6183,-33.94681 -21.6183,-58.03091 0,-21.43301 6.6389,-39.16756 19.9167,-53.20368 13.2777,-14.03585 30.9167,-21.05384 52.9171,-21.054 z m -34.4243,74.5355 c -0.1911,29.58853 11.2837,44.38275 34.4243,44.38271 22.1913,4e-5 33.287,-14.79418 33.2871,-44.38271 -1e-4,-14.41212 -4.8389,-25.22128 -14.5164,-32.4275 -6.257,-4.55507 -12.5139,-6.83266 -18.7707,-6.83278 -7.2061,1.2e-4 -13.7495,1.99121 -19.6301,5.97326 -9.6719,6.63899 -14.6033,17.73466 -14.7942,33.28702 z"
         style="font-variant:normal;font-stretch:normal;fill:#ffffff;font-family:CodiceBianco;-inkscape-font-specification:CodiceBianco"
         id="path12008" />
      <path
         d="m 1864.0483,-984.96268 c 24.0897,1.7e-4 46.1855,7.11077 66.2875,21.33183 l -26.1677,28.16461 c -8.5375,-8.53145 -17.5466,-13.36735 -27.0273,-14.50772 -2.2806,-0.18509 -4.4626,-0.2777 -6.5463,-0.27783 -6.0717,1.3e-4 -11.0986,1.04198 -15.0807,3.12554 -3.9822,2.08382 -5.9733,4.74053 -5.9733,7.97014 0,2.84204 1.803,4.83313 5.409,5.97326 1.8926,0.75834 9.2897,2.46292 22.1913,5.11373 l 16.2094,3.42074 c 11.194,2.2748 20.1105,7.1107 26.7495,14.50772 7.3969,8.15543 11.0955,18.20636 11.0956,30.15281 -10e-5,10.6211 -3.606,20.2958 -10.8178,29.02413 -10.8064,12.51377 -27.4962,18.77063 -50.0695,18.77062 -27.1228,10e-6 -51.1142,-9.00906 -71.9743,-27.02726 l 27.5916,-25.88991 c 14.609,11.95236 29.9733,17.92851 46.0931,17.92846 10.621,5e-5 15.9315,-3.60301 15.9316,-10.80917 -10e-5,-4.17312 -2.5613,-7.20894 -7.6836,-9.10748 -2.0838,-0.56716 -11.9466,-2.74925 -29.5885,-6.54628 -13.845,-2.84185 -23.9915,-7.20314 -30.4393,-13.08387 -7.5882,-7.01501 -11.3822,-16.97333 -11.3822,-29.87498 0,-16.49578 6.1642,-29.10791 18.4928,-37.83643 10.0538,-7.01494 22.2868,-10.52249 36.6991,-10.52266 z"
         style="font-variant:normal;font-stretch:normal;fill:#ffffff;font-family:CodiceBianco;-inkscape-font-specification:CodiceBianco"
         id="path12010" />
      <path
         d="m 2009.0734,-978.4164 37.2721,0 0,33.85136 -37.2721,0 0,62.01598 c -10e-5,10.81211 6.0687,16.21814 18.2063,16.21809 5.1223,5e-5 10.4328,-0.85369 15.9316,-2.56121 l 7.6836,33.57354 c -12.5138,4.17319 -25.126,6.25978 -37.8364,6.25977 -30.1558,10e-6 -45.2336,-12.42401 -45.2336,-37.2721 l 0,-78.23407 -23.3287,0 0,-33.85136 23.3287,0 0,-42.3945 41.2485,-11.66 z"
         style="font-variant:normal;font-stretch:normal;fill:#ffffff;font-family:CodiceBianco;-inkscape-font-specification:CodiceBianco"
         id="path12012" />
      <path
         d="m 2160.4973,-980.12677 0,41.24848 c -2.8421,-0.3761 -5.6869,-0.56421 -8.5345,-0.56433 -11.1884,1.2e-4 -20.3856,2.55843 -27.5916,7.67494 -7.9702,5.50454 -11.9552,12.99715 -11.9552,22.47786 l 0,77.09672 -39.8246,0 0,-144.52162 39.8246,0 0,12.51954 c 11.9522,-10.81191 26.0837,-16.21793 42.3945,-16.21809 2.2746,1.6e-4 4.1702,0.0957 5.6868,0.2865 z"
         style="font-variant:normal;font-stretch:normal;fill:#ffffff;font-family:CodiceBianco;-inkscape-font-specification:CodiceBianco"
         id="path12014" />
      <path
         d="m 2246.0417,-978.70291 c 14.7883,1.6e-4 27.684,3.03309 38.6872,9.0988 13.0867,7.39726 19.63,17.7347 19.6302,31.01233 l 0,56.61573 c -2e-4,7.58818 0.3789,12.23597 1.1373,13.9434 1.7074,4.74045 6.3551,7.11065 13.9434,7.11061 l -13.6569,31.57666 c -4.7405,-0.191 -9.1047,-0.76112 -13.0925,-1.71037 -9.672,-2.27469 -16.9736,-6.44497 -21.9049,-12.51085 -10.4301,9.48083 -24.9378,14.22123 -43.5232,14.22122 -12.8958,10e-6 -24.1332,-4.45678 -33.7124,-13.37038 -9.5792,-8.91355 -14.2733,-18.87187 -14.0823,-29.87498 0.3762,-26.93168 17.3496,-42.86325 50.9203,-47.79475 l 33.0005,-4.83591 c 0.5729,-7.39701 -1.3226,-12.61203 -5.6867,-15.64508 -3.7913,-2.27458 -10.0511,-3.41193 -18.7793,-3.41205 -13.8451,1.2e-4 -26.9318,5.21515 -39.2603,15.64508 l -19.0572,-27.87811 c 17.0689,-14.79408 38.8812,-22.19119 65.4368,-22.19135 z m -13.3791,88.4789 c -9.8629,1.70754 -14.7943,6.54345 -14.7942,14.50773 -10e-5,4.17323 2.182,7.44492 6.5462,9.81507 4.3642,2.37025 9.4866,3.55535 15.3673,3.55531 6.0658,4e-5 11.3748,-1.13876 15.9272,-3.41639 4.5522,-2.27755 7.2075,-5.50004 7.9658,-9.66748 l 0,-19.91665 z"
         style="font-variant:normal;font-stretch:normal;fill:#ffffff;font-family:CodiceBianco;-inkscape-font-specification:CodiceBianco"
         id="path12016" />
      <path
         d="m 2482.9143,-1030.4827 0,198.2896 -36.6991,0 -3.412,-7.96145 c -12.1376,8.15536 -23.896,12.23303 -35.2752,12.23303 -17.8273,0 -32.8096,-5.68963 -44.9471,-17.06894 -14.7942,-13.84496 -22.1913,-33.76159 -22.1913,-59.74995 0,-22.37647 6.827,-40.29912 20.481,-53.76802 12.7047,-12.32838 28.2571,-18.49264 46.6574,-18.49279 13.0866,1.5e-4 24.6569,3.79421 34.7109,11.38218 l 0,-64.86366 z m -104.4018,127.16614 c 0,27.69005 11.2837,41.53503 33.8514,41.53499 9.4807,4e-5 17.1614,-2.93739 23.0422,-8.81229 5.3133,-5.50437 7.97,-11.76414 7.9701,-18.7793 l 0,-25.88991 c -1e-4,-6.82979 -2.4658,-12.89855 -7.3971,-18.20629 -6.0718,-6.25675 -14.3226,-9.38519 -24.7526,-9.38531 -9.2956,1.2e-4 -16.8838,3.12856 -22.7643,9.38531 -6.6332,7.01521 -9.9497,17.06614 -9.9497,30.1528 z"
         style="font-variant:normal;font-stretch:normal;fill:#ffffff;font-family:CodiceBianco;-inkscape-font-specification:CodiceBianco"
         id="path12018" />
      <path
         d="m 2509.7245,-909.85415 c 0,-21.81502 6.5434,-39.73912 19.6302,-53.77236 13.0867,-14.03295 30.063,-21.04949 50.929,-21.04966 19.5345,1.7e-4 36.1288,6.63615 49.7829,19.90797 14.2269,14.22714 20.9613,31.96168 20.2032,53.20368 -2e-4,2.6568 -0.1912,7.87182 -0.573,15.64508 l -100.712,0 c 4.7462,18.01823 15.2746,27.02731 31.5854,27.02726 10.2389,5e-5 18.866,-1.61192 25.8812,-4.83591 2.4656,-0.94918 7.0179,-3.794 13.6569,-8.53446 l 26.7494,27.02726 c -20.1078,15.36148 -42.2036,23.0422 -66.2875,23.04219 -15.7436,10e-6 -30.1587,-4.93139 -43.2454,-14.79423 -18.4002,-13.84496 -27.6003,-34.80054 -27.6003,-62.86682 z m 41.2572,-15.08074 58.6039,0 c -0.7583,-7.77902 -3.9822,-14.13428 -9.6718,-19.06581 -5.6897,-4.93129 -12.1376,-7.39699 -19.3436,-7.39712 -8.9195,1.3e-4 -16.224,3.03596 -21.9136,9.10748 -5.1166,5.31354 -7.6749,11.09868 -7.6749,17.35545 z"
         style="font-variant:normal;font-stretch:normal;fill:#ffffff;font-family:CodiceBianco;-inkscape-font-specification:CodiceBianco"
         id="path12020" />
    </g>
    <path
       style="fill:none;stroke:#ffffff;stroke-width:11.75632572;stroke-linecap:butt;stroke-linejoin:miter;stroke-miterlimit:4;stroke-opacity:1;stroke-dasharray:none"
       d="m 2970.7869,-807.95408 c 5.8377,-0.8846 12.4997,-7.5488 13.494,-13.6283 l 13.8107,-91.3753 -13.8107,-91.36622 c -0.9943,-6.0792 -7.6563,-12.7435 -13.494,-13.6283 l -91.8242,-14.1227 -91.8101,14.1227 c -5.8378,0.8848 -12.4997,7.5491 -13.494,13.6283 l -13.8106,91.36622 13.8106,91.3753 c 0.9943,6.0795 7.6562,12.7437 13.494,13.6283 l 91.808,14.1229 z"
       id="path3382"
       inkscape:connector-curvature="0"
       sodipodi:nodetypes="ccccccccccccc" />
    <g
       style="font-size:128.66119385px;font-style:normal;font-weight:normal;line-height:125%;letter-spacing:0px;word-spacing:0px;fill:#ffffff;fill-opacity:1;stroke:none;font-family:Sans"
       id="text3384">
      <path
         d="m 2855.9465,-957.21221 14.41,89.16133 -19.0393,0 -2.3166,-17.62574 -13.1221,0 -2.5757,17.62574 -18.6545,0 15.3092,-89.16133 z m -13.1221,22.51807 -5.018,35.38104 9.5216,0 z"
         style="text-align:center;word-spacing:-24.49234581px;text-anchor:middle;fill:#ffffff;font-family:CodiceBiancoCondensed;-inkscape-font-specification:CodiceBiancoCondensed"
         id="path12051" />
      <path
         d="m 2933.8868,-958.11136 0,90.4492 -18.2697,0 0,-60.2157 -9.9064,0 0,-13.38127 c 8.4052,-0.59936 12.5227,-6.21676 12.3526,-16.85223 z"
         style="text-align:center;word-spacing:-24.49234581px;text-anchor:middle;fill:#ffffff;font-family:CodiceBiancoCondensed;-inkscape-font-specification:CodiceBiancoCondensed"
         id="path12053" />
    </g>
    <path
       sodipodi:nodetypes="ccccccccccccc"
       inkscape:connector-curvature="0"
       id="path5529"
       d="m 3283.5132,-807.95408 c 5.8377,-0.8846 12.4997,-7.5488 13.494,-13.6283 l 13.8107,-91.3753 -13.8107,-91.36622 c -0.9943,-6.0792 -7.6563,-12.7435 -13.494,-13.6283 l -91.8242,-14.1227 -91.8101,14.1227 c -5.8378,0.8848 -12.4997,7.5491 -13.494,13.6283 l -13.8106,91.36622 13.8106,91.3753 c 0.9943,6.0795 7.6562,12.7437 13.494,13.6283 l 91.808,14.1229 z"
       style="fill:none;stroke:#ffffff;stroke-width:11.75599957;stroke-linecap:butt;stroke-linejoin:miter;stroke-miterlimit:4;stroke-opacity:1;stroke-dasharray:none" />
    <g
       style="font-size:128.66119385px;font-style:normal;font-weight:normal;line-height:125%;letter-spacing:0px;word-spacing:0px;fill:#ffffff;fill-opacity:1;stroke:none;font-family:Sans"
       id="text5531">
      <path
         d="m 3164.6504,-957.21221 14.41,89.16133 -19.0392,0 -2.3166,-17.62574 -13.1221,0 -2.5758,17.62574 -18.6544,0 15.3091,-89.16133 z m -13.1221,22.51807 -5.018,35.38104 9.5216,0 z"
         style="text-align:center;word-spacing:-34.28928375px;text-anchor:middle;fill:#ffffff;font-family:CodiceBiancoCondensed;-inkscape-font-specification:CodiceBiancoCondensed"
         id="path12046" />
      <path
         d="m 3205.1321,-933.02149 c -0.4293,-4.71949 1.1583,-9.90891 4.7628,-15.56828 4.6305,-7.03345 10.8487,-10.46515 18.6544,-10.2951 6.3477,0.0865 11.687,2.29575 16.0179,6.62781 4.3308,4.33225 6.4962,9.45754 6.4963,15.3759 -1e-4,4.28773 -1.2435,8.44712 -3.7301,12.47818 -1.801,2.91609 -5.3178,6.04676 -10.5504,9.39202 1.5444,0.42934 4.1607,1.58764 7.849,3.47489 6.0885,4.46047 9.1328,10.76499 9.1328,18.9136 0,7.03357 -2.5083,13.12345 -7.525,18.26967 -5.0167,5.14625 -11.0418,7.71936 -18.0753,7.71936 -8.4078,0 -14.7987,-3.25893 -19.1727,-9.77681 -3.0862,-4.63316 -4.6293,-9.52287 -4.6293,-14.66913 l 15.694,-3.60446 c 0.1727,8.06491 2.789,12.09734 7.8489,12.09732 2.1438,2e-5 3.9879,-1.02935 5.5323,-3.08813 1.5444,-2.05873 2.3166,-4.84715 2.3166,-8.36526 0,-4.11748 -1.0287,-7.11857 -3.0862,-9.0033 -1.4606,-1.46059 -3.6908,-2.36236 -6.6906,-2.70531 -2.3166,-0.25648 -4.6332,-0.46981 -6.9498,-0.64 l 0,-14.92828 c 4.8897,6e-5 8.6643,-1.45796 11.3239,-4.37404 2.4867,-2.65682 3.73,-6.25866 3.7301,-10.80553 -1e-4,-4.54673 -1.7159,-6.82013 -5.1476,-6.82021 -4.717,8e-5 -7.8908,4.16078 -9.5216,12.48211 z"
         style="text-align:center;word-spacing:-34.28928375px;text-anchor:middle;fill:#ffffff;font-family:CodiceBiancoCondensed;-inkscape-font-specification:CodiceBiancoCondensed"
         id="path12048" />
    </g>
    <g
       id="Layer1076"
       transform="matrix(1.9576795,0,0,1.9576795,-17094.063,-613.65378)"
       style="fill:#000000;fill-opacity:1;stroke:none">
      <path
         inkscape:connector-curvature="0"
         d="m 9674.7188,429.4377 16.1239,-69.8406 c 0.7713,-3.3409 -0.4416,-6.6287 -3.1978,-8.6679 -2.7562,-2.0393 -6.2545,-2.2381 -9.2239,-0.5238 l -136.8883,79.0325 136.8883,79.0322 c 2.9694,1.7144 6.4678,1.5157 9.2241,-0.5237 2.7562,-2.0394 3.9687,-5.327 3.1976,-8.668 z"
         style="fill:#000000;fill-opacity:1;fill-rule:evenodd;stroke:none"
         id="path7813" />
      <path
         inkscape:connector-curvature="0"
         d="m 9609.9188,429.4378 h 189.8983"
         style="fill:#000000;fill-opacity:1;stroke:none"
         id="path7815" />
    </g>
    <g
       style="fill:#000000;fill-opacity:1;stroke:none"
       transform="matrix(-1.9576795,0,0,1.9576795,21781.53,-613.65378)"
       id="g5561">
      <path
         id="path5563"
         style="fill:#000000;fill-opacity:1;fill-rule:evenodd;stroke:none"
         d="m 9674.7188,429.4377 16.1239,-69.8406 c 0.7713,-3.3409 -0.4416,-6.6287 -3.1978,-8.6679 -2.7562,-2.0393 -6.2545,-2.2381 -9.2239,-0.5238 l -136.8883,79.0325 136.8883,79.0322 c 2.9694,1.7144 6.4678,1.5157 9.2241,-0.5237 2.7562,-2.0394 3.9687,-5.327 3.1976,-8.668 z"
         inkscape:connector-curvature="0" />
      <path
         id="path5565"
         style="fill:#000000;fill-opacity:1;stroke:none"
         d="m 9609.9188,429.4378 h 189.8983"
         inkscape:connector-curvature="0" />
    </g>
    <g
       id="g5567"
       transform="matrix(0,1.9576795,1.9576795,0,1511.6036,-19222.177)"
       style="fill:#000000;fill-opacity:1;stroke:none">
      <path
         inkscape:connector-curvature="0"
         d="m 9674.7188,429.4377 16.1239,-69.8406 c 0.7713,-3.3409 -0.4416,-6.6287 -3.1978,-8.6679 -2.7562,-2.0393 -6.2545,-2.2381 -9.2239,-0.5238 l -136.8883,79.0325 136.8883,79.0322 c 2.9694,1.7144 6.4678,1.5157 9.2241,-0.5237 2.7562,-2.0394 3.9687,-5.327 3.1976,-8.668 z"
         style="fill:#000000;fill-opacity:1;fill-rule:evenodd;stroke:none"
         id="path5569" />
      <path
         inkscape:connector-curvature="0"
         d="m 9609.9188,429.4378 h 189.8983"
         style="fill:#000000;fill-opacity:1;stroke:none"
         id="path5571" />
    </g>
    <path
       style="fill:none;stroke:#000000;stroke-width:100;stroke-linecap:butt;stroke-linejoin:miter;stroke-miterlimit:4;stroke-opacity:1;stroke-dasharray:none"
       d="m 2868.1755,227.05142 -244.3973,0"
       id="path5581"
       inkscape:connector-curvature="0"
       sodipodi:nodetypes="cc" />
    <path
       sodipodi:nodetypes="cc"
       inkscape:connector-curvature="0"
       id="path5583"
       d="m 2352.2356,-304.10018 0,244.397292"
       style="fill:none;stroke:#000000;stroke-width:100;stroke-linecap:butt;stroke-linejoin:miter;stroke-miterlimit:4;stroke-opacity:1;stroke-dasharray:none" />
    <rect
       style="fill:none;stroke:#000000;stroke-width:70.5;stroke-miterlimit:4;stroke-opacity:1;stroke-dasharray:none"
       id="rect6545"
       width="4559"
       height="2759"
       x="73"
       y="-1779.625"
       rx="250.51784"
       ry="250.51784" />
    <path
       inkscape:connector-curvature="0"
       style="font-size:16.94802094px;font-style:normal;font-weight:normal;line-height:125%;letter-spacing:0px;word-spacing:0px;fill:none;stroke:#000000;stroke-width:5.40228033;stroke-linecap:butt;stroke-linejoin:miter;stroke-miterlimit:4;stroke-opacity:1;stroke-dashoffset:0;font-family:Sans"
       d="m 417.3958,713.49472 c 0,39.9281 -32.3685,72.2985 -72.2989,72.2985 -39.9288,0 -72.2989,-32.3704 -72.2989,-72.2985 0,-39.9293 32.3701,-72.2993 72.2989,-72.2993 39.9304,0 72.2989,32.37 72.2989,72.2993 z"
       id="path5612-2" />
    <path
       inkscape:connector-curvature="0"
       style="font-size:16.94802094px;font-style:normal;font-weight:normal;line-height:125%;letter-spacing:0px;word-spacing:0px;fill:none;stroke:#000000;stroke-width:5.40228033;stroke-linecap:butt;stroke-linejoin:miter;stroke-miterlimit:4;stroke-opacity:1;stroke-dashoffset:0;font-family:Sans"
       d="m 404.0525,713.48982 c 0,32.3749 -26.394,58.6203 -58.9556,58.6203 -32.5593,0 -58.9544,-26.2454 -58.9544,-58.6203 0,-32.3786 26.3951,-58.6256 58.9544,-58.6256 32.5616,0 58.9556,26.247 58.9556,58.6256 z"
       id="path5614-3" />
    <path
       inkscape:connector-curvature="0"
       style="font-size:16.94802094px;font-style:normal;font-weight:normal;line-height:125%;letter-spacing:0px;word-spacing:0px;fill:none;stroke:#000000;stroke-width:5.40228033;stroke-linecap:butt;stroke-linejoin:miter;stroke-miterlimit:4;stroke-opacity:1;stroke-dashoffset:0;font-family:Sans"
       d="m 390.5076,713.31582 c 0,24.8385 -20.2527,44.976 -45.2341,44.976 -24.9824,0 -45.235,-20.1375 -45.235,-44.976 0,-24.8441 20.2526,-44.9824 45.235,-44.9824 24.9814,0 45.2341,20.1383 45.2341,44.9824 z"
       id="path5616-3" />
    <path
       inkscape:connector-curvature="0"
       style="font-size:16.94802094px;font-style:normal;font-weight:normal;line-height:125%;letter-spacing:0px;word-spacing:0px;fill:#000000;fill-opacity:1;stroke:none;font-family:Sans"
       d="m 370.8156,711.86122 c 0,14.0265 -11.4371,25.3961 -25.5421,25.3961 -14.106,0 -25.5404,-11.3696 -25.5404,-25.3961 0,-14.0254 11.4344,-25.3965 25.5404,-25.3965 14.105,0 25.5421,11.3711 25.5421,25.3965 z"
       id="path5618-4" />
    <rect
       rx="18.573812"
       style="fill:none;stroke:#ffffff;stroke-width:10;stroke-miterlimit:4;stroke-opacity:1;stroke-dasharray:none"
       id="rect11728"
       width="274.11349"
       height="150"
       x="3279.0381"
       y="301.54898"
       ry="18.607153" />
  </g>
</svg>
