<?xml version="1.0" encoding="UTF-8" standalone="no"?>
<!-- Created with Inkscape (http://www.inkscape.org/) -->

<svg
   xmlns:dc="http://purl.org/dc/elements/1.1/"
   xmlns:cc="http://creativecommons.org/ns#"
   xmlns:rdf="http://www.w3.org/1999/02/22-rdf-syntax-ns#"
   xmlns:svg="http://www.w3.org/2000/svg"
   xmlns="http://www.w3.org/2000/svg"
   xmlns:sodipodi="http://sodipodi.sourceforge.net/DTD/sodipodi-0.dtd"
   xmlns:inkscape="http://www.inkscape.org/namespaces/inkscape"
   version="1.1"
   width="200"
   height="200"
   id="svg2"
   inkscape:version="0.47 r22583"
   sodipodi:docname="Italian traffic signs - icona trattrice.svg"
   sodipodi:version="0.32"
   inkscape:output_extension="org.inkscape.output.svg.inkscape">
  <metadata
     id="metadata2877">
    <rdf:RDF>
      <cc:Work
         rdf:about="">
        <dc:format>image/svg+xml</dc:format>
        <dc:type
           rdf:resource="http://purl.org/dc/dcmitype/StillImage" />
        <dc:title></dc:title>
      </cc:Work>
    </rdf:RDF>
  </metadata>
  <sodipodi:namedview
     pagecolor="#ffffff"
     bordercolor="#666666"
     borderopacity="1"
     objecttolerance="10"
     gridtolerance="10"
     guidetolerance="10"
     inkscape:pageopacity="0"
     inkscape:pageshadow="2"
     inkscape:window-width="1600"
     inkscape:window-height="838"
     id="namedview2875"
     showgrid="false"
     inkscape:zoom="2.3765092"
     inkscape:cx="125.22015"
     inkscape:cy="91.787948"
     inkscape:window-x="-8"
     inkscape:window-y="-8"
     inkscape:window-maximized="1"
     inkscape:current-layer="svg2" />
  <defs
     id="defs4">
    <inkscape:perspective
       sodipodi:type="inkscape:persp3d"
       inkscape:vp_x="0 : 100 : 1"
       inkscape:vp_y="0 : 1000 : 0"
       inkscape:vp_z="200 : 100 : 1"
       inkscape:persp3d-origin="100 : 66.666667 : 1"
       id="perspective2879" />
    <inkscape:perspective
       id="perspective2839"
       inkscape:persp3d-origin="0.5 : 0.33333333 : 1"
       inkscape:vp_z="1 : 0.5 : 1"
       inkscape:vp_y="0 : 1000 : 0"
       inkscape:vp_x="0 : 0.5 : 1"
       sodipodi:type="inkscape:persp3d" />
    <inkscape:perspective
       id="perspective3649"
       inkscape:persp3d-origin="0.5 : 0.33333333 : 1"
       inkscape:vp_z="1 : 0.5 : 1"
       inkscape:vp_y="0 : 1000 : 0"
       inkscape:vp_x="0 : 0.5 : 1"
       sodipodi:type="inkscape:persp3d" />
    <inkscape:perspective
       id="perspective3679"
       inkscape:persp3d-origin="0.5 : 0.33333333 : 1"
       inkscape:vp_z="1 : 0.5 : 1"
       inkscape:vp_y="0 : 1000 : 0"
       inkscape:vp_x="0 : 0.5 : 1"
       sodipodi:type="inkscape:persp3d" />
    <inkscape:perspective
       id="perspective3713"
       inkscape:persp3d-origin="0.5 : 0.33333333 : 1"
       inkscape:vp_z="1 : 0.5 : 1"
       inkscape:vp_y="0 : 1000 : 0"
       inkscape:vp_x="0 : 0.5 : 1"
       sodipodi:type="inkscape:persp3d" />
    <inkscape:perspective
       id="perspective3741"
       inkscape:persp3d-origin="0.5 : 0.33333333 : 1"
       inkscape:vp_z="1 : 0.5 : 1"
       inkscape:vp_y="0 : 1000 : 0"
       inkscape:vp_x="0 : 0.5 : 1"
       sodipodi:type="inkscape:persp3d" />
    <inkscape:perspective
       id="perspective3765"
       inkscape:persp3d-origin="0.5 : 0.33333333 : 1"
       inkscape:vp_z="1 : 0.5 : 1"
       inkscape:vp_y="0 : 1000 : 0"
       inkscape:vp_x="0 : 0.5 : 1"
       sodipodi:type="inkscape:persp3d" />
    <inkscape:perspective
       id="perspective3801"
       inkscape:persp3d-origin="0.5 : 0.33333333 : 1"
       inkscape:vp_z="1 : 0.5 : 1"
       inkscape:vp_y="0 : 1000 : 0"
       inkscape:vp_x="0 : 0.5 : 1"
       sodipodi:type="inkscape:persp3d" />
    <inkscape:perspective
       id="perspective2863"
       inkscape:persp3d-origin="0.5 : 0.33333333 : 1"
       inkscape:vp_z="1 : 0.5 : 1"
       inkscape:vp_y="0 : 1000 : 0"
       inkscape:vp_x="0 : 0.5 : 1"
       sodipodi:type="inkscape:persp3d" />
    <inkscape:perspective
       id="perspective3859"
       inkscape:persp3d-origin="0.5 : 0.33333333 : 1"
       inkscape:vp_z="1 : 0.5 : 1"
       inkscape:vp_y="0 : 1000 : 0"
       inkscape:vp_x="0 : 0.5 : 1"
       sodipodi:type="inkscape:persp3d" />
    <inkscape:perspective
       id="perspective3964"
       inkscape:persp3d-origin="0.5 : 0.33333333 : 1"
       inkscape:vp_z="1 : 0.5 : 1"
       inkscape:vp_y="0 : 1000 : 0"
       inkscape:vp_x="0 : 0.5 : 1"
       sodipodi:type="inkscape:persp3d" />
    <inkscape:perspective
       id="perspective3988"
       inkscape:persp3d-origin="0.5 : 0.33333333 : 1"
       inkscape:vp_z="1 : 0.5 : 1"
       inkscape:vp_y="0 : 1000 : 0"
       inkscape:vp_x="0 : 0.5 : 1"
       sodipodi:type="inkscape:persp3d" />
    <inkscape:perspective
       id="perspective2879-7"
       inkscape:persp3d-origin="0.5 : 0.33333333 : 1"
       inkscape:vp_z="1 : 0.5 : 1"
       inkscape:vp_y="0 : 1000 : 0"
       inkscape:vp_x="0 : 0.5 : 1"
       sodipodi:type="inkscape:persp3d" />
    <inkscape:perspective
       id="perspective4031"
       inkscape:persp3d-origin="0.5 : 0.33333333 : 1"
       inkscape:vp_z="1 : 0.5 : 1"
       inkscape:vp_y="0 : 1000 : 0"
       inkscape:vp_x="0 : 0.5 : 1"
       sodipodi:type="inkscape:persp3d" />
    <inkscape:perspective
       id="perspective4047"
       inkscape:persp3d-origin="0.5 : 0.33333333 : 1"
       inkscape:vp_z="1 : 0.5 : 1"
       inkscape:vp_y="0 : 1000 : 0"
       inkscape:vp_x="0 : 0.5 : 1"
       sodipodi:type="inkscape:persp3d" />
    <inkscape:perspective
       id="perspective4063"
       inkscape:persp3d-origin="0.5 : 0.33333333 : 1"
       inkscape:vp_z="1 : 0.5 : 1"
       inkscape:vp_y="0 : 1000 : 0"
       inkscape:vp_x="0 : 0.5 : 1"
       sodipodi:type="inkscape:persp3d" />
    <inkscape:perspective
       id="perspective4079"
       inkscape:persp3d-origin="0.5 : 0.33333333 : 1"
       inkscape:vp_z="1 : 0.5 : 1"
       inkscape:vp_y="0 : 1000 : 0"
       inkscape:vp_x="0 : 0.5 : 1"
       sodipodi:type="inkscape:persp3d" />
    <inkscape:perspective
       id="perspective4097"
       inkscape:persp3d-origin="0.5 : 0.33333333 : 1"
       inkscape:vp_z="1 : 0.5 : 1"
       inkscape:vp_y="0 : 1000 : 0"
       inkscape:vp_x="0 : 0.5 : 1"
       sodipodi:type="inkscape:persp3d" />
  </defs>
  <path
     style="fill:#ffffff;fill-opacity:1;stroke:none"
     d="m -2.1039262,-3.1405409 207.7153762,0 0,207.3483909 -207.7153762,0 0,-207.3483909 z"
     id="rect2881" />
  <path
     style="fill:none;stroke:#000000;stroke-width:3;stroke-miterlimit:4;stroke-opacity:1"
     d="m 21.814432,2.8621521 157.645218,0 c 10.29357,0 18.58045,8.2868829 18.58045,18.5804539 l 0,157.645234 c 0,10.29357 -8.28688,18.58045 -18.58045,18.58045 l -157.645218,0 c -10.293571,0 -18.5804535,-8.28688 -18.5804535,-18.58045 l 0,-157.645234 c 0,-10.293571 8.2868825,-18.5804539 18.5804535,-18.5804539 z"
     id="rect4614" />
  <path
     sodipodi:type="arc"
     style="fill:#000000;fill-opacity:1;stroke:#000000;stroke-width:0.63;stroke-linecap:butt;stroke-linejoin:miter;stroke-miterlimit:4;stroke-opacity:1;stroke-dasharray:none;stroke-dashoffset:0"
     id="path4087"
     sodipodi:cx="98.039459"
     sodipodi:cy="48.031395"
     sodipodi:rx="6.3971124"
     sodipodi:ry="6.4714971"
     d="m 104.43657,48.031395 a 6.3971124,6.4714971 0 1 1 -12.794223,0 6.3971124,6.4714971 0 1 1 12.794223,0 z"
     transform="matrix(0.83057441,0,0,0.83057441,58.310202,40.702054)" />
  <path
     style="fill:#000000"
     d="m 79.17065,136.39861 c -4.739072,-1.14547 -8.799506,-5.48234 -9.93707,-10.61358 -0.60537,-2.73068 -0.293576,-6.72544 0.524932,-6.72544 1.143821,0 5.189662,4.25139 5.53286,5.81396 0.537505,2.44724 3.847042,5.59048 6.38821,6.06721 4.510867,0.84624 9.000866,-2.11241 9.8183,-6.46969 0.831075,-4.43004 -2.125185,-8.97687 -6.352164,-9.76985 -2.347513,-0.4404 -6.805785,-4.64775 -5.468644,-5.16086 0.461241,-0.17699 21.372926,-0.25072 46.470426,-0.16384 l 45.63181,0.15796 2.82549,1.7471 c 9.01743,5.5758 8.76845,18.59099 -0.4534,23.70035 l -3.04067,1.68469 -45.0278,0.0937 c -24.76529,0.0516 -45.875815,-0.11123 -46.91228,-0.36175 l 0,4e-5 z M 64.169701,109.79494 C 49.2433,96.461457 46.706996,93.964013 46.706996,92.599815 c 0,-2.010416 0.953308,-2.981481 2.926956,-2.981481 1.198313,0 5.381511,3.409782 18.790449,15.316356 9.486931,8.42399 17.47951,15.81868 17.761297,16.43264 0.355264,0.77408 0.218449,1.56483 -0.446266,2.57932 -2.035539,3.10662 -2.841669,2.57772 -21.569731,-14.15171 z m 21.215022,-3.70142 c 0,-0.14625 1.945807,-1.70491 4.324014,-3.46368 l 4.32402,-3.197754 10.107963,0 10.10798,0 0,3.463674 0,3.46368 -14.431989,0 c -7.937594,0 -14.431988,-0.11966 -14.431988,-0.26592 z m 32.456107,-0.63273 c -1.58409,-1.10954 -1.70189,-3.73884 -0.22732,-5.07331 0.86203,-0.780132 2.35981,-0.955394 8.16481,-0.955394 l 7.10912,0 -0.36664,-3.944927 c -0.34341,-3.694831 -0.27526,-4.030779 1.07488,-5.299172 1.21241,-1.139001 2.20375,-1.394251 6.23722,-1.605951 3.95681,-0.207682 4.96605,-0.08136 5.76957,0.722165 1.44995,1.449947 1.20822,4.863557 -0.80278,11.336539 l -1.77667,5.7187 -11.9496,0 c -9.881,0 -12.17169,-0.15557 -13.23259,-0.89865 z m 28.04904,-4.00823 1.47126,-4.906872 6.11475,0 6.11475,0 4.88138,4.906872 4.88139,4.90688 -12.4674,0 -12.4674,0 1.47127,-4.90688 z m -134.900568,2.7735 c 3.266503,-4.03559 30.909484,-36.350337 31.277154,-36.563116 0.256484,-0.14843 3.077885,2.06811 6.269779,4.925643 4.278096,3.82995 6.230161,6.040567 7.426959,8.410651 1.52168,3.013469 3.280887,10.129143 2.658182,10.751849 -0.154567,0.154567 -1.420552,-0.769335 -2.813291,-2.053123 -3.013364,-2.777616 -5.271815,-3.740385 -7.703878,-3.284126 -2.803683,0.525971 -4.572248,2.809815 -4.572248,5.904392 0,2.468903 0.206238,2.80227 3.896637,6.298575 2.14315,2.030435 3.896636,3.805165 3.896636,3.943845 0,0.13869 -1.438511,0.79037 -3.196692,1.44819 -2.973479,1.11253 -4.409398,1.19604 -20.564107,1.19604 -16.254706,0 -17.316654,-0.0627 -16.575131,-0.97882 z"
     id="path4103"
     sodipodi:nodetypes="cssssssscccccccccssssscccccccccccscccsssccccccccccccccsssssssssssc" />
  <path
     transform="matrix(0.90833254,0,0,0.90833254,79.084061,78.835351)"
     d="m 104.43657,48.031395 a 6.3971124,6.4714971 0 1 1 -12.794223,0 6.3971124,6.4714971 0 1 1 12.794223,0 z"
     sodipodi:ry="6.4714971"
     sodipodi:rx="6.3971124"
     sodipodi:cy="48.031395"
     sodipodi:cx="98.039459"
     id="path4105"
     style="fill:#000000;fill-opacity:1;stroke:#ffffff;stroke-width:4.90415239;stroke-linecap:butt;stroke-linejoin:miter;stroke-miterlimit:4;stroke-opacity:1;stroke-dasharray:none;stroke-dashoffset:0"
     sodipodi:type="arc" />
</svg>
