<?xml version="1.0" encoding="UTF-8" standalone="no"?>
<!-- Created with Inkscape (http://www.inkscape.org/) -->

<svg
   xmlns:dc="http://purl.org/dc/elements/1.1/"
   xmlns:cc="http://creativecommons.org/ns#"
   xmlns:rdf="http://www.w3.org/1999/02/22-rdf-syntax-ns#"
   xmlns:svg="http://www.w3.org/2000/svg"
   xmlns="http://www.w3.org/2000/svg"
   xmlns:sodipodi="http://sodipodi.sourceforge.net/DTD/sodipodi-0.dtd"
   xmlns:inkscape="http://www.inkscape.org/namespaces/inkscape"
   version="1.0"
   width="1200"
   height="1200"
   id="svg2"
   sodipodi:version="0.32"
   inkscape:version="0.48.5 r10040"
   sodipodi:docname="CANC Limite.svg"
   inkscape:output_extension="org.inkscape.output.svg.inkscape"
   sodipodi:modified="true">
  <metadata
     id="metadata9">
    <rdf:RDF>
      <cc:Work
         rdf:about="">
        <dc:format>image/svg+xml</dc:format>
        <dc:type
           rdf:resource="http://purl.org/dc/dcmitype/StillImage" />
      </cc:Work>
    </rdf:RDF>
  </metadata>
  <sodipodi:namedview
     inkscape:window-height="768"
     inkscape:window-width="1280"
     inkscape:pageshadow="2"
     inkscape:pageopacity="0.0"
     guidetolerance="10.0"
     gridtolerance="10.0"
     objecttolerance="10.0"
     borderopacity="1.0"
     bordercolor="#666666"
     pagecolor="#ffffff"
     id="base"
     inkscape:zoom="0.12546875"
     inkscape:cx="1596.2728"
     inkscape:cy="1218.1014"
     inkscape:window-x="-4"
     inkscape:window-y="-4"
     inkscape:current-layer="svg2"
     showgrid="false"
     fit-margin-top="0"
     fit-margin-left="0"
     fit-margin-right="0"
     fit-margin-bottom="0"
     inkscape:window-maximized="0" />
  <defs
     id="defs5">
    <inkscape:path-effect
       is_visible="true"
       id="path-effect4800-6"
       effect="spiro" />
    <inkscape:path-effect
       effect="spiro"
       id="path-effect4782-5"
       is_visible="true" />
  </defs>
  <rect
     y="0"
     x="0"
     height="1200"
     width="1200"
     id="rect4764-7"
     style="fill:#00408b;fill-opacity:1;fill-rule:evenodd;stroke:none" />
  <path
     inkscape:connector-curvature="0"
     style="fill:#ffffff;fill-opacity:1;stroke:none;display:inline"
     d="m 377.34652,1033.3072 0,-604.26057 c 9.0488,2.16935 18.07659,4.42629 27.0817,6.7704 18.15121,4.72491 36.21023,9.804 54.1633,15.2334 4.36098,1.31885 8.88676,2.54068 13.41217,2.01321 4.5254,-0.52747 8.85445,-2.87674 11.55457,-6.54646 2.70012,-3.66972 3.68415,-8.43126 3.21422,-12.963 -0.46993,-4.53174 -2.26388,-8.81758 -4.29536,-12.89565 -6.5183,-13.08508 -15.47516,-24.7663 -23.7901,-36.79 -14.80102,-21.40279 -27.67224,-44.06663 -40.4472,-66.7371 -6.31473,-11.20613 -12.6113,-22.42248 -18.8897,-33.649 l -69.3967,-118.4825 -155.7198,267.4319 c -1.04387,2.31462 -1.37091,4.94661 -0.92526,7.44631 0.44565,2.49971 1.66211,4.85652 3.44156,6.66779 2.73606,2.78499 6.65152,4.17804 10.54041,4.52267 3.88888,0.34464 7.80298,-0.26073 11.61036,-1.12447 7.61476,-1.72749 15.09383,-4.01398 22.72573,-5.6641 l 62.6268,-13.5408 0,604.26067 93.0933,-1.6927"
     id="path4768-5"
     inkscape:path-effect="#path-effect4782-5"
     inkscape:original-d="m 377.34652,1033.3072 0,-604.26057 27.0817,6.7704 54.1633,15.2334 c 15.3491,4.317 21.5786,-24.5789 23.8856,-30.3919 1.08,-2.7223 -10.8495,-17.5699 -23.7901,-36.79 -18.9999,-28.2199 -37.0571,-62.2169 -40.4472,-66.7371 -35.0709,-46.7611 -18.8897,-33.649 -18.8897,-33.649 l -69.3967,-118.4825 -155.7198,267.4319 c 0,0 23.1172,-1.8747 2.5163,14.1141 -17.2006,13.3497 44.8765,-2.2659 44.8765,-2.2659 l 62.6268,-13.5408 0,604.26067 93.0933,-1.6927 z"
     sodipodi:nodetypes="cccsssscccscc" />
  <rect
     style="fill:none;stroke:#ffffff;stroke-width:18;stroke-miterlimit:4;stroke-opacity:1;stroke-dasharray:none"
     id="rect4784-4"
     width="1164"
     height="1164"
     x="18"
     y="17.999756"
     rx="63.134533"
     ry="63.134533" />
  <path
     sodipodi:nodetypes="cccsssscccscc"
     inkscape:original-d="m 947.34612,1033.3072 0,-604.26057 27.0817,6.7704 54.16328,15.2334 c 15.3491,4.317 21.5786,-24.5789 23.8856,-30.3919 1.08,-2.7223 -10.8495,-17.5699 -23.7901,-36.79 -18.9999,-28.2199 -37.05705,-62.2169 -40.44718,-66.7371 -35.0709,-46.7611 -18.8897,-33.649 -18.8897,-33.649 l -69.3967,-118.4825 -155.7198,267.4319 c 0,0 23.1172,-1.8747 2.5163,14.1141 -17.2006,13.3497 44.8765,-2.2659 44.8765,-2.2659 l 62.6268,-13.5408 0,604.26067 93.0933,-1.6927 z"
     inkscape:path-effect="#path-effect4800-6"
     id="path4798-1"
     d="m 947.34612,1033.3072 0,-604.26057 c 9.0488,2.16935 18.07659,4.42629 27.0817,6.7704 18.1512,4.72491 36.21018,9.804 54.16328,15.2334 4.361,1.31886 8.8868,2.54068 13.4122,2.01321 4.5254,-0.52747 8.8544,-2.87674 11.5545,-6.54646 2.7002,-3.66972 3.6842,-8.43126 3.2143,-12.963 -0.47,-4.53174 -2.2639,-8.81758 -4.2954,-12.89565 -6.5183,-13.08508 -15.4752,-24.7663 -23.7901,-36.79 -14.801,-21.40279 -27.6722,-44.06663 -40.44718,-66.7371 -6.31472,-11.20613 -12.6113,-22.42248 -18.8897,-33.649 l -69.3967,-118.4825 -155.7198,267.4319 c -1.04387,2.31462 -1.37091,4.94661 -0.92526,7.44631 0.44565,2.49971 1.66211,4.85652 3.44156,6.66779 2.73606,2.78499 6.65152,4.17804 10.54041,4.52267 3.88888,0.34464 7.80298,-0.26073 11.61036,-1.12447 7.61476,-1.72749 15.09383,-4.01398 22.72573,-5.6641 l 62.6268,-13.5408 0,604.26067 93.0933,-1.6927"
     style="fill:#ffffff;fill-opacity:1;stroke:none;display:inline"
     inkscape:connector-curvature="0" />
  <path
     inkscape:connector-curvature="0"
     d="m 509.69982,730.14683 a 179.70001,179.70001 0 0 1 -359.3999,0 179.70001,179.70001 0 1 1 359.3999,0 z"
     style="fill:#ffffff;fill-opacity:1;fill-rule:evenodd;stroke:#000000;stroke-width:0.60000002;stroke-miterlimit:4;stroke-opacity:1;stroke-dasharray:none"
     id="path1875-2" />
  <path
     inkscape:connector-curvature="0"
     d="m 506.06902,730.14683 a 176.06972,176.06973 0 1 1 -352.1394,0 176.06972,176.06973 0 1 1 352.1394,0 z"
     style="fill:#d40000;fill-opacity:1;fill-rule:evenodd;stroke:none"
     id="path1877-0" />
  <path
     sodipodi:type="arc"
     style="fill:#ffffff;fill-opacity:1;fill-rule:evenodd;stroke:none"
     id="path1874-0"
     sodipodi:cx="76.92308"
     sodipodi:cy="89.655174"
     sodipodi:rx="40.318302"
     sodipodi:ry="34.482758"
     d="m 117.24138,89.655174 a 40.318302,34.482758 0 1 1 -80.636602,0 40.318302,34.482758 0 1 1 80.636602,0 z"
     transform="matrix(3.2414775,0,0,3.7900361,80.65552,390.35031)" />
  <path
     inkscape:connector-curvature="0"
     style="fill:#000000;fill-opacity:1;fill-rule:evenodd;stroke:none"
     d="m 276.04352,674.35633 0,76.455 161.296,0 0,-76.455 -161.296,0 z m -42.2566,21.4231 -12.7097,32.8226 0,44.1566 6.5515,0 c 0,-12.6961 10.2994,-22.9955 22.9954,-22.9955 12.6961,0 23.061,10.2994 23.061,22.9955 l 93.8162,0 c 0,-8.1027 4.2109,-15.2292 10.5479,-19.3267 l -104.6262,0 0,-57.6525 -39.6361,0 z m 3.6689,8.7134 30.1365,0 0,21.9473 -38.5879,0 8.4514,-21.9473 z m 13.2338,48.677 c -10.799,0 -19.5887,8.7243 -19.5887,19.5232 0,10.799 8.7897,19.5888 19.5887,19.5888 10.799,0 19.5233,-8.7898 19.5233,-19.5888 0,-10.7989 -8.7243,-19.5232 -19.5233,-19.5232 z m 139.8727,0 c -10.7989,0 -19.5888,8.7243 -19.5888,19.5232 0,10.799 8.7899,19.5888 19.5888,19.5888 10.7991,0 19.5232,-8.7898 19.5232,-19.5888 0,-10.7989 -8.7241,-19.5232 -19.5232,-19.5232 z m 12.3823,0.2621 c 5.872,3.7968 9.9217,10.1924 10.4823,17.5578 l 23.9126,-10.1547 0,-7.4031 -34.3949,0 z m -152.255,10.0237 c 5.1077,0 9.2375,4.1298 9.2375,9.2374 0,5.1077 -4.1298,9.3031 -9.2375,9.3031 -5.1076,0 -9.2374,-4.1954 -9.2374,-9.3031 0,-5.1076 4.1298,-9.2374 9.2374,-9.2374 z m 139.8727,0 c 5.1077,0 9.2375,4.1298 9.2375,9.2374 2e-4,5.1077 -4.1298,9.3031 -9.2375,9.3031 -5.1076,0 -9.2375,-4.1954 -9.2375,-9.3031 0,-5.1076 4.1299,-9.2374 9.2375,-9.2374 z"
     id="rect1885-1" />
</svg>
