<?xml version="1.0" encoding="UTF-8" standalone="no"?>
<!-- Created with Inkscape (http://www.inkscape.org/) -->

<svg
   xmlns:dc="http://purl.org/dc/elements/1.1/"
   xmlns:cc="http://creativecommons.org/ns#"
   xmlns:rdf="http://www.w3.org/1999/02/22-rdf-syntax-ns#"
   xmlns:svg="http://www.w3.org/2000/svg"
   xmlns="http://www.w3.org/2000/svg"
   xmlns:sodipodi="http://sodipodi.sourceforge.net/DTD/sodipodi-0.dtd"
   xmlns:inkscape="http://www.inkscape.org/namespaces/inkscape"
   width="1200"
   height="1550"
   id="svg2"
   version="1.1"
   inkscape:version="0.48.5 r10040"
   sodipodi:docname="CANC SP37.svg">
  <defs
     id="defs4" />
  <sodipodi:namedview
     id="base"
     pagecolor="#ffffff"
     bordercolor="#666666"
     borderopacity="1.0"
     inkscape:pageopacity="0.0"
     inkscape:pageshadow="2"
     inkscape:zoom="0.69611265"
     inkscape:cx="928.43371"
     inkscape:cy="118.53601"
     inkscape:document-units="px"
     inkscape:current-layer="layer1"
     showgrid="false"
     inkscape:window-width="1366"
     inkscape:window-height="705"
     inkscape:window-x="-8"
     inkscape:window-y="-8"
     inkscape:window-maximized="1"
     fit-margin-top="0"
     fit-margin-left="0"
     fit-margin-right="0"
     fit-margin-bottom="0" />
  <metadata
     id="metadata7">
    <rdf:RDF>
      <cc:Work
         rdf:about="">
        <dc:format>image/svg+xml</dc:format>
        <dc:type
           rdf:resource="http://purl.org/dc/dcmitype/StillImage" />
        <dc:title />
      </cc:Work>
    </rdf:RDF>
  </metadata>
  <g
     inkscape:label="Livello 1"
     inkscape:groupmode="layer"
     id="layer1"
     transform="translate(0,497.625)">
    <rect
       y="-497.625"
       x="0"
       height="1550"
       width="1200"
       id="rect3863"
       style="fill:#00408b;fill-opacity:1;fill-rule:evenodd;stroke:none" />
    <rect
       y="-497.625"
       x="0"
       height="420"
       width="1200"
       id="rect3073"
       style="fill:#ffffff;fill-opacity:1;fill-rule:evenodd;stroke:none" />
    <rect
       style="fill:#ffffff;fill-opacity:1;fill-rule:evenodd;stroke:none"
       id="rect3075"
       width="1200"
       height="320"
       x="0"
       y="732.375" />
    <rect
       id="rect3077"
       width="775"
       height="120"
       x="110"
       y="507.375"
       style="fill:none;stroke:#ffffff;stroke-width:10;stroke-miterlimit:4;stroke-opacity:1;stroke-dasharray:20, 20;stroke-dashoffset:0" />
    <rect
       y="267.375"
       x="110"
       height="120"
       width="775"
       id="rect3079"
       style="fill:none;stroke:#ffffff;stroke-width:10;stroke-miterlimit:4;stroke-opacity:1;stroke-dasharray:20, 20;stroke-dashoffset:0" />
    <rect
       id="rect3081"
       width="775"
       height="120"
       x="110"
       y="27.374998"
       style="fill:none;stroke:#ffffff;stroke-width:10;stroke-miterlimit:4;stroke-opacity:1;stroke-dasharray:20, 20;stroke-dashoffset:0" />
    <rect
       style="fill:none;stroke:#ffffff;stroke-width:10;stroke-miterlimit:4;stroke-opacity:1;stroke-dasharray:20, 20;stroke-dashoffset:0"
       y="27.374998"
       x="950"
       height="120"
       width="140"
       id="rect3855" />
    <rect
       id="rect3857"
       width="140"
       height="120"
       x="950"
       y="267.375"
       style="fill:none;stroke:#ffffff;stroke-width:10;stroke-miterlimit:4;stroke-opacity:1;stroke-dasharray:20, 20;stroke-dashoffset:0" />
    <rect
       style="fill:none;stroke:#ffffff;stroke-width:10;stroke-miterlimit:4;stroke-opacity:1;stroke-dasharray:20, 20;stroke-dashoffset:0"
       y="507.375"
       x="950"
       height="120"
       width="140"
       id="rect3859" />
    <rect
       style="fill:none;stroke:#000000;stroke-width:5.99999952;stroke-miterlimit:4;stroke-opacity:1;stroke-dasharray:none"
       id="rect3759"
       width="388"
       height="388"
       x="406"
       y="-481.625"
       rx="21.086935"
       ry="21.086935" />
    <g
       style="font-size:214.90031433px;font-style:normal;font-weight:normal;line-height:125%;letter-spacing:0px;word-spacing:0px;fill:#000000;fill-opacity:1;stroke:none;font-family:Sans"
       id="text3865"
       transform="translate(0,0.01281477)">
      <path
         d="m 522.0527,-362.42139 0,150 -35.02754,0 0,-95.84863 -16.54643,0 0,-25.78699 c 13.75041,-1.00109 20.62562,-10.45588 20.62565,-28.36438 z"
         style="font-variant:normal;font-stretch:normal;text-align:center;text-anchor:middle;fill:#000000;font-family:CodiceNeroCondensed;-inkscape-font-specification:CodiceNeroCondensed"
         id="path5235"
         inkscape:connector-curvature="0" />
      <path
         d="m 585.43807,-366.71703 c 12.17639,1.6e-4 21.98969,4.44008 29.43992,13.31978 6.73304,8.02305 10.0996,17.54997 10.09969,28.58079 -9e-5,15.90602 -6.16046,26.86701 -18.48111,32.883 4.44203,1.00132 8.73986,3.86726 12.89349,8.59785 6.44447,7.01739 9.66675,16.32789 9.66684,27.93154 -9e-5,13.03781 -4.26185,23.89059 -12.78528,32.55836 -8.5236,8.66782 -18.51506,13.00172 -29.97442,13.00171 -12.18088,1e-5 -22.35269,-4.08359 -30.51548,-12.25079 -8.60005,-8.59563 -12.90006,-19.91295 -12.90005,-33.95199 -10e-6,-11.45936 3.36873,-20.84419 10.10624,-28.15451 3.86497,-4.29775 7.37362,-6.80299 10.52597,-7.51574 -5.73192,-2.15101 -10.13796,-6.16356 -13.21813,-12.03765 -3.08019,-5.87389 -4.62029,-12.46381 -4.62027,-19.7698 -2e-5,-11.46367 3.22445,-21.27697 9.6734,-29.43993 7.45012,-9.16826 17.47985,-13.75246 30.08919,-13.75262 z m 0,60.81453 c 4.43768,10e-5 6.65655,-5.58751 6.65661,-16.76285 -6e-5,-10.3138 -2.21893,-15.47075 -6.65661,-15.47089 -4.58644,1.4e-4 -6.95178,5.15709 -7.09601,15.47089 -0.14433,11.17534 2.22101,16.76295 7.09601,16.76285 z m -7.09601,47.70462 c -5e-5,11.74803 2.57952,17.62202 7.73872,17.62198 5.0148,4e-5 7.52223,-5.87395 7.52229,-17.62198 -6e-5,-11.60364 -2.43535,-17.40549 -7.30587,-17.40556 -5.30348,7e-5 -7.95519,5.80192 -7.95514,17.40556 z"
         style="font-variant:normal;font-stretch:normal;text-align:center;text-anchor:middle;fill:#000000;font-family:CodiceNeroCondensed;-inkscape-font-specification:CodiceNeroCondensed"
         id="path5237"
         inkscape:connector-curvature="0" />
      <path
         d="m 692.57343,-244.4387 34.38484,0 0,31.80089 -75.64271,0 0,-25.35414 c 7.59441,-12.18079 18.41112,-30.51979 32.45016,-55.01706 6.58878,-12.32064 10.02748,-22.06179 10.3161,-29.2235 0.28413,-7.16584 -1.93692,-10.74882 -6.66317,-10.74895 -0.86136,1.3e-4 -1.79263,0.14441 -2.79381,0.43284 -3.00809,0.85707 -5.08486,3.79298 -6.23032,8.80771 -0.86136,3.58092 -1.14773,6.51901 -0.85913,8.81428 l -30.08919,0 c -10e-6,-16.61845 4.51424,-29.44198 13.54276,-38.47062 8.16278,-8.30695 18.40455,-12.10416 30.72534,-11.39166 11.60801,0.71719 20.9207,5.23144 27.93809,13.54276 6.59312,7.59458 9.67331,16.26237 9.24056,26.00341 -0.28429,8.30721 -2.79172,17.68985 -7.5223,28.14795 -2.71957,6.02055 -7.62512,14.93975 -14.71669,26.75761 -7.0917,11.818 -11.78521,20.45082 -14.08053,25.89848 z"
         style="font-variant:normal;font-stretch:normal;text-align:center;text-anchor:middle;fill:#000000;font-family:CodiceNeroCondensed;-inkscape-font-specification:CodiceNeroCondensed"
         id="path5239"
         inkscape:connector-curvature="0" />
    </g>
    <rect
       style="fill:none;stroke:#000000;stroke-width:1.99999988;stroke-miterlimit:4;stroke-opacity:1;stroke-dasharray:none"
       id="rect5089"
       width="1198"
       height="1547.9999"
       x="1"
       y="-496.62497" />
    <g
       style="font-size:85.58965302px;font-style:normal;font-weight:normal;line-height:125%;letter-spacing:0px;word-spacing:0px;fill:#000000;fill-opacity:1;stroke:none;font-family:Sans"
       id="text3069-1">
      <path
         d="m 524.39336,806.77652 13.69466,0 0,60.59814 -12.58195,0 c -0.17069,-0.51369 -0.45626,-1.22676 -0.85674,-2.13922 -3.65159,2.16796 -6.87565,3.25193 -9.67219,3.25193 -4.56403,0 -8.72928,-1.39828 -12.49576,-4.19486 -5.47647,-3.99459 -8.2147,-10.1284 -8.2147,-18.40146 0,-6.67621 1.93983,-12.15398 5.81951,-16.43333 3.87966,-4.27926 8.81545,-6.41891 14.80737,-6.41896 2.11046,5e-5 3.99283,0.37095 5.64712,1.11271 2.28284,1.08489 3.56707,1.65517 3.85268,1.71085 z m -16.77681,40.48321 c -1e-5,2.68167 0.72786,4.87878 2.18363,6.59136 1.45573,1.71261 3.58101,2.5689 6.37586,2.56889 2.1122,10e-6 4.02418,-0.71393 5.73593,-2.14183 1.5393,-1.25548 2.30897,-2.45351 2.309,-3.5941 l 0,-9.41361 c -3e-5,-1.5985 -0.8128,-3.05381 -2.43829,-4.36594 -1.62556,-1.31205 -3.49444,-1.96809 -5.60664,-1.96813 -2.33862,4e-5 -4.30719,0.7697 -5.9057,2.309 -1.76921,1.65603 -2.6538,3.96764 -2.65379,6.93483 z"
         style="font-variant:normal;font-stretch:normal;word-spacing:-20px;fill:#000000;font-family:CodiceNero;-inkscape-font-specification:CodiceNero"
         id="path5287" />
      <path
         d="m 569.25427,822.95257 c 5.47818,4e-5 10.24244,1.93988 14.2928,5.81951 4.56572,4.33768 6.84859,10.044 6.84864,17.11897 -5e-5,0.91248 -0.14284,2.36736 -0.42837,4.36464 l -28.58822,0 c 1.31294,4.05208 4.22357,6.02064 8.73188,5.9057 3.53661,-0.11317 7.01664,-1.48272 10.44012,-4.10866 l 9.16025,8.98786 c -7.07679,4.90706 -13.6677,7.36058 -19.77276,7.36058 -5.76207,0 -10.78318,-1.79704 -15.06334,-5.39114 -4.67895,-3.99459 -7.10374,-9.27255 -7.27439,-15.83388 0,-0.85671 0,-2.16967 0,-3.93888 0.0557,-4.33587 1.68125,-8.52985 4.87658,-12.58195 4.10952,-5.13512 9.70178,-7.70271 16.77681,-7.70275 z m -7.70276,16.94658 14.97715,0 c -0.34133,-1.59676 -1.19676,-2.95151 -2.56628,-4.06426 -1.36958,-1.11267 -2.99641,-1.69775 -4.8805,-1.75525 -1.93986,-0.0574 -3.62285,0.57032 -5.04898,1.88324 -1.19805,1.08488 -2.02518,2.39697 -2.48139,3.93627 z"
         style="font-variant:normal;font-stretch:normal;word-spacing:-20px;fill:#000000;font-family:CodiceNero;-inkscape-font-specification:CodiceNero"
         id="path5289" />
      <path
         d="m 612.07521,806.77652 0,44.07992 c -2e-5,1.88239 0.14277,3.08043 0.42837,3.5941 0.0574,0.17067 0.42835,0.39878 1.11271,0.68434 0.34302,0.17067 0.79924,0.25599 1.36868,0.25598 1.19801,10e-6 2.76781,-0.37089 4.70942,-1.11271 0.96989,8.56036 1.39738,12.84054 1.28248,12.84054 -2.39609,0.3413 -5.90486,0.68347 -10.52631,1.02651 -3.31028,0 -6.44901,-1.34082 -9.41622,-4.02247 -1.65427,-1.4836 -2.65292,-4.39422 -2.99595,-8.73187 l 0,-48.61434 z"
         style="font-variant:normal;font-stretch:normal;word-spacing:-20px;fill:#000000;font-family:CodiceNero;-inkscape-font-specification:CodiceNero"
         id="path5291" />
      <path
         d="m 642.16532,806.77652 0,44.07992 c -10e-6,1.88239 0.14277,3.08043 0.42837,3.5941 0.0575,0.17067 0.42835,0.39878 1.11271,0.68434 0.34302,0.17067 0.79925,0.25599 1.36868,0.25598 1.19801,10e-6 2.76781,-0.37089 4.70942,-1.11271 0.96989,8.56036 1.39738,12.84054 1.28248,12.84054 -2.39609,0.3413 -5.90486,0.68347 -10.52631,1.02651 -3.31028,0 -6.44901,-1.34082 -9.41622,-4.02247 -1.65427,-1.4836 -2.65292,-4.39422 -2.99595,-8.73187 l 0,-48.61434 z"
         style="font-variant:normal;font-stretch:normal;word-spacing:-20px;fill:#000000;font-family:CodiceNero;-inkscape-font-specification:CodiceNero"
         id="path5293" />
      <path
         d="m 662.49966,805.32164 c 2.28113,7e-5 4.17787,0.75624 5.69022,2.26851 1.51233,1.51241 2.2685,3.49534 2.26851,5.94881 -10e-6,3.4235 -1.22678,6.04767 -3.68029,7.87253 -2.1105,1.65605 -4.7634,2.48405 -7.95873,2.484 -1.42789,5e-5 -2.14183,-0.82795 -2.14183,-2.484 0,-1.2537 0.59988,-1.93804 1.79966,-2.05302 1.71172,-0.1706 2.56758,-0.65556 2.56759,-1.45488 -1e-5,-0.34299 -0.39965,-0.54237 -1.19891,-0.59814 -1.08485,-0.0574 -1.99817,-0.40046 -2.73997,-1.02913 -1.31122,-1.08305 -1.96683,-2.79477 -1.96683,-5.13517 0,-1.36862 0.59901,-2.62411 1.79705,-3.76649 1.42614,-1.36861 3.28065,-2.05295 5.56353,-2.05302 z"
         style="font-variant:normal;font-stretch:normal;word-spacing:-20px;fill:#000000;font-family:CodiceNero;-inkscape-font-specification:CodiceNero"
         id="path5295" />
      <path
         d="m 693.13046,806.86271 17.63093,0 19.68656,60.51195 -14.55139,0 -3.07954,-9.07405 -21.82578,0 -3.25192,9.07405 -14.12303,0 z m 8.90166,16.94659 -0.17239,0 -6.59005,21.05524 0.17239,-0.0862 13.00771,0.0862 z"
         style="font-variant:normal;font-stretch:normal;word-spacing:-20px;fill:#000000;font-family:CodiceNero;-inkscape-font-specification:CodiceNero"
         id="path5297" />
      <path
         d="m 752.76216,825.86232 c 1.25373,-0.62683 2.57975,-1.25414 3.97806,-1.88194 1.39826,-0.6277 3.23884,-0.94157 5.52174,-0.94162 5.70629,5e-5 10.55588,1.99735 14.54878,5.9919 3.76644,3.70907 5.73501,7.95964 5.90571,12.75173 0.0574,0.96995 0.11488,2.3395 0.17239,4.10866 0.11314,5.5357 -1.05703,9.92906 -3.51051,13.1801 -4.62152,6.22002 -10.3557,9.33002 -17.20256,9.33002 -2.90978,0 -6.13384,-1.05524 -9.6722,-3.16573 -0.17067,0.5137 -0.45537,1.22677 -0.85412,2.13922 l -12.58195,0 0,-60.59814 13.69466,0 z m 16.77419,18.31788 c -3e-5,-2.96719 -0.84153,-5.24963 -2.52448,-6.84733 -1.68303,-1.59763 -3.69469,-2.39646 -6.035,-2.3965 -2.11052,4e-5 -3.97896,0.65608 -5.60533,1.96813 -1.62642,1.31213 -2.43962,2.76744 -2.4396,4.36594 l 0,9.41361 c -2e-5,1.14059 0.77052,2.33862 2.31161,3.5941 1.7117,1.4279 3.6228,2.14184 5.73332,2.14183 2.79653,10e-6 4.96535,-0.88458 6.50646,-2.65378 1.36865,-1.65598 2.05299,-3.8248 2.05302,-6.50647 z"
         style="font-variant:normal;font-stretch:normal;word-spacing:-20px;fill:#000000;font-family:CodiceNero;-inkscape-font-specification:CodiceNero"
         id="path5299" />
      <path
         d="m 810.47665,822.95257 c 5.47819,4e-5 10.24245,1.93988 14.29281,5.81951 4.56571,4.33768 6.84859,10.044 6.84863,17.11897 -4e-5,0.91248 -0.14283,2.36736 -0.42836,4.36464 l -28.58822,0 c 1.31294,4.05208 4.22356,6.02064 8.73188,5.9057 3.5366,-0.11317 7.01664,-1.48272 10.44012,-4.10866 l 9.16024,8.98786 c -7.07679,4.90706 -13.6677,7.36058 -19.77275,7.36058 -5.76207,0 -10.78318,-1.79704 -15.06334,-5.39114 -4.67895,-3.99459 -7.10375,-9.27255 -7.27439,-15.83388 -10e-6,-0.85671 -10e-6,-2.16967 0,-3.93888 0.0557,-4.33587 1.68124,-8.52985 4.87658,-12.58195 4.10952,-5.13512 9.70178,-7.70271 16.7768,-7.70275 z m -7.70275,16.94658 14.97714,0 c -0.34133,-1.59676 -1.19675,-2.95151 -2.56628,-4.06426 -1.36958,-1.11267 -2.99641,-1.69775 -4.8805,-1.75525 -1.93986,-0.0574 -3.62285,0.57032 -5.04897,1.88324 -1.19805,1.08488 -2.02518,2.39697 -2.48139,3.93627 z"
         style="font-variant:normal;font-stretch:normal;word-spacing:-20px;fill:#000000;font-family:CodiceNero;-inkscape-font-specification:CodiceNero"
         id="path5301" />
      <path
         d="m 859.5455,806.00598 0,16.17605 11.21326,0 0,12.07 -10.95468,0 0,17.8869 c -2e-5,1.93985 1.36866,2.90977 4.10605,2.90975 0.8567,2e-5 1.99814,-0.0997 3.42432,-0.29907 1.42611,-0.19936 2.28197,-0.29905 2.56758,-0.29907 l 2.39781,11.38305 c -3.42348,1.71172 -7.78898,2.56758 -13.09651,2.56758 -3.59412,0 -6.73199,-0.91332 -9.41361,-2.73997 -2.96723,-2.05302 -4.45084,-4.64846 -4.45083,-7.78634 l 0,-23.62283 -7.10461,0 0,-12.07 7.10461,0 0,-12.58195 z"
         style="font-variant:normal;font-stretch:normal;word-spacing:-20px;fill:#000000;font-family:CodiceNero;-inkscape-font-specification:CodiceNero"
         id="path5303" />
      <path
         d="m 916.85253,829.45903 c 3.93709,4.27847 5.90566,9.29958 5.90571,15.06334 -5e-5,7.47379 -2.42484,13.52228 -7.27439,18.14549 -4.22275,3.99286 -9.04448,5.98929 -14.46519,5.98929 -8.04495,0 -14.26409,-3.10914 -18.65744,-9.32742 -1.54108,-2.2254 -2.56846,-4.10864 -3.08215,-5.64973 -0.74181,-2.05474 -1.11271,-4.85044 -1.11271,-8.38709 0,-7.30483 2.45353,-13.15394 7.36059,-17.54735 4.10951,-3.70897 9.15935,-5.56348 15.14953,-5.56353 6.27745,5e-5 11.66946,2.42571 16.17605,7.277 z m -25.41987,13.1801 0,4.7068 c -2e-5,2.34036 0.9133,4.36639 2.73997,6.0781 1.82663,1.71174 3.90926,2.5676 6.24788,2.56758 2.39604,2e-5 4.47866,-0.85584 6.24788,-2.56758 1.76915,-1.71171 2.65374,-3.73774 2.65378,-6.0781 l 0,-4.7068 c -4e-5,-2.4535 -0.96995,-4.50739 -2.90976,-6.16169 -1.76921,-1.48357 -3.76651,-2.22537 -5.9919,-2.22541 -2.33862,4e-5 -4.39252,0.74184 -6.16168,2.22541 -1.88413,1.6543 -2.82619,3.70819 -2.82617,6.16169 z"
         style="font-variant:normal;font-stretch:normal;word-spacing:-20px;fill:#000000;font-family:CodiceNero;-inkscape-font-specification:CodiceNero"
         id="path5305" />
      <path
         d="m 958.44583,867.37466 0,-24.13739 c -3e-5,-2.11046 -0.58511,-3.87921 -1.75525,-5.30625 -1.1702,-1.42699 -2.83926,-2.14049 -5.00719,-2.14053 -2.39608,4e-5 -4.19313,0.82804 -5.39114,2.484 -0.85675,1.25553 -1.28512,2.71041 -1.2851,4.36464 l 0,24.73553 -13.69466,0 0,-43.39558 12.07,0 0.68434,2.65378 c 3.02292,-2.39602 6.98792,-3.59405 11.895,-3.5941 5.5931,5e-5 9.90114,2.168 12.92412,6.50385 2.22537,3.19537 3.33808,6.41944 3.33812,9.6722 l 0,28.15985 z"
         style="font-variant:normal;font-stretch:normal;word-spacing:-20px;fill:#000000;font-family:CodiceNero;-inkscape-font-specification:CodiceNero"
         id="path5307" />
      <path
         d="m 1001.8832,822.95257 c 5.4782,4e-5 10.2425,1.93988 14.2928,5.81951 4.5657,4.33768 6.8486,10.044 6.8486,17.11897 0,0.91248 -0.1428,2.36736 -0.4283,4.36464 l -28.58824,0 c 1.31294,4.05208 4.22357,6.02064 8.73184,5.9057 3.5366,-0.11317 7.0167,-1.48272 10.4402,-4.10866 l 9.1602,8.98786 c -7.0768,4.90706 -13.6677,7.36058 -19.7727,7.36058 -5.76212,0 -10.78322,-1.79704 -15.06339,-5.39114 -4.67895,-3.99459 -7.10374,-9.27255 -7.27439,-15.83388 0,-0.85671 0,-2.16967 0,-3.93888 0.0557,-4.33587 1.68125,-8.52985 4.87658,-12.58195 4.10952,-5.13512 9.70178,-7.70271 16.7768,-7.70275 z m -7.70275,16.94658 14.97715,0 c -0.3413,-1.59676 -1.1968,-2.95151 -2.5663,-4.06426 -1.3696,-1.11267 -2.9964,-1.69775 -4.8805,-1.75525 -1.93984,-0.0574 -3.62283,0.57032 -5.04896,1.88324 -1.19805,1.08488 -2.02518,2.39697 -2.48139,3.93627 z"
         style="font-variant:normal;font-stretch:normal;word-spacing:-20px;fill:#000000;font-family:CodiceNero;-inkscape-font-specification:CodiceNero"
         id="path5309" />
      <path
         d="m 1066.1355,822.95257 c 5.4782,4e-5 10.2425,1.93988 14.2928,5.81951 4.5657,4.33768 6.8486,10.044 6.8487,17.11897 -10e-5,0.91248 -0.1429,2.36736 -0.4284,4.36464 l -28.5882,0 c 1.3129,4.05208 4.2235,6.02064 8.7319,5.9057 3.5366,-0.11317 7.0166,-1.48272 10.4401,-4.10866 l 9.1602,8.98786 c -7.0768,4.90706 -13.6677,7.36058 -19.7727,7.36058 -5.7621,0 -10.7832,-1.79704 -15.0634,-5.39114 -4.6789,-3.99459 -7.1037,-9.27255 -7.2744,-15.83388 0,-0.85671 0,-2.16967 0,-3.93888 0.056,-4.33587 1.6813,-8.52985 4.8766,-12.58195 4.1095,-5.13512 9.7018,-7.70271 16.7768,-7.70275 z m -7.7027,16.94658 14.9771,0 c -0.3413,-1.59676 -1.1967,-2.95151 -2.5663,-4.06426 -1.3695,-1.11267 -2.9964,-1.69775 -4.8805,-1.75525 -1.9398,-0.0574 -3.6228,0.57032 -5.0489,1.88324 -1.1981,1.08488 -2.0252,2.39697 -2.4814,3.93627 z"
         style="font-variant:normal;font-stretch:normal;word-spacing:-20px;fill:#000000;font-family:CodiceNero;-inkscape-font-specification:CodiceNero"
         id="path5311" />
    </g>
    <g
       style="font-size:85.58965302px;font-style:normal;font-weight:normal;line-height:125%;letter-spacing:0px;word-spacing:0px;fill:#000000;fill-opacity:1;stroke:none;font-family:Sans"
       id="text5116"
       transform="translate(0,0.01281477)">
      <path
         d="m 524.39336,916.76407 13.69466,0 0,60.59814 -12.58195,0 c -0.17069,-0.51369 -0.45626,-1.22676 -0.85674,-2.13922 -3.65159,2.16795 -6.87565,3.25193 -9.67219,3.25193 -4.56403,0 -8.72928,-1.39828 -12.49576,-4.19486 -5.47647,-3.99459 -8.2147,-10.1284 -8.2147,-18.40146 0,-6.67621 1.93983,-12.15398 5.81951,-16.43333 3.87966,-4.27926 8.81545,-6.41891 14.80737,-6.41896 2.11046,5e-5 3.99283,0.37095 5.64712,1.11271 2.28284,1.08489 3.56707,1.65517 3.85268,1.71085 z m -16.77681,40.48321 c -1e-5,2.68167 0.72786,4.87878 2.18363,6.59136 1.45573,1.71261 3.58101,2.5689 6.37586,2.56889 2.1122,1e-5 4.02418,-0.71393 5.73593,-2.14183 1.5393,-1.25548 2.30897,-2.45351 2.309,-3.5941 l 0,-9.41361 c -3e-5,-1.5985 -0.8128,-3.05382 -2.43829,-4.36594 -1.62556,-1.31205 -3.49444,-1.9681 -5.60664,-1.96813 -2.33862,3e-5 -4.30719,0.7697 -5.9057,2.309 -1.76921,1.65603 -2.6538,3.96764 -2.65379,6.93483 z"
         style="font-variant:normal;font-stretch:normal;word-spacing:-20px;fill:#000000;font-family:CodiceNero;-inkscape-font-specification:CodiceNero"
         id="path5212"
         inkscape:connector-curvature="0" />
      <path
         d="m 569.25427,932.94011 c 5.47818,5e-5 10.24244,1.93989 14.2928,5.81952 4.56572,4.33768 6.84859,10.044 6.84864,17.11897 -5e-5,0.91248 -0.14284,2.36736 -0.42837,4.36463 l -28.58822,0 c 1.31294,4.05209 4.22357,6.02065 8.73188,5.90571 3.53661,-0.11317 7.01664,-1.48272 10.44012,-4.10866 l 9.16025,8.98786 c -7.07679,4.90706 -13.6677,7.36058 -19.77276,7.36058 -5.76207,0 -10.78318,-1.79704 -15.06334,-5.39114 -4.67895,-3.99459 -7.10374,-9.27255 -7.27439,-15.83388 0,-0.85671 0,-2.16967 0,-3.93888 0.0557,-4.33587 1.68125,-8.52985 4.87658,-12.58195 4.10952,-5.13513 9.70178,-7.70271 16.77681,-7.70276 z m -7.70276,16.94659 14.97715,0 c -0.34133,-1.59677 -1.19676,-2.95152 -2.56628,-4.06426 -1.36958,-1.11267 -2.99641,-1.69775 -4.8805,-1.75525 -1.93986,-0.0574 -3.62285,0.57032 -5.04898,1.88324 -1.19805,1.08488 -2.02518,2.39697 -2.48139,3.93627 z"
         style="font-variant:normal;font-stretch:normal;word-spacing:-20px;fill:#000000;font-family:CodiceNero;-inkscape-font-specification:CodiceNero"
         id="path5214"
         inkscape:connector-curvature="0" />
      <path
         d="m 612.07521,916.76407 0,44.07992 c -2e-5,1.88239 0.14277,3.08042 0.42837,3.5941 0.0574,0.17066 0.42835,0.39878 1.11271,0.68434 0.34302,0.17066 0.79924,0.25599 1.36868,0.25597 1.19801,2e-5 2.76781,-0.37088 4.70942,-1.1127 0.96989,8.56036 1.39738,12.84054 1.28248,12.84053 -2.39609,0.34131 -5.90486,0.68348 -10.52631,1.02652 -3.31028,0 -6.44901,-1.34082 -9.41622,-4.02247 -1.65427,-1.4836 -2.65292,-4.39422 -2.99595,-8.73188 l 0,-48.61433 z"
         style="font-variant:normal;font-stretch:normal;word-spacing:-20px;fill:#000000;font-family:CodiceNero;-inkscape-font-specification:CodiceNero"
         id="path5216"
         inkscape:connector-curvature="0" />
      <path
         d="m 647.42065,917.6208 29.78451,0 c 4.05202,6e-5 7.64698,1.31215 10.7849,3.93627 3.59404,3.02474 5.39109,6.9906 5.39115,11.89761 -6e-5,4.62152 -1.91116,8.70144 -5.73332,12.23978 2.39601,1.42618 4.36458,3.39474 5.90571,5.9057 1.76913,2.79486 2.65372,5.73334 2.65378,8.81547 -6e-5,4.22273 -1.5124,8.0458 -4.53703,11.46924 -3.25284,3.65156 -7.16125,5.47734 -11.72522,5.47734 l -32.52448,0 z m 14.20661,23.28066 12.49575,0 c 1.19974,4e-5 2.35554,-0.55632 3.46742,-1.66906 1.11179,-1.11267 1.66771,-2.35423 1.66775,-3.7247 -4e-5,-1.48356 -0.55596,-2.78172 -1.66775,-3.89448 -1.11188,-1.11265 -2.26768,-1.66901 -3.46742,-1.66906 l -12.49575,0 z m 0,24.22097 12.58195,0 c 4.90701,10e-6 7.36054,-2.16793 7.36058,-6.50385 -4e-5,-1.7117 -0.62779,-3.16701 -1.88324,-4.36594 -1.25554,-1.19888 -2.71041,-1.79833 -4.36464,-1.79836 l -13.69465,0 z"
         style="font-variant:normal;font-stretch:normal;word-spacing:-20px;fill:#000000;font-family:CodiceNero;-inkscape-font-specification:CodiceNero"
         id="path5218"
         inkscape:connector-curvature="0" />
      <path
         d="m 735.29578,947.14933 c -1.25553,-0.343 -2.51102,-0.51452 -3.76648,-0.51456 -2.90979,4e-5 -5.30585,0.77057 -7.1882,2.31161 -2.11225,1.65429 -3.16836,3.99376 -3.16834,7.01842 l 0,21.39741 -13.86444,0 0,-43.47917 14.03683,0 0,2.73737 c 1.25547,-0.74176 2.48224,-1.48357 3.68029,-2.22542 2.16793,-1.02733 4.44993,-1.54102 6.84603,-1.54107 1.14053,5e-5 2.28197,0.11497 3.42431,0.34478 z"
         style="font-variant:normal;font-stretch:normal;word-spacing:-20px;fill:#000000;font-family:CodiceNero;-inkscape-font-specification:CodiceNero"
         id="path5220"
         inkscape:connector-curvature="0" />
      <path
         d="m 762.7269,932.94011 c 5.47818,5e-5 10.24244,1.93989 14.2928,5.81952 4.56572,4.33768 6.84859,10.044 6.84864,17.11897 -5e-5,0.91248 -0.14284,2.36736 -0.42837,4.36463 l -28.58822,0 c 1.31294,4.05209 4.22357,6.02065 8.73188,5.90571 3.5366,-0.11317 7.01664,-1.48272 10.44012,-4.10866 l 9.16025,8.98786 c -7.07679,4.90706 -13.6677,7.36058 -19.77276,7.36058 -5.76207,0 -10.78318,-1.79704 -15.06334,-5.39114 -4.67895,-3.99459 -7.10374,-9.27255 -7.27439,-15.83388 0,-0.85671 0,-2.16967 0,-3.93888 0.0557,-4.33587 1.68125,-8.52985 4.87658,-12.58195 4.10952,-5.13513 9.70178,-7.70271 16.77681,-7.70276 z m -7.70276,16.94659 14.97715,0 c -0.34133,-1.59677 -1.19676,-2.95152 -2.56628,-4.06426 -1.36958,-1.11267 -2.99641,-1.69775 -4.8805,-1.75525 -1.93986,-0.0574 -3.62285,0.57032 -5.04898,1.88324 -1.19805,1.08488 -2.02518,2.39697 -2.48139,3.93627 z"
         style="font-variant:normal;font-stretch:normal;word-spacing:-20px;fill:#000000;font-family:CodiceNero;-inkscape-font-specification:CodiceNero"
         id="path5222"
         inkscape:connector-curvature="0" />
      <path
         d="m 819.75705,977.36221 0,-24.13739 c -3e-5,-2.11046 -0.58512,-3.87921 -1.75526,-5.30626 -1.1702,-1.42698 -2.83926,-2.14049 -5.00718,-2.14052 -2.39609,3e-5 -4.19313,0.82803 -5.39114,2.484 -0.85676,1.25553 -1.28512,2.7104 -1.2851,4.36463 l 0,24.73554 -13.69466,0 0,-43.39558 12.07,0 0.68434,2.65378 c 3.02292,-2.39602 6.98792,-3.59405 11.895,-3.5941 5.5931,5e-5 9.90114,2.168 12.92412,6.50385 2.22537,3.19537 3.33808,6.41943 3.33812,9.6722 l 0,28.15985 z"
         style="font-variant:normal;font-stretch:normal;word-spacing:-20px;fill:#000000;font-family:CodiceNero;-inkscape-font-specification:CodiceNero"
         id="path5224"
         inkscape:connector-curvature="0" />
      <path
         d="m 871.41175,977.36221 0,-24.13739 c -4e-5,-2.11046 -0.58512,-3.87921 -1.75526,-5.30626 -1.1702,-1.42698 -2.83926,-2.14049 -5.00718,-2.14052 -2.39609,3e-5 -4.19314,0.82803 -5.39115,2.484 -0.85675,1.25553 -1.28512,2.7104 -1.2851,4.36463 l 0,24.73554 -13.69466,0 0,-43.39558 12.07,0 0.68435,2.65378 c 3.02292,-2.39602 6.98791,-3.59405 11.89499,-3.5941 5.59311,5e-5 9.90114,2.168 12.92412,6.50385 2.22537,3.19537 3.33808,6.41943 3.33813,9.6722 l 0,28.15985 z"
         style="font-variant:normal;font-stretch:normal;word-spacing:-20px;fill:#000000;font-family:CodiceNero;-inkscape-font-specification:CodiceNero"
         id="path5226"
         inkscape:connector-curvature="0" />
      <path
         d="m 914.84912,932.94011 c 5.47818,5e-5 10.24245,1.93989 14.2928,5.81952 4.56572,4.33768 6.84859,10.044 6.84864,17.11897 -5e-5,0.91248 -0.14283,2.36736 -0.42837,4.36463 l -28.58822,0 c 1.31295,4.05209 4.22357,6.02065 8.73188,5.90571 3.53661,-0.11317 7.01664,-1.48272 10.44012,-4.10866 l 9.16025,8.98786 c -7.07679,4.90706 -13.6677,7.36058 -19.77276,7.36058 -5.76206,0 -10.78317,-1.79704 -15.06334,-5.39114 -4.67895,-3.99459 -7.10374,-9.27255 -7.27439,-15.83388 0,-0.85671 0,-2.16967 0,-3.93888 0.0557,-4.33587 1.68125,-8.52985 4.87659,-12.58195 4.10951,-5.13513 9.70178,-7.70271 16.7768,-7.70276 z m -7.70275,16.94659 14.97714,0 c -0.34133,-1.59677 -1.19676,-2.95152 -2.56628,-4.06426 -1.36958,-1.11267 -2.99641,-1.69775 -4.8805,-1.75525 -1.93986,-0.0574 -3.62285,0.57032 -5.04897,1.88324 -1.19805,1.08488 -2.02518,2.39697 -2.48139,3.93627 z"
         style="font-variant:normal;font-stretch:normal;word-spacing:-20px;fill:#000000;font-family:CodiceNero;-inkscape-font-specification:CodiceNero"
         id="path5228"
         inkscape:connector-curvature="0" />
      <path
         d="m 973.67635,947.14933 c -1.25553,-0.343 -2.51102,-0.51452 -3.76648,-0.51456 -2.90979,4e-5 -5.30585,0.77057 -7.1882,2.31161 -2.11225,1.65429 -3.16836,3.99376 -3.16834,7.01842 l 0,21.39741 -13.86444,0 0,-43.47917 14.03683,0 0,2.73737 c 1.25547,-0.74176 2.48224,-1.48357 3.68029,-2.22542 2.16793,-1.02733 4.44993,-1.54102 6.84603,-1.54107 1.14053,5e-5 2.28197,0.11497 3.42431,0.34478 z"
         style="font-variant:normal;font-stretch:normal;word-spacing:-20px;fill:#000000;font-family:CodiceNero;-inkscape-font-specification:CodiceNero"
         id="path5230"
         inkscape:connector-curvature="0" />
      <path
         d="m 1017.8816,939.44658 c 3.9371,4.27847 5.9057,9.29958 5.9058,15.06334 -1e-4,7.47379 -2.4249,13.52228 -7.2744,18.14549 -4.2228,3.99286 -9.0445,5.98929 -14.4652,5.98929 -8.04497,0 -14.26411,-3.10914 -18.65747,-9.32742 -1.54108,-2.2254 -2.56846,-4.10864 -3.08214,-5.64973 -0.74181,-2.05474 -1.11272,-4.85044 -1.11271,-8.38709 -10e-6,-7.30483 2.45352,-13.15394 7.36058,-17.54735 4.10952,-3.70897 9.15936,-5.56348 15.14954,-5.56353 6.2774,5e-5 11.6695,2.42571 16.176,7.277 z m -25.41983,13.18009 0,4.70681 c -2e-5,2.34036 0.91331,4.36639 2.73998,6.0781 1.82663,1.71174 3.90925,2.5676 6.24785,2.56758 2.3961,2e-5 4.4787,-0.85584 6.2479,-2.56758 1.7692,-1.71171 2.6537,-3.73774 2.6538,-6.0781 l 0,-4.70681 c -1e-4,-2.45349 -0.97,-4.50739 -2.9098,-6.16168 -1.7692,-1.48357 -3.7665,-2.22538 -5.9919,-2.22541 -2.3386,3e-5 -4.39249,0.74184 -6.16166,2.22541 -1.88413,1.65429 -2.82619,3.70819 -2.82617,6.16168 z"
         style="font-variant:normal;font-stretch:normal;word-spacing:-20px;fill:#000000;font-family:CodiceNero;-inkscape-font-specification:CodiceNero"
         id="path5232"
         inkscape:connector-curvature="0" />
    </g>
    <rect
       style="fill:#00408b;fill-opacity:1;stroke:none"
       id="rect5175"
       width="300"
       height="175"
       x="110"
       y="804.875" />
    <g
       style="font-size:128.94018555px;font-style:normal;font-weight:normal;line-height:125%;letter-spacing:0px;word-spacing:0px;fill:#ffffff;fill-opacity:1;stroke:none;font-family:Sans"
       id="text3069-4"
       transform="translate(0,0.01281477)">
      <path
         d="m 169.58319,846.07544 c 11.08863,0.25717 19.08312,5.93004 23.98348,17.01862 l -13.28043,8.38143 c -3.18209,-6.10433 -6.87831,-9.15653 -11.08867,-9.15661 -1.89142,8e-5 -3.50343,0.66639 -4.83604,1.99895 -1.33266,1.33271 -2.08554,3.07326 -2.25866,5.22167 -0.17053,1.72095 0.51808,3.4838 2.06584,5.28856 0.51415,0.6008 2.01861,1.97672 4.51338,4.12775 6.53197,5.07089 13.92441,11.3458 22.17734,18.82477 3.26595,4.12648 4.89895,9.15533 4.899,15.08656 -5e-5,6.78911 -2.06327,12.63381 -6.18966,17.53411 -4.64328,5.41448 -10.78965,8.25157 -18.43914,8.51128 -11.34577,0.34365 -19.55536,-6.01783 -24.62881,-19.08447 l 13.79985,-7.86595 c 2.92233,7.13538 6.40343,10.70306 10.44333,10.70304 1.20407,2e-5 2.40684,-0.30035 3.60834,-0.9011 3.09546,-1.54772 4.6432,-4.1697 4.64324,-7.86595 -4e-5,-2.66524 -0.94574,-4.90028 -2.8371,-6.70514 -4.81377,-4.03984 -9.62751,-8.07971 -14.44123,-12.11962 -7.13538,-5.93122 -11.43364,-10.22948 -12.89481,-12.89481 -2.23505,-3.8693 -3.35257,-7.90917 -3.35257,-12.11962 0,-6.53455 2.45015,-12.20873 7.35047,-17.02256 4.9003,-4.81365 10.48791,-7.13395 16.76285,-6.96091 z"
         style="font-variant:normal;font-stretch:normal;word-spacing:-30px;fill:#ffffff;font-family:CodiceBiancoCondensed;-inkscape-font-specification:CodiceBiancoCondensed"
         id="path5203"
         inkscape:connector-curvature="0" />
      <path
         d="m 228.00922,846.07544 c 11.08862,0.25717 19.08311,5.93004 23.98347,17.01862 l -13.28043,8.38143 c -3.18209,-6.10433 -6.87831,-9.15653 -11.08867,-9.15661 -1.89142,8e-5 -3.50343,0.66639 -4.83604,1.99895 -1.33266,1.33271 -2.08554,3.07326 -2.25866,5.22167 -0.17053,1.72095 0.51808,3.4838 2.06585,5.28856 0.51414,0.6008 2.0186,1.97672 4.51337,4.12775 6.53198,5.07089 13.92441,11.3458 22.17734,18.82477 3.26595,4.12648 4.89895,9.15533 4.899,15.08656 -5e-5,6.78911 -2.06327,12.63381 -6.18966,17.53411 -4.64328,5.41448 -10.78965,8.25157 -18.43914,8.51128 -11.34577,0.34365 -19.55536,-6.01783 -24.6288,-19.08447 l 13.79984,-7.86595 c 2.92233,7.13538 6.40344,10.70306 10.44333,10.70304 1.20407,2e-5 2.40685,-0.30035 3.60835,-0.9011 3.09545,-1.54772 4.64319,-4.1697 4.64323,-7.86595 -4e-5,-2.66524 -0.94574,-4.90028 -2.8371,-6.70514 -4.81377,-4.03984 -9.62751,-8.07971 -14.44123,-12.11962 -7.13538,-5.93122 -11.43364,-10.22948 -12.89481,-12.89481 -2.23505,-3.8693 -3.35257,-7.90917 -3.35257,-12.11962 0,-6.53455 2.45015,-12.20873 7.35047,-17.02256 4.9003,-4.81365 10.48791,-7.13395 16.76286,-6.96091 z"
         style="font-variant:normal;font-stretch:normal;word-spacing:-30px;fill:#ffffff;font-family:CodiceBiancoCondensed;-inkscape-font-specification:CodiceBiancoCondensed"
         id="path5205"
         inkscape:connector-curvature="0" />
      <path
         d="m 314.75895,847.10639 0,90.64533 -18.30929,0 0,-60.34628 -9.92786,0 0,-13.41028 c 8.42339,-0.60065 12.54982,-6.23024 12.37933,-16.88877 z"
         style="font-variant:normal;font-stretch:normal;word-spacing:-30px;fill:#ffffff;font-family:CodiceBiancoCondensed;-inkscape-font-specification:CodiceBiancoCondensed"
         id="path5207"
         inkscape:connector-curvature="0" />
      <path
         d="m 374.48351,869.92905 c 0.0839,4.64068 -1.55042,10.61523 -4.90294,17.92367 -2.14852,4.55409 -5.67292,10.87097 -10.57319,18.95068 -4.64064,7.56561 -7.43445,12.5092 -8.38143,14.8308 l 22.5669,0 0,16.11752 -43.71328,0 0,-13.54014 c 0.2597,-0.94436 2.75314,-5.0708 7.48033,-12.37933 5.67417,-8.76701 9.88586,-15.77251 12.6351,-21.01652 4.47006,-8.50991 6.70511,-15.12848 6.70514,-19.85572 -3e-5,-2.1484 -0.60142,-3.88896 -1.80417,-5.22167 -1.20281,-1.33255 -2.62136,-1.99887 -4.25564,-1.99895 -2.06194,8e-5 -3.7815,0.98906 -5.15871,2.96695 -1.63171,2.14855 -2.44755,5.24272 -2.44753,9.28253 l -15.21643,0 c 0.25708,-9.54085 2.83578,-16.89 7.7361,-22.04749 4.29956,-4.55656 9.62878,-6.83489 15.98767,-6.83499 6.10437,10e-5 11.39162,2.02003 15.86175,6.05981 4.8137,4.29704 7.30714,9.88466 7.48033,16.76285 z"
         style="font-variant:normal;font-stretch:normal;word-spacing:-30px;fill:#ffffff;font-family:CodiceBiancoCondensed;-inkscape-font-specification:CodiceBiancoCondensed"
         id="path5209"
         inkscape:connector-curvature="0" />
    </g>
    <rect
       style="fill:none;stroke:#ffffff;stroke-width:4.5;stroke-miterlimit:4;stroke-opacity:1;stroke-dasharray:none"
       id="rect5241"
       width="291"
       height="166"
       x="114.5"
       y="809.87494"
       rx="15.707611"
       ry="15.707611" />
  </g>
</svg>
