<?xml version="1.0" encoding="UTF-8" standalone="no"?>
<!-- Created with Inkscape (http://www.inkscape.org/) -->
<svg
   xmlns:dc="http://purl.org/dc/elements/1.1/"
   xmlns:cc="http://creativecommons.org/ns#"
   xmlns:rdf="http://www.w3.org/1999/02/22-rdf-syntax-ns#"
   xmlns:svg="http://www.w3.org/2000/svg"
   xmlns="http://www.w3.org/2000/svg"
   xmlns:sodipodi="http://sodipodi.sourceforge.net/DTD/sodipodi-0.dtd"
   xmlns:inkscape="http://www.inkscape.org/namespaces/inkscape"
   version="1.1"
   width="200"
   height="200"
   id="svg2"
   inkscape:version="0.46"
   sodipodi:docname="Italian_traffic_signs_-_icona_fontiera.svg"
   sodipodi:version="0.32"
   inkscape:output_extension="org.inkscape.output.svg.inkscape">
  <metadata
     id="metadata2877">
    <rdf:RDF>
      <cc:Work
         rdf:about="">
        <dc:format>image/svg+xml</dc:format>
        <dc:type
           rdf:resource="http://purl.org/dc/dcmitype/StillImage" />
      </cc:Work>
    </rdf:RDF>
  </metadata>
  <sodipodi:namedview
     pagecolor="#ffffff"
     bordercolor="#666666"
     borderopacity="1"
     objecttolerance="10"
     gridtolerance="10"
     guidetolerance="10"
     inkscape:pageopacity="0"
     inkscape:pageshadow="2"
     inkscape:window-width="1024"
     inkscape:window-height="708"
     id="namedview2875"
     showgrid="false"
     inkscape:zoom="1.9914447"
     inkscape:cx="115.51255"
     inkscape:cy="118.43692"
     inkscape:window-x="0"
     inkscape:window-y="26"
     inkscape:window-maximized="1"
     inkscape:current-layer="svg2" />
  <defs
     id="defs4">
    <inkscape:perspective
       sodipodi:type="inkscape:persp3d"
       inkscape:vp_x="0 : 100 : 1"
       inkscape:vp_y="0 : 1000 : 0"
       inkscape:vp_z="200 : 100 : 1"
       inkscape:persp3d-origin="100 : 66.666667 : 1"
       id="perspective2879" />
  </defs>
  <rect
     style="fill:#ffffff;fill-opacity:1;stroke:none"
     id="rect2881"
     width="200.9709"
     height="200.61583"
     x="0.1366235"
     y="0.53554231"
     rx="0"
     ry="0" />
  <rect
     width="194.80612"
     height="194.80614"
     ry="18.580454"
     x="3.2339785"
     y="2.8621521"
     id="rect4614"
     style="fill:none;stroke:#000000;stroke-width:3;stroke-miterlimit:4;stroke-opacity:1;stroke-dasharray:none" />
  <g
     id="g7650"
     transform="translate(0.8069116,3.8371963)">
    <path
       style="fill:#000000"
       id="path2862"
       d="M 116.52116,169.01846 C 114.48782,167.77588 113.68921,166.4224 113.69131,164.22243 C 113.69331,162.42703 114.70557,160.13725 125.03687,138.56525 L 136.38056,114.8794 L 135.51654,111.34094 C 135.04133,109.39479 134.54443,107.80237 134.41232,107.80225 C 134.28021,107.80212 133.51321,108.66432 132.70788,109.71825 C 131.90254,110.77218 131.10747,111.71847 130.94103,111.82111 C 130.56469,112.0532 108.12998,104.43021 106.99374,103.68418 C 106.03663,103.05574 104.95546,100.96387 104.95663,99.742699 C 104.95863,97.398412 107.40549,94.777787 109.59287,94.776745 C 110.14191,94.776505 114.16041,96.070439 118.52288,97.652204 C 122.88535,99.23397 126.51375,100.5282 126.58599,100.52827 C 126.73943,100.52841 130.62258,95.884343 135.14941,90.286798 C 138.2202,86.489669 138.46605,86.283807 142.10686,84.461121 C 146.71746,82.152924 148.03389,82.043971 149.87233,83.818434 C 150.58131,84.502736 155.39244,89.922274 160.56374,95.861849 L 169.9661,106.66108 L 169.9601,113.40604 L 169.9541,120.15101 L 168.65254,121.45009 C 167.54557,122.55495 167.08513,122.74892 165.57273,122.74748 C 164.5947,122.74654 163.28989,122.48422 162.67316,122.16455 C 160.85534,121.22233 160.42492,119.87389 160.14909,114.25711 L 159.89903,109.16516 L 157.69395,106.87379 C 156.48115,105.61354 155.38447,104.68662 155.25687,104.81398 C 155.12926,104.94134 154.6134,107.17573 154.11051,109.77929 L 153.19616,114.51303 L 161.55465,138.76651 C 166.15181,152.10594 169.91263,163.55696 169.912,164.21323 C 169.908,168.54191 164.61229,171.30608 160.82154,168.95826 C 159.11404,167.90071 159.20357,168.11547 151.16036,145.78242 C 147.50513,135.63317 144.41978,127.32633 144.30403,127.32278 C 144.1883,127.31978 139.53281,136.47636 133.95852,147.67197 C 125.19423,165.27443 123.64755,168.14384 122.5231,168.88688 C 120.87819,169.97383 118.18214,170.03295 116.52205,169.01846 L 116.52116,169.01846 z M 57.235199,166.64509 C 56.791149,166.45856 56.060311,165.83779 55.611115,165.2656 C 54.850133,164.29626 54.794811,163.78504 54.800553,157.77523 L 54.806753,151.32521 L 64.559157,151.33421 L 74.31156,151.34321 L 74.30536,157.83878 L 74.29916,164.33435 L 73.182836,165.58227 L 72.06651,166.83019 L 65.054559,166.90689 C 61.197986,166.94909 57.679295,166.83099 57.235249,166.64445 L 57.235249,166.64446 L 57.235199,166.64509 z M 21.920461,146.89563 L 21.924261,142.87994 L 49.556068,142.90714 C 80.87722,142.93784 79.353087,142.79247 80.406067,145.84764 C 80.90425,147.2931 80.886752,147.52654 80.191169,148.71494 C 79.774689,149.42649 79.012897,150.22124 78.498298,150.48105 C 77.780661,150.84338 71.080048,150.94855 49.739624,150.93249 L 21.916588,150.91089 L 21.920388,146.89519 L 21.920387,146.89565 L 21.920461,146.89563 z M 21.939091,127.40178 L 21.952801,113.04906 L 24.916766,113.05606 C 32.059084,113.07186 47.268528,114.26615 62.106994,115.97649 C 71.345913,117.04142 73.164637,117.63595 76.061176,120.53803 C 78.649971,123.13177 79.499437,125.31344 79.495572,129.35852 C 79.492572,132.45902 79.379527,133.00367 78.355873,134.84763 C 77.043276,137.21208 74.691591,139.41296 72.109757,140.69321 L 70.305146,141.58794 L 46.115258,141.67134 L 21.925373,141.75474 L 21.939083,127.40203 L 21.939083,127.40186 L 21.939091,127.40178 z M 69.729273,135.94595 C 72.396277,134.58656 73.692854,132.6657 73.866616,129.81652 C 73.985751,127.86304 73.848216,127.13442 73.09316,125.71869 C 69.566776,119.10678 59.66074,121.24054 59.111787,128.73027 C 58.683077,134.57947 64.566134,138.57762 69.729273,135.94595 L 69.729273,135.94595 z M 176.93245,126.81903 L 171.87356,124.09206 L 171.87656,114.81771 C 171.87856,109.71681 171.98362,105.54345 172.11093,105.54357 C 172.67427,105.54411 181.89362,110.65867 182.04518,111.05472 C 182.13818,111.29759 182.16402,115.55748 182.10268,120.52115 L 181.99131,129.54602 L 176.93242,126.81903 L 176.93253,126.81903 L 176.93245,126.81903 z M 66.232029,115.24232 C 64.609233,115.0043 63.103888,114.62887 62.886812,114.40802 C 62.669739,114.18717 60.863925,110.01242 58.873892,105.13081 C 54.646862,94.761749 53.784077,92.979135 52.317926,91.585438 C 50.282049,89.650167 47.88791,89.315926 34.309646,89.071361 L 21.975923,88.849212 L 21.979323,85.268798 L 21.982723,81.688389 L 29.153608,81.697189 C 33.097585,81.702089 39.146231,81.887546 42.59503,82.109659 C 54.871444,82.9003 58.814565,84.366088 61.184082,89.019828 C 62.02775,90.676659 71.669005,115.0721 71.668549,115.54873 C 71.66825,115.86218 69.702752,115.75141 66.231987,115.24236 L 66.231987,115.24237 L 66.232029,115.24232 z M 72.196992,69.970345 L 20.122292,41.720842 L 20.123992,32.596797 C 20.125792,25.447008 20.229269,23.514806 20.603794,23.667104 C 20.866622,23.773998 44.389393,36.43677 72.876611,51.806595 L 124.67155,79.751731 L 124.76725,87.588108 C 124.81985,91.898117 124.72985,96.053441 124.56721,96.822166 L 124.27147,98.219848 L 72.196794,69.970345 L 72.196992,69.970345 z M 106.88819,79.510002 L 106.89419,73.426025 L 100.79976,70.13422 C 97.447829,68.32373 94.6052,66.842323 94.482813,66.842206 C 94.360426,66.842089 94.305124,69.524699 94.35992,72.803559 L 94.45955,78.765128 L 100.57549,82.139347 C 103.93924,83.995172 106.73443,85.531663 106.787,85.553778 C 106.8396,85.575898 106.8852,82.856193 106.88837,79.510002 L 106.88819,79.510002 z M 78.601878,64.02321 L 78.607478,58.159817 L 72.105336,54.647037 C 68.529156,52.715015 65.518893,51.134183 65.415861,51.134084 C 65.312826,51.133986 65.225992,53.786199 65.222895,57.02789 L 65.217295,62.921873 L 71.619976,66.39186 C 75.14145,68.300352 78.151727,69.867416 78.309481,69.874225 C 78.467233,69.881125 78.598825,67.248081 78.601906,64.02321 L 78.601878,64.02321 z M 50.315374,48.727305 L 50.320949,42.892928 L 43.586919,39.2553 C 39.883208,37.2546 36.700946,35.560155 36.515233,35.489863 C 36.329,35.419375 36.17506,38.004356 36.171955,41.254194 L 36.166355,47.146328 L 42.951267,50.842712 C 46.68297,52.875723 49.865251,54.544177 50.023005,54.550386 C 50.180758,54.556686 50.312338,51.936209 50.315404,48.727305 L 50.315374,48.727305 z M 138.05493,82.388422 C 137.84465,82.311342 137.20259,82.144241 136.62811,82.01708 C 135.10821,81.680645 133.06862,79.727613 132.34606,77.916756 C 132.00079,77.051464 131.82258,76.23943 131.95001,76.112236 C 132.07745,75.985041 135.28699,75.076761 139.08233,74.093838 L 145.98295,72.306698 L 145.8454,75.269816 C 145.72892,77.778756 145.54975,78.439791 144.67641,79.582512 C 144.10912,80.324784 143.07568,81.19967 142.37987,81.526705 C 141.04101,82.155975 138.69562,82.62328 138.05493,82.388422 z M 129.46335,74.337613 L 131.18174,72.622501 L 138.39736,71.841251 C 144.85093,71.142513 146.41281,71.10175 145.86723,71.646289 C 145.65265,71.860461 128.87086,76.053804 128.23076,76.053192 C 127.96357,76.052937 128.51823,75.280927 129.46335,74.337613 L 129.46335,74.337613 z M 129.34171,68.309691 C 128.41421,66.320357 127.87097,64.726901 128.10118,64.670978 C 128.32645,64.616258 132.29619,65.404961 136.92284,66.423666 C 145.18005,68.241753 145.33708,68.294386 145.45287,69.282746 C 145.55546,70.158484 145.40587,70.316724 144.30437,70.497537 C 142.85798,70.734966 132.30779,71.850165 131.51518,71.849408 C 131.22733,71.849133 130.24927,70.25626 129.34171,68.309691 L 129.34171,68.309691 z" />
    <path
       style="fill:#ff0000;fill-opacity:1;stroke:#ff0000;stroke-width:0.1;stroke-linecap:butt;stroke-linejoin:miter;stroke-miterlimit:4;stroke-dasharray:none;stroke-opacity:1"
       id="path3662"
       d="M 78.648506,58.237399 L 78.47097,69.866016 L 94.360454,78.742822 L 94.360454,66.759133 L 78.648506,58.237399 z" />
    <path
       style="fill:#ff0000;fill-opacity:1;stroke:#ff0000;stroke-width:0.09775597;stroke-linecap:butt;stroke-linejoin:miter;stroke-miterlimit:4;stroke-dasharray:none;stroke-opacity:1"
       id="path3664"
       d="M 50.15769,42.733995 L 50.17543,54.365106 L 65.499178,62.997136 L 65.3061,51.013692 L 50.15769,42.733995 z" />
    <path
       style="fill:#ff0000;fill-opacity:1;stroke:#ff0000;stroke-width:0.1;stroke-linecap:butt;stroke-linejoin:miter;stroke-miterlimit:4;stroke-dasharray:none;stroke-opacity:1"
       id="path3666"
       d="M 22.063866,27.781031 L 22.011866,38.656426 L 36.394906,47.407695 L 36.394906,35.424006 L 22.063865,27.781031 L 22.063866,27.781031 z" />
    <path
       style="fill:#ff0000;fill-opacity:1;stroke:#ff0000;stroke-width:0.30000001;stroke-linecap:butt;stroke-linejoin:miter;stroke-miterlimit:4;stroke-dasharray:none;stroke-opacity:1"
       id="path3670"
       d="M 107.01751,73.557505 L 106.92871,85.541194 L 124.57832,94.851072 L 124.57831,82.648617 L 107.01747,73.557505 L 107.01751,73.557505 L 107.01751,73.557505 z" />
    <path
       style="fill:#ff0000;fill-opacity:1;stroke:#ff0000;stroke-width:0.5;stroke-linecap:butt;stroke-linejoin:miter;stroke-miterlimit:4;stroke-dasharray:none;stroke-opacity:1"
       id="path3672"
       d="M 172.21005,108.12505 L 172.12125,121.52902 L 179.7553,125.78989 L 179.7553,112.38592 L 172.21001,108.12505 L 172.21005,108.12505 L 172.21005,108.12505 z" />
  </g>
</svg>
