<svg xmlns="http://www.w3.org/2000/svg" width="400" height="600" xmlns:v="https://vecta.io/nano"><g stroke="#000"><path d="M.5.5h399v599H.5z" fill="#fff"/><rect width="388" height="388" x="6" y="6" rx="21" fill="none" stroke-width="6"/></g><path d="M181.92 125.634v149.36h-34.878v-95.44h-16.476v-25.677c13.692-.997 20.538-10.411 20.538-28.243zm71.885 0v149.36h-34.878v-95.44h-16.476v-25.677c13.692-.997 20.538-10.411 20.538-28.243zM95.091 453.072c10.101 0 18.832 5.649 26.193 16.946l-15.665 9.247c-.598-1.285-1.668-2.783-3.209-4.494-2.312-2.481-4.409-3.722-6.293-3.722-.428 0-.814.042-1.156.125-.771.342-1.412.771-1.924 1.285-1.285 1.027-1.971 2.226-2.057 3.597-.084 2.139 1.458 4.664 4.623 7.574l18.744 16.817c2.056 1.8 3.853 4.196 5.391 7.19 1.883 3.597 2.825 7.106 2.825 10.528 0 7.62-2.439 14.126-7.317 19.518s-10.998 8.089-18.359 8.089c-11.3 0-20.074-6.505-26.322-19.516l16.691-9.502c2.398 7.191 5.437 10.529 9.118 10.015 4.192-.515 6.289-2.526 6.289-6.034 0-2.826-2.739-6.678-8.216-11.555L79.17 495.184c-5.478-6.078-8.216-11.984-8.216-17.718 0-6.932 2.246-12.731 6.739-17.397s10.292-6.998 17.397-6.998zm67.165-.642c10.872 0 18.704 5.607 23.497 16.821 1.967 4.707 3.251 10.356 3.852 16.946l-18.744 1.54c-.428-10.098-2.996-15.148-7.703-15.148-5.65 0-8.475 9.244-8.475 27.733 0 7.189.257 12.281.772 15.277 1.196 7.533 3.764 11.3 7.703 11.3 2.651 0 4.791-2.011 6.418-6.034 1.113-2.826 1.797-5.993 2.053-9.502l18.36 6.418c-1.199 5.65-2.911 10.486-5.137 14.509-5.391 9.756-12.923 14.634-22.596 14.634-8.816 0-16.006-5.092-21.569-15.277-5.049-9.158-7.574-19.6-7.574-31.326 0-13.353 2.611-24.567 7.832-33.641 5.478-9.5 12.581-14.25 21.311-14.25zm100.359 2.954V545h-20.927v-57.264h-9.886V472.33c8.215-.598 12.323-6.247 12.323-16.946zm37.611-1.798c10.271 0 17.889 5.692 22.855 17.075 3.68 8.39 5.521 18.405 5.521 30.044 0 14.293-3.082 25.72-9.247 34.28-5.561 7.703-12.28 11.555-20.155 11.555-6.59 0-12.282-3.295-17.075-9.886-3.252-4.537-5.178-8.646-5.779-12.327l17.847-5.262 1.54 5.65c1.027 2.226 2.696 3.209 5.007 2.95 2.225-.256 3.938-2.523 5.137-6.802.94-3.424 1.411-7.191 1.411-11.3-3.85 2.398-7.531 3.597-11.041 3.597-3.166 0-6.247-.985-9.243-2.954-7.019-4.623-10.528-12.198-10.528-22.725 0-8.387 1.925-15.834 5.775-22.341 4.451-7.703 10.443-11.555 17.976-11.555zm-4.365 29.915c0 7.105 1.925 10.657 5.775 10.657 1.627 0 2.997-1.412 4.11-4.236.857-2.225 1.285-4.366 1.285-6.422 0-2.824-.385-5.263-1.156-7.319-.943-2.651-2.356-3.977-4.239-3.977-3.85 0-5.775 3.765-5.775 11.296z"/><rect width="388" height="188" x="6" y="406" rx="21" fill="none" stroke="#000" stroke-width="6"/></svg>