<?xml version="1.0" encoding="UTF-8" standalone="no"?>
<!-- Created with Inkscape (http://www.inkscape.org/) -->

<svg
   xmlns:dc="http://purl.org/dc/elements/1.1/"
   xmlns:cc="http://creativecommons.org/ns#"
   xmlns:rdf="http://www.w3.org/1999/02/22-rdf-syntax-ns#"
   xmlns:svg="http://www.w3.org/2000/svg"
   xmlns="http://www.w3.org/2000/svg"
   xmlns:sodipodi="http://sodipodi.sourceforge.net/DTD/sodipodi-0.dtd"
   xmlns:inkscape="http://www.inkscape.org/namespaces/inkscape"
   version="1.1"
   width="200"
   height="200"
   id="svg2"
   inkscape:version="0.47 r22583"
   sodipodi:docname="Italian traffic signs - icona scarico.svg"
   sodipodi:version="0.32"
   inkscape:output_extension="org.inkscape.output.svg.inkscape">
  <metadata
     id="metadata2877">
    <rdf:RDF>
      <cc:Work
         rdf:about="">
        <dc:format>image/svg+xml</dc:format>
        <dc:type
           rdf:resource="http://purl.org/dc/dcmitype/StillImage" />
        <dc:title></dc:title>
      </cc:Work>
    </rdf:RDF>
  </metadata>
  <sodipodi:namedview
     pagecolor="#ffffff"
     bordercolor="#666666"
     borderopacity="1"
     objecttolerance="10"
     gridtolerance="10"
     guidetolerance="10"
     inkscape:pageopacity="0"
     inkscape:pageshadow="2"
     inkscape:window-width="1600"
     inkscape:window-height="838"
     id="namedview2875"
     showgrid="false"
     inkscape:zoom="2.3765092"
     inkscape:cx="65.796014"
     inkscape:cy="93.441918"
     inkscape:window-x="-8"
     inkscape:window-y="-8"
     inkscape:window-maximized="1"
     inkscape:current-layer="svg2" />
  <defs
     id="defs4">
    <inkscape:perspective
       sodipodi:type="inkscape:persp3d"
       inkscape:vp_x="0 : 100 : 1"
       inkscape:vp_y="0 : 1000 : 0"
       inkscape:vp_z="200 : 100 : 1"
       inkscape:persp3d-origin="100 : 66.666667 : 1"
       id="perspective2879" />
    <inkscape:perspective
       id="perspective2839"
       inkscape:persp3d-origin="0.5 : 0.33333333 : 1"
       inkscape:vp_z="1 : 0.5 : 1"
       inkscape:vp_y="0 : 1000 : 0"
       inkscape:vp_x="0 : 0.5 : 1"
       sodipodi:type="inkscape:persp3d" />
    <inkscape:perspective
       id="perspective3649"
       inkscape:persp3d-origin="0.5 : 0.33333333 : 1"
       inkscape:vp_z="1 : 0.5 : 1"
       inkscape:vp_y="0 : 1000 : 0"
       inkscape:vp_x="0 : 0.5 : 1"
       sodipodi:type="inkscape:persp3d" />
    <inkscape:perspective
       id="perspective3679"
       inkscape:persp3d-origin="0.5 : 0.33333333 : 1"
       inkscape:vp_z="1 : 0.5 : 1"
       inkscape:vp_y="0 : 1000 : 0"
       inkscape:vp_x="0 : 0.5 : 1"
       sodipodi:type="inkscape:persp3d" />
    <inkscape:perspective
       id="perspective3713"
       inkscape:persp3d-origin="0.5 : 0.33333333 : 1"
       inkscape:vp_z="1 : 0.5 : 1"
       inkscape:vp_y="0 : 1000 : 0"
       inkscape:vp_x="0 : 0.5 : 1"
       sodipodi:type="inkscape:persp3d" />
    <inkscape:perspective
       id="perspective3741"
       inkscape:persp3d-origin="0.5 : 0.33333333 : 1"
       inkscape:vp_z="1 : 0.5 : 1"
       inkscape:vp_y="0 : 1000 : 0"
       inkscape:vp_x="0 : 0.5 : 1"
       sodipodi:type="inkscape:persp3d" />
    <inkscape:perspective
       id="perspective3765"
       inkscape:persp3d-origin="0.5 : 0.33333333 : 1"
       inkscape:vp_z="1 : 0.5 : 1"
       inkscape:vp_y="0 : 1000 : 0"
       inkscape:vp_x="0 : 0.5 : 1"
       sodipodi:type="inkscape:persp3d" />
    <inkscape:perspective
       id="perspective3801"
       inkscape:persp3d-origin="0.5 : 0.33333333 : 1"
       inkscape:vp_z="1 : 0.5 : 1"
       inkscape:vp_y="0 : 1000 : 0"
       inkscape:vp_x="0 : 0.5 : 1"
       sodipodi:type="inkscape:persp3d" />
    <inkscape:perspective
       id="perspective2863"
       inkscape:persp3d-origin="0.5 : 0.33333333 : 1"
       inkscape:vp_z="1 : 0.5 : 1"
       inkscape:vp_y="0 : 1000 : 0"
       inkscape:vp_x="0 : 0.5 : 1"
       sodipodi:type="inkscape:persp3d" />
    <inkscape:perspective
       id="perspective3859"
       inkscape:persp3d-origin="0.5 : 0.33333333 : 1"
       inkscape:vp_z="1 : 0.5 : 1"
       inkscape:vp_y="0 : 1000 : 0"
       inkscape:vp_x="0 : 0.5 : 1"
       sodipodi:type="inkscape:persp3d" />
    <inkscape:perspective
       id="perspective3964"
       inkscape:persp3d-origin="0.5 : 0.33333333 : 1"
       inkscape:vp_z="1 : 0.5 : 1"
       inkscape:vp_y="0 : 1000 : 0"
       inkscape:vp_x="0 : 0.5 : 1"
       sodipodi:type="inkscape:persp3d" />
    <inkscape:perspective
       id="perspective3988"
       inkscape:persp3d-origin="0.5 : 0.33333333 : 1"
       inkscape:vp_z="1 : 0.5 : 1"
       inkscape:vp_y="0 : 1000 : 0"
       inkscape:vp_x="0 : 0.5 : 1"
       sodipodi:type="inkscape:persp3d" />
    <inkscape:perspective
       id="perspective2879-7"
       inkscape:persp3d-origin="0.5 : 0.33333333 : 1"
       inkscape:vp_z="1 : 0.5 : 1"
       inkscape:vp_y="0 : 1000 : 0"
       inkscape:vp_x="0 : 0.5 : 1"
       sodipodi:type="inkscape:persp3d" />
    <inkscape:perspective
       id="perspective4031"
       inkscape:persp3d-origin="0.5 : 0.33333333 : 1"
       inkscape:vp_z="1 : 0.5 : 1"
       inkscape:vp_y="0 : 1000 : 0"
       inkscape:vp_x="0 : 0.5 : 1"
       sodipodi:type="inkscape:persp3d" />
  </defs>
  <path
     style="fill:#ffffff;fill-opacity:1;stroke:none"
     d="m -2.1039262,-3.1405409 207.7153762,0 0,207.3483909 -207.7153762,0 0,-207.3483909 z"
     id="rect2881" />
  <path
     style="fill:none;stroke:#000000;stroke-width:3;stroke-miterlimit:4;stroke-opacity:1"
     d="m 21.814432,2.8621521 157.645218,0 c 10.29357,0 18.58045,8.2868829 18.58045,18.5804539 l 0,157.645234 c 0,10.29357 -8.28688,18.58045 -18.58045,18.58045 l -157.645218,0 c -10.293571,0 -18.5804535,-8.28688 -18.5804535,-18.58045 l 0,-157.645234 c 0,-10.293571 8.2868825,-18.5804539 18.5804535,-18.5804539 z"
     id="rect4614" />
  <path
     style="fill:#000000"
     d="m 35.980306,139.33363 c -2.785874,-0.99294 -6.422401,-4.4478 -7.798425,-7.40885 -1.275159,-2.744 -1.430479,-8.58628 -0.300189,-11.29145 3.878832,-9.28335 16.300072,-11.74985 23.402804,-4.64712 6.961446,6.96145 4.920007,18.69773 -3.972625,22.83868 -3.307379,1.54011 -7.86389,1.74468 -11.331565,0.50874 z m 7.858842,-7.67902 c 1.735306,-0.65977 3.729581,-3.70829 3.729581,-5.70118 0,-2.08944 -1.882829,-4.81971 -3.89991,-5.65521 -4.127037,-1.70948 -8.607236,1.28646 -8.607236,5.75572 0,1.84381 0.375405,2.66343 1.93358,4.22161 2.046152,2.04615 4.035217,2.44694 6.843985,1.37906 z m 72.807632,7.17028 c -4.62371,-2.15308 -7.52534,-6.27702 -8.05975,-11.4549 -0.57333,-5.55509 2.16955,-10.87068 7.10704,-13.7731 2.29586,-1.34959 3.29621,-1.57471 6.9473,-1.56342 5.06486,0.0156 7.91448,1.26543 10.93724,4.79684 2.32561,2.71695 3.28481,5.58118 3.26777,9.7578 -0.0162,3.96674 -1.44571,7.01935 -4.67607,9.98527 -4.19851,3.8548 -10.20854,4.72649 -15.52353,2.25151 z m 10.31671,-8.54934 c 1.55817,-1.55818 1.93358,-2.3778 1.93358,-4.22161 0,-6.24121 -8.19874,-8.58754 -11.43913,-3.27368 -1.29082,2.11678 -1.35395,3.82235 -0.22247,6.01039 1.19039,2.30197 3.01592,3.41848 5.58931,3.41848 1.74953,0 2.60462,-0.3995 4.13871,-1.93358 z m -69.330549,-0.4834 c 1.43587,-5.39829 -0.353334,-11.562 -4.548183,-15.66823 -6.853188,-6.70842 -17.230216,-6.61761 -24.062464,0.21057 -2.473071,2.4716 -4.766009,7.52455 -4.766009,10.50287 0,1.58643 -0.132779,1.68477 -2.274799,1.68477 l -2.2748,0 0,-11.5214 0,-11.52141 9.158904,-14.070084 9.158904,-14.070089 15.579541,0 15.579542,0 0,22.747994 0,22.747989 18.698152,0 18.698161,0 -0.54635,2.56165 c -0.36608,1.71646 -0.34334,3.50824 0.0689,5.43064 0.33842,1.57795 0.61529,3.11231 0.61529,3.4097 0,0.33359 -9.553027,0.54071 -24.939487,0.54071 l -24.939492,0 0.79415,-2.98568 4e-5,0 z m 7.569736,-38.529407 0,-11.373997 -12.670784,0 -12.670786,0 -7.091536,10.910939 c -3.900345,6.001012 -7.176841,11.119305 -7.281102,11.373995 -0.104262,0.25468 8.788782,0.46306 19.762321,0.46306 l 19.951887,0 0,-11.373997 z m 74.215343,34.857377 0,-5.28422 9.52572,-3.9e-4 9.52572,-3.8e-4 0,2.83267 c 0,2.61794 -0.11854,2.86177 -1.56392,3.21671 -0.86016,0.21122 -5.14674,1.3146 -9.52573,2.45194 l -7.96179,2.06789 0,-5.28422 z m -67.390944,-15.80594 0,-7.67744 43.221194,0 43.22119,0 0,7.67744 0,7.67745 -10.02561,0 -10.02561,0 -2.91231,-3.01044 c -3.99045,-4.1249 -7.49794,-5.72101 -12.58021,-5.7247 -5.36636,-0.004 -9.07881,1.64864 -12.7653,5.68225 l -2.79018,3.05289 -17.671583,0 -17.671581,0 0,-7.67745 z m 97.241904,-2.13262 c -2.13862,-1.45553 -3.82844,-3.61184 -4.08491,-5.21258 -0.26387,-1.64697 3.46344,-2.55643 4.46485,-1.08942 2.32235,3.40213 4.97168,3.99353 7.32914,1.63607 2.40427,-2.40427 1.32517,-6.603275 -1.90406,-7.409105 -3.01645,-0.752737 -3.52444,-1.750481 -3.52444,-6.922374 l 0,-4.745806 2.8435,0 2.8435,0 2e-5,3.554374 c 1e-5,3.379283 0.0979,3.632468 1.98693,5.139733 1.0928,0.871953 2.40059,2.385321 2.90619,3.363052 1.23742,2.392901 0.8378,7.095726 -0.79819,9.393256 -2.55656,3.59036 -8.49698,4.71949 -12.06253,2.2928 z m -74.493908,-16.089687 0,-7.132673 4.330592,0.1661 4.330596,0.166095 1.69792,4.265248 c 0.93385,2.345887 2.18029,5.480845 2.76985,6.966574 l 1.07195,2.701324 -7.10046,0 -7.100448,0 0,-7.132668 z m -10.805298,-13.624877 0,-3.127849 46.633396,0 46.63339,0 0,2.750756 0,2.750755 -26.01802,0.376417 c -14.30991,0.20703 -35.29494,0.376718 -46.63339,0.377094 l -20.615376,6.76e-4 0,-3.127849 z M 44.441067,67.617443 c 1.53347,-4.970176 2.562254,-6.337387 5.131352,-6.819349 3.883251,-0.728504 6.407248,2.225778 7.928885,9.280579 l 0.398647,1.848275 -7.394257,0 -7.394257,0 1.32963,-4.309505 z"
     id="path4037"
     sodipodi:nodetypes="cssssccssssccssssssccssssccssscccccccccccccsscccccccccsccccccccsccccccccccccsccccccsssscccccsssccccccccccccccccccccccsccccc" />
</svg>
