<?xml version="1.0" encoding="UTF-8" standalone="no"?><svg xmlns="http://www.w3.org/2000/svg" width="200" height="200"><path fill="#fff" d="M-2.1039262-3.1405409H205.61145V204.20785H-2.1039262V-3.1405409z"/><path fill="none" stroke="#000" stroke-width="3" d="M21.814432 2.8621521H179.45965c10.29357 0 18.58045 8.2868829 18.58045 18.5804539V179.08784c0 10.29357-8.28688 18.58045-18.58045 18.58045H21.814432c-10.293571 0-18.5804535-8.28688-18.5804535-18.58045V21.442606c0-10.293571 8.2868825-18.5804539 18.5804535-18.5804539z"/><path d="M32.508509 172.57264c-2.978503-1.81615-4.727691-4.93096-4.727691-8.41869 0-3.83831 1.314747-6.39534 5.205758-10.1246 1.66388-1.5947 16.130519-14.45342 32.148084-28.57491 16.017569-14.1215 29.045245-25.886305 28.95039-26.14402-.577197-1.568226-7.955403-9.407538-9.986778-10.610914-2.367937-1.402755-2.625159-1.431807-9.366302-1.057893-14.412776.799445-22.578077-1.928999-32.015441-10.697987-9.585604-8.906724-14.349015-19.003644-14.352928-30.423642-.0019-5.546529.959419-9.726571 3.062022-13.314392 1.166837-1.991058 2.250842-2.896117 5.218653-4.357166 3.393774-1.670749 4.341543-1.866899 10.082336-2.086641 7.499502-.287059 11.413975.526368 18.235589 3.789355 10.771452 5.152318 19.758641 15.249514 23.307873 26.186629.814318 2.509363 1.022908 5.189715 1.062837 13.65725.04167 8.840042.202647 10.768615 1.00039 11.986121 1.131443 1.726799 10.558099 10.402704 11.302879 10.402704.28514 0 2.67618-1.878512 5.31343-4.174471 5.53269-4.816715 6.46746-6.627136 5.46903-10.592255-1.64562-6.535346-.36567-11.649444 4.10991-16.421332 2.11228-2.252119 44.85009-34.620043 46.59614-35.290064.39125-.150136.98277.05796 1.31449.462427.46345.565076-3.45865 4.416677-16.93409 16.629734-9.64547 8.741883-18.75265 16.968948-20.23818 18.28237l-2.70097 2.388044 1.14255 1.151267 1.14254 1.151272 20.05145-18.513031c18.60074-17.173627 20.11894-18.445541 20.98428-17.580192.86535.865349-.4597 2.325839-18.31473 20.186663-17.04255 17.048073-19.15942 19.360052-18.47803 20.181068.6842.82441 2.91915-1.221678 20.15171-18.448813 16.7753-16.770012 19.48047-19.257612 20.11306-18.495393.62726.755809-.55394 2.270201-8.33138 10.681426-30.38681 32.863071-28.03576 30.112455-26.80098 31.355869 1.10654 1.114289 1.11678 1.114289 2.18226 0 .58877-.615747 8.86086-9.719572 18.38241-20.230716 12.74926-14.0743 17.47903-18.944076 17.94594-18.477161.34871.348708.63402.849956.63402 1.113885 0 1.064594-34.43732 46.074515-36.62071 47.863649-4.38277 3.591341-8.88633 4.47355-15.54597 3.045314-2.31937-.497419-3.17843-.446137-4.71127.28125-1.83633.87139-9.25383 8.868839-9.25383 9.977349 0 .309219 14.03863 12.966187 31.19695 28.126587 17.15832 15.1604 31.83085 28.4553 32.60562 29.54422 1.88059 2.64308 2.30419 7.71338.89291 10.68744-2.3033 4.85384-8.76969 6.91381-13.74128 4.3775-2.64553-1.34966-3.8983-2.70789-35.28231-38.25265-12.61075-14.28262-23.11773-25.96841-23.34885-25.96841-.23113 0-12.541253 13.73015-27.355842 30.51144-27.014841 30.60119-30.036134 33.82522-32.618115 34.80688-2.416365.9187-7.120813.62214-9.079834-.57237z"/></svg>