<?xml version="1.0" encoding="UTF-8" standalone="no"?>
<!-- Created with Inkscape (http://www.inkscape.org/) -->

<svg
   xmlns:svg="http://www.w3.org/2000/svg"
   xmlns="http://www.w3.org/2000/svg"
   version="1.1"
   width="200"
   height="200"
   id="svg2">
  <defs
     id="defs4" />
  <path
     d="m 0,-0.61582947 200.9709,0 L 200.9709,200 0,200 0,-0.61582947 z"
     id="rect2881"
     style="fill:#ffffff;fill-opacity:1;stroke:none" />
  <path
     d="m 21.814432,2.8621521 157.645218,0 c 10.29357,0 18.58045,8.2868829 18.58045,18.5804539 l 0,157.645234 c 0,10.29357 -8.28688,18.58045 -18.58045,18.58045 l -157.645218,0 c -10.293571,0 -18.5804535,-8.28688 -18.5804535,-18.58045 l 0,-157.645234 c 0,-10.293571 8.2868825,-18.5804539 18.5804535,-18.5804539 z"
     id="rect4614"
     style="fill:none;stroke:#000000;stroke-width:3;stroke-miterlimit:4;stroke-opacity:1" />
  <path
     d="m 37.108816,131.70991 c -2.208614,-1.34667 -3.562718,-3.81705 -3.562718,-6.49968 l 0,-2.00784 -9.333077,0 -9.333078,0 0,-3.67666 0,-3.67667 84.563337,0 84.56334,0 0,3.67667 0,3.67666 -9.20125,0 -9.20124,0 -0.0574,2.19078 c -0.11519,4.39322 -3.24024,7.4268 -7.64682,7.42301 -4.41322,-0.004 -7.83171,-3.43505 -7.83171,-7.86094 0,-0.96407 -0.20363,-1.75285 -0.45251,-1.75285 -0.24888,0 -0.45251,0.84254 -0.45251,1.8723 0,4.60574 -3.10105,7.74537 -7.64635,7.74149 -4.541,-0.004 -7.85222,-3.33469 -7.85222,-7.89869 l 0,-1.7151 -34.22128,0 -34.221283,0 0,2.61194 c 0,2.27987 -0.279184,2.89111 -2.196017,4.80795 -1.950443,1.95044 -2.503917,2.19577 -4.949359,2.1939 -4.80576,-0.004 -8.126933,-3.11196 -8.126933,-7.60595 0,-1.10431 -0.254538,-2.00784 -0.565641,-2.00784 -0.311102,0 -0.565641,1.17537 -0.565641,2.61194 0,2.27987 -0.279182,2.89111 -2.196018,4.80795 -1.950443,1.95044 -2.503917,2.19577 -4.949359,2.1939 -1.732078,-0.001 -3.425026,-0.41167 -4.564213,-1.10627 l -5e-5,0 z m -26.18836,-4.13406 c -1.8265091,-0.90497 -3.9594872,-5.14762 -3.9594872,-7.87571 0,-3.1375 1.5684581,-6.5838 3.4358682,-7.54948 3.32134,-1.71753 3.351824,-1.64788 3.351824,7.65789 0,9.07045 -0.03027,9.15357 -2.828205,7.7673 z m 174.217444,-7.7673 c 0,-8.08504 0.0529,-8.48462 1.12236,-8.48462 0.6173,0 1.94362,0.7338 2.94738,1.63066 1.66682,1.48931 1.8444,1.97355 2.04853,5.58619 0.16667,2.9497 -0.0269,4.48313 -0.76109,6.03041 -0.89287,1.88158 -3.24824,3.72197 -4.76345,3.72197 -0.38816,0 -0.59373,-2.93769 -0.59373,-8.48461 z M 14.879943,91.217969 l 0,-22.368534 1.388392,-1.388389 1.388392,-1.388394 81.684562,0 81.684561,0 1.49038,1.172336 1.49039,1.172337 0,22.584586 0,22.584589 -84.56334,0 -84.563337,0 0,-22.368531 z M 151.58735,110.31447 c 0.3689,-0.23459 0.7507,-1.6714 0.84846,-3.19293 l 0.17773,-2.76643 7.35333,-2.08712 7.35334,-2.08713 0.17265,2.79186 c 0.13796,2.23084 0.34617,2.72527 1.03613,2.46051 0.47492,-0.18224 1.22447,-0.33135 1.66569,-0.33135 1.21909,0 1.16783,-14.264689 -0.0549,-15.279478 -0.70292,-0.583368 -2.55994,-0.227868 -10.32295,1.976175 -5.20621,1.478127 -9.78402,2.943646 -10.1729,3.256712 -0.50204,0.404167 -0.70705,2.763269 -0.70705,8.136111 0,6.83277 0.096,7.56605 0.98987,7.55823 0.54443,-0.005 1.2917,-0.20059 1.6606,-0.43516 z m -4.3474,-11.151819 c 0,-5.118825 0.6239,-5.957139 5.45841,-7.334316 1.81996,-0.518444 5.07509,-1.459846 7.23362,-2.092006 l 3.92459,-1.149383 -7.88408,-4.174691 c -4.33624,-2.296078 -8.26589,-4.18059 -8.73254,-4.187808 -0.46666,-0.0072 -4.99062,1.180674 -10.05326,2.639768 l -9.2048,2.652896 -2.67367,-1.36595 c -1.47051,-0.751267 -2.86456,-1.456678 -3.09789,-1.567572 -0.7396,-0.351506 -0.48103,7.141427 0.26353,7.636832 1.53149,1.018997 23.94827,13.139149 24.34186,13.160999 0.23332,0.0129 0.42423,-1.8855 0.42423,-4.218769 z m -27.15077,-13.590034 0.28282,-7.241291 9.19167,-2.824274 c 8.15589,-2.506022 9.19166,-2.961436 9.19166,-4.041482 0,-0.669465 -0.34077,-1.683235 -0.75726,-2.25283 -0.72215,-0.987592 -1.19871,-0.901739 -10.27711,1.851485 -5.23592,1.587901 -9.72748,3.214334 -9.98126,3.614299 -0.25377,0.399965 -0.4653,4.855253 -0.47007,9.900646 l -0.009,9.173436 1.2727,-0.469346 c 1.20733,-0.44525 1.28721,-0.841238 1.55551,-7.710643 l 3.4e-4,0 z m 11.81748,-3.054264 c 2.0557,-0.599042 5.58305,-1.627971 7.83854,-2.286513 2.2555,-0.658542 4.1009,-1.443872 4.1009,-1.745183 0,-0.301312 -1.36746,-1.218499 -3.0388,-2.038203 l -3.03881,-1.490368 -7.70495,2.203562 c -4.23772,1.211965 -7.70283,2.458106 -7.70023,2.769209 0.004,0.449945 4.68518,3.503693 5.58386,3.642423 0.12201,0.01884 1.90378,-0.455884 3.95949,-1.054927 z"
     id="path3865"
     style="fill:#000000" />
  <g
     transform="matrix(1.0213678,0,0,1.0213678,-207.24832,-29.309725)"
     id="g3951">
    <path
       d="m 256.63693,100.8571 c 0.29113,0.56612 0.25394,1.30972 0.51446,1.89322 l -8.80374,8.28401 -2.66775,-0.006 9.94145,-9.29329 1.01558,-0.8782 0,2e-4 z m 17.64846,11.04526 c 0.03,0.0678 -1.13393,6.56837 -1.08408,6.46394 l -28.81551,-0.0228 c -0.54507,-4.3e-4 -1.08452,-0.20508 -1.6533,-0.20622 -0.56875,-6.9e-4 -1.12372,0.0737 -1.65414,0.19938 l -14.07208,-0.0293 0.01,-4.72712 19.1619,-1.83251 12.77723,0.0259 0,0 15.33012,0.1287 0,-4e-5 -10e-6,-4e-5 z m -31.55587,7.52931 c 3.19666,0.008 5.78259,2.61888 5.77596,5.81556 -0.007,3.19669 -2.60326,5.78262 -5.79995,5.776 -3.19667,-0.008 -5.78261,-2.60326 -5.77601,-5.79994 0.007,-3.19669 2.6033,-5.79822 5.8,-5.79162 l 0,0 z m 16.66079,0.54929 c -0.14478,2.21737 -0.50341,4.38681 -1.04304,6.4723 l -8.65858,-0.0178 c 0.0671,-0.38888 0.11077,-0.79327 0.11172,-1.20105 0.004,-2.10052 -0.90992,-3.97682 -2.36045,-5.27806 l 11.95037,0.0251 -1e-5,-5.7e-4 -10e-6,6e-5 z m -21.37338,-0.0447 c -1.45589,1.29524 -2.37796,3.18335 -2.38229,5.28386 -6.1e-4,0.2392 0.007,0.46892 0.0299,0.70211 l -5.61555,-0.40166 -2.7186,-5.60641 10.68667,0.0218 -10e-6,0 -1e-4,3.9e-4 -1e-5,-4e-5 z m 4.706,2.67754 c -1.44138,-0.002 -2.60784,1.1742 -2.6108,2.6156 -0.003,1.44133 1.15862,2.60776 2.59998,2.61073 1.44138,0.002 2.60778,-1.15861 2.61078,-2.6 0.003,-1.44135 -1.15859,-2.62334 -2.59996,-2.62633 l 0,0 z"
       id="path3752"
       style="fill:#ffffff;fill-opacity:1;fill-rule:evenodd;stroke:none" />
    <path
       d="m 280.38375,100.88776 9.8305,10.38649 -8.50801,-0.0177 -3.98875,-7.89826 -21.36648,-0.0556 c 0.39288,-0.84722 -0.15278,-1.66628 0.30489,-2.47477 l 23.72785,0.0613 0,-6.4e-4 0,-7.5e-4 z m 23.76669,11.08305 1.62584,6.17585 -0.0782,0.37109 -17.86686,-0.0405 c -0.52832,-0.12831 -1.07184,-0.2035 -1.63927,-0.2048 -0.56399,-0.001 -1.09973,0.20217 -1.64018,0.19751 l -13.6365,-0.12021 c -0.003,-0.20706 2.14382,-0.31714 2.14437,-0.52501 0.005,-2.02174 0.20213,-3.99709 0.53931,-5.92347 l 30.55152,0.0688 -10e-6,2e-5 -6e-5,8.1e-4 0,4e-5 0,-1e-4 z m -17.96136,7.58587 c 3.16969,0.008 5.73324,2.59778 5.72611,5.76743 -0.007,3.16966 -2.58231,5.73328 -5.75196,5.72615 -3.16968,-0.008 -5.73327,-2.58231 -5.72611,-5.75195 0.007,-3.16969 2.58231,-5.74877 5.75196,-5.74163 l 0,0 z m 19.14964,0.55357 -1.25002,5.55061 -11.00052,0.84153 c 0.0665,-0.38558 0.11008,-0.78653 0.11098,-1.19089 0.005,-2.08272 -0.90151,-3.94337 -2.33954,-5.23383 l 14.47909,0.033 0,-3.9e-4 1e-5,-4e-5 z m -23.83794,-0.0537 c -1.4409,1.28387 -2.3584,3.15843 -2.3631,5.23873 -6.6e-4,0.40438 0.0563,0.79005 0.12115,1.17593 l -22.47766,-0.0118 c -0.0472,0.0897 0.17544,-6.50716 0.27136,-6.50675 l 24.44835,0.10577 -10e-5,-0.001 0,-4e-5 0,-5.7e-4 z m 4.68121,2.65577 c -1.42917,-0.004 -2.58598,1.1638 -2.58919,2.59297 -0.003,1.42923 1.14835,2.58597 2.57752,2.58921 1.4292,0.004 2.58595,-1.14836 2.58916,-2.57756 0.003,-1.42918 -1.14831,-2.60139 -2.57749,-2.60462 l 0,0 z"
       id="path3754"
       style="fill:#ffffff;fill-opacity:1;fill-rule:evenodd;stroke:none" />
    <path
       d="m 267.07128,111.24247 -0.0401,-7.88978"
       id="path3756"
       style="fill:#ffffff;fill-opacity:1;stroke:#ffffff;stroke-width:1.05555558px;stroke-linecap:butt;stroke-linejoin:miter;stroke-opacity:1" />
  </g>
</svg>
