<?xml version="1.0" encoding="UTF-8" standalone="no"?>
<!-- Created with Inkscape (http://www.inkscape.org/) -->

<svg
   xmlns:dc="http://purl.org/dc/elements/1.1/"
   xmlns:cc="http://creativecommons.org/ns#"
   xmlns:rdf="http://www.w3.org/1999/02/22-rdf-syntax-ns#"
   xmlns:svg="http://www.w3.org/2000/svg"
   xmlns="http://www.w3.org/2000/svg"
   xmlns:sodipodi="http://sodipodi.sourceforge.net/DTD/sodipodi-0.dtd"
   xmlns:inkscape="http://www.inkscape.org/namespaces/inkscape"
   version="1.1"
   width="200"
   height="200"
   id="svg2"
   inkscape:version="0.47 r22583"
   sodipodi:docname="Italian traffic signs - icona autosoccorso.svg"
   sodipodi:version="0.32"
   inkscape:output_extension="org.inkscape.output.svg.inkscape">
  <metadata
     id="metadata2877">
    <rdf:RDF>
      <cc:Work
         rdf:about="">
        <dc:format>image/svg+xml</dc:format>
        <dc:type
           rdf:resource="http://purl.org/dc/dcmitype/StillImage" />
        <dc:title></dc:title>
      </cc:Work>
    </rdf:RDF>
  </metadata>
  <sodipodi:namedview
     pagecolor="#ffffff"
     bordercolor="#666666"
     borderopacity="1"
     objecttolerance="10"
     gridtolerance="10"
     guidetolerance="10"
     inkscape:pageopacity="0"
     inkscape:pageshadow="2"
     inkscape:window-width="1600"
     inkscape:window-height="838"
     id="namedview2875"
     showgrid="false"
     inkscape:zoom="2.3765092"
     inkscape:cx="65.796014"
     inkscape:cy="94.939343"
     inkscape:window-x="-8"
     inkscape:window-y="-8"
     inkscape:window-maximized="1"
     inkscape:current-layer="svg2" />
  <defs
     id="defs4">
    <inkscape:perspective
       sodipodi:type="inkscape:persp3d"
       inkscape:vp_x="0 : 100 : 1"
       inkscape:vp_y="0 : 1000 : 0"
       inkscape:vp_z="200 : 100 : 1"
       inkscape:persp3d-origin="100 : 66.666667 : 1"
       id="perspective2879" />
    <inkscape:perspective
       id="perspective2839"
       inkscape:persp3d-origin="0.5 : 0.33333333 : 1"
       inkscape:vp_z="1 : 0.5 : 1"
       inkscape:vp_y="0 : 1000 : 0"
       inkscape:vp_x="0 : 0.5 : 1"
       sodipodi:type="inkscape:persp3d" />
    <inkscape:perspective
       id="perspective3649"
       inkscape:persp3d-origin="0.5 : 0.33333333 : 1"
       inkscape:vp_z="1 : 0.5 : 1"
       inkscape:vp_y="0 : 1000 : 0"
       inkscape:vp_x="0 : 0.5 : 1"
       sodipodi:type="inkscape:persp3d" />
    <inkscape:perspective
       id="perspective3679"
       inkscape:persp3d-origin="0.5 : 0.33333333 : 1"
       inkscape:vp_z="1 : 0.5 : 1"
       inkscape:vp_y="0 : 1000 : 0"
       inkscape:vp_x="0 : 0.5 : 1"
       sodipodi:type="inkscape:persp3d" />
    <inkscape:perspective
       id="perspective3713"
       inkscape:persp3d-origin="0.5 : 0.33333333 : 1"
       inkscape:vp_z="1 : 0.5 : 1"
       inkscape:vp_y="0 : 1000 : 0"
       inkscape:vp_x="0 : 0.5 : 1"
       sodipodi:type="inkscape:persp3d" />
    <inkscape:perspective
       id="perspective3741"
       inkscape:persp3d-origin="0.5 : 0.33333333 : 1"
       inkscape:vp_z="1 : 0.5 : 1"
       inkscape:vp_y="0 : 1000 : 0"
       inkscape:vp_x="0 : 0.5 : 1"
       sodipodi:type="inkscape:persp3d" />
    <inkscape:perspective
       id="perspective3765"
       inkscape:persp3d-origin="0.5 : 0.33333333 : 1"
       inkscape:vp_z="1 : 0.5 : 1"
       inkscape:vp_y="0 : 1000 : 0"
       inkscape:vp_x="0 : 0.5 : 1"
       sodipodi:type="inkscape:persp3d" />
    <inkscape:perspective
       id="perspective3801"
       inkscape:persp3d-origin="0.5 : 0.33333333 : 1"
       inkscape:vp_z="1 : 0.5 : 1"
       inkscape:vp_y="0 : 1000 : 0"
       inkscape:vp_x="0 : 0.5 : 1"
       sodipodi:type="inkscape:persp3d" />
    <inkscape:perspective
       id="perspective2863"
       inkscape:persp3d-origin="0.5 : 0.33333333 : 1"
       inkscape:vp_z="1 : 0.5 : 1"
       inkscape:vp_y="0 : 1000 : 0"
       inkscape:vp_x="0 : 0.5 : 1"
       sodipodi:type="inkscape:persp3d" />
    <inkscape:perspective
       id="perspective3859"
       inkscape:persp3d-origin="0.5 : 0.33333333 : 1"
       inkscape:vp_z="1 : 0.5 : 1"
       inkscape:vp_y="0 : 1000 : 0"
       inkscape:vp_x="0 : 0.5 : 1"
       sodipodi:type="inkscape:persp3d" />
    <inkscape:perspective
       id="perspective3964"
       inkscape:persp3d-origin="0.5 : 0.33333333 : 1"
       inkscape:vp_z="1 : 0.5 : 1"
       inkscape:vp_y="0 : 1000 : 0"
       inkscape:vp_x="0 : 0.5 : 1"
       sodipodi:type="inkscape:persp3d" />
    <inkscape:perspective
       id="perspective3988"
       inkscape:persp3d-origin="0.5 : 0.33333333 : 1"
       inkscape:vp_z="1 : 0.5 : 1"
       inkscape:vp_y="0 : 1000 : 0"
       inkscape:vp_x="0 : 0.5 : 1"
       sodipodi:type="inkscape:persp3d" />
    <inkscape:perspective
       id="perspective2879-7"
       inkscape:persp3d-origin="0.5 : 0.33333333 : 1"
       inkscape:vp_z="1 : 0.5 : 1"
       inkscape:vp_y="0 : 1000 : 0"
       inkscape:vp_x="0 : 0.5 : 1"
       sodipodi:type="inkscape:persp3d" />
    <inkscape:perspective
       id="perspective4031"
       inkscape:persp3d-origin="0.5 : 0.33333333 : 1"
       inkscape:vp_z="1 : 0.5 : 1"
       inkscape:vp_y="0 : 1000 : 0"
       inkscape:vp_x="0 : 0.5 : 1"
       sodipodi:type="inkscape:persp3d" />
    <inkscape:perspective
       id="perspective4047"
       inkscape:persp3d-origin="0.5 : 0.33333333 : 1"
       inkscape:vp_z="1 : 0.5 : 1"
       inkscape:vp_y="0 : 1000 : 0"
       inkscape:vp_x="0 : 0.5 : 1"
       sodipodi:type="inkscape:persp3d" />
  </defs>
  <path
     style="fill:#ffffff;fill-opacity:1;stroke:none"
     d="m -2.1039262,-3.1405409 207.7153762,0 0,207.3483909 -207.7153762,0 0,-207.3483909 z"
     id="rect2881" />
  <path
     style="fill:none;stroke:#000000;stroke-width:3;stroke-miterlimit:4;stroke-opacity:1"
     d="m 21.814432,2.8621521 157.645218,0 c 10.29357,0 18.58045,8.2868829 18.58045,18.5804539 l 0,157.645234 c 0,10.29357 -8.28688,18.58045 -18.58045,18.58045 l -157.645218,0 c -10.293571,0 -18.5804535,-8.28688 -18.5804535,-18.58045 l 0,-157.645234 c 0,-10.293571 8.2868825,-18.5804539 18.5804535,-18.5804539 z"
     id="rect4614" />
  <path
     style="fill:#000000"
     d="m 78.646071,145.19245 c -3.282708,-1.16423 -6.598009,-4.15942 -8.306153,-7.50415 -1.168903,-2.28886 -1.431463,-3.62498 -1.403758,-7.14347 0.04057,-5.14912 1.245855,-7.90908 4.892935,-11.204 3.263619,-2.94849 5.899561,-3.95401 10.365281,-3.95401 4.465721,0 7.101663,1.00552 10.365281,3.95401 3.65501,3.30208 4.854468,6.0548 4.881989,11.204 0.01927,3.60919 -0.235317,4.82148 -1.532993,7.29922 -3.601797,6.87719 -11.786876,9.99967 -19.262582,7.3484 z m 8.507763,-9.20381 c 2.107059,-1.0896 3.603229,-4.30565 3.090048,-6.64213 -0.535917,-2.44002 -3.357126,-4.57236 -6.049506,-4.57236 -2.607769,0 -5.438708,2.06117 -6.021801,4.38441 -0.577108,2.29938 0.70232,5.36576 2.763151,6.62238 2.206165,1.34523 3.908406,1.4021 6.218108,0.2077 z m -62.541692,0.21077 -11.397069,-8.70881 2.637147,-2.81933 c 1.45043,-1.55063 3.333104,-4.30419 4.18372,-6.11903 1.405134,-2.99794 1.543621,-3.90663 1.514289,-9.93599 -0.02789,-5.73261 -0.240317,-7.18347 -1.560001,-10.654601 -0.840244,-2.210078 -1.474917,-4.060654 -1.410385,-4.1124 0.417368,-0.334636 21.727871,9.314371 22.808206,10.327131 0.73665,0.69058 2.424573,3.44565 3.750941,6.12237 l 2.411578,4.86677 0,6.99824 c 0,6.91587 -0.0252,7.04885 -2.140355,11.29633 -2.226726,4.47153 -7.607983,11.53478 -8.746062,11.47979 -0.360217,-0.0174 -5.783621,-3.95062 -12.052009,-8.74047 z m 20.042988,4.94175 c 9.084092,-11.15168 9.550744,-24.56261 1.248248,-35.87287 -1.947959,-2.65365 -2.597015,-3.04285 -11.344251,-6.802446 l -9.278076,-3.987758 3.848239,-0.172255 c 3.513971,-0.157291 4.481165,0.08785 11.134758,2.822145 5.55399,2.282418 7.730472,3.489654 9.153654,5.077324 2.65773,2.96491 5.733467,9.52645 6.521661,13.91283 1.295003,7.20679 -0.638059,17.01589 -4.833174,24.52538 l -1.934245,3.46241 -3.607066,0.17324 -3.607065,0.17324 2.697317,-3.31124 z m 56.9239,-7.88838 c 0.11639,-6.65182 -0.97462,-10.25946 -4.216323,-13.94223 -4.675104,-5.3112 -11.891309,-7.30337 -18.730665,-5.17097 -2.617995,0.81625 -4.117431,1.78591 -6.636043,4.2914 -3.194665,3.17802 -4.218049,5.28534 -5.392423,11.10398 -0.302591,1.49922 -0.495118,1.58693 -3.48317,1.58693 l -3.16288,0 0,-15.25655 0,-15.25656 10.703114,-16.193639 10.703115,-16.193644 18.433214,0 18.433221,0 0.14986,27.554992 0.14987,27.554991 33.32567,0.14895 33.32566,0.14896 0,7.49719 0,7.4972 -41.8481,0 -41.8481,0 0.094,-5.371 z m 11.75728,-46.565111 0,-14.138163 -14.472754,-0.153967 C 85.629965,72.254751 84.315618,72.328864 83.512559,73.261141 82.524486,74.40819 65.728205,100.49107 65.728205,100.87839 c 0,0.13683 10.711822,0.18097 23.804049,0.0981 l 23.804056,-0.15067 0,-14.138161 0,1e-5 z m 7.79041,23.948311 0,-9.52162 32.02727,0 32.02726,0 0,9.52162 0,9.52162 -32.02726,0 -32.02727,0 0,-9.52162 z M 87.936754,64.614823 c 0.858296,-4.330999 2.439825,-7.745694 4.670452,-10.083996 2.109927,-2.211775 2.630656,-2.467231 5.029268,-2.467231 2.148614,0 3.063076,0.34017 4.642596,1.727003 2.23636,1.963548 4.26923,6.238063 4.79663,10.085825 l 0.35827,2.613869 -9.934446,0 -9.934443,0 0.371673,-1.87547 z"
     id="path4053"
     sodipodi:nodetypes="csssssssccssssccccssssscccssccscccsssccccccssssccccccccccccccccccccssccccccccccccccsssccccc" />
</svg>
