<svg xmlns="http://www.w3.org/2000/svg" width="200" height="200" xmlns:v="https://vecta.io/nano"><path d="M-.053-.308h200.971v200.616H-.053z" fill="#fff"/><path d="M82.822 136.035l-14.301-27.173-11.823-.57c-18.826-.907-31.758-3.827-33.786-7.629-.63-1.18-.322-1.702 1.76-2.992 5.456-3.378 15.613-5.254 32.656-6.03l11.192-.51 14.296-27.174 14.295-27.174h5.962c3.279 0 5.962.179 5.962.398s-2.939 10.344-6.532 22.5c-5.18 17.528-6.532 23.109-6.532 26.968v4.866h9.462c9.407 0 28.267 1.519 41.813 3.367l7.089.967 7.073-8.72 7.073-8.72h3.705c2.038 0 3.705.224 3.705.498s-2.261 4.448-5.025 9.276-4.839 9.08-4.612 9.448 2.488.911 5.025 1.207 4.612.816 4.612 1.156-2.075.861-4.612 1.156-4.798.838-5.025 1.207 1.849 4.62 4.612 9.448 5.025 9.002 5.025 9.276-1.667.498-3.705.498h-3.705l-7.196-8.872c-4.901-6.042-7.579-8.755-8.398-8.506-3.498 1.064-30.704 3.624-42.89 4.036l-14.024.474v4.747c0 3.71 1.427 9.577 6.532 26.85l6.532 22.5c0 .219-2.68.398-5.955.397h-5.955l-14.301-27.173h0 0z"/><rect y="2.862" x="3.745" height="194.806" width="194.806" rx="18.58" fill="none" stroke="#000" stroke-width="3"/></svg>