<?xml version="1.0" encoding="UTF-8" standalone="no"?>
<!-- Created with Inkscape (http://www.inkscape.org/) -->

<svg
   width="158.75mm"
   height="158.75mm"
   viewBox="0 0 158.75 158.75"
   version="1.1"
   id="svg1"
   inkscape:version="1.3.2 (091e20e, 2023-11-25, custom)"
   sodipodi:docname="Scuolabus base.svg"
   xmlns:inkscape="http://www.inkscape.org/namespaces/inkscape"
   xmlns:sodipodi="http://sodipodi.sourceforge.net/DTD/sodipodi-0.dtd"
   xmlns="http://www.w3.org/2000/svg"
   xmlns:svg="http://www.w3.org/2000/svg">
  <sodipodi:namedview
     id="namedview1"
     pagecolor="#ffffff"
     bordercolor="#000000"
     borderopacity="0.25"
     inkscape:showpageshadow="2"
     inkscape:pageopacity="0.0"
     inkscape:pagecheckerboard="0"
     inkscape:deskcolor="#d1d1d1"
     inkscape:document-units="mm"
     inkscape:zoom="1.4609989"
     inkscape:cx="453.79912"
     inkscape:cy="219.71269"
     inkscape:window-width="1920"
     inkscape:window-height="991"
     inkscape:window-x="-9"
     inkscape:window-y="-9"
     inkscape:window-maximized="1"
     inkscape:current-layer="layer1" />
  <defs
     id="defs1" />
  <g
     inkscape:label="Livello 1"
     inkscape:groupmode="layer"
     id="layer1"
     transform="translate(-30.427083,-37.3062)">
    <g
       id="g71"
       transform="translate(-601.02531,-1603.5334)">
      <rect
         style="fill:#ff6600;stroke-width:2.1285;stroke-linecap:round;paint-order:fill markers stroke"
         id="rect70-5"
         width="158.75"
         height="158.75"
         x="631.45239"
         y="1640.8396" />
      <rect
         style="fill:none;fill-opacity:0.419162;stroke:#000000;stroke-width:2.64583;stroke-linecap:round;paint-order:fill markers stroke"
         id="rect70-5-7"
         width="153.45833"
         height="153.45833"
         x="634.09833"
         y="1643.4855"
         ry="7.9375"
         rx="7.9375" />
      <g
         id="g70-3-1"
         transform="matrix(1.4205152,0,0,1.4205152,-222.77856,-158.6425)">
        <circle
           style="fill:#000000;stroke-width:2.74594;stroke-linecap:round;paint-order:fill markers stroke"
           id="path28-5-2-2-0"
           cx="631.63354"
           cy="1297.744"
           r="6.6393623" />
        <path
           id="path28-8-2-1-3-4"
           style="fill:#000000;stroke-width:2.3998;stroke-linecap:round;paint-order:fill markers stroke"
           d="m 682.51007,1296.8416 a 5.8024681,5.8024681 0 0 0 -5.80219,5.8022 5.8024681,5.8024681 0 0 0 5.80219,5.8036 5.8024681,5.8024681 0 0 0 4.05514,-1.6726 l 1.66863,0.9972 -1.97305,1.1381 4.21206,2.4557 0.15694,-2.1606 2.55277,1.5264 a 1.2864315,1.2864315 0 0 0 1.76432,-0.4441 1.2864315,1.2864315 0 0 0 -0.44403,-1.7643 l -2.33472,-1.3961 1.7258,-0.9958 -4.21206,-2.4544 -0.13559,1.8813 -1.59013,-0.9506 a 5.8024681,5.8024681 0 0 0 0.35629,-1.9638 5.8024681,5.8024681 0 0 0 -5.80219,-5.8022 z" />
        <path
           style="fill:#000000;stroke-width:2.57286;stroke-linecap:round;paint-order:fill markers stroke"
           d="m 616.9601,1322.8508 15.56618,9.429 -6.69518,11.047 -15.39879,-9.6522 z"
           id="path29-5-3-8-0"
           sodipodi:nodetypes="ccccc" />
        <g
           id="path30-5-4-6-3"
           transform="matrix(0.68073672,0,0,0.68073672,-876.77458,1359.8564)"
           style="fill:#252422 icc-color(sRGB-IEC61966-2, 0.1, 0.14498901, 0.14099121, 0.13299561)">
          <path
             style="color:#000000;stroke-linecap:round;-inkscape-stroke:none;paint-order:fill markers stroke"
             d="M 2209.5358,-52.476005 2225.354,-77.63763"
             id="path31-4-3-8-3" />
          <path
             id="path32-2-4-8-3"
             style="color:#000000;fill:#000000;stroke-linecap:round;-inkscape-stroke:none;paint-order:fill markers stroke"
             d="m 2229.3516,-82.720814 c -2.7345,-0.202434 -5.3414,1.072652 -7.0371,3.171875 l -15.8184,25.162108 c -1.0557,1.678935 -0.5502,3.895786 1.1289,4.951171 1.6789,1.05569 3.8958,0.550228 4.9512,-1.128906 l 8.4961,-13.513671 9.6914,11.765624 -4.0977,9.589843 1.9512,0.740235 -2.2344,5.414062 c -0.2508,0.626251 -0.5003,1.405 -0.5576,2.032563 -0.057,0.627563 0.039,1.092362 0.1045,1.674468 l 3.1426,25.5468733 c 0.2931,2.3829767 2.4628,4.0769377 4.8457,3.7832029 2.383,-0.2931 4.0769,-2.4628044 3.7832,-4.8457028 l -3.1133,-25.2871074 2.1602,-5.234375 1.8007,0.683594 2.2129,-5.65625 3.5254,4.263672 1.4551,-1.115235 6.3965,6.603516 c 0.5447,0.554038 1.4643,1.314617 2.6106,1.550309 1.1462,0.235693 2.0834,0.159241 3.3035,-0.501481 l 14.8671,-8.150391 c 2.105,-1.15366 2.8763,-3.795328 1.7227,-5.90039 -0.554,-1.011196 -1.487,-1.760851 -2.5938,-2.083984 -1.1071,-0.323282 -2.2973,-0.193299 -3.3085,0.361328 l -12.254,6.71875 -3.8007,-3.921875 1.4355,-1.101563 -9.3418,-10.572264 -4.164,-13.654296 15.4179,5.310546 c 1.8747,0.644631 3.9171,-0.352093 4.5625,-2.226562 0.6461,-1.874743 -0.3499,-3.918289 -2.2246,-4.564453 l -28.1015,-9.677734 c -0.2965,-0.102328 -0.6051,-0.165365 -0.918,-0.1875 z"
             sodipodi:nodetypes="cscscccccczcsccccccccczccsscccccccsccc" />
        </g>
        <g
           id="path30-2-7-0-2-4-3"
           transform="matrix(0.68073672,0,0,0.68073672,-876.77458,1359.8564)"
           style="fill:#252422 icc-color(sRGB-IEC61966-2, 0.1, 0.14498901, 0.14099121, 0.13299561)">
          <path
             style="color:#000000;stroke-linecap:round;-inkscape-stroke:none;paint-order:fill markers stroke"
             d="m 2266.0289,-65.749157 5.9719,6.317376"
             id="path57-4-6-8-1" />
          <path
             id="path58-3-0-0-6"
             style="color:#000000;fill:#000000;stroke-linecap:round;-inkscape-stroke:none;paint-order:fill markers stroke"
             d="m 2292.7071,-71.992299 c -1.1138,-0.08558 -1.9313,-0.223529 -3.0702,-0.04172 -1.1389,0.181817 -1.9637,0.680523 -2.9923,1.278044 L 2273,-62.77746 l -4.7734,-5.048828 c -1.147,-1.214471 -3.0615,-1.268696 -4.2754,-0.121093 -1.2139,1.147554 -1.2672,3.062037 -0.1191,4.27539 l 5.9707,6.316406 c 0.6944,0.735125 1.8172,1.105822 2.707,1.109196 0.8898,0.0034 1.5348,-0.142619 2.2012,-0.525212 l 7.6093,-4.449218 3.0586,8.005859 -4.998,14.343749 h 2.4765 l -3.0039,9.097655 c -0.5233,1.321818 -0.9227,2.420721 -0.7773,3.81836 l 2.7754,18.2324202 c 0.2982,1.9605136 2.1293,3.3080514 4.0898,3.0097655 1.9605,-0.2981881 3.3081,-2.129315 3.0098,-4.0898435 l -2.7422,-17.6447792 4.2109,-12.423578 h 2.6543 l 4.5332,7.808593 c 0.5422,0.931859 1.3405,1.628791 2.2816,1.904103 0.9411,0.275311 1.9661,0.280037 2.8122,0.02754 l 16.1387,-4.941405 c 1.8964,-0.580229 2.9633,-2.588044 2.3828,-4.484375 -0.5802,-1.896422 -2.5881,-2.963297 -4.4844,-2.382813 l -14.0625,4.304688 -1.4004,-2.41211 2.0215,-0.80664 -6.9668,-13.361327 4.0527,-10.095703 3.0664,0.966797 2.8438,7.208984 c 0.6128,1.554255 2.37,2.316955 3.9238,1.703125 1.5524,-0.613555 2.314,-2.369113 1.7012,-3.921875 l -3.4297,-8.695312 c -0.4461,-1.125301 -1.7253,-1.589203 -3.2223,-2.113102 l -11.8949,-3.699398 c -0.2157,-0.06833 -0.4385,-0.112225 -0.664,-0.130859 z"
             sodipodi:nodetypes="czcccscczccccccccsccccczccsscccccccscccccc" />
        </g>
        <path
           style="fill:#000000;stroke-width:4.11658;stroke-linecap:round;paint-order:fill markers stroke"
           d="m 699.92418,1323.5203 3.7939,5.3561 -10.60064,4.2403 -0.61375,-6.6394 z"
           id="path61-2-0-4-4" />
      </g>
    </g>
  </g>
</svg>
