<?xml version="1.0" encoding="UTF-8" standalone="no"?>
<!-- Created with Inkscape (http://www.inkscape.org/) -->

<svg
   xmlns:dc="http://purl.org/dc/elements/1.1/"
   xmlns:cc="http://creativecommons.org/ns#"
   xmlns:rdf="http://www.w3.org/1999/02/22-rdf-syntax-ns#"
   xmlns:svg="http://www.w3.org/2000/svg"
   xmlns="http://www.w3.org/2000/svg"
   xmlns:sodipodi="http://sodipodi.sourceforge.net/DTD/sodipodi-0.dtd"
   xmlns:inkscape="http://www.inkscape.org/namespaces/inkscape"
   width="1200"
   height="779.88"
   id="svg2"
   version="1.1"
   inkscape:version="0.48.5 r10040"
   sodipodi:docname="CANC Distanza.svg">
  <defs
     id="defs4" />
  <sodipodi:namedview
     id="base"
     pagecolor="#ffffff"
     bordercolor="#666666"
     borderopacity="1.0"
     inkscape:pageopacity="0.0"
     inkscape:pageshadow="2"
     inkscape:zoom="0.175"
     inkscape:cx="1544.6861"
     inkscape:cy="218.63588"
     inkscape:document-units="px"
     inkscape:current-layer="layer1"
     showgrid="false"
     inkscape:object-paths="true"
     inkscape:snap-intersection-paths="true"
     inkscape:object-nodes="true"
     inkscape:snap-nodes="false"
     inkscape:snap-smooth-nodes="true"
     inkscape:window-width="1366"
     inkscape:window-height="705"
     inkscape:window-x="-8"
     inkscape:window-y="-8"
     inkscape:window-maximized="1"
     fit-margin-top="0"
     fit-margin-left="0"
     fit-margin-right="0"
     fit-margin-bottom="0" />
  <metadata
     id="metadata7">
    <rdf:RDF>
      <cc:Work
         rdf:about="">
        <dc:format>image/svg+xml</dc:format>
        <dc:type
           rdf:resource="http://purl.org/dc/dcmitype/StillImage" />
        <dc:title></dc:title>
      </cc:Work>
    </rdf:RDF>
  </metadata>
  <g
     inkscape:label="Livello 1"
     inkscape:groupmode="layer"
     id="layer1"
     transform="translate(0,-272.48218)">
    <rect
       style="fill:none;fill-opacity:1;stroke:none"
       id="rect3923"
       width="1200"
       height="779.88"
       x="0"
       y="272.48218" />
    <text
       xml:space="preserve"
       style="font-size:106.38040161px;font-style:normal;font-weight:normal;line-height:125%;letter-spacing:0px;word-spacing:-37.5px;fill:#000000;fill-opacity:1;stroke:none;font-family:Sans"
       x="711.98834"
       y="966.79016"
       id="text6467"
       sodipodi:linespacing="125%"><tspan
         sodipodi:role="line"
         id="tspan6469"
         x="711.98834"
         y="966.79016"
         style="font-style:normal;font-variant:normal;font-weight:normal;font-stretch:normal;word-spacing:-37.5px;fill:#000000;fill-opacity:1;font-family:CodiceNero;-inkscape-font-specification:CodiceNero">M</tspan></text>
    <rect
       style="fill:#ffffff;fill-opacity:1;stroke:#000000;stroke-width:0.99999994;stroke-opacity:1"
       id="rect6463"
       width="499"
       height="249"
       x="650.50006"
       y="740.62817" />
    <rect
       style="fill:none;stroke:#000000;stroke-width:8;stroke-miterlimit:4;stroke-opacity:1;stroke-dasharray:none"
       id="rect6465"
       width="484"
       height="234"
       x="658.00006"
       y="748.12817"
       rx="25.999998"
       ry="25.999998" />
    <rect
       y="360.62817"
       x="650.50006"
       height="249"
       width="499"
       id="rect6471"
       style="fill:#ffffff;fill-opacity:1;stroke:#000000;stroke-width:0.99999994;stroke-opacity:1" />
    <rect
       ry="25.999998"
       rx="25.999998"
       y="368.12817"
       x="658.00006"
       height="234"
       width="484"
       id="rect6473"
       style="fill:none;stroke:#000000;stroke-width:8;stroke-miterlimit:4;stroke-opacity:1;stroke-dasharray:none" />
    <rect
       y="740.62817"
       x="50.5"
       height="249"
       width="499"
       id="rect3962"
       style="fill:#ffffff;fill-opacity:1;stroke:#000000;stroke-width:0.99999994;stroke-opacity:1" />
    <rect
       ry="25.999998"
       rx="25.999998"
       y="748.12817"
       x="58"
       height="234"
       width="484"
       id="rect3964"
       style="fill:none;stroke:#000000;stroke-width:8;stroke-miterlimit:4;stroke-opacity:1;stroke-dasharray:none" />
    <text
       sodipodi:linespacing="125%"
       id="text3966-6-3-2"
       y="535.23499"
       x="151.92847"
       style="font-size:106.38040161px;font-style:normal;font-weight:normal;line-height:125%;letter-spacing:0px;word-spacing:-37.5px;fill:#ff0000;fill-opacity:1;stroke:none;font-family:Sans"
       xml:space="preserve"><tspan
         style="font-style:normal;font-variant:normal;font-weight:normal;font-stretch:normal;word-spacing:-37.5px;fill:#ff0000;fill-opacity:1;font-family:CodiceNero;-inkscape-font-specification:CodiceNero"
         y="535.23499"
         x="151.92847"
         id="tspan3968-1-2-1"
         sodipodi:role="line">0 - 24</tspan></text>
    <rect
       style="fill:#ffffff;fill-opacity:1;stroke:#000000;stroke-width:0.99999994;stroke-opacity:1"
       id="rect6443"
       width="499"
       height="249"
       x="50.5"
       y="360.62817" />
    <rect
       style="fill:none;stroke:#000000;stroke-width:8;stroke-miterlimit:4;stroke-opacity:1;stroke-dasharray:none"
       id="rect6445"
       width="484"
       height="234"
       x="58"
       y="368.12817"
       rx="25.999998"
       ry="25.999998" />
    <g
       style="font-size:41.90995789px;font-style:normal;font-weight:normal;line-height:125%;letter-spacing:0px;word-spacing:0px;fill:#000000;fill-opacity:1;stroke:none;font-family:Sans"
       id="text3763-7-4-4">
      <path
         d="m 71.003299,647.61406 3.683492,-0.49113 c 0.422914,2.08732 1.142559,3.59141 2.158936,4.51228 1.016363,0.92087 2.254424,1.38131 3.714188,1.38131 1.732593,0 3.195757,-0.60027 4.389495,-1.80082 1.193708,-1.20054 1.79057,-2.68758 1.790587,-4.46112 -1.7e-5,-1.69167 -0.552541,-3.08662 -1.657572,-4.18486 -1.105062,-1.09821 -2.510245,-1.64732 -4.215552,-1.64734 -0.695782,2e-5 -1.562084,0.13644 -2.598908,0.40928 l 0.409276,-3.23329 c 0.245557,0.0273 0.443374,0.0409 0.593452,0.0409 1.568883,2e-5 2.980887,-0.40926 4.236016,-1.22783 1.255101,-0.81854 1.882658,-2.08047 1.882674,-3.78581 -1.6e-5,-1.35059 -0.457041,-2.46928 -1.371078,-3.35607 -0.914065,-0.88674 -2.094146,-1.33013 -3.540245,-1.33015 -1.432479,2e-5 -2.626202,0.45023 -3.581173,1.35061 -0.954986,0.90043 -1.568901,2.25105 -1.841746,4.05184 l -3.683493,-0.65484 c 0.450202,-2.46928 1.473394,-4.38265 3.069577,-5.74011 1.596173,-1.35741 3.581165,-2.03612 5.95498,-2.03615 1.637095,3e-5 3.144596,0.35132 4.52251,1.05389 1.377882,0.70262 2.431769,1.661 3.161664,2.87517 0.729858,1.21421 1.094796,2.50343 1.094816,3.86766 -2e-5,1.29607 -0.347905,2.47615 -1.043656,3.54025 -0.695789,1.06414 -1.725802,1.90997 -3.090041,2.53752 1.773516,0.40929 3.151413,1.25854 4.133697,2.54774 0.982244,1.28924 1.473375,2.90247 1.473397,4.8397 -2.2e-5,2.61938 -0.955,4.83971 -2.864939,6.66099 -1.909975,1.82128 -4.324707,2.73192 -7.244201,2.73192 -2.633024,0 -4.819243,-0.78445 -6.558663,-2.35334 -1.73943,-1.56889 -2.731926,-3.60163 -2.97749,-6.09823 z"
         style="font-variant:normal;font-stretch:normal;fill:#000000;font-family:Sans;-inkscape-font-specification:Sans"
         id="path7107" />
      <path
         d="m 92.572193,656.04517 8.697137,-31.0232 2.94679,0 -8.676669,31.0232 z"
         style="font-variant:normal;font-stretch:normal;fill:#000000;font-family:Sans;-inkscape-font-specification:Sans"
         id="path7109" />
      <path
         d="m 121.13972,652.85281 c -1.36427,1.15961 -2.67737,1.97817 -3.93929,2.45566 -1.26195,0.47749 -2.61597,0.71623 -4.06207,0.71623 -2.38746,0 -4.22238,-0.58322 -5.50478,-1.74966 -1.2824,-1.16643 -1.9236,-2.65688 -1.9236,-4.47135 0,-1.06411 0.24215,-2.03614 0.72647,-2.9161 0.48431,-0.87993 1.11868,-1.58593 1.90313,-2.118 0.78445,-0.53205 1.6678,-0.93451 2.65007,-1.20737 0.72305,-0.19098 1.81446,-0.37516 3.27422,-0.55252 2.97406,-0.3547 5.16369,-0.77762 6.56889,-1.26876 0.0136,-0.50476 0.0205,-0.82536 0.0205,-0.9618 -2e-5,-1.50067 -0.3479,-2.55797 -1.04366,-3.1719 -0.94135,-0.83218 -2.33971,-1.24828 -4.19509,-1.24829 -1.73261,10e-6 -3.0116,0.30356 -3.83697,0.91064 -0.82538,0.60711 -1.43589,1.68146 -1.83151,3.22305 l -3.60164,-0.49113 c 0.32742,-1.54159 0.8663,-2.78648 1.61664,-3.73465 0.75034,-0.94814 1.83492,-1.67802 3.25376,-2.18963 1.41881,-0.51158 3.06274,-0.76738 4.93178,-0.7674 1.85538,2e-5 3.36288,0.2183 4.52251,0.65484 1.1596,0.43659 2.01226,0.9857 2.55798,1.64734 0.54569,0.66169 0.92768,1.49729 1.14598,2.50683 0.12276,0.62757 0.18415,1.7599 0.18417,3.39699 l 0,4.91133 c -2e-5,3.42429 0.0784,5.59004 0.23534,6.49727 0.15687,0.90723 0.46723,1.77694 0.9311,2.60914 l -3.8472,0 c -0.38201,-0.76398 -0.62758,-1.65757 -0.7367,-2.68076 z m -0.30696,-8.22647 c -1.33698,0.54571 -3.34244,1.00956 -6.01637,1.39154 -1.51433,0.21829 -2.58527,0.46386 -3.21282,0.7367 -0.62757,0.27286 -1.11188,0.6719 -1.45293,1.19713 -0.34107,0.52525 -0.51161,1.10847 -0.5116,1.74966 -10e-6,0.98227 0.37175,1.80083 1.11528,2.45566 0.74351,0.65485 1.8315,0.98227 3.26398,0.98227 1.41882,0 2.68075,-0.31037 3.78581,-0.93111 1.10504,-0.62073 1.91677,-1.46998 2.4352,-2.54774 0.39562,-0.83219 0.59344,-2.06002 0.59345,-3.6835 z"
         style="font-variant:normal;font-stretch:normal;fill:#000000;font-family:Sans;-inkscape-font-specification:Sans"
         id="path7111" />
    </g>
    <g
       style="font-size:41.90995789px;font-style:normal;font-weight:normal;line-height:125%;letter-spacing:0px;word-spacing:0px;fill:#000000;fill-opacity:1;stroke:none;font-family:Sans"
       id="text3919">
      <path
         d="m 71.003299,1027.6142 3.683492,-0.4911 c 0.422914,2.0873 1.142559,3.5914 2.158936,4.5122 1.016363,0.9209 2.254424,1.3813 3.714188,1.3813 1.732593,0 3.195757,-0.6002 4.389495,-1.8008 1.193708,-1.2005 1.79057,-2.6876 1.790587,-4.4611 -1.7e-5,-1.6917 -0.552541,-3.0866 -1.657572,-4.1849 -1.105062,-1.0982 -2.510245,-1.6473 -4.215552,-1.6473 -0.695782,0 -1.562084,0.1364 -2.598908,0.4093 l 0.409276,-3.2333 c 0.245557,0.027 0.443374,0.041 0.593452,0.041 1.568883,0 2.980887,-0.4092 4.236016,-1.2278 1.255101,-0.8185 1.882658,-2.0805 1.882674,-3.7858 -1.6e-5,-1.3506 -0.457041,-2.4693 -1.371078,-3.3561 -0.914065,-0.8867 -2.094146,-1.3301 -3.540245,-1.3301 -1.432479,0 -2.626202,0.4502 -3.581173,1.3506 -0.954986,0.9004 -1.568901,2.251 -1.841746,4.0518 l -3.683493,-0.6548 c 0.450202,-2.4693 1.473394,-4.3827 3.069577,-5.7401 1.596173,-1.3574 3.581165,-2.0362 5.95498,-2.0362 1.637095,0 3.144596,0.3513 4.52251,1.0539 1.377882,0.7026 2.431769,1.661 3.161664,2.8752 0.729858,1.2142 1.094796,2.5034 1.094816,3.8676 -2e-5,1.2961 -0.347905,2.4762 -1.043656,3.5403 -0.695789,1.0641 -1.725802,1.91 -3.090041,2.5375 1.773516,0.4093 3.151413,1.2585 4.133697,2.5477 0.982244,1.2893 1.473375,2.9025 1.473397,4.8397 -2.2e-5,2.6194 -0.955,4.8397 -2.864939,6.661 -1.909975,1.8213 -4.324707,2.732 -7.244201,2.732 -2.633024,0 -4.819243,-0.7845 -6.558663,-2.3534 -1.73943,-1.5689 -2.731926,-3.6016 -2.97749,-6.0982 z"
         style="font-variant:normal;font-stretch:normal;fill:#000000;font-family:Sans;-inkscape-font-specification:Sans"
         id="path7100" />
      <path
         d="m 92.572193,1036.0453 8.697137,-31.0232 2.94679,0 -8.676669,31.0232 z"
         style="font-variant:normal;font-stretch:normal;fill:#000000;font-family:Sans;-inkscape-font-specification:Sans"
         id="path7102" />
      <path
         d="m 110.35527,1035.5337 -3.41746,0 0,-30 3.68349,0 0,10.7026 c 1.55525,-1.9509 3.54024,-2.9263 5.95498,-2.9263 1.33696,0 2.60231,0.2694 3.79605,0.8083 1.1937,0.5389 2.17597,1.296 2.94679,2.2715 0.77079,0.9754 1.37447,2.1521 1.81105,3.53 0.43654,1.3779 0.65482,2.8513 0.65484,4.4202 -2e-5,3.7244 -0.92089,6.603 -2.76262,8.6357 -1.84176,2.0328 -4.05185,3.0491 -6.63028,3.0491 -2.56481,0 -4.57709,-1.0709 -6.03684,-3.2128 z m -0.0409,-11.03 c -1e-5,2.6057 0.3547,4.4884 1.06412,5.648 1.15961,1.8963 2.7285,2.8445 4.70668,2.8445 1.60981,0 3.00135,-0.6992 4.17463,-2.0976 1.17324,-1.3983 1.75987,-3.4822 1.75989,-6.2517 -2e-5,-2.8376 -0.56278,-4.9317 -1.68827,-6.2824 -1.12553,-1.3506 -2.48637,-2.0259 -4.08254,-2.0259 -1.60983,0 -3.00137,0.6992 -4.17462,2.0975 -1.17327,1.3984 -1.7599,3.4209 -1.75989,6.0676 z"
         style="font-variant:normal;font-stretch:normal;fill:#000000;font-family:Sans;-inkscape-font-specification:Sans"
         id="path7104" />
    </g>
    <g
       style="font-size:41.90995789px;font-style:normal;font-weight:normal;line-height:125%;letter-spacing:0px;word-spacing:0px;fill:#000000;fill-opacity:1;stroke:none;font-family:Sans"
       id="text6455">
      <path
         d="m 671.00336,647.61406 3.68349,-0.49113 c 0.42292,2.08732 1.14256,3.59141 2.15894,4.51228 1.01636,0.92087 2.25442,1.38131 3.71419,1.38131 1.73259,0 3.19575,-0.60027 4.38949,-1.80082 1.19371,-1.20054 1.79057,-2.68758 1.79059,-4.46112 -2e-5,-1.69167 -0.55254,-3.08662 -1.65757,-4.18486 -1.10507,-1.09821 -2.51025,-1.64732 -4.21556,-1.64734 -0.69578,2e-5 -1.56208,0.13644 -2.5989,0.40928 l 0.40927,-3.23329 c 0.24556,0.0273 0.44338,0.0409 0.59345,0.0409 1.56889,2e-5 2.98089,-0.40926 4.23602,-1.22783 1.2551,-0.81854 1.88266,-2.08047 1.88267,-3.78581 -1e-5,-1.35059 -0.45704,-2.46928 -1.37107,-3.35607 -0.91407,-0.88674 -2.09415,-1.33013 -3.54025,-1.33015 -1.43248,2e-5 -2.6262,0.45023 -3.58117,1.35061 -0.95499,0.90043 -1.5689,2.25105 -1.84175,4.05184 l -3.68349,-0.65484 c 0.4502,-2.46928 1.47339,-4.38265 3.06958,-5.74011 1.59617,-1.35741 3.58116,-2.03612 5.95498,-2.03615 1.63709,3e-5 3.14459,0.35132 4.52251,1.05389 1.37788,0.70262 2.43176,1.661 3.16166,2.87517 0.72986,1.21421 1.0948,2.50343 1.09482,3.86766 -2e-5,1.29607 -0.34791,2.47615 -1.04366,3.54025 -0.69579,1.06414 -1.7258,1.90997 -3.09004,2.53752 1.77351,0.40929 3.15141,1.25854 4.1337,2.54774 0.98224,1.28924 1.47337,2.90247 1.47339,4.8397 -2e-5,2.61938 -0.955,4.83971 -2.86494,6.66099 -1.90997,1.82128 -4.3247,2.73192 -7.2442,2.73192 -2.63302,0 -4.81924,-0.78445 -6.55866,-2.35334 -1.73943,-1.56889 -2.73193,-3.60163 -2.97749,-6.09823 z"
         style="font-variant:normal;font-stretch:normal;fill:#000000;font-family:Sans;-inkscape-font-specification:Sans"
         id="path7114" />
      <path
         d="m 692.57225,656.04517 8.69714,-31.0232 2.94679,0 -8.67667,31.0232 z"
         style="font-variant:normal;font-stretch:normal;fill:#000000;font-family:Sans;-inkscape-font-specification:Sans"
         id="path7116" />
      <path
         d="m 721.13978,647.57313 3.6221,0.47067 c -0.39565,2.4966 -1.40861,4.45089 -3.03888,5.86289 -1.6303,1.41201 -3.63235,2.11801 -6.00614,2.11801 -2.97409,0 -5.36494,-0.97203 -7.17258,-2.9161 -1.80764,-1.94406 -2.71146,-4.73055 -2.71146,-8.35948 0,-2.34651 0.38882,-4.39971 1.16644,-6.15962 0.77763,-1.75987 1.96112,-3.07978 3.55048,-3.95975 1.58935,-0.87992 3.31855,-1.3199 5.18759,-1.31992 2.36015,2e-5 4.29057,0.59689 5.79126,1.79059 1.50067,1.19374 2.46247,2.88883 2.88541,5.08526 l -3.58118,0.55253 c -0.34108,-1.45974 -0.94476,-2.55797 -1.81105,-3.29468 -0.86631,-0.73668 -1.91338,-1.10503 -3.1412,-1.10505 -1.8554,2e-5 -3.3629,0.66509 -4.52251,1.99523 -1.15962,1.33016 -1.73943,3.43453 -1.73942,6.31309 -10e-6,2.91952 0.55934,5.04094 1.67803,6.36426 1.11868,1.32333 2.57844,1.98499 4.37926,1.98499 1.4461,0 2.65347,-0.44338 3.62211,-1.33015 0.9686,-0.88676 1.58252,-2.25101 1.84174,-4.09277 z"
         style="font-variant:normal;font-stretch:normal;fill:#000000;font-family:Sans;-inkscape-font-specification:Sans"
         id="path7118" />
    </g>
    <g
       style="font-size:41.90995789px;font-style:normal;font-weight:normal;line-height:125%;letter-spacing:0px;word-spacing:0px;fill:#000000;fill-opacity:1;stroke:none;font-family:Sans"
       id="text6459">
      <path
         d="m 671.00336,1027.6142 3.68349,-0.4911 c 0.42292,2.0873 1.14256,3.5914 2.15894,4.5122 1.01636,0.9209 2.25442,1.3813 3.71419,1.3813 1.73259,0 3.19575,-0.6002 4.38949,-1.8008 1.19371,-1.2005 1.79057,-2.6876 1.79059,-4.4611 -2e-5,-1.6917 -0.55254,-3.0866 -1.65757,-4.1849 -1.10507,-1.0982 -2.51025,-1.6473 -4.21556,-1.6473 -0.69578,0 -1.56208,0.1364 -2.5989,0.4093 l 0.40927,-3.2333 c 0.24556,0.027 0.44338,0.041 0.59345,0.041 1.56889,0 2.98089,-0.4092 4.23602,-1.2278 1.2551,-0.8185 1.88266,-2.0805 1.88267,-3.7858 -1e-5,-1.3506 -0.45704,-2.4693 -1.37107,-3.3561 -0.91407,-0.8867 -2.09415,-1.3301 -3.54025,-1.3301 -1.43248,0 -2.6262,0.4502 -3.58117,1.3506 -0.95499,0.9004 -1.5689,2.251 -1.84175,4.0518 l -3.68349,-0.6548 c 0.4502,-2.4693 1.47339,-4.3827 3.06958,-5.7401 1.59617,-1.3574 3.58116,-2.0362 5.95498,-2.0362 1.63709,0 3.14459,0.3513 4.52251,1.0539 1.37788,0.7026 2.43176,1.661 3.16166,2.8752 0.72986,1.2142 1.0948,2.5034 1.09482,3.8676 -2e-5,1.2961 -0.34791,2.4762 -1.04366,3.5403 -0.69579,1.0641 -1.7258,1.91 -3.09004,2.5375 1.77351,0.4093 3.15141,1.2585 4.1337,2.5477 0.98224,1.2893 1.47337,2.9025 1.47339,4.8397 -2e-5,2.6194 -0.955,4.8397 -2.86494,6.661 -1.90997,1.8213 -4.3247,2.732 -7.2442,2.732 -2.63302,0 -4.81924,-0.7845 -6.55866,-2.3534 -1.73943,-1.5689 -2.73193,-3.6016 -2.97749,-6.0982 z"
         style="font-variant:normal;font-stretch:normal;fill:#000000;font-family:Sans;-inkscape-font-specification:Sans"
         id="path7093" />
      <path
         d="m 692.57225,1036.0453 8.69714,-31.0232 2.94679,0 -8.67667,31.0232 z"
         style="font-variant:normal;font-stretch:normal;fill:#000000;font-family:Sans;-inkscape-font-specification:Sans"
         id="path7095" />
      <path
         d="m 721.05793,1035.5337 0,-2.7422 c -1.37792,2.1556 -3.40384,3.2333 -6.07777,3.2333 -1.73261,0 -3.32538,-0.4775 -4.7783,-1.4324 -1.45294,-0.955 -2.57845,-2.2886 -3.37654,-4.0007 -0.79809,-1.7122 -1.19714,-3.6801 -1.19713,-5.9038 -10e-6,-2.1692 0.36152,-4.1371 1.08458,-5.9039 0.72305,-1.7667 1.80764,-3.1207 3.25375,-4.062 1.44611,-0.9414 3.06275,-1.412 4.84993,-1.412 1.30968,0 2.47612,0.2762 3.49932,0.8287 1.02318,0.5526 1.85537,1.2722 2.49659,2.159 l 0,-10.764 3.66303,0 0,30 z M 709.414,1024.6879 c -10e-6,2.783 0.58662,4.8635 1.75989,6.2414 1.17325,1.3779 2.55797,2.0669 4.15416,2.0669 1.60981,0 2.97747,-0.6583 4.103,-1.9748 1.1255,-1.3165 1.68825,-3.3254 1.68827,-6.0266 -2e-5,-2.9741 -0.57301,-5.1569 -1.71897,-6.5484 -1.14598,-1.3915 -2.55799,-2.0873 -4.23601,-2.0873 -1.63712,0 -3.00478,0.6685 -4.103,2.0054 -1.09823,1.337 -1.64735,3.4448 -1.64734,6.3234 z"
         style="font-variant:normal;font-stretch:normal;fill:#000000;font-family:Sans;-inkscape-font-specification:Sans"
         id="path7097" />
    </g>
    <g
       style="font-size:106.38040161px;font-style:normal;font-weight:normal;line-height:125%;letter-spacing:0px;word-spacing:-37.5px;fill:#000000;fill-opacity:1;stroke:none;font-family:Sans"
       id="text6533"
       transform="translate(6.2190494,1.2099609e-5)">
      <path
         d="m 195.74083,447.87348 c 7.94299,8e-5 14.64479,2.23366 20.10541,6.70072 8.01439,6.59474 12.02161,17.55157 12.02168,32.87053 -7e-5,14.25637 -3.93587,24.75329 -11.80742,31.49078 -5.74414,4.89352 -12.51736,7.34028 -20.31967,7.34028 -7.09249,0 -13.65252,-2.44676 -19.68011,-7.34028 -8.58152,-6.95176 -12.87227,-17.44867 -12.87226,-31.49078 -1e-5,-14.53764 3.90116,-25.21095 11.70353,-32.01995 5.67265,-5.03412 12.62225,-7.55122 20.84884,-7.5513 z m -14.57341,39.14597 c -2e-5,6.59686 0.81592,11.5618 2.44784,14.89481 2.26817,4.82212 6.27432,7.23316 12.01844,7.23314 9.92983,2e-5 14.89476,-7.37596 14.89482,-22.12795 -6e-5,-14.75192 -4.89357,-22.1279 -14.68055,-22.12796 -9.78706,6e-5 -14.68057,7.37604 -14.68055,22.12796 z"
         style="font-variant:normal;font-stretch:normal;fill:#000000;font-family:CodiceNero;-inkscape-font-specification:CodiceNero"
         id="path6740"
         inkscape:connector-curvature="0" />
      <path
         d="m 274.35416,484.14632 0,14.46952 -26.06268,0 0,-14.46952 z"
         style="font-variant:normal;font-stretch:normal;fill:#000000;font-family:CodiceNero;-inkscape-font-specification:CodiceNero"
         id="path6742"
         inkscape:connector-curvature="0" />
      <path
         d="m 321.97016,448.61693 c 10.92109,8e-5 18.75806,3.79412 23.51095,11.38213 2.90662,4.68147 4.35995,9.78817 4.36001,15.3201 -6e-5,5.24851 -1.45339,10.10631 -4.36001,14.57341 -2.05832,3.26166 -5.28531,6.73647 -9.68098,10.42443 -3.33309,2.83744 -6.70184,5.67485 -10.10627,8.51225 l 23.50771,0 0,15.95641 -53.93364,0 0,-14.14813 c -10e-6,-0.70988 3.15556,-3.22805 9.46671,-7.55454 8.01443,-5.60338 13.86565,-10.10623 17.55367,-13.50857 6.31111,-5.81547 9.46667,-10.81611 9.46672,-15.00195 -5e-5,-2.69451 -0.85062,-4.92808 -2.55173,-6.70072 -1.98472,-1.98678 -4.715,-2.9802 -8.19085,-2.98026 -3.6166,6e-5 -6.38259,1.2413 -8.29798,3.7237 -1.63192,2.12758 -2.44786,4.89358 -2.44784,8.29799 -2e-5,0.85062 0.0357,1.66657 0.10713,2.44784 l -18.08285,0 c -0.14285,-0.99337 -0.21427,-2.12855 -0.21427,-3.40555 0,-6.73745 1.80828,-12.48154 5.42486,-17.23228 5.1056,-6.73743 13.26182,-10.10618 24.46866,-10.10626 z"
         style="font-variant:normal;font-stretch:normal;fill:#000000;font-family:CodiceNero;-inkscape-font-specification:CodiceNero"
         id="path6744"
         inkscape:connector-curvature="0" />
      <path
         d="m 393.73669,449.57463 21.59554,0 0,47.01866 9.04142,0 0,16.27781 -9.46671,0 0,11.91456 -17.55368,0 0,-12.02169 -37.34092,0 0,-18.93667 z m 3.72371,21.27414 -19.78725,25.74452 19.78725,0 z"
         style="font-variant:normal;font-stretch:normal;fill:#000000;font-family:CodiceNero;-inkscape-font-specification:CodiceNero"
         id="path6746"
         inkscape:connector-curvature="0" />
    </g>
    <g
       style="font-size:78.01229095px;font-style:normal;font-weight:normal;line-height:125%;letter-spacing:0px;word-spacing:-27.5px;fill:#000000;fill-opacity:1;stroke:none;font-family:Sans"
       id="text6371-5"
       transform="translate(9.3945313e-6,1.2099609e-5)">
      <path
         inkscape:connector-curvature="0"
         d="m 140.04923,889.04425 c 2.44422,10e-6 4.31628,0.75391 5.61618,2.26171 1.29987,1.50781 1.94981,3.43225 1.94983,5.77331 -2e-5,2.23631 -0.91026,4.26471 -2.73072,6.08518 -2.0792,1.97602 -4.67976,2.96403 -7.8017,2.96403 -0.67614,0 -1.11817,-0.13015 -1.32608,-0.39044 -0.41584,-0.41584 -0.72772,-1.37845 -0.93563,-2.88785 -0.0524,-0.46662 0.63684,-0.88206 2.06768,-1.24632 1.43082,-0.36425 2.14623,-0.70271 2.14624,-1.01538 -1e-5,-0.15554 -0.10397,-0.33727 -0.31188,-0.54519 -1.40465,0 -2.61406,-0.53329 -3.62825,-1.59987 -1.01421,-1.06656 -1.52131,-2.30138 -1.5213,-3.70444 -1e-5,-1.66492 0.58486,-3.03028 1.75461,-4.09607 1.16973,-1.06577 2.7434,-1.59866 4.72102,-1.59867 z"
         style="font-variant:normal;font-stretch:normal;fill:#000000;font-family:CodiceNero;-inkscape-font-specification:CodiceNero"
         id="path6764" />
      <path
         inkscape:connector-curvature="0"
         d="m 179.33868,843.64104 c 3.79647,0.1556 7.04698,0.77935 9.75154,1.87126 6.60415,2.70459 10.03638,7.61924 10.29673,14.74396 0.15708,3.43308 -0.64841,6.11142 -2.41646,8.03502 -1.35231,1.09201 -2.67918,2.15858 -3.98061,3.19973 4.57734,1.50783 6.86603,5.27814 6.86607,11.31092 -4e-5,4.94086 -1.27454,8.94527 -3.82348,12.01325 -3.53624,4.21392 -9.23098,6.32088 -17.08423,6.32088 -7.43747,0 -13.10602,-2.08077 -17.00567,-6.24232 -2.80929,-3.06798 -4.55199,-7.0208 -5.22812,-11.8585 l 13.26314,-1.87126 c -2e-5,2.39187 0.83205,4.21195 2.49621,5.46024 1.66412,1.24832 3.87464,1.87247 6.63157,1.87246 1.97599,10e-6 3.74409,-0.52018 5.3043,-1.56058 1.56015,-1.04037 2.34024,-2.39224 2.34028,-4.0556 -4e-5,-3.84885 -3.14659,-5.77329 -9.43966,-5.77331 -0.8317,2e-5 -1.79352,0.0262 -2.88547,0.0786 l 0,-11.07761 c 3.4838,4e-5 6.05818,-0.28645 7.72314,-0.85945 2.54737,-0.83164 3.82107,-2.418 3.8211,-4.75911 -3e-5,-3.53616 -2.3403,-5.30426 -7.02082,-5.3043 -5.82491,4e-5 -8.73736,2.49665 -8.73734,7.48982 l -12.87269,-1.32607 c 0.26029,-3.43299 1.14434,-6.39781 2.65215,-8.89447 3.58857,-5.87563 10.038,-8.81346 19.34832,-8.81352 z"
         style="font-variant:normal;font-stretch:normal;fill:#000000;font-family:CodiceNero;-inkscape-font-specification:CodiceNero"
         id="path6766" />
      <path
         inkscape:connector-curvature="0"
         d="m 232.93404,843.64104 c 5.82486,6e-5 10.73951,1.63801 14.74396,4.91386 5.87722,4.83614 8.81585,12.87115 8.81591,24.10505 -6e-5,10.45467 -2.88631,18.15241 -8.65878,23.09324 -4.21237,3.58858 -9.1794,5.38287 -14.90109,5.38287 -5.20116,0 -10.01185,-1.79429 -14.43208,-5.38287 -6.29312,-5.09796 -9.43967,-12.7957 -9.43966,-23.09324 -1e-5,-10.66094 2.86085,-18.48803 8.58259,-23.4813 4.15994,-3.69168 9.25632,-5.53755 15.28915,-5.53761 z m -10.68717,28.70703 c -2e-5,4.83771 0.59834,8.47866 1.79508,10.92287 1.66333,3.53622 4.60117,5.30432 8.81353,5.3043 7.28187,2e-5 10.92282,-5.40903 10.92286,-16.22717 -4e-5,-10.81806 -3.58861,-16.22711 -10.76573,-16.22716 -7.17718,5e-5 -10.76576,5.4091 -10.76574,16.22716 z"
         style="font-variant:normal;font-stretch:normal;fill:#000000;font-family:CodiceNero;-inkscape-font-specification:CodiceNero"
         id="path6768" />
      <path
         inkscape:connector-curvature="0"
         d="m 285.78185,870.24111 0,10.61099 -19.11263,0 0,-10.61099 z"
         style="font-variant:normal;font-stretch:normal;fill:#000000;font-family:CodiceNero;-inkscape-font-specification:CodiceNero"
         id="path6770" />
    </g>
    <g
       style="font-size:99.28837585px;font-style:normal;font-weight:normal;line-height:125%;letter-spacing:0px;word-spacing:-35px;fill:#000000;fill-opacity:1;stroke:none;font-family:Sans"
       id="text6375-6"
       transform="translate(9.3945313e-6,1.2099609e-5)">
      <path
         inkscape:connector-curvature="0"
         d="m 320.91862,829.82508 0,70.19695 -16.48342,0 0,-45.87178 -12.01109,0 0,-14.09878 7.24786,0 c 4.30264,-0.79381 6.45397,-3.54104 6.45399,-8.24171 -2e-5,-0.66048 -0.0334,-1.32204 -0.1,-1.98468 z"
         style="font-variant:normal;font-stretch:normal;text-align:end;text-anchor:end;fill:#000000;font-family:CodiceNero;-inkscape-font-specification:CodiceNero"
         id="path6759" />
      <path
         inkscape:connector-curvature="0"
         d="m 359.56982,828.53428 c 7.54678,8e-5 13.73614,2.48168 18.56809,7.44481 5.957,6.28841 8.93553,15.88656 8.93559,28.79448 -6e-5,10.52437 -1.88677,18.89737 -5.66012,25.11904 -4.69863,7.54682 -11.97981,11.32023 -21.84356,11.32023 -11.9808,0 -20.02252,-4.96421 -24.12519,-14.89265 l 15.28959,-6.45399 c 1.52307,4.03806 4.40262,6.05707 8.63864,6.05705 1.78769,2e-5 3.77338,-0.7282 5.95706,-2.18466 3.11081,-2.05232 4.66622,-4.86521 4.66627,-8.43866 -4.3027,2.4483 -8.63868,3.67243 -13.00797,3.67241 -6.35301,2e-5 -11.74748,-2.3826 -16.18345,-7.14787 -4.3673,-4.56724 -6.55095,-9.96172 -6.55094,-16.18344 -10e-6,-8.27398 2.18414,-14.86027 6.55246,-19.7589 4.36829,-4.89849 10.62279,-7.34777 18.76353,-7.34785 z m -9.23254,25.41598 c -2e-5,6.68634 3.21081,10.02948 9.6325,10.02944 2.91083,4e-5 5.26012,-1.12512 7.04788,-3.37547 1.52306,-1.91898 2.28461,-4.03697 2.28465,-6.35399 -4e-5,-2.84617 -0.84391,-5.29545 -2.5316,-7.34785 -1.68777,-2.05229 -3.92242,-3.07846 -6.70397,-3.07852 -3.17753,6e-5 -5.59348,0.97623 -7.24785,2.92853 -1.65443,1.95241 -2.48163,4.3517 -2.48161,7.19786 z"
         style="font-variant:normal;font-stretch:normal;text-align:end;text-anchor:end;fill:#000000;font-family:CodiceNero;-inkscape-font-specification:CodiceNero"
         id="path6761" />
    </g>
    <g
       style="font-size:78.01229095px;font-style:normal;font-weight:normal;line-height:125%;letter-spacing:0px;word-spacing:-27.5px;fill:#000000;fill-opacity:1;stroke:none;font-family:Sans"
       id="text6379-8"
       transform="translate(9.3945313e-6,1.2099609e-5)">
      <path
         inkscape:connector-curvature="0"
         d="m 391.83474,889.04425 c 2.44421,10e-6 4.31627,0.75391 5.61618,2.26171 1.29986,1.50781 1.94981,3.43225 1.94983,5.77331 -2e-5,2.23631 -0.91026,4.26471 -2.73072,6.08518 -2.0792,1.97602 -4.67976,2.96403 -7.8017,2.96403 -0.67614,0 -1.11817,-0.13015 -1.32608,-0.39044 -0.41584,-0.41584 -0.72772,-1.37845 -0.93563,-2.88785 -0.0524,-0.46662 0.63684,-0.88206 2.06767,-1.24632 1.43082,-0.36425 2.14624,-0.70271 2.14625,-1.01538 -10e-6,-0.15554 -0.10397,-0.33727 -0.31188,-0.54519 -1.40465,0 -2.61407,-0.53329 -3.62826,-1.59987 -1.0142,-1.06656 -1.5213,-2.30138 -1.52129,-3.70444 -10e-6,-1.66492 0.58486,-3.03028 1.75461,-4.09607 1.16973,-1.06577 2.7434,-1.59866 4.72102,-1.59867 z"
         style="font-variant:normal;font-stretch:normal;fill:#000000;font-family:CodiceNero;-inkscape-font-specification:CodiceNero"
         id="path6752" />
      <path
         inkscape:connector-curvature="0"
         d="m 432.76214,843.64104 c 5.82486,6e-5 10.73951,1.63801 14.74396,4.91386 5.87722,4.83614 8.81586,12.87115 8.81591,24.10505 -5e-5,10.45467 -2.88631,18.15241 -8.65878,23.09324 -4.21237,3.58858 -9.17939,5.38287 -14.90109,5.38287 -5.20116,0 -10.01185,-1.79429 -14.43208,-5.38287 -6.29311,-5.09796 -9.43966,-12.7957 -9.43966,-23.09324 0,-10.66094 2.86086,-18.48803 8.58259,-23.4813 4.15994,-3.69168 9.25632,-5.53755 15.28915,-5.53761 z m -10.68717,28.70703 c -1e-5,4.83771 0.59835,8.47866 1.79509,10.92287 1.66332,3.53622 4.60116,5.30432 8.81352,5.3043 7.28187,2e-5 10.92282,-5.40903 10.92286,-16.22717 -4e-5,-10.81806 -3.58861,-16.22711 -10.76573,-16.22716 -7.17718,5e-5 -10.76575,5.4091 -10.76574,16.22716 z"
         style="font-variant:normal;font-stretch:normal;fill:#000000;font-family:CodiceNero;-inkscape-font-specification:CodiceNero"
         id="path6754" />
      <path
         inkscape:connector-curvature="0"
         d="m 489.90005,843.64104 c 5.82486,6e-5 10.73951,1.63801 14.74396,4.91386 5.87722,4.83614 8.81585,12.87115 8.81591,24.10505 -6e-5,10.45467 -2.88631,18.15241 -8.65878,23.09324 -4.21237,3.58858 -9.1794,5.38287 -14.90109,5.38287 -5.20116,0 -10.01185,-1.79429 -14.43208,-5.38287 -6.29311,-5.09796 -9.43966,-12.7957 -9.43966,-23.09324 0,-10.66094 2.86086,-18.48803 8.58259,-23.4813 4.15994,-3.69168 9.25632,-5.53755 15.28915,-5.53761 z m -10.68717,28.70703 c -2e-5,4.83771 0.59834,8.47866 1.79509,10.92287 1.66332,3.53622 4.60116,5.30432 8.81352,5.3043 7.28187,2e-5 10.92282,-5.40903 10.92286,-16.22717 -4e-5,-10.81806 -3.58861,-16.22711 -10.76573,-16.22716 -7.17718,5e-5 -10.76576,5.4091 -10.76574,16.22716 z"
         style="font-variant:normal;font-stretch:normal;fill:#000000;font-family:CodiceNero;-inkscape-font-specification:CodiceNero"
         id="path6756" />
    </g>
    <g
       style="font-size:99.28837585px;font-style:normal;font-weight:normal;line-height:125%;letter-spacing:0px;word-spacing:-35px;fill:#000000;fill-opacity:1;stroke:none;font-family:Sans"
       id="text6621"
       transform="translate(9.3945313e-6,1.2099609e-5)">
      <path
         inkscape:connector-curvature="0"
         d="m 136.58162,829.72509 0,13.20491 -23.92823,57.09203 -17.477278,0 22.937408,-55.40429 -31.573024,0 0,-14.89265 z"
         style="font-variant:normal;font-stretch:normal;text-align:end;text-anchor:end;fill:#000000;font-family:CodiceNero;-inkscape-font-specification:CodiceNero"
         id="path6749" />
    </g>
    <path
       inkscape:connector-curvature="0"
       style="fill:#000000;fill-opacity:1;stroke:none"
       d="m 705.31253,450.12501 0,16.96875 -14,0 0,12 14,0 0,41.03125 12,0 0,-41.03125 14,0 0,-12 -14,0 0,-16.96875 -12,0 z"
       id="rect6633-3" />
    <g
       style="font-size:71.32781982px;font-style:normal;font-weight:normal;line-height:125%;letter-spacing:0px;word-spacing:-10px;fill:#000000;fill-opacity:1;stroke:none;font-family:Sans"
       id="text6371-5-7-1">
      <path
         d="m 806.10931,507.90589 c 2.23479,2e-5 3.94644,0.68932 5.13496,2.06792 1.18849,1.37862 1.78274,3.13816 1.78276,5.27862 -2e-5,2.0447 -0.83226,3.89929 -2.49673,5.56378 -1.90105,1.8067 -4.27878,2.71006 -7.13322,2.71006 -0.61821,0 -1.02236,-0.119 -1.21245,-0.35699 -0.38022,-0.38021 -0.66537,-1.26034 -0.85547,-2.6404 -0.0479,-0.42664 0.58228,-0.80649 1.89051,-1.13953 1.30822,-0.33304 1.96234,-0.6425 1.96235,-0.92838 -10e-6,-0.14222 -0.0951,-0.30837 -0.28516,-0.49848 -1.28429,0 -2.39008,-0.48759 -3.31737,-1.46278 -0.9273,-0.97518 -1.39095,-2.10419 -1.39094,-3.38702 -10e-6,-1.52227 0.53475,-2.77064 1.60426,-3.74511 1.06951,-0.97444 2.50834,-1.46167 4.3165,-1.46169 z"
         style="font-variant:normal;font-stretch:normal;word-spacing:-6px;fill:#000000;font-family:CodiceNeroCondensed;-inkscape-font-specification:CodiceNeroCondensed"
         id="path7048" />
      <path
         d="m 836.03966,466.67821 c 4.94555,5e-5 8.86878,2.87699 11.7697,8.63082 2.47275,4.94417 3.70915,10.62621 3.70918,17.04615 -3e-5,6.51431 -1.14137,12.24424 -3.42403,17.18981 -2.85302,6.0862 -6.84736,9.1293 -11.98302,9.1293 -5.18214,0 -9.22364,-3.0431 -12.12451,-9.1293 -2.33058,-4.992 -3.49587,-10.72194 -3.49587,-17.18981 0,-6.18195 1.1174,-11.67389 3.3522,-16.47584 2.85299,-6.13404 6.91843,-9.20108 12.19635,-9.20113 z m -3.70701,25.67697 c -2e-5,9.9855 1.25959,14.97824 3.77884,14.97823 0.57029,10e-6 1.04627,-0.28514 1.42795,-0.85547 1.37859,-1.9489 2.06789,-6.65648 2.06791,-14.12276 -2e-5,-3.04307 -0.1669,-5.8489 -0.50065,-8.41751 -0.61822,-4.42166 -1.64057,-6.63252 -3.06704,-6.63256 -2.47136,4e-5 -3.70703,5.01673 -3.70701,15.05007 z"
         style="font-variant:normal;font-stretch:normal;word-spacing:-6px;fill:#000000;font-family:CodiceNeroCondensed;-inkscape-font-specification:CodiceNeroCondensed"
         id="path7050" />
      <path
         d="m 873.236,466.67821 c 4.94556,5e-5 8.86879,2.87699 11.7697,8.63082 2.47276,4.94417 3.70915,10.62621 3.70919,17.04615 -4e-5,6.51431 -1.14138,12.24424 -3.42404,17.18981 -2.85302,6.0862 -6.84736,9.1293 -11.98302,9.1293 -5.18213,0 -9.22363,-3.0431 -12.12451,-9.1293 -2.33058,-4.992 -3.49586,-10.72194 -3.49586,-17.18981 0,-6.18195 1.11739,-11.67389 3.3522,-16.47584 2.85298,-6.13404 6.91843,-9.20108 12.19634,-9.20113 z m -3.70701,25.67697 c -10e-6,9.9855 1.2596,14.97824 3.77884,14.97823 0.57029,10e-6 1.04628,-0.28514 1.42795,-0.85547 1.37859,-1.9489 2.0679,-6.65648 2.06792,-14.12276 -2e-5,-3.04307 -0.16691,-5.8489 -0.50066,-8.41751 -0.61821,-4.42166 -1.64056,-6.63252 -3.06704,-6.63256 -2.47136,4e-5 -3.70702,5.01673 -3.70701,15.05007 z"
         style="font-variant:normal;font-stretch:normal;word-spacing:-6px;fill:#000000;font-family:CodiceNeroCondensed;-inkscape-font-specification:CodiceNeroCondensed"
         id="path7052" />
      <path
         d="m 925.33134,490.7139 0,9.70179 -17.47497,0 0,-9.70179 z"
         style="font-variant:normal;font-stretch:normal;word-spacing:-6px;fill:#000000;font-family:CodiceNeroCondensed;-inkscape-font-specification:CodiceNeroCondensed"
         id="path7054" />
    </g>
    <g
       style="font-size:92.72616577px;font-style:normal;font-weight:normal;line-height:125%;letter-spacing:0px;word-spacing:-32.68676376px;fill:#000000;fill-opacity:1;stroke:none;font-family:Sans"
       id="text6621-2-3">
      <path
         d="m 780.26177,451.02937 c 5.25392,7e-5 9.48821,1.91583 12.70287,5.74728 2.9052,3.46182 4.35782,7.57254 4.35786,12.33217 -4e-5,6.8632 -2.65814,11.5927 -7.97432,14.18851 1.91667,0.43205 3.77112,1.66866 5.56335,3.70984 2.78068,3.02789 4.17105,7.04523 4.17109,12.05202 -4e-5,5.62562 -1.83892,10.30842 -5.51665,14.04843 -3.6778,3.74003 -7.98897,5.61004 -12.9335,5.61004 -5.25586,0 -9.64484,-1.76201 -13.16696,-5.28603 -3.71079,-3.70888 -5.56618,-8.59213 -5.56617,-14.64976 -1e-5,-4.94454 1.45355,-8.99394 4.36068,-12.14824 1.66768,-1.85441 3.18161,-2.93538 4.5418,-3.24292 -2.47324,-0.92813 -4.37438,-2.65948 -5.70342,-5.19406 -1.32906,-2.53449 -1.99358,-5.37794 -1.99358,-8.53036 0,-4.9464 1.3913,-9.18069 4.17392,-12.70288 3.21462,-3.95596 7.54229,-5.93397 12.98303,-5.93404 z m 0,26.24053 c 1.91479,4e-5 2.87219,-2.41092 2.87222,-7.23291 -3e-5,-4.45024 -0.95743,-6.67539 -2.87222,-6.67545 -1.97898,6e-5 -2.99959,2.22521 -3.06182,6.67545 -0.0623,4.82199 0.95833,7.23295 3.06182,7.23291 z m -3.06182,20.5838 c -2e-5,5.0691 1.11302,7.60363 3.33913,7.60362 2.16382,1e-5 3.24573,-2.53452 3.24576,-7.60362 -3e-5,-5.00679 -1.05082,-7.51019 -3.15237,-7.51023 -2.28837,4e-5 -3.43254,2.50344 -3.43252,7.51023 z"
         style="font-variant:normal;font-stretch:normal;text-align:end;text-anchor:end;fill:#000000;font-family:CodiceNeroCondensed;-inkscape-font-specification:CodiceNeroCondensed"
         id="path7045" />
    </g>
    <g
       style="font-size:71.32781982px;font-style:normal;font-weight:normal;line-height:125%;letter-spacing:0px;word-spacing:-10px;fill:#000000;fill-opacity:1;stroke:none;font-family:Sans"
       id="text6680-7">
      <path
         d="m 1033.3937,507.90589 c 2.2348,2e-5 3.9465,0.68932 5.135,2.06792 1.1885,1.37862 1.7827,3.13816 1.7828,5.27862 -10e-5,2.0447 -0.8323,3.89929 -2.4968,5.56378 -1.901,1.8067 -4.2788,2.71006 -7.1332,2.71006 -0.6182,0 -1.0224,-0.119 -1.2124,-0.35699 -0.3803,-0.38021 -0.6654,-1.26034 -0.8555,-2.6404 -0.048,-0.42664 0.5823,-0.80649 1.8905,-1.13953 1.3082,-0.33304 1.9623,-0.6425 1.9623,-0.92838 0,-0.14222 -0.095,-0.30837 -0.2851,-0.49848 -1.2843,0 -2.3901,-0.48759 -3.3174,-1.46278 -0.9273,-0.97518 -1.3909,-2.10419 -1.3909,-3.38702 0,-1.52227 0.5347,-2.77064 1.6042,-3.74511 1.0695,-0.97444 2.5084,-1.46167 4.3165,-1.46169 z"
         style="font-variant:normal;font-stretch:normal;word-spacing:-6px;fill:#000000;font-family:CodiceNeroCondensed;-inkscape-font-specification:CodiceNeroCondensed"
         id="path7062" />
      <path
         d="m 1063.3241,466.67821 c 4.9455,5e-5 8.8688,2.87699 11.7697,8.63082 2.4727,4.94417 3.7091,10.62621 3.7092,17.04615 -1e-4,6.51431 -1.1414,12.24424 -3.4241,17.18981 -2.853,6.0862 -6.8473,9.1293 -11.983,9.1293 -5.1821,0 -9.2236,-3.0431 -12.1245,-9.1293 -2.3306,-4.992 -3.4959,-10.72194 -3.4959,-17.18981 0,-6.18195 1.1174,-11.67389 3.3522,-16.47584 2.853,-6.13404 6.9185,-9.20108 12.1964,-9.20113 z m -3.707,25.67697 c 0,9.9855 1.2596,14.97824 3.7788,14.97823 0.5703,10e-6 1.0463,-0.28514 1.428,-0.85547 1.3786,-1.9489 2.0679,-6.65648 2.0679,-14.12276 0,-3.04307 -0.1669,-5.8489 -0.5007,-8.41751 -0.6182,-4.42166 -1.6405,-6.63252 -3.067,-6.63256 -2.4714,4e-5 -3.707,5.01673 -3.707,15.05007 z"
         style="font-variant:normal;font-stretch:normal;word-spacing:-6px;fill:#000000;font-family:CodiceNeroCondensed;-inkscape-font-specification:CodiceNeroCondensed"
         id="path7064" />
      <path
         d="m 1100.5204,466.67821 c 4.9456,5e-5 8.8688,2.87699 11.7697,8.63082 2.4728,4.94417 3.7092,10.62621 3.7092,17.04615 0,6.51431 -1.1414,12.24424 -3.424,17.18981 -2.853,6.0862 -6.8474,9.1293 -11.983,9.1293 -5.1822,0 -9.2237,-3.0431 -12.1246,-9.1293 -2.3305,-4.992 -3.4958,-10.72194 -3.4958,-17.18981 0,-6.18195 1.1174,-11.67389 3.3522,-16.47584 2.853,-6.13404 6.9184,-9.20108 12.1963,-9.20113 z m -3.707,25.67697 c 0,9.9855 1.2596,14.97824 3.7789,14.97823 0.5702,10e-6 1.0462,-0.28514 1.4279,-0.85547 1.3786,-1.9489 2.0679,-6.65648 2.0679,-14.12276 0,-3.04307 -0.1669,-5.8489 -0.5006,-8.41751 -0.6183,-4.42166 -1.6406,-6.63252 -3.0671,-6.63256 -2.4713,4e-5 -3.707,5.01673 -3.707,15.05007 z"
         style="font-variant:normal;font-stretch:normal;word-spacing:-6px;fill:#000000;font-family:CodiceNeroCondensed;-inkscape-font-specification:CodiceNeroCondensed"
         id="path7066" />
    </g>
    <g
       style="font-size:92.72616577px;font-style:normal;font-weight:normal;line-height:125%;letter-spacing:0px;word-spacing:-32.68676376px;fill:#000000;fill-opacity:1;stroke:none;font-family:Sans"
       id="text6684-2">
      <path
         d="m 961.95262,503.79058 14.83653,0 0,13.72159 -32.63866,0 0,-10.93992 c 3.27687,-5.25582 7.94412,-13.16881 14.00174,-23.73901 2.84296,-5.31616 4.32671,-9.51932 4.45124,-12.60949 0.1226,-3.09195 -0.83575,-4.63795 -2.87505,-4.638 -0.37167,5e-5 -0.7735,0.0623 -1.20549,0.18676 -1.29794,0.36981 -2.19404,1.63661 -2.68829,3.80039 -0.37166,1.54511 -0.49523,2.81285 -0.3707,3.80322 l -12.98302,0 c 0,-7.1706 1.94782,-12.70375 5.84349,-16.59947 3.52212,-3.58432 7.94128,-5.22276 13.25751,-4.91533 5.00868,0.30946 9.02696,2.25729 12.05486,5.84349 2.84483,3.27695 4.17388,7.01697 3.98715,11.22007 -0.12266,3.58444 -1.20458,7.6329 -3.24575,12.14541 -1.17345,2.59778 -3.29012,6.44627 -6.35002,11.5455 -3.05996,5.09928 -5.08514,8.82421 -6.07554,11.17479 z"
         style="font-variant:normal;font-stretch:normal;text-align:end;text-anchor:end;fill:#000000;font-family:CodiceNeroCondensed;-inkscape-font-specification:CodiceNeroCondensed"
         id="path7057" />
      <path
         d="m 1005.418,451.40007 c 6.4292,7e-5 11.5294,3.74009 15.3006,11.22007 3.2146,6.42742 4.8219,13.81408 4.822,22.15999 -10e-5,8.46861 -1.4838,15.91752 -4.4513,22.34676 -3.7089,7.91206 -8.9015,11.86809 -15.5779,11.86809 -6.73678,0 -11.99073,-3.95603 -15.76187,-11.86809 -3.02975,-6.48961 -4.54463,-13.93852 -4.54462,-22.34676 -1e-5,-8.03652 1.45261,-15.17605 4.35786,-21.41859 3.70888,-7.97425 8.99396,-11.9614 15.85523,-11.96147 z m -4.8191,33.38006 c 0,12.98116 1.6375,19.47172 4.9125,19.4717 0.7414,2e-5 1.3601,-0.37068 1.8563,-1.1121 1.7922,-2.53357 2.6883,-8.65343 2.6883,-18.3596 0,-3.95599 -0.217,-7.60357 -0.6508,-10.94275 -0.8037,-5.74817 -2.1328,-8.62228 -3.9872,-8.62233 -3.2128,5e-5 -4.8191,6.52174 -4.8191,19.56508 z"
         style="font-variant:normal;font-stretch:normal;text-align:end;text-anchor:end;fill:#000000;font-family:CodiceNeroCondensed;-inkscape-font-specification:CodiceNeroCondensed"
         id="path7059" />
    </g>
    <path
       inkscape:connector-curvature="0"
       style="fill:#000000;fill-opacity:1;stroke:none"
       d="m 698.25003,828.90626 -17.5,17.46875 0.5,22.125 9.9062,-9.90625 11.5,11.5 -22.625,22.625 8.4688,8.5 22.625,-22.65625 22.4687,22.46875 8.4688,-8.5 -22.4375,-22.4375 11.3125,-11.3125 9.9062,9.90625 0.5,-22.125 -17.5,-17.46875 -11.2812,11.3125 9.875,9.875 -11.3125,11.3125 -11.4688,-11.46875 9.875,-9.90625 -11.2812,-11.3125 z"
       id="rect6635-7-9" />
    <g
       style="font-size:71.32781982px;font-style:normal;font-weight:normal;line-height:125%;letter-spacing:0px;word-spacing:-10px;fill:#000000;fill-opacity:1;stroke:none;font-family:Sans"
       id="text6831">
      <path
         d="m 806.10931,887.90583 c 2.23479,2e-5 3.94644,0.68932 5.13496,2.06792 1.18849,1.37862 1.78274,3.13816 1.78276,5.27862 -2e-5,2.0447 -0.83226,3.89929 -2.49673,5.56378 -1.90105,1.8067 -4.27878,2.71005 -7.13322,2.71006 -0.61821,-10e-6 -1.02236,-0.119 -1.21245,-0.35699 -0.38022,-0.38021 -0.66537,-1.26034 -0.85547,-2.6404 -0.0479,-0.42664 0.58228,-0.80649 1.89051,-1.13953 1.30822,-0.33304 1.96234,-0.6425 1.96235,-0.92838 -10e-6,-0.14222 -0.0951,-0.30838 -0.28516,-0.49848 -1.28429,0 -2.39008,-0.48759 -3.31737,-1.46278 -0.9273,-0.97518 -1.39095,-2.10419 -1.39094,-3.38703 -10e-6,-1.52226 0.53475,-2.77063 1.60426,-3.7451 1.06951,-0.97444 2.50834,-1.46167 4.3165,-1.46169 z"
         style="font-variant:normal;font-stretch:normal;word-spacing:-6px;fill:#000000;font-family:CodiceNeroCondensed;-inkscape-font-specification:CodiceNeroCondensed"
         id="path7072" />
      <path
         d="m 836.03966,846.67814 c 4.94555,6e-5 8.86878,2.877 11.7697,8.63083 2.47275,4.94417 3.70915,10.62621 3.70918,17.04614 -3e-5,6.51432 -1.14137,12.24425 -3.42403,17.18982 -2.85302,6.0862 -6.84736,9.1293 -11.98302,9.1293 -5.18214,0 -9.22364,-3.0431 -12.12451,-9.1293 -2.33058,-4.992 -3.49587,-10.72194 -3.49587,-17.18982 0,-6.18194 1.1174,-11.67388 3.3522,-16.47583 2.85299,-6.13404 6.91843,-9.20108 12.19635,-9.20114 z m -3.70701,25.67697 c -2e-5,9.98551 1.25959,14.97825 3.77884,14.97824 0.57029,10e-6 1.04627,-0.28514 1.42795,-0.85547 1.37859,-1.9489 2.06789,-6.65648 2.06791,-14.12277 -2e-5,-3.04306 -0.1669,-5.84889 -0.50065,-8.4175 -0.61822,-4.42167 -1.64057,-6.63252 -3.06704,-6.63256 -2.47136,4e-5 -3.70703,5.01673 -3.70701,15.05006 z"
         style="font-variant:normal;font-stretch:normal;word-spacing:-6px;fill:#000000;font-family:CodiceNeroCondensed;-inkscape-font-specification:CodiceNeroCondensed"
         id="path7074" />
      <path
         d="m 873.236,846.67814 c 4.94556,6e-5 8.86879,2.877 11.7697,8.63083 2.47276,4.94417 3.70915,10.62621 3.70919,17.04614 -4e-5,6.51432 -1.14138,12.24425 -3.42404,17.18982 -2.85302,6.0862 -6.84736,9.1293 -11.98302,9.1293 -5.18213,0 -9.22363,-3.0431 -12.12451,-9.1293 -2.33058,-4.992 -3.49586,-10.72194 -3.49586,-17.18982 0,-6.18194 1.11739,-11.67388 3.3522,-16.47583 2.85298,-6.13404 6.91843,-9.20108 12.19634,-9.20114 z m -3.70701,25.67697 c -10e-6,9.98551 1.2596,14.97825 3.77884,14.97824 0.57029,10e-6 1.04628,-0.28514 1.42795,-0.85547 1.37859,-1.9489 2.0679,-6.65648 2.06792,-14.12277 -2e-5,-3.04306 -0.16691,-5.84889 -0.50066,-8.4175 -0.61821,-4.42167 -1.64056,-6.63252 -3.06704,-6.63256 -2.47136,4e-5 -3.70702,5.01673 -3.70701,15.05006 z"
         style="font-variant:normal;font-stretch:normal;word-spacing:-6px;fill:#000000;font-family:CodiceNeroCondensed;-inkscape-font-specification:CodiceNeroCondensed"
         id="path7076" />
      <path
         d="m 925.33134,870.71384 0,9.70179 -17.47497,0 0,-9.70179 z"
         style="font-variant:normal;font-stretch:normal;word-spacing:-6px;fill:#000000;font-family:CodiceNeroCondensed;-inkscape-font-specification:CodiceNeroCondensed"
         id="path7078" />
    </g>
    <g
       style="font-size:92.72616577px;font-style:normal;font-weight:normal;line-height:125%;letter-spacing:0px;word-spacing:-32.68676376px;fill:#000000;fill-opacity:1;stroke:none;font-family:Sans"
       id="text6835">
      <path
         d="m 780.26177,831.02931 c 5.25392,7e-5 9.48821,1.91583 12.70287,5.74728 2.9052,3.46182 4.35782,7.57254 4.35786,12.33217 -4e-5,6.8632 -2.65814,11.5927 -7.97432,14.18851 1.91667,0.43205 3.77112,1.66866 5.56335,3.70983 2.78068,3.0279 4.17105,7.04524 4.17109,12.05203 -4e-5,5.62561 -1.83892,10.30842 -5.51665,14.04843 -3.6778,3.74003 -7.98897,5.61004 -12.9335,5.61004 -5.25586,0 -9.64484,-1.76201 -13.16696,-5.28603 -3.71079,-3.70888 -5.56618,-8.59213 -5.56617,-14.64976 -1e-5,-4.94454 1.45355,-8.99395 4.36068,-12.14824 1.66768,-1.85441 3.18161,-2.93538 4.5418,-3.24292 -2.47324,-0.92813 -4.37438,-2.65948 -5.70342,-5.19406 -1.32906,-2.53449 -1.99358,-5.37794 -1.99358,-8.53037 0,-4.94639 1.3913,-9.18068 4.17392,-12.70287 3.21462,-3.95596 7.54229,-5.93397 12.98303,-5.93404 z m 0,26.24053 c 1.91479,4e-5 2.87219,-2.41093 2.87222,-7.23291 -3e-5,-4.45025 -0.95743,-6.67539 -2.87222,-6.67545 -1.97898,6e-5 -2.99959,2.2252 -3.06182,6.67545 -0.0623,4.82198 0.95833,7.23295 3.06182,7.23291 z m -3.06182,20.5838 c -2e-5,5.0691 1.11302,7.60363 3.33913,7.60362 2.16382,10e-6 3.24573,-2.53452 3.24576,-7.60362 -3e-5,-5.00679 -1.05082,-7.5102 -3.15237,-7.51023 -2.28837,3e-5 -3.43254,2.50344 -3.43252,7.51023 z"
         style="font-variant:normal;font-stretch:normal;text-align:end;text-anchor:end;fill:#000000;font-family:CodiceNeroCondensed;-inkscape-font-specification:CodiceNeroCondensed"
         id="path7069" />
    </g>
    <g
       style="font-size:71.32781982px;font-style:normal;font-weight:normal;line-height:125%;letter-spacing:0px;word-spacing:-10px;fill:#000000;fill-opacity:1;stroke:none;font-family:Sans"
       id="text6839">
      <path
         d="m 1033.3937,887.90583 c 2.2348,2e-5 3.9465,0.68932 5.135,2.06792 1.1885,1.37862 1.7827,3.13816 1.7828,5.27862 -10e-5,2.0447 -0.8323,3.89929 -2.4968,5.56378 -1.901,1.8067 -4.2788,2.71005 -7.1332,2.71006 -0.6182,-10e-6 -1.0224,-0.119 -1.2124,-0.35699 -0.3803,-0.38021 -0.6654,-1.26034 -0.8555,-2.6404 -0.048,-0.42664 0.5823,-0.80649 1.8905,-1.13953 1.3082,-0.33304 1.9623,-0.6425 1.9623,-0.92838 0,-0.14222 -0.095,-0.30838 -0.2851,-0.49848 -1.2843,0 -2.3901,-0.48759 -3.3174,-1.46278 -0.9273,-0.97518 -1.3909,-2.10419 -1.3909,-3.38703 0,-1.52226 0.5347,-2.77063 1.6042,-3.7451 1.0695,-0.97444 2.5084,-1.46167 4.3165,-1.46169 z"
         style="font-variant:normal;font-stretch:normal;word-spacing:-6px;fill:#000000;font-family:CodiceNeroCondensed;-inkscape-font-specification:CodiceNeroCondensed"
         id="path7086" />
      <path
         d="m 1063.3241,846.67814 c 4.9455,6e-5 8.8688,2.877 11.7697,8.63083 2.4727,4.94417 3.7091,10.62621 3.7092,17.04614 -1e-4,6.51432 -1.1414,12.24425 -3.4241,17.18982 -2.853,6.0862 -6.8473,9.1293 -11.983,9.1293 -5.1821,0 -9.2236,-3.0431 -12.1245,-9.1293 -2.3306,-4.992 -3.4959,-10.72194 -3.4959,-17.18982 0,-6.18194 1.1174,-11.67388 3.3522,-16.47583 2.853,-6.13404 6.9185,-9.20108 12.1964,-9.20114 z m -3.707,25.67697 c 0,9.98551 1.2596,14.97825 3.7788,14.97824 0.5703,10e-6 1.0463,-0.28514 1.428,-0.85547 1.3786,-1.9489 2.0679,-6.65648 2.0679,-14.12277 0,-3.04306 -0.1669,-5.84889 -0.5007,-8.4175 -0.6182,-4.42167 -1.6405,-6.63252 -3.067,-6.63256 -2.4714,4e-5 -3.707,5.01673 -3.707,15.05006 z"
         style="font-variant:normal;font-stretch:normal;word-spacing:-6px;fill:#000000;font-family:CodiceNeroCondensed;-inkscape-font-specification:CodiceNeroCondensed"
         id="path7088" />
      <path
         d="m 1100.5204,846.67814 c 4.9456,6e-5 8.8688,2.877 11.7697,8.63083 2.4728,4.94417 3.7092,10.62621 3.7092,17.04614 0,6.51432 -1.1414,12.24425 -3.424,17.18982 -2.853,6.0862 -6.8474,9.1293 -11.983,9.1293 -5.1822,0 -9.2237,-3.0431 -12.1246,-9.1293 -2.3305,-4.992 -3.4958,-10.72194 -3.4958,-17.18982 0,-6.18194 1.1174,-11.67388 3.3522,-16.47583 2.853,-6.13404 6.9184,-9.20108 12.1963,-9.20114 z m -3.707,25.67697 c 0,9.98551 1.2596,14.97825 3.7789,14.97824 0.5702,10e-6 1.0462,-0.28514 1.4279,-0.85547 1.3786,-1.9489 2.0679,-6.65648 2.0679,-14.12277 0,-3.04306 -0.1669,-5.84889 -0.5006,-8.4175 -0.6183,-4.42167 -1.6406,-6.63252 -3.0671,-6.63256 -2.4713,4e-5 -3.707,5.01673 -3.707,15.05006 z"
         style="font-variant:normal;font-stretch:normal;word-spacing:-6px;fill:#000000;font-family:CodiceNeroCondensed;-inkscape-font-specification:CodiceNeroCondensed"
         id="path7090" />
    </g>
    <g
       style="font-size:92.72616577px;font-style:normal;font-weight:normal;line-height:125%;letter-spacing:0px;word-spacing:-32.68676376px;fill:#000000;fill-opacity:1;stroke:none;font-family:Sans"
       id="text6843">
      <path
         d="m 961.95262,883.79052 14.83653,0 0,13.72159 -32.63866,0 0,-10.93992 c 3.27687,-5.25582 7.94412,-13.16882 14.00174,-23.73901 2.84296,-5.31616 4.32671,-9.51932 4.45124,-12.60949 0.1226,-3.09195 -0.83575,-4.63795 -2.87505,-4.638 -0.37167,5e-5 -0.7735,0.0623 -1.20549,0.18676 -1.29794,0.36981 -2.19404,1.63661 -2.68829,3.80039 -0.37166,1.54511 -0.49523,2.81285 -0.3707,3.80322 l -12.98302,0 c 0,-7.1706 1.94782,-12.70375 5.84349,-16.59947 3.52212,-3.58432 7.94128,-5.22276 13.25751,-4.91533 5.00868,0.30946 9.02696,2.25729 12.05486,5.84349 2.84483,3.27695 4.17388,7.01697 3.98715,11.22007 -0.12266,3.58444 -1.20458,7.6329 -3.24575,12.14541 -1.17345,2.59777 -3.29012,6.44627 -6.35002,11.54549 -3.05996,5.09929 -5.08514,8.82422 -6.07554,11.1748 z"
         style="font-variant:normal;font-stretch:normal;text-align:end;text-anchor:end;fill:#000000;font-family:CodiceNeroCondensed;-inkscape-font-specification:CodiceNeroCondensed"
         id="path7081" />
      <path
         d="m 1005.418,831.40001 c 6.4292,7e-5 11.5294,3.74009 15.3006,11.22007 3.2146,6.42742 4.8219,13.81408 4.822,22.15999 -10e-5,8.46861 -1.4838,15.91752 -4.4513,22.34676 -3.7089,7.91206 -8.9015,11.86809 -15.5779,11.86809 -6.73678,0 -11.99073,-3.95603 -15.76187,-11.86809 -3.02975,-6.48961 -4.54463,-13.93852 -4.54462,-22.34676 -1e-5,-8.03653 1.45261,-15.17605 4.35786,-21.41859 3.70888,-7.97425 8.99396,-11.9614 15.85523,-11.96147 z m -4.8191,33.38006 c 0,12.98116 1.6375,19.47172 4.9125,19.4717 0.7414,2e-5 1.3601,-0.37068 1.8563,-1.1121 1.7922,-2.53357 2.6883,-8.65344 2.6883,-18.3596 0,-3.95599 -0.217,-7.60357 -0.6508,-10.94275 -0.8037,-5.74817 -2.1328,-8.62228 -3.9872,-8.62234 -3.2128,6e-5 -4.8191,6.52175 -4.8191,19.56509 z"
         style="font-variant:normal;font-stretch:normal;text-align:end;text-anchor:end;fill:#000000;font-family:CodiceNeroCondensed;-inkscape-font-specification:CodiceNeroCondensed"
         id="path7083" />
    </g>
  </g>
</svg>
