<?xml version="1.0" encoding="UTF-8" standalone="no"?>
<!-- Created with Inkscape (http://www.inkscape.org/) -->
<svg
   xmlns:dc="http://purl.org/dc/elements/1.1/"
   xmlns:cc="http://creativecommons.org/ns#"
   xmlns:rdf="http://www.w3.org/1999/02/22-rdf-syntax-ns#"
   xmlns:svg="http://www.w3.org/2000/svg"
   xmlns="http://www.w3.org/2000/svg"
   xmlns:sodipodi="http://sodipodi.sourceforge.net/DTD/sodipodi-0.dtd"
   xmlns:inkscape="http://www.inkscape.org/namespaces/inkscape"
   version="1.1"
   width="200"
   height="200"
   id="svg2"
   sodipodi:version="0.32"
   inkscape:version="0.46"
   sodipodi:docname="Italian_traffic_signs_-_icona_aliscafo.svg"
   inkscape:output_extension="org.inkscape.output.svg.inkscape">
  <metadata
     id="metadata3318">
    <rdf:RDF>
      <cc:Work
         rdf:about="">
        <dc:format>image/svg+xml</dc:format>
        <dc:type
           rdf:resource="http://purl.org/dc/dcmitype/StillImage" />
      </cc:Work>
    </rdf:RDF>
  </metadata>
  <sodipodi:namedview
     inkscape:window-height="708"
     inkscape:window-width="1024"
     inkscape:pageshadow="2"
     inkscape:pageopacity="0.0"
     guidetolerance="10.0"
     gridtolerance="10.0"
     objecttolerance="10.0"
     borderopacity="1.0"
     bordercolor="#666666"
     pagecolor="#ffffff"
     id="base"
     showgrid="false"
     inkscape:zoom="2.31"
     inkscape:cx="100"
     inkscape:cy="100"
     inkscape:window-x="-4"
     inkscape:window-y="-4"
     inkscape:current-layer="svg2" />
  <defs
     id="defs4">
    <inkscape:perspective
       sodipodi:type="inkscape:persp3d"
       inkscape:vp_x="0 : 100 : 1"
       inkscape:vp_y="0 : 1000 : 0"
       inkscape:vp_z="200 : 100 : 1"
       inkscape:persp3d-origin="100 : 66.666667 : 1"
       id="perspective3320" />
  </defs>
  <rect
     style="fill:#ffffff;fill-opacity:1;stroke:none"
     id="rect2881"
     width="200.9709"
     height="200.61583"
     x="-0.052558668"
     y="0.1249854"
     rx="0"
     ry="0" />
  <rect
     width="194.80612"
     height="194.80614"
     ry="18.580454"
     x="3.7447071"
     y="3.2950535"
     id="rect4614"
     style="fill:none;stroke:#000000;stroke-width:3;stroke-miterlimit:4;stroke-dasharray:none;stroke-opacity:1"
     rx="18.580454" />
  <path
     d="m 19.418118,132.00623 c -1.07573,-0.28643 -9.4565785,-3.5489 -10.016019,-3.899 -0.2387133,-0.14939 -0.2499078,-0.27962 -0.227384,-2.64531 0.021238,-2.23068 0.048507,-2.52158 0.2634892,-2.81089 0.4925444,-0.66282 1.1270958,-0.52798 4.6594988,0.99018 4.140048,1.77931 5.571786,2.16595 8.046402,2.17288 2.74491,0.008 4.381934,-0.51945 10.231265,-3.29461 1.864225,-0.88447 3.914816,-1.78345 4.556872,-1.99775 2.387961,-0.79703 5.860821,-0.79772 8.244853,-0.002 0.623086,0.20806 2.686403,1.13327 4.58515,2.05601 5.954731,2.89384 7.042217,3.26092 9.666349,3.26291 2.594817,0.002 3.749711,-0.39179 9.917423,-3.38132 5.056052,-2.45071 4.85368,-2.39071 8.034369,-2.38186 4.035128,0.0112 5.027462,0.27783 10.105728,2.71503 5.036513,2.41716 6.560356,2.95821 8.667187,3.07737 2.493869,0.14104 3.945869,-0.34053 9.592999,-3.18157 2.24097,-1.12743 4.44415,-2.1777 4.89594,-2.33393 0.77013,-0.26632 1.00964,-0.28316 3.83433,-0.26956 4.58834,0.0221 4.98589,0.1313 10.49816,2.88383 5.25595,2.62454 5.83892,2.8113 8.77951,2.81272 2.75112,0.001 3.83161,-0.35339 8.31156,-2.72857 2.76203,-1.46438 4.4016,-2.23302 5.30146,-2.48536 0.5764,-0.16163 1.48322,-0.22598 3.86279,-0.27409 4.74008,-0.0958 5.26747,0.0257 9.94669,2.29255 3.25693,1.57782 5.06097,2.33772 6.77859,2.8553 1.12263,0.33828 1.44122,0.37964 3.01289,0.39105 2.20452,0.016 2.94137,-0.19061 5.33532,-1.4961 2.66605,-1.45386 4.03484,-1.92325 6.21409,-2.13092 0.48331,-0.0461 0.97761,-0.11125 1.09844,-0.14487 0.20493,-0.057 0.21969,0.14612 0.21969,3.02298 0,1.69626 -0.0466,3.08411 -0.10358,3.08411 -0.057,0 -0.72074,0.11145 -1.47506,0.24766 -1.87056,0.33779 -3.23623,0.82346 -5.69068,2.02374 -2.82095,1.37952 -3.56112,1.62965 -5.06678,1.71227 -1.4963,0.0821 -2.70681,-0.0994 -4.33359,-0.64992 -1.65335,-0.55948 -2.31253,-0.84537 -6.24081,-2.70678 -1.86422,-0.88335 -3.86572,-1.75528 -4.44779,-1.93762 -1.44605,-0.45299 -3.82208,-0.62793 -6.23178,-0.45884 -2.37541,0.1667 -3.14051,0.42928 -7.5568,2.59353 -5.52232,2.70626 -6.96212,3.21422 -9.10969,3.21385 -2.23543,-3.7e-4 -3.40466,-0.40565 -8.89538,-3.08333 -3.65235,-1.78116 -4.4463,-2.13113 -5.46825,-2.41035 -0.98429,-0.26893 -3.85296,-0.40905 -6.06176,-0.29608 -2.49077,0.12739 -3.26349,0.40125 -7.90421,2.80137 -5.19484,2.6867 -5.93899,2.96769 -7.859579,2.96769 -1.788543,0 -3.836347,-0.45335 -6.036128,-1.33628 -0.608281,-0.24415 -2.574748,-1.14133 -4.369927,-1.99373 -4.223675,-2.00552 -5.073541,-2.29069 -7.313069,-2.45389 -2.00266,-0.14595 -4.212531,-0.0595 -5.554473,0.21734 -1.061589,0.21898 -2.400121,0.81747 -5.791517,2.58951 -5.102873,2.66631 -5.094276,2.66374 -8.896313,2.66134 l -2.950119,-0.002 -1.149106,-0.39968 c -0.632007,-0.21983 -2.891673,-1.2713 -5.02148,-2.33662 -2.129805,-1.06531 -4.352554,-2.08956 -4.939439,-2.2761 -1.306764,-0.41536 -3.576145,-0.57884 -6.06761,-0.43708 -2.206708,0.12555 -3.093988,0.4265 -7.364849,2.49799 -3.735039,1.8116 -5.008447,2.35594 -6.465156,2.76362 -0.552363,0.15458 -1.173771,0.33499 -1.380907,0.4009 -0.207136,0.0659 -1.082757,0.14592 -1.945823,0.17781 -1.382211,0.0511 -1.707065,0.0213 -2.725987,-0.25003 z"
     id="path3727"
     style="fill:#0060a8;fill-opacity:1;stroke:#ff0000;stroke-width:0.0376611;stroke-linecap:butt;stroke-linejoin:miter;stroke-miterlimit:4;stroke-opacity:1;stroke-dasharray:none;stroke-dashoffset:0" />
  <path
     d="m 20.323818,142.80171 c -0.06904,-0.0266 -0.549224,-0.14465 -1.067064,-0.26226 -1.268274,-0.28804 -2.828298,-0.8781 -5.897735,-2.23075 -1.414053,-0.62315 -2.809875,-1.15992 -3.101828,-1.19283 -0.8172535,-0.0921 -0.9352276,-0.30949 -1.0525464,-1.9394 -0.056044,-0.77863 -0.1051584,-2.1587 -0.1091431,-3.06684 l -0.00725,-1.65117 0.8473748,0.25222 c 0.4660557,0.13872 2.0619457,0.73217 3.5464207,1.31878 5.138568,2.03058 5.975889,2.22919 9.352506,2.21842 2.80884,-0.009 3.166645,-0.12605 8.975896,-2.93745 5.308393,-2.56901 6.296474,-2.88496 9.022242,-2.88496 1.590602,0 2.934951,0.18689 4.216734,0.58621 0.55521,0.17297 2.760715,1.1627 4.901121,2.1994 2.140405,1.0367 4.3807,2.07565 4.978433,2.30879 2.474942,0.96529 5.800194,1.07711 8.324213,0.2799 0.480965,-0.15191 2.544235,-1.10127 4.585043,-2.10968 2.04081,-1.00842 4.29118,-2.04203 5.000824,-2.29692 3.415086,-1.22662 6.265299,-1.28398 9.667473,-0.19455 1.568603,0.50229 2.595794,0.95129 6.402075,2.79843 3.924922,1.90472 4.813009,2.18795 7.176787,2.28884 3.172429,0.13541 4.129426,-0.15568 9.618286,-2.92556 2.21754,-1.11905 4.49462,-2.18082 5.06018,-2.35948 1.39966,-0.44215 3.12087,-0.61997 5.09362,-0.52621 2.71345,0.12896 3.34239,0.33349 8.53651,2.77613 1.93327,0.90915 3.96697,1.82898 4.51934,2.04406 2.34775,0.91417 4.03853,1.2104 5.84296,1.02371 1.8603,-0.19246 3.09945,-0.66021 8.21718,-3.10176 3.04432,-1.45238 5.10769,-2.28881 6.60321,-2.67675 0.90363,-0.2344 1.27014,-0.26356 2.56099,-0.20379 2.77643,0.12857 5.08529,0.88615 10.23636,3.35872 3.48973,1.67511 5.23851,2.30971 7.13588,2.58948 2.42026,0.35687 4.17124,-0.0496 7.70556,-1.7887 2.26628,-1.11515 3.82844,-1.68291 5.30216,-1.92701 0.48331,-0.0801 0.97761,-0.17517 1.09844,-0.21135 0.20545,-0.0615 0.21969,0.15466 0.21969,3.33218 l 0,3.39796 -1.20547,0 c -1.59145,0 -2.73496,0.38007 -5.88737,1.95682 -2.86267,1.43183 -3.39798,1.56859 -6.13608,1.56765 -3.05107,-0.001 -3.41288,-0.11323 -8.40336,-2.60573 -1.98975,-0.99379 -4.02345,-1.96763 -4.51933,-2.1641 -1.66398,-0.65928 -4.04237,-1.01431 -6.79507,-1.01431 -2.10133,0 -2.80071,0.22409 -6.90091,2.21104 -4.15748,2.01472 -6.02375,2.83338 -7.47986,3.28116 -0.92886,0.28564 -1.2947,0.32883 -2.82458,0.33347 -1.45733,0.004 -1.92582,-0.0429 -2.74291,-0.27693 -1.4641,-0.41938 -3.37217,-1.2379 -7.2285,-3.10085 -1.90358,-0.9196 -3.94123,-1.83075 -4.52811,-2.02478 -1.02436,-0.33868 -1.16252,-0.35244 -3.45227,-0.34391 -2.53284,0.009 -4.17675,0.20999 -5.71194,0.69685 -0.44879,0.14232 -2.56723,1.15018 -4.70764,2.23968 -2.1404,1.0895 -4.31533,2.13186 -4.83317,2.31636 -2.04858,0.72989 -5.566177,0.71955 -7.819898,-0.023 -0.566754,-0.18672 -2.561693,-1.11669 -4.433196,-2.0666 -3.740435,-1.89851 -5.090657,-2.48542 -6.399467,-2.78171 -1.287936,-0.29157 -4.018109,-0.49902 -5.681372,-0.43169 -2.091185,0.0847 -2.229925,0.13897 -8.123111,3.18049 -3.168099,1.63508 -4.194149,2.08208 -5.407837,2.3559 -2.035285,0.45919 -5.318758,0.37157 -7.140135,-0.19053 -0.483318,-0.14916 -2.75125,-1.22094 -5.039852,-2.38173 -2.288601,-1.1608 -4.689496,-2.2916 -5.335322,-2.5129 -1.122803,-0.38473 -1.276891,-0.40464 -3.518269,-0.45469 -3.557888,-0.0795 -4.395389,0.14419 -8.925399,2.38345 -5.585408,2.76096 -7.727986,3.47932 -10.636769,3.56627 -0.863067,0.0258 -1.625704,0.0251 -1.69475,-0.002 l 0,1e-5 z"
     id="path3729"
     style="fill:#0060a8;fill-opacity:1;stroke:#ff0000;stroke-width:0.0376611;stroke-linecap:butt;stroke-linejoin:miter;stroke-miterlimit:4;stroke-opacity:1;stroke-dasharray:none;stroke-dashoffset:0" />
  <path
     d="m 131.66206,120.25214 c -0.94269,-0.33634 -2.31378,-1.07684 -3.04687,-1.64555 -4.02727,-3.12425 -11.78188,-4.49854 -17.41377,-3.08612 -3.71468,0.9316 -4.11131,0.91688 -15.080128,-0.55985 -6.195803,-0.83414 -11.459746,-1.63692 -11.697652,-1.78395 -0.237899,-0.14703 -0.978513,-2.12093 -1.645815,-4.38644 -0.667296,-2.26551 -1.414669,-4.33162 -1.66083,-4.59137 -0.363146,-0.3832 -19.445112,-2.58513 -22.980443,-2.65178 -0.83037,-0.0157 -0.716853,0.54859 0.802334,3.98808 0.973253,2.20347 1.643194,4.13267 1.488754,4.28711 -0.154441,0.15444 -4.085192,-0.23437 -8.735003,-0.86403 -4.649812,-0.62965 -8.788341,-1.14482 -9.196731,-1.14482 -0.70299,0 -19.837432,-26.305247 -19.430468,-26.712208 0.408526,-0.408526 153.441432,20.168998 153.443472,20.632738 0.002,0.43593 -1.66442,2.79788 -9.81438,13.91138 l -2.18216,2.97566 -2.74621,-1.37934 c -6.46163,-3.24549 -13.25215,-2.87476 -21.29052,1.16235 -5.34198,2.6829 -6.05496,2.83241 -8.81358,1.84814 z M 107.49384,88.603458 C 74.404908,84.15799 47.232969,80.421615 47.111751,80.300397 46.990533,80.179179 51.906185,76.921575 58.035422,73.06128 l 11.144067,-7.018716 49.122681,6.820227 c 27.01747,3.751126 49.24593,6.943484 49.39658,7.094131 0.15065,0.150647 0.20255,3.976343 0.11534,8.501551 l -0.15856,8.227646 -60.16169,-8.082661 z m 58.45674,1.897171 c 0.69415,-6.481911 0.58824,-6.618584 -5.77975,-7.458066 l -2.91411,-0.384164 -0.84029,5.121923 -0.84028,5.121917 3.18306,0.345395 c 1.75069,0.18996 3.69727,0.424809 4.32572,0.521877 0.62846,0.09707 1.44356,0.211504 1.81134,0.254297 0.41336,0.0481 0.81592,-1.297131 1.05431,-3.523179 z m -13.79052,0.601525 c 0.19209,-0.707015 0.51346,-2.992669 0.71418,-5.079234 0.32704,-3.399772 0.25319,-3.826061 -0.7111,-4.104833 -2.86904,-0.829433 -20.32846,-2.784941 -20.77423,-2.326784 -0.6675,0.686058 -1.7804,8.975842 -1.27079,9.46589 0.34761,0.33426 13.16626,2.3175 18.96935,2.934851 1.0998,0.116996 2.16248,0.253869 2.3615,0.304157 0.19902,0.05028 0.51901,-0.487032 0.71109,-1.194047 z m -25.32103,-7.572868 c 0.3976,-2.672492 0.61705,-4.957987 0.48767,-5.078885 -0.3839,-0.358706 -21.29536,-3.142173 -21.70489,-2.889071 -0.20667,0.127726 -0.54716,1.587758 -0.75665,3.244515 -0.2095,1.656751 -0.52428,3.822188 -0.69952,4.812071 -0.38021,2.147639 -0.61081,2.072305 11.09046,3.623081 11.97196,1.586649 10.73573,1.9828 11.58293,-3.711711 z m -25.82659,-3.106699 c 0.95755,-5.798213 1.11995,-5.481836 -3.201397,-6.236528 -3.967167,-0.692834 -16.405266,-2.366125 -17.588172,-2.366125 -0.60389,0 -2.348957,9.533724 -1.838495,10.04418 0.332128,0.332134 16.499078,2.387184 19.34294,2.458771 l 2.630064,0.0662 0.65506,-3.966498 z M 75.032434,79.389991 c 0.16941,-0.864129 0.473343,-3.023738 0.675415,-4.799136 0.412205,-3.621664 0.532795,-3.507839 -4.429723,-4.181163 -2.613098,-0.354553 -2.841502,-0.255782 -9.13738,3.95125 -3.55151,2.373193 -6.330458,4.328873 -6.175446,4.345961 0.155017,0.01708 3.881193,0.503903 8.280397,1.08181 10.912943,1.433586 10.42398,1.451657 10.786737,-0.398722 z M 119.05799,69.548786 C 94.528947,66.176425 74.152628,63.314858 73.777279,63.189744 c -0.375343,-0.125115 1.954234,-1.608435 5.176839,-3.296272 l 5.85928,-3.068792 19.340872,2.653559 c 10.63747,1.459456 21.24833,2.937256 23.57966,3.283999 l 4.23881,0.630446 -0.34736,1.851556 -0.34735,1.851561 4.19129,0.606199 c 2.30521,0.333408 10.55442,1.445544 18.33158,2.471409 l 14.1403,1.865217 0,1.890292 c 0,1.815796 -0.0844,1.887555 -2.14247,1.820858 -1.17836,-0.03816 -22.21169,-2.82863 -46.74074,-6.20099 z"
     id="path4476"
     style="fill:#000000" />
  <path
     d="m 60.561802,103.91954 18.361663,1.79476 7.040937,22.08921 c -0.117788,9.87508 -10.521328,5.97374 -13.115473,1.51864 L 60.561802,103.91954 z"
     id="path4478"
     style="fill:#000000;fill-opacity:1;stroke:#ffffff;stroke-width:2.41302633;stroke-linecap:butt;stroke-linejoin:round;stroke-miterlimit:4;stroke-opacity:1;stroke-dasharray:none" />
</svg>
