<?xml version="1.0" encoding="UTF-8" standalone="no"?>
<!-- Created with Inkscape (http://www.inkscape.org/) -->

<svg
   width="1018.6458mm"
   height="238.125mm"
   viewBox="0 0 1018.6458 238.12501"
   version="1.1"
   id="svg11037"
   inkscape:version="1.2.1 (9c6d41e410, 2022-07-14)"
   sodipodi:docname="Frecce direzionali di corsia con funzione di direzioni (figura II 25).svg"
   xmlns:inkscape="http://www.inkscape.org/namespaces/inkscape"
   xmlns:sodipodi="http://sodipodi.sourceforge.net/DTD/sodipodi-0.dtd"
   xmlns="http://www.w3.org/2000/svg"
   xmlns:svg="http://www.w3.org/2000/svg">
  <sodipodi:namedview
     id="namedview11039"
     pagecolor="#ffffff"
     bordercolor="#000000"
     borderopacity="0.25"
     inkscape:showpageshadow="2"
     inkscape:pageopacity="0.0"
     inkscape:pagecheckerboard="0"
     inkscape:deskcolor="#d1d1d1"
     inkscape:document-units="mm"
     showgrid="false"
     inkscape:zoom="0.19064254"
     inkscape:cx="1990.6365"
     inkscape:cy="291.12076"
     inkscape:window-width="1920"
     inkscape:window-height="991"
     inkscape:window-x="-9"
     inkscape:window-y="-9"
     inkscape:window-maximized="1"
     inkscape:current-layer="layer1" />
  <defs
     id="defs11034" />
  <g
     inkscape:label="Livello 1"
     inkscape:groupmode="layer"
     id="layer1"
     transform="translate(420.84747,14.279764)">
    <g
       id="g11968">
      <rect
         style="fill:#ffffff;fill-rule:evenodd;stroke-width:4.18625"
         id="rect11961"
         width="1018.6458"
         height="238.125"
         x="-420.84747"
         y="-14.279764" />
      <g
         id="g3473"
         transform="translate(2797.3517,5313.5572)">
        <path
           id="path1645-1-9-7-1-8-1-4-7-7"
           style="fill:#000000;stroke-width:19.7595;paint-order:fill markers stroke"
           d="m -2731.9318,-5267.2094 4.2622,38.3542 c 0.6037,7.0288 -0.7595,8.9355 -9.7368,5.9164 l -43.647,-12.9315 c -10.0253,-3.5335 -14.5077,3.313 -7.7406,9.3871 l 80.0225,80.177 80.022,-80.1765 c 6.7671,-6.0741 2.2847,-12.9211 -7.7406,-9.3876 l -43.647,12.9321 c -8.9772,3.0191 -10.3405,1.1118 -9.7368,-5.917 l 4.2622,-38.3542 z"
           sodipodi:nodetypes="cccccccccccc" />
        <path
           id="path1645-1-9-7-1-8-1-4-7-7-7"
           style="fill:#000000;stroke-width:19.7595;paint-order:fill markers stroke"
           d="m -3094.2984,-5251.574 -24.1067,30.1344 c -4.5433,5.397 -6.8554,5.7813 -11.0685,-2.7015 l -21.7191,-40.007 c -4.5904,-9.5875 -12.6012,-7.9158 -12.1112,1.1643 l -0.1092,113.2781 113.2774,-0.1092 c 9.0801,0.49 10.7522,-7.5211 1.1646,-12.1115 l -40.0074,-21.7187 c -8.4827,-4.213 -8.098,-6.5257 -2.701,-11.0689 l 30.1343,-24.1067 z"
           sodipodi:nodetypes="cccccccccccc" />
        <path
           id="path1645-1-9-7-1-8-1-4-7-7-7-6"
           style="fill:#000000;stroke-width:19.7595;paint-order:fill markers stroke"
           d="m -2323.4541,-5252.2103 24.1067,30.1344 c 4.5433,5.397 6.8554,5.7813 11.0685,-2.7015 l 21.7191,-40.007 c 4.5904,-9.5875 12.6012,-7.9158 12.1112,1.1643 l 0.1092,113.2781 -113.2774,-0.1092 c -9.0801,0.49 -10.7522,-7.5211 -1.1646,-12.1115 l 40.0074,-21.7187 c 8.4827,-4.213 8.098,-6.5257 2.701,-11.0689 l -30.1343,-24.1067 z"
           sodipodi:nodetypes="cccccccccccc" />
      </g>
    </g>
  </g>
</svg>
