<?xml version="1.0" encoding="UTF-8" standalone="no"?>
<!-- Created with Inkscape (http://www.inkscape.org/) -->

<svg
   xmlns:dc="http://purl.org/dc/elements/1.1/"
   xmlns:cc="http://creativecommons.org/ns#"
   xmlns:rdf="http://www.w3.org/1999/02/22-rdf-syntax-ns#"
   xmlns:svg="http://www.w3.org/2000/svg"
   xmlns="http://www.w3.org/2000/svg"
   xmlns:sodipodi="http://sodipodi.sourceforge.net/DTD/sodipodi-0.dtd"
   xmlns:inkscape="http://www.inkscape.org/namespaces/inkscape"
   width="219"
   height="260"
   id="svg2994"
   version="1.1"
   inkscape:version="0.48.5 r10040"
   sodipodi:docname="CANC Ferriere.svg"
   inkscape:export-filename="C:\Users\utente\Desktop\CANC drittok.png"
   inkscape:export-xdpi="90"
   inkscape:export-ydpi="90">
  <defs
     id="defs2996" />
  <sodipodi:namedview
     id="base"
     pagecolor="#ffffff"
     bordercolor="#666666"
     borderopacity="1.0"
     inkscape:pageopacity="0.0"
     inkscape:pageshadow="2"
     inkscape:zoom="1"
     inkscape:cx="47.483702"
     inkscape:cy="211.56157"
     inkscape:document-units="px"
     inkscape:current-layer="layer1"
     showgrid="false"
     inkscape:window-width="1366"
     inkscape:window-height="705"
     inkscape:window-x="-8"
     inkscape:window-y="-8"
     inkscape:window-maximized="1"
     fit-margin-top="0"
     fit-margin-left="0"
     fit-margin-right="0"
     fit-margin-bottom="0"
     inkscape:object-nodes="true"
     inkscape:object-paths="false" />
  <metadata
     id="metadata2999">
    <rdf:RDF>
      <cc:Work
         rdf:about="">
        <dc:format>image/svg+xml</dc:format>
        <dc:type
           rdf:resource="http://purl.org/dc/dcmitype/StillImage" />
        <dc:title></dc:title>
      </cc:Work>
    </rdf:RDF>
  </metadata>
  <g
     inkscape:label="Livello 1"
     inkscape:groupmode="layer"
     id="layer1"
     transform="translate(-237.85715,-560.93347)">
    <path
       id="path6820"
       transform="translate(237.85714,320.9335)"
       style="fill:#000000;fill-opacity:1;fill-rule:evenodd;stroke:none"
       d="M 971.99996,-12 1072,588 1172,-12 z m 40.99224,99.99609 118.0078,0 -59.023,353.98979 z"
       inkscape:connector-curvature="0" />
    <rect
       inkscape:export-ydpi="90"
       inkscape:export-xdpi="90"
       inkscape:export-filename="C:\Users\utente\Desktop\CANCdx.png"
       y="560.93347"
       x="237.85715"
       height="260"
       width="219"
       id="rect5153"
       style="fill:#989898;fill-opacity:1;stroke-width:5.1999898;stroke-linecap:round;stroke-linejoin:round;stroke-miterlimit:4;stroke-dasharray:15.6, 15.6;stroke-dashoffset:0" />
    <g
       transform="matrix(0.63415731,0,0,1.4016851,-29.999997,112.32596)"
       style="font-size:154.046875px;font-style:normal;font-weight:normal;line-height:125%;letter-spacing:0px;word-spacing:0px;fill:#ffffff;fill-opacity:1;stroke:none;font-family:Sans"
       id="text7427">
      <path
         d="m 577.63049,357.72275 0,20.18198 -48.67558,0 -1.69711,14.94022 c 6.0613,-2.97731 12.32634,-4.466 18.79515,-4.46608 10.47407,8e-5 19.40858,3.64581 26.80354,10.93719 7.3948,7.29153 11.09224,16.48303 11.09233,27.57452 -9e-5,10.68102 -3.02919,20.07702 -9.0873,28.18803 -7.39653,9.85986 -17.82051,14.78978 -31.27197,14.78977 -14.99352,10e-6 -26.29035,-4.51778 -33.8905,-13.55338 -3.28767,-3.80163 -6.11148,-9.3474 -8.47145,-16.63732 l 21.25855,-6.47347 c 1.64223,4.5194 4.13227,8.19098 7.47011,11.01477 3.33776,2.82384 7.16292,4.23575 11.47547,4.23572 6.05815,3e-5 10.73107,-2.0528 14.01879,-6.15849 3.18418,-3.80162 4.77629,-8.78325 4.77636,-14.94491 -7e-5,-5.85444 -1.95104,-10.57907 -5.85292,-14.17393 -3.49456,-3.38789 -7.75692,-5.08187 -12.78709,-5.08193 -7.08622,6e-5 -12.58028,3.08087 -16.48219,9.24243 l -22.95565,-3.23438 6.46876,-56.38074 z"
         style="font-variant:normal;font-stretch:normal;fill:#ffffff;font-family:CodiceBianco;-inkscape-font-specification:CodiceBianco"
         id="path8039"
         inkscape:connector-curvature="0" />
      <path
         d="m 688.87821,412.56152 c -10e-5,20.95144 -5.64929,36.30534 -16.9476,46.06174 -8.11424,6.98277 -17.76723,10.47414 -28.95901,10.47414 -10.98817,0 -20.59101,-3.59323 -28.80857,-10.77971 -11.19499,-9.96325 -16.79247,-25.26544 -16.79246,-45.90661 -1e-5,-21.87588 5.90618,-37.58863 17.71859,-47.13831 7.80385,-6.36836 17.09799,-9.55259 27.88244,-9.55271 10.68092,1.2e-4 20.02678,3.33793 28.03759,10.01343 11.91259,9.85995 17.86892,25.46927 17.86902,46.82803 z m -45.75617,35.58761 c 15.20027,2e-5 22.80044,-12.22135 22.80052,-36.66417 -8e-5,-23.51814 -7.44511,-35.27724 -22.33511,-35.27734 -15.50752,10e-5 -23.26126,11.81091 -23.26123,35.43247 -3e-5,24.3394 7.59857,36.50906 22.79582,36.50904 z"
         style="font-variant:normal;font-stretch:normal;fill:#ffffff;font-family:CodiceBianco;-inkscape-font-specification:CodiceBianco"
         id="path8041"
         inkscape:connector-curvature="0" />
    </g>
  </g>
</svg>
