<?xml version="1.0" encoding="UTF-8" standalone="no"?>
<!-- Created with Inkscape (http://www.inkscape.org/) -->

<svg
   xmlns:dc="http://purl.org/dc/elements/1.1/"
   xmlns:cc="http://creativecommons.org/ns#"
   xmlns:rdf="http://www.w3.org/1999/02/22-rdf-syntax-ns#"
   xmlns:svg="http://www.w3.org/2000/svg"
   xmlns="http://www.w3.org/2000/svg"
   xmlns:sodipodi="http://sodipodi.sourceforge.net/DTD/sodipodi-0.dtd"
   xmlns:inkscape="http://www.inkscape.org/namespaces/inkscape"
   version="1.1"
   width="3000"
   height="1650"
   id="svg2"
   inkscape:version="0.48.5 r10040"
   sodipodi:docname="CANC Camion.svg"
   sodipodi:version="0.32"
   inkscape:output_extension="org.inkscape.output.svg.inkscape">
  <metadata
     id="metadata2877">
    <rdf:RDF>
      <cc:Work
         rdf:about="">
        <dc:format>image/svg+xml</dc:format>
        <dc:type
           rdf:resource="http://purl.org/dc/dcmitype/StillImage" />
        <dc:title />
      </cc:Work>
    </rdf:RDF>
  </metadata>
  <sodipodi:namedview
     pagecolor="#ffffff"
     bordercolor="#666666"
     borderopacity="1"
     objecttolerance="10"
     gridtolerance="10"
     guidetolerance="10"
     inkscape:pageopacity="0"
     inkscape:pageshadow="2"
     inkscape:window-width="1366"
     inkscape:window-height="705"
     id="namedview2875"
     showgrid="false"
     inkscape:zoom="0.14957087"
     inkscape:cx="1468.4204"
     inkscape:cy="519.32676"
     inkscape:window-x="-8"
     inkscape:window-y="-8"
     inkscape:window-maximized="1"
     inkscape:current-layer="svg2"
     showguides="true"
     inkscape:guide-bbox="true"
     fit-margin-top="0"
     fit-margin-left="0"
     fit-margin-right="0"
     fit-margin-bottom="0" />
  <defs
     id="defs4">
    <inkscape:perspective
       sodipodi:type="inkscape:persp3d"
       inkscape:vp_x="0 : 100 : 1"
       inkscape:vp_y="0 : 1000 : 0"
       inkscape:vp_z="200 : 100 : 1"
       inkscape:persp3d-origin="100 : 66.666667 : 1"
       id="perspective2879" />
    <inkscape:perspective
       id="perspective2839"
       inkscape:persp3d-origin="0.5 : 0.33333333 : 1"
       inkscape:vp_z="1 : 0.5 : 1"
       inkscape:vp_y="0 : 1000 : 0"
       inkscape:vp_x="0 : 0.5 : 1"
       sodipodi:type="inkscape:persp3d" />
    <inkscape:perspective
       id="perspective3649"
       inkscape:persp3d-origin="0.5 : 0.33333333 : 1"
       inkscape:vp_z="1 : 0.5 : 1"
       inkscape:vp_y="0 : 1000 : 0"
       inkscape:vp_x="0 : 0.5 : 1"
       sodipodi:type="inkscape:persp3d" />
    <inkscape:perspective
       id="perspective3679"
       inkscape:persp3d-origin="0.5 : 0.33333333 : 1"
       inkscape:vp_z="1 : 0.5 : 1"
       inkscape:vp_y="0 : 1000 : 0"
       inkscape:vp_x="0 : 0.5 : 1"
       sodipodi:type="inkscape:persp3d" />
    <inkscape:perspective
       id="perspective3713"
       inkscape:persp3d-origin="0.5 : 0.33333333 : 1"
       inkscape:vp_z="1 : 0.5 : 1"
       inkscape:vp_y="0 : 1000 : 0"
       inkscape:vp_x="0 : 0.5 : 1"
       sodipodi:type="inkscape:persp3d" />
    <inkscape:perspective
       id="perspective3741"
       inkscape:persp3d-origin="0.5 : 0.33333333 : 1"
       inkscape:vp_z="1 : 0.5 : 1"
       inkscape:vp_y="0 : 1000 : 0"
       inkscape:vp_x="0 : 0.5 : 1"
       sodipodi:type="inkscape:persp3d" />
    <inkscape:perspective
       id="perspective3765"
       inkscape:persp3d-origin="0.5 : 0.33333333 : 1"
       inkscape:vp_z="1 : 0.5 : 1"
       inkscape:vp_y="0 : 1000 : 0"
       inkscape:vp_x="0 : 0.5 : 1"
       sodipodi:type="inkscape:persp3d" />
    <inkscape:perspective
       id="perspective3801"
       inkscape:persp3d-origin="0.5 : 0.33333333 : 1"
       inkscape:vp_z="1 : 0.5 : 1"
       inkscape:vp_y="0 : 1000 : 0"
       inkscape:vp_x="0 : 0.5 : 1"
       sodipodi:type="inkscape:persp3d" />
    <inkscape:perspective
       id="perspective2863"
       inkscape:persp3d-origin="0.5 : 0.33333333 : 1"
       inkscape:vp_z="1 : 0.5 : 1"
       inkscape:vp_y="0 : 1000 : 0"
       inkscape:vp_x="0 : 0.5 : 1"
       sodipodi:type="inkscape:persp3d" />
    <inkscape:perspective
       id="perspective3859"
       inkscape:persp3d-origin="0.5 : 0.33333333 : 1"
       inkscape:vp_z="1 : 0.5 : 1"
       inkscape:vp_y="0 : 1000 : 0"
       inkscape:vp_x="0 : 0.5 : 1"
       sodipodi:type="inkscape:persp3d" />
    <inkscape:perspective
       id="perspective3964"
       inkscape:persp3d-origin="0.5 : 0.33333333 : 1"
       inkscape:vp_z="1 : 0.5 : 1"
       inkscape:vp_y="0 : 1000 : 0"
       inkscape:vp_x="0 : 0.5 : 1"
       sodipodi:type="inkscape:persp3d" />
    <inkscape:perspective
       id="perspective3988"
       inkscape:persp3d-origin="0.5 : 0.33333333 : 1"
       inkscape:vp_z="1 : 0.5 : 1"
       inkscape:vp_y="0 : 1000 : 0"
       inkscape:vp_x="0 : 0.5 : 1"
       sodipodi:type="inkscape:persp3d" />
    <inkscape:perspective
       id="perspective2879-7"
       inkscape:persp3d-origin="0.5 : 0.33333333 : 1"
       inkscape:vp_z="1 : 0.5 : 1"
       inkscape:vp_y="0 : 1000 : 0"
       inkscape:vp_x="0 : 0.5 : 1"
       sodipodi:type="inkscape:persp3d" />
    <inkscape:perspective
       id="perspective4031"
       inkscape:persp3d-origin="0.5 : 0.33333333 : 1"
       inkscape:vp_z="1 : 0.5 : 1"
       inkscape:vp_y="0 : 1000 : 0"
       inkscape:vp_x="0 : 0.5 : 1"
       sodipodi:type="inkscape:persp3d" />
    <inkscape:perspective
       id="perspective4047"
       inkscape:persp3d-origin="0.5 : 0.33333333 : 1"
       inkscape:vp_z="1 : 0.5 : 1"
       inkscape:vp_y="0 : 1000 : 0"
       inkscape:vp_x="0 : 0.5 : 1"
       sodipodi:type="inkscape:persp3d" />
    <inkscape:perspective
       id="perspective4063"
       inkscape:persp3d-origin="0.5 : 0.33333333 : 1"
       inkscape:vp_z="1 : 0.5 : 1"
       inkscape:vp_y="0 : 1000 : 0"
       inkscape:vp_x="0 : 0.5 : 1"
       sodipodi:type="inkscape:persp3d" />
    <inkscape:perspective
       id="perspective4079"
       inkscape:persp3d-origin="0.5 : 0.33333333 : 1"
       inkscape:vp_z="1 : 0.5 : 1"
       inkscape:vp_y="0 : 1000 : 0"
       inkscape:vp_x="0 : 0.5 : 1"
       sodipodi:type="inkscape:persp3d" />
    <inkscape:perspective
       id="perspective4097"
       inkscape:persp3d-origin="0.5 : 0.33333333 : 1"
       inkscape:vp_z="1 : 0.5 : 1"
       inkscape:vp_y="0 : 1000 : 0"
       inkscape:vp_x="0 : 0.5 : 1"
       sodipodi:type="inkscape:persp3d" />
    <inkscape:perspective
       id="perspective4115"
       inkscape:persp3d-origin="0.5 : 0.33333333 : 1"
       inkscape:vp_z="1 : 0.5 : 1"
       inkscape:vp_y="0 : 1000 : 0"
       inkscape:vp_x="0 : 0.5 : 1"
       sodipodi:type="inkscape:persp3d" />
    <inkscape:perspective
       id="perspective4129"
       inkscape:persp3d-origin="0.5 : 0.33333333 : 1"
       inkscape:vp_z="1 : 0.5 : 1"
       inkscape:vp_y="0 : 1000 : 0"
       inkscape:vp_x="0 : 0.5 : 1"
       sodipodi:type="inkscape:persp3d" />
    <inkscape:perspective
       id="perspective4153"
       inkscape:persp3d-origin="0.5 : 0.33333333 : 1"
       inkscape:vp_z="1 : 0.5 : 1"
       inkscape:vp_y="0 : 1000 : 0"
       inkscape:vp_x="0 : 0.5 : 1"
       sodipodi:type="inkscape:persp3d" />
    <inkscape:perspective
       id="perspective4179"
       inkscape:persp3d-origin="0.5 : 0.33333333 : 1"
       inkscape:vp_z="1 : 0.5 : 1"
       inkscape:vp_y="0 : 1000 : 0"
       inkscape:vp_x="0 : 0.5 : 1"
       sodipodi:type="inkscape:persp3d" />
    <inkscape:perspective
       id="perspective4195"
       inkscape:persp3d-origin="0.5 : 0.33333333 : 1"
       inkscape:vp_z="1 : 0.5 : 1"
       inkscape:vp_y="0 : 1000 : 0"
       inkscape:vp_x="0 : 0.5 : 1"
       sodipodi:type="inkscape:persp3d" />
    <inkscape:perspective
       id="perspective4213"
       inkscape:persp3d-origin="0.5 : 0.33333333 : 1"
       inkscape:vp_z="1 : 0.5 : 1"
       inkscape:vp_y="0 : 1000 : 0"
       inkscape:vp_x="0 : 0.5 : 1"
       sodipodi:type="inkscape:persp3d" />
    <inkscape:perspective
       id="perspective4267"
       inkscape:persp3d-origin="0.5 : 0.33333333 : 1"
       inkscape:vp_z="1 : 0.5 : 1"
       inkscape:vp_y="0 : 1000 : 0"
       inkscape:vp_x="0 : 0.5 : 1"
       sodipodi:type="inkscape:persp3d" />
    <inkscape:perspective
       id="perspective4283"
       inkscape:persp3d-origin="0.5 : 0.33333333 : 1"
       inkscape:vp_z="1 : 0.5 : 1"
       inkscape:vp_y="0 : 1000 : 0"
       inkscape:vp_x="0 : 0.5 : 1"
       sodipodi:type="inkscape:persp3d" />
    <inkscape:perspective
       id="perspective4314"
       inkscape:persp3d-origin="0.5 : 0.33333333 : 1"
       inkscape:vp_z="1 : 0.5 : 1"
       inkscape:vp_y="0 : 1000 : 0"
       inkscape:vp_x="0 : 0.5 : 1"
       sodipodi:type="inkscape:persp3d" />
    <inkscape:perspective
       id="perspective4330"
       inkscape:persp3d-origin="0.5 : 0.33333333 : 1"
       inkscape:vp_z="1 : 0.5 : 1"
       inkscape:vp_y="0 : 1000 : 0"
       inkscape:vp_x="0 : 0.5 : 1"
       sodipodi:type="inkscape:persp3d" />
    <inkscape:perspective
       id="perspective4346"
       inkscape:persp3d-origin="0.5 : 0.33333333 : 1"
       inkscape:vp_z="1 : 0.5 : 1"
       inkscape:vp_y="0 : 1000 : 0"
       inkscape:vp_x="0 : 0.5 : 1"
       sodipodi:type="inkscape:persp3d" />
    <inkscape:perspective
       id="perspective3742"
       inkscape:persp3d-origin="0.5 : 0.33333333 : 1"
       inkscape:vp_z="1 : 0.5 : 1"
       inkscape:vp_y="0 : 1000 : 0"
       inkscape:vp_x="0 : 0.5 : 1"
       sodipodi:type="inkscape:persp3d" />
    <inkscape:perspective
       id="perspective3776"
       inkscape:persp3d-origin="0.5 : 0.33333333 : 1"
       inkscape:vp_z="1 : 0.5 : 1"
       inkscape:vp_y="0 : 1000 : 0"
       inkscape:vp_x="0 : 0.5 : 1"
       sodipodi:type="inkscape:persp3d" />
    <inkscape:perspective
       id="perspective3792"
       inkscape:persp3d-origin="0.5 : 0.33333333 : 1"
       inkscape:vp_z="1 : 0.5 : 1"
       inkscape:vp_y="0 : 1000 : 0"
       inkscape:vp_x="0 : 0.5 : 1"
       sodipodi:type="inkscape:persp3d" />
    <inkscape:perspective
       id="perspective3808"
       inkscape:persp3d-origin="0.5 : 0.33333333 : 1"
       inkscape:vp_z="1 : 0.5 : 1"
       inkscape:vp_y="0 : 1000 : 0"
       inkscape:vp_x="0 : 0.5 : 1"
       sodipodi:type="inkscape:persp3d" />
    <inkscape:perspective
       id="perspective3824"
       inkscape:persp3d-origin="0.5 : 0.33333333 : 1"
       inkscape:vp_z="1 : 0.5 : 1"
       inkscape:vp_y="0 : 1000 : 0"
       inkscape:vp_x="0 : 0.5 : 1"
       sodipodi:type="inkscape:persp3d" />
    <inkscape:perspective
       id="perspective4354"
       inkscape:persp3d-origin="0.5 : 0.33333333 : 1"
       inkscape:vp_z="1 : 0.5 : 1"
       inkscape:vp_y="0 : 1000 : 0"
       inkscape:vp_x="0 : 0.5 : 1"
       sodipodi:type="inkscape:persp3d" />
    <inkscape:perspective
       id="perspective4395"
       inkscape:persp3d-origin="0.5 : 0.33333333 : 1"
       inkscape:vp_z="1 : 0.5 : 1"
       inkscape:vp_y="0 : 1000 : 0"
       inkscape:vp_x="0 : 0.5 : 1"
       sodipodi:type="inkscape:persp3d" />
    <inkscape:perspective
       id="perspective4435"
       inkscape:persp3d-origin="0.5 : 0.33333333 : 1"
       inkscape:vp_z="1 : 0.5 : 1"
       inkscape:vp_y="0 : 1000 : 0"
       inkscape:vp_x="0 : 0.5 : 1"
       sodipodi:type="inkscape:persp3d" />
    <inkscape:perspective
       id="perspective4460"
       inkscape:persp3d-origin="0.5 : 0.33333333 : 1"
       inkscape:vp_z="1 : 0.5 : 1"
       inkscape:vp_y="0 : 1000 : 0"
       inkscape:vp_x="0 : 0.5 : 1"
       sodipodi:type="inkscape:persp3d" />
    <inkscape:perspective
       id="perspective4479"
       inkscape:persp3d-origin="0.5 : 0.33333333 : 1"
       inkscape:vp_z="1 : 0.5 : 1"
       inkscape:vp_y="0 : 1000 : 0"
       inkscape:vp_x="0 : 0.5 : 1"
       sodipodi:type="inkscape:persp3d" />
    <inkscape:perspective
       id="perspective4495"
       inkscape:persp3d-origin="0.5 : 0.33333333 : 1"
       inkscape:vp_z="1 : 0.5 : 1"
       inkscape:vp_y="0 : 1000 : 0"
       inkscape:vp_x="0 : 0.5 : 1"
       sodipodi:type="inkscape:persp3d" />
    <inkscape:perspective
       id="perspective4511"
       inkscape:persp3d-origin="0.5 : 0.33333333 : 1"
       inkscape:vp_z="1 : 0.5 : 1"
       inkscape:vp_y="0 : 1000 : 0"
       inkscape:vp_x="0 : 0.5 : 1"
       sodipodi:type="inkscape:persp3d" />
    <inkscape:perspective
       id="perspective4527"
       inkscape:persp3d-origin="0.5 : 0.33333333 : 1"
       inkscape:vp_z="1 : 0.5 : 1"
       inkscape:vp_y="0 : 1000 : 0"
       inkscape:vp_x="0 : 0.5 : 1"
       sodipodi:type="inkscape:persp3d" />
    <inkscape:perspective
       id="perspective4543"
       inkscape:persp3d-origin="0.5 : 0.33333333 : 1"
       inkscape:vp_z="1 : 0.5 : 1"
       inkscape:vp_y="0 : 1000 : 0"
       inkscape:vp_x="0 : 0.5 : 1"
       sodipodi:type="inkscape:persp3d" />
    <inkscape:perspective
       id="perspective4559"
       inkscape:persp3d-origin="0.5 : 0.33333333 : 1"
       inkscape:vp_z="1 : 0.5 : 1"
       inkscape:vp_y="0 : 1000 : 0"
       inkscape:vp_x="0 : 0.5 : 1"
       sodipodi:type="inkscape:persp3d" />
    <inkscape:perspective
       id="perspective4575"
       inkscape:persp3d-origin="0.5 : 0.33333333 : 1"
       inkscape:vp_z="1 : 0.5 : 1"
       inkscape:vp_y="0 : 1000 : 0"
       inkscape:vp_x="0 : 0.5 : 1"
       sodipodi:type="inkscape:persp3d" />
    <inkscape:perspective
       id="perspective4591"
       inkscape:persp3d-origin="0.5 : 0.33333333 : 1"
       inkscape:vp_z="1 : 0.5 : 1"
       inkscape:vp_y="0 : 1000 : 0"
       inkscape:vp_x="0 : 0.5 : 1"
       sodipodi:type="inkscape:persp3d" />
  </defs>
  <rect
     y="0"
     x="0"
     height="1650"
     width="3000"
     id="rect9907"
     style="fill:#00408b;fill-opacity:1;stroke:none" />
  <path
     inkscape:connector-curvature="0"
     id="path9931"
     d="m 1497.002,1474.8731 0,-891.62671"
     style="fill:none;stroke:#ffffff;stroke-width:75;stroke-linecap:butt;stroke-linejoin:miter;stroke-miterlimit:4;stroke-opacity:1;stroke-dasharray:none"
     sodipodi:nodetypes="cc" />
  <rect
     ry="0"
     rx="0"
     y="1070.2163"
     x="206.25"
     height="393.53375"
     width="800.67773"
     id="rect9919"
     style="fill:#784421;fill-opacity:1;stroke:#ffffff;stroke-width:22.5;stroke-miterlimit:4;stroke-opacity:1;stroke-dasharray:none" />
  <path
     sodipodi:nodetypes="cc"
     inkscape:connector-curvature="0"
     id="path9905"
     d="M 2324.7481,913.28809 1507.8544,1323.7569"
     style="fill:none;stroke:#ffffff;stroke-width:65;stroke-linecap:butt;stroke-linejoin:miter;stroke-miterlimit:4;stroke-opacity:1;stroke-dasharray:none" />
  <g
     style="font-size:170.69630432px;font-style:normal;font-weight:normal;line-height:125%;letter-spacing:0px;word-spacing:0px;fill:#ffffff;fill-opacity:1;stroke:none;font-family:Sans"
     id="text9911"
     transform="translate(0,1450)">
    <path
       d="m 1827.2603,-860.10303 c 20.8264,1.3e-4 38.5222,6.54466 53.0873,19.63362 l -17.7531,15.19013 c -3.5284,-3.07335 -7.9094,-5.80473 -13.1429,-8.19413 -6.4873,-3.07334 -12.7453,-4.61007 -18.7741,-4.61017 -3.3027,10e-5 -6.4334,0.51234 -9.3922,1.53672 -6.9422,2.27828 -10.1286,6.65924 -9.559,13.14291 0.2292,2.6186 2.5056,4.78217 6.8293,6.49071 3.8687,1.59064 11.6062,3.63786 23.2124,6.14169 24.3548,5.23709 36.5323,17.24264 36.5324,36.01667 -10e-5,11.49508 -4.5235,20.74147 -13.5701,27.73919 -9.0468,6.99775 -21.3666,10.49662 -36.9595,10.49662 -12.9711,0 -25.3169,-3.47109 -37.0377,-10.41327 -7.3971,-4.20905 -13.5996,-9.15782 -18.6074,-14.84633 l 20.8265,-15.70585 c 1.9344,2.95889 5.9177,6.1452 11.95,9.55895 8.0778,4.55291 16.4403,6.88664 25.0877,7.00122 5.9176,0.11116 10.698,-1.05658 14.341,-3.50322 3.643,-2.44657 5.4645,-5.60423 5.4645,-9.47299 0,-4.43823 -2.846,-7.90931 -8.5379,-10.41327 -3.5285,-1.5905 -9.7874,-3.32518 -18.7767,-5.20403 -8.9895,-1.87874 -15.0764,-3.55785 -18.261,-5.03733 -5.5774,-2.50384 -9.4478,-4.72298 -11.6114,-6.65741 -6.0288,-5.34808 -9.0432,-12.40311 -9.0432,-21.16513 0,-12.85977 4.7213,-22.64618 14.1639,-29.35927 7.852,-5.57723 17.6957,-8.3659 29.5312,-8.36603 z"
       style="font-variant:normal;font-stretch:normal;fill:#ffffff;font-family:CodiceBianco;-inkscape-font-specification:CodiceBianco"
       id="path10023"
       inkscape:connector-curvature="0" />
    <path
       d="m 1901.4763,-763.31539 c 3.7541,3e-5 6.8275,1.42215 9.2203,4.26636 1.9344,2.38933 2.9016,4.95054 2.9016,7.68363 0,3.2992 -1.2806,6.08701 -3.8418,8.36343 -2.5613,2.27644 -5.3213,3.41466 -8.2801,3.41466 -3.1846,0 -6.0002,-1.16687 -8.4468,-3.50061 -2.4466,-2.33373 -3.6699,-5.09289 -3.6699,-8.27748 0,-3.30264 1.166,-6.11996 3.498,-8.45199 2.332,-2.33197 5.2049,-3.49797 8.6187,-3.498 z"
       style="font-variant:normal;font-stretch:normal;fill:#ffffff;font-family:CodiceBianco;-inkscape-font-specification:CodiceBianco"
       id="path10025"
       inkscape:connector-curvature="0" />
    <path
       d="m 1983.7302,-798.47775 c 0,-23.10114 7.5117,-40.1718 22.5351,-51.21202 10.4671,-7.62272 22.2452,-11.43414 35.3343,-11.43427 10.5816,1.3e-4 20.7657,3.24201 30.5522,9.72564 8.7618,5.69208 15.0771,12.34948 18.946,19.97222 l -21.6757,10.75708 c -6.147,-12.0645 -15.7632,-18.09679 -28.8487,-18.09689 -7.0569,10e-5 -12.7471,1.65143 -17.0707,4.95398 -4.6641,3.52502 -7.8504,6.8242 -9.559,9.89755 -3.0734,5.34824 -4.6102,12.85822 -4.6101,22.52996 -10e-5,10.69983 0.7969,18.43901 2.391,23.21757 1.7086,5.34819 5.237,9.95663 10.5852,13.82532 6.258,4.6675 12.8581,7.00124 19.8003,7.00121 8.1923,3e-5 15.276,-2.90238 21.2511,-8.70724 5.9749,-5.80479 8.9624,-12.46132 8.9625,-19.96961 l -31.7503,0 0,-21.50894 53.2592,0 0,68.44938 -20.9984,0 c -0.3405,-1.02448 -1.0229,-2.6185 -2.0473,-4.78208 -10.1268,5.34816 -19.8003,8.02223 -29.0206,8.02223 -12.6307,0 -24.124,-3.64125 -34.48,-10.92378 -15.7041,-10.92201 -23.5561,-28.16109 -23.5561,-51.71731 z"
       style="font-variant:normal;font-stretch:normal;fill:#ffffff;font-family:CodiceBianco;-inkscape-font-specification:CodiceBianco"
       id="path10027"
       inkscape:connector-curvature="0" />
    <path
       d="m 2143.6798,-859.24872 0,120.00001 -24.7491,0 0,-120.00001 z"
       style="font-variant:normal;font-stretch:normal;fill:#ffffff;font-family:CodiceBianco;-inkscape-font-specification:CodiceBianco"
       id="path10029"
       inkscape:connector-curvature="0" />
    <path
       d="m 2279.1825,-800.01447 c -10e-5,19.22908 -5.5184,34.5911 -16.555,46.08612 -10.5818,10.92552 -24.2369,16.38827 -40.9654,16.38827 -16.7287,0 -30.3282,-5.46275 -40.7988,-16.38827 -11.0366,-11.49502 -16.5549,-26.85704 -16.5549,-46.08612 0,-18.77748 6.0878,-33.85648 18.2636,-45.23702 10.9254,-10.12664 23.9555,-15.19001 39.0901,-15.19014 15.1345,1.3e-4 28.1645,5.0635 39.0901,15.19014 12.2868,11.38054 18.4302,26.45954 18.4303,45.23702 z m -26.2858,0 c -10e-5,-11.26577 -2.873,-20.25604 -8.6187,-26.97083 -5.7459,-6.71461 -13.2845,-10.07196 -22.6159,-10.07206 -9.3315,10e-5 -16.8137,3.35745 -22.4466,10.07206 -5.633,6.71479 -8.4494,15.70506 -8.4494,26.97083 0,11.72084 2.3893,20.8804 7.1679,27.47873 5.3481,7.51175 13.2575,11.26761 23.7281,11.26758 10.5816,3e-5 18.5465,-3.75583 23.8948,-11.26758 4.8931,-6.71293 7.3397,-15.8725 7.3398,-27.47873 z"
       style="font-variant:normal;font-stretch:normal;fill:#ffffff;font-family:CodiceBianco;-inkscape-font-specification:CodiceBianco"
       id="path10031"
       inkscape:connector-curvature="0" />
    <path
       d="m 2314.9491,-859.24872 23.3895,84.83765 25.0929,-84.83765 25.4315,0 -34.9905,120.00001 -31.2398,0 -32.7713,-120.00001 z"
       style="font-variant:normal;font-stretch:normal;fill:#ffffff;font-family:CodiceBianco;-inkscape-font-specification:CodiceBianco"
       id="path10033"
       inkscape:connector-curvature="0" />
    <path
       d="m 2433.4645,-859.24872 34.4799,0 40.7936,120.00001 -26.4577,0 -6.8241,-20.14413 -48.9929,0 -6.6574,20.14413 -25.6034,0 z m 17.2374,26.96823 -16.7269,50.5296 34.1413,0 z"
       style="font-variant:normal;font-stretch:normal;fill:#ffffff;font-family:CodiceBianco;-inkscape-font-specification:CodiceBianco"
       id="path10035"
       inkscape:connector-curvature="0" />
    <path
       d="m 2635.5881,-739.24871 -27.9944,0 -58.0362,-83.12902 0,83.12902 -23.8999,0 0,-120.00001 27.9944,0 58.0413,83.63953 0,-83.63953 23.8948,0 z"
       style="font-variant:normal;font-stretch:normal;fill:#ffffff;font-family:CodiceBianco;-inkscape-font-specification:CodiceBianco"
       id="path10037"
       inkscape:connector-curvature="0" />
    <path
       d="m 2771.6117,-739.24871 -27.9944,0 -58.0361,-83.12902 0,83.12902 -23.9,0 0,-120.00001 27.9944,0 58.0414,83.63953 0,-83.63953 23.8947,0 z"
       style="font-variant:normal;font-stretch:normal;fill:#ffffff;font-family:CodiceBianco;-inkscape-font-specification:CodiceBianco"
       id="path10039"
       inkscape:connector-curvature="0" />
    <path
       d="m 2822.7977,-859.24872 0,120.00001 -24.7491,0 0,-120.00001 z"
       style="font-variant:normal;font-stretch:normal;fill:#ffffff;font-family:CodiceBianco;-inkscape-font-specification:CodiceBianco"
       id="path10041"
       inkscape:connector-curvature="0" />
  </g>
  <g
     style="font-size:213.37037659px;font-style:normal;font-weight:normal;line-height:125%;letter-spacing:0px;word-spacing:0px;fill:#ffffff;fill-opacity:1;stroke:none;font-family:Sans"
     id="text9915"
     transform="translate(0,1450)">
    <path
       d="m 684.91575,-1252.6323 c 12.65836,2e-4 23.89511,4.4823 33.71028,13.4463 10.52688,9.8152 15.79037,21.9766 15.79051,36.4842 -1.4e-4,13.9392 -5.33526,25.6752 -16.00539,35.208 -9.81517,8.9599 -20.9803,13.4399 -33.4954,13.4398 l -34.35492,0 0,51.6366 -31.57449,0 0,-150.2149 z m -34.35492,26.6713 0,44.3827 32.21914,0 c 5.12233,10e-5 9.74552,-2.2757 13.86959,-6.8274 4.12388,-4.5514 6.18587,-9.3884 6.18597,-14.5109 -10e-5,-6.3986 -2.2748,-11.9464 -6.8241,-16.6436 -4.12407,-4.2671 -8.53455,-6.4007 -13.23146,-6.4008 z"
       style="font-variant:normal;font-stretch:normal;word-spacing:90px;fill:#ffffff;font-family:CodiceBianco;-inkscape-font-specification:CodiceBianco"
       id="path10000"
       inkscape:connector-curvature="0" />
    <path
       d="m 894.97175,-1178.5895 c -1.5e-4,24.0363 -6.89804,43.2389 -20.69369,57.6077 -13.22725,13.6569 -30.29617,20.4853 -51.20681,20.4853 -20.91081,0 -37.91027,-6.8284 -50.99844,-20.4853 -13.79581,-14.3688 -20.69371,-33.5714 -20.6937,-57.6077 -10e-6,-23.4719 7.60981,-42.3206 22.82949,-56.5463 13.65684,-12.6583 29.94437,-18.9875 48.86265,-18.9876 18.91811,10e-5 35.20565,6.3293 48.86265,18.9876 15.35842,14.2257 23.0377,33.0744 23.03785,56.5463 z m -32.85726,0 c -1.3e-4,-14.0822 -3.59124,-25.32 -10.77336,-33.7135 -7.18234,-8.3933 -16.60562,-12.59 -28.26988,-12.5901 -11.66442,10e-5 -21.01717,4.1968 -28.05826,12.5901 -7.0412,8.3935 -10.56177,19.6313 -10.56173,33.7135 -4e-5,14.651 2.98659,26.1005 8.95989,34.3484 6.68513,9.3897 16.57182,14.0845 29.6601,14.0845 13.22703,0 23.18317,-4.6948 29.86847,-14.0845 6.11639,-8.3911 9.17464,-19.8406 9.17477,-34.3484 z"
       style="font-variant:normal;font-stretch:normal;word-spacing:90px;fill:#ffffff;font-family:CodiceBianco;-inkscape-font-specification:CodiceBianco"
       id="path10002"
       inkscape:connector-curvature="0" />
    <path
       d="m 992.5994,-1252.6323 c 11.521,2e-4 21.692,4.1958 30.5131,12.5868 9.2463,8.8211 13.8695,19.6325 13.8696,32.434 -10e-5,11.5212 -3.8419,21.3363 -11.5254,29.4452 -5.6912,6.1166 -12.5891,10.5988 -20.6937,13.4464 l 38.62,62.0876 -33.7168,0 -36.914,-59.5286 -22.39972,0 0,59.5286 -29.6601,0 0,-150 z m -42.24692,26.6713 0,37.3437 36.69908,0 c 3.84172,10e-5 7.61191,-1.7786 11.31056,-5.3362 3.69848,-3.5574 5.54778,-7.9668 5.54788,-13.2282 -10e-5,-5.2656 -1.8147,-9.7119 -5.4437,-13.3389 -3.62919,-3.6268 -7.57736,-5.4403 -11.8445,-5.4404 z"
       style="font-variant:normal;font-stretch:normal;word-spacing:90px;fill:#ffffff;font-family:CodiceBianco;-inkscape-font-specification:CodiceBianco"
       id="path10004"
       inkscape:connector-curvature="0" />
    <path
       d="m 1181.1412,-1252.8472 0,27.5243 -46.7268,0 0,122.6906 -31.1513,0 0,-122.8989 -46.7268,0 0,-27.316 z"
       style="font-variant:normal;font-stretch:normal;word-spacing:90px;fill:#ffffff;font-family:CodiceBianco;-inkscape-font-specification:CodiceBianco"
       id="path10006"
       inkscape:connector-curvature="0" />
    <path
       d="m 1340.8825,-1178.5895 c -2e-4,24.0363 -6.8981,43.2389 -20.6937,57.6077 -13.2273,13.6569 -30.2962,20.4853 -51.2068,20.4853 -20.9109,0 -37.9103,-6.8284 -50.9985,-20.4853 -13.7958,-14.3688 -20.6937,-33.5714 -20.6937,-57.6077 0,-23.4719 7.6098,-42.3206 22.8295,-56.5463 13.6568,-12.6583 29.9444,-18.9875 48.8627,-18.9876 18.9181,10e-5 35.2056,6.3293 48.8626,18.9876 15.3584,14.2257 23.0377,33.0744 23.0379,56.5463 z m -32.8573,0 c -10e-5,-14.0822 -3.5912,-25.32 -10.7734,-33.7135 -7.1823,-8.3933 -16.6056,-12.59 -28.2698,-12.5901 -11.6645,10e-5 -21.0172,4.1968 -28.0583,12.5901 -7.0412,8.3935 -10.5618,19.6313 -10.5617,33.7135 -10e-5,14.651 2.9866,26.1005 8.9599,34.3484 6.6851,9.3897 16.5718,14.0845 29.6601,14.0845 13.227,0 23.1831,-4.6948 29.8684,-14.0845 6.1164,-8.3911 9.1747,-19.8406 9.1748,-34.3484 z"
       style="font-variant:normal;font-stretch:normal;word-spacing:90px;fill:#ffffff;font-family:CodiceBianco;-inkscape-font-specification:CodiceBianco"
       id="path10008"
       inkscape:connector-curvature="0" />
    <path
       d="m 1644.5394,-1252.8472 0,27.5243 -46.7269,0 0,122.6906 -31.1513,0 0,-122.8989 -46.7268,0 0,-27.316 z"
       style="font-variant:normal;font-stretch:normal;word-spacing:90px;fill:#ffffff;font-family:CodiceBianco;-inkscape-font-specification:CodiceBianco"
       id="path10010"
       inkscape:connector-curvature="0" />
    <path
       d="m 1804.2807,-1178.5895 c -2e-4,24.0363 -6.8981,43.2389 -20.6937,57.6077 -13.2273,13.6569 -30.2962,20.4853 -51.2069,20.4853 -20.9108,0 -37.9102,-6.8284 -50.9984,-20.4853 -13.7958,-14.3688 -20.6937,-33.5714 -20.6937,-57.6077 0,-23.4719 7.6098,-42.3206 22.8295,-56.5463 13.6568,-12.6583 29.9444,-18.9875 48.8626,-18.9876 18.9182,10e-5 35.2057,6.3293 48.8627,18.9876 15.3584,14.2257 23.0377,33.0744 23.0379,56.5463 z m -32.8573,0 c -10e-5,-14.0822 -3.5913,-25.32 -10.7734,-33.7135 -7.1823,-8.3933 -16.6056,-12.59 -28.2699,-12.5901 -11.6644,10e-5 -21.0171,4.1968 -28.0582,12.5901 -7.0412,8.3935 -10.5618,19.6313 -10.5617,33.7135 -10e-5,14.651 2.9865,26.1005 8.9599,34.3484 6.6851,9.3897 16.5718,14.0845 29.66,14.0845 13.2271,0 23.1832,-4.6948 29.8685,-14.0845 6.1164,-8.3911 9.1747,-19.8406 9.1748,-34.3484 z"
       style="font-variant:normal;font-stretch:normal;word-spacing:90px;fill:#ffffff;font-family:CodiceBianco;-inkscape-font-specification:CodiceBianco"
       id="path10012"
       inkscape:connector-curvature="0" />
    <path
       d="m 1901.9083,-1252.6323 c 11.521,2e-4 21.692,4.1958 30.5131,12.5868 9.2463,8.8211 13.8695,19.6325 13.8696,32.434 -10e-5,11.5212 -3.8419,21.3363 -11.5254,29.4452 -5.6912,6.1166 -12.5891,10.5988 -20.6937,13.4464 l 38.62,62.0876 -33.7168,0 -36.914,-59.5286 -22.3997,0 0,59.5286 -29.6601,0 0,-150 z m -42.2469,26.6713 0,37.3437 36.6991,0 c 3.8417,10e-5 7.6119,-1.7786 11.3105,-5.3362 3.6985,-3.5574 5.5478,-7.9668 5.5479,-13.2282 -10e-5,-5.2656 -1.8147,-9.7119 -5.4437,-13.3389 -3.6292,-3.6268 -7.5774,-5.4403 -11.8445,-5.4404 z"
       style="font-variant:normal;font-stretch:normal;word-spacing:90px;fill:#ffffff;font-family:CodiceBianco;-inkscape-font-specification:CodiceBianco"
       id="path10014"
       inkscape:connector-curvature="0" />
    <path
       d="m 2047.3502,-1252.6323 c 11.521,2e-4 21.692,4.1958 30.5131,12.5868 9.2463,8.8211 13.8695,19.6325 13.8696,32.434 -10e-5,11.5212 -3.8419,21.3363 -11.5254,29.4452 -5.6913,6.1166 -12.5891,10.5988 -20.6937,13.4464 l 38.6199,62.0876 -33.7167,0 -36.914,-59.5286 -22.3997,0 0,59.5286 -29.6601,0 0,-150 z m -42.2469,26.6713 0,37.3437 36.6991,0 c 3.8417,10e-5 7.6119,-1.7786 11.3105,-5.3362 3.6985,-3.5574 5.5477,-7.9668 5.5478,-13.2282 -10e-5,-5.2656 -1.8146,-9.7119 -5.4436,-13.3389 -3.6292,-3.6268 -7.5774,-5.4403 -11.8445,-5.4404 z"
       style="font-variant:normal;font-stretch:normal;word-spacing:90px;fill:#ffffff;font-family:CodiceBianco;-inkscape-font-specification:CodiceBianco"
       id="path10016"
       inkscape:connector-curvature="0" />
    <path
       d="m 2223.3052,-1252.6323 0,27.1011 -72.76,0 0,32.2191 65.2912,0 0,27.0945 -65.0764,0 0,34.5698 80.0139,0 0,29.0155 -110.7418,0 0,-150 z"
       style="font-variant:normal;font-stretch:normal;word-spacing:90px;fill:#ffffff;font-family:CodiceBianco;-inkscape-font-specification:CodiceBianco"
       id="path10018"
       inkscape:connector-curvature="0" />
    <path
       d="m 2317.065,-1253.7002 c 26.0331,2e-4 48.1528,8.1808 66.3592,24.542 l -22.1913,18.9877 c -4.4106,-3.8417 -9.8869,-7.2559 -16.4287,-10.2427 -8.1091,-3.8417 -15.9317,-5.7626 -23.4676,-5.7627 -4.1284,10e-5 -8.0418,0.6404 -11.7403,1.9209 -8.6778,2.8479 -12.6607,8.3241 -11.9487,16.4287 0.2864,3.2732 3.132,5.9777 8.5366,8.1133 4.8359,1.9883 14.5077,4.5474 29.0155,7.6772 30.4435,6.5463 45.6653,21.5533 45.6655,45.0208 -2e-4,14.3688 -5.6544,25.9268 -16.9626,34.674 -11.3085,8.7472 -26.7083,13.1208 -46.1994,13.1207 -16.2138,10e-5 -31.6462,-4.3388 -46.2971,-13.0165 -9.2465,-5.2613 -16.9995,-11.4473 -23.2593,-18.5579 l 26.0332,-19.6324 c 2.4179,3.6987 7.3971,7.6815 14.9375,11.9487 10.0972,5.6912 20.5503,8.6083 31.3596,8.7515 7.397,0.139 13.3724,-1.3207 17.9263,-4.379 4.5536,-3.0582 6.8305,-7.0053 6.8306,-11.8412 -10e-5,-5.5478 -3.5576,-9.8867 -10.6724,-13.0166 -4.4106,-1.9881 -12.2342,-4.1565 -23.4709,-6.505 -11.2368,-2.3485 -18.8456,-4.4473 -22.8262,-6.2967 -6.9718,-3.1298 -11.8099,-5.9037 -14.5143,-8.3218 -7.536,-6.6851 -11.304,-15.5038 -11.304,-26.4564 0,-16.0747 5.9016,-28.3077 17.7049,-36.6991 9.815,-6.9715 22.1196,-10.4573 36.9139,-10.4575 z"
       style="font-variant:normal;font-stretch:normal;word-spacing:90px;fill:#ffffff;font-family:CodiceBianco;-inkscape-font-specification:CodiceBianco"
       id="path10020"
       inkscape:connector-curvature="0" />
  </g>
  <g
     style="font-size:149.35926819px;font-style:normal;font-weight:normal;line-height:125%;letter-spacing:0px;word-spacing:0px;fill:#ffffff;fill-opacity:1;stroke:none;font-family:Sans"
     id="text9921"
     transform="translate(0.92334,1440.4502)">
    <path
       d="m 335.45946,-261.13688 0,48.54358 -21.80587,0 0,-43.91257 c -0.39813,-4.08095 -2.01625,-7.29136 -4.85436,-9.63123 -2.83821,-2.33975 -6.04862,-3.50966 -9.63123,-3.50972 -3.58573,6e-5 -6.57279,1.09552 -8.96119,3.28637 -2.6893,2.3885 -4.03393,5.67335 -4.0339,9.85458 l 0,43.76216 -21.5096,0 0,-75.42716 18.66991,0 2.24258,4.18432 c 5.47574,-4.28148 12.09711,-6.42226 19.86413,-6.42234 8.16498,8e-5 15.03553,2.39003 20.61165,7.16986 6.27184,5.37557 9.4078,12.74295 9.40788,22.10215 z"
       style="font-variant:normal;font-stretch:normal;word-spacing:30.62499619px;fill:#ffffff;font-family:CodiceBianco;-inkscape-font-specification:CodiceBianco"
       id="path9985"
       inkscape:connector-curvature="0" />
    <path
       d="m 375.16037,-288.61757 0,42.71836 c -3e-5,4.28159 1.54364,7.767 4.63101,10.45624 2.68923,2.38846 5.97409,3.58268 9.85458,3.58266 3.78619,2e-5 6.99812,-1.19496 9.63578,-3.58494 2.63756,-2.38992 3.95636,-5.82443 3.95642,-10.30354 l 0,-42.86878 21.66001,0 0,75.27675 -19.26702,0 -2.24257,-4.33018 c -4.77997,4.38184 -11.45148,6.57276 -20.01455,6.57275 -8.0648,1e-5 -14.78492,-2.24105 -20.1604,-6.72317 -6.27497,-5.27824 -9.41245,-12.84617 -9.41244,-22.70381 l 0,-48.09234 z"
       style="font-variant:normal;font-stretch:normal;word-spacing:30.62499619px;fill:#ffffff;font-family:CodiceBianco;-inkscape-font-specification:CodiceBianco"
       id="path9987"
       inkscape:connector-curvature="0" />
    <path
       d="m 488.4652,-290.40889 0,21.65545 c -1.49206,-0.19745 -2.9856,-0.29621 -4.48059,-0.29627 -5.8739,6e-5 -10.70242,1.34317 -14.48559,4.02934 -4.18435,2.88988 -6.27651,6.8235 -6.27648,11.80088 l 0,40.47578 -20.90793,0 0,-75.87386 20.90793,0 0,6.57276 c 6.27492,-5.67625 13.69395,-8.51441 22.25712,-8.5145 1.19416,9e-5 2.18934,0.0502 2.98554,0.15042 z"
       style="font-variant:normal;font-stretch:normal;word-spacing:30.62499619px;fill:#ffffff;font-family:CodiceBianco;-inkscape-font-specification:CodiceBianco"
       id="path9989"
       inkscape:connector-curvature="0" />
    <path
       d="m 533.37599,-289.66137 c 7.76389,9e-5 14.53415,1.59238 20.31082,4.77687 6.87048,3.88357 10.30575,9.31072 10.30582,16.28148 l 0,29.72326 c -7e-5,3.98379 0.19897,6.42388 0.59711,7.32028 0.89635,2.48874 3.33644,3.73309 7.32028,3.73307 l -7.16986,16.57775 c -2.48878,-0.10028 -4.77998,-0.39959 -6.87359,-0.89794 -5.07777,-1.19422 -8.91111,-3.38361 -11.50004,-6.5682 -5.47583,4.97743 -13.09238,7.46614 -22.84967,7.46614 -6.7703,0 -12.66997,-2.33981 -17.69904,-7.01945 -5.02909,-4.67962 -7.4935,-9.90773 -7.39321,-15.68436 0.19751,-14.13914 9.10855,-22.50321 26.73316,-25.09225 l 17.32527,-2.53885 c 0.30078,-3.88343 -0.6944,-6.62132 -2.98554,-8.21367 -1.99041,-1.19415 -5.27679,-1.79126 -9.85914,-1.79133 -7.26865,7e-5 -14.1392,2.73795 -20.61165,8.21367 l -10.00499,-14.63601 c 8.96117,-7.76689 20.41259,-11.65037 34.35427,-11.65046 z m -7.02401,46.45143 c -5.17801,0.89646 -7.767,3.43531 -7.76697,7.61656 -3e-5,2.19094 1.14557,3.90858 3.43679,5.15291 2.29117,1.24438 4.98044,1.86656 8.06781,1.86653 3.18454,3e-5 5.97181,-0.59784 8.36181,-1.7936 2.3899,-1.19571 3.78391,-2.88752 4.18204,-5.07543 l 0,-10.45624 z"
       style="font-variant:normal;font-stretch:normal;word-spacing:30.62499619px;fill:#ffffff;font-family:CodiceBianco;-inkscape-font-specification:CodiceBianco"
       id="path9991"
       inkscape:connector-curvature="0" />
    <path
       d="m 615.46708,-290.40889 c 7.07106,8e-5 12.74739,1.99196 17.029,5.97565 0.39801,-0.99663 0.94498,-2.34126 1.64091,-4.03391 l 19.86413,0 0,72.2912 c -8e-5,6.07137 -2.73797,11.84646 -8.21367,17.32527 -6.87061,7.06806 -16.18125,10.60209 -27.93193,10.60211 -5.87389,-2e-5 -12.6943,-0.9952 -20.46124,-2.98555 -7.26864,-1.89314 -12.74441,-3.93516 -16.42733,-6.12606 l 8.66036,-16.57775 c 10.15842,4.98047 18.82181,7.4707 25.99019,7.4707 4.57931,0 8.36251,-0.74753 11.34962,-2.24258 3.58564,-1.89312 5.37849,-4.63101 5.37854,-8.21367 l 0,-5.37853 c -5.17803,2.88679 -10.95312,4.33019 -17.32527,4.33018 -9.3593,1e-5 -17.37544,-2.93692 -24.04845,-8.81078 -7.46615,-6.57273 -11.19921,-15.33488 -11.19921,-26.28646 0,-11.15206 3.53403,-20.21352 10.6021,-27.18441 6.77025,-6.7702 15.13433,-10.15533 25.09225,-10.15541 z m -15.38353,37.63609 c -2e-5,5.77665 1.89158,10.15848 5.67481,13.14551 2.98703,2.48875 6.67148,3.7331 11.05336,3.73307 3.88344,3e-5 7.51774,-1.4935 10.90293,-4.48059 3.38508,-2.98703 5.07765,-6.47244 5.0777,-10.45625 l 0,-6.56819 c -5e-5,-4.18427 -1.61817,-7.71982 -4.85435,-10.60666 -3.23629,-2.88673 -7.04381,-4.33012 -11.42256,-4.33018 -4.58243,6e-5 -8.31702,1.39332 -11.20377,4.17976 -3.48544,3.48547 -5.22814,8.61331 -5.22812,15.38353 z"
       style="font-variant:normal;font-stretch:normal;word-spacing:30.62499619px;fill:#ffffff;font-family:CodiceBianco;-inkscape-font-specification:CodiceBianco"
       id="path9993"
       inkscape:connector-curvature="0" />
    <path
       d="m 691.79674,-319.08835 0,35.1018 c 3.88346,-4.08396 10.10675,-6.12598 18.66991,-6.12607 8.26223,9e-5 15.23153,2.14086 20.90793,6.42234 6.67296,5.17806 10.00947,12.44819 10.00955,21.81043 l 0,49.13614 -21.5096,0 0,-43.01463 c -5e-5,-4.47903 -1.39483,-8.01306 -4.18432,-10.60211 -2.586,-2.29113 -5.72196,-3.43673 -9.40788,-3.43679 -3.88353,6e-5 -7.26866,1.29456 -10.15541,3.88349 -2.88682,2.58904 -4.33021,6.12307 -4.33018,10.6021 l 0,42.56794 -20.91248,0 0,-106.34464 z"
       style="font-variant:normal;font-stretch:normal;word-spacing:30.62499619px;fill:#ffffff;font-family:CodiceBianco;-inkscape-font-specification:CodiceBianco"
       id="path9995"
       inkscape:connector-curvature="0" />
    <path
       d="m 753.19868,-253.51577 c 0,-11.45288 3.43527,-20.86304 10.30583,-28.23048 6.87053,-7.3673 15.78309,-11.05099 26.73771,-11.05108 10.25564,9e-5 18.96764,3.48398 26.13605,10.45169 7.4691,7.46924 11.00465,16.77988 10.60666,27.93193 -8e-5,1.39482 -0.10036,4.13271 -0.30083,8.21367 l -52.87377,0 c 2.49173,9.45957 8.01916,14.18933 16.58231,14.18931 5.37545,2e-5 9.90466,-0.84626 13.58764,-2.53885 1.29444,-0.49833 3.6844,-1.99186 7.16987,-4.4806 l 14.04345,14.18931 c -10.55658,8.06478 -22.15689,12.09716 -34.80096,12.09716 -8.26536,0 -15.83329,-2.58899 -22.70381,-7.76698 -9.66011,-7.2686 -14.49015,-18.27028 -14.49015,-33.00508 z m 21.66001,-7.91739 30.76706,0 c -0.39813,-4.08398 -2.09069,-7.42049 -5.0777,-10.00955 -2.98711,-2.58892 -6.37225,-3.88342 -10.15541,-3.88348 -4.68271,6e-5 -8.51757,1.59387 -11.5046,4.78142 -2.68626,2.78961 -4.02937,5.82681 -4.02935,9.11161 z"
       style="font-variant:normal;font-stretch:normal;word-spacing:30.62499619px;fill:#ffffff;font-family:CodiceBianco;-inkscape-font-specification:CodiceBianco"
       id="path9997"
       inkscape:connector-curvature="0" />
  </g>
  <g
     style="font-size:156.47160339px;font-style:normal;font-weight:normal;line-height:125%;letter-spacing:0px;word-spacing:0px;fill:#ffffff;fill-opacity:1;stroke:none;font-family:Sans"
     id="text9925"
     transform="translate(0.92334,1440.4502)">
    <path
       d="m 309.40002,-163.09619 c 19.09092,1.2e-4 35.31203,5.99927 48.6634,17.99748 l -16.27366,13.92429 c -3.23444,-2.81724 -7.25033,-5.321 -12.04767,-7.51128 -5.9467,-2.81724 -11.68322,-4.2259 -17.20958,-4.226 -3.02749,1e-4 -5.89734,0.46966 -8.60957,1.40867 -6.3637,2.08842 -9.28449,6.1043 -8.76237,12.04766 0.21007,2.40038 2.2968,4.38366 6.2602,5.94982 3.54629,1.45808 10.63895,3.33471 21.278,5.62988 22.32526,4.80067 33.48792,15.80575 33.48802,33.015283 -10e-5,10.537158 -4.14651,19.013013 -12.43923,25.427591 -8.29289,6.414604 -19.58607,9.621899 -33.87958,9.621895 -11.89012,4e-6 -23.20718,-3.181824 -33.9512,-9.545493 -6.7807,-3.858292 -12.46629,-8.394665 -17.05678,-13.609133 l 19.09099,-14.39703 c 1.77314,2.712314 5.42452,5.633102 10.95416,8.762371 7.4046,4.173496 15.07027,6.312754 22.99704,6.417781 5.42449,0.101895 9.80647,-0.96853 13.14595,-3.211278 3.33933,-2.24269 5.00904,-5.137214 5.00911,-8.683582 -7e-5,-4.068372 -2.60888,-7.2502 -7.82644,-9.545493 -3.23442,-1.457959 -8.97174,-3.048077 -17.21197,-4.77036 -8.24034,-1.722182 -13.82007,-3.261362 -16.73924,-4.617552 -5.1126,-2.29519 -8.66052,-4.3294 -10.64377,-6.10262 -5.52644,-4.90241 -8.28965,-11.36953 -8.28964,-19.40138 -10e-6,-11.78812 4.32785,-20.75899 12.98359,-26.91265 7.19769,-5.11247 16.22109,-7.66875 27.07024,-7.66887 z"
       style="font-variant:normal;font-stretch:normal;word-spacing:32.08333969px;fill:#ffffff;font-family:CodiceBianco;-inkscape-font-specification:CodiceBianco"
       id="path9968"
       inkscape:connector-curvature="0" />
    <path
       d="m 451.91391,-92.214094 c -9e-5,13.873389 -4.17355,24.617431 -12.5204,32.232157 -7.09274,6.468723 -15.80258,9.703077 -26.12954,9.703073 -7.61479,4e-6 -14.13443,-1.825687 -19.55895,-5.477079 l 0,26.912658 -22.53386,0 0,-103.271835 19.71653,0 2.34937,4.54116 c 4.58727,-4.38349 11.10692,-6.57528 19.55895,-6.57536 10.22191,8e-5 18.98427,3.23444 26.28711,9.70307 8.55377,7.61482 12.8307,18.35886 12.83079,32.232156 z m -21.75074,0.625543 c -7e-5,-7.614695 -2.03427,-13.559729 -6.10262,-17.835129 -3.65144,-3.75637 -8.08436,-5.63459 -13.29875,-5.63466 -4.69559,7e-5 -8.71148,1.5122 -12.04766,4.53638 -3.54955,3.33947 -5.32431,7.72145 -5.32428,13.145946 l 0,8.919951 c -3e-5,5.943487 1.98324,10.793427 5.94982,14.549834 3.54629,3.546358 7.82322,5.319522 12.83079,5.3195 5.00428,2.2e-5 9.12363,-1.825669 12.35804,-5.477079 3.75638,-4.170252 5.63459,-10.011827 5.63466,-17.524743 z"
       style="font-variant:normal;font-stretch:normal;word-spacing:32.08333969px;fill:#ffffff;font-family:CodiceBianco;-inkscape-font-specification:CodiceBianco"
       id="path9970"
       inkscape:connector-curvature="0" />
    <path
       d="m 461.21588,-95.184227 c -1e-5,-11.998263 3.59885,-21.856513 10.79657,-29.574793 7.1977,-7.71812 16.53467,-11.57723 28.01094,-11.57732 10.744,9e-5 19.87086,3.64989 27.38062,10.94939 7.82478,7.82492 11.52869,17.57892 11.11174,29.262021 -8e-5,1.46124 -0.10513,4.329501 -0.31516,8.604792 l -55.39156,0 c 2.61038,9.910027 8.40102,14.86502 17.37194,14.864994 5.63143,2.6e-5 10.37631,-0.886556 14.23468,-2.65975 1.35608,-0.522052 3.85984,-2.086703 7.51128,-4.693957 l 14.71219,14.864993 c -11.05928,8.448815 -23.21198,12.673213 -36.45815,12.673207 -8.65894,6e-6 -16.58725,-2.712268 -23.78494,-8.136829 -10.12011,-7.614726 -15.18016,-19.140297 -15.18015,-34.576748 z m 22.69143,-8.294413 32.23216,0 c -0.41709,-4.27845 -2.19025,-7.77385 -5.3195,-10.48619 -3.12936,-2.71221 -6.67568,-4.06834 -10.639,-4.06842 -4.90569,8e-5 -8.92317,1.66978 -12.05244,5.00912 -2.81417,2.92245 -4.22124,6.10427 -4.22122,9.54549 z"
       style="font-variant:normal;font-stretch:normal;word-spacing:32.08333969px;fill:#ffffff;font-family:CodiceBianco;-inkscape-font-specification:CodiceBianco"
       id="path9972"
       inkscape:connector-curvature="0" />
    <path
       d="m 599.50375,-133.83417 0,22.68667 c -1.56311,-0.20686 -3.12777,-0.31032 -4.69396,-0.31039 -6.1536,7e-5 -11.21205,1.40714 -15.17537,4.22122 -4.38361,3.0275 -6.57539,7.14843 -6.57536,12.362826 l 0,42.403194 -21.90354,0 0,-79.48689 21.90354,0 0,6.88575 c 6.57373,-5.94655 14.34605,-8.91987 23.31698,-8.91995 1.25103,8e-5 2.2936,0.0526 3.12771,0.15757 z"
       style="font-variant:normal;font-stretch:normal;word-spacing:32.08333969px;fill:#ffffff;font-family:CodiceBianco;-inkscape-font-specification:CodiceBianco"
       id="path9974"
       inkscape:connector-curvature="0" />
    <path
       d="m 646.55317,-133.05104 c 8.13359,8e-5 15.22625,1.6682 21.278,5.00434 7.19765,4.06849 10.7965,9.75408 10.79658,17.05678 l 0,31.138649 c -8e-5,4.173497 0.20844,6.729783 0.62554,7.668866 0.93903,2.607247 3.49532,3.910857 7.66887,3.910835 l -7.51129,17.367164 c -2.6073,-0.105048 -5.00759,-0.418615 -7.2009,-0.940702 -5.31957,-1.251078 -9.33545,-3.544732 -12.04767,-6.880968 -5.73658,5.214454 -13.71582,7.821674 -23.93774,7.82167 -7.0927,4e-6 -13.27331,-2.451229 -18.54185,-7.353707 -5.26858,-4.902455 -7.85033,-10.379528 -7.74527,-16.431238 0.20692,-14.812423 9.54229,-23.574786 28.00616,-26.287119 l 18.15029,-2.65975 c 0.3151,-4.06835 -0.72746,-6.93661 -3.12771,-8.60479 -2.08519,-1.25102 -5.52806,-1.87656 -10.32862,-1.87663 -7.61478,7e-5 -14.81249,2.86833 -21.59316,8.6048 l -10.48142,-15.33296 c 9.3879,-8.13675 21.38462,-12.20516 35.99019,-12.20524 z m -7.35848,48.663391 c -5.42458,0.939147 -8.13686,3.598895 -8.13683,7.97925 -3e-5,2.295276 1.20012,4.094704 3.60045,5.398289 2.40027,1.303636 5.21759,1.955441 8.45199,1.955418 3.33618,2.3e-5 6.25617,-0.626315 8.75998,-1.879015 2.50371,-1.252651 3.96411,-3.02502 4.38119,-5.317113 l 0,-10.954158 z"
       style="font-variant:normal;font-stretch:normal;word-spacing:32.08333969px;fill:#ffffff;font-family:CodiceBianco;-inkscape-font-specification:CodiceBianco"
       id="path9976"
       inkscape:connector-curvature="0" />
    <path
       d="m 773.54787,-103.16825 0,50.855179 -22.84424,0 0,-46.003645 c -0.41709,-4.275284 -2.11226,-7.638564 -5.08552,-10.089854 -2.97337,-2.45118 -6.33666,-3.67679 -10.08986,-3.67686 -3.75648,7e-5 -6.88578,1.14769 -9.38792,3.44287 -2.81736,2.50223 -4.22602,5.94351 -4.22599,10.323844 l 0,45.846066 -22.53386,0 0,-79.01892 19.55895,0 2.34937,4.38357 c 5.73649,-4.48536 12.67316,-6.72808 20.81003,-6.72817 8.5538,9e-5 15.75151,2.50385 21.59316,7.51129 6.57051,5.63155 9.8558,13.34975 9.85588,23.15463 z"
       style="font-variant:normal;font-stretch:normal;word-spacing:32.08333969px;fill:#ffffff;font-family:CodiceBianco;-inkscape-font-specification:CodiceBianco"
       id="path9978"
       inkscape:connector-curvature="0" />
    <path
       d="m 790.10322,-132.26792 62.58768,0 0,19.71175 -35.04948,42.092813 36.30057,0 0,17.992707 -65.08986,0 0,-17.835127 34.89191,-42.092813 -33.64082,0 z"
       style="font-variant:normal;font-stretch:normal;word-spacing:32.08333969px;fill:#ffffff;font-family:CodiceBianco;-inkscape-font-specification:CodiceBianco"
       id="path9980"
       inkscape:connector-curvature="0" />
    <path
       d="m 901.43073,-133.05104 c 8.1336,8e-5 15.22626,1.6682 21.278,5.00434 7.19765,4.06849 10.79651,9.75408 10.79658,17.05678 l 0,31.138649 c -7e-5,4.173497 0.20844,6.729783 0.62554,7.668866 0.93904,2.607247 3.49532,3.910857 7.66887,3.910835 l -7.51129,17.367164 c -2.60729,-0.105048 -5.00759,-0.418615 -7.2009,-0.940702 -5.31956,-1.251078 -9.33545,-3.544732 -12.04766,-6.880968 -5.73658,5.214454 -13.71582,7.821674 -23.93775,7.82167 -7.09269,4e-6 -13.2733,-2.451229 -18.54185,-7.353707 -5.26857,-4.902455 -7.85033,-10.379528 -7.74527,-16.431238 0.20692,-14.812423 9.5423,-23.574786 28.00617,-26.287119 l 18.15028,-2.65975 c 0.31511,-4.06835 -0.72746,-6.93661 -3.12771,-8.60479 -2.08519,-1.25102 -5.52806,-1.87656 -10.32862,-1.87663 -7.61478,7e-5 -14.81249,2.86833 -21.59315,8.6048 l -10.48142,-15.33296 c 9.38789,-8.13675 21.38461,-12.20516 35.99018,-12.20524 z m -7.35848,48.663391 c -5.42458,0.939147 -8.13685,3.598895 -8.13683,7.97925 -2e-5,2.295276 1.20012,4.094704 3.60045,5.398289 2.40027,1.303636 5.2176,1.955441 8.45199,1.955418 3.33619,2.3e-5 6.25618,-0.626315 8.75999,-1.879015 2.50371,-1.252651 3.9641,-3.02502 4.38118,-5.317113 l 0,-10.954158 z"
       style="font-variant:normal;font-stretch:normal;word-spacing:32.08333969px;fill:#ffffff;font-family:CodiceBianco;-inkscape-font-specification:CodiceBianco"
       id="path9982"
       inkscape:connector-curvature="0" />
  </g>
  <path
     sodipodi:nodetypes="ccc"
     inkscape:connector-curvature="0"
     id="path9933"
     d="m 1262.2402,1265.5635 84.6783,0 c 99.8706,0 150.0991,68.691 150.0991,167.7819"
     style="fill:none;stroke:#ffffff;stroke-width:65;stroke-linecap:butt;stroke-linejoin:miter;stroke-miterlimit:4;stroke-opacity:1;stroke-dasharray:none" />
  <g
     style="fill:#ffffff;fill-opacity:1;stroke:none"
     transform="matrix(0,1.5216619,-1.5216619,0,2150.5026,-14070.796)"
     id="g9935">
    <path
       id="path9937"
       style="fill:#ffffff;fill-opacity:1;fill-rule:evenodd;stroke:none"
       d="m 9674.7188,429.4377 16.1239,-69.8406 c 0.7713,-3.3409 -0.4416,-6.6287 -3.1978,-8.6679 -2.7562,-2.0393 -6.2545,-2.2381 -9.2239,-0.5238 l -136.8883,79.0325 136.8883,79.0322 c 2.9694,1.7144 6.4678,1.5157 9.2241,-0.5237 2.7562,-2.0394 3.9687,-5.327 3.1976,-8.668 z"
       inkscape:connector-curvature="0" />
    <path
       id="path9939"
       style="fill:#ffffff;fill-opacity:1;stroke:none"
       d="m 9609.9188,429.4378 h 189.8983"
       inkscape:connector-curvature="0" />
  </g>
  <g
     style="fill:#ffffff;fill-opacity:1;stroke:none"
     transform="matrix(-1.5618956,0.77957964,-0.77957964,-1.5618956,17669.182,-5907.2495)"
     id="g9941">
    <path
       id="path9943"
       style="fill:#ffffff;fill-opacity:1;fill-rule:evenodd;stroke:none"
       d="m 9674.7188,429.4377 16.1239,-69.8406 c 0.7713,-3.3409 -0.4416,-6.6287 -3.1978,-8.6679 -2.7562,-2.0393 -6.2545,-2.2381 -9.2239,-0.5238 l -136.8883,79.0325 136.8883,79.0322 c 2.9694,1.7144 6.4678,1.5157 9.2241,-0.5237 2.7562,-2.0394 3.9687,-5.327 3.1976,-8.668 z"
       inkscape:connector-curvature="0" />
    <path
       id="path9945"
       style="fill:#ffffff;fill-opacity:1;stroke:none"
       d="m 9609.9188,429.4378 h 189.8983"
       inkscape:connector-curvature="0" />
  </g>
  <g
     style="fill:#ffffff;fill-opacity:1;stroke:none"
     transform="matrix(1.5216619,0,0,1.5216619,-13392.966,612.10419)"
     id="g9947">
    <path
       id="path9949"
       style="fill:#ffffff;fill-opacity:1;fill-rule:evenodd;stroke:none"
       d="m 9674.7188,429.4377 16.1239,-69.8406 c 0.7713,-3.3409 -0.4416,-6.6287 -3.1978,-8.6679 -2.7562,-2.0393 -6.2545,-2.2381 -9.2239,-0.5238 l -136.8883,79.0325 136.8883,79.0322 c 2.9694,1.7144 6.4678,1.5157 9.2241,-0.5237 2.7562,-2.0394 3.9687,-5.327 3.1976,-8.668 z"
       inkscape:connector-curvature="0" />
    <path
       id="path9951"
       style="fill:#ffffff;fill-opacity:1;stroke:none"
       d="m 9609.9188,429.4378 h 189.8983"
       inkscape:connector-curvature="0" />
  </g>
  <path
     style="fill:#ffffff;fill-opacity:1;fill-rule:nonzero;stroke:#000000;stroke-width:1.7983762;stroke-linecap:round;stroke-linejoin:round;stroke-miterlimit:2;stroke-opacity:1;stroke-dasharray:none;stroke-dashoffset:0"
     d="m 1984.6382,836.71069 c -4.4564,-7.7183 -13.1753,-12.5467 -22.7408,-12.5467 -9.7395,0 -18.4613,5.0924 -23.0024,12.9574 l -222.1991,384.89531 c -4.769,8.2607 -5.4751,18.6658 -0.3735,27.5019 4.8696,8.4346 13.6404,13.4428 22.7221,13.4428 l 445.7057,0 c 9.0818,0 17.8526,-5.0083 22.7222,-13.4428 5.1016,-8.836 4.3958,-19.2414 -0.3734,-27.5019 L 1984.6382,836.71069 z"
     id="path9953"
     sodipodi:nodetypes="cscssssssc"
     inkscape:connector-curvature="0" />
  <path
     id="path9955"
     d="m 1961.9035,833.15909 c 6.5396,0 12.2201,3.3286 14.949,8.0552 l 222.4553,385.30211 c 3.3267,5.7613 3.7684,12.6305 0.3749,18.5083 -3.3027,5.7205 -9.1543,8.9356 -14.9303,8.9357 l -445.7163,0 c -5.776,0 -11.6274,-3.2151 -14.9304,-8.9357 -3.3935,-5.8778 -2.9516,-12.7464 0.3747,-18.5083 l 222.193,-384.89001 c 2.8883,-5.0026 8.6252,-8.4673 15.2301,-8.4673 z"
     style="fill:#d40000;fill-opacity:1;fill-rule:nonzero;stroke:none"
     inkscape:connector-curvature="0" />
  <path
     id="path9957"
     d="m 1961.8849,911.20109 170.2088,294.80261 -340.399,0 170.1902,-294.80261 z"
     style="fill:#ffffff;fill-opacity:1;fill-rule:nonzero;stroke:none"
     inkscape:connector-curvature="0" />
  <path
     id="path9959"
     d="m 1937.7034,1026.4963 c -12.3699,0 -22.7364,9.398 -23.7992,21.4506 -0.1385,1.5702 -0.7516,2.9193 -1.3308,4.3058 -6.662,8.776 -13.3187,20.0375 -12.1346,31.7062 0,0 5.9499,0.078 5.9499,0.078 1.0267,-5.3776 4.6386,-14.8805 11.3516,-17.6146 1.5545,-0.6332 2.7001,0.5099 3.4445,1.2526 5.0395,5.0276 11.4704,6.7593 16.5186,6.6544 8.4729,-0.1761 14.2255,-4.7526 19.8066,-10.5687 1.0791,-1.1245 2.9656,-2.469 4.6188,-2.1921 1.488,0.2493 2.6678,0.5075 3.523,1.5658 4.1729,5.1637 9.1919,7.7219 15.6573,8.3767 4.7141,0.1285 8.5946,-1.9121 12.2128,-4.619 1.9814,-1.4823 4.2685,-1.6789 6.5762,-2.1137 1.304,0 4.3633,0.7179 5.9498,1.3309 0.029,0.023 0.049,0.055 0.078,0.078 2.8687,2.3674 6.5577,3.7578 10.5688,3.7578 9.1676,0 16.5968,-7.4292 16.5968,-16.5969 0,-9.1676 -7.4292,-16.5968 -16.5968,-16.5968 -4.4801,0 -8.3414,1.97 -11.5083,4.6189 -1.4163,1.1846 -4.0492,2.0214 -5.2452,1.7224 -1.3709,-0.3427 -3.5065,-1.7985 -4.384,-2.6618 -4.0489,-3.9826 -8.6544,-6.0028 -14.2485,-6.4978 -5.4844,-0.039 -9.7417,2.4472 -13.7782,5.8715 -0.8357,0.7087 -3.3202,2.1293 -4.9323,1.4092 -1.6764,-0.749 -3.6673,-2.033 -4.0707,-2.6618 -4.9679,-7.7397 -11.9396,-11.0909 -20.8244,-12.0562 z m -45.3282,62.7078 0,6.1846 3.7579,17.0666 -17.4581,0 -10.5684,17.5362 10.5684,17.5363 125.7288,0 0,-35.0725 -9.003,0 0,-5.2452 -52.4521,0 0,5.2452 -34.7594,0 3.7577,-17.0666 0,-6.1846 -19.5718,0 z m 115.7864,17.6928 0,43.4492 -137.5502,0 0,14.8745 -12.9955,0 0,5.6367 10.6471,0 c -3.0297,1.8556 -5.0886,5.1923 -5.0886,9.003 0,5.8262 4.7423,10.5687 10.5686,10.5687 5.8263,0 10.5688,-4.7425 10.5688,-10.5687 0,-3.8297 -2.1121,-7.1531 -5.167,-9.003 l 15.4226,0 c -0.012,0.2072 0,0.4176 0,0.6263 0,10.4528 8.4142,18.9454 18.8671,18.9454 10.4527,0 18.9453,-8.4926 18.9453,-18.9454 0,-0.2087 0.012,-0.4192 0,-0.6263 l 4.0711,0 c -0.012,0.2072 0,0.4176 0,0.6263 0,10.4528 8.4924,18.9454 18.9453,18.9454 10.4528,0 18.9455,-8.4926 18.9455,-18.9454 0,-0.2099 -0.071,-0.4182 -0.078,-0.6263 l 5.4017,0 c -0.012,0.2139 -0.078,0.4111 -0.078,0.6263 0,10.4528 8.4928,18.9454 18.9455,18.9454 10.4528,0 18.9453,-8.4926 18.9453,-18.9454 0,-0.2152 -0.07,-0.4124 -0.078,-0.6263 l 16.3619,0 c -3.0549,1.8499 -5.0886,5.1733 -5.0886,9.003 0,5.8262 4.6642,10.5687 10.4906,10.5687 5.826,0 10.5685,-4.7425 10.5685,-10.5687 0,-3.8297 -2.0336,-7.1531 -5.0887,-9.003 l 21.5292,0 0,-5.6367 -48.6947,0 0,-3.9926 31.0015,0 0,-27.3221 -17.3796,0 0,-22.7032 27.3222,0 0,-4.3058 -50.2601,0 z"
     style="fill:#000000;fill-opacity:1;fill-rule:evenodd;stroke:none"
     inkscape:connector-curvature="0" />
  <rect
     style="fill:none;stroke:#ffffff;stroke-width:45;stroke-miterlimit:4;stroke-opacity:1;stroke-dasharray:none"
     id="rect9963"
     width="2910"
     height="1560"
     x="45"
     y="45"
     rx="157.53401"
     ry="157.53401" />
</svg>
