<?xml version="1.0" encoding="UTF-8" standalone="no"?>
<!-- Created with Inkscape (http://www.inkscape.org/) -->

<svg
   xmlns:dc="http://purl.org/dc/elements/1.1/"
   xmlns:cc="http://creativecommons.org/ns#"
   xmlns:rdf="http://www.w3.org/1999/02/22-rdf-syntax-ns#"
   xmlns:svg="http://www.w3.org/2000/svg"
   xmlns="http://www.w3.org/2000/svg"
   xmlns:sodipodi="http://sodipodi.sourceforge.net/DTD/sodipodi-0.dtd"
   xmlns:inkscape="http://www.inkscape.org/namespaces/inkscape"
   width="3500"
   height="2300"
   id="svg2"
   version="1.1"
   inkscape:version="0.48.5 r10040"
   sodipodi:docname="CANC Portale.svg">
  <defs
     id="defs4" />
  <sodipodi:namedview
     id="base"
     pagecolor="#ffffff"
     bordercolor="#666666"
     borderopacity="1.0"
     inkscape:pageopacity="0.0"
     inkscape:pageshadow="2"
     inkscape:zoom="0.08838835"
     inkscape:cx="4786.8645"
     inkscape:cy="1196.0938"
     inkscape:document-units="px"
     inkscape:current-layer="layer1"
     showgrid="false"
     showguides="true"
     inkscape:guide-bbox="true"
     inkscape:snap-midpoints="true"
     inkscape:object-paths="true"
     inkscape:snap-nodes="true"
     inkscape:object-nodes="true"
     inkscape:snap-intersection-paths="true"
     fit-margin-top="0"
     fit-margin-left="0"
     fit-margin-right="0"
     fit-margin-bottom="0"
     inkscape:window-width="1366"
     inkscape:window-height="705"
     inkscape:window-x="-8"
     inkscape:window-y="-8"
     inkscape:window-maximized="1" />
  <metadata
     id="metadata7">
    <rdf:RDF>
      <cc:Work
         rdf:about="">
        <dc:format>image/svg+xml</dc:format>
        <dc:type
           rdf:resource="http://purl.org/dc/dcmitype/StillImage" />
        <dc:title />
      </cc:Work>
    </rdf:RDF>
  </metadata>
  <g
     inkscape:label="Livello 1"
     inkscape:groupmode="layer"
     id="layer1"
     transform="translate(0,1247.6378)">
    <rect
       style="fill:#00408b;fill-opacity:1;stroke:none"
       id="rect3908"
       width="3500"
       height="2300"
       x="0"
       y="-1247.6378" />
    <g
       style="font-size:17.06962967px;font-style:normal;font-weight:normal;line-height:125%;letter-spacing:0px;word-spacing:0px;fill:#ffffff;fill-opacity:1;stroke:none;font-family:Sans"
       id="text3886"
       transform="matrix(10,0,0,10,0,-9471.2596)">
      <path
         d="m 127.07917,891.87718 c 0,-2.31012 0.75117,-4.01718 2.25351,-5.1212 1.04671,-0.76228 2.22452,-1.14342 3.53343,-1.14343 1.05816,10e-6 2.07657,0.3242 3.05522,0.97256 0.87618,0.56921 1.50771,1.23495 1.8946,1.99722 l -2.16757,1.07571 c -0.6147,-1.20645 -1.57632,-1.80968 -2.88487,-1.80969 -0.70569,10e-6 -1.27471,0.16515 -1.70707,0.4954 -0.46641,0.3525 -0.78504,0.68242 -0.9559,0.98976 -0.30734,0.53482 -0.46102,1.28582 -0.46101,2.25299 -1e-5,1.06998 0.0797,1.8439 0.2391,2.32176 0.17086,0.53482 0.5237,0.99566 1.05852,1.38253 0.6258,0.46675 1.28581,0.70012 1.98003,0.70012 0.81923,0 1.5276,-0.29024 2.12511,-0.87072 0.59749,-0.58048 0.89624,-1.24613 0.89625,-1.99696 l -3.17503,0 0,-2.1509 5.32592,0 0,6.84494 -2.09984,0 c -0.034,-0.10245 -0.10229,-0.26185 -0.20473,-0.47821 -1.01268,0.53482 -1.98003,0.80223 -2.90206,0.80222 -1.26307,10e-6 -2.4124,-0.36412 -3.448,-1.09237 -1.57041,-1.0922 -2.35561,-2.81611 -2.35561,-5.17173 z"
         style="font-variant:normal;font-stretch:normal;text-align:center;letter-spacing:0.87788504px;text-anchor:middle;fill:#ffffff;font-family:CodiceBianco;-inkscape-font-specification:CodiceBianco"
         id="path5985"
         inkscape:connector-curvature="0" />
      <path
         d="m 147.07599,885.80008 c 0.92168,10e-6 1.73537,0.33566 2.44105,1.00695 0.7397,0.70568 1.10956,1.57059 1.10957,2.59472 -1e-5,0.92169 -0.30735,1.7069 -0.92203,2.35561 -0.4553,0.48933 -1.00713,0.8479 -1.6555,1.07571 l 3.0896,4.96701 -2.69734,0 -2.95312,-4.76229 -1.79198,0 0,4.76229 -2.37281,0 0,-12 z m -3.37975,2.1337 0,2.9875 2.93593,0 c 0.30734,10e-6 0.60895,-0.14229 0.90484,-0.4269 0.29588,-0.28459 0.44382,-0.63734 0.44383,-1.05825 -1e-5,-0.42125 -0.14517,-0.77695 -0.43549,-1.06711 -0.29034,-0.29015 -0.60619,-0.43523 -0.94756,-0.43524 z"
         style="font-variant:normal;font-stretch:normal;text-align:center;letter-spacing:0.87788504px;text-anchor:middle;fill:#ffffff;font-family:CodiceBianco;-inkscape-font-specification:CodiceBianco"
         id="path5987"
         inkscape:connector-curvature="0" />
      <path
         d="m 156.73874,885.80008 3.44799,0 4.07936,12 -2.64578,0 -0.68241,-2.01441 -4.89928,0 -0.66574,2.01441 -2.56034,0 z m 1.72373,2.69682 -1.67268,5.05296 3.41413,0 z"
         style="font-variant:normal;font-stretch:normal;text-align:center;letter-spacing:0.87788504px;text-anchor:middle;fill:#ffffff;font-family:CodiceBianco;-inkscape-font-specification:CodiceBianco"
         id="path5989"
         inkscape:connector-curvature="0" />
      <path
         d="m 171.97432,885.64641 c 1.06963,1e-5 2.14499,0.41536 3.22608,1.24605 1.47942,1.13805 2.21913,2.7484 2.21914,4.83104 -1e-5,2.09377 -0.72844,3.70968 -2.18528,4.84772 -1.06963,0.8307 -2.15628,1.24605 -3.25994,1.24605 l -5.1212,0 0,-12.17086 z m -0.18805,2.18527 -2.38948,0 0,7.74926 2.253,0 c 0.93314,10e-6 1.68414,-0.31289 2.25299,-0.9387 0.61468,-0.68275 0.92203,-1.65566 0.92204,-2.91874 -10e-6,-1.37696 -0.35285,-2.40683 -1.05852,-3.08959 -0.54628,-0.53481 -1.20629,-0.80222 -1.98003,-0.80223 z"
         style="font-variant:normal;font-stretch:normal;text-align:center;letter-spacing:0.87788504px;text-anchor:middle;fill:#ffffff;font-family:CodiceBianco;-inkscape-font-specification:CodiceBianco"
         id="path5991"
         inkscape:connector-curvature="0" />
      <path
         d="m 182.6586,885.80008 0,12 -2.47491,0 0,-12 z"
         style="font-variant:normal;font-stretch:normal;text-align:center;letter-spacing:0.87788504px;text-anchor:middle;fill:#ffffff;font-family:CodiceBianco;-inkscape-font-specification:CodiceBianco"
         id="path5993"
         inkscape:connector-curvature="0" />
      <path
         d="m 190.63459,885.71465 c 2.08265,10e-6 3.85222,0.65446 5.30874,1.96336 l -1.77531,1.51901 c -0.35285,-0.30733 -0.79095,-0.58047 -1.31429,-0.81941 -0.64873,-0.30733 -1.27454,-0.46101 -1.87741,-0.46102 -0.33027,10e-6 -0.64335,0.0512 -0.93923,0.15368 -0.69422,0.22782 -1.01285,0.66592 -0.95589,1.31429 0.0229,0.26186 0.25056,0.47821 0.68293,0.64907 0.38687,0.15906 1.16061,0.36378 2.32123,0.61417 2.43549,0.52371 3.65323,1.72426 3.65324,3.60166 -1e-5,1.14951 -0.45234,2.07415 -1.357,2.77392 -0.90468,0.69978 -2.13667,1.04966 -3.69596,1.04966 -1.2971,0 -2.53169,-0.3471 -3.70377,-1.04132 -0.73971,-0.42091 -1.35995,-0.91578 -1.86074,-1.48464 l 2.08266,-1.57058 c 0.19343,0.29589 0.59176,0.61452 1.195,0.95589 0.80777,0.45529 1.64403,0.68867 2.50877,0.70013 0.59176,0.0111 1.06979,-0.10566 1.4341,-0.35033 0.36429,-0.24465 0.54644,-0.56042 0.54645,-0.9473 -1e-5,-0.44382 -0.28461,-0.79093 -0.8538,-1.04132 -0.35284,-0.15905 -0.97873,-0.33252 -1.87767,-0.5204 -0.89894,-0.18788 -1.50764,-0.35579 -1.82609,-0.50374 -0.55774,-0.25038 -0.94479,-0.4723 -1.16114,-0.66574 -0.60289,-0.53481 -0.90433,-1.24031 -0.90433,-2.11651 0,-1.28598 0.47213,-2.26462 1.41639,-2.93593 0.78521,-0.55772 1.76958,-0.83659 2.95312,-0.8366 z"
         style="font-variant:normal;font-stretch:normal;text-align:center;letter-spacing:0.87788504px;text-anchor:middle;fill:#ffffff;font-family:CodiceBianco;-inkscape-font-specification:CodiceBianco"
         id="path5995"
         inkscape:connector-curvature="0" />
      <path
         d="m 197.96099,891.91104 c 0,-2.25316 0.71697,-3.94304 2.1509,-5.06963 1.04705,-0.81923 2.25334,-1.22885 3.61886,-1.22886 1.25159,10e-6 2.37245,0.33852 3.36256,1.01554 0.99009,0.67704 1.69004,1.62434 2.09984,2.8419 l -2.37281,0.93922 c -0.13649,-0.7397 -0.4921,-1.34284 -1.06685,-1.80943 -0.57476,-0.46656 -1.23772,-0.69985 -1.98888,-0.69986 -0.47787,1e-5 -0.93871,0.10229 -1.38254,0.30683 -1.27453,0.58066 -1.8946,1.79841 -1.86021,3.65324 0.0226,0.97864 0.13908,1.69552 0.34954,2.15063 0.21044,0.45512 0.62875,0.88757 1.2549,1.29736 0.45494,0.30735 0.95554,0.46102 1.50182,0.46102 0.77409,0 1.48541,-0.27027 2.13397,-0.81082 0.64854,-0.54054 1.01258,-1.14664 1.09211,-1.81828 l 2.33895,0.95589 c -0.17087,0.67165 -0.60341,1.37733 -1.29762,2.11704 -1.11513,1.17207 -2.51485,1.75811 -4.19917,1.75811 -1.27453,0 -2.41813,-0.34711 -3.4308,-1.04132 -1.53638,-1.04706 -2.30457,-2.71992 -2.30457,-5.01858 z"
         style="font-variant:normal;font-stretch:normal;text-align:center;letter-spacing:0.87788504px;text-anchor:middle;fill:#ffffff;font-family:CodiceBianco;-inkscape-font-specification:CodiceBianco"
         id="path5997"
         inkscape:connector-curvature="0" />
      <path
         d="m 214.83748,885.80008 3.448,0 4.07935,12 -2.64577,0 -0.68241,-2.01441 -4.89929,0 -0.66574,2.01441 -2.56034,0 z m 1.72374,2.69682 -1.67269,5.05296 3.41414,0 z"
         style="font-variant:normal;font-stretch:normal;text-align:center;letter-spacing:0.87788504px;text-anchor:middle;fill:#ffffff;font-family:CodiceBianco;-inkscape-font-specification:CodiceBianco"
         id="path5999"
         inkscape:connector-curvature="0" />
    </g>
    <g
       style="font-size:28.44938278px;font-style:normal;font-weight:normal;line-height:125%;letter-spacing:0px;word-spacing:0px;fill:#ffffff;fill-opacity:1;stroke:none;font-family:Sans"
       id="text3882"
       transform="matrix(10,0,0,10,0,-9471.2596)">
      <path
         d="m 114.97628,856.99897 c 0,-3.85019 1.25196,-6.6953 3.75586,-8.53534 1.74451,-1.27045 3.70753,-1.90569 5.88905,-1.90571 1.7636,2e-5 3.46094,0.54033 5.09203,1.62094 1.4603,0.94868 2.51286,2.05825 3.15766,3.3287 l -3.6126,1.79285 c -1.0245,-2.01075 -2.62721,-3.01613 -4.80813,-3.01615 -1.17614,2e-5 -2.12451,0.27524 -2.84511,0.82567 -0.77734,0.5875 -1.30839,1.13736 -1.59316,1.64959 -0.51225,0.89137 -0.76837,2.14303 -0.76836,3.75499 -1e-5,1.7833 0.13283,3.07317 0.39851,3.86959 0.28476,0.89137 0.87283,1.65944 1.76419,2.30422 1.043,0.77792 2.14301,1.16688 3.30005,1.16687 1.36539,10e-6 2.546,-0.48373 3.54185,-1.4512 0.99582,-0.96747 1.49373,-2.07689 1.49375,-3.32827 l -5.29172,0 0,-3.58483 8.87654,0 0,11.40823 -3.49974,0 c -0.0567,-0.17074 -0.17047,-0.43641 -0.3412,-0.79701 -1.68781,0.89136 -3.30007,1.33704 -4.83678,1.33704 -2.10512,0 -4.02067,-0.60688 -5.74666,-1.82063 -2.61735,-1.82033 -3.92603,-4.69352 -3.92603,-8.61955 z"
         style="font-variant:normal;font-stretch:normal;text-align:center;letter-spacing:0.66190571px;text-anchor:middle;fill:#ffffff;font-family:CodiceBianco;-inkscape-font-specification:CodiceBianco"
         id="path6002"
         inkscape:connector-curvature="0" />
      <path
         d="m 156.37877,856.74285 c -2e-5,3.20484 -0.91974,5.76518 -2.75916,7.68102 -1.76363,1.82092 -4.03949,2.73138 -6.82758,2.73138 -2.7881,0 -5.0547,-0.91046 -6.79979,-2.73138 -1.83944,-1.91584 -2.75916,-4.47618 -2.75916,-7.68102 0,-3.12958 1.01464,-5.64275 3.04393,-7.53951 1.82092,-1.68777 3.99259,-2.53166 6.51502,-2.53168 2.52242,2e-5 4.69409,0.84391 6.51502,2.53168 2.04779,1.89676 3.0717,4.40993 3.07172,7.53951 z m -4.38097,0 c -2e-5,-1.87763 -0.47883,-3.37601 -1.43645,-4.49514 -0.95764,-1.1191 -2.21408,-1.67866 -3.76932,-1.67868 -1.55525,2e-5 -2.80228,0.55958 -3.7411,1.67868 -0.93882,1.11913 -1.40823,2.61751 -1.40823,4.49514 0,1.95347 0.39821,3.48007 1.19466,4.57979 0.89135,1.25195 2.20957,1.87793 3.95467,1.87793 1.76361,0 3.09109,-0.62598 3.98247,-1.87793 0.81552,-1.11882 1.22328,-2.64542 1.2233,-4.57979 z"
         style="font-variant:normal;font-stretch:normal;text-align:center;letter-spacing:0.66190571px;text-anchor:middle;fill:#ffffff;font-family:CodiceBianco;-inkscape-font-specification:CodiceBianco"
         id="path6004"
         inkscape:connector-curvature="0" />
      <path
         d="m 170.05769,846.87047 c 1.53613,3e-5 2.89227,0.55944 4.06841,1.67825 1.23284,1.17615 1.84927,2.61766 1.84928,4.32453 -1e-5,1.53616 -0.51226,2.84484 -1.53672,3.92603 -0.75883,0.81555 -1.67855,1.41316 -2.75916,1.79285 l 5.14933,8.27834 -4.49557,0 -4.92186,-7.93714 -2.98663,0 0,7.93714 -3.95468,0 0,-20 z m -5.63292,3.55618 0,4.97916 4.89321,0 c 0.51223,10e-6 1.01492,-0.23715 1.50807,-0.71149 0.49313,-0.47432 0.7397,-1.06224 0.73971,-1.76377 -1e-5,-0.70207 -0.24195,-1.29491 -0.72582,-1.77852 -0.48389,-0.48357 -1.01031,-0.72537 -1.57926,-0.72538 z"
         style="font-variant:normal;font-stretch:normal;text-align:center;letter-spacing:0.66190571px;text-anchor:middle;fill:#ffffff;font-family:CodiceBianco;-inkscape-font-specification:CodiceBianco"
         id="path6006"
         inkscape:connector-curvature="0" />
      <path
         d="m 184.90522,846.87047 0,20 -4.12485,0 0,-20 z"
         style="font-variant:normal;font-stretch:normal;text-align:center;letter-spacing:0.66190571px;text-anchor:middle;fill:#ffffff;font-family:CodiceBianco;-inkscape-font-specification:CodiceBianco"
         id="path6008"
         inkscape:connector-curvature="0" />
      <path
         d="m 189.34643,846.87047 14.0823,0 0,3.44244 -9.27418,12.63154 9.61539,0 0,3.92602 -14.70828,0 0,-3.98246 8.90519,-12.31898 -8.62042,0 z"
         style="font-variant:normal;font-stretch:normal;text-align:center;letter-spacing:0.66190571px;text-anchor:middle;fill:#ffffff;font-family:CodiceBianco;-inkscape-font-specification:CodiceBianco"
         id="path6010"
         inkscape:connector-curvature="0" />
      <path
         d="m 212.73363,846.87047 0,20 -4.12485,0 0,-20 z"
         style="font-variant:normal;font-stretch:normal;text-align:center;letter-spacing:0.66190571px;text-anchor:middle;fill:#ffffff;font-family:CodiceBianco;-inkscape-font-specification:CodiceBianco"
         id="path6012"
         inkscape:connector-curvature="0" />
      <path
         d="m 222.35282,846.87047 5.74665,0 6.79893,20 -4.40962,0 -1.13735,-3.35735 -8.16548,0 -1.10957,3.35735 -4.26723,0 z m 2.87289,4.49471 -2.78781,8.4216 5.69022,0 z"
         style="font-variant:normal;font-stretch:normal;text-align:center;letter-spacing:0.66190571px;text-anchor:middle;fill:#ffffff;font-family:CodiceBianco;-inkscape-font-specification:CodiceBianco"
         id="path6014"
         inkscape:connector-curvature="0" />
    </g>
    <g
       style="font-size:17.06962967px;font-style:normal;font-weight:normal;line-height:125%;letter-spacing:0px;word-spacing:0px;fill:#ffffff;fill-opacity:1;stroke:none;font-family:Sans"
       id="text3886-5"
       transform="matrix(10,0,0,10,0,-9471.2596)">
      <path
         d="m 21.99169,1003.1397 c -10e-7,-2.3101 0.75117,-4.01713 2.253516,-5.12115 1.046705,-0.76227 2.224513,-1.14342 3.533426,-1.14343 1.058162,10e-6 2.076567,0.3242 3.055218,0.97257 0.876183,0.5692 1.507716,1.23494 1.894599,1.99722 l -2.167563,1.07569 c -0.614699,-1.20643 -1.576323,-1.80966 -2.884876,-1.80967 -0.705684,10e-6 -1.274706,0.16514 -1.707067,0.49539 -0.466405,0.35251 -0.785036,0.68238 -0.955895,0.98978 -0.307349,0.5348 -0.461021,1.2858 -0.461018,2.253 -3e-6,1.07 0.0797,1.8439 0.239104,2.3217 0.170859,0.5349 0.523698,0.9957 1.058517,1.3826 0.625798,0.4667 1.285808,0.7001 1.980031,0.7001 0.819232,0 1.527601,-0.2903 2.125109,-0.8707 0.59749,-0.5805 0.89624,-1.2462 0.896249,-1.997 l -3.17503,0 0,-2.1509 5.325924,0 0,6.8449 -2.099843,0 c -0.03404,-0.1024 -0.102285,-0.2618 -0.204723,-0.4782 -1.012685,0.5349 -1.980039,0.8023 -2.902067,0.8023 -1.263071,0 -2.412402,-0.3642 -3.447994,-1.0924 -1.570413,-1.0922 -2.355618,-2.8161 -2.355617,-5.1718 z"
         style="font-variant:normal;font-stretch:normal;letter-spacing:0.80000001px;fill:#ffffff;font-family:CodiceBianco;-inkscape-font-specification:CodiceBianco"
         id="path5923"
         inkscape:connector-curvature="0" />
      <path
         d="m 44.351682,997.06265 0,2.16809 -5.820802,0 0,2.57756 5.223302,0 0,2.1675 -5.206112,0 0,2.7656 6.401112,0 0,2.3213 -8.859351,0 0,-12.00005 z"
         style="font-variant:normal;font-stretch:normal;letter-spacing:0.80000001px;fill:#ffffff;font-family:CodiceBianco;-inkscape-font-specification:CodiceBianco"
         id="path5925"
         inkscape:connector-curvature="0" />
      <path
         d="m 50.808914,997.06265 3.328703,4.66015 3.362563,-4.66015 2.782254,0 0,12.00005 -2.389477,0 0,-8.3812 -3.75534,5.0525 -3.720958,-5.0525 0,8.3812 -2.389998,0 0,-12.00005 z"
         style="font-variant:normal;font-stretch:normal;letter-spacing:0.80000001px;fill:#ffffff;font-family:CodiceBianco;-inkscape-font-specification:CodiceBianco"
         id="path5927"
         inkscape:connector-curvature="0" />
      <path
         d="m 74.507158,1002.9861 c -1.2e-5,1.9229 -0.551844,3.4591 -1.655496,4.6086 -1.058179,1.0925 -2.423693,1.6388 -4.096544,1.6388 -1.672865,0 -3.032822,-0.5463 -4.079875,-1.6388 -1.103665,-1.1495 -1.655497,-2.6857 -1.655496,-4.6086 -1e-6,-1.8778 0.608785,-3.38567 1.826359,-4.52372 1.092547,-1.01267 2.39555,-1.51901 3.909012,-1.51902 1.513449,10e-6 2.816451,0.50635 3.909012,1.51902 1.228673,1.13805 1.843016,2.64592 1.843028,4.52372 z m -2.628581,0 c -1e-5,-1.1266 -0.287299,-2.0256 -0.861869,-2.6971 -0.574587,-0.67147 -1.32845,-1.0072 -2.26159,-1.00721 -0.933154,10e-6 -1.681373,0.33574 -2.244661,1.00721 -0.563296,0.6715 -0.844942,1.5705 -0.844938,2.6971 -4e-6,1.1721 0.238927,2.088 0.716791,2.7479 0.53481,0.7511 1.325745,1.1267 2.372808,1.1267 1.058162,0 1.854654,-0.3756 2.389477,-1.1267 0.489312,-0.6713 0.733972,-1.5873 0.733982,-2.7479 z"
         style="font-variant:normal;font-stretch:normal;letter-spacing:0.80000001px;fill:#ffffff;font-family:CodiceBianco;-inkscape-font-specification:CodiceBianco"
         id="path5929"
         inkscape:connector-curvature="0" />
      <path
         d="m 88.477154,1009.0627 -2.799444,0 -5.803611,-8.3129 0,8.3129 -2.389999,0 0,-12.00005 2.799445,0 5.804132,8.36395 0,-8.36395 2.389477,0 z"
         style="font-variant:normal;font-stretch:normal;letter-spacing:0.80000001px;fill:#ffffff;font-family:CodiceBianco;-inkscape-font-specification:CodiceBianco"
         id="path5931"
         inkscape:connector-curvature="0" />
      <path
         d="m 94.669234,997.06265 3.447994,0 4.079352,12.00005 -2.645769,0 -0.682411,-2.0145 -4.899287,0 -0.665741,2.0145 -2.56034,0 z m 1.723737,2.69683 -1.672686,5.05292 3.414134,0 z"
         style="font-variant:normal;font-stretch:normal;letter-spacing:0.80000001px;fill:#ffffff;font-family:CodiceBianco;-inkscape-font-specification:CodiceBianco"
         id="path5933"
         inkscape:connector-curvature="0" />
    </g>
    <g
       style="font-size:28.44938278px;font-style:normal;font-weight:normal;line-height:125%;letter-spacing:0px;word-spacing:0px;fill:#ffffff;fill-opacity:1;stroke:none;font-family:Sans"
       id="text3882-1"
       transform="matrix(10,0,0,10,0,-9471.2596)">
      <path
         d="m 22.56055,958.13311 4.097065,0 0,12.17659 c -6e-6,0.85317 0.322388,1.69706 0.967182,2.53169 0.834628,1.06211 1.953744,1.59316 3.357353,1.59316 1.384488,0 2.493765,-0.53105 3.327835,-1.59316 0.682975,-0.83463 1.024469,-1.67852 1.024483,-2.53169 l 0,-12.17659 4.097066,0 0,12.54645 c -1.9e-5,2.27586 -0.920027,4.20096 -2.760028,5.77531 -1.706908,1.44122 -3.594097,2.16183 -5.661573,2.16183 -2.142741,0 -4.086653,-0.7918 -5.831741,-2.37541 -1.745098,-1.58361 -2.617644,-3.44707 -2.617642,-5.59038 z"
         style="font-variant:normal;font-stretch:normal;letter-spacing:1px;fill:#ffffff;font-family:CodiceBianco;-inkscape-font-specification:CodiceBianco"
         id="path5936"
         inkscape:connector-curvature="0" />
      <path
         d="m 53.02226,957.87699 c 1.782704,2e-5 3.57497,0.69227 5.376801,2.07675 2.465688,1.89676 3.698539,4.58067 3.698559,8.05174 -2e-5,3.48962 -1.21406,6.18279 -3.642125,8.07953 -1.782731,1.3845 -3.593808,2.07675 -5.433235,2.07675 l -8.535336,0 0,-20.28477 z m -0.313422,3.64212 -3.982462,0 0,12.91544 3.754992,0 c 1.555235,0 2.806897,-0.5215 3.754992,-1.56451 1.024468,-1.13792 1.536709,-2.75944 1.536725,-4.86456 -1.6e-5,-2.29494 -0.58808,-4.01138 -1.764195,-5.14933 -0.910472,-0.89134 -2.010488,-1.33702 -3.300052,-1.33704 z"
         style="font-variant:normal;font-stretch:normal;letter-spacing:1px;fill:#ffffff;font-family:CodiceBianco;-inkscape-font-specification:CodiceBianco"
         id="path5938"
         inkscape:connector-curvature="0" />
      <path
         d="m 70.366242,958.13311 0,20 -4.124848,0 0,-20 z"
         style="font-variant:normal;font-stretch:normal;letter-spacing:1px;fill:#ffffff;font-family:CodiceBianco;-inkscape-font-specification:CodiceBianco"
         id="path5940"
         inkscape:connector-curvature="0" />
      <path
         d="m 94.007325,978.13311 -4.66574,0 -9.672686,-13.85484 0,13.85484 -3.983331,0 0,-20 4.665741,0 9.673554,13.93992 0,-13.93992 3.982462,0 z"
         style="font-variant:normal;font-stretch:normal;letter-spacing:1px;fill:#ffffff;font-family:CodiceBianco;-inkscape-font-specification:CodiceBianco"
         id="path5942"
         inkscape:connector-curvature="0" />
      <path
         d="m 112.81337,958.13311 0,3.61347 -9.70134,0 0,4.29589 8.70551,0 0,3.6126 -8.67686,0 0,4.60931 10.66852,0 0,3.86873 -14.765581,0 0,-20 z"
         style="font-variant:normal;font-stretch:normal;letter-spacing:1px;fill:#ffffff;font-family:CodiceBianco;-inkscape-font-specification:CodiceBianco"
         id="path5944"
         inkscape:connector-curvature="0" />
    </g>
    <g
       style="font-size:17.06962967px;font-style:normal;font-weight:normal;line-height:125%;letter-spacing:0px;word-spacing:0px;fill:#ffffff;fill-opacity:1;stroke:none;font-family:Sans"
       id="text5513"
       transform="matrix(10,0,0,10,0,-9471.2596)">
      <path
         d="m 243.63069,966.13309 c 0.92168,10e-6 1.73536,0.33566 2.44105,1.00694 0.7397,0.70569 1.10956,1.5706 1.10957,2.59472 -1e-5,0.9217 -0.30736,1.70691 -0.92204,2.35562 -0.45529,0.48933 -1.00713,0.8479 -1.65549,1.07571 l 3.0896,4.96701 -2.69735,0 -2.95311,-4.76229 -1.79198,0 0,4.76229 -2.37281,0 0,-12 z m -3.37975,2.1337 0,2.9875 2.93592,0 c 0.30734,10e-6 0.60896,-0.14229 0.90485,-0.4269 0.29588,-0.28459 0.44382,-0.63734 0.44383,-1.05825 -1e-5,-0.42125 -0.14518,-0.77695 -0.4355,-1.06712 -0.29033,-0.29014 -0.60619,-0.43522 -0.94756,-0.43523 z"
         style="font-variant:normal;font-stretch:normal;letter-spacing:0.25px;fill:#ffffff;font-family:CodiceBianco;-inkscape-font-specification:CodiceBianco"
         id="path5968"
         inkscape:connector-curvature="0" />
      <path
         d="m 260.84145,972.05651 c -1e-5,1.92291 -0.55185,3.45911 -1.6555,4.60861 -1.05818,1.09256 -2.42369,1.63883 -4.09654,1.63883 -1.67287,0 -3.03282,-0.54627 -4.07988,-1.63883 -1.10366,-1.1495 -1.65549,-2.6857 -1.65549,-4.60861 0,-1.87775 0.60878,-3.38565 1.82636,-4.5237 1.09254,-1.01266 2.39555,-1.519 3.90901,-1.51901 1.51345,1e-5 2.81645,0.50635 3.90901,1.51901 1.22867,1.13805 1.84302,2.64595 1.84303,4.5237 z m -2.62858,0 c -1e-5,-1.12657 -0.2873,-2.0256 -0.86187,-2.69708 -0.57459,-0.67146 -1.32845,-1.0072 -2.26159,-1.00721 -0.93316,10e-6 -1.68138,0.33575 -2.24466,1.00721 -0.5633,0.67148 -0.84495,1.57051 -0.84494,2.69708 -1e-5,1.17209 0.23893,2.08804 0.71679,2.74787 0.53481,0.75118 1.32575,1.12677 2.37281,1.12676 1.05816,10e-6 1.85465,-0.37558 2.38947,-1.12676 0.48932,-0.67129 0.73398,-1.58724 0.73399,-2.74787 z"
         style="font-variant:normal;font-stretch:normal;letter-spacing:0.25px;fill:#ffffff;font-family:CodiceBianco;-inkscape-font-specification:CodiceBianco"
         id="path5970"
         inkscape:connector-curvature="0" />
      <path
         d="m 274.26144,978.13309 -2.79944,0 -5.80361,-8.3129 0,8.3129 -2.39,0 0,-12 2.79944,0 5.80413,8.36395 0,-8.36395 2.38948,0 z"
         style="font-variant:normal;font-stretch:normal;letter-spacing:0.25px;fill:#ffffff;font-family:CodiceBianco;-inkscape-font-specification:CodiceBianco"
         id="path5972"
         inkscape:connector-curvature="0" />
      <path
         d="m 276.54044,972.24404 c 0,-2.25316 0.71696,-3.94303 2.1509,-5.06963 1.04705,-0.81922 2.25333,-1.22884 3.61885,-1.22885 1.2516,10e-6 2.37245,0.33852 3.36257,1.01554 0.99009,0.67703 1.69003,1.62433 2.09984,2.8419 l -2.37281,0.93922 c -0.13649,-0.7397 -0.49211,-1.34284 -1.06685,-1.80943 -0.57476,-0.46656 -1.23772,-0.69985 -1.98889,-0.69986 -0.47786,10e-6 -0.93871,0.10229 -1.38253,0.30683 -1.27453,0.58066 -1.8946,1.79841 -1.86022,3.65323 0.0226,0.97865 0.13909,1.69553 0.34954,2.15064 0.21045,0.45512 0.62875,0.88757 1.25491,1.29736 0.45493,0.30735 0.95554,0.46102 1.50182,0.46102 0.77409,0 1.48541,-0.27027 2.13397,-0.81082 0.64854,-0.54054 1.01257,-1.14664 1.09211,-1.81829 l 2.33895,0.9559 c -0.17088,0.67165 -0.60342,1.37732 -1.29762,2.11703 -1.11514,1.17208 -2.51486,1.75812 -4.19917,1.75812 -1.27453,0 -2.41813,-0.34711 -3.4308,-1.04133 -1.53638,-1.04705 -2.30457,-2.71991 -2.30457,-5.01858 z"
         style="font-variant:normal;font-stretch:normal;letter-spacing:0.25px;fill:#ffffff;font-family:CodiceBianco;-inkscape-font-specification:CodiceBianco"
         id="path5974"
         inkscape:connector-curvature="0" />
      <path
         d="m 289.93803,966.1159 2.42386,0 0,4.47265 5.25769,0 0,-4.47265 2.42385,0 0,12.03438 -2.42385,0 0,-5.10401 -5.25769,0 0,5.10401 -2.42386,0 z"
         style="font-variant:normal;font-stretch:normal;letter-spacing:0.25px;fill:#ffffff;font-family:CodiceBianco;-inkscape-font-specification:CodiceBianco"
         id="path5976"
         inkscape:connector-curvature="0" />
      <path
         d="m 305.50111,966.13309 0,12 -2.47491,0 0,-12 z"
         style="font-variant:normal;font-stretch:normal;letter-spacing:0.25px;fill:#ffffff;font-family:CodiceBianco;-inkscape-font-specification:CodiceBianco"
         id="path5978"
         inkscape:connector-curvature="0" />
      <path
         d="m 316.66337,975.96552 5.51346,0 0,2.16757 -7.86907,0 0,-12 2.35561,0 z"
         style="font-variant:normal;font-stretch:normal;letter-spacing:0.25px;fill:#ffffff;font-family:CodiceBianco;-inkscape-font-specification:CodiceBianco"
         id="path5980"
         inkscape:connector-curvature="0" />
      <path
         d="m 324.73817,975.72642 c 0.37541,0 0.68276,0.14221 0.92204,0.42664 0.19343,0.23893 0.29015,0.49505 0.29015,0.76836 0,0.32992 -0.12806,0.6087 -0.38418,0.83634 -0.25612,0.22765 -0.53212,0.34147 -0.82801,0.34147 -0.31846,0 -0.60001,-0.11669 -0.84467,-0.35006 -0.24466,-0.23338 -0.36699,-0.50929 -0.36699,-0.82775 0,-0.33026 0.1166,-0.612 0.3498,-0.8452 0.2332,-0.2332 0.52048,-0.3498 0.86186,-0.3498 z"
         style="font-variant:normal;font-stretch:normal;letter-spacing:0.25px;fill:#ffffff;font-family:CodiceBianco;-inkscape-font-specification:CodiceBianco"
         id="path5982"
         inkscape:connector-curvature="0" />
    </g>
    <g
       style="font-size:17.21686554px;font-style:normal;font-weight:normal;line-height:125%;letter-spacing:0px;word-spacing:0px;fill:#ffffff;fill-opacity:1;stroke:none;font-family:Sans"
       id="text5517"
       transform="matrix(10,0,0,10,0,-9471.2596)">
      <path
         d="m 237.87791,997.0626 2.42743,0 1.48063,4.0804 1.41179,-4.0804 2.5136,0 0,12 -2.46211,0 0,-7.1966 -1.44595,4.115 -1.46328,-4.0804 0,7.162 -2.46211,0 z"
         style="font-variant:normal;font-stretch:normal;letter-spacing:0.2px;fill:#ffffff;font-family:CodiceBiancoCondensed;-inkscape-font-specification:CodiceBiancoCondensed"
         id="path5947"
         inkscape:connector-curvature="0" />
      <path
         d="m 251.19442,996.94228 c 0.91808,10e-6 1.71006,0.42472 2.37594,1.27413 0.83786,1.09043 1.25679,2.69729 1.2568,4.82069 -1e-5,2.1462 -0.40178,3.7702 -1.20531,4.8722 -0.64276,0.9069 -1.44052,1.3603 -2.39327,1.3603 -0.9983,0 -1.83616,-0.5223 -2.5136,-1.5668 -0.74609,-1.1594 -1.11914,-2.732 -1.11914,-4.7177 0,-1.9742 0.36727,-3.50645 1.1018,-4.59688 0.65432,-0.96395 1.48658,-1.44593 2.49678,-1.44594 z m -1.11913,6.02602 c -1e-5,2.6169 0.38442,3.9254 1.15329,3.9254 0.74608,0 1.11913,-1.3085 1.11913,-3.9254 0,-2.571 -0.38443,-3.85657 -1.15329,-3.85658 -0.74609,10e-6 -1.11914,1.28558 -1.11913,3.85658 z"
         style="font-variant:normal;font-stretch:normal;letter-spacing:0.2px;fill:#ffffff;font-family:CodiceBiancoCondensed;-inkscape-font-specification:CodiceBiancoCondensed"
         id="path5949"
         inkscape:connector-curvature="0" />
      <path
         d="m 263.45485,1009.0626 -2.46158,0 -1.75647,-6.129 0,6.129 -2.46211,0 0,-12 2.46211,0 1.77328,6.0602 0,-6.0602 2.44477,0 z"
         style="font-variant:normal;font-stretch:normal;letter-spacing:0.2px;fill:#ffffff;font-family:CodiceBiancoCondensed;-inkscape-font-specification:CodiceBiancoCondensed"
         id="path5951"
         inkscape:connector-curvature="0" />
      <path
         d="m 265.8637,997.0111 4.94155,0 0,1.92829 -2.53094,0 0,2.99541 2.11743,0 0,1.8941 -2.11743,0 0,5.2337 -2.41061,0 z"
         style="font-variant:normal;font-stretch:normal;letter-spacing:0.2px;fill:#ffffff;font-family:CodiceBiancoCondensed;-inkscape-font-specification:CodiceBiancoCondensed"
         id="path5953"
         inkscape:connector-curvature="0" />
      <path
         d="m 277.33915,997.13143 1.92828,11.93117 -2.54775,0 -0.30999,-2.3586 -1.75594,0 -0.34468,2.3586 -2.49625,0 2.0486,-11.93117 z m -1.75594,3.01327 -0.67149,4.7345 1.27414,0 z"
         style="font-variant:normal;font-stretch:normal;letter-spacing:0.2px;fill:#ffffff;font-family:CodiceBiancoCondensed;-inkscape-font-specification:CodiceBiancoCondensed"
         id="path5955"
         inkscape:connector-curvature="0" />
      <path
         d="m 280.99639,997.04526 2.42743,0 0,10.14104 2.25562,0 0,1.9457 -4.68305,0 z"
         style="font-variant:normal;font-stretch:normal;letter-spacing:0.2px;fill:#ffffff;font-family:CodiceBiancoCondensed;-inkscape-font-specification:CodiceBiancoCondensed"
         id="path5957"
         inkscape:connector-curvature="0" />
      <path
         d="m 290.4968,996.99377 c 1.27396,10e-6 2.21515,0.70599 2.82359,2.11795 0.25254,0.59654 0.42471,1.30808 0.51649,2.13478 l -2.10062,0.2238 c -0.0918,-1.4578 -0.51071,-2.18676 -1.2568,-2.18677 -0.87219,10e-6 -1.30829,1.21097 -1.30829,3.63277 0,2.7202 0.44188,4.0919 1.32563,4.115 0.67708,0.012 1.12474,-0.7287 1.34297,-2.2209 l 2.0486,0.6368 c -0.14923,0.7345 -0.3615,1.3659 -0.63681,1.8941 -0.66588,1.274 -1.58992,1.911 -2.7721,1.911 -1.17063,0 -2.10027,-0.6543 -2.78891,-1.963 -0.61999,-1.1822 -0.92999,-2.6169 -0.92999,-4.3042 0,-1.5034 0.29844,-2.829 0.89531,-3.97689 0.7002,-1.34295 1.64718,-2.01443 2.84093,-2.01444 z"
         style="font-variant:normal;font-stretch:normal;letter-spacing:0.2px;fill:#ffffff;font-family:CodiceBiancoCondensed;-inkscape-font-specification:CodiceBiancoCondensed"
         id="path5959"
         inkscape:connector-curvature="0" />
      <path
         d="m 298.90014,996.94228 c 0.91807,10e-6 1.71005,0.42472 2.37593,1.27413 0.83786,1.09043 1.25679,2.69729 1.2568,4.82069 -10e-6,2.1462 -0.40177,3.7702 -1.2053,4.8722 -0.64277,0.9069 -1.44053,1.3603 -2.39328,1.3603 -0.99829,0 -1.83616,-0.5223 -2.51359,-1.5668 -0.7461,-1.1594 -1.11914,-2.732 -1.11914,-4.7177 0,-1.9742 0.36726,-3.50645 1.1018,-4.59688 0.65431,-0.96395 1.48657,-1.44593 2.49678,-1.44594 z m -1.11914,6.02602 c 0,2.6169 0.38443,3.9254 1.15329,3.9254 0.74609,0 1.11913,-1.3085 1.11914,-3.9254 -10e-6,-2.571 -0.38444,-3.85657 -1.15329,-3.85658 -0.7461,10e-6 -1.11914,1.28558 -1.11914,3.85658 z"
         style="font-variant:normal;font-stretch:normal;letter-spacing:0.2px;fill:#ffffff;font-family:CodiceBiancoCondensed;-inkscape-font-specification:CodiceBiancoCondensed"
         id="path5961"
         inkscape:connector-curvature="0" />
      <path
         d="m 311.16056,1009.0626 -2.46158,0 -1.75647,-6.129 0,6.129 -2.4621,0 0,-12 2.4621,0 1.77328,6.0602 0,-6.0602 2.44477,0 z"
         style="font-variant:normal;font-stretch:normal;letter-spacing:0.2px;fill:#ffffff;font-family:CodiceBiancoCondensed;-inkscape-font-specification:CodiceBiancoCondensed"
         id="path5963"
         inkscape:connector-curvature="0" />
      <path
         d="m 318.63128,997.04526 0,1.87679 -2.44476,0 0,2.96125 2.04912,0 0,1.9283 -2.06646,0 0,3.3227 2.9271,0 0,1.9283 -5.37187,0 0,-12.01734 z"
         style="font-variant:normal;font-stretch:normal;letter-spacing:0.2px;fill:#ffffff;font-family:CodiceBiancoCondensed;-inkscape-font-specification:CodiceBiancoCondensed"
         id="path5965"
         inkscape:connector-curvature="0" />
    </g>
    <g
       id="Layer1076"
       transform="matrix(0,2.1199921,-2.1199921,0,2660.4052,-20372.376)"
       style="fill:#ffffff;fill-opacity:1;stroke:none">
      <path
         inkscape:connector-curvature="0"
         d="m 9674.7188,429.4377 16.1239,-69.8406 c 0.7713,-3.3409 -0.4416,-6.6287 -3.1978,-8.6679 -2.7562,-2.0393 -6.2545,-2.2381 -9.2239,-0.5238 l -136.8883,79.0325 136.8883,79.0322 c 2.9694,1.7144 6.4678,1.5157 9.2241,-0.5237 2.7562,-2.0394 3.9687,-5.327 3.1976,-8.668 z"
         style="fill:#ffffff;fill-opacity:1;fill-rule:evenodd;stroke:none"
         id="path7813" />
      <path
         inkscape:connector-curvature="0"
         d="m 9609.9188,429.4378 h 189.8983"
         style="fill:#ffffff;fill-opacity:1;stroke:none"
         id="path7815" />
    </g>
    <g
       id="Layer1076-1"
       transform="matrix(2.1199921,0,0,2.1199921,-18998.183,-515.18504)"
       style="fill:#ffffff;fill-opacity:1;stroke:none">
      <path
         inkscape:connector-curvature="0"
         d="m 9674.7188,429.4377 16.1239,-69.8406 c 0.7713,-3.3409 -0.4416,-6.6287 -3.1978,-8.6679 -2.7562,-2.0393 -6.2545,-2.2381 -9.2239,-0.5238 l -136.8883,79.0325 136.8883,79.0322 c 2.9694,1.7144 6.4678,1.5157 9.2241,-0.5237 2.7562,-2.0394 3.9687,-5.327 3.1976,-8.668 z"
         style="fill:#ffffff;fill-opacity:1;fill-rule:evenodd;stroke:none"
         id="path7813-1" />
      <path
         inkscape:connector-curvature="0"
         d="m 9609.9188,429.4378 h 189.8983"
         style="fill:#ffffff;fill-opacity:1;stroke:none"
         id="path7815-5" />
    </g>
    <g
       id="Layer1076-1-2"
       transform="matrix(-2.1199921,0,0,-2.1199921,22502.973,1305.6254)"
       style="fill:#ffffff;fill-opacity:1;stroke:none">
      <path
         inkscape:connector-curvature="0"
         d="m 9674.7188,429.4377 16.1239,-69.8406 c 0.7713,-3.3409 -0.4416,-6.6287 -3.1978,-8.6679 -2.7562,-2.0393 -6.2545,-2.2381 -9.2239,-0.5238 l -136.8883,79.0325 136.8883,79.0322 c 2.9694,1.7144 6.4678,1.5157 9.2241,-0.5237 2.7562,-2.0394 3.9687,-5.327 3.1976,-8.668 z"
         style="fill:#ffffff;fill-opacity:1;fill-rule:evenodd;stroke:none"
         id="path7813-1-7" />
      <path
         inkscape:connector-curvature="0"
         d="m 9609.9188,429.4378 h 189.8983"
         style="fill:#ffffff;fill-opacity:1;stroke:none"
         id="path7815-5-6" />
    </g>
    <path
       style="fill:#ffffff;fill-opacity:1;stroke:none"
       d="m 1699.8662,137.89226 0,107.1875 c 0,55.228 -44.772,100 -100,100 l -87.813,0 0,100 87.813,0 c 55.228,0 100,44.772 100,99.9996 l 0,267.188 100,0 0,-267.188 c 0,-55.2276 44.771,-99.9996 100,-99.9996 l 92.812,0 0,-100 -92.812,0 c -55.229,0 -100,-44.772 -100,-100 l 0,-107.1875 -100,0 z"
       id="path5683"
       inkscape:connector-curvature="0" />
    <rect
       style="fill:none;stroke:#ffffff;stroke-width:52.5;stroke-miterlimit:4;stroke-opacity:1;stroke-dasharray:none"
       id="rect5912"
       width="3395"
       height="2195"
       x="52.5"
       y="-1195.1366"
       rx="183.75064"
       ry="183.75064" />
  </g>
</svg>
