<?xml version="1.0" encoding="UTF-8" standalone="no"?>
<!-- Created with Inkscape (http://www.inkscape.org/) -->

<svg
   xmlns:dc="http://purl.org/dc/elements/1.1/"
   xmlns:cc="http://creativecommons.org/ns#"
   xmlns:rdf="http://www.w3.org/1999/02/22-rdf-syntax-ns#"
   xmlns:svg="http://www.w3.org/2000/svg"
   xmlns="http://www.w3.org/2000/svg"
   xmlns:sodipodi="http://sodipodi.sourceforge.net/DTD/sodipodi-0.dtd"
   xmlns:inkscape="http://www.inkscape.org/namespaces/inkscape"
   width="1390"
   height="1700"
   id="svg2994"
   version="1.1"
   inkscape:version="0.48.5 r10040"
   sodipodi:docname="CANC Stop.svg"
   inkscape:export-filename="C:\Users\utente\Desktop\CANC drittok.png"
   inkscape:export-xdpi="90"
   inkscape:export-ydpi="90">
  <defs
     id="defs2996" />
  <sodipodi:namedview
     id="base"
     pagecolor="#ffffff"
     bordercolor="#666666"
     borderopacity="1.0"
     inkscape:pageopacity="0.0"
     inkscape:pageshadow="2"
     inkscape:zoom="0.25"
     inkscape:cx="911.26333"
     inkscape:cy="1134.8772"
     inkscape:document-units="px"
     inkscape:current-layer="layer1"
     showgrid="false"
     inkscape:window-width="1366"
     inkscape:window-height="705"
     inkscape:window-x="-8"
     inkscape:window-y="-8"
     inkscape:window-maximized="1"
     fit-margin-top="0"
     fit-margin-left="0"
     fit-margin-right="0"
     fit-margin-bottom="0"
     inkscape:object-nodes="true"
     inkscape:object-paths="false" />
  <metadata
     id="metadata2999">
    <rdf:RDF>
      <cc:Work
         rdf:about="">
        <dc:format>image/svg+xml</dc:format>
        <dc:type
           rdf:resource="http://purl.org/dc/dcmitype/StillImage" />
        <dc:title />
      </cc:Work>
    </rdf:RDF>
  </metadata>
  <g
     inkscape:label="Livello 1"
     inkscape:groupmode="layer"
     id="layer1"
     transform="translate(-237.85715,879.06653)">
    <rect
       style="fill:#989898;fill-opacity:1;stroke:none"
       id="rect6590"
       width="1390"
       height="1700"
       x="237.85715"
       y="-879.06653" />
    <path
       style="fill:#d0d0d0;fill-opacity:1;stroke:none"
       d="m 237.85715,-579.06653 220,0 c 55.4,0 100,44.6 100,100 l 0,1300 0,0 -320,0 0,0 0,-1400 z"
       id="rect6579"
       inkscape:connector-curvature="0"
       sodipodi:nodetypes="csscccccc" />
    <rect
       style="fill:#646464;fill-opacity:1;stroke:none"
       id="rect6537"
       width="170"
       height="1250"
       x="237.85715"
       y="-429.06653" />
    <path
       sodipodi:nodetypes="csscccccc"
       inkscape:connector-curvature="0"
       id="path6586"
       d="m 1627.8572,-579.06653 -220,0 c -55.4,0 -100,44.6 -100,100 l 0,1300 0,0 320,0 0,0 0,-1400 z"
       style="fill:#d0d0d0;fill-opacity:1;stroke:none" />
    <rect
       y="-429.06653"
       x="-1627.8572"
       height="1250"
       width="170"
       id="rect6588"
       style="fill:#646464;fill-opacity:1;stroke:none"
       transform="scale(-1,1)" />
    <path
       style="fill:none;stroke:#5a5a5a;stroke-width:5;stroke-miterlimit:4;stroke-opacity:1;stroke-dasharray:none"
       d="m 1680.8902,-579.06653 -273.033,0 c -55.4,0 -100,44.6 -100,100 l 0,1338"
       id="path7175"
       inkscape:connector-curvature="0"
       sodipodi:nodetypes="cssc" />
    <path
       sodipodi:nodetypes="cssc"
       inkscape:connector-curvature="0"
       id="path7177"
       d="m 185.85715,-579.06653 272,0 c 55.4,0 100,44.6 100,100 l 0,1332"
       style="fill:none;stroke:#5a5a5a;stroke-width:5;stroke-miterlimit:4;stroke-opacity:1;stroke-dasharray:none" />
    <path
       style="fill:#000000;fill-opacity:1;stroke:none"
       d="m 1379.8104,-518.09849 c -4.1421,0 -7.5,3.35786 -7.5,7.5 0,1.91745 0.7224,3.67396 1.9062,5 l -39.4062,0 0,10 90,0 0,-10 -39.4062,0 c 1.1838,-1.32604 1.9062,-3.08255 1.9062,-5 0,-4.14214 -3.3579,-7.5 -7.5,-7.5 z"
       id="rect7183"
       inkscape:connector-curvature="0" />
    <path
       inkscape:connector-curvature="0"
       id="path7389"
       style="fill:#ffffff;fill-opacity:1;fill-rule:evenodd;stroke:none"
       d="m 1070.3572,-303.56653 50,200 49.9999,-200 z m 24.867,49.9961 50.2619,0 -25.1249,100.5351 z" />
    <rect
       style="fill:#ffffff;fill-opacity:1;stroke:#ffffff;stroke-width:5;stroke-miterlimit:4;stroke-opacity:1;stroke-dasharray:none"
       id="rect7934"
       width="7"
       height="995"
       x="929.35718"
       y="-502.23694" />
    <path
       sodipodi:nodetypes="cccc"
       inkscape:connector-curvature="0"
       id="path7896-1"
       d="m 945.35715,-563.56653 25,60 25,-60 z"
       style="fill:#ffffff;fill-opacity:1;stroke:none" />
    <path
       style="fill:#ffffff;fill-opacity:1;stroke:none"
       d="m 1020.3572,-563.56653 25,60 25,-60 z"
       id="path3023"
       inkscape:connector-curvature="0"
       sodipodi:nodetypes="cccc" />
    <path
       sodipodi:nodetypes="cccc"
       inkscape:connector-curvature="0"
       id="path3025"
       d="m 1095.3572,-563.56653 25,60 25,-60 z"
       style="fill:#ffffff;fill-opacity:1;stroke:none" />
    <path
       sodipodi:nodetypes="cccc"
       inkscape:connector-curvature="0"
       id="path3031"
       d="m 1170.3571,-563.56653 25,60 25,-60 z"
       style="fill:#ffffff;fill-opacity:1;stroke:none" />
    <path
       style="fill:#ffffff;fill-opacity:1;stroke:none"
       d="m 1245.3572,-563.56653 25,60 25,-60 z"
       id="path3033"
       inkscape:connector-curvature="0"
       sodipodi:nodetypes="cccc" />
  </g>
</svg>
