<?xml version="1.0" encoding="UTF-8" standalone="no"?>
<!-- Created with Inkscape (http://www.inkscape.org/) -->

<svg
   xmlns:dc="http://purl.org/dc/elements/1.1/"
   xmlns:cc="http://creativecommons.org/ns#"
   xmlns:rdf="http://www.w3.org/1999/02/22-rdf-syntax-ns#"
   xmlns:svg="http://www.w3.org/2000/svg"
   xmlns="http://www.w3.org/2000/svg"
   xmlns:sodipodi="http://sodipodi.sourceforge.net/DTD/sodipodi-0.dtd"
   xmlns:inkscape="http://www.inkscape.org/namespaces/inkscape"
   width="2040"
   height="519.99994"
   id="svg2"
   version="1.1"
   inkscape:version="0.48.5 r10040"
   sodipodi:docname="CANC Terni.svg">
  <defs
     id="defs4" />
  <sodipodi:namedview
     id="base"
     pagecolor="#ffffff"
     bordercolor="#666666"
     borderopacity="1.0"
     inkscape:pageopacity="0.0"
     inkscape:pageshadow="2"
     inkscape:zoom="0.25"
     inkscape:cx="825.80308"
     inkscape:cy="70.931551"
     inkscape:document-units="px"
     inkscape:current-layer="text4988"
     showgrid="false"
     fit-margin-top="0"
     fit-margin-left="0"
     fit-margin-right="0"
     fit-margin-bottom="0"
     inkscape:window-width="1366"
     inkscape:window-height="705"
     inkscape:window-x="-8"
     inkscape:window-y="-8"
     inkscape:window-maximized="1" />
  <metadata
     id="metadata7">
    <rdf:RDF>
      <cc:Work
         rdf:about="">
        <dc:format>image/svg+xml</dc:format>
        <dc:type
           rdf:resource="http://purl.org/dc/dcmitype/StillImage" />
        <dc:title />
      </cc:Work>
    </rdf:RDF>
  </metadata>
  <g
     inkscape:label="Livello 1"
     inkscape:groupmode="layer"
     id="layer1"
     transform="translate(0,-802.375)">
    <g
       style="font-size:171.17930603px;font-style:normal;font-weight:normal;line-height:125%;letter-spacing:0px;word-spacing:0px;fill:#000000;fill-opacity:1;stroke:none;font-family:Sans"
       id="text4988">
      <rect
         style="fill:#ffffff;fill-opacity:1;stroke:#000000;stroke-width:1;stroke-miterlimit:4;stroke-opacity:1;stroke-dasharray:none"
         id="rect5010"
         width="999"
         height="249"
         x="0.5"
         y="802.875" />
      <rect
         style="fill:none;stroke:#00408b;stroke-width:9.37499905;stroke-miterlimit:4;stroke-opacity:1;stroke-dasharray:none"
         id="rect5012"
         width="981.25"
         height="231.25"
         x="9.374999"
         y="811.74994"
         rx="32.875"
         ry="32.875" />
      <g
         style="font-size:114.11954498px;line-height:125%;fill:#000000;font-family:Sans"
         id="text5020">
        <path
           d="m 346.73736,860.14054 c 1.29317,0.45745 2.81509,1.52314 4.56576,3.19707 2.89054,2.81404 4.33584,6.00879 4.3359,9.58426 l 0,26.59005 c -6e-5,1.36986 0.87525,2.24517 2.62592,2.62592 0.15317,0.0743 1.37094,0.18808 3.6533,0.3413 -0.68498,1.97816 -2.66313,6.65652 -5.93444,14.03509 -5.93449,0 -10.91816,-1.67283 -14.95103,-5.0185 -5.32617,3.49891 -10.6523,5.24836 -15.9784,5.24835 -5.55369,10e-6 -10.44159,-1.78775 -14.66371,-5.36328 -4.22214,-3.57551 -6.33321,-8.02634 -6.3332,-13.35249 -10e-6,-8.82501 5.43989,-14.91152 16.31971,-18.25954 4.03288,-0.60827 9.51109,-1.55903 16.43463,-2.8523 -4e-5,-3.34794 -2.13026,-5.02193 -6.39067,-5.02198 -4.26047,5e-5 -8.33168,1.10289 -12.21366,3.30852 -0.22755,0.15328 -1.82492,1.37105 -4.79213,3.6533 l -8.6718,-13.12263 c 0.15091,-0.38072 1.29206,-1.21771 3.42345,-2.51099 2.58643,-1.67394 5.47703,-3.19586 8.6718,-4.56576 3.80536,-1.67393 8.29449,-2.51093 13.46742,-2.51099 5.9344,6e-5 11.41144,1.33159 16.43115,3.9946 z M 322.317,897.23078 c 0.0766,1.21663 0.87528,2.24285 2.39607,3.07867 1.29319,0.76156 2.62473,1.14233 3.9946,1.14231 2.13135,2e-5 3.95742,-0.47536 5.47821,-1.42615 1.52072,-0.95074 2.47148,-2.03443 2.85229,-3.25105 l 0,-5.823 c -3.19479,0.61066 -6.38954,1.22012 -9.58426,1.82839 -3.50125,0.75925 -5.21355,2.24286 -5.13691,4.45083 z"
           style="font-variant:normal;font-stretch:normal;fill:#000000;font-family:CodiceNero;-inkscape-font-specification:CodiceNero"
           id="path5968" />
        <path
           d="m 411.66096,875.09156 c -1.67404,-0.45734 -3.34803,-0.68603 -5.02198,-0.68608 -3.87971,5e-5 -7.07446,1.02743 -9.58426,3.08215 -2.81633,2.20572 -4.22448,5.32501 -4.22446,9.35789 l 0,28.52988 -18.48591,0 0,-57.97223 18.71577,0 0,3.64982 c 1.67396,-0.98901 3.30965,-1.97808 4.90705,-2.96722 2.89057,-1.36978 5.93324,-2.0547 9.12804,-2.05476 1.52071,6e-5 3.04263,0.1533 4.56575,0.45971 z"
           style="font-variant:normal;font-stretch:normal;fill:#000000;font-family:CodiceNero;-inkscape-font-specification:CodiceNero"
           id="path5970" />
        <path
           d="m 448.23577,856.26086 c 6.77024,7e-5 12.81844,2.24405 18.14462,6.73197 4.48792,3.87973 7.22645,7.98809 8.21558,12.32511 l -15.97493,5.81951 c -0.30419,-2.50979 -1.21781,-4.64001 -2.74084,-6.39067 -1.90157,-2.12901 -4.48802,-3.19354 -7.75935,-3.19359 -3.2714,5e-5 -5.95304,1.19808 -8.04493,3.5941 -2.09194,2.3961 -3.13789,5.45851 -3.13787,9.18723 l 0,4.33591 c -2e-5,3.12048 0.87528,5.89731 2.62592,8.3305 2.05242,2.96724 4.98132,4.45085 8.78673,4.45083 2.35888,2e-5 4.66033,-0.95075 6.90436,-2.85229 2.24395,-1.90151 3.40425,-4.33588 3.48091,-7.30313 l 16.20478,5.70459 c -6e-5,1.36986 -0.91367,3.46177 -2.74085,6.27574 -2.28235,3.65215 -5.13464,6.61937 -8.55687,8.90166 -4.56464,3.04384 -9.7387,4.56576 -15.52218,4.56575 -8.36768,10e-6 -15.40495,-3.15759 -21.11184,-9.47281 -4.86876,-5.3238 -7.30313,-11.02954 -7.30312,-17.11723 l 0,-5.36329 c -1e-5,-6.92347 2.35891,-13.16205 7.07675,-18.71577 5.47703,-6.54268 12.62807,-9.81405 21.45313,-9.81412 z"
           style="font-variant:normal;font-stretch:normal;fill:#000000;font-family:CodiceNero;-inkscape-font-specification:CodiceNero"
           id="path5972" />
        <path
           d="m 485.75438,834.6928 18.37447,0 0,24.53528 c 3.42458,-2.50976 8.14124,-3.76468 14.15001,-3.76474 6.39179,6e-5 11.7748,2.28236 16.14906,6.84689 4.37415,4.56465 6.56126,9.88962 6.56132,15.97493 l 0,37.09024 -18.71577,0 0.11492,-33.21057 c -4e-5,-2.35655 -0.85619,-4.35327 -2.56845,-5.99016 -1.71235,-1.6368 -3.7851,-2.49237 -6.21828,-2.56672 -2.50986,-0.0766 -4.71612,0.74127 -6.61878,2.45353 -1.90271,1.71235 -2.85406,3.82341 -2.85403,6.33321 l 0,32.98071 -18.37447,0 z"
           style="font-variant:normal;font-stretch:normal;fill:#000000;font-family:CodiceNero;-inkscape-font-specification:CodiceNero"
           id="path5974" />
        <path
           d="m 555.39002,857.40317 18.37447,0 0,58.08716 -18.37447,0 z M 555.04872,839.37 c 1.90152,-3.80297 5.02081,-5.7045 9.35788,-5.70458 1.67398,8e-5 3.23304,0.34254 4.6772,1.02738 3.87965,1.90161 5.81949,5.05921 5.81952,9.47281 -3e-5,1.59745 -0.34249,3.11821 -1.02739,4.56228 -1.90155,3.80544 -5.05799,5.70813 -9.46933,5.70806 -1.67401,7e-5 -3.23423,-0.34239 -4.68068,-1.02738 -3.80307,-1.90146 -5.70459,-5.02075 -5.70459,-9.35788 0,-1.67392 0.34246,-3.23415 1.02739,-4.68069 z"
           style="font-variant:normal;font-stretch:normal;fill:#000000;font-family:CodiceNero;-inkscape-font-specification:CodiceNero"
           id="path5976" />
        <path
           d="m 619.22353,856.49072 c 5.62792,6e-5 10.61043,2.35782 14.94755,7.07327 l 0.11492,0 c -0.15329,5e-5 0.49332,-0.66571 1.93984,-1.9973 1.44641,-1.33148 3.23416,-2.45347 5.36329,-3.36599 2.96715,-1.21654 6.31514,-1.82484 10.04396,-1.82491 5.93437,7e-5 11.0318,2.07282 15.29233,6.21828 4.26035,4.14557 6.39057,8.95801 6.39067,14.43733 l 0,38.344 -18.4894,0 0,-35.15041 c -8e-5,-1.90148 -0.64669,-3.51801 -1.93984,-4.84959 -1.2933,-1.33149 -3.11937,-1.99725 -5.47821,-1.9973 -2.20575,5e-5 -3.99351,0.64666 -5.36329,1.93984 -1.3699,1.29326 -2.05482,2.92895 -2.05476,4.90705 l 0,35.15041 -18.60085,0 0,-35.15041 c -4e-5,-1.90148 -0.72269,-3.53717 -2.16795,-4.90705 -1.44534,-1.3698 -3.23252,-2.05472 -5.36154,-2.05477 -2.0548,5e-5 -3.7671,0.68497 -5.13691,2.05477 -1.36987,1.36988 -2.05479,3.00557 -2.05477,4.90705 l 0,35.15041 -18.48592,0 0,-57.86078 16.66101,0 1.36868,3.19707 c 1.75059,-1.82484 3.57666,-3.0043 5.47822,-3.53837 1.59734,-0.455 4.10833,-0.68254 7.53297,-0.6826 z"
           style="font-variant:normal;font-stretch:normal;fill:#000000;font-family:CodiceNero;-inkscape-font-specification:CodiceNero"
           id="path5978" />
        <path
           d="m 712.36011,856.14594 c 7.30424,6e-5 13.65659,2.58651 19.05707,7.75935 6.08762,5.78357 9.13146,13.392 9.13152,22.8253 -6e-5,1.21664 -0.19045,3.15647 -0.57116,5.81951 l -38.11763,0 c 1.75059,5.40278 5.63142,8.02753 11.64251,7.87428 4.71547,-0.1509 9.35552,-1.97697 13.92016,-5.47822 l 12.21366,11.98381 c -9.43571,6.54275 -18.2236,9.81412 -26.36367,9.81411 -7.68276,10e-6 -14.37757,-2.39606 -20.08446,-7.18819 -6.2386,-5.32612 -9.47166,-12.36339 -9.69919,-21.11184 0,-1.14227 0,-2.89289 0,-5.25184 0.0743,-5.78116 2.24166,-11.37313 6.50212,-16.77593 5.47935,-6.84684 12.9357,-10.27028 22.36907,-10.27034 z m -10.27034,22.59544 19.96953,0 c -0.45511,-2.12901 -1.59568,-3.93535 -3.42171,-5.419 -1.82611,-1.48356 -3.99522,-2.26368 -6.50733,-2.34034 -2.58648,-0.0766 -4.83047,0.76042 -6.73197,2.51099 -1.5974,1.4465 -2.70024,3.19595 -3.30852,5.24835 z"
           style="font-variant:normal;font-stretch:normal;fill:#000000;font-family:CodiceNero;-inkscape-font-specification:CodiceNero"
           id="path5980" />
        <path
           d="m 788.28541,834.57787 18.25954,0 0,80.79753 -16.77593,0 c -0.22758,-0.68491 -0.60835,-1.63568 -1.14231,-2.85229 -4.86879,2.89061 -9.16754,4.3359 -12.89626,4.3359 -6.08538,0 -11.63905,-1.86437 -16.66101,-5.59314 -7.30197,-5.32612 -10.95295,-13.50454 -10.95294,-24.53528 -10e-6,-8.90162 2.58644,-16.20531 7.75935,-21.91111 5.17288,-5.70568 11.75392,-8.55855 19.74315,-8.55862 2.81395,7e-5 5.32378,0.4946 7.5295,1.48361 3.04379,1.44653 4.75609,2.2069 5.13691,2.28114 z m -22.36908,53.97763 c -2e-5,3.57555 0.97048,6.50504 2.9115,8.78847 1.94097,2.28348 4.77469,3.42521 8.50115,3.42519 2.81627,2e-5 5.36557,-0.95191 7.64791,-2.85578 2.0524,-1.67397 3.07862,-3.27134 3.07866,-4.79213 l 0,-12.55147 c -4e-5,-2.13135 -1.08373,-4.07176 -3.25105,-5.82126 -2.16741,-1.7494 -4.65925,-2.62413 -7.47552,-2.62417 -3.11816,4e-5 -5.74292,1.02626 -7.87427,3.07866 -2.35894,2.20804 -3.5384,5.29019 -3.53838,9.24644 z"
           style="font-variant:normal;font-stretch:normal;fill:#000000;font-family:CodiceNero;-inkscape-font-specification:CodiceNero"
           id="path5982" />
        <path
           d="m 848.09995,856.14594 c 7.30424,6e-5 13.65659,2.58651 19.05707,7.75935 6.08762,5.78357 9.13145,13.392 9.13151,22.8253 -6e-5,1.21664 -0.19044,3.15647 -0.57115,5.81951 l -38.11763,0 c 1.75059,5.40278 5.63142,8.02753 11.64251,7.87428 4.71547,-0.1509 9.35552,-1.97697 13.92016,-5.47822 l 12.21366,11.98381 c -9.43572,6.54275 -18.2236,9.81412 -26.36368,9.81411 -7.68275,10e-6 -14.37757,-2.39606 -20.08445,-7.18819 -6.2386,-5.32612 -9.47166,-12.36339 -9.69919,-21.11184 0,-1.14227 0,-2.89289 0,-5.25184 0.0743,-5.78116 2.24166,-11.37313 6.50211,-16.77593 5.47936,-6.84684 12.93571,-10.27028 22.36908,-10.27034 z m -10.27034,22.59544 19.96952,0 c -0.4551,-2.12901 -1.59567,-3.93535 -3.4217,-5.419 -1.82611,-1.48356 -3.99522,-2.26368 -6.50734,-2.34034 -2.58648,-0.0766 -4.83046,0.76042 -6.73196,2.51099 -1.5974,1.4465 -2.70024,3.19595 -3.30852,5.24835 z"
           style="font-variant:normal;font-stretch:normal;fill:#000000;font-family:CodiceNero;-inkscape-font-specification:CodiceNero"
           id="path5984" />
      </g>
      <g
         style="font-size:85.58965302px;line-height:125%;fill:#000000;font-family:Sans"
         id="text5024">
        <path
           d="m 138.31765,915.37545 -15.23312,-43.47916 14.97714,0 8.04493,24.73553 7.70275,-24.73553 13.69466,0 -13.43607,43.47916 z"
           style="font-variant:normal;font-stretch:normal;fill:#000000;font-family:CodiceNero;-inkscape-font-specification:CodiceNero"
           id="path5961" />
        <path
           d="m 174.56944,871.89629 13.78086,0 0,43.56536 -13.78086,0 z m -0.25597,-13.52488 c 1.42614,-2.85223 3.76561,-4.27838 7.01841,-4.27844 1.25549,6e-5 2.42478,0.25691 3.5079,0.77054 2.90974,1.42621 4.36462,3.79441 4.36464,7.10461 -2e-5,1.19808 -0.25687,2.33865 -0.77054,3.4217 -1.42616,2.85409 -3.79349,4.2811 -7.102,4.28105 -1.2555,5e-5 -2.42567,-0.25679 -3.51051,-0.77053 -2.8523,-1.4261 -4.27844,-3.76557 -4.27844,-7.01842 0,-1.25544 0.25684,-2.42561 0.77054,-3.51051 z"
           style="font-variant:normal;font-stretch:normal;fill:#000000;font-family:CodiceNero;-inkscape-font-specification:CodiceNero"
           id="path5963" />
        <path
           d="m 229.54659,873.94931 c 0.96988,0.34309 2.11131,1.14235 3.42431,2.39781 2.16791,2.11052 3.25189,4.50659 3.25193,7.18819 l 0,19.94253 c -4e-5,1.0274 0.65644,1.68388 1.96944,1.96944 0.11488,0.0557 1.02821,0.14106 2.73998,0.25598 -0.51374,1.48362 -1.99735,4.99239 -4.45083,10.52631 -4.45087,1e-5 -8.18862,-1.25462 -11.21327,-3.76387 -3.99463,2.62418 -7.98923,3.93627 -11.98381,3.93627 -4.16527,0 -7.83119,-1.34082 -10.99778,-4.02247 -3.1666,-2.68163 -4.7499,-6.01975 -4.7499,-10.01436 0,-6.61876 4.07992,-11.18364 12.23978,-13.69466 3.02466,-0.4562 7.13332,-1.16927 12.32598,-2.13922 -3e-5,-2.51096 -1.5977,-3.76645 -4.793,-3.76649 -3.19536,4e-5 -6.24877,0.82717 -9.16025,2.48139 -0.17066,0.11496 -1.36869,1.02829 -3.59409,2.73998 l -6.50386,-9.84198 c 0.11318,-0.28553 0.96904,-0.91328 2.56759,-1.88324 1.93983,-1.25545 4.10777,-2.39689 6.50385,-3.42432 2.85402,-1.25545 6.22087,-1.88319 10.10056,-1.88324 4.4508,5e-5 8.55859,0.9987 12.32337,2.99595 z m -18.31527,27.81768 c 0.0574,0.91247 0.65646,1.68214 1.79705,2.309 0.9699,0.57117 1.96854,0.85675 2.99595,0.85673 1.59851,2e-5 2.96806,-0.35652 4.10866,-1.06961 1.14054,-0.71305 1.85361,-1.52582 2.13922,-2.43829 l 0,-4.36724 c -2.3961,0.45799 -4.79216,0.91508 -7.1882,1.37129 -2.62594,0.56943 -3.91016,1.68214 -3.85268,3.33812 z"
           style="font-variant:normal;font-stretch:normal;fill:#000000;font-family:CodiceNero;-inkscape-font-specification:CodiceNero"
           id="path5965" />
      </g>
      <g
         style="font-size:85.58965302px;line-height:125%;fill:#000000;font-family:Sans"
         id="text5028">
        <path
           d="m 149.18875,951.0926 c 8.78669,7e-5 15.09203,3.05261 18.91602,9.15764 2.33855,3.76654 3.50785,7.87519 3.5079,12.32597 -5e-5,4.22276 -1.16935,8.13116 -3.5079,11.72522 -1.65605,2.62421 -4.25236,5.4199 -7.78895,8.3871 -2.68168,2.2829 -5.39205,4.56577 -8.13112,6.84863 l 18.91341,0 0,12.83794 -43.39297,0 0,-11.3831 c -1e-5,-0.5711 2.53884,-2.59713 7.61656,-6.07806 6.44811,-4.50827 11.15578,-8.13109 14.12302,-10.86848 5.07767,-4.67891 7.61653,-8.70224 7.61656,-12.07 -3e-5,-2.16791 -0.68437,-3.96496 -2.05302,-5.39115 -1.59683,-1.59849 -3.79351,-2.39775 -6.59005,-2.39781 -2.90978,6e-5 -5.13519,0.99871 -6.67624,2.99596 -1.31298,1.71177 -1.96946,3.93718 -1.96944,6.67624 -2e-5,0.68438 0.0287,1.34086 0.0862,1.96944 l -14.54878,0 c -0.11493,-0.79923 -0.17239,-1.71255 -0.17239,-2.73998 0,-5.4207 1.45488,-10.04217 4.36464,-13.86443 4.10777,-5.42069 10.66995,-8.13106 19.68656,-8.13113 z"
           style="font-variant:normal;font-stretch:normal;word-spacing:-22px;fill:#000000;font-family:CodiceNero;-inkscape-font-specification:CodiceNero"
           id="path5946" />
        <path
           d="m 207.61371,950.49446 c 6.39063,6e-5 11.78264,1.79711 16.17605,5.39114 6.44808,5.30588 9.67214,14.12133 9.6722,26.44639 -6e-5,11.47014 -3.16666,19.91551 -9.49981,25.33631 -4.62152,3.9371 -10.07099,5.9057 -16.34844,5.9057 -5.70635,0 -10.9843,-1.9686 -15.83387,-5.9057 -6.90437,-5.5931 -10.35654,-14.03856 -10.35654,-25.33631 0,-11.69644 3.13873,-20.28378 9.41622,-25.76205 4.564,-4.05026 10.15539,-6.07542 16.77419,-6.07548 z m -11.72521,31.49536 c -2e-5,5.30759 0.65646,9.30219 1.96944,11.98381 1.82488,3.87969 5.04807,5.81952 9.66958,5.81951 7.98916,10e-6 11.98376,-5.93442 11.9838,-17.80332 -4e-5,-11.86883 -3.93717,-17.80326 -11.81141,-17.80332 -7.8743,6e-5 -11.81143,5.93449 -11.81141,17.80332 z"
           style="font-variant:normal;font-stretch:normal;word-spacing:-22px;fill:#000000;font-family:CodiceNero;-inkscape-font-specification:CodiceNero"
           id="path5948" />
        <path
           d="m 287.42042,951.77694 0,11.38305 -20.62688,49.21511 -15.06595,0 19.77276,-47.76023 -27.21693,0 0,-12.83793 z"
           style="font-variant:normal;font-stretch:normal;word-spacing:-22px;fill:#000000;font-family:CodiceNero;-inkscape-font-specification:CodiceNero"
           id="path5950" />
        <path
           d="m 330.35447,979.67821 0,11.64164 -20.96905,0 0,-11.64164 z"
           style="font-variant:normal;font-stretch:normal;word-spacing:-22px;fill:#000000;font-family:CodiceNero;-inkscape-font-specification:CodiceNero"
           id="path5952" />
        <path
           d="m 377.51994,951.86314 0,60.51196 -14.20922,0 0,-39.54291 -10.35393,0 0,-12.15359 6.24788,0 c 3.70901,-0.68428 5.56352,-3.05248 5.56354,-7.10461 -2e-5,-0.56935 -0.0288,-1.13963 -0.0862,-1.71085 z"
           style="font-variant:normal;font-stretch:normal;word-spacing:-22px;fill:#000000;font-family:CodiceNero;-inkscape-font-specification:CodiceNero"
           id="path5954" />
        <path
           d="m 412.12358,951.86314 0,60.51196 -14.20922,0 0,-39.54291 -10.35393,0 0,-12.15359 6.24788,0 c 3.70901,-0.68428 5.56352,-3.05248 5.56354,-7.10461 -2e-5,-0.56935 -0.0288,-1.13963 -0.0862,-1.71085 z"
           style="font-variant:normal;font-stretch:normal;word-spacing:-22px;fill:#000000;font-family:CodiceNero;-inkscape-font-specification:CodiceNero"
           id="path5956" />
        <path
           d="m 448.9526,951.86314 17.37495,0 0,37.82944 7.27439,0 0,13.09652 -7.61656,0 0,9.586 -14.12303,0 0,-9.6722 -30.04309,0 0,-15.23574 z m 2.99595,17.11636 -15.92007,20.71308 15.92007,0 z"
           style="font-variant:normal;font-stretch:normal;word-spacing:-22px;fill:#000000;font-family:CodiceNero;-inkscape-font-specification:CodiceNero"
           id="path5958" />
      </g>
      <rect
         y="802.875"
         x="1040.5"
         height="249"
         width="999"
         id="rect5034"
         style="fill:#ffffff;fill-opacity:1;stroke:#000000;stroke-width:1;stroke-miterlimit:4;stroke-opacity:1;stroke-dasharray:none" />
      <rect
         ry="32.875"
         rx="32.875"
         y="811.74994"
         x="1049.375"
         height="231.25"
         width="981.25"
         id="rect5036"
         style="fill:none;stroke:#00408b;stroke-width:9.37499905;stroke-miterlimit:4;stroke-opacity:1;stroke-dasharray:none" />
      <g
         style="font-size:114.11954498px;line-height:125%;fill:#000000;font-family:Sans"
         id="text5038">
        <path
           d="m 1386.7377,860.14054 c 1.2932,0.45745 2.8151,1.52314 4.5658,3.19707 2.8905,2.81404 4.3358,6.00879 4.3359,9.58426 l 0,26.59005 c -10e-5,1.36986 0.8752,2.24517 2.6259,2.62592 0.1531,0.0743 1.3709,0.18808 3.6533,0.3413 -0.685,1.97816 -2.6632,6.65652 -5.9345,14.03509 -5.9345,0 -10.9181,-1.67283 -14.951,-5.0185 -5.3262,3.49891 -10.6523,5.24836 -15.9784,5.24835 -5.5537,10e-6 -10.4416,-1.78775 -14.6637,-5.36328 -4.2221,-3.57551 -6.3332,-8.02634 -6.3332,-13.35249 0,-8.82501 5.4399,-14.91152 16.3197,-18.25954 4.0329,-0.60827 9.5111,-1.55903 16.4346,-2.8523 0,-3.34794 -2.1302,-5.02193 -6.3906,-5.02198 -4.2605,5e-5 -8.3317,1.10289 -12.2137,3.30852 -0.2275,0.15328 -1.8249,1.37105 -4.7921,3.6533 l -8.6718,-13.12263 c 0.1509,-0.38072 1.292,-1.21771 3.4234,-2.51099 2.5865,-1.67394 5.4771,-3.19586 8.6718,-4.56576 3.8054,-1.67393 8.2945,-2.51093 13.4674,-2.51099 5.9344,6e-5 11.4115,1.33159 16.4312,3.9946 z m -24.4204,37.09024 c 0.077,1.21663 0.8753,2.24285 2.3961,3.07867 1.2932,0.76156 2.6247,1.14233 3.9946,1.14231 2.1314,2e-5 3.9574,-0.47536 5.4782,-1.42615 1.5207,-0.95074 2.4715,-2.03443 2.8523,-3.25105 l 0,-5.823 c -3.1948,0.61066 -6.3895,1.22012 -9.5843,1.82839 -3.5012,0.75925 -5.2135,2.24286 -5.1369,4.45083 z"
           style="font-variant:normal;font-stretch:normal;fill:#000000;font-family:CodiceNero;-inkscape-font-specification:CodiceNero"
           id="path5920" />
        <path
           d="m 1451.6613,875.09156 c -1.674,-0.45734 -3.348,-0.68603 -5.022,-0.68608 -3.8797,5e-5 -7.0744,1.02743 -9.5842,3.08215 -2.8164,2.20572 -4.2245,5.32501 -4.2245,9.35789 l 0,28.52988 -18.4859,0 0,-57.97223 18.7158,0 0,3.64982 c 1.6739,-0.98901 3.3096,-1.97808 4.907,-2.96722 2.8906,-1.36978 5.9333,-2.0547 9.128,-2.05476 1.5208,6e-5 3.0427,0.1533 4.5658,0.45971 z"
           style="font-variant:normal;font-stretch:normal;fill:#000000;font-family:CodiceNero;-inkscape-font-specification:CodiceNero"
           id="path5922" />
        <path
           d="m 1488.2361,856.26086 c 6.7702,7e-5 12.8184,2.24405 18.1446,6.73197 4.4879,3.87973 7.2265,7.98809 8.2156,12.32511 l -15.9749,5.81951 c -0.3042,-2.50979 -1.2178,-4.64001 -2.7409,-6.39067 -1.9015,-2.12901 -4.488,-3.19354 -7.7593,-3.19359 -3.2714,5e-5 -5.9531,1.19808 -8.0449,3.5941 -2.092,2.3961 -3.1379,5.45851 -3.1379,9.18723 l 0,4.33591 c 0,3.12048 0.8753,5.89731 2.6259,8.3305 2.0524,2.96724 4.9813,4.45085 8.7867,4.45083 2.3589,2e-5 4.6604,-0.95075 6.9044,-2.85229 2.2439,-1.90151 3.4042,-4.33588 3.4809,-7.30313 l 16.2048,5.70459 c -10e-5,1.36986 -0.9137,3.46177 -2.7409,6.27574 -2.2823,3.65215 -5.1346,6.61937 -8.5568,8.90166 -4.5647,3.04384 -9.7387,4.56576 -15.5222,4.56575 -8.3677,10e-6 -15.405,-3.15759 -21.1119,-9.47281 -4.8687,-5.3238 -7.3031,-11.02954 -7.3031,-17.11723 l 0,-5.36329 c 0,-6.92347 2.3589,-13.16205 7.0768,-18.71577 5.477,-6.54268 12.628,-9.81405 21.4531,-9.81412 z"
           style="font-variant:normal;font-stretch:normal;fill:#000000;font-family:CodiceNero;-inkscape-font-specification:CodiceNero"
           id="path5924" />
        <path
           d="m 1525.7547,834.6928 18.3745,0 0,24.53528 c 3.4246,-2.50976 8.1412,-3.76468 14.15,-3.76474 6.3918,6e-5 11.7748,2.28236 16.1491,6.84689 4.3741,4.56465 6.5612,9.88962 6.5613,15.97493 l 0,37.09024 -18.7158,0 0.1149,-33.21057 c 0,-2.35655 -0.8562,-4.35327 -2.5684,-5.99016 -1.7124,-1.6368 -3.7851,-2.49237 -6.2183,-2.56672 -2.5099,-0.0766 -4.7161,0.74127 -6.6188,2.45353 -1.9027,1.71235 -2.854,3.82341 -2.854,6.33321 l 0,32.98071 -18.3745,0 z"
           style="font-variant:normal;font-stretch:normal;fill:#000000;font-family:CodiceNero;-inkscape-font-specification:CodiceNero"
           id="path5926" />
        <path
           d="m 1595.3904,857.40317 18.3744,0 0,58.08716 -18.3744,0 z M 1595.0491,839.37 c 1.9015,-3.80297 5.0208,-5.7045 9.3578,-5.70458 1.674,8e-5 3.2331,0.34254 4.6772,1.02738 3.8797,1.90161 5.8195,5.05921 5.8196,9.47281 -10e-5,1.59745 -0.3425,3.11821 -1.0274,4.56228 -1.9016,3.80544 -5.058,5.70813 -9.4694,5.70806 -1.674,7e-5 -3.2342,-0.34239 -4.6806,-1.02738 -3.8031,-1.90146 -5.7046,-5.02075 -5.7046,-9.35788 0,-1.67392 0.3424,-3.23415 1.0274,-4.68069 z"
           style="font-variant:normal;font-stretch:normal;fill:#000000;font-family:CodiceNero;-inkscape-font-specification:CodiceNero"
           id="path5928" />
        <path
           d="m 1659.2239,856.49072 c 5.6279,6e-5 10.6104,2.35782 14.9475,7.07327 l 0.1149,0 c -0.1533,5e-5 0.4934,-0.66571 1.9399,-1.9973 1.4464,-1.33148 3.2341,-2.45347 5.3633,-3.36599 2.9671,-1.21654 6.3151,-1.82484 10.0439,-1.82491 5.9344,7e-5 11.0318,2.07282 15.2924,6.21828 4.2603,4.14557 6.3905,8.95801 6.3906,14.43733 l 0,38.344 -18.4894,0 0,-35.15041 c -10e-5,-1.90148 -0.6467,-3.51801 -1.9398,-4.84959 -1.2933,-1.33149 -3.1194,-1.99725 -5.4782,-1.9973 -2.2058,5e-5 -3.9935,0.64666 -5.3633,1.93984 -1.3699,1.29326 -2.0548,2.92895 -2.0548,4.90705 l 0,35.15041 -18.6008,0 0,-35.15041 c -10e-5,-1.90148 -0.7227,-3.53717 -2.168,-4.90705 -1.4453,-1.3698 -3.2325,-2.05472 -5.3615,-2.05477 -2.0548,5e-5 -3.7671,0.68497 -5.1369,2.05477 -1.3699,1.36988 -2.0548,3.00557 -2.0548,4.90705 l 0,35.15041 -18.4859,0 0,-57.86078 16.661,0 1.3687,3.19707 c 1.7506,-1.82484 3.5766,-3.0043 5.4782,-3.53837 1.5973,-0.455 4.1083,-0.68254 7.533,-0.6826 z"
           style="font-variant:normal;font-stretch:normal;fill:#000000;font-family:CodiceNero;-inkscape-font-specification:CodiceNero"
           id="path5930" />
        <path
           d="m 1752.3604,856.14594 c 7.3043,6e-5 13.6566,2.58651 19.0571,7.75935 6.0876,5.78357 9.1315,13.392 9.1315,22.8253 0,1.21664 -0.1904,3.15647 -0.5711,5.81951 l -38.1177,0 c 1.7506,5.40278 5.6315,8.02753 11.6426,7.87428 4.7154,-0.1509 9.3555,-1.97697 13.9201,-5.47822 l 12.2137,11.98381 c -9.4357,6.54275 -18.2236,9.81412 -26.3637,9.81411 -7.6828,10e-6 -14.3776,-2.39606 -20.0845,-7.18819 -6.2386,-5.32612 -9.4716,-12.36339 -9.6991,-21.11184 0,-1.14227 0,-2.89289 0,-5.25184 0.074,-5.78116 2.2416,-11.37313 6.5021,-16.77593 5.4793,-6.84684 12.9357,-10.27028 22.369,-10.27034 z m -10.2703,22.59544 19.9695,0 c -0.4551,-2.12901 -1.5956,-3.93535 -3.4217,-5.419 -1.8261,-1.48356 -3.9952,-2.26368 -6.5073,-2.34034 -2.5865,-0.0766 -4.8305,0.76042 -6.732,2.51099 -1.5974,1.4465 -2.7002,3.19595 -3.3085,5.24835 z"
           style="font-variant:normal;font-stretch:normal;fill:#000000;font-family:CodiceNero;-inkscape-font-specification:CodiceNero"
           id="path5932" />
        <path
           d="m 1828.2857,834.57787 18.2596,0 0,80.79753 -16.7759,0 c -0.2276,-0.68491 -0.6084,-1.63568 -1.1424,-2.85229 -4.8687,2.89061 -9.1675,4.3359 -12.8962,4.3359 -6.0854,0 -11.6391,-1.86437 -16.661,-5.59314 -7.302,-5.32612 -10.953,-13.50454 -10.953,-24.53528 0,-8.90162 2.5865,-16.20531 7.7594,-21.91111 5.1729,-5.70568 11.7539,-8.55855 19.7431,-8.55862 2.814,7e-5 5.3238,0.4946 7.5295,1.48361 3.0438,1.44653 4.7561,2.2069 5.1369,2.28114 z m -22.369,53.97763 c -10e-5,3.57555 0.9704,6.50504 2.9115,8.78847 1.9409,2.28348 4.7747,3.42521 8.5011,3.42519 2.8163,2e-5 5.3656,-0.95191 7.6479,-2.85578 2.0524,-1.67397 3.0786,-3.27134 3.0787,-4.79213 l 0,-12.55147 c -10e-5,-2.13135 -1.0837,-4.07176 -3.2511,-5.82126 -2.1674,-1.7494 -4.6592,-2.62413 -7.4755,-2.62417 -3.1181,4e-5 -5.7429,1.02626 -7.8743,3.07866 -2.3589,2.20804 -3.5384,5.29019 -3.5383,9.24644 z"
           style="font-variant:normal;font-stretch:normal;fill:#000000;font-family:CodiceNero;-inkscape-font-specification:CodiceNero"
           id="path5934" />
        <path
           d="m 1888.1003,856.14594 c 7.3042,6e-5 13.6566,2.58651 19.0571,7.75935 6.0876,5.78357 9.1314,13.392 9.1315,22.8253 -10e-5,1.21664 -0.1905,3.15647 -0.5712,5.81951 l -38.1176,0 c 1.7506,5.40278 5.6314,8.02753 11.6425,7.87428 4.7155,-0.1509 9.3555,-1.97697 13.9202,-5.47822 l 12.2136,11.98381 c -9.4357,6.54275 -18.2236,9.81412 -26.3637,9.81411 -7.6827,10e-6 -14.3775,-2.39606 -20.0844,-7.18819 -6.2386,-5.32612 -9.4717,-12.36339 -9.6992,-21.11184 0,-1.14227 0,-2.89289 0,-5.25184 0.074,-5.78116 2.2417,-11.37313 6.5021,-16.77593 5.4794,-6.84684 12.9357,-10.27028 22.3691,-10.27034 z m -10.2704,22.59544 19.9696,0 c -0.4551,-2.12901 -1.5957,-3.93535 -3.4217,-5.419 -1.8261,-1.48356 -3.9953,-2.26368 -6.5074,-2.34034 -2.5865,-0.0766 -4.8304,0.76042 -6.7319,2.51099 -1.5974,1.4465 -2.7003,3.19595 -3.3086,5.24835 z"
           style="font-variant:normal;font-stretch:normal;fill:#000000;font-family:CodiceNero;-inkscape-font-specification:CodiceNero"
           id="path5936" />
      </g>
      <g
         style="font-size:85.58965302px;line-height:125%;fill:#000000;font-family:Sans"
         id="text5042">
        <path
           d="m 1178.3174,915.37545 -15.2331,-43.47916 14.9771,0 8.045,24.73553 7.7027,-24.73553 13.6947,0 -13.4361,43.47916 z"
           style="font-variant:normal;font-stretch:normal;fill:#000000;font-family:CodiceNero;-inkscape-font-specification:CodiceNero"
           id="path5939" />
        <path
           d="m 1214.5692,871.89629 13.7809,0 0,43.56536 -13.7809,0 z m -0.256,-13.52488 c 1.4262,-2.85223 3.7656,-4.27838 7.0185,-4.27844 1.2554,6e-5 2.4247,0.25691 3.5079,0.77054 2.9097,1.42621 4.3646,3.79441 4.3646,7.10461 0,1.19808 -0.2569,2.33865 -0.7705,3.4217 -1.4262,2.85409 -3.7935,4.2811 -7.102,4.28105 -1.2556,5e-5 -2.4257,-0.25679 -3.5106,-0.77053 -2.8523,-1.4261 -4.2784,-3.76557 -4.2784,-7.01842 0,-1.25544 0.2568,-2.42561 0.7705,-3.51051 z"
           style="font-variant:normal;font-stretch:normal;fill:#000000;font-family:CodiceNero;-inkscape-font-specification:CodiceNero"
           id="path5941" />
        <path
           d="m 1269.5464,873.94931 c 0.9698,0.34309 2.1113,1.14235 3.4243,2.39781 2.1679,2.11052 3.2519,4.50659 3.2519,7.18819 l 0,19.94253 c 0,1.0274 0.6564,1.68388 1.9694,1.96944 0.1149,0.0557 1.0282,0.14106 2.74,0.25598 -0.5137,1.48362 -1.9973,4.99239 -4.4508,10.52631 -4.4509,1e-5 -8.1886,-1.25462 -11.2133,-3.76387 -3.9946,2.62418 -7.9892,3.93627 -11.9838,3.93627 -4.1653,0 -7.8312,-1.34082 -10.9978,-4.02247 -3.1666,-2.68163 -4.7499,-6.01975 -4.7499,-10.01436 0,-6.61876 4.08,-11.18364 12.2398,-13.69466 3.0247,-0.4562 7.1333,-1.16927 12.326,-2.13922 0,-2.51096 -1.5977,-3.76645 -4.793,-3.76649 -3.1954,4e-5 -6.2488,0.82717 -9.1603,2.48139 -0.1706,0.11496 -1.3687,1.02829 -3.5941,2.73998 l -6.5038,-9.84198 c 0.1132,-0.28553 0.969,-0.91328 2.5676,-1.88324 1.9398,-1.25545 4.1078,-2.39689 6.5038,-3.42432 2.854,-1.25545 6.2209,-1.88319 10.1006,-1.88324 4.4508,5e-5 8.5586,0.9987 12.3234,2.99595 z m -18.3153,27.81768 c 0.057,0.91247 0.6565,1.68214 1.797,2.309 0.9699,0.57117 1.9686,0.85675 2.996,0.85673 1.5985,2e-5 2.9681,-0.35652 4.1086,-1.06961 1.1406,-0.71305 1.8537,-1.52582 2.1393,-2.43829 l 0,-4.36724 c -2.3961,0.45799 -4.7922,0.91508 -7.1882,1.37129 -2.626,0.56943 -3.9102,1.68214 -3.8527,3.33812 z"
           style="font-variant:normal;font-stretch:normal;fill:#000000;font-family:CodiceNero;-inkscape-font-specification:CodiceNero"
           id="path5943" />
      </g>
      <g
         style="font-size:85.58965302px;line-height:125%;fill:#000000;font-family:Sans"
         id="text5046">
        <path
           d="m 1657.8729,951.86314 0,60.51196 -14.2093,0 0,-39.54291 -10.3539,0 0,-12.15359 6.2479,0 c 3.709,-0.68428 5.5635,-3.05248 5.5635,-7.10461 0,-0.56935 -0.029,-1.13963 -0.086,-1.71085 z"
           style="font-variant:normal;font-stretch:normal;word-spacing:-3px;fill:#000000;font-family:CodiceNero;-inkscape-font-specification:CodiceNero"
           id="path5909" />
        <path
           d="m 1692.4765,951.86314 0,60.51196 -14.2092,0 0,-39.54291 -10.354,0 0,-12.15359 6.2479,0 c 3.709,-0.68428 5.5635,-3.05248 5.5636,-7.10461 -10e-5,-0.56935 -0.029,-1.13963 -0.086,-1.71085 z"
           style="font-variant:normal;font-stretch:normal;word-spacing:-3px;fill:#000000;font-family:CodiceNero;-inkscape-font-specification:CodiceNero"
           id="path5911" />
        <path
           d="m 1728.1928,950.49446 c 4.1652,0.17071 7.7315,0.85505 10.6987,2.05302 7.2456,2.96728 11.0113,8.35929 11.2969,16.17605 0.1723,3.76653 -0.7114,6.70501 -2.6512,8.81546 -1.4836,1.19807 -2.9394,2.36824 -4.3672,3.51051 5.0219,1.6543 7.5329,5.79081 7.5329,12.40956 0,5.42077 -1.3983,9.81414 -4.1948,13.18014 -3.8797,4.6232 -10.1276,6.9348 -18.7436,6.9348 -8.1599,0 -14.3791,-2.2829 -18.6575,-6.8486 -3.0821,-3.366 -4.9941,-7.70278 -5.7359,-13.01036 l 14.5514,-2.05302 c 0,2.6242 0.9129,4.62106 2.7387,5.99059 1.8257,1.36957 4.2509,2.05435 7.2757,2.05433 2.1679,2e-5 4.1077,-0.5707 5.8195,-1.71216 1.7116,-1.14142 2.5675,-2.62459 2.5675,-4.44952 0,-4.22269 -3.4522,-6.33404 -10.3565,-6.33407 -0.9125,3e-5 -1.9677,0.0288 -3.1657,0.0862 l 0,-12.15358 c 3.8222,4e-5 6.6466,-0.31427 8.4733,-0.94293 2.7948,-0.91241 4.1922,-2.65287 4.1922,-5.22137 0,-3.87962 -2.5676,-5.81945 -7.7027,-5.81951 -6.3907,6e-5 -9.5861,2.73916 -9.586,8.21732 l -14.1231,-1.45488 c 0.2856,-3.76644 1.2555,-7.01923 2.9098,-9.75839 3.9371,-6.44633 11.013,-9.66952 21.2276,-9.66958 z"
           style="font-variant:normal;font-stretch:normal;word-spacing:-3px;fill:#000000;font-family:CodiceNero;-inkscape-font-specification:CodiceNero"
           id="path5913" />
        <path
           d="m 1814.7266,979.67821 0,11.64164 -20.9691,0 0,-11.64164 z"
           style="font-variant:normal;font-stretch:normal;word-spacing:-3px;fill:#000000;font-family:CodiceNero;-inkscape-font-specification:CodiceNero"
           id="path5915" />
        <path
           d="m 1880.8921,951.86314 0,60.51196 -14.2093,0 0,-39.54291 -10.3539,0 0,-12.15359 6.2479,0 c 3.709,-0.68428 5.5635,-3.05248 5.5635,-7.10461 0,-0.56935 -0.029,-1.13963 -0.086,-1.71085 z"
           style="font-variant:normal;font-stretch:normal;word-spacing:-3px;fill:#000000;font-family:CodiceNero;-inkscape-font-specification:CodiceNero"
           id="path5917" />
      </g>
      <g
         style="fill:#aa6aaa;fill-opacity:1"
         transform="matrix(3.7795274,0,0,3.7795274,1040,1399.8553)"
         id="g6470">
        <rect
           y="-86.645844"
           x="1.7763568e-015"
           height="66.145836"
           width="264.58334"
           id="rect6472"
           style="fill:#00408b;fill-opacity:1;stroke:none" />
        <rect
           ry="8.6934528"
           rx="8.6934528"
           y="-84.165367"
           x="2.4804688"
           height="61.184898"
           width="259.62241"
           id="rect6474"
           style="fill:none;stroke:#ffffff;stroke-width:2.48046875;stroke-miterlimit:4;stroke-opacity:1;stroke-dasharray:none" />
        <path
           sodipodi:nodetypes="scccccccccccs"
           d="m 212.42348,-80.420617 c -1.45464,0.0889 -1.09128,1.93596 -0.78517,3.07834 l 2.78393,8.90952 c 1.24302,2.81119 -1.07931,3.17434 -2.36643,3.15625 H 7.7042698 v 23.40714 H 212.05581 c 1.28712,-0.0181 3.60945,0.34506 2.36643,3.15625 l -2.78393,8.90952 c -0.44524,1.66166 -1.01143,4.81387 4.07229,1.87881 l 41.16846,-25.64892 -41.16846,-25.64734 c -1.58865,-0.91722 -2.62594,-1.24006 -3.28712,-1.19957 z"
           style="fill:#ffffff;fill-opacity:1;stroke:none"
           id="path6476"
           inkscape:connector-curvature="0" />
      </g>
      <g
         id="g5870"
         transform="matrix(-3.7795274,0,0,3.7795274,1000,1399.8553)"
         style="fill:#aa6aaa;fill-opacity:1">
        <rect
           style="fill:#00408b;fill-opacity:1;stroke:none"
           id="rect5872"
           width="264.58334"
           height="66.145836"
           x="1.7763568e-015"
           y="-86.645844" />
        <rect
           style="fill:none;stroke:#ffffff;stroke-width:2.48046875;stroke-miterlimit:4;stroke-opacity:1;stroke-dasharray:none"
           id="rect5874"
           width="259.62241"
           height="61.184898"
           x="2.4804688"
           y="-84.165367"
           rx="8.6934528"
           ry="8.6934528" />
        <path
           inkscape:connector-curvature="0"
           id="path5876"
           style="fill:#ffffff;fill-opacity:1;stroke:none"
           d="m 212.42348,-80.420617 c -1.45464,0.0889 -1.09128,1.93596 -0.78517,3.07834 l 2.78393,8.90952 c 1.24302,2.81119 -1.07931,3.17434 -2.36643,3.15625 H 7.7042698 v 23.40714 H 212.05581 c 1.28712,-0.0181 3.60945,0.34506 2.36643,3.15625 l -2.78393,8.90952 c -0.44524,1.66166 -1.01143,4.81387 4.07229,1.87881 l 41.16846,-25.64892 -41.16846,-25.64734 c -1.58865,-0.91722 -2.62594,-1.24006 -3.28712,-1.19957 z"
           sodipodi:nodetypes="scccccccccccs" />
      </g>
    </g>
  </g>
</svg>
