<?xml version="1.0" encoding="UTF-8" standalone="no"?>
<!-- Created with Inkscape (http://www.inkscape.org/) -->

<svg
   xmlns:dc="http://purl.org/dc/elements/1.1/"
   xmlns:cc="http://creativecommons.org/ns#"
   xmlns:rdf="http://www.w3.org/1999/02/22-rdf-syntax-ns#"
   xmlns:svg="http://www.w3.org/2000/svg"
   xmlns="http://www.w3.org/2000/svg"
   xmlns:sodipodi="http://sodipodi.sourceforge.net/DTD/sodipodi-0.dtd"
   xmlns:inkscape="http://www.inkscape.org/namespaces/inkscape"
   version="1.1"
   width="200"
   height="200"
   id="svg2"
   inkscape:version="0.47 r22583"
   sodipodi:docname="Italian traffic signs - icona tram.svg">
  <metadata
     id="metadata4283">
    <rdf:RDF>
      <cc:Work
         rdf:about="">
        <dc:format>image/svg+xml</dc:format>
        <dc:type
           rdf:resource="http://purl.org/dc/dcmitype/StillImage" />
      </cc:Work>
    </rdf:RDF>
  </metadata>
  <sodipodi:namedview
     pagecolor="#ffffff"
     bordercolor="#666666"
     borderopacity="1"
     objecttolerance="10"
     gridtolerance="10"
     guidetolerance="10"
     inkscape:pageopacity="0"
     inkscape:pageshadow="2"
     inkscape:window-width="1600"
     inkscape:window-height="838"
     id="namedview4281"
     showgrid="false"
     inkscape:zoom="2.8163281"
     inkscape:cx="100"
     inkscape:cy="100"
     inkscape:window-x="-8"
     inkscape:window-y="-8"
     inkscape:window-maximized="1"
     inkscape:current-layer="svg2" />
  <defs
     id="defs4">
    <inkscape:perspective
       sodipodi:type="inkscape:persp3d"
       inkscape:vp_x="0 : 100 : 1"
       inkscape:vp_y="0 : 1000 : 0"
       inkscape:vp_z="200 : 100 : 1"
       inkscape:persp3d-origin="100 : 66.666667 : 1"
       id="perspective4285" />
    <inkscape:perspective
       id="perspective3725"
       inkscape:persp3d-origin="0.5 : 0.33333333 : 1"
       inkscape:vp_z="1 : 0.5 : 1"
       inkscape:vp_y="0 : 1000 : 0"
       inkscape:vp_x="0 : 0.5 : 1"
       sodipodi:type="inkscape:persp3d" />
  </defs>
  <rect
     style="fill:#ffffff;fill-opacity:1;stroke:none"
     id="rect2881"
     width="200.9709"
     height="200.61583"
     x="0.14424346"
     y="-0.17060184"
     rx="0"
     ry="0" />
  <rect
     width="194.80612"
     height="194.80614"
     ry="18.580454"
     x="3.2339785"
     y="3.2172253"
     id="rect4614"
     style="fill:none;stroke:#000000;stroke-width:3;stroke-miterlimit:4;stroke-opacity:1;stroke-dasharray:none" />
  <path
     d="m 87.995653,66.998877 -0.438397,0.273998 -19.23464,12.329891 -42.19565,0 c -2.407648,0 -4.329164,1.976308 -4.329164,4.383963 l 0,2.137182 16.056267,0 0,18.631849 146.314791,0 0,-4.05516 -1.58919,-14.576689 0,-0.05471 0,-2.082383 c 0,-2.407655 -1.92151,-4.383964 -4.32916,-4.383964 l -103.461548,0 14.193082,-9.096717 9.261124,0 0,-3.507171 -9.754319,0 -0.493196,0 z m -48.387999,19.125034 27.016176,0 0,16.878269 -27.016176,0 0,-16.878269 z m 28.769761,0 27.070976,0 0,16.878269 -27.070976,0 0,-16.878269 z m 28.824561,0 27.016184,0 0,16.878269 -27.016184,0 0,-16.878269 z m 28.769764,0 27.01618,0 0,16.878269 -27.01618,0 0,-16.878269 z m 28.76977,0 26.08457,0 1.53439,16.878269 -27.61896,0 0,-16.878269 z m -135.026091,3.342773 -5.589553,15.289076 19.399039,0 0,-14.412284 0,-0.876792 -0.876793,0 -12.932693,0 z m 1.20559,1.753585 10.85031,0 0,11.781911 -15.179474,0 4.329164,-11.781911 z m -6.959542,17.097461 0,11.50791 25.207791,1.69878 c 0.168853,3.52785 3.062067,6.35675 6.630745,6.35675 2.878147,0 5.315742,-1.82662 6.247148,-4.38396 l 9.041925,0 c 0.930302,2.55944 3.367494,4.38396 6.247148,4.38396 3.47584,0 6.324578,-2.68341 6.630745,-6.08275 l 53.484361,0 c 0.30078,3.39933 3.10011,6.08275 6.57595,6.08275 2.87814,0 5.31575,-1.82662 6.24715,-4.38396 l 9.04192,0 c 0.9303,2.55944 3.3675,4.38396 6.24715,4.38396 3.47671,0 6.3258,-2.6822 6.63074,-6.08275 l 16.65906,0 c 3.39526,0 5.26074,-2.10002 5.26076,-4.98676 l 0,-8.49393 -170.152593,0 z"
     id="rect1932"
     style="fill:#000000;fill-opacity:1;fill-rule:evenodd;stroke:none" />
</svg>
