<?xml version="1.0" encoding="UTF-8" standalone="no"?>
<!-- Created with Inkscape (http://www.inkscape.org/) -->

<svg
   xmlns:dc="http://purl.org/dc/elements/1.1/"
   xmlns:cc="http://creativecommons.org/ns#"
   xmlns:rdf="http://www.w3.org/1999/02/22-rdf-syntax-ns#"
   xmlns:svg="http://www.w3.org/2000/svg"
   xmlns="http://www.w3.org/2000/svg"
   xmlns:sodipodi="http://sodipodi.sourceforge.net/DTD/sodipodi-0.dtd"
   xmlns:inkscape="http://www.inkscape.org/namespaces/inkscape"
   version="1.1"
   width="200"
   height="200"
   id="svg2"
   inkscape:version="0.47 r22583"
   sodipodi:docname="Italian traffic signs - icona autobus urbano.svg">
  <metadata
     id="metadata3689">
    <rdf:RDF>
      <cc:Work
         rdf:about="">
        <dc:format>image/svg+xml</dc:format>
        <dc:type
           rdf:resource="http://purl.org/dc/dcmitype/StillImage" />
      </cc:Work>
    </rdf:RDF>
  </metadata>
  <sodipodi:namedview
     pagecolor="#ffffff"
     bordercolor="#666666"
     borderopacity="1"
     objecttolerance="10"
     gridtolerance="10"
     guidetolerance="10"
     inkscape:pageopacity="0"
     inkscape:pageshadow="2"
     inkscape:window-width="1600"
     inkscape:window-height="838"
     id="namedview3687"
     showgrid="false"
     inkscape:zoom="2.8163281"
     inkscape:cx="38.927571"
     inkscape:cy="100"
     inkscape:window-x="-8"
     inkscape:window-y="-8"
     inkscape:window-maximized="1"
     inkscape:current-layer="svg2" />
  <defs
     id="defs4">
    <inkscape:perspective
       sodipodi:type="inkscape:persp3d"
       inkscape:vp_x="0 : 100 : 1"
       inkscape:vp_y="0 : 1000 : 0"
       inkscape:vp_z="200 : 100 : 1"
       inkscape:persp3d-origin="100 : 66.666667 : 1"
       id="perspective3691" />
    <inkscape:perspective
       id="perspective3725"
       inkscape:persp3d-origin="0.5 : 0.33333333 : 1"
       inkscape:vp_z="1 : 0.5 : 1"
       inkscape:vp_y="0 : 1000 : 0"
       inkscape:vp_x="0 : 0.5 : 1"
       sodipodi:type="inkscape:persp3d" />
  </defs>
  <rect
     style="fill:#ffffff;fill-opacity:1;stroke:none"
     id="rect2881"
     width="200.9709"
     height="200.61583"
     x="-0.35506526"
     y="0.27185175"
     rx="0"
     ry="0" />
  <rect
     width="194.80612"
     height="194.80614"
     ry="18.580454"
     x="2.8789062"
     y="2.8621531"
     id="rect4614"
     style="fill:none;stroke:#000000;stroke-width:3;stroke-miterlimit:4;stroke-opacity:1;stroke-dasharray:none" />
  <g
     id="g5809">
    <path
       d="m 52.748069,102.43916 c -5.271211,0 -9.527621,4.58689 -9.527612,10.2674 0,5.6805 4.256392,10.33099 9.527612,10.33098 5.271201,0 9.55711,-4.65048 9.55711,-10.33098 0,-5.68051 -4.285918,-10.2674 -9.55711,-10.2674 z m 0,5.43569 c 2.493136,0 4.51308,2.14498 4.51308,4.83171 0,2.68673 -2.019944,4.8953 -4.51308,4.8953 -2.493136,0 -4.513102,-2.20857 -4.513081,-4.8953 0,-2.68673 2.019926,-4.83171 4.513081,-4.83171 z"
       id="path4153-9"
       style="fill:#000000;fill-opacity:1;fill-rule:evenodd;stroke:#000000;stroke-width:2.29299998;stroke-miterlimit:4;stroke-opacity:1;stroke-dasharray:none" />
    <path
       d="m 13.7753,106.98368 c -0.202418,-3.30827 -0.368033,-7.499661 -0.368033,-9.314203 l 0,-3.299168 1.958365,0 1.958365,0 0.158499,6.915091 0.158499,6.91509 2.399112,0.17358 2.399112,0.17358 0,-15.306336 0,-15.306336 -2.399112,0.173583 -2.399112,0.173583 -0.15799,7.197337 -0.15799,7.197336 -2.154372,0 -2.154373,0 -0.368999,-6.86259 c -0.202949,-3.774424 -0.368998,-7.965815 -0.368998,-9.314201 l 0,-2.45161 11.28994,0 11.289941,0 0,19.475147 0,19.475147 -10.35741,0 -10.357411,0 -0.368033,-6.01503 z m 17.695871,-13.742366 0,-15.241419 -2.257988,0 -2.257988,0 0,15.241419 0,15.241416 2.257988,0 2.257988,0 0,-15.241416 z m 5.080474,10.443196 0,-9.314201 24.837868,0 24.837869,0 0,9.314201 0,9.3142 -10.150193,0 -10.150192,0 -0.3437,-1.55237 c -0.827547,-3.7377 -1.543092,-5.2253 -3.465566,-7.2048 -5.36061,-5.519648 -12.894085,-5.63957 -18.243249,-0.29041 -2.361063,2.36107 -3.935855,5.61207 -3.935855,8.1252 0,0.64854 -0.502782,0.92238 -1.693491,0.92238 l -1.693491,0 0,-9.3142 z m 51.933725,-10.160947 0,-19.475147 11.007692,0 11.007688,0 0,19.475147 0,19.475147 -11.007688,0 -11.007692,0 0,-19.475147 z m 9.031952,0 0,-15.523668 -2.257988,0 -2.257988,0 0,15.523668 0,15.523667 2.257988,0 2.257988,0 0,-15.523667 z m 8.467458,0 0,-15.523668 -2.54024,0 -2.54024,0 0,15.523668 0,15.523667 2.54024,0 2.54024,0 0,-15.523667 z m 6.77396,10.160947 0,-9.314201 24.83787,0 24.83787,0 0,9.314201 0,9.3142 -1.69349,0 c -1.19071,0 -1.69349,-0.27384 -1.69349,-0.92238 0,-2.51313 -1.5748,-5.76413 -3.93586,-8.1252 -4.17863,-4.17863 -9.40607,-5.053245 -14.63341,-2.44835 -3.5498,1.76894 -5.88991,4.74178 -6.8356,8.68387 l -0.6746,2.81206 -10.10464,0 -10.10465,0 0,-9.3142 z m 50.80473,-10.160947 0,-19.475147 10.39052,0 10.39051,0 0.33992,5.503846 c 0.18696,3.027115 0.46646,7.218505 0.62112,9.314201 l 0.2812,3.810354 -2.24456,0 -2.24455,0 -0.1585,-6.915088 -0.1585,-6.915088 -2.25799,0 -2.25798,0 -0.15035,15.100295 -0.15034,15.100294 2.54946,0 2.54945,0 0,-7.33846 0,-7.338461 2.2023,0 2.2023,0 0.34724,6.632841 c 0.19098,3.64806 0.43277,7.83945 0.53732,9.3142 l 0.19008,2.68136 -11.48932,0 -11.48933,0 0,-19.475147 z m 8.46746,0.282249 0,-15.24142 -2.54024,0 -2.54023,0 0,15.24142 0,15.241418 2.54023,0 2.54024,0 0,-15.241418 z M 36.551645,83.362617 l 0,-9.314201 24.837868,0 24.837869,0 0,9.314201 0,9.3142 -24.837869,0 -24.837868,0 0,-9.3142 z m 23.144377,0 0,-5.362722 -9.596449,0 -9.596449,0 0,5.362722 0,5.362721 9.596449,0 9.596449,0 0,-5.362721 z m 22.015384,0 0,-5.362722 -9.314201,0 -9.314201,0 0,5.362722 0,5.362721 9.314201,0 9.314201,0 0,-5.362721 z m 31.047334,0 0,-9.314201 24.83787,0 24.83787,0 0,9.314201 0,9.3142 -24.83787,0 -24.83787,0 0,-9.3142 z m 23.14438,0 0,-5.362722 -9.59645,0 -9.59645,0 0,5.362722 0,5.362721 9.59645,0 9.59645,0 0,-5.362721 z m 22.01538,0 0,-5.362722 -9.3142,0 -9.3142,0 0,5.362722 0,5.362721 9.3142,0 9.3142,0 0,-5.362721 z"
       id="path5800"
       style="fill:#000000" />
    <path
       d="m 146.04796,102.43916 c -5.27121,0 -9.52762,4.58689 -9.52761,10.2674 0,5.6805 4.25639,10.33099 9.52761,10.33098 5.2712,0 9.55711,-4.65048 9.55711,-10.33098 0,-5.68051 -4.28592,-10.2674 -9.55711,-10.2674 z m 0,5.43569 c 2.49314,0 4.51308,2.14498 4.51308,4.83171 0,2.68673 -2.01994,4.8953 -4.51308,4.8953 -2.49314,0 -4.5131,-2.20857 -4.51308,-4.8953 0,-2.68673 2.01992,-4.83171 4.51308,-4.83171 z"
       id="path5807"
       style="fill:#000000;fill-opacity:1;fill-rule:evenodd;stroke:#000000;stroke-width:2.29299998;stroke-miterlimit:4;stroke-opacity:1;stroke-dasharray:none" />
  </g>
</svg>
