<?xml version="1.0" encoding="UTF-8" standalone="no"?>
<!-- Created with Inkscape (http://www.inkscape.org/) -->

<svg
   xmlns:dc="http://purl.org/dc/elements/1.1/"
   xmlns:cc="http://creativecommons.org/ns#"
   xmlns:rdf="http://www.w3.org/1999/02/22-rdf-syntax-ns#"
   xmlns:svg="http://www.w3.org/2000/svg"
   xmlns="http://www.w3.org/2000/svg"
   xmlns:sodipodi="http://sodipodi.sourceforge.net/DTD/sodipodi-0.dtd"
   xmlns:inkscape="http://www.inkscape.org/namespaces/inkscape"
   width="600"
   height="900"
   id="svg2"
   version="1.1"
   inkscape:version="0.48.5 r10040"
   sodipodi:docname="CANC Osped.svg">
  <defs
     id="defs4" />
  <sodipodi:namedview
     id="base"
     pagecolor="#ffffff"
     bordercolor="#666666"
     borderopacity="1.0"
     inkscape:pageopacity="0.0"
     inkscape:pageshadow="2"
     inkscape:zoom="0.24748737"
     inkscape:cx="178.45625"
     inkscape:cy="306.82365"
     inkscape:document-units="px"
     inkscape:current-layer="layer1"
     showgrid="false"
     inkscape:object-paths="true"
     inkscape:snap-intersection-paths="false"
     inkscape:object-nodes="false"
     inkscape:snap-smooth-nodes="true"
     inkscape:snap-object-midpoints="true"
     fit-margin-top="0"
     fit-margin-left="0"
     fit-margin-right="0"
     fit-margin-bottom="0"
     inkscape:snap-nodes="true"
     inkscape:window-width="1366"
     inkscape:window-height="705"
     inkscape:window-x="-8"
     inkscape:window-y="-8"
     inkscape:window-maximized="1" />
  <metadata
     id="metadata7">
    <rdf:RDF>
      <cc:Work
         rdf:about="">
        <dc:format>image/svg+xml</dc:format>
        <dc:type
           rdf:resource="http://purl.org/dc/dcmitype/StillImage" />
        <dc:title></dc:title>
      </cc:Work>
    </rdf:RDF>
  </metadata>
  <g
     inkscape:label="Livello 1"
     inkscape:groupmode="layer"
     id="layer1"
     transform="translate(0,-152.375)">
    <rect
       style="fill:#ffffff;fill-opacity:1;fill-rule:evenodd;stroke:#000000;stroke-width:0.99999994;stroke-opacity:1"
       id="rect2985"
       width="599"
       height="899"
       x="0.49999997"
       y="152.875" />
    <rect
       style="fill:none;stroke:#000000;stroke-width:12;stroke-miterlimit:4;stroke-opacity:1;stroke-dasharray:none"
       id="rect3755"
       width="576"
       height="876"
       x="12"
       y="164.375"
       rx="39.000023"
       ry="39.000023" />
    <path
       id="path9576-5-8"
       style="fill:#000000;fill-opacity:1;fill-rule:evenodd;stroke:none"
       d="M 135.2262,878.602 135,827.06815 l 176.52687,0 -10.62285,-60.80115 c 0.2259,-1.5831 0.6774,-3.1644 1.5831,-4.06845 0.9033,-1.12935 3.16395,-1.35525 4.74645,-1.35525 l 157.7664,91.99275 -157.9923,92.21895 c -1.5831,0 -3.84255,-0.4515 -4.52055,-0.90345 -0.9033,-1.12935 -1.3572,-2.2602 -1.1295,-3.8424 l 11.07495,-61.70535 z"
       inkscape:connector-curvature="0" />
    <rect
       ry="50.70277"
       rx="50.70277"
       y="233"
       x="80.625"
       height="438.75"
       width="438.75"
       id="rect19093"
       style="fill:#ffffff;fill-opacity:1;stroke:#000000;stroke-width:11.25;stroke-linejoin:miter;stroke-miterlimit:4;stroke-opacity:1;stroke-dasharray:none" />
    <g
       id="g18486"
       transform="matrix(2.25,0,0,2.25,1685.0151,-743.40467)">
      <path
         inkscape:connector-curvature="0"
         id="path18492-1"
         d="m -643.99182,564.56812 c -3.167,0 -5.744,-2.645 -5.744,-5.896 0,-3.251 2.577,-5.896 5.744,-5.896 3.167,0 5.744,2.645 5.744,5.896 0,3.252 -2.577,5.896 -5.744,5.896 z m -45.815,0 c -3.167,0 -5.744,-2.645 -5.744,-5.896 0,-3.251 2.577,-5.896 5.744,-5.896 3.167,0 5.744,2.645 5.744,5.896 0,3.252 -2.577,5.896 -5.744,5.896 z m -2.16,18.206 c -5.952,-1.414 -8.567,-4.923 -9.366,-12.564 l -0.494,-4.73 33.674,0.014 c 37.803,0.015 37.201,-0.049 54.852,5.898 17.241,5.809 24.606,6.794 54.975,7.352 l 25.908,0.476 -4.247,4.318 c -0.001,-0.002 -153.91,-0.433 -155.302,-0.764 l 0,0 z m 115.191,-11.928 c -7.194,-1.014 -19.2,-5.282 -26.319,-9.355 -3.328,-1.904 -27.153,-19.969 -28.376,-20.594 -4.844,-2.474 -10.567,-2.897 -39.23,-2.897 h -28.686 c 0,0 2.008,-15.927 2.218,-16.683 0.355,-1.278 2.488,-1.374 30.593,-1.374 25.304,0 30.581,0.191 32.486,1.176 1.251,0.647 7.127,6.712 13.058,13.478 5.931,6.766 12.161,13.567 13.844,15.114 5.051,4.642 13.879,10.14 20.172,12.563 10.431,4.017 16.16,4.774 36.114,4.774 h 18.09 v 4.71 c 10e-4,0.002 -41.157,-0.516 -43.964,-0.912 l 0,0 0,0 z m 1.078,-10.061 c -6.039,-1.583 -13.501,-5.065 -19.125,-8.923 -7.097,-4.869 -12.883,-11.841 -23.198,-27.954 -8.746,-13.663 -10.674,-16.191 -13.71,-17.978 l -3.533,-2.08 -26.912,-0.235 c -18.624,-0.162 -26.754,-0.49 -26.4,-1.063 0.282,-0.456 1.904,-1.452 3.606,-2.214 2.634,-1.179 3.834,-2.655 8.069,-9.928 l 4.975,-8.543 -2.329,-0.25 c -1.921,-0.206 -2.166,-0.447 -1.396,-1.374 1.293,-1.557 53.66,-1.698 53.15,-0.143 -0.177,0.54 -1.574,1.088 -3.104,1.219 l -2.782,0.238 4.269,17.034 4.269,17.034 7.196,11.384 c 10.802,17.088 19.801,25.321 32.738,29.951 4.735,1.695 6.526,1.845 24.848,2.08 18.359,0.236 19.842,0.361 21.123,1.776 1.359,1.502 1.13,1.521 -17.39,1.479 -15.712,-0.036 -19.68,-0.282 -24.364,-1.51 z m -50.991,-64.099 c -1.874,-7.179 -3.576,-13.576 -3.732,-13.377 -0.661,0.842 -8.551,14.485 -9.445,16.223 0,0 1.432,0.115 2.835,0.407 3.819,0.796 8.907,3.992 11.254,7.069 1.145,1.502 2.175,2.73 2.289,2.73 0.114,0 -1.327,-5.873 -3.201,-13.052 l 0,0 z m -10.735,-5.78 c 2.699,-4.735 4.907,-8.8 4.907,-9.034 0,-0.234 -8.366,-0.33 -18.591,-0.215 l -18.591,0.21 -2.07,3.533 c -1.139,1.943 -3.402,5.918 -5.029,8.832 l -2.959,5.299 18.713,-0.009 18.713,-0.009 4.907,-8.607 0,0 0,0 z" />
      <ellipse
         transform="translate(-719.27982,409.02912)"
         cx="26.232"
         cy="163.60699"
         rx="4.9419999"
         ry="5.0869999"
         id="ellipse18494-1"
         d="m 31.174,163.60699 c 0,2.80948 -2.212608,5.087 -4.942,5.087 -2.729391,0 -4.942,-2.27752 -4.942,-5.087 0,-2.80947 2.212609,-5.087 4.942,-5.087 2.729392,0 4.942,2.27753 4.942,5.087 z"
         sodipodi:cx="26.232"
         sodipodi:cy="163.60699"
         sodipodi:rx="4.9419999"
         sodipodi:ry="5.0869999"
         style="fill:#ffffff" />
      <ellipse
         transform="translate(-719.27982,409.02912)"
         cx="77.950996"
         cy="163.60699"
         rx="4.9419999"
         ry="5.0869999"
         id="ellipse18496-3"
         d="m 82.892996,163.60699 c 0,2.80948 -2.212608,5.087 -4.942,5.087 -2.729391,0 -4.942,-2.27752 -4.942,-5.087 0,-2.80947 2.212609,-5.087 4.942,-5.087 2.729392,0 4.942,2.27753 4.942,5.087 z"
         sodipodi:cx="77.950996"
         sodipodi:cy="163.60699"
         sodipodi:rx="4.9419999"
         sodipodi:ry="5.0869999"
         style="fill:#ffffff" />
    </g>
  </g>
</svg>
