<?xml version="1.0" encoding="UTF-8" standalone="no"?>
<!-- Created with Inkscape (http://www.inkscape.org/) -->
<svg
   xmlns:dc="http://purl.org/dc/elements/1.1/"
   xmlns:cc="http://creativecommons.org/ns#"
   xmlns:rdf="http://www.w3.org/1999/02/22-rdf-syntax-ns#"
   xmlns:svg="http://www.w3.org/2000/svg"
   xmlns="http://www.w3.org/2000/svg"
   xmlns:sodipodi="http://sodipodi.sourceforge.net/DTD/sodipodi-0.dtd"
   xmlns:inkscape="http://www.inkscape.org/namespaces/inkscape"
   version="1.1"
   width="200"
   height="200"
   id="svg2"
   inkscape:version="0.46"
   sodipodi:docname="Italian_traffic_signs_-_icona_motocarro.svg"
   sodipodi:version="0.32"
   inkscape:output_extension="org.inkscape.output.svg.inkscape">
  <metadata
     id="metadata2877">
    <rdf:RDF>
      <cc:Work
         rdf:about="">
        <dc:format>image/svg+xml</dc:format>
        <dc:type
           rdf:resource="http://purl.org/dc/dcmitype/StillImage" />
      </cc:Work>
    </rdf:RDF>
  </metadata>
  <sodipodi:namedview
     pagecolor="#ffffff"
     bordercolor="#666666"
     borderopacity="1"
     objecttolerance="10"
     gridtolerance="10"
     guidetolerance="10"
     inkscape:pageopacity="0"
     inkscape:pageshadow="2"
     inkscape:window-width="1024"
     inkscape:window-height="708"
     id="namedview2875"
     showgrid="false"
     inkscape:zoom="1.9914447"
     inkscape:cx="115.51255"
     inkscape:cy="118.43692"
     inkscape:window-x="-4"
     inkscape:window-y="-4"
     inkscape:window-maximized="1"
     inkscape:current-layer="svg2" />
  <defs
     id="defs4">
    <inkscape:perspective
       sodipodi:type="inkscape:persp3d"
       inkscape:vp_x="0 : 100 : 1"
       inkscape:vp_y="0 : 1000 : 0"
       inkscape:vp_z="200 : 100 : 1"
       inkscape:persp3d-origin="100 : 66.666667 : 1"
       id="perspective2879" />
  </defs>
  <rect
     style="fill:#ffffff;fill-opacity:1;stroke:none"
     id="rect2881"
     width="200.9709"
     height="200.61583"
     x="0"
     y="-0.61582947"
     rx="0"
     ry="0" />
  <rect
     width="194.80612"
     height="194.80614"
     ry="18.580454"
     x="3.2339785"
     y="2.8621521"
     id="rect4614"
     style="fill:none;stroke:#000000;stroke-width:3;stroke-miterlimit:4;stroke-opacity:1;stroke-dasharray:none" />
  <g
     id="g9961"
     transform="translate(4.1681658,2.7208842)">
    <path
       style="fill:#000000"
       id="path5617"
       d="M 32.474914,137.09276 C 25.192159,134.49493 20.871898,128.21199 20.941189,120.31931 C 20.999259,113.70478 24.266051,108.3066 30.062104,105.24752 L 32.358555,104.03549 L 32.523601,108.86458 C 32.672984,113.2354 32.550401,113.89739 31.231847,115.84038 C 27.181705,121.8086 31.808594,129.83718 38.882908,129.11651 C 41.734183,128.82605 43.897185,127.43937 45.563148,124.83388 C 46.660493,123.11768 46.883096,123.03713 50.586635,123.01599 L 54.461896,122.99389 L 54.461896,125.02615 C 54.461896,131.51355 46.440795,137.9323 38.386739,137.89001 C 36.334286,137.87921 33.673965,137.52047 32.474914,137.09277 L 32.474914,137.09276 L 32.474914,137.09276 z M 57.906573,124.1421 L 57.906573,118.97509 L 47.285487,118.97509 L 36.664401,118.97509 L 36.664401,106.15128 L 36.664401,93.327471 L 47.173686,76.727999 L 57.682973,60.128526 L 76.740491,59.977259 L 95.798014,59.825992 L 95.798014,87.104089 L 95.798014,114.38219 L 104.12666,114.38219 L 112.4553,114.38219 L 112.0919,118.29227 C 111.82944,121.11618 111.98781,123.09438 112.662,125.41351 C 113.17543,127.17965 113.59551,128.77867 113.59551,128.9669 C 113.59551,129.15512 101.0655,129.30912 85.751041,129.30912 L 57.906573,129.30912 L 57.906573,124.1421 L 57.906573,124.1421 z M 91.779225,78.787192 L 91.779225,63.86026 L 76.109828,63.86026 L 60.440436,63.86026 L 51.196009,78.464535 C 46.111575,86.496884 42.09678,93.214004 42.274241,93.391468 C 42.451703,93.568926 53.662922,93.714125 67.188064,93.714125 L 91.779225,93.714125 L 91.779225,78.787192 z M 152.7936,128.00203 C 154.03967,124.75481 154.4405,121.75629 154.09593,118.25946 L 153.71388,114.38219 L 164.65678,114.38219 L 175.59969,114.38219 L 175.59969,118.28472 L 175.59969,122.18725 L 165.12213,125.25942 C 151.19771,129.34224 152.38026,129.07917 152.7936,128.00203 L 152.7936,128.00203 z M 102.8309,111.08655 L 99.242691,110.88272 L 99.242691,85.362093 L 99.242691,59.84147 L 137.42119,59.84147 L 175.59969,59.84147 L 175.59969,85.322875 L 175.59969,110.80427 L 164.03568,111.22756 C 154.51057,111.57621 152.39316,111.51203 152.02638,110.86359 C 151.78147,110.4306 150.78391,108.97929 149.80959,107.63845 C 144.08583,99.761536 132.86117,97.167959 123.80261,101.62927 C 120.05866,103.47316 115.92062,107.32888 114.583,110.21987 C 113.94482,111.59915 113.03531,111.66622 102.8309,111.08655 L 102.8309,111.08655 z" />
    <path
       style="fill:#000000;fill-opacity:1;fill-rule:evenodd;stroke:none"
       id="path2876"
       d="M 133.12914,101.85179 C 123.21909,101.85679 115.15668,109.86659 115.16145,119.77667 C 115.16645,129.68675 123.23635,137.7491 133.14646,137.74431 C 143.05654,137.73931 151.05876,129.66946 151.05402,119.75938 C 151.04902,109.8493 143.03925,101.84702 133.12914,101.85179 L 133.12914,101.85179 z M 133.13414,111.29082 C 137.82137,111.28882 141.61312,115.07668 141.61537,119.76388 C 141.61737,124.45107 137.82953,128.30296 133.14234,128.30523 C 128.45514,128.30723 124.66336,124.45924 124.66111,119.77202 C 124.65911,115.08482 128.44695,111.29307 133.13414,111.29082 L 133.13414,111.29082 z" />
  </g>
</svg>
