<?xml version="1.0" encoding="UTF-8" standalone="no"?>
<!-- Created with Inkscape (http://www.inkscape.org/) -->

<svg
   xmlns:dc="http://purl.org/dc/elements/1.1/"
   xmlns:cc="http://creativecommons.org/ns#"
   xmlns:rdf="http://www.w3.org/1999/02/22-rdf-syntax-ns#"
   xmlns:svg="http://www.w3.org/2000/svg"
   xmlns="http://www.w3.org/2000/svg"
   xmlns:sodipodi="http://sodipodi.sourceforge.net/DTD/sodipodi-0.dtd"
   xmlns:inkscape="http://www.inkscape.org/namespaces/inkscape"
   width="3200"
   height="2500"
   id="svg12156"
   version="1.1"
   inkscape:version="0.48.5 r10040"
   sodipodi:docname="Nuovo documento 18">
  <defs
     id="defs12158" />
  <sodipodi:namedview
     id="base"
     pagecolor="#ffffff"
     bordercolor="#666666"
     borderopacity="1.0"
     inkscape:pageopacity="0.0"
     inkscape:pageshadow="2"
     inkscape:zoom="0.175"
     inkscape:cx="1461.2669"
     inkscape:cy="1378.8821"
     inkscape:document-units="px"
     inkscape:current-layer="layer1"
     showgrid="false"
     fit-margin-top="0"
     fit-margin-left="0"
     fit-margin-right="0"
     fit-margin-bottom="0"
     inkscape:window-width="1366"
     inkscape:window-height="705"
     inkscape:window-x="-8"
     inkscape:window-y="-8"
     inkscape:window-maximized="1" />
  <metadata
     id="metadata12161">
    <rdf:RDF>
      <cc:Work
         rdf:about="">
        <dc:format>image/svg+xml</dc:format>
        <dc:type
           rdf:resource="http://purl.org/dc/dcmitype/StillImage" />
        <dc:title></dc:title>
      </cc:Work>
    </rdf:RDF>
  </metadata>
  <g
     inkscape:label="Livello 1"
     inkscape:groupmode="layer"
     id="layer1"
     transform="translate(1828.5364,1405.2673)">
    <rect
       style="fill:#ffffff;fill-opacity:1;stroke:#000000;stroke-width:4;stroke-miterlimit:4;stroke-opacity:1;stroke-dasharray:none"
       id="rect12685"
       width="3196"
       height="2496"
       x="-1826.5364"
       y="-1403.2673" />
    <rect
       style="fill:#08842c;fill-opacity:1;stroke:none"
       id="rect12728"
       width="1400"
       height="675"
       x="-1622.8572"
       y="214.50507" />
    <g
       style="font-size:171.17930603px;font-style:normal;font-weight:normal;line-height:125%;letter-spacing:0px;word-spacing:0px;fill:#000000;fill-opacity:1;stroke:none;font-family:Sans"
       id="text12687">
      <path
         d="m 195.42988,-759.48569 35.26185,0 39.37312,121.02389 -29.10278,0 -6.15907,-18.1481 -43.65156,0 -6.50385,18.1481 -28.24605,0 z m 17.80332,33.89316 -0.34478,0 -13.1801,42.11049 0.34478,-0.17239 26.01541,0.17239 z"
         style="font-variant:normal;font-stretch:normal;fill:#000000;font-family:CodiceNero;-inkscape-font-specification:CodiceNero"
         id="path13021" />
      <path
         d="m 309.21334,-759.48569 -30.12668,0 34.40512,121.02389 36.97532,0 34.40511,-121.02389 -30.12668,0 -22.76609,79.59775 z"
         style="font-variant:normal;font-stretch:normal;fill:#000000;font-family:CodiceNero;-inkscape-font-specification:CodiceNero"
         id="path13023" />
      <path
         d="m 407.96219,-758.46179 83.87619,0 0,24.99673 -55.45775,0 0,20.54068 49.46585,0 0,25.1639 -49.46585,0 0,22.59371 60.76531,0 0,26.70497 -89.18375,0 z"
         style="font-variant:normal;font-stretch:normal;fill:#000000;font-family:CodiceNero;-inkscape-font-specification:CodiceNero"
         id="path13025" />
      <path
         d="m 523.54792,-759.48569 84.21575,0 0,23.11087 -50.66736,70.86326 52.55321,0 0,27.04976 -88.15985,0 0,-26.70497 49.13151,-69.15502 -47.07326,0 z"
         style="font-variant:normal;font-stretch:normal;fill:#000000;font-family:CodiceNero;-inkscape-font-specification:CodiceNero"
         id="path13027" />
      <path
         d="m 634.88135,-759.48569 84.21575,0 0,23.11087 -50.66736,70.86326 52.55322,0 0,27.04976 -88.15985,0 0,-26.70497 49.13151,-69.15502 -47.07327,0 z"
         style="font-variant:normal;font-stretch:normal;fill:#000000;font-family:CodiceNero;-inkscape-font-specification:CodiceNero"
         id="path13029" />
      <path
         d="m 776.16902,-759.48569 35.26185,0 39.37312,121.02389 -29.10278,0 -6.15907,-18.1481 -43.65156,0 -6.50385,18.1481 -28.24605,0 z m 17.80331,33.89316 -0.34478,0 -13.18009,42.11049 0.34478,-0.17239 26.01541,0.17239 z"
         style="font-variant:normal;font-stretch:normal;fill:#000000;font-family:CodiceNero;-inkscape-font-specification:CodiceNero"
         id="path13031" />
      <path
         d="m 953.11564,-638.4618 -53.23233,-75.31931 0,75.4917 -29.27517,0 0,-121.19628 31.66775,0 54.09429,78.05667 -0.34478,-78.22907 28.07365,0 0,121.19629 z"
         style="font-variant:normal;font-stretch:normal;fill:#000000;font-family:CodiceNero;-inkscape-font-specification:CodiceNero"
         id="path13033" />
      <path
         d="m 1062.3908,-761.8835 c 13.6937,1.3e-4 25.9039,3.82408 36.6305,11.47186 15.637,11.06797 23.4556,28.35584 23.4557,51.86365 -1e-4,19.17204 -6.3908,34.57928 -19.172,46.22175 -11.6426,10.3818 -25.4513,15.57269 -41.4261,15.57268 -16.2049,10e-6 -29.8429,-5.24834 -40.9142,-15.74507 -12.2102,-11.63899 -18.3153,-27.44499 -18.3153,-47.41804 0,-16.08977 4.6215,-29.89847 13.8644,-41.42615 10.9564,-13.69366 26.2487,-20.54055 45.877,-20.54068 z m -28.758,62.82356 c 0,11.18285 2.6816,19.85638 8.0449,26.02063 5.1369,5.70462 11.9838,8.55691 20.5407,8.55688 8.9016,3e-5 15.9487,-3.13784 21.1414,-9.41361 5.1926,-6.27569 7.7889,-14.8343 7.789,-25.67585 -10e-5,-10.15882 -2.3387,-18.54678 -7.0158,-25.1639 -5.2519,-7.30302 -12.4419,-10.95458 -21.5698,-10.95468 -19.287,10e-5 -28.9304,12.21026 -28.9304,36.63053 z"
         style="font-variant:normal;font-stretch:normal;fill:#000000;font-family:CodiceNero;-inkscape-font-specification:CodiceNero"
         id="path13035" />
    </g>
    <g
       style="font-size:199.709198px;font-style:normal;font-weight:normal;line-height:125%;letter-spacing:0px;word-spacing:0px;fill:#000000;fill-opacity:1;stroke:none;font-family:Sans"
       id="text12691">
      <path
         d="m 546.53214,-502.31564 c 11.84791,1.1e-4 22.43226,3.92709 31.75308,11.78094 7.85386,6.78952 12.64628,13.97916 14.37726,21.56894 l -27.95612,10.18414 c -0.53234,-4.39213 -2.13117,-8.12002 -4.79648,-11.18366 -3.32775,-3.72578 -7.85403,-5.58871 -13.57886,-5.58879 -5.72496,8e-5 -10.41783,2.09664 -14.07863,6.28967 -3.66088,4.19319 -5.49131,9.5524 -5.49127,16.07766 l 0,7.58783 c -4e-5,5.46085 1.53175,10.3203 4.59536,14.57838 3.59173,5.19267 8.71732,7.78898 15.37678,7.78895 4.12804,3e-5 8.15558,-1.6638 12.08263,-4.99151 3.9269,-3.32763 5.95743,-7.58778 6.09159,-12.78046 l 28.35837,9.98302 c -1.1e-4,2.39726 -1.59893,6.05811 -4.79649,10.98254 -3.99411,6.39127 -8.98562,11.5839 -14.97453,15.57791 -7.98812,5.32672 -17.04272,7.99008 -27.16381,7.99007 -14.64344,10e-6 -26.95866,-5.5258 -36.94572,-16.57742 -8.52032,-9.31665 -12.78047,-19.30169 -12.78046,-29.95516 l 0,-9.38575 c -1e-5,-12.11607 4.12809,-23.0336 12.38431,-32.7526 9.58481,-11.44969 22.09913,-17.17459 37.54299,-17.1747 z"
         style="font-variant:normal;font-stretch:normal;fill:#000000;font-family:CodiceNero;-inkscape-font-specification:CodiceNero"
         id="path13008" />
      <path
         d="m 656.52822,-502.51676 c 12.78242,1.1e-4 23.89903,4.52639 33.34987,13.57886 10.65333,10.12125 15.98004,23.436 15.98015,39.94427 -1.1e-4,2.12912 -0.33328,5.52383 -0.99952,10.18415 l -66.70585,0 c 3.06353,9.45486 9.85499,14.04818 20.37439,13.77998 8.25207,-0.26406 16.37216,-3.45968 24.36028,-9.58687 l 21.37391,20.97166 c -16.51251,11.44981 -31.8913,17.17471 -46.13644,17.1747 -13.44482,10e-6 -25.16074,-4.1931 -35.14779,-12.57934 -10.91755,-9.32071 -16.5754,-21.63593 -16.97358,-36.94571 0,-1.99899 0,-5.06256 0,-9.19072 0.13001,-10.11703 3.92291,-19.90298 11.3787,-29.35789 9.58887,-11.98196 22.63748,-17.97298 39.14588,-17.97309 z m -17.9731,39.54203 34.94667,0 c -0.79644,-3.72578 -2.79243,-6.88687 -5.98798,-9.48326 -3.19569,-2.59624 -6.99163,-3.96143 -11.38784,-4.0956 -4.52634,-0.134 -8.45332,1.33075 -11.78094,4.39423 -2.79545,2.53139 -4.72542,5.59293 -5.78991,9.18463 z"
         style="font-variant:normal;font-stretch:normal;fill:#000000;font-family:CodiceNero;-inkscape-font-specification:CodiceNero"
         id="path13010" />
      <path
         d="m 789.59861,-398.8652 0,-56.32058 c -8e-5,-4.9244 -1.36528,-9.05149 -4.0956,-12.38126 -2.73047,-3.32963 -6.62494,-4.99448 -11.68343,-4.99456 -5.59087,8e-5 -9.78398,1.93208 -12.57934,5.796 -1.99908,2.92957 -2.9986,6.32428 -2.99856,10.18415 l 0,57.71625 -31.9542,0 0,-101.25637 28.16333,0 1.5968,6.19216 c 7.05348,-5.59071 16.30514,-8.38612 27.755,-8.38623 13.05057,1.1e-4 23.10265,5.05866 30.15628,15.17566 5.19253,7.45586 7.78884,14.97867 7.78895,22.56845 l 0,65.70633 z"
         style="font-variant:normal;font-stretch:normal;fill:#000000;font-family:CodiceNero;-inkscape-font-specification:CodiceNero"
         id="path13012" />
      <path
         d="m 891.54976,-542.05879 0,37.74411 26.1643,0 0,28.16333 -25.56093,0 0,41.73611 c -6e-5,4.52632 3.19353,6.78946 9.58078,6.78943 1.99897,3e-5 4.66232,-0.23258 7.99007,-0.69784 3.3276,-0.46519 5.3246,-0.6978 5.99103,-0.69784 l 5.59488,26.56045 c -7.98812,3.99403 -18.17429,5.99104 -30.55853,5.99103 -8.38627,10e-6 -15.70796,-2.13108 -21.96508,-6.39328 -6.92354,-4.79037 -10.3853,-10.8464 -10.38527,-18.16812 l 0,-55.11994 -16.57742,0 0,-28.16333 16.57742,0 0,-29.35789 z"
         style="font-variant:normal;font-stretch:normal;fill:#000000;font-family:CodiceNero;-inkscape-font-specification:CodiceNero"
         id="path13014" />
      <path
         d="m 1009.4933,-469.36192 c -2.9296,-0.80035 -5.8591,-1.20056 -8.7885,-1.20064 -6.78951,8e-5 -12.38032,1.798 -16.77246,5.39376 -4.92859,3.86001 -7.39285,9.31877 -7.3928,16.3763 l 0,49.9273 -32.35036,0 0,-101.4514 32.7526,0 0,6.38719 c 2.92944,-1.73078 5.79189,-3.46165 8.58735,-5.19264 5.05849,-2.39711 10.38317,-3.59572 15.97407,-3.59584 2.6612,1.2e-4 5.3246,0.26828 7.9901,0.8045 z"
         style="font-variant:normal;font-stretch:normal;fill:#000000;font-family:CodiceNero;-inkscape-font-specification:CodiceNero"
         id="path13016" />
      <path
         d="m 1112.639,-487.33501 c 9.1865,9.98311 13.7798,21.69903 13.7799,35.14779 -10e-5,17.43885 -5.6579,31.55199 -16.9735,42.33947 -9.8531,9.31669 -21.1038,13.97502 -33.7521,13.97502 -18.7716,0 -33.2829,-7.25465 -43.5341,-21.76397 -3.5958,-5.1926 -5.993,-9.58683 -7.1916,-13.18271 -1.7309,-4.7944 -2.5964,-11.31769 -2.5964,-19.56989 0,-17.0446 5.7249,-30.69252 17.1747,-40.9438 9.5889,-8.65428 21.3719,-12.98147 35.349,-12.98158 14.6473,1.1e-4 27.2287,5.66 37.7441,16.97967 z m -59.3131,30.75356 0,10.98254 c 0,5.46085 2.1311,10.18825 6.3933,14.18223 4.2621,3.99406 9.1216,5.99107 14.5784,5.99103 5.5907,4e-5 10.4502,-1.99697 14.5784,-5.99103 4.128,-3.99398 6.192,-8.72138 6.1921,-14.18223 l 0,-10.98254 c -10e-5,-5.72483 -2.2632,-10.51725 -6.7894,-14.37726 -4.1282,-3.46167 -8.7886,-5.19255 -13.9811,-5.19264 -5.4568,9e-5 -10.2492,1.73097 -14.3773,5.19264 -4.3963,3.86001 -6.5944,8.65243 -6.5944,14.37726 z"
         style="font-variant:normal;font-stretch:normal;fill:#000000;font-family:CodiceNero;-inkscape-font-specification:CodiceNero"
         id="path13018" />
    </g>
    <rect
       style="fill:#00408b;fill-opacity:1;stroke:none"
       id="rect12699"
       width="1075"
       height="350"
       x="-1180.8889"
       y="-1244.2188"
       transform="scale(-1,1)" />
    <g
       style="font-size:177.80865479px;font-style:normal;font-weight:normal;line-height:125%;letter-spacing:0px;word-spacing:0px;fill:#ffffff;fill-opacity:1;stroke:none;font-family:Sans"
       id="text12695">
      <path
         d="m 282.93035,-1128.9316 c 10.54863,10e-5 19.91259,3.7352 28.0919,11.2053 8.7724,8.1793 13.15865,18.3138 13.15876,30.4035 -1.1e-4,11.6159 -4.44605,21.3959 -13.33782,29.3399 -8.17932,7.4666 -17.48359,11.1999 -27.91284,11.1999 l -28.6291,0 0,43.0304 -26.31208,0 0,-125.179 z m -28.6291,22.2261 0,36.9855 26.84928,0 c 4.26861,10e-5 8.12127,-1.8964 11.558,-5.6894 3.43657,-3.7929 5.15489,-7.8237 5.15497,-12.0925 -8e-5,-5.3321 -1.89566,-9.9553 -5.68675,-13.8696 -3.43672,-3.5559 -7.11213,-5.3339 -11.02622,-5.334 z"
         style="font-variant:normal;font-stretch:normal;fill:#ffffff;font-family:CodiceBianco;-inkscape-font-specification:CodiceBianco"
         id="path12993" />
      <path
         d="m 427.93166,-1128.9316 0,22.5842 -60.63336,0 0,26.8493 54.40941,0 0,22.5788 -54.23034,0 0,28.8081 66.67824,0 0,24.1796 -92.2849,0 0,-125 z"
         style="font-variant:normal;font-stretch:normal;fill:#ffffff;font-family:CodiceBianco;-inkscape-font-specification:CodiceBianco"
         id="path12995" />
      <path
         d="m 506.06481,-1129.8215 c 21.69422,10e-5 40.12731,6.8173 55.29932,20.4516 l -18.4928,15.8231 c -3.6755,-3.2014 -8.23901,-6.0466 -13.69053,-8.5355 -6.75761,-3.2015 -13.27639,-4.8022 -19.55635,-4.8023 -3.44032,1e-4 -6.70152,0.5337 -9.7836,1.6007 -7.23148,2.3732 -10.55056,6.9367 -9.95724,13.6906 0.23872,2.7277 2.61,4.9814 7.11387,6.7611 4.02987,1.6569 12.08971,3.7895 24.17955,6.3976 25.36961,5.4553 38.05445,17.9611 38.05456,37.5174 -1.1e-4,11.974 -4.71193,21.6057 -14.13548,28.895 -9.42375,7.2893 -22.25691,10.934 -38.49952,10.934 -13.51151,0 -26.37181,-3.6158 -38.58092,-10.8472 -7.70535,-4.3844 -14.16625,-9.5394 -19.38271,-15.4649 l 21.69431,-16.3603 c 2.01493,3.0822 6.16423,6.4013 12.4479,9.9573 8.41432,4.7426 17.12532,7.1735 26.13301,7.2929 6.1642,0.1158 11.14372,-1.1006 14.93858,-3.6492 3.7947,-2.5485 5.69209,-5.8377 5.69218,-9.8677 -9e-5,-4.6232 -2.96465,-8.2389 -8.89369,-10.8472 -3.67548,-1.6567 -10.19516,-3.4637 -19.55906,-5.4208 -9.36402,-1.957 -15.70463,-3.7061 -19.02186,-5.2472 -5.80978,-2.6082 -9.84151,-4.9198 -12.0952,-6.9348 -6.28004,-5.571 -9.42005,-12.9199 -9.42004,-22.0471 -10e-6,-13.3955 4.91801,-23.5897 14.75408,-30.5825 8.17919,-5.8096 18.43306,-8.7145 30.76164,-8.7146 z"
         style="font-variant:normal;font-stretch:normal;fill:#ffffff;font-family:CodiceBianco;-inkscape-font-specification:CodiceBianco"
         id="path12997" />
      <path
         d="m 573.23685,-1065.2758 c -10e-6,-23.4704 7.46837,-41.0733 22.40515,-52.8087 10.9068,-8.5336 23.47227,-12.8005 37.69643,-12.8006 13.03749,10e-5 24.71304,3.5263 35.0267,10.5786 10.31346,7.0524 17.60457,16.9201 21.87338,29.6031 l -24.71675,9.7836 c -1.42179,-7.7053 -5.12613,-13.988 -11.11304,-18.8482 -5.98709,-4.8601 -12.89294,-7.2901 -20.71758,-7.2903 -4.97778,2e-4 -9.77823,1.0655 -14.40137,3.1961 -13.27636,6.0486 -19.73545,18.7335 -19.37728,38.0546 0.2351,10.1942 1.44878,17.6617 3.64104,22.4024 2.19218,4.7408 6.54949,9.2456 13.07193,13.5142 4.73891,3.2015 9.95356,4.8023 15.64399,4.8023 8.0634,0 15.47299,-2.8153 22.2288,-8.446 6.75563,-5.6307 10.5477,-11.9442 11.37622,-18.9405 l 24.36404,9.9572 c -1.77995,6.9964 -6.28558,14.3472 -13.51689,22.0525 -11.61598,12.2091 -26.1964,18.3137 -43.74132,18.3137 -13.27638,0 -25.18888,-3.6157 -35.73754,-10.8472 -16.00396,-10.9068 -24.00592,-28.3324 -24.00591,-52.2768 z"
         style="font-variant:normal;font-stretch:normal;fill:#ffffff;font-family:CodiceBianco;-inkscape-font-specification:CodiceBianco"
         id="path12999" />
      <path
         d="m 739.88903,-1128.9316 35.91661,0 42.49328,125 -27.56013,0 -7.10844,-20.9835 -51.03425,0 -6.9348,20.9835 -26.67021,0 z m 17.95559,28.0919 -17.42381,52.635 35.5639,0 z"
         style="font-variant:normal;font-stretch:normal;fill:#ffffff;font-family:CodiceBianco;-inkscape-font-specification:CodiceBianco"
         id="path13001" />
      <path
         d="m 894.60342,-1128.9316 c 9.60083,10e-5 18.07669,3.4964 25.42759,10.489 7.70523,7.3509 11.55789,16.3604 11.558,27.0283 -1.1e-4,9.601 -3.20162,17.7803 -9.60454,24.5377 -4.74267,5.0972 -10.49091,8.8323 -17.24474,11.2053 l 32.18332,51.7397 -28.09733,0 -30.76163,-49.6072 -18.66644,0 0,49.6072 -24.71675,0 0,-125 z m -35.20577,22.2261 0,31.1197 30.58257,0 c 3.20144,10e-5 6.34326,-1.4822 9.42546,-4.4468 3.08206,-2.9645 4.62312,-6.639 4.6232,-11.0235 -8e-5,-4.388 -1.5122,-8.0932 -4.53638,-11.1158 -3.02432,-3.0223 -6.31446,-4.5335 -9.87042,-4.5336 z"
         style="font-variant:normal;font-stretch:normal;fill:#ffffff;font-family:CodiceBianco;-inkscape-font-specification:CodiceBianco"
         id="path13003" />
      <path
         d="m 986.11236,-1128.9316 35.91664,0 42.4932,125 -27.5601,0 -7.1084,-20.9835 -51.03427,0 -6.9348,20.9835 -26.67021,0 z m 17.95564,28.0919 -17.42386,52.635 35.56386,0 z"
         style="font-variant:normal;font-stretch:normal;fill:#ffffff;font-family:CodiceBianco;-inkscape-font-specification:CodiceBianco"
         id="path13005" />
    </g>
    <g
       style="font-size:199.14569092px;font-style:normal;font-weight:normal;line-height:125%;letter-spacing:0px;word-spacing:0px;fill:#ffffff;fill-opacity:1;stroke:none;font-family:Sans"
       id="text12695-1">
      <path
         d="m -1161.6612,341.82952 c 10.7529,1.5e-4 20.2459,3.91604 28.4789,11.7477 8.6299,8.23304 12.9449,18.32361 12.945,30.27175 -10e-5,10.75312 -3.5858,19.91384 -10.7571,27.4822 -5.3118,5.70882 -11.7498,9.89212 -19.3141,12.54992 l 36.0453,57.94843 -31.469,0 -34.453,-55.55999 -20.9064,0 0,55.55999 -27.6828,0 0,-140 z m -39.4304,24.89321 0,34.85414 34.2524,0 c 3.5856,9e-5 7.1045,-1.66006 10.5566,-4.98046 3.4519,-3.32022 5.1778,-7.43566 5.1779,-12.34633 -10e-5,-4.91452 -1.6936,-9.06439 -5.0807,-12.44965 -3.3873,-3.38501 -7.0722,-5.07758 -11.0549,-5.0777 z"
         style="font-variant:normal;font-stretch:normal;fill:#ffffff;font-family:CodiceBianco;-inkscape-font-specification:CodiceBianco"
         id="path12984" />
      <path
         d="m -963.78568,410.93614 c -1.5e-4,22.43393 -6.43818,40.35629 -19.31412,53.76715 -12.34543,12.74643 -28.2764,19.11964 -47.793,19.11963 -19.5168,10e-6 -35.3829,-6.3732 -47.5986,-19.11963 -12.8761,-13.41086 -19.3141,-31.33322 -19.3141,-53.76715 0,-21.90706 7.1025,-39.49922 21.3075,-52.77653 12.7464,-11.81441 27.9481,-17.72168 45.6052,-17.72183 17.6569,1.5e-4 32.85858,5.90742 45.60512,17.72183 14.33453,13.27731 21.50185,30.86947 21.502,52.77653 z m -30.66679,0 c -1.1e-4,-13.1434 -3.35182,-23.63204 -10.05513,-31.46597 -6.7035,-7.83371 -15.4986,-11.75062 -26.3852,-11.75074 -10.8868,1.2e-4 -19.616,3.91703 -26.1877,11.75074 -6.5718,7.83393 -9.8577,18.32257 -9.8576,31.46597 -10e-5,13.67431 2.7874,24.36047 8.3625,32.05851 6.2395,8.76372 15.4671,13.14555 27.6828,13.14552 12.3452,3e-5 21.6376,-4.3818 27.8772,-13.14552 5.70865,-7.83174 8.56302,-18.5179 8.56313,-32.05851 z"
         style="font-variant:normal;font-stretch:normal;fill:#ffffff;font-family:CodiceBianco;-inkscape-font-specification:CodiceBianco"
         id="path12986" />
      <path
         d="m -907.32014,341.82952 38.83487,54.36881 39.2299,-54.36881 32.45963,0 0,140 -27.87724,0 0,-97.78 -43.81229,58.94513 -43.41119,-58.94513 0,97.78 -27.88331,0 0,-140 z"
         style="font-variant:normal;font-stretch:normal;fill:#ffffff;font-family:CodiceBianco;-inkscape-font-specification:CodiceBianco"
         id="path12988" />
      <path
         d="m -735.55941,341.82952 40.2266,0 47.59246,140 -30.86733,0 -7.96146,-23.50147 -57.15836,0 -7.76697,23.50147 -29.87064,0 z m 20.11026,31.46293 -19.51467,58.95121 39.83157,0 z"
         style="font-variant:normal;font-stretch:normal;fill:#ffffff;font-family:CodiceBianco;-inkscape-font-specification:CodiceBianco"
         id="path12990" />
    </g>
    <g
       style="font-size:199.14569092px;font-style:normal;font-weight:normal;line-height:125%;letter-spacing:0px;word-spacing:0px;fill:#ffffff;fill-opacity:1;stroke:none;font-family:Sans"
       id="text12722">
      <path
         d="m -1201.2922,736.54152 64.3237,0 0,25.28825 -91.8059,0 0,-140.00001 27.4822,0 z"
         style="font-variant:normal;font-stretch:normal;fill:#ffffff;font-family:CodiceBianco;-inkscape-font-specification:CodiceBianco"
         id="path12967" />
      <path
         d="m -1111.5952,621.43473 c 4.5135,1.5e-4 8.2309,1.39391 11.1521,4.18128 3.3183,3.18472 4.9774,7.63138 4.9774,13.33999 0,13.67437 -8.0323,21.17595 -24.097,22.50478 -3.0509,0.26751 -4.5763,-0.99457 -4.5763,-3.78625 0,-0.6603 0.1326,-1.28932 0.398,-1.88705 0.2654,-0.5975 2.0907,-1.3278 5.4758,-2.19092 3.3851,-0.86288 5.0777,-2.15737 5.0777,-3.88348 0,-1.59622 -0.7962,-2.59292 -2.3884,-2.99011 -2.7916,-0.53064 -4.783,-1.1951 -5.9742,-1.9934 -3.4519,-2.38628 -5.1779,-5.90309 -5.1779,-10.55044 0,-3.31815 1.4596,-6.27178 4.3788,-8.86091 2.9192,-2.58885 6.5038,-3.88334 10.754,-3.88349 z"
         style="font-variant:normal;font-stretch:normal;fill:#ffffff;font-family:CodiceBianco;-inkscape-font-specification:CodiceBianco"
         id="path12969" />
      <path
         d="m -1043.6129,621.82976 40.2266,0 47.59246,140.00001 -30.86734,0 -7.96145,-23.50148 -57.15837,0 -7.767,23.50148 -29.8706,0 z m 20.1103,31.46293 -19.5147,58.95121 39.8315,0 z"
         style="font-variant:normal;font-stretch:normal;fill:#ffffff;font-family:CodiceBianco;-inkscape-font-specification:CodiceBianco"
         id="path12971" />
      <path
         d="m -943.42016,693.71985 c -10e-6,-23.49935 7.50158,-41.95248 22.50478,-55.35944 13.14344,-11.81441 29.40666,-17.72168 48.78972,-17.72183 17.5232,1.5e-4 33.12196,6.10595 46.79632,18.31742 15.53381,13.80807 23.30077,31.73246 23.30092,53.77323 -1.5e-4,12.07797 -2.05837,22.63245 -6.17468,31.66348 -2.91732,6.63661 -7.09859,12.41017 -12.54385,17.32072 -3.31841,2.79159 -6.70354,5.58114 -10.15541,8.36864 l 8.16201,13.54054 -24.69265,12.34937 -7.96753,-14.7378 c -5.9722,1.59229 -12.27652,2.38844 -18.91301,2.38843 -18.45523,10e-6 -34.05601,-5.5102 -46.8024,-16.53065 -14.86949,-12.61268 -22.30423,-30.40337 -22.30422,-53.37211 z m 31.26845,0.40111 c -4e-5,15.2666 4.31494,26.48555 12.94496,33.65689 6.5028,5.30767 14.73368,7.96148 24.69265,7.96145 1.59222,3e-5 3.1845,-0.0648 4.77688,-0.19448 l -7.76698,-13.94166 22.50478,-11.35266 9.35926,15.93506 c 1.19513,-1.06554 2.45721,-2.12909 3.78625,-3.19066 2.25664,-2.39041 4.11432,-5.57702 5.57302,-9.55982 1.85958,-5.44128 2.78942,-12.07784 2.78954,-19.90971 -1.2e-4,-17.39355 -5.17809,-30.07311 -15.53394,-38.03872 -6.90408,-5.31157 -14.60419,-7.96741 -23.10037,-7.96753 -9.69157,1.2e-4 -18.05615,2.85449 -25.09377,8.56312 -9.9549,8.09931 -14.93232,20.77887 -14.93228,38.03872 z"
         style="font-variant:normal;font-stretch:normal;fill:#ffffff;font-family:CodiceBianco;-inkscape-font-specification:CodiceBianco"
         id="path12973" />
      <path
         d="m -778.95237,621.82976 28.67946,0 0,85.23616 c -5e-5,5.97216 2.25671,11.87943 6.77027,17.72182 5.84239,7.43478 13.67621,11.15215 23.50148,11.15211 9.69141,4e-5 17.45635,-3.71733 23.29484,-11.15211 4.78082,-5.84239 7.17128,-11.74966 7.17138,-17.72182 l 0,-85.23616 28.67946,0 0,87.82515 c -1.3e-4,15.93105 -6.44019,29.40676 -19.32019,40.42716 -11.94836,10.08856 -25.15868,15.13284 -39.63101,15.13283 -14.9992,1e-5 -28.60658,-5.54262 -40.8222,-16.62788 -12.21568,-11.08523 -18.32351,-24.12944 -18.32349,-39.13267 z"
         style="font-variant:normal;font-stretch:normal;fill:#ffffff;font-family:CodiceBianco;-inkscape-font-specification:CodiceBianco"
         id="path12975" />
      <path
         d="m -603.39326,621.82976 0,140.00001 -28.87394,0 0,-140.00001 z"
         style="font-variant:normal;font-stretch:normal;fill:#ffffff;font-family:CodiceBianco;-inkscape-font-specification:CodiceBianco"
         id="path12977" />
      <path
         d="m -547.06746,736.54152 64.32366,0 0,25.28825 -91.80587,0 0,-140.00001 27.48221,0 z"
         style="font-variant:normal;font-stretch:normal;fill:#ffffff;font-family:CodiceBianco;-inkscape-font-specification:CodiceBianco"
         id="path12979" />
      <path
         d="m -427.89486,621.82976 40.2266,0 47.59247,140.00001 -30.86734,0 -7.96146,-23.50148 -57.15836,0 -7.76697,23.50148 -29.87064,0 z m 20.11026,31.46293 -19.51467,58.95121 39.83157,0 z"
         style="font-variant:normal;font-stretch:normal;fill:#ffffff;font-family:CodiceBianco;-inkscape-font-specification:CodiceBianco"
         id="path12981" />
    </g>
    <rect
       style="fill:#ffffff;fill-opacity:1;stroke:none"
       id="rect12726"
       width="98.214287"
       height="35.714287"
       x="-544.28571"
       y="401.64789" />
    <path
       style="fill:none;stroke:#000000;stroke-width:80;stroke-linecap:butt;stroke-linejoin:miter;stroke-miterlimit:4;stroke-opacity:1;stroke-dasharray:none"
       d="m 666.70068,896.79869 0,-910.150793"
       id="path12748"
       inkscape:connector-curvature="0" />
    <path
       style="fill:none;stroke:#000000;stroke-width:80;stroke-linecap:butt;stroke-linejoin:miter;stroke-miterlimit:4;stroke-opacity:1;stroke-dasharray:none"
       d="m 319.20821,599.81384 83.43294,0 c 169.41438,0 264.05953,103.2051 264.05953,262.8922"
       id="path12752"
       inkscape:connector-curvature="0"
       sodipodi:nodetypes="ccc" />
    <g
       id="Layer1076"
       transform="matrix(2.1450552,0,0,2.1450552,-20358.987,-321.31457)"
       style="fill:#000000;fill-opacity:1;stroke:none">
      <path
         inkscape:connector-curvature="0"
         d="m 9674.7188,429.4377 16.1239,-69.8406 c 0.7713,-3.3409 -0.4416,-6.6287 -3.1978,-8.6679 -2.7562,-2.0393 -6.2545,-2.2381 -9.2239,-0.5238 l -136.8883,79.0325 136.8883,79.0322 c 2.9694,1.7144 6.4678,1.5157 9.2241,-0.5237 2.7562,-2.0394 3.9687,-5.327 3.1976,-8.668 z"
         style="fill:#000000;fill-opacity:1;fill-rule:evenodd;stroke:none"
         id="path7813" />
      <path
         inkscape:connector-curvature="0"
         d="m 9609.9188,429.4378 h 189.8983"
         style="fill:#000000;fill-opacity:1;stroke:none"
         id="path7815" />
    </g>
    <g
       id="Layer1076-2"
       transform="matrix(0,2.1450552,-2.1450552,0,1587.8743,-20687.053)"
       style="fill:#000000;fill-opacity:1;stroke:none">
      <path
         inkscape:connector-curvature="0"
         d="m 9674.7188,429.4377 16.1239,-69.8406 c 0.7713,-3.3409 -0.4416,-6.6287 -3.1978,-8.6679 -2.7562,-2.0393 -6.2545,-2.2381 -9.2239,-0.5238 l -136.8883,79.0325 136.8883,79.0322 c 2.9694,1.7144 6.4678,1.5157 9.2241,-0.5237 2.7562,-2.0394 3.9687,-5.327 3.1976,-8.668 z"
         style="fill:#000000;fill-opacity:1;fill-rule:evenodd;stroke:none"
         id="path7813-3" />
      <path
         inkscape:connector-curvature="0"
         d="m 9609.9188,429.4378 h 189.8983"
         style="fill:#000000;fill-opacity:1;stroke:none"
         id="path7815-2" />
    </g>
    <path
       inkscape:connector-curvature="0"
       style="font-size:16.94802094px;font-style:normal;font-weight:normal;line-height:125%;letter-spacing:0px;word-spacing:0px;fill:none;stroke:#000000;stroke-width:5.94250488;stroke-linecap:butt;stroke-linejoin:miter;stroke-miterlimit:4;stroke-opacity:1;stroke-dashoffset:0;font-family:Sans"
       d="m 322.89933,-457.23416 c 0,43.92088 -35.60534,79.5283 -79.52876,79.5283 -43.92165,0 -79.52874,-35.60742 -79.52874,-79.5283 0,-43.92221 35.60709,-79.5292 79.52874,-79.5292 43.92342,0 79.52876,35.60699 79.52876,79.5292 z"
       id="path5612-2" />
    <path
       inkscape:connector-curvature="0"
       style="font-size:16.94802094px;font-style:normal;font-weight:normal;line-height:125%;letter-spacing:0px;word-spacing:0px;fill:none;stroke:#000000;stroke-width:5.94250488;stroke-linecap:butt;stroke-linejoin:miter;stroke-miterlimit:4;stroke-opacity:1;stroke-dashoffset:0;font-family:Sans"
       d="m 308.2217,-457.23956 c 0,35.61238 -29.03339,64.4823 -64.85113,64.4823 -35.8152,0 -64.84979,-28.86992 -64.84979,-64.4823 0,-35.61643 29.03459,-64.48812 64.84979,-64.48812 35.81774,0 64.85113,28.87169 64.85113,64.48812 z"
       id="path5614-3" />
    <path
       inkscape:connector-curvature="0"
       style="font-size:16.94802094px;font-style:normal;font-weight:normal;line-height:125%;letter-spacing:0px;word-spacing:0px;fill:none;stroke:#000000;stroke-width:5.94250488;stroke-linecap:butt;stroke-linejoin:miter;stroke-miterlimit:4;stroke-opacity:1;stroke-dashoffset:0;font-family:Sans"
       d="m 293.32231,-457.43095 c 0,27.32233 -22.27794,49.47357 -49.75748,49.47357 -27.48063,0 -49.75847,-22.15124 -49.75847,-49.47357 0,-27.3285 22.27784,-49.48061 49.75847,-49.48061 27.47954,0 49.75748,22.15211 49.75748,49.48061 z"
       id="path5616-3" />
    <path
       inkscape:connector-curvature="0"
       style="font-size:16.94802094px;font-style:normal;font-weight:normal;line-height:125%;letter-spacing:0px;word-spacing:0px;fill:#000000;fill-opacity:1;stroke:none;font-family:Sans"
       d="m 271.66114,-459.03101 c 0,15.42913 -12.58081,27.93569 -28.09631,27.93569 -15.51658,0 -28.09443,-12.50656 -28.09443,-27.93569 0,-15.42794 12.57785,-27.93614 28.09443,-27.93614 15.5155,0 28.09631,12.5082 28.09631,27.93614 z"
       id="path5618-4" />
    <path
       sodipodi:nodetypes="ccccccccccccc"
       inkscape:connector-curvature="0"
       id="path3339"
       d="m -1323.3411,501.73832 c 5.0055,-0.75847 10.7175,-6.47249 11.5702,-11.68506 l 11.8412,-78.34615 -11.8412,-78.33831 c -0.8527,-5.21257 -6.5647,-10.92659 -11.5702,-11.68516 l -78.731,-12.10897 -78.7188,12.10897 c -5.0056,0.75857 -10.7176,6.47259 -11.5701,11.68516 l -11.8413,78.33831 11.8413,78.34615 c 0.8525,5.21257 6.5645,10.92659 11.5701,11.68506 l 78.717,12.10908 z"
       style="fill:none;stroke:#ffffff;stroke-width:5.72727346;stroke-linecap:butt;stroke-linejoin:miter;stroke-miterlimit:4;stroke-opacity:1;stroke-dasharray:none" />
    <g
       style="font-size:110.31550598px;font-style:normal;font-weight:normal;line-height:125%;letter-spacing:0px;word-spacing:0px;fill:#ffffff;fill-opacity:1;stroke:none;font-family:Sans"
       id="text3341">
      <path
         d="m -1453.7225,373.76282 12.3553,76.44789 -16.3244,0 -1.9863,-15.11249 -11.251,0 -2.2085,15.11249 -15.9946,0 13.1263,-76.44789 z m -11.251,19.30723 -4.3025,30.3361 8.1639,0 z"
         style="text-align:center;word-spacing:-23.10000038px;text-anchor:middle;fill:#ffffff;font-family:CodiceBiancoCondensed;-inkscape-font-specification:CodiceBiancoCondensed"
         id="path13038" />
      <path
         d="m -1373.8797,392.51794 c 0.072,3.97036 -1.3265,9.08191 -4.1948,15.33469 -1.8381,3.89628 -4.8534,9.30073 -9.0459,16.21336 -3.9703,6.4728 -6.3606,10.70232 -7.1708,12.68857 l 19.3073,0 0,13.78944 -37.3992,0 0,-11.58434 c 0.2222,-0.80796 2.3555,-4.33835 6.3998,-10.5912 4.8546,-7.50067 8.458,-13.49426 10.8101,-17.98081 3.8244,-7.2807 5.7366,-12.94325 5.7366,-16.98767 0,-1.83808 -0.5146,-3.32722 -1.5436,-4.46743 -1.029,-1.14008 -2.2427,-1.71015 -3.6409,-1.71021 -1.7641,6e-5 -3.2353,0.84619 -4.4136,2.53838 -1.396,1.83821 -2.094,4.48545 -2.094,7.94172 l -13.0185,0 c 0.22,-8.16272 2.4262,-14.45033 6.6187,-18.86284 3.6785,-3.8984 8.238,-5.84764 13.6783,-5.84772 5.2227,8e-5 9.7462,1.72825 13.5706,5.1845 4.1184,3.67636 6.2517,8.45688 6.3999,14.34156 z"
         style="text-align:center;word-spacing:-23.10000038px;text-anchor:middle;fill:#ffffff;font-family:CodiceBiancoCondensed;-inkscape-font-specification:CodiceBiancoCondensed"
         id="path13040" />
      <path
         d="m -1325.8591,373.3218 0,49.86215 5.6256,0 0,13.78944 -5.6256,0 0,13.45952 -14.7825,0 0,-13.45952 -25.4816,0 0,-8.93486 22.6132,-54.71673 z m -15.0047,24.59947 -10.9212,25.59597 10.9212,0 z"
         style="text-align:center;word-spacing:-23.10000038px;text-anchor:middle;fill:#ffffff;font-family:CodiceBiancoCondensed;-inkscape-font-specification:CodiceBiancoCondensed"
         id="path13042" />
    </g>
    <path
       inkscape:connector-curvature="0"
       d="m 866.7136,359.7327 a 200,200 0 0 1 -400,0 200,200 0 1 1 400,0 z"
       style="fill:#000000;fill-opacity:1;fill-rule:evenodd;stroke:none"
       id="path1873" />
    <path
       inkscape:connector-curvature="0"
       d="m 864.7134,359.7327 a 197.99991,197.99991 0 0 1 -395.9998,0 197.99991,197.99991 0 1 1 395.9998,0 z"
       style="fill:#ffffff;fill-opacity:1;fill-rule:evenodd;stroke:none"
       id="path1875" />
    <path
       inkscape:connector-curvature="0"
       d="m 860.7128,359.7327 a 193.99994,193.99995 0 1 1 -387.9998,0 193.99994,193.99995 0 1 1 387.9998,0 z"
       style="fill:#d40000;fill-opacity:1;fill-rule:evenodd;stroke:none"
       id="path1877" />
    <path
       sodipodi:type="arc"
       style="fill:#ffffff;fill-opacity:1;fill-rule:evenodd;stroke:none"
       id="path1874"
       sodipodi:cx="76.92308"
       sodipodi:cy="89.655174"
       sodipodi:rx="40.318302"
       sodipodi:ry="34.482758"
       d="m 117.24138,89.655174 a 40.318302,34.482758 0 1 1 -80.636602,0 40.318302,34.482758 0 1 1 80.636602,0 z"
       transform="matrix(3.5715762,0,0,4.1759979,391.9768,-14.66711)" />
    <path
       inkscape:connector-curvature="0"
       style="fill:#000000;fill-opacity:1;fill-rule:evenodd;stroke:none"
       d="m 607.2625,298.26073 0,84.24076 177.7217,0 0,-84.24076 -177.7217,0 z m -46.5597,23.60479 -14.0042,36.16498 0,48.65338 7.2186,0 c 0,-13.98899 11.3482,-25.33719 25.3373,-25.33719 13.989,0 25.4094,11.3482 25.4094,25.33719 l 103.3702,0 c 0,-8.9278 4.6396,-16.78019 11.622,-21.29479 l -115.281,0 0,-63.52357 -43.6723,0 z m 4.0424,9.6006 33.2053,0 0,24.18238 -42.5173,0 9.312,-24.18238 z m 14.5815,53.63417 c -11.8988,0 -21.5835,9.61259 -21.5835,21.51139 0,11.89879 9.6847,21.58359 21.5835,21.58359 11.8986,0 21.5114,-9.685 21.5114,-21.58359 0,-11.8988 -9.6128,-21.51139 -21.5114,-21.51139 z m 154.1168,0 c -11.8986,0 -21.5836,9.61259 -21.5836,21.51139 0,11.89879 9.685,21.58359 21.5836,21.58359 11.8988,0 21.5114,-9.685 21.5114,-21.58359 0,-11.8988 -9.6126,-21.51139 -21.5114,-21.51139 z m 13.6432,0.2888 c 6.47,4.1834 10.9322,11.23039 11.5496,19.34579 l 26.3479,-11.1888 0,-8.15699 -37.8975,0 z m -167.76,11.04439 c 5.6276,0 10.1782,4.5504 10.1782,10.1782 0,5.6278 -4.5506,10.25039 -10.1782,10.25039 -5.6278,0 -10.1782,-4.62259 -10.1782,-10.25039 0,-5.6278 4.5504,-10.1782 10.1782,-10.1782 z m 154.1168,0 c 5.6278,0 10.1782,4.5504 10.1782,10.1782 0,5.6278 -4.5504,10.25039 -10.1782,10.25039 -5.6278,0 -10.1782,-4.62259 -10.1782,-10.25039 0,-5.6278 4.5504,-10.1782 10.1782,-10.1782 z"
       id="rect1885" />
    <rect
       style="fill:none;stroke:#000000;stroke-width:48;stroke-miterlimit:4;stroke-opacity:1;stroke-dasharray:none"
       id="rect13083"
       width="3104"
       height="2404"
       x="-1780.5364"
       y="-1357.2673"
       rx="167.68532"
       ry="167.68532" />
  </g>
</svg>
