<?xml version="1.0" encoding="UTF-8"?>
<svg width="159.28mm" height="159.28mm" version="1.1" viewBox="0 0 159.28 159.28" xmlns="http://www.w3.org/2000/svg">
<g transform="translate(-37.287 -14.04)">
<g transform="translate(-839.79 -496.37)">
<circle cx="956.72" cy="590.05" r="79.64" fill-rule="evenodd" stroke-width="8.2343"/>
<circle cx="956.72" cy="590.05" r="79.375" fill="#fff" fill-rule="evenodd" stroke-width="7.2697"/>
<circle cx="956.72" cy="590.05" r="76.729" fill="#d40000" fill-rule="evenodd" stroke-width="7.0274"/>
<circle cx="956.72" cy="590.05" r="56.885" fill="#fff" fill-rule="evenodd" stroke-width="5.21"/>
<g transform="matrix(1.0117 0 0 1.0117 -11.107 -7.2601)" stroke-linejoin="bevel" stroke-width="4.5207">
<circle cx="929.12" cy="605.1" r="12.475" fill="none" stroke="#000"/>
<circle cx="985.17" cy="605.1" r="12.475" fill="none" stroke="#000"/>
<path d="m931.15 582.21c0-3.3856 3.5874-3.3706 3.5874-3.3706l8.5304-3.6e-4 13.046-9.7691c2.2616-1.3057 3.9346-1.3263 5.6405 0.37965l10.917 14.91c1.2191 1.627 0.71469 4.1643-1.8594 5.1716l-14.759 6.2756 7.2053 12.842s1.7747 3.4794-1.1622 4.7648c-2.9369 1.2853-4.881-1.3945-4.881-1.3945l-8.6581-15.399c-1.3151-2.2779-0.52139-4.5123 1.627-5.7526l9.8193-4.2518c0.57932-0.30944 0.77483-0.65807 0.17448-1.1728l-6.217-4.8605c-0.51611-0.41884-1.3952-0.40585-1.8318 0.0308l-6.4775 4.9664-11.114 1e-3s-3.5872 0.0155-3.5872-3.3706z" fill-rule="evenodd"/>
<path d="m945.29 574.94 13.251-9.7173c0-2.3316-0.0448-3.7664-0.43507-5.0672-0.49449-1.6481-1.5139-2.8042-2.3836-3.4798-1.3266-1.0306-2.8534-1.4802-4.947-1.4375-1.9421 0.0396-3.5731 0.65021-4.7826 1.6895-1.6237 1.3952-2.4879 3.5628-2.3257 6.1584l6.533-1.2532 0.86288 5.3415-6.2454 4.7251z" fill-rule="evenodd"/>
</g>
</g>
</g>
</svg>
