<?xml version="1.0" encoding="UTF-8" standalone="no"?>
<!-- Created with Inkscape (http://www.inkscape.org/) -->

<svg
   xmlns:dc="http://purl.org/dc/elements/1.1/"
   xmlns:cc="http://creativecommons.org/ns#"
   xmlns:rdf="http://www.w3.org/1999/02/22-rdf-syntax-ns#"
   xmlns:svg="http://www.w3.org/2000/svg"
   xmlns="http://www.w3.org/2000/svg"
   xmlns:sodipodi="http://sodipodi.sourceforge.net/DTD/sodipodi-0.dtd"
   xmlns:inkscape="http://www.inkscape.org/namespaces/inkscape"
   version="1.1"
   width="200"
   height="200"
   id="svg2"
   inkscape:version="0.47 r22583"
   sodipodi:docname="Italian traffic signs - icona foro boario.svg"
   sodipodi:version="0.32"
   inkscape:output_extension="org.inkscape.output.svg.inkscape">
  <metadata
     id="metadata2877">
    <rdf:RDF>
      <cc:Work
         rdf:about="">
        <dc:format>image/svg+xml</dc:format>
        <dc:type
           rdf:resource="http://purl.org/dc/dcmitype/StillImage" />
        <dc:title></dc:title>
      </cc:Work>
    </rdf:RDF>
  </metadata>
  <sodipodi:namedview
     pagecolor="#ffffff"
     bordercolor="#666666"
     borderopacity="1"
     objecttolerance="10"
     gridtolerance="10"
     guidetolerance="10"
     inkscape:pageopacity="0"
     inkscape:pageshadow="2"
     inkscape:window-width="1600"
     inkscape:window-height="838"
     id="namedview2875"
     showgrid="false"
     inkscape:zoom="2.3765092"
     inkscape:cx="85.644951"
     inkscape:cy="89.915101"
     inkscape:window-x="-8"
     inkscape:window-y="-8"
     inkscape:window-maximized="1"
     inkscape:current-layer="svg2" />
  <defs
     id="defs4">
    <inkscape:perspective
       sodipodi:type="inkscape:persp3d"
       inkscape:vp_x="0 : 100 : 1"
       inkscape:vp_y="0 : 1000 : 0"
       inkscape:vp_z="200 : 100 : 1"
       inkscape:persp3d-origin="100 : 66.666667 : 1"
       id="perspective2879" />
    <inkscape:perspective
       id="perspective2839"
       inkscape:persp3d-origin="0.5 : 0.33333333 : 1"
       inkscape:vp_z="1 : 0.5 : 1"
       inkscape:vp_y="0 : 1000 : 0"
       inkscape:vp_x="0 : 0.5 : 1"
       sodipodi:type="inkscape:persp3d" />
    <inkscape:perspective
       id="perspective3649"
       inkscape:persp3d-origin="0.5 : 0.33333333 : 1"
       inkscape:vp_z="1 : 0.5 : 1"
       inkscape:vp_y="0 : 1000 : 0"
       inkscape:vp_x="0 : 0.5 : 1"
       sodipodi:type="inkscape:persp3d" />
    <inkscape:perspective
       id="perspective3679"
       inkscape:persp3d-origin="0.5 : 0.33333333 : 1"
       inkscape:vp_z="1 : 0.5 : 1"
       inkscape:vp_y="0 : 1000 : 0"
       inkscape:vp_x="0 : 0.5 : 1"
       sodipodi:type="inkscape:persp3d" />
    <inkscape:perspective
       id="perspective3713"
       inkscape:persp3d-origin="0.5 : 0.33333333 : 1"
       inkscape:vp_z="1 : 0.5 : 1"
       inkscape:vp_y="0 : 1000 : 0"
       inkscape:vp_x="0 : 0.5 : 1"
       sodipodi:type="inkscape:persp3d" />
    <inkscape:perspective
       id="perspective3741"
       inkscape:persp3d-origin="0.5 : 0.33333333 : 1"
       inkscape:vp_z="1 : 0.5 : 1"
       inkscape:vp_y="0 : 1000 : 0"
       inkscape:vp_x="0 : 0.5 : 1"
       sodipodi:type="inkscape:persp3d" />
    <inkscape:perspective
       id="perspective3765"
       inkscape:persp3d-origin="0.5 : 0.33333333 : 1"
       inkscape:vp_z="1 : 0.5 : 1"
       inkscape:vp_y="0 : 1000 : 0"
       inkscape:vp_x="0 : 0.5 : 1"
       sodipodi:type="inkscape:persp3d" />
    <inkscape:perspective
       id="perspective3801"
       inkscape:persp3d-origin="0.5 : 0.33333333 : 1"
       inkscape:vp_z="1 : 0.5 : 1"
       inkscape:vp_y="0 : 1000 : 0"
       inkscape:vp_x="0 : 0.5 : 1"
       sodipodi:type="inkscape:persp3d" />
    <inkscape:perspective
       id="perspective2863"
       inkscape:persp3d-origin="0.5 : 0.33333333 : 1"
       inkscape:vp_z="1 : 0.5 : 1"
       inkscape:vp_y="0 : 1000 : 0"
       inkscape:vp_x="0 : 0.5 : 1"
       sodipodi:type="inkscape:persp3d" />
    <inkscape:perspective
       id="perspective3859"
       inkscape:persp3d-origin="0.5 : 0.33333333 : 1"
       inkscape:vp_z="1 : 0.5 : 1"
       inkscape:vp_y="0 : 1000 : 0"
       inkscape:vp_x="0 : 0.5 : 1"
       sodipodi:type="inkscape:persp3d" />
    <inkscape:perspective
       id="perspective3964"
       inkscape:persp3d-origin="0.5 : 0.33333333 : 1"
       inkscape:vp_z="1 : 0.5 : 1"
       inkscape:vp_y="0 : 1000 : 0"
       inkscape:vp_x="0 : 0.5 : 1"
       sodipodi:type="inkscape:persp3d" />
    <inkscape:perspective
       id="perspective3988"
       inkscape:persp3d-origin="0.5 : 0.33333333 : 1"
       inkscape:vp_z="1 : 0.5 : 1"
       inkscape:vp_y="0 : 1000 : 0"
       inkscape:vp_x="0 : 0.5 : 1"
       sodipodi:type="inkscape:persp3d" />
    <inkscape:perspective
       id="perspective2879-7"
       inkscape:persp3d-origin="0.5 : 0.33333333 : 1"
       inkscape:vp_z="1 : 0.5 : 1"
       inkscape:vp_y="0 : 1000 : 0"
       inkscape:vp_x="0 : 0.5 : 1"
       sodipodi:type="inkscape:persp3d" />
    <inkscape:perspective
       id="perspective4031"
       inkscape:persp3d-origin="0.5 : 0.33333333 : 1"
       inkscape:vp_z="1 : 0.5 : 1"
       inkscape:vp_y="0 : 1000 : 0"
       inkscape:vp_x="0 : 0.5 : 1"
       sodipodi:type="inkscape:persp3d" />
    <inkscape:perspective
       id="perspective4047"
       inkscape:persp3d-origin="0.5 : 0.33333333 : 1"
       inkscape:vp_z="1 : 0.5 : 1"
       inkscape:vp_y="0 : 1000 : 0"
       inkscape:vp_x="0 : 0.5 : 1"
       sodipodi:type="inkscape:persp3d" />
    <inkscape:perspective
       id="perspective4063"
       inkscape:persp3d-origin="0.5 : 0.33333333 : 1"
       inkscape:vp_z="1 : 0.5 : 1"
       inkscape:vp_y="0 : 1000 : 0"
       inkscape:vp_x="0 : 0.5 : 1"
       sodipodi:type="inkscape:persp3d" />
    <inkscape:perspective
       id="perspective4079"
       inkscape:persp3d-origin="0.5 : 0.33333333 : 1"
       inkscape:vp_z="1 : 0.5 : 1"
       inkscape:vp_y="0 : 1000 : 0"
       inkscape:vp_x="0 : 0.5 : 1"
       sodipodi:type="inkscape:persp3d" />
    <inkscape:perspective
       id="perspective4097"
       inkscape:persp3d-origin="0.5 : 0.33333333 : 1"
       inkscape:vp_z="1 : 0.5 : 1"
       inkscape:vp_y="0 : 1000 : 0"
       inkscape:vp_x="0 : 0.5 : 1"
       sodipodi:type="inkscape:persp3d" />
    <inkscape:perspective
       id="perspective4115"
       inkscape:persp3d-origin="0.5 : 0.33333333 : 1"
       inkscape:vp_z="1 : 0.5 : 1"
       inkscape:vp_y="0 : 1000 : 0"
       inkscape:vp_x="0 : 0.5 : 1"
       sodipodi:type="inkscape:persp3d" />
    <inkscape:perspective
       id="perspective4129"
       inkscape:persp3d-origin="0.5 : 0.33333333 : 1"
       inkscape:vp_z="1 : 0.5 : 1"
       inkscape:vp_y="0 : 1000 : 0"
       inkscape:vp_x="0 : 0.5 : 1"
       sodipodi:type="inkscape:persp3d" />
    <inkscape:perspective
       id="perspective4153"
       inkscape:persp3d-origin="0.5 : 0.33333333 : 1"
       inkscape:vp_z="1 : 0.5 : 1"
       inkscape:vp_y="0 : 1000 : 0"
       inkscape:vp_x="0 : 0.5 : 1"
       sodipodi:type="inkscape:persp3d" />
    <inkscape:perspective
       id="perspective4179"
       inkscape:persp3d-origin="0.5 : 0.33333333 : 1"
       inkscape:vp_z="1 : 0.5 : 1"
       inkscape:vp_y="0 : 1000 : 0"
       inkscape:vp_x="0 : 0.5 : 1"
       sodipodi:type="inkscape:persp3d" />
    <inkscape:perspective
       id="perspective4195"
       inkscape:persp3d-origin="0.5 : 0.33333333 : 1"
       inkscape:vp_z="1 : 0.5 : 1"
       inkscape:vp_y="0 : 1000 : 0"
       inkscape:vp_x="0 : 0.5 : 1"
       sodipodi:type="inkscape:persp3d" />
    <inkscape:perspective
       id="perspective4213"
       inkscape:persp3d-origin="0.5 : 0.33333333 : 1"
       inkscape:vp_z="1 : 0.5 : 1"
       inkscape:vp_y="0 : 1000 : 0"
       inkscape:vp_x="0 : 0.5 : 1"
       sodipodi:type="inkscape:persp3d" />
    <inkscape:perspective
       id="perspective4267"
       inkscape:persp3d-origin="0.5 : 0.33333333 : 1"
       inkscape:vp_z="1 : 0.5 : 1"
       inkscape:vp_y="0 : 1000 : 0"
       inkscape:vp_x="0 : 0.5 : 1"
       sodipodi:type="inkscape:persp3d" />
    <inkscape:perspective
       id="perspective4283"
       inkscape:persp3d-origin="0.5 : 0.33333333 : 1"
       inkscape:vp_z="1 : 0.5 : 1"
       inkscape:vp_y="0 : 1000 : 0"
       inkscape:vp_x="0 : 0.5 : 1"
       sodipodi:type="inkscape:persp3d" />
    <inkscape:perspective
       id="perspective4314"
       inkscape:persp3d-origin="0.5 : 0.33333333 : 1"
       inkscape:vp_z="1 : 0.5 : 1"
       inkscape:vp_y="0 : 1000 : 0"
       inkscape:vp_x="0 : 0.5 : 1"
       sodipodi:type="inkscape:persp3d" />
    <inkscape:perspective
       id="perspective4330"
       inkscape:persp3d-origin="0.5 : 0.33333333 : 1"
       inkscape:vp_z="1 : 0.5 : 1"
       inkscape:vp_y="0 : 1000 : 0"
       inkscape:vp_x="0 : 0.5 : 1"
       sodipodi:type="inkscape:persp3d" />
    <inkscape:perspective
       id="perspective4346"
       inkscape:persp3d-origin="0.5 : 0.33333333 : 1"
       inkscape:vp_z="1 : 0.5 : 1"
       inkscape:vp_y="0 : 1000 : 0"
       inkscape:vp_x="0 : 0.5 : 1"
       sodipodi:type="inkscape:persp3d" />
    <inkscape:perspective
       id="perspective3742"
       inkscape:persp3d-origin="0.5 : 0.33333333 : 1"
       inkscape:vp_z="1 : 0.5 : 1"
       inkscape:vp_y="0 : 1000 : 0"
       inkscape:vp_x="0 : 0.5 : 1"
       sodipodi:type="inkscape:persp3d" />
    <inkscape:perspective
       id="perspective3776"
       inkscape:persp3d-origin="0.5 : 0.33333333 : 1"
       inkscape:vp_z="1 : 0.5 : 1"
       inkscape:vp_y="0 : 1000 : 0"
       inkscape:vp_x="0 : 0.5 : 1"
       sodipodi:type="inkscape:persp3d" />
    <inkscape:perspective
       id="perspective3792"
       inkscape:persp3d-origin="0.5 : 0.33333333 : 1"
       inkscape:vp_z="1 : 0.5 : 1"
       inkscape:vp_y="0 : 1000 : 0"
       inkscape:vp_x="0 : 0.5 : 1"
       sodipodi:type="inkscape:persp3d" />
    <inkscape:perspective
       id="perspective3808"
       inkscape:persp3d-origin="0.5 : 0.33333333 : 1"
       inkscape:vp_z="1 : 0.5 : 1"
       inkscape:vp_y="0 : 1000 : 0"
       inkscape:vp_x="0 : 0.5 : 1"
       sodipodi:type="inkscape:persp3d" />
    <inkscape:perspective
       id="perspective3824"
       inkscape:persp3d-origin="0.5 : 0.33333333 : 1"
       inkscape:vp_z="1 : 0.5 : 1"
       inkscape:vp_y="0 : 1000 : 0"
       inkscape:vp_x="0 : 0.5 : 1"
       sodipodi:type="inkscape:persp3d" />
    <inkscape:perspective
       id="perspective4354"
       inkscape:persp3d-origin="0.5 : 0.33333333 : 1"
       inkscape:vp_z="1 : 0.5 : 1"
       inkscape:vp_y="0 : 1000 : 0"
       inkscape:vp_x="0 : 0.5 : 1"
       sodipodi:type="inkscape:persp3d" />
    <inkscape:perspective
       id="perspective4395"
       inkscape:persp3d-origin="0.5 : 0.33333333 : 1"
       inkscape:vp_z="1 : 0.5 : 1"
       inkscape:vp_y="0 : 1000 : 0"
       inkscape:vp_x="0 : 0.5 : 1"
       sodipodi:type="inkscape:persp3d" />
    <inkscape:perspective
       id="perspective4435"
       inkscape:persp3d-origin="0.5 : 0.33333333 : 1"
       inkscape:vp_z="1 : 0.5 : 1"
       inkscape:vp_y="0 : 1000 : 0"
       inkscape:vp_x="0 : 0.5 : 1"
       sodipodi:type="inkscape:persp3d" />
    <inkscape:perspective
       id="perspective4460"
       inkscape:persp3d-origin="0.5 : 0.33333333 : 1"
       inkscape:vp_z="1 : 0.5 : 1"
       inkscape:vp_y="0 : 1000 : 0"
       inkscape:vp_x="0 : 0.5 : 1"
       sodipodi:type="inkscape:persp3d" />
    <inkscape:perspective
       id="perspective4479"
       inkscape:persp3d-origin="0.5 : 0.33333333 : 1"
       inkscape:vp_z="1 : 0.5 : 1"
       inkscape:vp_y="0 : 1000 : 0"
       inkscape:vp_x="0 : 0.5 : 1"
       sodipodi:type="inkscape:persp3d" />
    <inkscape:perspective
       id="perspective4495"
       inkscape:persp3d-origin="0.5 : 0.33333333 : 1"
       inkscape:vp_z="1 : 0.5 : 1"
       inkscape:vp_y="0 : 1000 : 0"
       inkscape:vp_x="0 : 0.5 : 1"
       sodipodi:type="inkscape:persp3d" />
    <inkscape:perspective
       id="perspective4511"
       inkscape:persp3d-origin="0.5 : 0.33333333 : 1"
       inkscape:vp_z="1 : 0.5 : 1"
       inkscape:vp_y="0 : 1000 : 0"
       inkscape:vp_x="0 : 0.5 : 1"
       sodipodi:type="inkscape:persp3d" />
    <inkscape:perspective
       id="perspective4527"
       inkscape:persp3d-origin="0.5 : 0.33333333 : 1"
       inkscape:vp_z="1 : 0.5 : 1"
       inkscape:vp_y="0 : 1000 : 0"
       inkscape:vp_x="0 : 0.5 : 1"
       sodipodi:type="inkscape:persp3d" />
    <inkscape:perspective
       id="perspective4543"
       inkscape:persp3d-origin="0.5 : 0.33333333 : 1"
       inkscape:vp_z="1 : 0.5 : 1"
       inkscape:vp_y="0 : 1000 : 0"
       inkscape:vp_x="0 : 0.5 : 1"
       sodipodi:type="inkscape:persp3d" />
    <inkscape:perspective
       id="perspective4559"
       inkscape:persp3d-origin="0.5 : 0.33333333 : 1"
       inkscape:vp_z="1 : 0.5 : 1"
       inkscape:vp_y="0 : 1000 : 0"
       inkscape:vp_x="0 : 0.5 : 1"
       sodipodi:type="inkscape:persp3d" />
    <inkscape:perspective
       id="perspective4575"
       inkscape:persp3d-origin="0.5 : 0.33333333 : 1"
       inkscape:vp_z="1 : 0.5 : 1"
       inkscape:vp_y="0 : 1000 : 0"
       inkscape:vp_x="0 : 0.5 : 1"
       sodipodi:type="inkscape:persp3d" />
    <inkscape:perspective
       id="perspective4591"
       inkscape:persp3d-origin="0.5 : 0.33333333 : 1"
       inkscape:vp_z="1 : 0.5 : 1"
       inkscape:vp_y="0 : 1000 : 0"
       inkscape:vp_x="0 : 0.5 : 1"
       sodipodi:type="inkscape:persp3d" />
    <inkscape:perspective
       id="perspective4607"
       inkscape:persp3d-origin="0.5 : 0.33333333 : 1"
       inkscape:vp_z="1 : 0.5 : 1"
       inkscape:vp_y="0 : 1000 : 0"
       inkscape:vp_x="0 : 0.5 : 1"
       sodipodi:type="inkscape:persp3d" />
    <inkscape:perspective
       id="perspective4629"
       inkscape:persp3d-origin="0.5 : 0.33333333 : 1"
       inkscape:vp_z="1 : 0.5 : 1"
       inkscape:vp_y="0 : 1000 : 0"
       inkscape:vp_x="0 : 0.5 : 1"
       sodipodi:type="inkscape:persp3d" />
    <inkscape:perspective
       id="perspective4674"
       inkscape:persp3d-origin="0.5 : 0.33333333 : 1"
       inkscape:vp_z="1 : 0.5 : 1"
       inkscape:vp_y="0 : 1000 : 0"
       inkscape:vp_x="0 : 0.5 : 1"
       sodipodi:type="inkscape:persp3d" />
    <inkscape:perspective
       id="perspective4690"
       inkscape:persp3d-origin="0.5 : 0.33333333 : 1"
       inkscape:vp_z="1 : 0.5 : 1"
       inkscape:vp_y="0 : 1000 : 0"
       inkscape:vp_x="0 : 0.5 : 1"
       sodipodi:type="inkscape:persp3d" />
    <inkscape:perspective
       id="perspective4735"
       inkscape:persp3d-origin="0.5 : 0.33333333 : 1"
       inkscape:vp_z="1 : 0.5 : 1"
       inkscape:vp_y="0 : 1000 : 0"
       inkscape:vp_x="0 : 0.5 : 1"
       sodipodi:type="inkscape:persp3d" />
    <inkscape:perspective
       id="perspective4751"
       inkscape:persp3d-origin="0.5 : 0.33333333 : 1"
       inkscape:vp_z="1 : 0.5 : 1"
       inkscape:vp_y="0 : 1000 : 0"
       inkscape:vp_x="0 : 0.5 : 1"
       sodipodi:type="inkscape:persp3d" />
    <inkscape:perspective
       id="perspective4767"
       inkscape:persp3d-origin="0.5 : 0.33333333 : 1"
       inkscape:vp_z="1 : 0.5 : 1"
       inkscape:vp_y="0 : 1000 : 0"
       inkscape:vp_x="0 : 0.5 : 1"
       sodipodi:type="inkscape:persp3d" />
  </defs>
  <path
     style="fill:#ffffff;fill-opacity:1;stroke:none"
     d="m -4.9305571,-3.438081 207.7153771,0 0,207.348391 -207.7153771,0 0,-207.348391 z"
     id="rect2881" />
  <path
     style="fill:none;stroke:#000000;stroke-width:3;stroke-miterlimit:4;stroke-opacity:1"
     d="m 21.814432,2.8621521 157.645218,0 c 10.29357,0 18.58045,8.2868829 18.58045,18.5804539 l 0,157.645234 c 0,10.29357 -8.28688,18.58045 -18.58045,18.58045 l -157.645218,0 c -10.293571,0 -18.5804535,-8.28688 -18.5804535,-18.58045 l 0,-157.645234 c 0,-10.293571 8.2868825,-18.5804539 18.5804535,-18.5804539 z"
     id="rect4614" />
  <path
     style="fill:#000000"
     d="m 50.558556,143.45601 c -1.461275,-1.46127 -1.805852,-3.52145 -0.878728,-5.2538 0.301485,-0.56333 8.807247,-5.08264 21.739755,-11.55084 20.781758,-10.394 21.318821,-10.63048 24.656929,-10.85702 2.544209,-0.17266 3.953118,-0.0251 5.537468,0.57997 2.32995,0.88982 25.88308,19.76761 26.88438,21.54779 0.93663,1.6652 0.68885,3.12546 -0.7795,4.59381 -1.60691,1.60691 -3.87222,1.83113 -5.68966,0.56316 -0.63921,-0.44596 -6.40131,-4.97617 -12.80467,-10.06715 l -11.642475,-9.25632 -21.412324,10.5372 C 62.660878,140.94064 54.236067,144.83 53.344977,144.83 c -0.934377,0 -1.877478,-0.46504 -2.786421,-1.37399 z M 28.502421,85.603862 c 0,-14.477502 0.13129,-26.32273 0.291756,-26.32273 1.460616,0 127.832663,-25.980165 127.943053,-26.30314 0.54067,-1.581834 3.15404,-4.284889 5.01258,-5.184591 5.81507,-2.815027 12.48977,1.480066 12.4574,8.016187 -0.0386,7.799466 -9.01141,11.625535 -14.94036,6.370698 l -1.73605,-1.538655 -2.71898,0.56171 c -1.49544,0.30894 -2.78213,0.642553 -2.8593,0.741361 -0.0772,0.09881 -4.22445,14.880425 -9.21616,32.848039 -4.99171,17.967613 -9.37144,33.673119 -9.73271,34.901119 l -0.65687,2.23273 -51.922182,0 -51.922177,0 0,-26.322728 z m 20.682145,12.221267 0,-7.050731 -6.815707,0 -6.815707,0 0,6.737364 c 0,3.705558 0.141015,6.878388 0.313366,7.050728 0.172351,0.17236 3.239419,0.31337 6.815707,0.31337 l 6.502341,0 0,-7.050731 z m 18.566926,0 0,-6.815706 -7.168244,-0.129757 -7.168243,-0.129753 0,7.075216 0,7.075221 7.168243,-0.12976 7.168244,-0.12975 0,-6.815711 z m 18.566925,0 0,-7.050731 -7.285755,0 -7.285756,0 0,6.737364 c 0,3.705558 0.141015,6.878388 0.313368,7.050728 0.172348,0.17236 3.450938,0.31337 7.285755,0.31337 l 6.972388,0 0,-7.050731 z m 19.036973,0 0,-6.815706 -7.403266,-0.129447 -7.403268,-0.129452 0,7.074605 0,7.074601 7.403268,-0.12945 7.403266,-0.12944 0,-6.815711 z m 18.56693,-0.01194 0,-7.062675 -7.40327,0.129451 -7.40327,0.129447 -0.1318,6.321944 c -0.0725,3.477074 -0.0263,6.597024 0.10275,6.933224 0.17858,0.46536 1.97723,0.61128 7.53508,0.61128 l 7.30051,0 0,-7.062671 z m 5.83069,-2.925875 1.13113,-4.112927 -1.36569,0 -1.36569,0 0.0371,4.582976 c 0.0204,2.520636 0.12596,4.371453 0.23456,4.112926 0.1086,-0.258526 0.70646,-2.320865 1.32859,-4.582975 z M 49.184566,79.24529 l 0,-7.298658 -6.698195,0.130415 -6.698194,0.13042 -0.129755,7.168243 -0.129755,7.168243 6.827949,0 6.82795,0 0,-7.298663 z m 18.696683,0.13042 -0.129757,-7.168243 -7.168244,-0.129757 -7.168243,-0.129753 0,7.297996 0,7.298 7.298,0 7.297996,0 -0.129752,-7.168243 z m 18.437168,-0.129757 0,-7.297996 -7.168243,0.129753 -7.168244,0.129757 -0.129756,7.168243 -0.129753,7.168243 7.297996,0 7.298,0 0,-7.298 z m 19.166733,0.129757 -0.12976,-7.168243 -7.403266,-0.129447 -7.403268,-0.129452 0,7.297695 0,7.29769 7.533025,0 7.533019,0 -0.12975,-7.168243 z m 18.43717,-0.129447 0,-7.297695 -7.40327,0.129452 -7.40327,0.129447 -0.12976,7.168243 -0.12975,7.168243 7.53302,0 7.53303,0 0,-7.29769 z m 10.14281,0.137424 c 1.06575,-3.808885 1.82837,-7.034595 1.69472,-7.168244 -0.13365,-0.133649 -1.89992,-0.243001 -3.92505,-0.243001 l -3.68204,0 0,7.312784 0,7.312783 1.98732,-0.14454 1.98733,-0.14454 1.93772,-6.925242 z M 49.184566,65.382811 c 0,-2.692063 -0.05128,-2.817566 -1.05761,-2.58829 -2.203383,0.502002 -12.187628,2.597245 -12.376384,2.597245 -0.108581,0 -0.19742,0.634566 -0.19742,1.410146 l 0,1.410146 6.815707,0 6.815707,0 0,-2.829247 z m 18.70472,-1.3619 c 0.07578,-2.17587 0.04024,-4.210396 -0.07904,-4.521169 -0.160592,-0.418498 -2.055453,-0.197796 -7.306029,0.850976 l -7.0892,1.416027 0,3.234899 0,3.234899 7.168243,-0.129752 7.168244,-0.129757 0.137785,-3.956123 z m 18.429131,-2.421212 c 0,-6.075352 -0.0668,-6.592908 -0.822585,-6.372864 -0.452422,0.131721 -3.731012,0.810632 -7.285756,1.508687 l -6.46317,1.269193 0,5.103671 0,5.103672 7.285756,0 7.285755,0 0,-6.612359 z m 19.036973,-0.908421 0,-7.285755 -4.23044,-0.138825 c -2.326738,-0.07635 -5.658209,0.101399 -7.403265,0.395006 l -3.172829,0.53383 0,7.020196 0,7.020202 7.403268,-0.129451 7.403266,-0.129447 0,-7.285756 z m 18.56693,-0.01193 0,-7.532724 -7.40327,0.129451 -7.40327,0.129447 -0.131,6.794089 c -0.0721,3.736751 -0.0258,7.068222 0.10276,7.403268 0.17755,0.462688 1.98932,0.609178 7.53427,0.609178 l 7.30051,5e-6 0,-7.532714 z m 15.34445,0.01193 c 1.11917,-4.007165 2.03767,-7.338636 2.0411,-7.403268 0.003,-0.06463 -2.95506,-0.117512 -6.57443,-0.117512 l -6.58068,0 0,7.537801 0,7.5378 4.53957,-0.134533 4.53957,-0.134532 2.03487,-7.285756 z M 123.92232,48.47002 c 0,-1.115857 0.29118,-1.114235 -4.70049,-0.02633 l -3.99541,0.870769 4.34795,0.04783 c 4.05052,0.04456 4.34795,-0.01645 4.34795,-0.892266 z m 18.81244,-0.26263 c 0.2515,-0.661495 0.58791,-2.019677 0.74758,-3.018182 l 0.2903,-1.815465 -5.10716,1.092395 c -2.80894,0.600817 -6.32341,1.33943 -7.80994,1.641362 -2.55024,0.517984 -2.70278,0.626672 -2.70278,1.925787 l 0,1.376821 7.06236,0 7.06237,0 0.45727,-1.202718 z"
     id="path4773"
     sodipodi:nodetypes="cssssssscccsccsssscccssccccccccccscccccccccccccccccscccccccccccccccccsccccccccscccccccccccccccccccccccccccccccccccccccccccccccsccccccccssccccccsccccccccsccccccccccccccccccccccsccccsccccccccccccccccsccccc" />
  <path
     sodipodi:type="arc"
     style="fill:none;stroke:#000000;stroke-width:7.75435876999999960;stroke-linecap:butt;stroke-linejoin:round;stroke-miterlimit:4;stroke-opacity:1;stroke-dasharray:none;stroke-dashoffset:0"
     id="path4775"
     sodipodi:cx="50.209892"
     sodipodi:cy="160.20401"
     sodipodi:rx="10.339519"
     sodipodi:ry="10.339519"
     d="m 60.549411,160.20401 a 10.339519,10.339519 0 1 1 -20.679037,0 10.339519,10.339519 0 1 1 20.679037,0 z"
     transform="matrix(0.85330781,0,0,0.85330781,8.6299454,23.277524)" />
  <path
     transform="matrix(0.85330781,0,0,0.85330781,84.183635,23.277524)"
     d="m 60.549411,160.20401 a 10.339519,10.339519 0 1 1 -20.679037,0 10.339519,10.339519 0 1 1 20.679037,0 z"
     sodipodi:ry="10.339519"
     sodipodi:rx="10.339519"
     sodipodi:cy="160.20401"
     sodipodi:cx="50.209892"
     id="path4777"
     style="fill:none;stroke:#000000;stroke-width:7.75435877;stroke-linecap:butt;stroke-linejoin:round;stroke-miterlimit:4;stroke-opacity:1;stroke-dasharray:none;stroke-dashoffset:0"
     sodipodi:type="arc" />
</svg>
