<svg xmlns="http://www.w3.org/2000/svg" width="199" height="174.875" viewBox="0 0 52.652 46.269" fill-rule="evenodd" xmlns:v="https://vecta.io/nano"><path d="M2.503 46.269c-.894 0-1.721-.477-2.168-1.251s-.447-1.729 0-2.503L24.158 1.252C24.605.477 25.432 0 26.326 0s1.721.477 2.168 1.251l23.823 41.263c.447.774.447 1.729 0 2.503s-1.273 1.252-2.168 1.252H2.503z" fill="#fff500"/><path d="M26.326.661c-.659 0-1.266.347-1.596.918L.909 42.846c-.329.571-.329 1.273 0 1.844s.937.918 1.596.918h47.642c.659 0 1.266-.347 1.596-.918s.329-1.273 0-1.844L27.922 1.579c-.329-.571-.937-.918-1.596-.918zm0 8.731l17.851 30.923H8.475L26.326 9.393z" fill="#d40000"/><path d="M29.98 20.646c-1.022 0-1.852.83-1.852 1.852s.83 1.852 1.852 1.852 1.852-.83 1.852-1.852-.83-1.852-1.852-1.852zm-8.442.761a1.07 1.07 0 0 0-1.034.794l-.827 3.043-.612-.488c-.084-.067-.191-.096-.298-.083a.4.4 0 0 0-.331.289.39.39 0 0 0 .132.413l.901.719c-.006.282.103.56.306.769a1.09 1.09 0 0 0 .24.19l-.496.488a1.14 1.14 0 0 0-.331.81l.033 4.721-1.174 4.49c-.12.398-.011.828.281 1.124a1.14 1.14 0 0 0 1.124.298c.4-.114.702-.437.794-.843l1.207-4.622a1.14 1.14 0 0 0 .041-.298l-.025-3.522 2.712 3.324-2.282 4.407c-.288.559-.072 1.25.488 1.538s1.25.063 1.538-.496l2.621-5.077a1.14 1.14 0 0 0-.132-1.24l-.48-.587c.044-.06.085-.121.116-.19l.008-.008 5.077 4.06c-.59.085-1.068.554-1.224 1.174a.95.95 0 0 0-.141-.008c-.583 0-1.066.502-1.149 1.158l-.198-.008c-.902 0-1.675.517-2.017 1.257h13.717c-.267-.762-.927-1.306-1.703-1.306a1.63 1.63 0 0 0-.149.008c-.126-.314-.386-.529-.686-.529-.014 0-.027.007-.041.008a1.89 1.89 0 0 0 .025-.298c0-.835-.549-1.505-1.224-1.505-.211 0-.406.065-.579.182a2.01 2.01 0 0 0-1.984-1.654 2.03 2.03 0 0 0-1.836 1.158l-5.507-4.415 2.497-4.647a1.07 1.07 0 0 0-.05-1.108l-2.034-3.018a1.07 1.07 0 0 0-.893-.471h-4.424zm.819 2.141h1.182l-1.621 1.612zm3.423 3.82l-1.034 1.926-1.191-.951z"/></svg>