<?xml version="1.0" encoding="UTF-8" standalone="no"?>
<!-- Created with Inkscape (http://www.inkscape.org/) -->
<svg
   xmlns:dc="http://purl.org/dc/elements/1.1/"
   xmlns:cc="http://creativecommons.org/ns#"
   xmlns:rdf="http://www.w3.org/1999/02/22-rdf-syntax-ns#"
   xmlns:svg="http://www.w3.org/2000/svg"
   xmlns="http://www.w3.org/2000/svg"
   xmlns:sodipodi="http://sodipodi.sourceforge.net/DTD/sodipodi-0.dtd"
   xmlns:inkscape="http://www.inkscape.org/namespaces/inkscape"
   version="1.1"
   width="200"
   height="200"
   id="svg2"
   inkscape:version="0.46"
   sodipodi:docname="Italian_traffic_signs_-_icona_bicicletta.svg"
   sodipodi:version="0.32"
   inkscape:output_extension="org.inkscape.output.svg.inkscape">
  <metadata
     id="metadata2877">
    <rdf:RDF>
      <cc:Work
         rdf:about="">
        <dc:format>image/svg+xml</dc:format>
        <dc:type
           rdf:resource="http://purl.org/dc/dcmitype/StillImage" />
      </cc:Work>
    </rdf:RDF>
  </metadata>
  <sodipodi:namedview
     pagecolor="#ffffff"
     bordercolor="#666666"
     borderopacity="1"
     objecttolerance="10"
     gridtolerance="10"
     guidetolerance="10"
     inkscape:pageopacity="0"
     inkscape:pageshadow="2"
     inkscape:window-width="1024"
     inkscape:window-height="708"
     id="namedview2875"
     showgrid="false"
     inkscape:zoom="1.9914447"
     inkscape:cx="115.51255"
     inkscape:cy="118.43692"
     inkscape:window-x="0"
     inkscape:window-y="26"
     inkscape:window-maximized="1"
     inkscape:current-layer="svg2" />
  <defs
     id="defs4">
    <inkscape:perspective
       sodipodi:type="inkscape:persp3d"
       inkscape:vp_x="0 : 100 : 1"
       inkscape:vp_y="0 : 1000 : 0"
       inkscape:vp_z="200 : 100 : 1"
       inkscape:persp3d-origin="100 : 66.666667 : 1"
       id="perspective2879" />
  </defs>
  <rect
     style="fill:#ffffff;fill-opacity:1;stroke:none"
     id="rect2881"
     width="200.9709"
     height="200.61583"
     x="0.1366235"
     y="0.033394299"
     rx="0"
     ry="0" />
  <rect
     width="194.80612"
     height="194.80614"
     ry="18.580454"
     x="3.2339785"
     y="2.8621521"
     id="rect4614"
     style="fill:none;stroke:#000000;stroke-width:3;stroke-miterlimit:4;stroke-opacity:1;stroke-dasharray:none" />
  <path
     d="M 78.70442,57.398872 C 77.593345,57.398872 76.617124,57.633792 75.788236,58.099932 C 74.9594,58.565912 74.314795,59.289482 74.014905,60.086232 C 73.41502,61.679762 73.77561,63.294562 74.25137,64.759922 C 75.036051,67.177732 76.15042,68.680012 76.615837,69.394662 L 65.305773,88.634552 C 61.493982,86.649712 57.142181,85.518802 52.537654,85.518802 C 37.399358,85.518802 25.109727,97.664782 25.109727,112.62602 C 25.109727,127.58735 37.399358,139.73327 52.537654,139.73332 C 67.675901,139.73332 79.965531,127.5873 79.965531,112.62602 C 79.965531,103.39708 75.279875,95.244572 68.143144,90.348242 L 72.00516,83.727202 L 103.37382,108.69237 C 102.95248,109.45691 102.73215,110.33695 102.78271,111.22395 L 103.01918,116.24815 C 103.16635,118.90456 105.49225,120.95846 108.18161,120.84394 L 126.93975,119.90919 C 130.16301,131.33673 140.75817,139.73327 153.34303,139.73332 C 168.48133,139.73332 180.77096,127.5873 180.77096,112.62602 C 180.77096,97.664782 168.48133,85.518802 153.34303,85.518802 C 148.83309,85.518802 144.56597,86.608412 140.81138,88.517732 L 133.67856,76.911432 L 137.81638,70.017782 C 138.34273,70.076712 138.83959,70.138972 139.35325,70.134592 C 141.44188,70.119152 143.40989,69.033532 144.51564,67.642012 C 144.79229,67.294242 145.0857,66.948112 145.18562,66.473582 C 145.28522,65.999292 145.16502,65.401082 144.831,64.954632 C 144.16064,64.061722 143.10897,63.825182 141.63895,63.825182 C 137.30592,63.825182 133.26528,64.429462 129.06781,65.460952 C 128.56073,65.541492 128.22931,65.966822 128.20081,66.473582 C 128.17151,66.980322 128.45452,67.428682 128.94955,67.564102 C 130.73643,68.170162 132.5514,68.884682 134.38788,69.394632 L 130.32883,76.171422 L 76.379398,76.171422 L 79.886744,70.251442 C 80.192321,69.720232 80.150122,69.085812 79.807744,68.576732 C 79.807744,68.576732 78.145441,66.032382 77.403832,63.747272 C 77.033002,62.604722 76.952078,61.617002 77.088914,61.254642 C 77.157104,61.073752 77.21834,61.008392 77.403832,60.903932 C 77.589093,60.799462 77.987327,60.670552 78.704311,60.670552 L 93.600509,60.670552 C 94.515851,60.670552 95.255633,59.939362 95.255633,59.034752 C 95.255633,58.130142 94.515851,57.398952 93.600509,57.398952 L 78.704311,57.398952 L 78.70442,57.398872 z M 74.566595,79.404092 L 128.35838,79.404092 L 112.16171,106.35554 L 108.06333,106.0441 C 107.88193,106.0337 107.65378,106.0337 107.4722,106.0441 C 106.87838,106.0698 106.33914,106.23785 105.81707,106.47228 L 73.660234,80.845002 L 74.566595,79.403992 L 74.566595,79.404092 z M 131.7869,80.027212 L 137.9739,90.153532 C 132.10719,94.081882 127.85682,100.21682 126.42736,107.32924 L 115.74787,106.58923 L 131.7869,80.027212 L 131.7869,80.027212 z M 52.537603,89.919802 C 56.34291,89.919802 59.936968,90.829972 63.09888,92.451382 L 53.365127,109.00397 C 53.116312,108.95347 52.880027,108.88716 52.616416,108.88716 C 50.506605,108.88716 48.793793,110.5799 48.793793,112.66506 C 48.793793,114.75019 50.506605,116.48184 52.616416,116.48184 C 54.726149,116.48184 56.438963,114.75019 56.438963,112.66506 C 56.438963,112.05077 56.308509,111.50316 56.045078,110.9903 L 65.897062,94.165102 C 71.719139,98.285942 75.512583,105.01564 75.512583,112.6261 C 75.512583,125.15775 65.21767,135.33227 52.537809,135.33227 C 39.85787,135.33227 29.562983,125.15775 29.562983,112.6261 C 29.562983,100.09439 39.85787,89.919872 52.537809,89.919872 L 52.537603,89.919802 z M 153.34295,89.919802 C 166.02294,89.919802 176.31778,100.09439 176.31778,112.62602 C 176.31778,125.15773 166.02294,135.33227 153.34295,135.33227 C 143.17186,135.33227 134.53042,128.77299 131.51099,119.71444 L 151.13614,118.74073 L 151.80609,118.74073 C 154.49669,118.72533 156.71339,116.57046 156.73209,113.91132 C 156.74749,111.85047 155.42076,110.10135 153.57942,109.39343 L 143.09693,92.295612 C 146.1816,90.773022 149.66337,89.919802 153.34295,89.919802 L 153.34295,89.919802 z M 140.29897,93.970322 L 149.44162,108.8871 L 130.91989,107.64078 C 132.20666,102.00065 135.63684,97.158732 140.29897,93.970322 z"
     id="path2053"
     style="fill:#000000;fill-opacity:1;fill-rule:evenodd;stroke:#000000;stroke-width:2.0999999;stroke-miterlimit:4;stroke-dasharray:none;stroke-opacity:1" />
</svg>
