<?xml version="1.0" encoding="UTF-8" standalone="no"?>
<!-- Created with Inkscape (http://www.inkscape.org/) -->

<svg
   xmlns:dc="http://purl.org/dc/elements/1.1/"
   xmlns:cc="http://creativecommons.org/ns#"
   xmlns:rdf="http://www.w3.org/1999/02/22-rdf-syntax-ns#"
   xmlns:svg="http://www.w3.org/2000/svg"
   xmlns="http://www.w3.org/2000/svg"
   xmlns:sodipodi="http://sodipodi.sourceforge.net/DTD/sodipodi-0.dtd"
   xmlns:inkscape="http://www.inkscape.org/namespaces/inkscape"
   width="899.97974"
   height="1085.5625"
   id="svg14447"
   version="1.1"
   inkscape:version="0.48.5 r10040"
   sodipodi:docname="CANC Camion.svg">
  <defs
     id="defs14449" />
  <sodipodi:namedview
     id="base"
     pagecolor="#ffffff"
     bordercolor="#666666"
     borderopacity="1.0"
     inkscape:pageopacity="0.0"
     inkscape:pageshadow="2"
     inkscape:zoom="0.35"
     inkscape:cx="374.9897"
     inkscape:cy="520.01282"
     inkscape:document-units="px"
     inkscape:current-layer="layer1"
     showgrid="false"
     fit-margin-top="0"
     fit-margin-left="0"
     fit-margin-right="0"
     fit-margin-bottom="0"
     inkscape:window-width="1366"
     inkscape:window-height="705"
     inkscape:window-x="-8"
     inkscape:window-y="-8"
     inkscape:window-maximized="1" />
  <metadata
     id="metadata14452">
    <rdf:RDF>
      <cc:Work
         rdf:about="">
        <dc:format>image/svg+xml</dc:format>
        <dc:type
           rdf:resource="http://purl.org/dc/dcmitype/StillImage" />
        <dc:title></dc:title>
      </cc:Work>
    </rdf:RDF>
  </metadata>
  <g
     inkscape:label="Livello 1"
     inkscape:groupmode="layer"
     id="layer1"
     transform="translate(-0.01030188,33.1875)">
    <rect
       style="fill:#ffffff;fill-opacity:1;stroke:#000000;stroke-width:1;stroke-opacity:1"
       id="rect13852"
       width="799"
       height="269"
       x="50.500034"
       y="-32.69416" />
    <rect
       style="fill:none;stroke:#000000;stroke-width:8;stroke-miterlimit:4;stroke-opacity:1;stroke-dasharray:none"
       id="rect14362"
       width="784"
       height="254"
       x="58.000034"
       y="-25.194159"
       rx="25.75"
       ry="25.75" />
    <path
       inkscape:connector-curvature="0"
       sodipodi:nodetypes="cscssssssc"
       id="path3084"
       d="m 490.93336,1028.1595 c -8.0218,13.893 -23.71569,22.5841 -40.93349,22.5841 -17.53083,0 -33.23055,-9.1664 -41.40406,-23.3234 L 8.6369297,334.60865 c -8.58386,-14.8692 -9.85485,-33.5984 -0.67212,-49.5033 C 16.73026,269.92305 32.5176,260.90815 48.86474,260.90815 l 802.27026,0 c 16.34714,0 32.13447,9.0151 40.89994,24.1972 9.18273,15.9048 7.9125,34.6345 -0.67223,49.5033 L 490.93336,1028.1595 z"
       style="fill:#ffffff;fill-opacity:1;fill-rule:nonzero;stroke:#000000;stroke-width:3.23707771;stroke-linecap:round;stroke-linejoin:round;stroke-miterlimit:2;stroke-opacity:1;stroke-dasharray:none;stroke-dashoffset:0" />
    <path
       inkscape:connector-curvature="0"
       style="fill:#d40000;fill-opacity:1;fill-rule:nonzero;stroke:none"
       d="m 450.01087,1034.5524 c 11.77131,0 21.99595,-5.9916 26.90832,-14.4994 L 877.33893,326.50925 c 5.98752,-10.3704 6.78287,-22.7348 0.67439,-33.3149 -5.945,-10.2969 -16.47791,-16.0842 -26.87454,-16.0843 l -802.28947,0 c -10.39663,0 -20.92944,5.7871 -26.87444,16.0843 -6.10847,10.5801 -5.31312,22.9434 0.67439,33.3149 l 399.94766,692.80195 c 5.19886,9.0047 15.52514,15.2412 27.41395,15.2412 z"
       id="path3092" />
    <path
       inkscape:connector-curvature="0"
       style="fill:#ffffff;fill-opacity:1;fill-rule:nonzero;stroke:none"
       d="m 449.97721,894.0769 306.37594,-530.64475 -612.71811,0 306.34217,530.64475 z"
       id="path3102" />
    <g
       style="font-size:142.64942932px;font-style:normal;font-weight:normal;line-height:125%;letter-spacing:0px;word-spacing:0px;fill:#000000;fill-opacity:1;stroke:none;font-family:Sans"
       id="text14409">
      <path
         d="m 292.69003,48.671504 c 6.94203,0.284524 12.88575,1.425092 17.83118,3.421705 12.07601,4.945466 18.35204,13.932151 18.82808,26.960081 0.28724,6.277552 -1.18563,11.175027 -4.41861,14.692438 -2.47276,1.996782 -4.89901,3.947065 -7.27874,5.850856 8.36989,2.757156 12.55487,9.651346 12.55496,20.682596 -9e-5,9.03461 -2.33056,16.35688 -6.99143,21.96683 -6.46619,7.70538 -16.87931,11.55806 -31.23939,11.55805 -13.59979,1e-5 -23.96502,-3.80479 -31.09573,-11.41439 -5.13692,-5.60995 -8.32354,-12.8379 -9.55988,-21.68386 l 24.25232,-3.42171 c -3e-5,4.37367 1.52145,7.70178 4.56445,9.98433 3.04293,2.28262 7.08498,3.42391 12.12616,3.42388 3.6132,3e-5 6.84626,-0.95117 9.69919,-2.85359 2.85281,-1.90237 4.27924,-4.37433 4.27931,-7.41588 -7e-5,-7.03781 -5.75369,-10.55674 -17.2609,-10.55679 -1.5208,5e-5 -3.27954,0.0479 -5.27622,0.14366 l 0,-20.255972 c 6.37031,6.8e-5 11.07769,-0.523781 14.12216,-1.571547 4.65799,-1.520687 6.98701,-4.421443 6.98707,-8.702276 -6e-5,-6.46604 -4.27937,-9.699099 -12.83793,-9.699186 -10.65115,8.7e-5 -15.9767,4.565259 -15.97666,13.695529 l -23.53838,-2.424797 c 0.47595,-6.277398 2.09248,-11.698721 4.84959,-16.263985 6.56188,-10.743878 18.355,-16.115864 35.3794,-16.115972 z"
         style="font-variant:normal;font-stretch:normal;fill:#000000;font-family:CodiceNero;-inkscape-font-specification:CodiceNero"
         id="path14498" />
      <path
         d="m 384.7017,49.668413 c 14.64449,1.07e-4 25.15338,5.087676 31.52671,15.262723 3.89758,6.277566 5.84641,13.125324 5.8465,20.543294 -9e-5,7.037924 -1.94892,13.551928 -5.8465,19.54203 -2.76008,4.37368 -7.08727,9.03317 -12.98159,13.9785 -4.46946,3.80483 -8.98675,7.60962 -13.55187,11.41439 l 31.52236,0 0,21.39654 -72.32163,0 0,-18.97175 c -1e-5,-0.9519 4.23141,-4.32861 12.69427,-10.13016 10.74685,-7.51378 18.59297,-13.55182 23.53837,-18.11414 8.46279,-7.798182 12.69421,-14.503732 12.69427,-20.116673 -6e-5,-3.613175 -1.14063,-6.608253 -3.42171,-8.985242 -2.66138,-2.664145 -6.32251,-3.996258 -10.98341,-3.996344 -4.84963,8.6e-5 -8.55865,1.664502 -11.12707,4.993253 -2.1883,2.85295 -3.28243,6.561971 -3.2824,11.127073 -3e-5,1.140637 0.0479,2.234769 0.14366,3.2824 l -24.24797,0 c -0.19155,-1.332047 -0.28732,-2.854255 -0.28732,-4.566628 0,-9.0345 2.42479,-16.736958 7.27439,-23.107396 6.8463,-9.034477 17.78326,-13.551763 32.81094,-13.55187 z"
         style="font-variant:normal;font-stretch:normal;fill:#000000;font-family:CodiceNero;-inkscape-font-specification:CodiceNero"
         id="path14500" />
      <path
         d="m 482.07665,48.671504 c 10.65105,1.08e-4 19.63773,2.995186 26.96008,8.985242 10.74679,8.843125 16.12023,23.535549 16.12032,44.077314 -9e-5,19.1169 -5.27775,33.1926 -15.833,42.22716 -7.70254,6.5619 -16.785,9.84285 -27.2474,9.84284 -9.51059,1e-5 -18.30718,-3.28094 -26.3898,-9.84284 -11.50728,-9.32188 -17.2609,-23.39758 -17.26089,-42.22716 -10e-6,-19.494069 5.23122,-33.806303 15.6937,-42.936745 7.60666,-6.750436 16.92565,-10.125703 27.95699,-10.125811 z m -19.54203,52.492276 c -4e-5,8.84598 1.0941,15.50364 3.2824,19.97301 3.04147,6.46615 8.41346,9.69921 16.11597,9.69918 13.31527,3e-5 19.97294,-9.89069 19.97301,-29.67219 -7e-5,-19.781391 -6.56196,-29.672113 -19.68569,-29.672199 -13.12384,8.6e-5 -19.68573,9.890808 -19.68569,29.672199 z"
         style="font-variant:normal;font-stretch:normal;fill:#000000;font-family:CodiceNero;-inkscape-font-specification:CodiceNero"
         id="path14502" />
    </g>
    <g
       style="font-size:106.98706818px;font-style:normal;font-weight:normal;line-height:125%;letter-spacing:0px;word-spacing:0px;fill:#000000;fill-opacity:1;stroke:none;font-family:Sans"
       id="text14413">
      <path
         d="m 586.46332,96.601494 c 5.27618,5.9e-5 9.94728,2.210453 14.01332,6.631186 l 0.10775,0 c -0.14371,5e-5 0.46248,-0.6241 1.81859,-1.87247 1.35601,-1.24826 3.03203,-2.300125 5.02808,-3.155608 2.78171,-1.14051 5.92045,-1.710793 9.41622,-1.710853 5.56347,6e-5 10.34231,1.943269 14.33656,5.829631 3.99408,3.88647 5.99116,8.39814 5.99125,13.535 l 0,35.9475 -17.33382,0 0,-32.95351 c -7e-5,-1.78264 -0.60626,-3.29814 -1.81859,-4.54649 -1.21247,-1.24827 -2.92441,-1.87242 -5.13583,-1.87247 -2.06788,5e-5 -3.74391,0.60624 -5.02808,1.8186 -1.28428,1.21244 -1.92639,2.74589 -1.92634,4.60036 l 0,32.95351 -17.43829,0 0,-32.95351 c -4e-5,-1.78264 -0.67752,-3.31609 -2.03245,-4.60036 -1.35501,-1.28419 -3.03049,-1.9263 -5.02645,-1.92634 -1.92637,4e-5 -3.53165,0.64215 -4.81585,1.92634 -1.28426,1.28427 -1.92637,2.81772 -1.92635,4.60036 l 0,32.95351 -17.33054,0 0,-54.24448 15.61969,0 1.28314,2.99726 c 1.64118,-1.710799 3.35311,-2.816539 5.13582,-3.317229 1.49751,-0.426566 3.85157,-0.639878 7.06217,-0.639937 z"
         style="font-variant:normal;font-stretch:normal;fill:#000000;font-family:CodiceNero;-inkscape-font-specification:CodiceNero"
         id="path14505" />
    </g>
  </g>
</svg>
