<?xml version="1.0" encoding="UTF-8" standalone="no"?>
<!-- Created with Inkscape (http://www.inkscape.org/) -->

<svg
   width="357.1875mm"
   height="529.16663mm"
   viewBox="0 0 357.1875 529.16663"
   version="1.1"
   id="svg10809"
   inkscape:version="1.2.1 (9c6d41e410, 2022-07-14)"
   sodipodi:docname="Segnale stradale italiano - segnale di carreggiata chiusa (fig II 413b).svg"
   xmlns:inkscape="http://www.inkscape.org/namespaces/inkscape"
   xmlns:sodipodi="http://sodipodi.sourceforge.net/DTD/sodipodi-0.dtd"
   xmlns="http://www.w3.org/2000/svg"
   xmlns:svg="http://www.w3.org/2000/svg">
  <sodipodi:namedview
     id="namedview10811"
     pagecolor="#ffffff"
     bordercolor="#000000"
     borderopacity="0.25"
     inkscape:showpageshadow="2"
     inkscape:pageopacity="0.0"
     inkscape:pagecheckerboard="0"
     inkscape:deskcolor="#d1d1d1"
     inkscape:document-units="mm"
     showgrid="false"
     inkscape:zoom="0.19064254"
     inkscape:cx="883.85312"
     inkscape:cy="757.96306"
     inkscape:window-width="1920"
     inkscape:window-height="991"
     inkscape:window-x="-9"
     inkscape:window-y="-9"
     inkscape:window-maximized="1"
     inkscape:current-layer="layer1" />
  <defs
     id="defs10806" />
  <g
     inkscape:label="Livello 1"
     inkscape:groupmode="layer"
     id="layer1"
     transform="translate(126.20236,181.31233)">
    <g
       id="g5820"
       transform="translate(-2227.9863,-6498.5511)">
      <rect
         style="fill:#f2ef0c;fill-rule:evenodd;stroke-width:19.237;stroke-opacity:0.68;paint-order:markers fill stroke"
         id="rect4727-8-95"
         width="357.1875"
         height="529.16663"
         x="2101.7839"
         y="6317.2388" />
      <rect
         style="fill:none;fill-opacity:0.704615;fill-rule:evenodd;stroke:#000000;stroke-width:7.9375;paint-order:markers fill stroke"
         id="rect4727-8-9-0"
         width="341.3125"
         height="513.29169"
         x="2109.7212"
         y="6325.1763"
         ry="27.78125"
         rx="27.78125" />
      <g
         id="g5757"
         transform="translate(383.2684,38.089129)">
        <path
           id="path4594-1-7-9-0-1-0-3-0-6-1-8-6-3-0-9"
           style="fill:#000000;stroke-width:84.5091;paint-order:fill markers stroke"
           d="m 1807.1902,6352.4567 -31.2599,54.1619 c -2.0174,3.4927 0.5617,4.6845 3.1257,3.9973 l 14.1404,-3.4787 c 3.2271,-0.8614 4.36,-0.8895 4.3429,2.5275 v 10.965 c 0,15.9187 1.2184,24.1994 8.0178,33.7314 l 127.9752,209.7257 c 5.0346,5.7348 6.4568,18.7901 6.4568,22.2852 v 83.6208 h 19.3022 v -83.6208 c 0,-14.6604 -3.1025,-22.5457 -10.2996,-32.2183 l -124.8969,-208.3766 c -5.4069,-8.0286 -7.2532,-15.4863 -7.2532,-25.1474 v -10.965 c 0,-3.4186 1.117,-3.3916 4.3438,-2.5275 l 14.1415,3.4787 c 2.5677,0.6928 5.1413,-0.5055 3.1249,-3.9973 z"
           sodipodi:nodetypes="cccccccccccccccccccc" />
        <path
           id="path4594-1-7-9-0-1-0-3-0-6-1-8-6-3-0-3-5"
           style="fill:#000000;stroke-width:84.5091;paint-order:fill markers stroke"
           d="m 1885.2932,6352.4566 -31.2599,54.1619 c -2.0174,3.4926 0.5617,4.6844 3.1257,3.9972 l 14.1404,-3.4786 c 3.2271,-0.8614 4.36,-0.8895 4.3429,2.5275 l -10e-5,36.534 c -0.2288,9.8069 1.6099,20.7224 5.2034,25.7603 l 107.5877,177.2619 c 7.6222,8.6822 5.824,30.6706 5.824,36.3294 v 84.4425 l 19.3023,1e-4 v -97.1226 c 0,-17.2517 -3.6831,-27.3076 -10.8803,-36.9802 l -102.8107,-171.0591 c -2.2758,-4.3501 -4.8322,-12.7293 -4.9236,-19.3507 l -4e-4,-35.8156 c 0,-3.4186 1.1169,-3.3916 4.3438,-2.5275 l 14.1415,3.4786 c 2.5677,0.6929 5.1413,-0.5054 3.1248,-3.9972 z"
           sodipodi:nodetypes="cccccccccccccccccccc" />
        <path
           id="path2013-7-2-4"
           style="fill:#000000;fill-rule:evenodd;stroke-width:23.479;paint-order:markers fill stroke"
           d="m 1907.9092,6713.5571 c 7.6056,4.3911 16.9863,14.3413 16.9863,27.8055 v 28.6301 h -33.9734 v -28.6301 c 0,-13.4642 9.3814,-23.4144 16.9871,-27.8055 z"
           sodipodi:nodetypes="csccsc" />
        <path
           id="path2013-7-2-9-0"
           style="fill:#000000;fill-rule:evenodd;stroke-width:23.479;paint-order:markers fill stroke"
           d="m 1926.3762,6368.5231 c 7.6056,-4.3911 16.9863,-14.3413 16.9863,-27.8053 v -28.6301 h -33.9734 v 28.6301 c 0,13.464 9.3814,23.4142 16.9871,27.8053 z"
           sodipodi:nodetypes="csccsc" />
        <path
           style="color:#000000;fill:#d92124;fill-rule:evenodd;paint-order:markers fill stroke"
           d="m 1957.2285,6312.0879 v 105.3926 l 76.166,249.541 v 102.9707 h 19.2364 v -105.8399 l -76.1661,-249.5429 v -102.5215 z"
           id="path4567-13" />
        <path
           style="color:#000000;fill:#d92124;fill-rule:evenodd;paint-order:markers fill stroke"
           d="m 1741.5859,6312.0879 v 105.3926 l 76.1661,249.5429 v 102.9688 h 19.2363 v -105.8399 l -76.166,-249.5429 v -102.5215 z"
           id="path4567-13-5" />
      </g>
    </g>
  </g>
</svg>
