<?xml version="1.0" encoding="UTF-8" standalone="no"?>
<svg
   xmlns:dc="http://purl.org/dc/elements/1.1/"
   xmlns:cc="http://creativecommons.org/ns#"
   xmlns:rdf="http://www.w3.org/1999/02/22-rdf-syntax-ns#"
   xmlns:svg="http://www.w3.org/2000/svg"
   xmlns="http://www.w3.org/2000/svg"
   xmlns:sodipodi="http://sodipodi.sourceforge.net/DTD/sodipodi-0.dtd"
   xmlns:inkscape="http://www.inkscape.org/namespaces/inkscape"
   version="1.1"
   width="200"
   height="200"
   id="svg2"
   sodipodi:version="0.32"
   inkscape:version="1.0.1 (3bc2e813f5, 2020-09-07)"
   sodipodi:docname="Italian_traffic_signs_-_icona_attraversamento_pedonale.svg"
   inkscape:output_extension="org.inkscape.output.svg.inkscape">
  <metadata
     id="metadata5028">
    <rdf:RDF>
      <cc:Work
         rdf:about="">
        <dc:format>image/svg+xml</dc:format>
        <dc:type
           rdf:resource="http://purl.org/dc/dcmitype/StillImage" />
      </cc:Work>
    </rdf:RDF>
  </metadata>
  <sodipodi:namedview
     inkscape:window-height="1017"
     inkscape:window-width="1920"
     inkscape:pageshadow="2"
     inkscape:pageopacity="0.0"
     guidetolerance="10.0"
     gridtolerance="10.0"
     objecttolerance="10.0"
     borderopacity="1.0"
     bordercolor="#666666"
     pagecolor="#ffffff"
     id="base"
     showgrid="false"
     inkscape:zoom="2.31"
     inkscape:cx="110.35795"
     inkscape:cy="100"
     inkscape:window-x="-8"
     inkscape:window-y="-8"
     inkscape:current-layer="svg2"
     inkscape:document-rotation="0"
     showguides="true"
     inkscape:guide-bbox="true"
     inkscape:window-maximized="1">
    <sodipodi:guide
       position="98.268398,163.20346"
       orientation="0,-1"
       id="guide1754" />
    <sodipodi:guide
       position="75.324675,48.484848"
       orientation="0,-1"
       id="guide1756" />
  </sodipodi:namedview>
  <defs
     id="defs4">
    <inkscape:perspective
       sodipodi:type="inkscape:persp3d"
       inkscape:vp_x="0 : 100 : 1"
       inkscape:vp_y="0 : 1000 : 0"
       inkscape:vp_z="200 : 100 : 1"
       inkscape:persp3d-origin="100 : 66.666667 : 1"
       id="perspective5030" />
  </defs>
  <rect
     style="fill:#ffffff;fill-opacity:1;stroke:none"
     id="rect2881"
     width="200.9709"
     height="200.61583"
     x="-0.052550167"
     y="0.12498578"
     rx="0"
     ry="0" />
  <rect
     width="194.80612"
     height="194.80614"
     ry="18.580454"
     x="2.8789062"
     y="3.2950535"
     id="rect4614"
     style="fill:none;stroke:#000000;stroke-width:3;stroke-miterlimit:4;stroke-dasharray:none;stroke-opacity:1"
     rx="18.580454" />
  <g
     transform="matrix(1.6959934,0,0,1.605147,-68.588408,-88.694194)"
     id="g2813">
    <path
       d="m 78.810407,131.84634 7.568674,0 -2.97398,25.89839 -12.277469,0 7.682775,-25.89839 z"
       id="path2803"
       style="fill:#000000;fill-opacity:1;fill-rule:evenodd;stroke:none" />
    <path
       d="m 112.88723,131.84634 8.43609,0 7.80669,25.89839 -11.90572,0 -4.33706,-25.89839 z"
       id="path2809"
       style="fill:#000000;fill-opacity:1;fill-rule:evenodd;stroke:none" />
    <path
       d="m 96.902105,131.84634 6.949095,0 1.98265,25.89839 -11.162228,0 2.230483,-25.89839 z"
       id="rect2800"
       style="fill:#000000;fill-opacity:1;fill-rule:evenodd;stroke:none" />
    <path
       d="m 63.073109,131.84634 9.42741,0 -10.408925,25.89839 -13.020963,0 14.002478,-25.89839 z"
       id="path2807"
       style="fill:#000000;fill-opacity:1;fill-rule:evenodd;stroke:none" />
    <path
       d="m 127.6332,131.84634 9.42742,0 13.63073,25.89839 -12.40138,0 -10.65677,-25.89839 z"
       id="path2811"
       style="fill:#000000;fill-opacity:1;fill-rule:evenodd;stroke:none" />
  </g>
  <g
     id="g1134"
     transform="matrix(1.314782,0,0,1.314782,-196.90269,-10.697779)"
     style="stroke:#ffffff;stroke-width:0.91269884;stroke-opacity:1;stroke-miterlimit:4;stroke-dasharray:none">
    <path
       id="path13005-5"
       style="fill:#000000;fill-opacity:1;fill-rule:evenodd;stroke:#ffffff;stroke-width:0.91269884;stroke-linejoin:round;stroke-miterlimit:4;stroke-dasharray:none;stroke-opacity:1;paint-order:markers fill stroke"
       d="m 201.51014,115.94459 19.46726,-39.731899 -1.91099,-6.667816 -10.81284,12.297646 c -3.42327,3.02458 -8.58567,-2.16532 -5.19677,-5.55421 l 19.18541,-22.031278 c 2.12408,-1.477908 3.05895,-2.014086 5.18989,-3.134552 2.41279,-1.113599 2.92147,-0.934863 5.1899,1.120466 l 17.16446,17.301928 c 0.61178,0.653039 0.82487,0.508679 1.07922,1.986596 v 8.61316 c 0,3.74635 -7.10089,3.71198 -7.14212,-0.0756 l 0.10997,-6.05602 -6.34472,-6.124761 -2.52277,7.245231 c 5.36862,14.27736 9.73362,27.214279 15.06788,41.498519 2.41965,6.73655 -5.83606,10.02233 -9.15622,3.492 L 227.50085,84.578381 c -5.98041,12.22204 -11.31466,23.791029 -17.3363,35.978679 -3.42327,6.31036 -11.93332,1.44354 -8.65441,-4.61247" />
    <path
       id="path13013-9"
       style="fill:#000000;fill-opacity:1;fill-rule:evenodd;stroke:#ffffff;stroke-width:0.91269884;stroke-linejoin:round;stroke-miterlimit:4;stroke-dasharray:none;stroke-opacity:1;paint-order:markers fill stroke"
       d="m 222.854,36.123341 c 3.56762,0 6.45471,2.921462 6.45471,6.489087 0,3.567619 -2.88709,6.48908 -6.45471,6.48908 -3.56762,0 -6.48909,-2.921461 -6.48909,-6.48908 0,-3.567625 2.92147,-6.489087 6.48909,-6.489087" />
  </g>
</svg>
