<?xml version="1.0" encoding="UTF-8" standalone="no"?>
<!-- Created with Inkscape (http://www.inkscape.org/) -->

<svg
   xmlns:dc="http://purl.org/dc/elements/1.1/"
   xmlns:cc="http://creativecommons.org/ns#"
   xmlns:rdf="http://www.w3.org/1999/02/22-rdf-syntax-ns#"
   xmlns:svg="http://www.w3.org/2000/svg"
   xmlns="http://www.w3.org/2000/svg"
   xmlns:sodipodi="http://sodipodi.sourceforge.net/DTD/sodipodi-0.dtd"
   xmlns:inkscape="http://www.inkscape.org/namespaces/inkscape"
   width="3000"
   height="2000"
   id="svg13190"
   version="1.1"
   inkscape:version="0.48.5 r10040"
   sodipodi:docname="Nuovo documento 31">
  <defs
     id="defs13192">
    <inkscape:path-effect
       effect="spiro"
       id="path-effect12676"
       is_visible="true" />
    <inkscape:path-effect
       is_visible="true"
       id="path-effect3657-6"
       effect="spiro" />
    <inkscape:path-effect
       is_visible="true"
       id="path-effect3690-1"
       effect="spiro" />
  </defs>
  <sodipodi:namedview
     id="base"
     pagecolor="#ffffff"
     bordercolor="#666666"
     borderopacity="1.0"
     inkscape:pageopacity="0.0"
     inkscape:pageshadow="2"
     inkscape:zoom="0.061871843"
     inkscape:cx="5236.2063"
     inkscape:cy="735.58112"
     inkscape:document-units="px"
     inkscape:current-layer="layer1"
     showgrid="false"
     fit-margin-top="0"
     fit-margin-left="0"
     fit-margin-right="0"
     fit-margin-bottom="0"
     inkscape:window-width="1366"
     inkscape:window-height="705"
     inkscape:window-x="-8"
     inkscape:window-y="-8"
     inkscape:window-maximized="1" />
  <metadata
     id="metadata13195">
    <rdf:RDF>
      <cc:Work
         rdf:about="">
        <dc:format>image/svg+xml</dc:format>
        <dc:type
           rdf:resource="http://purl.org/dc/dcmitype/StillImage" />
        <dc:title></dc:title>
      </cc:Work>
    </rdf:RDF>
  </metadata>
  <g
     inkscape:label="Livello 1"
     inkscape:groupmode="layer"
     id="layer1"
     transform="translate(0,947.63782)">
    <rect
       style="fill:#08842c;fill-opacity:1;stroke:none;display:inline"
       id="rect12126"
       width="2000"
       height="3000"
       x="-1052.3622"
       y="0"
       transform="matrix(0,-1,1,0,0,0)" />
    <path
       sodipodi:nodetypes="cccsssscccscc"
       inkscape:original-d="m 1574.2948,774.54131 0,-1007.10115 45.1361,11.2841 90.2722,25.389 c 25.5818,7.1949 35.9643,-40.9649 39.8094,-50.6532 1.8,-4.5371 -18.0825,-29.28319 -39.6503,-61.31659 -31.6664,-47.0332 -61.7618,-103.6949 -67.412,-111.2286 -58.4514,-77.93511 -31.4828,-56.08171 -31.4828,-56.08171 l -115.6612,-197.47079 -259.533,445.71979 c 0,0 38.5287,-3.1244 4.1939,23.5235 -28.6676,22.2496 74.7942,-3.7764 74.7942,-3.7764 l 104.3779,-22.5681 0,1007.10125 155.1556,-2.8211 z"
       inkscape:path-effect="#path-effect3690-1"
       id="path3688-4"
       d="m 1574.2948,774.54131 0,-1007.10115 c 15.0813,3.61563 30.1276,7.37724 45.1361,11.2841 30.252,7.87491 60.3504,16.34006 90.2722,25.389 7.2683,2.19808 14.8113,4.23443 22.3536,3.35531 7.5424,-0.87913 14.7574,-4.79456 19.2576,-10.91076 4.5002,-6.1162 6.1403,-14.05209 5.3571,-21.60499 -0.7832,-7.55291 -3.7731,-14.69598 -7.1589,-21.49276 -10.8638,-21.80848 -25.792,-41.27712 -39.6503,-61.31659 -24.6685,-35.6713 -46.1204,-73.44443 -67.412,-111.2286 -10.5245,-18.6769 -21.0188,-37.37083 -31.4828,-56.08171 l -115.6612,-197.47079 -259.533,445.71979 c -1.7398,3.85771 -2.2848,8.24436 -1.542,12.41053 0.7427,4.16618 2.7702,8.09418 5.7359,11.11297 4.5601,4.64166 11.0859,6.96341 17.5673,7.53783 6.4815,0.57441 13.005,-0.43452 19.3507,-1.87408 12.6912,-2.87912 25.1564,-6.68993 37.8762,-9.44015 l 104.3779,-22.5681 0,1007.10125 155.1556,-2.8211"
       style="fill:#ffffff;fill-opacity:1;stroke:none;display:inline"
       inkscape:connector-curvature="0" />
    <path
       sodipodi:nodetypes="ccsscccsccsscccsc"
       inkscape:original-d="m 2436.1678,777.36241 157.9761,-2.8211 c 0,0 143.9628,344.89999 -35.5113,-149.36475 -7.0024,-19.2834 -21.4505,-95.9085 -57.62,-98.311 -44.4366,-2.9516 -129.7284,-121.8768 -129.7284,-121.8768 l -211.5757,-132.5874 c 0,0 64.9713,-74.1962 93.0933,-101.5565 42.935,-41.7712 740.793,-37.2977 -14.1051,-50.7782 l -473.9299,-8.4631 -31.031,2.8211 242.6067,448.5407 c 19.8112,36.6268 13.7735,-14.0012 50.7784,-11.284 92.2544,6.7742 45.1361,-129.7665 45.1361,-129.7665 l 11.284,-16.926 180.5448,112.8404 c 0,0 95.5391,87.3937 126.3825,133.91165 26.5174,39.9932 45.6995,125.6215 45.6995,125.6215 z"
       inkscape:path-effect="#path-effect3657-6"
       id="path3655-2"
       d="m 2436.1678,777.36241 157.9761,-2.8211 c -3.0369,-51.34647 -15.1144,-102.1456 -35.5113,-149.36475 -15.0982,-34.95246 -34.7044,-67.90537 -57.62,-98.311 -35.8848,-47.61379 -79.9698,-89.03059 -129.7284,-121.8768 l -211.5757,-132.5874 c 28.8508,-35.76786 59.9645,-69.71015 93.0933,-101.5565 4.6029,-4.42469 9.2892,-8.90245 12.5207,-14.40897 3.2315,-5.50651 4.8351,-12.14301 3.4695,-18.37996 -0.6828,-3.11848 -2.0782,-6.07979 -4.0586,-8.58361 -1.9804,-2.50383 -4.534,-4.53795 -7.3748,-5.99434 -5.6816,-2.91277 -12.2782,-3.29732 -18.6619,-3.41132 l -473.9299,-8.4631 -31.031,2.8211 242.6067,448.5407 c 3.0197,5.5829 6.3803,11.23177 11.5645,14.89396 2.5921,1.83109 5.5642,3.13822 8.6847,3.71685 3.1204,0.57862 6.3725,0.42396 9.4275,-0.43564 6.11,-1.7192 11.1698,-6.25428 14.4545,-11.68549 3.2847,-5.4312 4.9682,-11.65255 6.6472,-17.77368 12.1236,-44.19914 27.214,-87.58424 45.1361,-129.7665 l 11.284,-16.926 180.5448,112.8404 c 51.8991,33.83447 95.6045,80.14359 126.3825,133.91165 22.2444,38.86022 37.7751,81.55184 45.6995,125.6215"
       style="fill:#ffffff;fill-opacity:1;stroke:none;display:inline"
       inkscape:connector-curvature="0" />
    <path
       inkscape:connector-curvature="0"
       style="fill:#ffffff;fill-opacity:1;stroke:none;display:inline"
       d="m 637.64606,774.54131 0,-1007.10115 c 15.0813,3.61563 30.12761,7.37724 45.1361,11.2841 30.25201,7.87491 60.35038,16.34006 90.2722,25.389 7.2683,2.19808 14.81127,4.23443 22.35362,3.35531 7.54234,-0.87913 14.7574,-4.79456 19.25761,-10.91076 4.50021,-6.1162 6.14027,-14.05209 5.35707,-21.60499 -0.7832,-7.55291 -3.7731,-14.69598 -7.1589,-21.49276 -10.86383,-21.80848 -25.79202,-41.27712 -39.6503,-61.31659 -24.66846,-35.6713 -46.12043,-73.44443 -67.412,-111.2286 -10.52452,-18.6769 -21.01881,-37.37083 -31.4828,-56.08171 l -115.6612,-197.47079 -259.53297,445.71979 c -1.73976,3.85771 -2.28481,8.24436 -1.54205,12.41053 0.74277,4.16618 2.77021,8.09418 5.73595,11.11297 4.5601,4.64166 11.08586,6.96341 17.56734,7.53783 6.48148,0.57441 13.00498,-0.43451 19.35062,-1.87408 12.69128,-2.87912 25.1564,-6.68993 37.87624,-9.44015 l 104.37787,-22.5681 0,1007.10125 155.1556,-2.8211"
       id="path12674"
       inkscape:path-effect="#path-effect12676"
       inkscape:original-d="m 637.64606,774.54131 0,-1007.10115 45.1361,11.2841 90.2722,25.389 c 25.5818,7.1949 35.9643,-40.9649 39.8094,-50.6532 1.8,-4.5371 -18.0825,-29.28319 -39.6503,-61.31659 -31.6664,-47.0332 -61.7618,-103.6949 -67.412,-111.2286 -58.4514,-77.93511 -31.4828,-56.08171 -31.4828,-56.08171 l -115.6612,-197.47079 -259.53297,445.71979 c 0,0 38.5287,-3.1244 4.1939,23.5235 -28.6676,22.2496 74.7942,-3.7764 74.7942,-3.7764 l 104.37787,-22.5681 0,1007.10125 155.1556,-2.8211 z"
       sodipodi:nodetypes="cccsssscccscc" />
    <rect
       style="fill:none;stroke:#ffffff;stroke-width:45;stroke-miterlimit:4;stroke-opacity:1;stroke-dasharray:none;display:inline"
       id="rect13186"
       width="2910"
       height="1910"
       x="45"
       y="-902.63776"
       rx="157.75536"
       ry="157.75536" />
  </g>
</svg>
