<?xml version="1.0" encoding="UTF-8" standalone="no"?>
<!-- Created with Inkscape (http://www.inkscape.org/) -->

<svg
   width="158.75mm"
   height="158.75mm"
   viewBox="0 0 158.75 158.75"
   version="1.1"
   id="svg23934"
   inkscape:version="1.2.1 (9c6d41e410, 2022-07-14)"
   sodipodi:docname="Segnale stradale italiano 1992 - rampa pedonale.svg"
   xmlns:inkscape="http://www.inkscape.org/namespaces/inkscape"
   xmlns:sodipodi="http://sodipodi.sourceforge.net/DTD/sodipodi-0.dtd"
   xmlns="http://www.w3.org/2000/svg"
   xmlns:svg="http://www.w3.org/2000/svg">
  <sodipodi:namedview
     id="namedview23936"
     pagecolor="#ffffff"
     bordercolor="#000000"
     borderopacity="0.25"
     inkscape:showpageshadow="2"
     inkscape:pageopacity="0.0"
     inkscape:pagecheckerboard="0"
     inkscape:deskcolor="#d1d1d1"
     inkscape:document-units="mm"
     showgrid="false"
     inkscape:zoom="0.76257015"
     inkscape:cx="286.53102"
     inkscape:cy="105.56406"
     inkscape:window-width="1920"
     inkscape:window-height="991"
     inkscape:window-x="-9"
     inkscape:window-y="-9"
     inkscape:window-maximized="1"
     inkscape:current-layer="layer1" />
  <defs
     id="defs23931" />
  <g
     inkscape:label="Livello 1"
     inkscape:groupmode="layer"
     id="layer1"
     transform="translate(-29.57122,-17.427562)">
    <g
       id="g23914"
       transform="translate(4755.1762,-874.30132)">
      <rect
         style="fill:#00408b;fill-rule:evenodd;stroke-width:11.8161"
         id="rect9105-4-2-5"
         width="158.75"
         height="158.75"
         x="-4725.605"
         y="891.72888" />
      <rect
         style="fill:none;fill-rule:evenodd;stroke:#ffffff;stroke-width:2.64583"
         id="rect9105-4-6-72-7"
         width="153.45833"
         height="153.45833"
         x="-4722.959"
         y="894.37469"
         ry="7.9375"
         rx="7.9375" />
      <g
         id="g22627"
         transform="matrix(0.98892917,0,0,0.98892917,-53.101438,10.102857)"
         style="fill:#3876ff;fill-opacity:0.507692">
        <circle
           style="fill:#ffffff;fill-opacity:1;fill-rule:evenodd;stroke-width:5.62595"
           id="path21575-2"
           cx="-4651.1055"
           cy="917.78265"
           r="7.7698207" />
        <path
           style="fill:#ffffff;fill-opacity:1;fill-rule:evenodd;stroke-width:5.51563"
           d="m -4639.6792,927.07587 19.7318,20.32557 v 10.69176 c 0,0 0.1147,5.39414 -4.6988,5.39414 -4.813,0 -4.6988,-4.91059 -4.6988,-4.91059 v -8.00214 l -4.9652,-4.99213 c -0.7498,-0.63069 -1.2583,-0.37636 -1.5774,0.57242 l -1.1293,10.69218 8.2688,19.93276 15.9202,15.42535 c 0,0 4.2119,3.67241 2e-4,7.88411 -4.2116,4.2117 -8.1126,-0.76177 -8.1126,-0.76177 l -17.1746,-16.8411 -5.7684,-14.1739 c -0.2969,-0.95802 -1.3138,-1.12463 -1.4328,0.05 l -7.3127,38.65867 c 0,0 -0.517,6.6493 -6.7416,5.4084 -6.2243,-1.2408 -4.1518,-7.5794 -4.1518,-7.5794 l 9.979,-47.60917 -1.5772,-8.18985 -8.6838,12.528 c 0,0 -2.6573,4.86124 -6.81,2.46375 -4.1524,-2.39747 -1.3523,-7.12509 -1.3523,-7.12509 l 18.5497,-25.36995 c 1.8165,-2.15246 5.5783,-4.84641 8.3163,-5.32301 2.7377,-0.47659 4.3619,0.0974 5.4213,0.851 z"
           id="path21631-3"
           sodipodi:nodetypes="ccczccccccczccccczcccczcczcc" />
      </g>
      <path
         id="path23820"
         style="color:#000000;fill:#ffffff;fill-rule:evenodd;stroke-width:2.08696"
         d="m -4590.4822,999.02198 -112.6349,26.66502 v 8.0367 l 112.6349,-26.6704 z" />
    </g>
  </g>
</svg>
