<?xml version="1.0" encoding="UTF-8" standalone="no"?>
<!-- Created with Inkscape (http://www.inkscape.org/) -->

<svg
   xmlns:dc="http://purl.org/dc/elements/1.1/"
   xmlns:cc="http://creativecommons.org/ns#"
   xmlns:rdf="http://www.w3.org/1999/02/22-rdf-syntax-ns#"
   xmlns:svg="http://www.w3.org/2000/svg"
   xmlns="http://www.w3.org/2000/svg"
   xmlns:sodipodi="http://sodipodi.sourceforge.net/DTD/sodipodi-0.dtd"
   xmlns:inkscape="http://www.inkscape.org/namespaces/inkscape"
   width="1397.4688"
   height="876"
   id="svg11520"
   version="1.1"
   inkscape:version="0.48.5 r10040"
   sodipodi:docname="CANC Portalone.svg">
  <defs
     id="defs11522" />
  <sodipodi:namedview
     id="base"
     pagecolor="#ffffff"
     bordercolor="#666666"
     borderopacity="1.0"
     inkscape:pageopacity="0.0"
     inkscape:pageshadow="2"
     inkscape:zoom="0.24748737"
     inkscape:cx="1268.8832"
     inkscape:cy="464.0676"
     inkscape:document-units="px"
     inkscape:current-layer="layer1"
     showgrid="false"
     fit-margin-top="0"
     fit-margin-left="0"
     fit-margin-right="0"
     fit-margin-bottom="0"
     inkscape:window-width="1366"
     inkscape:window-height="705"
     inkscape:window-x="-8"
     inkscape:window-y="-8"
     inkscape:window-maximized="1" />
  <metadata
     id="metadata11525">
    <rdf:RDF>
      <cc:Work
         rdf:about="">
        <dc:format>image/svg+xml</dc:format>
        <dc:type
           rdf:resource="http://purl.org/dc/dcmitype/StillImage" />
        <dc:title></dc:title>
      </cc:Work>
    </rdf:RDF>
  </metadata>
  <g
     inkscape:label="Livello 1"
     inkscape:groupmode="layer"
     id="layer1"
     transform="translate(-801.65625,201.125)">
    <rect
       style="fill:#ffffff;fill-opacity:1;stroke:#000000;stroke-opacity:1"
       id="rect11825"
       width="1396.485"
       height="875.00891"
       x="802.14288"
       y="-200.62889" />
    <path
       style="fill:#b4b4b4;fill-opacity:1;stroke:#000000;stroke-width:2;stroke-linecap:butt;stroke-linejoin:miter;stroke-miterlimit:4;stroke-opacity:1;stroke-dasharray:none"
       d="m 2117.4496,17.868297 -569.4051,0 9.8995,-48.42893 589.7201,0 0,648.428933 -30.2145,36.75 z"
       id="path5025-7"
       inkscape:connector-curvature="0"
       sodipodi:nodetypes="ccccccc" />
    <path
       sodipodi:nodetypes="ccccccc"
       inkscape:connector-curvature="0"
       id="path11514"
       d="m 883.61496,17.868297 569.40524,0 -9.8995,-48.42893 -589.72024,0 0,648.428933 30.2145,36.75 z"
       style="fill:#b4b4b4;fill-opacity:1;stroke:#000000;stroke-width:2;stroke-linecap:butt;stroke-linejoin:miter;stroke-miterlimit:4;stroke-opacity:1;stroke-dasharray:none" />
    <rect
       y="-150.53615"
       x="1338.0466"
       height="265"
       width="325"
       id="rect6812"
       style="fill:#08842c;fill-opacity:1;stroke:none" />
    <rect
       style="fill:#00408b;fill-opacity:1;stroke:#ffffff;stroke-width:2.43799996;stroke-miterlimit:4;stroke-opacity:1;stroke-dasharray:none"
       id="rect7322"
       width="197.562"
       height="47.562"
       x="1401.4656"
       y="-114.31715" />
    <rect
       style="fill:#ffffff;fill-opacity:1;stroke:#000000;stroke-width:0.99658638;stroke-opacity:1"
       id="rect6814"
       width="324.00342"
       height="264.00342"
       x="1713.5448"
       y="-150.03786" />
    <rect
       style="fill:#08842c;fill-opacity:1;stroke:none"
       id="rect6816"
       width="325"
       height="265"
       x="963.04657"
       y="-150.53615" />
    <rect
       style="fill:#ffffff;fill-opacity:1;stroke:none"
       id="rect7246"
       width="200"
       height="40"
       x="1013.0466"
       y="-50.536156" />
    <g
       style="font-size:35.56172943px;font-style:normal;font-weight:normal;line-height:125%;letter-spacing:0px;word-spacing:0px;fill:#ffffff;fill-opacity:1;stroke:none;font-family:Sans"
       id="text6818">
      <path
         d="m 1078.0793,-103.03615 c 1.5172,2e-5 2.928,0.64033 4.2325,1.9209 1.3985,1.350811 2.0978,2.891514 2.0978,4.622117 0,1.826146 -0.8299,3.533254 -2.4896,5.121332 2.347,1.280618 3.5206,3.29594 3.5206,6.045972 0,1.801535 -0.5571,3.389989 -1.6713,4.765367 -1.1851,1.493317 -2.7616,2.346691 -4.7296,2.560123 l -13.9043,0 0,-25.035811 z m -7.6815,10.063594 5.9744,0 c 0.735,1.6e-5 1.3397,-0.284321 1.814,-0.853013 0.4742,-0.568657 0.7114,-1.220535 0.7114,-1.955635 0,-1.635824 -0.9008,-2.536949 -2.7023,-2.703377 l -5.7975,0 z m 0,10.420646 6.4367,0 c 0.9962,6e-6 1.7907,-0.308207 2.3832,-0.92464 0.4978,-0.569391 0.7467,-1.26902 0.7467,-2.098889 0,-0.782099 -0.2431,-1.481366 -0.7293,-2.097803 -0.4862,-0.616415 -1.1558,-0.972017 -2.0088,-1.066809 l -6.8285,0 z"
         style="font-variant:normal;font-stretch:normal;fill:#ffffff;font-family:CodiceBianco;-inkscape-font-specification:CodiceBianco"
         id="path11787"
         inkscape:connector-curvature="0" />
      <path
         d="m 1112.7272,-90.695685 c 0,4.006058 -1.1496,7.206481 -3.4489,9.601276 -2.2046,2.27615 -5.0494,3.414222 -8.5345,3.414221 -3.4851,10e-7 -6.3184,-1.138071 -8.4997,-3.414221 -2.2993,-2.394795 -3.449,-5.595218 -3.449,-9.601276 0,-3.911975 1.2683,-7.053432 3.8049,-9.424375 2.2762,-2.10972 4.9908,-3.16459 8.1438,-3.16462 3.153,3e-5 5.8676,1.0549 8.1438,3.16462 2.5597,2.370943 3.8396,5.5124 3.8396,9.424375 z m -5.4762,0 c 0,-2.347035 -0.5985,-4.220007 -1.7955,-5.618923 -1.1971,-1.398876 -2.7676,-2.098324 -4.7117,-2.098346 -1.9441,2.2e-5 -3.5028,0.69947 -4.6764,2.098346 -1.1735,1.398916 -1.7603,3.271888 -1.7603,5.618923 0,2.441842 0.4978,4.350085 1.4934,5.724735 1.1142,1.564949 2.7619,2.347419 4.9433,2.347413 2.2045,6e-6 3.8639,-0.782464 4.9781,-2.347413 1.0194,-1.398526 1.5291,-3.306769 1.5291,-5.724735 z"
         style="font-variant:normal;font-stretch:normal;fill:#ffffff;font-family:CodiceBianco;-inkscape-font-specification:CodiceBianco"
         id="path11789"
         inkscape:connector-curvature="0" />
      <path
         d="m 1121.9215,-82.55191 11.4864,0 0,4.515758 -16.3939,0 0,-24.999998 4.9075,0 z"
         style="font-variant:normal;font-stretch:normal;fill:#ffffff;font-family:CodiceBianco;-inkscape-font-specification:CodiceBianco"
         id="path11791"
         inkscape:connector-curvature="0" />
      <path
         d="m 1160.2355,-90.695685 c 0,4.006058 -1.1497,7.206481 -3.449,9.601276 -2.2045,2.27615 -5.0493,3.414222 -8.5344,3.414221 -3.4852,10e-7 -6.3184,-1.138071 -8.4998,-3.414221 -2.2993,-2.394795 -3.4489,-5.595218 -3.4489,-9.601276 0,-3.911975 1.2683,-7.053432 3.8049,-9.424375 2.2761,-2.10972 4.9907,-3.16459 8.1438,-3.16462 3.153,3e-5 5.8676,1.0549 8.1437,3.16462 2.5598,2.370943 3.8397,5.5124 3.8397,9.424375 z m -5.4762,0 c -10e-5,-2.347035 -0.5986,-4.220007 -1.7956,-5.618923 -1.197,-1.398876 -2.7676,-2.098324 -4.7116,-2.098346 -1.9441,2.2e-5 -3.5029,0.69947 -4.6764,2.098346 -1.1735,1.398916 -1.7603,3.271888 -1.7603,5.618923 0,2.441842 0.4978,4.350085 1.4933,5.724735 1.1142,1.564949 2.762,2.347419 4.9434,2.347413 2.2045,6e-6 3.8638,-0.782464 4.978,-2.347413 1.0194,-1.398526 1.5291,-3.306769 1.5292,-5.724735 z"
         style="font-variant:normal;font-stretch:normal;fill:#ffffff;font-family:CodiceBianco;-inkscape-font-specification:CodiceBianco"
         id="path11793"
         inkscape:connector-curvature="0" />
      <path
         d="m 1163.2775,-90.375534 c 0,-4.812738 1.5649,-8.369125 4.6948,-10.669166 2.1806,-1.58807 4.6344,-2.38212 7.3613,-2.38215 2.2045,3e-5 4.3262,0.67542 6.365,2.02618 1.8254,1.18585 3.1411,2.572808 3.9471,4.16088 l -4.5158,2.241057 c -1.2806,-2.513436 -3.284,-3.770163 -6.0101,-3.770185 -1.4702,2.2e-5 -2.6556,0.344048 -3.5564,1.03208 -0.9717,0.734378 -1.6355,1.421707 -1.9915,2.06199 -0.6403,1.114216 -0.9604,2.678794 -0.9604,4.69374 0,2.229132 0.166,3.841461 0.4981,4.836994 0.356,1.114207 1.0911,2.074297 2.2053,2.880275 1.3037,0.972396 2.6787,1.458591 4.125,1.458586 1.7068,5e-6 3.1825,-0.604664 4.4273,-1.814008 1.2448,-1.209331 1.8672,-2.596108 1.8672,-4.160336 l -6.6146,0 0,-4.48103 11.0957,0 0,14.260288 -4.3747,0 c -0.071,-0.213432 -0.2131,-0.545521 -0.4265,-0.996267 -2.1098,1.1142 -4.1251,1.671298 -6.046,1.671298 -2.6314,0 -5.0258,-0.758594 -7.1833,-2.275786 -3.2717,-2.275419 -4.9075,-5.866895 -4.9075,-10.77444 z"
         style="font-variant:normal;font-stretch:normal;fill:#ffffff;font-family:CodiceBianco;-inkscape-font-specification:CodiceBianco"
         id="path11795"
         inkscape:connector-curvature="0" />
      <path
         d="m 1214.2748,-78.036152 -5.8322,0 -12.0908,-17.318545 0,17.318545 -4.9792,0 0,-24.999998 5.8322,0 12.0919,17.424898 0,-17.424898 4.9781,0 z"
         style="font-variant:normal;font-stretch:normal;fill:#ffffff;font-family:CodiceBianco;-inkscape-font-specification:CodiceBianco"
         id="path11797"
         inkscape:connector-curvature="0" />
      <path
         d="m 1225.5083,-103.03615 7.1833,0 8.4987,24.999998 -5.512,0 -1.4217,-4.196692 -10.2069,0 -1.3869,4.196692 -5.3341,0 z m 3.5911,5.618378 -3.4847,10.527001 7.1127,0 z"
         style="font-variant:normal;font-stretch:normal;fill:#ffffff;font-family:CodiceBianco;-inkscape-font-specification:CodiceBianco"
         id="path11799"
         inkscape:connector-curvature="0" />
    </g>
    <g
       style="font-size:28.36810684px;font-style:normal;font-weight:normal;line-height:125%;letter-spacing:0px;word-spacing:0px;fill:#000000;fill-opacity:1;stroke:none;font-family:Sans"
       id="text6822">
      <path
         d="m 1073.0467,-40.56471 4.5113,0 0,15.77266 8.794,0 0,4.22734 -13.3053,0 z"
         style="font-variant:normal;font-stretch:normal;fill:#000000;font-family:CodiceNero;-inkscape-font-specification:CodiceNero"
         id="path11732"
         inkscape:connector-curvature="0" />
      <path
         d="m 1089.434,-34.975584 4.5676,0 0,14.439443 -4.5676,0 z m -0.085,-4.482728 c 0.4727,-0.945352 1.2481,-1.418038 2.3262,-1.418059 0.4162,2.1e-5 0.8037,0.08515 1.1627,0.255389 0.9644,0.472707 1.4466,1.257631 1.4466,2.354774 0,0.397098 -0.085,0.775131 -0.2553,1.134101 -0.4727,0.945967 -1.2574,1.418941 -2.354,1.418925 -0.4161,1.6e-5 -0.8039,-0.08511 -1.1635,-0.255389 -0.9454,-0.47267 -1.4181,-1.248071 -1.418,-2.326206 -10e-5,-0.416106 0.085,-0.803951 0.2553,-1.163535 z"
         style="font-variant:normal;font-stretch:normal;fill:#000000;font-family:CodiceNero;-inkscape-font-specification:CodiceNero"
         id="path11734"
         inkscape:connector-curvature="0" />
      <path
         d="m 1106.5217,-20.56471 0,-8.000173 c 0,-0.699497 -0.194,-1.285737 -0.5818,-1.758722 -0.3878,-0.472964 -0.941,-0.709451 -1.6596,-0.709463 -0.7942,1.2e-5 -1.3898,0.274447 -1.7868,0.823306 -0.284,0.416135 -0.426,0.898344 -0.426,1.446628 l 0,8.198424 -4.539,0 0,-14.38317 4.0005,0 0.2269,0.879577 c 1.0019,-0.794144 2.3161,-1.191223 3.9425,-1.191239 1.8538,1.6e-5 3.2816,0.718568 4.2836,2.155658 0.7376,1.059084 1.1064,2.127677 1.1064,3.205783 l 0,9.333391 z"
         style="font-variant:normal;font-stretch:normal;fill:#000000;font-family:CodiceNero;-inkscape-font-specification:CodiceNero"
         id="path11736"
         inkscape:connector-curvature="0" />
      <path
         d="m 1124.7764,-34.295123 c 0.3214,0.113713 0.6998,0.378625 1.1349,0.794736 0.7186,0.69952 1.0779,1.493679 1.0779,2.382478 l 0,6.609817 c 0,0.340524 0.2175,0.55811 0.6527,0.652758 0.038,0.01847 0.3408,0.04675 0.9082,0.08484 -0.1703,0.491736 -0.662,1.654693 -1.4752,3.488875 -1.4752,10e-7 -2.7141,-0.415835 -3.7166,-1.247511 -1.324,0.869767 -2.648,1.30465 -3.9719,1.304649 -1.3806,1e-6 -2.5956,-0.444405 -3.6452,-1.333218 -1.0495,-0.888809 -1.5743,-1.995205 -1.5743,-3.319193 0,-2.193742 1.3523,-3.706741 4.0568,-4.539001 1.0025,-0.151203 2.3643,-0.387546 4.0854,-0.709029 -10e-5,-0.83224 -0.5296,-1.248365 -1.5887,-1.248377 -1.059,1.2e-5 -2.0711,0.274158 -3.0361,0.82244 -0.056,0.0381 -0.4536,0.340818 -1.1912,0.908146 l -2.1556,-3.262055 c 0.037,-0.09464 0.3211,-0.302702 0.851,-0.624189 0.6429,-0.416111 1.3615,-0.794433 2.1556,-1.134966 0.946,-0.41611 2.0619,-0.624173 3.3478,-0.624189 1.4752,1.6e-5 2.8367,0.331012 4.0845,0.992988 z m -6.0705,9.219981 c 0.019,0.302432 0.2176,0.557532 0.5956,0.765302 0.3215,0.18931 0.6525,0.283962 0.993,0.283958 0.5298,4e-6 0.9838,-0.118167 1.3618,-0.354515 0.378,-0.236338 0.6144,-0.505723 0.709,-0.808155 l 0,-1.447494 c -0.7941,0.151798 -1.5883,0.3033 -2.3824,0.454506 -0.8704,0.188735 -1.296,0.557534 -1.277,1.106398 z"
         style="font-variant:normal;font-stretch:normal;fill:#000000;font-family:CodiceNero;-inkscape-font-specification:CodiceNero"
         id="path11738"
         inkscape:connector-curvature="0" />
      <path
         d="m 1137.6809,-40.90494 0,5.36144 3.7165,0 0,4.00052 -3.6308,0 0,5.928491 c 0,0.642951 0.4536,0.964424 1.3609,0.964418 0.284,6e-6 0.6623,-0.03304 1.135,-0.09913 0.4727,-0.06608 0.7563,-0.09912 0.851,-0.09913 l 0.7947,3.772834 c -1.1347,0.56734 -2.5816,0.851009 -4.3407,0.851008 -1.1913,10e-7 -2.2313,-0.302714 -3.1201,-0.908146 -0.9835,-0.680458 -1.4752,-1.540701 -1.4752,-2.580729 l 0,-7.829625 -2.3548,0 0,-4.00052 2.3548,0 0,-4.170202 z"
         style="font-variant:normal;font-stretch:normal;fill:#000000;font-family:CodiceNero;-inkscape-font-specification:CodiceNero"
         id="path11740"
         inkscape:connector-curvature="0" />
      <path
         d="m 1151.1152,-35.288111 c 1.8157,1.6e-5 3.3948,0.642961 4.7373,1.928838 1.5132,1.437694 2.2699,3.329015 2.2699,5.673967 0,0.302435 -0.047,0.784644 -0.142,1.446628 l -9.4753,0 c 0.4351,1.343035 1.3998,1.995503 2.8941,1.957407 1.1722,-0.03751 2.3256,-0.491439 3.4603,-1.361787 l 3.0361,2.978963 c -2.3456,1.626412 -4.5301,2.439616 -6.5536,2.439615 -1.9098,1e-6 -3.574,-0.595618 -4.9926,-1.786858 -1.5508,-1.32398 -2.3545,-3.073321 -2.411,-5.248031 -10e-5,-0.28395 -10e-5,-0.719121 0,-1.305514 0.018,-1.437095 0.5572,-2.827161 1.6163,-4.170202 1.362,-1.702002 3.2155,-2.55301 5.5605,-2.553026 z m -2.553,5.61683 4.9641,0 c -0.1132,-0.529236 -0.3967,-0.978259 -0.8506,-1.347069 -0.4539,-0.368788 -0.9932,-0.56271 -1.6176,-0.581768 -0.643,-0.01903 -1.2008,0.189028 -1.6735,0.624188 -0.3971,0.359576 -0.6712,0.794459 -0.8224,1.304649 z"
         style="font-variant:normal;font-stretch:normal;fill:#000000;font-family:CodiceNero;-inkscape-font-specification:CodiceNero"
         id="path11742"
         inkscape:connector-curvature="0" />
    </g>
    <g
       style="font-size:32.00555801px;font-style:normal;font-weight:normal;line-height:125%;letter-spacing:0px;word-spacing:0px;fill:#ffffff;fill-opacity:1;stroke:none;font-family:Sans"
       id="text6826">
      <path
         d="m 1502.7857,-101.78613 c 1.8988,2e-5 3.5843,0.67234 5.0565,2.016952 1.5791,1.472282 2.3686,3.29649 2.3686,5.47263 0,2.090873 -0.8003,3.851268 -2.4008,5.281191 -1.4723,1.343993 -3.147,2.015984 -5.0243,2.015975 l -5.1532,0 0,7.745486 -4.7362,0 0,-22.532234 z m -5.1532,4.000695 0,6.657406 4.8328,0 c 0.7684,1.4e-5 1.4619,-0.341354 2.0805,-1.024103 0.6186,-0.682721 0.9279,-1.40827 0.9279,-2.176648 0,-0.959785 -0.3412,-1.791959 -1.0236,-2.496527 -0.6187,-0.640066 -1.2802,-0.960108 -1.9848,-0.960128 z"
         style="font-variant:normal;font-stretch:normal;fill:#ffffff;font-family:CodiceBianco;-inkscape-font-specification:CodiceBianco"
         id="path11762"
         inkscape:connector-curvature="0" />
      <path
         d="m 1518.9643,-101.78613 6.465,0 7.6488,22.500002 -4.9608,0 -1.2796,-3.777023 -9.1861,0 -1.2483,3.777023 -4.8006,0 z m 3.232,5.056543 -3.1363,9.474301 6.4015,0 z"
         style="font-variant:normal;font-stretch:normal;fill:#ffffff;font-family:CodiceBianco;-inkscape-font-specification:CodiceBianco"
         id="path11764"
         inkscape:connector-curvature="0" />
      <path
         d="m 1538.875,-101.78613 4.3855,15.90706 4.7049,-15.90706 4.7684,0 -6.5607,22.500002 -5.8574,0 -6.1447,-22.500002 z"
         style="font-variant:normal;font-stretch:normal;fill:#ffffff;font-family:CodiceBianco;-inkscape-font-specification:CodiceBianco"
         id="path11766"
         inkscape:connector-curvature="0" />
      <path
         d="m 1560.5838,-101.78613 0,22.500002 -4.6404,0 0,-22.500002 z"
         style="font-variant:normal;font-stretch:normal;fill:#ffffff;font-family:CodiceBianco;-inkscape-font-specification:CodiceBianco"
         id="path11768"
         inkscape:connector-curvature="0" />
      <path
         d="m 1570.6608,-101.78613 6.465,0 7.6488,22.500002 -4.9609,0 -1.2795,-3.777023 -9.1862,0 -1.2482,3.777023 -4.8007,0 z m 3.232,5.056543 -3.1363,9.474301 6.4015,0 z"
         style="font-variant:normal;font-stretch:normal;fill:#ffffff;font-family:CodiceBianco;-inkscape-font-specification:CodiceBianco"
         id="path11770"
         inkscape:connector-curvature="0" />
    </g>
    <rect
       y="-50.536156"
       x="1400.2466"
       height="40"
       width="200"
       id="rect7298"
       style="fill:#ffffff;fill-opacity:1;stroke:none" />
    <g
       style="font-size:35.4601326px;font-style:normal;font-weight:normal;line-height:125%;letter-spacing:0px;word-spacing:0px;fill:#000000;fill-opacity:1;stroke:none;font-family:Sans"
       id="text6830-1">
      <path
         d="m 1829.9941,-58.036146 -5.6727,0 0,-15.81573 -7.0567,9.609558 -7.0925,-9.538135 0,15.708596 -5.7083,0 0,-24.858237 6.3468,-0.03463 6.3826,8.971085 6.4897,-9.042507 6.3111,0 z"
         style="font-variant:normal;font-stretch:normal;fill:#000000;font-family:CodiceNero;-inkscape-font-specification:CodiceNero"
         id="path11719"
         inkscape:connector-curvature="0" />
      <path
         d="m 1841.3362,-82.930094 0,24.858237 -5.7798,0 0,-24.858237 z"
         style="font-variant:normal;font-stretch:normal;fill:#000000;font-family:CodiceNero;-inkscape-font-specification:CodiceNero"
         id="path11721"
         inkscape:connector-curvature="0" />
      <path
         d="m 1847.722,-83.071857 5.6391,0 0,19.715825 10.9926,0 0,5.284175 -16.6317,0 z"
         style="font-variant:normal;font-stretch:normal;fill:#000000;font-family:CodiceNero;-inkscape-font-specification:CodiceNero"
         id="path11723"
         inkscape:connector-curvature="0" />
      <path
         d="m 1874.9437,-83.142197 7.3045,0 8.1563,25.07034 -6.0287,0 -1.2759,-3.759415 -9.0425,0 -1.3473,3.759415 -5.8512,0 z m 3.688,7.021037 -0.071,0 -2.7303,8.723271 0.071,-0.03571 5.3891,0.03571 z"
         style="font-variant:normal;font-stretch:normal;fill:#000000;font-family:CodiceNero;-inkscape-font-specification:CodiceNero"
         id="path11725"
         inkscape:connector-curvature="0" />
      <path
         d="m 1911.5985,-58.071857 -11.0272,-15.602545 0,15.638256 -6.0644,0 0,-25.106051 6.5601,0 11.2057,16.169596 -0.071,-16.205307 5.8155,0 0,25.106051 z"
         style="font-variant:normal;font-stretch:normal;fill:#000000;font-family:CodiceNero;-inkscape-font-specification:CodiceNero"
         id="path11727"
         inkscape:connector-curvature="0" />
      <path
         d="m 1934.2351,-83.638907 c 2.8367,2.7e-5 5.366,0.792165 7.5881,2.376417 3.2392,2.292753 4.8588,5.873969 4.8589,10.743659 -10e-5,3.971527 -1.3239,7.163167 -3.9716,9.574928 -2.4117,2.15061 -5.2722,3.225912 -8.5815,3.225911 -3.3568,1e-6 -6.182,-1.087205 -8.4754,-3.261622 -2.5294,-2.41104 -3.7941,-5.685284 -3.7941,-9.822742 0,-3.333028 0.9574,-6.193527 2.8721,-8.581508 2.2696,-2.83667 5.4375,-4.255016 9.5035,-4.255043 z m -5.9573,13.014024 c 0,2.31655 0.5555,4.11329 1.6665,5.390226 1.0641,1.181723 2.4825,1.772581 4.2551,1.772574 1.844,7e-6 3.3038,-0.650008 4.3795,-1.950048 1.0756,-1.300021 1.6134,-3.072954 1.6135,-5.318803 -10e-5,-2.104419 -0.4845,-3.842002 -1.4534,-5.212752 -1.0879,-1.512835 -2.5773,-2.269263 -4.4682,-2.269284 -3.9953,2.1e-5 -5.993,2.529381 -5.993,7.588087 z"
         style="font-variant:normal;font-stretch:normal;fill:#000000;font-family:CodiceNero;-inkscape-font-specification:CodiceNero"
         id="path11729"
         inkscape:connector-curvature="0" />
    </g>
    <g
       style="font-size:31.91411972px;font-style:normal;font-weight:normal;line-height:125%;letter-spacing:0px;word-spacing:0px;fill:#000000;fill-opacity:1;stroke:none;font-family:Sans"
       id="text6855">
      <path
         d="m 1811.4202,-19.599963 c 1.8934,1.7e-5 3.5848,0.62756 5.0743,1.882629 1.2551,1.084986 2.0209,2.233911 2.2975,3.446779 l -4.4675,1.627457 c -0.085,-0.701876 -0.3405,-1.297603 -0.7664,-1.787183 -0.5318,-0.59539 -1.2551,-0.893091 -2.17,-0.893105 -0.9149,1.4e-5 -1.6648,0.33505 -2.2498,1.005108 -0.585,0.670084 -0.8775,1.526502 -0.8775,2.569258 l 0,1.212558 c 0,0.8726591 0.2448,1.6492145 0.7343,2.329668 0.574,0.8298038 1.3931,1.2447026 2.4573,1.2446975 0.6597,5.1e-6 1.3033,-0.2658807 1.9308,-0.7976583 0.6276,-0.5317657 0.952,-1.2125502 0.9735,-2.0423556 l 4.5317,1.5953164 c 0,0.3830897 -0.2555,0.9681034 -0.7665,1.7550429 -0.6382,1.0213437 -1.4359,1.8511411 -2.3929,2.4893948 -1.2766,0.8512263 -2.7235,1.2768383 -4.3409,1.2768375 -2.3401,8e-7 -4.3081,-0.8830387 -5.904,-2.6491213 -1.3616,-1.4888271 -2.0424,-3.0844666 -2.0424,-4.7869229 l 0,-1.49987 c 0,-1.936185 0.6597,-3.680837 1.9791,-5.233963 1.5316,-1.829695 3.5315,-2.74455 5.9994,-2.744567 z"
         style="font-variant:normal;font-stretch:normal;fill:#000000;font-family:CodiceNero;-inkscape-font-specification:CodiceNero"
         id="path11706"
         inkscape:connector-curvature="0" />
      <path
         d="m 1828.9979,-19.632103 c 2.0427,1.7e-5 3.8192,0.723331 5.3295,2.169942 1.7024,1.617406 2.5536,3.745142 2.5536,6.383213 0,0.340239 -0.053,0.882724 -0.1597,1.6274566 l -10.6598,0 c 0.4896,1.5109142 1.5749,2.2449409 3.2559,2.2020821 1.3187,-0.042199 2.6163,-0.5528683 3.8928,-1.5320102 l 3.4157,3.3513332 c -2.6388,1.8297134 -5.0964,2.7445683 -7.3728,2.7445675 -2.1485,8e-7 -4.0207,-0.6700703 -5.6167,-2.0102155 -1.7447,-1.4894771 -2.6488,-3.4574866 -2.7124,-5.9040347 0,-0.319443 0,-0.809011 0,-1.468704 0.021,-1.616731 0.6269,-3.180555 1.8183,-4.691476 1.5324,-1.914753 3.6176,-2.872137 6.2556,-2.872154 z m -2.8721,6.318933 5.5846,0 c -0.1273,-0.595391 -0.4463,-1.100541 -0.9569,-1.515453 -0.5107,-0.414886 -1.1173,-0.633049 -1.8198,-0.654489 -0.7234,-0.02141 -1.3509,0.212657 -1.8827,0.702212 -0.4467,0.404523 -0.7551,0.893766 -0.9252,1.46773 z"
         style="font-variant:normal;font-stretch:normal;fill:#000000;font-family:CodiceNero;-inkscape-font-specification:CodiceNero"
         id="path11708"
         inkscape:connector-curvature="0" />
      <path
         d="m 1850.263,-3.0682779 0,-9.0001951 c 0,-0.786933 -0.2182,-1.446454 -0.6545,-1.978562 -0.4363,-0.532084 -1.0587,-0.798132 -1.867,-0.798145 -0.8935,1.3e-5 -1.5636,0.308752 -2.0103,0.926218 -0.3194,0.468153 -0.4791,1.010638 -0.4791,1.627457 l 0,9.2232271 -5.1064,0 0,-16.1810661 4.5006,0 0.2551,0.989524 c 1.1272,-0.893411 2.6057,-1.340126 4.4354,-1.340143 2.0855,1.7e-5 3.6918,0.808388 4.819,2.425114 0.8298,1.19147 1.2447,2.393637 1.2447,3.606506 l 0,10.5000651 z"
         style="font-variant:normal;font-stretch:normal;fill:#000000;font-family:CodiceNero;-inkscape-font-specification:CodiceNero"
         id="path11710"
         inkscape:connector-curvature="0" />
      <path
         d="m 1866.5551,-25.951037 0,6.031621 4.1811,0 0,4.500584 -4.0847,0 0,6.6695525 c 0,0.7233202 0.5103,1.0849768 1.531,1.084971 0.3195,5.8e-6 0.7451,-0.037166 1.2769,-0.1115163 0.5317,-0.074338 0.8509,-0.1115103 0.9574,-0.1115163 l 0.894,4.2444377 c -1.2765,0.6382575 -2.9043,0.9573854 -4.8833,0.9573846 -1.3402,8e-7 -2.5102,-0.3405538 -3.5101,-1.0216648 -1.1064,-0.7655155 -1.6596,-1.7332879 -1.6596,-2.90332 l 0,-8.8083284 -2.6491,0 0,-4.500584 2.6491,0 0,-4.691477 z"
         style="font-variant:normal;font-stretch:normal;fill:#000000;font-family:CodiceNero;-inkscape-font-specification:CodiceNero"
         id="path11712"
         inkscape:connector-curvature="0" />
      <path
         d="m 1885.4028,-14.333861 c -0.4681,-0.127898 -0.9363,-0.191854 -1.4044,-0.191866 -1.085,1.2e-5 -1.9784,0.287325 -2.6803,0.861938 -0.7876,0.616841 -1.1814,1.489167 -1.1814,2.616981 l 0,7.9785301 -5.1697,0 0,-16.2122321 5.234,0 0,1.02069 c 0.4681,-0.276582 0.9255,-0.553181 1.3723,-0.829798 0.8083,-0.383066 1.6592,-0.574608 2.5527,-0.574625 0.4252,1.7e-5 0.8509,0.04287 1.2768,0.12856 z"
         style="font-variant:normal;font-stretch:normal;fill:#000000;font-family:CodiceNero;-inkscape-font-specification:CodiceNero"
         id="path11714"
         inkscape:connector-curvature="0" />
      <path
         d="m 1901.8858,-17.206015 c 1.468,1.59533 2.2021,3.467569 2.2021,5.616722 0,2.7867783 -0.9042,5.0421003 -2.7125,6.7659723 -1.5745,1.4888336 -3.3724,2.2332489 -5.3936,2.2332482 -2.9998,7e-7 -5.3187,-1.1593133 -6.9569,-3.4779456 -0.5746,-0.8297933 -0.9577,-1.5320045 -1.1493,-2.1066358 -0.2766,-0.7661603 -0.4149,-1.8086015 -0.4149,-3.1273271 0,-2.723777 0.9149,-4.904755 2.7446,-6.542939 1.5323,-1.38298 3.4153,-2.074478 5.6489,-2.074496 2.3407,1.8e-5 4.3512,0.904484 6.0316,2.713401 z m -9.4784,4.91451 0,1.755043 c 0,0.8726591 0.3405,1.6281125 1.0217,2.2663618 0.6811,0.6382622 1.4576,0.9573901 2.3296,0.9573847 0.8934,5.4e-6 1.67,-0.3191225 2.3297,-0.9573847 0.6597,-0.6382493 0.9895,-1.3937027 0.9895,-2.2663618 l 0,-1.755043 c 0,-0.914845 -0.3616,-1.680687 -1.085,-2.297529 -0.6596,-0.553185 -1.4044,-0.829784 -2.2342,-0.829798 -0.872,1.4e-5 -1.6378,0.276613 -2.2975,0.829798 -0.7025,0.616842 -1.0538,1.382684 -1.0538,2.297529 z"
         style="font-variant:normal;font-stretch:normal;fill:#000000;font-family:CodiceNero;-inkscape-font-specification:CodiceNero"
         id="path11716"
         inkscape:connector-curvature="0" />
    </g>
    <g
       id="Layer1076"
       transform="matrix(0,0.31456101,-0.31489825,0,1260.782,-2986.9769)"
       style="fill:#ffffff;fill-opacity:1;stroke:none">
      <path
         inkscape:connector-curvature="0"
         d="m 9674.7188,429.4377 16.1239,-69.8406 c 0.7713,-3.3409 -0.4416,-6.6287 -3.1978,-8.6679 -2.7562,-2.0393 -6.2545,-2.2381 -9.2239,-0.5238 l -136.8883,79.0325 136.8883,79.0322 c 2.9694,1.7144 6.4678,1.5157 9.2241,-0.5237 2.7562,-2.0394 3.9687,-5.327 3.1976,-8.668 z"
         style="fill:#ffffff;fill-opacity:1;fill-rule:evenodd;stroke:none"
         id="path7813" />
      <path
         inkscape:connector-curvature="0"
         d="m 9609.9188,429.4378 h 189.8983"
         style="fill:#ffffff;fill-opacity:1;stroke:none"
         id="path7815" />
    </g>
    <path
       style="fill:none;stroke:#ffffff;stroke-width:15;stroke-linecap:butt;stroke-linejoin:miter;stroke-miterlimit:4;stroke-opacity:1;stroke-dasharray:none"
       d="m 1125.5486,56.28046 0,35.68342"
       id="path6973"
       inkscape:connector-curvature="0" />
    <g
       id="g6983"
       transform="matrix(-0.22242822,-0.22242822,0.22266669,-0.22266669,4039.4934,2305.7548)"
       style="fill:#000000;fill-opacity:1;stroke:none">
      <path
         inkscape:connector-curvature="0"
         d="m 9674.7188,429.4377 16.1239,-69.8406 c 0.7713,-3.3409 -0.4416,-6.6287 -3.1978,-8.6679 -2.7562,-2.0393 -6.2545,-2.2381 -9.2239,-0.5238 l -136.8883,79.0325 136.8883,79.0322 c 2.9694,1.7144 6.4678,1.5157 9.2241,-0.5237 2.7562,-2.0394 3.9687,-5.327 3.1976,-8.668 z"
         style="fill:#000000;fill-opacity:1;fill-rule:evenodd;stroke:none"
         id="path6985" />
      <path
         inkscape:connector-curvature="0"
         d="m 9609.9188,429.4378 h 189.8983"
         style="fill:#000000;fill-opacity:1;stroke:none"
         id="path6987" />
    </g>
    <path
       style="fill:none;stroke:#000000;stroke-width:15;stroke-linecap:butt;stroke-linejoin:miter;stroke-miterlimit:4;stroke-opacity:1;stroke-dasharray:none"
       d="M 1983.2099,58.22251 1957.978,32.99056"
       id="path6989"
       inkscape:connector-curvature="0" />
    <path
       style="fill:none;stroke:#ffffff;stroke-width:1.09090912;stroke-linecap:butt;stroke-linejoin:miter;stroke-miterlimit:4;stroke-opacity:1;stroke-dasharray:none"
       d="m 1044.9168,-73.388133 c 0.9534,-0.14439 2.0414,-1.2328 2.2038,-2.22573 l 2.2556,-14.92307 -2.2556,-14.921467 c -0.1624,-0.99293 -1.2504,-2.08134 -2.2038,-2.22573 l -14.9964,-2.30655 -14.9941,2.30655 c -0.9534,0.14439 -2.0414,1.2328 -2.2038,2.22573 l -2.2555,14.921467 2.2555,14.92307 c 0.1624,0.99293 1.2504,2.08134 2.2038,2.22573 l 14.9938,2.30654 z"
       id="path3382-3"
       inkscape:connector-curvature="0"
       sodipodi:nodetypes="ccccccccccccc" />
    <g
       style="font-size:21.01247597px;font-style:normal;font-weight:normal;line-height:125%;letter-spacing:0px;word-spacing:0px;fill:#ffffff;fill-opacity:1;stroke:none;font-family:Sans"
       id="text3384-4">
      <path
         d="m 1025.1614,-97.764388 2.3534,14.561503 -3.1094,0 -0.3783,-2.878571 -2.1431,0 -0.4206,2.878571 -3.0466,0 2.5002,-14.561503 z m -2.143,3.677568 -0.8195,5.778303 1.555,0 z"
         style="text-align:center;word-spacing:-2px;text-anchor:middle;fill:#ffffff;font-family:CodiceBiancoCondensed;-inkscape-font-specification:CodiceBiancoCondensed"
         id="path11782"
         inkscape:connector-curvature="0" />
      <path
         d="m 1039.8904,-97.911234 0,14.771832 -2.9838,0 0,-9.834208 -1.6178,0 0,-2.185379 c 1.3727,-0.09788 2.0451,-1.015299 2.0173,-2.752245 z"
         style="text-align:center;word-spacing:-2px;text-anchor:middle;fill:#ffffff;font-family:CodiceBiancoCondensed;-inkscape-font-specification:CodiceBiancoCondensed"
         id="path11784"
         inkscape:connector-curvature="0" />
    </g>
    <path
       d="m 1037.344,-33.216953 4.2993,-2.33231 0.09,-1.92816 c 0.1435,-3.07101 0.6055,-5.18041 1.2069,-5.5113 0.1867,-0.10267 0.2695,-0.0523 0.4735,0.28714 0.5344,0.89047 0.8312,2.54787 0.954,5.32724 l 0.08,1.82508 4.2993,2.33231 4.2994,2.33108 0,0.97226 c 0,0.5346 -0.028,0.9735 -0.063,0.9735 -0.035,0 -1.6366,-0.47938 -3.5599,-1.06675 -2.7732,-0.84466 -3.6562,-1.06512 -4.2669,-1.06512 l -0.7698,0 0,1.54327 c 0,1.53469 -0.2403,4.61102 -0.5328,6.82102 l -0.153,1.1551 1.3796,1.15469 1.3797,1.15307 0,0.60373 c 0,0.33254 -0.036,0.60496 -0.078,0.60496 -0.044,0 -0.7038,-0.36854 -1.4677,-0.81887 -0.7638,-0.45159 -1.4365,-0.78945 -1.4948,-0.75345 -0.058,0.0377 -0.1441,0.40616 -0.1909,0.82051 -0.047,0.41273 -0.1291,0.75181 -0.183,0.75181 -0.054,0 -0.1362,-0.33908 -0.183,-0.75181 -0.047,-0.41435 -0.1326,-0.78287 -0.1908,-0.82051 -0.058,-0.036 -0.731,0.30186 -1.4948,0.75345 -0.764,0.45033 -1.4245,0.81887 -1.4677,0.81887 -0.044,0 -0.078,-0.27242 -0.078,-0.60496 l 0,-0.60373 1.4036,-1.17432 c 0.956,-0.79926 1.3852,-1.23651 1.3458,-1.36863 -0.1683,-0.5706 -0.5734,-5.00901 -0.6385,-6.99567 l -0.074,-2.28853 -0.7511,0 c -0.5871,0 -1.5152,0.23314 -4.2481,1.06512 -1.9232,0.58737 -3.5254,1.06675 -3.56,1.06675 -0.035,0 -0.063,-0.43725 -0.063,-0.97227 l 0,-0.97186 4.2991,-2.33271 0,0 0,0 z"
       id="path9254"
       style="fill:#000000;fill-opacity:1"
       inkscape:connector-curvature="0" />
    <g
       style="font-size:28.36810684px;font-style:normal;font-weight:normal;line-height:125%;letter-spacing:0px;word-spacing:0px;fill:#000000;fill-opacity:1;stroke:none;font-family:Sans"
       id="text7300">
      <path
         d="m 1474.9163,-20.536141 -4.5381,0 0,-12.652584 -5.6454,7.687646 -5.674,-7.630508 0,12.566877 -4.5667,0 0,-19.88659 5.0775,-0.0277 5.106,7.176868 5.1918,-7.234006 5.0489,0 z"
         style="font-variant:normal;font-stretch:normal;fill:#000000;font-family:CodiceNero;-inkscape-font-specification:CodiceNero"
         id="path11745"
         inkscape:connector-curvature="0" />
      <path
         d="m 1488.3584,-34.295123 c 0.3215,0.113713 0.6998,0.378625 1.135,0.794736 0.7185,0.69952 1.0778,1.493679 1.0778,2.382478 l 0,6.609817 c 0,0.340524 0.2176,0.55811 0.6528,0.652758 0.038,0.01847 0.3408,0.04675 0.9081,0.08484 -0.1703,0.491736 -0.662,1.654693 -1.4752,3.488875 -1.4752,10e-7 -2.714,-0.415835 -3.7165,-1.247511 -1.324,0.869767 -2.648,1.30465 -3.972,1.304649 -1.3805,1e-6 -2.5956,-0.444405 -3.6451,-1.333218 -1.0496,-0.888809 -1.5744,-1.995205 -1.5744,-3.319193 0,-2.193742 1.3523,-3.706741 4.0568,-4.539001 1.0025,-0.151203 2.3643,-0.387546 4.0854,-0.709029 0,-0.83224 -0.5295,-1.248365 -1.5886,-1.248377 -1.0591,1.2e-5 -2.0711,0.274158 -3.0361,0.82244 -0.057,0.0381 -0.4537,0.340818 -1.1912,0.908146 l -2.1557,-3.262055 c 0.038,-0.09464 0.3212,-0.302702 0.851,-0.624189 0.6429,-0.416111 1.3615,-0.794433 2.1557,-1.134966 0.9459,-0.41611 2.0618,-0.624173 3.3477,-0.624189 1.4752,1.6e-5 2.8367,0.331012 4.0845,0.992988 z m -6.0705,9.219981 c 0.019,0.302432 0.2176,0.557532 0.5957,0.765302 0.3214,0.18931 0.6524,0.283962 0.993,0.283958 0.5298,4e-6 0.9837,-0.118167 1.3617,-0.354515 0.3781,-0.236338 0.6144,-0.505723 0.7091,-0.808155 l 0,-1.447494 c -0.7942,0.151798 -1.5884,0.3033 -2.3825,0.454506 -0.8704,0.188735 -1.296,0.557534 -1.277,1.106398 z"
         style="font-variant:normal;font-stretch:normal;fill:#000000;font-family:CodiceNero;-inkscape-font-specification:CodiceNero"
         id="path11747"
         inkscape:connector-curvature="0" />
      <path
         d="m 1499.1921,-40.649551 0,14.60999 c 0,0.623906 0.047,1.020985 0.142,1.191239 0.019,0.05657 0.142,0.132173 0.3688,0.22682 0.1137,0.05657 0.2649,0.08485 0.4536,0.08484 0.3971,6e-6 0.9174,-0.122927 1.5609,-0.368799 0.3215,2.837275 0.4632,4.25591 0.4251,4.255909 -0.7942,0.113122 -1.9571,0.226532 -3.4889,0.34023 -1.0971,1e-6 -2.1375,-0.444405 -3.1209,-1.333218 -0.5483,-0.491729 -0.8793,-1.456436 -0.993,-2.894122 l 0,-16.11289 z"
         style="font-variant:normal;font-stretch:normal;fill:#000000;font-family:CodiceNero;-inkscape-font-specification:CodiceNero"
         id="path11749"
         inkscape:connector-curvature="0" />
      <path
         d="m 1513.2506,-35.372952 c 2.4587,1.6e-5 4.3027,0.879304 5.532,2.637867 0.9829,1.380556 1.4743,3.08286 1.4744,5.106917 -10e-5,2.080057 -0.695,3.871819 -2.0847,5.375292 -1.3898,1.503479 -3.0967,2.255217 -5.1208,2.255216 -0.8507,1e-6 -1.9098,-0.264622 -3.1772,-0.79387 l 0,4.623842 -4.7658,0 0,-18.807896 4.0568,0.0277 c 0.2083,1.5e-5 0.3077,0.104046 0.2982,0.312094 -0.01,0.208078 0.033,0.331155 0.1277,0.369232 1.0775,-0.737583 2.2973,-1.106382 3.6594,-1.106398 z m -3.3763,6.808069 0,1.985975 c 0,0.567346 0.2744,1.115927 0.8233,1.645745 0.5858,0.604859 1.3044,0.907285 2.1557,0.907281 0.8888,4e-6 1.5979,-0.335608 2.1275,-1.006839 0.5295,-0.67122 0.7943,-1.564937 0.7943,-2.681154 0,-0.945363 -0.2553,-1.763185 -0.7657,-2.453467 -0.5105,-0.690261 -1.201,-1.035396 -2.0713,-1.035408 -1.2293,1.2e-5 -2.1086,0.416137 -2.6379,1.248377 -0.2839,0.472696 -0.4259,0.935859 -0.4259,1.38949 z"
         style="font-variant:normal;font-stretch:normal;fill:#000000;font-family:CodiceNero;-inkscape-font-specification:CodiceNero"
         id="path11751"
         inkscape:connector-curvature="0" />
      <path
         d="m 1529.4354,-35.288111 c 1.8157,1.6e-5 3.3948,0.642961 4.7372,1.928838 1.5133,1.437694 2.2699,3.329015 2.27,5.673967 -10e-5,0.302435 -0.047,0.784644 -0.142,1.446628 l -9.4754,0 c 0.4352,1.343035 1.3999,1.995503 2.8941,1.957407 1.1722,-0.03751 2.3257,-0.491439 3.4603,-1.361787 l 3.0361,2.978963 c -2.3455,1.626412 -4.53,2.439616 -6.5535,2.439615 -1.9098,1e-6 -3.574,-0.595618 -4.9926,-1.786858 -1.5508,-1.32398 -2.3545,-3.073321 -2.4111,-5.248031 0,-0.28395 0,-0.719121 0,-1.305514 0.019,-1.437095 0.5572,-2.827161 1.6163,-4.170202 1.3621,-1.702002 3.2156,-2.55301 5.5606,-2.553026 z m -2.553,5.61683 4.964,0 c -0.1131,-0.529236 -0.3966,-0.978259 -0.8506,-1.347069 -0.4539,-0.368788 -0.9931,-0.56271 -1.6176,-0.581768 -0.6429,-0.01903 -1.2007,0.189028 -1.6734,0.624188 -0.3971,0.359576 -0.6712,0.794459 -0.8224,1.304649 z"
         style="font-variant:normal;font-stretch:normal;fill:#000000;font-family:CodiceNero;-inkscape-font-specification:CodiceNero"
         id="path11753"
         inkscape:connector-curvature="0" />
      <path
         d="m 1548.3376,-20.56471 0,-8.000173 c 0,-0.699497 -0.1939,-1.285737 -0.5817,-1.758722 -0.3879,-0.472964 -0.9411,-0.709451 -1.6596,-0.709463 -0.7942,1.2e-5 -1.3898,0.274447 -1.7869,0.823306 -0.2839,0.416135 -0.4259,0.898344 -0.4259,1.446628 l 0,8.198424 -4.539,0 0,-14.38317 4.0005,0 0.2268,0.879577 c 1.0019,-0.794144 2.3161,-1.191223 3.9425,-1.191239 1.8538,1.6e-5 3.2817,0.718568 4.2836,2.155658 0.7376,1.059084 1.1064,2.127677 1.1064,3.205783 l 0,9.333391 z"
         style="font-variant:normal;font-stretch:normal;fill:#000000;font-family:CodiceNero;-inkscape-font-specification:CodiceNero"
         id="path11755"
         inkscape:connector-curvature="0" />
      <path
         d="m 1562.3944,-35.202404 c 2.4962,1.6e-5 4.6995,0.765894 6.6099,2.297637 l -2.8942,3.035235 c -0.7376,-0.945362 -1.8059,-1.418047 -3.2049,-1.418059 -1.0025,1.2e-5 -1.5038,0.169982 -1.5038,0.509912 0,0.151225 0.1134,0.283681 0.3403,0.397369 0.076,0.0381 0.9266,0.227119 2.553,0.56705 1.3996,0.303014 2.4587,0.738185 3.1772,1.305515 1.04,0.794167 1.56,1.938367 1.5601,3.432603 -10e-5,0.983469 -0.3689,1.919607 -1.1064,2.808415 -1.0966,1.3615 -2.7796,2.042248 -5.049,2.042247 -2.7991,1e-6 -5.2105,-0.91709 -7.234,-2.751277 -0.095,-0.05713 0.9267,-1.02184 3.0638,-2.894121 1.7586,1.172775 3.177,1.759159 4.2551,1.759155 0.2839,4e-6 0.5488,-0.05684 0.7947,-0.170548 0.3215,-0.151209 0.4444,-0.349749 0.3688,-0.59562 -0.1327,-0.397074 -0.8516,-0.718546 -2.1565,-0.964418 -1.6455,-0.283952 -2.7897,-0.62447 -3.4326,-1.021557 -1.1912,-0.718544 -1.7869,-1.871979 -1.7869,-3.460307 0,-1.437669 0.5154,-2.610294 1.5462,-3.517877 1.0308,-0.907554 2.3972,-1.361338 4.0992,-1.361354 z"
         style="font-variant:normal;font-stretch:normal;fill:#000000;font-family:CodiceNero;-inkscape-font-specification:CodiceNero"
         id="path11757"
         inkscape:connector-curvature="0" />
      <path
         d="m 1582.4386,-34.295123 c 0.3214,0.113713 0.6998,0.378625 1.135,0.794736 0.7185,0.69952 1.0778,1.493679 1.0778,2.382478 l 0,6.609817 c 0,0.340524 0.2176,0.55811 0.6527,0.652758 0.038,0.01847 0.3408,0.04675 0.9082,0.08484 -0.1703,0.491736 -0.662,1.654693 -1.4752,3.488875 -1.4752,10e-7 -2.7141,-0.415835 -3.7166,-1.247511 -1.324,0.869767 -2.648,1.30465 -3.9719,1.304649 -1.3806,1e-6 -2.5956,-0.444405 -3.6452,-1.333218 -1.0495,-0.888809 -1.5743,-1.995205 -1.5743,-3.319193 0,-2.193742 1.3523,-3.706741 4.0568,-4.539001 1.0025,-0.151203 2.3643,-0.387546 4.0854,-0.709029 0,-0.83224 -0.5296,-1.248365 -1.5886,-1.248377 -1.0591,1.2e-5 -2.0712,0.274158 -3.0361,0.82244 -0.057,0.0381 -0.4537,0.340818 -1.1913,0.908146 l -2.1556,-3.262055 c 0.037,-0.09464 0.3211,-0.302702 0.851,-0.624189 0.6429,-0.416111 1.3615,-0.794433 2.1556,-1.134966 0.946,-0.41611 2.0619,-0.624173 3.3478,-0.624189 1.4752,1.6e-5 2.8367,0.331012 4.0845,0.992988 z m -6.0705,9.219981 c 0.019,0.302432 0.2176,0.557532 0.5956,0.765302 0.3215,0.18931 0.6525,0.283962 0.993,0.283958 0.5298,4e-6 0.9838,-0.118167 1.3618,-0.354515 0.378,-0.236338 0.6144,-0.505723 0.709,-0.808155 l 0,-1.447494 c -0.7941,0.151798 -1.5883,0.3033 -2.3824,0.454506 -0.8704,0.188735 -1.296,0.557534 -1.277,1.106398 z"
         style="font-variant:normal;font-stretch:normal;fill:#000000;font-family:CodiceNero;-inkscape-font-specification:CodiceNero"
         id="path11759"
         inkscape:connector-curvature="0" />
    </g>
    <path
       inkscape:connector-curvature="0"
       style="fill:#000000;fill-opacity:1"
       id="path7304"
       d="m 1419.044,-33.216953 4.2993,-2.33231 0.09,-1.92816 c 0.1435,-3.07101 0.6056,-5.18041 1.207,-5.5113 0.1867,-0.10267 0.2694,-0.0523 0.4734,0.28714 0.5344,0.89047 0.8312,2.54787 0.954,5.32724 l 0.08,1.82508 4.2994,2.33231 4.2993,2.33108 0,0.97226 c 0,0.5346 -0.028,0.9735 -0.063,0.9735 -0.035,0 -1.6366,-0.47938 -3.5598,-1.06675 -2.7733,-0.84466 -3.6563,-1.06512 -4.2669,-1.06512 l -0.7698,0 0,1.54327 c 0,1.53469 -0.2404,4.61102 -0.5329,6.82102 l -0.1529,1.1551 1.3795,1.15469 1.3797,1.15307 0,0.60373 c 0,0.33254 -0.036,0.60496 -0.078,0.60496 -0.044,0 -0.7038,-0.36854 -1.4676,-0.81887 -0.7639,-0.45159 -1.4366,-0.78945 -1.4948,-0.75345 -0.058,0.0377 -0.1442,0.40616 -0.1909,0.82051 -0.047,0.41273 -0.1291,0.75181 -0.183,0.75181 -0.054,0 -0.1362,-0.33908 -0.1831,-0.75181 -0.047,-0.41435 -0.1326,-0.78287 -0.1908,-0.82051 -0.058,-0.036 -0.7309,0.30186 -1.4948,0.75345 -0.7639,0.45033 -1.4245,0.81887 -1.4676,0.81887 -0.044,0 -0.078,-0.27242 -0.078,-0.60496 l 0,-0.60373 1.4036,-1.17432 c 0.956,-0.79926 1.3852,-1.23651 1.3458,-1.36863 -0.1683,-0.5706 -0.5734,-5.00901 -0.6385,-6.99567 l -0.074,-2.28853 -0.7511,0 c -0.5871,0 -1.5152,0.23314 -4.2481,1.06512 -1.9232,0.58737 -3.5254,1.06675 -3.56,1.06675 -0.035,0 -0.063,-0.43725 -0.063,-0.97227 l 0,-0.97186 4.2991,-2.33271 0,0 0,0 z" />
    <rect
       style="fill:none;stroke:#ffffff;stroke-width:4.87499952;stroke-miterlimit:4;stroke-opacity:1;stroke-dasharray:none"
       id="rect7250"
       width="315.25"
       height="255.25"
       x="967.92157"
       y="-145.66127"
       rx="17.0625"
       ry="17.0625" />
    <g
       style="fill:#ffffff;fill-opacity:1;stroke:none"
       transform="matrix(0,0.31456101,-0.31489825,0,1635.7819,-2986.9769)"
       id="g7308">
      <path
         id="path7310"
         style="fill:#ffffff;fill-opacity:1;fill-rule:evenodd;stroke:none"
         d="m 9674.7188,429.4377 16.1239,-69.8406 c 0.7713,-3.3409 -0.4416,-6.6287 -3.1978,-8.6679 -2.7562,-2.0393 -6.2545,-2.2381 -9.2239,-0.5238 l -136.8883,79.0325 136.8883,79.0322 c 2.9694,1.7144 6.4678,1.5157 9.2241,-0.5237 2.7562,-2.0394 3.9687,-5.327 3.1976,-8.668 z"
         inkscape:connector-curvature="0" />
      <path
         id="path7312"
         style="fill:#ffffff;fill-opacity:1;stroke:none"
         d="m 9609.9188,429.4378 h 189.8983"
         inkscape:connector-curvature="0" />
    </g>
    <path
       inkscape:connector-curvature="0"
       id="path7314"
       d="m 1500.5485,56.28046 0,35.68342"
       style="fill:none;stroke:#ffffff;stroke-width:15;stroke-linecap:butt;stroke-linejoin:miter;stroke-miterlimit:4;stroke-opacity:1;stroke-dasharray:none" />
    <rect
       ry="17.0625"
       rx="17.0625"
       y="-145.66127"
       x="1342.9211"
       height="255.25"
       width="315.25"
       id="rect7316"
       style="fill:none;stroke:#ffffff;stroke-width:4.875;stroke-miterlimit:4;stroke-opacity:1;stroke-dasharray:none" />
    <rect
       style="fill:none;stroke:#000000;stroke-width:4.87499952;stroke-miterlimit:4;stroke-opacity:1;stroke-dasharray:none"
       id="rect7318"
       width="315.25"
       height="255.25"
       x="1717.921"
       y="-145.66127"
       rx="17.0625"
       ry="17.0625" />
    <rect
       ry="3.1575432"
       y="-105.08614"
       x="1416.6967"
       height="29.1"
       width="59.100002"
       id="rect12381-1"
       style="fill:none;stroke:#ffffff;stroke-width:0.90000004;stroke-miterlimit:4;stroke-opacity:1;stroke-dasharray:none"
       rx="3.1575432" />
    <g
       transform="scale(0.99217699,1.0078847)"
       style="font-size:21.35272217px;font-style:normal;font-weight:normal;line-height:125%;letter-spacing:0px;word-spacing:0px;fill:#ffffff;fill-opacity:1;stroke:none;font-family:Sans"
       id="text12387-3">
      <path
         d="m 1438.5166,-97.503801 c 1.8363,0.04259 3.1602,0.982026 3.9717,2.818314 l -2.1993,1.387979 c -0.5269,-1.010888 -1.139,-1.516338 -1.8363,-1.516351 -0.3132,1.3e-5 -0.5801,0.110357 -0.8008,0.33103 -0.2207,0.220699 -0.3454,0.508938 -0.3741,0.864717 -0.028,0.284993 0.086,0.576925 0.3421,0.875796 0.085,0.09949 0.3343,0.327348 0.7475,0.683563 1.0817,0.839748 2.3059,1.878885 3.6726,3.117414 0.5408,0.683353 0.8112,1.51614 0.8113,2.498362 -10e-5,1.124289 -0.3417,2.092181 -1.0251,2.903679 -0.7689,0.896648 -1.7868,1.366475 -3.0535,1.409483 -1.8789,0.05691 -3.2384,-0.996563 -4.0786,-3.160422 l 2.2853,-1.302615 c 0.4839,1.181632 1.0604,1.772446 1.7294,1.772442 0.1994,4e-6 0.3986,-0.04974 0.5976,-0.149224 0.5126,-0.256305 0.7689,-0.69051 0.7689,-1.302615 0,-0.441367 -0.1566,-0.811495 -0.4698,-1.110383 -0.7972,-0.669004 -1.5944,-1.338013 -2.3915,-2.007031 -1.1817,-0.98222 -1.8935,-1.69402 -2.1354,-2.135402 -0.3702,-0.640762 -0.5552,-1.309772 -0.5552,-2.007031 0,-1.082133 0.4057,-2.021787 1.2172,-2.818966 0.8115,-0.797149 1.7368,-1.181395 2.776,-1.152739 z"
         style="font-variant:normal;font-stretch:normal;text-align:center;text-anchor:middle;fill:#ffffff;font-family:CodiceBiancoCondensed;-inkscape-font-specification:CodiceBiancoCondensed"
         id="path11773"
         inkscape:connector-curvature="0" />
      <path
         d="m 1448.192,-97.503801 c 1.8363,0.04259 3.1602,0.982026 3.9717,2.818314 l -2.1992,1.387979 c -0.527,-1.010888 -1.1391,-1.516338 -1.8363,-1.516351 -0.3132,1.3e-5 -0.5802,0.110357 -0.8009,0.33103 -0.2207,0.220699 -0.3453,0.508938 -0.374,0.864717 -0.028,0.284993 0.086,0.576925 0.3421,0.875796 0.085,0.09949 0.3343,0.327348 0.7474,0.683563 1.0817,0.839748 2.3059,1.878885 3.6726,3.117414 0.5409,0.683353 0.8113,1.51614 0.8113,2.498362 0,1.124289 -0.3417,2.092181 -1.025,2.903679 -0.7689,0.896648 -1.7868,1.366475 -3.0536,1.409483 -1.8788,0.05691 -3.2384,-0.996563 -4.0785,-3.160422 l 2.2852,-1.302615 c 0.484,1.181632 1.0605,1.772446 1.7295,1.772442 0.1994,4e-6 0.3985,-0.04974 0.5975,-0.149224 0.5126,-0.256305 0.7689,-0.69051 0.7689,-1.302615 0,-0.441367 -0.1566,-0.811495 -0.4698,-1.110383 -0.7972,-0.669004 -1.5943,-1.338013 -2.3915,-2.007031 -1.1816,-0.98222 -1.8934,-1.69402 -2.1354,-2.135402 -0.3701,-0.640762 -0.5552,-1.309772 -0.5552,-2.007031 0,-1.082133 0.4058,-2.021787 1.2173,-2.818966 0.8115,-0.797149 1.7368,-1.181395 2.7759,-1.152739 z"
         style="font-variant:normal;font-stretch:normal;text-align:center;text-anchor:middle;fill:#ffffff;font-family:CodiceBiancoCondensed;-inkscape-font-specification:CodiceBiancoCondensed"
         id="path11775"
         inkscape:connector-curvature="0" />
      <path
         d="m 1462.9352,-93.169136 c -0.071,-0.783251 0.1923,-1.644492 0.7905,-2.583727 0.7685,-1.167277 1.8004,-1.736804 3.0959,-1.708582 1.0535,0.01435 1.9396,0.381004 2.6583,1.099957 0.7188,0.718983 1.0781,1.569581 1.0782,2.551796 -10e-5,0.711595 -0.2064,1.401892 -0.6191,2.070891 -0.2989,0.483956 -0.8825,1.003525 -1.7509,1.558707 0.2563,0.07125 0.6905,0.263486 1.3026,0.576695 1.0104,0.740263 1.5157,1.786568 1.5157,3.138918 0,1.167297 -0.4163,2.177979 -1.2489,3.03205 -0.8326,0.854076 -1.8325,1.281112 -2.9998,1.281112 -1.3953,0 -2.456,-0.540855 -3.1819,-1.622567 -0.5122,-0.768925 -0.7683,-1.580425 -0.7683,-2.434503 l 2.6046,-0.598199 c 0.029,1.338459 0.4629,2.007686 1.3026,2.007682 0.3558,4e-6 0.6619,-0.170833 0.9182,-0.512509 0.2563,-0.341669 0.3844,-0.804437 0.3844,-1.388305 0,-0.68334 -0.1707,-1.181405 -0.5121,-1.494196 -0.2425,-0.2424 -0.6126,-0.392058 -1.1104,-0.448975 -0.3845,-0.04257 -0.769,-0.07797 -1.1534,-0.106216 l 0,-2.47751 c 0.8115,1e-5 1.4379,-0.241963 1.8793,-0.72592 0.4127,-0.440927 0.619,-1.038692 0.619,-1.793295 0,-0.754578 -0.2847,-1.131874 -0.8543,-1.131887 -0.7828,1.3e-5 -1.3095,0.690527 -1.5802,2.071542 z"
         style="font-variant:normal;font-stretch:normal;text-align:center;text-anchor:middle;fill:#ffffff;font-family:CodiceBiancoCondensed;-inkscape-font-specification:CodiceBiancoCondensed"
         id="path11777"
         inkscape:connector-curvature="0" />
      <path
         d="m 1474.4841,-97.333074 6.0211,0 0,2.327635 -3.395,0 -0.4268,2.818314 c 0.3558,-0.09947 0.7116,-0.149213 1.0674,-0.149224 0.9396,1.1e-5 1.7083,0.341467 2.3061,1.024368 0.6977,0.797174 1.0465,1.985969 1.0465,3.566389 0,1.765062 -0.4841,3.159991 -1.4525,4.18479 -0.854,0.897083 -1.8717,1.345623 -3.0529,1.345623 -0.9396,0 -1.8152,-0.34884 -2.6267,-1.046524 -0.9396,-0.811498 -1.4095,-1.857803 -1.4095,-3.138918 l 2.6483,-0.491331 c 0.4409,1.224206 0.8749,1.836306 1.3019,1.836303 1.0253,3e-6 1.5379,-0.903811 1.5379,-2.711447 0,-1.566084 -0.4058,-2.349129 -1.2173,-2.349138 -0.5977,9e-6 -0.9607,0.263486 -1.0889,0.790431 l -2.3699,-0.533687 z"
         style="font-variant:normal;font-stretch:normal;text-align:center;text-anchor:middle;fill:#ffffff;font-family:CodiceBiancoCondensed;-inkscape-font-specification:CodiceBiancoCondensed"
         id="path11779"
         inkscape:connector-curvature="0" />
    </g>
    <path
       id="path11444"
       d="m 1946.5962,-13.036123 c 0,6.6548 -5.3948,12.0498 -12.0498,12.0498 -6.6548,0 -12.0497,-5.395 -12.0497,-12.0498 0,-6.6547 5.3949,-12.0498 12.0497,-12.0498 6.655,0 12.0498,5.3951 12.0498,12.0498 z"
       style="font-size:16.94802094px;font-style:normal;font-weight:normal;line-height:125%;letter-spacing:0px;word-spacing:0px;fill:none;stroke:#000000;stroke-width:0.90037251;stroke-linecap:butt;stroke-linejoin:miter;stroke-miterlimit:4;stroke-opacity:1;stroke-dashoffset:0;font-family:Sans"
       inkscape:connector-curvature="0" />
    <path
       id="path11446"
       d="m 1944.3723,-13.036823 c 0,5.3957 -4.399,9.77 -9.8259,9.77 -5.4265,0 -9.8257,-4.3743 -9.8257,-9.77 0,-5.3964 4.3992,-9.7709 9.8257,-9.7709 5.4269,0 9.8259,4.3745 9.8259,9.7709 z"
       style="font-size:16.94802094px;font-style:normal;font-weight:normal;line-height:125%;letter-spacing:0px;word-spacing:0px;fill:none;stroke:#000000;stroke-width:0.90037251;stroke-linecap:butt;stroke-linejoin:miter;stroke-miterlimit:4;stroke-opacity:1;stroke-dashoffset:0;font-family:Sans"
       inkscape:connector-curvature="0" />
    <path
       id="path11448"
       d="m 1942.1148,-13.065823 c 0,4.1397 -3.3754,7.496 -7.539,7.496 -4.1637,0 -7.5391,-3.3563 -7.5391,-7.496 0,-4.1407 3.3754,-7.497 7.5391,-7.497 4.1636,0 7.539,3.3563 7.539,7.497 z"
       style="font-size:16.94802094px;font-style:normal;font-weight:normal;line-height:125%;letter-spacing:0px;word-spacing:0px;fill:none;stroke:#000000;stroke-width:0.90037251;stroke-linecap:butt;stroke-linejoin:miter;stroke-miterlimit:4;stroke-opacity:1;stroke-dashoffset:0;font-family:Sans"
       inkscape:connector-curvature="0" />
    <path
       id="path11450"
       d="m 1938.8328,-13.308323 c 0,2.3377 -1.9061,4.2326 -4.257,4.2326 -2.351,0 -4.2567,-1.8949 -4.2567,-4.2326 0,-2.3375 1.9057,-4.2327 4.2567,-4.2327 2.3509,0 4.257,1.8952 4.257,4.2327 z"
       style="font-size:16.94802094px;font-style:normal;font-weight:normal;line-height:125%;letter-spacing:0px;word-spacing:0px;fill:#000000;fill-opacity:1;stroke:none;font-family:Sans"
       inkscape:connector-curvature="0" />
    <path
       sodipodi:nodetypes="ccccccc"
       inkscape:connector-curvature="0"
       id="path11454"
       d="m 2069.5896,614.40188 0,10.0625 -1277.65734,0 -4.53087,113.65328 1509.07351,0.80413 -3.6353,-124.51991 z"
       style="fill:#646464;fill-opacity:1;stroke:none" />
    <rect
       style="fill:#646464;fill-opacity:1;stroke:#646464;stroke-width:10;stroke-miterlimit:4;stroke-opacity:1;stroke-dasharray:none"
       id="rect11456"
       width="11.625"
       height="13.875"
       x="1682.1678"
       y="612.54224" />
    <rect
       y="612.54224"
       x="1307.1677"
       height="13.875"
       width="11.625"
       id="rect11458"
       style="fill:#646464;fill-opacity:1;stroke:#646464;stroke-width:10;stroke-miterlimit:4;stroke-opacity:1;stroke-dasharray:none" />
    <path
       style="fill:none;stroke:#000000;stroke-width:5;stroke-linecap:butt;stroke-linejoin:miter;stroke-miterlimit:4;stroke-opacity:1;stroke-dasharray:10, 10;stroke-dashoffset:0"
       d="m 1125.5467,135.60084 0,475.85107"
       id="path11462"
       inkscape:connector-curvature="0"
       sodipodi:nodetypes="cc" />
    <rect
       style="fill:#646464;fill-opacity:1;stroke:#646464;stroke-width:10;stroke-miterlimit:4;stroke-opacity:1;stroke-dasharray:none"
       id="rect11468"
       width="151.63239"
       height="13.875"
       x="792.16034"
       y="612.54224" />
    <path
       sodipodi:nodetypes="cc"
       inkscape:connector-curvature="0"
       id="path11516"
       d="m 1875.5465,135.60084 0,475.85107"
       style="fill:none;stroke:#000000;stroke-width:5;stroke-linecap:butt;stroke-linejoin:miter;stroke-miterlimit:4;stroke-opacity:1;stroke-dasharray:10, 10;stroke-dashoffset:0" />
    <path
       sodipodi:nodetypes="cc"
       inkscape:connector-curvature="0"
       id="path11518"
       d="m 1500.5466,135.60084 0,475.85107"
       style="fill:none;stroke:#000000;stroke-width:5;stroke-linecap:butt;stroke-linejoin:miter;stroke-miterlimit:4;stroke-opacity:1;stroke-dasharray:10, 10;stroke-dashoffset:0" />
  </g>
</svg>
