<?xml version="1.0" encoding="UTF-8" standalone="no"?>
<!-- Created with Inkscape (http://www.inkscape.org/) -->
<svg
   xmlns:dc="http://purl.org/dc/elements/1.1/"
   xmlns:cc="http://creativecommons.org/ns#"
   xmlns:rdf="http://www.w3.org/1999/02/22-rdf-syntax-ns#"
   xmlns:svg="http://www.w3.org/2000/svg"
   xmlns="http://www.w3.org/2000/svg"
   xmlns:sodipodi="http://sodipodi.sourceforge.net/DTD/sodipodi-0.dtd"
   xmlns:inkscape="http://www.inkscape.org/namespaces/inkscape"
   version="1.1"
   width="200"
   height="200"
   id="svg2"
   inkscape:version="0.46"
   sodipodi:docname="Italian_traffic_signs_-_icona_auto.svg"
   sodipodi:version="0.32"
   inkscape:output_extension="org.inkscape.output.svg.inkscape">
  <metadata
     id="metadata4741">
    <rdf:RDF>
      <cc:Work
         rdf:about="">
        <dc:format>image/svg+xml</dc:format>
        <dc:type
           rdf:resource="http://purl.org/dc/dcmitype/StillImage" />
        <dc:title />
      </cc:Work>
    </rdf:RDF>
  </metadata>
  <sodipodi:namedview
     pagecolor="#ffffff"
     bordercolor="#666666"
     borderopacity="1"
     objecttolerance="10"
     gridtolerance="10"
     guidetolerance="10"
     inkscape:pageopacity="0"
     inkscape:pageshadow="2"
     inkscape:window-width="1024"
     inkscape:window-height="746"
     id="namedview4739"
     showgrid="false"
     inkscape:zoom="2.8163281"
     inkscape:cx="111.43787"
     inkscape:cy="109.15329"
     inkscape:window-x="0"
     inkscape:window-y="0"
     inkscape:window-maximized="1"
     inkscape:current-layer="svg2" />
  <defs
     id="defs4">
    <inkscape:perspective
       sodipodi:type="inkscape:persp3d"
       inkscape:vp_x="0 : 100 : 1"
       inkscape:vp_y="0 : 1000 : 0"
       inkscape:vp_z="200 : 100 : 1"
       inkscape:persp3d-origin="100 : 66.666667 : 1"
       id="perspective4743" />
    <inkscape:perspective
       id="perspective4815"
       inkscape:persp3d-origin="0.5 : 0.33333333 : 1"
       inkscape:vp_z="1 : 0.5 : 1"
       inkscape:vp_y="0 : 1000 : 0"
       inkscape:vp_x="0 : 0.5 : 1"
       sodipodi:type="inkscape:persp3d" />
    <inkscape:perspective
       id="perspective4944"
       inkscape:persp3d-origin="0.5 : 0.33333333 : 1"
       inkscape:vp_z="1 : 0.5 : 1"
       inkscape:vp_y="0 : 1000 : 0"
       inkscape:vp_x="0 : 0.5 : 1"
       sodipodi:type="inkscape:persp3d" />
    <inkscape:perspective
       id="perspective4975"
       inkscape:persp3d-origin="0.5 : 0.33333333 : 1"
       inkscape:vp_z="1 : 0.5 : 1"
       inkscape:vp_y="0 : 1000 : 0"
       inkscape:vp_x="0 : 0.5 : 1"
       sodipodi:type="inkscape:persp3d" />
    <inkscape:perspective
       id="perspective5507"
       inkscape:persp3d-origin="0.5 : 0.33333333 : 1"
       inkscape:vp_z="1 : 0.5 : 1"
       inkscape:vp_y="0 : 1000 : 0"
       inkscape:vp_x="0 : 0.5 : 1"
       sodipodi:type="inkscape:persp3d" />
    <inkscape:perspective
       id="perspective2959"
       inkscape:persp3d-origin="0.5 : 0.33333333 : 1"
       inkscape:vp_z="1 : 0.5 : 1"
       inkscape:vp_y="0 : 1000 : 0"
       inkscape:vp_x="0 : 0.5 : 1"
       sodipodi:type="inkscape:persp3d" />
    <inkscape:perspective
       id="perspective5530"
       inkscape:persp3d-origin="0.5 : 0.33333333 : 1"
       inkscape:vp_z="1 : 0.5 : 1"
       inkscape:vp_y="0 : 1000 : 0"
       inkscape:vp_x="0 : 0.5 : 1"
       sodipodi:type="inkscape:persp3d" />
    <inkscape:perspective
       id="perspective2832"
       inkscape:persp3d-origin="0.5 : 0.33333333 : 1"
       inkscape:vp_z="1 : 0.5 : 1"
       inkscape:vp_y="0 : 1000 : 0"
       inkscape:vp_x="0 : 0.5 : 1"
       sodipodi:type="inkscape:persp3d" />
    <inkscape:perspective
       id="perspective5569"
       inkscape:persp3d-origin="0.5 : 0.33333333 : 1"
       inkscape:vp_z="1 : 0.5 : 1"
       inkscape:vp_y="0 : 1000 : 0"
       inkscape:vp_x="0 : 0.5 : 1"
       sodipodi:type="inkscape:persp3d" />
    <inkscape:perspective
       id="perspective2972"
       inkscape:persp3d-origin="0.5 : 0.33333333 : 1"
       inkscape:vp_z="1 : 0.5 : 1"
       inkscape:vp_y="0 : 1000 : 0"
       inkscape:vp_x="0 : 0.5 : 1"
       sodipodi:type="inkscape:persp3d" />
    <inkscape:perspective
       id="perspective2992"
       inkscape:persp3d-origin="0.5 : 0.33333333 : 1"
       inkscape:vp_z="1 : 0.5 : 1"
       inkscape:vp_y="0 : 1000 : 0"
       inkscape:vp_x="0 : 0.5 : 1"
       sodipodi:type="inkscape:persp3d" />
    <inkscape:perspective
       id="perspective5611"
       inkscape:persp3d-origin="0.5 : 0.33333333 : 1"
       inkscape:vp_z="1 : 0.5 : 1"
       inkscape:vp_y="0 : 1000 : 0"
       inkscape:vp_x="0 : 0.5 : 1"
       sodipodi:type="inkscape:persp3d" />
    <inkscape:perspective
       id="perspective2886"
       inkscape:persp3d-origin="0.5 : 0.33333333 : 1"
       inkscape:vp_z="1 : 0.5 : 1"
       inkscape:vp_y="0 : 1000 : 0"
       inkscape:vp_x="0 : 0.5 : 1"
       sodipodi:type="inkscape:persp3d" />
    <inkscape:perspective
       id="perspective2899"
       inkscape:persp3d-origin="0.5 : 0.33333333 : 1"
       inkscape:vp_z="1 : 0.5 : 1"
       inkscape:vp_y="0 : 1000 : 0"
       inkscape:vp_x="0 : 0.5 : 1"
       sodipodi:type="inkscape:persp3d" />
  </defs>
  <rect
     style="fill:#ffffff;fill-opacity:1;stroke:none"
     id="rect2881"
     width="200.9709"
     height="200.61583"
     x="-0.35507512"
     y="0.27185082"
     rx="0"
     ry="0" />
  <rect
     style="fill:none;fill-opacity:1;stroke:#000000;stroke-width:3;stroke-miterlimit:4;stroke-dasharray:none;stroke-opacity:1"
     id="rect4614"
     y="3.5722976"
     x="3.5890508"
     ry="18.580454"
     height="194.80614"
     width="194.80612"
     rx="18.580454" />
  <g
     id="g2895"
     transform="matrix(2.5593238,-0.64281106,0.64281106,2.5593238,-350.24662,-97.106133)">
    <g
       id="g2900"
       transform="matrix(0.96923172,0.24615011,-0.24615011,0.96923172,286.85529,23.444093)">
      <path
         style="fill:#000000;fill-opacity:1;fill-rule:evenodd;stroke:none"
         d="m -120.48365,111.53462 c 0.22778,0.44007 0.20035,1.01899 0.40434,1.47265 l -6.83599,6.46643 -2.07662,0.001 7.71953,-7.2544 0.78874,-0.68568 z m 13.76044,8.56163 c 0.0235,0.0528 -0.86921,5.11525 -0.83061,5.03386 l -22.43046,0.0413 c -0.42429,7.8e-4 -0.84463,-0.15741 -1.28737,-0.15715 -0.44273,6.3e-4 -0.87457,0.0597 -1.2872,0.1586 l -10.95398,0.006 -0.002,-3.67968 14.91214,-1.4657 9.94603,-0.006 0,0 11.93345,0.0688 0,-3e-5 z m -24.54812,5.92558 c 2.48835,-10e-4 4.50662,2.02672 4.50801,4.51507 10e-4,2.48836 -2.01457,4.50661 -4.50293,4.50801 -2.48835,0.001 -4.5066,-2.01456 -4.50801,-4.50292 -0.001,-2.48836 2.01457,-4.51876 4.50293,-4.52016 z m 12.97013,0.39344 c -0.10816,1.72632 -0.38287,3.41578 -0.79866,5.04026 l -6.74,0.004 c 0.0514,-0.30285 0.0846,-0.61771 0.0845,-0.93514 -0.001,-1.63508 -0.71644,-3.09375 -1.84822,-4.10368 l 9.30239,-0.005 -10e-6,-4.4e-4 z m -16.63744,0.009 c -1.13063,1.0112 -1.84451,2.48283 -1.84358,4.11791 1e-5,0.18619 0.006,0.36499 0.0247,0.54647 l -4.37205,-0.30115 -2.12768,-4.35854 8.3187,-0.005 -1e-5,0 -8e-5,3.1e-4 z m 3.6687,2.07458 c -1.12199,9.8e-4 -2.02757,0.91936 -2.02692,2.04137 9.9e-4,1.12197 0.90723,2.02755 2.02921,2.02691 1.12199,-9.8e-4 2.02756,-0.90722 2.02694,-2.02922 -9.9e-4,-1.12199 -0.90724,-2.03969 -2.02923,-2.03906 z"
         id="path1909"
         sodipodi:nodetypes="ccccccccsccccccccccscscccsccccccccccsccsscc" />
      <path
         sodipodi:nodetypes="ccccccccccsccscccscscccccccsccccccsccsscccsccc"
         id="path2877"
         d="m -101.99872,111.50983 7.673479,8.06485 -6.622789,0.003 -3.12108,-6.13996 -16.63209,4.5e-4 c 0.30408,-0.66029 -0.12234,-1.29674 0.23225,-1.92702 l 18.47023,-8.3e-4 0,-4.9e-4 z m 18.523035,8.57851 1.278234,4.80405 -0.06009,0.28902 -13.9079,0.005 c -0.41151,-0.0988 -0.834754,-0.15622 -1.276447,-0.15606 -0.439021,8e-5 -0.855633,0.15962 -1.276336,0.15702 l -10.615096,-0.0656 c -0.003,-0.16117 1.66813,-0.25125 1.66813,-0.41307 -5.5e-4,-1.57377 0.14916,-3.11181 0.40768,-4.61203 l 23.781873,-0.009 -8e-6,1e-5 -4e-5,6.4e-4 0,2e-5 z m -13.965833,5.94176 c 2.46734,-9.8e-4 4.468151,2.0104 4.469096,4.47772 9.39e-4,2.46733 -1.998361,4.46816 -4.465679,4.46909 -2.467339,9.9e-4 -4.468149,-1.99835 -4.469069,-4.46566 -9.9e-4,-2.46734 1.998335,-4.48022 4.465652,-4.48115 z m 14.907491,0.39168 -0.961673,4.32324 -8.561231,0.67759 c 0.05099,-0.30028 0.08407,-0.61247 0.08395,-0.92723 -6.15e-4,-1.62124 -0.709824,-3.06773 -1.831851,-4.0693 l 11.270807,-0.004 -2e-6,-3e-4 z m -18.555913,0.007 c -1.11898,1.00233 -1.82934,2.4634 -1.82873,4.08274 3.1e-4,0.31477 0.0454,0.61488 0.0967,0.91512 l -17.49695,0.0363 c -0.0366,0.07 0.12323,-5.06562 0.1979,-5.0655 l 19.03116,0.0323 -8e-5,-9.4e-4 0,-4e-5 z m 3.649367,2.0577 c -1.112502,3.9e-4 -2.010583,0.91122 -2.010158,2.02372 4.28e-4,1.11252 0.899192,2.01059 2.011687,2.01018 1.112511,-3.9e-4 2.010587,-0.8992 2.01016,-2.01171 -4.19e-4,-1.11249 -0.899197,-2.02261 -2.011689,-2.02219 z"
         style="fill:#000000;fill-opacity:1;fill-rule:evenodd;stroke:none" />
      <path
         style="fill:none;stroke:#000000;stroke-width:0.82166243px;stroke-linecap:butt;stroke-linejoin:miter;stroke-opacity:1"
         d="m -112.34013,119.59736 -0.0474,-6.14143"
         id="path2893" />
    </g>
  </g>
</svg>
