<?xml version="1.0" encoding="UTF-8" standalone="no"?>
<!-- Created with Inkscape (http://www.inkscape.org/) -->

<svg
   width="529.16669mm"
   height="529.16669mm"
   viewBox="0 0 529.16669 529.16669"
   version="1.1"
   id="svg40432"
   inkscape:version="1.2.1 (9c6d41e410, 2022-07-14)"
   sodipodi:docname="Segnale stradale italiano - preavviso di deviazione (figura II 406).svg"
   xmlns:inkscape="http://www.inkscape.org/namespaces/inkscape"
   xmlns:sodipodi="http://sodipodi.sourceforge.net/DTD/sodipodi-0.dtd"
   xmlns="http://www.w3.org/2000/svg"
   xmlns:svg="http://www.w3.org/2000/svg">
  <sodipodi:namedview
     id="namedview40434"
     pagecolor="#ffffff"
     bordercolor="#000000"
     borderopacity="0.25"
     inkscape:showpageshadow="2"
     inkscape:pageopacity="0.0"
     inkscape:pagecheckerboard="0"
     inkscape:deskcolor="#d1d1d1"
     inkscape:document-units="mm"
     showgrid="false"
     inkscape:zoom="0.13480463"
     inkscape:cx="1019.9946"
     inkscape:cy="930.97692"
     inkscape:window-width="1920"
     inkscape:window-height="991"
     inkscape:window-x="-9"
     inkscape:window-y="-9"
     inkscape:window-maximized="1"
     inkscape:current-layer="layer1" />
  <defs
     id="defs40429" />
  <g
     inkscape:label="Livello 1"
     inkscape:groupmode="layer"
     id="layer1"
     transform="translate(162.22937,136.5541)">
    <g
       id="g8771"
       transform="translate(-3904.0426,-9551.1166)">
      <rect
         style="fill:#f2ef0c;fill-rule:evenodd;stroke-width:34.115;paint-order:markers fill stroke"
         id="rect5882-1"
         width="529.16669"
         height="529.16669"
         x="3741.8132"
         y="9414.5625" />
      <rect
         style="fill:none;fill-rule:evenodd;stroke:#000000;stroke-width:7.9375;paint-order:markers fill stroke"
         id="rect5882-1-1"
         width="513.29169"
         height="513.29169"
         x="3749.7507"
         y="9422.5"
         ry="27.78125"
         rx="27.78125" />
      <g
         id="g8754">
        <path
           id="path4594-1-7-9-0-1-0-3-0-6-1-8-6-3-0-9-6-4-3-0-8"
           style="fill:#000000;stroke-width:179.72;paint-order:fill markers stroke"
           d="m 3864.9078,9568.1584 -53.7324,93.0992 c -3.4677,6.0034 0.9656,8.0519 5.373,6.8709 l 24.3051,-5.98 c 5.547,-1.4806 7.495,-1.5289 7.4658,4.3445 l -6e-4,27.8194 v 0 18.1385 c 0,16.0042 6.484,33.5203 19.3416,49.1254 l 0.1272,0.1529 51.0734,59.0661 0.4132,0.4164 c 13.3931,13.4394 11.0597,12.2966 11.0597,28.5592 v 56.085 h 7.56 v 0 h 27.5693 v -99.8161 c 0,-9.0312 3.5145,-17.1362 9.0658,-24.8168 l 11.7585,-13.9955 c 2.4836,-2.9562 3.43,-2.121 5.5924,0.9708 l 9.7011,13.2821 c 1.717,2.4647 4.8138,3.2982 5.6072,-1.1862 l 12.3167,-69.5493 -66.381,24.1259 c -4.2822,1.5544 -2.9174,4.4589 -0.2018,5.7277 l 14.7543,7.2646 c 3.4167,1.5995 4.4169,2.3987 1.9198,5.3412 l -11.759,13.9956 c -7.3943,8.5464 -13.6077,19.0203 -15.9564,29.4903 l -48.6308,-56.2379 c -7.7318,-9.3992 -11.7524,-23.1385 -11.7524,-28.0027 v -18.1391 -6e-4 -27.8193 c 0,-5.8761 1.9205,-5.8298 7.4671,-4.3446 l 24.3068,5.98 c 4.4137,1.1909 8.8381,-0.8688 5.3724,-6.8709 z" />
        <g
           id="g8740">
          <path
             d="m 3812.5444,9492.1252 v 27.1004 h -10.5375 v -43.9383 h 11.0602 l 19.0941,27.7606 v -27.7606 h 9.7946 v 43.9383 h -10.7576 z"
             style="fill-rule:evenodd;stroke-width:49.5417;paint-order:markers fill stroke"
             id="path8688" />
          <path
             d="m 3865.9197,9510.9442 q 3.0814,-0.055 4.6497,-2.091 1.5957,-2.036 1.5957,-5.3376 0,-1.5407 -0.4127,-2.8888 -0.3852,-1.3482 -1.1555,-2.3937 -0.7429,-1.0455 -1.9259,-1.6232 -1.1831,-0.6053 -2.7513,-0.6053 -1.6508,0 -2.8064,0.6328 -1.1555,0.6053 -1.8984,1.6233 -0.7153,1.0179 -1.0455,2.3661 -0.3301,1.3481 -0.3301,2.8888 0,1.5133 0.3301,2.8614 0.3302,1.3481 1.0455,2.3661 0.7429,1.018 1.8984,1.6233 1.1556,0.5778 2.8064,0.5778 z m 0.2201,8.9692 q -3.4392,-0.1376 -6.273,-1.3756 -2.8063,-1.2381 -4.8148,-3.3841 -1.9809,-2.1736 -3.0814,-5.0624 -1.1006,-2.9164 -1.1006,-6.3005 0,-3.4942 1.018,-6.4381 1.018,-2.9714 2.9439,-5.0899 1.9534,-2.1185 4.7598,-3.3016 2.8338,-1.183 6.383,-1.183 3.3841,0 6.2179,1.2381 2.8614,1.2381 4.8698,3.4116 2.036,2.1735 3.164,5.1174 1.1281,2.9164 1.1281,6.3555 0,3.2741 -1.1556,6.218 -1.1555,2.9164 -3.1915,5.1174 -2.0084,2.1735 -4.8148,3.4666 -2.7788,1.2656 -6.0528,1.2106 z"
             style="fill-rule:evenodd;stroke-width:49.5417;paint-order:markers fill stroke"
             id="path8690" />
          <path
             d="m 3906.694,9497.6003 q -0.6603,-0.055 -1.4582,-0.11 -0.7979,-0.083 -1.6233,0 -0.7979,0.055 -1.5957,0.1926 -0.7979,0.1375 -1.3482,0.4127 -0.3301,0.1651 -0.9629,0.4677 -0.6053,0.2751 -1.2381,0.963 -0.6053,0.6603 -1.073,1.7883 -0.4402,1.128 -0.4402,2.9714 v 14.9396 h -9.7396 l -0.083,-30.9797 h 9.8222 v 1.8434 q 1.018,-0.6053 1.4031,-0.8529 0.3852,-0.2752 1.073,-0.6053 1.1281,-0.4952 2.2836,-0.6603 1.1556,-0.1926 2.091,-0.1651 0.963,0.027 1.7333,0.1926 0.7704,0.1376 1.1556,0.1926 z"
             style="fill-rule:evenodd;stroke-width:49.5417;paint-order:markers fill stroke"
             id="path8692" />
          <path
             d="m 3931.2631,9475.2873 h 9.8497 v 43.9383 h -8.8317 l -0.7979,-1.8709 q -1.128,0.963 -2.9989,1.7883 -1.8434,0.8254 -3.8243,0.7704 -3.5492,-0.055 -6.3555,-1.4857 -2.7788,-1.4582 -4.6772,-3.8243 -1.8709,-2.3661 -2.8889,-5.3375 -1.018,-2.999 -1.018,-6.218 0,-3.219 1.018,-6.1629 1.018,-2.9714 2.8889,-5.2 1.8984,-2.256 4.6222,-3.5767 2.7513,-1.3481 6.1354,-1.3481 0.9079,0 1.8984,0.1926 1.0179,0.1651 1.9534,0.4677 0.9354,0.3027 1.7058,0.6878 0.7979,0.3577 1.3206,0.7429 z m -5.8603,20.112 q -2.8888,0.055 -4.5121,1.8984 -1.6233,1.8159 -1.6233,4.5672 0,1.8158 0.1926,3.4116 0.1926,1.5957 0.8254,2.8613 0.6603,1.2381 1.8709,1.981 1.2106,0.7153 3.2465,0.8254 1.0731,0.055 2.036,-0.2752 0.9905,-0.3576 1.7884,-1.018 0.7978,-0.6878 1.3206,-1.5957 0.5502,-0.9355 0.7153,-2.0085 v -5.9703 q 0,-0.9629 -0.5778,-1.8709 -0.5502,-0.9079 -1.4031,-1.5682 -0.8529,-0.6878 -1.8984,-1.018 -1.018,-0.3302 -1.981,-0.2201 z"
             style="fill-rule:evenodd;stroke-width:49.5417;paint-order:markers fill stroke"
             id="path8694" />
        </g>
        <rect
           style="fill:#27884d;fill-rule:evenodd;stroke-width:33.2837;paint-order:markers fill stroke"
           id="rect6668-0"
           width="244.73958"
           height="75.40625"
           x="3992.8997"
           y="9611.8154" />
        <g
           id="g8734">
          <path
             d="m 4057.3273,9661.7347 q -2.5039,0 -4.3695,-1.1292 -1.8165,-1.1292 -3.0439,-2.8966 -1.1783,-1.7674 -1.8166,-3.9276 -0.5891,-2.2093 -0.5891,-4.3695 0,-2.4057 0.54,-4.615 0.5892,-2.2584 1.7675,-3.9768 1.1783,-1.7674 3.0439,-2.7984 1.8656,-1.0801 4.4677,-1.0801 2.6512,0 4.5659,1.031 1.9147,0.9819 3.1421,2.7002 1.2765,1.7184 1.8657,3.9768 0.5891,2.2584 0.5891,4.7623 0,2.2583 -0.54,4.4677 -0.5401,2.2093 -1.7675,3.9767 -1.1783,1.7183 -3.1421,2.7984 -1.9147,1.0801 -4.7132,1.0801 z m 0,7.9044 q 4.0749,0 7.5116,-1.6692 3.4367,-1.6693 5.8915,-4.4677 2.5039,-2.7985 3.8786,-6.4315 1.4237,-3.6822 1.4237,-7.6589 0,-3.9277 -1.3255,-7.5117 -1.3256,-3.633 -3.7804,-6.3824 -2.4057,-2.7985 -5.8915,-4.4677 -3.4367,-1.6693 -7.708,-1.6693 -3.9767,0 -7.3643,1.522 -3.3385,1.4729 -5.7933,4.1731 -2.4057,2.7003 -3.7804,6.3825 -1.3256,3.6821 -1.3256,8.0025 0,3.9277 1.1783,7.5608 1.2274,3.633 3.5349,6.4315 2.3075,2.7984 5.6951,4.5168 3.4367,1.6692 7.8553,1.6692 z"
             style="fill:#ffffff;fill-rule:evenodd;stroke-width:28.9089;paint-order:markers fill stroke"
             id="path8705" />
          <path
             d="m 4084.919,9630.3627 v 38.2945 h 7.3644 v -15.3178 h 5.5969 l 9.1809,15.3178 h 8.248 l -9.5245,-15.9069 q 4.0749,-1.6202 5.9896,-4.4187 1.9639,-2.8475 1.9639,-6.6279 0.049,-2.7002 -0.9329,-4.8113 -0.9819,-2.1111 -2.7493,-3.5349 -1.7675,-1.4729 -4.1731,-2.2093 -2.4057,-0.7855 -5.2533,-0.7855 z m 7.3644,6.7752 h 7.4625 q 3.1912,0 4.5168,1.2764 1.3256,1.2274 1.3747,3.2894 0.049,2.3075 -1.4729,3.6822 -1.4729,1.3256 -3.9276,1.3256 h -7.9535 z"
             style="fill:#ffffff;fill-rule:evenodd;stroke-width:28.9089;paint-order:markers fill stroke"
             id="path8707" />
          <path
             d="m 4119.4823,9630.3627 v 7.1188 h 11.6357 v 31.1757 h 7.708 v -31.1757 h 11.3411 v -7.1188 z"
             style="fill:#ffffff;fill-rule:evenodd;stroke-width:28.9089;paint-order:markers fill stroke"
             id="path8709" />
          <path
             d="m 4157.4332,9668.6572 h 27.3463 v -7.4134 h -19.9328 v -8.8372 h 16.1524 v -6.8734 h -16.1524 v -8.3953 h 18.1162 v -6.7752 h -25.5297 z"
             style="fill:#ffffff;fill-rule:evenodd;stroke-width:28.9089;paint-order:markers fill stroke"
             id="path8711" />
        </g>
      </g>
    </g>
  </g>
</svg>
