<?xml version="1.0" encoding="UTF-8" standalone="no"?>
<!-- Created with Inkscape (http://www.inkscape.org/) -->
<svg
   xmlns:dc="http://purl.org/dc/elements/1.1/"
   xmlns:cc="http://creativecommons.org/ns#"
   xmlns:rdf="http://www.w3.org/1999/02/22-rdf-syntax-ns#"
   xmlns:svg="http://www.w3.org/2000/svg"
   xmlns="http://www.w3.org/2000/svg"
   xmlns:sodipodi="http://sodipodi.sourceforge.net/DTD/sodipodi-0.dtd"
   xmlns:inkscape="http://www.inkscape.org/namespaces/inkscape"
   version="1.1"
   width="200"
   height="200"
   id="svg2"
   sodipodi:version="0.32"
   inkscape:version="0.46"
   sodipodi:docname="Italian_traffic_signs_-_icona_ambulatorio.svg"
   inkscape:output_extension="org.inkscape.output.svg.inkscape">
  <metadata
     id="metadata3882">
    <rdf:RDF>
      <cc:Work
         rdf:about="">
        <dc:format>image/svg+xml</dc:format>
        <dc:type
           rdf:resource="http://purl.org/dc/dcmitype/StillImage" />
      </cc:Work>
    </rdf:RDF>
  </metadata>
  <sodipodi:namedview
     inkscape:window-height="708"
     inkscape:window-width="1024"
     inkscape:pageshadow="2"
     inkscape:pageopacity="0.0"
     guidetolerance="10.0"
     gridtolerance="10.0"
     objecttolerance="10.0"
     borderopacity="1.0"
     bordercolor="#666666"
     pagecolor="#ffffff"
     id="base"
     showgrid="false"
     inkscape:zoom="2.31"
     inkscape:cx="100"
     inkscape:cy="100"
     inkscape:window-x="-4"
     inkscape:window-y="-4"
     inkscape:current-layer="svg2" />
  <defs
     id="defs4">
    <inkscape:perspective
       sodipodi:type="inkscape:persp3d"
       inkscape:vp_x="0 : 100 : 1"
       inkscape:vp_y="0 : 1000 : 0"
       inkscape:vp_z="200 : 100 : 1"
       inkscape:persp3d-origin="100 : 66.666667 : 1"
       id="perspective3884" />
  </defs>
  <rect
     style="fill:#ffffff;fill-opacity:1;stroke:none"
     id="rect2881"
     width="200.9709"
     height="200.61583"
     x="-0.052550014"
     y="-0.30791453"
     rx="0"
     ry="0" />
  <rect
     style="fill:none;stroke:#000000;stroke-width:3;stroke-miterlimit:4;stroke-dasharray:none;stroke-opacity:1"
     id="rect4614"
     y="2.8621531"
     x="3.7447071"
     ry="18.580454"
     height="194.80614"
     width="194.80612"
     rx="18.580454" />
  <path
     style="fill:#000000"
     id="path4874"
     d="M 56.64603,178.2301 C 54.55585,177.72139 53.3365,176.84046 52.35421,175.12942 C 51.85211,174.25482 51.60184,163.09756 51.39182,132.22562 L 51.108,90.503805 L 45.16138,100.38201 C 39.14765,110.37168 37.38282,112.35122 34.48619,112.35597 C 32.18268,112.35997 29.3072,110.77043 28.13298,108.84448 C 25.83426,105.07412 26.12926,104.3411 37.23634,86.224678 C 42.8756,77.026645 48.29231,68.668361 49.27347,67.650712 C 50.25463,66.633068 51.89897,65.496134 52.92754,65.124197 C 54.6507,64.501094 54.79769,64.254697 54.79769,61.989344 C 54.79769,58.973713 55.82383,56.408621 58.05397,53.849491 C 59.31995,52.396743 59.81825,51.167622 60.02144,48.996414 C 60.36771,45.296188 62.1676,42.729341 65.42687,41.287607 C 71.28128,38.697924 77.30861,42.805952 77.70665,49.657107 C 77.81097,51.452497 78.27623,52.634234 79.31653,53.746086 C 81.52923,56.110966 82.61224,58.663672 82.61224,61.514243 C 82.61224,63.911766 82.7559,64.159333 84.7409,65.182375 C 88.25203,66.991955 89.98759,69.34275 100.50176,86.530297 C 111.27541,104.14198 111.78405,105.37713 109.62189,108.677 C 108.35644,110.60833 105.42661,112.35332 103.44496,112.35597 C 100.06035,112.36097 98.8231,111.02818 92.45733,100.5242 L 86.30192,90.367343 L 86.0181,132.53765 L 85.73428,174.70796 L 84.35214,176.17893 C 81.34226,179.38224 75.54145,179.23314 72.71991,175.87993 L 71.25936,174.14417 L 71.25936,155.73929 L 71.25936,137.33442 L 68.70496,137.33442 L 66.15057,137.33442 L 66.15057,155.52721 C 66.15057,170.3259 65.99671,174.01754 65.32587,175.3148 C 64.09355,177.69783 60.04548,179.05746 56.64603,178.2301 L 56.64603,178.2301 z M 83.17988,108.70191 C 83.17988,90.95553 83.36518,83.360739 83.80479,83.089047 C 84.81886,82.462317 86.05762,84.19975 93.59987,96.827227 C 101.80732,110.5684 102.30608,111.02565 105.84208,108.0503 C 106.85246,107.20012 107.58857,106.03493 107.58857,105.28577 C 107.58857,104.01183 88.66507,72.375637 86.46549,69.972358 C 85.84554,69.295 84.59518,68.432982 83.6869,68.056759 C 82.17301,67.429683 81.93389,67.501864 80.81565,68.923483 C 77.9677,72.544052 74.2034,74.856485 71.11745,74.881132 C 69.67676,74.892652 69.55643,75.068631 69.55643,77.164173 C 69.55643,79.056318 69.74564,79.434749 70.69172,79.434749 C 71.57472,79.434749 71.827,79.81318 71.827,81.137681 C 71.827,82.823413 71.7954,82.840612 68.70496,82.840612 C 65.61446,82.840612 65.58292,82.823412 65.58292,81.137681 C 65.58292,79.81318 65.83521,79.434749 66.71821,79.434749 C 67.66428,79.434749 67.8535,79.056318 67.8535,77.164173 C 67.8535,75.068631 67.73316,74.892639 66.29248,74.881132 C 63.68302,74.860302 60.27655,72.933824 57.72649,70.036803 L 55.30661,67.287681 L 53.36304,68.334365 C 52.29407,68.910041 51.07062,69.791195 50.64426,70.292481 C 48.69081,72.589219 29.82136,104.37062 29.82136,105.36404 C 29.82136,107.82287 34.29146,110.25292 36.20737,108.83563 C 36.75373,108.43145 40.58533,102.48109 44.72202,95.612599 C 49.16641,88.233223 52.59162,83.124434 53.09476,83.124434 C 53.83673,83.124434 53.96522,86.390986 54.09398,108.52649 L 54.24173,133.92856 L 68.71081,133.92856 L 83.17988,133.92856 L 83.17988,108.70191 L 83.17988,108.70191 z M 74.69188,70.269259 C 76.73777,69.119411 79.04077,66.591761 78.51844,66.069432 C 77.89716,65.448157 71.19265,64.108364 68.70496,64.108364 C 66.08241,64.108364 59.50104,65.459879 58.82332,66.137606 C 58.25734,66.703575 62.61547,70.443707 64.77346,71.244011 C 67.65164,72.311392 71.78034,71.90564 74.69188,70.269259 L 74.69188,70.269259 z M 61.60941,62.121623 C 65.60916,61.048043 71.1321,61.056217 75.74065,62.142573 C 77.73706,62.613166 79.49194,62.876741 79.64039,62.72829 C 80.19564,62.173038 79.13415,58.49323 78.00444,57.057034 L 76.83234,55.566952 L 74.90673,57.257662 C 71.94009,59.862404 69.04223,60.526303 65.89153,59.323046 C 64.47969,58.783858 62.82118,57.702774 62.20595,56.920629 C 61.57445,56.117816 60.8045,55.673368 60.43781,55.899989 C 59.61659,56.40753 57.66492,60.661312 57.64837,61.979716 C 57.63337,63.175804 57.67627,63.177336 61.60941,62.121627 L 61.60941,62.121623 z M 125.95582,177.64191 C 124.10085,176.89334 122.9149,174.79409 122.91543,172.26012 C 122.91599,169.59149 125.57957,142.8973 126.07462,140.59908 C 126.76476,137.39512 127.15695,137.33442 147.16613,137.33442 C 161.86317,137.33442 165.48825,137.48108 165.48825,138.07567 C 165.48825,140.00595 163.00273,145.8426 161.61425,147.17285 L 160.05887,148.663 L 148.44452,148.81706 L 136.83018,148.97112 L 135.29524,162.02693 L 133.7603,175.08274 L 132.01836,176.64376 C 130.23704,178.24006 128.2491,178.56737 125.95582,177.64191 L 125.95582,177.64191 z M 113.94618,146.87084 C 113.57154,146.49619 113.26501,145.57648 113.26501,144.82704 C 113.26501,143.10873 119.53312,129.95219 120.87566,128.85253 C 121.4254,128.40224 123.35952,127.92646 125.17369,127.79524 L 128.47219,127.55665 L 129.03013,130.03304 C 129.33699,131.39507 129.7743,132.95647 130.00193,133.50282 C 130.36762,134.38058 130.04213,134.4962 127.2055,134.4962 L 123.9952,134.4962 L 121.15203,140.58494 C 119.58828,143.93375 118.00417,146.86739 117.63178,147.10416 C 116.60673,147.75586 114.7112,147.63586 113.94618,146.87084 L 113.94618,146.87084 z M 133.90686,133.83229 C 131.29422,132.56723 130.54347,127.26119 132.6061,124.63898 C 133.77996,123.14667 133.80094,123.14332 141.97223,123.14332 C 150.08661,123.14332 150.16187,123.13152 150.16234,121.86612 C 150.16334,118.33017 151.42275,107.75567 152.14119,105.24677 C 153.63295,100.03737 157.70718,97.579361 162.84154,98.791207 C 166.20104,99.584143 169.12913,102.31769 170.10386,105.57103 C 170.71005,107.59432 170.52986,109.51043 168.63538,121.18676 L 166.47593,134.4962 L 150.79761,134.4578 C 141.24164,134.4344 134.64585,134.19013 133.90686,133.83231 L 133.90686,133.83229 z M 118.97048,122.03707 C 116.35068,119.41726 117.37346,118.54003 130.99499,111.72388 C 139.43067,107.50271 143.95439,105.53864 144.97019,105.65626 L 146.47218,105.83018 L 146.63105,113.06764 L 146.78992,120.3051 L 140.24506,120.3051 L 133.70019,120.3051 L 133.70019,118.59699 L 133.70019,116.88889 L 128.16566,119.65706 C 120.7924,123.34491 120.38402,123.45061 118.97048,122.03707 L 118.97048,122.03707 z M 122.91496,66.395901 L 122.91496,59.033486 L 115.6775,58.874619 L 108.44004,58.715747 L 108.28661,46.937137 L 108.13318,35.158526 L 115.52407,35.158526 L 122.91496,35.158526 L 122.91496,27.495334 L 122.91496,19.832142 L 134.26783,19.832142 L 145.62071,19.832142 L 145.62071,27.495334 L 145.62071,35.158526 L 153.0116,35.158526 L 160.40249,35.158526 L 160.24906,46.937137 L 160.09563,58.715747 L 152.85817,58.874619 L 145.62071,59.033486 L 145.62071,66.395901 L 145.62071,73.75831 L 134.26783,73.75831 L 122.91496,73.75831 L 122.91496,66.395901 L 122.91496,66.395901 z" />
  <path
     style="fill:#ff0000;fill-opacity:1;stroke:#ffffff;stroke-width:0.84852815;stroke-linecap:butt;stroke-linejoin:miter;stroke-miterlimit:4;stroke-dasharray:none;stroke-dashoffset:0;stroke-opacity:1"
     id="path4876"
     d="M 122.97379,66.130183 L 122.97379,58.705562 L 115.72595,58.705562 L 108.47811,58.705562 L 108.47811,47.0383 L 108.47811,35.371038 L 115.72595,35.371038 L 122.97379,35.371038 L 122.97379,27.76964 L 122.97379,20.168242 L 134.2875,20.168242 L 145.60121,20.168242 L 145.60121,27.76964 L 145.60121,35.371038 L 152.84906,35.371038 L 160.0969,35.371038 L 160.2219,58.705562 L 152.84906,58.705562 L 145.60121,58.705562 L 145.60121,66.130183 L 145.60121,73.554804 L 134.2875,73.554804 L 122.97379,73.554804 L 122.97379,66.130183 L 122.97379,66.130183 z" />
  <path
     style="fill:#000000;fill-opacity:1;stroke:#000000;stroke-width:2.11419678;stroke-linecap:butt;stroke-linejoin:miter;stroke-miterlimit:4;stroke-dasharray:none;stroke-dashoffset:0;stroke-opacity:1"
     id="path4878"
     d="M 144.56946,97.698919 C 144.57211,100.5821 142.40999,102.9209 139.74197,102.9209 C 137.07396,102.9209 134.91185,100.5821 134.9145,97.698919 C 134.91185,94.815741 137.07396,92.476943 139.74197,92.476943 C 142.40999,92.476943 144.57211,94.815741 144.56946,97.698919 z" />
  <path
     style="fill:#000000;fill-opacity:1;stroke:#000000;stroke-width:2.79926062;stroke-linecap:butt;stroke-linejoin:miter;stroke-miterlimit:4;stroke-dasharray:none;stroke-dashoffset:0;stroke-opacity:1"
     id="path4880"
     d="M 166.77882,88.064591 C 166.78233,91.88201 163.91962,94.978645 160.38708,94.978645 C 156.85456,94.978645 153.99184,91.88201 153.99536,88.064591 C 153.99184,84.247175 156.85456,81.150537 160.38708,81.150537 C 163.91962,81.150537 166.78233,84.247175 166.77882,88.064591 z" />
</svg>
