<?xml version="1.0" encoding="UTF-8" standalone="no"?>
<svg xmlns="http://www.w3.org/2000/svg" width="200" height="200">
  <path fill="#fff" d="M-4.0948311-3.438081H203.62055V203.91031H-4.0948311V-3.438081z"/>
  <path d="M49.740212 172.19733c-1.266905-.45159-3.016097-1.61344-3.887094-2.58187-1.296723-1.4418-1.583631-2.30068-1.583631-4.7407 0-1.70143 3.101682-16.95379 7.229488-35.55063l7.229487-32.570732-1.002839-5.338788c-.551562-2.936334-1.17786-5.26859-1.391773-5.182792-.213913.0858-4.073594 4.251715-8.577071 9.257595-4.53292 5.038607-9.038318 9.507017-10.092644 10.009787-2.569264 1.2252-5.548921.6063-7.768886-1.61367-2.308422-2.30842-2.4584-6.215463-.357432-9.311415 2.965777-4.370314 33.204857-38.927155 35.002617-40.000549 1.044938-.623902 4.000229-1.866037 6.567318-2.760299 4.176478-1.454902 4.857675-1.547131 6.475996-.8768 1.336112.553434 1.954581 1.295276 2.367517 2.839796.307426 1.149866 1.487035 11.419691 2.621358 22.821833l2.0624 20.731168 4.860192 16.700106c2.6731 9.18506 5.254182 17.55539 5.735732 18.60073.481545 1.04535 3.841129 6.92664 7.465733 13.06955 8.65902 14.67512 8.94981 15.27818 8.94531 18.55107-.0105 7.64833-9.369 11.21915-14.511336 5.53694-.538763-.59533-5.082229-8.5904-10.096603-17.76683-9.035824-16.5358-9.13941-16.7665-11.628774-25.89828-1.381451-5.06762-2.66801-9.39459-2.859018-9.6155-.191004-.22091-3.033546 11.18124-6.316759 25.3381-3.283212 14.15686-6.36323 26.41725-6.844475 27.24532-1.775822 3.05558-5.984885 4.41143-9.644813 3.10686zm74.530318-1.97675c-1.11293-1.11292-1.6833-2.26913-1.6833-3.41221 0-.95091 1.68441-9.52209 3.74313-19.04706 2.05872-9.52498 3.74313-17.44808 3.74313-17.60689 0-.15881-1.50597-.28874-3.34659-.28874h-3.34659l3.84904-24.90619c2.11697-13.698411 3.79701-24.969665 3.73343-25.047229-.0636-.07757-3.98239 4.158989-8.70848 9.414577-4.72608 5.255581-9.02936 9.789205-9.56284 10.074714-1.84691.988438-3.98023.552485-5.6969-1.164193-2.38952-2.389515-2.25345-4.579412.4762-7.664308 7.43665-8.404473 25.16132-27.889836 28.59646-31.437111 4.70245-4.85597 6.32048-5.860408 9.44043-5.860408 3.25646 0 4.95693 1.49602 17.97996 15.81825l11.50341 12.650988v7.962387c0 7.686074-.0491 8.011444-1.41349 9.375878-.9759.975905-2.05366 1.413495-3.48137 1.413495-1.42771 0-2.50547-.43759-3.48137-1.413495-1.31474-1.314731-1.41349-1.821141-1.41349-7.248146v-5.834667l-5.02464-5.463452c-2.76355-3.004896-5.09283-5.249943-5.17616-4.988995-.0833.260953 2.93011 12.589232 6.69655 27.396185l6.84807 26.92172h-3.39951c-1.86973 0-3.39951.23348-3.39951.51884 0 .28536 1.68329 8.2539 3.74064 17.70787s3.74176 17.92161 3.74313 18.81696c.004 2.6172-2.79084 4.99453-5.87167 4.99453-2.91179 0-4.64645-1.02737-5.55209-3.28829-.35394-.88361-2.33975-9.51032-4.4129-19.17047-2.07316-9.66015-3.91377-18.0297-4.09024-18.59899-.26788-.86416-.85538-1.00681-3.55777-.8638l-3.23691.17128-4.11402 19.02125c-2.26272 10.46169-4.41864 19.59042-4.79094 20.28607-.92972 1.73721-2.45041 2.44295-5.26388 2.44295-1.86891 0-2.75021-.36458-4.06892-1.6833zM85.432315 91.5942c-.09403-.329701-.849264-8.244078-1.67828-17.5875-.829017-9.343422-1.648543-17.933895-1.821176-19.08994-.293847-1.967832-.14069-2.23413 2.401222-4.175026 3.301715-2.521046 4.993292-2.616962 10.399065-.589649 3.833435 1.437643 6.125784 3.01029 7.146824 4.903013.53227.986693 2.85542 25.305769 2.85542 29.891002 0 2.396223-.24404 2.984344-1.77178 4.269855-.97447.819969-2.07582 1.506033-2.44743 1.524587-.37161.01854-3.879026.353092-7.794268.743425-4.883452.486855-7.172305.521464-7.289597.110233zm47.602155-41.289465c-6.4482-3.191763-8.28569-11.778003-3.68949-17.240266 1.7453-2.074173 5.41727-3.943761 7.78286-3.962653l1.58363-.01265v22.458766l-1.58363-.000455c-.87099-.000249-2.71302-.559483-4.09337-1.242742zm6.62703-4.603925c-.20579-2.899193-.37416-7.717592-.37416-10.707555v-5.436296l3.02329.402353c10.97752 1.460934 19.50213 8.938148 20.42903 17.918978l.31931 3.093779h-23.0233l-.37417-5.271259zm-79.167872 2.982394c-2.822677-2.054289-4.675021-5.525448-4.694178-8.796551l-.01265-2.159497h-3.722866c-3.133493 0-3.820448-.182332-4.339254-1.151732-.437941-.818299-.437941-1.485164 0-2.303463.518417-.968672 1.205761-1.151731 4.324466-1.151731 3.605521 0 3.734241-.05176 4.654026-1.871564C58.926281 26.85023 62.036245 24.8721 66.72825 24.8721c7.061669 0 10.954009 4.62307 10.928804 12.980526-.01549 5.138711-1.298382 8.272804-4.334122 10.588275-1.823611 1.390936-2.818563 1.68606-6.25324 1.854842-3.822026.187817-4.244712.08417-6.576064-1.612539z"/>
  <path fill="none" stroke="#000" stroke-width="2.3" d="M33.673839 107.44102v64.35053"/>
  <path fill="none" stroke="#000" stroke-width="2.99693632" d="M21.88575 2.8220494h156.80231c10.23854 0 18.48111 8.3144236 18.48111 18.6422016V179.63338c0 10.32778-8.24257 18.6422-18.48111 18.6422H21.88575c-10.23853 0-18.4811101-8.31442-18.4811101-18.6422V21.464251c0-10.327778 8.2425801-18.6422016 18.4811101-18.6422016z"/>
</svg>