<?xml version="1.0" encoding="UTF-8" standalone="no"?>
<!-- Created with Inkscape (http://www.inkscape.org/) -->

<svg
   xmlns:dc="http://purl.org/dc/elements/1.1/"
   xmlns:cc="http://creativecommons.org/ns#"
   xmlns:rdf="http://www.w3.org/1999/02/22-rdf-syntax-ns#"
   xmlns:svg="http://www.w3.org/2000/svg"
   xmlns="http://www.w3.org/2000/svg"
   xmlns:sodipodi="http://sodipodi.sourceforge.net/DTD/sodipodi-0.dtd"
   xmlns:inkscape="http://www.inkscape.org/namespaces/inkscape"
   width="1678.5625"
   height="1828.5938"
   id="svg7780"
   version="1.1"
   inkscape:version="0.48.5 r10040"
   sodipodi:docname="Nuovo documento 18">
  <defs
     id="defs7782" />
  <sodipodi:namedview
     id="base"
     pagecolor="#ffffff"
     bordercolor="#666666"
     borderopacity="1.0"
     inkscape:pageopacity="0.0"
     inkscape:pageshadow="2"
     inkscape:zoom="0.12374369"
     inkscape:cx="1160.2876"
     inkscape:cy="537.6789"
     inkscape:document-units="px"
     inkscape:current-layer="layer1"
     showgrid="false"
     inkscape:object-nodes="true"
     inkscape:snap-midpoints="true"
     inkscape:snap-object-midpoints="true"
     fit-margin-top="0"
     fit-margin-left="0"
     fit-margin-right="0"
     fit-margin-bottom="0"
     inkscape:window-width="1366"
     inkscape:window-height="705"
     inkscape:window-x="-8"
     inkscape:window-y="-8"
     inkscape:window-maximized="1" />
  <metadata
     id="metadata7785">
    <rdf:RDF>
      <cc:Work
         rdf:about="">
        <dc:format>image/svg+xml</dc:format>
        <dc:type
           rdf:resource="http://purl.org/dc/dcmitype/StillImage" />
        <dc:title></dc:title>
      </cc:Work>
    </rdf:RDF>
  </metadata>
  <g
     inkscape:label="Livello 1"
     inkscape:groupmode="layer"
     id="layer1"
     transform="translate(1948.5625,1261.9375)">
    <rect
       style="fill:#ffffff;fill-opacity:1;fill-rule:evenodd;stroke:#000000;stroke-width:1;stroke-opacity:1"
       id="rect2996"
       width="1677.5714"
       height="1827.5714"
       x="-1948.0714"
       y="-1261.4235" />
    <rect
       y="-1097.6377"
       x="-1769.2856"
       height="380"
       width="1320"
       id="rect5126-1-7-0"
       style="fill:#08842c;fill-opacity:1;stroke:none" />
    <g
       style="font-size:120.90988159px;font-style:normal;font-weight:normal;line-height:125%;letter-spacing:0px;word-spacing:0px;fill:#ffffff;fill-opacity:1;stroke:none;font-family:Sans"
       id="text6544-9">
      <path
         d="m -1694.497,-1015.0262 c 6.285,10e-5 11.7657,1.2891 16.4421,3.867 5.5618,3.1439 8.3427,7.5373 8.3428,13.18027 l 0,24.06169 c -10e-5,3.22498 0.161,5.20029 0.4833,5.92594 0.7257,2.01469 2.701,3.02203 5.926,3.02201 l -5.8042,13.42008 c -2.0147,-0.0812 -3.8695,-0.32347 -5.5643,-0.7269 -4.1106,-0.96675 -7.2138,-2.73911 -9.3096,-5.31712 -4.4328,4.02936 -10.5986,6.04403 -18.4973,6.04402 -5.4808,10e-6 -10.2567,-1.89413 -14.3278,-5.68241 -4.0712,-3.78826 -6.0662,-8.02054 -5.985,-12.69686 0.1599,-11.44597 7.3736,-18.21688 21.6411,-20.31277 l 14.0252,-2.05527 c 0.2435,-3.14372 -0.5621,-5.36011 -2.4168,-6.64915 -1.6113,-0.9667 -4.2717,-1.45003 -7.9812,-1.45013 -5.8842,10e-5 -11.4461,2.21644 -16.6857,6.64916 l -8.0992,-11.84816 c 7.2542,-6.2875 16.5244,-9.4313 27.8106,-9.4314 z m -5.6861,37.60358 c -4.1918,0.7257 -6.2876,2.78096 -6.2876,6.16578 0,1.77362 0.9274,3.16409 2.7822,4.17141 1.8547,1.00735 4.0318,1.51102 6.5311,1.511 2.5779,2e-5 4.8343,-0.48397 6.769,-1.45197 1.9347,-0.96795 3.0632,-2.33751 3.3855,-4.10867 l 0,-8.46458 z"
         style="font-variant:normal;font-stretch:normal;fill:#ffffff;font-family:CodiceBianco;-inkscape-font-specification:CodiceBianco"
         id="path8415" />
      <path
         d="m -1590.8004,-983.47033 c -10e-5,10.72035 -3.2251,19.02256 -9.6749,24.90667 -5.4807,4.99856 -12.2111,7.49783 -20.191,7.49783 -5.8842,0 -10.9221,-1.41076 -15.1137,-4.23229 l 0,20.79614 -17.4126,0 0,-79.80092 15.2355,0 1.8155,3.509 c 3.5447,-3.3872 8.5826,-5.0809 15.1137,-5.0809 7.8987,0 14.6697,2.4993 20.3128,7.4978 6.6097,5.8842 9.9146,14.18639 9.9147,24.90667 z m -16.8074,0.48337 c -10e-5,-5.88408 -1.572,-10.47797 -4.7157,-13.78169 -2.8216,-2.90265 -6.247,-4.35395 -10.2763,-4.35405 -3.6284,10e-5 -6.7316,1.16851 -9.3095,3.50538 -2.7429,2.5805 -4.1143,5.96658 -4.1143,10.15823 l 0,6.89269 c 0,4.5927 1.5325,8.34038 4.5976,11.24306 2.7403,2.74036 6.0452,4.11054 9.9147,4.11052 3.867,2e-5 7.0501,-1.41074 9.5494,-4.23229 2.9027,-3.22247 4.354,-7.73641 4.3541,-13.54185 z"
         style="font-variant:normal;font-stretch:normal;fill:#ffffff;font-family:CodiceBianco;-inkscape-font-specification:CodiceBianco"
         id="path8417" />
      <path
         d="m -1583.6126,-985.76543 c 0,-9.27139 2.781,-16.88917 8.3428,-22.85327 5.5619,-5.964 12.7768,-8.946 21.6449,-8.9461 8.3021,10e-5 15.3547,2.8204 21.1577,8.4609 6.0464,6.0465 8.9085,13.58371 8.5864,22.61156 -1e-4,1.12914 -0.081,3.34552 -0.2436,6.64916 l -42.8025,0 c 2.0171,7.65775 6.4917,11.4866 13.4237,11.48658 4.3516,2e-5 8.0181,-0.68506 10.9996,-2.05526 1.0478,-0.4034 2.9826,-1.61245 5.8041,-3.62715 l 11.3685,11.48659 c -8.5458,6.52863 -17.9365,9.79294 -28.1722,9.79293 -6.691,10e-6 -12.8174,-2.09584 -18.3792,-6.28755 -7.8201,-5.8841 -11.7302,-14.79023 -11.7302,-26.71839 z m 17.5343,-6.40932 24.9067,0 c -0.3223,-3.30608 -1.6925,-6.00707 -4.1105,-8.10295 -2.4182,-2.0958 -5.1585,-3.1437 -8.2211,-3.1438 -3.7907,1e-4 -6.8951,1.2903 -9.3132,3.87069 -2.1746,2.25825 -3.2619,4.71694 -3.2619,7.37606 z"
         style="font-variant:normal;font-stretch:normal;fill:#ffffff;font-family:CodiceBianco;-inkscape-font-specification:CodiceBianco"
         id="path8419" />
      <path
         d="m -1476.7537,-1015.6313 0,17.53061 c -1.2079,-0.15985 -2.4169,-0.23979 -3.6272,-0.23984 -4.755,5e-5 -8.6638,1.08733 -11.7264,3.26185 -3.3873,2.33942 -5.081,5.52378 -5.081,9.55309 l 0,32.7661 -16.9254,0 0,-61.42171 16.9254,0 0,5.3208 c 5.0797,-4.595 11.0856,-6.8926 18.0177,-6.8927 0.9667,10e-5 1.7723,0.041 2.4169,0.1218 z"
         style="font-variant:normal;font-stretch:normal;fill:#ffffff;font-family:CodiceBianco;-inkscape-font-specification:CodiceBianco"
         id="path8421" />
      <path
         d="m -1444.995,-1014.9044 15.8407,0 0,14.3868 -15.8407,0 0,26.35683 c 0,4.59515 2.5792,6.89271 7.7377,6.89269 2.177,2e-5 4.434,-0.36282 6.7709,-1.08852 l 3.2656,14.26876 c -5.3184,1.7736 -10.6786,2.6604 -16.0805,2.6604 -12.8162,0 -19.2243,-5.28021 -19.2243,-15.84064 l 0,-33.24952 -9.9147,0 0,-14.3868 9.9147,0 0,-18.0177 17.5306,-4.9555 z"
         style="font-variant:normal;font-stretch:normal;fill:#ffffff;font-family:CodiceBianco;-inkscape-font-specification:CodiceBianco"
         id="path8423" />
      <path
         d="m -1389.8276,-1016.2364 c 8.9467,0 16.2815,3.0632 22.0046,9.1896 5.7229,6.1265 8.5844,13.5831 8.5845,22.36988 -10e-5,9.67242 -2.7405,17.6118 -8.2211,23.81815 -5.6431,6.44746 -13.0991,9.67117 -22.368,9.67117 -8.7869,0 -16.0424,-2.94205 -21.7666,-8.82618 -6.1252,-6.20636 -9.1878,-14.4274 -9.1878,-24.66314 0,-9.10903 2.8215,-16.64618 8.4646,-22.61158 5.643,-5.9652 13.1396,-8.9479 22.4898,-8.9479 z m -14.6304,31.67756 c -0.081,12.57512 4.7956,18.86266 14.6304,18.86265 9.4313,10e-6 14.1469,-6.28753 14.147,-18.86265 -10e-5,-6.12516 -2.0566,-10.71905 -6.1695,-13.78169 -2.6592,-1.93587 -5.3184,-2.90387 -7.9775,-2.90397 -3.0626,10e-5 -5.8436,0.8463 -8.3428,2.53867 -4.1106,2.82157 -6.2064,7.53723 -6.2876,14.14699 z"
         style="font-variant:normal;font-stretch:normal;fill:#ffffff;font-family:CodiceBianco;-inkscape-font-specification:CodiceBianco"
         id="path8425" />
    </g>
    <g
       style="font-size:120.90988159px;font-style:normal;font-weight:normal;line-height:125%;letter-spacing:0px;word-spacing:0px;fill:#ffffff;fill-opacity:1;stroke:none;font-family:Sans"
       id="text6548-8">
      <path
         d="m -1693.0469,-871.23638 c 8.9467,7e-5 16.2815,3.06328 22.0046,9.18964 5.7229,6.12648 8.5844,13.5831 8.5845,22.36988 -1e-4,9.67242 -2.7405,17.6118 -8.2211,23.81816 -5.6431,6.44745 -13.0991,9.67117 -22.368,9.67116 -8.7869,10e-6 -16.0424,-2.94205 -21.7666,-8.82618 -6.1252,-6.20636 -9.1878,-14.42739 -9.1878,-24.66314 0,-9.10903 2.8215,-16.64621 8.4646,-22.61156 5.643,-5.96524 13.1396,-8.94789 22.4898,-8.94796 z m -14.6304,31.6776 c -0.081,12.57512 4.7956,18.86266 14.6304,18.86265 9.4313,1e-5 14.1469,-6.28753 14.147,-18.86265 -1e-4,-6.12516 -2.0566,-10.71905 -6.1695,-13.78169 -2.6592,-1.93591 -5.3184,-2.90388 -7.9775,-2.90394 -3.0626,6e-5 -5.8436,0.84627 -8.3428,2.53864 -4.1106,2.82157 -6.2064,7.53723 -6.2876,14.14699 z"
         style="font-variant:normal;font-stretch:normal;fill:#ffffff;font-family:CodiceBianco;-inkscape-font-specification:CodiceBianco"
         id="path8406" />
      <path
         d="m -1589.1474,-838.47027 c 0,10.72035 -3.225,19.02256 -9.6748,24.90667 -5.4808,4.99856 -12.2111,7.49783 -20.191,7.49783 -5.8842,0 -10.9221,-1.41076 -15.1138,-4.23229 l 0,20.79614 -17.4125,0 0,-79.80096 15.2355,0 1.8154,3.50907 c 3.5447,-3.38724 8.5826,-5.08089 15.1138,-5.08096 7.8987,7e-5 14.6696,2.49934 20.3127,7.49783 6.6098,5.88418 9.9147,14.18639 9.9147,24.90667 z m -16.8074,0.48337 c 0,-5.88408 -1.5719,-10.47797 -4.7156,-13.78169 -2.8216,-2.90265 -6.247,-4.354 -10.2763,-4.35405 -3.6284,5e-5 -6.7316,1.16851 -9.3096,3.50538 -2.7428,2.5805 -4.1142,5.96658 -4.1142,10.15823 l 0,6.89269 c 0,4.5927 1.5325,8.34038 4.5976,11.24306 2.7403,2.74036 6.0452,4.11054 9.9147,4.11052 3.8669,2e-5 7.0501,-1.41074 9.5494,-4.23229 2.9026,-3.22247 4.354,-7.73641 4.354,-13.54185 z"
         style="font-variant:normal;font-stretch:normal;fill:#ffffff;font-family:CodiceBianco;-inkscape-font-specification:CodiceBianco"
         id="path8408" />
      <path
         d="m -1581.9595,-840.76537 c 0,-9.27139 2.7809,-16.88913 8.3428,-22.85325 5.5619,-5.96401 12.7768,-8.94604 21.6448,-8.94611 8.3022,7e-5 15.3548,2.82036 21.1578,8.46089 6.0464,6.04653 8.9085,13.58371 8.5863,22.61156 0,1.12914 -0.081,3.34552 -0.2435,6.64916 l -42.8026,0 c 2.0171,7.65775 6.4917,11.48661 13.4238,11.48659 4.3516,2e-5 8.0181,-0.68507 10.9995,-2.05527 1.0479,-0.4034 2.9826,-1.61245 5.8042,-3.62714 l 11.3685,11.48658 c -8.5458,6.52863 -17.9365,9.79294 -28.1722,9.79293 -6.691,10e-6 -12.8174,-2.09584 -18.3793,-6.28755 -7.8201,-5.8841 -11.7301,-14.79023 -11.7301,-26.71839 z m 17.5343,-6.40932 24.9067,0 c -0.3223,-3.30608 -1.6925,-6.00707 -4.1105,-8.10297 -2.4182,-2.09579 -5.1585,-3.14372 -8.2211,-3.14377 -3.7908,5e-5 -6.8952,1.29028 -9.3132,3.87068 -2.1746,2.25825 -3.2619,4.71694 -3.2619,7.37606 z"
         style="font-variant:normal;font-stretch:normal;fill:#ffffff;font-family:CodiceBianco;-inkscape-font-specification:CodiceBianco"
         id="path8410" />
      <path
         d="m -1454.9097,-846.93485 0,39.29719 -17.6523,0 0,-35.54827 c -0.3223,-3.30363 -1.6322,-5.90253 -3.9298,-7.79671 -2.2976,-1.89409 -4.8965,-2.84116 -7.7967,-2.84121 -2.9027,5e-5 -5.3208,0.88685 -7.2543,2.6604 -2.177,1.93355 -3.2655,4.59271 -3.2655,7.97752 l 0,35.4265 -17.4125,0 0,-61.06008 15.1137,0 1.8154,3.38731 c 4.4328,-3.46596 9.7929,-5.19897 16.0805,-5.19904 6.6098,7e-5 12.1716,1.9348 16.6856,5.80418 5.0772,4.35165 7.6159,10.31572 7.6159,17.89221 z"
         style="font-variant:normal;font-stretch:normal;fill:#ffffff;font-family:CodiceBianco;-inkscape-font-specification:CodiceBianco"
         id="path8412" />
    </g>
    <g
       style="font-size:120.90988159px;font-style:normal;font-weight:normal;line-height:125%;letter-spacing:0px;word-spacing:0px;fill:#ffffff;fill-opacity:1;stroke:none;font-family:Sans"
       id="text6560-2">
      <path
         d="m -823.66979,-1016.2364 c 8.94667,0 16.28153,3.0632 22.00458,9.1896 5.72293,6.1265 8.58443,13.5831 8.58449,22.36988 -6e-5,9.67242 -2.74041,17.6118 -8.22104,23.81815 -5.6431,6.44746 -13.09911,9.67117 -22.36803,9.67117 -8.78686,0 -16.04238,-2.94205 -21.76659,-8.82618 -6.1252,-6.20636 -9.18779,-14.4274 -9.18779,-24.66314 0,-9.10903 2.82152,-16.64618 8.46458,-22.61158 5.64303,-5.9652 13.13962,-8.9479 22.4898,-8.9479 z m -14.63037,31.67756 c -0.0812,12.57512 4.79559,18.86266 14.63037,18.86265 9.43128,10e-6 14.14693,-6.28753 14.14698,-18.86265 -5e-5,-6.12516 -2.05654,-10.71905 -6.16947,-13.78169 -2.65921,-1.93587 -5.31838,-2.90387 -7.97751,-2.90397 -3.06263,10e-5 -5.84357,0.8463 -8.34282,2.53867 -4.11054,2.82157 -6.20639,7.53723 -6.28755,14.14699 z"
         style="font-variant:normal;font-stretch:normal;text-align:end;text-anchor:end;fill:#ffffff;font-family:CodiceBianco;-inkscape-font-specification:CodiceBianco"
         id="path8428" />
      <path
         d="m -764.74985,-1014.1812 0,34.58155 c -2e-5,3.46605 1.24962,6.28758 3.74892,8.46458 2.177,1.93351 4.83616,2.90026 7.97751,2.90024 3.06502,2e-5 5.66515,-0.96734 7.8004,-2.90209 2.13516,-1.9347 3.20277,-4.71502 3.20282,-8.34096 l 0,-34.70332 17.53429,0 0,60.93834 -15.59711,0 -1.81542,-3.50538 c -3.86949,3.5472 -9.27024,5.3208 -16.20225,5.3208 -6.52864,0 -11.96875,-1.81419 -16.32032,-5.44257 -5.07974,-4.27286 -7.61961,-10.39928 -7.6196,-18.37928 l 0,-38.93191 z"
         style="font-variant:normal;font-stretch:normal;text-align:end;text-anchor:end;fill:#ffffff;font-family:CodiceBianco;-inkscape-font-specification:CodiceBianco"
         id="path8430" />
      <path
         d="m -716.19107,-1013.9376 17.29076,0 13.05848,40.86534 12.81494,-40.86534 17.5306,0 -20.06924,61.17811 -20.07293,0 z"
         style="font-variant:normal;font-stretch:normal;text-align:end;text-anchor:end;fill:#ffffff;font-family:CodiceBianco;-inkscape-font-specification:CodiceBianco"
         id="path8432" />
      <path
         d="m -650.23822,-985.76543 c 0,-9.27139 2.78094,-16.88917 8.34282,-22.85327 5.56185,-5.964 12.77678,-8.946 21.64481,-8.9461 8.30218,10e-5 15.35476,2.8204 21.15776,8.4609 6.04641,6.0465 8.90852,13.58371 8.58634,22.61156 -6e-5,1.12914 -0.0812,3.34552 -0.24353,6.64916 l -42.80257,0 c 2.01711,7.65775 6.49169,11.4866 13.42377,11.48658 4.35156,2e-5 8.01806,-0.68506 10.99952,-2.05526 1.04788,-0.4034 2.9826,-1.61245 5.80418,-3.62715 l 11.36851,11.48659 c -8.54581,6.52863 -17.93654,9.79294 -28.17221,9.79293 -6.691,10e-6 -12.81742,-2.09584 -18.37928,-6.28755 -7.82008,-5.8841 -11.73012,-14.79023 -11.73012,-26.71839 z m 17.5343,-6.40932 24.90667,0 c -0.3223,-3.30608 -1.69247,-6.00707 -4.11053,-8.10295 -2.41813,-2.0958 -5.15848,-3.1437 -8.22104,-3.1438 -3.79076,1e-4 -6.89518,1.2903 -9.31325,3.87069 -2.17459,2.25825 -3.26187,4.71694 -3.26185,7.37606 z"
         style="font-variant:normal;font-stretch:normal;text-align:end;text-anchor:end;fill:#ffffff;font-family:CodiceBianco;-inkscape-font-specification:CodiceBianco"
         id="path8434" />
      <path
         d="m -543.3794,-1015.6313 0,17.53061 c -1.20786,-0.15985 -2.41691,-0.23979 -3.62715,-0.23984 -4.75506,5e-5 -8.66386,1.08733 -11.72643,3.26185 -3.38733,2.33942 -5.08098,5.52378 -5.08096,9.55309 l 0,32.7661 -16.92546,0 0,-61.42171 16.92546,0 0,5.3208 c 5.0797,-4.595 11.08559,-6.8926 18.01767,-6.8927 0.9667,10e-5 1.77233,0.041 2.41687,0.1218 z"
         style="font-variant:normal;font-stretch:normal;text-align:end;text-anchor:end;fill:#ffffff;font-family:CodiceBianco;-inkscape-font-specification:CodiceBianco"
         id="path8436" />
      <path
         d="m -511.62061,-1014.9044 15.84064,0 0,14.3868 -15.84064,0 0,26.35683 c -3e-5,4.59515 2.57919,6.89271 7.73767,6.89269 2.17699,2e-5 4.43396,-0.36282 6.77093,-1.08852 l 3.26554,14.26876 c -5.31839,1.7736 -10.67854,2.6604 -16.08049,2.6604 -12.81619,0 -19.22426,-5.28021 -19.22425,-15.84064 l 0,-33.24952 -9.9147,0 0,-14.3868 9.9147,0 0,-18.0177 17.5306,-4.9555 z"
         style="font-variant:normal;font-stretch:normal;text-align:end;text-anchor:end;fill:#ffffff;font-family:CodiceBianco;-inkscape-font-specification:CodiceBianco"
         id="path8438" />
    </g>
    <g
       style="font-size:120.90988159px;font-style:normal;font-weight:normal;line-height:125%;letter-spacing:0px;word-spacing:0px;fill:#ffffff;fill-opacity:1;stroke:none;font-family:Sans"
       id="text6564-5">
      <path
         d="m -944.04464,-870.63124 c 5.72419,7e-5 10.31931,1.61255 13.78538,4.83743 0.3222,-0.80679 0.76498,-1.8953 1.32835,-3.26554 l 16.08048,0 0,58.52145 c -6e-5,4.91492 -2.21644,9.58999 -6.64915,14.02522 -5.56193,5.72176 -13.09911,8.58264 -22.61157,8.58265 -4.75505,-10e-6 -10.27633,-0.80564 -16.56385,-2.41687 -5.88414,-1.53254 -10.31691,-3.1856 -13.29832,-4.95919 l 7.01077,-13.42008 c 8.22348,4.0318 15.2367,6.0477 21.03967,6.0477 3.70706,0 6.76966,-0.60513 9.1878,-1.81541 2.90265,-1.53253 4.354,-3.74891 4.35405,-6.64916 l 0,-4.35406 c -4.19174,2.33694 -8.86681,3.50539 -14.02522,3.50539 -7.57657,0 -14.06583,-2.3775 -19.46779,-7.13254 -6.04403,-5.32078 -9.06603,-12.41394 -9.06603,-21.27952 0,-9.02785 2.86088,-16.36331 8.58265,-22.00642 5.48068,-5.48063 12.2516,-8.22098 20.31278,-8.22105 z m -12.45334,30.46732 c -2e-5,4.67633 1.53128,8.22353 4.5939,10.6416 2.41807,2.0147 5.40072,3.02203 8.94795,3.02201 3.14374,2e-5 6.0858,-1.20902 8.82619,-3.62715 2.7403,-2.41807 4.11047,-5.23959 4.11052,-8.46458 l 0,-5.31711 c -5e-5,-3.38726 -1.30995,-6.24937 -3.92972,-8.58634 -2.61985,-2.33687 -5.70213,-3.50533 -9.24683,-3.50538 -3.70959,5e-5 -6.73282,1.12792 -9.06972,3.38361 -2.82155,2.82158 -4.23231,6.97268 -4.23229,12.45334 z"
         style="font-variant:normal;font-stretch:normal;text-align:end;text-anchor:end;fill:#ffffff;font-family:CodiceBianco;-inkscape-font-specification:CodiceBianco"
         id="path8441" />
      <path
         d="m -902.44866,-840.76537 c -10e-6,-9.27139 2.78093,-16.88913 8.34281,-22.85325 5.56185,-5.96401 12.77679,-8.94604 21.64482,-8.94611 8.30218,7e-5 15.35475,2.82036 21.15775,8.46089 6.04642,6.04653 8.90853,13.58371 8.58634,22.61156 -6e-5,1.12914 -0.0812,3.34552 -0.24353,6.64916 l -42.80257,0 c 2.01711,7.65775 6.4917,11.48661 13.42377,11.48659 4.35156,2e-5 8.01806,-0.68507 10.99952,-2.05527 1.04788,-0.4034 2.98261,-1.61245 5.80418,-3.62714 l 11.36851,11.48658 c -8.54581,6.52863 -17.93654,9.79294 -28.17221,9.79293 -6.691,10e-6 -12.81742,-2.09584 -18.37927,-6.28755 -7.82009,-5.8841 -11.73013,-14.79023 -11.73012,-26.71839 z m 17.53429,-6.40932 24.90667,0 c -0.3223,-3.30608 -1.69247,-6.00707 -4.11052,-8.10297 -2.41814,-2.09579 -5.15849,-3.14372 -8.22105,-3.14377 -3.79076,5e-5 -6.89518,1.29028 -9.31325,3.87068 -2.17459,2.25825 -3.26187,4.71694 -3.26185,7.37606 z"
         style="font-variant:normal;font-stretch:normal;text-align:end;text-anchor:end;fill:#ffffff;font-family:CodiceBianco;-inkscape-font-specification:CodiceBianco"
         id="path8443" />
      <path
         d="m -804.77762,-871.23638 c 8.94668,7e-5 16.28153,3.06328 22.00458,9.18964 5.72294,6.12648 8.58443,13.5831 8.5845,22.36988 -7e-5,9.67242 -2.74041,17.6118 -8.22105,23.81816 -5.6431,6.44745 -13.0991,9.67117 -22.36803,9.67116 -8.78685,10e-6 -16.04237,-2.94205 -21.76658,-8.82618 -6.1252,-6.20636 -9.1878,-14.42739 -9.1878,-24.66314 0,-9.10903 2.82152,-16.64621 8.46458,-22.61156 5.64304,-5.96524 13.13963,-8.94789 22.4898,-8.94796 z m -14.63036,31.6776 c -0.0812,12.57512 4.79558,18.86266 14.63036,18.86265 9.43128,1e-5 14.14694,-6.28753 14.14699,-18.86265 -5e-5,-6.12516 -2.05654,-10.71905 -6.16948,-13.78169 -2.65921,-1.93591 -5.31838,-2.90388 -7.97751,-2.90394 -3.06263,6e-5 -5.84356,0.84627 -8.34281,2.53864 -4.11055,2.82157 -6.20639,7.53723 -6.28755,14.14699 z"
         style="font-variant:normal;font-stretch:normal;text-align:end;text-anchor:end;fill:#ffffff;font-family:CodiceBianco;-inkscape-font-specification:CodiceBianco"
         id="path8445" />
      <path
         d="m -741.26378,-893.84794 c 6.12762,9e-5 11.2467,0.36293 15.35727,1.08851 l -3.50908,13.90715 c -3.54478,-0.48453 -5.64062,-0.72683 -6.28755,-0.72691 -4.91494,8e-5 -7.3724,2.01475 -7.37237,6.04402 l 0,4.47582 13.05847,0 0,13.29832 -12.81863,0 0,48.0016 -16.68562,0 0,-47.87984 -8.94795,0 0,-13.42008 8.94795,0 0,-9.79293 c -10e-6,-3.6283 1.29021,-6.85325 3.87068,-9.67486 3.22247,-3.54711 8.01808,-5.32071 14.38683,-5.3208 z"
         style="font-variant:normal;font-stretch:normal;text-align:end;text-anchor:end;fill:#ffffff;font-family:CodiceBianco;-inkscape-font-specification:CodiceBianco"
         id="path8447" />
      <path
         d="m -695.21411,-893.84794 c 6.12762,9e-5 11.2467,0.36293 15.35726,1.08851 l -3.50907,13.90715 c -3.54478,-0.48453 -5.64063,-0.72683 -6.28755,-0.72691 -4.91495,8e-5 -7.3724,2.01475 -7.37237,6.04402 l 0,4.47582 13.05847,0 0,13.29832 -12.81863,0 0,48.0016 -16.68562,0 0,-47.87984 -8.94796,0 0,-13.42008 8.94796,0 0,-9.79293 c -2e-5,-3.6283 1.29021,-6.85325 3.87068,-9.67486 3.22247,-3.54711 8.01808,-5.32071 14.38683,-5.3208 z"
         style="font-variant:normal;font-stretch:normal;text-align:end;text-anchor:end;fill:#ffffff;font-family:CodiceBianco;-inkscape-font-specification:CodiceBianco"
         id="path8449" />
      <path
         d="m -614.3431,-846.93485 0,39.29719 -17.65237,0 0,-35.54827 c -0.32229,-3.30363 -1.6322,-5.90253 -3.92971,-7.79671 -2.29761,-1.89409 -4.89651,-2.84116 -7.79671,-2.84121 -2.90274,5e-5 -5.32084,0.88685 -7.2543,2.6604 -2.17705,1.93355 -3.26557,4.59271 -3.26554,7.97752 l 0,35.4265 -17.41253,0 0,-61.06008 15.11373,0 1.81542,3.38731 c 4.43275,-3.46596 9.7929,-5.19897 16.08049,-5.19904 6.60975,7e-5 12.17162,1.9348 16.68562,5.80418 5.07721,4.35165 7.61584,10.31572 7.6159,17.89221 z"
         style="font-variant:normal;font-stretch:normal;text-align:end;text-anchor:end;fill:#ffffff;font-family:CodiceBianco;-inkscape-font-specification:CodiceBianco"
         id="path8451" />
      <path
         d="m -603.24393,-840.76537 c 0,-9.27139 2.78093,-16.88913 8.34281,-22.85325 5.56186,-5.96401 12.77679,-8.94604 21.64482,-8.94611 8.30218,7e-5 15.35476,2.82036 21.15775,8.46089 6.04642,6.04653 8.90853,13.58371 8.58635,22.61156 -7e-5,1.12914 -0.0812,3.34552 -0.24354,6.64916 l -42.80257,0 c 2.01711,7.65775 6.4917,11.48661 13.42378,11.48659 4.35155,2e-5 8.01806,-0.68507 10.99952,-2.05527 1.04788,-0.4034 2.9826,-1.61245 5.80417,-3.62714 l 11.36852,11.48658 c -8.54581,6.52863 -17.93654,9.79294 -28.17221,9.79293 -6.69101,10e-6 -12.81743,-2.09584 -18.37928,-6.28755 -7.82009,-5.8841 -11.73012,-14.79023 -11.73012,-26.71839 z m 17.5343,-6.40932 24.90666,0 c -0.32229,-3.30608 -1.69246,-6.00707 -4.11052,-8.10297 -2.41814,-2.09579 -5.15848,-3.14372 -8.22104,-3.14377 -3.79077,5e-5 -6.89518,1.29028 -9.31325,3.87068 -2.17459,2.25825 -3.26188,4.71694 -3.26185,7.37606 z"
         style="font-variant:normal;font-stretch:normal;text-align:end;text-anchor:end;fill:#ffffff;font-family:CodiceBianco;-inkscape-font-specification:CodiceBianco"
         id="path8453" />
      <path
         d="m -511.62062,-869.90433 15.84065,0 0,14.38683 -15.84065,0 0,26.35679 c -2e-5,4.59515 2.5792,6.89271 7.73768,6.89269 2.17698,2e-5 4.43396,-0.36282 6.77092,-1.08851 l 3.26554,14.26875 c -5.31838,1.7736 -10.67854,2.6604 -16.08048,2.6604 -12.81619,0 -19.22427,-5.2802 -19.22426,-15.84064 l 0,-33.24948 -9.9147,0 0,-14.38683 9.9147,0 0,-18.01767 17.5306,-4.9555 z"
         style="font-variant:normal;font-stretch:normal;text-align:end;text-anchor:end;fill:#ffffff;font-family:CodiceBianco;-inkscape-font-specification:CodiceBianco"
         id="path8455" />
    </g>
    <path
       sodipodi:type="arc"
       style="font-size:120.90988159px;font-style:normal;font-weight:normal;line-height:125%;letter-spacing:0px;word-spacing:0px;fill:#ffffff;fill-opacity:1;stroke:none;font-family:Sans"
       id="path6657-2"
       sodipodi:cx="5526.166"
       sodipodi:cy="1838.6179"
       sodipodi:rx="11.743023"
       sodipodi:ry="12.121831"
       d="m 5537.909,1838.6179 c 0,6.6947 -5.2575,12.1219 -11.743,12.1219 -6.4855,0 -11.743,-5.4272 -11.743,-12.1219 0,-6.6947 5.2575,-12.1218 11.743,-12.1218 6.4855,0 11.743,5.4271 11.743,12.1218 z"
       transform="matrix(0.85156949,0,0,0.82495788,-5496.5985,-2403.115)" />
    <path
       transform="matrix(0.85156949,0,0,0.82495788,-5526.1321,-2402.7579)"
       d="m 5537.909,1838.6179 c 0,6.6947 -5.2575,12.1219 -11.743,12.1219 -6.4855,0 -11.743,-5.4272 -11.743,-12.1219 0,-6.6947 5.2575,-12.1218 11.743,-12.1218 6.4855,0 11.743,5.4271 11.743,12.1218 z"
       sodipodi:ry="12.121831"
       sodipodi:rx="11.743023"
       sodipodi:cy="1838.6179"
       sodipodi:cx="5526.166"
       id="path6678-7"
       style="font-size:120.90988159px;font-style:normal;font-weight:normal;line-height:125%;letter-spacing:0px;word-spacing:0px;fill:#ffffff;fill-opacity:1;stroke:none;font-family:Sans"
       sodipodi:type="arc" />
    <rect
       style="fill:#ffffff;fill-opacity:1;stroke:#000000;stroke-width:5;stroke-miterlimit:4;stroke-opacity:1;stroke-dasharray:none"
       id="rect5120-8"
       width="1320"
       height="380"
       x="-1769.2856"
       y="-537.63776" />
    <rect
       style="fill:#ffffff;fill-opacity:1;stroke:#000000;stroke-width:5;stroke-miterlimit:4;stroke-opacity:1;stroke-dasharray:none"
       id="rect7720"
       width="1320"
       height="380"
       x="-1769.2856"
       y="22.36224" />
    <g
       style="font-size:40px;font-style:normal;font-weight:normal;line-height:125%;letter-spacing:0px;word-spacing:0px;fill:#000000;fill-opacity:1;stroke:none;font-family:Sans"
       id="text8371">
      <path
         d="m -1852.8086,-796.67297 c -2.6042,2.21354 -5.1107,3.77604 -7.5195,4.6875 -2.4089,0.91145 -4.9935,1.36718 -7.7539,1.36718 -4.5573,0 -8.0599,-1.11328 -10.5078,-3.33984 -2.448,-2.22656 -3.6719,-5.07161 -3.6719,-8.53516 0,-2.03123 0.4622,-3.8867 1.3867,-5.5664 0.9245,-1.67967 2.1354,-3.02733 3.6328,-4.04297 1.4974,-1.0156 3.1836,-1.78383 5.0586,-2.30469 1.3802,-0.36456 3.4635,-0.71612 6.25,-1.05469 5.6771,-0.67705 9.8567,-1.48435 12.5391,-2.42187 0.026,-0.96352 0.039,-1.57549 0.039,-1.83594 0,-2.86455 -0.6641,-4.88278 -1.9922,-6.05469 -1.7969,-1.5885 -4.4661,-2.38277 -8.0078,-2.38281 -3.3073,4e-5 -5.7487,0.57946 -7.3242,1.73828 -1.5755,1.15889 -2.7409,3.20967 -3.4961,6.15235 l -6.875,-0.9375 c 0.625,-2.94268 1.6537,-5.31898 3.086,-7.12891 1.4322,-1.80986 3.5025,-3.20308 6.2109,-4.17969 2.7083,-0.97652 5.8463,-1.4648 9.4141,-1.46484 3.5416,4e-5 6.4192,0.41671 8.6328,1.25 2.2135,0.83337 3.8411,1.88155 4.8828,3.14453 1.0416,1.26306 1.7708,2.85811 2.1875,4.78516 0.2343,1.19795 0.3515,3.3594 0.3515,6.48437 l 0,9.375 c 0,6.53647 0.1497,10.67058 0.4493,12.40235 0.2994,1.73177 0.8918,3.39192 1.7773,4.98046 l -7.3437,0 c -0.7292,-1.45833 -1.198,-3.16406 -1.4063,-5.11718 z m -0.5859,-15.70313 c -2.5521,1.04169 -6.3803,1.9271 -11.4844,2.65625 -2.8906,0.41669 -4.9349,0.88544 -6.1328,1.40625 -1.1979,0.52085 -2.1224,1.28257 -2.7735,2.28516 -0.651,1.00262 -0.9765,2.1159 -0.9765,3.33984 0,1.87501 0.7096,3.43751 2.1289,4.6875 1.4192,1.25001 3.4961,1.87501 6.2305,1.875 2.7083,10e-6 5.1171,-0.59244 7.2265,-1.77734 2.1094,-1.18489 3.6588,-2.80598 4.6485,-4.86328 0.7551,-1.58853 1.1327,-3.93228 1.1328,-7.03125 z"
         style="font-size:80px"
         id="path8464" />
    </g>
    <g
       style="font-size:40px;font-style:normal;font-weight:normal;line-height:125%;letter-spacing:0px;word-spacing:0px;fill:#000000;fill-opacity:1;stroke:none;font-family:Sans"
       id="text8377">
      <path
         d="m -1873.3945,-231.55577 -6.5235,0 0,-57.26563 7.0313,0 0,20.42969 c 2.9687,-3.72392 6.7578,-5.58589 11.3672,-5.58594 2.552,5e-5 4.9674,0.51437 7.2461,1.54297 2.2786,1.02869 4.1536,2.474 5.625,4.33594 1.4713,1.86201 2.6236,4.10811 3.457,6.73828 0.8333,2.63024 1.25,5.44273 1.25,8.4375 0,7.10939 -1.7579,12.60418 -5.2734,16.48438 -3.5157,3.88021 -7.7344,5.82031 -12.6563,5.82031 -4.8958,0 -8.737,-2.04427 -11.5234,-6.13281 z m -0.078,-21.05469 c 0,4.97398 0.6771,8.56772 2.0313,10.78125 2.2135,3.6198 5.2083,5.42969 8.9844,5.42969 3.0729,0 5.7291,-1.33463 7.9687,-4.00391 2.2396,-2.66926 3.3594,-6.64712 3.3594,-11.93359 0,-5.41664 -1.0743,-9.41403 -3.2227,-11.99219 -2.1484,-2.57809 -4.7461,-3.86715 -7.7929,-3.86719 -3.073,4e-5 -5.7292,1.33467 -7.9688,4.00391 -2.2396,2.6693 -3.3594,6.52997 -3.3594,11.58203 z"
         style="font-size:80px"
         id="path8461" />
    </g>
    <g
       style="font-size:40px;font-style:normal;font-weight:normal;line-height:125%;letter-spacing:0px;word-spacing:0px;fill:#000000;fill-opacity:1;stroke:none;font-family:Sans"
       id="text8377-8">
      <path
         d="m -1852.8086,313.2489 6.9141,0.89844 c -0.7553,4.76563 -2.6889,8.4961 -5.8008,11.19141 -3.112,2.69531 -6.9336,4.04296 -11.4649,4.04296 -5.6771,0 -10.2409,-1.85546 -13.6914,-5.5664 -3.4505,-3.71093 -5.1757,-9.02994 -5.1757,-15.95703 0,-4.47915 0.7421,-8.39841 2.2265,-11.75782 1.4844,-3.35934 3.7435,-5.87886 6.7774,-7.55859 3.0338,-1.67965 6.3346,-2.51949 9.9023,-2.51953 4.5052,4e-5 8.1901,1.13936 11.0547,3.41797 2.8645,2.27868 4.7005,5.51435 5.5078,9.70703 l -6.8359,1.05469 c -0.6511,-2.78643 -1.8034,-4.88278 -3.4571,-6.28907 -1.6536,-1.40621 -3.6523,-2.10933 -5.9961,-2.10937 -3.5416,4e-5 -6.4192,1.26957 -8.6328,3.80859 -2.2135,2.5391 -3.3203,6.55602 -3.3203,12.05078 0,5.57294 1.0677,9.62241 3.2031,12.14844 2.1354,2.52605 4.9219,3.78907 8.3594,3.78906 2.7604,10e-6 5.0651,-0.84634 6.9141,-2.53906 1.8489,-1.6927 3.0208,-4.29686 3.5156,-7.8125 z"
         style="font-size:80px"
         id="path8458" />
    </g>
  </g>
</svg>
