<?xml version="1.0" encoding="utf-8"?>
<!-- Generator: Adobe Illustrator 24.0.2, SVG Export Plug-In . SVG Version: 6.00 Build 0)  -->
<svg version="1.1"
	 id="svg2" inkscape:output_extension="org.inkscape.output.svg.inkscape" inkscape:version="0.44+devel" sodipodi:docbase="C:\Documents and Settings\Flanker\Desktop\Segnali" sodipodi:docname="Italian traffic signs - delineatori di margine - senso unico.svg" sodipodi:modified="true" sodipodi:version="0.32" xmlns:cc="http://web.resource.org/cc/" xmlns:dc="http://purl.org/dc/elements/1.1/" xmlns:inkscape="http://www.inkscape.org/namespaces/inkscape" xmlns:rdf="http://www.w3.org/1999/02/22-rdf-syntax-ns#" xmlns:sodipodi="http://sodipodi.sourceforge.net/DTD/sodipodi-0.dtd" xmlns:svg="http://www.w3.org/2000/svg"
	 xmlns="http://www.w3.org/2000/svg" xmlns:xlink="http://www.w3.org/1999/xlink" x="0px" y="0px" width="200px" height="200px"
	 viewBox="0 0 200 200" style="enable-background:new 0 0 200 200;" xml:space="preserve">
<style type="text/css">
	.st0{fill-rule:evenodd;clip-rule:evenodd;}
	.st1{fill-rule:evenodd;clip-rule:evenodd;fill:#858482;}
	.st2{fill-rule:evenodd;clip-rule:evenodd;fill:#FFEB08;}
</style>
<sodipodi:namedview  bordercolor="#666666" borderopacity="1.0" gridtolerance="10.0" guidetolerance="10.0" id="base" inkscape:current-layer="svg2" inkscape:cx="96.744956" inkscape:cy="99.757659" inkscape:pageopacity="0.0" inkscape:pageshadow="2" inkscape:window-height="1003" inkscape:window-width="1280" inkscape:window-x="-4" inkscape:window-y="-4" inkscape:zoom="4.015" objecttolerance="10.0" pagecolor="#ffffff">
	</sodipodi:namedview>
<g id="g4691" transform="translate(-0.87232,4.360272)">
	<g id="g4645" transform="translate(63.0137,0)">
		<g id="g4625" transform="translate(-42.83935,0)">
			<g id="g4619">
				<path id="rect1955" class="st0" d="M14.9,7.5v47.1L35.4,68V20.9L14.9,7.5z"/>
				<path id="path4614" sodipodi:nodetypes="ccccc" class="st1" d="M14.9,54.5L35.4,68v112.8H14.9V54.5z"/>
			</g>
			<rect id="rect4623" x="8.3" y="180.8" class="st0" width="33.6" height="4"/>
		</g>
		<g>
			<path id="rect4631" class="st2" d="M-17.7,23.1L-17.7,23.1c3.1,0,5.7,2.5,5.7,5.7l0,0c0,3.1-2.5,5.7-5.7,5.7l0,0
				c-3.1,0-5.7-2.5-5.7-5.7l0,0C-23.4,25.6-20.8,23.1-17.7,23.1z"/>
			<path id="rect4633" class="st2" d="M-17.7,42.8L-17.7,42.8c3.1,0,5.7,2.5,5.7,5.7l0,0c0,3.1-2.5,5.7-5.7,5.7l0,0
				c-3.1,0-5.7-2.5-5.7-5.7l0,0C-23.4,45.4-20.8,42.8-17.7,42.8z"/>
		</g>
	</g>
	<g id="g4683" transform="translate(128.269,0)">
		<g id="g4656" transform="matrix(-1,0,0,1,53.30129,0)">
			<g id="g4658">
				<path id="path4660" class="st0" d="M14.9,7.5v47.1L35.4,68V20.9L14.9,7.5z"/>
				<path id="path4662" sodipodi:nodetypes="ccccc" class="st1" d="M14.9,54.5L35.4,68v112.8H14.9V54.5z"/>
			</g>
		</g>
		<rect id="rect4677" x="22.5" y="23.1" class="st2" width="11.3" height="31.1"/>
	</g>
</g>
<rect id="rect4623_1_" x="138.7" y="185.2" class="st0" width="33.6" height="4"/>
</svg>
