<?xml version="1.0" encoding="UTF-8" standalone="no"?>
<!-- Created with Inkscape (http://www.inkscape.org/) -->

<svg
   width="159.27916mm"
   height="111.38966mm"
   viewBox="0 0 159.27916 111.38967"
   version="1.1"
   id="svg5"
   xml:space="preserve"
   inkscape:version="1.2.1 (9c6d41e410, 2022-07-14)"
   sodipodi:docname="Fiume Arno - Copia.svg"
   xmlns:inkscape="http://www.inkscape.org/namespaces/inkscape"
   xmlns:sodipodi="http://sodipodi.sourceforge.net/DTD/sodipodi-0.dtd"
   xmlns="http://www.w3.org/2000/svg"
   xmlns:svg="http://www.w3.org/2000/svg"><sodipodi:namedview
     id="namedview7"
     pagecolor="#ffffff"
     bordercolor="#000000"
     borderopacity="0.25"
     inkscape:showpageshadow="2"
     inkscape:pageopacity="0.0"
     inkscape:pagecheckerboard="0"
     inkscape:deskcolor="#d1d1d1"
     inkscape:document-units="mm"
     showgrid="false"
     inkscape:zoom="0.76257014"
     inkscape:cx="243.91199"
     inkscape:cy="13.769225"
     inkscape:window-width="1920"
     inkscape:window-height="991"
     inkscape:window-x="-9"
     inkscape:window-y="-9"
     inkscape:window-maximized="1"
     inkscape:current-layer="layer1" /><defs
     id="defs2" /><g
     inkscape:label="Livello 1"
     inkscape:groupmode="layer"
     id="layer1"
     transform="translate(54.311305,216.01069)"><g
       id="g881"><path
         id="rect1634-9-9"
         style="fill:#000007;stroke-width:5.60834;stroke-linejoin:bevel;stroke-opacity:0.778462;paint-order:markers stroke fill"
         d="M -54.311305,-158.06686 H 104.96786 l -0.002,53.44583 H -54.311305 Z"
         sodipodi:nodetypes="ccccc" /><path
         id="rect1634-9"
         style="fill:#ffffff;stroke-width:5.57123;stroke-linejoin:bevel;stroke-opacity:0.778462;paint-order:markers stroke fill"
         d="M -54.046702,-157.80228 H 104.7033 l -0.002,52.91667 H -54.046702 Z"
         sodipodi:nodetypes="ccccc" /><rect
         style="fill:none;stroke:#000000;stroke-width:2.64583;paint-order:markers stroke fill"
         id="rect11773"
         width="153.45833"
         height="47.625"
         x="-51.400806"
         y="-155.15654"
         rx="7.9375"
         ry="7.9375" /><path
         id="rect1634-9-5"
         style="fill:#784435;stroke-width:5.57123;stroke-linejoin:bevel;stroke-opacity:0.778462;paint-order:markers stroke fill"
         d="M -54.046722,-216.01069 H 104.70327 l -0.002,52.91667 H -54.046722 Z"
         sodipodi:nodetypes="ccccc" /><g
         id="path2106-81-6-7"
         transform="matrix(2.4698178,0,0,2.4698178,-340.06892,-320.98417)"><path
           id="path5031-8-5"
           style="color:#000000;fill:#ffffff;paint-order:markers stroke fill"
           d="m 122.03918,45.808133 v 11.187429 h 0.95137 c 0.87841,0 1.78031,0.62583 3.66385,1.671733 1.91515,1.063434 4.67609,2.214852 8.81445,2.214852 4.14408,0 6.66346,-1.209257 8.37107,-2.263428 1.69096,-1.043898 2.23253,-1.623157 4.10569,-1.623157 1.87302,0 2.41203,0.579183 4.10311,1.623157 1.70781,1.054294 4.22918,2.263429 8.37313,2.263428 4.13832,0 6.89918,-1.149284 8.81445,-2.212785 1.88369,-1.04597 2.78619,-1.6738 3.66438,-1.6738 h 0.94929 l 0.002,-11.187431 h -0.95085 c -3.68314,0 -5.99956,1.257873 -7.64242,2.257744 -1.63789,0.996837 -2.44549,1.628842 -4.8364,1.628841 -2.3877,0 -3.31976,-0.655607 -4.98419,-1.642277 -1.66698,-0.988172 -3.95694,-2.24418 -7.49205,-2.244308 -3.53508,1.28e-4 -5.82507,1.256134 -7.49205,2.244308 -1.66444,0.986672 -2.59699,1.642278 -4.98471,1.642277 -2.39088,0 -3.198,-0.632005 -4.83588,-1.628841 -1.64287,-0.999871 -3.95929,-2.257744 -7.64243,-2.257744 z"
           sodipodi:nodetypes="ccsssssssssccsssscssssc" /></g><path
         id="path2106-8-3-3"
         style="color:#000000;fill:#00408b;stroke-width:2.46982;stroke-linejoin:bevel;paint-order:markers stroke fill"
         d="m -36.304956,-188.48748 v 5.92465 c 3.12513,0 5.65205,1.90906 10.18753,4.42752 4.53549,2.51847 10.834086,5.17163 20.631586,5.17163 9.79752,0 15.39773,-2.74094 19.44465,-5.23926 4.04689,-2.49833 6.18171,-4.35989 11.36938,-4.35989 5.18771,0 7.32252,1.86284 11.36942,4.36116 4.04692,2.49832 9.64841,5.23799 19.44591,5.23799 9.79752,0 16.09612,-2.65189 20.63162,-5.17034 4.53548,-2.51846 7.06237,-4.42881 10.18753,-4.42881 v -5.92337 c -5.36024,0 -8.95543,2.89076 -13.06306,5.17162 -4.10761,2.28087 -8.97964,4.42243 -17.75609,4.42243 -8.77642,0 -12.60188,-2.05379 -16.32915,-4.35479 -3.72703,-2.30085 -7.71235,-5.23889 -14.48489,-5.23926 v -0.001 c -6.77333,0 -10.7589,2.93826 -14.48615,5.23926 -3.72728,2.30101 -7.55273,4.35606 -16.32917,4.35606 -8.77643,0 -13.64847,-2.14283 -17.756066,-4.4237 -4.10762,-2.28086 -7.70283,-5.17162 -13.06305,-5.17162 z" /><path
         id="path2106-7-6-0"
         style="color:#000000;fill:#00408b;stroke-width:2.46982;stroke-linejoin:bevel;paint-order:markers stroke fill"
         d="m -36.304956,-196.99666 v 5.92847 c 5.53365,0 8.09972,1.91271 12.20411,4.37521 4.10436,2.4625 9.529606,5.22395 18.615006,5.22395 9.08542,0 13.95827,-2.85915 17.64121,-5.28649 3.6827,-2.4272 6.06523,-4.31244 13.17282,-4.31267 h 0.001 c 7.10762,2.3e-4 9.49015,1.88547 13.17285,4.31267 3.68291,2.42734 8.55579,5.28649 17.64119,5.28649 9.08542,0 14.51065,-2.76145 18.61504,-5.22395 4.10439,-2.4625 6.67044,-4.37521 12.20411,-4.37521 v -5.92847 c -7.04182,0 -11.3583,2.88713 -15.25322,5.22395 -3.89491,2.33681 -7.59225,4.3752 -15.56593,4.3752 -7.97366,0 -10.78127,-1.93558 -14.38022,-4.30756 -3.59872,-2.37185 -8.09811,-5.29129 -16.43382,-5.29159 h -0.001 c -8.3357,3e-4 -12.83507,2.91973 -16.43379,5.29159 -3.59895,2.37198 -6.40656,4.30756 -14.38024,4.30756 -7.97366,0 -11.67103,-2.03838 -15.565906,-4.3752 -3.89492,-2.33682 -8.21142,-5.22395 -15.25321,-5.22395 z" /><path
         id="path2106-5-1"
         style="color:#000000;fill:#00408b;stroke-width:2.46982;stroke-linejoin:bevel;paint-order:markers stroke fill"
         d="m -36.306246,-205.50074 0.001,5.92848 c 7.39866,0 10.67475,1.9925 14.57293,4.36499 3.898206,2.37249 8.521356,5.23416 16.246186,5.23416 7.72484,0 12.50283,-2.82823 16.52698,-5.21374 4.02392,-2.38536 7.34309,-4.38517 14.28705,-4.38541 h 0.001 c 6.94399,2.4e-4 10.26313,2.00004 14.28706,4.38541 4.02417,2.38551 8.80215,5.21374 16.52698,5.21374 7.72485,0 12.348,-2.86039 16.24621,-5.23289 3.89817,-2.37248 7.174448,-4.36626 14.573128,-4.36626 v -5.92848 c -8.58524,0 -13.668248,2.80733 -17.655718,5.23415 -3.9875,2.42683 -6.78363,4.365 -13.16391,4.365 -6.38026,0 -9.43532,-1.97032 -13.50721,-4.38414 -4.07172,-2.41368 -9.11025,-5.21472 -17.30683,-5.21501 h -0.001 c -8.19655,2.9e-4 -13.23511,2.80133 -17.3068,5.21501 -4.07191,2.41382 -7.12695,4.38414 -13.50723,4.38414 -6.38026,0 -9.17642,-1.93817 -13.16389,-4.365 -3.987466,-2.42682 -9.071276,-5.23415 -17.656516,-5.23415 z"
         sodipodi:nodetypes="ccssssssssccsscssssscc" /><rect
         style="fill:none;stroke:#ffffff;stroke-width:2.64583;paint-order:markers stroke fill"
         id="rect11773-9"
         width="153.45833"
         height="47.625"
         x="-51.400833"
         y="-213.36494"
         rx="7.9375"
         ry="7.9375" /><g
         id="g13907"><path
           d="m -26.304848,-122.25128 v -4.12684 h -0.804543 v -1.40558 h 0.804543 v -0.70043 q 0,-0.32655 0.09465,-0.58684 0.09465,-0.26503 0.298155,-0.44013 0.293421,-0.26029 0.648367,-0.35495 0.359678,-0.0994 0.728821,-0.0994 0.369144,0 0.724089,0.0662 0.354946,0.0663 0.643635,0.13725 l -0.331283,1.44345 q -0.123047,-0.0473 -0.312352,-0.0899 -0.189304,-0.0473 -0.364411,-0.0379 -0.175106,0.009 -0.302886,0.0947 -0.123048,0.0804 -0.123048,0.28395 v 0.28396 h 1.093232 v 1.40558 h -1.093232 v 4.12684 z"
           id="path13869" /><path
           d="m -20.559463,-127.5802 v 5.32892 h -1.665877 v -5.32892 z m -0.842404,-2.17226 q 0.407005,0 0.676763,0.27449 0.269759,0.26976 0.269759,0.67676 0,0.19404 -0.07572,0.36441 -0.07572,0.16564 -0.208235,0.29342 -0.132513,0.12305 -0.302887,0.2035 -0.165641,0.0757 -0.359678,0.0757 -0.194037,0 -0.369143,-0.0757 -0.175107,-0.0804 -0.30762,-0.2035 -0.12778,-0.12778 -0.203502,-0.29342 -0.07099,-0.17037 -0.07099,-0.36441 0,-0.39754 0.274491,-0.67203 0.279224,-0.27922 0.676763,-0.27922 z"
           id="path13871" /><path
           d="m -17.497466,-127.5802 v 2.93422 q 0,0.36914 0.236631,0.58684 0.23663,0.2177 0.586843,0.2177 0.350213,0 0.567913,-0.2177 0.2177,-0.2177 0.2177,-0.58684 v -2.93422 h 1.646947 v 5.32892 h -1.415049 l -0.156176,-0.28869 q -0.113583,0.0852 -0.260294,0.16091 -0.146711,0.071 -0.307619,0.12305 -0.156176,0.0521 -0.321818,0.0852 -0.165641,0.0379 -0.302887,0.0379 -0.572645,0 -0.951254,-0.15144 -0.373876,-0.15144 -0.619971,-0.38807 -0.241363,-0.23663 -0.369144,-0.52532 -0.123047,-0.29342 -0.170373,-0.57265 -0.04733,-0.28396 -0.05679,-0.51585 -0.0047,-0.2319 -0.0047,-0.35968 v -2.93422 z"
           id="path13873" /><path
           d="m -8.2546839,-122.25128 h -1.6090866 v -2.86796 q 0,-0.29342 -0.061524,-0.48273 -0.061524,-0.1893 -0.1656415,-0.30288 -0.09938,-0.11832 -0.231897,-0.16091 -0.132513,-0.0426 -0.255561,-0.0426 -0.203502,0 -0.331283,0.0757 -0.123047,0.071 -0.194037,0.20351 -0.06626,0.12778 -0.08992,0.30288 -0.02366,0.17511 -0.02366,0.36915 v 2.90582 h -1.661145 v -5.32892 h 1.486038 l 0.146711,0.31709 q 0.212968,-0.17511 0.501657,-0.28396 0.288689,-0.11358 0.629436,-0.11358 0.5253197,0 0.8234739,0.1893 0.3028869,0.18931 0.5158542,0.43067 0.2697587,-0.27922 0.6199716,-0.4496 0.350213,-0.17037 0.7856128,-0.17037 0.6483672,0 1.0648367,0.19877 0.4164695,0.19877 0.6578324,0.56318 0.241363,0.36441 0.3312825,0.88026 0.094652,0.51112 0.1041174,1.14056 v 2.6266 h -1.6848082 v -2.86796 q 0,-0.58211 -0.1893043,-0.78561 -0.1893043,-0.20351 -0.4969238,-0.20351 -0.2224325,0 -0.3549456,0.0757 -0.132513,0.071 -0.1987695,0.20351 -0.066256,0.12778 -0.094652,0.30288 -0.023663,0.17511 -0.023663,0.37861 z"
           id="path13875" /><path
           d="M 0.83192253,-124.35256 H -2.561357 q 0.1277804,0.39754 0.4164695,0.56791 0.288689,0.16564 0.6294368,0.16564 0.3502129,0 0.68622803,-0.13724 0.34074773,-0.14198 0.55371507,-0.37388 l 1.04590623,1.06484 q -0.24136297,0.26976 -0.54898246,0.4496 -0.30288687,0.17984 -0.62943678,0.28869 -0.3218173,0.10411 -0.66256499,0.14671 -0.3360152,0.0473 -0.6578325,0.0473 -0.5726455,0 -1.036441,-0.24136 -0.4637955,-0.2461 -0.795078,-0.64363 -0.3312826,-0.39754 -0.5111216,-0.9134 -0.1751065,-0.52058 -0.1751065,-1.06483 0,-0.53006 0.1893043,-1.01278 0.1893043,-0.48746 0.5253194,-0.8566 0.3407477,-0.36915 0.8045433,-0.58211 0.4637955,-0.21297 1.0080453,-0.21297 0.591576,0 1.0601041,0.2035 0.47326074,0.2035 0.80454326,0.55845 0.33601512,0.35494 0.5158542,0.85187 0.17983908,0.49219 0.17983908,1.0743 0,0.17037 0.004733,0.35968 0.004733,0.1893 -0.0141978,0.26029 z m -1.63748216,-1.27307 q -0.0804543,-0.30762 -0.33128247,-0.50639 -0.2508282,-0.19877 -0.5537151,-0.17984 -0.2697586,0.0189 -0.4874586,0.17511 -0.2176999,0.15617 -0.373876,0.51112 z"
           style="stroke-width:1.61539;paint-order:markers stroke fill"
           id="path13877" /><path
           d="m 17.906466,-130.692 -2.433278,-7.35514 -2.350325,7.35514 z m -6.345877,4.70065 -1.119861,3.51166 H 5.1732355 l 7.1615775,-22.07923 h 6.567084 l 7.161578,22.07923 h -5.461049 l -1.133686,-3.51166 z"
           id="path13880" /><path
           d="m 38.575498,-133.34649 q -0.33181,-0.0277 -0.732748,-0.0553 -0.400938,-0.0415 -0.815701,0 -0.400938,0.0276 -0.801875,0.0968 -0.400938,0.0691 -0.677447,0.20738 -0.165905,0.083 -0.48389,0.23503 -0.30416,0.13826 -0.622145,0.48389 -0.30416,0.33182 -0.539192,0.89866 -0.221207,0.56684 -0.221207,1.49315 v 7.50721 h -4.894206 l -0.04148,-15.56745 h 4.935682 v 0.92631 q 0.511541,-0.30416 0.705097,-0.42859 0.193556,-0.13825 0.539192,-0.30416 0.566843,-0.24886 1.147512,-0.33181 0.580668,-0.0968 1.050733,-0.0829 0.483891,0.0138 0.871003,0.0968 0.387112,0.0691 0.580668,0.0968 z"
           id="path13882" /><path
           d="m 50.949266,-122.47969 v -8.51647 q 0.0553,-1.28577 -0.691272,-2.07382 -0.732748,-0.78805 -1.714354,-0.73275 -0.511542,0.0277 -0.953956,0.27651 -0.442414,0.23504 -0.774224,0.62215 -0.317986,0.37328 -0.497716,0.871 -0.179731,0.49772 -0.179731,1.03691 l -0.02765,8.51647 H 41.17468 l 0.02765,-15.56745 h 4.39649 l 0.30416,0.84336 q 0.317985,-0.24886 0.774224,-0.44242 0.470065,-0.20738 0.981606,-0.34563 0.511542,-0.15208 1.009257,-0.22121 0.497716,-0.0691 0.926305,-0.0691 1.866434,0 3.069248,0.5945 1.202813,0.59449 1.894085,1.58992 0.691272,0.99543 0.953955,2.30885 0.276509,1.31342 0.276509,2.79274 v 8.51647 z"
           id="path13884" /><path
           d="m 66.516713,-126.64115 q 1.54845,-0.0277 2.3365,-1.05073 0.801875,-1.02308 0.801875,-2.68214 0,-0.77422 -0.207381,-1.45167 -0.193556,-0.67744 -0.580669,-1.20281 -0.373287,-0.52537 -0.967781,-0.8157 -0.594493,-0.30416 -1.382544,-0.30416 -0.829526,0 -1.410194,0.31798 -0.580669,0.30416 -0.953956,0.8157 -0.359461,0.51155 -0.525366,1.18899 -0.165906,0.67745 -0.165906,1.45167 0,0.7604 0.165906,1.43785 0.165905,0.67745 0.525366,1.18899 0.373287,0.51154 0.953956,0.8157 0.580668,0.29033 1.410194,0.29033 z m 0.110604,4.5071 q -1.72818,-0.0691 -3.1522,-0.69128 -1.410195,-0.62214 -2.419452,-1.70053 -0.995432,-1.09221 -1.54845,-2.54388 -0.553017,-1.46549 -0.553017,-3.16602 0,-1.75583 0.511541,-3.23516 0.511541,-1.49314 1.479322,-2.5577 0.981606,-1.06456 2.391801,-1.65905 1.424021,-0.5945 3.207502,-0.5945 1.700529,0 3.12455,0.62215 1.437846,0.62214 2.447103,1.71435 1.023082,1.09221 1.589925,2.57153 0.566843,1.4655 0.566843,3.19368 0,1.64523 -0.580668,3.12455 -0.580669,1.4655 -1.603751,2.57153 -1.009257,1.09221 -2.419452,1.74201 -1.39637,0.63597 -3.041597,0.60832 z"
           id="path13886" /></g></g></g></svg>
