<?xml version="1.0" encoding="UTF-8" standalone="no"?>
<!-- Created with Inkscape (http://www.inkscape.org/) -->

<svg
   xmlns:dc="http://purl.org/dc/elements/1.1/"
   xmlns:cc="http://creativecommons.org/ns#"
   xmlns:rdf="http://www.w3.org/1999/02/22-rdf-syntax-ns#"
   xmlns:svg="http://www.w3.org/2000/svg"
   xmlns="http://www.w3.org/2000/svg"
   xmlns:sodipodi="http://sodipodi.sourceforge.net/DTD/sodipodi-0.dtd"
   xmlns:inkscape="http://www.inkscape.org/namespaces/inkscape"
   width="1390"
   height="1700"
   id="svg2994"
   version="1.1"
   inkscape:version="0.48.5 r10040"
   sodipodi:docname="CANC Stop2.svg"
   inkscape:export-filename="C:\Users\utente\Desktop\CANC drittok.png"
   inkscape:export-xdpi="90"
   inkscape:export-ydpi="90">
  <defs
     id="defs2996" />
  <sodipodi:namedview
     id="base"
     pagecolor="#ffffff"
     bordercolor="#666666"
     borderopacity="1.0"
     inkscape:pageopacity="0.0"
     inkscape:pageshadow="2"
     inkscape:zoom="0.20348962"
     inkscape:cx="1213.8302"
     inkscape:cy="753.25194"
     inkscape:document-units="px"
     inkscape:current-layer="layer1"
     showgrid="false"
     inkscape:window-width="1366"
     inkscape:window-height="705"
     inkscape:window-x="-8"
     inkscape:window-y="-8"
     inkscape:window-maximized="1"
     fit-margin-top="0"
     fit-margin-left="0"
     fit-margin-right="0"
     fit-margin-bottom="0"
     inkscape:object-nodes="true"
     inkscape:object-paths="false" />
  <metadata
     id="metadata2999">
    <rdf:RDF>
      <cc:Work
         rdf:about="">
        <dc:format>image/svg+xml</dc:format>
        <dc:type
           rdf:resource="http://purl.org/dc/dcmitype/StillImage" />
        <dc:title></dc:title>
      </cc:Work>
    </rdf:RDF>
  </metadata>
  <g
     inkscape:label="Livello 1"
     inkscape:groupmode="layer"
     id="layer1"
     transform="translate(-398.66428,1379.0941)">
    <rect
       style="fill:#989898;fill-opacity:1;stroke:none"
       id="rect6590"
       width="1390"
       height="1700"
       x="398.66428"
       y="-1379.0941"
       inkscape:export-filename="C:\Users\utente\Desktop\CANC okk.png"
       inkscape:export-xdpi="90"
       inkscape:export-ydpi="90" />
    <rect
       style="fill:#ffffff;fill-opacity:1;stroke:none"
       id="rect8024"
       width="442.97055"
       height="50"
       x="1087.6643"
       y="-1069.0941" />
    <path
       style="fill:#d0d0d0;fill-opacity:1;stroke:none"
       d="m 398.66419,-1079.0941 220,0 c 55.4,0 100,44.6 100,99.99999 l 0,1300.00005 0,0 -320,0 0,0 0,-1400.00004 z"
       id="rect6579"
       inkscape:connector-curvature="0"
       sodipodi:nodetypes="csscccccc" />
    <rect
       style="fill:#646464;fill-opacity:1;stroke:none"
       id="rect6537"
       width="170"
       height="1250"
       x="398.66428"
       y="-929.09412" />
    <path
       sodipodi:nodetypes="csscccccc"
       inkscape:connector-curvature="0"
       id="path6586"
       d="m 1788.6643,-1079.0941 -220,0 c -55.4,0 -100,44.6 -100,99.99999 l 0,1300.00005 0,0 320,0 0,0 0,-1400.00004 z"
       style="fill:#d0d0d0;fill-opacity:1;stroke:none" />
    <rect
       y="-929.09412"
       x="-1788.6643"
       height="1250"
       width="170"
       id="rect6588"
       style="fill:#646464;fill-opacity:1;stroke:none"
       transform="scale(-1,1)" />
    <g
       id="g6626"
       style="font-size:131.12480164px;font-style:normal;font-weight:normal;line-height:125%;letter-spacing:0px;word-spacing:0px;fill:#ffffff;fill-opacity:1;stroke:none;font-family:Sans"
       transform="matrix(0.59496453,0,0,1.6807725,14319.557,-6269.9428)">
      <path
         id="path6628"
         style="font-variant:normal;font-stretch:normal;fill:#ffffff;fill-opacity:1;font-family:CodiceBianco;-inkscape-font-specification:CodiceBianco"
         d="m -22052.902,3182.0403 c 15.999,10e-5 29.592,5.0274 40.781,15.082 l -13.638,11.6687 c -2.71,-2.3608 -6.076,-4.459 -10.096,-6.2945 -4.983,-2.3609 -9.79,-3.5414 -14.422,-3.5414 -2.537,0 -4.942,0.3935 -7.214,1.1804 -5.333,1.7502 -7.781,5.1155 -7.343,10.0961 0.176,2.0116 1.924,3.6736 5.246,4.986 2.971,1.2219 8.915,2.7945 17.831,4.7179 18.709,4.023 28.063,13.2454 28.063,27.6672 0,8.8302 -3.475,15.9331 -10.424,21.3085 -6.95,5.3755 -16.413,8.0633 -28.391,8.0633 -9.965,0 -19.448,-2.6664 -28.452,-7.9992 -5.682,-3.2333 -10.447,-7.0349 -14.294,-11.4046 l 15.999,-12.0649 c 1.486,2.273 4.546,4.7206 9.179,7.343 6.206,3.4974 12.629,5.2901 19.272,5.3781 4.546,0.085 8.218,-0.8116 11.017,-2.691 2.798,-1.8794 4.197,-4.3051 4.197,-7.277 0,-3.4093 -2.186,-6.0757 -6.558,-7.9992 -2.711,-1.2218 -7.519,-2.5543 -14.424,-3.9976 -6.906,-1.4432 -11.581,-2.7331 -14.028,-3.8696 -4.284,-1.9234 -7.257,-3.628 -8.919,-5.114 -4.632,-4.1083 -6.947,-9.5278 -6.947,-16.2586 0,-9.8785 3.627,-17.3962 10.88,-22.5531 6.032,-4.2843 13.594,-6.4264 22.685,-6.4265 z"
         inkscape:connector-curvature="0" />
      <path
         id="path6630"
         style="font-variant:normal;font-stretch:normal;fill:#ffffff;fill-opacity:1;font-family:CodiceBianco;-inkscape-font-specification:CodiceBianco"
         d="m -21929.148,3182.5645 0,16.9148 -28.715,0 0,75.3983 -19.144,0 0,-75.5264 -28.716,0 0,-16.7867 z"
         inkscape:connector-curvature="0" />
      <path
         id="path6632"
         style="font-variant:normal;font-stretch:normal;fill:#ffffff;fill-opacity:1;font-family:CodiceBianco;-inkscape-font-specification:CodiceBianco"
         d="m -21830.98,3228.1988 c 0,14.7714 -4.239,26.5721 -12.717,35.4023 -8.129,8.3927 -18.619,12.5891 -31.469,12.5891 -12.851,0 -23.298,-4.1964 -31.341,-12.5891 -8.478,-8.8302 -12.717,-20.6309 -12.717,-35.4023 0,-14.4244 4.677,-26.0077 14.03,-34.75 8.393,-7.779 18.402,-11.6686 30.028,-11.6686 11.626,0 21.635,3.8896 30.028,11.6686 9.438,8.7423 14.158,20.3256 14.158,34.75 z m -20.192,0 c 0,-8.654 -2.207,-15.5602 -6.621,-20.7183 -4.414,-5.158 -10.205,-7.737 -17.373,-7.7371 -7.168,1e-4 -12.916,2.5791 -17.243,7.7371 -4.327,5.1581 -6.491,12.0643 -6.491,20.7183 0,9.0037 1.836,16.0399 5.507,21.1085 4.108,5.7704 10.184,8.6556 18.227,8.6555 8.128,1e-4 14.247,-2.8851 18.355,-8.6555 3.759,-5.1567 5.638,-12.1928 5.639,-21.1085 z"
         inkscape:connector-curvature="0" />
      <path
         id="path6634"
         style="font-variant:normal;font-stretch:normal;fill:#ffffff;fill-opacity:1;font-family:CodiceBianco;-inkscape-font-specification:CodiceBianco"
         d="m -21774.394,3182.6965 c 7.78,1e-4 14.685,2.7546 20.717,8.2633 6.469,6.0319 9.704,13.5056 9.704,22.4211 0,8.5662 -3.279,15.7784 -9.836,21.6367 -6.032,5.5062 -12.893,8.2594 -20.585,8.2593 l -21.112,0 0,31.7328 -19.404,0 0,-92.3132 z m -21.112,16.3906 0,27.275 19.8,0 c 3.148,1e-4 5.989,-1.3985 8.523,-4.1957 2.535,-2.7971 3.802,-5.7696 3.802,-8.9176 0,-3.9322 -1.398,-7.3415 -4.194,-10.2281 -2.534,-2.6223 -5.245,-3.9335 -8.131,-3.9336 z"
         inkscape:connector-curvature="0" />
    </g>
    <path
       style="fill:none;stroke:#5a5a5a;stroke-width:5;stroke-miterlimit:4;stroke-opacity:1;stroke-dasharray:none"
       d="m 1841.6973,-1079.0941 -273.033,0 c -55.4,0 -100,44.6 -100,99.99999 l 0,1338.00005"
       id="path7175"
       inkscape:connector-curvature="0"
       sodipodi:nodetypes="cssc" />
    <path
       sodipodi:nodetypes="cssc"
       inkscape:connector-curvature="0"
       id="path7177"
       d="m 346.66419,-1079.0941 272,0 c 55.4,0 100,44.6 100,99.99999 l 0,1332.00005"
       style="fill:none;stroke:#5a5a5a;stroke-width:5;stroke-miterlimit:4;stroke-opacity:1;stroke-dasharray:none" />
    <path
       style="fill:#000000;fill-opacity:1;stroke:none"
       d="m 1540.6175,-1018.1261 c -4.1421,0 -7.5,3.3579 -7.5,7.5 0,1.9175 0.7224,3.674 1.9062,5 l -39.4062,0 0,10.00003 90,0 0,-10.00003 -39.4062,0 c 1.1838,-1.326 1.9062,-3.0825 1.9062,-5 0,-4.1421 -3.3579,-7.5 -7.5,-7.5 z"
       id="rect7183"
       inkscape:connector-curvature="0" />
    <rect
       style="fill:#ffffff;fill-opacity:1;stroke:none"
       id="rect8540"
       width="50"
       height="250"
       x="768.66431"
       y="-519.09412" />
    <rect
       y="-519.09412"
       x="868.66382"
       height="250"
       width="50"
       id="rect8542"
       style="fill:#ffffff;fill-opacity:1;stroke:none" />
    <rect
       y="-519.09412"
       x="968.66382"
       height="250"
       width="50"
       id="rect8544"
       style="fill:#ffffff;fill-opacity:1;stroke:none" />
    <rect
       style="fill:#ffffff;fill-opacity:1;stroke:none"
       id="rect8546"
       width="50"
       height="250"
       x="1068.6636"
       y="-519.09412" />
    <rect
       style="fill:#ffffff;fill-opacity:1;stroke:none"
       id="rect8548"
       width="50"
       height="250"
       x="1168.6641"
       y="-519.09412" />
    <rect
       y="-519.09412"
       x="1268.6633"
       height="250"
       width="50"
       id="rect8550"
       style="fill:#ffffff;fill-opacity:1;stroke:none" />
    <rect
       y="-519.09412"
       x="1368.6638"
       height="250"
       width="50"
       id="rect8552"
       style="fill:#ffffff;fill-opacity:1;stroke:none" />
    <rect
       style="fill:#ffffff;fill-opacity:1;stroke:none"
       id="rect8560"
       width="12"
       height="594.2085"
       x="1087.6643"
       y="-239.0946" />
    <rect
       y="-1034.599"
       x="1087.6643"
       height="485.50488"
       width="12"
       id="rect8562"
       style="fill:#ffffff;fill-opacity:1;stroke:none" />
    <path
       style="fill:none;stroke:#3c3c3c;stroke-width:7;stroke-miterlimit:4;stroke-opacity:1;stroke-dasharray:none"
       d="m 359.69504,-1069.0945 259.39171,0 c 42.5466,0 89.5774,35.6886 89.5774,90.08744 l 0,435.17219"
       id="path8619"
       inkscape:connector-curvature="0"
       sodipodi:nodetypes="cssc" />
    <path
       sodipodi:type="arc"
       style="fill:none;stroke:#3c3c3c;stroke-width:11.28508091;stroke-miterlimit:4;stroke-opacity:1;stroke-dasharray:none"
       id="path8621"
       sodipodi:cx="470.19788"
       sodipodi:cy="430.23648"
       sodipodi:rx="5.8638997"
       sodipodi:ry="5.4295368"
       d="m 476.06178,430.23648 c 0,2.99865 -2.62536,5.42954 -5.8639,5.42954 -3.23855,0 -5.8639,-2.43089 -5.8639,-5.42954 0,-2.99865 2.62535,-5.42954 5.8639,-5.42954 3.23854,0 5.8639,2.43089 5.8639,5.42954 z"
       transform="matrix(0.68213991,0,0,0.73671107,387.92341,-864.79485)" />
    <path
       transform="matrix(0.68213991,0,0,0.73671107,387.92341,-1064.7945)"
       d="m 476.06178,430.23648 c 0,2.99865 -2.62536,5.42954 -5.8639,5.42954 -3.23855,0 -5.8639,-2.43089 -5.8639,-5.42954 0,-2.99865 2.62535,-5.42954 5.8639,-5.42954 3.23854,0 5.8639,2.43089 5.8639,5.42954 z"
       sodipodi:ry="5.4295368"
       sodipodi:rx="5.8638997"
       sodipodi:cy="430.23648"
       sodipodi:cx="470.19788"
       id="path8623"
       style="fill:none;stroke:#3c3c3c;stroke-width:11.28508091;stroke-miterlimit:4;stroke-opacity:1;stroke-dasharray:none"
       sodipodi:type="arc" />
    <path
       sodipodi:type="arc"
       style="fill:none;stroke:#3c3c3c;stroke-width:11.28508091;stroke-miterlimit:4;stroke-opacity:1;stroke-dasharray:none"
       id="path8625"
       sodipodi:cx="470.19788"
       sodipodi:cy="430.23648"
       sodipodi:rx="5.8638997"
       sodipodi:ry="5.4295368"
       d="m 476.06178,430.23648 c 0,2.99865 -2.62536,5.42954 -5.8639,5.42954 -3.23855,0 -5.8639,-2.43089 -5.8639,-5.42954 0,-2.99865 2.62535,-5.42954 5.8639,-5.42954 3.23854,0 5.8639,2.43089 5.8639,5.42954 z"
       transform="matrix(0.68213991,0,0,0.73671107,387.92341,-1264.7945)" />
    <path
       transform="matrix(0.68213991,0,0,0.73671107,387.92341,-964.79451)"
       d="m 476.06178,430.23648 c 0,2.99865 -2.62536,5.42954 -5.8639,5.42954 -3.23855,0 -5.8639,-2.43089 -5.8639,-5.42954 0,-2.99865 2.62535,-5.42954 5.8639,-5.42954 3.23854,0 5.8639,2.43089 5.8639,5.42954 z"
       sodipodi:ry="5.4295368"
       sodipodi:rx="5.8638997"
       sodipodi:cy="430.23648"
       sodipodi:cx="470.19788"
       id="path8629"
       style="fill:none;stroke:#3c3c3c;stroke-width:11.28508091;stroke-miterlimit:4;stroke-opacity:1;stroke-dasharray:none"
       sodipodi:type="arc" />
    <path
       sodipodi:type="arc"
       style="fill:none;stroke:#3c3c3c;stroke-width:11.28508091;stroke-miterlimit:4;stroke-opacity:1;stroke-dasharray:none"
       id="path8631"
       sodipodi:cx="470.19788"
       sodipodi:cy="430.23648"
       sodipodi:rx="5.8638997"
       sodipodi:ry="5.4295368"
       d="m 476.06178,430.23648 c 0,2.99865 -2.62536,5.42954 -5.8639,5.42954 -3.23855,0 -5.8639,-2.43089 -5.8639,-5.42954 0,-2.99865 2.62535,-5.42954 5.8639,-5.42954 3.23854,0 5.8639,2.43089 5.8639,5.42954 z"
       transform="matrix(0.68213991,0,0,0.73671107,387.92341,-1164.7945)" />
    <path
       sodipodi:type="arc"
       style="fill:none;stroke:#3c3c3c;stroke-width:11.28508091;stroke-miterlimit:4;stroke-opacity:1;stroke-dasharray:none"
       id="path8625-1"
       sodipodi:cx="470.19788"
       sodipodi:cy="430.23648"
       sodipodi:rx="5.8638997"
       sodipodi:ry="5.4295368"
       d="m 476.06178,430.23648 c 0,2.99865 -2.62536,5.42954 -5.8639,5.42954 -3.23855,0 -5.8639,-2.43089 -5.8639,-5.42954 0,-2.99865 2.62535,-5.42954 5.8639,-5.42954 3.23854,0 5.8639,2.43089 5.8639,5.42954 z"
       transform="matrix(0,0.68213991,-0.73671107,0,899.39061,-1389.8352)" />
    <path
       sodipodi:type="arc"
       style="fill:none;stroke:#3c3c3c;stroke-width:11.28508091;stroke-miterlimit:4;stroke-opacity:1;stroke-dasharray:none"
       id="path8631-3"
       sodipodi:cx="470.19788"
       sodipodi:cy="430.23648"
       sodipodi:rx="5.8638997"
       sodipodi:ry="5.4295368"
       d="m 476.06178,430.23648 c 0,2.99865 -2.62536,5.42954 -5.8639,5.42954 -3.23855,0 -5.8639,-2.43089 -5.8639,-5.42954 0,-2.99865 2.62535,-5.42954 5.8639,-5.42954 3.23854,0 5.8639,2.43089 5.8639,5.42954 z"
       transform="matrix(0,0.68213991,-0.73671107,0,799.39061,-1389.8352)" />
    <path
       transform="matrix(0,0.68213991,-0.73671107,0,1000.4735,-1361.4868)"
       d="m 476.06178,430.23648 c 0,2.99865 -2.62536,5.42954 -5.8639,5.42954 -3.23855,0 -5.8639,-2.43089 -5.8639,-5.42954 0,-2.99865 2.62535,-5.42954 5.8639,-5.42954 3.23854,0 5.8639,2.43089 5.8639,5.42954 z"
       sodipodi:ry="5.4295368"
       sodipodi:rx="5.8638997"
       sodipodi:cy="430.23648"
       sodipodi:cx="470.19788"
       id="path8623-6-8"
       style="fill:none;stroke:#3c3c3c;stroke-width:11.28508091;stroke-miterlimit:4;stroke-opacity:1;stroke-dasharray:none"
       sodipodi:type="arc" />
    <path
       sodipodi:nodetypes="cssc"
       inkscape:connector-curvature="0"
       id="path8688"
       d="m 1827.5759,-1069.0945 -259.3917,0 c -42.5466,0 -89.5774,35.6886 -89.5774,90.08744 l 0,435.17219"
       style="fill:none;stroke:#3c3c3c;stroke-width:7;stroke-miterlimit:4;stroke-opacity:1;stroke-dasharray:none" />
    <path
       transform="matrix(-0.68213991,0,0,0.73671107,1799.3476,-864.79485)"
       d="m 476.06178,430.23648 c 0,2.99865 -2.62536,5.42954 -5.8639,5.42954 -3.23855,0 -5.8639,-2.43089 -5.8639,-5.42954 0,-2.99865 2.62535,-5.42954 5.8639,-5.42954 3.23854,0 5.8639,2.43089 5.8639,5.42954 z"
       sodipodi:ry="5.4295368"
       sodipodi:rx="5.8638997"
       sodipodi:cy="430.23648"
       sodipodi:cx="470.19788"
       id="path8690"
       style="fill:none;stroke:#3c3c3c;stroke-width:11.28508091;stroke-miterlimit:4;stroke-opacity:1;stroke-dasharray:none"
       sodipodi:type="arc" />
    <path
       sodipodi:type="arc"
       style="fill:none;stroke:#3c3c3c;stroke-width:11.28508091;stroke-miterlimit:4;stroke-opacity:1;stroke-dasharray:none"
       id="path8692"
       sodipodi:cx="470.19788"
       sodipodi:cy="430.23648"
       sodipodi:rx="5.8638997"
       sodipodi:ry="5.4295368"
       d="m 476.06178,430.23648 c 0,2.99865 -2.62536,5.42954 -5.8639,5.42954 -3.23855,0 -5.8639,-2.43089 -5.8639,-5.42954 0,-2.99865 2.62535,-5.42954 5.8639,-5.42954 3.23854,0 5.8639,2.43089 5.8639,5.42954 z"
       transform="matrix(-0.68213991,0,0,0.73671107,1799.3476,-1064.7945)" />
    <path
       transform="matrix(-0.68213991,0,0,0.73671107,1799.3476,-1264.7945)"
       d="m 476.06178,430.23648 c 0,2.99865 -2.62536,5.42954 -5.8639,5.42954 -3.23855,0 -5.8639,-2.43089 -5.8639,-5.42954 0,-2.99865 2.62535,-5.42954 5.8639,-5.42954 3.23854,0 5.8639,2.43089 5.8639,5.42954 z"
       sodipodi:ry="5.4295368"
       sodipodi:rx="5.8638997"
       sodipodi:cy="430.23648"
       sodipodi:cx="470.19788"
       id="path8694"
       style="fill:none;stroke:#3c3c3c;stroke-width:11.28508091;stroke-miterlimit:4;stroke-opacity:1;stroke-dasharray:none"
       sodipodi:type="arc" />
    <path
       sodipodi:type="arc"
       style="fill:none;stroke:#3c3c3c;stroke-width:11.28508091;stroke-miterlimit:4;stroke-opacity:1;stroke-dasharray:none"
       id="path8696"
       sodipodi:cx="470.19788"
       sodipodi:cy="430.23648"
       sodipodi:rx="5.8638997"
       sodipodi:ry="5.4295368"
       d="m 476.06178,430.23648 c 0,2.99865 -2.62536,5.42954 -5.8639,5.42954 -3.23855,0 -5.8639,-2.43089 -5.8639,-5.42954 0,-2.99865 2.62535,-5.42954 5.8639,-5.42954 3.23854,0 5.8639,2.43089 5.8639,5.42954 z"
       transform="matrix(-0.68213991,0,0,0.73671107,1799.3476,-964.79451)" />
    <path
       transform="matrix(-0.68213991,0,0,0.73671107,1799.3476,-1164.7945)"
       d="m 476.06178,430.23648 c 0,2.99865 -2.62536,5.42954 -5.8639,5.42954 -3.23855,0 -5.8639,-2.43089 -5.8639,-5.42954 0,-2.99865 2.62535,-5.42954 5.8639,-5.42954 3.23854,0 5.8639,2.43089 5.8639,5.42954 z"
       sodipodi:ry="5.4295368"
       sodipodi:rx="5.8638997"
       sodipodi:cy="430.23648"
       sodipodi:cx="470.19788"
       id="path8698"
       style="fill:none;stroke:#3c3c3c;stroke-width:11.28508091;stroke-miterlimit:4;stroke-opacity:1;stroke-dasharray:none"
       sodipodi:type="arc" />
    <path
       transform="matrix(0,0.68213991,0.73671107,0,1287.8804,-1389.8352)"
       d="m 476.06178,430.23648 c 0,2.99865 -2.62536,5.42954 -5.8639,5.42954 -3.23855,0 -5.8639,-2.43089 -5.8639,-5.42954 0,-2.99865 2.62535,-5.42954 5.8639,-5.42954 3.23854,0 5.8639,2.43089 5.8639,5.42954 z"
       sodipodi:ry="5.4295368"
       sodipodi:rx="5.8638997"
       sodipodi:cy="430.23648"
       sodipodi:cx="470.19788"
       id="path8700"
       style="fill:none;stroke:#3c3c3c;stroke-width:11.28508091;stroke-miterlimit:4;stroke-opacity:1;stroke-dasharray:none"
       sodipodi:type="arc" />
    <path
       transform="matrix(0,0.68213991,0.73671107,0,1387.8804,-1389.8352)"
       d="m 476.06178,430.23648 c 0,2.99865 -2.62536,5.42954 -5.8639,5.42954 -3.23855,0 -5.8639,-2.43089 -5.8639,-5.42954 0,-2.99865 2.62535,-5.42954 5.8639,-5.42954 3.23854,0 5.8639,2.43089 5.8639,5.42954 z"
       sodipodi:ry="5.4295368"
       sodipodi:rx="5.8638997"
       sodipodi:cy="430.23648"
       sodipodi:cx="470.19788"
       id="path8702"
       style="fill:none;stroke:#3c3c3c;stroke-width:11.28508091;stroke-miterlimit:4;stroke-opacity:1;stroke-dasharray:none"
       sodipodi:type="arc" />
    <path
       sodipodi:type="arc"
       style="fill:none;stroke:#3c3c3c;stroke-width:11.28508091;stroke-miterlimit:4;stroke-opacity:1;stroke-dasharray:none"
       id="path8704"
       sodipodi:cx="470.19788"
       sodipodi:cy="430.23648"
       sodipodi:rx="5.8638997"
       sodipodi:ry="5.4295368"
       d="m 476.06178,430.23648 c 0,2.99865 -2.62536,5.42954 -5.8639,5.42954 -3.23855,0 -5.8639,-2.43089 -5.8639,-5.42954 0,-2.99865 2.62535,-5.42954 5.8639,-5.42954 3.23854,0 5.8639,2.43089 5.8639,5.42954 z"
       transform="matrix(0,0.68213991,0.73671107,0,1186.7975,-1361.4868)" />
  </g>
</svg>
