<?xml version="1.0" encoding="UTF-8" standalone="no"?>
<!-- Created with Inkscape (http://www.inkscape.org/) -->

<svg
   xmlns:dc="http://purl.org/dc/elements/1.1/"
   xmlns:cc="http://creativecommons.org/ns#"
   xmlns:rdf="http://www.w3.org/1999/02/22-rdf-syntax-ns#"
   xmlns:svg="http://www.w3.org/2000/svg"
   xmlns="http://www.w3.org/2000/svg"
   xmlns:sodipodi="http://sodipodi.sourceforge.net/DTD/sodipodi-0.dtd"
   xmlns:inkscape="http://www.inkscape.org/namespaces/inkscape"
   version="1.1"
   width="200"
   height="200"
   id="svg2"
   inkscape:version="0.47 r22583"
   sodipodi:docname="Italian traffic signs - icona parco zoo.svg"
   sodipodi:version="0.32"
   inkscape:output_extension="org.inkscape.output.svg.inkscape">
  <metadata
     id="metadata2877">
    <rdf:RDF>
      <cc:Work
         rdf:about="">
        <dc:format>image/svg+xml</dc:format>
        <dc:type
           rdf:resource="http://purl.org/dc/dcmitype/StillImage" />
        <dc:title></dc:title>
      </cc:Work>
    </rdf:RDF>
  </metadata>
  <sodipodi:namedview
     pagecolor="#ffffff"
     bordercolor="#666666"
     borderopacity="1"
     objecttolerance="10"
     gridtolerance="10"
     guidetolerance="10"
     inkscape:pageopacity="0"
     inkscape:pageshadow="2"
     inkscape:window-width="1600"
     inkscape:window-height="838"
     id="namedview2875"
     showgrid="false"
     inkscape:zoom="2.3765092"
     inkscape:cx="130.20913"
     inkscape:cy="113.34438"
     inkscape:window-x="-8"
     inkscape:window-y="-8"
     inkscape:window-maximized="1"
     inkscape:current-layer="svg2" />
  <defs
     id="defs4">
    <inkscape:perspective
       sodipodi:type="inkscape:persp3d"
       inkscape:vp_x="0 : 100 : 1"
       inkscape:vp_y="0 : 1000 : 0"
       inkscape:vp_z="200 : 100 : 1"
       inkscape:persp3d-origin="100 : 66.666667 : 1"
       id="perspective2879" />
    <inkscape:perspective
       id="perspective2839"
       inkscape:persp3d-origin="0.5 : 0.33333333 : 1"
       inkscape:vp_z="1 : 0.5 : 1"
       inkscape:vp_y="0 : 1000 : 0"
       inkscape:vp_x="0 : 0.5 : 1"
       sodipodi:type="inkscape:persp3d" />
    <inkscape:perspective
       id="perspective3649"
       inkscape:persp3d-origin="0.5 : 0.33333333 : 1"
       inkscape:vp_z="1 : 0.5 : 1"
       inkscape:vp_y="0 : 1000 : 0"
       inkscape:vp_x="0 : 0.5 : 1"
       sodipodi:type="inkscape:persp3d" />
    <inkscape:perspective
       id="perspective3679"
       inkscape:persp3d-origin="0.5 : 0.33333333 : 1"
       inkscape:vp_z="1 : 0.5 : 1"
       inkscape:vp_y="0 : 1000 : 0"
       inkscape:vp_x="0 : 0.5 : 1"
       sodipodi:type="inkscape:persp3d" />
    <inkscape:perspective
       id="perspective3713"
       inkscape:persp3d-origin="0.5 : 0.33333333 : 1"
       inkscape:vp_z="1 : 0.5 : 1"
       inkscape:vp_y="0 : 1000 : 0"
       inkscape:vp_x="0 : 0.5 : 1"
       sodipodi:type="inkscape:persp3d" />
    <inkscape:perspective
       id="perspective3741"
       inkscape:persp3d-origin="0.5 : 0.33333333 : 1"
       inkscape:vp_z="1 : 0.5 : 1"
       inkscape:vp_y="0 : 1000 : 0"
       inkscape:vp_x="0 : 0.5 : 1"
       sodipodi:type="inkscape:persp3d" />
    <inkscape:perspective
       id="perspective3765"
       inkscape:persp3d-origin="0.5 : 0.33333333 : 1"
       inkscape:vp_z="1 : 0.5 : 1"
       inkscape:vp_y="0 : 1000 : 0"
       inkscape:vp_x="0 : 0.5 : 1"
       sodipodi:type="inkscape:persp3d" />
    <inkscape:perspective
       id="perspective3801"
       inkscape:persp3d-origin="0.5 : 0.33333333 : 1"
       inkscape:vp_z="1 : 0.5 : 1"
       inkscape:vp_y="0 : 1000 : 0"
       inkscape:vp_x="0 : 0.5 : 1"
       sodipodi:type="inkscape:persp3d" />
    <inkscape:perspective
       id="perspective2863"
       inkscape:persp3d-origin="0.5 : 0.33333333 : 1"
       inkscape:vp_z="1 : 0.5 : 1"
       inkscape:vp_y="0 : 1000 : 0"
       inkscape:vp_x="0 : 0.5 : 1"
       sodipodi:type="inkscape:persp3d" />
    <inkscape:perspective
       id="perspective3859"
       inkscape:persp3d-origin="0.5 : 0.33333333 : 1"
       inkscape:vp_z="1 : 0.5 : 1"
       inkscape:vp_y="0 : 1000 : 0"
       inkscape:vp_x="0 : 0.5 : 1"
       sodipodi:type="inkscape:persp3d" />
    <inkscape:perspective
       id="perspective3964"
       inkscape:persp3d-origin="0.5 : 0.33333333 : 1"
       inkscape:vp_z="1 : 0.5 : 1"
       inkscape:vp_y="0 : 1000 : 0"
       inkscape:vp_x="0 : 0.5 : 1"
       sodipodi:type="inkscape:persp3d" />
    <inkscape:perspective
       id="perspective3988"
       inkscape:persp3d-origin="0.5 : 0.33333333 : 1"
       inkscape:vp_z="1 : 0.5 : 1"
       inkscape:vp_y="0 : 1000 : 0"
       inkscape:vp_x="0 : 0.5 : 1"
       sodipodi:type="inkscape:persp3d" />
    <inkscape:perspective
       id="perspective2879-7"
       inkscape:persp3d-origin="0.5 : 0.33333333 : 1"
       inkscape:vp_z="1 : 0.5 : 1"
       inkscape:vp_y="0 : 1000 : 0"
       inkscape:vp_x="0 : 0.5 : 1"
       sodipodi:type="inkscape:persp3d" />
    <inkscape:perspective
       id="perspective4031"
       inkscape:persp3d-origin="0.5 : 0.33333333 : 1"
       inkscape:vp_z="1 : 0.5 : 1"
       inkscape:vp_y="0 : 1000 : 0"
       inkscape:vp_x="0 : 0.5 : 1"
       sodipodi:type="inkscape:persp3d" />
    <inkscape:perspective
       id="perspective4047"
       inkscape:persp3d-origin="0.5 : 0.33333333 : 1"
       inkscape:vp_z="1 : 0.5 : 1"
       inkscape:vp_y="0 : 1000 : 0"
       inkscape:vp_x="0 : 0.5 : 1"
       sodipodi:type="inkscape:persp3d" />
    <inkscape:perspective
       id="perspective4063"
       inkscape:persp3d-origin="0.5 : 0.33333333 : 1"
       inkscape:vp_z="1 : 0.5 : 1"
       inkscape:vp_y="0 : 1000 : 0"
       inkscape:vp_x="0 : 0.5 : 1"
       sodipodi:type="inkscape:persp3d" />
    <inkscape:perspective
       id="perspective4079"
       inkscape:persp3d-origin="0.5 : 0.33333333 : 1"
       inkscape:vp_z="1 : 0.5 : 1"
       inkscape:vp_y="0 : 1000 : 0"
       inkscape:vp_x="0 : 0.5 : 1"
       sodipodi:type="inkscape:persp3d" />
    <inkscape:perspective
       id="perspective4097"
       inkscape:persp3d-origin="0.5 : 0.33333333 : 1"
       inkscape:vp_z="1 : 0.5 : 1"
       inkscape:vp_y="0 : 1000 : 0"
       inkscape:vp_x="0 : 0.5 : 1"
       sodipodi:type="inkscape:persp3d" />
    <inkscape:perspective
       id="perspective4115"
       inkscape:persp3d-origin="0.5 : 0.33333333 : 1"
       inkscape:vp_z="1 : 0.5 : 1"
       inkscape:vp_y="0 : 1000 : 0"
       inkscape:vp_x="0 : 0.5 : 1"
       sodipodi:type="inkscape:persp3d" />
    <inkscape:perspective
       id="perspective4129"
       inkscape:persp3d-origin="0.5 : 0.33333333 : 1"
       inkscape:vp_z="1 : 0.5 : 1"
       inkscape:vp_y="0 : 1000 : 0"
       inkscape:vp_x="0 : 0.5 : 1"
       sodipodi:type="inkscape:persp3d" />
    <inkscape:perspective
       id="perspective4153"
       inkscape:persp3d-origin="0.5 : 0.33333333 : 1"
       inkscape:vp_z="1 : 0.5 : 1"
       inkscape:vp_y="0 : 1000 : 0"
       inkscape:vp_x="0 : 0.5 : 1"
       sodipodi:type="inkscape:persp3d" />
    <inkscape:perspective
       id="perspective4179"
       inkscape:persp3d-origin="0.5 : 0.33333333 : 1"
       inkscape:vp_z="1 : 0.5 : 1"
       inkscape:vp_y="0 : 1000 : 0"
       inkscape:vp_x="0 : 0.5 : 1"
       sodipodi:type="inkscape:persp3d" />
    <inkscape:perspective
       id="perspective4195"
       inkscape:persp3d-origin="0.5 : 0.33333333 : 1"
       inkscape:vp_z="1 : 0.5 : 1"
       inkscape:vp_y="0 : 1000 : 0"
       inkscape:vp_x="0 : 0.5 : 1"
       sodipodi:type="inkscape:persp3d" />
    <inkscape:perspective
       id="perspective4213"
       inkscape:persp3d-origin="0.5 : 0.33333333 : 1"
       inkscape:vp_z="1 : 0.5 : 1"
       inkscape:vp_y="0 : 1000 : 0"
       inkscape:vp_x="0 : 0.5 : 1"
       sodipodi:type="inkscape:persp3d" />
    <inkscape:perspective
       id="perspective4267"
       inkscape:persp3d-origin="0.5 : 0.33333333 : 1"
       inkscape:vp_z="1 : 0.5 : 1"
       inkscape:vp_y="0 : 1000 : 0"
       inkscape:vp_x="0 : 0.5 : 1"
       sodipodi:type="inkscape:persp3d" />
    <inkscape:perspective
       id="perspective4283"
       inkscape:persp3d-origin="0.5 : 0.33333333 : 1"
       inkscape:vp_z="1 : 0.5 : 1"
       inkscape:vp_y="0 : 1000 : 0"
       inkscape:vp_x="0 : 0.5 : 1"
       sodipodi:type="inkscape:persp3d" />
    <inkscape:perspective
       id="perspective4314"
       inkscape:persp3d-origin="0.5 : 0.33333333 : 1"
       inkscape:vp_z="1 : 0.5 : 1"
       inkscape:vp_y="0 : 1000 : 0"
       inkscape:vp_x="0 : 0.5 : 1"
       sodipodi:type="inkscape:persp3d" />
    <inkscape:perspective
       id="perspective4330"
       inkscape:persp3d-origin="0.5 : 0.33333333 : 1"
       inkscape:vp_z="1 : 0.5 : 1"
       inkscape:vp_y="0 : 1000 : 0"
       inkscape:vp_x="0 : 0.5 : 1"
       sodipodi:type="inkscape:persp3d" />
    <inkscape:perspective
       id="perspective4346"
       inkscape:persp3d-origin="0.5 : 0.33333333 : 1"
       inkscape:vp_z="1 : 0.5 : 1"
       inkscape:vp_y="0 : 1000 : 0"
       inkscape:vp_x="0 : 0.5 : 1"
       sodipodi:type="inkscape:persp3d" />
    <inkscape:perspective
       id="perspective3742"
       inkscape:persp3d-origin="0.5 : 0.33333333 : 1"
       inkscape:vp_z="1 : 0.5 : 1"
       inkscape:vp_y="0 : 1000 : 0"
       inkscape:vp_x="0 : 0.5 : 1"
       sodipodi:type="inkscape:persp3d" />
    <inkscape:perspective
       id="perspective3776"
       inkscape:persp3d-origin="0.5 : 0.33333333 : 1"
       inkscape:vp_z="1 : 0.5 : 1"
       inkscape:vp_y="0 : 1000 : 0"
       inkscape:vp_x="0 : 0.5 : 1"
       sodipodi:type="inkscape:persp3d" />
    <inkscape:perspective
       id="perspective3792"
       inkscape:persp3d-origin="0.5 : 0.33333333 : 1"
       inkscape:vp_z="1 : 0.5 : 1"
       inkscape:vp_y="0 : 1000 : 0"
       inkscape:vp_x="0 : 0.5 : 1"
       sodipodi:type="inkscape:persp3d" />
    <inkscape:perspective
       id="perspective3808"
       inkscape:persp3d-origin="0.5 : 0.33333333 : 1"
       inkscape:vp_z="1 : 0.5 : 1"
       inkscape:vp_y="0 : 1000 : 0"
       inkscape:vp_x="0 : 0.5 : 1"
       sodipodi:type="inkscape:persp3d" />
    <inkscape:perspective
       id="perspective3824"
       inkscape:persp3d-origin="0.5 : 0.33333333 : 1"
       inkscape:vp_z="1 : 0.5 : 1"
       inkscape:vp_y="0 : 1000 : 0"
       inkscape:vp_x="0 : 0.5 : 1"
       sodipodi:type="inkscape:persp3d" />
    <inkscape:perspective
       id="perspective4354"
       inkscape:persp3d-origin="0.5 : 0.33333333 : 1"
       inkscape:vp_z="1 : 0.5 : 1"
       inkscape:vp_y="0 : 1000 : 0"
       inkscape:vp_x="0 : 0.5 : 1"
       sodipodi:type="inkscape:persp3d" />
    <inkscape:perspective
       id="perspective4395"
       inkscape:persp3d-origin="0.5 : 0.33333333 : 1"
       inkscape:vp_z="1 : 0.5 : 1"
       inkscape:vp_y="0 : 1000 : 0"
       inkscape:vp_x="0 : 0.5 : 1"
       sodipodi:type="inkscape:persp3d" />
    <inkscape:perspective
       id="perspective4435"
       inkscape:persp3d-origin="0.5 : 0.33333333 : 1"
       inkscape:vp_z="1 : 0.5 : 1"
       inkscape:vp_y="0 : 1000 : 0"
       inkscape:vp_x="0 : 0.5 : 1"
       sodipodi:type="inkscape:persp3d" />
    <inkscape:perspective
       id="perspective4460"
       inkscape:persp3d-origin="0.5 : 0.33333333 : 1"
       inkscape:vp_z="1 : 0.5 : 1"
       inkscape:vp_y="0 : 1000 : 0"
       inkscape:vp_x="0 : 0.5 : 1"
       sodipodi:type="inkscape:persp3d" />
    <inkscape:perspective
       id="perspective4479"
       inkscape:persp3d-origin="0.5 : 0.33333333 : 1"
       inkscape:vp_z="1 : 0.5 : 1"
       inkscape:vp_y="0 : 1000 : 0"
       inkscape:vp_x="0 : 0.5 : 1"
       sodipodi:type="inkscape:persp3d" />
    <inkscape:perspective
       id="perspective4495"
       inkscape:persp3d-origin="0.5 : 0.33333333 : 1"
       inkscape:vp_z="1 : 0.5 : 1"
       inkscape:vp_y="0 : 1000 : 0"
       inkscape:vp_x="0 : 0.5 : 1"
       sodipodi:type="inkscape:persp3d" />
    <inkscape:perspective
       id="perspective4511"
       inkscape:persp3d-origin="0.5 : 0.33333333 : 1"
       inkscape:vp_z="1 : 0.5 : 1"
       inkscape:vp_y="0 : 1000 : 0"
       inkscape:vp_x="0 : 0.5 : 1"
       sodipodi:type="inkscape:persp3d" />
    <inkscape:perspective
       id="perspective4527"
       inkscape:persp3d-origin="0.5 : 0.33333333 : 1"
       inkscape:vp_z="1 : 0.5 : 1"
       inkscape:vp_y="0 : 1000 : 0"
       inkscape:vp_x="0 : 0.5 : 1"
       sodipodi:type="inkscape:persp3d" />
    <inkscape:perspective
       id="perspective4543"
       inkscape:persp3d-origin="0.5 : 0.33333333 : 1"
       inkscape:vp_z="1 : 0.5 : 1"
       inkscape:vp_y="0 : 1000 : 0"
       inkscape:vp_x="0 : 0.5 : 1"
       sodipodi:type="inkscape:persp3d" />
    <inkscape:perspective
       id="perspective4559"
       inkscape:persp3d-origin="0.5 : 0.33333333 : 1"
       inkscape:vp_z="1 : 0.5 : 1"
       inkscape:vp_y="0 : 1000 : 0"
       inkscape:vp_x="0 : 0.5 : 1"
       sodipodi:type="inkscape:persp3d" />
    <inkscape:perspective
       id="perspective4575"
       inkscape:persp3d-origin="0.5 : 0.33333333 : 1"
       inkscape:vp_z="1 : 0.5 : 1"
       inkscape:vp_y="0 : 1000 : 0"
       inkscape:vp_x="0 : 0.5 : 1"
       sodipodi:type="inkscape:persp3d" />
    <inkscape:perspective
       id="perspective4591"
       inkscape:persp3d-origin="0.5 : 0.33333333 : 1"
       inkscape:vp_z="1 : 0.5 : 1"
       inkscape:vp_y="0 : 1000 : 0"
       inkscape:vp_x="0 : 0.5 : 1"
       sodipodi:type="inkscape:persp3d" />
    <inkscape:perspective
       id="perspective4607"
       inkscape:persp3d-origin="0.5 : 0.33333333 : 1"
       inkscape:vp_z="1 : 0.5 : 1"
       inkscape:vp_y="0 : 1000 : 0"
       inkscape:vp_x="0 : 0.5 : 1"
       sodipodi:type="inkscape:persp3d" />
    <inkscape:perspective
       id="perspective4629"
       inkscape:persp3d-origin="0.5 : 0.33333333 : 1"
       inkscape:vp_z="1 : 0.5 : 1"
       inkscape:vp_y="0 : 1000 : 0"
       inkscape:vp_x="0 : 0.5 : 1"
       sodipodi:type="inkscape:persp3d" />
    <inkscape:perspective
       id="perspective4674"
       inkscape:persp3d-origin="0.5 : 0.33333333 : 1"
       inkscape:vp_z="1 : 0.5 : 1"
       inkscape:vp_y="0 : 1000 : 0"
       inkscape:vp_x="0 : 0.5 : 1"
       sodipodi:type="inkscape:persp3d" />
    <inkscape:perspective
       id="perspective4690"
       inkscape:persp3d-origin="0.5 : 0.33333333 : 1"
       inkscape:vp_z="1 : 0.5 : 1"
       inkscape:vp_y="0 : 1000 : 0"
       inkscape:vp_x="0 : 0.5 : 1"
       sodipodi:type="inkscape:persp3d" />
    <inkscape:perspective
       id="perspective4735"
       inkscape:persp3d-origin="0.5 : 0.33333333 : 1"
       inkscape:vp_z="1 : 0.5 : 1"
       inkscape:vp_y="0 : 1000 : 0"
       inkscape:vp_x="0 : 0.5 : 1"
       sodipodi:type="inkscape:persp3d" />
    <inkscape:perspective
       id="perspective4751"
       inkscape:persp3d-origin="0.5 : 0.33333333 : 1"
       inkscape:vp_z="1 : 0.5 : 1"
       inkscape:vp_y="0 : 1000 : 0"
       inkscape:vp_x="0 : 0.5 : 1"
       sodipodi:type="inkscape:persp3d" />
    <inkscape:perspective
       id="perspective4767"
       inkscape:persp3d-origin="0.5 : 0.33333333 : 1"
       inkscape:vp_z="1 : 0.5 : 1"
       inkscape:vp_y="0 : 1000 : 0"
       inkscape:vp_x="0 : 0.5 : 1"
       sodipodi:type="inkscape:persp3d" />
    <inkscape:perspective
       id="perspective4787"
       inkscape:persp3d-origin="0.5 : 0.33333333 : 1"
       inkscape:vp_z="1 : 0.5 : 1"
       inkscape:vp_y="0 : 1000 : 0"
       inkscape:vp_x="0 : 0.5 : 1"
       sodipodi:type="inkscape:persp3d" />
    <inkscape:perspective
       id="perspective4813"
       inkscape:persp3d-origin="0.5 : 0.33333333 : 1"
       inkscape:vp_z="1 : 0.5 : 1"
       inkscape:vp_y="0 : 1000 : 0"
       inkscape:vp_x="0 : 0.5 : 1"
       sodipodi:type="inkscape:persp3d" />
    <inkscape:perspective
       id="perspective4905"
       inkscape:persp3d-origin="0.5 : 0.33333333 : 1"
       inkscape:vp_z="1 : 0.5 : 1"
       inkscape:vp_y="0 : 1000 : 0"
       inkscape:vp_x="0 : 0.5 : 1"
       sodipodi:type="inkscape:persp3d" />
    <inkscape:perspective
       id="perspective4921"
       inkscape:persp3d-origin="0.5 : 0.33333333 : 1"
       inkscape:vp_z="1 : 0.5 : 1"
       inkscape:vp_y="0 : 1000 : 0"
       inkscape:vp_x="0 : 0.5 : 1"
       sodipodi:type="inkscape:persp3d" />
    <inkscape:perspective
       id="perspective4941"
       inkscape:persp3d-origin="0.5 : 0.33333333 : 1"
       inkscape:vp_z="1 : 0.5 : 1"
       inkscape:vp_y="0 : 1000 : 0"
       inkscape:vp_x="0 : 0.5 : 1"
       sodipodi:type="inkscape:persp3d" />
    <inkscape:perspective
       id="perspective4957"
       inkscape:persp3d-origin="0.5 : 0.33333333 : 1"
       inkscape:vp_z="1 : 0.5 : 1"
       inkscape:vp_y="0 : 1000 : 0"
       inkscape:vp_x="0 : 0.5 : 1"
       sodipodi:type="inkscape:persp3d" />
    <inkscape:perspective
       id="perspective4973"
       inkscape:persp3d-origin="0.5 : 0.33333333 : 1"
       inkscape:vp_z="1 : 0.5 : 1"
       inkscape:vp_y="0 : 1000 : 0"
       inkscape:vp_x="0 : 0.5 : 1"
       sodipodi:type="inkscape:persp3d" />
  </defs>
  <path
     style="fill:#ffffff;fill-opacity:1;stroke:none"
     d="m -4.9305571,-3.438081 207.7153771,0 0,207.348391 -207.7153771,0 0,-207.348391 z"
     id="rect2881" />
  <path
     style="fill:none;stroke:#000000;stroke-width:3.01908374000000010;stroke-miterlimit:4;stroke-opacity:1;fill-opacity:1"
     d="m 21.822154,0.3469825 157.629776,0 c 10.29256,0 18.57863,8.3934701 18.57863,18.8194385 l 0,159.672889 c 0,10.42597 -8.28607,18.81944 -18.57863,18.81944 l -157.629776,0 c -10.292563,0 -18.5786336,-8.39347 -18.5786336,-18.81944 l 0,-159.672889 c 0,-10.4259684 8.2860706,-18.8194385 18.5786336,-18.8194385 z"
     id="rect4614" />
  <path
     style="fill:#000000"
     d="m 55.532491,176.79511 0,-2.54057 -3.538795,-0.38785 c -5.352929,-0.58668 -11.012206,-1.95837 -15.523466,-3.76257 -2.231775,-0.89256 -4.439515,-1.62283 -4.90609,-1.62283 -0.466574,0 -1.769574,1.255 -2.895555,2.78889 -2.048683,2.79087 -6.188368,5.42081 -7.93409,5.04053 -0.668849,-0.1457 -0.459786,-0.78692 0.971918,-2.98102 1.541616,-2.36253 1.851426,-3.41464 2.000759,-6.79449 0.181979,-4.11872 0.09517,-4.36531 -3.052152,-8.6699 -0.924157,-1.26397 -0.916788,-1.27093 0.977796,-0.92229 2.702603,0.49732 6.4368,2.75331 7.855702,4.74598 0.664384,0.93304 1.671614,1.69643 2.23829,1.69643 1.253959,0 16.056166,-7.08459 18.426715,-8.81934 2.313006,-1.69264 6.264142,-3.63721 7.390381,-3.63721 0.508261,0 1.571948,0.50958 2.363743,1.13241 0.899352,0.70743 2.31406,1.13761 3.769654,1.14626 3.297409,0.0196 6.808063,0.91977 10.349157,2.65367 4.652025,2.27787 10.058675,8.60724 7.410009,8.67463 -0.436302,0.0111 -0.332211,0.30322 0.271394,0.76162 0.915914,0.69558 0.897631,0.81837 -0.283103,1.90126 -2.144634,1.96691 -7.150002,4.16426 -12.682927,5.5678 -5.920477,1.50186 -6.70131,1.84452 -10.519856,4.61667 l -2.689484,1.95248 0,-2.54056 z M 74.50043,160.55439 c -0.192466,-0.31142 -0.462297,-0.56621 -0.599625,-0.56621 -0.137328,0 -0.249686,0.25479 -0.249686,0.56621 0,0.31141 0.269832,0.5662 0.599625,0.5662 0.329793,0 0.442151,-0.25479 0.249686,-0.5662 z m 64.26451,-1.39979 0,-2.49427 -2.68949,-0.34975 c -6.10518,-0.79392 -11.82563,-2.13916 -15.78545,-3.71217 -2.31156,-0.91825 -4.59116,-1.66954 -5.06579,-1.66954 -0.47463,0 -2.4474,1.65615 -4.38394,3.68034 -2.91212,3.04393 -3.83736,3.68035 -5.35058,3.68035 -1.00628,0 -1.82959,-0.13286 -1.82959,-0.29524 0,-0.16239 0.70068,-1.35403 1.55707,-2.64809 1.28498,-1.9417 1.59136,-3.10674 1.75335,-6.66728 0.1923,-4.22711 0.15401,-4.36981 -1.89195,-7.05016 l -2.08823,-2.73572 2.17505,0.3939 c 2.67078,0.48368 5.95712,2.5664 7.63894,4.84118 0.69325,0.93767 1.63915,1.70485 2.10199,1.70485 0.46286,0 2.77177,-0.99138 5.13094,-2.20307 2.35917,-1.2117 5.9434,-2.89699 7.96495,-3.74509 2.02155,-0.84811 4.41241,-2.16204 5.31302,-2.91985 4.01484,-3.37826 8.04066,-4.49374 9.95749,-2.75903 0.85623,0.77488 2.46298,1.22362 5.37845,1.5021 6.62735,0.63304 12.58682,3.77376 15.67355,8.26017 1.42307,2.06836 1.5431,2.49532 0.7834,2.78685 -0.80784,0.31 -0.80293,0.41316 0.0494,1.03636 0.84955,0.6212 0.74656,0.8446 -1.00539,2.18088 -2.7651,2.10904 -6.3166,3.57246 -12.68604,5.22738 -4.24444,1.1028 -6.36543,2.02023 -9.11624,3.94317 l -3.58488,2.50601 0,-2.49428 -3e-5,0 z m 19.25104,-16.46915 c 0,-0.13733 -0.25479,-0.24969 -0.56621,-0.24969 -0.31141,0 -0.5662,0.26983 -0.5662,0.59963 0,0.32979 0.25479,0.44215 0.5662,0.24968 0.31142,-0.19246 0.56621,-0.4623 0.56621,-0.59962 z M 87.517928,127.70586 c -0.653165,-1.05685 -11.839023,-8.56206 -15.56543,-10.44371 -2.403748,-1.21377 -6.219571,-2.38813 -11.000748,-3.38559 -9.35997,-1.9527 -19.066702,-5.14433 -25.553155,-8.40203 -5.078663,-2.55065 -11.007496,-6.736525 -11.007496,-7.771506 0,-0.298239 0.700681,-0.692681 1.55707,-0.876534 3.736875,-0.802259 3.805994,-1.002062 1.035051,-2.992003 -1.425667,-1.023838 -2.592121,-2.041335 -2.592121,-2.261108 0,-0.916451 3.209653,-5.148747 6.44335,-8.496294 4.45622,-4.61311 9.14017,-7.967417 15.113075,-10.822884 6.357935,-3.039535 12.327256,-4.492264 21.066764,-5.126926 7.973063,-0.578997 9.946289,-1.232151 12.886302,-4.26547 2.192745,-2.262342 3.140661,-2.369463 7.548289,-0.853019 4.805037,1.653177 9.27244,4.200945 15.027141,8.570003 3.99672,3.034383 6.66817,4.519691 11.80928,6.565901 3.65426,1.454428 11.103,4.921568 16.55274,7.704754 5.44974,2.783185 10.8969,5.56218 12.10479,6.175541 1.2079,0.613366 3.51837,1.251674 5.13439,1.418462 l 2.93821,0.303249 1.77487,-2.758063 c 4.49962,-6.992215 12.93636,-12.856671 20.09105,-13.965469 l 2.12571,-0.32943 -2.63664,3.220484 c -1.45016,1.771271 -3.41921,4.876645 -4.37567,6.900835 -1.51575,3.207829 -1.76782,4.438203 -1.96334,9.583208 -0.33136,8.719819 0.97359,13.424779 5.82227,20.991979 1.297,2.02419 2.57229,4.0332 2.83397,4.46448 0.77235,1.2729 -4.57096,0.22904 -7.89091,-1.54155 -3.60478,-1.92249 -8.85207,-7.21821 -12.40542,-12.51991 l -2.77536,-4.1409 -4.58534,0.29572 c -3.68516,0.23767 -5.47458,0.70363 -9.11499,2.37347 -11.57119,5.30768 -24.73965,8.62453 -40.72308,10.25729 -11.193411,1.14344 -10.637712,0.99078 -9.972742,2.73978 0.634996,1.67016 1.451614,9.96196 0.981107,9.96196 -0.18028,0 -0.487629,-0.25862 -0.682987,-0.57472 z M 56.059372,101.97229 c 4.249223,-2.197356 5.95499,-6.270231 5.549988,-13.251734 -0.404482,-6.972449 -2.261188,-12.463814 -3.989902,-11.800446 -0.751192,0.288261 -0.717167,0.77572 0.272523,3.904405 1.447296,4.575299 1.972476,11.500725 1.077727,14.211832 -0.701515,2.125609 -4.017793,5.500093 -5.405228,5.500093 -0.983402,0 -1.616261,0.93792 -1.146128,1.69862 0.492251,0.79648 1.771144,0.70418 3.64102,-0.26277 z M 45.214778,86.63226 c 2.800827,-1.961778 0.327509,-6.969839 -2.654106,-5.374126 -2.573233,1.377151 -2.666063,4.202706 -0.185553,5.647864 1.300956,0.757948 1.37721,0.750598 2.839659,-0.273738 z M 144.55333,48.55891 c -2.74574,-1.918759 -4.76429,-2.783285 -8.87551,-3.801305 -6.0868,-1.507215 -9.87425,-3.059805 -12.6745,-5.195668 -1.71528,-1.308305 -1.84156,-1.569457 -1.04174,-2.154301 0.66879,-0.489033 0.7429,-0.832768 0.27948,-1.296194 -0.46343,-0.463426 -0.3607,-1.042714 0.38739,-2.18444 3.01186,-4.596681 9.20855,-7.994722 15.54849,-8.52624 2.86388,-0.240097 4.48602,-0.683904 5.54535,-1.517172 2.30539,-1.813423 4.89326,-1.127083 10.33024,2.739728 1.40136,0.996656 3.43971,2.151951 4.52966,2.567322 1.08995,0.415371 4.4267,1.987492 7.41499,3.493602 2.9883,1.50611 5.76658,2.738381 6.17396,2.738381 0.40739,0 1.5848,-0.986149 2.61649,-2.191442 1.97913,-2.312163 4.55723,-3.801264 7.6532,-4.420457 l 1.86696,-0.373393 -1.96332,2.478884 c -1.87195,2.363538 -1.96331,2.690718 -1.96331,7.03144 0,4.19143 0.14445,4.765897 1.82102,7.24204 l 1.82101,2.689484 -2.09354,0 c -1.83807,0 -2.5232,-0.449107 -5.61452,-3.680346 -1.93654,-2.02419 -3.90931,-3.680346 -4.38394,-3.680346 -0.47464,0 -2.75424,0.751293 -5.06579,1.66954 -3.95421,1.570778 -9.68738,2.919938 -15.75567,3.707708 l -2.65969,0.345275 -0.17134,2.40075 -0.17134,2.400751 -3.55403,-2.483601 z m -14.2815,-15.967322 c 0,-0.311414 -0.26983,-0.566207 -0.59962,-0.566207 -0.3298,0 -0.44215,0.254793 -0.24969,0.566207 0.19247,0.311414 0.4623,0.566207 0.59963,0.566207 0.13732,0 0.24968,-0.254793 0.24968,-0.566207 z"
     id="path4979"
     sodipodi:nodetypes="cccsssssssssssssssssssccccsssccccssssssscccsssssssssssscccccsssccssssssssssssssssccccccssssscccssssccssssssccssccsssssssssssscccscccsssccccccsssc" />
</svg>
