<?xml version="1.0" encoding="UTF-8" standalone="no"?>
<!-- Created with Inkscape (http://www.inkscape.org/) -->

<svg
   xmlns:dc="http://purl.org/dc/elements/1.1/"
   xmlns:cc="http://creativecommons.org/ns#"
   xmlns:rdf="http://www.w3.org/1999/02/22-rdf-syntax-ns#"
   xmlns:svg="http://www.w3.org/2000/svg"
   xmlns="http://www.w3.org/2000/svg"
   xmlns:sodipodi="http://sodipodi.sourceforge.net/DTD/sodipodi-0.dtd"
   xmlns:inkscape="http://www.inkscape.org/namespaces/inkscape"
   width="1395.0312"
   height="849.53125"
   id="svg10169"
   version="1.1"
   inkscape:version="0.48.5 r10040"
   sodipodi:docname="CANC Inizio.svg">
  <defs
     id="defs10171" />
  <sodipodi:namedview
     id="base"
     pagecolor="#ffffff"
     bordercolor="#666666"
     borderopacity="1.0"
     inkscape:pageopacity="0.0"
     inkscape:pageshadow="2"
     inkscape:zoom="0.7"
     inkscape:cx="786.43444"
     inkscape:cy="301.46104"
     inkscape:document-units="px"
     inkscape:current-layer="layer1"
     showgrid="false"
     inkscape:object-nodes="false"
     inkscape:object-paths="true"
     inkscape:snap-intersection-paths="true"
     inkscape:snap-nodes="false"
     inkscape:snap-global="false"
     fit-margin-top="0"
     fit-margin-left="0"
     fit-margin-right="0"
     fit-margin-bottom="0"
     inkscape:window-width="1366"
     inkscape:window-height="705"
     inkscape:window-x="-8"
     inkscape:window-y="-8"
     inkscape:window-maximized="1" />
  <metadata
     id="metadata10174">
    <rdf:RDF>
      <cc:Work
         rdf:about="">
        <dc:format>image/svg+xml</dc:format>
        <dc:type
           rdf:resource="http://purl.org/dc/dcmitype/StillImage" />
        <dc:title />
      </cc:Work>
    </rdf:RDF>
  </metadata>
  <g
     inkscape:label="Livello 1"
     inkscape:groupmode="layer"
     id="layer1"
     transform="translate(77.28125,212.84375)">
    <g
       style="font-size:40px;font-style:normal;font-weight:normal;line-height:125%;letter-spacing:0px;word-spacing:0px;fill:#000000;fill-opacity:1;stroke:none;font-family:Sans"
       id="text19799">
      <path
         d="m 467.31274,588.25867 3.69141,-0.3125 c 0.27343,1.79688 0.9082,3.14779 1.9043,4.05273 0.99608,0.90495 2.19725,1.35743 3.60351,1.35742 1.6927,10e-6 3.12499,-0.63801 4.29688,-1.91406 1.17186,-1.27604 1.75779,-2.96874 1.75781,-5.07812 -2e-5,-2.0052 -0.56317,-3.58723 -1.68945,-4.7461 -1.12632,-1.15884 -2.60093,-1.73826 -4.42383,-1.73828 -1.13282,2e-5 -2.15496,0.25718 -3.06641,0.77149 -0.91146,0.51433 -1.62761,1.18165 -2.14843,2.00195 l -3.30079,-0.42969 2.77344,-14.70703 14.23828,0 0,3.35937 -11.42578,0 -1.54297,7.69532 c 1.71874,-1.1979 3.52213,-1.79686 5.41016,-1.79688 2.49998,2e-5 4.60936,0.86591 6.32812,2.59766 1.71873,1.73178 2.57811,3.95834 2.57813,6.67969 -2e-5,2.59115 -0.75523,4.83073 -2.26563,6.71875 -1.83595,2.3177 -4.34246,3.47656 -7.51953,3.47656 -2.60417,0 -4.72982,-0.72917 -6.37695,-2.1875 -1.64714,-1.45833 -2.58789,-3.39192 -2.82227,-5.80078 z"
         style=""
         id="path19821" />
      <path
         d="m 487.91821,596.24695 8.30078,-29.60938 2.8125,0 -8.28125,29.60938 z"
         style=""
         id="path19823" />
      <path
         d="m 504.89087,595.75867 -3.26172,0 0,-28.63282 3.51563,0 0,10.21485 c 1.48436,-1.86196 3.37889,-2.79295 5.68359,-2.79297 1.27603,2e-5 2.48371,0.25718 3.62305,0.77148 1.1393,0.51435 2.0768,1.237 2.8125,2.16797 0.73565,0.93101 1.31183,2.05406 1.72851,3.36914 0.41665,1.31512 0.62498,2.72137 0.625,4.21875 -2e-5,3.5547 -0.87892,6.30209 -2.63672,8.24219 -1.75783,1.94011 -3.8672,2.91016 -6.32812,2.91016 -2.44793,0 -4.3685,-1.02214 -5.76172,-3.06641 z m -0.0391,-10.52735 c -10e-6,2.48699 0.33853,4.28386 1.01562,5.39063 1.10676,1.8099 2.60416,2.71484 4.49219,2.71484 1.53644,0 2.86457,-0.66731 3.98437,-2.00195 1.11978,-1.33463 1.67967,-3.32356 1.67969,-5.9668 -2e-5,-2.70832 -0.53712,-4.70701 -1.61133,-5.99609 -1.07423,-1.28905 -2.37306,-1.93358 -3.89648,-1.9336 -1.53647,2e-5 -2.86459,0.66734 -3.98438,2.00196 -1.11979,1.33465 -1.67969,3.26498 -1.67968,5.79101 z"
         style=""
         id="path19825" />
      <path
         d="m 541.41431,592.37976 0,3.37891 -18.92578,0 c -0.026,-0.84636 0.11067,-1.66016 0.41015,-2.44141 0.48177,-1.28906 1.25325,-2.55859 2.31445,-3.80859 1.0612,-1.25 2.5944,-2.69531 4.59961,-4.33594 3.11197,-2.55207 5.21483,-4.57355 6.3086,-6.06445 1.09373,-1.49087 1.64061,-2.90037 1.64062,-4.22852 -1e-5,-1.39321 -0.49806,-2.56834 -1.49414,-3.52539 -0.99611,-0.95701 -2.29493,-1.43552 -3.89648,-1.43555 -1.69272,3e-5 -3.04689,0.50784 -4.0625,1.52344 -1.01563,1.01565 -1.52996,2.4219 -1.54297,4.21875 l -3.61328,-0.37109 c 0.24739,-2.69529 1.17838,-4.74933 2.79297,-6.16211 1.61457,-1.41273 3.78254,-2.11911 6.5039,-2.11914 2.74738,3e-5 4.92186,0.76174 6.52344,2.28515 1.60154,1.52347 2.40232,3.41148 2.40234,5.66407 -2e-5,1.14585 -0.23439,2.27215 -0.70312,3.3789 -0.46877,1.10679 -1.24676,2.27215 -2.33399,3.4961 -1.08725,1.22397 -2.89389,2.90365 -5.41992,5.03906 -2.10938,1.77084 -3.46355,2.97201 -4.0625,3.60351 -0.59896,0.63152 -1.09375,1.26628 -1.48437,1.9043 z"
         style=""
         id="path19827" />
      <path
         d="m 570.80884,588.16101 3.45703,0.44922 c -0.37762,2.38282 -1.34442,4.24805 -2.90039,5.5957 -1.55601,1.34766 -3.46681,2.02149 -5.73242,2.02149 -2.83855,0 -5.12045,-0.92774 -6.84571,-2.78321 -1.72526,-1.85546 -2.58789,-4.51496 -2.58789,-7.97851 0,-2.23957 0.37109,-4.19921 1.11328,-5.87891 0.74219,-1.67967 1.87174,-2.93943 3.38868,-3.77929 1.51692,-0.83983 3.1673,-1.25975 4.95117,-1.25977 2.25259,2e-5 4.09503,0.56968 5.52734,1.70898 1.43228,1.13935 2.35024,2.75718 2.75391,4.85352 l -3.41797,0.52734 c -0.32554,-1.39321 -0.90171,-2.44139 -1.72852,-3.14453 -0.82683,-0.70311 -1.82618,-1.05467 -2.99804,-1.05469 -1.77085,2e-5 -3.20965,0.63479 -4.31641,1.9043 -1.10678,1.26955 -1.66016,3.27801 -1.66016,6.02539 0,2.78647 0.53385,4.81121 1.60157,6.07422 1.0677,1.26302 2.46092,1.89453 4.17968,1.89453 1.3802,0 2.53254,-0.42317 3.45704,-1.26953 0.92446,-0.84635 1.5104,-2.14843 1.75781,-3.90625 z"
         style=""
         id="path19829" />
      <path
         d="m 575.96509,585.38757 c 0,-3.84113 1.0677,-6.68618 3.20312,-8.53515 1.78385,-1.53644 3.95833,-2.30467 6.52344,-2.30469 2.85155,2e-5 5.18228,0.93426 6.99219,2.80273 1.80987,1.86851 2.71482,4.44989 2.71484,7.74414 -2e-5,2.66928 -0.40041,4.76889 -1.20117,6.29883 -0.8008,1.52995 -1.96616,2.7181 -3.49609,3.56446 -1.52997,0.84635 -3.19989,1.26953 -5.00977,1.26953 -2.90365,0 -5.25066,-0.93099 -7.04102,-2.79297 -1.79036,-1.86198 -2.68554,-4.54427 -2.68554,-8.04688 z m 3.61328,0 c -10e-6,2.65626 0.57942,4.64519 1.73828,5.9668 1.15885,1.32162 2.61718,1.98242 4.375,1.98242 1.74478,0 3.1966,-0.66406 4.35547,-1.99219 1.15884,-1.32811 1.73826,-3.35285 1.73828,-6.07421 -2e-5,-2.5651 -0.5827,-4.50845 -1.74805,-5.83008 -1.16538,-1.3216 -2.61394,-1.98241 -4.3457,-1.98242 -1.75782,10e-6 -3.21615,0.65757 -4.375,1.97265 -1.15886,1.31512 -1.73829,3.3008 -1.73828,5.95703 z"
         style=""
         id="path19831" />
      <path
         d="m 599.53931,595.75867 0,-20.74219 3.16406,0 0,2.94922 c 1.52343,-2.27863 3.72395,-3.41795 6.60156,-3.41797 1.24999,2e-5 2.39908,0.22463 3.44727,0.67383 1.04816,0.44924 1.83266,1.03843 2.35351,1.76758 0.52082,0.72918 0.8854,1.59506 1.09375,2.59765 0.13019,0.65106 0.1953,1.79038 0.19532,3.41797 l 0,12.75391 -3.51563,0 0,-12.61719 c -2e-5,-1.43228 -0.13673,-2.50324 -0.41016,-3.21289 -0.27345,-0.70962 -0.75847,-1.27603 -1.45507,-1.69922 -0.69663,-0.42316 -1.51369,-0.63475 -2.45118,-0.63477 -1.4974,2e-5 -2.78972,0.47528 -3.87695,1.42579 -1.08725,0.95053 -1.63086,2.75392 -1.63086,5.41015 l 0,11.32813 z"
         style=""
         id="path19833" />
      <path
         d="m 629.48071,592.61414 0.50782,3.10546 c -0.9896,0.20834 -1.87501,0.3125 -2.65625,0.3125 -1.27605,0 -2.26564,-0.20182 -2.96875,-0.60546 -0.70313,-0.40365 -1.19793,-0.93425 -1.48438,-1.5918 -0.28646,-0.65755 -0.42969,-2.04101 -0.42969,-4.15039 l 0,-11.9336 -2.57812,0 0,-2.73437 2.57812,0 0,-5.13672 3.4961,-2.10937 0,7.24609 3.53515,0 0,2.73437 -3.53515,0 0,12.12891 c -10e-6,1.00261 0.0618,1.64714 0.18554,1.93359 0.12369,0.28647 0.32552,0.51433 0.60547,0.6836 0.27994,0.16927 0.68033,0.25391 1.20117,0.2539 0.39062,10e-6 0.90494,-0.0456 1.54297,-0.13671 z"
         style=""
         id="path19835" />
      <path
         d="m 632.91821,571.16882 0,-4.04297 3.51563,0 0,4.04297 z m 0,24.58985 0,-20.74219 3.51563,0 0,20.74219 z"
         style=""
         id="path19837" />
      <path
         d="m 641.80493,595.75867 0,-20.74219 3.16406,0 0,2.94922 c 1.52343,-2.27863 3.72395,-3.41795 6.60157,-3.41797 1.24998,2e-5 2.39907,0.22463 3.44726,0.67383 1.04816,0.44924 1.83267,1.03843 2.35352,1.76758 0.52081,0.72918 0.8854,1.59506 1.09375,2.59765 0.13019,0.65106 0.19529,1.79038 0.19531,3.41797 l 0,12.75391 -3.51562,0 0,-12.61719 c -2e-5,-1.43228 -0.13674,-2.50324 -0.41016,-3.21289 -0.27345,-0.70962 -0.75848,-1.27603 -1.45508,-1.69922 -0.69663,-0.42316 -1.51368,-0.63475 -2.45117,-0.63477 -1.49741,2e-5 -2.78972,0.47528 -3.87695,1.42579 -1.08725,0.95053 -1.63087,2.75392 -1.63086,5.41015 l 0,11.32813 z"
         style=""
         id="path19839" />
      <path
         d="m 677.66431,595.75867 0,-3.04688 c -1.6146,2.34375 -3.80861,3.51563 -6.58203,3.51563 -1.22397,0 -2.36655,-0.23438 -3.42774,-0.70313 -1.0612,-0.46875 -1.84896,-1.05794 -2.36328,-1.76758 -0.51433,-0.70963 -0.87565,-1.57877 -1.08398,-2.60742 -0.14324,-0.6901 -0.21485,-1.78385 -0.21485,-3.28125 l 0,-12.85156 3.51563,0 0,11.50391 c -10e-6,1.83594 0.0716,3.07292 0.21484,3.71093 0.22135,0.92449 0.6901,1.6504 1.40625,2.17774 0.71614,0.52734 1.60155,0.79102 2.65625,0.79101 1.05468,10e-6 2.04426,-0.27018 2.96875,-0.81054 0.92447,-0.54036 1.57876,-1.27604 1.96289,-2.20703 0.3841,-0.93099 0.57616,-2.2819 0.57617,-4.05274 l 0,-11.11328 3.51563,0 0,20.74219 z"
         style=""
         id="path19841" />
      <path
         d="m 699.87134,593.20007 c -1.3021,1.10678 -2.55535,1.88802 -3.75977,2.34375 -1.20444,0.45573 -2.49675,0.6836 -3.87695,0.6836 -2.27865,0 -4.02995,-0.55664 -5.25391,-1.66992 -1.22396,-1.11328 -1.83594,-2.53581 -1.83593,-4.26758 -10e-6,-1.01562 0.23111,-1.94335 0.69335,-2.78321 0.46224,-0.83983 1.06771,-1.51366 1.81641,-2.02148 0.74869,-0.5078 1.59179,-0.89192 2.5293,-1.15234 0.69009,-0.18228 1.73176,-0.35807 3.125,-0.52735 2.83853,-0.33853 4.92837,-0.74217 6.26953,-1.21094 0.013,-0.48175 0.0195,-0.78774 0.0195,-0.91796 -2e-5,-1.43228 -0.33205,-2.44139 -0.99609,-3.02735 -0.89845,-0.79425 -2.23309,-1.19139 -4.00391,-1.1914 -1.65365,10e-6 -2.87436,0.28973 -3.66211,0.86914 -0.78777,0.57944 -1.37045,1.60483 -1.74805,3.07617 l -3.4375,-0.46875 c 0.3125,-1.47134 0.82682,-2.65949 1.54297,-3.56445 0.71614,-0.90493 1.7513,-1.60155 3.10547,-2.08985 1.35416,-0.48826 2.92317,-0.7324 4.70703,-0.73242 1.77082,2e-5 3.20962,0.20835 4.31641,0.625 1.10675,0.41669 1.92055,0.94077 2.44141,1.57227 0.52081,0.63152 0.88539,1.42905 1.09375,2.39257 0.11716,0.59898 0.17576,1.67971 0.17578,3.24219 l 0,4.6875 c -2e-5,3.26824 0.0748,5.33529 0.22461,6.20117 0.14972,0.86589 0.44594,1.69597 0.88867,2.49024 l -3.67188,0 c -0.3646,-0.72917 -0.59897,-1.58203 -0.70312,-2.5586 z m -0.29297,-7.85156 c -1.27606,0.52084 -3.19012,0.96355 -5.74219,1.32813 -1.44532,0.20834 -2.46745,0.44271 -3.0664,0.70312 -0.59897,0.26043 -1.06121,0.64128 -1.38672,1.14258 -0.32553,0.50131 -0.48829,1.05795 -0.48828,1.66992 -10e-6,0.93751 0.35481,1.71875 1.06445,2.34375 0.70963,0.625 1.74804,0.9375 3.11523,0.9375 1.35416,0 2.55858,-0.29622 3.61328,-0.88867 1.05468,-0.59245 1.82942,-1.40299 2.32422,-2.43164 0.37759,-0.79427 0.56639,-1.96614 0.56641,-3.51563 z"
         style=""
         id="path19843" />
    </g>
    <g
       style="font-size:40px;font-style:normal;font-weight:normal;line-height:125%;letter-spacing:0px;word-spacing:0px;fill:#000000;fill-opacity:1;stroke:none;font-family:Sans"
       id="text19791">
      <path
         d="m 917.31274,588.25867 3.69141,-0.3125 c 0.27343,1.79688 0.9082,3.14779 1.9043,4.05273 0.99608,0.90495 2.19725,1.35743 3.60351,1.35742 1.6927,10e-6 3.12499,-0.63801 4.29688,-1.91406 1.17186,-1.27604 1.75779,-2.96874 1.75781,-5.07812 -2e-5,-2.0052 -0.56317,-3.58723 -1.68945,-4.7461 -1.12632,-1.15884 -2.60093,-1.73826 -4.42383,-1.73828 -1.13282,2e-5 -2.15496,0.25718 -3.06641,0.77149 -0.91146,0.51433 -1.62761,1.18165 -2.14843,2.00195 l -3.30079,-0.42969 2.77344,-14.70703 14.23828,0 0,3.35937 -11.42578,0 -1.54297,7.69532 c 1.71874,-1.1979 3.52213,-1.79686 5.41016,-1.79688 2.49998,2e-5 4.60936,0.86591 6.32812,2.59766 1.71873,1.73178 2.57811,3.95834 2.57813,6.67969 -2e-5,2.59115 -0.75523,4.83073 -2.26563,6.71875 -1.83595,2.3177 -4.34246,3.47656 -7.51953,3.47656 -2.60417,0 -4.72982,-0.72917 -6.37695,-2.1875 -1.64714,-1.45833 -2.58789,-3.39192 -2.82227,-5.80078 z"
         style=""
         id="path19804" />
      <path
         d="m 937.91821,596.24695 8.30078,-29.60938 2.8125,0 -8.28125,29.60938 z"
         style=""
         id="path19806" />
      <path
         d="m 954.89087,595.75867 -3.26172,0 0,-28.63282 3.51563,0 0,10.21485 c 1.48436,-1.86196 3.37889,-2.79295 5.68359,-2.79297 1.27603,2e-5 2.48371,0.25718 3.62305,0.77148 1.1393,0.51435 2.0768,1.237 2.8125,2.16797 0.73565,0.93101 1.31183,2.05406 1.72851,3.36914 0.41665,1.31512 0.62498,2.72137 0.625,4.21875 -2e-5,3.5547 -0.87892,6.30209 -2.63672,8.24219 -1.75783,1.94011 -3.8672,2.91016 -6.32812,2.91016 -2.44793,0 -4.3685,-1.02214 -5.76172,-3.06641 z m -0.0391,-10.52735 c -10e-6,2.48699 0.33853,4.28386 1.01562,5.39063 1.10676,1.8099 2.60416,2.71484 4.49219,2.71484 1.53644,0 2.86457,-0.66731 3.98437,-2.00195 1.11978,-1.33463 1.67967,-3.32356 1.67969,-5.9668 -2e-5,-2.70832 -0.53712,-4.70701 -1.61133,-5.99609 -1.07423,-1.28905 -2.37306,-1.93358 -3.89648,-1.9336 -1.53647,2e-5 -2.86459,0.66734 -3.98438,2.00196 -1.11979,1.33465 -1.67969,3.26498 -1.67968,5.79101 z"
         style=""
         id="path19808" />
      <path
         d="m 972.95728,588.20007 3.51562,-0.46875 c 0.40364,1.9922 1.09049,3.42774 2.06055,4.30664 0.97004,0.87891 2.15168,1.31837 3.54492,1.31836 1.65363,10e-6 3.05012,-0.57291 4.18945,-1.71875 1.13931,-1.14582 1.70897,-2.56509 1.70899,-4.25781 -2e-5,-1.61457 -0.52736,-2.94595 -1.58203,-3.99414 -1.05471,-1.04816 -2.39585,-1.57225 -4.02344,-1.57227 -0.66408,2e-5 -1.4909,0.13023 -2.48047,0.39063 l 0.39062,-3.08594 c 0.23437,0.0261 0.42317,0.0391 0.56641,0.0391 1.49739,2e-5 2.84504,-0.3906 4.04297,-1.17187 1.1979,-0.78123 1.79686,-1.98566 1.79687,-3.61328 -10e-6,-1.28904 -0.43621,-2.35675 -1.30859,-3.20313 -0.87241,-0.84633 -1.99871,-1.2695 -3.37891,-1.26953 -1.36719,3e-5 -2.50651,0.42971 -3.41796,1.28906 -0.91147,0.8594 -1.49741,2.14846 -1.75782,3.86719 l -3.51562,-0.625 c 0.42968,-2.35675 1.40624,-4.18292 2.92969,-5.47851 1.52343,-1.29555 3.41796,-1.94333 5.68359,-1.94336 1.56249,3e-5 3.00129,0.33531 4.31641,1.00586 1.31508,0.6706 2.32094,1.58531 3.01757,2.74414 0.6966,1.15888 1.04491,2.38934 1.04493,3.6914 -2e-5,1.237 -0.33205,2.3633 -0.9961,3.37891 -0.66408,1.01564 -1.64715,1.82293 -2.94922,2.42187 1.69269,0.39064 3.0078,1.20119 3.94532,2.43165 0.93748,1.23048 1.40622,2.77019 1.40625,4.61914 -3e-5,2.5 -0.91148,4.61914 -2.73438,6.35742 -1.82293,1.73828 -4.12762,2.60742 -6.91406,2.60742 -2.51303,0 -4.59962,-0.7487 -6.25977,-2.24609 -1.66016,-1.4974 -2.60742,-3.4375 -2.84179,-5.82032 z"
         style=""
         id="path19810" />
      <path
         d="m 1008.1135,595.75867 0,-18.00782 -3.1054,0 0,-2.73437 3.1054,0 0,-2.20703 c 0,-1.39321 0.1237,-2.42836 0.3711,-3.10547 0.3386,-0.91143 0.9343,-1.65036 1.7871,-2.2168 0.8529,-0.56637 2.0475,-0.84958 3.584,-0.84961 0.9896,3e-5 2.0833,0.11722 3.2813,0.35157 l -0.5274,3.0664 c -0.7292,-0.13018 -1.4193,-0.19528 -2.0703,-0.19531 -1.0677,3e-5 -1.8229,0.22789 -2.2656,0.68359 -0.4427,0.45576 -0.6641,1.30862 -0.6641,2.5586 l 0,1.91406 4.043,0 0,2.73437 -4.043,0 0,18.00782 z"
         style=""
         id="path19812" />
      <path
         d="m 1018.387,571.16882 0,-4.04297 3.5156,0 0,4.04297 z m 0,24.58985 0,-20.74219 3.5156,0 0,20.74219 z"
         style=""
         id="path19814" />
      <path
         d="m 1027.2737,595.75867 0,-20.74219 3.164,0 0,2.94922 c 1.5235,-2.27863 3.724,-3.41795 6.6016,-3.41797 1.25,2e-5 2.3991,0.22463 3.4473,0.67383 1.0481,0.44924 1.8326,1.03843 2.3535,1.76758 0.5208,0.72918 0.8854,1.59506 1.0937,2.59765 0.1302,0.65106 0.1953,1.79038 0.1954,3.41797 l 0,12.75391 -3.5157,0 0,-12.61719 c 0,-1.43228 -0.1367,-2.50324 -0.4101,-3.21289 -0.2735,-0.70962 -0.7585,-1.27603 -1.4551,-1.69922 -0.6966,-0.42316 -1.5137,-0.63475 -2.4512,-0.63477 -1.4974,2e-5 -2.7897,0.47528 -3.8769,1.42579 -1.0873,0.95053 -1.6309,2.75392 -1.6309,5.41015 l 0,11.32813 z"
         style=""
         id="path19816" />
      <path
         d="m 1063.7385,589.07898 3.6328,0.44922 c -0.5729,2.1224 -1.6341,3.76953 -3.1836,4.9414 -1.5495,1.17188 -3.5286,1.75782 -5.9375,1.75782 -3.0338,0 -5.4394,-0.93425 -7.2168,-2.80274 -1.7773,-1.86848 -2.666,-4.48892 -2.666,-7.86133 0,-3.48957 0.8985,-6.1979 2.6953,-8.125 1.7969,-1.92706 4.1276,-2.8906 6.9922,-2.89062 2.7735,2e-5 5.0391,0.94403 6.7969,2.83203 1.7578,1.88804 2.6367,4.54429 2.6367,7.96875 0,0.20834 -0.01,0.52084 -0.019,0.9375 l -15.4688,0 c 0.1302,2.27865 0.7748,4.02344 1.9336,5.23438 1.1589,1.21094 2.6042,1.8164 4.336,1.8164 1.289,0 2.3893,-0.33854 3.3008,-1.01562 0.9114,-0.67708 1.6341,-1.75781 2.1679,-3.24219 z m -11.5429,-5.68359 11.582,0 c -0.1563,-1.74478 -0.599,-3.05337 -1.3281,-3.92579 -1.1198,-1.35414 -2.5717,-2.03123 -4.3555,-2.03125 -1.6146,2e-5 -2.972,0.54039 -4.0723,1.6211 -1.1002,1.08074 -1.709,2.52605 -1.8261,4.33594 z"
         style=""
         id="path19818" />
    </g>
    <g
       style="font-size:40px;font-style:normal;font-weight:normal;line-height:125%;letter-spacing:0px;word-spacing:0px;fill:#000000;fill-opacity:1;stroke:none;font-family:Sans"
       id="text19795">
      <path
         d="m 17.31294,588.25867 3.691406,-0.3125 c 0.273432,1.79688 0.908197,3.14779 1.904297,4.05273 0.996085,0.90495 2.197256,1.35743 3.603515,1.35742 1.692696,10e-6 3.124986,-0.63801 4.296875,-1.91406 1.171859,-1.27604 1.757796,-2.96874 1.757813,-5.07812 -1.7e-5,-2.0052 -0.563167,-3.58723 -1.689453,-4.7461 -1.126316,-1.15884 -2.600924,-1.73826 -4.423828,-1.73828 -1.132823,2e-5 -2.154957,0.25718 -3.066407,0.77149 -0.911465,0.51433 -1.62761,1.18165 -2.148437,2.00195 l -3.300781,-0.42969 2.773437,-14.70703 14.238281,0 0,3.35937 -11.425781,0 -1.542969,7.69532 c 1.718742,-1.1979 3.522126,-1.79686 5.410157,-1.79688 2.499985,2e-5 4.609358,0.86591 6.328125,2.59766 1.71873,1.73178 2.578104,3.95834 2.578125,6.67969 -2.1e-5,2.59115 -0.755229,4.83073 -2.265625,6.71875 -1.835954,2.3177 -4.342462,3.47656 -7.519532,3.47656 -2.604175,0 -4.729823,-0.72917 -6.376953,-2.1875 -1.647138,-1.45833 -2.587892,-3.39192 -2.822265,-5.80078 z"
         style=""
         id="path19846" />
      <path
         d="m 37.918408,596.24695 8.300782,-29.60938 2.8125,0 -8.28125,29.60938 z"
         style=""
         id="path19848" />
      <path
         d="m 54.891065,595.75867 -3.261719,0 0,-28.63282 3.515625,0 0,10.21485 c 1.484367,-1.86196 3.378897,-2.79295 5.683594,-2.79297 1.276028,2e-5 2.483709,0.25718 3.623047,0.77148 1.139306,0.51435 2.076805,1.237 2.8125,2.16797 0.735658,0.93101 1.311829,2.05406 1.728515,3.36914 0.416646,1.31512 0.62498,2.72137 0.625,4.21875 -2e-5,3.5547 -0.878926,6.30209 -2.636719,8.24219 -1.757828,1.94011 -3.867201,2.91016 -6.328125,2.91016 -2.447925,0 -4.368496,-1.02214 -5.761718,-3.06641 z m -0.03906,-10.52735 c -6e-6,2.48699 0.338536,4.28386 1.015625,5.39063 1.106763,1.8099 2.604157,2.71484 4.492188,2.71484 1.536445,0 2.864569,-0.66731 3.984375,-2.00195 1.119775,-1.33463 1.67967,-3.32356 1.679687,-5.9668 -1.7e-5,-2.70832 -0.537126,-4.70701 -1.611328,-5.99609 -1.074233,-1.28905 -2.37306,-1.93358 -3.896484,-1.9336 -1.536469,2e-5 -2.864592,0.66734 -3.984375,2.00196 -1.119798,1.33465 -1.679694,3.26498 -1.679688,5.79101 z"
         style=""
         id="path19850" />
      <path
         d="m 86.180127,595.75867 -3.515625,0 0,-22.40235 c -0.846365,0.80732 -1.956389,1.61461 -3.330078,2.42188 -1.373705,0.80731 -2.607427,1.41278 -3.701172,1.8164 l 0,-3.39843 c 1.96614,-0.92446 3.684888,-2.04425 5.15625,-3.35938 1.471343,-1.31508 2.513009,-2.59112 3.125,-3.82812 l 2.265625,0 z"
         style=""
         id="path19852" />
      <path
         d="m 107.29341,571.16882 0,-4.04297 3.51562,0 0,4.04297 z m 0,24.58985 0,-20.74219 3.51562,0 0,20.74219 z"
         style=""
         id="path19854" />
      <path
         d="m 116.18013,595.75867 0,-20.74219 3.16406,0 0,2.94922 c 1.52343,-2.27863 3.72395,-3.41795 6.60156,-3.41797 1.24999,2e-5 2.39908,0.22463 3.44727,0.67383 1.04816,0.44924 1.83266,1.03843 2.35351,1.76758 0.52082,0.72918 0.8854,1.59506 1.09375,2.59765 0.13019,0.65106 0.1953,1.79038 0.19532,3.41797 l 0,12.75391 -3.51563,0 0,-12.61719 c -2e-5,-1.43228 -0.13673,-2.50324 -0.41016,-3.21289 -0.27345,-0.70962 -0.75847,-1.27603 -1.45507,-1.69922 -0.69663,-0.42316 -1.51369,-0.63475 -2.45118,-0.63477 -1.4974,2e-5 -2.78972,0.47528 -3.87695,1.42579 -1.08724,0.95053 -1.63086,2.75392 -1.63086,5.41015 l 0,11.32813 z"
         style=""
         id="path19856" />
      <path
         d="m 138.46528,571.16882 0,-4.04297 3.51563,0 0,4.04297 z m 0,24.58985 0,-20.74219 3.51563,0 0,20.74219 z"
         style=""
         id="path19858" />
      <path
         d="m 145.49653,595.75867 0,-2.85157 13.20313,-15.15625 c -1.49741,0.0781 -2.81902,0.11721 -3.96485,0.11719 l -8.45703,0 0,-2.85156 16.95313,0 0,2.32422 -11.23047,13.16406 -2.16797,2.40234 c 1.57552,-0.11718 3.05338,-0.17577 4.43359,-0.17578 l 9.58985,0 0,3.02735 z"
         style=""
         id="path19860" />
      <path
         d="m 167.37153,571.16882 0,-4.04297 3.51563,0 0,4.04297 z m 0,24.58985 0,-20.74219 3.51563,0 0,20.74219 z"
         style=""
         id="path19862" />
      <path
         d="m 174.94966,585.38757 c 0,-3.84113 1.0677,-6.68618 3.20312,-8.53515 1.78385,-1.53644 3.95833,-2.30467 6.52344,-2.30469 2.85155,2e-5 5.18228,0.93426 6.99219,2.80273 1.80987,1.86851 2.71482,4.44989 2.71484,7.74414 -2e-5,2.66928 -0.40041,4.76889 -1.20117,6.29883 -0.8008,1.52995 -1.96616,2.7181 -3.49609,3.56446 -1.52997,0.84635 -3.19989,1.26953 -5.00977,1.26953 -2.90365,0 -5.25066,-0.93099 -7.04101,-2.79297 -1.79037,-1.86198 -2.68555,-4.54427 -2.68555,-8.04688 z m 3.61328,0 c -1e-5,2.65626 0.57942,4.64519 1.73828,5.9668 1.15885,1.32162 2.61718,1.98242 4.375,1.98242 1.74478,0 3.1966,-0.66406 4.35547,-1.99219 1.15884,-1.32811 1.73826,-3.35285 1.73828,-6.07421 -2e-5,-2.5651 -0.5827,-4.50845 -1.74805,-5.83008 -1.16537,-1.3216 -2.61394,-1.98241 -4.3457,-1.98242 -1.75782,10e-6 -3.21615,0.65757 -4.375,1.97265 -1.15886,1.31512 -1.73829,3.3008 -1.73828,5.95703 z"
         style=""
         id="path19864" />
    </g>
    <g
       style="font-size:40px;font-style:normal;font-weight:normal;line-height:125%;letter-spacing:0px;word-spacing:0px;fill:#000000;fill-opacity:1;stroke:none;font-family:Sans"
       id="text19787">
      <path
         d="m 917.31274,238.25844 3.69141,-0.3125 c 0.27343,1.79688 0.9082,3.14779 1.9043,4.05273 0.99608,0.90495 2.19725,1.35743 3.60351,1.35742 1.6927,1e-5 3.12499,-0.63801 4.29688,-1.91406 1.17186,-1.27603 1.75779,-2.96874 1.75781,-5.07812 -2e-5,-2.0052 -0.56317,-3.58723 -1.68945,-4.7461 -1.12632,-1.15884 -2.60093,-1.73826 -4.42383,-1.73828 -1.13282,2e-5 -2.15496,0.25718 -3.06641,0.77149 -0.91146,0.51433 -1.62761,1.18165 -2.14843,2.00195 l -3.30079,-0.42969 2.77344,-14.70703 14.23828,0 0,3.35938 -11.42578,0 -1.54297,7.69531 c 1.71874,-1.1979 3.52213,-1.79686 5.41016,-1.79688 2.49998,2e-5 4.60936,0.86591 6.32812,2.59766 1.71873,1.73178 2.57811,3.95835 2.57813,6.67969 -2e-5,2.59115 -0.75523,4.83073 -2.26563,6.71875 -1.83595,2.31771 -4.34246,3.47656 -7.51953,3.47656 -2.60417,0 -4.72982,-0.72917 -6.37695,-2.1875 -1.64714,-1.45833 -2.58789,-3.39192 -2.82227,-5.80078 z"
         style=""
         id="path19867" />
      <path
         d="m 937.91821,246.24672 8.30078,-29.60938 2.8125,0 -8.28125,29.60938 z"
         style=""
         id="path19869" />
      <path
         d="m 965.18384,243.19984 c -1.3021,1.10678 -2.55535,1.88803 -3.75977,2.34375 -1.20444,0.45573 -2.49675,0.6836 -3.87695,0.6836 -2.27865,0 -4.02995,-0.55664 -5.25391,-1.66992 -1.22396,-1.11328 -1.83594,-2.53581 -1.83593,-4.26758 -10e-6,-1.01562 0.23111,-1.94335 0.69335,-2.78321 0.46224,-0.83983 1.06771,-1.51366 1.81641,-2.02148 0.74869,-0.5078 1.59179,-0.89192 2.5293,-1.15234 0.69009,-0.18228 1.73176,-0.35806 3.125,-0.52735 2.83853,-0.33853 4.92837,-0.74217 6.26953,-1.21093 0.013,-0.48176 0.0195,-0.78775 0.0195,-0.91797 -2e-5,-1.43228 -0.33205,-2.44139 -0.99609,-3.02735 -0.89845,-0.79425 -2.23309,-1.19138 -4.00391,-1.1914 -1.65365,2e-5 -2.87436,0.28973 -3.66211,0.86914 -0.78777,0.57944 -1.37045,1.60483 -1.74805,3.07617 l -3.4375,-0.46875 c 0.3125,-1.47134 0.82682,-2.65949 1.54297,-3.56445 0.71614,-0.90493 1.7513,-1.60155 3.10547,-2.08985 1.35416,-0.48826 2.92317,-0.7324 4.70703,-0.73242 1.77082,2e-5 3.20962,0.20835 4.31641,0.625 1.10675,0.41669 1.92055,0.94078 2.44141,1.57227 0.52081,0.63153 0.88539,1.42905 1.09375,2.39257 0.11716,0.59898 0.17576,1.67971 0.17578,3.24219 l 0,4.6875 c -2e-5,3.26824 0.0748,5.33529 0.22461,6.20117 0.14972,0.86589 0.44594,1.69597 0.88867,2.49024 l -3.67188,0 c -0.3646,-0.72917 -0.59897,-1.58203 -0.70312,-2.5586 z m -0.29297,-7.85156 c -1.27606,0.52085 -3.19012,0.96355 -5.74219,1.32813 -1.44532,0.20834 -2.46745,0.44271 -3.0664,0.70312 -0.59897,0.26043 -1.06121,0.64129 -1.38672,1.14258 -0.32553,0.50131 -0.48829,1.05795 -0.48828,1.66992 -10e-6,0.93751 0.35481,1.71876 1.06445,2.34375 0.70963,0.625 1.74804,0.9375 3.11523,0.9375 1.35416,0 2.55858,-0.29622 3.61328,-0.88867 1.05468,-0.59244 1.82942,-1.40299 2.32422,-2.43164 0.37759,-0.79427 0.56639,-1.96614 0.56641,-3.51563 z"
         style=""
         id="path19871" />
      <path
         d="m 972.95728,238.19984 3.51562,-0.46875 c 0.40364,1.9922 1.09049,3.42774 2.06055,4.30664 0.97004,0.87891 2.15168,1.31837 3.54492,1.31836 1.65363,1e-5 3.05012,-0.57291 4.18945,-1.71875 1.13931,-1.14582 1.70897,-2.56509 1.70899,-4.25781 -2e-5,-1.61457 -0.52736,-2.94595 -1.58203,-3.99414 -1.05471,-1.04816 -2.39585,-1.57225 -4.02344,-1.57226 -0.66408,1e-5 -1.4909,0.13022 -2.48047,0.39062 l 0.39062,-3.08594 c 0.23437,0.0261 0.42317,0.0391 0.56641,0.0391 1.49739,1e-5 2.84504,-0.39061 4.04297,-1.17188 1.1979,-0.78123 1.79686,-1.98566 1.79687,-3.61328 -10e-6,-1.28904 -0.43621,-2.35675 -1.30859,-3.20313 -0.87241,-0.84632 -1.99871,-1.2695 -3.37891,-1.26953 -1.36719,3e-5 -2.50651,0.42972 -3.41796,1.28907 -0.91147,0.85939 -1.49741,2.14846 -1.75782,3.86718 l -3.51562,-0.625 c 0.42968,-2.35674 1.40624,-4.18291 2.92969,-5.47851 1.52343,-1.29555 3.41796,-1.94333 5.68359,-1.94336 1.56249,3e-5 3.00129,0.33531 4.31641,1.00586 1.31508,0.6706 2.32094,1.58531 3.01757,2.74414 0.6966,1.15888 1.04491,2.38934 1.04493,3.6914 -2e-5,1.237 -0.33205,2.3633 -0.9961,3.37891 -0.66408,1.01564 -1.64715,1.82293 -2.94922,2.42188 1.69269,0.39064 3.0078,1.20118 3.94532,2.43164 0.93748,1.23048 1.40622,2.77019 1.40625,4.61914 -3e-5,2.5 -0.91148,4.61914 -2.73438,6.35742 -1.82293,1.73828 -4.12762,2.60742 -6.91406,2.60742 -2.51303,0 -4.59962,-0.7487 -6.25977,-2.24609 -1.66016,-1.4974 -2.60742,-3.4375 -2.84179,-5.82032 z"
         style=""
         id="path19873" />
      <path
         d="m 1008.1135,245.75844 0,-18.00781 -3.1054,0 0,-2.73438 3.1054,0 0,-2.20703 c 0,-1.39321 0.1237,-2.42836 0.3711,-3.10547 0.3386,-0.91143 0.9343,-1.65036 1.7871,-2.2168 0.8529,-0.56637 2.0475,-0.84958 3.584,-0.84961 0.9896,3e-5 2.0833,0.11722 3.2813,0.35157 l -0.5274,3.0664 c -0.7292,-0.13018 -1.4193,-0.19528 -2.0703,-0.19531 -1.0677,3e-5 -1.8229,0.22789 -2.2656,0.68359 -0.4427,0.45576 -0.6641,1.30862 -0.6641,2.5586 l 0,1.91406 4.043,0 0,2.73438 -4.043,0 0,18.00781 z"
         style=""
         id="path19875" />
      <path
         d="m 1018.387,221.16859 0,-4.04296 3.5156,0 0,4.04296 z m 0,24.58985 0,-20.74219 3.5156,0 0,20.74219 z"
         style=""
         id="path19877" />
      <path
         d="m 1027.2737,245.75844 0,-20.74219 3.164,0 0,2.94922 c 1.5235,-2.27863 3.724,-3.41795 6.6016,-3.41797 1.25,2e-5 2.3991,0.22463 3.4473,0.67383 1.0481,0.44924 1.8326,1.03843 2.3535,1.76758 0.5208,0.72918 0.8854,1.59507 1.0937,2.59765 0.1302,0.65106 0.1953,1.79038 0.1954,3.41797 l 0,12.75391 -3.5157,0 0,-12.61719 c 0,-1.43228 -0.1367,-2.50324 -0.4101,-3.21289 -0.2735,-0.70962 -0.7585,-1.27602 -1.4551,-1.69922 -0.6966,-0.42316 -1.5137,-0.63475 -2.4512,-0.63476 -1.4974,1e-5 -2.7897,0.47527 -3.8769,1.42578 -1.0873,0.95053 -1.6309,2.75392 -1.6309,5.41015 l 0,11.32813 z"
         style=""
         id="path19879" />
      <path
         d="m 1063.7385,239.07875 3.6328,0.44922 c -0.5729,2.1224 -1.6341,3.76953 -3.1836,4.94141 -1.5495,1.17187 -3.5286,1.75781 -5.9375,1.75781 -3.0338,0 -5.4394,-0.93425 -7.2168,-2.80274 -1.7773,-1.86848 -2.666,-4.48892 -2.666,-7.86132 0,-3.48957 0.8985,-6.1979 2.6953,-8.125 1.7969,-1.92707 4.1276,-2.89061 6.9922,-2.89063 2.7735,2e-5 5.0391,0.94403 6.7969,2.83203 1.7578,1.88804 2.6367,4.54429 2.6367,7.96875 0,0.20835 -0.01,0.52085 -0.019,0.9375 l -15.4688,0 c 0.1302,2.27865 0.7748,4.02344 1.9336,5.23438 1.1589,1.21094 2.6042,1.81641 4.336,1.8164 1.289,1e-5 2.3893,-0.33854 3.3008,-1.01562 0.9114,-0.67708 1.6341,-1.75781 2.1679,-3.24219 z m -11.5429,-5.68359 11.582,0 c -0.1563,-1.74478 -0.599,-3.05337 -1.3281,-3.92578 -1.1198,-1.35415 -2.5717,-2.03124 -4.3555,-2.03125 -1.6146,1e-5 -2.972,0.54038 -4.0723,1.62109 -1.1002,1.08074 -1.709,2.52606 -1.8261,4.33594 z"
         style=""
         id="path19881" />
    </g>
    <g
       style="font-size:40px;font-style:normal;font-weight:normal;line-height:125%;letter-spacing:0px;word-spacing:0px;fill:#000000;fill-opacity:1;stroke:none;font-family:Sans"
       id="text19779">
      <path
         d="m 17.31294,238.25844 3.691406,-0.3125 c 0.273432,1.79688 0.908197,3.14779 1.904297,4.05273 0.996085,0.90495 2.197256,1.35743 3.603515,1.35742 1.692696,1e-5 3.124986,-0.63801 4.296875,-1.91406 1.171859,-1.27603 1.757796,-2.96874 1.757813,-5.07812 -1.7e-5,-2.0052 -0.563167,-3.58723 -1.689453,-4.7461 -1.126316,-1.15884 -2.600924,-1.73826 -4.423828,-1.73828 -1.132823,2e-5 -2.154957,0.25718 -3.066407,0.77149 -0.911465,0.51433 -1.62761,1.18165 -2.148437,2.00195 l -3.300781,-0.42969 2.773437,-14.70703 14.238281,0 0,3.35938 -11.425781,0 -1.542969,7.69531 c 1.718742,-1.1979 3.522126,-1.79686 5.410157,-1.79688 2.499985,2e-5 4.609358,0.86591 6.328125,2.59766 1.71873,1.73178 2.578104,3.95835 2.578125,6.67969 -2.1e-5,2.59115 -0.755229,4.83073 -2.265625,6.71875 -1.835954,2.31771 -4.342462,3.47656 -7.519532,3.47656 -2.604175,0 -4.729823,-0.72917 -6.376953,-2.1875 -1.647138,-1.45833 -2.587892,-3.39192 -2.822265,-5.80078 z"
         style=""
         id="path19909" />
      <path
         d="m 37.918408,246.24672 8.300782,-29.60938 2.8125,0 -8.28125,29.60938 z"
         style=""
         id="path19911" />
      <path
         d="m 65.184033,243.19984 c -1.302098,1.10678 -2.555352,1.88803 -3.759765,2.34375 -1.204439,0.45573 -2.496755,0.6836 -3.876953,0.6836 -2.278652,0 -4.029953,-0.55664 -5.253907,-1.66992 -1.22396,-1.11328 -1.835939,-2.53581 -1.835937,-4.26758 -2e-6,-1.01562 0.231118,-1.94335 0.693359,-2.78321 0.462237,-0.83983 1.067705,-1.51366 1.816407,-2.02148 0.748693,-0.5078 1.591791,-0.89192 2.529296,-1.15234 0.690097,-0.18228 1.731763,-0.35806 3.125,-0.52735 2.83853,-0.33853 4.928371,-0.74217 6.269532,-1.21093 0.01301,-0.48176 0.01951,-0.78775 0.01953,-0.91797 -1.6e-5,-1.43228 -0.332047,-2.44139 -0.996094,-3.02735 -0.898451,-0.79425 -2.233085,-1.19138 -4.003906,-1.1914 -1.653655,2e-5 -2.874357,0.28973 -3.662109,0.86914 -0.787767,0.57944 -1.370449,1.60483 -1.748047,3.07617 l -3.4375,-0.46875 c 0.312497,-1.47134 0.82682,-2.65949 1.542968,-3.56445 0.716142,-0.90493 1.751297,-1.60155 3.105469,-2.08985 1.354159,-0.48826 2.923168,-0.7324 4.707031,-0.73242 1.770821,2e-5 3.209621,0.20835 4.316407,0.625 1.106754,0.41669 1.920555,0.94078 2.441406,1.57227 0.520815,0.63153 0.885398,1.42905 1.09375,2.39257 0.117168,0.59898 0.175762,1.67971 0.175781,3.24219 l 0,4.6875 c -1.9e-5,3.26824 0.07485,5.33529 0.22461,6.20117 0.149719,0.86589 0.445943,1.69597 0.888671,2.49024 l -3.671875,0 c -0.364599,-0.72917 -0.598974,-1.58203 -0.703125,-2.5586 z m -0.292968,-7.85156 c -1.276057,0.52085 -3.190117,0.96355 -5.742188,1.32813 -1.445321,0.20834 -2.467455,0.44271 -3.066406,0.70312 -0.598965,0.26043 -1.061204,0.64129 -1.386719,1.14258 -0.325526,0.50131 -0.488286,1.05795 -0.488281,1.66992 -5e-6,0.93751 0.354812,1.71876 1.064453,2.34375 0.709628,0.625 1.748039,0.9375 3.115234,0.9375 1.354156,0 2.558582,-0.29622 3.613282,-0.88867 1.054673,-0.59244 1.829412,-1.40299 2.324218,-2.43164 0.377589,-0.79427 0.566391,-1.96614 0.566407,-3.51563 z"
         style=""
         id="path19913" />
      <path
         d="m 86.180127,245.75844 -3.515625,0 0,-22.40235 c -0.846365,0.80732 -1.956389,1.61461 -3.330078,2.42188 -1.373705,0.80731 -2.607427,1.41278 -3.701172,1.81641 l 0,-3.39844 c 1.96614,-0.92446 3.684888,-2.04425 5.15625,-3.35938 1.471343,-1.31507 2.513009,-2.59112 3.125,-3.82812 l 2.265625,0 z"
         style=""
         id="path19915" />
      <path
         d="m 107.29341,221.16859 0,-4.04296 3.51562,0 0,4.04296 z m 0,24.58985 0,-20.74219 3.51562,0 0,20.74219 z"
         style=""
         id="path19917" />
      <path
         d="m 116.18013,245.75844 0,-20.74219 3.16406,0 0,2.94922 c 1.52343,-2.27863 3.72395,-3.41795 6.60156,-3.41797 1.24999,2e-5 2.39908,0.22463 3.44727,0.67383 1.04816,0.44924 1.83266,1.03843 2.35351,1.76758 0.52082,0.72918 0.8854,1.59507 1.09375,2.59765 0.13019,0.65106 0.1953,1.79038 0.19532,3.41797 l 0,12.75391 -3.51563,0 0,-12.61719 c -2e-5,-1.43228 -0.13673,-2.50324 -0.41016,-3.21289 -0.27345,-0.70962 -0.75847,-1.27602 -1.45507,-1.69922 -0.69663,-0.42316 -1.51369,-0.63475 -2.45118,-0.63476 -1.4974,1e-5 -2.78972,0.47527 -3.87695,1.42578 -1.08724,0.95053 -1.63086,2.75392 -1.63086,5.41015 l 0,11.32813 z"
         style=""
         id="path19919" />
      <path
         d="m 138.46528,221.16859 0,-4.04296 3.51563,0 0,4.04296 z m 0,24.58985 0,-20.74219 3.51563,0 0,20.74219 z"
         style=""
         id="path19921" />
      <path
         d="m 145.49653,245.75844 0,-2.85156 13.20313,-15.15625 c -1.49741,0.0781 -2.81902,0.1172 -3.96485,0.11718 l -8.45703,0 0,-2.85156 16.95313,0 0,2.32422 -11.23047,13.16406 -2.16797,2.40235 c 1.57552,-0.11719 3.05338,-0.17578 4.43359,-0.17579 l 9.58985,0 0,3.02735 z"
         style=""
         id="path19923" />
      <path
         d="m 167.37153,221.16859 0,-4.04296 3.51563,0 0,4.04296 z m 0,24.58985 0,-20.74219 3.51563,0 0,20.74219 z"
         style=""
         id="path19925" />
      <path
         d="m 174.94966,235.38734 c 0,-3.84113 1.0677,-6.68618 3.20312,-8.53515 1.78385,-1.53644 3.95833,-2.30467 6.52344,-2.30469 2.85155,2e-5 5.18228,0.93427 6.99219,2.80273 1.80987,1.86851 2.71482,4.44989 2.71484,7.74415 -2e-5,2.66927 -0.40041,4.76888 -1.20117,6.29882 -0.8008,1.52995 -1.96616,2.7181 -3.49609,3.56446 -1.52997,0.84635 -3.19989,1.26953 -5.00977,1.26953 -2.90365,0 -5.25066,-0.93099 -7.04101,-2.79297 -1.79037,-1.86198 -2.68555,-4.54426 -2.68555,-8.04688 z m 3.61328,0 c -1e-5,2.65626 0.57942,4.64519 1.73828,5.9668 1.15885,1.32162 2.61718,1.98243 4.375,1.98242 1.74478,1e-5 3.1966,-0.66406 4.35547,-1.99218 1.15884,-1.32812 1.73826,-3.35286 1.73828,-6.07422 -2e-5,-2.56509 -0.5827,-4.50845 -1.74805,-5.83008 -1.16537,-1.3216 -2.61394,-1.9824 -4.3457,-1.98242 -1.75782,2e-5 -3.21615,0.65757 -4.375,1.97265 -1.15886,1.31512 -1.73829,3.3008 -1.73828,5.95703 z"
         style=""
         id="path19927" />
    </g>
    <rect
       style="fill:#ffffff;fill-opacity:1;stroke:#000000;stroke-width:1;stroke-miterlimit:4;stroke-opacity:1;stroke-dasharray:none"
       id="rect10177"
       width="149"
       height="349"
       x="0.5"
       y="-147.13782" />
    <rect
       style="fill:none;stroke:#000000;stroke-width:6;stroke-miterlimit:4;stroke-opacity:1;stroke-dasharray:none"
       id="rect10687"
       width="138"
       height="338"
       x="6"
       y="-141.63782"
       rx="26.999998"
       ry="26.999998" />
    <path
       id="path9013"
       style="fill:#000000;fill-opacity:1;fill-rule:evenodd;stroke-width:3.53692007"
       d="m 74.99942,2.36218 -9.8355,0 0,-60.86722 -40.1639,40.42666 0,-29.09389 49.9994,-50.46555 50.0006,50.46555 0,29.09389 -40.1639,-40.42666 0,60.86722 z"
       inkscape:connector-curvature="0" />
    <rect
       style="fill:#ffffff;fill-opacity:1;stroke:#000000;stroke-width:1;stroke-miterlimit:4;stroke-opacity:1;stroke-dasharray:none"
       id="rect10177-3"
       width="149"
       height="349"
       x="402.86218"
       y="-349.5"
       transform="matrix(0,1,-1,0,0,0)" />
    <rect
       style="fill:none;stroke:#000000;stroke-width:6;stroke-miterlimit:4;stroke-opacity:1;stroke-dasharray:none"
       id="rect10687-1"
       width="138"
       height="338"
       x="408.36218"
       y="-344"
       rx="26.999998"
       ry="26.999998"
       transform="matrix(0,1,-1,0,0,0)" />
    <path
       inkscape:connector-curvature="0"
       d="m 150,477.36159 0,-9.83555 -60.86722,0 40.42666,-40.16389 -29.09389,0 -50.46557,49.99944 50.46557,50.00061 29.09389,0 -40.42666,-40.16394 60.86722,0 z"
       style="fill:#000000;fill-opacity:1;fill-rule:evenodd;stroke-width:3.53692007"
       id="path19332-8" />
    <rect
       transform="matrix(0,1,-1,0,0,0)"
       y="-799.5"
       x="402.86218"
       height="349"
       width="149"
       id="rect19374"
       style="fill:#ffffff;fill-opacity:1;stroke:#000000;stroke-width:1;stroke-miterlimit:4;stroke-opacity:1;stroke-dasharray:none" />
    <rect
       transform="matrix(0,1,-1,0,0,0)"
       ry="26.999998"
       rx="26.999998"
       y="-794"
       x="408.36218"
       height="338"
       width="138"
       id="rect19376"
       style="fill:none;stroke:#000000;stroke-width:6;stroke-miterlimit:4;stroke-opacity:1;stroke-dasharray:none" />
    <path
       inkscape:connector-curvature="0"
       d="m 650,477.36159 0,-9.83555 60.86722,0 -40.42666,-40.16389 29.09389,0 50.46555,49.99944 -50.46555,50.00061 -29.09389,0 40.42666,-40.16394 -60.86722,0 z"
       style="fill:#000000;fill-opacity:1;fill-rule:evenodd;stroke-width:3.53692007"
       id="path19378" />
    <path
       id="path19380"
       style="fill:#000000;fill-opacity:1;fill-rule:evenodd;stroke-width:3.53692007"
       d="m 600,477.36159 0,-9.83555 -60.86722,0 40.42666,-40.16389 -29.09389,0 -50.46557,49.99944 50.46557,50.00061 29.09389,0 -40.42666,-40.16394 60.86722,0 z"
       inkscape:connector-curvature="0" />
    <rect
       style="fill:#ffffff;fill-opacity:1;stroke:#000000;stroke-width:1;stroke-miterlimit:4;stroke-opacity:1;stroke-dasharray:none"
       id="rect19382"
       width="149"
       height="349"
       x="402.86218"
       y="-1249.5"
       transform="matrix(0,1,-1,0,0,0)" />
    <rect
       style="fill:none;stroke:#000000;stroke-width:6;stroke-miterlimit:4;stroke-opacity:1;stroke-dasharray:none"
       id="rect19384"
       width="138"
       height="338"
       x="408.36218"
       y="-1244"
       rx="26.999998"
       ry="26.999998"
       transform="matrix(0,1,-1,0,0,0)" />
    <path
       id="path19386"
       style="fill:#000000;fill-opacity:1;fill-rule:evenodd;stroke-width:3.53692007"
       d="m 1100,477.36159 0,-9.83555 60.8672,0 -40.4266,-40.16389 29.0939,0 50.4655,49.99944 -50.4655,50.00061 -29.0939,0 40.4266,-40.16394 -60.8672,0 z"
       inkscape:connector-curvature="0" />
    <rect
       y="-147.13782"
       x="900.5"
       height="349"
       width="149"
       id="rect19390"
       style="fill:#ffffff;fill-opacity:1;stroke:#000000;stroke-width:1;stroke-miterlimit:4;stroke-opacity:1;stroke-dasharray:none" />
    <rect
       ry="26.999998"
       rx="26.999998"
       y="-141.63782"
       x="906"
       height="338"
       width="138"
       id="rect19392"
       style="fill:none;stroke:#000000;stroke-width:6;stroke-miterlimit:4;stroke-opacity:1;stroke-dasharray:none" />
    <path
       id="path19396"
       style="fill:#000000;fill-opacity:1;fill-rule:evenodd;stroke-width:3.53692007"
       d="m 974.9994,52.36218 -9.8355,0 0,60.86722 L 925,72.80274 l 0,29.09389 49.9994,50.46557 50.0006,-50.46557 0,-29.09389 -40.1639,40.42666 0,-60.86722 z"
       inkscape:connector-curvature="0" />
    <rect
       style="fill:#ffffff;fill-opacity:1;stroke:#000000;stroke-width:1;stroke-miterlimit:4;stroke-opacity:1;stroke-dasharray:none"
       id="rect19398"
       width="149"
       height="349"
       x="450.5"
       y="-147.13782" />
    <rect
       style="fill:none;stroke:#000000;stroke-width:6;stroke-miterlimit:4;stroke-opacity:1;stroke-dasharray:none"
       id="rect19400"
       width="138"
       height="338"
       x="456"
       y="-141.63782"
       rx="26.999998"
       ry="26.999998" />
    <path
       id="path19402"
       style="fill:#000000;fill-opacity:1;fill-rule:evenodd;stroke-width:3.53692007"
       d="m 524.99942,2.36218 -9.8355,0 0,-60.86722 -40.1639,40.42666 0,-29.09389 49.9994,-50.46555 50.00058,50.46555 0,29.09389 -40.16388,-40.42666 0,60.86722 z"
       inkscape:connector-curvature="0" />
    <path
       inkscape:connector-curvature="0"
       d="m 524.99942,52.36218 -9.8355,0 0,60.86722 -40.1639,-40.42666 0,29.09389 49.9994,50.46557 L 575,101.89663 l 0,-29.09389 -40.16388,40.42666 0,-60.86722 z"
       style="fill:#000000;fill-opacity:1;fill-rule:evenodd;stroke-width:3.53692007"
       id="path19404" />
    <rect
       style="fill:none;stroke:none;stroke-width:0.99999994000000003;stroke-miterlimit:4;stroke-opacity:1;stroke-dasharray:none"
       id="rect19553"
       width="1394.0105"
       height="848.52808"
       x="-76.771591"
       y="-212.3488" />
    <g
       style="font-size:40px;font-style:normal;font-weight:normal;line-height:125%;letter-spacing:0px;word-spacing:0px;fill:#000000;fill-opacity:1;stroke:none;font-family:Sans"
       id="text19783">
      <path
         d="m 467.31274,238.25844 3.69141,-0.3125 c 0.27343,1.79688 0.9082,3.14779 1.9043,4.05273 0.99608,0.90495 2.19725,1.35743 3.60351,1.35742 1.6927,1e-5 3.12499,-0.63801 4.29688,-1.91406 1.17186,-1.27603 1.75779,-2.96874 1.75781,-5.07812 -2e-5,-2.0052 -0.56317,-3.58723 -1.68945,-4.7461 -1.12632,-1.15884 -2.60093,-1.73826 -4.42383,-1.73828 -1.13282,2e-5 -2.15496,0.25718 -3.06641,0.77149 -0.91146,0.51433 -1.62761,1.18165 -2.14843,2.00195 l -3.30079,-0.42969 2.77344,-14.70703 14.23828,0 0,3.35938 -11.42578,0 -1.54297,7.69531 c 1.71874,-1.1979 3.52213,-1.79686 5.41016,-1.79688 2.49998,2e-5 4.60936,0.86591 6.32812,2.59766 1.71873,1.73178 2.57811,3.95835 2.57813,6.67969 -2e-5,2.59115 -0.75523,4.83073 -2.26563,6.71875 -1.83595,2.31771 -4.34246,3.47656 -7.51953,3.47656 -2.60417,0 -4.72982,-0.72917 -6.37695,-2.1875 -1.64714,-1.45833 -2.58789,-3.39192 -2.82227,-5.80078 z"
         style=""
         id="path19884" />
      <path
         d="m 487.91821,246.24672 8.30078,-29.60938 2.8125,0 -8.28125,29.60938 z"
         style=""
         id="path19886" />
      <path
         d="m 515.18384,243.19984 c -1.3021,1.10678 -2.55535,1.88803 -3.75977,2.34375 -1.20444,0.45573 -2.49675,0.6836 -3.87695,0.6836 -2.27865,0 -4.02995,-0.55664 -5.25391,-1.66992 -1.22396,-1.11328 -1.83594,-2.53581 -1.83593,-4.26758 -1e-5,-1.01562 0.23111,-1.94335 0.69335,-2.78321 0.46224,-0.83983 1.06771,-1.51366 1.81641,-2.02148 0.74869,-0.5078 1.59179,-0.89192 2.5293,-1.15234 0.69009,-0.18228 1.73176,-0.35806 3.125,-0.52735 2.83853,-0.33853 4.92837,-0.74217 6.26953,-1.21093 0.013,-0.48176 0.0195,-0.78775 0.0195,-0.91797 -2e-5,-1.43228 -0.33205,-2.44139 -0.99609,-3.02735 -0.89845,-0.79425 -2.23309,-1.19138 -4.00391,-1.1914 -1.65365,2e-5 -2.87436,0.28973 -3.66211,0.86914 -0.78777,0.57944 -1.37045,1.60483 -1.74805,3.07617 l -3.4375,-0.46875 c 0.3125,-1.47134 0.82682,-2.65949 1.54297,-3.56445 0.71614,-0.90493 1.7513,-1.60155 3.10547,-2.08985 1.35416,-0.48826 2.92317,-0.7324 4.70703,-0.73242 1.77082,2e-5 3.20962,0.20835 4.31641,0.625 1.10675,0.41669 1.92055,0.94078 2.44141,1.57227 0.52081,0.63153 0.88539,1.42905 1.09375,2.39257 0.11716,0.59898 0.17576,1.67971 0.17578,3.24219 l 0,4.6875 c -2e-5,3.26824 0.0748,5.33529 0.22461,6.20117 0.14972,0.86589 0.44594,1.69597 0.88867,2.49024 l -3.67188,0 c -0.3646,-0.72917 -0.59897,-1.58203 -0.70312,-2.5586 z m -0.29297,-7.85156 c -1.27606,0.52085 -3.19012,0.96355 -5.74219,1.32813 -1.44532,0.20834 -2.46745,0.44271 -3.0664,0.70312 -0.59897,0.26043 -1.06121,0.64129 -1.38672,1.14258 -0.32553,0.50131 -0.48829,1.05795 -0.48828,1.66992 -1e-5,0.93751 0.35481,1.71876 1.06445,2.34375 0.70963,0.625 1.74804,0.9375 3.11523,0.9375 1.35416,0 2.55858,-0.29622 3.61328,-0.88867 1.05468,-0.59244 1.82942,-1.40299 2.32422,-2.43164 0.37759,-0.79427 0.56639,-1.96614 0.56641,-3.51563 z"
         style=""
         id="path19888" />
      <path
         d="m 541.41431,242.37953 0,3.37891 -18.92578,0 c -0.026,-0.84636 0.11067,-1.66016 0.41015,-2.44141 0.48177,-1.28906 1.25325,-2.55859 2.31445,-3.80859 1.0612,-1.24999 2.5944,-2.69531 4.59961,-4.33594 3.11197,-2.55207 5.21483,-4.57355 6.3086,-6.06445 1.09373,-1.49087 1.64061,-2.90037 1.64062,-4.22852 -1e-5,-1.39321 -0.49806,-2.56833 -1.49414,-3.52539 -0.99611,-0.957 -2.29493,-1.43552 -3.89648,-1.43555 -1.69272,3e-5 -3.04689,0.50784 -4.0625,1.52344 -1.01563,1.01565 -1.52996,2.4219 -1.54297,4.21875 l -3.61328,-0.37109 c 0.24739,-2.69529 1.17838,-4.74933 2.79297,-6.16211 1.61457,-1.41273 3.78254,-2.11911 6.5039,-2.11914 2.74738,3e-5 4.92186,0.76174 6.52344,2.28515 1.60154,1.52347 2.40232,3.41149 2.40234,5.66407 -2e-5,1.14585 -0.23439,2.27215 -0.70312,3.3789 -0.46877,1.10679 -1.24676,2.27215 -2.33399,3.4961 -1.08725,1.22397 -2.89389,2.90365 -5.41992,5.03906 -2.10938,1.77084 -3.46355,2.97201 -4.0625,3.60351 -0.59896,0.63152 -1.09375,1.26629 -1.48437,1.9043 z"
         style=""
         id="path19890" />
      <path
         d="m 570.80884,238.16078 3.45703,0.44922 c -0.37762,2.38282 -1.34442,4.24805 -2.90039,5.5957 -1.55601,1.34766 -3.46681,2.02149 -5.73242,2.02149 -2.83855,0 -5.12045,-0.92774 -6.84571,-2.78321 -1.72526,-1.85546 -2.58789,-4.51496 -2.58789,-7.97851 0,-2.23957 0.37109,-4.1992 1.11328,-5.87891 0.74219,-1.67967 1.87174,-2.93943 3.38868,-3.77929 1.51692,-0.83983 3.1673,-1.25975 4.95117,-1.25977 2.25259,2e-5 4.09503,0.56968 5.52734,1.70898 1.43228,1.13935 2.35024,2.75718 2.75391,4.85352 l -3.41797,0.52734 c -0.32554,-1.39321 -0.90171,-2.44139 -1.72852,-3.14453 -0.82683,-0.7031 -1.82618,-1.05467 -2.99804,-1.05468 -1.77085,1e-5 -3.20965,0.63478 -4.31641,1.90429 -1.10678,1.26955 -1.66016,3.27801 -1.66016,6.02539 0,2.78647 0.53385,4.81121 1.60157,6.07422 1.0677,1.26303 2.46092,1.89454 4.17968,1.89453 1.3802,1e-5 2.53254,-0.42317 3.45704,-1.26953 0.92446,-0.84635 1.5104,-2.14843 1.75781,-3.90625 z"
         style=""
         id="path19892" />
      <path
         d="m 575.96509,235.38734 c 0,-3.84113 1.0677,-6.68618 3.20312,-8.53515 1.78385,-1.53644 3.95833,-2.30467 6.52344,-2.30469 2.85155,2e-5 5.18228,0.93427 6.99219,2.80273 1.80987,1.86851 2.71482,4.44989 2.71484,7.74415 -2e-5,2.66927 -0.40041,4.76888 -1.20117,6.29882 -0.8008,1.52995 -1.96616,2.7181 -3.49609,3.56446 -1.52997,0.84635 -3.19989,1.26953 -5.00977,1.26953 -2.90365,0 -5.25066,-0.93099 -7.04102,-2.79297 -1.79036,-1.86198 -2.68554,-4.54426 -2.68554,-8.04688 z m 3.61328,0 c -10e-6,2.65626 0.57942,4.64519 1.73828,5.9668 1.15885,1.32162 2.61718,1.98243 4.375,1.98242 1.74478,1e-5 3.1966,-0.66406 4.35547,-1.99218 1.15884,-1.32812 1.73826,-3.35286 1.73828,-6.07422 -2e-5,-2.56509 -0.5827,-4.50845 -1.74805,-5.83008 -1.16538,-1.3216 -2.61394,-1.9824 -4.3457,-1.98242 -1.75782,2e-5 -3.21615,0.65757 -4.375,1.97265 -1.15886,1.31512 -1.73829,3.3008 -1.73828,5.95703 z"
         style=""
         id="path19894" />
      <path
         d="m 599.53931,245.75844 0,-20.74219 3.16406,0 0,2.94922 c 1.52343,-2.27863 3.72395,-3.41795 6.60156,-3.41797 1.24999,2e-5 2.39908,0.22463 3.44727,0.67383 1.04816,0.44924 1.83266,1.03843 2.35351,1.76758 0.52082,0.72918 0.8854,1.59507 1.09375,2.59765 0.13019,0.65106 0.1953,1.79038 0.19532,3.41797 l 0,12.75391 -3.51563,0 0,-12.61719 c -2e-5,-1.43228 -0.13673,-2.50324 -0.41016,-3.21289 -0.27345,-0.70962 -0.75847,-1.27602 -1.45507,-1.69922 -0.69663,-0.42316 -1.51369,-0.63475 -2.45118,-0.63476 -1.4974,1e-5 -2.78972,0.47527 -3.87695,1.42578 -1.08725,0.95053 -1.63086,2.75392 -1.63086,5.41015 l 0,11.32813 z"
         style=""
         id="path19896" />
      <path
         d="m 629.48071,242.61391 0.50782,3.10547 c -0.9896,0.20833 -1.87501,0.3125 -2.65625,0.3125 -1.27605,0 -2.26564,-0.20183 -2.96875,-0.60547 -0.70313,-0.40365 -1.19793,-0.93425 -1.48438,-1.5918 -0.28646,-0.65755 -0.42969,-2.04101 -0.42969,-4.15039 l 0,-11.93359 -2.57812,0 0,-2.73438 2.57812,0 0,-5.13672 3.4961,-2.10937 0,7.24609 3.53515,0 0,2.73438 -3.53515,0 0,12.1289 c -10e-6,1.00261 0.0618,1.64714 0.18554,1.9336 0.12369,0.28646 0.32552,0.51432 0.60547,0.68359 0.27994,0.16927 0.68033,0.25391 1.20117,0.25391 0.39062,0 0.90494,-0.0456 1.54297,-0.13672 z"
         style=""
         id="path19898" />
      <path
         d="m 632.91821,221.16859 0,-4.04296 3.51563,0 0,4.04296 z m 0,24.58985 0,-20.74219 3.51563,0 0,20.74219 z"
         style=""
         id="path19900" />
      <path
         d="m 641.80493,245.75844 0,-20.74219 3.16406,0 0,2.94922 c 1.52343,-2.27863 3.72395,-3.41795 6.60157,-3.41797 1.24998,2e-5 2.39907,0.22463 3.44726,0.67383 1.04816,0.44924 1.83267,1.03843 2.35352,1.76758 0.52081,0.72918 0.8854,1.59507 1.09375,2.59765 0.13019,0.65106 0.19529,1.79038 0.19531,3.41797 l 0,12.75391 -3.51562,0 0,-12.61719 c -2e-5,-1.43228 -0.13674,-2.50324 -0.41016,-3.21289 -0.27345,-0.70962 -0.75848,-1.27602 -1.45508,-1.69922 -0.69663,-0.42316 -1.51368,-0.63475 -2.45117,-0.63476 -1.49741,1e-5 -2.78972,0.47527 -3.87695,1.42578 -1.08725,0.95053 -1.63087,2.75392 -1.63086,5.41015 l 0,11.32813 z"
         style=""
         id="path19902" />
      <path
         d="m 677.66431,245.75844 0,-3.04688 c -1.6146,2.34375 -3.80861,3.51563 -6.58203,3.51563 -1.22397,0 -2.36655,-0.23438 -3.42774,-0.70313 -1.0612,-0.46875 -1.84896,-1.05794 -2.36328,-1.76758 -0.51433,-0.70963 -0.87565,-1.57877 -1.08398,-2.60742 -0.14324,-0.6901 -0.21485,-1.78384 -0.21485,-3.28125 l 0,-12.85156 3.51563,0 0,11.50391 c -10e-6,1.83594 0.0716,3.07292 0.21484,3.71093 0.22135,0.92449 0.6901,1.6504 1.40625,2.17774 0.71614,0.52735 1.60155,0.79102 2.65625,0.79101 1.05468,1e-5 2.04426,-0.27018 2.96875,-0.81054 0.92447,-0.54036 1.57876,-1.27604 1.96289,-2.20703 0.3841,-0.93099 0.57616,-2.2819 0.57617,-4.05274 l 0,-11.11328 3.51563,0 0,20.74219 z"
         style=""
         id="path19904" />
      <path
         d="m 699.87134,243.19984 c -1.3021,1.10678 -2.55535,1.88803 -3.75977,2.34375 -1.20444,0.45573 -2.49675,0.6836 -3.87695,0.6836 -2.27865,0 -4.02995,-0.55664 -5.25391,-1.66992 -1.22396,-1.11328 -1.83594,-2.53581 -1.83593,-4.26758 -10e-6,-1.01562 0.23111,-1.94335 0.69335,-2.78321 0.46224,-0.83983 1.06771,-1.51366 1.81641,-2.02148 0.74869,-0.5078 1.59179,-0.89192 2.5293,-1.15234 0.69009,-0.18228 1.73176,-0.35806 3.125,-0.52735 2.83853,-0.33853 4.92837,-0.74217 6.26953,-1.21093 0.013,-0.48176 0.0195,-0.78775 0.0195,-0.91797 -2e-5,-1.43228 -0.33205,-2.44139 -0.99609,-3.02735 -0.89845,-0.79425 -2.23309,-1.19138 -4.00391,-1.1914 -1.65365,2e-5 -2.87436,0.28973 -3.66211,0.86914 -0.78777,0.57944 -1.37045,1.60483 -1.74805,3.07617 l -3.4375,-0.46875 c 0.3125,-1.47134 0.82682,-2.65949 1.54297,-3.56445 0.71614,-0.90493 1.7513,-1.60155 3.10547,-2.08985 1.35416,-0.48826 2.92317,-0.7324 4.70703,-0.73242 1.77082,2e-5 3.20962,0.20835 4.31641,0.625 1.10675,0.41669 1.92055,0.94078 2.44141,1.57227 0.52081,0.63153 0.88539,1.42905 1.09375,2.39257 0.11716,0.59898 0.17576,1.67971 0.17578,3.24219 l 0,4.6875 c -2e-5,3.26824 0.0748,5.33529 0.22461,6.20117 0.14972,0.86589 0.44594,1.69597 0.88867,2.49024 l -3.67188,0 c -0.3646,-0.72917 -0.59897,-1.58203 -0.70312,-2.5586 z m -0.29297,-7.85156 c -1.27606,0.52085 -3.19012,0.96355 -5.74219,1.32813 -1.44532,0.20834 -2.46745,0.44271 -3.0664,0.70312 -0.59897,0.26043 -1.06121,0.64129 -1.38672,1.14258 -0.32553,0.50131 -0.48829,1.05795 -0.48828,1.66992 -10e-6,0.93751 0.35481,1.71876 1.06445,2.34375 0.70963,0.625 1.74804,0.9375 3.11523,0.9375 1.35416,0 2.55858,-0.29622 3.61328,-0.88867 1.05468,-0.59244 1.82942,-1.40299 2.32422,-2.43164 0.37759,-0.79427 0.56639,-1.96614 0.56641,-3.51563 z"
         style=""
         id="path19906" />
    </g>
  </g>
</svg>
