<?xml version="1.0" encoding="UTF-8" standalone="no"?>
<!-- Created with Inkscape (http://www.inkscape.org/) -->

<svg
   xmlns:dc="http://purl.org/dc/elements/1.1/"
   xmlns:cc="http://creativecommons.org/ns#"
   xmlns:rdf="http://www.w3.org/1999/02/22-rdf-syntax-ns#"
   xmlns:svg="http://www.w3.org/2000/svg"
   xmlns="http://www.w3.org/2000/svg"
   xmlns:sodipodi="http://sodipodi.sourceforge.net/DTD/sodipodi-0.dtd"
   xmlns:inkscape="http://www.inkscape.org/namespaces/inkscape"
   version="1.1"
   width="200"
   height="200"
   id="svg2"
   inkscape:version="0.47 r22583"
   sodipodi:docname="Italian traffic signs - icona parchimetro.svg"
   sodipodi:version="0.32"
   inkscape:output_extension="org.inkscape.output.svg.inkscape">
  <metadata
     id="metadata2877">
    <rdf:RDF>
      <cc:Work
         rdf:about="">
        <dc:format>image/svg+xml</dc:format>
        <dc:type
           rdf:resource="http://purl.org/dc/dcmitype/StillImage" />
        <dc:title></dc:title>
      </cc:Work>
    </rdf:RDF>
  </metadata>
  <sodipodi:namedview
     pagecolor="#ffffff"
     bordercolor="#666666"
     borderopacity="1"
     objecttolerance="10"
     gridtolerance="10"
     guidetolerance="10"
     inkscape:pageopacity="0"
     inkscape:pageshadow="2"
     inkscape:window-width="1600"
     inkscape:window-height="838"
     id="namedview2875"
     showgrid="false"
     inkscape:zoom="2.3765092"
     inkscape:cx="117.62708"
     inkscape:cy="121.59422"
     inkscape:window-x="-8"
     inkscape:window-y="-8"
     inkscape:window-maximized="1"
     inkscape:current-layer="svg2" />
  <defs
     id="defs4">
    <inkscape:perspective
       sodipodi:type="inkscape:persp3d"
       inkscape:vp_x="0 : 100 : 1"
       inkscape:vp_y="0 : 1000 : 0"
       inkscape:vp_z="200 : 100 : 1"
       inkscape:persp3d-origin="100 : 66.666667 : 1"
       id="perspective2879" />
    <inkscape:perspective
       id="perspective2839"
       inkscape:persp3d-origin="0.5 : 0.33333333 : 1"
       inkscape:vp_z="1 : 0.5 : 1"
       inkscape:vp_y="0 : 1000 : 0"
       inkscape:vp_x="0 : 0.5 : 1"
       sodipodi:type="inkscape:persp3d" />
    <inkscape:perspective
       id="perspective3649"
       inkscape:persp3d-origin="0.5 : 0.33333333 : 1"
       inkscape:vp_z="1 : 0.5 : 1"
       inkscape:vp_y="0 : 1000 : 0"
       inkscape:vp_x="0 : 0.5 : 1"
       sodipodi:type="inkscape:persp3d" />
    <inkscape:perspective
       id="perspective3679"
       inkscape:persp3d-origin="0.5 : 0.33333333 : 1"
       inkscape:vp_z="1 : 0.5 : 1"
       inkscape:vp_y="0 : 1000 : 0"
       inkscape:vp_x="0 : 0.5 : 1"
       sodipodi:type="inkscape:persp3d" />
    <inkscape:perspective
       id="perspective3713"
       inkscape:persp3d-origin="0.5 : 0.33333333 : 1"
       inkscape:vp_z="1 : 0.5 : 1"
       inkscape:vp_y="0 : 1000 : 0"
       inkscape:vp_x="0 : 0.5 : 1"
       sodipodi:type="inkscape:persp3d" />
    <inkscape:perspective
       id="perspective3741"
       inkscape:persp3d-origin="0.5 : 0.33333333 : 1"
       inkscape:vp_z="1 : 0.5 : 1"
       inkscape:vp_y="0 : 1000 : 0"
       inkscape:vp_x="0 : 0.5 : 1"
       sodipodi:type="inkscape:persp3d" />
    <inkscape:perspective
       id="perspective3765"
       inkscape:persp3d-origin="0.5 : 0.33333333 : 1"
       inkscape:vp_z="1 : 0.5 : 1"
       inkscape:vp_y="0 : 1000 : 0"
       inkscape:vp_x="0 : 0.5 : 1"
       sodipodi:type="inkscape:persp3d" />
    <inkscape:perspective
       id="perspective3801"
       inkscape:persp3d-origin="0.5 : 0.33333333 : 1"
       inkscape:vp_z="1 : 0.5 : 1"
       inkscape:vp_y="0 : 1000 : 0"
       inkscape:vp_x="0 : 0.5 : 1"
       sodipodi:type="inkscape:persp3d" />
    <inkscape:perspective
       id="perspective2863"
       inkscape:persp3d-origin="0.5 : 0.33333333 : 1"
       inkscape:vp_z="1 : 0.5 : 1"
       inkscape:vp_y="0 : 1000 : 0"
       inkscape:vp_x="0 : 0.5 : 1"
       sodipodi:type="inkscape:persp3d" />
    <inkscape:perspective
       id="perspective3859"
       inkscape:persp3d-origin="0.5 : 0.33333333 : 1"
       inkscape:vp_z="1 : 0.5 : 1"
       inkscape:vp_y="0 : 1000 : 0"
       inkscape:vp_x="0 : 0.5 : 1"
       sodipodi:type="inkscape:persp3d" />
    <inkscape:perspective
       id="perspective3964"
       inkscape:persp3d-origin="0.5 : 0.33333333 : 1"
       inkscape:vp_z="1 : 0.5 : 1"
       inkscape:vp_y="0 : 1000 : 0"
       inkscape:vp_x="0 : 0.5 : 1"
       sodipodi:type="inkscape:persp3d" />
    <inkscape:perspective
       id="perspective3988"
       inkscape:persp3d-origin="0.5 : 0.33333333 : 1"
       inkscape:vp_z="1 : 0.5 : 1"
       inkscape:vp_y="0 : 1000 : 0"
       inkscape:vp_x="0 : 0.5 : 1"
       sodipodi:type="inkscape:persp3d" />
    <inkscape:perspective
       id="perspective2879-7"
       inkscape:persp3d-origin="0.5 : 0.33333333 : 1"
       inkscape:vp_z="1 : 0.5 : 1"
       inkscape:vp_y="0 : 1000 : 0"
       inkscape:vp_x="0 : 0.5 : 1"
       sodipodi:type="inkscape:persp3d" />
    <inkscape:perspective
       id="perspective4031"
       inkscape:persp3d-origin="0.5 : 0.33333333 : 1"
       inkscape:vp_z="1 : 0.5 : 1"
       inkscape:vp_y="0 : 1000 : 0"
       inkscape:vp_x="0 : 0.5 : 1"
       sodipodi:type="inkscape:persp3d" />
    <inkscape:perspective
       id="perspective4047"
       inkscape:persp3d-origin="0.5 : 0.33333333 : 1"
       inkscape:vp_z="1 : 0.5 : 1"
       inkscape:vp_y="0 : 1000 : 0"
       inkscape:vp_x="0 : 0.5 : 1"
       sodipodi:type="inkscape:persp3d" />
    <inkscape:perspective
       id="perspective4063"
       inkscape:persp3d-origin="0.5 : 0.33333333 : 1"
       inkscape:vp_z="1 : 0.5 : 1"
       inkscape:vp_y="0 : 1000 : 0"
       inkscape:vp_x="0 : 0.5 : 1"
       sodipodi:type="inkscape:persp3d" />
    <inkscape:perspective
       id="perspective4079"
       inkscape:persp3d-origin="0.5 : 0.33333333 : 1"
       inkscape:vp_z="1 : 0.5 : 1"
       inkscape:vp_y="0 : 1000 : 0"
       inkscape:vp_x="0 : 0.5 : 1"
       sodipodi:type="inkscape:persp3d" />
    <inkscape:perspective
       id="perspective4097"
       inkscape:persp3d-origin="0.5 : 0.33333333 : 1"
       inkscape:vp_z="1 : 0.5 : 1"
       inkscape:vp_y="0 : 1000 : 0"
       inkscape:vp_x="0 : 0.5 : 1"
       sodipodi:type="inkscape:persp3d" />
    <inkscape:perspective
       id="perspective4115"
       inkscape:persp3d-origin="0.5 : 0.33333333 : 1"
       inkscape:vp_z="1 : 0.5 : 1"
       inkscape:vp_y="0 : 1000 : 0"
       inkscape:vp_x="0 : 0.5 : 1"
       sodipodi:type="inkscape:persp3d" />
    <inkscape:perspective
       id="perspective4129"
       inkscape:persp3d-origin="0.5 : 0.33333333 : 1"
       inkscape:vp_z="1 : 0.5 : 1"
       inkscape:vp_y="0 : 1000 : 0"
       inkscape:vp_x="0 : 0.5 : 1"
       sodipodi:type="inkscape:persp3d" />
    <inkscape:perspective
       id="perspective4153"
       inkscape:persp3d-origin="0.5 : 0.33333333 : 1"
       inkscape:vp_z="1 : 0.5 : 1"
       inkscape:vp_y="0 : 1000 : 0"
       inkscape:vp_x="0 : 0.5 : 1"
       sodipodi:type="inkscape:persp3d" />
    <inkscape:perspective
       id="perspective4179"
       inkscape:persp3d-origin="0.5 : 0.33333333 : 1"
       inkscape:vp_z="1 : 0.5 : 1"
       inkscape:vp_y="0 : 1000 : 0"
       inkscape:vp_x="0 : 0.5 : 1"
       sodipodi:type="inkscape:persp3d" />
    <inkscape:perspective
       id="perspective4195"
       inkscape:persp3d-origin="0.5 : 0.33333333 : 1"
       inkscape:vp_z="1 : 0.5 : 1"
       inkscape:vp_y="0 : 1000 : 0"
       inkscape:vp_x="0 : 0.5 : 1"
       sodipodi:type="inkscape:persp3d" />
    <inkscape:perspective
       id="perspective4213"
       inkscape:persp3d-origin="0.5 : 0.33333333 : 1"
       inkscape:vp_z="1 : 0.5 : 1"
       inkscape:vp_y="0 : 1000 : 0"
       inkscape:vp_x="0 : 0.5 : 1"
       sodipodi:type="inkscape:persp3d" />
    <inkscape:perspective
       id="perspective4267"
       inkscape:persp3d-origin="0.5 : 0.33333333 : 1"
       inkscape:vp_z="1 : 0.5 : 1"
       inkscape:vp_y="0 : 1000 : 0"
       inkscape:vp_x="0 : 0.5 : 1"
       sodipodi:type="inkscape:persp3d" />
    <inkscape:perspective
       id="perspective4283"
       inkscape:persp3d-origin="0.5 : 0.33333333 : 1"
       inkscape:vp_z="1 : 0.5 : 1"
       inkscape:vp_y="0 : 1000 : 0"
       inkscape:vp_x="0 : 0.5 : 1"
       sodipodi:type="inkscape:persp3d" />
    <inkscape:perspective
       id="perspective4314"
       inkscape:persp3d-origin="0.5 : 0.33333333 : 1"
       inkscape:vp_z="1 : 0.5 : 1"
       inkscape:vp_y="0 : 1000 : 0"
       inkscape:vp_x="0 : 0.5 : 1"
       sodipodi:type="inkscape:persp3d" />
    <inkscape:perspective
       id="perspective4330"
       inkscape:persp3d-origin="0.5 : 0.33333333 : 1"
       inkscape:vp_z="1 : 0.5 : 1"
       inkscape:vp_y="0 : 1000 : 0"
       inkscape:vp_x="0 : 0.5 : 1"
       sodipodi:type="inkscape:persp3d" />
    <inkscape:perspective
       id="perspective4346"
       inkscape:persp3d-origin="0.5 : 0.33333333 : 1"
       inkscape:vp_z="1 : 0.5 : 1"
       inkscape:vp_y="0 : 1000 : 0"
       inkscape:vp_x="0 : 0.5 : 1"
       sodipodi:type="inkscape:persp3d" />
  </defs>
  <path
     style="fill:#ffffff;fill-opacity:1;stroke:none"
     d="m -2.1039262,-3.1405409 207.7153762,0 0,207.3483909 -207.7153762,0 0,-207.3483909 z"
     id="rect2881" />
  <path
     style="fill:none;stroke:#000000;stroke-width:3;stroke-miterlimit:4;stroke-opacity:1"
     d="m 21.814432,2.8621521 157.645218,0 c 10.29357,0 18.58045,8.2868829 18.58045,18.5804539 l 0,157.645234 c 0,10.29357 -8.28688,18.58045 -18.58045,18.58045 l -157.645218,0 c -10.293571,0 -18.5804535,-8.28688 -18.5804535,-18.58045 l 0,-157.645234 c 0,-10.293571 8.2868825,-18.5804539 18.5804535,-18.5804539 z"
     id="rect4614" />
  <path
     style="fill:#0060a8;fill-opacity:1;stroke:none"
     d="m 41.027112,110.62934 c 0.04686,-37.520888 0.142095,-72.96688 0.211638,-78.768866 l 0.126438,-10.549065 5.498142,-0.124812 c 3.023977,-0.06865 29.664363,-0.161901 59.20086,-0.207231 l 53.70272,-0.08242 0,78.976109 0,78.976095 -59.41249,0 -59.412497,0 0.08519,-68.21981 z m 67.719588,57.06772 c 8.44846,-0.54921 15.60761,-1.67787 23.3058,-3.67423 5.40234,-1.40098 12.08491,-3.74841 14.56487,-5.1163 1.02604,-0.56594 1.05151,-0.60345 1.03376,-1.52222 -0.0206,-1.06466 -1.16273,-3.76711 -4.50005,-10.64751 -2.28238,-4.70548 -3.18683,-6.17911 -3.79246,-6.17911 -0.95826,0 -7.66937,2.73785 -8.60684,3.51123 -0.48374,0.39907 -0.49517,0.46488 -0.24993,1.43882 0.14135,0.56135 0.87594,2.6718 1.63243,4.6899 1.09717,2.92697 1.31799,3.70648 1.0915,3.85322 -0.37703,0.24426 -2.26837,0.81353 -2.70289,0.81353 -0.47006,0 -1.01147,-1.03316 -2.48067,-4.73383 -1.53409,-3.86413 -2.02395,-4.73384 -2.66636,-4.73384 -0.70099,0 -8.29369,1.58805 -8.47908,1.77344 -0.0314,0.0314 0.18121,1.53411 0.47255,3.33927 0.29134,1.80517 0.60623,3.99626 0.69974,4.86909 0.19302,1.80151 0.36576,1.61276 -1.90835,2.08535 -1.39553,0.29001 -1.42439,0.28712 -1.52383,-0.15257 -0.0558,-0.2465 -0.39142,-2.1997 -0.74594,-4.34044 -0.37364,-2.25627 -0.79979,-4.15756 -1.01387,-4.52345 -0.42694,-0.72971 -0.30648,-0.72216 -6.70769,-0.42078 l -3.62928,0.17088 0,5.43985 0,5.43986 -0.78897,-0.101 c -0.43393,-0.0555 -1.22766,-0.15549 -1.763831,-0.2221 l -0.97486,-0.1211 -0.15354,-5.2187 -0.15354,-5.2187 -3.710632,-0.16806 c -6.241122,-0.28268 -6.130646,-0.28797 -6.572608,0.31466 -0.261217,0.35617 -0.592849,1.78254 -1.027251,4.41824 -0.352824,2.14075 -0.691962,4.14007 -0.753641,4.44294 l -0.112139,0.55067 -1.409563,-0.2929 c -0.775259,-0.1611 -1.579872,-0.34574 -1.788026,-0.41032 -0.428641,-0.13298 -0.449744,0.1525 0.404173,-5.4677 0.564277,-3.71388 0.504262,-4.3522 -0.443052,-4.71237 -1.125861,-0.42805 -6.746399,-1.48211 -7.279126,-1.3651 -0.952098,0.20912 -1.404581,0.94736 -2.811933,4.5878 -1.543432,3.99243 -1.946742,4.77091 -2.47169,4.77091 -0.204052,0 -0.975755,-0.19852 -1.714891,-0.44117 l -1.343888,-0.44116 0.715903,-1.82056 c 1.78206,-4.53179 2.640777,-7.2402 2.451741,-7.73282 -0.06447,-0.168 -0.514008,-0.538 -0.998969,-0.82221 -1.068696,-0.62629 -7.352353,-3.04878 -7.908204,-3.04878 -0.218135,0 -0.636197,0.31412 -0.929027,0.69804 -1.097711,1.43917 -6.880548,13.69892 -7.45714,15.80931 -0.200306,0.73313 -0.176133,0.88789 0.20147,1.28983 1.279647,1.36212 11.04822,4.71022 19.233072,6.59198 6.147965,1.41347 12.758013,2.35895 19.040532,2.7235 4.359764,0.25298 13.03254,0.26683 16.72622,0.0267 l 0,0 0,1e-5 z m -4.34662,-44.63877 c 4.54406,-11.13405 5.59368,-13.82932 5.4439,-13.9791 -0.36717,-0.36717 -2.55527,-0.48256 -9.0922,-0.47947 -7.005443,0.003 -8.954848,0.11768 -9.387987,0.55082 -0.14685,0.14685 -0.03347,0.74245 0.356499,1.87273 1.330088,3.85511 8.085956,18.9098 8.987428,20.02745 0.18211,0.22578 0.25487,0.21905 0.39806,-0.0368 0.0964,-0.17221 1.57881,-3.75223 3.2943,-7.95562 l 0,0 0,-1e-5 z"
     id="path4354"
     sodipodi:nodetypes="ccccccccccccsssssssssssssssssssccccccccccsscccsssssscccssssssssccccssssssccc" />
  <path
     style="fill:#0060a8;fill-opacity:1;stroke:none"
     d="m 88.08796,84.625024 c -3.802211,-0.08016 -7.357355,-0.25425 -7.961527,-0.38986 -0.438538,-0.09843 -1.191948,-0.636871 -1.552409,-1.109459 -0.66638,-0.87367 -0.997232,-2.58464 -1.223926,-6.329429 -0.07931,-1.310098 -0.138116,-8.359514 -0.170688,-20.460682 l -0.04969,-18.461952 1.664191,-1.867235 1.664191,-1.867235 22.149538,0 22.14955,0 1.65268,1.854406 1.65269,1.854406 -0.005,4.062887 c -0.004,3.343193 -0.2823,40.102666 -0.30423,40.163849 -0.004,0.01025 -0.70118,0.61381 -1.55001,1.341253 l -1.54333,1.322625 -16.41893,-0.01742 c -9.030421,-0.0096 -18.099449,-0.05285 -20.153407,-0.09615 z m 8.941687,-12.975797 0,-6.462004 0.552282,-0.05485 c 0.30375,-0.03017 2.445811,-0.107702 4.760131,-0.172297 6.06669,-0.169331 6.96035,-0.283397 8.5209,-1.087611 2.32671,-1.199042 4.53294,-3.527333 5.61158,-5.922032 0.18632,-0.413644 0.46552,-1.218396 0.62046,-1.788337 0.25687,-0.944937 0.28207,-1.207762 0.28591,-2.982389 0.004,-1.713424 -0.0254,-2.059341 -0.24325,-2.892899 -0.46333,-1.772532 -1.12184,-3.12239 -2.23236,-4.576039 -0.90249,-1.18134 -1.64834,-1.850294 -3.83382,-3.43858 l -1.15903,-0.84232 -7.41447,-0.12171 c -4.077951,-0.06694 -8.799112,-0.1522 -10.491457,-0.189461 l -3.076992,-0.06775 0,18.530141 0,18.530139 4.050058,0 4.050058,0 0,-6.462003 z"
     id="path4356" />
  <path
     id="path4360"
     d="m 80.75742,33.744174 42.28395,0 c 2.76096,0 4.98369,2.222728 4.98369,4.98369 l 0,42.283961 c 0,2.760962 -2.22273,4.98369 -4.98369,4.98369 l -42.283951,0 c -2.760965,0 -4.98369,-2.222728 -4.98369,-4.98369 l 0,-42.283961 c 0,-2.760962 2.222725,-4.98369 4.98369,-4.98369 z"
     style="fill:none;stroke:#ffffff;stroke-width:1.30499995;stroke-miterlimit:4;stroke-opacity:1;stroke-dasharray:none" />
  <g
     style="font-size:50.82464981px;font-style:normal;font-variant:normal;font-weight:normal;font-stretch:normal;text-align:start;line-height:100%;writing-mode:lr-tb;text-anchor:start;fill:#ffffff;fill-opacity:1;stroke:none;font-family:Transport Heavy;-inkscape-font-specification:'Transport Heavy,'"
     id="text4362">
    <path
       d="m 88.929045,41.276262 0.794135,0 0.2978,0 0.297801,0 3.077274,0 0.694868,0 0.595601,0 0.694869,0 0.595601,0 0.496334,0 0.595602,0 0.397067,0 1.786805,0 1.091938,0 0.39706,0 0.39707,0 0.39707,0 0.39707,0 1.68753,0 0.29781,0 1.1912,0 0.2978,0 0.19853,0.09927 0.2978,0 0.69487,0.09927 0.2978,0.09927 1.38974,0.2978 c 6.20415,2.978047 8.81817,7.676675 7.84208,14.095899 -2.21699,7.593939 -7.2796,10.902832 -15.18783,9.92669 l -0.39707,0 -1.091935,0 -0.496334,0 -0.297801,0 -0.397067,0 -0.297801,0 -1.985338,0 0,13.301764 -1.29047,0 -0.397067,0 -1.786804,0 -0.397068,0 -0.397067,0 -0.397068,0 -1.687537,0 -0.297801,0 -1.191203,0 0,-0.297801 0,-0.397068 0,-0.2978 0,-0.397068 0,-1.786804 0,-0.794135 0,-0.794135 0,-0.297801 0,-1.985338 0,-0.397067 0,-0.496335 0,-0.397067 0,-0.496335 0,-1.29047 0,-0.397067 0,-1.687537 0,-0.297801 0,-1.191203 0,-0.397067 0,-0.496335 0,-1.290469 0,-0.397068 0,-1.687537 0,-0.297801 0,-1.191203 0,-0.694868 0,-0.794135 0,-0.794135 0,-0.794135 0,-0.297801 0,-0.297801 0,-3.077273 0,-0.694869 0,-0.595601 0,-0.694868 0,-0.595602 0,-0.496334 0,-0.595602 0,-0.397067 0,-1.786804 0,-1.091936 0,-0.397068 0,-0.397067 0,-0.397068 0,-0.397067 0,-1.687538 0,-0.2978 0,-1.191203 z m 7.047949,17.470973 0.397068,0 0.397067,0 0.397068,0 1.091936,0 1.091935,0 1.786802,0 0.2978,0 0.2978,0 0.39707,0 1.78681,0 0.39706,0 c 0.41359,-0.165418 0.77757,-0.264685 1.09194,-0.2978 2.7629,-1.637876 3.68939,-3.887923 2.77947,-6.750149 -0.61217,-1.422791 -1.57175,-2.415459 -2.87874,-2.978007 l -0.2978,0 c -1.02578,-0.297764 -1.95227,-0.397031 -2.77947,-0.297801 l -0.49634,0 -0.39706,0 -0.49634,0 -1.290468,0 -0.397067,0 -1.687538,0 -0.2978,0 -1.191203,0 z"
       style=""
       id="path4379" />
  </g>
</svg>
