<?xml version="1.0" encoding="UTF-8" standalone="no"?>
<!-- Created with Inkscape (http://www.inkscape.org/) -->

<svg
   xmlns:dc="http://purl.org/dc/elements/1.1/"
   xmlns:cc="http://creativecommons.org/ns#"
   xmlns:rdf="http://www.w3.org/1999/02/22-rdf-syntax-ns#"
   xmlns:svg="http://www.w3.org/2000/svg"
   xmlns="http://www.w3.org/2000/svg"
   xmlns:sodipodi="http://sodipodi.sourceforge.net/DTD/sodipodi-0.dtd"
   xmlns:inkscape="http://www.inkscape.org/namespaces/inkscape"
   version="1.1"
   width="200"
   height="200"
   id="svg2"
   inkscape:version="0.47 r22583"
   sodipodi:docname="Italian traffic signs - icona autobus extraurbano.svg">
  <metadata
     id="metadata2877">
    <rdf:RDF>
      <cc:Work
         rdf:about="">
        <dc:format>image/svg+xml</dc:format>
        <dc:type
           rdf:resource="http://purl.org/dc/dcmitype/StillImage" />
      </cc:Work>
    </rdf:RDF>
  </metadata>
  <sodipodi:namedview
     pagecolor="#ffffff"
     bordercolor="#666666"
     borderopacity="1"
     objecttolerance="10"
     gridtolerance="10"
     guidetolerance="10"
     inkscape:pageopacity="0"
     inkscape:pageshadow="2"
     inkscape:window-width="1600"
     inkscape:window-height="838"
     id="namedview2875"
     showgrid="false"
     inkscape:zoom="2.8163281"
     inkscape:cx="39.282643"
     inkscape:cy="90.031135"
     inkscape:window-x="-8"
     inkscape:window-y="-8"
     inkscape:window-maximized="1"
     inkscape:current-layer="svg2" />
  <defs
     id="defs4">
    <inkscape:perspective
       sodipodi:type="inkscape:persp3d"
       inkscape:vp_x="0 : 100 : 1"
       inkscape:vp_y="0 : 1000 : 0"
       inkscape:vp_z="200 : 100 : 1"
       inkscape:persp3d-origin="100 : 66.666667 : 1"
       id="perspective2879" />
  </defs>
  <rect
     style="fill:#ffffff;fill-opacity:1;stroke:none"
     id="rect2881"
     width="200.9709"
     height="200.61583"
     x="0"
     y="-0.61582947"
     rx="0"
     ry="0" />
  <rect
     width="194.80612"
     height="194.80614"
     ry="18.580454"
     x="3.2339785"
     y="2.8621521"
     id="rect4614"
     style="fill:none;stroke:#000000;stroke-width:3;stroke-miterlimit:4;stroke-opacity:1;stroke-dasharray:none" />
  <g
     transform="matrix(1.5053531,0,0,1.5053531,-49.109093,-51.261248)"
     id="g2821">
    <path
       d="m 43.09375,98.5 0,13.21875 8.3125,0 c -0.0049,-0.12452 -0.03125,-0.24928 -0.03125,-0.375 0,-5.19004 4.216211,-9.40625 9.40625,-9.40625 5.19004,0 9.40625,4.21621 9.40625,9.40625 0,0.12572 -0.02635,0.25048 -0.03125,0.375 l 49.25,0 c -0.005,-0.12452 -0.0312,-0.24928 -0.0312,-0.375 0,-5.19004 4.21621,-9.40625 9.40625,-9.40625 5.19004,0 9.40625,4.21621 9.40625,9.40625 0,0.12572 -0.0264,0.25048 -0.0312,0.375 l 17.5,0 0,-13.21875 -112.5625,0 z"
       id="rect1889"
       style="fill:#000000;fill-opacity:1;fill-rule:evenodd;stroke:none" />
    <path
       d="m 45.34375,81.8125 -2.25,15.560632 12.434231,0 0,-15.560632 -1.34375,0 -8.840481,0 z m 11.440302,0 0,15.560632 98.872198,0 -4.46875,-15.560632 -92.778448,0 -1.625,0 z M 46.875,83.625 l 7.309231,0 0,11.966882 -8.652981,0 L 46.875,83.625 z m 11.534052,0 17.184698,0 0,11.966882 -17.184698,0 0,-11.966882 z m 18.684698,0 17.1875,0 0,11.966882 -17.1875,0 0,-11.966882 z m 18.6875,0 17.15625,0 0,11.966882 -17.15625,0 0,-11.966882 z m 18.65625,0 17.1875,0 0,11.966882 -17.1875,0 0,-11.966882 z m 18.6875,0 17.125,0 3,11.966882 -20.125,0 0,-11.966882 z"
       id="rect2782"
       style="fill:#000000;fill-opacity:1;fill-rule:evenodd;stroke:none" />
    <path
       d="m 60.78125,103.5 c -4.33076,0 -7.84375,3.51299 -7.84375,7.84375 0,4.33076 3.512989,7.84375 7.84375,7.84375 4.33076,0 7.84375,-3.51299 7.84375,-7.84375 0,-4.33076 -3.512992,-7.84375 -7.84375,-7.84375 z m 0,4.65625 c 1.752925,0 3.15625,1.43457 3.15625,3.1875 -10e-7,1.75292 -1.403324,3.15625 -3.15625,3.15625 -1.752928,0 -3.1875,-1.40332 -3.1875,-3.15625 10e-7,-1.75293 1.434574,-3.1875 3.1875,-3.1875 z"
       id="path3707"
       style="fill:#000000;fill-opacity:1;fill-rule:evenodd;stroke:none" />
    <path
       d="m 128.77627,103.5 c -4.33076,0 -7.84375,3.51299 -7.84375,7.84375 0,4.33076 3.51299,7.84375 7.84375,7.84375 4.33076,0 7.84375,-3.51299 7.84375,-7.84375 0,-4.33076 -3.51299,-7.84375 -7.84375,-7.84375 z m 0,4.65625 c 1.75292,0 3.15625,1.43457 3.15625,3.1875 0,1.75292 -1.40333,3.15625 -3.15625,3.15625 -1.75293,0 -3.1875,-1.40332 -3.1875,-3.15625 0,-1.75293 1.43457,-3.1875 3.1875,-3.1875 z"
       id="path3712"
       style="fill:#000000;fill-opacity:1;fill-rule:evenodd;stroke:none" />
  </g>
</svg>
