<?xml version="1.0" encoding="UTF-8" standalone="no"?>
<!-- Created with Inkscape (http://www.inkscape.org/) -->

<svg
   xmlns:dc="http://purl.org/dc/elements/1.1/"
   xmlns:cc="http://creativecommons.org/ns#"
   xmlns:rdf="http://www.w3.org/1999/02/22-rdf-syntax-ns#"
   xmlns:svg="http://www.w3.org/2000/svg"
   xmlns="http://www.w3.org/2000/svg"
   xmlns:sodipodi="http://sodipodi.sourceforge.net/DTD/sodipodi-0.dtd"
   xmlns:inkscape="http://www.inkscape.org/namespaces/inkscape"
   version="1.1"
   width="200"
   height="200"
   id="svg2"
   inkscape:version="0.47 r22583"
   sodipodi:docname="Italian traffic signs - icona porto turistico.svg"
   sodipodi:version="0.32"
   inkscape:output_extension="org.inkscape.output.svg.inkscape">
  <metadata
     id="metadata2877">
    <rdf:RDF>
      <cc:Work
         rdf:about="">
        <dc:format>image/svg+xml</dc:format>
        <dc:type
           rdf:resource="http://purl.org/dc/dcmitype/StillImage" />
        <dc:title />
      </cc:Work>
    </rdf:RDF>
  </metadata>
  <sodipodi:namedview
     pagecolor="#ffffff"
     bordercolor="#666666"
     borderopacity="1"
     objecttolerance="10"
     gridtolerance="10"
     guidetolerance="10"
     inkscape:pageopacity="0"
     inkscape:pageshadow="2"
     inkscape:window-width="1600"
     inkscape:window-height="838"
     id="namedview2875"
     showgrid="false"
     inkscape:zoom="2.3931339"
     inkscape:cx="104.04149"
     inkscape:cy="100.65567"
     inkscape:window-x="-8"
     inkscape:window-y="-8"
     inkscape:window-maximized="1"
     inkscape:current-layer="svg2" />
  <defs
     id="defs4">
    <inkscape:perspective
       sodipodi:type="inkscape:persp3d"
       inkscape:vp_x="0 : 100 : 1"
       inkscape:vp_y="0 : 1000 : 0"
       inkscape:vp_z="200 : 100 : 1"
       inkscape:persp3d-origin="100 : 66.666667 : 1"
       id="perspective2879" />
    <inkscape:perspective
       id="perspective2839"
       inkscape:persp3d-origin="0.5 : 0.33333333 : 1"
       inkscape:vp_z="1 : 0.5 : 1"
       inkscape:vp_y="0 : 1000 : 0"
       inkscape:vp_x="0 : 0.5 : 1"
       sodipodi:type="inkscape:persp3d" />
    <inkscape:perspective
       id="perspective3649"
       inkscape:persp3d-origin="0.5 : 0.33333333 : 1"
       inkscape:vp_z="1 : 0.5 : 1"
       inkscape:vp_y="0 : 1000 : 0"
       inkscape:vp_x="0 : 0.5 : 1"
       sodipodi:type="inkscape:persp3d" />
    <inkscape:perspective
       id="perspective3679"
       inkscape:persp3d-origin="0.5 : 0.33333333 : 1"
       inkscape:vp_z="1 : 0.5 : 1"
       inkscape:vp_y="0 : 1000 : 0"
       inkscape:vp_x="0 : 0.5 : 1"
       sodipodi:type="inkscape:persp3d" />
    <inkscape:perspective
       id="perspective3713"
       inkscape:persp3d-origin="0.5 : 0.33333333 : 1"
       inkscape:vp_z="1 : 0.5 : 1"
       inkscape:vp_y="0 : 1000 : 0"
       inkscape:vp_x="0 : 0.5 : 1"
       sodipodi:type="inkscape:persp3d" />
    <inkscape:perspective
       id="perspective3741"
       inkscape:persp3d-origin="0.5 : 0.33333333 : 1"
       inkscape:vp_z="1 : 0.5 : 1"
       inkscape:vp_y="0 : 1000 : 0"
       inkscape:vp_x="0 : 0.5 : 1"
       sodipodi:type="inkscape:persp3d" />
    <inkscape:perspective
       id="perspective3765"
       inkscape:persp3d-origin="0.5 : 0.33333333 : 1"
       inkscape:vp_z="1 : 0.5 : 1"
       inkscape:vp_y="0 : 1000 : 0"
       inkscape:vp_x="0 : 0.5 : 1"
       sodipodi:type="inkscape:persp3d" />
    <inkscape:perspective
       id="perspective3801"
       inkscape:persp3d-origin="0.5 : 0.33333333 : 1"
       inkscape:vp_z="1 : 0.5 : 1"
       inkscape:vp_y="0 : 1000 : 0"
       inkscape:vp_x="0 : 0.5 : 1"
       sodipodi:type="inkscape:persp3d" />
    <inkscape:perspective
       id="perspective2863"
       inkscape:persp3d-origin="0.5 : 0.33333333 : 1"
       inkscape:vp_z="1 : 0.5 : 1"
       inkscape:vp_y="0 : 1000 : 0"
       inkscape:vp_x="0 : 0.5 : 1"
       sodipodi:type="inkscape:persp3d" />
    <inkscape:perspective
       id="perspective3859"
       inkscape:persp3d-origin="0.5 : 0.33333333 : 1"
       inkscape:vp_z="1 : 0.5 : 1"
       inkscape:vp_y="0 : 1000 : 0"
       inkscape:vp_x="0 : 0.5 : 1"
       sodipodi:type="inkscape:persp3d" />
    <inkscape:perspective
       id="perspective3964"
       inkscape:persp3d-origin="0.5 : 0.33333333 : 1"
       inkscape:vp_z="1 : 0.5 : 1"
       inkscape:vp_y="0 : 1000 : 0"
       inkscape:vp_x="0 : 0.5 : 1"
       sodipodi:type="inkscape:persp3d" />
    <inkscape:perspective
       id="perspective3988"
       inkscape:persp3d-origin="0.5 : 0.33333333 : 1"
       inkscape:vp_z="1 : 0.5 : 1"
       inkscape:vp_y="0 : 1000 : 0"
       inkscape:vp_x="0 : 0.5 : 1"
       sodipodi:type="inkscape:persp3d" />
    <inkscape:perspective
       id="perspective2879-7"
       inkscape:persp3d-origin="0.5 : 0.33333333 : 1"
       inkscape:vp_z="1 : 0.5 : 1"
       inkscape:vp_y="0 : 1000 : 0"
       inkscape:vp_x="0 : 0.5 : 1"
       sodipodi:type="inkscape:persp3d" />
    <inkscape:perspective
       id="perspective4031"
       inkscape:persp3d-origin="0.5 : 0.33333333 : 1"
       inkscape:vp_z="1 : 0.5 : 1"
       inkscape:vp_y="0 : 1000 : 0"
       inkscape:vp_x="0 : 0.5 : 1"
       sodipodi:type="inkscape:persp3d" />
    <inkscape:perspective
       id="perspective4047"
       inkscape:persp3d-origin="0.5 : 0.33333333 : 1"
       inkscape:vp_z="1 : 0.5 : 1"
       inkscape:vp_y="0 : 1000 : 0"
       inkscape:vp_x="0 : 0.5 : 1"
       sodipodi:type="inkscape:persp3d" />
    <inkscape:perspective
       id="perspective4063"
       inkscape:persp3d-origin="0.5 : 0.33333333 : 1"
       inkscape:vp_z="1 : 0.5 : 1"
       inkscape:vp_y="0 : 1000 : 0"
       inkscape:vp_x="0 : 0.5 : 1"
       sodipodi:type="inkscape:persp3d" />
    <inkscape:perspective
       id="perspective4079"
       inkscape:persp3d-origin="0.5 : 0.33333333 : 1"
       inkscape:vp_z="1 : 0.5 : 1"
       inkscape:vp_y="0 : 1000 : 0"
       inkscape:vp_x="0 : 0.5 : 1"
       sodipodi:type="inkscape:persp3d" />
    <inkscape:perspective
       id="perspective4097"
       inkscape:persp3d-origin="0.5 : 0.33333333 : 1"
       inkscape:vp_z="1 : 0.5 : 1"
       inkscape:vp_y="0 : 1000 : 0"
       inkscape:vp_x="0 : 0.5 : 1"
       sodipodi:type="inkscape:persp3d" />
    <inkscape:perspective
       id="perspective4115"
       inkscape:persp3d-origin="0.5 : 0.33333333 : 1"
       inkscape:vp_z="1 : 0.5 : 1"
       inkscape:vp_y="0 : 1000 : 0"
       inkscape:vp_x="0 : 0.5 : 1"
       sodipodi:type="inkscape:persp3d" />
    <inkscape:perspective
       id="perspective4129"
       inkscape:persp3d-origin="0.5 : 0.33333333 : 1"
       inkscape:vp_z="1 : 0.5 : 1"
       inkscape:vp_y="0 : 1000 : 0"
       inkscape:vp_x="0 : 0.5 : 1"
       sodipodi:type="inkscape:persp3d" />
    <inkscape:perspective
       id="perspective4153"
       inkscape:persp3d-origin="0.5 : 0.33333333 : 1"
       inkscape:vp_z="1 : 0.5 : 1"
       inkscape:vp_y="0 : 1000 : 0"
       inkscape:vp_x="0 : 0.5 : 1"
       sodipodi:type="inkscape:persp3d" />
    <inkscape:perspective
       id="perspective4179"
       inkscape:persp3d-origin="0.5 : 0.33333333 : 1"
       inkscape:vp_z="1 : 0.5 : 1"
       inkscape:vp_y="0 : 1000 : 0"
       inkscape:vp_x="0 : 0.5 : 1"
       sodipodi:type="inkscape:persp3d" />
    <inkscape:perspective
       id="perspective4195"
       inkscape:persp3d-origin="0.5 : 0.33333333 : 1"
       inkscape:vp_z="1 : 0.5 : 1"
       inkscape:vp_y="0 : 1000 : 0"
       inkscape:vp_x="0 : 0.5 : 1"
       sodipodi:type="inkscape:persp3d" />
    <inkscape:perspective
       id="perspective4213"
       inkscape:persp3d-origin="0.5 : 0.33333333 : 1"
       inkscape:vp_z="1 : 0.5 : 1"
       inkscape:vp_y="0 : 1000 : 0"
       inkscape:vp_x="0 : 0.5 : 1"
       sodipodi:type="inkscape:persp3d" />
    <inkscape:perspective
       id="perspective4267"
       inkscape:persp3d-origin="0.5 : 0.33333333 : 1"
       inkscape:vp_z="1 : 0.5 : 1"
       inkscape:vp_y="0 : 1000 : 0"
       inkscape:vp_x="0 : 0.5 : 1"
       sodipodi:type="inkscape:persp3d" />
    <inkscape:perspective
       id="perspective4283"
       inkscape:persp3d-origin="0.5 : 0.33333333 : 1"
       inkscape:vp_z="1 : 0.5 : 1"
       inkscape:vp_y="0 : 1000 : 0"
       inkscape:vp_x="0 : 0.5 : 1"
       sodipodi:type="inkscape:persp3d" />
    <inkscape:perspective
       id="perspective4314"
       inkscape:persp3d-origin="0.5 : 0.33333333 : 1"
       inkscape:vp_z="1 : 0.5 : 1"
       inkscape:vp_y="0 : 1000 : 0"
       inkscape:vp_x="0 : 0.5 : 1"
       sodipodi:type="inkscape:persp3d" />
    <inkscape:perspective
       id="perspective4330"
       inkscape:persp3d-origin="0.5 : 0.33333333 : 1"
       inkscape:vp_z="1 : 0.5 : 1"
       inkscape:vp_y="0 : 1000 : 0"
       inkscape:vp_x="0 : 0.5 : 1"
       sodipodi:type="inkscape:persp3d" />
    <inkscape:perspective
       id="perspective4346"
       inkscape:persp3d-origin="0.5 : 0.33333333 : 1"
       inkscape:vp_z="1 : 0.5 : 1"
       inkscape:vp_y="0 : 1000 : 0"
       inkscape:vp_x="0 : 0.5 : 1"
       sodipodi:type="inkscape:persp3d" />
    <inkscape:perspective
       id="perspective3742"
       inkscape:persp3d-origin="0.5 : 0.33333333 : 1"
       inkscape:vp_z="1 : 0.5 : 1"
       inkscape:vp_y="0 : 1000 : 0"
       inkscape:vp_x="0 : 0.5 : 1"
       sodipodi:type="inkscape:persp3d" />
    <inkscape:perspective
       id="perspective3776"
       inkscape:persp3d-origin="0.5 : 0.33333333 : 1"
       inkscape:vp_z="1 : 0.5 : 1"
       inkscape:vp_y="0 : 1000 : 0"
       inkscape:vp_x="0 : 0.5 : 1"
       sodipodi:type="inkscape:persp3d" />
    <inkscape:perspective
       id="perspective3792"
       inkscape:persp3d-origin="0.5 : 0.33333333 : 1"
       inkscape:vp_z="1 : 0.5 : 1"
       inkscape:vp_y="0 : 1000 : 0"
       inkscape:vp_x="0 : 0.5 : 1"
       sodipodi:type="inkscape:persp3d" />
    <inkscape:perspective
       id="perspective3808"
       inkscape:persp3d-origin="0.5 : 0.33333333 : 1"
       inkscape:vp_z="1 : 0.5 : 1"
       inkscape:vp_y="0 : 1000 : 0"
       inkscape:vp_x="0 : 0.5 : 1"
       sodipodi:type="inkscape:persp3d" />
    <inkscape:perspective
       id="perspective3824"
       inkscape:persp3d-origin="0.5 : 0.33333333 : 1"
       inkscape:vp_z="1 : 0.5 : 1"
       inkscape:vp_y="0 : 1000 : 0"
       inkscape:vp_x="0 : 0.5 : 1"
       sodipodi:type="inkscape:persp3d" />
    <inkscape:perspective
       id="perspective4354"
       inkscape:persp3d-origin="0.5 : 0.33333333 : 1"
       inkscape:vp_z="1 : 0.5 : 1"
       inkscape:vp_y="0 : 1000 : 0"
       inkscape:vp_x="0 : 0.5 : 1"
       sodipodi:type="inkscape:persp3d" />
    <inkscape:perspective
       id="perspective4395"
       inkscape:persp3d-origin="0.5 : 0.33333333 : 1"
       inkscape:vp_z="1 : 0.5 : 1"
       inkscape:vp_y="0 : 1000 : 0"
       inkscape:vp_x="0 : 0.5 : 1"
       sodipodi:type="inkscape:persp3d" />
    <inkscape:perspective
       id="perspective4435"
       inkscape:persp3d-origin="0.5 : 0.33333333 : 1"
       inkscape:vp_z="1 : 0.5 : 1"
       inkscape:vp_y="0 : 1000 : 0"
       inkscape:vp_x="0 : 0.5 : 1"
       sodipodi:type="inkscape:persp3d" />
    <inkscape:perspective
       id="perspective4460"
       inkscape:persp3d-origin="0.5 : 0.33333333 : 1"
       inkscape:vp_z="1 : 0.5 : 1"
       inkscape:vp_y="0 : 1000 : 0"
       inkscape:vp_x="0 : 0.5 : 1"
       sodipodi:type="inkscape:persp3d" />
    <inkscape:perspective
       id="perspective4479"
       inkscape:persp3d-origin="0.5 : 0.33333333 : 1"
       inkscape:vp_z="1 : 0.5 : 1"
       inkscape:vp_y="0 : 1000 : 0"
       inkscape:vp_x="0 : 0.5 : 1"
       sodipodi:type="inkscape:persp3d" />
    <inkscape:perspective
       id="perspective4495"
       inkscape:persp3d-origin="0.5 : 0.33333333 : 1"
       inkscape:vp_z="1 : 0.5 : 1"
       inkscape:vp_y="0 : 1000 : 0"
       inkscape:vp_x="0 : 0.5 : 1"
       sodipodi:type="inkscape:persp3d" />
    <inkscape:perspective
       id="perspective4511"
       inkscape:persp3d-origin="0.5 : 0.33333333 : 1"
       inkscape:vp_z="1 : 0.5 : 1"
       inkscape:vp_y="0 : 1000 : 0"
       inkscape:vp_x="0 : 0.5 : 1"
       sodipodi:type="inkscape:persp3d" />
    <inkscape:perspective
       id="perspective4527"
       inkscape:persp3d-origin="0.5 : 0.33333333 : 1"
       inkscape:vp_z="1 : 0.5 : 1"
       inkscape:vp_y="0 : 1000 : 0"
       inkscape:vp_x="0 : 0.5 : 1"
       sodipodi:type="inkscape:persp3d" />
    <inkscape:perspective
       id="perspective4543"
       inkscape:persp3d-origin="0.5 : 0.33333333 : 1"
       inkscape:vp_z="1 : 0.5 : 1"
       inkscape:vp_y="0 : 1000 : 0"
       inkscape:vp_x="0 : 0.5 : 1"
       sodipodi:type="inkscape:persp3d" />
    <inkscape:perspective
       id="perspective4559"
       inkscape:persp3d-origin="0.5 : 0.33333333 : 1"
       inkscape:vp_z="1 : 0.5 : 1"
       inkscape:vp_y="0 : 1000 : 0"
       inkscape:vp_x="0 : 0.5 : 1"
       sodipodi:type="inkscape:persp3d" />
    <inkscape:perspective
       id="perspective4575"
       inkscape:persp3d-origin="0.5 : 0.33333333 : 1"
       inkscape:vp_z="1 : 0.5 : 1"
       inkscape:vp_y="0 : 1000 : 0"
       inkscape:vp_x="0 : 0.5 : 1"
       sodipodi:type="inkscape:persp3d" />
    <inkscape:perspective
       id="perspective4591"
       inkscape:persp3d-origin="0.5 : 0.33333333 : 1"
       inkscape:vp_z="1 : 0.5 : 1"
       inkscape:vp_y="0 : 1000 : 0"
       inkscape:vp_x="0 : 0.5 : 1"
       sodipodi:type="inkscape:persp3d" />
    <inkscape:perspective
       id="perspective4607"
       inkscape:persp3d-origin="0.5 : 0.33333333 : 1"
       inkscape:vp_z="1 : 0.5 : 1"
       inkscape:vp_y="0 : 1000 : 0"
       inkscape:vp_x="0 : 0.5 : 1"
       sodipodi:type="inkscape:persp3d" />
    <inkscape:perspective
       id="perspective4629"
       inkscape:persp3d-origin="0.5 : 0.33333333 : 1"
       inkscape:vp_z="1 : 0.5 : 1"
       inkscape:vp_y="0 : 1000 : 0"
       inkscape:vp_x="0 : 0.5 : 1"
       sodipodi:type="inkscape:persp3d" />
    <inkscape:perspective
       id="perspective4674"
       inkscape:persp3d-origin="0.5 : 0.33333333 : 1"
       inkscape:vp_z="1 : 0.5 : 1"
       inkscape:vp_y="0 : 1000 : 0"
       inkscape:vp_x="0 : 0.5 : 1"
       sodipodi:type="inkscape:persp3d" />
    <inkscape:perspective
       id="perspective4690"
       inkscape:persp3d-origin="0.5 : 0.33333333 : 1"
       inkscape:vp_z="1 : 0.5 : 1"
       inkscape:vp_y="0 : 1000 : 0"
       inkscape:vp_x="0 : 0.5 : 1"
       sodipodi:type="inkscape:persp3d" />
    <inkscape:perspective
       id="perspective4735"
       inkscape:persp3d-origin="0.5 : 0.33333333 : 1"
       inkscape:vp_z="1 : 0.5 : 1"
       inkscape:vp_y="0 : 1000 : 0"
       inkscape:vp_x="0 : 0.5 : 1"
       sodipodi:type="inkscape:persp3d" />
    <inkscape:perspective
       id="perspective4751"
       inkscape:persp3d-origin="0.5 : 0.33333333 : 1"
       inkscape:vp_z="1 : 0.5 : 1"
       inkscape:vp_y="0 : 1000 : 0"
       inkscape:vp_x="0 : 0.5 : 1"
       sodipodi:type="inkscape:persp3d" />
    <inkscape:perspective
       id="perspective4767"
       inkscape:persp3d-origin="0.5 : 0.33333333 : 1"
       inkscape:vp_z="1 : 0.5 : 1"
       inkscape:vp_y="0 : 1000 : 0"
       inkscape:vp_x="0 : 0.5 : 1"
       sodipodi:type="inkscape:persp3d" />
    <inkscape:perspective
       id="perspective4787"
       inkscape:persp3d-origin="0.5 : 0.33333333 : 1"
       inkscape:vp_z="1 : 0.5 : 1"
       inkscape:vp_y="0 : 1000 : 0"
       inkscape:vp_x="0 : 0.5 : 1"
       sodipodi:type="inkscape:persp3d" />
    <inkscape:perspective
       id="perspective4813"
       inkscape:persp3d-origin="0.5 : 0.33333333 : 1"
       inkscape:vp_z="1 : 0.5 : 1"
       inkscape:vp_y="0 : 1000 : 0"
       inkscape:vp_x="0 : 0.5 : 1"
       sodipodi:type="inkscape:persp3d" />
    <inkscape:perspective
       id="perspective4905"
       inkscape:persp3d-origin="0.5 : 0.33333333 : 1"
       inkscape:vp_z="1 : 0.5 : 1"
       inkscape:vp_y="0 : 1000 : 0"
       inkscape:vp_x="0 : 0.5 : 1"
       sodipodi:type="inkscape:persp3d" />
    <inkscape:perspective
       id="perspective2877"
       inkscape:persp3d-origin="0.5 : 0.33333333 : 1"
       inkscape:vp_z="1 : 0.5 : 1"
       inkscape:vp_y="0 : 1000 : 0"
       inkscape:vp_x="0 : 0.5 : 1"
       sodipodi:type="inkscape:persp3d" />
    <inkscape:perspective
       id="perspective2893"
       inkscape:persp3d-origin="0.5 : 0.33333333 : 1"
       inkscape:vp_z="1 : 0.5 : 1"
       inkscape:vp_y="0 : 1000 : 0"
       inkscape:vp_x="0 : 0.5 : 1"
       sodipodi:type="inkscape:persp3d" />
    <inkscape:perspective
       id="perspective3693"
       inkscape:persp3d-origin="0.5 : 0.33333333 : 1"
       inkscape:vp_z="1 : 0.5 : 1"
       inkscape:vp_y="0 : 1000 : 0"
       inkscape:vp_x="0 : 0.5 : 1"
       sodipodi:type="inkscape:persp3d" />
    <inkscape:perspective
       id="perspective3709"
       inkscape:persp3d-origin="0.5 : 0.33333333 : 1"
       inkscape:vp_z="1 : 0.5 : 1"
       inkscape:vp_y="0 : 1000 : 0"
       inkscape:vp_x="0 : 0.5 : 1"
       sodipodi:type="inkscape:persp3d" />
    <inkscape:perspective
       id="perspective3725"
       inkscape:persp3d-origin="0.5 : 0.33333333 : 1"
       inkscape:vp_z="1 : 0.5 : 1"
       inkscape:vp_y="0 : 1000 : 0"
       inkscape:vp_x="0 : 0.5 : 1"
       sodipodi:type="inkscape:persp3d" />
    <inkscape:perspective
       id="perspective3743"
       inkscape:persp3d-origin="0.5 : 0.33333333 : 1"
       inkscape:vp_z="1 : 0.5 : 1"
       inkscape:vp_y="0 : 1000 : 0"
       inkscape:vp_x="0 : 0.5 : 1"
       sodipodi:type="inkscape:persp3d" />
    <inkscape:perspective
       id="perspective3759"
       inkscape:persp3d-origin="0.5 : 0.33333333 : 1"
       inkscape:vp_z="1 : 0.5 : 1"
       inkscape:vp_y="0 : 1000 : 0"
       inkscape:vp_x="0 : 0.5 : 1"
       sodipodi:type="inkscape:persp3d" />
    <inkscape:perspective
       id="perspective4112"
       inkscape:persp3d-origin="0.5 : 0.33333333 : 1"
       inkscape:vp_z="1 : 0.5 : 1"
       inkscape:vp_y="0 : 1000 : 0"
       inkscape:vp_x="0 : 0.5 : 1"
       sodipodi:type="inkscape:persp3d" />
  </defs>
  <path
     style="fill:#ffffff;fill-opacity:1;stroke:none"
     d="m -5.3484157,-3.4380807 207.7153757,0 0,207.3483907 -207.7153757,0 0,-207.3483907 z"
     id="rect2881" />
  <path
     style="fill:#000000"
     d="m 61.533129,153.52186 c -3.097769,-1.582 -6.102174,-2.87635 -6.676453,-2.87635 -1.217825,0 -3.594541,-2.65806 -5.212502,-5.82953 l -1.134736,-2.22426 56.108282,0 56.10829,0 -0.89312,2.15726 c -0.49122,1.1865 -1.85377,3.11822 -3.02789,4.29271 -2.0681,2.06875 -2.21236,2.1178 -4.61869,1.57033 -3.25899,-0.74145 -5.99005,0.009 -12.08221,3.32135 -5.52441,3.00337 -6.84429,3.0341 -11.37329,0.26479 -7.38692,-4.51681 -12.89612,-4.63585 -20.5847,-0.44481 -6.07431,3.31112 -7.5442,3.35628 -12.382167,0.38047 -7.241562,-4.45425 -12.277975,-4.55488 -20.220458,-0.40404 -2.808269,1.46764 -5.84216,2.66843 -6.741992,2.66843 -0.899826,0 -4.17059,-1.29436 -7.268364,-2.87635 z m -36.196144,-17.9772 c 0.641345,-0.7119 22.077584,-25.24 47.636088,-54.50688 C 98.531581,51.770895 120.05606,27.183966 120.80526,26.40016 l 1.36218,-1.425102 0,55.93198 0,55.931972 -48.998263,0 -48.998271,0 1.166079,-1.29435 z M 127.92015,94.153946 c 0,-25.978696 0.20703,-42.471173 0.52897,-42.138561 0.56291,0.581571 50.6701,84.253785 50.6701,84.612205 0,0.11628 -11.51979,0.21142 -25.59954,0.21142 l -25.59953,0 0,-42.685064 z"
     id="path3749"
     sodipodi:nodetypes="cscccccssssssssccsccccccccssccc" />
  <path
     style="fill:#0060a8;fill-opacity:1;stroke:none"
     d="m 67.601929,163.18804 c -0.137131,-0.027 -0.557875,-0.11103 -0.934987,-0.18672 -1.098639,-0.22051 -2.976648,-0.98791 -5.983916,-2.44516 -1.542728,-0.74756 -3.197655,-1.50805 -3.677615,-1.68997 -2.711622,-1.02779 -5.820808,-1.08048 -8.631371,-0.14628 -0.701879,0.23329 -2.440955,0.96613 -3.864613,1.62853 -2.924347,1.36064 -4.511363,2.00851 -5.957288,2.43195 -0.843186,0.24694 -1.278902,0.2918 -2.864429,0.29496 -2.332704,0.005 -2.646453,-0.0786 -7.296632,-1.93674 -2.286719,-0.91371 -3.484574,-1.4555 -3.589508,-1.62353 -0.289505,-0.46357 -0.430208,-2.20224 -0.304623,-3.76425 0.06464,-0.80399 0.147664,-1.49194 0.184495,-1.52877 0.07975,-0.0797 0.430537,0.0541 3.526372,1.3453 2.971086,1.23919 4.236554,1.65188 5.892854,1.92176 1.125232,0.18334 1.489007,0.19278 2.570852,0.0667 2.126641,-0.24788 3.506148,-0.7257 7.618069,-2.63862 4.363795,-2.03011 5.265173,-2.32345 7.542228,-2.45451 1.482941,-0.0854 3.075564,0.0883 4.335444,0.47286 0.460983,0.14068 2.408928,1.0015 4.328768,1.91293 5.207551,2.47224 5.965853,2.71869 8.353819,2.71492 2.28155,-0.004 2.878627,-0.20594 8.039618,-2.72459 2.431589,-1.18665 4.000822,-1.87651 4.631553,-2.03609 2.10728,-0.53317 5.798659,-0.44519 7.676293,0.18296 0.532932,0.17829 2.366374,0.99917 4.074316,1.82418 4.858727,2.34699 6.045388,2.74571 8.176832,2.74744 2.2143,0.002 3.33293,-0.37432 8.53954,-2.87121 1.71414,-0.82204 3.50932,-1.61572 3.98928,-1.76373 2.10848,-0.65023 5.98254,-0.62009 7.99311,0.0622 0.54052,0.18342 2.36418,1.00048 4.05259,1.81569 4.74675,2.29188 6.10154,2.75576 8.08768,2.76927 2.1704,0.0148 3.47484,-0.42257 8.47722,-2.8421 1.88556,-0.912 3.73683,-1.76213 4.11394,-1.88917 0.57614,-0.1941 1.07394,-0.23048 3.11662,-0.22779 1.41801,0.002 2.79459,0.0695 3.30362,0.16235 1.38201,0.25202 3.31032,0.96077 5.73459,2.10775 2.71315,1.28364 4.26585,1.93028 5.53127,2.30354 0.7923,0.23371 1.25346,0.28099 2.75895,0.28285 2.14135,0.003 2.32162,-0.0468 5.02398,-1.37852 2.07914,-1.02458 3.21181,-1.43198 4.9941,-1.79628 0.67606,-0.13819 1.25108,-0.25125 1.27782,-0.25125 0.10224,0 0.037,4.45014 -0.0722,4.92093 -0.14404,0.62124 -0.33373,0.75949 -1.17835,0.85876 -0.92173,0.10833 -2.49871,0.67995 -4.87178,1.76592 -2.92699,1.33947 -3.50265,1.49378 -5.54759,1.48711 -1.60982,-0.005 -1.74201,-0.0257 -3.04131,-0.47013 -0.74709,-0.25554 -2.71056,-1.1159 -4.36327,-1.91189 -4.63488,-2.23229 -4.98881,-2.3544 -7.36809,-2.54203 -2.0133,-0.15877 -4.31173,0.0192 -5.63142,0.43612 -0.54898,0.17342 -2.36759,0.9946 -4.04134,1.82484 -4.79522,2.37861 -5.85546,2.75299 -7.84278,2.76936 -2.00857,0.0166 -3.46243,-0.46759 -8.35255,-2.78139 -3.57393,-1.69103 -4.77651,-2.08985 -6.75423,-2.23992 -1.74212,-0.1322 -3.89648,-0.008 -5.0339,0.29104 -1.0092,0.26501 -2.0105,0.6944 -4.9793,2.13527 -3.75278,1.82137 -5.49873,2.46796 -7.10973,2.63302 -1.67439,0.17154 -3.744013,-0.46566 -8.224058,-2.53208 -5.174149,-2.38656 -5.784339,-2.56045 -8.975874,-2.55788 -3.202885,0.003 -3.740111,0.15962 -8.5862,2.50977 -3.260634,1.58127 -4.8535,2.21255 -6.186593,2.45185 -0.887852,0.15937 -2.137909,0.20532 -2.680296,0.0985 z"
     id="path3765" />
  <path
     style="fill:#0060a8;fill-opacity:1;stroke:none"
     d="m 34.069283,172.361 c -1.399821,-0.22023 -3.45103,-0.92545 -6.527285,-2.24412 l -3.074131,-1.31777 -0.03365,-2.64186 c -0.01851,-1.45302 0.01479,-2.64186 0.07398,-2.64186 0.201902,0 1.477234,0.4711 4.356011,1.60908 4.076523,1.61145 5.558353,1.92154 7.850663,1.64282 2.326192,-0.28284 3.920605,-0.81378 7.543834,-2.51209 3.915349,-1.83525 5.563271,-2.39612 7.510772,-2.55633 2.173089,-0.17877 4.114343,0.3858 8.60188,2.50168 4.88858,2.30497 6.473539,2.77741 8.851209,2.63834 2.036327,-0.11911 3.632428,-0.65107 7.35523,-2.45143 4.410974,-2.13316 6.289334,-2.75078 8.370114,-2.7522 2.304451,-0.002 3.678823,0.4256 8.459651,2.62931 4.581529,2.11184 5.947681,2.53312 8.227882,2.53724 2.22621,0.004 3.59371,-0.42168 7.66689,-2.38664 4.49476,-2.16834 6.34558,-2.77849 8.43245,-2.77991 2.29879,-0.002 3.67259,0.42441 8.43001,2.61384 4.59681,2.11552 5.99939,2.55281 8.19519,2.55503 2.29539,0.002 3.46931,-0.39084 7.76013,-2.59902 1.3886,-0.71461 3.04879,-1.47434 3.68931,-1.68828 1.61306,-0.53877 3.63047,-0.78377 5.87899,-0.71396 2.18989,0.068 2.45627,0.15112 6.34175,1.97925 3.3548,1.57843 4.75441,2.15218 6.18707,2.53625 1.88553,0.50548 3.02613,0.62822 4.28293,0.46089 1.41123,-0.18789 2.06297,-0.41874 4.19429,-1.48562 1.91303,-0.95761 3.10643,-1.42285 4.3941,-1.71301 0.463,-0.10433 0.96805,-0.21886 1.12232,-0.2545 l 0.2805,-0.0648 -0.001,2.21518 c -0.001,2.39066 -0.10825,3.05788 -0.53531,3.32248 -0.15087,0.0935 -0.7647,0.28969 -1.36406,0.43601 -1.34242,0.32774 -2.53464,0.79587 -4.36196,1.71275 -2.68423,1.34683 -4.18705,1.69943 -6.09154,1.42923 -1.9927,-0.28273 -3.48507,-0.81905 -7.84525,-2.81942 -4.0793,-1.87175 -5.57402,-2.3022 -7.99378,-2.3022 -2.32146,0 -3.86086,0.45937 -7.53558,2.24866 -4.98092,2.42531 -6.38301,2.90307 -8.52732,2.90565 -2.05024,0.002 -3.51054,-0.46828 -7.66689,-2.47153 -4.33285,-2.0883 -6.06712,-2.54766 -9.7301,-2.5772 -2.24413,-0.0181 -2.75141,0.14232 -6.79911,2.15008 -5.03991,2.49991 -6.23568,2.91034 -8.46611,2.90586 -2.227355,-0.004 -3.474855,-0.42262 -8.652681,-2.90027 -1.433536,-0.68597 -3.060414,-1.37079 -3.615282,-1.52182 -1.840868,-0.50108 -6.209648,-0.52779 -8.364081,-0.0511 -0.610491,0.13507 -1.846406,0.67544 -4.113943,1.79872 -4.437666,2.1983 -6.098057,2.75003 -8.270017,2.74804 -1.82235,-0.002 -3.50265,-0.55482 -7.936422,-2.61268 -4.814998,-2.23479 -5.843419,-2.54859 -8.35255,-2.54859 -2.501207,0 -3.506845,0.30395 -7.657384,2.31443 -4.297641,2.08173 -6.152045,2.69408 -8.424391,2.78183 -0.754222,0.0291 -1.706911,1.5e-4 -2.117086,-0.0644 z"
     id="path3767" />
  <path
     style="fill:none;stroke:#000000;stroke-width:2.99693632;stroke-miterlimit:4;stroke-opacity:1"
     d="m 21.885756,2.8220492 156.802304,0 c 10.23854,0 18.48111,8.3144238 18.48111,18.6422018 l 0,158.169119 c 0,10.32778 -8.24257,18.6422 -18.48111,18.6422 l -156.802304,0 c -10.23854,0 -18.4811103,-8.31442 -18.4811103,-18.6422 l 0,-158.169119 c 0,-10.327778 8.2425703,-18.6422018 18.4811103,-18.6422018 z"
     id="rect4614-7" />
</svg>
