<?xml version="1.0" encoding="UTF-8" standalone="no"?>
<!-- Created with Inkscape (http://www.inkscape.org/) -->

<svg
   xmlns:dc="http://purl.org/dc/elements/1.1/"
   xmlns:cc="http://creativecommons.org/ns#"
   xmlns:rdf="http://www.w3.org/1999/02/22-rdf-syntax-ns#"
   xmlns:svg="http://www.w3.org/2000/svg"
   xmlns="http://www.w3.org/2000/svg"
   xmlns:sodipodi="http://sodipodi.sourceforge.net/DTD/sodipodi-0.dtd"
   xmlns:inkscape="http://www.inkscape.org/namespaces/inkscape"
   width="399.9978"
   height="739.99622"
   id="svg9300"
   version="1.1"
   inkscape:version="0.48.5 r10040"
   sodipodi:docname="CANC SP37.svg">
  <defs
     id="defs9302" />
  <sodipodi:namedview
     id="base"
     pagecolor="#ffffff"
     bordercolor="#666666"
     borderopacity="1.0"
     inkscape:pageopacity="0.0"
     inkscape:pageshadow="2"
     inkscape:zoom="0.5"
     inkscape:cx="-241.40474"
     inkscape:cy="304.65718"
     inkscape:document-units="px"
     inkscape:current-layer="layer1"
     showgrid="false"
     fit-margin-top="0"
     fit-margin-left="0"
     fit-margin-right="0"
     fit-margin-bottom="0"
     inkscape:window-width="1366"
     inkscape:window-height="705"
     inkscape:window-x="-8"
     inkscape:window-y="-8"
     inkscape:window-maximized="1" />
  <metadata
     id="metadata9305">
    <rdf:RDF>
      <cc:Work
         rdf:about="">
        <dc:format>image/svg+xml</dc:format>
        <dc:type
           rdf:resource="http://purl.org/dc/dcmitype/StillImage" />
        <dc:title />
      </cc:Work>
    </rdf:RDF>
  </metadata>
  <g
     inkscape:label="Livello 1"
     inkscape:groupmode="layer"
     id="layer1"
     transform="translate(-210.75159,-121.611)">
    <path
       style="fill:#ffffff;fill-opacity:1;stroke:#000000;stroke-width:4;stroke-linecap:butt;stroke-linejoin:miter;stroke-miterlimit:4;stroke-opacity:1;stroke-dasharray:none"
       d="m 388.24554,727.48242 0,178.99993 45,0 0,-184.49992 z"
       id="path9258"
       inkscape:connector-curvature="0" />
    <rect
       style="fill:#08842c;fill-opacity:1;stroke:none"
       id="rect3380"
       width="300"
       height="600"
       x="260.74554"
       y="171.60713" />
    <path
       style="fill:none;stroke:#ffffff;stroke-width:8.18181801;stroke-linecap:butt;stroke-linejoin:miter;stroke-miterlimit:4;stroke-opacity:1;stroke-dasharray:none"
       d="m 523.20991,450.21758 c 7.1506,-1.08355 15.3106,-9.24641 16.5286,-16.69296 l 16.9163,-111.92304 -16.9163,-111.91187 c -1.218,-7.44654 -9.378,-15.60941 -16.5286,-16.69309 l -112.4728,-17.29854 -112.4557,17.29854 c -7.15059,1.08368 -15.31069,9.24655 -16.52859,16.69309 l -16.9162,111.91187 16.9162,111.92304 c 1.2179,7.44655 9.378,15.60941 16.52859,16.69296 l 112.453,17.29868 z"
       id="path3382"
       inkscape:connector-curvature="0"
       sodipodi:nodetypes="ccccccccccccc" />
    <g
       transform="translate(260.74552,-280.75501)"
       style="font-size:157.59356689px;font-style:normal;font-weight:normal;line-height:125%;letter-spacing:0px;word-spacing:0px;fill:#ffffff;fill-opacity:1;stroke:none;font-family:Sans"
       id="text3384">
      <path
         inkscape:connector-curvature="0"
         d="m 114.29872,548.15054 17.6504,109.21126 -23.32065,0 -2.83753,-21.58928 -16.072931,0 -3.15495,21.58928 -22.849336,0 18.75175,-109.21126 z m -16.072929,27.58176 -6.14638,43.33727 11.662729,0 z"
         style="text-align:center;word-spacing:-15px;text-anchor:middle;fill:#ffffff;font-family:CodiceBiancoCondensed;-inkscape-font-specification:CodiceBiancoCondensed"
         id="path9561" />
      <path
         inkscape:connector-curvature="0"
         d="m 224.76567,547.04919 0,110.78874 -22.37801,0 0,-73.75656 -12.13405,0 0,-16.39035 c 10.29525,-0.73413 15.33867,-7.61474 15.13029,-20.64183 z"
         style="text-align:center;word-spacing:-15px;text-anchor:middle;fill:#ffffff;font-family:CodiceBiancoCondensed;-inkscape-font-specification:CodiceBiancoCondensed"
         id="path9563" />
    </g>
    <path
       id="path9576"
       style="fill:#ffffff;fill-opacity:1;fill-rule:evenodd;stroke-width:0.15289199"
       d="m 515.57037,608.1698 0.1439,32.79434 -112.33533,0 6.76003,38.6916 c -0.14382,1.00739 -0.43107,2.01376 -1.00744,2.58906 -0.57487,0.71862 -2.01341,0.86237 -3.02048,0.86237 L 305.71427,624.56638 406.25488,565.88159 c 1.00743,0 2.4452,0.28726 2.87665,0.5749 0.57489,0.71867 0.86362,1.43834 0.71872,2.44521 l -7.04766,39.26703 z"
       inkscape:connector-curvature="0" />
  </g>
</svg>
