<?xml version="1.0" encoding="UTF-8" standalone="no"?>
<!-- Created with Inkscape (http://www.inkscape.org/) -->

<svg
   width="600mm"
   height="600mm"
   viewBox="0 0 600 600"
   version="1.1"
   id="svg21191"
   inkscape:version="1.2.1 (9c6d41e410, 2022-07-14)"
   sodipodi:docname="Fine_riservata_veicoli a motore.svg"
   xmlns:inkscape="http://www.inkscape.org/namespaces/inkscape"
   xmlns:sodipodi="http://sodipodi.sourceforge.net/DTD/sodipodi-0.dtd"
   xmlns="http://www.w3.org/2000/svg"
   xmlns:svg="http://www.w3.org/2000/svg">
  <sodipodi:namedview
     id="namedview21193"
     pagecolor="#ffffff"
     bordercolor="#000000"
     borderopacity="0.25"
     inkscape:showpageshadow="2"
     inkscape:pageopacity="0.0"
     inkscape:pagecheckerboard="0"
     inkscape:deskcolor="#d1d1d1"
     inkscape:document-units="mm"
     showgrid="false"
     inkscape:zoom="0.095321268"
     inkscape:cx="1327.091"
     inkscape:cy="896.96666"
     inkscape:window-width="1920"
     inkscape:window-height="991"
     inkscape:window-x="-9"
     inkscape:window-y="-9"
     inkscape:window-maximized="1"
     inkscape:current-layer="layer1" />
  <defs
     id="defs21188" />
  <g
     inkscape:label="Livello 1"
     inkscape:groupmode="layer"
     id="layer1"
     transform="translate(240.6694,218.11681)">
    <g
       id="g20353"
       transform="translate(-40.6694,-915.1168)">
      <rect
         style="fill:#00408c;fill-opacity:1;stroke-width:27.3522;paint-order:fill markers stroke"
         id="rect1634-9-4-2"
         width="600"
         height="600"
         x="-200"
         y="697" />
      <g
         id="g13804-7-1"
         transform="matrix(3.779529,0,0,3.779529,713.7145,1075.6814)">
        <path
           id="rect12563-2-0"
           style="fill:#ffffff;fill-opacity:1;stroke:none;stroke-width:20.9067;stroke-dasharray:none;stroke-opacity:1;paint-order:fill markers stroke"
           d="m -219.16243,1.8954362 c -1.74338,0 -3.14651,1.4042174 -3.14651,3.1475965 0,1.7433811 1.40313,3.1465112 3.14651,3.1465112 h 56.78392 56.78393 c 1.74335,0 3.1465,-1.4031301 3.1465,-3.1465112 0,-1.7433791 -1.40315,-3.1475965 -3.1465,-3.1475965 h -56.78393 z" />
        <path
           id="path13614-1-2"
           style="fill:#ffffff;fill-opacity:1;stroke:none;stroke-width:5.56481;stroke-dasharray:none;stroke-opacity:1;paint-order:fill markers stroke"
           d="m -162.37851,-30.867402 c -9.69988,0 -44.91608,3.400458 -54.27541,7.039705 -9.35932,3.639249 -8.42662,19.7044401 2.46287,22.6222706 h 51.81254 51.81255 c 10.889464,-2.9178305 11.822186,-18.9830216 2.46285,-22.6222706 -9.35932,-3.639247 -44.57552,-7.039705 -54.2754,-7.039705 z" />
        <circle
           style="fill:#004090;fill-opacity:1;stroke:none;stroke-width:6.82616;stroke-dasharray:none;stroke-opacity:1;paint-order:fill markers stroke"
           id="path12678-5-2"
           cx="-210.08571"
           cy="-12.790616"
           r="8.3920612" />
        <path
           id="path12734-0-5"
           style="fill:#ffffff;fill-opacity:1;stroke:none;stroke-width:5.56481;stroke-dasharray:none;stroke-opacity:1;paint-order:fill markers stroke"
           d="m -162.37851,-61.501048 c -14.44378,0.0248 -29.59491,2.09006 -34.16056,3.314978 -4.56566,1.224919 -8.35546,2.721454 -10.08079,7.630967 l -7.844,22.622271 7.47989,-1.094487 6.37997,-18.512786 c 1.18976,-2.406204 3.07513,-3.980737 6.36585,-4.549669 3.29072,-0.568931 19.63084,-2.437867 31.85964,-2.437867 12.2288,0 28.57001,1.868936 31.86073,2.437867 3.29074,0.568932 5.17501,2.143465 6.36474,4.549669 l 6.38108,18.512786 7.47988,1.094487 -7.84507,-22.622271 c -1.72533,-4.909513 -5.51517,-6.406048 -10.08079,-7.630967 -4.56567,-1.224918 -19.7168,-3.290179 -34.16057,-3.314978 z" />
        <path
           id="rect13618-2-7"
           style="fill:#ffffff;fill-opacity:1;stroke:none;stroke-width:6.93582;stroke-dasharray:none;stroke-opacity:1;paint-order:fill markers stroke"
           d="m -216.55719,10.865437 v 9.309106 c 0,2.096373 1.68814,3.784507 3.78451,3.784507 h 11.84697 c 2.09637,0 3.78342,-1.688134 3.78342,-3.784507 v -9.309106 z" />
        <circle
           style="fill:#004090;fill-opacity:1;stroke:none;stroke-width:6.82616;stroke-dasharray:none;stroke-opacity:1;paint-order:fill markers stroke"
           id="path12678-8-2-2"
           cx="114.67104"
           cy="-12.790544"
           r="8.3920612"
           transform="scale(-1,1)" />
        <path
           id="rect13618-6-7-3"
           style="fill:#ffffff;fill-opacity:1;stroke:none;stroke-width:6.93582;stroke-dasharray:none;stroke-opacity:1;paint-order:fill markers stroke"
           d="m -108.19957,10.865506 v 9.309106 c 0,2.096374 -1.68814,3.784507 -3.78452,3.784507 h -11.84696 c -2.09638,0 -3.78343,-1.688133 -3.78343,-3.784507 v -9.309106 z" />
      </g>
      <g
         id="path17958">
        <path
           style="color:#000000;fill:#ff2a2a;stroke-width:115;paint-order:fill markers stroke"
           d="M -200,1297 400,696.99999"
           id="path18879" />
        <path
           id="path18881"
           style="color:#000000;fill:#d40000;paint-order:fill markers stroke"
           d="M 308.684,706.99974 -190.00029,1205.684 v 51.3163 c 0,16.62 13.37974,29.9997 29.99972,29.9997 h 51.31728 L 389.99997,788.31674 v -51.31676 c 0,-16.61999 -13.38026,-30.00024 -30.00024,-30.00024 z" />
      </g>
      <g
         id="rect1634-3-4-7-3-9">
        <path
           style="color:#000000;fill:#ffffff;paint-order:fill markers stroke"
           d="m -160,702 c -19.30349,0 -35,15.69651 -35,35 v 520 c 0,19.3035 15.69651,35 35,35 h 520 c 19.30349,0 35,-15.6965 35,-35 V 737 c 0,-19.30349 -15.69651,-35 -35,-35 z m 0,10 h 520 c 13.93647,0 25,11.06353 25,25 v 520 c 0,13.9365 -11.06353,25 -25,25 h -520 c -13.93647,0 -25,-11.0635 -25,-25 V 737 c 0,-13.93647 11.06353,-25 25,-25 z"
           id="path18875" />
      </g>
    </g>
  </g>
</svg>
