<?xml version="1.0" encoding="UTF-8" standalone="no"?>
<!-- Created with Inkscape (http://www.inkscape.org/) -->
<svg
   xmlns:dc="http://purl.org/dc/elements/1.1/"
   xmlns:cc="http://creativecommons.org/ns#"
   xmlns:rdf="http://www.w3.org/1999/02/22-rdf-syntax-ns#"
   xmlns:svg="http://www.w3.org/2000/svg"
   xmlns="http://www.w3.org/2000/svg"
   xmlns:sodipodi="http://sodipodi.sourceforge.net/DTD/sodipodi-0.dtd"
   xmlns:inkscape="http://www.inkscape.org/namespaces/inkscape"
   version="1.1"
   width="200"
   height="200"
   id="svg2"
   inkscape:version="0.46"
   sodipodi:docname="Italian_traffic_signs_-_icona_eliporto.svg"
   sodipodi:version="0.32"
   inkscape:output_extension="org.inkscape.output.svg.inkscape">
  <metadata
     id="metadata2877">
    <rdf:RDF>
      <cc:Work
         rdf:about="">
        <dc:format>image/svg+xml</dc:format>
        <dc:type
           rdf:resource="http://purl.org/dc/dcmitype/StillImage" />
      </cc:Work>
    </rdf:RDF>
  </metadata>
  <sodipodi:namedview
     pagecolor="#ffffff"
     bordercolor="#666666"
     borderopacity="1"
     objecttolerance="10"
     gridtolerance="10"
     guidetolerance="10"
     inkscape:pageopacity="0"
     inkscape:pageshadow="2"
     inkscape:window-width="1024"
     inkscape:window-height="708"
     id="namedview2875"
     showgrid="false"
     inkscape:zoom="1.9914447"
     inkscape:cx="115.51255"
     inkscape:cy="118.43692"
     inkscape:window-x="0"
     inkscape:window-y="26"
     inkscape:window-maximized="1"
     inkscape:current-layer="svg2" />
  <defs
     id="defs4">
    <inkscape:perspective
       sodipodi:type="inkscape:persp3d"
       inkscape:vp_x="0 : 100 : 1"
       inkscape:vp_y="0 : 1000 : 0"
       inkscape:vp_z="200 : 100 : 1"
       inkscape:persp3d-origin="100 : 66.666667 : 1"
       id="perspective2879" />
  </defs>
  <rect
     style="fill:#ffffff;fill-opacity:1;stroke:none"
     id="rect2881"
     width="200.9709"
     height="200.61583"
     x="0.63877153"
     y="-0.46875373"
     rx="0"
     ry="0" />
  <rect
     width="194.80612"
     height="194.80614"
     ry="18.580454"
     x="3.2339785"
     y="2.8621521"
     id="rect4614"
     style="fill:none;stroke:#000000;stroke-width:3;stroke-miterlimit:4;stroke-opacity:1;stroke-dasharray:none" />
  <g
     id="g7553"
     transform="translate(2.4597279e-3,3.241342)">
    <path
       style="fill:#000000"
       id="path4510"
       d="M 26.558805,142.5679 C 23.347549,141.70182 20.536628,140.0091 18.077981,137.46081 C 14.786978,134.04981 13.195122,128.30494 15.540968,128.30494 C 16.151718,128.30494 17.038751,128.1563 17.512152,127.97464 C 18.115251,127.74321 18.485279,128.15608 18.748388,129.35401 C 19.25889,131.67831 22.718464,135.59337 25.63655,137.14907 C 27.873456,138.34162 28.79358,138.42784 39.323238,138.43163 L 50.611799,138.43563 L 50.774342,131.3441 L 50.936885,124.25257 L 43.248634,124.24957 C 30.099935,124.24457 28.903028,123.39281 28.903028,114.04422 L 28.903028,108.04384 L 68.188418,108.04384 L 107.47381,108.04384 L 107.85878,112.29214 C 108.5722,120.16499 106.30949,123.22782 99.218952,123.98716 L 95.476592,124.38793 L 95.476592,131.25424 L 95.476592,138.12054 L 106.04153,138.27833 L 116.60646,138.43611 L 116.78447,140.89644 L 116.96249,143.35677 L 73.077482,143.31767 C 40.331528,143.2881 28.52399,143.0979 26.558805,142.56789 L 26.558805,142.5679 z M 90.845387,131.19944 L 90.845387,124.25263 L 73.478371,124.25263 L 56.111354,124.25263 L 56.111354,131.19944 L 56.111354,138.14624 L 73.478371,138.14624 L 90.845387,138.14624 L 90.845387,131.19944 z M 29.481928,103.51022 C 29.481928,101.79677 33.473948,82.430962 34.188375,80.678642 C 34.547983,79.796612 35.609922,78.428959 36.548239,77.639414 L 38.254269,76.203885 L 64.839281,76.203885 L 91.424288,76.203885 L 91.424288,66.652026 L 91.424288,57.100167 L 93.45044,57.100167 L 95.476592,57.100167 L 95.476592,66.652026 L 95.476592,76.203885 L 126.11232,76.203885 L 156.74806,76.203885 L 157.14026,74.322459 C 157.73563,71.466406 160.03315,67.850524 162.70643,65.562298 C 171.00003,58.463287 184.16123,61.728686 188.47551,71.955797 C 188.99891,73.196555 189.42574,75.839358 189.44207,77.940587 C 189.53757,90.221233 177.0437,97.993065 165.79055,92.65309 C 163.94318,91.776455 160.70417,88.810342 158.992,86.427327 C 158.26983,85.422199 156.81949,85.903104 133.24053,94.96611 L 108.25432,104.57001 L 68.868122,104.57001 C 31.082097,104.57001 29.481928,104.52691 29.481928,103.51022 L 29.481928,103.51022 z M 49.743448,90.944887 L 49.743448,83.108768 L 44.105239,83.274455 L 38.467031,83.440142 L 37.185466,90.386949 C 36.480605,94.207693 35.891736,97.659387 35.876867,98.057381 C 35.856687,98.597582 37.610711,98.781007 42.796641,98.781007 L 49.743448,98.781007 L 49.743448,90.944887 L 49.743448,90.944887 z M 90.845387,90.965857 L 90.845387,83.150694 L 73.478371,83.150694 L 56.111354,83.150694 L 56.111354,90.579916 C 56.111354,94.665993 56.285024,98.182814 56.497289,98.395074 C 56.709549,98.607339 64.524707,98.781009 73.864306,98.781009 L 90.845387,98.781015 L 90.845387,90.965857 L 90.845387,90.965857 z M 176.46763,90.113287 C 185.14301,87.625219 188.47709,77.085872 182.77657,70.170158 C 180.0453,66.856647 177.07127,65.622026 172.4498,65.883162 C 167.59017,66.157757 164.65325,68.003316 162.35437,72.227125 C 160.23293,76.124902 160.41113,81.202323 162.79583,84.805852 C 165.85645,89.430758 171.37612,91.573512 176.46763,90.113287 z M 169.05794,85.931501 C 160.81604,81.517755 163.91148,69.266413 173.27039,69.259246 C 176.87959,69.256346 179.63663,70.914236 181.23566,74.048606 C 185.2165,81.851688 176.7913,90.072915 169.05794,85.931501 L 169.05794,85.931501 z M 174.94895,78.953665 C 175.36162,77.80277 174.26787,76.203888 173.06791,76.203888 C 171.92438,76.203888 170.97144,78.07809 171.59881,79.093209 C 172.11197,79.923521 174.63894,79.818265 174.94895,78.953665 z M 28.324127,57.100167 C 26.933253,55.709295 26.854604,54.329428 28.067503,52.597774 L 28.96868,51.311162 L 58.080611,51.311162 C 85.548575,51.311162 87.24664,51.370942 88.150611,52.36982 C 89.518049,53.88082 89.360021,56.27957 87.822073,57.356794 C 86.699851,58.142831 82.89072,58.257968 58.008695,58.257968 C 30.253795,58.257968 29.450601,58.226638 28.324127,57.100167 L 28.324127,57.100167 z M 99.657707,57.356794 C 98.129809,56.286609 97.930528,53.571132 99.280796,52.220863 C 100.08368,51.417973 103.60984,51.311162 129.31274,51.311162 C 161.40428,51.311162 159.92752,51.138175 159.92752,54.897352 C 159.92752,58.319998 160.49171,58.257968 129.36044,58.257968 C 104.57856,58.257968 100.77977,58.142715 99.657707,57.356794 L 99.657707,57.356794 z" />
    <path
       style="fill:#ffffff;fill-opacity:1;stroke:#ffffff;stroke-width:2.49699998;stroke-linecap:butt;stroke-linejoin:round;stroke-miterlimit:4;stroke-dasharray:none;stroke-dashoffset:0;stroke-opacity:1"
       id="path4512"
       transform="matrix(0.2545269,0,0,0.2545269,129.26041,57.618922)"
       d="M 180.42109,79.963387 C 180.42336,83.85024 177.26314,87.002359 173.36403,87.002359 C 169.46492,87.002359 166.3047,83.85024 166.30697,79.963387 C 166.3047,76.076534 169.46492,72.924415 173.36403,72.924415 C 177.26314,72.924415 180.42336,76.076534 180.42109,79.963387 z" />
  </g>
</svg>
