<?xml version="1.0" encoding="UTF-8" standalone="no"?>
<!-- Created with Inkscape (http://www.inkscape.org/) -->

<svg
   xmlns:dc="http://purl.org/dc/elements/1.1/"
   xmlns:cc="http://creativecommons.org/ns#"
   xmlns:rdf="http://www.w3.org/1999/02/22-rdf-syntax-ns#"
   xmlns:svg="http://www.w3.org/2000/svg"
   xmlns="http://www.w3.org/2000/svg"
   xmlns:sodipodi="http://sodipodi.sourceforge.net/DTD/sodipodi-0.dtd"
   xmlns:inkscape="http://www.inkscape.org/namespaces/inkscape"
   width="262"
   height="500"
   id="svg2994"
   version="1.1"
   inkscape:version="0.48.5 r10040"
   sodipodi:docname="CANC Ferriere.svg"
   inkscape:export-filename="C:\Users\utente\Desktop\CANC drittok.png"
   inkscape:export-xdpi="90"
   inkscape:export-ydpi="90">
  <defs
     id="defs2996" />
  <sodipodi:namedview
     id="base"
     pagecolor="#ffffff"
     bordercolor="#666666"
     borderopacity="1.0"
     inkscape:pageopacity="0.0"
     inkscape:pageshadow="2"
     inkscape:zoom="1"
     inkscape:cx="47.48371"
     inkscape:cy="211.56158"
     inkscape:document-units="px"
     inkscape:current-layer="layer1"
     showgrid="false"
     inkscape:window-width="1366"
     inkscape:window-height="705"
     inkscape:window-x="-8"
     inkscape:window-y="-8"
     inkscape:window-maximized="1"
     fit-margin-top="0"
     fit-margin-left="0"
     fit-margin-right="0"
     fit-margin-bottom="0"
     inkscape:object-nodes="true"
     inkscape:object-paths="false" />
  <metadata
     id="metadata2999">
    <rdf:RDF>
      <cc:Work
         rdf:about="">
        <dc:format>image/svg+xml</dc:format>
        <dc:type
           rdf:resource="http://purl.org/dc/dcmitype/StillImage" />
        <dc:title></dc:title>
      </cc:Work>
    </rdf:RDF>
  </metadata>
  <g
     inkscape:label="Livello 1"
     inkscape:groupmode="layer"
     id="layer1"
     transform="translate(-237.85715,-320.93347)">
    <path
       id="path6820"
       transform="translate(237.85714,320.9335)"
       style="fill:#000000;fill-opacity:1;fill-rule:evenodd;stroke:none"
       d="M 971.99996,-12 1072,588 1172,-12 z m 40.99224,99.99609 118.0078,0 -59.023,353.98979 z"
       inkscape:connector-curvature="0" />
    <rect
       inkscape:export-ydpi="90"
       inkscape:export-xdpi="90"
       inkscape:export-filename="C:\Users\utente\Desktop\CANCdx.png"
       y="320.93347"
       x="237.85715"
       height="500"
       width="262"
       id="rect5153"
       style="fill:#989898;fill-opacity:1;stroke-width:5.1999898;stroke-linecap:round;stroke-linejoin:round;stroke-miterlimit:4;stroke-dasharray:15.6, 15.6;stroke-dashoffset:0" />
    <g
       transform="scale(0.3833676,2.6084625)"
       style="font-size:211.51138306px;font-style:normal;font-weight:normal;line-height:125%;letter-spacing:0px;word-spacing:0px;fill:#fcd647;fill-opacity:1;stroke:none;font-family:Sans"
       id="text7427-0">
      <path
         d="m 827.85117,143.26246 c 9.02373,1.6e-4 17.41498,3.80849 25.17378,11.42502 8.31798,8.03423 12.47703,17.19791 12.47716,27.49106 -1.3e-4,10.86141 -4.93591,21.01482 -14.80735,30.46027 13.95949,7.61676 20.93929,19.60334 20.93942,35.95978 -1.3e-4,10.71503 -3.3136,20.16272 -9.94041,28.34309 -7.04878,8.88184 -16.42547,13.95747 -28.13009,15.22691 l -82.69909,0 0,-148.90613 z m -45.68718,59.8555 35.53376,0 c 4.37197,1e-4 7.96838,-1.69106 10.78922,-5.07349 2.82066,-3.38221 4.23104,-7.2594 4.23113,-11.63157 -9e-5,-9.72944 -5.35759,-15.08908 -16.07249,-16.07895 l -34.48162,0 z m 0,61.97913 38.28351,0 c 5.92543,4e-5 10.65035,-1.83313 14.17477,-5.4995 2.96051,-3.38658 4.44081,-7.54778 4.44092,-12.48361 -1.1e-4,-4.65171 -1.44599,-8.81076 -4.33764,-12.47716 -2.89185,-3.66626 -6.87447,-5.78129 -11.94786,-6.34508 l -40.6137,0 z"
         style="font-variant:normal;font-stretch:normal;fill:#fcd647;font-family:CodiceBianco;-inkscape-font-specification:CodiceBianco"
         id="path8675" />
      <path
         d="m 896.4465,143.26246 30.46027,0 0,90.52878 c -4e-5,6.34299 2.39684,12.61707 7.19066,18.82224 6.20517,7.89643 14.52542,11.84462 24.96078,11.84459 10.29319,3e-5 18.54028,-3.94816 24.7413,-11.84459 5.07768,-6.20517 7.61657,-12.47925 7.61668,-18.82224 l 0,-90.52878 30.46031,0 0,93.27853 c -2e-4,16.92027 -6.8401,31.23273 -20.5199,42.93743 -12.69027,10.71501 -26.72087,16.0725 -42.09184,16.07249 -15.93055,1e-5 -30.38286,-5.88678 -43.35699,-17.66037 -12.9742,-11.77355 -19.46129,-25.62772 -19.46127,-41.56256 z"
         style="font-variant:normal;font-stretch:normal;fill:#fcd647;font-family:CodiceBianco;-inkscape-font-specification:CodiceBianco"
         id="path8677" />
      <path
         d="m 1107.6545,142.20387 c 25.8062,1.6e-4 47.7332,8.10955 65.781,24.3282 l -21.998,18.82224 c -4.3722,-3.80822 -9.8007,-7.1927 -16.2855,-10.15343 -8.0385,-3.80821 -15.7929,-5.71238 -23.2632,-5.71251 -4.0924,1.3e-4 -7.9717,0.63486 -11.638,1.90417 -8.6022,2.82303 -12.5503,8.25153 -11.8446,16.2855 0.284,3.24473 3.1047,5.92563 8.4623,8.0427 4.7937,1.97097 14.3812,4.50771 28.7626,7.61023 30.1783,6.48933 45.2675,21.36551 45.2677,44.62859 -2e-4,14.24366 -5.6051,25.70095 -16.8148,34.37189 -11.21,8.67098 -26.4756,13.00646 -45.7969,13.00645 -16.0726,1e-5 -31.3705,-4.30105 -45.8938,-12.90317 -9.1658,-5.21547 -16.8514,-11.34754 -23.0566,-18.39623 l 25.8064,-19.46126 c 2.3968,3.66638 7.3326,7.61458 14.8073,11.84458 10.0092,5.64155 20.3714,8.5333 31.0864,8.67527 7.3326,0.13774 13.256,-1.30921 17.7701,-4.34086 4.514,-3.03157 6.771,-6.94426 6.7711,-11.73808 -10e-5,-5.49945 -3.5266,-9.8005 -10.5794,-12.90318 -4.3722,-1.9708 -12.1276,-4.12025 -23.2664,-6.44836 -11.1389,-2.32796 -18.6814,-4.40856 -22.6274,-6.2418 -6.911,-3.10254 -11.7069,-5.85229 -14.3877,-8.24926 -7.4704,-6.62685 -11.2056,-15.36881 -11.2056,-26.22591 0,-15.93466 5.8502,-28.06109 17.5506,-36.37934 9.7296,-6.9108 21.927,-10.36627 36.5924,-10.36643 z"
         style="font-variant:normal;font-stretch:normal;fill:#fcd647;font-family:CodiceBianco;-inkscape-font-specification:CodiceBianco"
         id="path8679" />
    </g>
  </g>
</svg>
