<?xml version="1.0" encoding="UTF-8" standalone="no"?>
<!-- Created with Inkscape (http://www.inkscape.org/) -->
<svg
   xmlns:dc="http://purl.org/dc/elements/1.1/"
   xmlns:cc="http://creativecommons.org/ns#"
   xmlns:rdf="http://www.w3.org/1999/02/22-rdf-syntax-ns#"
   xmlns:svg="http://www.w3.org/2000/svg"
   xmlns="http://www.w3.org/2000/svg"
   xmlns:sodipodi="http://sodipodi.sourceforge.net/DTD/sodipodi-0.dtd"
   xmlns:inkscape="http://www.inkscape.org/namespaces/inkscape"
   version="1.1"
   width="200"
   height="200"
   id="svg2"
   inkscape:version="0.46"
   sodipodi:docname="Italian_traffic_signs_-_icona_traghetto.svg"
   sodipodi:version="0.32"
   inkscape:output_extension="org.inkscape.output.svg.inkscape">
  <metadata
     id="metadata2877">
    <rdf:RDF>
      <cc:Work
         rdf:about="">
        <dc:format>image/svg+xml</dc:format>
        <dc:type
           rdf:resource="http://purl.org/dc/dcmitype/StillImage" />
      </cc:Work>
    </rdf:RDF>
  </metadata>
  <sodipodi:namedview
     pagecolor="#ffffff"
     bordercolor="#666666"
     borderopacity="1"
     objecttolerance="10"
     gridtolerance="10"
     guidetolerance="10"
     inkscape:pageopacity="0"
     inkscape:pageshadow="2"
     inkscape:window-width="1024"
     inkscape:window-height="708"
     id="namedview2875"
     showgrid="false"
     inkscape:zoom="1.9914447"
     inkscape:cx="115.51255"
     inkscape:cy="118.43692"
     inkscape:window-x="-4"
     inkscape:window-y="-4"
     inkscape:window-maximized="1"
     inkscape:current-layer="svg2" />
  <defs
     id="defs4">
    <inkscape:perspective
       sodipodi:type="inkscape:persp3d"
       inkscape:vp_x="0 : 100 : 1"
       inkscape:vp_y="0 : 1000 : 0"
       inkscape:vp_z="200 : 100 : 1"
       inkscape:persp3d-origin="100 : 66.666667 : 1"
       id="perspective2879" />
  </defs>
  <rect
     style="fill:#ffffff;fill-opacity:1;stroke:none"
     id="rect2881"
     width="200.9709"
     height="200.61583"
     x="0"
     y="-0.61582947"
     rx="0"
     ry="0" />
  <rect
     width="194.80612"
     height="194.80614"
     ry="18.580454"
     x="3.2339785"
     y="2.8621521"
     id="rect4614"
     style="fill:none;stroke:#000000;stroke-width:3;stroke-miterlimit:4;stroke-opacity:1;stroke-dasharray:none" />
  <g
     transform="translate(4.4697451,5.6523267)"
     id="g4791">
    <path
       style="fill:#000000"
       id="path3725"
       d="M 56.034739,121.63023 C 55.256889,121.37261 52.487389,120.04316 49.880299,118.67591 C 45.481859,116.3692 44.829359,116.19018 40.828909,116.19267 C 37.089879,116.19467 36.099019,116.4247 33.363409,117.92342 L 30.209149,119.65151 L 19.883909,99.39368 L 9.5586691,79.13585 L 96.722179,79.13585 L 183.88569,79.13585 L 183.88569,98.65292 L 183.88569,118.16998 L 182.246,118.16998 C 181.34417,118.16998 179.11668,118.97812 177.29602,119.96583 C 174.64787,121.40247 173.30678,121.76591 170.59145,121.78281 C 167.59768,121.80151 166.56714,121.4734 161.8576,119.00258 C 157.18412,116.55067 156.01639,116.17587 152.497,115.99815 C 148.58266,115.80048 148.32752,115.873 142.87931,118.73163 C 134.76343,122.98997 133.2,123.03898 125.61733,119.27289 C 120.59942,116.78064 119.06265,116.2819 115.71737,116.05997 C 111.8364,115.80251 111.63886,115.85747 105.81741,118.8146 C 100.56896,121.48066 99.482279,121.82994 96.483159,121.81485 C 93.522379,121.79995 92.410959,121.43967 87.780569,118.99388 C 82.673659,116.29637 82.298049,116.19017 77.880609,116.19476 C 73.459849,116.19976 73.105149,116.30084 68.350159,118.92161 C 63.213139,121.75295 59.122069,122.65272 56.034739,121.63023 L 56.034739,121.63023 z M 54.903319,75.00944 C 54.903319,74.91794 56.024589,72.05399 57.395019,68.645178 L 59.886729,62.447337 L 88.428859,62.300767 L 116.97098,62.154202 L 119.37724,67.957888 C 120.70067,71.14992 121.90963,74.07979 122.0638,74.46872 C 122.28616,75.02966 115.37239,75.17586 88.623719,75.17586 C 70.077489,75.17586 54.903319,75.10096 54.903319,75.00944 L 54.903319,75.00944 z M 61.691859,57.710697 C 61.691859,57.439105 62.212919,56.038967 62.849759,54.599281 L 64.007659,51.981663 L 73.768419,51.981663 L 83.529179,51.981663 L 84.773329,54.5425 C 85.457619,55.950959 86.017489,57.351097 86.017489,57.653917 C 86.017489,57.993808 81.363199,58.204496 73.854669,58.204496 C 67.165129,58.204496 61.691859,57.982285 61.691859,57.710697 L 61.691859,57.710697 z" />
    <path
       style="fill:#0060a8;fill-opacity:1;stroke:#ff0000;stroke-width:0.0376611;stroke-linecap:butt;stroke-linejoin:miter;stroke-miterlimit:4;stroke-dasharray:none;stroke-dashoffset:0;stroke-opacity:1"
       id="path3727"
       d="M 19.418118,132.00623 C 18.342388,131.7198 9.9615395,128.45733 9.402099,128.10723 C 9.1633857,127.95784 9.1521912,127.82761 9.174715,125.46192 C 9.195953,123.23124 9.223222,122.94034 9.4382042,122.65103 C 9.9307486,121.98821 10.5653,122.12305 14.097703,123.64121 C 18.237751,125.42052 19.669489,125.80716 22.144105,125.81409 C 24.889015,125.82209 26.526039,125.29464 32.37537,122.51948 C 34.239595,121.63501 36.290186,120.73603 36.932242,120.52173 C 39.320203,119.7247 42.793063,119.72401 45.177095,120.51973 C 45.800181,120.72779 47.863498,121.653 49.762245,122.57574 C 55.716976,125.46958 56.804462,125.83666 59.428594,125.83865 C 62.023411,125.84065 63.178305,125.44686 69.346017,122.45733 C 74.402069,120.00662 74.199697,120.06662 77.380386,120.07547 C 81.415514,120.08667 82.407848,120.3533 87.486114,122.7905 C 92.522627,125.20766 94.04647,125.74871 96.153301,125.86787 C 98.64717,126.00891 100.09917,125.52734 105.7463,122.6863 C 107.98727,121.55887 110.19045,120.5086 110.64224,120.35237 C 111.41237,120.08605 111.65188,120.06921 114.47657,120.08281 C 119.06491,120.10491 119.46246,120.21411 124.97473,122.96664 C 130.23068,125.59118 130.81365,125.77794 133.75424,125.77936 C 136.50536,125.78036 137.58585,125.42597 142.0658,123.05079 C 144.82783,121.58641 146.4674,120.81777 147.36726,120.56543 C 147.94366,120.4038 148.85048,120.33945 151.23005,120.29134 C 155.97013,120.19554 156.49752,120.31704 161.17674,122.58389 C 164.43367,124.16171 166.23771,124.92161 167.95533,125.43919 C 169.07796,125.77747 169.39655,125.81883 170.96822,125.83024 C 173.17274,125.84624 173.90959,125.63963 176.30354,124.33414 C 178.96959,122.88028 180.33838,122.41089 182.51763,122.20322 C 183.00094,122.15712 183.49524,122.09197 183.61607,122.05835 C 183.821,122.00135 183.83576,122.20447 183.83576,125.08133 C 183.83576,126.77759 183.78916,128.16544 183.73218,128.16544 C 183.67518,128.16544 183.01144,128.27689 182.25712,128.4131 C 180.38656,128.75089 179.02089,129.23656 176.56644,130.43684 C 173.74549,131.81636 173.00532,132.06649 171.49966,132.14911 C 170.00336,132.23121 168.79285,132.04971 167.16607,131.49919 C 165.51272,130.93971 164.85354,130.65382 160.92526,128.79241 C 159.06104,127.90906 157.05954,127.03713 156.47747,126.85479 C 155.03142,126.4018 152.65539,126.22686 150.24569,126.39595 C 147.87028,126.56265 147.10518,126.82523 142.68889,128.98948 C 137.16657,131.69574 135.72677,132.2037 133.5792,132.20333 C 131.34377,132.20296 130.17454,131.79768 124.68382,129.12 C 121.03147,127.33884 120.23752,126.98887 119.21557,126.70965 C 118.23128,126.44072 115.36261,126.3006 113.15381,126.41357 C 110.66304,126.54096 109.89032,126.81482 105.2496,129.21494 C 100.05476,131.90164 99.31061,132.18263 97.390021,132.18263 C 95.601478,132.18263 93.553674,131.72928 91.353893,130.84635 C 90.745612,130.6022 88.779145,129.70502 86.983966,128.85262 C 82.760291,126.8471 81.910425,126.56193 79.670897,126.39873 C 77.668237,126.25278 75.458366,126.33923 74.116424,126.61607 C 73.054835,126.83505 71.716303,127.43354 68.324907,129.20558 C 63.222034,131.87189 63.230631,131.86932 59.428594,131.86692 L 56.478475,131.86492 L 55.329369,131.46524 C 54.697362,131.24541 52.437696,130.19394 50.307889,129.12862 C 48.178084,128.06331 45.955335,127.03906 45.36845,126.85252 C 44.061686,126.43716 41.792305,126.27368 39.30084,126.41544 C 37.094132,126.54099 36.206852,126.84194 31.935991,128.91343 C 28.200952,130.72503 26.927544,131.26937 25.470835,131.67705 C 24.918472,131.83163 24.297064,132.01204 24.089928,132.07795 C 23.882792,132.14385 23.007171,132.22387 22.144105,132.25576 C 20.761894,132.30686 20.43704,132.27706 19.418118,132.00573 L 19.418118,132.00623 z" />
    <path
       style="fill:#0060a8;fill-opacity:1;stroke:#ff0000;stroke-width:0.0376611;stroke-linecap:butt;stroke-linejoin:miter;stroke-miterlimit:4;stroke-dasharray:none;stroke-dashoffset:0;stroke-opacity:1"
       id="path3729"
       d="M 20.323818,142.80171 C 20.254778,142.77511 19.774594,142.65706 19.256754,142.53945 C 17.98848,142.25141 16.428456,141.66135 13.359019,140.3087 C 11.944966,139.68555 10.549144,139.14878 10.257191,139.11587 C 9.4399375,139.02377 9.3219634,138.80638 9.2046446,137.17647 C 9.1486006,136.39784 9.0994862,135.01777 9.0955015,134.10963 L 9.0882515,132.45846 L 9.9356263,132.71068 C 10.401682,132.8494 11.997572,133.44285 13.482047,134.02946 C 18.620615,136.06004 19.457936,136.25865 22.834553,136.24788 C 25.643393,136.23888 26.001198,136.12183 31.810449,133.31043 C 37.118842,130.74142 38.106923,130.42547 40.832691,130.42547 C 42.423293,130.42547 43.767642,130.61236 45.049425,131.01168 C 45.604635,131.18465 47.81014,132.17438 49.950546,133.21108 C 52.090951,134.24778 54.331246,135.28673 54.928979,135.51987 C 57.403921,136.48516 60.729173,136.59698 63.253192,135.79977 C 63.734157,135.64786 65.797427,134.6985 67.838235,133.69009 C 69.879045,132.68167 72.129415,131.64806 72.839059,131.39317 C 76.254145,130.16655 79.104358,130.10919 82.506532,131.19862 C 84.075135,131.70091 85.102326,132.14991 88.908607,133.99705 C 92.833529,135.90177 93.721616,136.185 96.085394,136.28589 C 99.257823,136.4213 100.21482,136.13021 105.70368,133.36033 C 107.92122,132.24128 110.1983,131.17951 110.76386,131.00085 C 112.16352,130.5587 113.88473,130.38088 115.85748,130.47464 C 118.57093,130.6036 119.19987,130.80813 124.39399,133.25077 C 126.32726,134.15992 128.36096,135.07975 128.91333,135.29483 C 131.26108,136.209 132.95186,136.50523 134.75629,136.31854 C 136.61659,136.12608 137.85574,135.65833 142.97347,133.21678 C 146.01779,131.7644 148.08116,130.92797 149.57668,130.54003 C 150.48031,130.30563 150.84682,130.27647 152.13767,130.33624 C 154.9141,130.46481 157.22296,131.22239 162.37403,133.69496 C 165.86376,135.37007 167.61254,136.00467 169.50991,136.28444 C 171.93017,136.64131 173.68115,136.23484 177.21547,134.49574 C 179.48175,133.38059 181.04391,132.81283 182.51763,132.56873 C 183.00094,132.48863 183.49524,132.39356 183.61607,132.35738 C 183.82152,132.29588 183.83576,132.51204 183.83576,135.68956 L 183.83576,139.08752 L 182.63029,139.08752 C 181.03884,139.08752 179.89533,139.46759 176.74292,141.04434 C 173.88025,142.47617 173.34494,142.61293 170.60684,142.61199 C 167.55577,142.61099 167.19396,142.49876 162.20348,140.00626 C 160.21373,139.01247 158.18003,138.03863 157.68415,137.84216 C 156.02017,137.18288 153.64178,136.82785 150.88908,136.82785 C 148.78775,136.82785 148.08837,137.05194 143.98817,139.03889 C 139.83069,141.05361 137.96442,141.87227 136.50831,142.32005 C 135.57945,142.60569 135.21361,142.64888 133.68373,142.65352 C 132.2264,142.65752 131.75791,142.61062 130.94082,142.37659 C 129.47672,141.95721 127.56865,141.13869 123.71232,139.27574 C 121.80874,138.35614 119.77109,137.44499 119.18421,137.25096 C 118.15985,136.91228 118.02169,136.89852 115.73194,136.90705 C 113.1991,136.91605 111.55519,137.11704 110.02,137.6039 C 109.57121,137.74622 107.45277,138.75408 105.31236,139.84358 C 103.17196,140.93308 100.99703,141.97544 100.47919,142.15994 C 98.43061,142.88983 94.913013,142.87949 92.659292,142.13694 C 92.092538,141.95022 90.097599,141.02025 88.226096,140.07034 C 84.485661,138.17183 83.135439,137.58492 81.826629,137.28863 C 80.538693,136.99706 77.80852,136.78961 76.145257,136.85694 C 74.054072,136.94164 73.915332,136.99591 68.022146,140.03743 C 64.854047,141.67251 63.827997,142.11951 62.614309,142.39333 C 60.579024,142.85252 57.295551,142.7649 55.474174,142.2028 C 54.990856,142.05364 52.722924,140.98186 50.434322,139.82107 C 48.145721,138.66027 45.744826,137.52947 45.099,137.30817 C 43.976197,136.92344 43.822109,136.90353 41.580731,136.85348 C 38.022843,136.77398 37.185342,136.99767 32.655332,139.23693 C 27.069924,141.99789 24.927346,142.71625 22.018563,142.8032 C 21.155496,142.829 20.392859,142.8283 20.323813,142.8012 L 20.323813,142.80121 L 20.323818,142.80171 z" />
    <g
       id="g3812">
      <g
         id="g3765"
         transform="translate(0,-42)">
        <path
           style="fill:#ffffff;fill-opacity:1;fill-rule:evenodd;stroke:none"
           id="path1909"
           d="M 155.05981,139.57663 C 155.20706,139.86298 155.18825,140.2391 155.32002,140.53424 L 150.86702,144.72436 L 149.51765,144.72136 L 154.54612,140.02073 L 155.05981,139.57653 L 155.05981,139.57663 z M 163.98655,145.16342 C 164.00175,145.19772 163.413,148.48576 163.43822,148.43294 L 148.86308,148.42144 C 148.58738,148.42122 148.31452,148.31771 148.02683,148.31713 C 147.73915,148.31678 147.45844,148.35443 147.19015,148.41798 L 140.07237,148.40318 L 140.07737,146.01216 L 149.76962,145.08526 L 156.23245,145.09836 L 156.23245,145.09836 L 163.98656,145.16346 L 163.98656,145.16344 L 163.98655,145.16342 z M 148.02532,148.97181 C 149.64222,148.97581 150.9502,150.29646 150.94685,151.91337 C 150.94285,153.53028 149.6301,154.83827 148.01319,154.83492 C 146.39628,154.83092 145.08829,153.51817 145.09163,151.90126 C 145.09563,150.28435 146.40841,148.96847 148.02532,148.97181 z M 156.45249,149.24965 C 156.37929,150.37121 156.19786,151.46853 155.92491,152.52339 L 151.54533,152.51439 C 151.57923,152.31769 151.60133,152.11315 151.60183,151.90689 C 151.60383,150.84443 151.14159,149.89538 150.4079,149.2372 L 156.4525,149.2499 L 156.45249,149.24962 L 156.45249,149.24965 z M 145.64165,149.22705 C 144.90525,149.88219 144.43886,150.83721 144.43667,151.89967 C 144.43636,152.02066 144.43967,152.13685 144.45177,152.2548 L 141.61137,152.05164 L 140.23628,149.21587 L 145.64169,149.22687 L 145.64168,149.22687 L 145.64163,149.22707 L 145.64165,149.22705 z M 148.02198,150.58137 C 147.29293,150.58037 146.70292,151.17529 146.70142,151.90436 C 146.70042,152.6334 147.28746,153.22339 148.01651,153.22489 C 148.74557,153.22589 149.33555,152.63886 149.33707,151.90979 C 149.33807,151.18074 148.75104,150.58288 148.02198,150.58137 z" />
        <path
           style="fill:#ffffff;fill-opacity:1;fill-rule:evenodd;stroke:none"
           id="path2877"
           d="M 167.07115,139.59214 L 172.0435,144.84571 L 167.74008,144.83671 L 165.72254,140.8417 L 154.91519,140.8136 C 155.11391,140.38507 154.83789,139.97078 155.0694,139.56184 L 167.07115,139.59284 L 167.07115,139.59252 L 167.07115,139.59214 z M 179.09254,145.19804 L 179.91491,148.32184 L 179.87541,148.50954 L 170.8382,148.48904 C 170.57098,148.42414 170.29606,148.38611 170.00905,148.38545 C 169.72378,148.38476 169.4528,148.48771 169.17943,148.48535 L 162.28197,148.42455 C 162.27997,148.31982 163.36633,148.26414 163.36661,148.159 C 163.36861,147.13638 163.46885,146.13723 163.6394,145.16285 L 179.09262,145.19765 L 179.09261,145.19766 L 179.09258,145.19807 L 179.09258,145.19809 L 179.09254,145.19804 z M 170.00754,149.03504 C 171.61079,149.03904 172.90746,150.34902 172.90385,151.95226 C 172.89985,153.5555 171.5977,154.8522 169.99446,154.84859 C 168.39121,154.84459 167.09452,153.54244 167.09815,151.93921 C 167.10215,150.33595 168.4043,149.03143 170.00754,149.03504 z M 179.69359,149.31504 L 179.06131,152.12259 L 173.49716,152.54824 C 173.53076,152.35321 173.55286,152.15041 173.55326,151.94588 C 173.55526,150.89242 173.09727,149.95129 172.3699,149.29856 L 179.69355,149.31526 L 179.69355,149.31506 L 179.69359,149.31504 z M 167.63615,149.28784 C 166.90734,149.93723 166.44326,150.8854 166.44088,151.93763 C 166.44055,152.14217 166.46938,152.33725 166.50218,152.53243 L 155.1328,152.52643 C 155.1089,152.57183 155.2215,149.23505 155.27005,149.23526 L 167.63623,149.28876 L 167.63618,149.28815 L 167.63618,149.28813 L 167.63615,149.28784 z M 170.00395,150.63115 C 169.28106,150.62915 168.69594,151.21981 168.69431,151.9427 C 168.69231,152.66561 169.27516,153.2507 169.99805,153.25234 C 170.72095,153.25434 171.30604,152.67149 171.30767,151.94859 C 171.30967,151.2257 170.72684,150.63278 170.00395,150.63115 z" />
        <path
           style="fill:#ffffff;fill-opacity:1;stroke:none"
           id="path2893"
           d="M 160.33759,144.82964 L 160.31729,140.83892" />
      </g>
      <path
         style="fill:#ffffff;fill-opacity:1;fill-rule:evenodd;stroke:none"
         id="path3752"
         d="M 46.059437,97.57663 C 46.206693,97.86298 46.18788,98.2391 46.319654,98.53424 L 41.866645,102.72436 L 40.517279,102.72136 L 45.54575,98.02073 L 46.059437,97.57653 L 46.059437,97.57663 z M 54.986177,103.16342 C 55.001357,103.19772 54.412626,106.48576 54.437847,106.43294 L 39.862712,106.42144 C 39.587012,106.42122 39.31415,106.31771 39.026462,106.31713 C 38.73878,106.31678 38.458074,106.35443 38.189782,106.41798 L 31.071997,106.40318 L 31.076997,104.01216 L 40.769247,103.08526 L 47.232078,103.09836 L 47.232078,103.09836 L 54.986184,103.16346 L 54.986184,103.16344 L 54.986177,103.16342 z M 39.024947,106.97181 C 40.641851,106.97581 41.949832,108.29646 41.94648,109.91337 C 41.94288,111.53028 40.629728,112.83827 39.012817,112.83492 C 37.395913,112.83092 36.087923,111.51817 36.091262,109.90126 C 36.094862,108.28435 37.408036,106.96847 39.024947,106.97181 L 39.024947,106.97181 z M 47.452121,107.24965 C 47.378891,108.37121 47.197495,109.46853 46.924541,110.52339 L 42.544957,110.51439 C 42.578877,110.31769 42.600987,110.11315 42.601467,109.90689 C 42.603567,108.84443 42.141223,107.89538 41.407532,107.2372 L 47.452131,107.2499 L 47.452125,107.24962 L 47.452121,107.24965 z M 36.641281,107.22705 C 35.904881,107.88219 35.438493,108.83721 35.436301,109.89967 C 35.435989,110.02066 35.439601,110.13685 35.451421,110.2548 L 32.611026,110.05164 L 31.235937,107.21587 L 36.641345,107.22687 L 36.641339,107.22687 L 36.641286,107.22707 L 36.641281,107.22705 z M 39.021614,108.58137 C 38.292555,108.58037 37.702549,109.17529 37.701053,109.90436 C 37.699753,110.6334 38.287093,111.22339 39.016144,111.22489 C 39.745203,111.22589 40.335182,110.63886 40.336698,109.90979 C 40.337998,109.18074 39.750672,108.58288 39.021614,108.58137 L 39.021614,108.58137 z" />
      <path
         style="fill:#ffffff;fill-opacity:1;fill-rule:evenodd;stroke:none"
         id="path3754"
         d="M 58.070782,97.59214 L 63.043132,102.84571 L 58.739712,102.83671 L 56.722169,98.8417 L 45.91482,98.8136 C 46.113537,98.38507 45.83754,97.97078 46.069029,97.56184 L 58.070781,97.59284 L 58.070782,97.59252 L 58.070782,97.59214 z M 70.092175,103.19804 L 70.914542,106.32184 L 70.875002,106.50954 L 61.837794,106.48904 C 61.570569,106.42414 61.295648,106.38611 61.00864,106.38545 C 60.723369,106.38476 60.452386,106.48771 60.179023,106.48535 L 53.281563,106.42455 C 53.279863,106.31982 54.365925,106.26414 54.366202,106.159 C 54.368502,105.13638 54.468446,104.13723 54.638995,103.16285 L 70.092208,103.19765 L 70.092203,103.19766 L 70.092176,103.19807 L 70.092176,103.19809 L 70.092175,103.19804 z M 61.00717,107.03504 C 62.610422,107.03904 63.907087,108.34902 63.903481,109.95226 C 63.899881,111.5555 62.597327,112.8522 60.99409,112.84859 C 59.390839,112.84459 58.094154,111.54244 58.097775,109.93921 C 58.101375,108.33595 59.403933,107.03143 61.00717,107.03504 L 61.00717,107.03504 z M 70.693223,107.31504 L 70.060945,110.12259 L 64.496793,110.54824 C 64.530443,110.35321 64.552473,110.15041 64.552923,109.94588 C 64.555323,108.89242 64.096934,107.95129 63.369566,107.29856 L 70.693218,107.31526 L 70.693218,107.31506 L 70.693223,107.31504 z M 58.635784,107.28784 C 57.906969,107.93723 57.442886,108.8854 57.440513,109.93763 C 57.440176,110.14217 57.468963,110.33725 57.501783,110.53243 L 46.132396,110.52643 C 46.108496,110.57183 46.221136,107.23505 46.269652,107.23526 L 58.635834,107.28876 L 58.635784,107.28815 L 58.635784,107.28813 L 58.635784,107.28784 z M 61.003583,108.63115 C 60.280691,108.62915 59.69557,109.21981 59.693944,109.9427 C 59.692344,110.66561 60.27479,111.2507 60.997678,111.25234 C 61.720576,111.25434 62.305673,110.67149 62.307298,109.94859 C 62.308898,109.2257 61.726469,108.63278 61.003583,108.63115 L 61.003583,108.63115 z" />
      <path
         style="fill:#ffffff;fill-opacity:1;stroke:#ffffff;stroke-width:0.53390902px;stroke-linecap:butt;stroke-linejoin:miter;stroke-opacity:1"
         id="path3756"
         d="M 51.337218,102.82964 L 51.316918,98.83892" />
      <path
         style="fill:#ffffff;fill-opacity:1;stroke:#ffffff;stroke-width:0.53390902px;stroke-linecap:butt;stroke-linejoin:miter;stroke-opacity:1"
         id="path3798"
         d="M 160.33725,102.82964 L 160.31695,98.83892" />
    </g>
    <g
       id="g3809"
       transform="translate(0,-2)">
      <path
         style="fill:#ffffff;fill-opacity:1;fill-rule:evenodd;stroke:none"
         id="rect1885"
         d="M 91.655709,84.961999 L 91.664509,104.06653 L 131.969,104.04713 L 131.96,84.942584 L 91.655504,84.961994 L 91.655709,84.961999 z M 81.099228,90.320285 L 77.92728,98.523504 L 77.93278,109.5573 L 79.569833,109.55664 C 79.568733,106.38415 82.140671,103.80932 85.313167,103.80778 C 88.485653,103.80678 91.076869,106.37861 91.078394,109.55111 L 114.52115,109.53981 C 114.52015,107.51514 115.57151,105.73385 117.1545,104.70921 L 91.010589,104.72181 L 91.003989,90.315647 L 81.099751,90.320047 L 81.099228,90.320285 z M 82.017011,92.497147 L 89.547486,92.493847 L 89.549686,97.978015 L 79.907401,97.982415 L 82.016567,92.497239 L 82.017011,92.497147 z M 85.329724,104.65894 C 82.631293,104.65994 80.435972,106.84131 80.437256,109.53974 C 80.438356,112.23818 82.635999,114.43351 85.33444,114.4322 C 88.032882,114.4312 90.211828,112.23348 90.210533,109.53504 C 90.209433,106.8366 88.028177,104.65764 85.329724,104.65894 z M 120.28104,104.64204 C 117.5826,104.64304 115.38726,106.8244 115.38857,109.52284 C 115.38957,112.22128 117.58731,114.41659 120.28574,114.41529 C 122.9842,114.41429 125.16313,112.21659 125.16184,109.51814 C 125.16084,106.81971 122.97948,104.64074 120.28104,104.64204 z M 123.37512,104.70604 C 124.84287,105.65407 125.85561,107.25173 125.99652,109.09212 L 131.9706,106.55178 L 131.96993,104.7019 L 123.37534,104.7059 L 123.37512,104.70604 z M 85.330996,107.22907 C 86.607295,107.22844 87.639761,108.25992 87.640375,109.53621 C 87.640979,110.81249 86.609522,111.86134 85.333234,111.86195 C 84.056935,111.86256 83.024469,110.81472 83.023844,109.53842 C 83.023241,108.26213 84.054708,107.22967 85.330996,107.22907 L 85.330996,107.22907 z M 120.28231,107.21217 C 121.5586,107.21156 122.59106,108.24303 122.59168,109.51932 C 122.59229,110.79561 121.56083,111.84445 120.28453,111.84507 C 119.00824,111.84567 117.97577,110.79783 117.97517,109.52154 C 117.97455,108.24525 119.00601,107.21278 120.28231,107.21217 L 120.28231,107.21217 z" />
    </g>
  </g>
</svg>
