<svg xmlns="http://www.w3.org/2000/svg" width="200" height="200" xmlns:v="https://vecta.io/nano"><path d="M-4.931-3.438h207.715V203.91H-4.931V-3.438z" fill="#fff"/><path d="M21.822.347h157.63c10.293 0 18.579 8.393 18.579 18.819v159.673c0 10.426-8.286 18.819-18.579 18.819H21.822c-10.293 0-18.579-8.393-18.579-18.819V19.166C3.244 8.74 11.53.347 21.822.347z" fill="none" stroke="#000" stroke-width="3.019"/><path d="M13.622 168.141v-3.989h88.037 88.037v3.989 3.989h-88.037-88.037v-3.989zm7.977-11.681v-3.704h80.06 80.06v3.704 3.704h-80.06-80.06v-3.704zm10.257-10.827v-3.134h70.373 70.373v3.134 3.134h-70.373-70.373v-3.134zm.414-10.684l3.005-74.469c0-1.118.315-1.175 6.553-1.175 5.582 0 6.553.133 6.553.897 0 2.317 2.847 68.399 3.147 73.037l.341 5.271h-9.891-9.891l.183-3.561zm41.037-.285l2.995-74.224c0-1.068.389-1.135 6.553-1.135 5.908 0 6.553.1 6.553 1.016 0 2.423 2.835 68.15 3.145 72.918l.343 5.271h-9.882-9.882l.176-3.846zm39.705-1.425c.191-2.899.857-18.605 1.48-34.902l1.466-34.332.334-4.701h6.502 6.502v2.964c0 2.279 1.967 50.334 2.986 72.965l.148 3.278-9.883-.001-9.883-.001.348-5.271h0zm39.458 1.425c.224-3.768 3.038-72.741 3.038-74.477 0-.745 1.018-.882 6.553-.882 6.389 0 6.553.032 6.553 1.265 0 2.294 2.79 67.286 3.119 72.67l.323 5.271h-9.907-9.907l.229-3.846zM23.093 54.891c-.161-.55-.456-1.919-.655-3.044l-.361-2.045 5.887-2.079 39.921-13.718 34.034-11.639 39.758 13.704 39.872 13.789c.063.047-.21 1.358-.607 2.914l-.722 2.829-78.417.144c-74.322.137-78.432.092-78.71-.855zm134.95-5.76c-.298-.268-13.046-4.877-28.329-10.241l-27.788-9.754-27.769 9.725-28.311 10.241c-.324.309 22.2.517 56.099.517l56.099-.487zm-60.487-2.909c-4.944-3.015-4.738-11.327.346-13.956 5.613-2.902 12.018.88 12.014 7.095-.004 6.294-6.959 10.154-12.36 6.861z"/></svg>