<?xml version="1.0" encoding="UTF-8" standalone="no"?>
<!-- Created with Inkscape (http://www.inkscape.org/) -->

<svg
   xmlns:dc="http://purl.org/dc/elements/1.1/"
   xmlns:cc="http://creativecommons.org/ns#"
   xmlns:rdf="http://www.w3.org/1999/02/22-rdf-syntax-ns#"
   xmlns:svg="http://www.w3.org/2000/svg"
   xmlns="http://www.w3.org/2000/svg"
   xmlns:sodipodi="http://sodipodi.sourceforge.net/DTD/sodipodi-0.dtd"
   xmlns:inkscape="http://www.inkscape.org/namespaces/inkscape"
   width="262"
   height="260"
   id="svg2994"
   version="1.1"
   inkscape:version="0.48.5 r10040"
   sodipodi:docname="CANC Ferriere.svg"
   inkscape:export-filename="C:\Users\utente\Desktop\CANC drittok.png"
   inkscape:export-xdpi="90"
   inkscape:export-ydpi="90">
  <defs
     id="defs2996" />
  <sodipodi:namedview
     id="base"
     pagecolor="#ffffff"
     bordercolor="#666666"
     borderopacity="1.0"
     inkscape:pageopacity="0.0"
     inkscape:pageshadow="2"
     inkscape:zoom="1"
     inkscape:cx="47.483708"
     inkscape:cy="211.56158"
     inkscape:document-units="px"
     inkscape:current-layer="layer1"
     showgrid="false"
     inkscape:window-width="1366"
     inkscape:window-height="705"
     inkscape:window-x="-8"
     inkscape:window-y="-8"
     inkscape:window-maximized="1"
     fit-margin-top="0"
     fit-margin-left="0"
     fit-margin-right="0"
     fit-margin-bottom="0"
     inkscape:object-nodes="true"
     inkscape:object-paths="false" />
  <metadata
     id="metadata2999">
    <rdf:RDF>
      <cc:Work
         rdf:about="">
        <dc:format>image/svg+xml</dc:format>
        <dc:type
           rdf:resource="http://purl.org/dc/dcmitype/StillImage" />
        <dc:title></dc:title>
      </cc:Work>
    </rdf:RDF>
  </metadata>
  <g
     inkscape:label="Livello 1"
     inkscape:groupmode="layer"
     id="layer1"
     transform="translate(-237.85715,-560.93347)">
    <path
       id="path6820"
       transform="translate(237.85714,320.9335)"
       style="fill:#000000;fill-opacity:1;fill-rule:evenodd;stroke:none"
       d="M 971.99996,-12 1072,588 1172,-12 z m 40.99224,99.99609 118.0078,0 -59.023,353.98979 z"
       inkscape:connector-curvature="0" />
    <rect
       inkscape:export-ydpi="90"
       inkscape:export-xdpi="90"
       inkscape:export-filename="C:\Users\utente\Desktop\CANCdx.png"
       y="560.93347"
       x="237.85715"
       height="260"
       width="262"
       id="rect5153"
       style="fill:#989898;fill-opacity:1;stroke-width:5.1999898;stroke-linecap:round;stroke-linejoin:round;stroke-miterlimit:4;stroke-dasharray:15.6, 15.6;stroke-dashoffset:0" />
    <g
       transform="scale(0.60615741,1.6497365)"
       style="font-size:133.77154541px;font-style:normal;font-weight:normal;line-height:125%;letter-spacing:0px;word-spacing:0px;fill:#fcd647;fill-opacity:1;stroke:none;font-family:Sans"
       id="text7427-0-4">
      <path
         d="m 523.57903,370.99135 c 5.70711,10e-5 11.0142,2.40871 15.9213,7.22582 5.26075,5.0813 7.89116,10.87691 7.89125,17.38687 -9e-5,6.86936 -3.12175,13.29094 -9.36499,19.26477 8.82875,4.81726 13.24316,12.39824 13.24325,22.74296 -9e-5,6.77678 -2.09571,12.75203 -6.28687,17.92575 -4.45804,5.61737 -10.38838,8.82748 -17.79103,9.63034 l -52.3035,0 0,-94.17651 z m -28.89511,37.85595 22.47352,0 c 2.76508,6e-5 5.03965,-1.06953 6.82371,-3.20876 1.78394,-2.1391 2.67594,-4.59125 2.676,-7.35645 -6e-5,-6.15344 -3.38844,-9.54317 -10.16513,-10.16922 l -21.8081,0 z m 0,39.19904 24.21262,0 c 3.74757,3e-5 6.73587,-1.15937 8.96491,-3.47819 1.87239,-2.14186 2.80862,-4.77363 2.80868,-7.89533 -6e-5,-2.942 -0.91452,-5.57241 -2.74336,-7.89125 -1.82897,-2.31875 -4.3478,-3.65641 -7.55649,-4.01298 l -25.68636,0 z"
         style="font-variant:normal;font-stretch:normal;fill:#fcd647;font-family:CodiceBianco;-inkscape-font-specification:CodiceBianco"
         id="path8647" />
      <path
         d="m 566.96253,370.99135 19.26476,0 0,57.25543 c -2e-5,4.01166 1.5159,7.97974 4.54778,11.90423 3.92449,4.99414 9.18668,7.4912 15.78658,7.49118 6.50998,2e-5 11.7259,-2.49704 15.64777,-7.49118 3.21141,-3.92449 4.81715,-7.89257 4.81722,-11.90423 l 0,-57.25543 19.26476,0 0,58.99453 c -8e-5,10.70132 -4.32605,19.75331 -12.97789,27.15601 -8.02604,6.77677 -16.89977,10.16514 -26.62123,10.16514 -10.07536,0 -19.21581,-3.72313 -27.42137,-11.1694 -8.2056,-7.44625 -12.30839,-16.2084 -12.30838,-26.28647 z"
         style="font-variant:normal;font-stretch:normal;fill:#fcd647;font-family:CodiceBianco;-inkscape-font-specification:CodiceBianco"
         id="path8649" />
      <path
         d="m 700.5422,370.32184 c 16.32131,10e-5 30.18915,5.12893 41.60357,15.38651 l -13.91276,11.90423 c -2.76521,-2.40854 -6.19849,-4.54906 -10.29985,-6.42159 -5.08399,-2.40853 -9.98829,-3.61283 -14.71291,-3.61291 -2.58828,8e-5 -5.04179,0.40151 -7.36054,1.2043 -5.44049,1.78544 -7.93755,5.21872 -7.49118,10.29985 0.17959,2.05215 1.96359,3.7477 5.35201,5.08665 3.03181,1.24656 9.0955,2.85093 18.1911,4.81313 19.08643,4.10422 28.62967,13.51274 28.62976,28.2256 -9e-5,9.00849 -3.54496,16.25471 -10.63461,21.7387 -7.08981,5.484 -16.74464,8.226 -28.96451,8.226 -10.16518,0 -19.84042,-2.72022 -29.02575,-8.16068 -5.797,-3.29856 -10.65775,-7.17682 -14.58228,-11.6348 l 16.32137,-12.30838 c 1.51591,2.31882 4.63757,4.81588 9.36499,7.49117 6.33038,3.56803 12.88396,5.39693 19.66076,5.48672 4.63754,0.0871 8.3838,-0.82802 11.2388,-2.7454 2.85489,-1.91733 4.28236,-4.39194 4.28242,-7.42381 -6e-5,-3.47816 -2.2304,-6.19839 -6.69102,-8.16069 -2.76519,-1.24645 -7.67017,-2.60588 -14.71496,-4.0783 -7.04486,-1.47233 -11.81512,-2.78822 -14.31079,-3.94767 -4.3709,-1.96221 -7.4041,-3.7013 -9.09963,-5.21728 -4.7247,-4.19119 -7.08703,-9.72009 -7.08702,-16.58673 -10e-6,-10.07796 3.69998,-17.74739 11.1,-23.00831 6.15348,-4.37077 13.86782,-6.55621 23.14303,-6.55631 z"
         style="font-variant:normal;font-stretch:normal;fill:#fcd647;font-family:CodiceBianco;-inkscape-font-specification:CodiceBianco"
         id="path8651" />
    </g>
  </g>
</svg>
