<svg xmlns="http://www.w3.org/2000/svg" xmlns:xlink="http://www.w3.org/1999/xlink" width="1361" height="1069" xmlns:v="https://vecta.io/nano"><path d="M.502.505h1360v1068H.502z" fill="#fff"/><g stroke="#000"><path d="M1239.752 392.755H670.346l9.899-55.5h593.256v655.5l-33.75 36.75z" fill="#b4b4b4" stroke-width="2"/><path d="M798.502 108.505h425v340h-425z" fill="#fff"/><rect width="412.25" height="327.25" x="804.877" y="114.88" rx="22.25" fill="none" stroke-width="6.375"/></g><path d="M148.502 68.505h600v380h-600z" fill="#00408b"/><path d="M307.772 123.505c3.338 0 6.441 1.409 9.311 4.226 3.077 2.972 4.615 6.361 4.615 10.169 0 4.018-1.826 7.773-5.477 11.267 5.163 2.817 7.745 7.251 7.745 13.301 0 3.963-1.226 7.458-3.677 10.484-2.607 3.285-6.075 5.163-10.405 5.632h-30.589v-55.079zm-16.899 22.14h13.143c1.617 0 2.947-.626 3.991-1.877a6.52 6.52 0 0 0 1.565-4.302c0-3.599-1.982-5.581-5.945-5.947h-12.754zm0 22.925h14.16c2.192 0 3.939-.678 5.243-2.034 1.095-1.253 1.643-2.792 1.643-4.618 0-1.721-.535-3.259-1.604-4.615s-2.543-2.138-4.419-2.347h-15.022zm68.715-45.065c4.224 0 7.954 1.538 11.188 4.615 3.39 3.234 5.085 7.199 5.085 11.892 0 4.224-1.409 7.823-4.226 10.797-2.087 2.243-4.616 3.886-7.588 4.93l14.16 22.765h-12.363l-13.535-21.827h-8.213v21.827h-10.875v-55zm-15.49 9.779v13.693h13.456c1.409 0 2.791-.652 4.147-1.957s2.034-2.921 2.034-4.85-.665-3.561-1.996-4.891-2.778-1.995-4.343-1.995zm54.5-9.779v55h-11.343v-55zm62.262 55h-12.831l-26.599-38.101v38.101h-10.954v-55h12.831l26.602 38.335v-38.335h10.952zm35.509-55.705c4.902 0 9.831 1.904 14.786 5.711 6.781 5.216 10.171 12.597 10.171 22.142 0 9.596-3.339 17.003-10.016 22.219-4.902 3.807-9.883 5.711-14.941 5.711h-23.472V122.8zm-.862 10.016h-10.952v35.517h10.326c4.277 0 7.719-1.434 10.326-4.302 2.817-3.129 4.226-7.588 4.226-13.378 0-6.311-1.617-11.031-4.851-14.161-2.504-2.451-5.529-3.677-9.075-3.677zm45.807-9.311v55h-11.343v-55zm32.533-.392c9.545 0 17.656 3 24.331 8.999l-8.137 6.962c-1.617-1.409-3.625-2.661-6.024-3.756-2.973-1.409-5.841-2.113-8.605-2.113-1.514 0-2.949.235-4.305.704-3.182 1.044-4.642 3.052-4.381 6.024.105 1.2 1.148 2.192 3.13 2.975 1.773.729 5.319 1.667 10.639 2.815 11.162 2.4 16.744 7.903 16.744 16.508 0 5.269-2.073 9.507-6.219 12.714s-9.793 4.811-16.939 4.811c-5.945 0-11.603-1.591-16.975-4.773-3.39-1.929-6.233-4.197-8.528-6.805l9.545-7.199c.887 1.356 2.712 2.817 5.477 4.381 3.702 2.087 7.535 3.156 11.498 3.209 2.712.051 4.903-.484 6.573-1.606s2.504-2.569 2.505-4.342c0-2.034-1.304-3.625-3.913-4.773-1.617-.729-4.486-1.524-8.606-2.385s-6.91-1.631-8.369-2.309c-2.556-1.148-4.33-2.165-5.322-3.051-2.763-2.451-4.145-5.685-4.145-9.701 0-5.894 2.164-10.379 6.492-13.456 3.599-2.556 8.11-3.834 13.535-3.834zm43.715.392v55h-11.343v-55zM317.24 228.433v9.175h-15.575v40.897h-10.384v-40.966h-15.575v-9.105zm19.181.072h14.366l16.997 50H356.76l-2.843-8.393h-20.413l-2.774 8.393h-10.668zm7.182 11.237l-6.969 21.054h14.225zm54.702-11.237c3.84 0 7.231 1.399 10.171 4.196 3.082 2.94 4.623 6.544 4.623 10.811 0 3.84-1.281 7.112-3.842 9.815-1.897 2.039-4.196 3.533-6.898 4.482l12.873 20.696h-11.239l-12.304-19.843h-7.466v19.843h-9.886v-50zm-14.082 8.89v12.448h12.233c1.281 0 2.537-.593 3.77-1.779s1.849-2.656 1.849-4.409-.605-3.237-1.815-4.446-2.526-1.813-3.948-1.813zm50.685-8.89h14.366l16.997 50h-11.024l-2.843-8.393h-20.413l-2.774 8.393h-10.668zm7.182 11.237l-6.969 21.054h14.225zm77.034 38.763H507.46l-24.181-34.637v34.637h-9.958v-50h11.664l24.183 34.85v-34.85h9.956zm48.71-50.072v9.175h-15.575v40.897h-10.384v-40.966H526.3v-9.105zm53.246 24.753c0 8.012-2.299 14.413-6.898 19.203-4.409 4.552-10.099 6.828-17.069 6.828s-12.637-2.276-16.999-6.828c-4.599-4.79-6.898-11.19-6.898-19.203 0-7.824 2.537-14.107 7.61-18.849 4.552-4.219 9.981-6.329 16.287-6.329s11.735 2.11 16.287 6.329c5.119 4.742 7.679 11.025 7.679 18.849zm-10.952 0c0-4.694-1.197-8.44-3.591-11.238s-5.535-4.197-9.423-4.197-7.006 1.399-9.353 4.197-3.521 6.544-3.521 11.238c0 4.884.996 8.7 2.987 11.449 2.228 3.13 5.524 4.695 9.887 4.695 4.409 0 7.728-1.565 9.956-4.695 2.039-2.797 3.058-6.614 3.058-11.449z" fill="#fff"/><path d="M988.7 163.72h24.82c3.377 0 6.372 1.093 8.987 3.28 2.995 2.521 4.492 5.825 4.493 9.915 0 3.851-1.593 7.251-4.778 10.2 1.997 1.188 3.637 2.829 4.921 4.921 1.474 2.329 2.211 4.778 2.211 7.346 0 3.519-1.26 6.705-3.781 9.558-2.711 3.043-5.968 4.564-9.771 4.564H988.7zm11.839 19.401h10.413c1 0 1.963-.464 2.889-1.391s1.39-1.962 1.39-3.104c0-1.236-.463-2.318-1.39-3.245s-1.89-1.391-2.889-1.391h-10.413zm0 20.184h10.485c4.089 0 6.134-1.807 6.134-5.42a4.84 4.84 0 0 0-1.569-3.638c-1.046-.999-2.259-1.499-3.637-1.499h-11.412zm50.262-40.227h14.692l16.405 50.427h-12.126l-2.566-7.562h-18.188l-2.71 7.562h-11.769zm7.418 14.122h-.144l-5.492 17.546.144-.072 10.84.072zm57.537-14.122c3.613 0 6.918 1.26 9.914 3.781 3.471 2.947 5.206 6.822 5.206 11.626 0 4.279-1.498 7.845-4.495 10.698-1.188 1.141-3.066 2.377-5.633 3.709l12.267 20.613h-12.553l-11.697-19.472h-5.92v19.472h-11.484v-50.427zm-12.838 9.984v10.557h10.839c1.046 0 2.08-.559 3.103-1.676s1.533-2.27 1.533-3.459c0-1.236-.427-2.425-1.282-3.568-1-1.236-2.165-1.854-3.496-1.855zm53.579-9.557v50h-11.625v-50zM859.35 268.206h13.01c3.195 0 5.805 1.041 7.831 3.124 1.883 1.94 2.825 4.251 2.825 6.934 0 3.053-1.184 5.563-3.552 7.532-1.94 1.626-3.951 2.438-6.034 2.438h-6.804v10.272h-7.276zm7.319 6.163v7.66h5.263c.913 0 1.741-.328 2.483-.985.885-.741 1.327-1.711 1.327-2.91 0-1.026-.378-1.911-1.134-2.652s-1.619-1.113-2.589-1.113z"/><use xlink:href="#B"/><use xlink:href="#C"/><use xlink:href="#C" x="25.659"/><path d="M963.725 276.765h6.89v21.783h-6.89zm-.128-6.762c.713-1.426 1.883-2.139 3.509-2.139a4.04 4.04 0 0 1 1.754.385c1.455.713 2.182 1.897 2.182 3.552 0 .599-.128 1.169-.385 1.711-.713 1.427-1.897 2.141-3.551 2.141-.628 0-1.213-.128-1.755-.385-1.426-.713-2.139-1.883-2.139-3.509a4.05 4.05 0 0 1 .385-1.755z"/><use xlink:href="#B" x="88.262"/><path d="M1019.885 268.762h20.969v6.419h-13.693v4.922h11.982v6.419h-11.982v11.982h-7.276zm40.39 14.636a7.12 7.12 0 0 0-1.883-.257c-1.455 0-2.653.385-3.594 1.156-1.056.827-1.584 1.997-1.584 3.509v10.699h-6.932v-21.74h7.018v1.369l1.84-1.113c1.084-.514 2.225-.771 3.423-.771.57 0 1.141.057 1.712.172zm19.535-5.606c.485.172 1.056.571 1.712 1.199 1.084 1.055 1.626 2.253 1.626 3.594v9.971c0 .514.328.842.985.985.057.028.514.071 1.37.128-.257.742-.999 2.496-2.225 5.263-2.225 0-4.094-.627-5.607-1.882-1.997 1.312-3.995 1.968-5.992 1.968a8.25 8.25 0 0 1-5.499-2.011c-1.583-1.341-2.375-3.01-2.375-5.007 0-3.309 2.04-5.592 6.12-6.847l6.163-1.07c0-1.255-.799-1.883-2.396-1.883s-3.124.414-4.58 1.241a113.98 113.98 0 0 0-1.797 1.37l-3.252-4.921c.057-.143.485-.457 1.284-.942.97-.628 2.054-1.198 3.252-1.712 1.427-.628 3.11-.942 5.05-.942 2.225 0 4.279.499 6.162 1.498zm-9.157 13.909c.029.456.328.841.898 1.154a2.91 2.91 0 0 0 1.498.428c.799 0 1.484-.178 2.054-.535s.927-.763 1.07-1.219v-2.184l-3.594.686c-1.313.285-1.955.841-1.926 1.669zm32.604 6.804v-12.069c0-1.055-.293-1.94-.878-2.653s-1.42-1.07-2.504-1.07c-1.198 0-2.096.414-2.695 1.242-.428.628-.643 1.355-.643 2.182v12.368h-6.847v-21.698h6.035l.342 1.327c1.511-1.198 3.494-1.797 5.947-1.797 2.796 0 4.95 1.084 6.462 3.252 1.113 1.598 1.669 3.21 1.669 4.836v14.08zm21.718-22.168c2.539 0 4.807.842 6.804 2.524 1.683 1.455 2.71 2.996 3.081 4.622l-5.99 2.182c-.114-.941-.457-1.74-1.028-2.396-.713-.798-1.683-1.198-2.91-1.198a3.82 3.82 0 0 0-3.017 1.348c-.785.899-1.177 2.047-1.177 3.445v1.626c0 1.17.328 2.211.985 3.124.77 1.113 1.868 1.669 3.295 1.669.884 0 1.748-.357 2.589-1.07s1.276-1.626 1.305-2.739l6.077 2.139c0 .514-.343 1.298-1.028 2.353-.856 1.37-1.925 2.482-3.209 3.338-1.712 1.141-3.652 1.712-5.821 1.712-3.138 0-5.777-1.184-7.917-3.552-1.826-1.996-2.739-4.136-2.739-6.419v-2.011c0-2.596.884-4.936 2.654-7.018 2.054-2.454 4.735-3.68 8.045-3.68zm31.957 3.21c1.968 2.139 2.953 4.65 2.953 7.532 0 3.737-1.212 6.761-3.637 9.073-2.111 1.996-4.522 2.995-7.232 2.995-4.022 0-7.132-1.555-9.329-4.664-.77-1.113-1.284-2.054-1.541-2.825-.371-1.027-.556-2.425-.556-4.194 0-3.652 1.227-6.577 3.68-8.774 2.055-1.854 4.58-2.782 7.575-2.782 3.139 0 5.835 1.213 8.088 3.639zm-12.71 6.59v2.353c0 1.17.457 2.183 1.37 3.039s1.955 1.284 3.124 1.284c1.198 0 2.239-.428 3.124-1.284s1.327-1.869 1.327-3.039v-2.353c0-1.227-.485-2.254-1.455-3.081-.885-.742-1.883-1.113-2.996-1.113a4.65 4.65 0 0 0-3.081 1.113c-.942.827-1.413 1.854-1.413 3.081z"/><g fill="#fff" fill-rule="evenodd"><use xlink:href="#D"/><use xlink:href="#D" x="375"/></g><path d="M1172.501 332.669l-.001 70.836-70.835-.001c-1.685 0-3.107-1.116-3.508-2.752s.347-3.284 1.841-4.06l29.627-15.409c.888-.462 1.431-1.283 1.505-2.282s-.338-1.892-1.149-2.48l-21.166-15.397 21.303-21.303 15.396 21.167a2.73 2.73 0 0 0 2.481 1.148c.999-.076 1.821-.617 2.282-1.505l15.409-29.627c.778-1.496 2.423-2.241 4.061-1.841s2.754 1.822 2.754 3.507z" fill-rule="evenodd"/><rect width="582" height="362" x="157.502" y="77.505" rx="31.786" fill="none" stroke="#fff" stroke-width="9"/><g fill="#646464"><path d="M1208.752 988.005v10.063H-68.906l126.898 259.368 1357.645-79.196 16.365-190.234z"/><path d="M821.33 986.145h11.625v13.875H821.33zm-375.001 0h11.625v13.875h-11.625z" stroke="#646464" stroke-width="10"/></g><g stroke="#000" fill="none"><path d="M639.709 457.916V994.01m-375-536.094V994.01m749.999-536.094V994.01" stroke-width="5" stroke-dasharray="10, 10"/><path d="M.502.505h1360v1068H.502z"/></g><defs ><path id="B" d="M905.518 279.547c1.969 2.139 2.953 4.65 2.953 7.532 0 3.737-1.212 6.761-3.637 9.073-2.111 1.996-4.522 2.995-7.232 2.995-4.022 0-7.132-1.555-9.329-4.664-.771-1.113-1.284-2.054-1.541-2.825-.371-1.027-.556-2.425-.556-4.194 0-3.652 1.227-6.577 3.68-8.774 2.055-1.854 4.58-2.782 7.575-2.782 3.139 0 5.835 1.213 8.088 3.639zm-12.71 6.59v2.353c0 1.17.457 2.183 1.37 3.039s1.955 1.284 3.124 1.284c1.198 0 2.239-.428 3.124-1.284s1.327-1.869 1.327-3.039v-2.353c0-1.227-.485-2.254-1.455-3.081-.885-.742-1.883-1.113-2.996-1.113a4.65 4.65 0 0 0-3.081 1.113c-.942.827-1.413 1.854-1.413 3.081z"/><path id="C" d="M921.136 276.209c1.455-.057 2.696.142 3.723.598l1.583.942a7.69 7.69 0 0 0 .342-.983h5.992v20.456c0 1.826-.728 3.523-2.184 5.092-1.969 2.14-4.807 3.21-8.515 3.21-2.111 0-4.422-.442-6.933-1.327l-3.466-1.412 2.953-5.479c2.653 1.512 5.149 2.269 7.488 2.269.742 0 1.427-.1 2.054-.299.771-.229 1.255-.7 1.455-1.413.057-.143.129-.742.214-1.797l-1.583.47c-.97.257-1.969.385-2.996.385-1.94 0-3.851-.727-5.735-2.182-2.453-1.855-3.794-4.379-4.022-7.575-.199-2.653.585-5.078 2.353-7.274 1.883-2.339 4.308-3.566 7.276-3.68zm.855 14.721c.941 0 1.783-.257 2.524-.771 1.141-.798 1.712-2.068 1.712-3.808 0-1.484-.542-2.611-1.626-3.381-.771-.514-1.584-.771-2.44-.771-1.227 0-2.211.399-2.953 1.198s-1.141 1.783-1.198 2.954c-.057 1.227.285 2.297 1.026 3.209s1.726 1.369 2.953 1.369z"/><path id="D" d="M314.745 358.416l-50.089 50.088-50.088-50.088c-1.192-1.192-1.408-2.986-.535-4.427s2.567-2.076 4.173-1.569l31.845 10.054c.955.301 1.919.105 2.678-.549a2.73 2.73 0 0 0 .942-2.566l-4.079-25.854h30.127l-4.08 25.854a2.73 2.73 0 0 0 .943 2.566c.76.653 1.724.852 2.678.549l31.845-10.054a3.57 3.57 0 0 1 4.173 1.569c.875 1.44.659 3.235-.533 4.427z"/></defs></svg>