<?xml version="1.0" encoding="UTF-8" standalone="no"?>
<!-- Created with Inkscape (http://www.inkscape.org/) -->

<svg
   xmlns:dc="http://purl.org/dc/elements/1.1/"
   xmlns:cc="http://creativecommons.org/ns#"
   xmlns:rdf="http://www.w3.org/1999/02/22-rdf-syntax-ns#"
   xmlns:svg="http://www.w3.org/2000/svg"
   xmlns="http://www.w3.org/2000/svg"
   xmlns:sodipodi="http://sodipodi.sourceforge.net/DTD/sodipodi-0.dtd"
   xmlns:inkscape="http://www.inkscape.org/namespaces/inkscape"
   width="600"
   height="900"
   id="svg2"
   version="1.1"
   inkscape:version="0.48.5 r10040"
   sodipodi:docname="CANC Osped.svg">
  <defs
     id="defs4" />
  <sodipodi:namedview
     id="base"
     pagecolor="#ffffff"
     bordercolor="#666666"
     borderopacity="1.0"
     inkscape:pageopacity="0.0"
     inkscape:pageshadow="2"
     inkscape:zoom="0.35"
     inkscape:cx="696.66729"
     inkscape:cy="196.7815"
     inkscape:document-units="px"
     inkscape:current-layer="layer1"
     showgrid="false"
     inkscape:object-paths="true"
     inkscape:snap-intersection-paths="false"
     inkscape:object-nodes="false"
     inkscape:snap-smooth-nodes="true"
     inkscape:snap-object-midpoints="true"
     fit-margin-top="0"
     fit-margin-left="0"
     fit-margin-right="0"
     fit-margin-bottom="0"
     inkscape:snap-nodes="true"
     inkscape:window-width="1366"
     inkscape:window-height="705"
     inkscape:window-x="-8"
     inkscape:window-y="-8"
     inkscape:window-maximized="1" />
  <metadata
     id="metadata7">
    <rdf:RDF>
      <cc:Work
         rdf:about="">
        <dc:format>image/svg+xml</dc:format>
        <dc:type
           rdf:resource="http://purl.org/dc/dcmitype/StillImage" />
        <dc:title />
      </cc:Work>
    </rdf:RDF>
  </metadata>
  <g
     inkscape:label="Livello 1"
     inkscape:groupmode="layer"
     id="layer1"
     transform="translate(0,-152.375)">
    <rect
       style="fill:#ffffff;fill-opacity:1;fill-rule:evenodd;stroke:#000000;stroke-width:0.99999994;stroke-opacity:1"
       id="rect2985"
       width="599"
       height="899"
       x="0.49999997"
       y="152.875" />
    <rect
       style="fill:none;stroke:#000000;stroke-width:12;stroke-miterlimit:4;stroke-opacity:1;stroke-dasharray:none"
       id="rect3755"
       width="576"
       height="876"
       x="12"
       y="164.375"
       rx="39.000023"
       ry="39.000023" />
    <path
       id="path9576-5-8"
       style="fill:#000000;fill-opacity:1;fill-rule:evenodd;stroke:none"
       d="m 464.77377,827.2963 0.2262,51.53385 -176.52687,0 10.62285,60.80115 c -0.2259,1.5831 -0.6774,3.1644 -1.5831,4.06845 -0.9033,1.12935 -3.16395,1.35525 -4.74645,1.35525 L 135,853.06225 292.9923,760.8433 c 1.5831,0 3.84255,0.4515 4.52055,0.90345 0.9033,1.12935 1.3572,2.2602 1.1295,3.8424 L 287.5674,827.2945 z"
       inkscape:connector-curvature="0" />
    <rect
       width="450"
       height="450"
       y="227.375"
       rx="0"
       ry="0"
       id="rect9641"
       x="75"
       style="fill:#ffffff" />
    <rect
       ry="50.702774"
       rx="50.702774"
       y="233"
       x="80.625"
       height="438.75"
       width="438.75"
       id="rect19093"
       style="fill:none;stroke:#000000;stroke-width:11.25;stroke-linejoin:miter;stroke-miterlimit:4;stroke-opacity:1;stroke-dasharray:none" />
    <path
       inkscape:connector-curvature="0"
       d="m 278.47,604.30414 c -11.7601,-3.38526 -23.7013,-10.31213 -33.1398,-19.22387 -13.8596,-13.08609 -22.5835,-30.56681 -24.2607,-48.61352 l -0.8417,-9.05706 79.5123,0 79.5125,0 -0.023,5.52679 c -0.083,24.11152 -18.3251,52.51104 -41.4591,64.54663 -5.5875,2.90686 -13.5858,6.17782 -17.7741,7.26876 -10.3093,2.68521 -31.4379,2.4574 -41.5303,-0.44773 l -9e-4,0 0,0 z M 125.6704,515.95445 c 0,-5.81288 2.386,-7.54396 17.1138,-12.41694 33.3123,-11.02199 57.9975,-28.52937 81.1253,-57.5361 5.1903,-6.50968 11.9824,-13.88763 15.0932,-16.39546 6.0505,-4.87753 16.8208,-11.43369 18.7747,-11.42858 0.6525,10e-4 2.8791,3.24281 4.948,7.20247 2.2437,4.29356 7.3489,10.52042 12.6493,15.42758 8.6836,8.03981 8.8294,8.28054 6.3629,10.51249 -4.0299,3.64714 -6.9495,12.84883 -6.1964,19.52998 2.4882,22.07533 32.537,29.41951 44.7655,10.94107 6.4107,-9.68721 5.4369,-22.03497 -2.416,-30.63559 l -2.5387,-2.78048 5.8241,-4.1826 c 6.0089,-4.31518 14.987,-15.37323 17.9899,-22.1575 0.94,-2.12328 2.2975,-3.85504 3.017,-3.84831 2.4705,0.023 14.317,7.50514 20.4201,12.89693 3.3592,2.96777 9.8631,10.20146 14.4529,16.07483 21.1738,27.0948 47.2909,45.50952 79.999,56.40577 7.6326,2.5427 14.609,5.21609 15.5029,5.94088 0.8942,0.72477 1.6256,3.29429 1.6256,5.71 l 0,4.39227 -174.2566,0 -174.2564,0 0,-3.65271 0,0 z M 292.382,482.32041 c -5.3368,-2.63016 -8.0602,-7.70708 -8.0602,-15.0264 0,-9.39395 6.4683,-15.30877 16.7411,-15.30877 16.2106,0 20.8786,23.42013 6.0687,30.44785 -5.4765,2.59877 -9.3071,2.5695 -14.7496,-0.11272 l 0,1.5e-4 z m -2.5747,-46.69265 c -3.701,-1.84428 -8.4211,-5.50172 -10.4889,-8.12763 -8.3092,-10.55169 -15.1967,-29.00239 -16.6454,-44.59113 l -0.8319,-8.94906 37.899,0 37.899,0 0,5.52679 c -0.023,8.18766 -4.6838,26.19605 -9.3046,35.87811 -4.9991,10.47488 -14.1221,19.86622 -21.3971,22.02665 -7.5294,2.23598 -9.5026,2.03269 -17.1211,-1.76373 l 0,0 z m -27.5927,-76.50828 c 0,-2.4404 0.8262,-8.73119 1.836,-13.97954 6.4096,-33.31294 24.4283,-52.74318 43.1742,-46.55646 6.8645,2.2655 16.3133,12.23705 21.1007,22.26773 4.7616,9.97729 9.2916,27.76115 9.3046,36.52834 l 0,6.177 -37.7122,0 -37.7123,0 0,-4.43707 z"
       id="path4756"
       style="fill:#000000" />
    <path
       inkscape:connector-curvature="0"
       d="m 262.7096,357.9018 c 0.2671,-6.0961 1.3273,-12.56911 3.3026,-20.16099 7.2083,-27.70569 23.2378,-43.60716 39.6416,-39.32505 3.9089,1.02035 6.8803,2.98962 11.6312,7.70807 6.9142,6.86694 10.9602,13.61028 14.4753,24.12615 3.531,10.5619 5.6316,21.27102 5.6316,28.70883 l 0,4.2716 -37.458,0 -37.4578,0 0.2335,-5.32861 0,0 z"
       id="path4758"
       style="fill:#d40000;fill-opacity:1;stroke:#ffffff;stroke-width:0.96518159;stroke-linecap:butt;stroke-linejoin:miter;stroke-miterlimit:4;stroke-opacity:1;stroke-dasharray:none;stroke-dashoffset:0" />
    <path
       inkscape:connector-curvature="0"
       d="m 292.7361,436.70002 c -11.0599,-4.98776 -17.0107,-12.05485 -23.26,-27.62348 -4.0586,-10.11039 -6.1191,-19.24263 -7.1006,-31.46895 l -0.2826,-3.51888 37.7048,0 37.7051,0 -0.2282,5.73077 c -0.2632,6.6159 -1.3191,12.11683 -4.149,21.61604 -3.0822,10.34627 -5.5489,15.82227 -9.8352,21.83335 -3.1284,4.38761 -9.1773,10.22773 -12.5286,12.09634 -3.3235,1.85301 -7.8314,3.06942 -11.3659,3.06699 -2.462,-0.002 -3.3143,-0.22342 -6.6598,-1.73218 l 0,0 0,0 z"
       id="path4760"
       style="fill:#00408b;fill-opacity:1;stroke:#ffffff;stroke-width:0.96518159;stroke-linecap:butt;stroke-linejoin:miter;stroke-miterlimit:4;stroke-opacity:1;stroke-dasharray:none;stroke-dashoffset:0" />
  </g>
</svg>
