<?xml version="1.0" encoding="UTF-8" standalone="no"?>
<!-- Created with Inkscape (http://www.inkscape.org/) -->

<svg
   width="357.1875mm"
   height="529.16663mm"
   viewBox="0 0 357.1875 529.16663"
   version="1.1"
   id="svg2431"
   inkscape:version="1.2.1 (9c6d41e410, 2022-07-14)"
   sodipodi:docname="Segnale stradale italiano - corsie chiuse (figura II 411c).svg"
   xmlns:inkscape="http://www.inkscape.org/namespaces/inkscape"
   xmlns:sodipodi="http://sodipodi.sourceforge.net/DTD/sodipodi-0.dtd"
   xmlns="http://www.w3.org/2000/svg"
   xmlns:svg="http://www.w3.org/2000/svg">
  <sodipodi:namedview
     id="namedview2433"
     pagecolor="#ffffff"
     bordercolor="#000000"
     borderopacity="0.25"
     inkscape:showpageshadow="2"
     inkscape:pageopacity="0.0"
     inkscape:pagecheckerboard="0"
     inkscape:deskcolor="#d1d1d1"
     inkscape:document-units="mm"
     showgrid="false"
     inkscape:zoom="0.76257015"
     inkscape:cx="867.46118"
     inkscape:cy="795.33667"
     inkscape:window-width="1920"
     inkscape:window-height="991"
     inkscape:window-x="-9"
     inkscape:window-y="-9"
     inkscape:window-maximized="1"
     inkscape:current-layer="layer1" />
  <defs
     id="defs2428" />
  <g
     inkscape:label="Livello 1"
     inkscape:groupmode="layer"
     id="layer1"
     transform="translate(124.12065,170.55652)">
    <g
       id="g4370"
       transform="translate(-2688.7144,-7132.2699)">
      <rect
         style="fill:#f2ef0c;fill-rule:evenodd;stroke-width:19.237;stroke-opacity:0.68;paint-order:markers fill stroke"
         id="rect4727-8-95-5"
         width="357.1875"
         height="529.16663"
         x="2564.5938"
         y="6961.7134" />
      <rect
         style="fill:none;fill-opacity:0.704615;fill-rule:evenodd;stroke:#000000;stroke-width:7.9375;paint-order:markers fill stroke"
         id="rect4727-8-9-0-4"
         width="341.3125"
         height="513.29169"
         x="2572.531"
         y="6969.6509"
         ry="27.78125"
         rx="27.78125" />
      <path
         id="path4594-1-7-9-0-1-0-3-0-6-1-8-6-3-0-6-7-0"
         style="fill:#000000;stroke-width:84.5096;paint-order:fill markers stroke"
         d="m 2684.6858,7033.7387 -30.6468,53.0998 c -1.9778,3.4242 0.5507,4.5926 3.0645,3.9189 l 13.863,-3.4104 c 3.1638,-0.8445 4.2746,-0.8721 4.2579,2.4779 v 10.7499 c 0,17.3706 1.7443,23.8065 7.9115,34.6484 l 157.5913,307.864 9.1538,-9.9786 -11.031,-33.5186 -137.5095,-271.7845 c -5.6537,-9.9879 -7.3687,-17.0534 -7.1923,-27.2307 v -10.7499 c 0,-3.3516 1.095,-3.325 4.2586,-2.4779 l 13.8642,3.4104 c 2.5174,0.6794 5.0404,-0.4955 3.0635,-3.9189 z"
         sodipodi:nodetypes="ccccccccccccccccc" />
      <path
         id="path4594-1-7-9-0-1-0-3-0-6-1-8-6-3-0-3-8-6-7"
         style="fill:#000000;stroke-width:84.5096;paint-order:fill markers stroke"
         d="m 2849.3852,7033.7386 -30.6469,53.0999 c -1.9779,3.4241 0.5506,4.5926 3.0644,3.9189 l 13.8633,-3.4104 c 3.1636,-0.8447 4.2743,-0.8721 4.2578,2.4779 l -4e-4,35.8176 v 338.3994 h 18.9247 v -339.1038 l -7e-4,-35.1132 c 0,-3.3517 1.095,-3.3253 4.2588,-2.4779 l 13.8641,3.4103 c 2.5172,0.6792 5.0404,-0.4955 3.0635,-3.9188 z"
         sodipodi:nodetypes="cccccccccccccc" />
      <path
         id="path2013-7-2-5-4-8"
         style="fill:#000000;fill-rule:evenodd;stroke-width:23.479;paint-order:markers fill stroke"
         d="m 2766.175,7406.2183 c 7.7927,4.499 17.4043,14.6939 17.4043,28.4892 v 29.3344 h -34.8092 v -29.3344 c 0,-13.7953 9.6121,-23.9902 17.4049,-28.4892 z"
         sodipodi:nodetypes="csccsc" />
      <path
         id="path2013-7-2-5-4-8-6"
         style="fill:#000000;fill-rule:evenodd;stroke-width:23.479;paint-order:markers fill stroke"
         d="m 2765.7955,7050.4879 c 7.7926,-4.4992 17.4043,-14.6941 17.4043,-28.4895 v -29.3347 h -34.8093 v 29.3347 c 0,13.7954 9.6122,23.9903 17.405,28.4895 z"
         sodipodi:nodetypes="csccsc" />
      <path
         style="color:#000000;fill:#d92124;fill-rule:evenodd;-inkscape-stroke:none;paint-order:markers fill stroke"
         d="m 2592.5762,6992.6641 v 109.7578 l 120.5761,250.084 v 111.5351 h 23.1973 v -116.834 l -120.5762,-250.084 v -104.4589 z"
         id="path4567-1-3-1" />
    </g>
  </g>
</svg>
