<?xml version="1.0" encoding="UTF-8" standalone="no"?>
<!-- Created with Inkscape (http://www.inkscape.org/) -->

<svg
   width="52.916668mm"
   height="52.916668mm"
   viewBox="0 0 52.916668 52.916668"
   version="1.1"
   id="svg4379"
   inkscape:version="1.2.1 (9c6d41e410, 2022-07-14)"
   sodipodi:docname="Segnale stradale italiano - sottopassaggio scale.svg"
   xmlns:inkscape="http://www.inkscape.org/namespaces/inkscape"
   xmlns:sodipodi="http://sodipodi.sourceforge.net/DTD/sodipodi-0.dtd"
   xmlns="http://www.w3.org/2000/svg"
   xmlns:svg="http://www.w3.org/2000/svg">
  <sodipodi:namedview
     id="namedview4381"
     pagecolor="#ffffff"
     bordercolor="#000000"
     borderopacity="0.25"
     inkscape:showpageshadow="2"
     inkscape:pageopacity="0.0"
     inkscape:pagecheckerboard="0"
     inkscape:deskcolor="#d1d1d1"
     inkscape:document-units="mm"
     showgrid="false"
     inkscape:zoom="0.76257015"
     inkscape:cx="234.07683"
     inkscape:cy="-41.307675"
     inkscape:window-width="1920"
     inkscape:window-height="991"
     inkscape:window-x="-9"
     inkscape:window-y="-9"
     inkscape:window-maximized="1"
     inkscape:current-layer="layer1" />
  <defs
     id="defs4376" />
  <g
     inkscape:label="Livello 1"
     inkscape:groupmode="layer"
     id="layer1"
     transform="translate(-43.281166,-84.569694)">
    <g
       id="g1600"
       transform="translate(-1277.164,-307.38005)">
      <rect
         x="1320.842"
         y="392.34662"
         width="52.122917"
         height="52.122917"
         rx="4.6302085"
         ry="4.6302085"
         fill="#ffffff"
         stroke="#000000"
         stroke-width="0.80368"
         style="fill-rule:evenodd;stroke:#000000;stroke-width:0.79375;paint-order:markers fill stroke"
         id="rect726-2-2-2-4" />
      <g
         id="g11829"
         transform="matrix(0.34091315,0,0,0.34091315,903.47076,379.45723)">
        <path
           id="rect21380"
           style="fill:#000000;fill-rule:evenodd;stroke-width:5.64475"
           d="m 1315.5349,151.27973 v 7.97183 h -38.8896 v 7.97183 h -34.9037 v 7.97181 h 42.8754 v -7.97181 h 38.7808 v -7.97183 h 35.0125 v -7.97183 z" />
        <circle
           style="fill:#000000;fill-rule:evenodd;stroke-width:5.62595"
           id="path21575"
           cx="1294.2731"
           cy="62.206207"
           r="7.7698207" />
        <path
           style="fill:#000000;fill-rule:evenodd;stroke-width:5.51563"
           d="m 1305.6993,71.49944 19.7318,20.32557 v 10.69176 c 0,0 0.1147,5.39414 -4.6988,5.39414 -4.813,0 -4.6988,-4.91059 -4.6988,-4.91059 v -8.00214 l -4.9652,-4.99213 c -0.7498,-0.63069 -1.2583,-0.37636 -1.5774,0.57242 l -1.1293,10.69218 8.2688,19.93276 15.9202,15.42535 c 0,0 4.2119,3.67241 2e-4,7.88411 -4.2116,4.21168 -8.1126,-0.76177 -8.1126,-0.76177 l -17.1746,-16.8411 -5.7684,-14.1739 c -0.2969,-0.95802 -1.3138,-1.12463 -1.4328,0.05 l -7.3127,38.6587 c 0,0 -0.517,6.64927 -6.7416,5.40842 -6.2243,-1.24084 -4.1518,-7.57941 -4.1518,-7.57941 l 9.979,-47.60921 -1.5772,-8.18985 -8.6838,12.528 c 0,0 -2.6573,4.86124 -6.81,2.46375 -4.1524,-2.39747 -1.3523,-7.12509 -1.3523,-7.12509 l 18.5497,-25.36995 c 1.8165,-2.15246 5.5783,-4.84641 8.3163,-5.32301 2.7377,-0.47659 4.3619,0.0974 5.4213,0.851 z"
           id="path21631"
           sodipodi:nodetypes="ccczccccccczccccczcccczcczcc" />
      </g>
    </g>
  </g>
</svg>
