<?xml version="1.0" encoding="UTF-8" standalone="no"?>
<!-- Created with Inkscape (http://www.inkscape.org/) -->
<svg
   xmlns:dc="http://purl.org/dc/elements/1.1/"
   xmlns:cc="http://creativecommons.org/ns#"
   xmlns:rdf="http://www.w3.org/1999/02/22-rdf-syntax-ns#"
   xmlns:svg="http://www.w3.org/2000/svg"
   xmlns="http://www.w3.org/2000/svg"
   xmlns:sodipodi="http://sodipodi.sourceforge.net/DTD/sodipodi-0.dtd"
   xmlns:inkscape="http://www.inkscape.org/namespaces/inkscape"
   version="1.1"
   width="200"
   height="200"
   id="svg2"
   inkscape:version="0.46"
   sodipodi:docname="Italian_traffic_signs_-_icona_partenze.svg"
   sodipodi:version="0.32"
   inkscape:output_extension="org.inkscape.output.svg.inkscape">
  <metadata
     id="metadata2877">
    <rdf:RDF>
      <cc:Work
         rdf:about="">
        <dc:format>image/svg+xml</dc:format>
        <dc:type
           rdf:resource="http://purl.org/dc/dcmitype/StillImage" />
      </cc:Work>
    </rdf:RDF>
  </metadata>
  <sodipodi:namedview
     pagecolor="#ffffff"
     bordercolor="#666666"
     borderopacity="1"
     objecttolerance="10"
     gridtolerance="10"
     guidetolerance="10"
     inkscape:pageopacity="0"
     inkscape:pageshadow="2"
     inkscape:window-width="1024"
     inkscape:window-height="708"
     id="namedview2875"
     showgrid="false"
     inkscape:zoom="1.9914447"
     inkscape:cx="115.51255"
     inkscape:cy="118.43692"
     inkscape:window-x="-4"
     inkscape:window-y="-4"
     inkscape:window-maximized="1"
     inkscape:current-layer="svg2" />
  <defs
     id="defs4">
    <inkscape:perspective
       sodipodi:type="inkscape:persp3d"
       inkscape:vp_x="0 : 100 : 1"
       inkscape:vp_y="0 : 1000 : 0"
       inkscape:vp_z="200 : 100 : 1"
       inkscape:persp3d-origin="100 : 66.666667 : 1"
       id="perspective2879" />
  </defs>
  <rect
     style="fill:#ffffff;fill-opacity:1;stroke:none"
     id="rect2881"
     width="200.9709"
     height="200.61583"
     x="0"
     y="-0.61582947"
     rx="0"
     ry="0" />
  <rect
     width="194.80612"
     height="194.80614"
     ry="18.580454"
     x="3.2339785"
     y="2.8621521"
     id="rect4614"
     style="fill:none;stroke:#000000;stroke-width:3;stroke-miterlimit:4;stroke-opacity:1;stroke-dasharray:none" />
  <path
     style="fill:#000000;fill-opacity:1"
     d="M 142.98411,140.58075 L 124.06102,137.62471 L 71.043872,111.28421 C 22.649582,87.240479 17.722012,84.617949 14.532142,81.207719 C 11.110732,77.549969 9.3769223,73.592059 9.3681823,69.419559 C 9.3581823,64.697389 16.895272,61.739488 24.682302,63.409509 C 26.939612,63.893619 38.965162,69.352919 51.957882,75.791949 C 64.738912,82.126059 75.852497,87.308529 76.654717,87.308529 C 77.456937,87.308529 94.483577,81.519659 114.4917,74.444379 L 150.87009,61.580236 L 154.70928,63.460009 L 158.54847,65.339779 L 141.0071,84.240959 C 131.35935,94.636609 122.25,104.42069 120.7641,105.98336 L 118.06247,108.82458 L 133.79809,116.69989 L 149.53371,124.57519 L 165.2431,120.11107 L 180.95249,115.64694 L 186.22177,118.19605 L 191.49104,120.74517 L 178.63005,132.19019 C 169.11097,140.66125 165.26732,143.62242 163.83814,143.586 C 162.77613,143.559 153.39182,142.20658 142.98411,140.58075 L 142.98411,140.58075 z"
     id="path4630"
     sodipodi:nodetypes="cccsssssccccccccccccccsc" />
</svg>
