<svg xmlns="http://www.w3.org/2000/svg" width="200" height="200" xmlns:v="https://vecta.io/nano"><path d="M-4.931-3.438h207.715V203.91H-4.931V-3.438z" fill="#fff"/><path d="M21.814 2.862H179.46a18.54 18.54 0 0 1 18.58 18.58v157.645a18.54 18.54 0 0 1-18.58 18.58H21.814a18.54 18.54 0 0 1-18.58-18.58V21.443a18.54 18.54 0 0 1 18.58-18.58z" fill="none" stroke="#000" stroke-width="3"/><path d="M27.644 181.451c-.506-.506-.365-50.679.143-50.993.247-.153 14.111 4.08 30.808 9.406l30.84 9.684c.3 0 .482-1.556.482-4.125 0-3.807-.08-4.168-1.035-4.681-.569-.305-14.598-5.046-31.175-10.535l-30.14-9.98-.132-4.206c-.131-4.169-.123-4.206.972-4.206s7.87 2.09 38.733 11.95l72.114 23.437c7.255 2.527 13.928 4.733 14.828 4.902l1.637.307v-4.389-4.389l-3.566-1.369c-1.961-.753-14.127-4.831-27.034-9.063l-29.12-9.76-5.653-2.066.131-4.429c.11-3.724.255-4.453.907-4.577.427-.082 14.818 4.341 31.98 9.829l31.665 10.036c.301.038.54-10.849.69-31.461l.23-31.52 9.028-.125 9.029-.125.289 1.447c.517 2.585.336 109.44-.187 110.418-.468.874-1.773.89-73.317.89-40.062 0-72.979-.138-73.147-.307zM160.183 64.59c-.178-.178-.327-.858-.333-1.512-.015-1.878-2.016-7.065-3.63-9.411-1.701-2.472-5.278-4.724-8.201-5.162-1.683-.252-2.476-.034-5.754 1.585-8.453 4.174-14.488 3.622-21.852-1.998l-3.325-2.538h-4.55c-4.994 0-5.16.069-9.046 3.723-2.411 2.268-6.493 3.64-10.828 3.64-3.844 0-6.317-1.035-11.182-4.678-2.672-2.001-3.452-2.347-5.771-2.557l-2.682-.243-2.545 2.305c-3.173 2.873-6.834 4.344-10.846 4.358-2.418.008-3.462-.268-6.271-1.656-6.043-2.987-8.543-7.168-8.543-14.289 0-3.309.178-4.182 1.282-6.296.76-1.455 2.241-3.236 3.638-4.375 5.637-4.595 12.608-5.092 18.547-1.323 1.857 1.178 2.455 1.31 5.797 1.278 4.135-.04 5.601-.586 7.778-2.896.759-.806 2.623-2.116 4.141-2.912 2.5-1.31 3.154-1.448 6.916-1.452l4.155-.005 5.264 2.699 5.264 2.699 3.588-.208 3.588-.208 4.018-3.922c5.606-5.472 5.501-5.432 14.364-5.432 5.184 0 7.843.186 8.881.623 3.048 1.282 8.654 8.273 10.242 12.773.37 1.049.672 3.525.672 5.509v3.604l1.726 1.285c3.837 2.857 8.658 8.192 10.31 11.408 2.419 4.709 3.764 9.184 3.805 12.654l.035 2.991-4.164.131c-2.29.072-4.309-.014-4.486-.192h0z"/></svg>