<?xml version="1.0" encoding="UTF-8" standalone="no"?>
<!-- Created with Inkscape (http://www.inkscape.org/) -->

<svg
   xmlns:dc="http://purl.org/dc/elements/1.1/"
   xmlns:cc="http://creativecommons.org/ns#"
   xmlns:rdf="http://www.w3.org/1999/02/22-rdf-syntax-ns#"
   xmlns:svg="http://www.w3.org/2000/svg"
   xmlns="http://www.w3.org/2000/svg"
   xmlns:sodipodi="http://sodipodi.sourceforge.net/DTD/sodipodi-0.dtd"
   xmlns:inkscape="http://www.inkscape.org/namespaces/inkscape"
   width="838.15625"
   height="958.15625"
   id="svg4711"
   version="1.1"
   inkscape:version="0.48.5 r10040"
   sodipodi:docname="CANC Figg.svg">
  <defs
     id="defs4713" />
  <sodipodi:namedview
     id="base"
     pagecolor="#ffffff"
     bordercolor="#666666"
     borderopacity="1.0"
     inkscape:pageopacity="0.0"
     inkscape:pageshadow="2"
     inkscape:zoom="0.35"
     inkscape:cx="600.37087"
     inkscape:cy="546.44192"
     inkscape:document-units="px"
     inkscape:current-layer="layer1"
     showgrid="false"
     fit-margin-top="0"
     fit-margin-left="0"
     fit-margin-right="0"
     fit-margin-bottom="0"
     inkscape:window-width="1366"
     inkscape:window-height="705"
     inkscape:window-x="-8"
     inkscape:window-y="-8"
     inkscape:window-maximized="1" />
  <metadata
     id="metadata4716">
    <rdf:RDF>
      <cc:Work
         rdf:about="">
        <dc:format>image/svg+xml</dc:format>
        <dc:type
           rdf:resource="http://purl.org/dc/dcmitype/StillImage" />
        <dc:title />
      </cc:Work>
    </rdf:RDF>
  </metadata>
  <g
     inkscape:label="Livello 1"
     inkscape:groupmode="layer"
     id="layer1"
     transform="translate(1.4375,39.28125)">
    <rect
       inkscape:export-ydpi="322.18127"
       inkscape:export-xdpi="322.18127"
       inkscape:export-filename="C:\Users\utente\Desktop\Portale.png"
       y="-38.769009"
       x="-0.92276436"
       height="957.14288"
       width="837.14288"
       id="rect5446"
       style="fill:#ffffff;stroke:none;stroke-width:1;stroke-miterlimit:4;stroke-opacity:1;stroke-dasharray:none;fill-opacity:1" />
    <path
       style="fill:#b4b4b4;fill-opacity:1;stroke:#000000;stroke-width:2;stroke-linecap:butt;stroke-linejoin:miter;stroke-miterlimit:4;stroke-opacity:1;stroke-dasharray:none"
       d="m 778.7201,195.15955 -236.4286,0 12.8571,56.42857 187.8572,0 0,661.7857 35.7143,-4.9926 z"
       id="path4081"
       inkscape:connector-curvature="0" />
    <path
       style="fill:#646464;fill-opacity:1;stroke:none"
       d="m 867.2017,893.60772 -192.2762,0 0,10.0069 -700.033902,0 24.33649999,41.7634 842.70620201,-2.7185 z"
       id="path4083"
       inkscape:connector-curvature="0"
       sodipodi:nodetypes="ccccccc" />
    <rect
       style="fill:#ffffff;fill-opacity:1;stroke:#000000;stroke-width:1;stroke-miterlimit:4;stroke-opacity:1;stroke-dasharray:none"
       id="rect3766"
       width="480"
       height="350"
       x="81.93441"
       y="44.088123" />
    <g
       style="font-size:35.66235733px;font-style:normal;font-weight:normal;line-height:125%;letter-spacing:0px;word-spacing:0px;fill:#000000;fill-opacity:1;stroke:none;font-family:Sans"
       id="text3772">
      <path
         d="m 420.93659,225.0409 5.70611,0 0,25.24923 -5.24248,0 c -0.0711,-0.21404 -0.19011,-0.51115 -0.35698,-0.89134 -1.52149,0.90331 -2.86485,1.35497 -4.03008,1.35496 -1.90168,1e-5 -3.6372,-0.58261 -5.20656,-1.74785 -2.28187,-1.66441 -3.4228,-4.22017 -3.4228,-7.66728 0,-2.78175 0.80827,-5.06416 2.4248,-6.84722 1.61653,-1.78302 3.6731,-2.67455 6.16974,-2.67457 0.87936,2e-5 1.66368,0.15457 2.35296,0.46363 0.95119,0.45204 1.48628,0.68966 1.60529,0.71286 z m -6.99034,16.86801 c 0,1.11736 0.30328,2.03282 0.90985,2.74639 0.60655,0.71359 1.49209,1.07038 2.65661,1.07038 0.88008,0 1.67674,-0.29747 2.38997,-0.89243 0.64137,-0.52312 0.96207,-1.0223 0.96208,-1.49754 l 0,-3.92234 c -10e-6,-0.66605 -0.33867,-1.27243 -1.01596,-1.81914 -0.67731,-0.54669 -1.45601,-0.82004 -2.33609,-0.82006 -0.97443,2e-5 -1.79467,0.32071 -2.46072,0.96208 -0.73716,0.69002 -1.10574,1.65319 -1.10574,2.88952 z"
         style="font-variant:normal;font-stretch:normal;text-align:end;text-anchor:end;fill:#000000;font-family:CodiceNero;-inkscape-font-specification:CodiceNero"
         id="path5561" />
      <path
         d="m 433.0671,224.4347 c 0.95047,3e-5 1.74078,0.3151 2.37092,0.94521 0.63014,0.63017 0.94521,1.45639 0.94522,2.47867 -10e-6,1.42646 -0.51116,2.51987 -1.53346,3.28023 -0.87937,0.69002 -1.98475,1.03502 -3.31614,1.035 -0.59495,2e-5 -0.89243,-0.34498 -0.89242,-1.035 -10e-6,-0.52238 0.24995,-0.80752 0.74985,-0.85543 0.71322,-0.0711 1.06983,-0.27315 1.06983,-0.6062 0,-0.14291 -0.16652,-0.22599 -0.49954,-0.24923 -0.45202,-0.0239 -0.83258,-0.16685 -1.14166,-0.4288 -0.54634,-0.45127 -0.81951,-1.16449 -0.81951,-2.13965 0,-0.57026 0.24959,-1.09339 0.74877,-1.56937 0.59423,-0.57026 1.36694,-0.8554 2.31814,-0.85543 z"
         style="font-variant:normal;font-stretch:normal;text-align:end;text-anchor:end;fill:#000000;font-family:CodiceNero;-inkscape-font-specification:CodiceNero"
         id="path5563" />
      <path
         d="m 446.5787,225.29013 0,25 -5.81276,0 0,-25 z"
         style="font-variant:normal;font-stretch:normal;text-align:end;text-anchor:end;fill:#000000;font-family:CodiceNero;-inkscape-font-specification:CodiceNero"
         id="path5565" />
      <path
         d="m 460.56155,224.71984 0,6.74002 4.6722,0 0,5.02917 -4.56446,0 0,7.45287 c -10e-6,0.80828 0.57028,1.21241 1.71086,1.2124 0.35696,1e-5 0.83256,-0.0415 1.4268,-0.12461 0.59421,-0.0831 0.95082,-0.12461 1.06982,-0.12461 l 0.99909,4.74293 c -1.42645,0.71322 -3.24541,1.06983 -5.45688,1.06983 -1.49755,0 -2.80499,-0.38055 -3.92234,-1.14166 -1.23634,-0.85542 -1.85451,-1.93686 -1.85451,-3.24431 l 0,-9.84284 -2.96025,0 0,-5.02917 2.96025,0 0,-5.24248 z"
         style="font-variant:normal;font-stretch:normal;text-align:end;text-anchor:end;fill:#000000;font-family:CodiceNero;-inkscape-font-specification:CodiceNero"
         id="path5567" />
      <path
         d="m 482.29983,233.02923 c 0.40412,0.14295 0.87972,0.47598 1.4268,0.99909 0.90329,0.87938 1.35495,1.87774 1.35497,2.99508 l 0,8.30939 c -2e-5,0.42808 0.27351,0.70161 0.8206,0.8206 0.0479,0.0232 0.42842,0.0588 1.14165,0.10666 -0.21405,0.61817 -0.83222,2.08016 -1.85451,4.38596 -1.85453,0 -3.41192,-0.52276 -4.67219,-1.56828 -1.66443,1.09341 -3.32885,1.64011 -4.99326,1.64011 -1.73552,0 -3.26299,-0.55867 -4.5824,-1.67603 -1.31942,-1.11734 -1.97913,-2.50823 -1.97913,-4.17265 0,-2.75781 1.69997,-4.65985 5.09991,-5.70611 1.26028,-0.19008 2.97221,-0.48719 5.13582,-0.89134 -10e-6,-1.04623 -0.6657,-1.56935 -1.99708,-1.56937 -1.3314,2e-5 -2.60365,0.34465 -3.81677,1.03391 -0.0711,0.0479 -0.57029,0.42846 -1.49754,1.14166 l -2.70994,-4.10082 c 0.0472,-0.11898 0.40377,-0.38054 1.06983,-0.78469 0.80826,-0.5231 1.71157,-0.9987 2.70994,-1.4268 1.18917,-0.5231 2.59202,-0.78466 4.20856,-0.78468 1.8545,2e-5 3.56608,0.41612 5.13474,1.24831 z m -7.63136,11.5907 c 0.0239,0.3802 0.27352,0.70089 0.74877,0.96209 0.40412,0.23798 0.82023,0.35697 1.24831,0.35697 0.66605,0 1.23669,-0.14855 1.71194,-0.44567 0.47523,-0.29711 0.77234,-0.63576 0.89134,-1.01596 l 0,-1.81968 c -0.99837,0.19083 -1.99673,0.38128 -2.99508,0.57137 -1.09414,0.23726 -1.62923,0.70089 -1.60528,1.39088 z"
         style="font-variant:normal;font-stretch:normal;text-align:end;text-anchor:end;fill:#000000;font-family:CodiceNero;-inkscape-font-specification:CodiceNero"
         id="path5569" />
      <path
         d="m 495.91917,225.0409 0,18.36664 c 0,0.78433 0.0595,1.2835 0.17849,1.49754 0.0239,0.0711 0.17848,0.16615 0.46363,0.28514 0.14292,0.0711 0.33302,0.10666 0.57028,0.10665 0.49917,10e-6 1.15326,-0.15453 1.96226,-0.46362 0.40412,3.56682 0.58224,5.35022 0.53437,5.35022 -0.99837,0.14221 -2.46036,0.28478 -4.38597,0.42771 -1.37928,0 -2.68708,-0.55867 -3.92342,-1.67602 -0.68928,-0.61817 -1.10538,-1.83093 -1.24831,-3.63829 l 0,-20.25597 z"
         style="font-variant:normal;font-stretch:normal;text-align:end;text-anchor:end;fill:#000000;font-family:CodiceNero;-inkscape-font-specification:CodiceNero"
         id="path5571" />
      <path
         d="m 502.78653,232.17381 5.74202,0 0,18.15223 -5.74202,0 z m -0.10666,-5.63537 c 0.59422,-1.18843 1.569,-1.78266 2.92434,-1.78268 0.52312,2e-5 1.01033,0.10704 1.46162,0.32105 1.2124,0.59426 1.81859,1.58101 1.8186,2.96026 -1e-5,0.4992 -0.10702,0.97444 -0.32105,1.42571 -0.59424,1.1892 -1.58063,1.78379 -2.95917,1.78377 -0.52313,2e-5 -1.0107,-0.107 -1.46271,-0.32106 -1.18846,-0.5942 -1.78269,-1.56898 -1.78269,-2.92434 0,-0.5231 0.10702,-1.01067 0.32106,-1.46271 z"
         style="font-variant:normal;font-stretch:normal;text-align:end;text-anchor:end;fill:#000000;font-family:CodiceNero;-inkscape-font-specification:CodiceNero"
         id="path5573" />
      <path
         d="m 525.69367,233.02923 c 0.40412,0.14295 0.87972,0.47598 1.4268,0.99909 0.90329,0.87938 1.35495,1.87774 1.35497,2.99508 l 0,8.30939 c -2e-5,0.42808 0.27351,0.70161 0.8206,0.8206 0.0479,0.0232 0.42842,0.0588 1.14166,0.10666 -0.21406,0.61817 -0.83223,2.08016 -1.85452,4.38596 -1.85453,0 -3.41192,-0.52276 -4.67219,-1.56828 -1.66443,1.09341 -3.32885,1.64011 -4.99325,1.64011 -1.73553,0 -3.263,-0.55867 -4.58241,-1.67603 -1.31942,-1.11734 -1.97913,-2.50823 -1.97913,-4.17265 0,-2.75781 1.69997,-4.65985 5.09991,-5.70611 1.26028,-0.19008 2.97222,-0.48719 5.13582,-0.89134 -1e-5,-1.04623 -0.6657,-1.56935 -1.99708,-1.56937 -1.3314,2e-5 -2.60365,0.34465 -3.81677,1.03391 -0.0711,0.0479 -0.57029,0.42846 -1.49754,1.14166 l -2.70994,-4.10082 c 0.0472,-0.11898 0.40377,-0.38054 1.06983,-0.78469 0.80826,-0.5231 1.71157,-0.9987 2.70994,-1.4268 1.18917,-0.5231 2.59203,-0.78466 4.20856,-0.78468 1.85451,2e-5 3.56608,0.41612 5.13474,1.24831 z m -7.63136,11.5907 c 0.0239,0.3802 0.27352,0.70089 0.74877,0.96209 0.40412,0.23798 0.82023,0.35697 1.24831,0.35697 0.66605,0 1.2367,-0.14855 1.71194,-0.44567 0.47523,-0.29711 0.77234,-0.63576 0.89134,-1.01596 l 0,-1.81968 c -0.99837,0.19083 -1.99673,0.38128 -2.99508,0.57137 -1.09414,0.23726 -1.62923,0.70089 -1.60528,1.39088 z"
         style="font-variant:normal;font-stretch:normal;text-align:end;text-anchor:end;fill:#000000;font-family:CodiceNero;-inkscape-font-specification:CodiceNero"
         id="path5575" />
    </g>
    <g
       style="font-size:17.83117867px;font-style:normal;font-weight:normal;line-height:125%;letter-spacing:0px;word-spacing:0px;fill:#000000;fill-opacity:1;stroke:none;font-family:Sans"
       id="text3776">
      <path
         d="m 486.71635,208.91062 c 1.05785,1e-5 2.00288,0.35063 2.83509,1.05187 0.70124,0.60621 1.12913,1.24814 1.28369,1.9258 l -2.49609,0.9093 c -0.0475,-0.39216 -0.19028,-0.725 -0.42825,-0.99854 -0.29712,-0.33266 -0.70126,-0.49899 -1.2124,-0.499 -0.51116,1e-5 -0.93016,0.1872 -1.25702,0.56158 -0.32687,0.37439 -0.4903,0.85289 -0.49029,1.4355 l 0,0.67749 c -10e-6,0.48757 0.13676,0.92145 0.4103,1.30164 0.32069,0.46363 0.77833,0.69544 1.37292,0.69544 0.36858,0 0.72818,-0.14855 1.07881,-0.44567 0.35062,-0.29711 0.53191,-0.67748 0.54389,-1.14111 l 2.532,0.89134 c -1e-5,0.21404 -0.14276,0.5409 -0.42826,0.98058 -0.35662,0.57065 -0.80229,1.03428 -1.33701,1.39089 -0.71323,0.4756 -1.52167,0.7134 -2.42534,0.71339 -1.30745,1e-5 -2.40702,-0.49337 -3.29873,-1.48012 -0.76074,-0.83185 -1.14111,-1.72337 -1.14111,-2.67457 l 0,-0.83801 c 0,-1.0818 0.36858,-2.05657 1.10574,-2.92434 0.85579,-1.0223 1.97314,-1.53345 3.35206,-1.53346 z"
         style="font-variant:normal;font-stretch:normal;text-align:end;text-anchor:end;fill:#000000;font-family:CodiceNero;-inkscape-font-specification:CodiceNero"
         id="path5550" />
      <path
         d="m 500.03205,210.24818 c 0.82023,0.89135 1.23034,1.93741 1.23035,3.13819 -1e-5,1.55704 -0.50517,2.81715 -1.51549,3.78031 -0.87974,0.83185 -1.88427,1.24777 -3.01359,1.24777 -1.67603,0 -2.97168,-0.64773 -3.88696,-1.94321 -0.32106,-0.46362 -0.5351,-0.85597 -0.64212,-1.17703 -0.15454,-0.42807 -0.23181,-1.0105 -0.23181,-1.74731 0,-1.52184 0.51115,-2.7404 1.53346,-3.65569 0.85614,-0.77271 1.90819,-1.15906 3.15615,-1.15907 1.3078,1e-5 2.43114,0.50535 3.37001,1.51604 z m -5.29581,2.74585 0,0.98059 c 0,0.48757 0.19027,0.90966 0.57083,1.26627 0.38055,0.35661 0.81443,0.53491 1.30164,0.53491 0.49917,0 0.93305,-0.1783 1.30164,-0.53491 0.36858,-0.35661 0.55287,-0.7787 0.55287,-1.26627 l 0,-0.98059 c 0,-0.51114 -0.20207,-0.93904 -0.6062,-1.28368 -0.36858,-0.30908 -0.78469,-0.46362 -1.24831,-0.46363 -0.48721,1e-5 -0.91511,0.15455 -1.28368,0.46363 -0.39253,0.34464 -0.58879,0.77254 -0.58879,1.28368 z"
         style="font-variant:normal;font-stretch:normal;text-align:end;text-anchor:end;fill:#000000;font-family:CodiceNero;-inkscape-font-specification:CodiceNero"
         id="path5552" />
      <path
         d="m 509.07171,211.85292 c -0.26157,-0.0715 -0.52313,-0.10719 -0.78469,-0.1072 -0.6062,1e-5 -1.10538,0.16053 -1.49754,0.48158 -0.44005,0.34465 -0.66007,0.83204 -0.66007,1.46217 l 0,4.4578 -2.88842,0 0,-9.05816 2.92434,0 0,0.57028 c 0.26155,-0.15453 0.51713,-0.30907 0.76672,-0.46363 0.45165,-0.21402 0.92707,-0.32104 1.42626,-0.32105 0.23761,1e-5 0.47541,0.024 0.7134,0.0718 z"
         style="font-variant:normal;font-stretch:normal;text-align:end;text-anchor:end;fill:#000000;font-family:CodiceNero;-inkscape-font-specification:CodiceNero"
         id="path5554" />
      <path
         d="m 514.57266,208.94654 c 1.56901,1e-5 2.9539,0.48141 4.1547,1.44421 l -1.81914,1.90784 c -0.46364,-0.59422 -1.13514,-0.89133 -2.0145,-0.89134 -0.63015,1e-5 -0.94522,0.10684 -0.94521,0.32051 -1e-5,0.0951 0.0713,0.17831 0.21385,0.24977 0.0475,0.0239 0.58244,0.14276 1.60475,0.35643 0.87972,0.19046 1.54541,0.464 1.99708,0.8206 0.65371,0.49919 0.98057,1.21839 0.98058,2.15761 -10e-6,0.61818 -0.23182,1.2066 -0.69544,1.76527 -0.68928,0.85579 -1.74714,1.28369 -3.17357,1.28368 -1.75946,1e-5 -3.27514,-0.57645 -4.54703,-1.72935 -0.0595,-0.0359 0.58243,-0.64229 1.92579,-1.81914 1.10538,0.73716 1.9969,1.10574 2.67457,1.10574 0.17848,0 0.345,-0.0357 0.49954,-0.1072 0.20207,-0.095 0.27934,-0.21984 0.23182,-0.37438 -0.0834,-0.24959 -0.53528,-0.45166 -1.35551,-0.6062 -1.03428,-0.17849 -1.75349,-0.39252 -2.15762,-0.64212 -0.74877,-0.45165 -1.12315,-1.17666 -1.12315,-2.17502 0,-0.90367 0.32396,-1.64074 0.97188,-2.21121 0.64791,-0.57046 1.50678,-0.85569 2.57661,-0.8557 z"
         style="font-variant:normal;font-stretch:normal;text-align:end;text-anchor:end;fill:#000000;font-family:CodiceNero;-inkscape-font-specification:CodiceNero"
         id="path5556" />
      <path
         d="m 528.24153,210.24818 c 0.82023,0.89135 1.23035,1.93741 1.23036,3.13819 -10e-6,1.55704 -0.50518,2.81715 -1.5155,3.78031 -0.87974,0.83185 -1.88427,1.24777 -3.01358,1.24777 -1.67603,0 -2.97169,-0.64773 -3.88697,-1.94321 -0.32106,-0.46362 -0.53509,-0.85597 -0.64211,-1.17703 -0.15455,-0.42807 -0.23182,-1.0105 -0.23182,-1.74731 0,-1.52184 0.51115,-2.7404 1.53346,-3.65569 0.85615,-0.77271 1.9082,-1.15906 3.15615,-1.15907 1.3078,1e-5 2.43114,0.50535 3.37001,1.51604 z m -5.29581,2.74585 0,0.98059 c 0,0.48757 0.19028,0.90966 0.57083,1.26627 0.38055,0.35661 0.81443,0.53491 1.30164,0.53491 0.49918,0 0.93306,-0.1783 1.30165,-0.53491 0.36857,-0.35661 0.55286,-0.7787 0.55287,-1.26627 l 0,-0.98059 c -1e-5,-0.51114 -0.20208,-0.93904 -0.6062,-1.28368 -0.36859,-0.30908 -0.78469,-0.46362 -1.24832,-0.46363 -0.48721,1e-5 -0.9151,0.15455 -1.28368,0.46363 -0.39253,0.34464 -0.58879,0.77254 -0.58879,1.28368 z"
         style="font-variant:normal;font-stretch:normal;text-align:end;text-anchor:end;fill:#000000;font-family:CodiceNero;-inkscape-font-specification:CodiceNero"
         id="path5558" />
    </g>
    <g
       style="font-size:35.66235733px;font-style:normal;font-weight:normal;line-height:125%;letter-spacing:0px;word-spacing:0px;fill:#000000;fill-opacity:1;stroke:none;font-family:Sans"
       id="text3782">
      <path
         d="m 379.6824,160.07681 -6.27639,0 7.16773,25.21332 7.70319,0 7.16773,-25.21332 -6.27639,0 -4.74294,16.58287 z"
         style="font-variant:normal;font-stretch:normal;text-align:end;text-anchor:end;fill:#000000;font-family:CodiceNero;-inkscape-font-specification:CodiceNero"
         id="path5533" />
      <path
         d="m 401.75262,179.83325 c 0.78504,0 1.4627,0.28533 2.03299,0.85597 0.57028,0.57065 0.85542,1.2485 0.85543,2.03354 -10e-6,0.76038 -0.29113,1.41991 -0.87338,1.97858 -0.58227,0.55868 -1.25394,0.83801 -2.01504,0.83801 -0.83222,0 -1.52167,-0.27933 -2.06837,-0.83801 -0.54671,-0.55867 -0.82006,-1.2182 -0.82006,-1.97858 0,-0.83221 0.28532,-1.52184 0.85597,-2.06891 0.57065,-0.54706 1.24813,-0.8206 2.03246,-0.8206 z"
         style="font-variant:normal;font-stretch:normal;text-align:end;text-anchor:end;fill:#000000;font-family:CodiceNero;-inkscape-font-specification:CodiceNero"
         id="path5535" />
      <path
         d="m 414.36961,160.07681 -6.27639,0 7.16773,25.21332 7.70319,0 7.16774,-25.21332 -6.27639,0 -4.74294,16.58287 z"
         style="font-variant:normal;font-stretch:normal;text-align:end;text-anchor:end;fill:#000000;font-family:CodiceNero;-inkscape-font-specification:CodiceNero"
         id="path5537" />
      <path
         d="m 441.71822,166.78092 c 2.28258,2e-5 4.26769,0.80828 5.95534,2.4248 1.90238,1.80736 2.85358,4.185 2.8536,7.1329 -2e-5,0.3802 -0.0595,0.9864 -0.17849,1.8186 l -11.91176,0 c 0.54706,1.68837 1.75982,2.5086 3.63828,2.46071 1.47359,-0.0471 2.92361,-0.6178 4.35006,-1.71194 l 3.81676,3.74494 c -2.94866,2.04461 -5.69487,3.06691 -8.23864,3.06691 -2.40087,0 -4.49299,-0.74877 -6.2764,-2.24631 -1.94956,-1.66441 -2.95989,-3.86356 -3.03099,-6.59745 0,-0.35696 0,-0.90403 0,-1.6412 0.0232,-1.80661 0.70052,-3.5541 2.03191,-5.24248 1.7123,-2.13964 4.04241,-3.20946 6.99033,-3.20948 z m -3.20948,7.06108 6.24048,0 c -0.14222,-0.66532 -0.49865,-1.2298 -1.06928,-1.69344 -0.57066,-0.46362 -1.24851,-0.7074 -2.03355,-0.73136 -0.80827,-0.0239 -1.50952,0.23763 -2.10374,0.78468 -0.49918,0.45204 -0.84382,0.99874 -1.03391,1.64012 z"
         style="font-variant:normal;font-stretch:normal;text-align:end;text-anchor:end;fill:#000000;font-family:CodiceNero;-inkscape-font-specification:CodiceNero"
         id="path5539" />
      <path
         d="m 465.4808,185.29013 0,-10.05725 c -2e-5,-0.87936 -0.2438,-1.61634 -0.73136,-2.21094 -0.48758,-0.59458 -1.18303,-0.89187 -2.08633,-0.89189 -0.99837,2e-5 -1.74714,0.34502 -2.24631,1.03501 -0.35698,0.52313 -0.53546,1.12933 -0.53545,1.81859 l 0,10.30648 -5.70611,0 0,-18.0815 5.02917,0 0.28514,1.10574 c 1.25955,-0.99834 2.91163,-1.49752 4.95625,-1.49754 2.33046,2e-5 4.12547,0.90334 5.38505,2.70994 0.92723,1.33141 1.39086,2.67477 1.39088,4.03008 l 0,11.73328 z"
         style="font-variant:normal;font-stretch:normal;text-align:end;text-anchor:end;fill:#000000;font-family:CodiceNero;-inkscape-font-specification:CodiceNero"
         id="path5541" />
      <path
         d="m 483.5797,166.78092 c 2.28258,2e-5 4.26769,0.80828 5.95534,2.4248 1.90238,1.80736 2.85358,4.185 2.8536,7.1329 -2e-5,0.3802 -0.0595,0.9864 -0.17849,1.8186 l -11.91176,0 c 0.54706,1.68837 1.75982,2.5086 3.63829,2.46071 1.47358,-0.0471 2.9236,-0.6178 4.35005,-1.71194 l 3.81676,3.74494 c -2.94866,2.04461 -5.69487,3.06691 -8.23864,3.06691 -2.40087,0 -4.49299,-0.74877 -6.2764,-2.24631 -1.94956,-1.66441 -2.95989,-3.86356 -3.03099,-6.59745 0,-0.35696 0,-0.90403 0,-1.6412 0.0232,-1.80661 0.70052,-3.5541 2.03191,-5.24248 1.7123,-2.13964 4.04241,-3.20946 6.99033,-3.20948 z m -3.20948,7.06108 6.24048,0 c -0.14222,-0.66532 -0.49865,-1.2298 -1.06928,-1.69344 -0.57066,-0.46362 -1.24851,-0.7074 -2.03355,-0.73136 -0.80827,-0.0239 -1.50952,0.23763 -2.10374,0.78468 -0.49918,0.45204 -0.84382,0.99874 -1.03391,1.64012 z"
         style="font-variant:normal;font-stretch:normal;text-align:end;text-anchor:end;fill:#000000;font-family:CodiceNero;-inkscape-font-specification:CodiceNero"
         id="path5543" />
      <path
         d="m 504.02504,159.71984 0,6.74002 4.6722,0 0,5.02917 -4.56445,0 0,7.45287 c -10e-6,0.80828 0.57027,1.21241 1.71085,1.2124 0.35696,1e-5 0.83256,-0.0415 1.4268,-0.12461 0.59421,-0.0831 0.95082,-0.12461 1.06983,-0.12461 l 0.99908,4.74293 c -1.42645,0.71322 -3.24541,1.06983 -5.45688,1.06983 -1.49755,0 -2.80499,-0.38055 -3.92233,-1.14166 -1.23635,-0.85542 -1.85452,-1.93686 -1.85452,-3.24431 l 0,-9.84284 -2.96025,0 0,-5.02917 2.96025,0 0,-5.24248 z"
         style="font-variant:normal;font-stretch:normal;text-align:end;text-anchor:end;fill:#000000;font-family:CodiceNero;-inkscape-font-specification:CodiceNero"
         id="path5545" />
      <path
         d="m 527.90298,169.49195 c 1.64046,1.78269 2.46069,3.87482 2.46071,6.27639 -2e-5,3.11408 -1.01035,5.63428 -3.03099,7.56062 -1.75948,1.66369 -3.76854,2.49554 -6.02717,2.49554 -3.35206,0 -5.94337,-1.29548 -7.77393,-3.88643 -0.64212,-0.92725 -1.07019,-1.71193 -1.28423,-2.35405 -0.30908,-0.85615 -0.46363,-2.02102 -0.46363,-3.49462 0,-3.04368 1.02231,-5.48081 3.06691,-7.3114 1.7123,-1.54541 3.8164,-2.31812 6.31231,-2.31814 2.6156,2e-5 4.86228,1.01072 6.74002,3.03209 z m -10.59161,5.4917 0,1.96117 c -10e-6,0.97515 0.38054,1.81933 1.14165,2.53254 0.7611,0.71323 1.62886,1.06984 2.60328,1.06983 0.99835,1e-5 1.86611,-0.3566 2.60329,-1.06983 0.73714,-0.71321 1.10573,-1.55739 1.10574,-2.53254 l 0,-1.96117 c -10e-6,-1.02229 -0.40415,-1.87808 -1.2124,-2.56736 -0.73717,-0.61816 -1.56938,-0.92725 -2.49663,-0.92726 -0.97442,10e-6 -1.83021,0.3091 -2.56736,0.92726 -0.78506,0.68928 -1.17758,1.54507 -1.17757,2.56736 z"
         style="font-variant:normal;font-stretch:normal;text-align:end;text-anchor:end;fill:#000000;font-family:CodiceNero;-inkscape-font-specification:CodiceNero"
         id="path5547" />
    </g>
    <g
       style="font-size:17.83117867px;font-style:normal;font-weight:normal;line-height:125%;letter-spacing:0px;word-spacing:0px;fill:#000000;fill-opacity:1;stroke:none;font-family:Sans"
       id="text3786">
      <path
         d="m 508.13085,153.14727 -3.17357,-9.05816 3.12024,0 1.67603,5.15323 1.60474,-5.15323 2.85305,0 -2.79918,9.05816 z"
         style="font-variant:normal;font-stretch:normal;text-align:end;text-anchor:end;fill:#000000;font-family:CodiceNero;-inkscape-font-specification:CodiceNero"
         id="path5526" />
      <path
         d="m 515.6833,144.08911 2.87102,0 0,9.07612 -2.87102,0 z m -0.0533,-2.81769 c 0.29711,-0.59421 0.7845,-0.89132 1.46217,-0.89134 0.26156,2e-5 0.50516,0.0535 0.73081,0.16053 0.60619,0.29713 0.90929,0.7905 0.9093,1.48013 -10e-6,0.2496 -0.0535,0.48722 -0.16053,0.71285 -0.29712,0.59461 -0.79031,0.8919 -1.47958,0.89189 -0.26157,1e-5 -0.50535,-0.0535 -0.73136,-0.16053 -0.59423,-0.2971 -0.89134,-0.78449 -0.89134,-1.46217 0,-0.26155 0.0535,-0.50533 0.16053,-0.73136 z"
         style="font-variant:normal;font-stretch:normal;text-align:end;text-anchor:end;fill:#000000;font-family:CodiceNero;-inkscape-font-specification:CodiceNero"
         id="path5528" />
      <path
         d="m 527.13688,144.51682 c 0.20206,0.0715 0.43985,0.23799 0.7134,0.49954 0.45164,0.4397 0.67747,0.93888 0.67748,1.49754 l 0,4.1547 c -10e-6,0.21404 0.13676,0.35081 0.4103,0.4103 0.0239,0.0116 0.21421,0.0294 0.57083,0.0533 -0.10703,0.30909 -0.41611,1.04008 -0.92726,2.19298 -0.92726,0 -1.70596,-0.26138 -2.33609,-0.78414 -0.83222,0.5467 -1.66443,0.82006 -2.49663,0.82005 -0.86777,1e-5 -1.6315,-0.27933 -2.29121,-0.83801 -0.6597,-0.55867 -0.98956,-1.25411 -0.98956,-2.08632 0,-1.37891 0.84998,-2.32993 2.54996,-2.85306 0.63013,-0.095 1.4861,-0.2436 2.56791,-0.44567 -10e-6,-0.52312 -0.33285,-0.78468 -0.99854,-0.78468 -0.6657,0 -1.30183,0.17232 -1.90839,0.51695 -0.0355,0.024 -0.28514,0.21423 -0.74877,0.57083 l -1.35497,-2.05041 c 0.0236,-0.0595 0.20189,-0.19027 0.53492,-0.39234 0.40413,-0.26156 0.85578,-0.49936 1.35497,-0.7134 0.59458,-0.26155 1.29601,-0.39234 2.10428,-0.39235 0.92725,1e-5 1.78304,0.20807 2.56737,0.62416 z m -3.81568,5.79535 c 0.012,0.1901 0.13676,0.35045 0.37438,0.48104 0.20206,0.119 0.41011,0.17849 0.62416,0.17849 0.33302,0 0.61834,-0.0743 0.85597,-0.22284 0.23761,-0.14855 0.38617,-0.31788 0.44567,-0.50797 l 0,-0.90985 c -0.49919,0.0954 -0.99837,0.19065 -1.49754,0.28569 -0.54707,0.11863 -0.81462,0.35045 -0.80264,0.69544 z"
         style="font-variant:normal;font-stretch:normal;text-align:end;text-anchor:end;fill:#000000;font-family:CodiceNero;-inkscape-font-specification:CodiceNero"
         id="path5530" />
    </g>
    <g
       style="font-size:35.66235733px;font-style:normal;font-weight:normal;line-height:125%;letter-spacing:0px;word-spacing:0px;fill:#000000;fill-opacity:1;stroke:none;font-family:Sans"
       id="text3790">
      <path
         d="m 383.58297,95.076821 -6.27639,0 7.16773,25.213309 7.70319,0 7.16773,-25.213309 -6.27639,0 -4.74293,16.582869 z"
         style="font-variant:normal;font-stretch:normal;text-align:end;text-anchor:end;fill:#000000;font-family:CodiceNero;-inkscape-font-specification:CodiceNero"
         id="path5509" />
      <path
         d="m 415.78117,103.02924 c 0.40412,0.14295 0.87972,0.47598 1.4268,0.99909 0.9033,0.87938 1.35495,1.87774 1.35497,2.99508 l 0,8.30939 c -2e-5,0.42808 0.27352,0.70161 0.8206,0.8206 0.0479,0.0232 0.42842,0.0588 1.14166,0.10665 -0.21406,0.61818 -0.83223,2.08017 -1.85451,4.38597 -1.85453,0 -3.41193,-0.52276 -4.6722,-1.56828 -1.66443,1.0934 -3.32884,1.64011 -4.99325,1.64011 -1.73553,0 -3.263,-0.55868 -4.58241,-1.67603 -1.31942,-1.11735 -1.97913,-2.50823 -1.97912,-4.17265 -1e-5,-2.75782 1.69996,-4.65985 5.0999,-5.70611 1.26028,-0.19008 2.97222,-0.48719 5.13583,-0.89134 -10e-6,-1.04623 -0.66571,-1.56936 -1.99709,-1.56937 -1.33139,1e-5 -2.60365,0.34465 -3.81676,1.03391 -0.0711,0.0479 -0.57029,0.42845 -1.49755,1.14166 l -2.70993,-4.10082 c 0.0471,-0.11898 0.40376,-0.38054 1.06982,-0.78469 0.80826,-0.5231 1.71158,-0.9987 2.70994,-1.4268 1.18918,-0.5231 2.59203,-0.78466 4.20857,-0.78468 1.8545,2e-5 3.56608,0.41612 5.13473,1.24831 z m -7.63136,11.5907 c 0.0239,0.3802 0.27353,0.70089 0.74877,0.96208 0.40413,0.23799 0.82023,0.35698 1.24832,0.35698 0.66604,0 1.23669,-0.14856 1.71194,-0.44567 0.47522,-0.29711 0.77234,-0.63576 0.89134,-1.01596 l 0,-1.81969 c -0.99837,0.19083 -1.99673,0.38129 -2.99508,0.57138 -1.09414,0.23726 -1.62924,0.70089 -1.60529,1.39088 z"
         style="font-variant:normal;font-stretch:normal;text-align:end;text-anchor:end;fill:#000000;font-family:CodiceNero;-inkscape-font-specification:CodiceNero"
         id="path5511" />
      <path
         d="m 432.0038,94.71985 0,6.74002 4.6722,0 0,5.02917 -4.56446,0 0,7.45287 c -10e-6,0.80827 0.57028,1.21241 1.71086,1.2124 0.35696,1e-5 0.83256,-0.0415 1.4268,-0.12461 0.59421,-0.0831 0.95082,-0.12461 1.06982,-0.12462 l 0.99909,4.74294 c -1.42645,0.71322 -3.24541,1.06983 -5.45688,1.06983 -1.49755,0 -2.80499,-0.38055 -3.92234,-1.14166 -1.23634,-0.85542 -1.85451,-1.93686 -1.85451,-3.24431 l 0,-9.84284 -2.96025,0 0,-5.02917 2.96025,0 0,-5.24248 z"
         style="font-variant:normal;font-stretch:normal;text-align:end;text-anchor:end;fill:#000000;font-family:CodiceNero;-inkscape-font-specification:CodiceNero"
         id="path5513" />
      <path
         d="m 440.72567,102.17381 5.74202,0 0,18.15224 -5.74202,0 z m -0.10666,-5.635363 c 0.59423,-1.188429 1.56901,-1.782656 2.92434,-1.782683 0.52312,2.7e-5 1.01033,0.107046 1.46163,0.321057 1.21239,0.594254 1.81859,1.581004 1.8186,2.960255 -10e-6,0.499203 -0.10703,0.974439 -0.32106,1.42571 -0.59423,1.189204 -1.58062,1.783794 -2.95917,1.783774 -0.52312,2e-5 -1.01069,-0.107 -1.46271,-0.32106 -1.18846,-0.59421 -1.78268,-1.568985 -1.78268,-2.924339 0,-0.523099 0.10702,-1.01067 0.32105,-1.462714 z"
         style="font-variant:normal;font-stretch:normal;text-align:end;text-anchor:end;fill:#000000;font-family:CodiceNero;-inkscape-font-specification:CodiceNero"
         id="path5515" />
      <path
         d="m 458.78322,101.81684 c 2.1157,2e-5 4.00576,0.70127 5.6702,2.10374 1.40247,1.21242 2.25826,2.49628 2.56736,3.8516 l -4.99216,1.81859 c -0.0951,-0.78431 -0.38057,-1.45 -0.85652,-1.99708 -0.59424,-0.66532 -1.4025,-0.99798 -2.42479,-0.998 -1.02232,2e-5 -1.86033,0.3744 -2.51404,1.12316 -0.65373,0.74878 -0.98059,1.70578 -0.98059,2.87101 l 0,1.35497 c 0,0.97515 0.27353,1.84291 0.8206,2.60328 0.64138,0.92726 1.55667,1.39089 2.74586,1.39089 0.73715,0 1.45635,-0.29711 2.15761,-0.89135 0.70123,-0.59422 1.06383,-1.35496 1.08778,-2.28222 l 5.064,1.78268 c -2e-5,0.42808 -0.28553,1.08181 -0.85652,1.96117 -0.71323,1.1413 -1.60457,2.06855 -2.67402,2.78177 -1.42645,0.9512 -3.04334,1.4268 -4.85068,1.4268 -2.6149,0 -4.81405,-0.98675 -6.59745,-2.96026 -1.52149,-1.66368 -2.28223,-3.44673 -2.28223,-5.34913 l 0,-1.67603 c 0,-2.16358 0.73716,-4.11314 2.21149,-5.84868 1.71157,-2.04459 3.94627,-3.06689 6.7041,-3.06691 z"
         style="font-variant:normal;font-stretch:normal;text-align:end;text-anchor:end;fill:#000000;font-family:CodiceNero;-inkscape-font-specification:CodiceNero"
         id="path5517" />
      <path
         d="m 483.27497,103.02924 c 0.40412,0.14295 0.87972,0.47598 1.4268,0.99909 0.9033,0.87938 1.35495,1.87774 1.35497,2.99508 l 0,8.30939 c -2e-5,0.42808 0.27352,0.70161 0.8206,0.8206 0.0479,0.0232 0.42842,0.0588 1.14166,0.10665 -0.21406,0.61818 -0.83223,2.08017 -1.85451,4.38597 -1.85453,0 -3.41193,-0.52276 -4.6722,-1.56828 -1.66443,1.0934 -3.32884,1.64011 -4.99325,1.64011 -1.73553,0 -3.263,-0.55868 -4.58241,-1.67603 -1.31942,-1.11735 -1.97913,-2.50823 -1.97913,-4.17265 0,-2.75782 1.69997,-4.65985 5.09991,-5.70611 1.26028,-0.19008 2.97222,-0.48719 5.13583,-0.89134 -2e-5,-1.04623 -0.66571,-1.56936 -1.99709,-1.56937 -1.33139,1e-5 -2.60365,0.34465 -3.81677,1.03391 -0.0711,0.0479 -0.57029,0.42845 -1.49754,1.14166 l -2.70993,-4.10082 c 0.0471,-0.11898 0.40376,-0.38054 1.06982,-0.78469 0.80826,-0.5231 1.71158,-0.9987 2.70994,-1.4268 1.18917,-0.5231 2.59203,-0.78466 4.20857,-0.78468 1.8545,2e-5 3.56608,0.41612 5.13473,1.24831 z m -7.63136,11.5907 c 0.0239,0.3802 0.27353,0.70089 0.74877,0.96208 0.40413,0.23799 0.82023,0.35698 1.24832,0.35698 0.66604,0 1.23669,-0.14856 1.71194,-0.44567 0.47522,-0.29711 0.77234,-0.63576 0.89134,-1.01596 l 0,-1.81969 c -0.99837,0.19083 -1.99673,0.38129 -2.99508,0.57138 -1.09414,0.23726 -1.62924,0.70089 -1.60529,1.39088 z"
         style="font-variant:normal;font-stretch:normal;text-align:end;text-anchor:end;fill:#000000;font-family:CodiceNero;-inkscape-font-specification:CodiceNero"
         id="path5519" />
      <path
         d="m 502.81482,120.29013 0,-10.05724 c -10e-6,-0.87936 -0.2438,-1.61634 -0.73135,-2.21094 -0.48759,-0.59458 -1.18303,-0.89187 -2.08633,-0.89189 -0.99837,2e-5 -1.74714,0.34502 -2.24631,1.035 -0.35698,0.52314 -0.53547,1.12934 -0.53546,1.8186 l 0,10.30647 -5.70611,0 0,-18.08149 5.02917,0 0.28514,1.10574 c 1.25955,-0.99834 2.91164,-1.49752 4.95625,-1.49754 2.33046,2e-5 4.12548,0.90333 5.38505,2.70994 0.92724,1.3314 1.39087,2.67476 1.39089,4.03008 l 0,11.73327 z"
         style="font-variant:normal;font-stretch:normal;text-align:end;text-anchor:end;fill:#000000;font-family:CodiceNero;-inkscape-font-specification:CodiceNero"
         id="path5521" />
      <path
         d="m 527.90298,104.49195 c 1.64045,1.7827 2.46069,3.87483 2.46071,6.2764 -2e-5,3.11407 -1.01035,5.63428 -3.031,7.56062 -1.75948,1.66369 -3.76853,2.49553 -6.02716,2.49553 -3.35206,0 -5.94337,-1.29547 -7.77393,-3.88642 -0.64212,-0.92725 -1.0702,-1.71193 -1.28423,-2.35405 -0.30909,-0.85615 -0.46363,-2.02102 -0.46363,-3.49463 0,-3.04368 1.0223,-5.48081 3.06691,-7.31139 1.7123,-1.54541 3.8164,-2.31812 6.31231,-2.31814 2.6156,2e-5 4.86227,1.01071 6.74002,3.03208 z m -10.59162,5.49171 0,1.96117 c 0,0.97515 0.38055,1.81933 1.14166,2.53254 0.7611,0.71322 1.62886,1.06983 2.60328,1.06983 0.99835,0 1.86611,-0.35661 2.60328,-1.06983 0.73715,-0.71321 1.10573,-1.55739 1.10575,-2.53254 l 0,-1.96117 c -2e-5,-1.02229 -0.40415,-1.87808 -1.2124,-2.56737 -0.73718,-0.61815 -1.56938,-0.92724 -2.49663,-0.92725 -0.97442,1e-5 -1.83021,0.3091 -2.56737,0.92725 -0.78505,0.68929 -1.17757,1.54508 -1.17757,2.56737 z"
         style="font-variant:normal;font-stretch:normal;text-align:end;text-anchor:end;fill:#000000;font-family:CodiceNero;-inkscape-font-specification:CodiceNero"
         id="path5523" />
    </g>
    <g
       style="font-size:17.83117867px;font-style:normal;font-weight:normal;line-height:125%;letter-spacing:0px;word-spacing:0px;fill:#000000;fill-opacity:1;stroke:none;font-family:Sans"
       id="text3794">
      <path
         d="m 454.29285,78.910622 c 1.05785,1e-5 2.00289,0.350633 2.8351,1.05187 0.70124,0.606207 1.12913,1.248139 1.28369,1.925797 l -2.49609,0.909299 c -0.0475,-0.392155 -0.19028,-0.725002 -0.42825,-0.998542 -0.29712,-0.332658 -0.70126,-0.498991 -1.2124,-0.498998 -0.51116,7e-6 -0.93017,0.1872 -1.25702,0.561577 -0.32687,0.374392 -0.4903,0.852893 -0.49029,1.435506 l 0,0.677485 c -10e-6,0.487575 0.13676,0.921455 0.4103,1.301641 0.32069,0.463631 0.77833,0.695445 1.37292,0.695442 0.36858,3e-6 0.72818,-0.148554 1.07881,-0.445671 0.35061,-0.29711 0.53191,-0.67748 0.54389,-1.141112 l 2.532,0.891341 c -10e-6,0.214041 -0.14276,0.540902 -0.42826,0.980584 -0.35662,0.570649 -0.80229,1.034277 -1.33701,1.390884 -0.71323,0.475601 -1.52167,0.7134 -2.42534,0.7134 -1.30745,0 -2.40703,-0.493375 -3.29873,-1.480127 -0.76074,-0.831844 -1.14111,-1.723365 -1.14111,-2.674568 l 0,-0.838014 c 0,-1.081792 0.36858,-2.056571 1.10574,-2.924339 0.85579,-1.022294 1.97314,-1.533445 3.35205,-1.533455 z"
         style="font-variant:normal;font-stretch:normal;text-align:end;text-anchor:end;fill:#000000;font-family:CodiceNero;-inkscape-font-specification:CodiceNero"
         id="path5490" />
      <path
         d="m 460.03052,79.089108 2.87102,0 0,9.076118 -2.87102,0 z m -0.0533,-2.817683 c 0.29711,-0.594215 0.7845,-0.891328 1.46217,-0.891342 0.26156,1.4e-5 0.50516,0.05352 0.73081,0.160529 0.60619,0.297127 0.90929,0.790502 0.9093,1.480127 -10e-6,0.249602 -0.0535,0.48722 -0.16053,0.712855 -0.29712,0.594601 -0.79031,0.891896 -1.47958,0.891886 -0.26157,1e-5 -0.50535,-0.0535 -0.73136,-0.160529 -0.59423,-0.297103 -0.89134,-0.784492 -0.89134,-1.46217 0,-0.261549 0.0535,-0.505335 0.16053,-0.731356 z"
         style="font-variant:normal;font-stretch:normal;text-align:end;text-anchor:end;fill:#000000;font-family:CodiceNero;-inkscape-font-specification:CodiceNero"
         id="path5492" />
      <path
         d="m 469.11263,75.362126 0,3.37001 2.3361,0 0,2.514584 -2.28223,0 0,3.726437 c 0,0.404136 0.28514,0.606203 0.85543,0.606199 0.17848,4e-6 0.41628,-0.02076 0.7134,-0.06231 0.2971,-0.04153 0.47541,-0.0623 0.53491,-0.06231 l 0.49954,2.371468 c -0.71322,0.35661 -1.6227,0.534914 -2.72844,0.534914 -0.74877,0 -1.40249,-0.190276 -1.96117,-0.570829 -0.61817,-0.427711 -0.92725,-0.968429 -0.92725,-1.622154 l 0,-4.921422 -1.48013,0 0,-2.514584 1.48013,0 0,-2.62124 z"
         style="font-variant:normal;font-stretch:normal;text-align:end;text-anchor:end;fill:#000000;font-family:CodiceNero;-inkscape-font-specification:CodiceNero"
         id="path5494" />
      <path
         d="m 477.6103,75.362126 0,3.37001 2.3361,0 0,2.514584 -2.28223,0 0,3.726437 c 0,0.404136 0.28514,0.606203 0.85543,0.606199 0.17848,4e-6 0.41628,-0.02076 0.7134,-0.06231 0.2971,-0.04153 0.47541,-0.0623 0.53491,-0.06231 l 0.49954,2.371468 c -0.71322,0.35661 -1.6227,0.534914 -2.72844,0.534914 -0.74877,0 -1.40249,-0.190276 -1.96116,-0.570829 -0.61818,-0.427711 -0.92726,-0.968429 -0.92726,-1.622154 l 0,-4.921422 -1.48013,0 0,-2.514584 1.48013,0 0,-2.62124 z"
         style="font-variant:normal;font-stretch:normal;text-align:end;text-anchor:end;fill:#000000;font-family:CodiceNero;-inkscape-font-specification:CodiceNero"
         id="path5496" />
      <path
         d="m 488.47944,79.516821 c 0.20206,0.07148 0.43986,0.23799 0.7134,0.499543 0.45165,0.439693 0.67747,0.938873 0.67748,1.49754 l 0,4.154695 c -10e-6,0.214041 0.13676,0.350808 0.4103,0.4103 0.0239,0.01161 0.21421,0.02939 0.57083,0.05333 -0.10703,0.309088 -0.41611,1.040082 -0.92725,2.192983 -0.92727,0 -1.70597,-0.26138 -2.3361,-0.784141 -0.83222,0.546705 -1.66442,0.820056 -2.49663,0.820056 -0.86776,0 -1.6315,-0.279337 -2.2912,-0.838013 -0.65971,-0.558674 -0.98957,-1.254115 -0.98957,-2.086327 0,-1.378907 0.84999,-2.329924 2.54996,-2.853054 0.63014,-0.09504 1.48611,-0.243597 2.56791,-0.44567 -10e-6,-0.523116 -0.33285,-0.784678 -0.99854,-0.784685 -0.6657,7e-6 -1.30183,0.172326 -1.90839,0.516956 -0.0356,0.02395 -0.28514,0.214226 -0.74877,0.570828 l -1.35497,-2.050411 c 0.0236,-0.05949 0.20189,-0.190268 0.53492,-0.392343 0.40413,-0.261552 0.85578,-0.499352 1.35497,-0.713399 0.59458,-0.261552 1.29601,-0.392333 2.10428,-0.392343 0.92725,1e-5 1.78304,0.208062 2.56737,0.624157 z m -3.81568,5.795351 c 0.012,0.190098 0.13676,0.350445 0.37438,0.481041 0.20207,0.118994 0.41012,0.178489 0.62416,0.178486 0.33302,3e-6 0.61835,-0.07428 0.85597,-0.222835 0.23761,-0.148554 0.38617,-0.31788 0.44567,-0.507978 l 0,-0.909843 c -0.49918,0.09542 -0.99836,0.190644 -1.49754,0.285687 -0.54707,0.118632 -0.81462,0.350445 -0.80264,0.695442 z"
         style="font-variant:normal;font-stretch:normal;text-align:end;text-anchor:end;fill:#000000;font-family:CodiceNero;-inkscape-font-specification:CodiceNero"
         id="path5498" />
      <path
         d="m 493.25666,75.219555 c 0.47523,1.3e-5 0.87038,0.157549 1.18546,0.472607 0.31507,0.315084 0.4726,0.728195 0.4726,1.239334 0,0.713229 -0.25557,1.259933 -0.76672,1.640111 -0.43969,0.345011 -0.99238,0.51751 -1.65807,0.517501 -0.29748,9e-6 -0.44622,-0.17249 -0.44622,-0.517501 0,-0.261188 0.12498,-0.403759 0.37493,-0.427713 0.35661,-0.03554 0.53491,-0.136574 0.53492,-0.303099 -10e-6,-0.07146 -0.0833,-0.112994 -0.24978,-0.124614 -0.22601,-0.01196 -0.41628,-0.08343 -0.57082,-0.214401 -0.27317,-0.225635 -0.40976,-0.582244 -0.40976,-1.069827 0,-0.285129 0.12479,-0.546691 0.37439,-0.784685 0.29711,-0.285129 0.68346,-0.4277 1.15907,-0.427713 z"
         style="font-variant:normal;font-stretch:normal;text-align:end;text-anchor:end;fill:#000000;font-family:CodiceNero;-inkscape-font-specification:CodiceNero"
         id="path5500" />
      <path
         d="m 509.41072,75.522654 2.85305,0 0,12.624614 -2.62124,0 c -0.0356,-0.107018 -0.0951,-0.255575 -0.17848,-0.44567 -0.76075,0.451657 -1.43243,0.677485 -2.01504,0.677484 -0.95084,10e-7 -1.8186,-0.291308 -2.60328,-0.873928 -1.14094,-0.832206 -1.7114,-2.110085 -1.7114,-3.833638 0,-1.390878 0.40413,-2.53208 1.2124,-3.42361 0.80826,-0.891513 1.83655,-1.337274 3.08486,-1.337284 0.43968,1e-5 0.83184,0.07728 1.17649,0.231814 0.47559,0.226019 0.74314,0.344828 0.80264,0.356428 z m -3.49517,8.434004 c 0,0.55868 0.15164,1.016412 0.45492,1.373199 0.30328,0.356794 0.74605,0.535189 1.32831,0.535186 0.44004,3e-6 0.83837,-0.148735 1.19498,-0.446215 0.32069,-0.261558 0.48104,-0.511148 0.48105,-0.74877 l 0,-1.961169 c -1e-5,-0.333022 -0.16934,-0.636212 -0.50798,-0.909571 -0.33866,-0.273344 -0.72801,-0.41002 -1.16805,-0.410027 -0.48721,7e-6 -0.89733,0.160354 -1.23036,0.481041 -0.36858,0.345007 -0.55287,0.826592 -0.55287,1.444756 z"
         style="font-variant:normal;font-stretch:normal;text-align:end;text-anchor:end;fill:#000000;font-family:CodiceNero;-inkscape-font-specification:CodiceNero"
         id="path5502" />
      <path
         d="m 518.75674,78.892664 c 1.14129,1e-5 2.13385,0.404143 2.97767,1.212399 0.95119,0.903683 1.42679,2.0925 1.4268,3.566453 -10e-6,0.1901 -0.0298,0.493199 -0.0892,0.909299 l -5.95588,0 c 0.27353,0.844183 0.87991,1.254302 1.81914,1.230355 0.73679,-0.02358 1.4618,-0.3089 2.17503,-0.85597 l 1.90838,1.87247 c -1.47433,1.022304 -2.84744,1.533455 -4.11932,1.533455 -1.20043,0 -2.2465,-0.374385 -3.1382,-1.123156 -0.97478,-0.832206 -1.47995,-1.93178 -1.5155,-3.298724 0,-0.178481 0,-0.452014 0,-0.8206 0.0116,-0.903306 0.35026,-1.777052 1.01596,-2.62124 0.85615,-1.069818 2.0212,-1.604731 3.49516,-1.604741 z m -1.60474,3.530539 3.12024,0 c -0.0711,-0.332659 -0.24932,-0.614899 -0.53464,-0.84672 -0.28533,-0.231806 -0.62425,-0.353699 -1.01677,-0.365678 -0.40414,-0.01196 -0.75476,0.118816 -1.05187,0.392342 -0.24959,0.226017 -0.42191,0.499368 -0.51696,0.820056 z"
         style="font-variant:normal;font-stretch:normal;text-align:end;text-anchor:end;fill:#000000;font-family:CodiceNero;-inkscape-font-specification:CodiceNero"
         id="path5504" />
      <path
         d="m 527.67777,75.522654 0,9.183319 c 0,0.392164 0.0298,0.641754 0.0892,0.74877 0.012,0.03556 0.0892,0.08308 0.23181,0.142571 0.0715,0.03556 0.16651,0.05333 0.28514,0.05333 0.24959,3e-6 0.57663,-0.07727 0.98113,-0.231814 0.20206,1.78341 0.29112,2.675113 0.26719,2.675112 -0.49919,0.07111 -1.23018,0.14239 -2.19299,0.213857 -0.68964,0 -1.34354,-0.279337 -1.96171,-0.838014 -0.34464,-0.309083 -0.55269,-0.915463 -0.62416,-1.819141 l 0,-10.127988 z"
         style="font-variant:normal;font-stretch:normal;text-align:end;text-anchor:end;fill:#000000;font-family:CodiceNero;-inkscape-font-specification:CodiceNero"
         id="path5506" />
    </g>
    <g
       style="font-size:35.66235733px;font-style:normal;font-weight:normal;line-height:125%;letter-spacing:0px;word-spacing:0px;fill:#000000;fill-opacity:1;stroke:none;font-family:Sans"
       id="text3798">
      <path
         d="m 255.18332,160.0409 10.84193,0 c 2.66276,3e-5 4.83797,0.86779 6.52562,2.60328 1.56935,1.61655 2.35403,3.54253 2.35406,5.77794 -3e-5,2.5438 -0.98678,4.63593 -2.96026,6.27639 -1.61655,1.35462 -3.29257,2.03192 -5.02808,2.03191 l -5.67019,0 0,8.55971 -6.06308,0 z m 6.09899,5.13582 0,6.38305 4.38597,0 c 0.76109,2e-5 1.45073,-0.27352 2.06891,-0.8206 0.73715,-0.61743 1.10573,-1.42569 1.10574,-2.4248 -1e-5,-0.8554 -0.31508,-1.5922 -0.94521,-2.21039 -0.63016,-0.61815 -1.34936,-0.92724 -2.15761,-0.92726 z"
         style="font-variant:normal;font-stretch:normal;text-align:end;text-anchor:end;fill:#000000;font-family:CodiceNero;-inkscape-font-specification:CodiceNero"
         id="path5615" />
      <path
         d="m 278.50076,167.17381 5.74203,0 0,18.15223 -5.74203,0 z m -0.10665,-5.63537 c 0.59422,-1.18843 1.569,-1.78266 2.92434,-1.78268 0.52312,2e-5 1.01032,0.10704 1.46162,0.32105 1.21239,0.59426 1.81859,1.58101 1.8186,2.96026 -1e-5,0.4992 -0.10703,0.97444 -0.32106,1.42571 -0.59423,1.1892 -1.58062,1.78379 -2.95916,1.78377 -0.52313,2e-5 -1.0107,-0.107 -1.46272,-0.32106 -1.18845,-0.5942 -1.78268,-1.56898 -1.78268,-2.92434 0,-0.5231 0.10702,-1.01067 0.32106,-1.46271 z"
         style="font-variant:normal;font-stretch:normal;text-align:end;text-anchor:end;fill:#000000;font-family:CodiceNero;-inkscape-font-specification:CodiceNero"
         id="path5617" />
      <path
         d="m 301.40791,168.02923 c 0.40412,0.14295 0.87972,0.47598 1.4268,0.99909 0.90329,0.87938 1.35495,1.87774 1.35497,2.99508 l 0,8.30939 c -2e-5,0.42808 0.27351,0.70161 0.8206,0.8206 0.0479,0.0232 0.42842,0.0588 1.14165,0.10666 -0.21405,0.61817 -0.83222,2.08016 -1.85451,4.38596 -1.85453,0 -3.41192,-0.52276 -4.67219,-1.56828 -1.66443,1.09341 -3.32885,1.64011 -4.99326,1.64011 -1.73552,0 -3.26299,-0.55867 -4.5824,-1.67603 -1.31942,-1.11734 -1.97913,-2.50823 -1.97913,-4.17265 0,-2.75781 1.69997,-4.65985 5.09991,-5.70611 1.26027,-0.19008 2.97221,-0.48719 5.13582,-0.89134 -1e-5,-1.04623 -0.6657,-1.56935 -1.99708,-1.56937 -1.3314,2e-5 -2.60365,0.34465 -3.81677,1.03391 -0.0711,0.0479 -0.57029,0.42846 -1.49754,1.14166 l -2.70994,-4.10082 c 0.0472,-0.11898 0.40377,-0.38054 1.06983,-0.78469 0.80826,-0.5231 1.71157,-0.9987 2.70994,-1.4268 1.18917,-0.5231 2.59202,-0.78466 4.20856,-0.78468 1.8545,2e-5 3.56608,0.41612 5.13474,1.24831 z m -7.63136,11.5907 c 0.0239,0.3802 0.27352,0.70089 0.74877,0.96209 0.40412,0.23798 0.82023,0.35697 1.24831,0.35697 0.66605,0 1.23669,-0.14855 1.71194,-0.44567 0.47523,-0.29711 0.77234,-0.63576 0.89134,-1.01596 l 0,-1.81968 c -0.99837,0.19083 -1.99673,0.38128 -2.99508,0.57137 -1.09414,0.23726 -1.62923,0.70089 -1.60528,1.39088 z"
         style="font-variant:normal;font-stretch:normal;text-align:end;text-anchor:end;fill:#000000;font-family:CodiceNero;-inkscape-font-specification:CodiceNero"
         id="path5619" />
    </g>
    <g
       style="font-size:38.68205643px;font-style:normal;font-weight:normal;line-height:125%;letter-spacing:0px;word-spacing:0px;fill:#000000;fill-opacity:1;stroke:none;font-family:Sans"
       id="text3810">
      <path
         d="m 118.74695,94.17442 1.23714,4.487014 1.35402,-4.487014 6.53751,0 -4.52597,13.07385 4.9899,14.08079 -6.8468,0 -1.50866,-5.02885 -1.4697,5.02885 -6.53751,0 4.71957,-14.08079 -4.68062,-13.07385 z"
         style="font-variant:normal;font-stretch:normal;text-align:end;text-anchor:end;fill:#000000;font-family:CodiceNeroCondensed;-inkscape-font-specification:CodiceNeroCondensed"
         id="path5622" />
      <path
         d="m 136.42586,94.17442 1.23714,4.487014 1.35402,-4.487014 6.53751,0 -4.52597,13.07385 4.9899,14.08079 -6.8468,0 -1.50866,-5.02885 -1.4697,5.02885 -6.53751,0 4.71957,-14.08079 -4.68062,-13.07385 z"
         style="font-variant:normal;font-stretch:normal;text-align:end;text-anchor:end;fill:#000000;font-family:CodiceNeroCondensed;-inkscape-font-specification:CodiceNeroCondensed"
         id="path5624" />
      <path
         d="m 165.20602,93.632578 c 3.04328,3e-5 5.67378,1.70189 7.89153,5.105588 l -4.71957,2.785934 c -0.18023,-0.38717 -0.5025,-0.83851 -0.96681,-1.35401 -0.6965,-0.747614 -1.32845,-1.121433 -1.89586,-1.121457 -0.12907,2.4e-5 -0.24516,0.01262 -0.34824,0.03778 -0.23217,0.10312 -0.42538,0.232186 -0.57962,0.387199 -0.38721,0.309309 -0.59379,0.670533 -0.61975,1.083683 -0.0252,0.64456 0.43913,1.40519 1.39297,2.28187 l 5.64743,5.06663 c 0.61934,0.54225 1.16079,1.26432 1.62434,2.16619 0.5674,1.08369 0.85111,2.14101 0.85113,3.17196 -2e-5,2.29565 -0.73487,4.25584 -2.20455,5.88057 -1.46972,1.62474 -3.31343,2.43711 -5.53115,2.43711 -3.40452,0 -6.04801,-1.95999 -7.93049,-5.87999 l 5.02886,-2.86267 c 0.72245,2.16659 1.63811,3.17236 2.74698,3.01732 1.26311,-0.15503 1.89467,-0.76101 1.89468,-1.81795 -1e-5,-0.85151 -0.82517,-2.01192 -2.47548,-3.48124 -2.73321,-2.44988 -4.26744,-3.85544 -4.6027,-4.21668 -1.65031,-1.83131 -2.47547,-3.61069 -2.47547,-5.33815 0,-2.08864 0.67681,-3.835752 2.03043,-5.24134 1.35362,-1.405532 3.10073,-2.108312 5.24134,-2.108342 z"
         style="font-variant:normal;font-stretch:normal;text-align:end;text-anchor:end;fill:#000000;font-family:CodiceNeroCondensed;-inkscape-font-specification:CodiceNeroCondensed"
         id="path5626" />
      <path
         d="m 183.54718,102.52988 c 2.24291,2e-5 3.99632,1.03136 5.26023,3.09404 1.10886,1.80537 1.66329,3.97155 1.6633,6.49856 -1e-5,0.54146 -0.0256,1.0829 -0.0767,1.62434 l -8.47232,0 c -0.0252,0.79959 0.0909,1.52165 0.34824,2.16619 0.33525,0.85153 0.83814,1.27729 1.50866,1.27728 1.18677,10e-6 2.03789,-1.01875 2.55338,-3.05627 l 4.13877,2.20514 c -0.95384,2.01155 -2.2689,3.46866 -3.94517,4.37133 -1.08369,0.56742 -2.12802,0.85113 -3.133,0.85113 -1.93442,0 -3.59143,-0.83165 -4.97101,-2.49495 -1.37959,-1.6633 -2.06939,-3.68133 -2.06939,-6.05411 0,-3.22349 0.73505,-5.81543 2.20514,-7.77584 1.36621,-1.80454 3.02951,-2.70682 4.9899,-2.70684 z m -1.62552,7.38746 3.09522,0 c -10e-6,-1.77937 -0.47731,-2.66906 -1.43192,-2.66907 -1.03096,10e-6 -1.5854,0.8897 -1.6633,2.66907 z"
         style="font-variant:normal;font-stretch:normal;text-align:end;text-anchor:end;fill:#000000;font-family:CodiceNeroCondensed;-inkscape-font-specification:CodiceNeroCondensed"
         id="path5628" />
      <path
         d="m 199.98895,94.368019 0,8.161861 2.78476,0 0,3.98413 -2.78476,0 0,10.05771 c -10e-6,0.54145 0.27071,0.81218 0.81217,0.81217 0.43834,1e-5 0.9672,-0.15503 1.58657,-0.46511 0.54144,-0.25734 0.87669,-0.48911 1.00577,-0.6953 l 0.92786,4.25445 c -1.52126,0.85074 -3.05549,1.27611 -4.6027,1.27611 -1.52204,0 -2.78595,-0.40609 -3.79171,-1.21826 -1.00578,-0.81217 -1.50866,-1.91435 -1.50866,-3.30653 l 0,-10.7542 -2.78476,0 0,-3.94517 2.78476,0 0,-5.570702 z"
         style="font-variant:normal;font-stretch:normal;text-align:end;text-anchor:end;fill:#000000;font-family:CodiceNeroCondensed;-inkscape-font-specification:CodiceNeroCondensed"
         id="path5630" />
      <path
         d="m 213.96586,94.368019 0,8.161861 2.78476,0 0,3.98413 -2.78476,0 0,10.05771 c -1e-5,0.54145 0.27072,0.81218 0.81218,0.81217 0.43834,1e-5 0.96719,-0.15503 1.58656,-0.46511 0.54144,-0.25734 0.8767,-0.48911 1.00578,-0.6953 l 0.92785,4.25445 c -1.52126,0.85074 -3.05549,1.27611 -4.6027,1.27611 -1.52204,0 -2.78594,-0.40609 -3.79171,-1.21826 -1.00577,-0.81217 -1.50866,-1.91435 -1.50865,-3.30653 l 0,-10.7542 -2.78476,0 0,-3.94517 2.78476,0 0,-5.570702 z"
         style="font-variant:normal;font-stretch:normal;text-align:end;text-anchor:end;fill:#000000;font-family:CodiceNeroCondensed;-inkscape-font-specification:CodiceNeroCondensed"
         id="path5632" />
      <path
         d="m 227.5178,102.52988 c 2.24291,2e-5 3.99632,1.03136 5.26023,3.09404 1.10886,1.80537 1.66329,3.97155 1.6633,6.49856 -1e-5,0.54146 -0.0256,1.0829 -0.0767,1.62434 l -8.47232,0 c -0.0252,0.79959 0.0909,1.52165 0.34824,2.16619 0.33525,0.85153 0.83814,1.27729 1.50866,1.27728 1.18677,10e-6 2.03789,-1.01875 2.55338,-3.05627 l 4.13877,2.20514 c -0.95384,2.01155 -2.2689,3.46866 -3.94517,4.37133 -1.08369,0.56742 -2.12803,0.85113 -3.133,0.85113 -1.93442,0 -3.59143,-0.83165 -4.97101,-2.49495 -1.3796,-1.6633 -2.06939,-3.68133 -2.06939,-6.05411 0,-3.22349 0.73505,-5.81543 2.20514,-7.77584 1.36621,-1.80454 3.02951,-2.70682 4.9899,-2.70684 z m -1.62552,7.38746 3.09522,0 c -1e-5,-1.77937 -0.47731,-2.66906 -1.43192,-2.66907 -1.03096,10e-6 -1.5854,0.8897 -1.6633,2.66907 z"
         style="font-variant:normal;font-stretch:normal;text-align:end;text-anchor:end;fill:#000000;font-family:CodiceNeroCondensed;-inkscape-font-specification:CodiceNeroCondensed"
         id="path5634" />
      <path
         d="m 249.95524,104.30886 c 0.82554,-1.31503 2.16656,-1.97256 4.02309,-1.97258 1.39216,2e-5 2.57854,0.4124 3.55915,1.23714 1.10884,0.92867 1.66328,2.1666 1.6633,3.7138 l 0,14.15753 -5.64861,0 0,-12.95816 c -2e-5,-0.82553 -0.43837,-1.23831 -1.31506,-1.23832 -0.82478,10e-6 -1.23716,0.41279 -1.23714,1.23832 l 0,12.95816 -5.64743,0 0,-12.95816 c -1e-5,-0.87669 -0.42577,-1.31504 -1.27728,-1.31506 -0.85075,2e-5 -1.27611,0.43837 -1.27611,1.31506 l 0,12.95816 -5.33814,0 0,-18.6835 4.56493,0 0.30928,0.92904 c 0.9798,-0.97978 2.21773,-1.46968 3.7138,-1.4697 1.67549,2e-5 2.97756,0.69611 3.90622,2.08827 z"
         style="font-variant:normal;font-stretch:normal;text-align:end;text-anchor:end;fill:#000000;font-family:CodiceNeroCondensed;-inkscape-font-specification:CodiceNeroCondensed"
         id="path5636" />
      <path
         d="m 268.7922,94.213376 0,9.399004 c 0.74763,-0.64452 1.59876,-0.9668 2.55338,-0.96682 0.67051,2e-5 1.32804,0.18064 1.97259,0.54185 0.82475,0.46434 1.5598,1.30248 2.20514,2.51442 0.87669,1.65033 1.31504,3.68745 1.31506,6.11136 -2e-5,3.12042 -0.78661,5.63484 -2.35979,7.54329 -1.23794,1.52125 -2.52742,2.28187 -3.86844,2.28187 -0.97981,0 -1.79198,-0.39979 -2.43651,-1.19937 l -0.30929,0.92904 -4.75853,0 0,-27.154644 z m 0,14.737144 0,6.30496 c -10e-6,0.82556 0.2837,1.23833 0.85113,1.23833 0.41237,0 0.7732,-0.33525 1.0825,-1.00578 0.38719,-0.82554 0.58079,-1.98595 0.5808,-3.48124 -10e-6,-2.78514 -0.51588,-4.17771 -1.54762,-4.17773 -0.64455,2e-5 -0.96682,0.37384 -0.96681,1.12146 z"
         style="font-variant:normal;font-stretch:normal;text-align:end;text-anchor:end;fill:#000000;font-family:CodiceNeroCondensed;-inkscape-font-specification:CodiceNeroCondensed"
         id="path5638" />
      <path
         d="m 286.0237,110.07198 0,11.45068 -5.72534,0 0,-18.64454 5.80207,0 c 0.12906,2e-5 0.19359,0.10311 0.1936,0.30929 -1e-5,0.18024 -0.0645,0.45096 -0.1936,0.81217 1.34102,-1.10885 2.8241,-1.63771 4.44924,-1.58657 l 0,5.06781 c -0.31008,-0.0519 -0.64534,-0.0779 -1.00577,-0.0779 -2.34681,10e-6 -3.52021,0.8897 -3.5202,2.66907 z"
         style="font-variant:normal;font-stretch:normal;text-align:end;text-anchor:end;fill:#000000;font-family:CodiceNeroCondensed;-inkscape-font-specification:CodiceNeroCondensed"
         id="path5640" />
      <path
         d="m 299.66891,102.52988 c 2.24291,2e-5 3.99632,1.03136 5.26023,3.09404 1.10885,1.80537 1.66329,3.97155 1.6633,6.49856 -1e-5,0.54146 -0.0256,1.0829 -0.0767,1.62434 l -8.47232,0 c -0.0252,0.79959 0.0909,1.52165 0.34824,2.16619 0.33525,0.85153 0.83813,1.27729 1.50866,1.27728 1.18676,10e-6 2.03789,-1.01875 2.55338,-3.05627 l 4.13877,2.20514 c -0.95384,2.01155 -2.2689,3.46866 -3.94517,4.37133 -1.08369,0.56742 -2.12803,0.85113 -3.133,0.85113 -1.93443,0 -3.59143,-0.83165 -4.97102,-2.49495 -1.37959,-1.6633 -2.06938,-3.68133 -2.06938,-6.05411 0,-3.22349 0.73504,-5.81543 2.20514,-7.77584 1.36621,-1.80454 3.02951,-2.70682 4.9899,-2.70684 z m -1.62552,7.38746 3.09522,0 c -1e-5,-1.77937 -0.47732,-2.66906 -1.43192,-2.66907 -1.03097,10e-6 -1.5854,0.8897 -1.6633,2.66907 z"
         style="font-variant:normal;font-stretch:normal;text-align:end;text-anchor:end;fill:#000000;font-family:CodiceNeroCondensed;-inkscape-font-specification:CodiceNeroCondensed"
         id="path5642" />
    </g>
    <g
       style="font-size:17.83117867px;font-style:normal;font-weight:normal;line-height:125%;letter-spacing:0px;word-spacing:0px;fill:#000000;fill-opacity:1;stroke:none;font-family:Sans"
       id="text3826">
      <path
         d="m 198.72966,175.98219 c 1.54542,1e-5 2.70449,0.5527 3.47721,1.65807 0.6178,0.86777 0.9267,1.93777 0.92671,3.21002 -1e-5,1.30745 -0.43679,2.43369 -1.31035,3.37872 -0.87357,0.94503 -1.94648,1.41755 -3.21873,1.41755 -0.53474,0 -1.20043,-0.16633 -1.99708,-0.499 l 0,2.90638 -2.99563,0 0,-11.82197 2.54996,0.0174 c 0.13096,1e-5 0.19344,0.0654 0.18746,0.19618 -0.006,0.13079 0.0208,0.20815 0.0803,0.23208 0.67729,-0.46362 1.44402,-0.69543 2.30018,-0.69544 z m -2.12224,4.27931 0,1.24831 c -1e-5,0.35661 0.17249,0.70143 0.5175,1.03446 0.36821,0.38019 0.81987,0.57028 1.35497,0.57028 0.55867,0 1.00443,-0.21095 1.33728,-0.63286 0.33284,-0.42191 0.49926,-0.98366 0.49927,-1.68528 -1e-5,-0.59422 -0.16044,-1.10827 -0.48131,-1.54216 -0.32088,-0.43387 -0.75485,-0.65081 -1.30191,-0.65082 -0.77272,1e-5 -1.32541,0.26157 -1.65807,0.78468 -0.17849,0.29712 -0.26774,0.58825 -0.26773,0.87339 z"
         style="font-variant:normal;font-stretch:normal;text-align:end;text-anchor:end;fill:#000000;font-family:CodiceNero;-inkscape-font-specification:CodiceNero"
         id="path5604" />
      <path
         d="m 212.39744,177.39103 c 0.82022,0.89135 1.23034,1.93741 1.23035,3.1382 -1e-5,1.55704 -0.50517,2.81714 -1.5155,3.78031 -0.87974,0.83184 -1.88426,1.24777 -3.01358,1.24777 -1.67603,0 -2.97168,-0.64774 -3.88696,-1.94322 -0.32106,-0.46362 -0.5351,-0.85596 -0.64212,-1.17702 -0.15454,-0.42807 -0.23181,-1.01051 -0.23181,-1.74731 0,-1.52184 0.51115,-2.74041 1.53345,-3.6557 0.85615,-0.7727 1.9082,-1.15906 3.15616,-1.15907 1.3078,1e-5 2.43113,0.50536 3.37001,1.51604 z m -5.29581,2.74585 0,0.98059 c -1e-5,0.48757 0.19027,0.90966 0.57083,1.26627 0.38054,0.35661 0.81442,0.53492 1.30164,0.53491 0.49917,10e-6 0.93305,-0.1783 1.30164,-0.53491 0.36857,-0.35661 0.55286,-0.7787 0.55287,-1.26627 l 0,-0.98059 c -1e-5,-0.51114 -0.20207,-0.93904 -0.6062,-1.28368 -0.36859,-0.30908 -0.78469,-0.46362 -1.24831,-0.46363 -0.48722,1e-5 -0.91511,0.15455 -1.28369,0.46363 -0.39252,0.34464 -0.58879,0.77254 -0.58878,1.28368 z"
         style="font-variant:normal;font-stretch:normal;text-align:end;text-anchor:end;fill:#000000;font-family:CodiceNero;-inkscape-font-specification:CodiceNero"
         id="path5606" />
      <path
         d="m 221.43709,178.99577 c -0.26156,-0.0715 -0.52313,-0.10719 -0.78468,-0.1072 -0.60621,1e-5 -1.10539,0.16054 -1.49754,0.48159 -0.44005,0.34464 -0.66008,0.83203 -0.66007,1.46217 l 0,4.45779 -2.88843,0 0,-9.05816 2.92434,0 0,0.57028 c 0.26156,-0.15453 0.51714,-0.30907 0.76673,-0.46362 0.45165,-0.21403 0.92707,-0.32105 1.42626,-0.32106 0.23761,1e-5 0.47541,0.0239 0.71339,0.0718 z"
         style="font-variant:normal;font-stretch:normal;text-align:end;text-anchor:end;fill:#000000;font-family:CodiceNero;-inkscape-font-specification:CodiceNero"
         id="path5608" />
      <path
         d="m 227.20524,172.50498 0,3.37001 2.33609,0 0,2.51458 -2.28222,0 0,3.72644 c -1e-5,0.40414 0.28514,0.6062 0.85542,0.6062 0.17848,0 0.41628,-0.0208 0.7134,-0.0623 0.29711,-0.0415 0.47542,-0.0623 0.53492,-0.0623 l 0.49954,2.37146 c -0.71322,0.35661 -1.6227,0.53492 -2.72844,0.53492 -0.74877,0 -1.4025,-0.19028 -1.96117,-0.57083 -0.61817,-0.42771 -0.92726,-0.96843 -0.92725,-1.62215 l 0,-4.92143 -1.48013,0 0,-2.51458 1.48013,0 0,-2.62124 z"
         style="font-variant:normal;font-stretch:normal;text-align:end;text-anchor:end;fill:#000000;font-family:CodiceNero;-inkscape-font-specification:CodiceNero"
         id="path5610" />
      <path
         d="m 238.07438,176.65967 c 0.20206,0.0715 0.43986,0.23799 0.7134,0.49955 0.45164,0.43969 0.67747,0.93887 0.67748,1.49754 l 0,4.15469 c -1e-5,0.21404 0.13676,0.35081 0.4103,0.4103 0.0239,0.0116 0.21421,0.0294 0.57083,0.0533 -0.10703,0.30909 -0.41611,1.04008 -0.92726,2.19298 -0.92726,0 -1.70596,-0.26138 -2.33609,-0.78414 -0.83222,0.54671 -1.66443,0.82006 -2.49663,0.82006 -0.86776,0 -1.6315,-0.27934 -2.2912,-0.83802 -0.65971,-0.55867 -0.98957,-1.25411 -0.98957,-2.08632 0,-1.37891 0.84999,-2.32993 2.54996,-2.85306 0.63014,-0.095 1.48611,-0.24359 2.56791,-0.44567 -10e-6,-0.52311 -0.33285,-0.78467 -0.99854,-0.78468 -0.6657,1e-5 -1.30183,0.17232 -1.90839,0.51695 -0.0356,0.0239 -0.28514,0.21423 -0.74877,0.57083 l -1.35497,-2.05041 c 0.0236,-0.0595 0.20189,-0.19027 0.53492,-0.39234 0.40413,-0.26155 0.85578,-0.49935 1.35497,-0.7134 0.59458,-0.26155 1.29601,-0.39233 2.10428,-0.39234 0.92725,1e-5 1.78304,0.20806 2.56737,0.62415 z m -3.81568,5.79535 c 0.012,0.1901 0.13676,0.35045 0.37438,0.48105 0.20206,0.11899 0.41012,0.17848 0.62416,0.17848 0.33302,0 0.61835,-0.0743 0.85597,-0.22283 0.23761,-0.14856 0.38617,-0.31788 0.44567,-0.50798 l 0,-0.90984 c -0.49919,0.0954 -0.99837,0.19064 -1.49754,0.28568 -0.54707,0.11863 -0.81462,0.35045 -0.80264,0.69544 z"
         style="font-variant:normal;font-stretch:normal;text-align:end;text-anchor:end;fill:#000000;font-family:CodiceNero;-inkscape-font-specification:CodiceNero"
         id="path5612" />
    </g>
    <g
       transform="scale(1.0120458,0.98809758)"
       style="font-size:34.79823303px;font-style:normal;font-weight:normal;line-height:125%;letter-spacing:0px;word-spacing:0px;fill:#000000;fill-opacity:1;stroke:none;font-family:Sans"
       id="text3830">
      <path
         d="m 120.88347,315.98222 c 2.94657,2e-5 5.06942,1.51968 6.36856,4.55898 0.53309,1.27579 0.88106,2.80677 1.04391,4.59297 l -5.08041,0.41735 c -0.11612,-2.737 -0.81205,-4.10551 -2.08781,-4.10553 -1.53135,2e-5 -2.29702,2.50553 -2.29701,7.51654 -1e-5,1.94835 0.0697,3.32854 0.2092,4.14057 0.32425,2.0418 1.02018,3.06269 2.08781,3.06269 0.71858,0 1.29841,-0.54514 1.73949,-1.63542 0.30158,-0.76602 0.48707,-1.62443 0.55646,-2.57525 l 4.97634,1.73949 c -0.32498,1.53135 -0.78905,2.84216 -1.39223,3.93243 -1.46127,2.64428 -3.5027,3.96641 -6.12431,3.96641 -2.38941,0 -4.3381,-1.38019 -5.84608,-4.14057 -1.36851,-2.48214 -2.05276,-5.31226 -2.05276,-8.49035 0,-3.61914 0.70761,-6.65846 2.12285,-9.11797 1.48461,-2.57487 3.40994,-3.86232 5.77599,-3.86234 z"
         style="font-variant:normal;font-stretch:normal;text-align:start;text-anchor:start;fill:#000000;font-family:CodiceNeroCondensed;-inkscape-font-specification:CodiceNeroCondensed"
         id="path5578" />
      <path
         d="m 134.54768,335.92154 c 0.76602,0 1.42727,0.27841 1.98374,0.83522 0.55646,0.55683 0.83469,1.21825 0.8347,1.98427 -1e-5,0.74196 -0.28408,1.38551 -0.85222,1.93064 -0.56816,0.54514 -1.22356,0.81771 -1.96622,0.81771 -0.81205,0 -1.48479,-0.27257 -2.01825,-0.81771 -0.53346,-0.54513 -0.80019,-1.18868 -0.80018,-1.93064 -1e-5,-0.81204 0.2784,-1.48496 0.83523,-2.01878 0.55681,-0.5338 1.21788,-0.80071 1.9832,-0.80071 z"
         style="font-variant:normal;font-stretch:normal;text-align:start;text-anchor:start;fill:#000000;font-family:CodiceNeroCondensed;-inkscape-font-specification:CodiceNeroCondensed"
         id="path5580" />
      <path
         d="m 148.52942,316.71284 c 2.06443,3e-5 3.82746,0.73083 5.28908,2.19241 1.46159,1.46163 2.1924,3.22466 2.19241,5.28909 -1e-5,2.52889 -1.10197,4.60537 -3.30587,6.22944 l 4.87226,10.68329 -5.77705,0 -3.58411,-9.1169 -0.38337,0 0,9.1169 -5.5328,0 0,-24.39423 z m -0.69665,4.59403 0,6.08927 c 0.69664,-0.0694 1.32904,-0.41734 1.89719,-1.04391 0.56814,-0.62653 0.85221,-1.29911 0.85222,-2.01772 -1e-5,-1.02087 -0.3016,-1.80991 -0.90479,-2.3671 -0.51045,-0.48706 -1.12532,-0.70724 -1.84462,-0.66054 z"
         style="font-variant:normal;font-stretch:normal;text-align:start;text-anchor:start;fill:#000000;font-family:CodiceNeroCondensed;-inkscape-font-specification:CodiceNeroCondensed"
         id="path5582" />
      <path
         d="m 166.08464,324.19434 c 2.04108,10e-6 3.65348,0.92816 4.83722,2.78445 1.04354,1.64675 1.56531,3.63014 1.56533,5.95015 -2e-5,2.22728 -0.52179,4.15297 -1.56533,5.77705 -1.22976,1.85559 -2.87721,2.78339 -4.94235,2.78339 -1.90162,0 -3.45561,-0.83505 -4.66199,-2.50516 -1.16037,-1.60072 -1.74055,-3.61914 -1.74055,-6.05528 0,-2.29665 0.49876,-4.24534 1.4963,-5.84608 1.16036,-1.92567 2.83082,-2.88851 5.01137,-2.88852 z m -0.0701,12.94526 c 0.62654,1e-5 1.06725,-0.41734 1.32213,-1.25205 0.16283,-0.60318 0.24424,-1.60107 0.24425,-2.99366 -1e-5,-1.20566 -0.0464,-2.06372 -0.13911,-2.57418 -0.23223,-1.11363 -0.70798,-1.67045 -1.42727,-1.67046 -0.64922,1e-5 -1.08993,0.44072 -1.32214,1.32214 -0.16213,0.57984 -0.2432,1.554 -0.24319,2.9225 -1e-5,1.48534 0.0694,2.49455 0.20814,3.02765 0.23221,0.81204 0.6846,1.21807 1.35719,1.21806 z"
         style="font-variant:normal;font-stretch:normal;text-align:start;text-anchor:start;fill:#000000;font-family:CodiceNeroCondensed;-inkscape-font-specification:CodiceNeroCondensed"
         id="path5584" />
      <path
         d="m 180.19487,324.22938 c 1.11364,2e-5 2.28533,0.37135 3.51508,1.11399 0.90478,0.57985 1.62373,1.20605 2.15684,1.87861 l -3.33986,2.43613 c -0.7193,-0.8354 -1.38055,-1.2531 -1.98373,-1.25311 -0.51046,1e-5 -0.76568,0.25524 -0.76567,0.76567 -1e-5,0.41772 0.51044,0.9979 1.53134,1.74055 1.60071,1.1363 2.56355,1.86693 2.88852,2.19188 1.06691,0.97418 1.62337,1.97171 1.6694,2.9926 0.0927,1.78621 -0.4524,3.14339 -1.63541,4.07154 -0.97418,0.76532 -2.28464,1.18302 -3.93137,1.25311 -0.95152,0.046 -1.92604,-0.17451 -2.92357,-0.6616 -1.3225,-0.6492 -2.44746,-1.6701 -3.3749,-3.06268 l 3.72322,-2.36605 c 0.67257,1.22976 1.38019,1.84463 2.12285,1.84463 0.2315,0 0.42867,-0.0927 0.59151,-0.27824 0.44036,-0.48708 0.21982,-1.09027 -0.66159,-1.80957 l -3.06269,-2.50516 c -1.25241,-1.2531 -1.83223,-2.52922 -1.73949,-3.82836 0.11611,-1.60071 0.83541,-2.80709 2.1579,-3.61915 0.97416,-0.60318 1.99471,-0.90477 3.06162,-0.90479 z"
         style="font-variant:normal;font-stretch:normal;text-align:start;text-anchor:start;fill:#000000;font-family:CodiceNeroCondensed;-inkscape-font-specification:CodiceNeroCondensed"
         id="path5586" />
      <path
         d="m 193.44811,324.22938 c 1.11363,2e-5 2.28532,0.37135 3.51508,1.11399 0.90477,0.57985 1.62372,1.20605 2.15683,1.87861 l -3.33986,2.43613 c -0.7193,-0.8354 -1.38055,-1.2531 -1.98373,-1.25311 -0.51046,1e-5 -0.76568,0.25524 -0.76567,0.76567 -10e-6,0.41772 0.51044,0.9979 1.53134,1.74055 1.60071,1.1363 2.56356,1.86693 2.88852,2.19188 1.06691,0.97418 1.62337,1.97171 1.6694,2.9926 0.0927,1.78621 -0.4524,3.14339 -1.63541,4.07154 -0.97418,0.76532 -2.28464,1.18302 -3.93137,1.25311 -0.95152,0.046 -1.92604,-0.17451 -2.92357,-0.6616 -1.32249,-0.6492 -2.44746,-1.6701 -3.3749,-3.06268 l 3.72322,-2.36605 c 0.67257,1.22976 1.38019,1.84463 2.12286,1.84463 0.2315,0 0.42867,-0.0927 0.59151,-0.27824 0.44035,-0.48708 0.21981,-1.09027 -0.6616,-1.80957 l -3.06269,-2.50516 c -1.2524,-1.2531 -1.83223,-2.52922 -1.73949,-3.82836 0.11611,-1.60071 0.83541,-2.80709 2.1579,-3.61915 0.97417,-0.60318 1.99471,-0.90477 3.06163,-0.90479 z"
         style="font-variant:normal;font-stretch:normal;text-align:start;text-anchor:start;fill:#000000;font-family:CodiceNeroCondensed;-inkscape-font-specification:CodiceNeroCondensed"
         id="path5588" />
      <path
         d="m 212.96477,328.57916 0,7.79477 c -2e-5,0.67329 0.31326,1.00993 0.93983,1.00992 0.25556,1e-5 0.51079,-0.0467 0.76567,-0.14018 l -1.21806,3.79332 c -0.39436,0.1161 -0.82339,0.17416 -1.2871,0.17416 -1.36923,0 -2.50587,-0.4754 -3.40994,-1.42621 -0.88214,0.95081 -2.00746,1.42621 -3.37597,1.42621 -1.15966,0 -2.1225,-0.35965 -2.88852,-1.07895 -0.88143,-0.81204 -1.32214,-1.93701 -1.32214,-3.3749 0,-1.04426 0.24354,-2.04179 0.73063,-2.9926 0.67328,-1.29912 1.70585,-2.28532 3.09773,-2.95862 l 2.88746,-1.39116 c -10e-6,-0.18548 -0.023,-0.34796 -0.069,-0.48744 -0.0927,-0.32494 -0.26691,-0.51043 -0.52248,-0.55646 -1.15966,-0.18548 -2.44711,0.48709 -3.86234,2.01771 l -2.36604,-2.99259 c 2.22727,-2.11116 4.46588,-3.16674 6.71582,-3.16676 0.97416,2e-5 1.92532,0.20887 2.85348,0.62655 0.8354,0.371 1.4616,0.98587 1.8786,1.84463 0.30159,0.64922 0.45238,1.27542 0.4524,1.8786 z m -5.08041,5.0804 c -0.417,0.18621 -0.78798,0.49949 -1.11293,0.93984 -0.41771,0.55718 -0.62656,1.13736 -0.62656,1.74055 0,0.39434 0.13911,0.59151 0.41735,0.59151 0.37097,0 0.81169,-0.24389 1.32214,-0.73169 z"
         style="font-variant:normal;font-stretch:normal;text-align:start;text-anchor:start;fill:#000000;font-family:CodiceNeroCondensed;-inkscape-font-specification:CodiceNeroCondensed"
         id="path5590" />
    </g>
    <g
       transform="scale(1.0120458,0.98809758)"
       style="font-size:17.32413101px;font-style:normal;font-weight:normal;line-height:125%;letter-spacing:0px;word-spacing:0px;fill:#000000;fill-opacity:1;stroke:none;font-family:Sans"
       id="text3838">
      <path
         d="m 116.42218,307.16579 -3.08332,-8.80059 3.03151,0 1.62837,5.0067 1.5591,-5.0067 2.77193,0 -2.71959,8.80059 z"
         style="font-variant:normal;font-stretch:normal;text-align:start;text-anchor:start;fill:#000000;font-family:CodiceNero;-inkscape-font-specification:CodiceNero"
         id="path5593" />
      <path
         d="m 123.75988,298.3652 2.78937,0 0,8.81803 -2.78937,0 z m -0.0518,-2.73756 c 0.28867,-0.57731 0.7622,-0.86598 1.4206,-0.86599 0.25412,1e-5 0.49079,0.052 0.71003,0.15596 0.58895,0.28868 0.88343,0.76803 0.88344,1.43804 -1e-5,0.2425 -0.052,0.47337 -0.15596,0.69258 -0.28867,0.5777 -0.76784,0.86654 -1.43751,0.86653 -0.25413,10e-6 -0.49098,-0.052 -0.71056,-0.15597 -0.57734,-0.28865 -0.866,-0.76218 -0.866,-1.42059 0,-0.25411 0.052,-0.49096 0.15596,-0.71056 z"
         style="font-variant:normal;font-stretch:normal;text-align:start;text-anchor:start;fill:#000000;font-family:CodiceNero;-inkscape-font-specification:CodiceNero"
         id="path5595" />
      <path
         d="m 134.88775,298.78075 c 0.19632,0.0694 0.42735,0.23123 0.69312,0.48534 0.4388,0.42719 0.65821,0.91218 0.65822,1.45496 l 0,4.03655 c -1e-5,0.20795 0.13287,0.34083 0.39863,0.39863 0.0232,0.0113 0.20812,0.0285 0.5546,0.0518 -0.10399,0.3003 -0.40429,1.01051 -0.90089,2.13063 -0.9009,0 -1.65745,-0.25395 -2.26967,-0.76185 -0.80855,0.53116 -1.61709,0.79674 -2.42563,0.79674 -0.84309,0 -1.58511,-0.27139 -2.22605,-0.81418 -0.64096,-0.54279 -0.96143,-1.21846 -0.96143,-2.027 0,-1.3397 0.82581,-2.26367 2.47745,-2.77193 0.61221,-0.0923 1.44384,-0.23667 2.49489,-0.43299 -1e-5,-0.50824 -0.32339,-0.76237 -0.97015,-0.76238 -0.64677,10e-6 -1.26481,0.16743 -1.85412,0.50226 -0.0345,0.0233 -0.27704,0.20813 -0.72748,0.5546 l -1.31644,-1.99211 c 0.0229,-0.0578 0.19615,-0.18486 0.51971,-0.38119 0.39264,-0.25411 0.83145,-0.48515 1.31644,-0.69311 0.57767,-0.25411 1.25916,-0.38117 2.04444,-0.38118 0.90088,10e-6 1.73234,0.20214 2.49436,0.6064 z m -3.70717,5.63056 c 0.0116,0.18469 0.13287,0.34048 0.36373,0.46736 0.19632,0.11561 0.39846,0.17341 0.60641,0.17341 0.32356,0 0.60077,-0.0722 0.83163,-0.2165 0.23086,-0.14433 0.37519,-0.30884 0.433,-0.49353 l 0,-0.88397 c -0.48499,0.0927 -0.96998,0.18522 -1.45496,0.27756 -0.53151,0.11526 -0.79145,0.34048 -0.77981,0.67567 z"
         style="font-variant:normal;font-stretch:normal;text-align:start;text-anchor:start;fill:#000000;font-family:CodiceNero;-inkscape-font-specification:CodiceNero"
         id="path5597" />
      <path
         d="m 141.50379,294.90017 0,8.92218 c -1e-5,0.38101 0.0289,0.6235 0.0867,0.72747 0.0116,0.0345 0.0867,0.0807 0.22522,0.13852 0.0694,0.0346 0.16178,0.0518 0.27704,0.0518 0.24249,10e-6 0.56023,-0.0751 0.95323,-0.22522 0.19631,1.7327 0.28284,2.59904 0.25958,2.59904 -0.48499,0.0691 -1.19519,0.13835 -2.13062,0.20778 -0.67003,0 -1.30534,-0.27139 -1.90593,-0.81418 -0.33484,-0.3003 -0.53697,-0.88944 -0.60641,-1.76742 l 0,-9.83998 z"
         style="font-variant:normal;font-stretch:normal;text-align:start;text-anchor:start;fill:#000000;font-family:CodiceNero;-inkscape-font-specification:CodiceNero"
         id="path5599" />
      <path
         d="m 148.80712,298.17435 c 1.10883,10e-6 2.07316,0.39265 2.89299,1.17792 0.92414,0.87798 1.38622,2.033 1.38623,3.46504 -1e-5,0.18469 -0.0289,0.47917 -0.0867,0.88344 l -5.78651,0 c 0.26575,0.82018 0.85488,1.21863 1.76741,1.19537 0.71584,-0.0229 1.42023,-0.30012 2.11317,-0.83163 l 1.85412,1.81922 c -1.4324,0.99324 -2.76647,1.48985 -4.00218,1.48985 -1.1663,0 -2.18262,-0.36374 -3.04896,-1.09122 -0.94707,-0.80854 -1.43787,-1.87684 -1.47241,-3.20492 0,-0.1734 0,-0.43916 0,-0.79726 0.0113,-0.87762 0.3403,-1.72652 0.98707,-2.54671 0.8318,-1.03939 1.96373,-1.55909 3.39578,-1.5591 z m -1.55911,3.43014 3.03151,0 c -0.0691,-0.3232 -0.24223,-0.59741 -0.51944,-0.82264 -0.27721,-0.22522 -0.6065,-0.34364 -0.98786,-0.35528 -0.39264,-0.0116 -0.73329,0.11544 -1.02195,0.38118 -0.2425,0.21959 -0.40992,0.48517 -0.50226,0.79674 z"
         style="font-variant:normal;font-stretch:normal;text-align:start;text-anchor:start;fill:#000000;font-family:CodiceNero;-inkscape-font-specification:CodiceNero"
         id="path5601" />
    </g>
    <g
       style="font-size:17.83117867px;font-style:normal;font-weight:normal;line-height:125%;letter-spacing:0px;word-spacing:0px;fill:#000000;fill-opacity:1;stroke:none;font-family:Sans"
       id="text3844">
      <path
         d="m 284.70958,88.147268 -3.17356,-9.05816 3.12023,0 1.67603,5.153236 1.60474,-5.153236 2.85306,0 -2.79919,9.05816 z"
         style="font-variant:normal;font-stretch:normal;text-align:end;text-anchor:end;fill:#000000;font-family:CodiceNero;-inkscape-font-specification:CodiceNero"
         id="path5645" />
      <path
         d="m 292.26204,79.089108 2.87101,0 0,9.076118 -2.87101,0 z m -0.0533,-2.817683 c 0.29711,-0.594215 0.7845,-0.891328 1.46217,-0.891342 0.26156,1.4e-5 0.50516,0.05352 0.73081,0.160529 0.6062,0.297127 0.9093,0.790502 0.9093,1.480127 0,0.249602 -0.0535,0.48722 -0.16053,0.712855 -0.29711,0.594601 -0.79031,0.891896 -1.47958,0.891886 -0.26156,1e-5 -0.50535,-0.0535 -0.73136,-0.160529 -0.59422,-0.297103 -0.89134,-0.784492 -0.89134,-1.46217 0,-0.261549 0.0535,-0.505335 0.16053,-0.731356 z"
         style="font-variant:normal;font-stretch:normal;text-align:end;text-anchor:end;fill:#000000;font-family:CodiceNero;-inkscape-font-specification:CodiceNero"
         id="path5647" />
      <path
         d="m 303.71561,79.516821 c 0.20206,0.07148 0.43986,0.23799 0.7134,0.499543 0.45165,0.439693 0.67748,0.938873 0.67749,1.49754 l 0,4.154695 c -10e-6,0.214041 0.13675,0.350808 0.4103,0.4103 0.0239,0.01161 0.21421,0.02939 0.57082,0.05333 -0.10702,0.309088 -0.41611,1.040082 -0.92725,2.192983 -0.92727,0 -1.70596,-0.26138 -2.3361,-0.784141 -0.83221,0.546705 -1.66442,0.820056 -2.49663,0.820056 -0.86776,0 -1.63149,-0.279337 -2.2912,-0.838013 -0.65971,-0.558674 -0.98956,-1.254115 -0.98956,-2.086327 0,-1.378907 0.84998,-2.329924 2.54995,-2.853054 0.63014,-0.09504 1.48611,-0.243597 2.56791,-0.44567 0,-0.523116 -0.33285,-0.784678 -0.99854,-0.784685 -0.6657,7e-6 -1.30182,0.172326 -1.90838,0.516956 -0.0356,0.02395 -0.28515,0.214226 -0.74877,0.570828 l -1.35497,-2.050411 c 0.0236,-0.05949 0.20188,-0.190268 0.53491,-0.392343 0.40413,-0.261552 0.85579,-0.499352 1.35497,-0.713399 0.59459,-0.261552 1.29601,-0.392333 2.10428,-0.392343 0.92725,1e-5 1.78304,0.208062 2.56737,0.624157 z m -3.81568,5.795351 c 0.012,0.190098 0.13676,0.350445 0.37439,0.481041 0.20206,0.118994 0.41011,0.178489 0.62415,0.178486 0.33303,3e-6 0.61835,-0.07428 0.85597,-0.222835 0.23762,-0.148554 0.38617,-0.31788 0.44567,-0.507978 l 0,-0.909843 c -0.49918,0.09542 -0.99836,0.190644 -1.49754,0.285687 -0.54707,0.118632 -0.81461,0.350445 -0.80264,0.695442 z"
         style="font-variant:normal;font-stretch:normal;text-align:end;text-anchor:end;fill:#000000;font-family:CodiceNero;-inkscape-font-specification:CodiceNero"
         id="path5649" />
    </g>
    <path
       inkscape:connector-curvature="0"
       d="m 263.2168,331.53715 c 20.2041,0.51672 19.7449,11.93875 19.7449,11.93875 v 15.61222 h 10.102 v -59.63636 l 11.9962,2.12375 c 0.3441,-0.0574 0.6313,-0.17206 0.8035,-0.34465 0.2294,-0.17206 0.2868,-0.63137 0.2868,-0.91835 l -18.1951,-31.22439 -18.2525,31.28179 c 0,0.28678 0.056,0.74614 0.1721,0.86095 0.2294,0.17207 0.4593,0.28678 0.7461,0.22942 l 12.2258,-2.1811 v 28.23969 c -2.3534,-5.33797 -9.6429,-6.25633 -19.4005,-6.14152 l 2.0089,-12.11096 c -0.056,-0.28677 -0.1147,-0.57397 -0.2867,-0.68878 -0.1721,-0.28677 -0.6314,-0.34413 -0.9184,-0.28677 l -31.2244,18.13771 31.2818,18.25248 c 0.2294,0.0574 0.6887,-0.0574 0.861,-0.22942 0.172,-0.17207 0.2294,-0.34413 0.2294,-0.68878 z"
       style="fill:#000000;fill-opacity:1;fill-rule:evenodd;stroke-width:0.15289199"
       id="path7281" />
    <path
       inkscape:connector-curvature="0"
       d="m 446.338,359.02611 -14.0548,0.0616 v -48.14369 l -16.5821,2.89722 c -0.4317,-0.0616 -0.863,-0.18479 -1.1096,-0.43174 -0.308,-0.24639 -0.3696,-0.86299 -0.3696,-1.2945 l 25.089,-43.02728 25.1506,43.08893 c 0,0.43174 -0.1231,1.04794 -0.2464,1.23285 -0.308,0.24639 -0.6164,0.37014 -1.0479,0.30798 l -16.8288,-3.02052 z"
       style="fill:#000000;fill-opacity:1;fill-rule:evenodd;stroke-width:0.15289199"
       id="path7285" />
    <rect
       style="fill:#000000;fill-opacity:1;stroke:none"
       id="rect3954"
       width="15"
       height="50"
       x="316.0415"
       y="314.08813" />
    <rect
       y="234.08812"
       x="316.0415"
       height="50"
       width="15"
       id="rect3956"
       style="fill:#000000;fill-opacity:1;stroke:none" />
    <rect
       style="fill:#000000;fill-opacity:1;stroke:none"
       id="rect3958"
       width="15"
       height="50"
       x="316.0415"
       y="154.08812" />
    <rect
       y="74.08812"
       x="316.0415"
       height="50"
       width="15"
       id="rect3960"
       style="fill:#000000;fill-opacity:1;stroke:none" />
    <rect
       style="fill:none;stroke:#000000;stroke-width:7.19999981;stroke-miterlimit:4;stroke-opacity:1;stroke-dasharray:none"
       id="rect3962"
       width="465.60001"
       height="335.60001"
       x="89.134361"
       y="51.288151"
       rx="25.178572"
       ry="25.178572" />
    <rect
       style="fill:none;stroke:#000000;stroke-width:1;stroke-miterlimit:4;stroke-opacity:1;stroke-dasharray:none"
       id="rect4085"
       width="837.14288"
       height="957.14288"
       x="-0.92276436"
       y="-38.769009"
       inkscape:export-filename="C:\Users\utente\Desktop\Portale.png"
       inkscape:export-xdpi="322.18127"
       inkscape:export-ydpi="322.18127" />
  </g>
</svg>
