<?xml version="1.0" encoding="UTF-8" standalone="no"?>
<svg xmlns="http://www.w3.org/2000/svg" width="834.08563" height="734.98938" version="1.0">
  <path fill="#fff" stroke="#000" stroke-linecap="round" stroke-linejoin="round" stroke-miterlimit="2" stroke-width="3" d="M454.97828 22.43c-7.4343-12.8755-21.9788-20.93-37.9356-20.93-16.2469 0-30.7968 8.495-38.3717 21.6152L8.0043801 665.1866c-7.9552 13.7802-9.1331 31.1377-.6229 45.8778 8.1234999 14.0703 22.7545999 22.425 37.9044999 22.425H788.7994c15.1499 0 29.781-8.3548 37.9045-22.425 8.5102-14.74 7.333-32.098-.623-45.8778L454.97828 22.43z"/>
  <path fill="#d40000" d="M417.05288 16.5053c10.9092 0 20.385 5.5528 24.9376 13.4375l371.09372 642.75c5.549 9.6109 6.2861 21.0698.625 30.875-5.5096 9.5428-15.2711 14.9062-24.9063 14.9063H45.27168c-9.6352 0-19.3966-5.3633-24.9062-14.9063-5.6611-9.8052-4.924-21.2631.625-30.875l370.6562-642.0625c4.8181-8.3452 14.3881-14.125 25.4062-14.125z"/>
  <path fill="#fff" d="M417.02168 146.6928 700.9592 638.4741H133.11548l283.9062-491.7813z"/>
  <path d="M515.80176 434.83929c-.00001 0 32.53767 54.51006 34.37245 57.57946l-11.12231-4.22462-25.98401-46.08949-39.66814-15.03496-13.54347 31.18507-5.70382-2.19104 13.82881-31.02759-46.93347-17.76902-30.20664 24.85959-34.27209-12.96073 55.67846-23.50977 103.55423 39.1831zm104.92444 96.62737-4.10657 19.48316L283.30045 424.8304l17.93022-21.21251 243.84315 92.2607 75.65238 35.58807zm-9.21046 26.61047-17.1266 15.80645-25.57111-4.54205c.2969-.64595.5758-1.31259.83111-1.98745 3.34357-8.83864 2.35376-18.21291-1.94789-25.8562l43.81449 16.57925zm-58.96783-23.13516c2.23539 1.19589 4.21388 2.71266 5.90441 4.4289.0146.0149.0261.008.0408.0225 8.69057 6.33279 12.49996 17.87337 8.5119 28.4157-4.78407 12.64647-18.94147 19.04314-31.58791 14.2591-3.40417-1.28778-6.34289-3.29883-8.74788-5.73239-9.80585-7.06407-13.16228-20.42545-7.30814-31.36738 5.97982-11.17697 19.43606-15.83949 30.91823-11.11898.76552.31464 1.52348.69386 2.26861 1.09256zm-21.6221-7.36111c-8.2845 2.88216-15.27318 9.28189-18.61707 18.12137-.35177.92982-.68993 1.83465-.9465 2.77462l-135.13754-51.1382c.42987-.87447.82111-1.77315 1.17285-2.70295 3.34387-8.8395 2.31399-18.23503-1.98865-25.87871l155.51691 58.82387zm19.37194 21.16864c-.61425-.36864-1.22644-.69106-1.91996-.95337-6.27341-2.37322-13.27174.77878-15.6449 7.0522-1.60168 4.23399-.6874 8.80827 2.00936 12.06381.1788.10768.32126.23365.50735.33328 5.9141 3.16411 13.29159.95769 16.45564-4.95628 2.40717-4.49932 1.67692-9.84855-1.40749-13.53964zm-189.97898-86.56661c11.92209 6.37844 16.40492 21.26467 10.02638 33.18678-6.37849 11.92198-21.22396 16.42725-33.14599 10.0488-11.9221-6.37847-16.50892-21.26898-10.13043-33.19095 5.97984-11.177 19.47682-15.817 30.95901-11.09647.76549.31463 1.54593.65316 2.29103 1.05184zm-21.64455-7.32043c-8.28453 2.88214-15.29141 9.21859-18.63536 18.05821-.34605.91476-.62929 1.8315-.8832 2.75629l-41.57646-18.32178 1.27379-25.14153 59.82123 22.64881zm15.82316 18.25268c-.36955-.19786-.74342-.41068-1.123-.56674-5.69421-2.34027-12.36624-.0215-15.33263 5.52301-3.16407 5.91396-.95774 13.29142 4.95627 16.45563 5.91412 3.16411 13.29158.95769 16.45564-4.95627 3.16403-5.91414.95781-13.29156-4.95628-16.45563z"/>
  <path fill-rule="evenodd" d="M249.90038 479.45649h51.6782v144.13198H165.14815l84.75223-144.13198z"/>
  <path fill="none" stroke="#000" stroke-width="10.42607498" d="M313.72294 602.4506s5.03732-4.39263 11.36921-4.39263c10.5609 0 17.95745 10.07722 30.95525 10.07722 13.25613 0 16.46786-10.07722 30.95524-10.07722 14.48737 0 16.30882 10.07722 30.95524 10.07722 14.9048 0 16.5743-10.07722 30.95524-10.07722 14.63925 0 17.74067 10.07722 30.95526 10.07722 13.47241 0 17.61815-10.07722 30.95523-10.07722 13.30701 0 17.62912 10.07722 30.95522 10.07722 13.32611 0 16.90639-10.07722 30.95527-10.07722 14.04889 0 17.77617 10.07722 30.95518 10.07722 13.17902 0 19.64452-10.07722 30.95523-10.07722 8.72679 0 15.76185 4.39263 15.76185 4.39263m-337.84617 16.40785s5.03731-4.39263 11.36921-4.39263c10.56089 0 17.95744 10.07722 30.95524 10.07722 13.25614 0 16.46787-10.07722 30.95524-10.07722 14.48737 0 16.30883 10.07722 30.95524 10.07722 14.9048 0 16.5743-10.07722 30.95524-10.07722 14.63925 0 17.74068 10.07722 30.95527 10.07722 13.4724 0 19.72538-10.07722 30.95522-10.07722s17.62912 10.07722 30.95523 10.07722 16.90638-10.07722 30.95526-10.07722c14.04889 0 17.77617 10.07722 30.95519 10.07722 13.17901 0 19.64452-10.07722 30.95522-10.07722 14.93711 0 21.44644 7.4933 30.23174 8.0101"/>
  <path d="M-1607.7539 1565.0109zm-2.9688.0625zm-1205.8361-675.57955zm-2.9688.0625z"/>
</svg>