<svg xmlns="http://www.w3.org/2000/svg" width="200" height="200" xmlns:v="https://vecta.io/nano"><path d="M-1.588-3.02h207.715v207.348H-1.588V-3.02z" fill="#fff"/><path d="M21.468 2.404H178.27c10.239 0 18.481 8.314 18.481 18.642v158.169c0 10.328-8.243 18.642-18.481 18.642H21.468c-10.239 0-18.481-8.314-18.481-18.642V21.046c0-10.328 8.243-18.642 18.481-18.642z" fill="none" stroke="#000" stroke-width="2.997"/><path d="M92.182 175.245l-5.07-.842c-12.538-2.007-25.985-8.518-37.118-17.97-4.077-3.461-10.99-11.848-14.313-17.365-15.671-26.013-14.315-59.027 3.438-83.702 21.314-29.624 61.63-39.764 94.466-23.759 20.982 10.227 35.704 28.953 41.193 52.397.863 3.686 1.048 6.66 1.018 16.336-.035 11.409-.1 12.066-1.805 18.498-2.021 7.623-6.35 17.104-10.87 23.807-4.003 5.937-12.416 14.518-18.444 18.815-9.545 6.802-21.143 11.494-32.78 13.262-4.597.698-17.126 1.031-19.716.523zm16.351-5.367c4.96-.616 12.511-2.358 14.859-3.428 1.204-.549 1.675-1.896 4.225-12.09 1.579-6.31 2.87-11.853 2.87-12.319s-3.986-5.667-8.857-11.557l-8.857-10.71h-10.506c-5.778 0-11.324.163-12.323.363-1.509.302-3.431 2.297-11.351 11.783l-9.534 11.42 2.922 11.171c1.607 6.144 3.086 11.364 3.287 11.599.568.666 10.77 3.126 15.34 3.7 5.831.731 12.385.756 17.926.068zm-32.688-40.05l8.866-10.636c.591-.844-.013-2.834-3.91-12.86l-4.609-11.861-3.411-1.101c-1.876-.605-7.883-2.657-13.348-4.559l-9.936-3.458-8.653 6.175c-4.759 3.396-9.476 6.895-10.482 7.775l-1.829 1.6.579 5.633c1.066 10.38 4.29 20.595 9.004 28.529l2.267 3.815 4.636.19c2.55.104 8.691.236 13.648.292l9.013.102 8.166-9.637zm84.623 7.325c5.297-6.167 11.175-24.394 11.123-34.493-.016-3.049-.186-3.57-1.477-4.511-12.872-9.385-19.427-13.861-20.277-13.847-.573.009-6.746 2.37-13.716 5.247l-12.674 5.23-3.769 10.667c-2.073 5.867-3.784 11.197-3.802 11.846-.02.723 3.273 5.165 8.506 11.473l8.539 10.293 13.289-.388c12.337-.36 13.358-.469 14.259-1.517zM88.388 83.449l9.991-7.24V62.317 48.425l-10.451-7.559c-7.938-5.741-10.833-7.541-12.038-7.484-2.127.101-12.057 5.124-17.383 8.793-4.966 3.421-14.038 12.238-14.504 14.096-.277 1.104 7.074 25.387 7.961 26.297.689.707 24.257 8.415 25.299 8.275.624-.084 5.63-3.411 11.125-7.393zm48.807 2.189c7.309-2.974 13.584-5.699 13.944-6.056.66-.654 6.95-19.839 6.95-21.198 0-1.211-6.009-8.169-10.032-11.615-2.073-1.776-5.5-4.353-7.615-5.726-3.768-2.446-14.394-7.758-16.242-8.119-.514-.1-5.774 3.314-11.689 7.587l-10.753 7.769.023 14.2.022 14.2 4.867 3.38c11.968 8.311 16.008 10.984 16.599 10.984.349 0 6.615-2.433 13.925-5.407h0z"/></svg>