<?xml version="1.0" encoding="UTF-8" standalone="no"?>
<!-- Created with Inkscape (http://www.inkscape.org/) -->

<svg
   xmlns:dc="http://purl.org/dc/elements/1.1/"
   xmlns:cc="http://creativecommons.org/ns#"
   xmlns:rdf="http://www.w3.org/1999/02/22-rdf-syntax-ns#"
   xmlns:svg="http://www.w3.org/2000/svg"
   xmlns="http://www.w3.org/2000/svg"
   xmlns:sodipodi="http://sodipodi.sourceforge.net/DTD/sodipodi-0.dtd"
   xmlns:inkscape="http://www.inkscape.org/namespaces/inkscape"
   version="1.0"
   width="198.99997"
   height="174.87384"
   id="svg2"
   sodipodi:version="0.32"
   inkscape:version="0.48.4 r9939"
   sodipodi:docname="AJAX1.svg">
  <metadata
     id="metadata12">
    <rdf:RDF>
      <cc:Work
         rdf:about="">
        <dc:format>image/svg+xml</dc:format>
        <dc:type
           rdf:resource="http://purl.org/dc/dcmitype/StillImage" />
      </cc:Work>
    </rdf:RDF>
  </metadata>
  <sodipodi:namedview
     inkscape:window-height="1003"
     inkscape:window-width="1280"
     inkscape:pageshadow="2"
     inkscape:pageopacity="0.0"
     guidetolerance="10.0"
     gridtolerance="10.0"
     objecttolerance="10.0"
     borderopacity="1.0"
     bordercolor="#666666"
     pagecolor="#ffffff"
     id="base"
     inkscape:zoom="2.8531759"
     inkscape:cx="98.967899"
     inkscape:cy="73.424491"
     inkscape:window-x="-4"
     inkscape:window-y="-4"
     inkscape:current-layer="svg2"
     width="200px"
     height="200px"
     showgrid="false"
     inkscape:window-maximized="0"
     fit-margin-top="0"
     fit-margin-left="0"
     fit-margin-right="0"
     fit-margin-bottom="0" />
  <defs
     id="defs4">
    <inkscape:perspective
       sodipodi:type="inkscape:persp3d"
       inkscape:vp_x="0 : 100 : 1"
       inkscape:vp_y="0 : 1000 : 0"
       inkscape:vp_z="200 : 100 : 1"
       inkscape:persp3d-origin="100 : 66.666667 : 1"
       id="perspective10" />
  </defs>
  <path
     style="fill:#fff500;fill-opacity:1;fill-rule:evenodd;stroke:none"
     d="m 9.4600164,174.87384 c -3.3797385,0 -6.5027442,-1.80309 -8.1926166,-4.73002 -1.6898664,-2.92694 -1.6898664,-6.53307 0,-9.46002 L 91.307367,4.730002 C 92.997242,1.803066 96.120246,0 99.499987,0 102.87972,0 106.00273,1.803066 107.6926,4.730002 L 197.73257,160.6838 c 1.68987,2.92695 1.68987,6.53308 0,9.46002 -1.68987,2.92693 -4.81288,4.73002 -8.19261,4.73002 l -180.0799436,0 z"
     id="path1902"
     inkscape:connector-curvature="0" />
  <path
     style="fill:#d40000;fill-opacity:1;fill-rule:evenodd;stroke:none"
     d="m 99.499991,2.499422 c -2.490587,0 -4.78595,1.311841 -6.03125,3.46875 L 3.4374906,161.93692 c -1.2452932,2.15692 -1.2452877,4.81185 0,6.96875 1.2452964,2.15691 3.5406779,3.46875 6.03125,3.46875 l 180.0624994,0 c 2.49056,0 4.78596,-1.31185 6.03125,-3.46875 1.24529,-2.15691 1.2453,-4.81184 0,-6.96875 L 105.53124,5.968172 c -1.24529,-2.156905 -3.54067,-3.46875 -6.031249,-3.46875 z m 0,33 67.468749,116.874998 -134.937499,0 67.46875,-116.874998 z"
     id="path4558"
     inkscape:connector-curvature="0" />
  <path
     style="fill:#000000;fill-opacity:1;fill-rule:evenodd;stroke:none"
     d="m 113.21658,85.628217 c 0,0 -10.05761,17.906393 -10.90408,19.527453 -0.82094,1.57218 0.28608,2.20374 1.375,1.9375 1.94598,-0.47578 6.6875,-1.0625 6.6875,-1.0625 l 0,33.6875 8.34375,0 0,-33.6875 c 0,0 4.74152,0.58672 6.6875,1.0625 1.08892,0.26624 2.16469,-0.36532 1.34375,-1.9375 -0.84647,-1.62106 -10.90408,-19.527453 -10.90408,-19.527453 -0.89256,-1.657016 -1.71768,-1.661346 -2.62934,0 z"
     id="path1881"
     sodipodi:nodetypes="cssccccsscc"
     inkscape:connector-curvature="0" />
  <path
     sodipodi:nodetypes="cssccccsscc"
     id="path2776"
     d="m 82.7333,138.47378 c 0,0 -10.05761,-17.90639 -10.90408,-19.52745 -0.82094,-1.57218 0.28608,-2.20374 1.375,-1.9375 1.94598,0.47578 6.6875,1.0625 6.6875,1.0625 l 0,-33.687499 8.34375,0 0,33.687499 c 0,0 4.74152,-0.58672 6.6875,-1.0625 1.08892,-0.26624 2.16469,0.36532 1.34375,1.9375 -0.84647,1.62106 -10.90408,19.52745 -10.90408,19.52745 -0.89256,1.65702 -1.71768,1.66135 -2.62934,0 z"
     style="fill:#000000;fill-opacity:1;fill-rule:evenodd;stroke:none"
     inkscape:connector-curvature="0" />
</svg>
