<?xml version="1.0" encoding="UTF-8" standalone="no"?>
<!-- Created with Inkscape (http://www.inkscape.org/) -->

<svg
   xmlns:dc="http://purl.org/dc/elements/1.1/"
   xmlns:cc="http://creativecommons.org/ns#"
   xmlns:rdf="http://www.w3.org/1999/02/22-rdf-syntax-ns#"
   xmlns:svg="http://www.w3.org/2000/svg"
   xmlns="http://www.w3.org/2000/svg"
   xmlns:sodipodi="http://sodipodi.sourceforge.net/DTD/sodipodi-0.dtd"
   xmlns:inkscape="http://www.inkscape.org/namespaces/inkscape"
   width="200"
   height="200"
   id="svg9733"
   version="1.1"
   inkscape:version="0.48.5 r10040"
   sodipodi:docname="Nuovo documento 18">
  <defs
     id="defs9735" />
  <sodipodi:namedview
     id="base"
     pagecolor="#ffffff"
     bordercolor="#666666"
     borderopacity="1.0"
     inkscape:pageopacity="0.0"
     inkscape:pageshadow="2"
     inkscape:zoom="0.35"
     inkscape:cx="375"
     inkscape:cy="520.01282"
     inkscape:document-units="px"
     inkscape:current-layer="layer1"
     showgrid="false"
     fit-margin-top="0"
     fit-margin-left="0"
     fit-margin-right="0"
     fit-margin-bottom="0"
     inkscape:window-width="1366"
     inkscape:window-height="705"
     inkscape:window-x="-8"
     inkscape:window-y="-8"
     inkscape:window-maximized="1" />
  <metadata
     id="metadata9738">
    <rdf:RDF>
      <cc:Work
         rdf:about="">
        <dc:format>image/svg+xml</dc:format>
        <dc:type
           rdf:resource="http://purl.org/dc/dcmitype/StillImage" />
        <dc:title></dc:title>
      </cc:Work>
    </rdf:RDF>
  </metadata>
  <g
     inkscape:label="Livello 1"
     inkscape:groupmode="layer"
     id="layer1"
     transform="translate(0,-852.375)">
    <rect
       style="fill:#00408b;fill-opacity:1;stroke:#00408b;stroke-width:5;stroke-linejoin:miter;stroke-miterlimit:4;stroke-opacity:1;stroke-dasharray:none"
       id="rect19065-3-6"
       width="195"
       height="195"
       x="2.5"
       y="854.86218"
       rx="22.534565"
       ry="22.534565" />
    <g
       style="font-size:198.86080933px;font-style:normal;font-weight:normal;line-height:125%;letter-spacing:0px;word-spacing:0px;fill:#ffffff;fill-opacity:1;stroke:none;font-family:Sans"
       id="text9194-0"
       transform="translate(-0.79441113,1152.3622)">
      <path
         d="m 108.45006,-269.99999 c 11.79756,1.5e-4 22.27019,4.17747 31.41792,12.53197 9.81103,9.14775 14.7166,20.48214 14.71672,34.00321 -1.2e-4,12.99126 -4.97245,23.92916 -14.91699,32.81373 -9.14773,8.35066 -19.5536,12.52595 -31.21765,12.5259 l -32.018727,0 0,48.12519 -29.42737,0 0,-140 z m -32.018727,24.8576 0,41.3646 30.028177,0 c 4.774,8e-5 9.08281,-2.12094 12.92644,-6.36308 3.84345,-4.24197 5.76522,-8.75003 5.76531,-13.52421 -9e-5,-5.96345 -2.12011,-11.13402 -6.36005,-15.51173 -3.84362,-3.97693 -7.95419,-5.96546 -12.3317,-5.96558 z"
         style="font-variant:normal;font-stretch:normal;fill:#ffffff;fill-opacity:1;font-family:CodiceBianco;-inkscape-font-specification:CodiceBianco"
         id="path9731"
         inkscape:connector-curvature="0" />
    </g>
  </g>
</svg>
