<?xml version="1.0" encoding="UTF-8" standalone="no"?>
<!-- Created with Inkscape (http://www.inkscape.org/) -->

<svg
   xmlns:dc="http://purl.org/dc/elements/1.1/"
   xmlns:cc="http://creativecommons.org/ns#"
   xmlns:rdf="http://www.w3.org/1999/02/22-rdf-syntax-ns#"
   xmlns:svg="http://www.w3.org/2000/svg"
   xmlns="http://www.w3.org/2000/svg"
   xmlns:sodipodi="http://sodipodi.sourceforge.net/DTD/sodipodi-0.dtd"
   xmlns:inkscape="http://www.inkscape.org/namespaces/inkscape"
   width="1980.9559"
   height="1701.9647"
   id="svg2"
   version="1.1"
   inkscape:version="0.48.5 r10040"
   sodipodi:docname="CANC giustoo.svg">
  <defs
     id="defs4" />
  <sodipodi:namedview
     id="base"
     pagecolor="#ffffff"
     bordercolor="#666666"
     borderopacity="1.0"
     inkscape:pageopacity="0.0"
     inkscape:pageshadow="2"
     inkscape:zoom="0.22627417"
     inkscape:cx="655.67068"
     inkscape:cy="900.31095"
     inkscape:document-units="px"
     inkscape:current-layer="g1439"
     showgrid="false"
     inkscape:object-nodes="true"
     inkscape:object-paths="true"
     inkscape:snap-object-midpoints="true"
     inkscape:snap-global="false"
     inkscape:snap-midpoints="true"
     fit-margin-top="0"
     fit-margin-left="0"
     fit-margin-right="0"
     fit-margin-bottom="0"
     inkscape:window-width="1366"
     inkscape:window-height="705"
     inkscape:window-x="-8"
     inkscape:window-y="-8"
     inkscape:window-maximized="1" />
  <metadata
     id="metadata7">
    <rdf:RDF>
      <cc:Work
         rdf:about="">
        <dc:format>image/svg+xml</dc:format>
        <dc:type
           rdf:resource="http://purl.org/dc/dcmitype/StillImage" />
        <dc:title></dc:title>
      </cc:Work>
    </rdf:RDF>
  </metadata>
  <g
     inkscape:label="Livello 1"
     inkscape:groupmode="layer"
     id="layer1"
     transform="translate(430.42618,507.35686)">
    <g
       id="g1439"
       transform="matrix(3.7669712,0,0,3.7669712,-2114.8509,-3792.5089)">
      <rect
         style="fill:none;stroke:#000000;stroke-width:0.26546526;stroke-miterlimit:4;stroke-opacity:1;stroke-dasharray:none"
         id="rect5837"
         width="525.61377"
         height="451.54926"
         x="447.27576"
         y="872.21527" />
      <path
         style="fill:#f2ef0c;fill-opacity:1;stroke:none"
         d="m 561.41945,991.6726 0,-106.18395 297.34204,0 c 6.21287,0 11.91488,1.3552 18.3381,4.8707 l 79.74441,43.5481 c 1.82993,1.0485 2.77334,2.7172 2.77334,4.63305 0,1.9575 -0.90417,3.5869 -2.69343,4.6684 l -80.13969,43.7953 c -5.46314,2.9941 -11.66508,4.6705 -18.03937,4.6705 z"
         id="path9474"
         inkscape:connector-curvature="0"
         sodipodi:nodetypes="cccccccccc" />
      <path
         style="fill:#000000;fill-opacity:1;stroke:none"
         d="m 585.32643,989.0198 c -11.72964,0 -21.25681,-9.4771 -21.25679,-21.2543 l -2e-5,-58.40575 c 0,-12.0146 9.81202,-21.2194 21.25532,-21.2194 l 273.40735,0 c 6.35155,0 11.52708,1.4802 16.96487,4.4819 l 79.9051,43.6358 c 0.86547,0.49455 1.27947,1.31085 1.35053,2.16435 0.052,1.0605 -0.49241,1.9665 -1.36096,2.4696 l -80.34264,43.8965 c -4.8835,2.6534 -10.44369,4.2459 -16.52863,4.2459 z"
         id="path9476"
         inkscape:connector-curvature="0"
         sodipodi:nodetypes="cccccccccccc" />
      <path
         style="fill:#f2ef0c;fill-opacity:1;stroke:none"
         d="m 880.3345,901.07305 c -9.52628,-9.5262 -21.57877,-8.9486 -21.57877,-8.9486 l -273.42776,0 c -9.32235,0 -17.27184,7.4954 -17.27184,17.2377 l -2e-5,58.40335 c 2e-5,9.547 7.66366,17.2712 17.27032,17.2712 l 273.43166,0 c 0,0 11.70314,0.9239 21.58227,-8.9552 l 37.50178,-37.5017 z"
         id="path9478"
         inkscape:connector-curvature="0"
         sodipodi:nodetypes="cccccsccc" />
      <g
         style="font-size:52.94210434px;font-style:normal;font-weight:normal;line-height:125%;letter-spacing:0px;word-spacing:0px;fill:#000000;fill-opacity:1;stroke:none;font-family:Sans"
         id="text9480-1">
        <path
           d="m 635.38067,920.13832 7.83598,0 0,37.00681 -6.51275,0 -0.58164,-1.11158 c -1.09435,1.02326 -2.3648,1.53488 -3.81135,1.53488 -2.04759,0 -3.77743,-0.98825 -5.18951,-2.96474 -1.62321,-2.32871 -2.43481,-5.57565 -2.43481,-9.74085 0,-4.51738 0.91769,-7.94097 2.75309,-10.27078 1.51764,-1.90538 3.31749,-2.85808 5.39955,-2.85811 0.98878,3e-5 1.83593,0.22945 2.54144,0.68827 z m 0,28.95918 0,-8.94594 c -10e-6,-1.16541 -0.40554,-1.74812 -1.21659,-1.74815 -0.63551,3e-5 -1.16544,0.47665 -1.58982,1.42987 -0.49332,1.1299 -0.73998,2.77088 -0.73997,4.92293 0.0345,4.09518 0.75774,6.14276 2.16984,6.14276 0.91768,0 1.37653,-0.60048 1.37654,-1.80147 z"
           style="font-variant:normal;font-stretch:normal;text-align:center;text-anchor:middle;fill:#000000;font-family:CodiceNeroCondensed;-inkscape-font-specification:CodiceNeroCondensed"
           id="path5858" />
        <path
           d="m 657.4345,931.46898 c 3.06975,3e-5 5.46954,1.41158 7.1994,4.23466 1.51763,2.47091 2.27645,5.43565 2.27647,8.89423 -2e-5,0.74107 -0.035,1.48212 -0.10502,2.22316 l -11.59562,0 c -0.0345,1.09435 0.12439,2.0826 0.47662,2.96474 0.45884,1.16544 1.14711,1.74816 2.06482,1.74815 1.62427,1e-5 2.78916,-1.39431 3.49468,-4.18295 l 5.66452,3.01806 c -1.30548,2.7531 -3.10532,4.74736 -5.39955,5.9828 -1.48319,0.7766 -2.91252,1.1649 -4.28797,1.1649 -2.64755,0 -4.9154,-1.13823 -6.80357,-3.41471 -1.88818,-2.27646 -2.83226,-5.03844 -2.83226,-8.28594 0,-4.41182 1.00602,-7.95928 3.01806,-10.64238 1.86986,-2.46979 4.14633,-3.70469 6.82942,-3.70472 z m -2.22477,10.11083 4.23627,0 c -10e-6,-2.43532 -0.65328,-3.653 -1.9598,-3.65302 -1.41103,2e-5 -2.16985,1.2177 -2.27647,3.65302 z"
           style="font-variant:normal;font-stretch:normal;text-align:center;text-anchor:middle;fill:#000000;font-family:CodiceNeroCondensed;-inkscape-font-specification:CodiceNeroCondensed"
           id="path5860" />
        <path
           d="m 688.88503,931.83897 -4.65958,25.30616 -10.00581,0 -4.87123,-25.30616 7.41267,0 2.43481,13.13051 2.27647,-13.13051 z"
           style="font-variant:normal;font-stretch:normal;text-align:center;text-anchor:middle;fill:#000000;font-family:CodiceNeroCondensed;-inkscape-font-specification:CodiceNeroCondensed"
           id="path5862" />
        <path
           d="m 696.82926,920.03331 c 1.23543,3e-5 2.19729,0.38833 2.88557,1.16489 0.68827,0.77663 1.0324,1.69433 1.03241,2.75309 -1e-5,1.05884 -0.31775,1.95876 -0.95324,2.69978 -0.74106,0.77663 -1.72931,1.1827 -2.96474,1.21821 -1.271,0.0345 -2.25063,-0.33657 -2.9389,-1.11319 -0.68827,-0.77657 -1.03241,-1.69426 -1.03241,-2.7531 0,-1.05876 0.34414,-1.98507 1.03241,-2.77894 0.68827,-0.79379 1.6679,-1.19071 2.9389,-1.19074 z m -3.86467,11.64732 7.72934,0 0,25.62445 -7.72934,0 z"
           style="font-variant:normal;font-stretch:normal;text-align:center;text-anchor:middle;fill:#000000;font-family:CodiceNeroCondensed;-inkscape-font-specification:CodiceNeroCondensed"
           id="path5864" />
        <path
           d="m 722.77521,938.19176 0,11.85898 c -2e-5,1.02434 0.4766,1.53651 1.42987,1.5365 0.38881,1e-5 0.77711,-0.0711 1.16489,-0.21327 l -1.85317,5.77116 c -0.59997,0.17664 -1.25269,0.26497 -1.95818,0.26496 -2.08315,1e-5 -3.81245,-0.72327 -5.1879,-2.16983 -1.34209,1.44656 -3.05416,2.16984 -5.1362,2.16983 -1.76431,1e-5 -3.22918,-0.54716 -4.39461,-1.64151 -1.341,-1.23544 -2.0115,-2.94697 -2.0115,-5.13458 0,-1.58873 0.37052,-3.10638 1.11158,-4.55295 1.02432,-1.97648 2.59529,-3.47689 4.71289,-4.50124 l 4.39299,-2.11652 c -1e-5,-0.28218 -0.035,-0.52938 -0.10502,-0.74159 -0.14111,-0.49437 -0.40608,-0.77657 -0.7949,-0.84661 -1.76432,-0.28218 -3.72304,0.74107 -5.87618,3.06976 l -3.5997,-4.55294 c 3.38859,-3.21191 6.7944,-4.81788 10.21747,-4.81791 1.48209,3e-5 2.92918,0.31777 4.34129,0.95324 1.27097,0.56443 2.22367,1.4999 2.85811,2.80641 0.45883,0.98773 0.68825,1.94044 0.68827,2.85811 z m -7.72934,7.72934 c -0.63443,0.2833 -1.19883,0.75992 -1.69321,1.42987 -0.63551,0.84769 -0.95326,1.73038 -0.95325,2.64807 -10e-6,0.59996 0.21165,0.89993 0.63496,0.89993 0.5644,0 1.2349,-0.37106 2.0115,-1.1132 z"
           style="font-variant:normal;font-stretch:normal;text-align:center;text-anchor:middle;fill:#000000;font-family:CodiceNeroCondensed;-inkscape-font-specification:CodiceNeroCondensed"
           id="path5866" />
        <path
           d="m 728.30886,931.574 15.1404,0 0,6.03612 -7.1994,13.34055 7.35935,0 0,6.45942 -15.61863,0 0,-6.03612 7.20102,-13.44718 -6.88274,0 z"
           style="font-variant:normal;font-stretch:normal;text-align:center;text-anchor:middle;fill:#000000;font-family:CodiceNeroCondensed;-inkscape-font-specification:CodiceNeroCondensed"
           id="path5868" />
        <path
           d="m 751.83941,920.03331 c 1.23544,3e-5 2.1973,0.38833 2.88558,1.16489 0.68826,0.77663 1.0324,1.69433 1.03241,2.75309 -10e-6,1.05884 -0.31776,1.95876 -0.95324,2.69978 -0.74106,0.77663 -1.72931,1.1827 -2.96475,1.21821 -1.27099,0.0345 -2.25062,-0.33657 -2.93889,-1.11319 -0.68828,-0.77657 -1.03242,-1.69426 -1.03241,-2.7531 -10e-6,-1.05876 0.34413,-1.98507 1.03241,-2.77894 0.68827,-0.79379 1.6679,-1.19071 2.93889,-1.19074 z m -3.86467,11.64732 7.72934,0 0,25.62445 -7.72934,0 z"
           style="font-variant:normal;font-stretch:normal;text-align:center;text-anchor:middle;fill:#000000;font-family:CodiceNeroCondensed;-inkscape-font-specification:CodiceNeroCondensed"
           id="path5870" />
        <path
           d="m 769.95101,931.52068 c 3.10529,3e-5 5.55841,1.41212 7.35935,4.23628 1.58764,2.50537 2.38147,5.52289 2.38149,9.05257 -2e-5,3.38859 -0.79385,6.31833 -2.38149,8.78921 -1.87095,2.82311 -4.37739,4.23466 -7.5193,4.23466 -2.89313,0 -5.25738,-1.27045 -7.09277,-3.81135 -1.76539,-2.43534 -2.64808,-5.50618 -2.64807,-9.21252 -10e-6,-3.49413 0.75882,-6.45887 2.27647,-8.89424 1.76537,-2.92971 4.30681,-4.39458 7.62432,-4.39461 z m -0.10663,19.69496 c 0.95322,0 1.62373,-0.63495 2.0115,-1.90487 0.24772,-0.91769 0.37159,-2.43587 0.3716,-4.55456 -10e-6,-1.8343 -0.0706,-3.13976 -0.21165,-3.91637 -0.35331,-1.69428 -1.07712,-2.54142 -2.17145,-2.54144 -0.98773,2e-5 -1.65823,0.67052 -2.01151,2.0115 -0.24666,0.88217 -0.36999,2.36427 -0.36998,4.44631 -10e-6,2.25979 0.10554,3.79521 0.31667,4.60626 0.35328,1.23545 1.04155,1.85317 2.06482,1.85317 z"
           style="font-variant:normal;font-stretch:normal;text-align:center;text-anchor:middle;fill:#000000;font-family:CodiceNeroCondensed;-inkscape-font-specification:CodiceNeroCondensed"
           id="path5872" />
        <path
           d="m 802.21907,937.45179 0,19.9583 -7.46437,0 0,-17.78846 c -2e-5,-0.98877 -0.52942,-1.48316 -1.5882,-1.48318 -1.05881,2e-5 -1.58821,0.49441 -1.5882,1.48318 l 0,17.78846 -7.46599,0 0,-25.35947 6.08944,0 0.42331,1.11158 c 1.30544,-1.26989 2.84086,-1.90484 4.60626,-1.90487 1.79983,3e-5 3.41442,0.62637 4.84376,1.87902 1.4293,1.2527 2.14397,2.69118 2.14399,4.31544 z"
           style="font-variant:normal;font-stretch:normal;text-align:center;text-anchor:middle;fill:#000000;font-family:CodiceNeroCondensed;-inkscape-font-specification:CodiceNeroCondensed"
           id="path5874" />
        <path
           d="m 815.95061,931.46898 c 3.06974,3e-5 5.46954,1.41158 7.1994,4.23466 1.51763,2.47091 2.27645,5.43565 2.27647,8.89423 -2e-5,0.74107 -0.035,1.48212 -0.10502,2.22316 l -11.59563,0 c -0.0345,1.09435 0.1244,2.0826 0.47663,2.96474 0.45883,1.16544 1.14711,1.74816 2.06482,1.74815 1.62426,1e-5 2.78916,-1.39431 3.49468,-4.18295 l 5.66452,3.01806 c -1.30548,2.7531 -3.10533,4.74736 -5.39955,5.9828 -1.4832,0.7766 -2.91252,1.1649 -4.28798,1.1649 -2.64754,0 -4.91539,-1.13823 -6.80356,-3.41471 -1.88818,-2.27646 -2.83226,-5.03844 -2.83226,-8.28594 0,-4.41182 1.00602,-7.95928 3.01806,-10.64238 1.86986,-2.46979 4.14633,-3.70469 6.82942,-3.70472 z m -2.22478,10.11083 4.23628,0 c -2e-5,-2.43532 -0.65328,-3.653 -1.9598,-3.65302 -1.41103,2e-5 -2.16985,1.2177 -2.27648,3.65302 z"
           style="font-variant:normal;font-stretch:normal;text-align:center;text-anchor:middle;fill:#000000;font-family:CodiceNeroCondensed;-inkscape-font-specification:CodiceNeroCondensed"
           id="path5876" />
      </g>
      <path
         sodipodi:nodetypes="cccccccccc"
         inkscape:connector-curvature="0"
         id="path5189"
         d="m 561.41945,1286.1463 0,-106.184 297.34204,0 c 6.21287,0 11.91488,1.3552 18.3381,4.8707 l 79.74441,43.5481 c 1.82993,1.0485 2.77334,2.7172 2.77334,4.6331 0,1.9575 -0.90417,3.5869 -2.69343,4.6684 l -80.13969,43.7953 c -5.46314,2.9941 -11.66508,4.6705 -18.03937,4.6705 z"
         style="fill:#08842c;fill-opacity:1;stroke:none" />
      <path
         sodipodi:nodetypes="cccccccccccc"
         inkscape:connector-curvature="0"
         id="path5191"
         d="m 585.32643,1283.4935 c -11.72964,0 -21.25681,-9.4771 -21.25679,-21.2543 l -2e-5,-58.4058 c 0,-12.0146 9.81202,-21.2194 21.25532,-21.2194 l 273.40735,0 c 6.35155,0 11.52708,1.4802 16.96487,4.4819 l 79.9051,43.6358 c 0.86547,0.4946 1.27947,1.3109 1.35053,2.1644 0.052,1.0605 -0.49241,1.9665 -1.36096,2.4696 l -80.34264,43.8965 c -4.8835,2.6534 -10.44369,4.2459 -16.52863,4.2459 z"
         style="fill:#ffffff;fill-opacity:1;stroke:none" />
      <path
         sodipodi:nodetypes="cccccsccc"
         inkscape:connector-curvature="0"
         id="path5193"
         d="m 880.3345,1195.5467 c -9.52628,-9.5262 -21.57877,-8.9486 -21.57877,-8.9486 l -273.42776,0 c -9.32235,0 -17.27184,7.4954 -17.27184,17.2377 l -2e-5,58.4034 c 2e-5,9.547 7.66366,17.2712 17.27032,17.2712 l 273.43166,0 c 0,0 11.70314,0.9239 21.58227,-8.9552 l 37.50178,-37.5017 z"
         style="fill:#08842c;fill-opacity:1;stroke:none" />
      <path
         style="fill:#f2ef0c;fill-opacity:1;stroke:none"
         d="m 858.74485,1166.6869 0,-106.184 -297.34204,0 c -6.21287,0 -11.91488,1.3552 -18.3381,4.8707 l -79.74441,43.5481 c -1.82993,1.0485 -2.77334,2.7172 -2.77334,4.6331 0,1.9575 0.90417,3.5869 2.69343,4.6684 l 80.13969,43.7953 c 5.46314,2.9941 11.66508,4.6705 18.03937,4.6705 z"
         id="path5199"
         inkscape:connector-curvature="0"
         sodipodi:nodetypes="cccccccccc" />
      <path
         style="fill:#000000;fill-opacity:1;stroke:none"
         d="m 834.83787,1164.0341 c 11.72964,0 21.25681,-9.4771 21.25679,-21.2543 l 2e-5,-58.4058 c 0,-12.0146 -9.81202,-21.2194 -21.25532,-21.2194 l -273.40735,0 c -6.35155,0 -11.52708,1.4802 -16.96487,4.4819 l -79.9051,43.6358 c -0.86547,0.4946 -1.27947,1.3109 -1.35053,2.1644 -0.052,1.0605 0.49241,1.9665 1.36096,2.4696 l 80.34264,43.8965 c 4.8835,2.6534 10.44369,4.2459 16.52863,4.2459 z"
         id="path5201"
         inkscape:connector-curvature="0"
         sodipodi:nodetypes="cccccccccccc" />
      <path
         style="fill:#f2ef0c;fill-opacity:1;stroke:none"
         d="m 539.8298,1076.0873 c 9.52628,-9.5262 21.57877,-8.9486 21.57877,-8.9486 l 273.42776,0 c 9.32235,0 17.27184,7.4954 17.27184,17.2377 l 2e-5,58.4034 c -2e-5,9.547 -7.66366,17.2712 -17.27032,17.2712 l -273.43166,0 c 0,0 -11.70314,0.9239 -21.58227,-8.9552 l -37.50178,-37.5017 z"
         id="path5203"
         inkscape:connector-curvature="0"
         sodipodi:nodetypes="cccccsccc" />
      <g
         style="font-size:52.86626053px;font-style:normal;font-weight:normal;line-height:125%;letter-spacing:0px;word-spacing:0px;fill:#ffffff;fill-opacity:1;stroke:none;font-family:Sans"
         id="text5195-4-9">
        <path
           d="m 687.82917,1232.2699 c -4e-5,5.9554 -1.70912,10.7132 -5.12723,14.2733 -3.27728,3.3837 -7.50641,5.0756 -12.68739,5.0756 -5.18102,0 -9.39293,-1.6919 -12.63576,-5.0756 -3.41815,-3.5601 -5.12723,-8.3179 -5.12722,-14.2733 -10e-6,-5.8156 1.88546,-10.4857 5.6564,-14.0103 3.38372,-3.1364 7.41925,-4.7045 12.10658,-4.7046 4.6873,10e-5 8.72282,1.5682 12.10658,4.7046 3.80532,3.5246 5.708,8.1947 5.70804,14.0103 z m -8.14097,0 c -3e-5,-3.4891 -0.88979,-6.2735 -2.66929,-8.3531 -1.77955,-2.0796 -4.11433,-3.1194 -7.00436,-3.1194 -2.89006,0 -5.20737,1.0398 -6.95192,3.1194 -1.74459,2.0796 -2.61687,4.864 -2.61686,8.3531 -1e-5,3.6301 0.73998,6.4669 2.21997,8.5104 1.65636,2.3265 4.10596,3.4897 7.34881,3.4897 3.27723,0 5.74404,-1.1632 7.40044,-3.4897 1.51544,-2.079 2.27318,-4.9158 2.27321,-8.5104 z"
           style="font-variant:normal;font-stretch:normal;text-align:center;text-anchor:middle;fill:#ffffff;font-family:CodiceBianco;-inkscape-font-specification:CodiceBianco"
           id="path5840" />
        <path
           d="m 712.01813,1213.9245 c 2.85452,0 5.37458,1.0396 7.56015,3.1186 2.29093,2.1856 3.43641,4.8643 3.43644,8.0361 -3e-5,2.8546 -0.95191,5.2864 -2.85563,7.2956 -1.4101,1.5155 -3.11917,2.626 -5.12723,3.3315 l 9.56878,15.3833 -8.35392,0 -9.14609,-14.7492 -5.54992,0 0,14.7492 -7.34881,0 0,-37.1651 z m -10.46742,6.6083 0,9.2525 9.09284,0 c 0.95186,10e-5 1.88598,-0.4407 2.80239,-1.3221 0.91636,-0.8814 1.37455,-1.9739 1.37457,-3.2775 -2e-5,-1.3047 -0.44961,-2.4063 -1.34876,-3.305 -0.89919,-0.8986 -1.87742,-1.3479 -2.93468,-1.3479 z"
           style="font-variant:normal;font-stretch:normal;text-align:center;text-anchor:middle;fill:#ffffff;font-family:CodiceBianco;-inkscape-font-specification:CodiceBianco"
           id="path5842" />
        <path
           d="m 758.73268,1213.8713 0,6.8196 -11.5774,0 0,30.3987 -7.71827,0 0,-30.4503 -11.5774,0 0,-6.768 z"
           style="font-variant:normal;font-stretch:normal;text-align:center;text-anchor:middle;fill:#ffffff;font-family:CodiceBianco;-inkscape-font-specification:CodiceBianco"
           id="path5844" />
        <path
           d="m 789.37827,1213.9245 0,6.7148 -18.02758,0 0,7.9828 16.17707,0 0,6.7132 -16.12383,0 0,8.5652 19.82485,0 0,7.1891 -27.43825,0 0,-37.1651 z"
           style="font-variant:normal;font-stretch:normal;text-align:center;text-anchor:middle;fill:#ffffff;font-family:CodiceBianco;-inkscape-font-specification:CodiceBianco"
           id="path5846" />
      </g>
      <g
         style="font-size:52.86626053px;font-style:normal;font-weight:normal;line-height:125%;letter-spacing:0px;word-spacing:0px;fill:#000000;fill-opacity:1;stroke:none;font-family:Sans"
         id="text5195-4-9-8">
        <path
           d="m 662.83524,1132.1595 -16.44004,-23.2613 0,23.3145 -9.04121,0 0,-37.4297 9.78013,0 16.70624,24.1067 -0.10648,-24.16 8.67014,0 0,37.4298 z"
           style="font-variant:normal;font-stretch:normal;text-align:center;text-anchor:middle;fill:#000000;font-family:CodiceNero;-inkscape-font-specification:CodiceNero"
           id="path5849" />
        <path
           d="m 701.97512,1108.7401 c 2.43182,2.6427 3.64775,5.7441 3.64778,9.3042 -3e-5,4.6163 -1.49775,8.3523 -4.49318,11.2079 -2.60827,2.4663 -5.58651,3.6994 -8.93473,3.6994 -4.96913,0 -8.81052,-1.9204 -11.52416,-5.7612 -0.95188,-1.3746 -1.58647,-2.5378 -1.90376,-3.4897 -0.45819,-1.2692 -0.68729,-2.996 -0.68728,-5.1805 -10e-6,-4.512 1.51547,-8.1248 4.54642,-10.8385 2.53833,-2.2909 5.65747,-3.4364 9.35743,-3.4364 3.8774,0 7.20789,1.4983 9.99148,4.4948 z m -15.70113,8.1409 0,2.9073 c -10e-6,1.4456 0.56413,2.697 1.69241,3.7543 1.12825,1.0573 2.41463,1.5859 3.85913,1.5859 1.47996,0 2.76634,-0.5286 3.85913,-1.5859 1.09276,-1.0573 1.63915,-2.3087 1.63917,-3.7543 l 0,-2.9073 c -2e-5,-1.5154 -0.59911,-2.784 -1.79727,-3.8059 -1.0928,-0.9163 -2.32647,-1.3745 -3.70103,-1.3745 -1.4445,0 -2.71313,0.4582 -3.80589,1.3745 -1.16378,1.0219 -1.74566,2.2905 -1.74565,3.8059 z"
           style="font-variant:normal;font-stretch:normal;text-align:center;text-anchor:middle;fill:#000000;font-family:CodiceNero;-inkscape-font-specification:CodiceNero"
           id="path5851" />
        <path
           d="m 728.77609,1113.4978 c -0.77551,-0.2118 -1.55099,-0.3178 -2.32645,-0.3178 -1.79729,0 -3.27727,0.476 -4.43994,1.4278 -1.30468,1.0218 -1.95701,2.4669 -1.957,4.3351 l 0,13.2166 -8.56366,0 0,-26.8559 8.67014,0 0,1.6908 c 0.77547,-0.4581 1.53321,-0.9163 2.27321,-1.3745 1.33907,-0.6346 2.7486,-0.9519 4.2286,-0.9519 0.70447,0 1.40951,0.071 2.1151,0.2129 z"
           style="font-variant:normal;font-stretch:normal;text-align:center;text-anchor:middle;fill:#000000;font-family:CodiceNero;-inkscape-font-specification:CodiceNero"
           id="path5853" />
        <path
           d="m 750.74185,1094.7297 8.4588,0 0,37.4298 -7.77151,0 c -0.10543,-0.3173 -0.28182,-0.7578 -0.52918,-1.3214 -2.25548,1.3391 -4.24689,2.0087 -5.97423,2.0087 -2.81908,0 -5.39183,-0.8637 -7.71827,-2.5911 -3.38266,-2.4673 -5.07399,-6.256 -5.07399,-11.366 0,-4.1237 1.19818,-7.5072 3.59455,-10.1504 2.39635,-2.6432 5.44504,-3.9648 9.14608,-3.9648 1.30357,0 2.46626,0.2291 3.48806,0.6873 1.41005,0.6701 2.20328,1.0223 2.37969,1.0567 z m -10.36255,25.0054 c -10e-6,1.6563 0.44958,3.0134 1.34877,4.0712 0.89916,1.0579 2.21188,1.5868 3.93818,1.5868 1.30465,0 2.48562,-0.441 3.54292,-1.323 0.95078,-0.7754 1.42618,-1.5154 1.4262,-2.2199 l 0,-5.8146 c -2e-5,-0.9873 -0.50204,-1.8862 -1.50606,-2.6967 -1.00406,-0.8104 -2.15841,-1.2156 -3.46306,-1.2156 -1.4445,0 -2.66042,0.4754 -3.64778,1.4262 -1.09279,1.0229 -1.63918,2.4507 -1.63917,4.2834 z"
           style="font-variant:normal;font-stretch:normal;text-align:center;text-anchor:middle;fill:#000000;font-family:CodiceNero;-inkscape-font-specification:CodiceNero"
           id="path5855" />
      </g>
      <text
         xml:space="preserve"
         style="font-size:19.59181404px;font-style:normal;font-weight:normal;line-height:125%;letter-spacing:0px;word-spacing:0px;fill:#000000;fill-opacity:1;stroke:none;font-family:Sans"
         x="569.09949"
         y="1015.9024"
         id="text5788"
         sodipodi:linespacing="125%"><tspan
           sodipodi:role="line"
           id="tspan5790"
           x="569.09949"
           y="1015.9024">a</tspan></text>
      <text
         xml:space="preserve"
         style="font-size:19.59181404px;font-style:normal;font-weight:normal;line-height:125%;letter-spacing:0px;word-spacing:0px;fill:#000000;fill-opacity:1;stroke:none;font-family:Sans"
         x="569.09399"
         y="1310.3818"
         id="text5788-4"
         sodipodi:linespacing="125%"><tspan
           sodipodi:role="line"
           id="tspan5790-5"
           x="569.09399"
           y="1310.3818">b</tspan></text>
    </g>
  </g>
</svg>
