<?xml version="1.0" encoding="UTF-8" standalone="no"?>
<!-- Created with Inkscape (http://www.inkscape.org/) -->

<svg
   width="1058.3334mm"
   height="661.45831mm"
   viewBox="0 0 1058.3334 661.45832"
   version="1.1"
   id="svg6227"
   inkscape:version="1.2.1 (9c6d41e410, 2022-07-14)"
   sodipodi:docname="Frecce direzionali di preselezioni (figura II 24).svg"
   xmlns:inkscape="http://www.inkscape.org/namespaces/inkscape"
   xmlns:sodipodi="http://sodipodi.sourceforge.net/DTD/sodipodi-0.dtd"
   xmlns="http://www.w3.org/2000/svg"
   xmlns:svg="http://www.w3.org/2000/svg">
  <sodipodi:namedview
     id="namedview6229"
     pagecolor="#ffffff"
     bordercolor="#000000"
     borderopacity="0.25"
     inkscape:showpageshadow="2"
     inkscape:pageopacity="0.0"
     inkscape:pagecheckerboard="0"
     inkscape:deskcolor="#d1d1d1"
     inkscape:document-units="mm"
     showgrid="false"
     inkscape:zoom="0.19064254"
     inkscape:cx="1854.2556"
     inkscape:cy="705.50885"
     inkscape:window-width="1920"
     inkscape:window-height="991"
     inkscape:window-x="-9"
     inkscape:window-y="-9"
     inkscape:window-maximized="1"
     inkscape:current-layer="layer1" />
  <defs
     id="defs6224" />
  <g
     inkscape:label="Livello 1"
     inkscape:groupmode="layer"
     id="layer1"
     transform="translate(381.93433,329.85483)">
    <g
       id="g9658">
      <rect
         style="fill:#ffffff;fill-rule:evenodd;stroke-width:4.21257"
         id="rect9128"
         width="1058.3334"
         height="661.45831"
         x="-381.93433"
         y="-329.85483" />
      <g
         id="g3481"
         transform="translate(-3050.8236,7716.3952)">
        <path
           id="path1645-1-9-7-1-8-1-4-7-7-2-2-7"
           style="fill:#000000;stroke-width:16.8725;paint-order:fill markers stroke"
           d="m 2786.0708,-7994.3862 -52.4583,89.1755 c -4.4364,6.756 -4.5831,12.1435 6.1433,8.4062 l 23.0053,-4.9971 c 6.6086,-1.7708 6.6347,1.7104 6.6347,4.8648 v 107.3759 h 33.3499 v -107.3764 c 0,-3.1544 0.026,-6.6356 6.6348,-4.8648 l 23.0053,4.9971 c 10.7264,3.7373 10.5797,-1.6497 6.1433,-8.4057 z"
           sodipodi:nodetypes="ccccsccscccc" />
        <path
           id="path1645-1-9-7-1-8-1-4-7-7-2-2-5-55"
           style="fill:#000000;stroke-width:16.4172;paint-order:fill markers stroke"
           d="m 3157.1748,-7956.7291 c -3.52,0.038 -4.692,2.5345 -0.6625,8.9767 l 9.7063,20.7481 c 3.1065,5.8879 0.055,7.278 -2.9383,7.9587 l -2.8587,0.6501 c -52.746,8.8435 -54.8049,51.3333 -54.8049,59.3348 v 69.4997 h 31.2265 l 5e-4,-69.4997 c -0.04,-11.5108 3.3658,-27.1621 30.2658,-30.057 h 3.1234 c 4.2742,0 6.301,-0.3076 6.0471,6.3448 l 0.2243,22.9056 c -1.2309,10.9836 3.8484,9.6818 9.3007,4.0147 l 73.2865,-69.017 -95.929,-30.5258 c -2.3023,-0.8596 -4.3878,-1.3508 -5.9877,-1.3337 z" />
        <path
           id="path1645-1-9-7-1-8-1-4-7-7-2-2-5-2-6"
           style="fill:#000000;stroke-width:16.4172;paint-order:fill markers stroke"
           d="m 3565.6053,-7956.7291 c 3.52,0.038 4.692,2.5345 0.6625,8.9767 l -9.7063,20.7481 c -3.1065,5.8879 -0.055,7.278 2.9383,7.9587 l 2.8587,0.6501 c 52.746,8.8435 54.8049,51.3333 54.8049,59.3348 v 69.4997 h -31.2265 l -5e-4,-69.4997 c 0.04,-11.5108 -3.3658,-27.1621 -30.2658,-30.057 h -3.1234 c -4.2742,0 -6.301,-0.3076 -6.0471,6.3448 l -0.2243,22.9056 c 1.2309,10.9836 -3.8484,9.6818 -9.3007,4.0147 l -73.2865,-69.017 95.929,-30.5258 c 2.3023,-0.8596 4.3878,-1.3508 5.9877,-1.3337 z" />
        <path
           id="path1645-1-9-7-1-8-1-4-7-7-2-2-5-2-1-8"
           style="fill:#000000;stroke-width:13.3728;paint-order:fill markers stroke"
           d="m 3523.7663,-7577.926 c -1.3031,-0.014 -3.0022,0.3865 -4.8777,1.0867 l -78.1405,24.8652 59.6967,56.2188 c 4.4413,4.6163 8.5789,5.6767 7.5762,-3.2701 l 0.1825,-18.6583 c -0.2067,-5.4188 1.4442,-5.1682 4.9258,-5.1682 h 2.5445 c 21.9119,2.358 24.6868,15.1075 24.6538,24.4838 v 61.7121 h 25.4362 l 5e-4,-61.7121 c -0.033,-9.3763 2.7414,-22.1258 24.6533,-24.4838 h 2.544 c 3.4816,0 5.1325,-0.2506 4.9258,5.1682 l 0.1829,18.6583 c -1.0027,8.9468 3.1345,7.8864 7.5758,3.2701 l 59.6971,-56.2188 -78.1409,-24.8652 c -1.8755,-0.7002 -3.5742,-1.1006 -4.8773,-1.0867 -2.8675,0.032 -3.8218,2.0647 -0.5395,7.3122 l 7.9065,16.9008 c 2.5304,4.7961 0.044,5.9283 -2.3936,6.4828 l -2.3286,0.5297 c -15.259,2.5584 -25.3061,8.5748 -31.9241,15.5608 -6.618,-6.986 -16.6652,-13.0024 -31.9242,-15.5608 l -2.3285,-0.5297 c -2.4375,-0.5545 -4.9241,-1.6867 -2.3937,-6.4828 l 7.9065,-16.9008 c 3.2822,-5.2475 2.3279,-7.2802 -0.5395,-7.3122 z"
           sodipodi:nodetypes="scccccsccccccsccccccccscccsccs" />
        <path
           id="path1645-1-9-7-1-8-1-4-7-7-2-2-9-2"
           style="fill:#000000;stroke-width:13.2752;paint-order:fill markers stroke"
           d="m 2776.0921,-7650.4108 -41.274,70.1627 c -3.4905,5.3156 -3.6056,9.5546 4.8338,6.614 l 18.1002,-3.932 c 5.1996,-1.3933 5.2204,1.3458 5.2204,3.8276 v 137.0826 h 26.2392 v -30.2426 c 0.011,-14.7795 15.1134,-33.9426 37.5755,-33.9426 h 2.3006 v 0 h 2.3389 c 2.4819,-1e-4 5.221,0.02 3.8277,5.2203 l -3.9316,18.1002 c -2.9404,8.4394 1.298,8.3238 6.6136,4.8333 l 70.1626,-41.274 -70.1626,-41.2734 c -2.1595,-1.418 -4.1412,-2.2788 -5.5361,-2.2355 -2.0387,0.063 -2.824,2.0579 -1.078,7.0688 l 3.9321,18.1007 c 1.3933,5.1996 -1.3458,5.2204 -3.8277,5.2204 l -2.3389,5e-4 v -5e-4 h -2.3006 c -14.3511,0 -27.2186,4.4593 -37.5755,11.7341 v -58.3913 c 0,-2.4818 0.02,-5.2209 5.2203,-3.8276 l 18.1002,3.9315 c 8.4394,2.9404 8.3238,-1.2979 4.8333,-6.6135 z" />
        <path
           id="path1645-1-9-7-1-8-1-4-7-7-2-2-9-3-3"
           style="fill:#000000;stroke-width:13.2752;paint-order:fill markers stroke"
           d="m 3194.2755,-7650.4109 41.274,70.1627 c 3.4905,5.3156 3.6056,9.5546 -4.8338,6.614 l -18.1002,-3.932 c -5.1996,-1.3933 -5.2204,1.3458 -5.2204,3.8276 v 137.0826 h -26.2392 v -30.2426 c -0.011,-14.7795 -15.1134,-33.9426 -37.5755,-33.9426 h -2.3006 v 0 h -2.3389 c -2.4819,-1e-4 -5.221,0.02 -3.8277,5.2203 l 3.9316,18.1002 c 2.9404,8.4394 -1.298,8.3238 -6.6136,4.8333 l -70.1626,-41.274 70.1626,-41.2734 c 2.1595,-1.418 4.1412,-2.2788 5.5361,-2.2355 2.0387,0.063 2.824,2.0579 1.078,7.0688 l -3.9321,18.1007 c -1.3933,5.1996 1.3458,5.2204 3.8277,5.2204 l 2.3389,5e-4 v -5e-4 h 2.3006 c 14.3511,0 27.2186,4.4593 37.5755,11.7341 v -58.3913 c 0,-2.4818 -0.02,-5.2209 -5.2203,-3.8276 l -18.1002,3.9315 c -8.4394,2.9404 -8.3238,-1.2979 -4.8333,-6.6135 z" />
      </g>
    </g>
  </g>
</svg>
