<?xml version="1.0" encoding="UTF-8" standalone="no"?>
<!-- Created with Inkscape (http://www.inkscape.org/) -->

<svg
   xmlns:dc="http://purl.org/dc/elements/1.1/"
   xmlns:cc="http://creativecommons.org/ns#"
   xmlns:rdf="http://www.w3.org/1999/02/22-rdf-syntax-ns#"
   xmlns:svg="http://www.w3.org/2000/svg"
   xmlns="http://www.w3.org/2000/svg"
   xmlns:sodipodi="http://sodipodi.sourceforge.net/DTD/sodipodi-0.dtd"
   xmlns:inkscape="http://www.inkscape.org/namespaces/inkscape"
   width="312"
   height="500"
   id="svg2994"
   version="1.1"
   inkscape:version="0.48.5 r10040"
   sodipodi:docname="CANC STp2.svg"
   inkscape:export-filename="C:\Users\utente\Desktop\CANC drittok.png"
   inkscape:export-xdpi="90"
   inkscape:export-ydpi="90">
  <defs
     id="defs2996" />
  <sodipodi:namedview
     id="base"
     pagecolor="#ffffff"
     bordercolor="#666666"
     borderopacity="1.0"
     inkscape:pageopacity="0.0"
     inkscape:pageshadow="2"
     inkscape:zoom="0.25"
     inkscape:cx="815.55477"
     inkscape:cy="310.83752"
     inkscape:document-units="px"
     inkscape:current-layer="layer1"
     showgrid="false"
     inkscape:window-width="1366"
     inkscape:window-height="705"
     inkscape:window-x="-8"
     inkscape:window-y="-8"
     inkscape:window-maximized="1"
     fit-margin-top="0"
     fit-margin-left="0"
     fit-margin-right="0"
     fit-margin-bottom="0"
     inkscape:object-nodes="true"
     inkscape:object-paths="false" />
  <metadata
     id="metadata2999">
    <rdf:RDF>
      <cc:Work
         rdf:about="">
        <dc:format>image/svg+xml</dc:format>
        <dc:type
           rdf:resource="http://purl.org/dc/dcmitype/StillImage" />
        <dc:title />
      </cc:Work>
    </rdf:RDF>
  </metadata>
  <g
     inkscape:label="Livello 1"
     inkscape:groupmode="layer"
     id="layer1"
     transform="translate(-237.85715,-320.93347)">
    <rect
       inkscape:export-ydpi="90"
       inkscape:export-xdpi="90"
       inkscape:export-filename="C:\Users\utente\Desktop\CANCdx.png"
       y="320.93347"
       x="237.85715"
       height="500"
       width="312"
       id="rect5153"
       style="fill:#989898;fill-opacity:1;stroke-width:5.1999898;stroke-linecap:round;stroke-linejoin:round;stroke-miterlimit:4;stroke-dasharray:15.6, 15.6;stroke-dashoffset:0" />
    <g
       transform="matrix(0.37897963,0,0,2.6386643,13433.749,-4418.7171)"
       style="font-size:208.80918884px;font-style:normal;font-weight:normal;line-height:125%;letter-spacing:0px;word-spacing:0px;fill:#ffffff;fill-opacity:1;stroke:none;font-family:Sans"
       id="text8010">
      <path
         inkscape:connector-curvature="0"
         d="m -34620.151,1815.5941 c 25.476,2e-4 47.123,8.006 64.94,24.0174 l -21.717,18.5818 c -4.316,-3.7596 -9.675,-7.1008 -16.077,-10.0237 -7.936,-3.7596 -15.591,-5.6394 -22.966,-5.6395 -4.04,10e-5 -7.87,0.6267 -11.489,1.8798 -8.493,2.787 -12.39,8.1461 -11.694,16.0774 0.281,3.2033 3.065,5.85 8.354,7.94 4.733,1.9458 14.198,4.4501 28.396,7.513 29.792,6.4064 44.689,21.0926 44.689,44.0584 0,14.0617 -5.533,25.3726 -16.6,33.9328 -11.067,8.5602 -26.137,12.8403 -45.212,12.8403 -15.867,0 -30.97,-4.2461 -45.307,-12.7383 -9.049,-5.1489 -16.636,-11.2026 -22.762,-18.1612 l 25.476,-19.2127 c 2.367,3.6196 7.239,7.5173 14.619,11.6933 9.881,5.5695 20.111,8.4243 30.689,8.5644 7.239,0.136 13.086,-1.2925 17.543,-4.2854 4.456,-2.9928 6.684,-6.8555 6.684,-11.5881 0,-5.4292 -3.481,-9.6753 -10.444,-12.7383 -4.316,-1.9457 -11.972,-4.0676 -22.969,-6.366 -10.997,-2.2982 -18.443,-4.3523 -22.338,-6.1621 -6.823,-3.0629 -11.558,-5.7775 -14.204,-8.1438 -7.375,-6.5422 -11.063,-15.1725 -11.063,-25.8909 0,-15.7311 5.776,-27.7026 17.327,-35.9146 9.605,-6.8225 21.647,-10.2338 36.125,-10.234 z"
         style="font-variant:normal;font-stretch:normal;fill:#ffffff;font-family:CodiceBianco;-inkscape-font-specification:CodiceBianco"
         id="path8682" />
      <path
         inkscape:connector-curvature="0"
         d="m -34423.08,1816.4289 0,26.9359 -45.728,0 0,120.0679 -30.485,0 0,-120.2718 -45.728,0 0,-26.732 z"
         style="font-variant:normal;font-stretch:normal;fill:#ffffff;font-family:CodiceBianco;-inkscape-font-specification:CodiceBianco"
         id="path8684" />
      <path
         inkscape:connector-curvature="0"
         d="m -34266.754,1889.0992 c 0,23.5225 -6.75,42.3146 -20.251,56.3762 -12.944,13.3649 -29.648,20.0474 -50.112,20.0474 -20.464,0 -37.1,-6.6825 -49.908,-20.0474 -13.501,-14.0616 -20.252,-32.8537 -20.252,-56.3762 0,-22.9701 7.448,-41.4159 22.342,-55.3375 13.365,-12.3877 29.304,-18.5816 47.818,-18.5818 18.514,2e-4 34.453,6.1941 47.818,18.5818 15.03,13.9216 22.545,32.3674 22.545,55.3375 z m -32.154,0 c -10e-4,-13.7812 -3.515,-24.7788 -10.543,-32.9928 -7.029,-8.2139 -16.251,-12.3209 -27.666,-12.321 -11.415,10e-5 -20.568,4.1071 -27.458,12.321 -6.891,8.214 -10.336,19.2116 -10.336,32.9928 0,14.3379 2.922,25.5426 8.768,33.6142 6.542,9.1889 16.217,13.7834 29.026,13.7833 12.944,10e-5 22.688,-4.5944 29.23,-13.7833 5.986,-8.2118 8.978,-19.4165 8.979,-33.6142 z"
         style="font-variant:normal;font-stretch:normal;fill:#ffffff;font-family:CodiceBianco;-inkscape-font-specification:CodiceBianco"
         id="path8686" />
      <path
         inkscape:connector-curvature="0"
         d="m -34176.642,1816.6392 c 12.388,2e-4 23.384,4.3865 32.99,13.1589 10.301,9.6054 15.452,21.5068 15.453,35.7043 -10e-4,13.6412 -5.222,25.1262 -15.664,34.4553 -9.605,8.7684 -20.532,13.1526 -32.779,13.1525 l -33.621,0 0,50.5328 -30.899,0 0,-147.0038 z m -33.621,26.1012 0,43.4339 31.531,0 c 5.013,1e-4 9.537,-2.2271 13.573,-6.6814 4.036,-4.4542 6.054,-9.1878 6.054,-14.2008 0,-6.2618 -2.227,-11.691 -6.679,-16.2877 -4.036,-4.1759 -8.352,-6.2639 -12.948,-6.264 z"
         style="font-variant:normal;font-stretch:normal;fill:#ffffff;font-family:CodiceBianco;-inkscape-font-specification:CodiceBianco"
         id="path8688" />
    </g>
  </g>
</svg>
