<?xml version="1.0" encoding="UTF-8" standalone="no"?>
<!-- Created with Inkscape (http://www.inkscape.org/) -->

<svg
   width="238.65416mm"
   height="159.27916mm"
   viewBox="0 0 238.65416 159.27916"
   version="1.1"
   id="svg11154"
   inkscape:version="1.2.1 (9c6d41e410, 2022-07-14)"
   sodipodi:docname="Segnale stradale italiano - polizia stradale (figura II 378).svg"
   xmlns:inkscape="http://www.inkscape.org/namespaces/inkscape"
   xmlns:sodipodi="http://sodipodi.sourceforge.net/DTD/sodipodi-0.dtd"
   xmlns="http://www.w3.org/2000/svg"
   xmlns:svg="http://www.w3.org/2000/svg">
  <sodipodi:namedview
     id="namedview11156"
     pagecolor="#ffffff"
     bordercolor="#000000"
     borderopacity="0.25"
     inkscape:showpageshadow="2"
     inkscape:pageopacity="0.0"
     inkscape:pagecheckerboard="0"
     inkscape:deskcolor="#d1d1d1"
     inkscape:document-units="mm"
     showgrid="false"
     inkscape:zoom="0.76257015"
     inkscape:cx="411.10972"
     inkscape:cy="89.827802"
     inkscape:window-width="1920"
     inkscape:window-height="991"
     inkscape:window-x="-9"
     inkscape:window-y="-9"
     inkscape:window-maximized="1"
     inkscape:current-layer="layer1" />
  <defs
     id="defs11151" />
  <g
     inkscape:label="Livello 1"
     inkscape:groupmode="layer"
     id="layer1"
     transform="translate(3.4415787,-12.652421)">
    <g
       id="g5804"
       transform="translate(-117.6778,-1347.0092)">
      <rect
         style="fill:#000000;fill-rule:evenodd;stroke-width:29.5609;paint-order:markers fill stroke"
         id="rect3812-8-5-6-9-7"
         width="159.27916"
         height="238.65416"
         x="1359.6616"
         y="-352.89038"
         transform="rotate(90)" />
      <rect
         style="fill:#ffffff;fill-rule:evenodd;stroke-width:29.4791;paint-order:markers fill stroke"
         id="rect3812-8-5"
         width="158.75"
         height="238.125"
         x="1359.9263"
         y="-352.62579"
         transform="rotate(90)" />
      <rect
         style="fill:none;fill-rule:evenodd;stroke:#000000;stroke-width:3.175;paint-order:markers fill stroke"
         id="rect3812-0-2-3"
         width="152.39999"
         height="231.77499"
         x="1363.1012"
         y="-349.45081"
         ry="10.31875"
         rx="10.31875"
         transform="rotate(90)" />
      <g
         aria-label="POLIZIA STRADALE"
         id="text15867-8"
         style="font-size:5.706px;font-family:'Stradale Normale Positivo';-inkscape-font-specification:'Stradale Normale Positivo';fill:#000000;fill-rule:evenodd;stroke-width:0.237842;stroke-linecap:round;paint-order:markers fill stroke"
         transform="matrix(4.1406528,0,0,4.1406528,-1354.1163,-2469.4688)">
        <path
           d="m 361.24519,930.17877 h 1.05037 q 0.27582,0 0.53215,0.0975 0.25632,0.0975 0.44857,0.27583 0.19503,0.17552 0.31204,0.42906 0.11702,0.25354 0.11702,0.5628 0,0.22289 -0.0892,0.4625 -0.0864,0.23961 -0.24796,0.44299 -0.15881,0.20061 -0.3817,0.33991 -0.22289,0.13652 -0.49036,0.14767 l -0.22846,0.0111 v 1.69397 h -1.02251 z m 1.01136,1.85556 q 0.25633,-0.0167 0.37056,-0.13373 0.11423,-0.11702 0.11423,-0.35663 0,-0.23403 -0.13374,-0.33712 -0.13373,-0.10309 -0.35105,-0.11423 z"
           style="-inkscape-font-specification:'Stradale Stretto Positivo'"
           id="path16242-8" />
        <path
           d="m 365.5414,933.667 q 0.0919,0 0.15045,-0.10308 0.0613,-0.10309 0.0947,-0.27583 0.0362,-0.17553 0.0474,-0.40399 0.0111,-0.22846 0.0111,-0.47921 0,-0.27304 -0.0111,-0.51265 -0.0112,-0.23961 -0.0474,-0.41514 -0.0334,-0.17831 -0.0919,-0.27861 -0.0557,-0.1003 -0.15324,-0.1003 -0.0975,0 -0.15602,0.10309 -0.0557,0.10308 -0.0864,0.2814 -0.0307,0.17552 -0.0418,0.41234 -0.0112,0.23683 -0.0167,0.50987 -0.006,0.25632 0.0111,0.48478 0.0167,0.22847 0.0529,0.40121 0.0362,0.16995 0.0919,0.27304 0.0585,0.10308 0.14488,0.10308 z m 0,1.01973 q -0.27861,0.006 -0.521,-0.17553 -0.2424,-0.18388 -0.4235,-0.49314 -0.17831,-0.31205 -0.2814,-0.7244 -0.10308,-0.41513 -0.10308,-0.87763 0,-0.49036 0.0975,-0.90828 0.0975,-0.4207 0.27026,-0.72439 0.17552,-0.30648 0.41792,-0.47643 0.24239,-0.17274 0.53215,-0.17274 0.28418,-0.0112 0.52936,0.16717 0.24797,0.17552 0.42907,0.48757 0.18388,0.30926 0.2814,0.72997 0.1003,0.41792 0.0947,0.89713 0.006,0.4625 -0.0947,0.8832 -0.0975,0.41792 -0.27583,0.72997 -0.17553,0.30926 -0.42071,0.49036 -0.24518,0.17831 -0.53215,0.16717 z"
           style="-inkscape-font-specification:'Stradale Stretto Positivo'"
           id="path16244-2" />
        <path
           d="m 367.77309,930.17877 h 1.01973 v 3.60247 h 0.83863 v 0.86091 h -1.85836 z"
           style="-inkscape-font-specification:'Stradale Stretto Positivo'"
           id="path16246-6" />
        <path
           d="m 371.43407,934.64215 h -1.05594 v -4.46338 h 1.05594 z"
           style="-inkscape-font-specification:'Stradale Stretto Positivo'"
           id="path16248-0" />
        <path
           d="m 372.44265,930.17877 h 2.01995 v 0.79404 l -1.05037,2.76663 h 1.06709 v 0.90271 h -2.17319 v -0.80519 l 1.08938,-2.81121 h -0.95286 z"
           style="-inkscape-font-specification:'Stradale Stretto Positivo'"
           id="path16250-0" />
        <path
           d="m 376.51041,934.64215 h -1.05595 v -4.46338 h 1.05595 z"
           style="-inkscape-font-specification:'Stradale Stretto Positivo'"
           id="path16252-6" />
        <path
           d="m 378.57493,933.0039 h 0.32598 l -0.15881,-1.003 z m -0.12537,0.8052 -0.13095,0.83305 h -1.02251 l 0.71325,-4.46338 h 1.45157 l 0.70768,4.46338 h -1.01137 l -0.13094,-0.83305 z"
           style="-inkscape-font-specification:'Stradale Stretto Positivo'"
           id="path16254-3" />
        <path
           d="m 382.72817,932.07334 q -0.13653,-0.15881 -0.21175,-0.35941 -0.0752,-0.20339 -0.0752,-0.40957 0,-0.24518 0.1003,-0.45692 0.1003,-0.21175 0.26468,-0.37056 0.16717,-0.15881 0.38727,-0.25075 0.2201,-0.0919 0.4597,-0.0919 0.16996,0 0.33991,0.0697 0.17273,0.0669 0.32877,0.18389 0.1588,0.11701 0.29532,0.27304 0.13653,0.15323 0.2396,0.32876 l -0.73554,0.46807 q -0.0306,-0.0446 -0.0641,-0.0892 -0.0334,-0.0474 -0.11424,-0.1393 -0.13652,-0.14767 -0.26468,-0.15324 -0.12815,-0.006 -0.2006,0.0669 -0.0697,0.0696 -0.0669,0.18946 0.003,0.1198 0.12259,0.22289 0.13653,0.13094 0.23125,0.2201 0.0975,0.0892 0.19225,0.17831 0.0947,0.0864 0.21175,0.19782 0.11703,0.11144 0.30369,0.28697 0.24239,0.19503 0.37055,0.45971 0.12815,0.2619 0.12815,0.55166 0.006,0.23403 -0.0891,0.45692 -0.0947,0.22289 -0.26747,0.39842 -0.16996,0.17274 -0.40956,0.27861 -0.23962,0.10309 -0.53494,0.10309 -0.21731,0 -0.40679,-0.0752 -0.18667,-0.078 -0.34269,-0.20896 -0.15323,-0.13094 -0.27303,-0.30369 -0.1198,-0.17552 -0.20617,-0.36498 l 0.79404,-0.4625 q 0.0641,0.20618 0.15882,0.31484 0.0975,0.10866 0.2006,0.14209 0.10309,0.0307 0.18946,-0.003 0.0892,-0.0362 0.13652,-0.11423 0.0501,-0.0808 0.0362,-0.19781 -0.0139,-0.11702 -0.11702,-0.2424 -0.37055,-0.34826 -0.6436,-0.59902 -0.27026,-0.25353 -0.46807,-0.49871 z"
           style="-inkscape-font-specification:'Stradale Stretto Positivo'"
           id="path16256-5" />
        <path
           d="m 385.89321,931.10376 h -0.5238 v -0.92499 h 2.03668 v 0.91385 h -0.48478 v 3.54953 h -1.02808 z"
           style="-inkscape-font-specification:'Stradale Stretto Positivo'"
           id="path16258-6" />
        <path
           d="m 389.93311,932.69743 0.82192,1.94472 h -0.9473 l -0.69653,-1.64939 h -0.0501 v 1.64939 h -0.99744 v -4.46338 h 1.1061 q 0.27861,0 0.521,0.10308 0.2424,0.10309 0.42071,0.28419 0.1811,0.17831 0.28418,0.42906 0.10309,0.25076 0.10309,0.5433 0,0.20617 -0.0585,0.39842 -0.0557,0.18945 -0.14209,0.34269 -0.0836,0.15324 -0.18388,0.26468 -0.10031,0.11145 -0.1811,0.15324 z m -0.87205,-0.57673 q 0.10866,-0.006 0.19502,-0.0585 0.0892,-0.0557 0.15324,-0.13652 0.0641,-0.0808 0.0975,-0.18388 0.0334,-0.10588 0.0334,-0.22011 0,-0.13652 -0.0613,-0.23403 -0.0585,-0.0975 -0.13653,-0.15603 -0.0752,-0.0613 -0.15881,-0.0836 -0.0836,-0.0223 -0.12259,-0.0111 z"
           style="-inkscape-font-specification:'Stradale Stretto Positivo'"
           id="path16260-4" />
        <path
           d="m 392.52978,933.0039 h 0.32599 l -0.15882,-1.003 z m -0.12536,0.8052 -0.13095,0.83305 h -1.02251 l 0.71325,-4.46338 h 1.45157 l 0.70768,4.46338 h -1.01136 l -0.13095,-0.83305 z"
           style="-inkscape-font-specification:'Stradale Stretto Positivo'"
           id="path16262-1" />
        <path
           d="m 395.91495,934.64215 h -1.12282 v -4.45503 h 1.15625 q 0.29253,-0.0251 0.56,0.17274 0.26747,0.19782 0.46807,0.5238 0.20061,0.32319 0.3037,0.73554 0.10586,0.40956 0.078,0.81912 0.0223,0.39563 -0.0892,0.78848 -0.10866,0.39284 -0.31205,0.70767 -0.2034,0.31484 -0.47364,0.51265 -0.27026,0.19503 -0.56837,0.19503 z m -0.1031,-0.90828 q 0.31482,-0.0446 0.45693,-0.36498 0.1421,-0.32319 0.1421,-0.94729 0,-0.61573 -0.1616,-0.96121 -0.16159,-0.34548 -0.43742,-0.42349 z"
           style="-inkscape-font-specification:'Stradale Stretto Positivo'"
           id="path16264-7" />
        <path
           d="m 398.98525,933.0039 h 0.32599 l -0.15882,-1.003 z m -0.12538,0.8052 -0.13095,0.83305 h -1.02251 l 0.71326,-4.46338 h 1.45157 l 0.70767,4.46338 h -1.01137 l -0.13094,-0.83305 z"
           style="-inkscape-font-specification:'Stradale Stretto Positivo'"
           id="path16266-3" />
        <path
           d="m 401.25317,930.17877 h 1.01972 v 3.60247 h 0.83862 v 0.86091 h -1.85834 z"
           style="-inkscape-font-specification:'Stradale Stretto Positivo'"
           id="path16268-1" />
        <path
           d="m 403.76346,934.64215 v -4.46338 h 1.88065 v 0.84141 h -0.83305 v 0.89992 h 0.69654 v 0.8442 h -0.69654 v 1.02251 h 1.00022 v 0.85534 z"
           style="-inkscape-font-specification:'Stradale Stretto Positivo'"
           id="path16270-2" />
      </g>
      <g
         aria-label="localita'"
         id="text16023-1"
         style="font-size:3.175px;font-family:'Stradale Stretto Positivo';-inkscape-font-specification:'Stradale Stretto Positivo';fill:#000000;fill-rule:evenodd;stroke-width:0.293013;stroke-linecap:round;paint-order:markers fill stroke"
         transform="matrix(4.1406528,0,0,4.1406528,-1354.1163,-2471.9885)">
        <path
           d="m 358.86734,941.11177 h 0.56741 v 1.86345 q 0,0.11317 0.0884,0.12557 0.0899,0.0109 0.22944,-0.0465 l 0.0481,0.524 q -0.15348,0.0481 -0.31781,0.0496 -0.16278,0.002 -0.30076,-0.0512 -0.13797,-0.0527 -0.22634,-0.16123 -0.0884,-0.11007 -0.0884,-0.28835 z"
           style="-inkscape-font-specification:'Stradale Normale Positivo'"
           id="path16171-1" />
        <path
           d="m 360.84246,943.12095 q 0.17363,-0.003 0.262,-0.11782 0.0899,-0.11473 0.0899,-0.30076 0,-0.0868 -0.0232,-0.16278 -0.0217,-0.076 -0.0651,-0.13488 -0.0419,-0.0589 -0.10852,-0.0915 -0.0667,-0.0341 -0.15503,-0.0341 -0.093,0 -0.15813,0.0357 -0.0651,0.0341 -0.10697,0.0915 -0.0403,0.0574 -0.0589,0.13333 -0.0186,0.076 -0.0186,0.16278 0,0.0853 0.0186,0.16123 0.0186,0.076 0.0589,0.13332 0.0419,0.0574 0.10697,0.0915 0.0651,0.0326 0.15813,0.0326 z m 0.0124,0.50539 q -0.19379,-0.008 -0.35347,-0.0775 -0.15813,-0.0698 -0.2713,-0.19069 -0.11162,-0.12247 -0.17363,-0.28525 -0.062,-0.16433 -0.062,-0.35502 0,-0.19689 0.0574,-0.36277 0.0574,-0.16743 0.16588,-0.2868 0.11007,-0.11937 0.2682,-0.18604 0.15968,-0.0667 0.35967,-0.0667 0.19068,0 0.35036,0.0698 0.16124,0.0698 0.27441,0.19224 0.11472,0.12247 0.17828,0.28835 0.0636,0.16434 0.0636,0.35812 0,0.18449 -0.0651,0.35037 -0.0651,0.16433 -0.17983,0.28835 -0.11318,0.12248 -0.27131,0.19534 -0.15657,0.0713 -0.34106,0.0682 z"
           style="-inkscape-font-specification:'Stradale Normale Positivo'"
           id="path16173-6" />
        <path
           d="m 363.56942,943.02173 q -0.008,0.0294 -0.0264,0.0729 -0.0186,0.0419 -0.0481,0.0868 -0.0279,0.045 -0.0589,0.0884 -0.0295,0.0419 -0.0543,0.0729 -0.009,0.0124 -0.0574,0.0589 -0.0481,0.0465 -0.12403,0.0961 -0.076,0.0481 -0.18138,0.0884 -0.10387,0.0403 -0.23099,0.0403 -0.16899,0 -0.32712,-0.0698 -0.15658,-0.0713 -0.27595,-0.19069 -0.11782,-0.12092 -0.19068,-0.2868 -0.0729,-0.16743 -0.0729,-0.36432 0,-0.16588 0.0496,-0.32556 0.0512,-0.16123 0.15503,-0.28681 0.10542,-0.12712 0.2651,-0.20618 0.16123,-0.0806 0.38137,-0.0806 0.30386,0 0.4992,0.15348 0.19533,0.15193 0.2868,0.40618 l -0.46974,0.16743 q -0.0248,-0.0574 -0.0512,-0.10697 -0.0248,-0.0512 -0.0605,-0.0884 -0.0341,-0.0388 -0.0853,-0.0589 -0.0496,-0.0217 -0.11938,-0.0217 -0.093,0 -0.15503,0.0387 -0.062,0.0372 -0.10387,0.0992 -0.0403,0.062 -0.0574,0.14108 -0.0171,0.0791 -0.0171,0.16588 0,0.0791 0.0186,0.15813 0.0186,0.0791 0.0574,0.14263 0.0403,0.0636 0.10232,0.10387 0.062,0.0387 0.14728,0.0387 0.0605,0 0.11472,-0.0248 0.0543,-0.0248 0.0961,-0.0682 0.0434,-0.0434 0.0713,-0.0977 0.0295,-0.0558 0.0388,-0.11627 z"
           style="-inkscape-font-specification:'Stradale Normale Positivo'"
           id="path16175-7" />
        <path
           d="m 364.78656,942.845 q -0.0419,0.0341 -0.10387,0.0449 -0.062,0.009 -0.12558,0.0155 -0.10386,0.0124 -0.15657,0.0512 -0.0527,0.0372 -0.0527,0.0853 0,0.0729 0.0589,0.0977 0.0589,0.0233 0.13177,0.0233 0.0403,0 0.0853,-0.008 0.045,-0.009 0.0791,-0.0279 0.0357,-0.0186 0.0589,-0.0496 0.0248,-0.0326 0.0248,-0.0806 z m -0.25735,-1.0294 h 0.0822 q 0.24804,0 0.41857,0.0713 0.17209,0.0713 0.25115,0.2248 0.009,0.0248 0.0202,0.0496 0.0124,0.0232 0.0217,0.0589 0.009,0.0341 0.0155,0.0899 0.006,0.0558 0.006,0.14108 v 0.59376 q 0,0.0977 0.0388,0.12558 0.0403,0.0263 0.14573,0.0263 l -0.17208,0.42943 q -0.12403,0 -0.24495,-0.0465 -0.11937,-0.0465 -0.20309,-0.11007 -0.10077,0.0729 -0.22324,0.11472 -0.12247,0.0419 -0.2434,0.0419 -0.13022,0 -0.24494,-0.0388 -0.11317,-0.0388 -0.19999,-0.11008 -0.0853,-0.0713 -0.13643,-0.17363 -0.0496,-0.10387 -0.0496,-0.23409 0,-0.13023 0.0357,-0.21859 0.0372,-0.0884 0.10077,-0.15038 0.0636,-0.062 0.15348,-0.10232 0.0915,-0.0403 0.19534,-0.0744 0.0992,-0.0294 0.18603,-0.0403 0.0868,-0.0109 0.15348,-0.0202 0.0667,-0.009 0.10542,-0.0217 0.0388,-0.014 0.0388,-0.045 0,-0.0481 -0.0403,-0.0713 -0.0403,-0.0233 -0.0992,-0.031 -0.0574,-0.009 -0.12402,0 -0.0667,0.008 -0.12093,0.0233 -0.0636,0.0155 -0.13642,0.0589 -0.0729,0.0419 -0.16588,0.10852 l -0.25425,-0.38758 q 0.15038,-0.13642 0.32711,-0.20929 0.17828,-0.0729 0.36277,-0.0729 z"
           style="-inkscape-font-specification:'Stradale Normale Positivo'"
           id="path16177-4" />
        <path
           d="m 365.7627,941.11177 h 0.56741 v 1.86345 q 0,0.11317 0.0884,0.12557 0.0899,0.0109 0.22945,-0.0465 l 0.048,0.524 q -0.15347,0.0481 -0.31781,0.0496 -0.16278,0.002 -0.30075,-0.0512 -0.13798,-0.0527 -0.22635,-0.16123 -0.0884,-0.11007 -0.0884,-0.28835 z"
           style="-inkscape-font-specification:'Stradale Normale Positivo'"
           id="path16179-7" />
        <path
           d="m 367.45538,941.84196 v 1.74563 h -0.5457 v -1.74563 z m -0.27595,-0.71159 q 0.13333,0 0.22169,0.0899 0.0884,0.0884 0.0884,0.22169 0,0.0636 -0.0248,0.11937 -0.0248,0.0543 -0.0682,0.0961 -0.0434,0.0403 -0.0992,0.0667 -0.0543,0.0248 -0.11782,0.0248 -0.0636,0 -0.12092,-0.0248 -0.0574,-0.0263 -0.10077,-0.0667 -0.0419,-0.0419 -0.0667,-0.0961 -0.0233,-0.0558 -0.0233,-0.11937 0,-0.13022 0.0899,-0.22014 0.0915,-0.0915 0.22169,-0.0915 z"
           style="-inkscape-font-specification:'Stradale Normale Positivo'"
           id="path16181-7" />
        <path
           d="m 368.55872,941.73033 h 0.43253 v 0.5085 h -0.43253 v 0.71624 q 0,0.0713 0.0481,0.10076 0.048,0.0295 0.11162,0.031 0.0636,0.002 0.13177,-0.014 0.0682,-0.0155 0.11007,-0.0372 l 0.10077,0.48834 q -0.0605,0.0248 -0.13177,0.045 -0.0713,0.0186 -0.14263,0.031 -0.0713,0.0124 -0.13953,0.0186 -0.0682,0.008 -0.12557,0.008 -0.11782,0 -0.21859,-0.0341 -0.0992,-0.0326 -0.17364,-0.0977 -0.0744,-0.0651 -0.11782,-0.15968 -0.0419,-0.0961 -0.0419,-0.22014 v -0.87592 h -0.2837 v -0.5085 h 0.2837 v -0.49609 l 0.58912,-0.17363 z"
           style="-inkscape-font-specification:'Stradale Normale Positivo'"
           id="path16183-6" />
        <path
           d="m 370.11632,942.845 q -0.0419,0.0341 -0.10387,0.0449 -0.062,0.009 -0.12558,0.0155 -0.10387,0.0124 -0.15658,0.0512 -0.0527,0.0372 -0.0527,0.0853 0,0.0729 0.0589,0.0977 0.0589,0.0233 0.13178,0.0233 0.0403,0 0.0853,-0.008 0.0449,-0.009 0.0791,-0.0279 0.0357,-0.0186 0.0589,-0.0496 0.0248,-0.0326 0.0248,-0.0806 z m -0.25735,-1.0294 h 0.0822 q 0.24805,0 0.41858,0.0713 0.17208,0.0713 0.25115,0.2248 0.009,0.0248 0.0202,0.0496 0.0124,0.0232 0.0217,0.0589 0.009,0.0341 0.0155,0.0899 0.006,0.0558 0.006,0.14108 v 0.59376 q 0,0.0977 0.0388,0.12558 0.0403,0.0263 0.14573,0.0263 l -0.17209,0.42943 q -0.12402,0 -0.24494,-0.0465 -0.11938,-0.0465 -0.20309,-0.11007 -0.10077,0.0729 -0.22324,0.11472 -0.12248,0.0419 -0.2434,0.0419 -0.13022,0 -0.24495,-0.0388 -0.11317,-0.0388 -0.19998,-0.11008 -0.0853,-0.0713 -0.13643,-0.17363 -0.0496,-0.10387 -0.0496,-0.23409 0,-0.13023 0.0357,-0.21859 0.0372,-0.0884 0.10077,-0.15038 0.0636,-0.062 0.15348,-0.10232 0.0915,-0.0403 0.19533,-0.0744 0.0992,-0.0294 0.18604,-0.0403 0.0868,-0.0109 0.15348,-0.0202 0.0667,-0.009 0.10542,-0.0217 0.0387,-0.014 0.0387,-0.045 0,-0.0481 -0.0403,-0.0713 -0.0403,-0.0233 -0.0992,-0.031 -0.0574,-0.009 -0.12403,0 -0.0667,0.008 -0.12092,0.0233 -0.0636,0.0155 -0.13642,0.0589 -0.0729,0.0419 -0.16589,0.10852 l -0.25424,-0.38758 q 0.15038,-0.13642 0.32711,-0.20929 0.17828,-0.0729 0.36277,-0.0729 z"
           style="-inkscape-font-specification:'Stradale Normale Positivo'"
           id="path16185-6" />
        <path
           d="m 371.39221,941.11797 q -0.10077,0 -0.17364,0.0729 -0.0713,0.0713 -0.0713,0.17053 0,0.16744 0.13022,0.23565 0.0729,0.0186 0.0729,0.0279 0,0.0233 -0.11007,0.0233 -0.0419,0 -0.0419,0.0403 v 0.0698 q 0,0.0419 0.0419,0.0419 0.21859,0 0.34261,-0.0729 0.11162,-0.10232 0.11162,-0.26355 0,-0.13487 -0.0837,-0.23719 -0.0884,-0.10852 -0.21859,-0.10852 z"
           style="-inkscape-font-specification:'Stradale Normale Positivo'"
           id="path16187-2" />
      </g>
      <g
         aria-label="indirizzo"
         id="text16129-7"
         style="font-size:3.175px;font-family:'Stradale Normale Positivo';-inkscape-font-specification:'Stradale Normale Positivo';fill:#000000;fill-rule:evenodd;stroke-width:0.529167;stroke-linecap:round;paint-order:markers fill stroke"
         transform="matrix(4.1406528,0,0,4.1406528,-1354.1163,-2471.9885)">
        <path
           d="m 359.37554,949.01865 v 1.74563 h -0.54571 v -1.74563 z m -0.27596,-0.71158 q 0.13333,0 0.2217,0.0899 0.0884,0.0884 0.0884,0.2217 0,0.0636 -0.0248,0.11937 -0.0248,0.0543 -0.0682,0.0961 -0.0434,0.0403 -0.0992,0.0667 -0.0543,0.0248 -0.11783,0.0248 -0.0636,0 -0.12092,-0.0248 -0.0574,-0.0264 -0.10077,-0.0667 -0.0418,-0.0419 -0.0667,-0.0961 -0.0233,-0.0558 -0.0233,-0.11937 0,-0.13023 0.0899,-0.22014 0.0915,-0.0915 0.22169,-0.0915 z"
           id="path16152-4" />
        <path
           d="m 360.79549,950.76428 v -0.95498 q 0.006,-0.14418 -0.0775,-0.23254 -0.0822,-0.0884 -0.19223,-0.0822 -0.0574,0.003 -0.10697,0.031 -0.0496,0.0263 -0.0868,0.0698 -0.0357,0.0419 -0.0558,0.0977 -0.0202,0.0558 -0.0202,0.11627 l -0.003,0.95498 h -0.55346 l 0.003,-1.74563 h 0.49299 l 0.0341,0.0946 q 0.0357,-0.0279 0.0868,-0.0496 0.0527,-0.0233 0.11007,-0.0388 0.0574,-0.0171 0.11317,-0.0248 0.0558,-0.008 0.10387,-0.008 0.20929,0 0.34416,0.0667 0.13488,0.0667 0.21239,0.17828 0.0775,0.11162 0.10697,0.2589 0.031,0.14728 0.031,0.31316 v 0.95498 z"
           id="path16154-8" />
        <path
           d="m 362.77926,948.28846 h 0.555 v 2.47582 h -0.49764 l -0.045,-0.10542 q -0.0636,0.0543 -0.16898,0.10077 -0.10387,0.0465 -0.21549,0.0434 -0.19999,-0.003 -0.35812,-0.0837 -0.15658,-0.0822 -0.26355,-0.21549 -0.10542,-0.13332 -0.16278,-0.30075 -0.0574,-0.16899 -0.0574,-0.35037 0,-0.18138 0.0574,-0.34727 0.0574,-0.16743 0.16278,-0.293 0.10697,-0.12713 0.26045,-0.20154 0.15503,-0.076 0.34572,-0.076 0.0512,0 0.10697,0.0109 0.0574,0.009 0.11007,0.0263 0.0527,0.0171 0.0961,0.0388 0.045,0.0202 0.0744,0.0419 z m -0.33021,1.13327 q -0.16278,0.003 -0.25425,0.10697 -0.0915,0.10232 -0.0915,0.25735 0,0.10232 0.0109,0.19223 0.0109,0.0899 0.0465,0.16123 0.0372,0.0698 0.10542,0.11163 0.0682,0.0403 0.18294,0.0465 0.0605,0.003 0.11472,-0.0155 0.0558,-0.0202 0.10077,-0.0574 0.045,-0.0388 0.0744,-0.0899 0.031,-0.0527 0.0403,-0.11317 v -0.33641 q 0,-0.0543 -0.0326,-0.10542 -0.031,-0.0512 -0.0791,-0.0884 -0.0481,-0.0388 -0.10697,-0.0574 -0.0574,-0.0186 -0.11162,-0.0124 z"
           id="path16156-1" />
        <path
           d="m 364.20181,949.01865 v 1.74563 h -0.5457 v -1.74563 z m -0.27595,-0.71158 q 0.13332,0 0.22169,0.0899 0.0884,0.0884 0.0884,0.2217 0,0.0636 -0.0248,0.11937 -0.0248,0.0543 -0.0682,0.0961 -0.0434,0.0403 -0.0992,0.0667 -0.0543,0.0248 -0.11782,0.0248 -0.0636,0 -0.12093,-0.0248 -0.0574,-0.0264 -0.10077,-0.0667 -0.0419,-0.0419 -0.0667,-0.0961 -0.0233,-0.0558 -0.0233,-0.11937 0,-0.13023 0.0899,-0.22014 0.0915,-0.0915 0.2217,-0.0915 z"
           id="path16158-1" />
        <path
           d="m 365.65101,949.54575 q -0.0372,-0.003 -0.0822,-0.006 -0.045,-0.005 -0.0915,0 -0.045,0.003 -0.0899,0.0109 -0.045,0.008 -0.076,0.0233 -0.0186,0.009 -0.0543,0.0263 -0.0341,0.0155 -0.0698,0.0543 -0.0341,0.0372 -0.0605,0.10077 -0.0248,0.0636 -0.0248,0.16743 v 0.84181 h -0.5488 l -0.005,-1.74563 h 0.55346 v 0.10387 q 0.0574,-0.0341 0.0791,-0.0481 0.0217,-0.0155 0.0605,-0.0341 0.0636,-0.0279 0.12867,-0.0372 0.0651,-0.0109 0.11782,-0.009 0.0543,0.002 0.0977,0.0109 0.0434,0.008 0.0651,0.0109 z"
           id="path16160-3" />
        <path
           d="m 366.44917,949.01865 v 1.74563 h -0.5457 v -1.74563 z m -0.27595,-0.71158 q 0.13333,0 0.22169,0.0899 0.0884,0.0884 0.0884,0.2217 0,0.0636 -0.0248,0.11937 -0.0248,0.0543 -0.0682,0.0961 -0.0434,0.0403 -0.0992,0.0667 -0.0543,0.0248 -0.11782,0.0248 -0.0636,0 -0.12092,-0.0248 -0.0574,-0.0264 -0.10077,-0.0667 -0.0419,-0.0419 -0.0667,-0.0961 -0.0233,-0.0558 -0.0233,-0.11937 0,-0.13023 0.0899,-0.22014 0.0915,-0.0915 0.22169,-0.0915 z"
           id="path16162-3" />
        <path
           d="m 368.14539,949.01865 v 0.46354 l -0.62786,0.79685 h 0.65732 v 0.48524 h -1.37821 v -0.44803 l 0.63562,-0.80615 h -0.61392 v -0.49145 z"
           id="path16164-5" />
        <path
           d="m 369.67243,949.01865 v 0.46354 l -0.62787,0.79685 h 0.65733 v 0.48524 h -1.37821 v -0.44803 l 0.63562,-0.80615 h -0.61392 v -0.49145 z"
           id="path16166-9" />
        <path
           d="m 370.76229,950.29764 q 0.17363,-0.003 0.262,-0.11782 0.0899,-0.11472 0.0899,-0.30076 0,-0.0868 -0.0232,-0.16278 -0.0217,-0.076 -0.0651,-0.13487 -0.0419,-0.0589 -0.10852,-0.0915 -0.0667,-0.0341 -0.15503,-0.0341 -0.093,0 -0.15813,0.0357 -0.0651,0.0341 -0.10697,0.0915 -0.0403,0.0574 -0.0589,0.13332 -0.0186,0.076 -0.0186,0.16278 0,0.0853 0.0186,0.16124 0.0186,0.076 0.0589,0.13332 0.0419,0.0574 0.10697,0.0915 0.0651,0.0326 0.15813,0.0326 z m 0.0124,0.5054 q -0.19379,-0.008 -0.35347,-0.0775 -0.15813,-0.0698 -0.2713,-0.19068 -0.11162,-0.12247 -0.17363,-0.28526 -0.062,-0.16433 -0.062,-0.35501 0,-0.19689 0.0574,-0.36277 0.0574,-0.16743 0.16588,-0.2868 0.11007,-0.11938 0.2682,-0.18604 0.15968,-0.0667 0.35967,-0.0667 0.19068,0 0.35037,0.0698 0.16123,0.0698 0.2744,0.19224 0.11472,0.12247 0.17828,0.28835 0.0636,0.16433 0.0636,0.35812 0,0.18448 -0.0651,0.35037 -0.0651,0.16433 -0.17983,0.28835 -0.11318,0.12247 -0.2713,0.19534 -0.15658,0.0713 -0.34107,0.0682 z"
           id="path16168-0" />
      </g>
      <g
         aria-label="telefoni"
         id="text16133-5"
         style="font-size:3.175px;font-family:'Stradale Normale Positivo';-inkscape-font-specification:'Stradale Normale Positivo';fill:#000000;fill-rule:evenodd;stroke-width:0.529167;stroke-linecap:round;paint-order:markers fill stroke"
         transform="matrix(4.1406528,0,0,4.1406528,-1354.1163,-2471.9885)">
        <path
           d="m 359.4398,956.32335 h 0.43253 v 0.5085 h -0.43253 v 0.71623 q 0,0.0713 0.0481,0.10077 0.0481,0.0295 0.11162,0.031 0.0636,0.002 0.13178,-0.0139 0.0682,-0.0155 0.11007,-0.0372 l 0.10077,0.48834 q -0.0605,0.0248 -0.13178,0.045 -0.0713,0.0186 -0.14262,0.031 -0.0713,0.0124 -0.13953,0.0186 -0.0682,0.008 -0.12557,0.008 -0.11783,0 -0.2186,-0.0341 -0.0992,-0.0326 -0.17363,-0.0977 -0.0744,-0.0651 -0.11782,-0.15968 -0.0419,-0.0961 -0.0419,-0.22015 v -0.87591 h -0.2837 v -0.5085 h 0.2837 v -0.49609 l 0.58911,-0.17363 z"
           id="path16135-7" />
        <path
           d="m 361.66835,957.49227 h -1.11156 q 0.0419,0.13023 0.13642,0.18604 0.0946,0.0543 0.20619,0.0543 0.11473,0 0.2248,-0.045 0.11162,-0.0465 0.18138,-0.12247 l 0.34261,0.34881 q -0.0791,0.0884 -0.17983,0.14728 -0.0992,0.0589 -0.20619,0.0946 -0.10542,0.0341 -0.21704,0.0481 -0.11007,0.0155 -0.21549,0.0155 -0.18759,0 -0.33951,-0.0791 -0.15193,-0.0806 -0.26045,-0.21084 -0.10852,-0.13023 -0.16743,-0.29921 -0.0574,-0.17053 -0.0574,-0.34882 0,-0.17363 0.062,-0.33176 0.062,-0.15968 0.17208,-0.2806 0.11162,-0.12093 0.26355,-0.19069 0.15193,-0.0698 0.33021,-0.0698 0.19379,0 0.34727,0.0667 0.15503,0.0667 0.26355,0.18294 0.11007,0.11627 0.16898,0.27905 0.0589,0.16123 0.0589,0.35191 0,0.0558 0.002,0.11783 0.002,0.062 -0.005,0.0853 z m -0.5364,-0.41703 q -0.0264,-0.10076 -0.10852,-0.16588 -0.0822,-0.0651 -0.18139,-0.0589 -0.0884,0.006 -0.15968,0.0574 -0.0713,0.0512 -0.12247,0.16743 z"
           id="path16137-6" />
        <path
           d="m 361.84334,955.70479 h 0.56741 v 1.86345 q 0,0.11317 0.0884,0.12557 0.0899,0.0109 0.22944,-0.0465 l 0.0481,0.524 q -0.15348,0.0481 -0.31781,0.0496 -0.16278,0.002 -0.30076,-0.0512 -0.13797,-0.0527 -0.22634,-0.16123 -0.0884,-0.11007 -0.0884,-0.28835 z"
           id="path16139-3" />
        <path
           d="m 364.45031,957.49227 h -1.11156 q 0.0419,0.13023 0.13643,0.18604 0.0946,0.0543 0.20619,0.0543 0.11472,0 0.22479,-0.045 0.11162,-0.0465 0.18139,-0.12247 l 0.34261,0.34881 q -0.0791,0.0884 -0.17983,0.14728 -0.0992,0.0589 -0.20619,0.0946 -0.10542,0.0341 -0.21704,0.0481 -0.11007,0.0155 -0.21549,0.0155 -0.18759,0 -0.33952,-0.0791 -0.15193,-0.0806 -0.26045,-0.21084 -0.10852,-0.13023 -0.16743,-0.29921 -0.0574,-0.17053 -0.0574,-0.34882 0,-0.17363 0.062,-0.33176 0.062,-0.15968 0.17208,-0.2806 0.11163,-0.12093 0.26355,-0.19069 0.15193,-0.0698 0.33022,-0.0698 0.19378,0 0.34726,0.0667 0.15503,0.0667 0.26355,0.18294 0.11007,0.11627 0.16898,0.27905 0.0589,0.16123 0.0589,0.35191 0,0.0558 0.002,0.11783 0.002,0.062 -0.005,0.0853 z m -0.5364,-0.41703 q -0.0263,-0.10076 -0.10852,-0.16588 -0.0822,-0.0651 -0.18138,-0.0589 -0.0884,0.006 -0.15968,0.0574 -0.0713,0.0512 -0.12247,0.16743 z"
           id="path16141-3" />
        <path
           d="m 364.78765,958.1806 v -1.35185 h -0.26355 v -0.46044 h 0.26355 v -0.22944 q 0,-0.10697 0.031,-0.19224 0.031,-0.0868 0.0977,-0.14418 0.0961,-0.0853 0.21239,-0.11627 0.11782,-0.0326 0.23874,-0.0326 0.12093,0 0.2372,0.0217 0.11627,0.0217 0.21084,0.045 l -0.10852,0.47284 q -0.0403,-0.0155 -0.10232,-0.0295 -0.062,-0.0155 -0.11937,-0.0124 -0.0574,0.003 -0.0992,0.031 -0.0403,0.0263 -0.0403,0.093 v 0.093 h 0.35812 v 0.46044 h -0.35812 v 1.35185 z"
           id="path16143-6" />
        <path
           d="m 366.76968,957.71396 q 0.17363,-0.003 0.262,-0.11782 0.0899,-0.11472 0.0899,-0.30075 0,-0.0868 -0.0233,-0.16279 -0.0217,-0.076 -0.0651,-0.13487 -0.0419,-0.0589 -0.10852,-0.0915 -0.0667,-0.0341 -0.15503,-0.0341 -0.093,0 -0.15813,0.0357 -0.0651,0.0341 -0.10697,0.0915 -0.0403,0.0574 -0.0589,0.13332 -0.0186,0.076 -0.0186,0.16279 0,0.0853 0.0186,0.16123 0.0186,0.076 0.0589,0.13332 0.0419,0.0574 0.10697,0.0915 0.0651,0.0326 0.15813,0.0326 z m 0.0124,0.5054 q -0.19379,-0.008 -0.35347,-0.0775 -0.15813,-0.0698 -0.2713,-0.19069 -0.11162,-0.12247 -0.17363,-0.28525 -0.062,-0.16434 -0.062,-0.35502 0,-0.19689 0.0574,-0.36277 0.0574,-0.16743 0.16588,-0.2868 0.11007,-0.11938 0.2682,-0.18604 0.15968,-0.0667 0.35967,-0.0667 0.19068,0 0.35036,0.0698 0.16124,0.0698 0.27441,0.19224 0.11472,0.12247 0.17828,0.28835 0.0636,0.16433 0.0636,0.35812 0,0.18448 -0.0651,0.35037 -0.0651,0.16433 -0.17983,0.28835 -0.11318,0.12247 -0.27131,0.19534 -0.15657,0.0713 -0.34106,0.0682 z"
           id="path16145-3" />
        <path
           d="m 369.05171,958.1806 v -0.95498 q 0.006,-0.14417 -0.0775,-0.23254 -0.0822,-0.0884 -0.19223,-0.0822 -0.0574,0.003 -0.10697,0.031 -0.0496,0.0263 -0.0868,0.0698 -0.0357,0.0419 -0.0558,0.0977 -0.0202,0.0558 -0.0202,0.11627 l -0.003,0.95498 h -0.55346 l 0.003,-1.74563 h 0.493 l 0.0341,0.0946 q 0.0357,-0.0279 0.0868,-0.0496 0.0527,-0.0232 0.11007,-0.0388 0.0574,-0.0171 0.11317,-0.0248 0.0558,-0.008 0.10387,-0.008 0.20929,0 0.34417,0.0667 0.13487,0.0667 0.21239,0.17828 0.0775,0.11163 0.10697,0.2589 0.031,0.14728 0.031,0.31316 v 0.95498 z"
           id="path16147-8" />
        <path
           d="m 370.59425,956.43497 v 1.74563 h -0.5457 v -1.74563 z m -0.27595,-0.71158 q 0.13332,0 0.22169,0.0899 0.0884,0.0884 0.0884,0.22169 0,0.0636 -0.0248,0.11937 -0.0248,0.0543 -0.0682,0.0961 -0.0434,0.0403 -0.0992,0.0667 -0.0543,0.0248 -0.11782,0.0248 -0.0636,0 -0.12093,-0.0248 -0.0574,-0.0263 -0.10076,-0.0667 -0.0419,-0.0419 -0.0667,-0.0961 -0.0233,-0.0558 -0.0233,-0.11937 0,-0.13023 0.0899,-0.22014 0.0915,-0.0915 0.22169,-0.0915 z"
           id="path16149-4" />
      </g>
      <rect
         style="fill:#b3b3b3;fill-rule:evenodd;stroke-width:2.22205;stroke-linecap:round;paint-order:markers fill stroke"
         id="rect16325-7"
         width="129.64583"
         height="19.049999"
         x="207.16481"
         y="1415.6062" />
      <rect
         style="fill:#b3b3b3;fill-rule:evenodd;stroke-width:2.22205;stroke-linecap:round;paint-order:markers fill stroke"
         id="rect16325-5-8"
         width="129.64583"
         height="19.049999"
         x="207.16478"
         y="1446.0333" />
      <rect
         style="fill:#b3b3b3;fill-rule:evenodd;stroke-width:1.46158;stroke-linecap:round;paint-order:markers fill stroke"
         id="rect16325-2-3"
         width="56.091667"
         height="19.049999"
         x="207.16478"
         y="1476.4603" />
      <rect
         style="fill:#b3b3b3;fill-rule:evenodd;stroke-width:1.46158;stroke-linecap:round;paint-order:markers fill stroke"
         id="rect16325-2-0-9"
         width="56.091667"
         height="19.049999"
         x="280.71893"
         y="1476.4603" />
    </g>
  </g>
</svg>
