<?xml version="1.0" encoding="UTF-8" standalone="no"?>
<!-- Created with Inkscape (http://www.inkscape.org/) -->

<svg
   width="224.89589mm"
   height="190.50005mm"
   viewBox="0 0 224.89589 190.50005"
   version="1.1"
   id="svg5329"
   inkscape:version="1.2.1 (9c6d41e410, 2022-07-14)"
   sodipodi:docname="Segnale stradale italiano - lanterne semaforiche speciali (figura II 461).svg"
   xmlns:inkscape="http://www.inkscape.org/namespaces/inkscape"
   xmlns:sodipodi="http://sodipodi.sourceforge.net/DTD/sodipodi-0.dtd"
   xmlns="http://www.w3.org/2000/svg"
   xmlns:svg="http://www.w3.org/2000/svg">
  <sodipodi:namedview
     id="namedview5331"
     pagecolor="#ffffff"
     bordercolor="#000000"
     borderopacity="0.25"
     inkscape:showpageshadow="2"
     inkscape:pageopacity="0.0"
     inkscape:pagecheckerboard="0"
     inkscape:deskcolor="#d1d1d1"
     inkscape:document-units="mm"
     showgrid="false"
     inkscape:zoom="0.76257015"
     inkscape:cx="495.03643"
     inkscape:cy="194.73618"
     inkscape:window-width="1920"
     inkscape:window-height="991"
     inkscape:window-x="-9"
     inkscape:window-y="-9"
     inkscape:window-maximized="1"
     inkscape:current-layer="layer1" />
  <defs
     id="defs5326" />
  <g
     inkscape:label="Livello 1"
     inkscape:groupmode="layer"
     id="layer1"
     transform="translate(25.707255,-9.1860537)">
    <g
       id="g5549"
       transform="translate(-5755.2595,-18475.132)">
      <g
         id="g4897-2-2"
         transform="translate(1762.1251,715.29258)">
        <rect
           style="fill:#ffffff;fill-rule:evenodd;stroke:#000000;stroke-width:1.05833;paint-order:markers fill stroke"
           id="rect36686-5-3-0-1-6-6-7-0"
           width="75.67083"
           height="189.44167"
           x="4116.123"
           y="17769.555" />
        <g
           id="g4867-6-6"
           transform="translate(4.217123,203.7186)">
          <circle
             style="fill:#000000;fill-rule:evenodd;stroke-width:0.859037;paint-order:markers fill stroke"
             id="path4285-7-7-1-7"
             cx="4149.7412"
             cy="17721.418"
             r="26.458334" />
          <g
             aria-label="30"
             transform="matrix(0.575932,0,0,0.57349542,1889.6344,8246.8312)"
             id="text4006-2-2-3"
             style="font-size:56.9754px;font-family:'Stradale Stretto Negativo';-inkscape-font-specification:'Stradale Stretto Negativo';fill:#494bff;fill-rule:evenodd;stroke-width:0.319485;paint-order:markers fill stroke">
            <path
               d="m 3913.7541,16519.491 q 1.2535,-0.969 2.45,-2.051 1.1964,-1.083 2.1081,-2.393 0.9116,-1.368 1.4813,-2.963 0.5698,-1.652 0.5698,-3.704 0,-2.905 -1.1965,-4.956 -1.1965,-2.109 -2.9627,-3.419 -1.7663,-1.367 -3.7604,-1.937 -1.9942,-0.627 -3.5895,-0.627 -1.6523,0 -3.5324,0.798 -1.8802,0.797 -3.5325,2.45 -1.5953,1.595 -2.6779,4.045 -1.0255,2.45 -1.0825,5.698 l 6.951,1.025 q 0.3419,-2.906 1.7662,-4.615 1.4244,-1.766 3.0197,-1.766 1.2535,0 1.8233,0.854 0.6267,0.798 0.6837,2.052 0.057,1.196 -0.3419,2.62 -0.3988,1.425 -1.1965,2.678 -0.7407,1.197 -1.7662,2.051 -1.0256,0.798 -2.2221,0.798 l -1.8232,0.228 v 7.749 h 2.0511 q 1.9372,-0.06 3.2476,0.797 1.3105,0.798 2.0512,2.165 0.7406,1.311 0.9116,2.906 0.1709,1.538 -0.2279,2.906 -0.3419,1.367 -1.2535,2.279 -0.9116,0.911 -2.336,0.911 -1.9941,0 -2.7918,-1.424 -0.7407,-1.481 -1.1965,-4.387 l -7.5207,1.481 q 0,3.305 1.1965,5.641 1.2534,2.336 2.9627,3.874 1.7662,1.482 3.6464,2.165 1.8802,0.684 3.1906,0.684 1.5953,0 3.7604,-0.57 2.1651,-0.513 4.1022,-1.937 1.9942,-1.424 3.4186,-3.874 1.4244,-2.45 1.5953,-6.268 0.1139,-2.392 -0.4558,-4.387 -0.5128,-2.051 -1.5953,-3.589 -1.0826,-1.538 -2.6209,-2.507 -1.5383,-1.026 -3.3046,-1.481 z"
               id="path4358-0-7"
               style="fill:#ffffff" />
            <path
               d="m 3941.0714,16506.443 q 1.1395,0 2.0511,1.254 0.9116,1.253 1.5383,3.304 0.6837,1.994 1.0256,4.501 0.3988,2.507 0.3988,5.014 0,3.077 -0.3418,5.869 -0.3419,2.734 -1.0256,4.786 -0.6837,2.051 -1.6523,3.304 -0.9116,1.197 -2.1081,1.197 -1.1395,0 -2.0511,-1.539 -0.9116,-1.538 -1.5383,-3.817 -0.5698,-2.279 -0.9116,-4.9 -0.2849,-2.678 -0.2849,-4.9 0,-2.051 0.3418,-4.501 0.3419,-2.507 0.9686,-4.615 0.6268,-2.108 1.5384,-3.532 0.9116,-1.425 2.0511,-1.425 z m -0.114,37.661 q 2.7918,0 5.2987,-1.709 2.507,-1.71 4.3871,-4.786 1.8802,-3.134 2.9628,-7.464 1.0825,-4.387 1.0255,-9.686 0,-4.786 -1.0255,-9.002 -0.9686,-4.216 -2.7349,-7.293 -1.7662,-3.133 -4.3301,-4.9 -2.5069,-1.823 -5.5836,-1.823 -2.6778,0 -5.0708,1.823 -2.336,1.767 -4.1592,4.9 -1.7662,3.077 -2.8488,7.293 -1.0825,4.216 -1.0825,9.002 0,5.356 1.0825,9.743 1.1396,4.33 2.9628,7.464 1.8232,3.076 4.2161,4.786 2.393,1.652 4.8999,1.652 z"
               id="path4360-5-4"
               style="fill:#ffffff" />
          </g>
        </g>
        <g
           id="g4873-6-6"
           transform="translate(4.217123,204.3686)">
          <circle
             style="fill:#000000;fill-rule:evenodd;stroke-width:0.859037;paint-order:markers fill stroke"
             id="path4285-7-9-8-8"
             cx="4149.7412"
             cy="17659.914"
             r="26.458334" />
          <g
             aria-label="40"
             id="text4060-4-4"
             style="font-size:56.9754px;font-family:'Stradale Stretto Positivo';-inkscape-font-specification:'Stradale Stretto Positivo';fill:#ff25ff;fill-rule:evenodd;stroke-width:0.319007;paint-order:markers fill stroke"
             transform="matrix(0.57471263,0,0,0.57471449,1888.991,8246.6306)">
            <path
               d="m 3928.3737,16356.87 h -9.7428 l -12.5346,31.108 v 5.584 h 13.902 v 7.749 h 8.3754 v -7.977 h 3.0766 v -7.749 h -3.0766 z m -8.3754,14.13 v 14.813 h -6.0394 z"
               style="-inkscape-font-specification:'Stradale Stretto Negativo';fill:#ffffff"
               id="path4353-4-4" />
            <path
               d="m 3949.3053,16364.732 q 1.1395,0 2.0511,1.254 0.9116,1.253 1.5383,3.304 0.6837,1.995 1.0256,4.501 0.3988,2.507 0.3988,5.014 0,3.077 -0.3418,5.869 -0.3419,2.735 -1.0256,4.786 -0.6837,2.051 -1.6523,3.304 -0.9116,1.197 -2.1081,1.197 -1.1395,0 -2.0511,-1.539 -0.9116,-1.538 -1.5383,-3.817 -0.5698,-2.279 -0.9116,-4.9 -0.2849,-2.678 -0.2849,-4.9 0,-2.051 0.3418,-4.501 0.3419,-2.507 0.9686,-4.615 0.6268,-2.108 1.5384,-3.532 0.9116,-1.425 2.0511,-1.425 z m -0.114,37.661 q 2.7918,0 5.2987,-1.709 2.507,-1.709 4.3871,-4.786 1.8802,-3.134 2.9628,-7.464 1.0825,-4.387 1.0255,-9.686 0,-4.786 -1.0255,-9.002 -0.9686,-4.216 -2.7349,-7.293 -1.7662,-3.133 -4.3301,-4.9 -2.5069,-1.823 -5.5836,-1.823 -2.6778,0 -5.0708,1.823 -2.336,1.767 -4.1592,4.9 -1.7662,3.077 -2.8488,7.293 -1.0825,4.216 -1.0825,9.002 0,5.356 1.0825,9.743 1.1395,4.33 2.9628,7.464 1.8232,3.077 4.2161,4.786 2.393,1.652 4.8999,1.652 z"
               style="-inkscape-font-specification:'Stradale Stretto Negativo';fill:#ffffff"
               id="path4355-7-9" />
          </g>
        </g>
        <g
           id="g4879-8-8"
           transform="translate(4.217123,206.03956)">
          <circle
             style="fill:#000000;fill-rule:evenodd;stroke-width:0.859037;paint-order:markers fill stroke"
             id="path4285-7-6-2"
             cx="4149.7412"
             cy="17597.389"
             r="26.458334" />
          <g
             aria-label="50"
             id="text3917-5-6"
             style="font-size:56.9754px;font-family:'Stradale Stretto Negativo';-inkscape-font-specification:'Stradale Stretto Negativo';fill:#494b32;fill-rule:evenodd;stroke-width:1.32292;paint-order:markers fill stroke"
             transform="matrix(0.57471263,0,0,0.57471449,1889.1941,8246.5538)">
            <path
               d="m 3909.2866,16270.829 6.7231,1.367 q 0.3989,-1.082 1.1965,-1.766 0.7977,-0.684 2.1651,-0.684 1.0255,0 1.7093,0.741 0.6837,0.684 1.0825,1.823 0.3988,1.14 0.5697,2.564 0.171,1.424 0.114,2.792 -0.057,2.108 -0.3988,3.589 -0.3419,1.425 -0.9116,2.336 -0.5128,0.855 -1.1965,1.254 -0.6837,0.399 -1.4814,0.399 -0.6837,0 -1.3104,-0.171 -0.5698,-0.228 -1.1395,-0.798 -0.5128,-0.627 -0.9686,-1.652 -0.4558,-1.083 -0.7977,-2.792 l -7.7486,1.424 q 0,2.45 0.9686,4.729 0.9685,2.222 2.5639,3.989 1.6522,1.709 3.8173,2.734 2.1651,1.026 4.615,1.026 2.1081,0 4.3301,-0.969 2.2791,-0.968 4.1023,-2.962 1.8802,-1.995 3.0766,-5.014 1.2535,-3.02 1.3105,-7.122 0.057,-4.9 -1.1395,-7.92 -1.1395,-3.076 -3.0197,-4.615 -1.8232,-1.595 -4.1592,-1.823 -2.279,-0.228 -4.5011,0.456 l 1.0825,-8.603 h 9.9138 v -6.951 h -17.4345 z"
               id="path4347-4-3"
               style="fill:#ffffff" />
            <path
               d="m 3949.6469,16256.072 q 1.1395,0 2.0511,1.254 0.9116,1.253 1.5383,3.304 0.6838,1.994 1.0256,4.501 0.3988,2.507 0.3988,5.014 0,3.077 -0.3418,5.869 -0.3419,2.734 -1.0256,4.786 -0.6837,2.051 -1.6523,3.304 -0.9116,1.197 -2.1081,1.197 -1.1395,0 -2.0511,-1.539 -0.9116,-1.538 -1.5383,-3.817 -0.5698,-2.279 -0.9116,-4.9 -0.2849,-2.678 -0.2849,-4.9 0,-2.051 0.3419,-4.501 0.3418,-2.507 0.9685,-4.615 0.6268,-2.108 1.5384,-3.532 0.9116,-1.425 2.0511,-1.425 z m -0.114,37.661 q 2.7918,0 5.2988,-1.709 2.5069,-1.71 4.3871,-4.786 1.8802,-3.134 2.9627,-7.464 1.0825,-4.387 1.0255,-9.686 0,-4.786 -1.0255,-9.002 -0.9686,-4.216 -2.7348,-7.293 -1.7663,-3.133 -4.3302,-4.9 -2.5069,-1.823 -5.5836,-1.823 -2.6778,0 -5.0708,1.823 -2.336,1.767 -4.1592,4.9 -1.7662,3.077 -2.8487,7.293 -1.0826,4.216 -1.0826,9.002 0,5.356 1.0826,9.743 1.1395,4.33 2.9627,7.464 1.8232,3.076 4.2162,4.786 2.3929,1.652 4.8998,1.652 z"
               id="path4349-5-8"
               style="fill:#ffffff" />
          </g>
        </g>
      </g>
      <g
         id="g5047-6-1-4"
         transform="translate(2215.0039,1014.773)">
        <rect
           style="fill:#ffffff;fill-rule:evenodd;stroke:#000000;stroke-width:1.05833;paint-order:markers fill stroke"
           id="rect3971-8-7-4-5"
           width="76.729164"
           height="76.729164"
           x="3515.0776"
           y="17470.074" />
        <circle
           style="fill:#d92124;fill-rule:evenodd;stroke:#000000;stroke-width:0.529167;paint-order:markers fill stroke"
           id="path4285-70-0-5-0"
           cx="3553.4424"
           cy="17508.439"
           r="26.458332" />
      </g>
      <g
         id="g5052-8-0"
         transform="translate(1588.8498,1411.7728)">
        <rect
           style="fill:#ffffff;fill-rule:evenodd;stroke:#000000;stroke-width:1.058;paint-order:markers fill stroke"
           id="rect3971-3-9"
           width="134.9375"
           height="76.729164"
           x="4141.2314"
           y="17185.787" />
        <circle
           style="fill:#d92124;fill-rule:evenodd;stroke:#000000;stroke-width:0.529167;paint-order:markers fill stroke"
           id="path4285-6-9"
           cx="4176.9502"
           cy="17224.152"
           r="26.458334" />
        <ellipse
           style="fill:#d92124;fill-rule:evenodd;stroke:#000000;stroke-width:0.529167;paint-order:markers fill stroke"
           id="path4285-9-6-7"
           cx="4240.4497"
           cy="17224.152"
           rx="26.458336"
           ry="26.458334" />
      </g>
    </g>
  </g>
</svg>
