<?xml version="1.0" encoding="UTF-8" standalone="no"?>
<!-- Created with Inkscape (http://www.inkscape.org/) -->

<svg
   xmlns:dc="http://purl.org/dc/elements/1.1/"
   xmlns:cc="http://creativecommons.org/ns#"
   xmlns:rdf="http://www.w3.org/1999/02/22-rdf-syntax-ns#"
   xmlns:svg="http://www.w3.org/2000/svg"
   xmlns="http://www.w3.org/2000/svg"
   xmlns:sodipodi="http://sodipodi.sourceforge.net/DTD/sodipodi-0.dtd"
   xmlns:inkscape="http://www.inkscape.org/namespaces/inkscape"
   version="1.1"
   width="200"
   height="200"
   id="svg2"
   inkscape:version="0.47 r22583"
   sodipodi:docname="Italian traffic signs - icona catene.svg"
   sodipodi:version="0.32"
   inkscape:output_extension="org.inkscape.output.svg.inkscape">
  <metadata
     id="metadata2877">
    <rdf:RDF>
      <cc:Work
         rdf:about="">
        <dc:format>image/svg+xml</dc:format>
        <dc:type
           rdf:resource="http://purl.org/dc/dcmitype/StillImage" />
        <dc:title></dc:title>
      </cc:Work>
    </rdf:RDF>
  </metadata>
  <sodipodi:namedview
     pagecolor="#ffffff"
     bordercolor="#666666"
     borderopacity="1"
     objecttolerance="10"
     gridtolerance="10"
     guidetolerance="10"
     inkscape:pageopacity="0"
     inkscape:pageshadow="2"
     inkscape:window-width="1600"
     inkscape:window-height="838"
     id="namedview2875"
     showgrid="false"
     inkscape:zoom="2.3765092"
     inkscape:cx="95.405642"
     inkscape:cy="95.435633"
     inkscape:window-x="-8"
     inkscape:window-y="-8"
     inkscape:window-maximized="1"
     inkscape:current-layer="svg2" />
  <defs
     id="defs4">
    <inkscape:perspective
       sodipodi:type="inkscape:persp3d"
       inkscape:vp_x="0 : 100 : 1"
       inkscape:vp_y="0 : 1000 : 0"
       inkscape:vp_z="200 : 100 : 1"
       inkscape:persp3d-origin="100 : 66.666667 : 1"
       id="perspective2879" />
    <inkscape:perspective
       id="perspective2839"
       inkscape:persp3d-origin="0.5 : 0.33333333 : 1"
       inkscape:vp_z="1 : 0.5 : 1"
       inkscape:vp_y="0 : 1000 : 0"
       inkscape:vp_x="0 : 0.5 : 1"
       sodipodi:type="inkscape:persp3d" />
    <inkscape:perspective
       id="perspective3649"
       inkscape:persp3d-origin="0.5 : 0.33333333 : 1"
       inkscape:vp_z="1 : 0.5 : 1"
       inkscape:vp_y="0 : 1000 : 0"
       inkscape:vp_x="0 : 0.5 : 1"
       sodipodi:type="inkscape:persp3d" />
    <inkscape:perspective
       id="perspective3679"
       inkscape:persp3d-origin="0.5 : 0.33333333 : 1"
       inkscape:vp_z="1 : 0.5 : 1"
       inkscape:vp_y="0 : 1000 : 0"
       inkscape:vp_x="0 : 0.5 : 1"
       sodipodi:type="inkscape:persp3d" />
    <inkscape:perspective
       id="perspective3713"
       inkscape:persp3d-origin="0.5 : 0.33333333 : 1"
       inkscape:vp_z="1 : 0.5 : 1"
       inkscape:vp_y="0 : 1000 : 0"
       inkscape:vp_x="0 : 0.5 : 1"
       sodipodi:type="inkscape:persp3d" />
    <inkscape:perspective
       id="perspective3741"
       inkscape:persp3d-origin="0.5 : 0.33333333 : 1"
       inkscape:vp_z="1 : 0.5 : 1"
       inkscape:vp_y="0 : 1000 : 0"
       inkscape:vp_x="0 : 0.5 : 1"
       sodipodi:type="inkscape:persp3d" />
    <inkscape:perspective
       id="perspective3765"
       inkscape:persp3d-origin="0.5 : 0.33333333 : 1"
       inkscape:vp_z="1 : 0.5 : 1"
       inkscape:vp_y="0 : 1000 : 0"
       inkscape:vp_x="0 : 0.5 : 1"
       sodipodi:type="inkscape:persp3d" />
    <inkscape:perspective
       id="perspective3801"
       inkscape:persp3d-origin="0.5 : 0.33333333 : 1"
       inkscape:vp_z="1 : 0.5 : 1"
       inkscape:vp_y="0 : 1000 : 0"
       inkscape:vp_x="0 : 0.5 : 1"
       sodipodi:type="inkscape:persp3d" />
    <inkscape:perspective
       id="perspective2863"
       inkscape:persp3d-origin="0.5 : 0.33333333 : 1"
       inkscape:vp_z="1 : 0.5 : 1"
       inkscape:vp_y="0 : 1000 : 0"
       inkscape:vp_x="0 : 0.5 : 1"
       sodipodi:type="inkscape:persp3d" />
    <inkscape:perspective
       id="perspective3859"
       inkscape:persp3d-origin="0.5 : 0.33333333 : 1"
       inkscape:vp_z="1 : 0.5 : 1"
       inkscape:vp_y="0 : 1000 : 0"
       inkscape:vp_x="0 : 0.5 : 1"
       sodipodi:type="inkscape:persp3d" />
    <inkscape:perspective
       id="perspective3964"
       inkscape:persp3d-origin="0.5 : 0.33333333 : 1"
       inkscape:vp_z="1 : 0.5 : 1"
       inkscape:vp_y="0 : 1000 : 0"
       inkscape:vp_x="0 : 0.5 : 1"
       sodipodi:type="inkscape:persp3d" />
    <inkscape:perspective
       id="perspective3988"
       inkscape:persp3d-origin="0.5 : 0.33333333 : 1"
       inkscape:vp_z="1 : 0.5 : 1"
       inkscape:vp_y="0 : 1000 : 0"
       inkscape:vp_x="0 : 0.5 : 1"
       sodipodi:type="inkscape:persp3d" />
    <inkscape:perspective
       id="perspective2879-7"
       inkscape:persp3d-origin="0.5 : 0.33333333 : 1"
       inkscape:vp_z="1 : 0.5 : 1"
       inkscape:vp_y="0 : 1000 : 0"
       inkscape:vp_x="0 : 0.5 : 1"
       sodipodi:type="inkscape:persp3d" />
    <inkscape:perspective
       id="perspective4031"
       inkscape:persp3d-origin="0.5 : 0.33333333 : 1"
       inkscape:vp_z="1 : 0.5 : 1"
       inkscape:vp_y="0 : 1000 : 0"
       inkscape:vp_x="0 : 0.5 : 1"
       sodipodi:type="inkscape:persp3d" />
    <inkscape:perspective
       id="perspective4047"
       inkscape:persp3d-origin="0.5 : 0.33333333 : 1"
       inkscape:vp_z="1 : 0.5 : 1"
       inkscape:vp_y="0 : 1000 : 0"
       inkscape:vp_x="0 : 0.5 : 1"
       sodipodi:type="inkscape:persp3d" />
    <inkscape:perspective
       id="perspective4063"
       inkscape:persp3d-origin="0.5 : 0.33333333 : 1"
       inkscape:vp_z="1 : 0.5 : 1"
       inkscape:vp_y="0 : 1000 : 0"
       inkscape:vp_x="0 : 0.5 : 1"
       sodipodi:type="inkscape:persp3d" />
    <inkscape:perspective
       id="perspective4079"
       inkscape:persp3d-origin="0.5 : 0.33333333 : 1"
       inkscape:vp_z="1 : 0.5 : 1"
       inkscape:vp_y="0 : 1000 : 0"
       inkscape:vp_x="0 : 0.5 : 1"
       sodipodi:type="inkscape:persp3d" />
    <inkscape:perspective
       id="perspective4097"
       inkscape:persp3d-origin="0.5 : 0.33333333 : 1"
       inkscape:vp_z="1 : 0.5 : 1"
       inkscape:vp_y="0 : 1000 : 0"
       inkscape:vp_x="0 : 0.5 : 1"
       sodipodi:type="inkscape:persp3d" />
    <inkscape:perspective
       id="perspective4115"
       inkscape:persp3d-origin="0.5 : 0.33333333 : 1"
       inkscape:vp_z="1 : 0.5 : 1"
       inkscape:vp_y="0 : 1000 : 0"
       inkscape:vp_x="0 : 0.5 : 1"
       sodipodi:type="inkscape:persp3d" />
    <inkscape:perspective
       id="perspective4129"
       inkscape:persp3d-origin="0.5 : 0.33333333 : 1"
       inkscape:vp_z="1 : 0.5 : 1"
       inkscape:vp_y="0 : 1000 : 0"
       inkscape:vp_x="0 : 0.5 : 1"
       sodipodi:type="inkscape:persp3d" />
    <inkscape:perspective
       id="perspective4153"
       inkscape:persp3d-origin="0.5 : 0.33333333 : 1"
       inkscape:vp_z="1 : 0.5 : 1"
       inkscape:vp_y="0 : 1000 : 0"
       inkscape:vp_x="0 : 0.5 : 1"
       sodipodi:type="inkscape:persp3d" />
    <inkscape:perspective
       id="perspective4179"
       inkscape:persp3d-origin="0.5 : 0.33333333 : 1"
       inkscape:vp_z="1 : 0.5 : 1"
       inkscape:vp_y="0 : 1000 : 0"
       inkscape:vp_x="0 : 0.5 : 1"
       sodipodi:type="inkscape:persp3d" />
    <inkscape:perspective
       id="perspective4195"
       inkscape:persp3d-origin="0.5 : 0.33333333 : 1"
       inkscape:vp_z="1 : 0.5 : 1"
       inkscape:vp_y="0 : 1000 : 0"
       inkscape:vp_x="0 : 0.5 : 1"
       sodipodi:type="inkscape:persp3d" />
    <inkscape:perspective
       id="perspective4213"
       inkscape:persp3d-origin="0.5 : 0.33333333 : 1"
       inkscape:vp_z="1 : 0.5 : 1"
       inkscape:vp_y="0 : 1000 : 0"
       inkscape:vp_x="0 : 0.5 : 1"
       sodipodi:type="inkscape:persp3d" />
    <inkscape:perspective
       id="perspective4267"
       inkscape:persp3d-origin="0.5 : 0.33333333 : 1"
       inkscape:vp_z="1 : 0.5 : 1"
       inkscape:vp_y="0 : 1000 : 0"
       inkscape:vp_x="0 : 0.5 : 1"
       sodipodi:type="inkscape:persp3d" />
    <inkscape:perspective
       id="perspective4283"
       inkscape:persp3d-origin="0.5 : 0.33333333 : 1"
       inkscape:vp_z="1 : 0.5 : 1"
       inkscape:vp_y="0 : 1000 : 0"
       inkscape:vp_x="0 : 0.5 : 1"
       sodipodi:type="inkscape:persp3d" />
    <inkscape:perspective
       id="perspective4314"
       inkscape:persp3d-origin="0.5 : 0.33333333 : 1"
       inkscape:vp_z="1 : 0.5 : 1"
       inkscape:vp_y="0 : 1000 : 0"
       inkscape:vp_x="0 : 0.5 : 1"
       sodipodi:type="inkscape:persp3d" />
    <inkscape:perspective
       id="perspective4330"
       inkscape:persp3d-origin="0.5 : 0.33333333 : 1"
       inkscape:vp_z="1 : 0.5 : 1"
       inkscape:vp_y="0 : 1000 : 0"
       inkscape:vp_x="0 : 0.5 : 1"
       sodipodi:type="inkscape:persp3d" />
    <inkscape:perspective
       id="perspective4346"
       inkscape:persp3d-origin="0.5 : 0.33333333 : 1"
       inkscape:vp_z="1 : 0.5 : 1"
       inkscape:vp_y="0 : 1000 : 0"
       inkscape:vp_x="0 : 0.5 : 1"
       sodipodi:type="inkscape:persp3d" />
    <inkscape:perspective
       id="perspective3742"
       inkscape:persp3d-origin="0.5 : 0.33333333 : 1"
       inkscape:vp_z="1 : 0.5 : 1"
       inkscape:vp_y="0 : 1000 : 0"
       inkscape:vp_x="0 : 0.5 : 1"
       sodipodi:type="inkscape:persp3d" />
    <inkscape:perspective
       id="perspective3776"
       inkscape:persp3d-origin="0.5 : 0.33333333 : 1"
       inkscape:vp_z="1 : 0.5 : 1"
       inkscape:vp_y="0 : 1000 : 0"
       inkscape:vp_x="0 : 0.5 : 1"
       sodipodi:type="inkscape:persp3d" />
    <inkscape:perspective
       id="perspective3792"
       inkscape:persp3d-origin="0.5 : 0.33333333 : 1"
       inkscape:vp_z="1 : 0.5 : 1"
       inkscape:vp_y="0 : 1000 : 0"
       inkscape:vp_x="0 : 0.5 : 1"
       sodipodi:type="inkscape:persp3d" />
    <inkscape:perspective
       id="perspective3808"
       inkscape:persp3d-origin="0.5 : 0.33333333 : 1"
       inkscape:vp_z="1 : 0.5 : 1"
       inkscape:vp_y="0 : 1000 : 0"
       inkscape:vp_x="0 : 0.5 : 1"
       sodipodi:type="inkscape:persp3d" />
    <inkscape:perspective
       id="perspective3824"
       inkscape:persp3d-origin="0.5 : 0.33333333 : 1"
       inkscape:vp_z="1 : 0.5 : 1"
       inkscape:vp_y="0 : 1000 : 0"
       inkscape:vp_x="0 : 0.5 : 1"
       sodipodi:type="inkscape:persp3d" />
    <inkscape:perspective
       id="perspective4354"
       inkscape:persp3d-origin="0.5 : 0.33333333 : 1"
       inkscape:vp_z="1 : 0.5 : 1"
       inkscape:vp_y="0 : 1000 : 0"
       inkscape:vp_x="0 : 0.5 : 1"
       sodipodi:type="inkscape:persp3d" />
    <inkscape:perspective
       id="perspective4395"
       inkscape:persp3d-origin="0.5 : 0.33333333 : 1"
       inkscape:vp_z="1 : 0.5 : 1"
       inkscape:vp_y="0 : 1000 : 0"
       inkscape:vp_x="0 : 0.5 : 1"
       sodipodi:type="inkscape:persp3d" />
    <inkscape:perspective
       id="perspective4435"
       inkscape:persp3d-origin="0.5 : 0.33333333 : 1"
       inkscape:vp_z="1 : 0.5 : 1"
       inkscape:vp_y="0 : 1000 : 0"
       inkscape:vp_x="0 : 0.5 : 1"
       sodipodi:type="inkscape:persp3d" />
    <inkscape:perspective
       id="perspective4460"
       inkscape:persp3d-origin="0.5 : 0.33333333 : 1"
       inkscape:vp_z="1 : 0.5 : 1"
       inkscape:vp_y="0 : 1000 : 0"
       inkscape:vp_x="0 : 0.5 : 1"
       sodipodi:type="inkscape:persp3d" />
    <inkscape:perspective
       id="perspective4479"
       inkscape:persp3d-origin="0.5 : 0.33333333 : 1"
       inkscape:vp_z="1 : 0.5 : 1"
       inkscape:vp_y="0 : 1000 : 0"
       inkscape:vp_x="0 : 0.5 : 1"
       sodipodi:type="inkscape:persp3d" />
    <inkscape:perspective
       id="perspective4495"
       inkscape:persp3d-origin="0.5 : 0.33333333 : 1"
       inkscape:vp_z="1 : 0.5 : 1"
       inkscape:vp_y="0 : 1000 : 0"
       inkscape:vp_x="0 : 0.5 : 1"
       sodipodi:type="inkscape:persp3d" />
    <inkscape:perspective
       id="perspective4511"
       inkscape:persp3d-origin="0.5 : 0.33333333 : 1"
       inkscape:vp_z="1 : 0.5 : 1"
       inkscape:vp_y="0 : 1000 : 0"
       inkscape:vp_x="0 : 0.5 : 1"
       sodipodi:type="inkscape:persp3d" />
    <inkscape:perspective
       id="perspective4527"
       inkscape:persp3d-origin="0.5 : 0.33333333 : 1"
       inkscape:vp_z="1 : 0.5 : 1"
       inkscape:vp_y="0 : 1000 : 0"
       inkscape:vp_x="0 : 0.5 : 1"
       sodipodi:type="inkscape:persp3d" />
  </defs>
  <path
     style="fill:#ffffff;fill-opacity:1;stroke:none"
     d="m -4.9305571,-3.438081 207.7153771,0 0,207.348391 -207.7153771,0 0,-207.348391 z"
     id="rect2881" />
  <path
     style="fill:none;stroke:#000000;stroke-width:3;stroke-miterlimit:4;stroke-opacity:1"
     d="m 21.814432,2.8621521 157.645218,0 c 10.29357,0 18.58045,8.2868829 18.58045,18.5804539 l 0,157.645234 c 0,10.29357 -8.28688,18.58045 -18.58045,18.58045 l -157.645218,0 c -10.293571,0 -18.5804535,-8.28688 -18.5804535,-18.58045 l 0,-157.645234 c 0,-10.293571 8.2868825,-18.5804539 18.5804535,-18.5804539 z"
     id="rect4614" />
  <path
     style="fill:#000000"
     d="m 84.352993,181.52756 c -0.529115,-0.56794 -0.962026,-1.28195 -0.962026,-1.58669 0,-0.30474 0.743119,-5.70797 1.651376,-12.00718 0.908257,-6.29921 1.651376,-11.74247 1.651376,-12.09615 0,-0.46405 -0.714569,-0.64304 -2.567172,-0.64304 -1.411946,0 -2.69414,-0.20543 -2.849313,-0.45651 -0.155178,-0.25108 0.80933,-6.8359 2.143349,-14.63294 1.33402,-7.79704 2.323142,-14.44314 2.198048,-14.76913 -0.125089,-0.32598 -4.599026,-3.72827 -9.942073,-7.56063 -5.343051,-3.83236 -10.039494,-7.43174 -10.436546,-7.99861 -0.988962,-1.41194 -0.905072,-2.81972 0.255973,-4.29575 1.902796,-2.41901 3.069002,-1.9604 15.135631,5.9521 l 10.972867,7.19528 6.681807,0 6.68181,0 11.1495,-7.43119 c 6.54765,-4.36403 11.61077,-7.43119 12.26707,-7.43119 2.48961,0 4.54127,2.96058 3.65927,5.28041 -0.2567,0.67517 -4.53613,3.98816 -11.08858,8.58442 -5.8688,4.1167 -10.67055,7.64673 -10.67055,7.8445 0,0.19776 0.84928,6.56487 1.88728,14.14912 1.03801,7.58426 1.88729,14.19019 1.88729,14.67984 0,0.76458 -0.36639,0.89028 -2.59502,0.89028 -1.87611,0 -2.59502,0.17815 -2.59502,0.64304 0,0.35368 0.74312,5.79694 1.65138,12.09615 0.90826,6.29921 1.65137,11.70244 1.65137,12.00718 0,0.30474 -0.43291,1.01875 -0.96202,1.58669 -1.5935,1.71042 -5.45345,1.2636 -6.53454,-0.75643 -0.24248,-0.45308 -1.20544,-5.80928 -2.13991,-11.90269 -2.35347,-15.34632 -1.77202,-13.67394 -4.754089,-13.67394 -2.982065,0 -2.400615,-1.67238 -4.754091,13.67394 -0.934471,6.09341 -1.897431,11.44961 -2.139905,11.90269 -1.08109,2.02003 -4.941045,2.46685 -6.534542,0.75643 z M 149.21022,138.0394 c -0.66921,-1.02134 -0.59226,-2.03556 0.93276,-12.29449 0.91418,-6.14973 1.66214,-11.69992 1.66214,-12.33376 0,-1.09398 -0.14359,-1.15243 -2.83093,-1.15243 -1.55701,0 -2.82674,-0.0531 -2.82162,-0.11796 0.005,-0.0649 1.06094,-3.39699 2.34627,-7.40471 1.28533,-4.00772 2.24628,-7.377443 2.13544,-7.488274 -0.11083,-0.11083 -2.38749,1.385647 -5.05924,3.325514 -2.67175,1.93986 -5.32155,3.7703 -5.88844,4.06763 -1.96232,1.02924 -4.39524,-0.74216 -4.39524,-3.20017 0,-0.70733 2.18531,-2.609417 8.03129,-6.990386 l 8.0313,-6.018644 -0.12828,-7.023675 -0.12828,-7.023676 -8.25688,-5.281078 c -8.1184,-5.192507 -8.25938,-5.310906 -8.40608,-7.059308 -0.0996,-1.187594 0.12054,-2.07628 0.6629,-2.675583 1.7235,-1.904447 3.08014,-1.295141 16.67543,7.489406 16.37419,10.580132 14.8284,8.234546 19.11575,29.006259 1.70073,8.239815 3.09224,15.299455 3.09224,15.688075 0,0.52288 -0.552,0.70658 -2.1232,0.70658 -1.16776,0 -2.1232,0.0835 -2.1232,0.1855 0,0.10202 2.22838,5.25077 4.95196,11.44168 2.72357,6.1909 4.95293,11.7339 4.95413,12.31778 0.005,2.29628 -3.28055,3.84515 -4.8426,2.28311 -0.36618,-0.36618 -3.19085,-6.42642 -6.27704,-13.4672 l -5.61127,-12.80142 -2.60166,0.13823 -2.60167,0.13823 -1.77124,12.69115 c -0.97418,6.98013 -2.00944,12.97816 -2.30057,13.32896 -0.899,1.08323 -3.59259,0.79382 -4.42417,-0.47534 z M 45.015207,137.9833 c -0.876484,-0.87648 -0.850025,-0.73679 -2.682899,-14.16497 -1.892282,-13.8634 -1.414845,-12.50327 -4.388952,-12.50327 l -2.493852,0 -4.180643,9.55439 c -7.932118,18.12796 -7.507061,17.33945 -9.347024,17.33945 -1.807795,0 -3.170452,-1.17269 -3.170452,-2.72845 0,-0.55152 2.146167,-5.94896 4.769259,-11.99431 2.623092,-6.04534 4.875166,-11.25693 5.004608,-11.58131 0.169817,-0.42555 -0.435596,-0.58977 -2.174239,-0.58977 -1.325273,0 -2.409588,-0.1595 -2.409588,-0.35445 0,-0.51631 5.972906,-27.964679 6.55846,-30.139258 1.229286,-4.56522 2.316261,-5.53831 16.42695,-14.70585 7.270368,-4.723469 13.671847,-8.588128 14.225502,-8.588128 1.661992,0 2.968858,1.693854 2.802862,3.632834 -0.140065,1.636089 -0.416666,1.865645 -8.401716,6.972837 l -8.256881,5.281049 -0.103216,7.272893 -0.103215,7.272892 7.888274,5.897772 c 6.393383,4.780097 7.916047,6.138246 8.034814,7.166699 0.176617,1.52942 -1.323121,3.21401 -2.859514,3.21197 -0.583879,-9.4e-4 -3.715596,-1.8887 -6.959371,-4.19539 -3.243775,-2.306683 -5.948229,-4.148774 -6.0099,-4.093533 -0.06167,0.05524 1.037663,3.535559 2.442965,7.734043 l 2.55509,7.63362 -3.032738,0 c -2.113856,0 -3.031488,0.17869 -3.028605,0.58977 0.0024,0.32438 0.836275,5.89778 1.85333,12.38533 2.066286,13.18032 2.022379,14.02872 -0.739968,14.29808 -0.879688,0.0858 -1.77178,-0.15738 -2.219341,-0.60494 z m 50.952259,-21.22355 c -3.610781,-1.28589 -5.499173,-4.00067 -5.499173,-7.90569 0,-4.76114 3.046799,-7.89541 7.690535,-7.91132 2.718192,-0.009 4.413482,0.79561 6.370802,3.02489 5.2765,6.00959 -1.05315,15.46628 -8.562164,12.79212 z M 84.352993,99.902387 c -0.529115,-0.567936 -0.962026,-1.281944 -0.962026,-1.586684 0,-0.304745 0.743119,-5.707973 1.651376,-12.007181 0.908257,-6.299207 1.651376,-11.742474 1.651376,-12.096146 0,-0.471393 -0.755669,-0.643042 -2.83093,-0.643042 -1.557012,0 -2.830931,-0.195287 -2.830931,-0.433977 0,-0.238685 0.751947,-5.042482 1.67099,-10.675104 0.919043,-5.632627 1.609082,-10.41976 1.533421,-10.638071 -0.07566,-0.218317 -3.360456,1.506843 -7.299545,3.833693 -4.015001,2.371688 -7.694909,4.230628 -8.374837,4.230628 -2.470963,0 -4.303524,-3.372068 -3.0481,-5.608763 0.401378,-0.715107 5.384543,-4.177873 12.457868,-8.656882 16.184577,-10.248483 14.285607,-9.428049 21.395947,-9.243938 l 5.963078,0.154405 12.63127,7.952785 c 6.94719,4.37403 12.83907,8.34107 13.09305,8.815643 0.91208,1.704234 0.29922,4.791331 -1.14227,5.753838 -1.19816,0.800035 -2.88078,0.145434 -9.97005,-3.878729 -4.10805,-2.331899 -7.54413,-4.164884 -7.63571,-4.073299 -0.0916,0.09159 0.26524,4.659198 0.79294,10.150246 1.30703,13.60022 1.47735,12.317525 -1.63555,12.317525 -1.87611,0 -2.59502,0.178146 -2.59502,0.643042 0,0.353672 0.74312,5.796939 1.65138,12.096146 0.90826,6.299208 1.65137,11.702436 1.65137,12.007181 0,0.30474 -0.43291,1.018748 -0.96202,1.586684 -1.5935,1.710423 -5.45345,1.263603 -6.53454,-0.756429 -0.24248,-0.453072 -1.20544,-5.809277 -2.13991,-11.902686 -2.35347,-15.346324 -1.77202,-13.673938 -4.754089,-13.673938 -2.982065,0 -2.400615,-1.672386 -4.754091,13.673938 -0.934471,6.093409 -1.897431,11.449614 -2.139905,11.902686 -1.08109,2.020032 -4.941045,2.466852 -6.534542,0.756429 z m 87.090117,-27.113746 -1.8299,-1.196995 1.2484,-0.818941 1.2484,-0.818936 -1.20823,-0.550508 c -1.00323,-0.457096 -1.52182,-0.390531 -3.05632,0.39232 -2.27776,1.162026 -3.46105,1.170897 -5.94121,0.04454 -2.64779,-1.202504 -3.96544,-3.446993 -3.96544,-6.754737 0,-5.740892 5.32242,-9.081857 10.36769,-6.507951 3.14027,1.602042 4.72657,5.078283 3.81835,8.36757 -0.35919,1.300879 -0.33446,1.834042 0.0978,2.108657 0.97813,0.621394 1.28627,0.430325 1.28627,-0.797563 0,-1.466172 0.13964,-1.463893 2.71322,0.04435 2.05528,1.204471 2.0724,1.235088 1.07921,1.930742 -0.99313,0.695612 -0.97449,0.72887 1.17047,2.089165 1.45315,0.921563 2.12786,1.65408 2.02427,2.197694 -0.22758,1.194214 -2.0541,1.261057 -3.86563,0.141471 -2.01229,-1.243689 -2.17789,-1.228321 -2.17789,0.202082 0,1.469446 -0.67659,1.453041 -3.00946,-0.07296 z m -153.320824,-0.0057 c -0.856578,-0.856578 -0.150248,-2.101059 1.861695,-3.280136 l 2.176238,-1.275358 -1.068335,-0.805848 -1.068336,-0.805848 2.118347,-1.241434 c 2.605824,-1.527127 2.743173,-1.530227 2.743173,-0.06189 0,1.237645 0.306898,1.419415 1.315795,0.779318 0.470031,-0.298215 0.489701,-0.697103 0.08665,-1.757197 -0.286775,-0.754278 -0.382961,-2.109402 -0.213747,-3.011393 0.784896,-4.183851 3.1226,-6.152192 7.30409,-6.150022 4.478054,0.0024 7.068776,2.572 7.074218,7.016764 0.004,3.256009 -1.32773,5.510038 -3.962335,6.706545 -2.485831,1.128942 -3.89354,1.119704 -6.169195,-0.04048 -1.71996,-0.876886 -1.918446,-0.888285 -3.010319,-0.172862 l -1.168948,0.765923 1.339834,0.702009 1.339834,0.70201 -1.849985,1.119812 c -2.372912,1.436334 -3.029539,1.414715 -3.029539,-0.09975 l 0,-1.224387 -2.08926,1.224387 c -2.105139,1.233691 -3.150921,1.488791 -3.729875,0.909837 z M 94.530627,33.764087 c -5.274269,-3.19263 -5.535422,-10.885001 -0.47571,-14.012078 1.364363,-0.843221 2.180322,-0.987197 4.689357,-0.827434 4.818666,0.30683 7.352936,2.741984 7.636956,7.338286 0.19943,3.227429 -1.03484,5.809791 -3.60457,7.541536 -2.20436,1.485513 -5.754017,1.468159 -8.246033,-0.04031 z"
     id="path4533"
     sodipodi:nodetypes="csssssssssscccccssssssssssssssssccssssssssscccccsssssssssscccccsccscccsssssssssscccccsssscccsssccsssccssssssssssscccsssssssssssssssccccccssssssssssssscccccccssssssssccccccccccssssc" />
</svg>
