<?xml version="1.0" encoding="UTF-8" standalone="no"?>
<!-- Created with Inkscape (http://www.inkscape.org/) -->

<svg
   xmlns:dc="http://purl.org/dc/elements/1.1/"
   xmlns:cc="http://creativecommons.org/ns#"
   xmlns:rdf="http://www.w3.org/1999/02/22-rdf-syntax-ns#"
   xmlns:svg="http://www.w3.org/2000/svg"
   xmlns="http://www.w3.org/2000/svg"
   xmlns:sodipodi="http://sodipodi.sourceforge.net/DTD/sodipodi-0.dtd"
   xmlns:inkscape="http://www.inkscape.org/namespaces/inkscape"
   version="1.1"
   width="2300"
   height="1500"
   id="svg2"
   inkscape:version="0.48.5 r10040"
   sodipodi:docname="CANC Camion.svg"
   sodipodi:version="0.32"
   inkscape:output_extension="org.inkscape.output.svg.inkscape">
  <metadata
     id="metadata2877">
    <rdf:RDF>
      <cc:Work
         rdf:about="">
        <dc:format>image/svg+xml</dc:format>
        <dc:type
           rdf:resource="http://purl.org/dc/dcmitype/StillImage" />
        <dc:title />
      </cc:Work>
    </rdf:RDF>
  </metadata>
  <sodipodi:namedview
     pagecolor="#ffffff"
     bordercolor="#666666"
     borderopacity="1"
     objecttolerance="10"
     gridtolerance="10"
     guidetolerance="10"
     inkscape:pageopacity="0"
     inkscape:pageshadow="2"
     inkscape:window-width="1366"
     inkscape:window-height="705"
     id="namedview2875"
     showgrid="false"
     inkscape:zoom="0.10576258"
     inkscape:cx="-200.90498"
     inkscape:cy="654.44811"
     inkscape:window-x="-8"
     inkscape:window-y="-8"
     inkscape:window-maximized="1"
     inkscape:current-layer="svg2"
     showguides="true"
     inkscape:guide-bbox="true"
     fit-margin-top="0"
     fit-margin-left="0"
     fit-margin-right="0"
     fit-margin-bottom="0" />
  <defs
     id="defs4">
    <inkscape:perspective
       sodipodi:type="inkscape:persp3d"
       inkscape:vp_x="0 : 100 : 1"
       inkscape:vp_y="0 : 1000 : 0"
       inkscape:vp_z="200 : 100 : 1"
       inkscape:persp3d-origin="100 : 66.666667 : 1"
       id="perspective2879" />
    <inkscape:perspective
       id="perspective2839"
       inkscape:persp3d-origin="0.5 : 0.33333333 : 1"
       inkscape:vp_z="1 : 0.5 : 1"
       inkscape:vp_y="0 : 1000 : 0"
       inkscape:vp_x="0 : 0.5 : 1"
       sodipodi:type="inkscape:persp3d" />
    <inkscape:perspective
       id="perspective3649"
       inkscape:persp3d-origin="0.5 : 0.33333333 : 1"
       inkscape:vp_z="1 : 0.5 : 1"
       inkscape:vp_y="0 : 1000 : 0"
       inkscape:vp_x="0 : 0.5 : 1"
       sodipodi:type="inkscape:persp3d" />
    <inkscape:perspective
       id="perspective3679"
       inkscape:persp3d-origin="0.5 : 0.33333333 : 1"
       inkscape:vp_z="1 : 0.5 : 1"
       inkscape:vp_y="0 : 1000 : 0"
       inkscape:vp_x="0 : 0.5 : 1"
       sodipodi:type="inkscape:persp3d" />
    <inkscape:perspective
       id="perspective3713"
       inkscape:persp3d-origin="0.5 : 0.33333333 : 1"
       inkscape:vp_z="1 : 0.5 : 1"
       inkscape:vp_y="0 : 1000 : 0"
       inkscape:vp_x="0 : 0.5 : 1"
       sodipodi:type="inkscape:persp3d" />
    <inkscape:perspective
       id="perspective3741"
       inkscape:persp3d-origin="0.5 : 0.33333333 : 1"
       inkscape:vp_z="1 : 0.5 : 1"
       inkscape:vp_y="0 : 1000 : 0"
       inkscape:vp_x="0 : 0.5 : 1"
       sodipodi:type="inkscape:persp3d" />
    <inkscape:perspective
       id="perspective3765"
       inkscape:persp3d-origin="0.5 : 0.33333333 : 1"
       inkscape:vp_z="1 : 0.5 : 1"
       inkscape:vp_y="0 : 1000 : 0"
       inkscape:vp_x="0 : 0.5 : 1"
       sodipodi:type="inkscape:persp3d" />
    <inkscape:perspective
       id="perspective3801"
       inkscape:persp3d-origin="0.5 : 0.33333333 : 1"
       inkscape:vp_z="1 : 0.5 : 1"
       inkscape:vp_y="0 : 1000 : 0"
       inkscape:vp_x="0 : 0.5 : 1"
       sodipodi:type="inkscape:persp3d" />
    <inkscape:perspective
       id="perspective2863"
       inkscape:persp3d-origin="0.5 : 0.33333333 : 1"
       inkscape:vp_z="1 : 0.5 : 1"
       inkscape:vp_y="0 : 1000 : 0"
       inkscape:vp_x="0 : 0.5 : 1"
       sodipodi:type="inkscape:persp3d" />
    <inkscape:perspective
       id="perspective3859"
       inkscape:persp3d-origin="0.5 : 0.33333333 : 1"
       inkscape:vp_z="1 : 0.5 : 1"
       inkscape:vp_y="0 : 1000 : 0"
       inkscape:vp_x="0 : 0.5 : 1"
       sodipodi:type="inkscape:persp3d" />
    <inkscape:perspective
       id="perspective3964"
       inkscape:persp3d-origin="0.5 : 0.33333333 : 1"
       inkscape:vp_z="1 : 0.5 : 1"
       inkscape:vp_y="0 : 1000 : 0"
       inkscape:vp_x="0 : 0.5 : 1"
       sodipodi:type="inkscape:persp3d" />
    <inkscape:perspective
       id="perspective3988"
       inkscape:persp3d-origin="0.5 : 0.33333333 : 1"
       inkscape:vp_z="1 : 0.5 : 1"
       inkscape:vp_y="0 : 1000 : 0"
       inkscape:vp_x="0 : 0.5 : 1"
       sodipodi:type="inkscape:persp3d" />
    <inkscape:perspective
       id="perspective2879-7"
       inkscape:persp3d-origin="0.5 : 0.33333333 : 1"
       inkscape:vp_z="1 : 0.5 : 1"
       inkscape:vp_y="0 : 1000 : 0"
       inkscape:vp_x="0 : 0.5 : 1"
       sodipodi:type="inkscape:persp3d" />
    <inkscape:perspective
       id="perspective4031"
       inkscape:persp3d-origin="0.5 : 0.33333333 : 1"
       inkscape:vp_z="1 : 0.5 : 1"
       inkscape:vp_y="0 : 1000 : 0"
       inkscape:vp_x="0 : 0.5 : 1"
       sodipodi:type="inkscape:persp3d" />
    <inkscape:perspective
       id="perspective4047"
       inkscape:persp3d-origin="0.5 : 0.33333333 : 1"
       inkscape:vp_z="1 : 0.5 : 1"
       inkscape:vp_y="0 : 1000 : 0"
       inkscape:vp_x="0 : 0.5 : 1"
       sodipodi:type="inkscape:persp3d" />
    <inkscape:perspective
       id="perspective4063"
       inkscape:persp3d-origin="0.5 : 0.33333333 : 1"
       inkscape:vp_z="1 : 0.5 : 1"
       inkscape:vp_y="0 : 1000 : 0"
       inkscape:vp_x="0 : 0.5 : 1"
       sodipodi:type="inkscape:persp3d" />
    <inkscape:perspective
       id="perspective4079"
       inkscape:persp3d-origin="0.5 : 0.33333333 : 1"
       inkscape:vp_z="1 : 0.5 : 1"
       inkscape:vp_y="0 : 1000 : 0"
       inkscape:vp_x="0 : 0.5 : 1"
       sodipodi:type="inkscape:persp3d" />
    <inkscape:perspective
       id="perspective4097"
       inkscape:persp3d-origin="0.5 : 0.33333333 : 1"
       inkscape:vp_z="1 : 0.5 : 1"
       inkscape:vp_y="0 : 1000 : 0"
       inkscape:vp_x="0 : 0.5 : 1"
       sodipodi:type="inkscape:persp3d" />
    <inkscape:perspective
       id="perspective4115"
       inkscape:persp3d-origin="0.5 : 0.33333333 : 1"
       inkscape:vp_z="1 : 0.5 : 1"
       inkscape:vp_y="0 : 1000 : 0"
       inkscape:vp_x="0 : 0.5 : 1"
       sodipodi:type="inkscape:persp3d" />
    <inkscape:perspective
       id="perspective4129"
       inkscape:persp3d-origin="0.5 : 0.33333333 : 1"
       inkscape:vp_z="1 : 0.5 : 1"
       inkscape:vp_y="0 : 1000 : 0"
       inkscape:vp_x="0 : 0.5 : 1"
       sodipodi:type="inkscape:persp3d" />
    <inkscape:perspective
       id="perspective4153"
       inkscape:persp3d-origin="0.5 : 0.33333333 : 1"
       inkscape:vp_z="1 : 0.5 : 1"
       inkscape:vp_y="0 : 1000 : 0"
       inkscape:vp_x="0 : 0.5 : 1"
       sodipodi:type="inkscape:persp3d" />
    <inkscape:perspective
       id="perspective4179"
       inkscape:persp3d-origin="0.5 : 0.33333333 : 1"
       inkscape:vp_z="1 : 0.5 : 1"
       inkscape:vp_y="0 : 1000 : 0"
       inkscape:vp_x="0 : 0.5 : 1"
       sodipodi:type="inkscape:persp3d" />
    <inkscape:perspective
       id="perspective4195"
       inkscape:persp3d-origin="0.5 : 0.33333333 : 1"
       inkscape:vp_z="1 : 0.5 : 1"
       inkscape:vp_y="0 : 1000 : 0"
       inkscape:vp_x="0 : 0.5 : 1"
       sodipodi:type="inkscape:persp3d" />
    <inkscape:perspective
       id="perspective4213"
       inkscape:persp3d-origin="0.5 : 0.33333333 : 1"
       inkscape:vp_z="1 : 0.5 : 1"
       inkscape:vp_y="0 : 1000 : 0"
       inkscape:vp_x="0 : 0.5 : 1"
       sodipodi:type="inkscape:persp3d" />
    <inkscape:perspective
       id="perspective4267"
       inkscape:persp3d-origin="0.5 : 0.33333333 : 1"
       inkscape:vp_z="1 : 0.5 : 1"
       inkscape:vp_y="0 : 1000 : 0"
       inkscape:vp_x="0 : 0.5 : 1"
       sodipodi:type="inkscape:persp3d" />
    <inkscape:perspective
       id="perspective4283"
       inkscape:persp3d-origin="0.5 : 0.33333333 : 1"
       inkscape:vp_z="1 : 0.5 : 1"
       inkscape:vp_y="0 : 1000 : 0"
       inkscape:vp_x="0 : 0.5 : 1"
       sodipodi:type="inkscape:persp3d" />
    <inkscape:perspective
       id="perspective4314"
       inkscape:persp3d-origin="0.5 : 0.33333333 : 1"
       inkscape:vp_z="1 : 0.5 : 1"
       inkscape:vp_y="0 : 1000 : 0"
       inkscape:vp_x="0 : 0.5 : 1"
       sodipodi:type="inkscape:persp3d" />
    <inkscape:perspective
       id="perspective4330"
       inkscape:persp3d-origin="0.5 : 0.33333333 : 1"
       inkscape:vp_z="1 : 0.5 : 1"
       inkscape:vp_y="0 : 1000 : 0"
       inkscape:vp_x="0 : 0.5 : 1"
       sodipodi:type="inkscape:persp3d" />
    <inkscape:perspective
       id="perspective4346"
       inkscape:persp3d-origin="0.5 : 0.33333333 : 1"
       inkscape:vp_z="1 : 0.5 : 1"
       inkscape:vp_y="0 : 1000 : 0"
       inkscape:vp_x="0 : 0.5 : 1"
       sodipodi:type="inkscape:persp3d" />
    <inkscape:perspective
       id="perspective3742"
       inkscape:persp3d-origin="0.5 : 0.33333333 : 1"
       inkscape:vp_z="1 : 0.5 : 1"
       inkscape:vp_y="0 : 1000 : 0"
       inkscape:vp_x="0 : 0.5 : 1"
       sodipodi:type="inkscape:persp3d" />
    <inkscape:perspective
       id="perspective3776"
       inkscape:persp3d-origin="0.5 : 0.33333333 : 1"
       inkscape:vp_z="1 : 0.5 : 1"
       inkscape:vp_y="0 : 1000 : 0"
       inkscape:vp_x="0 : 0.5 : 1"
       sodipodi:type="inkscape:persp3d" />
    <inkscape:perspective
       id="perspective3792"
       inkscape:persp3d-origin="0.5 : 0.33333333 : 1"
       inkscape:vp_z="1 : 0.5 : 1"
       inkscape:vp_y="0 : 1000 : 0"
       inkscape:vp_x="0 : 0.5 : 1"
       sodipodi:type="inkscape:persp3d" />
    <inkscape:perspective
       id="perspective3808"
       inkscape:persp3d-origin="0.5 : 0.33333333 : 1"
       inkscape:vp_z="1 : 0.5 : 1"
       inkscape:vp_y="0 : 1000 : 0"
       inkscape:vp_x="0 : 0.5 : 1"
       sodipodi:type="inkscape:persp3d" />
    <inkscape:perspective
       id="perspective3824"
       inkscape:persp3d-origin="0.5 : 0.33333333 : 1"
       inkscape:vp_z="1 : 0.5 : 1"
       inkscape:vp_y="0 : 1000 : 0"
       inkscape:vp_x="0 : 0.5 : 1"
       sodipodi:type="inkscape:persp3d" />
    <inkscape:perspective
       id="perspective4354"
       inkscape:persp3d-origin="0.5 : 0.33333333 : 1"
       inkscape:vp_z="1 : 0.5 : 1"
       inkscape:vp_y="0 : 1000 : 0"
       inkscape:vp_x="0 : 0.5 : 1"
       sodipodi:type="inkscape:persp3d" />
    <inkscape:perspective
       id="perspective4395"
       inkscape:persp3d-origin="0.5 : 0.33333333 : 1"
       inkscape:vp_z="1 : 0.5 : 1"
       inkscape:vp_y="0 : 1000 : 0"
       inkscape:vp_x="0 : 0.5 : 1"
       sodipodi:type="inkscape:persp3d" />
    <inkscape:perspective
       id="perspective4435"
       inkscape:persp3d-origin="0.5 : 0.33333333 : 1"
       inkscape:vp_z="1 : 0.5 : 1"
       inkscape:vp_y="0 : 1000 : 0"
       inkscape:vp_x="0 : 0.5 : 1"
       sodipodi:type="inkscape:persp3d" />
    <inkscape:perspective
       id="perspective4460"
       inkscape:persp3d-origin="0.5 : 0.33333333 : 1"
       inkscape:vp_z="1 : 0.5 : 1"
       inkscape:vp_y="0 : 1000 : 0"
       inkscape:vp_x="0 : 0.5 : 1"
       sodipodi:type="inkscape:persp3d" />
    <inkscape:perspective
       id="perspective4479"
       inkscape:persp3d-origin="0.5 : 0.33333333 : 1"
       inkscape:vp_z="1 : 0.5 : 1"
       inkscape:vp_y="0 : 1000 : 0"
       inkscape:vp_x="0 : 0.5 : 1"
       sodipodi:type="inkscape:persp3d" />
    <inkscape:perspective
       id="perspective4495"
       inkscape:persp3d-origin="0.5 : 0.33333333 : 1"
       inkscape:vp_z="1 : 0.5 : 1"
       inkscape:vp_y="0 : 1000 : 0"
       inkscape:vp_x="0 : 0.5 : 1"
       sodipodi:type="inkscape:persp3d" />
    <inkscape:perspective
       id="perspective4511"
       inkscape:persp3d-origin="0.5 : 0.33333333 : 1"
       inkscape:vp_z="1 : 0.5 : 1"
       inkscape:vp_y="0 : 1000 : 0"
       inkscape:vp_x="0 : 0.5 : 1"
       sodipodi:type="inkscape:persp3d" />
    <inkscape:perspective
       id="perspective4527"
       inkscape:persp3d-origin="0.5 : 0.33333333 : 1"
       inkscape:vp_z="1 : 0.5 : 1"
       inkscape:vp_y="0 : 1000 : 0"
       inkscape:vp_x="0 : 0.5 : 1"
       sodipodi:type="inkscape:persp3d" />
    <inkscape:perspective
       id="perspective4543"
       inkscape:persp3d-origin="0.5 : 0.33333333 : 1"
       inkscape:vp_z="1 : 0.5 : 1"
       inkscape:vp_y="0 : 1000 : 0"
       inkscape:vp_x="0 : 0.5 : 1"
       sodipodi:type="inkscape:persp3d" />
    <inkscape:perspective
       id="perspective4559"
       inkscape:persp3d-origin="0.5 : 0.33333333 : 1"
       inkscape:vp_z="1 : 0.5 : 1"
       inkscape:vp_y="0 : 1000 : 0"
       inkscape:vp_x="0 : 0.5 : 1"
       sodipodi:type="inkscape:persp3d" />
    <inkscape:perspective
       id="perspective4575"
       inkscape:persp3d-origin="0.5 : 0.33333333 : 1"
       inkscape:vp_z="1 : 0.5 : 1"
       inkscape:vp_y="0 : 1000 : 0"
       inkscape:vp_x="0 : 0.5 : 1"
       sodipodi:type="inkscape:persp3d" />
    <inkscape:perspective
       id="perspective4591"
       inkscape:persp3d-origin="0.5 : 0.33333333 : 1"
       inkscape:vp_z="1 : 0.5 : 1"
       inkscape:vp_y="0 : 1000 : 0"
       inkscape:vp_x="0 : 0.5 : 1"
       sodipodi:type="inkscape:persp3d" />
  </defs>
  <rect
     style="fill:#00408b;fill-opacity:1;stroke:none"
     id="rect10167"
     width="2300"
     height="1500"
     x="0"
     y="0"
     rx="0"
     ry="0" />
  <path
     inkscape:connector-curvature="0"
     d="m 1757.6749,1364.6508 -79.644,0.3492 v -272.8142 l -93.9655,16.4171 c -2.4468,-0.3492 -4.8907,-1.0467 -6.2878,-2.4465 -1.7454,-1.3962 -2.0938,-4.8898 -2.0938,-7.3355 L 1717.8544,855 l 142.5205,244.17 c 0,2.4468 -0.6985,5.9385 -1.3961,6.9864 -1.7455,1.3961 -3.4937,2.0973 -5.9384,1.7453 l -95.3637,-17.1166 z"
     style="fill:#ffffff;fill-opacity:1;fill-rule:evenodd;stroke-width:0.15289199"
     id="path7285" />
  <g
     style="font-size:170.45211792px;font-style:normal;font-weight:normal;line-height:125%;letter-spacing:0px;word-spacing:0px;fill:#ffffff;fill-opacity:1;stroke:none;font-family:Sans"
     id="text10113-1"
     transform="translate(21.185333,0)">
    <path
       d="m 1348.0016,338.26365 c 10.1122,1.2e-4 19.0887,3.58068 26.9296,10.74169 8.4095,7.84093 12.6142,17.55612 12.6143,29.1456 -10e-5,11.13537 -4.2621,20.51071 -12.786,28.12606 -7.8409,7.15771 -16.7602,10.73653 -26.7579,10.73648 l -27.4447,0 0,41.25016 -25.2234,0 0,-119.99999 z m -27.4447,21.30651 0,35.45537 25.7385,0 c 4.092,7e-5 7.7852,-1.81795 11.0798,-5.45407 3.2944,-3.63597 4.9416,-7.50002 4.9417,-11.59218 -10e-5,-5.11153 -1.8173,-9.54344 -5.4515,-13.29576 -3.2945,-3.4088 -6.8179,-5.11325 -10.57,-5.11336 z"
       style="font-variant:normal;font-stretch:normal;fill:#ffffff;font-family:CodiceBianco;-inkscape-font-specification:CodiceBianco"
       id="path10300"
       inkscape:connector-curvature="0" />
    <path
       d="m 1487.0037,338.26365 0,21.64983 -58.1248,0 0,25.73844 52.1583,0 0,21.64463 -51.9866,0 0,27.61628 63.9195,0 0,23.17916 -88.4667,0 0,-119.82834 z"
       style="font-variant:normal;font-stretch:normal;fill:#ffffff;font-family:CodiceBianco;-inkscape-font-specification:CodiceBianco"
       id="path10302"
       inkscape:connector-curvature="0" />
    <path
       d="m 1561.9042,337.41055 c 20.7966,1.3e-4 38.4671,6.5353 53.0114,19.60554 l -17.7277,15.1684 c -3.5234,-3.06896 -7.8981,-5.79642 -13.1241,-8.18241 -6.478,-3.06895 -12.7271,-4.60347 -18.7472,-4.60358 -3.298,1.1e-4 -6.4243,0.51162 -9.3789,1.53453 -6.9323,2.27502 -10.114,6.64971 -9.5452,13.12411 0.2288,2.61485 2.502,4.77532 6.8195,6.48142 3.8631,1.58836 11.5895,3.63266 23.1792,6.13291 24.3199,5.2296 36.48,17.21797 36.4801,35.96514 -10e-5,11.47864 -4.517,20.7118 -13.5507,27.69951 -9.0338,6.98774 -21.336,10.48161 -36.9066,10.4816 -12.9525,10e-6 -25.2808,-3.46611 -36.9847,-10.39837 -7.3866,-4.20302 -13.5802,-9.14471 -18.5808,-14.82509 l 20.7967,-15.68338 c 1.9316,2.95465 5.9092,6.13641 11.9329,9.54527 8.0662,4.5464 16.4168,6.87679 25.0518,6.99121 5.9092,0.11099 10.6827,-1.05507 14.3205,-3.49821 3.6377,-2.44307 5.4566,-5.59621 5.4567,-9.45944 -10e-5,-4.43188 -2.842,-7.898 -8.5257,-10.39837 -3.5234,-1.58823 -9.7734,-3.32042 -18.7499,-5.19659 -8.9765,-1.87605 -15.0548,-3.55276 -18.2348,-5.03012 -5.5694,-2.50026 -9.4343,-4.71622 -11.5948,-6.64789 -6.0202,-5.34042 -9.0303,-12.38537 -9.0303,-21.13485 0,-12.84138 4.7145,-22.61379 14.1437,-29.31727 7.8407,-5.56925 17.6704,-8.35394 29.4889,-8.35407 z"
       style="font-variant:normal;font-stretch:normal;fill:#ffffff;font-family:CodiceBianco;-inkscape-font-specification:CodiceBianco"
       id="path10304"
       inkscape:connector-curvature="0" />
    <path
       d="m 1626.2971,399.2858 c 0,-22.49937 7.1594,-39.37395 21.4782,-50.62378 10.4555,-8.18055 22.5011,-12.27089 36.1368,-12.27102 12.4981,1.3e-4 23.6906,3.38042 33.5775,10.14089 9.8868,6.7607 16.8762,16.22013 20.9684,28.37834 l -23.6941,9.37882 c -1.363,-7.38645 -4.9141,-13.40924 -10.6533,-18.0684 -5.7394,-4.65897 -12.3595,-6.9885 -19.8604,-6.9886 -4.7718,10e-5 -9.3737,1.02138 -13.8055,3.06385 -12.7271,5.79835 -18.919,17.95838 -18.5756,36.48012 0.2254,9.77248 1.3888,16.931 3.4904,21.47557 2.1015,4.54467 6.2785,8.86302 12.5311,12.95505 4.5428,3.06908 9.5417,4.60361 14.9967,4.60358 7.7298,3e-5 14.8328,-2.69883 21.3091,-8.09658 6.4762,-5.39768 10.1114,-11.44995 10.9056,-18.15683 l 23.356,9.54528 c -1.7063,6.70687 -6.0255,13.75355 -12.9576,21.14005 -11.1354,11.70403 -25.1126,17.55604 -41.9316,17.55603 -12.7271,10e-6 -24.1468,-3.46611 -34.259,-10.39837 -15.3418,-10.45556 -23.0127,-27.16021 -23.0127,-50.114 z"
       style="font-variant:normal;font-stretch:normal;fill:#ffffff;font-family:CodiceBianco;-inkscape-font-specification:CodiceBianco"
       id="path10306"
       inkscape:connector-curvature="0" />
    <path
       d="m 1786.0543,338.26365 34.4306,0 40.7352,119.82834 -26.4198,0 -6.8144,-20.11531 -48.9228,0 -6.6479,20.11531 -25.5667,0 z m 17.2127,26.92964 -16.7029,50.45733 34.0925,0 z"
       style="font-variant:normal;font-stretch:normal;fill:#ffffff;font-family:CodiceBianco;-inkscape-font-specification:CodiceBianco"
       id="path10308"
       inkscape:connector-curvature="0" />
    <path
       d="m 1934.3677,338.26365 c 9.2036,1.2e-4 17.3288,3.3518 24.3756,10.05505 7.3864,7.04679 11.0796,15.68348 11.0798,25.91009 -2e-4,9.20378 -3.0692,17.0446 -9.2072,23.52248 -4.5465,4.88627 -10.0569,8.46683 -16.5313,10.74169 l 30.8518,49.59903 -26.9348,0 -29.489,-47.55473 -17.8941,0 0,47.55473 -23.6941,0 0,-119.82834 z m -33.7492,21.30651 0,29.83224 29.3173,0 c 3.0689,8e-5 6.0808,-1.42087 9.0355,-4.26286 2.9545,-2.84183 4.4318,-6.3643 4.4319,-10.56743 -10e-5,-4.20641 -1.4497,-7.75836 -4.3487,-10.65586 -2.8992,-2.89729 -6.0532,-4.34598 -9.4621,-4.34609 z"
       style="font-variant:normal;font-stretch:normal;fill:#ffffff;font-family:CodiceBianco;-inkscape-font-specification:CodiceBianco"
       id="path10310"
       inkscape:connector-curvature="0" />
    <path
       d="m 2022.0906,338.26365 34.4306,0 40.7352,119.82834 -26.4199,0 -6.8143,-20.11531 -48.9228,0 -6.6479,20.11531 -25.5668,0 z m 17.2127,26.92964 -16.7029,50.45733 34.0925,0 z"
       style="font-variant:normal;font-stretch:normal;fill:#ffffff;font-family:CodiceBianco;-inkscape-font-specification:CodiceBianco"
       id="path10312"
       inkscape:connector-curvature="0" />
  </g>
  <rect
     style="fill:#ffffff;fill-opacity:1;stroke:none"
     id="rect10281"
     width="75"
     height="170"
     x="1112.5"
     y="1200.2664" />
  <rect
     y="843.33472"
     x="1112.5"
     height="170"
     width="75"
     id="rect10279"
     style="fill:#ffffff;fill-opacity:1;stroke:none" />
  <rect
     style="fill:#ffffff;fill-opacity:1;stroke:none"
     id="rect10283"
     width="75"
     height="170"
     x="1112.5"
     y="486.40314" />
  <rect
     y="129.47113"
     x="1112.5"
     height="170"
     width="75"
     id="rect10289"
     style="fill:#ffffff;fill-opacity:1;stroke:none" />
  <path
     inkscape:connector-curvature="0"
     d="m 415.04862,1116.2053 0.3608,99.3367 c -0.3608,2.5785 -1.4721,4.4236 -2.947,5.7136 -1.4779,0.9216 -4.9789,1.1062 -7.0027,0.176 l -221.8961,-187.062 271.6556,-100.4423 c 2.2101,0.1761 5.5288,1.2901 6.6342,3.1324 1.1039,1.6595 1.6594,3.8712 1.4722,7.0036 l -33.3575,93.4387 c 89.7513,11.2423 154.0753,50.8667 158.3133,165.6845 V 1365 h -79.6162 v -161.445 c -1.6594,-59.5287 -32.6215,-82.9342 -93.626,-87.3576 z"
     style="fill:#ffffff;fill-opacity:1;fill-rule:evenodd;stroke-width:0.15289199"
     id="path7275" />
  <g
     style="font-size:170.45211792px;font-style:normal;font-weight:normal;line-height:125%;letter-spacing:0px;word-spacing:0px;fill:#ffffff;fill-opacity:1;stroke:none;font-family:Sans"
     id="text10113"
     transform="translate(-4.55567,0)">
    <path
       d="m 261.59736,693.2634 c 7.27202,1.3e-4 14.03433,3.06918 20.28697,9.20716 6.70326,6.4746 10.05495,13.8594 10.05505,22.15441 -1e-4,8.75296 -3.97773,16.93536 -11.9329,24.54723 11.24963,6.13817 16.87449,15.79788 16.8746,28.97915 -1.1e-4,8.63499 -2.67036,16.24867 -8.01075,22.84104 -5.68045,7.15767 -13.2369,11.248 -22.66938,12.27101 l -66.64528,0 0,-120 z m -36.81824,48.23616 28.63584,0 c 3.52327,8e-5 6.42153,-1.36278 8.69478,-4.0886 2.2731,-2.72565 3.40969,-5.85019 3.40977,-9.37362 -8e-5,-7.84072 -4.31756,-12.15994 -12.95245,-12.95765 l -27.78794,0 z m 0,49.94755 30.8518,0 c 4.77516,3e-5 8.58286,-1.47728 11.42312,-4.43192 2.3858,-2.72917 3.57874,-6.08258 3.57883,-10.06025 -9e-5,-3.74871 -1.16529,-7.10039 -3.4956,-10.05506 -2.33048,-2.95455 -5.53998,-4.65901 -9.62851,-5.11335 l -32.72964,0 z"
       style="font-variant:normal;font-stretch:normal;fill:#ffffff;font-family:CodiceBianco;-inkscape-font-specification:CodiceBianco"
       id="path10315"
       inkscape:connector-curvature="0" />
    <path
       d="m 346.02755,693.2634 34.43062,0 40.73518,119.82834 -26.41987,0 -6.81434,-20.1153 -48.92279,0 -6.64788,20.1153 -25.56678,0 z m 17.21271,26.92965 -16.70294,50.45732 34.09251,0 z"
       style="font-variant:normal;font-stretch:normal;fill:#ffffff;font-family:CodiceBianco;-inkscape-font-specification:CodiceBianco"
       id="path10317"
       inkscape:connector-curvature="0" />
    <path
       d="m 494.34087,693.2634 c 9.20362,1.3e-4 17.3288,3.35181 24.37557,10.05506 7.38643,7.04679 11.0797,15.68348 11.0798,25.91009 -10e-5,9.20378 -3.06915,17.04459 -9.20716,23.52248 -4.54645,4.88627 -10.05687,8.46683 -16.53127,10.74168 l 30.85179,49.59903 -26.93485,0 -29.48892,-47.55472 -17.89414,0 0,47.55472 -23.69414,0 0,-119.82834 z m -33.74918,21.30652 0,29.83224 29.31726,0 c 3.06899,8e-5 6.08082,-1.42088 9.0355,-4.26286 2.95454,-2.84183 4.43185,-6.3643 4.43192,-10.56743 -7e-5,-4.20642 -1.44964,-7.75837 -4.34869,-10.65586 -2.8992,-2.89729 -6.05321,-4.34599 -9.46205,-4.34609 z"
       style="font-variant:normal;font-stretch:normal;fill:#ffffff;font-family:CodiceBianco;-inkscape-font-specification:CodiceBianco"
       id="path10319"
       inkscape:connector-curvature="0" />
    <path
       d="m 579.33284,693.2634 0,119.82834 -24.71369,0 0,-119.82834 z"
       style="font-variant:normal;font-stretch:normal;fill:#ffffff;font-family:CodiceBianco;-inkscape-font-specification:CodiceBianco"
       id="path10321"
       inkscape:connector-curvature="0" />
  </g>
  <rect
     style="fill:none;stroke:#ffffff;stroke-width:34.5;stroke-miterlimit:4;stroke-opacity:1;stroke-dasharray:none"
     id="rect10325"
     width="2231"
     height="1431"
     x="34.499996"
     y="34.500034"
     rx="120.84851"
     ry="120.84851" />
</svg>
