<?xml version="1.0" encoding="UTF-8" standalone="no"?>
<!-- Created with Inkscape (http://www.inkscape.org/) -->

<svg
   xmlns:dc="http://purl.org/dc/elements/1.1/"
   xmlns:cc="http://creativecommons.org/ns#"
   xmlns:rdf="http://www.w3.org/1999/02/22-rdf-syntax-ns#"
   xmlns:svg="http://www.w3.org/2000/svg"
   xmlns="http://www.w3.org/2000/svg"
   xmlns:sodipodi="http://sodipodi.sourceforge.net/DTD/sodipodi-0.dtd"
   xmlns:inkscape="http://www.inkscape.org/namespaces/inkscape"
   version="1.1"
   width="200"
   height="200"
   id="svg2"
   inkscape:version="0.47 r22583"
   sodipodi:docname="Italian traffic signs - icona uscita di emergenza.svg"
   sodipodi:version="0.32"
   inkscape:output_extension="org.inkscape.output.svg.inkscape">
  <metadata
     id="metadata2877">
    <rdf:RDF>
      <cc:Work
         rdf:about="">
        <dc:format>image/svg+xml</dc:format>
        <dc:type
           rdf:resource="http://purl.org/dc/dcmitype/StillImage" />
        <dc:title></dc:title>
      </cc:Work>
    </rdf:RDF>
  </metadata>
  <sodipodi:namedview
     pagecolor="#ffffff"
     bordercolor="#666666"
     borderopacity="1"
     objecttolerance="10"
     gridtolerance="10"
     guidetolerance="10"
     inkscape:pageopacity="0"
     inkscape:pageshadow="2"
     inkscape:window-width="1600"
     inkscape:window-height="838"
     id="namedview2875"
     showgrid="false"
     inkscape:zoom="2.3765092"
     inkscape:cx="23.386779"
     inkscape:cy="100.19971"
     inkscape:window-x="-8"
     inkscape:window-y="-8"
     inkscape:window-maximized="1"
     inkscape:current-layer="svg2" />
  <defs
     id="defs4">
    <inkscape:perspective
       sodipodi:type="inkscape:persp3d"
       inkscape:vp_x="0 : 100 : 1"
       inkscape:vp_y="0 : 1000 : 0"
       inkscape:vp_z="200 : 100 : 1"
       inkscape:persp3d-origin="100 : 66.666667 : 1"
       id="perspective2879" />
    <inkscape:perspective
       id="perspective2839"
       inkscape:persp3d-origin="0.5 : 0.33333333 : 1"
       inkscape:vp_z="1 : 0.5 : 1"
       inkscape:vp_y="0 : 1000 : 0"
       inkscape:vp_x="0 : 0.5 : 1"
       sodipodi:type="inkscape:persp3d" />
    <inkscape:perspective
       id="perspective3649"
       inkscape:persp3d-origin="0.5 : 0.33333333 : 1"
       inkscape:vp_z="1 : 0.5 : 1"
       inkscape:vp_y="0 : 1000 : 0"
       inkscape:vp_x="0 : 0.5 : 1"
       sodipodi:type="inkscape:persp3d" />
    <inkscape:perspective
       id="perspective3679"
       inkscape:persp3d-origin="0.5 : 0.33333333 : 1"
       inkscape:vp_z="1 : 0.5 : 1"
       inkscape:vp_y="0 : 1000 : 0"
       inkscape:vp_x="0 : 0.5 : 1"
       sodipodi:type="inkscape:persp3d" />
    <inkscape:perspective
       id="perspective3713"
       inkscape:persp3d-origin="0.5 : 0.33333333 : 1"
       inkscape:vp_z="1 : 0.5 : 1"
       inkscape:vp_y="0 : 1000 : 0"
       inkscape:vp_x="0 : 0.5 : 1"
       sodipodi:type="inkscape:persp3d" />
    <inkscape:perspective
       id="perspective3741"
       inkscape:persp3d-origin="0.5 : 0.33333333 : 1"
       inkscape:vp_z="1 : 0.5 : 1"
       inkscape:vp_y="0 : 1000 : 0"
       inkscape:vp_x="0 : 0.5 : 1"
       sodipodi:type="inkscape:persp3d" />
    <inkscape:perspective
       id="perspective3765"
       inkscape:persp3d-origin="0.5 : 0.33333333 : 1"
       inkscape:vp_z="1 : 0.5 : 1"
       inkscape:vp_y="0 : 1000 : 0"
       inkscape:vp_x="0 : 0.5 : 1"
       sodipodi:type="inkscape:persp3d" />
    <inkscape:perspective
       id="perspective3801"
       inkscape:persp3d-origin="0.5 : 0.33333333 : 1"
       inkscape:vp_z="1 : 0.5 : 1"
       inkscape:vp_y="0 : 1000 : 0"
       inkscape:vp_x="0 : 0.5 : 1"
       sodipodi:type="inkscape:persp3d" />
    <inkscape:perspective
       id="perspective2863"
       inkscape:persp3d-origin="0.5 : 0.33333333 : 1"
       inkscape:vp_z="1 : 0.5 : 1"
       inkscape:vp_y="0 : 1000 : 0"
       inkscape:vp_x="0 : 0.5 : 1"
       sodipodi:type="inkscape:persp3d" />
    <inkscape:perspective
       id="perspective3859"
       inkscape:persp3d-origin="0.5 : 0.33333333 : 1"
       inkscape:vp_z="1 : 0.5 : 1"
       inkscape:vp_y="0 : 1000 : 0"
       inkscape:vp_x="0 : 0.5 : 1"
       sodipodi:type="inkscape:persp3d" />
    <inkscape:perspective
       id="perspective3964"
       inkscape:persp3d-origin="0.5 : 0.33333333 : 1"
       inkscape:vp_z="1 : 0.5 : 1"
       inkscape:vp_y="0 : 1000 : 0"
       inkscape:vp_x="0 : 0.5 : 1"
       sodipodi:type="inkscape:persp3d" />
    <inkscape:perspective
       id="perspective3988"
       inkscape:persp3d-origin="0.5 : 0.33333333 : 1"
       inkscape:vp_z="1 : 0.5 : 1"
       inkscape:vp_y="0 : 1000 : 0"
       inkscape:vp_x="0 : 0.5 : 1"
       sodipodi:type="inkscape:persp3d" />
    <inkscape:perspective
       id="perspective2879-7"
       inkscape:persp3d-origin="0.5 : 0.33333333 : 1"
       inkscape:vp_z="1 : 0.5 : 1"
       inkscape:vp_y="0 : 1000 : 0"
       inkscape:vp_x="0 : 0.5 : 1"
       sodipodi:type="inkscape:persp3d" />
    <inkscape:perspective
       id="perspective4031"
       inkscape:persp3d-origin="0.5 : 0.33333333 : 1"
       inkscape:vp_z="1 : 0.5 : 1"
       inkscape:vp_y="0 : 1000 : 0"
       inkscape:vp_x="0 : 0.5 : 1"
       sodipodi:type="inkscape:persp3d" />
    <inkscape:perspective
       id="perspective4047"
       inkscape:persp3d-origin="0.5 : 0.33333333 : 1"
       inkscape:vp_z="1 : 0.5 : 1"
       inkscape:vp_y="0 : 1000 : 0"
       inkscape:vp_x="0 : 0.5 : 1"
       sodipodi:type="inkscape:persp3d" />
    <inkscape:perspective
       id="perspective4063"
       inkscape:persp3d-origin="0.5 : 0.33333333 : 1"
       inkscape:vp_z="1 : 0.5 : 1"
       inkscape:vp_y="0 : 1000 : 0"
       inkscape:vp_x="0 : 0.5 : 1"
       sodipodi:type="inkscape:persp3d" />
    <inkscape:perspective
       id="perspective4079"
       inkscape:persp3d-origin="0.5 : 0.33333333 : 1"
       inkscape:vp_z="1 : 0.5 : 1"
       inkscape:vp_y="0 : 1000 : 0"
       inkscape:vp_x="0 : 0.5 : 1"
       sodipodi:type="inkscape:persp3d" />
    <inkscape:perspective
       id="perspective4097"
       inkscape:persp3d-origin="0.5 : 0.33333333 : 1"
       inkscape:vp_z="1 : 0.5 : 1"
       inkscape:vp_y="0 : 1000 : 0"
       inkscape:vp_x="0 : 0.5 : 1"
       sodipodi:type="inkscape:persp3d" />
    <inkscape:perspective
       id="perspective4115"
       inkscape:persp3d-origin="0.5 : 0.33333333 : 1"
       inkscape:vp_z="1 : 0.5 : 1"
       inkscape:vp_y="0 : 1000 : 0"
       inkscape:vp_x="0 : 0.5 : 1"
       sodipodi:type="inkscape:persp3d" />
    <inkscape:perspective
       id="perspective4129"
       inkscape:persp3d-origin="0.5 : 0.33333333 : 1"
       inkscape:vp_z="1 : 0.5 : 1"
       inkscape:vp_y="0 : 1000 : 0"
       inkscape:vp_x="0 : 0.5 : 1"
       sodipodi:type="inkscape:persp3d" />
    <inkscape:perspective
       id="perspective4153"
       inkscape:persp3d-origin="0.5 : 0.33333333 : 1"
       inkscape:vp_z="1 : 0.5 : 1"
       inkscape:vp_y="0 : 1000 : 0"
       inkscape:vp_x="0 : 0.5 : 1"
       sodipodi:type="inkscape:persp3d" />
    <inkscape:perspective
       id="perspective4179"
       inkscape:persp3d-origin="0.5 : 0.33333333 : 1"
       inkscape:vp_z="1 : 0.5 : 1"
       inkscape:vp_y="0 : 1000 : 0"
       inkscape:vp_x="0 : 0.5 : 1"
       sodipodi:type="inkscape:persp3d" />
    <inkscape:perspective
       id="perspective4195"
       inkscape:persp3d-origin="0.5 : 0.33333333 : 1"
       inkscape:vp_z="1 : 0.5 : 1"
       inkscape:vp_y="0 : 1000 : 0"
       inkscape:vp_x="0 : 0.5 : 1"
       sodipodi:type="inkscape:persp3d" />
    <inkscape:perspective
       id="perspective4213"
       inkscape:persp3d-origin="0.5 : 0.33333333 : 1"
       inkscape:vp_z="1 : 0.5 : 1"
       inkscape:vp_y="0 : 1000 : 0"
       inkscape:vp_x="0 : 0.5 : 1"
       sodipodi:type="inkscape:persp3d" />
    <inkscape:perspective
       id="perspective4267"
       inkscape:persp3d-origin="0.5 : 0.33333333 : 1"
       inkscape:vp_z="1 : 0.5 : 1"
       inkscape:vp_y="0 : 1000 : 0"
       inkscape:vp_x="0 : 0.5 : 1"
       sodipodi:type="inkscape:persp3d" />
    <inkscape:perspective
       id="perspective4283"
       inkscape:persp3d-origin="0.5 : 0.33333333 : 1"
       inkscape:vp_z="1 : 0.5 : 1"
       inkscape:vp_y="0 : 1000 : 0"
       inkscape:vp_x="0 : 0.5 : 1"
       sodipodi:type="inkscape:persp3d" />
    <inkscape:perspective
       id="perspective4314"
       inkscape:persp3d-origin="0.5 : 0.33333333 : 1"
       inkscape:vp_z="1 : 0.5 : 1"
       inkscape:vp_y="0 : 1000 : 0"
       inkscape:vp_x="0 : 0.5 : 1"
       sodipodi:type="inkscape:persp3d" />
    <inkscape:perspective
       id="perspective4330"
       inkscape:persp3d-origin="0.5 : 0.33333333 : 1"
       inkscape:vp_z="1 : 0.5 : 1"
       inkscape:vp_y="0 : 1000 : 0"
       inkscape:vp_x="0 : 0.5 : 1"
       sodipodi:type="inkscape:persp3d" />
    <inkscape:perspective
       id="perspective4346"
       inkscape:persp3d-origin="0.5 : 0.33333333 : 1"
       inkscape:vp_z="1 : 0.5 : 1"
       inkscape:vp_y="0 : 1000 : 0"
       inkscape:vp_x="0 : 0.5 : 1"
       sodipodi:type="inkscape:persp3d" />
    <inkscape:perspective
       id="perspective3742"
       inkscape:persp3d-origin="0.5 : 0.33333333 : 1"
       inkscape:vp_z="1 : 0.5 : 1"
       inkscape:vp_y="0 : 1000 : 0"
       inkscape:vp_x="0 : 0.5 : 1"
       sodipodi:type="inkscape:persp3d" />
    <inkscape:perspective
       id="perspective3776"
       inkscape:persp3d-origin="0.5 : 0.33333333 : 1"
       inkscape:vp_z="1 : 0.5 : 1"
       inkscape:vp_y="0 : 1000 : 0"
       inkscape:vp_x="0 : 0.5 : 1"
       sodipodi:type="inkscape:persp3d" />
    <inkscape:perspective
       id="perspective3792"
       inkscape:persp3d-origin="0.5 : 0.33333333 : 1"
       inkscape:vp_z="1 : 0.5 : 1"
       inkscape:vp_y="0 : 1000 : 0"
       inkscape:vp_x="0 : 0.5 : 1"
       sodipodi:type="inkscape:persp3d" />
    <inkscape:perspective
       id="perspective3808"
       inkscape:persp3d-origin="0.5 : 0.33333333 : 1"
       inkscape:vp_z="1 : 0.5 : 1"
       inkscape:vp_y="0 : 1000 : 0"
       inkscape:vp_x="0 : 0.5 : 1"
       sodipodi:type="inkscape:persp3d" />
    <inkscape:perspective
       id="perspective3824"
       inkscape:persp3d-origin="0.5 : 0.33333333 : 1"
       inkscape:vp_z="1 : 0.5 : 1"
       inkscape:vp_y="0 : 1000 : 0"
       inkscape:vp_x="0 : 0.5 : 1"
       sodipodi:type="inkscape:persp3d" />
    <inkscape:perspective
       id="perspective4354"
       inkscape:persp3d-origin="0.5 : 0.33333333 : 1"
       inkscape:vp_z="1 : 0.5 : 1"
       inkscape:vp_y="0 : 1000 : 0"
       inkscape:vp_x="0 : 0.5 : 1"
       sodipodi:type="inkscape:persp3d" />
    <inkscape:perspective
       id="perspective4395"
       inkscape:persp3d-origin="0.5 : 0.33333333 : 1"
       inkscape:vp_z="1 : 0.5 : 1"
       inkscape:vp_y="0 : 1000 : 0"
       inkscape:vp_x="0 : 0.5 : 1"
       sodipodi:type="inkscape:persp3d" />
  </defs>
  <path
     style="fill:#ffffff;fill-opacity:1;stroke:none"
     d="m -4.9305571,-3.438081 207.7153771,0 0,207.348391 -207.7153771,0 0,-207.348391 z"
     id="rect2881" />
  <path
     style="fill:none;stroke:#000000;stroke-width:3;stroke-miterlimit:4;stroke-opacity:1"
     d="m 21.814432,2.8621521 157.645218,0 c 10.29357,0 18.58045,8.2868829 18.58045,18.5804539 l 0,157.645234 c 0,10.29357 -8.28688,18.58045 -18.58045,18.58045 l -157.645218,0 c -10.293571,0 -18.5804535,-8.28688 -18.5804535,-18.58045 l 0,-157.645234 c 0,-10.293571 8.2868825,-18.5804539 18.5804535,-18.5804539 z"
     id="rect4614" />
  <g
     id="g4420"
     transform="translate(0,1.683141)">
    <path
       sodipodi:nodetypes="csssssccsssssccssscccccccsssscccscccsssssssssssc"
       id="path4401"
       d="m 132.88971,179.71494 c -1.04787,-0.86093 -6.29464,-13.5586 -6.27196,-15.1787 0.008,-0.56614 47.48952,-18.22644 47.88371,-17.80986 0.79166,0.83662 5.41224,14.99478 5.15654,15.80042 -0.17607,0.55475 -0.76046,1.38987 -1.29864,1.85583 -0.90764,0.78584 -42.52556,16.32531 -43.72257,16.32531 -0.29615,0 -1.08234,-0.44685 -1.74708,-0.993 z m -8.9307,-22.0011 C 119.24446,145.42794 96.138843,82.16213 96.279469,81.924128 96.753192,81.122364 143.70356,64.2461 144.14168,64.720101 c 0.43045,0.465694 27.54653,73.796129 27.95919,75.610479 0.1201,0.52806 -7.0384,3.43205 -23.37514,9.48258 -12.95154,4.79677 -23.74778,8.73123 -23.99164,8.74325 -0.24386,0.012 -0.59265,-0.36715 -0.77508,-0.84257 z M 93.586785,74.690203 c -2.294367,-5.780174 -2.72517,-11.344657 -1.30147,-16.810601 1.936535,-7.434868 6.53416,-13.038619 13.537315,-16.499767 3.55496,-1.756951 4.96923,-2.127695 9.09943,-2.38537 12.17063,-0.759298 22.04738,5.837395 26.15008,17.465671 l 0.74631,2.115292 -13.42734,4.975862 c -7.38505,2.736728 -18.10232,6.702278 -23.81617,8.812333 L 94.186119,76.20009 93.586785,74.690203 z M 78.507333,44.667063 c -0.933436,-0.829149 -3.620508,-7.27784 -4.928061,-11.826831 -0.504546,-1.755308 1.513467,-3.948191 4.601694,-5.000455 3.488933,-1.188799 12.516447,-1.186206 19.518106,0.0056 5.432228,0.924665 22.928458,5.943919 23.813988,6.831666 0.26842,0.269095 -2.22201,0.494771 -5.58588,0.506177 l -6.07027,0.02057 -14.045541,5.228127 c -7.725045,2.875469 -14.527173,5.228127 -15.115835,5.228127 -0.588666,0 -1.573353,-0.44685 -2.188201,-0.992999 l 0,1.8e-5 z m 62.558117,-7.45926 C 140.1292,36.955797 134.8716,35.05785 129.38191,32.990142 114.83152,27.509699 99.892697,23.530367 93.868932,23.530367 c -0.725218,0 -1.318577,-0.231194 -1.318577,-0.513764 0,-0.736916 8.826415,-3.817476 12.282595,-4.286824 4.40566,-0.598285 12.91852,0.641901 24.29867,3.539928 9.37327,2.386961 10.82653,2.608617 17.3244,2.642378 5.34511,0.02777 8.74001,-0.296758 13.77752,-1.317041 3.67657,-0.744641 6.77503,-1.255326 6.88547,-1.134856 0.11044,0.12047 1.38485,2.586851 2.83202,5.480846 1.83388,3.66731 2.41257,5.331192 1.90967,5.490775 -0.39686,0.125932 -4.16869,1.054659 -8.38184,2.063837 -7.95951,1.906544 -18.65562,2.723618 -22.41341,1.712157 z"
       style="fill:#000000" />
    <path
       id="path4412"
       d="m 22.284493,156.69648 c 0,-2.34033 0.04566,-4.11956 0.116105,-4.52407 0.135467,-0.77791 0.40735,-1.22694 0.990012,-1.63507 0.77822,-0.54511 3.950087,-1.58876 13.042787,-4.29153 7.855246,-2.33494 13.189323,-4.4061 17.512713,-6.79996 4.658388,-2.57935 7.280035,-4.73116 10.45788,-8.58368 0.799403,-0.96912 1.471068,-1.76204 1.492587,-1.76204 0.04598,0 0.0044,0.24455 -0.338362,1.98925 -1.004634,5.11398 -4.16897,10.50715 -8.835252,15.05846 -3.064821,2.98931 -5.859,5.00976 -9.454346,6.83637 -4.22787,2.14795 -8.486539,3.45853 -15.200867,4.67795 -4.252577,0.77234 -6.933594,1.51543 -8.739067,2.42219 -0.514134,0.25821 -0.959405,0.46948 -0.98949,0.46948 -0.03009,0 -0.0547,-1.73581 -0.0547,-3.85735 z"
       style="fill:#ff0000;fill-opacity:1;stroke:none" />
    <path
       id="path4414"
       d="m 22.284893,143.49425 c 3.04e-4,-3.53558 0.03671,-4.88713 0.150522,-5.58829 0.352734,-2.17303 1.01935,-2.71099 5.363322,-4.32821 3.07726,-1.14563 4.577968,-1.51737 10.002212,-2.47767 5.210227,-0.92241 8.761032,-1.73693 10.513256,-2.41166 1.728224,-0.66547 3.871676,-2.29766 8.176804,-6.22643 3.359624,-3.06592 4.672757,-4.10787 6.820045,-5.41157 1.418866,-0.86144 6.328835,-3.20375 6.715743,-3.20375 0.199209,0 0.02303,0.30899 -1.409507,2.47211 -0.766336,1.15716 -2.422612,3.80811 -3.680614,5.89099 -1.258002,2.08289 -2.686709,4.39905 -3.174904,5.14703 -3.493459,5.35241 -6.52181,8.16451 -11.337266,10.52771 -3.037078,1.49045 -5.777256,2.47553 -12.623557,4.53812 -9.762554,2.94118 -11.729111,3.64545 -14.595988,5.22722 l -0.920468,0.50785 4.01e-4,-4.66345 -1e-6,0 z"
       style="fill:#ff0000;fill-opacity:1;stroke:none" />
    <path
       id="path4416"
       d="m 22.228581,131.76045 c 0.08196,-1.62793 0.265178,-6.77111 0.26581,-7.46174 l 4.95e-4,-0.54098 1.648544,-1.07967 c 2.00492,-1.31306 3.710573,-2.19341 5.662599,-2.92267 4.478097,-1.67297 9.732299,-2.7291 16.042438,-3.22465 4.797521,-0.37675 7.296607,-0.73676 9.625462,-1.38661 2.348789,-0.65541 3.25593,-0.88305 3.399497,-0.85305 0.406872,0.085 -4.126982,6.09967 -5.991436,7.94831 -2.984239,2.95893 -5.274013,3.87789 -13.029713,5.2292 -7.100884,1.23722 -12.086673,2.7251 -16.433697,4.90419 l -1.252438,0.62783 0.06244,-1.24016 z"
       style="fill:#ff0000;fill-opacity:1;stroke:none" />
    <path
       id="path4418"
       d="m 22.310067,113.15142 0.02702,-7.21742 2.209123,-1.1441 c 2.560735,-1.32619 4.619729,-2.25606 7.205947,-3.2543 4.091516,-1.579254 5.883264,-1.886769 11.03459,-1.893846 3.460717,-0.0048 9.692858,-0.175942 11.267028,-0.309488 5.813943,-0.49323 9.865433,-1.647827 14.201502,-4.047157 1.748498,-0.967518 3.442997,-2.060809 6.064783,-3.912999 1.33953,-0.946327 2.463815,-1.720594 2.498412,-1.720594 0.145076,0 0.04025,0.588667 -0.312674,1.755928 -0.513227,1.697427 -1.084313,3.091531 -1.934458,4.722298 -1.84344,3.536124 -3.914632,6.389488 -6.343438,8.738988 -2.92472,2.82922 -5.271809,4.27768 -8.832786,5.45098 -3.088056,1.01747 -6.191648,1.60665 -14.177831,2.69146 -6.65458,0.90393 -8.796727,1.26608 -11.470372,1.93915 -3.658375,0.92096 -6.103191,2.00393 -9.492031,4.20462 -1.0281,0.66765 -1.892351,1.2139 -1.920558,1.2139 -0.02821,0 -0.03912,-3.24784 -0.02426,-7.21742 z"
       style="fill:#ff0000;fill-opacity:1;stroke:none" />
  </g>
</svg>
