<?xml version="1.0" encoding="UTF-8" standalone="no"?>
<!-- Created with Inkscape (http://www.inkscape.org/) -->

<svg
   xmlns:dc="http://purl.org/dc/elements/1.1/"
   xmlns:cc="http://creativecommons.org/ns#"
   xmlns:rdf="http://www.w3.org/1999/02/22-rdf-syntax-ns#"
   xmlns:svg="http://www.w3.org/2000/svg"
   xmlns="http://www.w3.org/2000/svg"
   xmlns:sodipodi="http://sodipodi.sourceforge.net/DTD/sodipodi-0.dtd"
   xmlns:inkscape="http://www.inkscape.org/namespaces/inkscape"
   width="300"
   height="300.03125"
   id="svg8269"
   version="1.1"
   inkscape:version="0.48.5 r10040"
   sodipodi:docname="CANC A25.svg"
   inkscape:export-filename="C:\Users\utente\Desktop\CANC A25.png"
   inkscape:export-xdpi="90"
   inkscape:export-ydpi="90">
  <defs
     id="defs8271" />
  <sodipodi:namedview
     id="base"
     pagecolor="#ffffff"
     bordercolor="#666666"
     borderopacity="1.0"
     inkscape:pageopacity="0.0"
     inkscape:pageshadow="2"
     inkscape:zoom="0.98994949"
     inkscape:cx="465.55485"
     inkscape:cy="85.441712"
     inkscape:document-units="px"
     inkscape:current-layer="text6448-1-6"
     showgrid="false"
     fit-margin-top="0"
     fit-margin-left="0"
     fit-margin-right="0"
     fit-margin-bottom="0"
     inkscape:window-width="1366"
     inkscape:window-height="705"
     inkscape:window-x="-8"
     inkscape:window-y="-8"
     inkscape:window-maximized="1" />
  <metadata
     id="metadata8274">
    <rdf:RDF>
      <cc:Work
         rdf:about="">
        <dc:format>image/svg+xml</dc:format>
        <dc:type
           rdf:resource="http://purl.org/dc/dcmitype/StillImage" />
        <dc:title></dc:title>
      </cc:Work>
    </rdf:RDF>
  </metadata>
  <g
     inkscape:label="Livello 1"
     inkscape:groupmode="layer"
     id="layer1"
     transform="translate(0,-752.34375)">
    <g
       style="font-size:157.8212738px;font-style:normal;font-weight:normal;line-height:125%;letter-spacing:0px;word-spacing:0px;fill:#ffffff;fill-opacity:1;stroke:none;font-family:Sans"
       id="text6448-1-6"
       inkscape:export-filename="C:\Users\utente\Desktop\CANC A25.png"
       inkscape:export-xdpi="90"
       inkscape:export-ydpi="90">
      <path
         id="path6715-9"
         style="fill:#ffffff;fill-opacity:1;stroke:#08842c;stroke-width:1;stroke-opacity:1"
         d="m 0.5,902.37502 15.81868,-112.4916 c 1.53916,-10.96453 10.21455,-19.63971 21.17927,-21.17837 L 149.99989,752.875 262.49258,768.70635 c 10.96507,1.53875 19.64064,10.21434 21.18562,21.19083 l 15.82137,112.47784 -15.82458,112.72478 c -1.53066,10.9765 -10.21031,19.6621 -21.18235,21.2019 l -112.49265,15.5733 -112.502,-15.572 c -10.9717,-1.5397 -19.65114,-10.2249 -21.18249,-21.2014 z"
         inkscape:connector-curvature="0"
         sodipodi:nodetypes="ccccccccccccc" />
      <path
         id="path6722-8"
         style="fill:#08842c;fill-opacity:1;stroke:none"
         d="M 26.27455,1013.6028 10.50275,901.89412 26.27451,790.40609 c 0.92823,-6.6008 6.15279,-11.8226 12.75503,-12.7467 l 111.47178,-15.7842 111.47183,15.787 c 6.59774,0.928 11.81772,6.1479 12.80037,12.7473 l 15.72923,111.46553 -15.78274,111.71688 c -0.92915,6.6075 -6.14956,11.8276 -12.74773,12.755 l -111.47086,15.5283 -111.50177,-15.5299 c -6.5881,-0.9357 -11.79827,-6.1517 -12.7251,-12.7425 z"
         inkscape:connector-curvature="0"
         sodipodi:nodetypes="ccccccccccccc" />
      <g
         style="line-height:125%;fill:#ffffff;font-family:Sans"
         id="text6448-1">
        <path
           d="m 89.831083,847.50586 17.675907,109.36907 -23.354352,0 -2.84163,-21.62048 -16.096152,0 -3.159508,21.62048 -22.882351,0 18.778844,-109.36907 z m -16.096151,27.62162 -6.155261,43.39988 11.679583,0 z"
           style="font-variant:normal;font-stretch:normal;text-align:center;letter-spacing:-7px;word-spacing:-30px;text-anchor:middle;fill:#ffffff;font-family:CodiceBiancoCondensed;-inkscape-font-specification:CodiceBiancoCondensed"
           id="path16333" />
        <path
           d="m 193.10461,874.3376 c 0.10269,5.68013 -1.89769,12.99291 -6.00114,21.93835 -2.62976,5.57415 -6.94358,13.30595 -12.94146,23.19541 -5.68008,9.26022 -9.09967,15.31112 -10.25876,18.15272 l 27.62161,0 0,19.72766 -53.50453,0 0,-16.57296 c 0.31787,-1.1559 3.36981,-6.20661 9.15583,-15.15216 6.94511,-10.73072 12.10018,-19.30537 15.46521,-25.72398 5.4713,-10.41602 8.20697,-18.51707 8.20701,-24.30316 -4e-5,-2.62963 -0.73613,-4.76004 -2.20828,-6.39126 -1.47223,-1.63104 -3.20851,-2.4466 -5.20885,-2.4467 -2.52379,10e-5 -4.62852,1.2106 -6.3142,3.63151 -1.9972,2.6298 -2.99578,6.41704 -2.99576,11.36171 l -18.62472,0 c 0.31466,-11.67789 3.47096,-20.67316 9.46889,-26.98586 5.26262,-5.57719 11.78552,-8.36584 19.56872,-8.36595 7.47168,1.1e-4 13.94321,2.47249 19.4146,7.41713 5.89191,5.25953 8.94385,12.0987 9.15583,20.51754 z"
           style="font-variant:normal;font-stretch:normal;text-align:center;letter-spacing:-7px;word-spacing:-30px;text-anchor:middle;fill:#ffffff;font-family:CodiceBiancoCondensed;-inkscape-font-specification:CodiceBiancoCondensed"
           id="path16335" />
        <path
           d="m 212.82557,846.40293 44.50283,0 0,17.2039 -25.09305,0 -3.15469,20.8306 c 2.62968,-0.73521 5.25939,-1.10286 7.88914,-1.10294 6.94509,8e-5 12.62674,2.52383 17.04497,7.57126 5.15661,5.89204 7.73494,14.67861 7.73501,26.35974 -7e-5,13.04584 -3.57859,23.35598 -10.73558,30.93042 -6.31265,6.63048 -13.83413,9.94572 -22.56448,9.94571 -6.94516,10e-6 -13.41669,-2.57833 -19.41459,-7.73501 -6.94515,-5.99791 -10.41772,-13.73131 -10.41771,-23.20023 l 19.57354,-3.63151 c 3.25901,9.0483 6.46668,13.57243 9.62301,13.5724 7.57764,3e-5 11.36648,-6.68021 11.36652,-20.04072 -4e-5,-11.57517 -2.999,-17.36278 -8.99689,-17.36285 -4.41821,7e-5 -7.10089,1.94747 -8.04807,5.8422 l -17.51697,-3.94457 z"
           style="font-variant:normal;font-stretch:normal;text-align:center;letter-spacing:-7px;word-spacing:-30px;text-anchor:middle;fill:#ffffff;font-family:CodiceBiancoCondensed;-inkscape-font-specification:CodiceBiancoCondensed"
           id="path16337" />
      </g>
    </g>
  </g>
</svg>
