<?xml version="1.0" encoding="UTF-8" standalone="no"?>
<!-- Created with Inkscape (http://www.inkscape.org/) -->

<svg
   xmlns:dc="http://purl.org/dc/elements/1.1/"
   xmlns:cc="http://creativecommons.org/ns#"
   xmlns:rdf="http://www.w3.org/1999/02/22-rdf-syntax-ns#"
   xmlns:svg="http://www.w3.org/2000/svg"
   xmlns="http://www.w3.org/2000/svg"
   xmlns:sodipodi="http://sodipodi.sourceforge.net/DTD/sodipodi-0.dtd"
   xmlns:inkscape="http://www.inkscape.org/namespaces/inkscape"
   version="1.1"
   width="200"
   height="200"
   id="svg2"
   inkscape:version="0.47 r22583"
   sodipodi:docname="Italian traffic signs - icona velodromo.svg"
   sodipodi:version="0.32"
   inkscape:output_extension="org.inkscape.output.svg.inkscape">
  <metadata
     id="metadata2877">
    <rdf:RDF>
      <cc:Work
         rdf:about="">
        <dc:format>image/svg+xml</dc:format>
        <dc:type
           rdf:resource="http://purl.org/dc/dcmitype/StillImage" />
        <dc:title></dc:title>
      </cc:Work>
    </rdf:RDF>
  </metadata>
  <sodipodi:namedview
     pagecolor="#ffffff"
     bordercolor="#666666"
     borderopacity="1"
     objecttolerance="10"
     gridtolerance="10"
     guidetolerance="10"
     inkscape:pageopacity="0"
     inkscape:pageshadow="2"
     inkscape:window-width="1600"
     inkscape:window-height="838"
     id="namedview2875"
     showgrid="false"
     inkscape:zoom="2.3931339"
     inkscape:cx="92.877989"
     inkscape:cy="111.58234"
     inkscape:window-x="-8"
     inkscape:window-y="-8"
     inkscape:window-maximized="1"
     inkscape:current-layer="svg2" />
  <defs
     id="defs4">
    <inkscape:perspective
       sodipodi:type="inkscape:persp3d"
       inkscape:vp_x="0 : 100 : 1"
       inkscape:vp_y="0 : 1000 : 0"
       inkscape:vp_z="200 : 100 : 1"
       inkscape:persp3d-origin="100 : 66.666667 : 1"
       id="perspective2879" />
    <inkscape:perspective
       id="perspective2839"
       inkscape:persp3d-origin="0.5 : 0.33333333 : 1"
       inkscape:vp_z="1 : 0.5 : 1"
       inkscape:vp_y="0 : 1000 : 0"
       inkscape:vp_x="0 : 0.5 : 1"
       sodipodi:type="inkscape:persp3d" />
    <inkscape:perspective
       id="perspective3649"
       inkscape:persp3d-origin="0.5 : 0.33333333 : 1"
       inkscape:vp_z="1 : 0.5 : 1"
       inkscape:vp_y="0 : 1000 : 0"
       inkscape:vp_x="0 : 0.5 : 1"
       sodipodi:type="inkscape:persp3d" />
    <inkscape:perspective
       id="perspective3679"
       inkscape:persp3d-origin="0.5 : 0.33333333 : 1"
       inkscape:vp_z="1 : 0.5 : 1"
       inkscape:vp_y="0 : 1000 : 0"
       inkscape:vp_x="0 : 0.5 : 1"
       sodipodi:type="inkscape:persp3d" />
    <inkscape:perspective
       id="perspective3713"
       inkscape:persp3d-origin="0.5 : 0.33333333 : 1"
       inkscape:vp_z="1 : 0.5 : 1"
       inkscape:vp_y="0 : 1000 : 0"
       inkscape:vp_x="0 : 0.5 : 1"
       sodipodi:type="inkscape:persp3d" />
    <inkscape:perspective
       id="perspective3741"
       inkscape:persp3d-origin="0.5 : 0.33333333 : 1"
       inkscape:vp_z="1 : 0.5 : 1"
       inkscape:vp_y="0 : 1000 : 0"
       inkscape:vp_x="0 : 0.5 : 1"
       sodipodi:type="inkscape:persp3d" />
    <inkscape:perspective
       id="perspective3765"
       inkscape:persp3d-origin="0.5 : 0.33333333 : 1"
       inkscape:vp_z="1 : 0.5 : 1"
       inkscape:vp_y="0 : 1000 : 0"
       inkscape:vp_x="0 : 0.5 : 1"
       sodipodi:type="inkscape:persp3d" />
    <inkscape:perspective
       id="perspective3801"
       inkscape:persp3d-origin="0.5 : 0.33333333 : 1"
       inkscape:vp_z="1 : 0.5 : 1"
       inkscape:vp_y="0 : 1000 : 0"
       inkscape:vp_x="0 : 0.5 : 1"
       sodipodi:type="inkscape:persp3d" />
    <inkscape:perspective
       id="perspective2863"
       inkscape:persp3d-origin="0.5 : 0.33333333 : 1"
       inkscape:vp_z="1 : 0.5 : 1"
       inkscape:vp_y="0 : 1000 : 0"
       inkscape:vp_x="0 : 0.5 : 1"
       sodipodi:type="inkscape:persp3d" />
    <inkscape:perspective
       id="perspective3859"
       inkscape:persp3d-origin="0.5 : 0.33333333 : 1"
       inkscape:vp_z="1 : 0.5 : 1"
       inkscape:vp_y="0 : 1000 : 0"
       inkscape:vp_x="0 : 0.5 : 1"
       sodipodi:type="inkscape:persp3d" />
    <inkscape:perspective
       id="perspective3964"
       inkscape:persp3d-origin="0.5 : 0.33333333 : 1"
       inkscape:vp_z="1 : 0.5 : 1"
       inkscape:vp_y="0 : 1000 : 0"
       inkscape:vp_x="0 : 0.5 : 1"
       sodipodi:type="inkscape:persp3d" />
    <inkscape:perspective
       id="perspective3988"
       inkscape:persp3d-origin="0.5 : 0.33333333 : 1"
       inkscape:vp_z="1 : 0.5 : 1"
       inkscape:vp_y="0 : 1000 : 0"
       inkscape:vp_x="0 : 0.5 : 1"
       sodipodi:type="inkscape:persp3d" />
    <inkscape:perspective
       id="perspective2879-7"
       inkscape:persp3d-origin="0.5 : 0.33333333 : 1"
       inkscape:vp_z="1 : 0.5 : 1"
       inkscape:vp_y="0 : 1000 : 0"
       inkscape:vp_x="0 : 0.5 : 1"
       sodipodi:type="inkscape:persp3d" />
    <inkscape:perspective
       id="perspective4031"
       inkscape:persp3d-origin="0.5 : 0.33333333 : 1"
       inkscape:vp_z="1 : 0.5 : 1"
       inkscape:vp_y="0 : 1000 : 0"
       inkscape:vp_x="0 : 0.5 : 1"
       sodipodi:type="inkscape:persp3d" />
    <inkscape:perspective
       id="perspective4047"
       inkscape:persp3d-origin="0.5 : 0.33333333 : 1"
       inkscape:vp_z="1 : 0.5 : 1"
       inkscape:vp_y="0 : 1000 : 0"
       inkscape:vp_x="0 : 0.5 : 1"
       sodipodi:type="inkscape:persp3d" />
    <inkscape:perspective
       id="perspective4063"
       inkscape:persp3d-origin="0.5 : 0.33333333 : 1"
       inkscape:vp_z="1 : 0.5 : 1"
       inkscape:vp_y="0 : 1000 : 0"
       inkscape:vp_x="0 : 0.5 : 1"
       sodipodi:type="inkscape:persp3d" />
    <inkscape:perspective
       id="perspective4079"
       inkscape:persp3d-origin="0.5 : 0.33333333 : 1"
       inkscape:vp_z="1 : 0.5 : 1"
       inkscape:vp_y="0 : 1000 : 0"
       inkscape:vp_x="0 : 0.5 : 1"
       sodipodi:type="inkscape:persp3d" />
    <inkscape:perspective
       id="perspective4097"
       inkscape:persp3d-origin="0.5 : 0.33333333 : 1"
       inkscape:vp_z="1 : 0.5 : 1"
       inkscape:vp_y="0 : 1000 : 0"
       inkscape:vp_x="0 : 0.5 : 1"
       sodipodi:type="inkscape:persp3d" />
    <inkscape:perspective
       id="perspective4115"
       inkscape:persp3d-origin="0.5 : 0.33333333 : 1"
       inkscape:vp_z="1 : 0.5 : 1"
       inkscape:vp_y="0 : 1000 : 0"
       inkscape:vp_x="0 : 0.5 : 1"
       sodipodi:type="inkscape:persp3d" />
    <inkscape:perspective
       id="perspective4129"
       inkscape:persp3d-origin="0.5 : 0.33333333 : 1"
       inkscape:vp_z="1 : 0.5 : 1"
       inkscape:vp_y="0 : 1000 : 0"
       inkscape:vp_x="0 : 0.5 : 1"
       sodipodi:type="inkscape:persp3d" />
    <inkscape:perspective
       id="perspective4153"
       inkscape:persp3d-origin="0.5 : 0.33333333 : 1"
       inkscape:vp_z="1 : 0.5 : 1"
       inkscape:vp_y="0 : 1000 : 0"
       inkscape:vp_x="0 : 0.5 : 1"
       sodipodi:type="inkscape:persp3d" />
    <inkscape:perspective
       id="perspective4179"
       inkscape:persp3d-origin="0.5 : 0.33333333 : 1"
       inkscape:vp_z="1 : 0.5 : 1"
       inkscape:vp_y="0 : 1000 : 0"
       inkscape:vp_x="0 : 0.5 : 1"
       sodipodi:type="inkscape:persp3d" />
    <inkscape:perspective
       id="perspective4195"
       inkscape:persp3d-origin="0.5 : 0.33333333 : 1"
       inkscape:vp_z="1 : 0.5 : 1"
       inkscape:vp_y="0 : 1000 : 0"
       inkscape:vp_x="0 : 0.5 : 1"
       sodipodi:type="inkscape:persp3d" />
    <inkscape:perspective
       id="perspective4213"
       inkscape:persp3d-origin="0.5 : 0.33333333 : 1"
       inkscape:vp_z="1 : 0.5 : 1"
       inkscape:vp_y="0 : 1000 : 0"
       inkscape:vp_x="0 : 0.5 : 1"
       sodipodi:type="inkscape:persp3d" />
    <inkscape:perspective
       id="perspective4267"
       inkscape:persp3d-origin="0.5 : 0.33333333 : 1"
       inkscape:vp_z="1 : 0.5 : 1"
       inkscape:vp_y="0 : 1000 : 0"
       inkscape:vp_x="0 : 0.5 : 1"
       sodipodi:type="inkscape:persp3d" />
    <inkscape:perspective
       id="perspective4283"
       inkscape:persp3d-origin="0.5 : 0.33333333 : 1"
       inkscape:vp_z="1 : 0.5 : 1"
       inkscape:vp_y="0 : 1000 : 0"
       inkscape:vp_x="0 : 0.5 : 1"
       sodipodi:type="inkscape:persp3d" />
    <inkscape:perspective
       id="perspective4314"
       inkscape:persp3d-origin="0.5 : 0.33333333 : 1"
       inkscape:vp_z="1 : 0.5 : 1"
       inkscape:vp_y="0 : 1000 : 0"
       inkscape:vp_x="0 : 0.5 : 1"
       sodipodi:type="inkscape:persp3d" />
    <inkscape:perspective
       id="perspective4330"
       inkscape:persp3d-origin="0.5 : 0.33333333 : 1"
       inkscape:vp_z="1 : 0.5 : 1"
       inkscape:vp_y="0 : 1000 : 0"
       inkscape:vp_x="0 : 0.5 : 1"
       sodipodi:type="inkscape:persp3d" />
    <inkscape:perspective
       id="perspective4346"
       inkscape:persp3d-origin="0.5 : 0.33333333 : 1"
       inkscape:vp_z="1 : 0.5 : 1"
       inkscape:vp_y="0 : 1000 : 0"
       inkscape:vp_x="0 : 0.5 : 1"
       sodipodi:type="inkscape:persp3d" />
    <inkscape:perspective
       id="perspective3742"
       inkscape:persp3d-origin="0.5 : 0.33333333 : 1"
       inkscape:vp_z="1 : 0.5 : 1"
       inkscape:vp_y="0 : 1000 : 0"
       inkscape:vp_x="0 : 0.5 : 1"
       sodipodi:type="inkscape:persp3d" />
    <inkscape:perspective
       id="perspective3776"
       inkscape:persp3d-origin="0.5 : 0.33333333 : 1"
       inkscape:vp_z="1 : 0.5 : 1"
       inkscape:vp_y="0 : 1000 : 0"
       inkscape:vp_x="0 : 0.5 : 1"
       sodipodi:type="inkscape:persp3d" />
    <inkscape:perspective
       id="perspective3792"
       inkscape:persp3d-origin="0.5 : 0.33333333 : 1"
       inkscape:vp_z="1 : 0.5 : 1"
       inkscape:vp_y="0 : 1000 : 0"
       inkscape:vp_x="0 : 0.5 : 1"
       sodipodi:type="inkscape:persp3d" />
    <inkscape:perspective
       id="perspective3808"
       inkscape:persp3d-origin="0.5 : 0.33333333 : 1"
       inkscape:vp_z="1 : 0.5 : 1"
       inkscape:vp_y="0 : 1000 : 0"
       inkscape:vp_x="0 : 0.5 : 1"
       sodipodi:type="inkscape:persp3d" />
    <inkscape:perspective
       id="perspective3824"
       inkscape:persp3d-origin="0.5 : 0.33333333 : 1"
       inkscape:vp_z="1 : 0.5 : 1"
       inkscape:vp_y="0 : 1000 : 0"
       inkscape:vp_x="0 : 0.5 : 1"
       sodipodi:type="inkscape:persp3d" />
    <inkscape:perspective
       id="perspective4354"
       inkscape:persp3d-origin="0.5 : 0.33333333 : 1"
       inkscape:vp_z="1 : 0.5 : 1"
       inkscape:vp_y="0 : 1000 : 0"
       inkscape:vp_x="0 : 0.5 : 1"
       sodipodi:type="inkscape:persp3d" />
    <inkscape:perspective
       id="perspective4395"
       inkscape:persp3d-origin="0.5 : 0.33333333 : 1"
       inkscape:vp_z="1 : 0.5 : 1"
       inkscape:vp_y="0 : 1000 : 0"
       inkscape:vp_x="0 : 0.5 : 1"
       sodipodi:type="inkscape:persp3d" />
    <inkscape:perspective
       id="perspective4435"
       inkscape:persp3d-origin="0.5 : 0.33333333 : 1"
       inkscape:vp_z="1 : 0.5 : 1"
       inkscape:vp_y="0 : 1000 : 0"
       inkscape:vp_x="0 : 0.5 : 1"
       sodipodi:type="inkscape:persp3d" />
    <inkscape:perspective
       id="perspective4460"
       inkscape:persp3d-origin="0.5 : 0.33333333 : 1"
       inkscape:vp_z="1 : 0.5 : 1"
       inkscape:vp_y="0 : 1000 : 0"
       inkscape:vp_x="0 : 0.5 : 1"
       sodipodi:type="inkscape:persp3d" />
    <inkscape:perspective
       id="perspective4479"
       inkscape:persp3d-origin="0.5 : 0.33333333 : 1"
       inkscape:vp_z="1 : 0.5 : 1"
       inkscape:vp_y="0 : 1000 : 0"
       inkscape:vp_x="0 : 0.5 : 1"
       sodipodi:type="inkscape:persp3d" />
    <inkscape:perspective
       id="perspective4495"
       inkscape:persp3d-origin="0.5 : 0.33333333 : 1"
       inkscape:vp_z="1 : 0.5 : 1"
       inkscape:vp_y="0 : 1000 : 0"
       inkscape:vp_x="0 : 0.5 : 1"
       sodipodi:type="inkscape:persp3d" />
    <inkscape:perspective
       id="perspective4511"
       inkscape:persp3d-origin="0.5 : 0.33333333 : 1"
       inkscape:vp_z="1 : 0.5 : 1"
       inkscape:vp_y="0 : 1000 : 0"
       inkscape:vp_x="0 : 0.5 : 1"
       sodipodi:type="inkscape:persp3d" />
    <inkscape:perspective
       id="perspective4527"
       inkscape:persp3d-origin="0.5 : 0.33333333 : 1"
       inkscape:vp_z="1 : 0.5 : 1"
       inkscape:vp_y="0 : 1000 : 0"
       inkscape:vp_x="0 : 0.5 : 1"
       sodipodi:type="inkscape:persp3d" />
    <inkscape:perspective
       id="perspective4543"
       inkscape:persp3d-origin="0.5 : 0.33333333 : 1"
       inkscape:vp_z="1 : 0.5 : 1"
       inkscape:vp_y="0 : 1000 : 0"
       inkscape:vp_x="0 : 0.5 : 1"
       sodipodi:type="inkscape:persp3d" />
    <inkscape:perspective
       id="perspective4559"
       inkscape:persp3d-origin="0.5 : 0.33333333 : 1"
       inkscape:vp_z="1 : 0.5 : 1"
       inkscape:vp_y="0 : 1000 : 0"
       inkscape:vp_x="0 : 0.5 : 1"
       sodipodi:type="inkscape:persp3d" />
    <inkscape:perspective
       id="perspective4575"
       inkscape:persp3d-origin="0.5 : 0.33333333 : 1"
       inkscape:vp_z="1 : 0.5 : 1"
       inkscape:vp_y="0 : 1000 : 0"
       inkscape:vp_x="0 : 0.5 : 1"
       sodipodi:type="inkscape:persp3d" />
    <inkscape:perspective
       id="perspective4591"
       inkscape:persp3d-origin="0.5 : 0.33333333 : 1"
       inkscape:vp_z="1 : 0.5 : 1"
       inkscape:vp_y="0 : 1000 : 0"
       inkscape:vp_x="0 : 0.5 : 1"
       sodipodi:type="inkscape:persp3d" />
    <inkscape:perspective
       id="perspective4607"
       inkscape:persp3d-origin="0.5 : 0.33333333 : 1"
       inkscape:vp_z="1 : 0.5 : 1"
       inkscape:vp_y="0 : 1000 : 0"
       inkscape:vp_x="0 : 0.5 : 1"
       sodipodi:type="inkscape:persp3d" />
    <inkscape:perspective
       id="perspective4629"
       inkscape:persp3d-origin="0.5 : 0.33333333 : 1"
       inkscape:vp_z="1 : 0.5 : 1"
       inkscape:vp_y="0 : 1000 : 0"
       inkscape:vp_x="0 : 0.5 : 1"
       sodipodi:type="inkscape:persp3d" />
    <inkscape:perspective
       id="perspective4674"
       inkscape:persp3d-origin="0.5 : 0.33333333 : 1"
       inkscape:vp_z="1 : 0.5 : 1"
       inkscape:vp_y="0 : 1000 : 0"
       inkscape:vp_x="0 : 0.5 : 1"
       sodipodi:type="inkscape:persp3d" />
    <inkscape:perspective
       id="perspective4690"
       inkscape:persp3d-origin="0.5 : 0.33333333 : 1"
       inkscape:vp_z="1 : 0.5 : 1"
       inkscape:vp_y="0 : 1000 : 0"
       inkscape:vp_x="0 : 0.5 : 1"
       sodipodi:type="inkscape:persp3d" />
    <inkscape:perspective
       id="perspective4735"
       inkscape:persp3d-origin="0.5 : 0.33333333 : 1"
       inkscape:vp_z="1 : 0.5 : 1"
       inkscape:vp_y="0 : 1000 : 0"
       inkscape:vp_x="0 : 0.5 : 1"
       sodipodi:type="inkscape:persp3d" />
    <inkscape:perspective
       id="perspective4751"
       inkscape:persp3d-origin="0.5 : 0.33333333 : 1"
       inkscape:vp_z="1 : 0.5 : 1"
       inkscape:vp_y="0 : 1000 : 0"
       inkscape:vp_x="0 : 0.5 : 1"
       sodipodi:type="inkscape:persp3d" />
    <inkscape:perspective
       id="perspective4767"
       inkscape:persp3d-origin="0.5 : 0.33333333 : 1"
       inkscape:vp_z="1 : 0.5 : 1"
       inkscape:vp_y="0 : 1000 : 0"
       inkscape:vp_x="0 : 0.5 : 1"
       sodipodi:type="inkscape:persp3d" />
    <inkscape:perspective
       id="perspective4787"
       inkscape:persp3d-origin="0.5 : 0.33333333 : 1"
       inkscape:vp_z="1 : 0.5 : 1"
       inkscape:vp_y="0 : 1000 : 0"
       inkscape:vp_x="0 : 0.5 : 1"
       sodipodi:type="inkscape:persp3d" />
    <inkscape:perspective
       id="perspective4813"
       inkscape:persp3d-origin="0.5 : 0.33333333 : 1"
       inkscape:vp_z="1 : 0.5 : 1"
       inkscape:vp_y="0 : 1000 : 0"
       inkscape:vp_x="0 : 0.5 : 1"
       sodipodi:type="inkscape:persp3d" />
    <inkscape:perspective
       id="perspective4905"
       inkscape:persp3d-origin="0.5 : 0.33333333 : 1"
       inkscape:vp_z="1 : 0.5 : 1"
       inkscape:vp_y="0 : 1000 : 0"
       inkscape:vp_x="0 : 0.5 : 1"
       sodipodi:type="inkscape:persp3d" />
    <inkscape:perspective
       id="perspective2877"
       inkscape:persp3d-origin="0.5 : 0.33333333 : 1"
       inkscape:vp_z="1 : 0.5 : 1"
       inkscape:vp_y="0 : 1000 : 0"
       inkscape:vp_x="0 : 0.5 : 1"
       sodipodi:type="inkscape:persp3d" />
    <inkscape:perspective
       id="perspective2893"
       inkscape:persp3d-origin="0.5 : 0.33333333 : 1"
       inkscape:vp_z="1 : 0.5 : 1"
       inkscape:vp_y="0 : 1000 : 0"
       inkscape:vp_x="0 : 0.5 : 1"
       sodipodi:type="inkscape:persp3d" />
    <inkscape:perspective
       id="perspective3693"
       inkscape:persp3d-origin="0.5 : 0.33333333 : 1"
       inkscape:vp_z="1 : 0.5 : 1"
       inkscape:vp_y="0 : 1000 : 0"
       inkscape:vp_x="0 : 0.5 : 1"
       sodipodi:type="inkscape:persp3d" />
    <inkscape:perspective
       id="perspective3709"
       inkscape:persp3d-origin="0.5 : 0.33333333 : 1"
       inkscape:vp_z="1 : 0.5 : 1"
       inkscape:vp_y="0 : 1000 : 0"
       inkscape:vp_x="0 : 0.5 : 1"
       sodipodi:type="inkscape:persp3d" />
    <inkscape:perspective
       id="perspective3725"
       inkscape:persp3d-origin="0.5 : 0.33333333 : 1"
       inkscape:vp_z="1 : 0.5 : 1"
       inkscape:vp_y="0 : 1000 : 0"
       inkscape:vp_x="0 : 0.5 : 1"
       sodipodi:type="inkscape:persp3d" />
    <inkscape:perspective
       id="perspective3743"
       inkscape:persp3d-origin="0.5 : 0.33333333 : 1"
       inkscape:vp_z="1 : 0.5 : 1"
       inkscape:vp_y="0 : 1000 : 0"
       inkscape:vp_x="0 : 0.5 : 1"
       sodipodi:type="inkscape:persp3d" />
    <inkscape:perspective
       id="perspective3759"
       inkscape:persp3d-origin="0.5 : 0.33333333 : 1"
       inkscape:vp_z="1 : 0.5 : 1"
       inkscape:vp_y="0 : 1000 : 0"
       inkscape:vp_x="0 : 0.5 : 1"
       sodipodi:type="inkscape:persp3d" />
    <inkscape:perspective
       id="perspective3777"
       inkscape:persp3d-origin="0.5 : 0.33333333 : 1"
       inkscape:vp_z="1 : 0.5 : 1"
       inkscape:vp_y="0 : 1000 : 0"
       inkscape:vp_x="0 : 0.5 : 1"
       sodipodi:type="inkscape:persp3d" />
    <inkscape:perspective
       id="perspective3795"
       inkscape:persp3d-origin="0.5 : 0.33333333 : 1"
       inkscape:vp_z="1 : 0.5 : 1"
       inkscape:vp_y="0 : 1000 : 0"
       inkscape:vp_x="0 : 0.5 : 1"
       sodipodi:type="inkscape:persp3d" />
    <inkscape:perspective
       id="perspective3815"
       inkscape:persp3d-origin="0.5 : 0.33333333 : 1"
       inkscape:vp_z="1 : 0.5 : 1"
       inkscape:vp_y="0 : 1000 : 0"
       inkscape:vp_x="0 : 0.5 : 1"
       sodipodi:type="inkscape:persp3d" />
    <inkscape:perspective
       id="perspective3831"
       inkscape:persp3d-origin="0.5 : 0.33333333 : 1"
       inkscape:vp_z="1 : 0.5 : 1"
       inkscape:vp_y="0 : 1000 : 0"
       inkscape:vp_x="0 : 0.5 : 1"
       sodipodi:type="inkscape:persp3d" />
    <inkscape:perspective
       id="perspective4112"
       inkscape:persp3d-origin="0.5 : 0.33333333 : 1"
       inkscape:vp_z="1 : 0.5 : 1"
       inkscape:vp_y="0 : 1000 : 0"
       inkscape:vp_x="0 : 0.5 : 1"
       sodipodi:type="inkscape:persp3d" />
    <inkscape:perspective
       id="perspective5834"
       inkscape:persp3d-origin="0.5 : 0.33333333 : 1"
       inkscape:vp_z="1 : 0.5 : 1"
       inkscape:vp_y="0 : 1000 : 0"
       inkscape:vp_x="0 : 0.5 : 1"
       sodipodi:type="inkscape:persp3d" />
    <inkscape:perspective
       id="perspective6553"
       inkscape:persp3d-origin="0.5 : 0.33333333 : 1"
       inkscape:vp_z="1 : 0.5 : 1"
       inkscape:vp_y="0 : 1000 : 0"
       inkscape:vp_x="0 : 0.5 : 1"
       sodipodi:type="inkscape:persp3d" />
    <inkscape:perspective
       id="perspective6591"
       inkscape:persp3d-origin="0.5 : 0.33333333 : 1"
       inkscape:vp_z="1 : 0.5 : 1"
       inkscape:vp_y="0 : 1000 : 0"
       inkscape:vp_x="0 : 0.5 : 1"
       sodipodi:type="inkscape:persp3d" />
    <inkscape:perspective
       id="perspective6607"
       inkscape:persp3d-origin="0.5 : 0.33333333 : 1"
       inkscape:vp_z="1 : 0.5 : 1"
       inkscape:vp_y="0 : 1000 : 0"
       inkscape:vp_x="0 : 0.5 : 1"
       sodipodi:type="inkscape:persp3d" />
    <inkscape:perspective
       id="perspective6623"
       inkscape:persp3d-origin="0.5 : 0.33333333 : 1"
       inkscape:vp_z="1 : 0.5 : 1"
       inkscape:vp_y="0 : 1000 : 0"
       inkscape:vp_x="0 : 0.5 : 1"
       sodipodi:type="inkscape:persp3d" />
    <inkscape:perspective
       id="perspective6641"
       inkscape:persp3d-origin="0.5 : 0.33333333 : 1"
       inkscape:vp_z="1 : 0.5 : 1"
       inkscape:vp_y="0 : 1000 : 0"
       inkscape:vp_x="0 : 0.5 : 1"
       sodipodi:type="inkscape:persp3d" />
    <inkscape:perspective
       id="perspective6816"
       inkscape:persp3d-origin="0.5 : 0.33333333 : 1"
       inkscape:vp_z="1 : 0.5 : 1"
       inkscape:vp_y="0 : 1000 : 0"
       inkscape:vp_x="0 : 0.5 : 1"
       sodipodi:type="inkscape:persp3d" />
  </defs>
  <path
     style="fill:#ffffff;fill-opacity:1;stroke:none"
     d="m -1.5876605,-3.0202186 207.7153805,0 0,207.3483886 -207.7153805,0 0,-207.3483886 z"
     id="rect2881" />
  <path
     style="fill:none;stroke:#000000;stroke-width:2.99693632;stroke-miterlimit:4;stroke-opacity:1"
     d="m 21.467889,2.4041869 156.802311,0 c 10.23854,0 18.48111,8.3144241 18.48111,18.6422021 l 0,158.169131 c 0,10.32778 -8.24257,18.6422 -18.48111,18.6422 l -156.802311,0 c -10.23853,0 -18.4811103,-8.31442 -18.4811103,-18.6422 l 0,-158.169131 c 0,-10.327778 8.2425803,-18.6422021 18.4811103,-18.6422021 z"
     id="rect4614-9" />
  <path
     sodipodi:type="arc"
     style="fill:#000000;fill-opacity:1;stroke:#000000;stroke-width:7.2750001;stroke-linecap:round;stroke-linejoin:round;stroke-miterlimit:4;stroke-opacity:1;stroke-dasharray:none;stroke-dashoffset:0"
     id="path6631"
     sodipodi:cx="23.922606"
     sodipodi:cy="69.418091"
     sodipodi:rx="6.5813284"
     sodipodi:ry="6.8947248"
     d="m 30.503934,69.418091 a 6.5813284,6.8947248 0 1 1 -13.162657,0 6.5813284,6.8947248 0 1 1 13.162657,0 z"
     transform="matrix(0.79554304,0,0,0.79554304,81.359912,6.9445008)" />
  <path
     style="fill:#000000"
     d="m 131.39843,109.66345 0,-3.9435 21.68927,0 21.68926,0 0,3.9435 0,3.94351 -21.68926,0 -21.68927,0 0,-3.94351 z m 19.39952,-5.61246 c -1.87329,-0.75837 -19.39952,-24.303023 -19.39952,-26.061228 0,-1.684468 0.3834,-2.136804 4.42111,-5.215998 1.5964,-1.217427 2.90254,-2.359753 2.90254,-2.538507 0,-0.178747 -5.69737,-0.836771 -12.66082,-1.462279 -11.73784,-1.054374 -12.76458,-1.23475 -14.08394,-2.474227 -1.94701,-1.82912 -2.03176,-6.032004 -0.15556,-7.714212 2.34496,-2.102504 35.61596,-25.149266 37.16957,-25.747296 1.26772,-0.487982 1.81093,-0.388258 3.09847,0.568828 1.75556,1.304982 2.37943,4.230767 1.20411,5.646942 -0.39364,0.474304 -4.34036,3.66789 -8.77048,7.096859 -4.43013,3.428969 -8.05478,6.389378 -8.05478,6.578688 0,0.18931 5.08479,0.784108 11.29953,1.321773 14.51928,1.256129 16.82273,2.312584 17.75508,8.143198 0.48369,3.02483 -0.68935,4.268701 -10.98378,11.647018 -4.67156,3.348248 -8.49375,6.191327 -8.49375,6.317959 0,0.126631 2.34497,3.404471 5.21105,7.284089 6.61626,8.955966 7.17624,9.841181 7.17985,11.349717 0.01,4.047346 -3.93049,6.759856 -7.63868,5.258676 z"
     id="path6801"
     sodipodi:nodetypes="ccccccccccsssssssssssssssssc" />
  <g
     transform="matrix(0.94106381,0,0,1,5.7753135,43.540589)"
     id="g6803">
    <path
       sodipodi:nodetypes="csssssssssssssscccssssssssssssssssssccccsscc"
       id="path3839"
       d="m 144.37744,116.81621 c -4.88071,-2.35583 -7.7278,-3.43175 -10.84585,-4.09868 -1.67445,-0.35815 -5.47509,-0.32598 -7.28691,0.0617 -3.28931,0.70381 -6.06779,1.83721 -13.51866,5.51449 -1.7616,0.86941 -3.4087,2.02568 -5.28479,2.60825 -1.9399,0.60238 -3.99973,0.87265 -6.031,0.87265 -2.03127,0 -4.093861,-0.26148 -6.031002,-0.87265 -1.830369,-0.57749 -3.426652,-1.73003 -5.139977,-2.59505 -9.807135,-4.95139 -13.093477,-6.02671 -17.8558,-5.84257 -4.295533,0.16609 -7.22389,1.21194 -18.575073,6.63402 -1.288205,0.61533 -2.496,1.43979 -3.864613,1.846 -1.848457,0.54862 -3.806434,0.75468 -5.734586,0.75799 -1.92729,0.003 -3.86586,-0.26648 -5.734586,-0.73799 -0.517867,-0.13067 -0.997318,-0.38262 -1.495979,-0.57392 -0.822789,-0.31565 -3.178956,-1.2497 -5.235927,-2.07566 -4.225135,-1.69657 -5.90099,-2.28628 -7.386396,-2.59916 l -1.028486,-0.21663 0,-3.90572 c 0,-2.14814 0.04207,-3.90564 0.0935,-3.90554 0.05142,9e-5 0.542292,0.0795 1.090818,0.17656 1.486507,0.26291 3.083275,0.81025 7.292898,2.49982 6.319827,2.53653 7.95863,2.92178 12.466492,2.92898 4.517061,0.007 7.260022,-0.84663 15.396117,-4.79387 4.06145,-1.97042 5.856964,-2.69146 8.227885,-3.30416 4.68473,-1.21063 8.760307,-0.76293 14.71046,1.61595 1.339356,0.53548 5.819727,2.59622 10.147746,4.66745 1.180168,0.56478 2.296759,1.2883 3.540505,1.69435 1.720131,0.56157 3.526556,0.99732 5.336034,0.99732 1.80948,0 3.6185,-0.42784 5.33603,-0.99732 1.26483,-0.41938 2.3933,-1.17253 3.58995,-1.75879 7.40408,-3.62742 9.99386,-4.79281 12.54216,-5.6439 5.45262,-1.82109 9.50524,-1.63939 15.54446,0.69694 1.63394,0.63211 6.04092,2.6483 10.84584,4.96197 1.22587,0.59028 2.37969,1.3627 3.67762,1.77084 1.60632,0.50511 3.30288,0.8296 4.9866,0.80765 6.64294,-0.0866 5.72639,-0.7563 14.08713,-3.99237 2.3998,-0.92885 4.80386,-1.81744 5.34237,-1.97464 l 1.72709,-0.53515 c -0.2223,2.0838 -0.13592,3.42115 -0.11405,4.97011 l 0.0258,3.10152 c -2.0706,0.68083 -5.70403,1.74392 -8.85121,2.98546 -4.72235,1.86294 -3.24695,1.4876 -7.08153,2.58223 -1.97324,0.56328 -6.88672,1.12496 -7.9406,0.379 -3.77795,-0.95329 -7.47709,-3.01147 -10.97048,-4.70748 z"
       style="fill:#0060a8;fill-opacity:1;stroke:none" />
    <path
       style="fill:#0060a8;fill-opacity:1;stroke:none"
       d="m 144.37744,102.81621 c -4.88071,-2.35583 -7.7278,-3.43175 -10.84585,-4.09868 -1.67445,-0.35815 -5.47509,-0.32598 -7.28691,0.0617 -3.28931,0.70381 -6.06779,1.83721 -13.51866,5.51449 -1.7616,0.86941 -3.4087,2.02568 -5.28479,2.60825 -1.9399,0.60238 -3.99973,0.87265 -6.031,0.87265 -2.03127,0 -4.093861,-0.26148 -6.031002,-0.87265 -1.830369,-0.57749 -3.426652,-1.73003 -5.139977,-2.59505 -9.807135,-4.95139 -13.093477,-6.02671 -17.8558,-5.84257 -4.295533,0.16609 -7.22389,1.21194 -18.575073,6.63402 -1.288205,0.61533 -2.496,1.43979 -3.864613,1.846 -1.848457,0.54862 -3.806434,0.75468 -5.734586,0.75799 -1.92729,0.003 -3.86586,-0.26648 -5.734586,-0.73799 -0.517867,-0.13067 -0.997318,-0.38262 -1.495979,-0.57392 -0.822789,-0.31565 -3.178956,-1.2497 -5.235927,-2.07566 -4.225135,-1.69657 -5.90099,-2.28628 -7.386396,-2.59916 l -1.028486,-0.21663 0,-3.90572 c 0,-2.14814 0.04207,-3.90564 0.0935,-3.90554 0.05142,9e-5 0.542292,0.0795 1.090818,0.17656 1.486507,0.26291 3.083275,0.81025 7.292898,2.49982 6.319827,2.53653 7.95863,2.92178 12.466492,2.92898 4.517061,0.007 7.260022,-0.84663 15.396117,-4.79387 4.06145,-1.97042 5.856964,-2.69146 8.227885,-3.30416 4.68473,-1.21063 8.760307,-0.76293 14.71046,1.61595 1.339356,0.53548 5.819727,2.59622 10.147746,4.66745 1.180168,0.56478 2.296759,1.2883 3.540505,1.69435 1.720131,0.56157 3.526556,0.99732 5.336034,0.99732 1.80948,0 3.6185,-0.42784 5.33603,-0.99732 1.26483,-0.41938 2.3933,-1.17253 3.58995,-1.75879 7.40408,-3.62742 9.99386,-4.79281 12.54216,-5.6439 5.45262,-1.82109 9.50524,-1.63939 15.54446,0.69694 1.63394,0.63211 6.04092,2.6483 10.84584,4.96197 1.22587,0.59028 2.37969,1.3627 3.67762,1.77084 1.60632,0.50511 3.30288,0.8296 4.9866,0.80765 6.64294,-0.0866 5.72639,-0.7563 14.08713,-3.99237 2.3998,-0.92885 4.80386,-1.81744 5.34237,-1.97464 l 1.72709,-0.53515 c -0.2223,2.0838 -0.13592,3.42115 -0.11405,4.97011 l 0.0258,3.10152 c -2.0706,0.68083 -5.70403,1.74392 -8.85121,2.98546 -4.72235,1.86294 -3.24695,1.4876 -7.08153,2.58223 -1.97324,0.56328 -6.88672,1.12496 -7.9406,0.379 -3.77795,-0.95329 -7.47709,-3.01147 -10.97048,-4.70748 z"
       id="path3845"
       sodipodi:nodetypes="csssssssssssssscccssssssssssssssssssccccsscc" />
    <path
       sodipodi:nodetypes="csssssssssssssscccssssssssssssssssssccccsscc"
       id="path3847"
       d="m 144.37744,88.81621 c -4.88071,-2.35583 -7.7278,-3.43175 -10.84585,-4.09868 -1.67445,-0.35815 -5.47509,-0.32598 -7.28691,0.0617 -3.28931,0.70381 -6.06779,1.83721 -13.51866,5.51449 -1.7616,0.86941 -3.4087,2.02568 -5.28479,2.60825 -1.9399,0.60238 -3.99973,0.87265 -6.031,0.87265 -2.03127,0 -4.093861,-0.26148 -6.031002,-0.87265 -1.830369,-0.57749 -3.426652,-1.73003 -5.139977,-2.59505 -9.807135,-4.95139 -13.093477,-6.02671 -17.8558,-5.84257 -4.295533,0.16609 -7.22389,1.21194 -18.575073,6.63402 -1.288205,0.61533 -2.496,1.43979 -3.864613,1.846 -1.848457,0.54862 -3.806434,0.75468 -5.734586,0.75799 -1.92729,0.003 -3.86586,-0.26648 -5.734586,-0.73799 -0.517867,-0.13067 -0.997318,-0.38262 -1.495979,-0.57392 -0.822789,-0.31565 -3.178956,-1.2497 -5.235927,-2.07566 -4.225135,-1.69657 -5.90099,-2.28628 -7.386396,-2.59916 l -1.028486,-0.21663 0,-3.90572 c 0,-2.14814 0.04207,-3.90564 0.0935,-3.90554 0.05142,9e-5 0.542292,0.0795 1.090818,0.17656 1.486507,0.26291 3.083275,0.81025 7.292898,2.49982 6.319827,2.53653 7.95863,2.92178 12.466492,2.92898 4.517061,0.007 7.260022,-0.84663 15.396117,-4.79387 4.06145,-1.97042 5.856964,-2.69146 8.227885,-3.30416 4.68473,-1.21063 8.760307,-0.76293 14.71046,1.61595 1.339356,0.53548 5.819727,2.59622 10.147746,4.66745 1.180168,0.56478 2.296759,1.2883 3.540505,1.69435 1.720131,0.56157 3.526556,0.99732 5.336034,0.99732 1.80948,0 3.6185,-0.42784 5.33603,-0.99732 1.26483,-0.41938 2.3933,-1.17253 3.58995,-1.75879 7.40408,-3.62742 9.99386,-4.79281 12.54216,-5.6439 5.45262,-1.82109 9.50524,-1.63939 15.54446,0.69694 1.63394,0.63211 6.04092,2.6483 10.84584,4.96197 1.22587,0.59028 2.37969,1.3627 3.67762,1.77084 1.60632,0.50511 3.30288,0.8296 4.9866,0.80765 6.64294,-0.0866 5.72639,-0.7563 14.08713,-3.99237 2.3998,-0.92885 4.80386,-1.81744 5.34237,-1.97464 l 1.72709,-0.53515 c -0.2223,2.0838 -0.13592,3.42115 -0.11405,4.97011 l 0.0258,3.10152 c -2.0706,0.68083 -5.70403,1.74392 -8.85121,2.98546 -4.72235,1.86294 -3.24695,1.4876 -7.08153,2.58223 -1.97324,0.56328 -6.88672,1.12496 -7.9406,0.379 -3.77795,-0.95329 -7.47709,-3.01147 -10.97048,-4.70748 z"
       style="fill:#0060a8;fill-opacity:1;stroke:none" />
  </g>
</svg>
