<?xml version="1.0" encoding="UTF-8" standalone="no"?>
<!-- Created with Inkscape (http://www.inkscape.org/) -->

<svg
   xmlns:dc="http://purl.org/dc/elements/1.1/"
   xmlns:cc="http://creativecommons.org/ns#"
   xmlns:rdf="http://www.w3.org/1999/02/22-rdf-syntax-ns#"
   xmlns:svg="http://www.w3.org/2000/svg"
   xmlns="http://www.w3.org/2000/svg"
   xmlns:sodipodi="http://sodipodi.sourceforge.net/DTD/sodipodi-0.dtd"
   xmlns:inkscape="http://www.inkscape.org/namespaces/inkscape"
   width="3755"
   height="2005"
   id="svg2"
   version="1.1"
   inkscape:version="0.48.5 r10040"
   sodipodi:docname="CANC Terni.svg">
  <defs
     id="defs4" />
  <sodipodi:namedview
     id="base"
     pagecolor="#ffffff"
     bordercolor="#666666"
     borderopacity="1.0"
     inkscape:pageopacity="0.0"
     inkscape:pageshadow="2"
     inkscape:zoom="0.1767767"
     inkscape:cx="2105.8436"
     inkscape:cy="989.30039"
     inkscape:document-units="px"
     inkscape:current-layer="layer1"
     showgrid="false"
     fit-margin-top="0"
     fit-margin-left="0"
     fit-margin-right="0"
     fit-margin-bottom="0"
     inkscape:window-width="1366"
     inkscape:window-height="705"
     inkscape:window-x="-8"
     inkscape:window-y="-8"
     inkscape:window-maximized="1" />
  <metadata
     id="metadata7">
    <rdf:RDF>
      <cc:Work
         rdf:about="">
        <dc:format>image/svg+xml</dc:format>
        <dc:type
           rdf:resource="http://purl.org/dc/dcmitype/StillImage" />
        <dc:title />
      </cc:Work>
    </rdf:RDF>
  </metadata>
  <g
     inkscape:label="Livello 1"
     inkscape:groupmode="layer"
     id="layer1"
     transform="translate(2.5,950.125)">
    <rect
       style="fill:#ffffff;fill-opacity:1;stroke:#000000;stroke-width:5;stroke-miterlimit:4;stroke-opacity:1;stroke-dasharray:none"
       id="rect7721"
       width="3750"
       height="2000"
       x="0"
       y="-947.63782" />
    <rect
       y="-763.59314"
       x="1366.8936"
       height="340"
       width="1016.2134"
       id="rect3815"
       style="fill:#00408b;fill-opacity:1" />
    <g
       style="font-size:171.17930603px;font-style:normal;font-weight:normal;line-height:125%;letter-spacing:0px;word-spacing:0px;fill:#000000;fill-opacity:1;stroke:none;font-family:Sans"
       id="text2996">
      <path
         d="m 307.58166,20.072103 -27.38409,0 0,-76.348436 -34.06556,46.3889234 -34.23795,-46.0441404 0,75.831262 -27.55648,0 0,-119.999992 30.63863,-0.16717 30.81102,43.306776 31.32819,-43.651556 30.46624,0 z"
         style="font-variant:normal;font-stretch:normal;fill:#000000;font-family:CodiceNero;-inkscape-font-specification:CodiceNero"
         id="path8038" />
      <path
         d="m 388.69437,-62.952577 c 1.93976,0.686172 4.22264,2.284707 6.84863,4.795612 4.33582,4.221055 6.50377,9.013179 6.50385,14.376387 l 0,39.885071 c -8e-5,2.0547928 1.31288,3.36775127 3.93888,3.93887925 0.22977,0.11147111 2.05642,0.28212088 5.47996,0.51194983 -1.02748,2.96724232 -3.9947,9.98477892 -8.90166,21.05263092 -8.90174,5e-6 -16.37724,-2.509244 -22.42654,-7.527752 -7.98926,5.248363 -15.97845,7.872539 -23.96761,7.872534 -8.33053,5e-6 -15.66238,-2.681634 -21.99556,-8.044926 -6.33321,-5.3632656 -9.49981,-12.0395026 -9.4998,-20.0287306 -10e-6,-13.2375144 8.15983,-22.3672774 24.47956,-27.3893154 6.04933,-0.912394 14.26663,-2.338539 24.65195,-4.278438 -6e-5,-5.021915 -3.19539,-7.532905 -9.586,-7.532976 -6.39071,7.1e-5 -12.49753,1.654329 -18.32049,4.962779 -0.34133,0.229921 -2.73739,2.05657 -7.18819,5.479952 l -13.00771,-19.683948 c 0.22636,-0.571074 1.93809,-1.826568 5.13517,-3.766488 3.87966,-2.510905 8.21556,-4.793781 13.00771,-6.848635 5.70803,-2.510898 12.44173,-3.766393 20.20112,-3.766488 8.9016,9.5e-5 17.11717,1.997394 24.64673,5.991902 z m -36.63054,55.6353645 c 0.1149,1.8249415 1.31293,3.3642721 3.5941,4.6179964 1.9398,1.1423378 3.9371,1.7134921 5.9919,1.71346471 3.19703,2.739e-5 5.93613,-0.71304491 8.21732,-2.13921891 2.28108,-1.426115 3.70723,-3.0516412 4.27844,-4.8765833 l 0,-8.7344914 c -4.79218,0.91598 -9.58431,1.830175 -14.37639,2.742589 -5.25188,1.138866 -7.82033,3.364279 -7.70537,6.6762435 z"
         style="font-variant:normal;font-stretch:normal;fill:#000000;font-family:CodiceNero;-inkscape-font-specification:CodiceNero"
         id="path8040" />
      <path
         d="m 486.07977,-40.52604 c -2.51106,-0.686015 -5.02205,-1.029055 -7.53297,-1.029123 -5.81957,6.8e-5 -10.6117,1.54114 -14.37639,4.62322 -4.2245,3.308579 -6.33673,7.987518 -6.33669,14.036829 l 0,42.794826 -27.72887,0 0,-86.958335 28.07366,0 0,5.474729 c 2.51094,-1.483521 4.96447,-2.967129 7.36058,-4.45083 4.33585,-2.05467 8.89986,-3.082051 13.69205,-3.082146 2.28107,9.5e-5 4.56395,0.22995 6.84863,0.689565 z"
         style="font-variant:normal;font-stretch:normal;fill:#000000;font-family:CodiceNero;-inkscape-font-specification:CodiceNero"
         id="path8042" />
      <path
         d="m 564.22002,-62.952577 c 1.93976,0.686172 4.22264,2.284707 6.84863,4.795612 4.33582,4.221055 6.50377,9.013179 6.50385,14.376387 l 0,39.885071 c -8e-5,2.0547928 1.31288,3.36775127 3.93888,3.93887925 0.22977,0.11147111 2.05642,0.28212088 5.47996,0.51194983 -1.02748,2.96724232 -3.9947,9.98477892 -8.90166,21.05263092 -8.90174,5e-6 -16.37724,-2.509244 -22.42654,-7.527752 -7.98926,5.248363 -15.97845,7.872539 -23.96761,7.872534 -8.33053,5e-6 -15.66238,-2.681634 -21.99556,-8.044926 -6.33321,-5.3632656 -9.49981,-12.0395026 -9.4998,-20.0287306 -1e-5,-13.2375144 8.15983,-22.3672774 24.47956,-27.3893154 6.04933,-0.912394 14.26663,-2.338539 24.65195,-4.278438 -6e-5,-5.021915 -3.19539,-7.532905 -9.586,-7.532976 -6.39071,7.1e-5 -12.49753,1.654329 -18.32049,4.962779 -0.34133,0.229921 -2.73739,2.05657 -7.18819,5.479952 l -13.00771,-19.683948 c 0.22636,-0.571074 1.93809,-1.826568 5.13517,-3.766488 3.87966,-2.510905 8.21556,-4.793781 13.00771,-6.848635 5.70803,-2.510898 12.44173,-3.766393 20.20112,-3.766488 8.9016,9.5e-5 17.11717,1.997394 24.64673,5.991902 z m -36.63054,55.6353645 c 0.1149,1.8249415 1.31293,3.3642721 3.5941,4.6179964 1.9398,1.1423378 3.9371,1.7134921 5.9919,1.71346471 3.19703,2.739e-5 5.93613,-0.71304491 8.21732,-2.13921891 2.28108,-1.426115 3.70723,-3.0516412 4.27844,-4.8765833 l 0,-8.7344914 c -4.79218,0.91598 -9.58431,1.830175 -14.37639,2.742589 -5.25188,1.138866 -7.82033,3.364279 -7.70537,6.6762435 z"
         style="font-variant:normal;font-stretch:normal;fill:#000000;font-family:CodiceNero;-inkscape-font-specification:CodiceNero"
         id="path8044" />
      <path
         d="m 602.37598,-67.058623 27.5617,0 0,87.130726 -27.5617,0 z m -0.51195,-27.049757 c 2.85228,-5.704458 7.53121,-8.55675 14.03683,-8.55688 2.51096,1.3e-4 4.84956,0.51382 7.0158,1.54108 5.81947,2.852414 8.72923,7.588816 8.72926,14.209217 -3e-5,2.396175 -0.51373,4.67731 -1.54107,6.843411 -2.85233,5.708167 -7.58699,8.562198 -14.20399,8.5621 -2.51102,9.8e-5 -4.85136,-0.513593 -7.02103,-1.541074 -5.7046,-2.852189 -8.55688,-7.531128 -8.55688,-14.036828 0,-2.510876 0.51369,-4.851216 1.54108,-7.021026 z"
         style="font-variant:normal;font-stretch:normal;fill:#000000;font-family:CodiceNero;-inkscape-font-specification:CodiceNero"
         id="path8046" />
      <path
         d="m 705.48684,19.899712 0,-48.274779 c -7e-5,-4.220915 -1.17024,-7.758415 -3.51052,-10.612511 -2.3404,-2.853965 -5.67852,-4.28098 -10.01436,-4.28105 -4.79218,7e-5 -8.38627,1.656069 -10.78229,4.968003 -1.71351,2.511054 -2.57024,5.420807 -2.5702,8.729267 l 0,49.47107 -27.38932,0 0,-86.791168 24.14001,0 1.36868,5.307562 c 6.04584,-4.792037 13.97583,-7.188099 23.78999,-7.188194 11.18621,9.5e-5 19.80228,4.335993 25.84824,13.007705 4.45074,6.390742 6.67616,12.838865 6.67625,19.34439 l 0,56.319705 z"
         style="font-variant:normal;font-stretch:normal;fill:#000000;font-family:CodiceNero;-inkscape-font-specification:CodiceNero"
         id="path8048" />
      <path
         d="m 753.16083,-67.058623 27.56171,0 0,87.130726 -27.56171,0 z m -0.51195,-27.049757 c 2.85228,-5.704458 7.53122,-8.55675 14.03683,-8.55688 2.51096,1.3e-4 4.84956,0.51382 7.0158,1.54108 5.81947,2.852414 8.72923,7.588816 8.72927,14.209217 -4e-5,2.396175 -0.51373,4.67731 -1.54108,6.843411 -2.85232,5.708167 -7.58699,8.562198 -14.20399,8.5621 -2.51102,9.8e-5 -4.85136,-0.513593 -7.02103,-1.541074 -5.70459,-2.852189 -8.55688,-7.531128 -8.55688,-14.036828 0,-2.510876 0.51369,-4.851216 1.54108,-7.021026 z"
         style="font-variant:normal;font-stretch:normal;fill:#000000;font-family:CodiceNero;-inkscape-font-specification:CodiceNero"
         id="path8050" />
    </g>
    <g
       style="font-size:171.17930603px;font-style:normal;font-weight:normal;line-height:125%;letter-spacing:0px;word-spacing:0px;fill:#000000;fill-opacity:1;stroke:none;font-family:Sans"
       id="text3768">
      <path
         d="m 3090.4358,-140.47153 c 15.4072,1.3e-4 28.8171,5.76217 40.2299,17.28614 6.9617,6.96193 11.6981,13.86628 14.2092,20.71307 l -26.705,10.615127 c -1.3722,-7.076661 -4.8532,-12.782977 -10.4427,-17.118977 -5.3634,-3.9945 -11.3553,-5.9918 -17.9757,-5.9919 -7.8744,1e-4 -14.3782,2.79667 -19.5116,8.38971 -5.9345,6.50568 -8.9017,15.635443 -8.9016,27.389314 -10e-5,24.991552 9.814,37.487295 29.4423,37.487265 8.1006,3e-5 14.9475,-3.080373 20.5407,-9.241217 4.3358,-4.795568 6.6187,-9.418783 6.8486,-13.869661 l 26.1878,10.787514 c -2.2812,7.303156 -7.2458,14.548806 -14.8936,21.736972 -11.0679,10.385278 -24.1331,15.577907 -39.1955,15.577902 -20.3143,5e-6 -35.779,-7.874263 -46.3941,-23.622828 -8.2156,-12.325064 -11.9246,-25.505147 -11.1271,-39.540289 0.3448,-6.620446 1.5446,-13.524796 3.5993,-20.713072 1.5951,-5.81942 3.2493,-10.15531 4.9628,-13.0077 4.221,-7.3065 10.2686,-13.35586 18.1429,-18.1481 9.3578,-5.81939 19.6856,-8.72914 30.9834,-8.72927 z"
         style="font-variant:normal;font-stretch:normal;text-align:end;text-anchor:end;fill:#000000;font-family:CodiceNero;-inkscape-font-specification:CodiceNero"
         id="path7969" />
      <path
         d="m 3165.5044,-104.8649 27.5617,0 0,87.130729 -27.5617,0 z m -0.512,-27.04975 c 2.8523,-5.70446 7.5312,-8.55675 14.0369,-8.55688 2.5109,1.3e-4 4.8495,0.51382 7.0158,1.54107 5.8194,2.85242 8.7292,7.58882 8.7292,14.20922 0,2.39618 -0.5137,4.67731 -1.541,6.84341 -2.8524,5.70817 -7.587,8.5622 -14.204,8.5621 -2.5111,1e-4 -4.8514,-0.51359 -7.0211,-1.54107 -5.7046,-2.85219 -8.5569,-7.53113 -8.5568,-14.03683 -10e-5,-2.51087 0.5136,-4.85121 1.541,-7.02102 z"
         style="font-variant:normal;font-stretch:normal;text-align:end;text-anchor:end;fill:#000000;font-family:CodiceNero;-inkscape-font-specification:CodiceNero"
         id="path7971" />
      <path
         d="m 3268.6153,-17.906562 0,-48.27478 c -10e-5,-4.220915 -1.1703,-7.758415 -3.5106,-10.612511 -2.3404,-2.853965 -5.6785,-4.28098 -10.0143,-4.281049 -4.7922,6.9e-5 -8.3863,1.656069 -10.7823,4.968002 -1.7135,2.511055 -2.5703,5.420807 -2.5702,8.729267 l 0,49.471071 -27.3893,0 0,-86.791168 24.14,0 1.3687,5.307561 c 6.0458,-4.792041 13.9758,-7.188101 23.7899,-7.188191 11.1863,9e-5 19.8023,4.33599 25.8483,13.007703 4.4507,6.390742 6.6761,12.838865 6.6762,19.344389 l 0,56.319706 z"
         style="font-variant:normal;font-stretch:normal;text-align:end;text-anchor:end;fill:#000000;font-family:CodiceNero;-inkscape-font-specification:CodiceNero"
         id="path7973" />
      <path
         d="m 3356.002,-140.64392 0,32.35209 22.4265,0 0,24.140005 -21.9094,0 0,35.7738 c 0,3.879707 2.7373,5.819542 8.2121,5.819511 1.7134,3.1e-5 3.9963,-0.19935 6.8487,-0.598145 2.8522,-0.398732 4.5639,-0.598113 5.1351,-0.598146 l 4.7956,22.766096 c -6.8469,3.423453 -15.5779,5.135174 -26.193,5.13517 -7.1882,4e-6 -13.464,-1.826645 -18.8272,-5.479953 -5.9345,-4.106032 -8.9017,-9.29692 -8.9017,-15.572678 l 0,-47.245655 -14.2092,0 0,-24.140005 14.2092,0 0,-25.1639 z"
         style="font-variant:normal;font-stretch:normal;text-align:end;text-anchor:end;fill:#000000;font-family:CodiceNero;-inkscape-font-specification:CodiceNero"
         id="path7975" />
      <path
         d="m 3397.8669,-104.8649 27.5617,0 0,87.130729 -27.5617,0 z m -0.5119,-27.04975 c 2.8522,-5.70446 7.5312,-8.55675 14.0368,-8.55688 2.511,1.3e-4 4.8496,0.51382 7.0158,1.54107 5.8195,2.85242 8.7292,7.58882 8.7293,14.20922 -10e-5,2.39618 -0.5138,4.67731 -1.5411,6.84341 -2.8523,5.70817 -7.587,8.5622 -14.204,8.5621 -2.511,1e-4 -4.8514,-0.51359 -7.021,-1.54107 -5.7046,-2.85219 -8.5569,-7.53113 -8.5569,-14.03683 0,-2.51087 0.5137,-4.85121 1.5411,-7.02102 z"
         style="font-variant:normal;font-stretch:normal;text-align:end;text-anchor:end;fill:#000000;font-family:CodiceNero;-inkscape-font-specification:CodiceNero"
         id="path7977" />
      <path
         d="m 3507.8212,-100.75885 c 1.9397,0.68617 4.2226,2.284706 6.8486,4.795611 4.3358,4.221054 6.5038,9.013178 6.5039,14.376387 l 0,39.885071 c -10e-5,2.054792 1.3128,3.367751 3.9388,3.938879 0.2298,0.111471 2.0565,0.282121 5.48,0.51195 -1.0275,2.967242 -3.9947,9.984779 -8.9017,21.05263 -8.9017,5e-6 -16.3772,-2.509243 -22.4265,-7.527752 -7.9893,5.248364 -15.9785,7.872539 -23.9676,7.872535 -8.3305,4e-6 -15.6624,-2.681635 -21.9956,-8.044926 -6.3332,-5.363266 -9.4998,-12.039503 -9.4998,-20.028731 0,-13.237514 8.1599,-22.367277 24.4796,-27.389316 6.0493,-0.912394 14.2666,-2.338538 24.6519,-4.278438 0,-5.021915 -3.1953,-7.532904 -9.586,-7.532976 -6.3907,7.2e-5 -12.4975,1.65433 -18.3204,4.962779 -0.3414,0.229922 -2.7374,2.056571 -7.1882,5.479953 l -13.0077,-19.683949 c 0.2263,-0.571073 1.938,-1.826568 5.1351,-3.766488 3.8797,-2.510904 8.2156,-4.793779 13.0077,-6.848639 5.7081,-2.51089 12.4418,-3.76639 20.2012,-3.76648 8.9016,9e-5 17.1171,1.99739 24.6467,5.9919 z m -36.6306,55.635363 c 0.1149,1.824942 1.313,3.364272 3.5941,4.617996 1.9398,1.142338 3.9371,1.713493 5.9919,1.713465 3.1971,2.8e-5 5.9362,-0.713045 8.2174,-2.139219 2.281,-1.426115 3.7072,-3.051641 4.2784,-4.876583 l 0,-8.734491 c -4.7922,0.91598 -9.5843,1.830175 -14.3764,2.742588 -5.2519,1.138867 -7.8203,3.364279 -7.7054,6.676244 z"
         style="font-variant:normal;font-stretch:normal;text-align:end;text-anchor:end;fill:#000000;font-family:CodiceNero;-inkscape-font-specification:CodiceNero"
         id="path7979" />
    </g>
    <g
       style="font-size:128.38449097px;font-style:normal;font-weight:normal;line-height:125%;letter-spacing:0px;word-spacing:0px;fill:#000000;fill-opacity:1;stroke:none;font-family:Sans"
       id="text3772">
      <path
         d="m 2773.8687,-17.906576 -22.8497,-65.218757 22.4657,0 12.0674,37.103305 11.5542,-37.103305 20.542,0 -20.1541,65.218757 z"
         style="font-variant:normal;font-stretch:normal;fill:#000000;font-family:CodiceNero;-inkscape-font-specification:CodiceNero"
         id="path7962" />
      <path
         d="m 2828.2464,-83.125333 20.6713,0 0,65.34805 -20.6713,0 z m -0.384,-20.287317 c 2.1393,-4.27835 5.6485,-6.41756 10.5277,-6.41766 1.8832,1e-4 3.6371,0.38536 5.2618,1.1558 4.3646,2.13932 6.5469,5.69162 6.547,10.65692 -10e-5,1.797132 -0.3853,3.507983 -1.1558,5.132559 -2.1393,4.281126 -5.6903,6.421649 -10.653,6.421575 -1.8833,7.4e-5 -3.6386,-0.385194 -5.2658,-1.155805 -4.2785,-2.139142 -6.4177,-5.648346 -6.4177,-10.527622 0,-1.883157 0.3853,-3.638417 1.1558,-5.265767 z"
         style="font-variant:normal;font-stretch:normal;fill:#000000;font-family:CodiceNero;-inkscape-font-specification:CodiceNero"
         id="path7964" />
      <path
         d="m 2910.7121,-80.045798 c 1.4548,0.514628 3.167,1.71353 5.1365,3.596709 3.2519,3.165791 4.8778,6.759884 4.8779,10.782291 l 0,29.913806 c -1e-4,1.541095 0.9846,2.525814 2.9542,2.95416 0.1723,0.0836 1.5423,0.21159 4.1099,0.383962 -0.7706,2.225432 -2.996,7.488585 -6.6762,15.789474 -6.6763,4e-6 -12.283,-1.881932 -16.8199,-5.645814 -5.992,3.936273 -11.9839,5.904405 -17.9757,5.904401 -6.2479,4e-6 -11.7468,-2.011226 -16.4967,-6.033695 -4.7499,-4.02245 -7.1249,-9.029628 -7.1249,-15.021549 0,-9.928137 6.1199,-16.775459 18.3597,-20.541989 4.537,-0.684295 10.7,-1.753904 18.489,-3.208829 -1e-4,-3.766436 -2.3966,-5.649678 -7.1895,-5.649732 -4.7931,5.4e-5 -9.3732,1.240747 -13.7404,3.722084 -0.256,0.172442 -2.053,1.542428 -5.3911,4.109965 l -9.7558,-14.762962 c 0.1697,-0.428305 1.4535,-1.369927 3.8514,-2.824867 2.9097,-1.883178 6.1616,-3.595336 9.7557,-5.136476 4.2811,-1.883174 9.3313,-2.824795 15.1509,-2.824867 6.6762,7.2e-5 12.8379,1.498046 18.485,4.493928 z m -27.4729,41.726526 c 0.086,1.368707 0.9847,2.523205 2.6956,3.463498 1.4548,0.856754 2.9528,1.285119 4.4939,1.285099 2.3978,2e-5 4.4521,-0.534784 6.163,-1.604415 1.7108,-1.069586 2.7804,-2.288731 3.2088,-3.657437 l 0,-6.550869 c -3.5941,0.686985 -7.1882,1.372631 -10.7823,2.056941 -3.9389,0.85415 -5.8652,2.52321 -5.779,5.007183 z"
         style="font-variant:normal;font-stretch:normal;fill:#000000;font-family:CodiceNero;-inkscape-font-specification:CodiceNero"
         id="path7966" />
    </g>
    <g
       style="font-size:178.31178284px;font-style:normal;font-weight:normal;line-height:125%;letter-spacing:0px;word-spacing:0px;fill:#000000;fill-opacity:1;stroke:none;font-family:Sans"
       id="text3776">
      <path
         d="m 2737.2953,-623.46064 c 10.5785,10e-5 20.0288,3.50632 28.351,10.51869 7.0123,6.06208 11.2913,12.4814 12.8368,19.25798 l -24.9608,9.09299 c -0.4753,-3.92155 -1.9028,-7.25002 -4.2826,-9.98542 -2.9712,-3.32658 -7.0125,-4.98991 -12.124,-4.98999 -5.1115,8e-5 -9.3016,1.872 -12.5702,5.61578 -3.2686,3.74392 -4.9029,8.52893 -4.9029,14.35506 l 0,6.77484 c 0,4.87576 1.3676,9.21456 4.103,13.01642 3.2069,4.63631 7.7833,6.95444 13.7293,6.95442 3.6857,2e-5 7.2817,-1.48554 10.788,-4.45671 3.5062,-2.9711 5.3192,-6.77481 5.439,-11.41113 l 25.3199,8.91342 c -1e-4,2.14041 -1.4276,5.40902 -4.2825,9.80584 -3.5662,5.70649 -8.0229,10.34276 -13.3702,13.90884 -7.1322,4.756 -15.2167,7.134 -24.2534,7.13399 -13.0745,10e-6 -24.0702,-4.93374 -32.9872,-14.80127 -7.6074,-8.31843 -11.4111,-17.23365 -11.4111,-26.74568 l 0,-8.38013 c 0,-10.81792 3.6858,-20.56571 11.0574,-29.24339 8.5578,-10.22294 19.7313,-15.33445 33.5205,-15.33455 z"
         style="font-variant:normal;font-stretch:normal;fill:#000000;font-family:CodiceNero;-inkscape-font-specification:CodiceNero"
         id="path7982" />
      <path
         d="m 2835.5061,-623.64022 c 11.4129,10e-5 21.3384,4.04142 29.7767,12.12398 9.5119,9.03684 14.2679,20.925 14.268,35.66454 -1e-4,1.90099 -0.2976,4.93199 -0.8925,9.09298 l -59.5588,0 c 2.7353,8.44184 8.7991,12.54302 18.1914,12.30356 7.368,-0.23577 14.6181,-3.08901 21.7503,-8.5597 l 19.0838,18.72469 c -14.7433,10.22305 -28.4743,15.33456 -41.1932,15.33455 -12.0043,10e-6 -22.4649,-3.74384 -31.382,-11.23155 -9.7478,-8.32206 -14.7994,-19.3178 -15.1549,-32.98724 0,-1.78481 0,-4.52014 0,-8.206 0.116,-9.03306 3.5026,-17.77052 10.1595,-26.2124 8.5615,-10.69818 20.2121,-16.04731 34.9517,-16.04741 z m -16.0474,35.30539 31.2024,0 c -0.7111,-3.32659 -2.4933,-6.14899 -5.3464,-8.4672 -2.8533,-2.31807 -6.2426,-3.53699 -10.1678,-3.65679 -4.0413,-0.11964 -7.5476,1.18817 -10.5187,3.92343 -2.4959,2.26017 -4.2191,4.99368 -5.1695,8.20056 z"
         style="font-variant:normal;font-stretch:normal;fill:#000000;font-family:CodiceNero;-inkscape-font-specification:CodiceNero"
         id="path7984" />
      <path
         d="m 2954.3189,-531.09418 0,-50.28623 c 0,-4.39679 -1.219,-8.08169 -3.6567,-11.0547 -2.438,-2.97288 -5.9152,-4.45936 -10.4317,-4.45943 -4.9918,7e-5 -8.7357,1.72507 -11.2315,5.175 -1.7849,2.61569 -2.6774,5.64668 -2.6773,9.09299 l 0,51.53237 -28.5306,0 0,-90.40747 25.1459,0 1.4257,5.52871 c 6.2977,-4.99171 14.5581,-7.4876 24.7812,-7.4877 11.6523,10e-5 20.6274,4.51666 26.9253,13.54969 4.6362,6.65702 6.9543,13.37382 6.9544,20.15041 l 0,58.66636 z"
         style="font-variant:normal;font-stretch:normal;fill:#000000;font-family:CodiceNero;-inkscape-font-specification:CodiceNero"
         id="path7986" />
      <path
         d="m 3045.3467,-658.9456 0,33.7001 23.361,0 0,25.14583 -22.8222,0 0,37.26438 c -10e-5,4.04136 2.8513,6.06202 8.5542,6.06199 1.7848,3e-5 4.1628,-0.20766 7.134,-0.62307 2.9711,-0.41534 4.7541,-0.62303 5.3492,-0.62307 l 4.9954,23.71469 c -7.1323,3.56609 -16.2271,5.34914 -27.2844,5.34913 -7.4878,10e-6 -14.025,-1.90275 -19.6117,-5.70828 -6.1817,-4.27712 -9.2726,-9.68429 -9.2726,-16.22154 l 0,-49.21423 -14.8012,0 0,-25.14583 14.8012,0 0,-26.2124 z"
         style="font-variant:normal;font-stretch:normal;fill:#000000;font-family:CodiceNero;-inkscape-font-specification:CodiceNero"
         id="path7988" />
      <path
         d="m 3150.6534,-594.03768 c -2.6156,-0.71459 -5.2313,-1.07193 -7.8468,-1.072 -6.0621,7e-5 -11.0539,1.60535 -14.9754,4.81586 -4.4005,3.44643 -6.6008,8.32033 -6.6007,14.62169 l 0,44.57795 -28.8843,0 0,-90.5816 29.2434,0 0,5.70284 c 2.6156,-1.54534 5.1713,-3.09076 7.6673,-4.63628 4.5165,-2.14028 9.2707,-3.21047 14.2625,-3.21057 2.3762,10e-5 4.7542,0.23953 7.134,0.71829 z"
         style="font-variant:normal;font-stretch:normal;fill:#000000;font-family:CodiceNero;-inkscape-font-specification:CodiceNero"
         id="path7990" />
      <path
         d="m 3242.7478,-610.08508 c 8.2023,8.91349 12.3035,19.37413 12.3036,31.38196 -10e-5,15.57039 -5.0518,28.17141 -15.155,37.8031 -8.7974,8.31846 -18.8427,12.47769 -30.1358,12.47768 -16.7603,10e-6 -29.7169,-6.47735 -38.8697,-19.43211 -3.2106,-4.63625 -5.3509,-8.55967 -6.4211,-11.77027 -1.5455,-4.28072 -2.3182,-10.10509 -2.3182,-17.47312 0,-15.21839 5.1115,-27.40404 15.3346,-36.55696 8.5615,-7.72704 19.082,-11.5906 31.5615,-11.5907 13.078,10e-5 24.3114,5.05357 33.7001,15.16042 z m -52.958,27.45853 0,9.80584 c -1e-4,4.87576 1.9027,9.09666 5.7082,12.66271 3.8055,3.56612 8.1443,5.34916 13.0164,5.34913 4.9918,3e-5 9.3306,-1.78301 13.0165,-5.34913 3.6857,-3.56605 5.5286,-7.78695 5.5287,-12.66271 l 0,-9.80584 c -1e-4,-5.11145 -2.0208,-9.39039 -6.062,-12.83684 -3.6859,-3.09078 -7.8469,-4.6362 -12.4832,-4.63628 -4.8721,8e-5 -9.151,1.5455 -12.8368,4.63628 -3.9253,3.44645 -5.8879,7.72539 -5.8878,12.83684 z"
         style="font-variant:normal;font-stretch:normal;fill:#000000;font-family:CodiceNero;-inkscape-font-specification:CodiceNero"
         id="path7992" />
    </g>
    <g
       style="font-size:170.69630432px;font-style:normal;font-weight:normal;line-height:125%;letter-spacing:0px;word-spacing:0px;fill:#ffffff;fill-opacity:1;stroke:none;font-family:Sans"
       id="text3780">
      <path
         d="m 1812.8382,-654.44788 c 20.8264,1.3e-4 38.5222,6.54466 53.0873,19.63362 l -17.7531,15.19013 c -3.5285,-3.07335 -7.9094,-5.80472 -13.1429,-8.19413 -6.4873,-3.07334 -12.7453,-4.61007 -18.7741,-4.61017 -3.3027,1e-4 -6.4334,0.51234 -9.3922,1.53672 -6.9423,2.27828 -10.1286,6.65924 -9.559,13.14291 0.2292,2.6186 2.5056,4.78217 6.8293,6.49071 3.8687,1.59064 11.6061,3.63787 23.2124,6.14169 24.3548,5.2371 36.5323,17.24264 36.5324,36.01667 -10e-5,11.49508 -4.5235,20.74147 -13.5701,27.73919 -9.0468,6.99775 -21.3666,10.49662 -36.9595,10.49662 -12.9711,0 -25.317,-3.47108 -37.0377,-10.41327 -7.3972,-4.20904 -13.5996,-9.15782 -18.6074,-14.84633 l 20.8265,-15.70585 c 1.9344,2.95889 5.9177,6.1452 11.95,9.55895 8.0778,4.55291 16.4403,6.88664 25.0877,7.00122 5.9176,0.11116 10.698,-1.05658 14.341,-3.50321 3.6429,-2.44658 5.4644,-5.60424 5.4645,-9.473 -10e-5,-4.43823 -2.846,-7.90931 -8.5379,-10.41327 -3.5285,-1.5905 -9.7874,-3.32517 -18.7767,-5.20403 -8.9895,-1.87874 -15.0765,-3.55785 -18.261,-5.03733 -5.5774,-2.50384 -9.4478,-4.72298 -11.6114,-6.65741 -6.0288,-5.34807 -9.0432,-12.40311 -9.0432,-21.16513 0,-12.85977 4.7213,-22.64618 14.1639,-29.35926 7.852,-5.57724 17.6957,-8.36591 29.5312,-8.36604 z"
         style="font-variant:normal;font-stretch:normal;fill:#ffffff;font-family:CodiceBianco;-inkscape-font-specification:CodiceBianco"
         id="path8016" />
      <path
         d="m 1916.9291,-621.67136 c 8.8731,1e-4 16.6105,1.81986 23.2124,5.45929 7.852,4.43835 11.778,10.64081 11.7781,18.60739 l 0,33.96944 c -10e-5,4.55291 0.2274,7.34158 0.6824,8.36604 1.0244,2.84427 3.8131,4.26639 8.366,4.26636 l -8.1941,18.946 c -2.8443,-0.1146 -5.4628,-0.45667 -7.8555,-1.02622 -5.8032,-1.36481 -10.1841,-3.86698 -13.1429,-7.50651 -6.2581,5.6885 -14.9627,8.53274 -26.1139,8.53273 -7.7375,10e-6 -14.48,-2.67407 -20.2275,-8.02222 -5.7475,-5.34814 -8.564,-11.32313 -8.4494,-17.92499 0.2257,-16.15901 10.4098,-25.71795 30.5522,-28.67686 l 19.8003,-2.90154 c 0.3438,-4.4382 -0.7936,-7.56722 -3.412,-9.38705 -2.2748,-1.36474 -6.0307,-2.04715 -11.2676,-2.04723 -8.3071,8e-5 -16.1591,3.12909 -23.5562,9.38705 l -11.4343,-16.72686 c 10.2414,-8.87646 23.3287,-13.31472 39.262,-13.31482 z m -8.0274,53.08735 c -5.9177,1.02452 -8.8766,3.92606 -8.8765,8.70463 -10e-5,2.50394 1.3092,4.46695 3.9277,5.88905 2.6185,1.42214 5.692,2.1332 9.2204,2.13318 3.6395,2e-5 6.8249,-0.68325 9.5563,-2.04984 2.7314,-1.36652 4.3245,-3.30002 4.7795,-5.80048 l 0,-11.94999 z"
         style="font-variant:normal;font-stretch:normal;fill:#ffffff;font-family:CodiceBianco;-inkscape-font-specification:CodiceBianco"
         id="path8018" />
      <path
         d="m 1998.287,-653.08306 0,88.93732 c 0,6.713 2.6741,10.06948 8.0222,10.06945 1.9344,3e-5 4.3237,-0.39761 7.168,-1.19291 l 2.0524,21.50373 c -5.1225,1.13909 -10.6425,1.70864 -16.5602,1.70863 -9.1023,10e-6 -15.7597,-2.95884 -19.9722,-8.87654 -3.1846,-4.55285 -4.7769,-10.47054 -4.7769,-17.75308 l 0,-94.3966 z"
         style="font-variant:normal;font-stretch:normal;fill:#ffffff;font-family:CodiceBianco;-inkscape-font-specification:CodiceBianco"
         id="path8020" />
      <path
         d="m 2068.2888,-621.67136 c 8.873,1e-4 16.6104,1.81986 23.2123,5.45929 7.852,4.43835 11.778,10.64081 11.7781,18.60739 l 0,33.96944 c -10e-5,4.55291 0.2274,7.34158 0.6824,8.36604 1.0244,2.84427 3.8131,4.26639 8.3661,4.26636 l -8.1942,18.946 c -2.8443,-0.1146 -5.4628,-0.45667 -7.8555,-1.02622 -5.8032,-1.36481 -10.1841,-3.86698 -13.1429,-7.50651 -6.2581,5.6885 -14.9627,8.53274 -26.1139,8.53273 -7.7375,10e-6 -14.48,-2.67407 -20.2275,-8.02222 -5.7475,-5.34814 -8.564,-11.32313 -8.4494,-17.92499 0.2258,-16.15901 10.4098,-25.71795 30.5522,-28.67686 l 19.8003,-2.90154 c 0.3438,-4.4382 -0.7936,-7.56722 -3.412,-9.38705 -2.2748,-1.36474 -6.0306,-2.04715 -11.2676,-2.04723 -8.307,8e-5 -16.1591,3.12909 -23.5562,9.38705 l -11.4343,-16.72686 c 10.2414,-8.87646 23.3287,-13.31472 39.2621,-13.31482 z m -8.0275,53.08735 c -5.9177,1.02452 -8.8765,3.92606 -8.8765,8.70463 0,2.50394 1.3092,4.46695 3.9278,5.88905 2.6184,1.42214 5.6919,2.1332 9.2203,2.13318 3.6395,2e-5 6.8249,-0.68325 9.5564,-2.04984 2.7313,-1.36652 4.3244,-3.30002 4.7794,-5.80048 l 0,-11.94999 z"
         style="font-variant:normal;font-stretch:normal;fill:#ffffff;font-family:CodiceBianco;-inkscape-font-specification:CodiceBianco"
         id="path8022" />
      <path
         d="m 2178.3235,-622.52567 0,24.74909 c -1.7052,-0.22566 -3.4121,-0.33853 -5.1207,-0.3386 -6.713,7e-5 -12.2313,1.53506 -16.555,4.60496 -4.7821,3.30272 -7.1731,7.79829 -7.1731,13.48672 l 0,46.25803 -23.8948,0 0,-86.71297 23.8948,0 0,7.51172 c 7.1714,-6.48714 15.6503,-9.73076 25.4367,-9.73086 1.3648,10e-5 2.5021,0.0574 3.4121,0.17191 z"
         style="font-variant:normal;font-stretch:normal;fill:#ffffff;font-family:CodiceBianco;-inkscape-font-specification:CodiceBianco"
         id="path8024" />
      <path
         d="m 2205.5782,-654.95839 c 3.7576,1.3e-4 7.115,1.36582 10.0721,4.09707 2.9571,2.7315 4.4356,6.20172 4.4357,10.41066 -10e-5,3.5285 -1.4222,6.65838 -4.2664,9.38965 -2.8443,2.73148 -6.1435,4.09717 -9.8976,4.09707 -3.7576,10e-5 -7.0871,-1.30829 -9.9887,-3.92516 -2.9015,-2.61667 -4.3523,-5.91672 -4.3523,-9.90016 0,-4.09781 1.3943,-7.48382 4.183,-10.15801 2.7887,-2.67395 6.0601,-4.01099 9.8142,-4.01112 z m -11.778,34.65185 24.5823,0 0,86.54107 -24.5823,0 z"
         style="font-variant:normal;font-stretch:normal;fill:#ffffff;font-family:CodiceBianco;-inkscape-font-specification:CodiceBianco"
         id="path8026" />
      <path
         d="m 2276.3249,-621.67136 c 8.873,1e-4 16.6104,1.81986 23.2123,5.45929 7.852,4.43835 11.778,10.64081 11.7781,18.60739 l 0,33.96944 c -1e-4,4.55291 0.2274,7.34158 0.6824,8.36604 1.0244,2.84427 3.8131,4.26639 8.3661,4.26636 l -8.1942,18.946 c -2.8443,-0.1146 -5.4628,-0.45667 -7.8555,-1.02622 -5.8032,-1.36481 -10.1841,-3.86698 -13.1429,-7.50651 -6.2581,5.6885 -14.9627,8.53274 -26.1139,8.53273 -7.7375,10e-6 -14.48,-2.67407 -20.2275,-8.02222 -5.7475,-5.34814 -8.564,-11.32313 -8.4494,-17.92499 0.2258,-16.15901 10.4098,-25.71795 30.5522,-28.67686 l 19.8003,-2.90154 c 0.3438,-4.4382 -0.7936,-7.56722 -3.412,-9.38705 -2.2748,-1.36474 -6.0306,-2.04715 -11.2676,-2.04723 -8.307,8e-5 -16.1591,3.12909 -23.5562,9.38705 l -11.4343,-16.72686 c 10.2414,-8.87646 23.3287,-13.31472 39.2621,-13.31482 z m -8.0275,53.08735 c -5.9177,1.02452 -8.8765,3.92606 -8.8765,8.70463 0,2.50394 1.3092,4.46695 3.9278,5.88905 2.6184,1.42214 5.6919,2.1332 9.2203,2.13318 3.6395,2e-5 6.8249,-0.68325 9.5564,-2.04984 2.7313,-1.36652 4.3244,-3.30002 4.7794,-5.80048 l 0,-11.94999 z"
         style="font-variant:normal;font-stretch:normal;fill:#ffffff;font-family:CodiceBianco;-inkscape-font-specification:CodiceBianco"
         id="path8028" />
    </g>
    <rect
       style="fill:#00408b;fill-opacity:1"
       id="rect3817"
       width="938.63367"
       height="340"
       x="177.89977"
       y="-763.59314" />
    <g
       style="font-size:256.04446411px;font-style:normal;font-weight:normal;line-height:125%;letter-spacing:0px;word-spacing:0px;fill:#ffffff;fill-opacity:1;stroke:none;font-family:Sans"
       id="text3784">
      <path
         d="m 408.2279,-683.8514 0,33.02918 -56.07224,0 0,147.22869 -37.38149,0 0,-147.47874 -56.07224,0 0,-32.77913 z"
         style="font-variant:normal;font-stretch:normal;fill:#ffffff;font-family:CodiceBianco;-inkscape-font-specification:CodiceBianco"
         id="path8064" />
      <path
         d="m 556.65211,-683.59354 0,32.52127 -87.31204,0 0,38.66297 78.34954,0 0,32.51346 -78.09168,0 0,41.48376 96.01667,0 0,34.81855 -132.89026,0 0,-180.00001 z"
         style="font-variant:normal;font-stretch:normal;fill:#ffffff;font-family:CodiceBianco;-inkscape-font-specification:CodiceBianco"
         id="path8066" />
      <path
         d="m 686.06523,-683.59354 c 13.8252,1.9e-4 26.03043,5.03491 36.61573,15.10419 11.09553,10.58533 16.64336,23.55893 16.64352,38.92082 -1.6e-4,13.82544 -4.61033,25.60351 -13.83053,35.33426 -6.82945,7.33991 -15.10692,12.71844 -24.83244,16.13561 l 46.34399,74.50513 -40.46015,0 -44.29676,-71.43428 -26.87967,0 0,71.43428 -35.59211,0 0,-180.00001 z m -50.69631,32.00556 0,44.81247 44.0389,0 c 4.61007,1.1e-4 9.13429,-2.13437 13.57267,-6.40346 4.43816,-4.26884 6.65729,-9.56012 6.65741,-15.87385 -1.2e-4,-6.31866 -2.17758,-11.65422 -6.53239,-16.00668 -4.35503,-4.35217 -9.09283,-6.52832 -14.2134,-6.52848 z"
         style="font-variant:normal;font-stretch:normal;fill:#ffffff;font-family:CodiceBianco;-inkscape-font-specification:CodiceBianco"
         id="path8068" />
      <path
         d="m 940.99227,-503.59353 -41.99166,0 -87.05418,-124.69353 0,124.69353 -35.84998,0 0,-180.00001 41.99167,0 87.06199,125.45929 0,-125.45929 35.84216,0 z"
         style="font-variant:normal;font-stretch:normal;fill:#ffffff;font-family:CodiceBianco;-inkscape-font-specification:CodiceBianco"
         id="path8070" />
      <path
         d="m 1017.7713,-683.59354 0,180.00001 -37.12367,0 0,-180.00001 z"
         style="font-variant:normal;font-stretch:normal;fill:#ffffff;font-family:CodiceBianco;-inkscape-font-specification:CodiceBianco"
         id="path8072" />
    </g>
    <rect
       style="fill:#784421;fill-opacity:1"
       id="rect3813"
       width="1016.2134"
       height="340"
       x="1366.8936"
       y="-247.8468" />
    <g
       style="font-size:170.69630432px;font-style:normal;font-weight:normal;line-height:125%;letter-spacing:0px;word-spacing:0px;fill:#ffffff;fill-opacity:1;stroke:none;font-family:Sans"
       id="text3788">
      <path
         d="m 1569.5852,-138.58676 0,22.01945 -37.3815,0 0,98.152458 -24.921,0 0,-98.319158 -37.3815,0 0,-21.85275 z"
         style="font-variant:normal;font-stretch:normal;fill:#ffffff;font-family:CodiceBianco;-inkscape-font-specification:CodiceBianco"
         id="path7995" />
      <path
         d="m 1579.7693,-65.183389 c -10e-5,-13.089012 3.926,-23.843473 11.778,-32.263415 7.8521,-8.419766 18.0379,-12.629696 30.5574,-12.629796 11.7208,1e-4 21.6773,3.98169 29.8698,11.944782 8.5361,8.536282 12.5767,19.177008 12.1219,31.922209 -10e-5,1.59408 -0.1147,4.723092 -0.3438,9.387046 l -60.4272,0 c 2.8477,10.81094 9.1648,16.216387 18.9512,16.216358 6.1434,2.9e-5 11.3196,-0.967152 15.5288,-2.901546 1.4793,-0.569511 4.2107,-2.276403 8.1941,-5.12068 l 16.0497,16.216357 c -12.0647,9.216889 -25.3222,13.825324 -39.7726,13.825317 -9.4461,7e-6 -18.0952,-2.958837 -25.9472,-8.876541 -11.0401,-8.306974 -16.5602,-20.880325 -16.5601,-37.720091 z m 24.7543,-9.048446 35.1623,0 c -0.455,-4.66741 -2.3894,-8.480568 -5.8031,-11.439486 -3.4138,-2.958771 -7.2825,-4.438193 -11.6062,-4.438271 -5.3516,7.8e-5 -9.7343,1.821573 -13.1481,5.46449 -3.07,3.188124 -4.605,6.659209 -4.6049,10.413267 z"
         style="font-variant:normal;font-stretch:normal;fill:#ffffff;font-family:CodiceBianco;-inkscape-font-specification:CodiceBianco"
         id="path7997" />
      <path
         d="m 1730.6288,-107.34696 0,24.749089 c -1.7052,-0.225663 -3.4121,-0.338529 -5.1207,-0.338601 -6.713,7.2e-5 -12.2313,1.535059 -16.555,4.604967 -4.7821,3.30272 -7.1731,7.798287 -7.1731,13.486716 l 0,46.258032 -23.8948,0 0,-86.712973 23.8948,0 0,7.511721 c 7.1714,-6.487141 15.6503,-9.730761 25.4367,-9.730851 1.3648,9e-5 2.5021,0.0574 3.4121,0.1719 z"
         style="font-variant:normal;font-stretch:normal;fill:#ffffff;font-family:CodiceBianco;-inkscape-font-specification:CodiceBianco"
         id="path7999" />
      <path
         d="m 1872.9348,-80.378736 0,61.791979 -24.5824,0 0,-54.108353 c -10e-5,-4.323602 -1.3372,-7.680953 -4.0111,-10.072061 -2.6742,-2.390967 -5.8883,-3.586486 -9.6423,-3.586561 -3.7577,7.5e-5 -6.9441,1.13916 -9.559,3.41726 -2.9589,2.615106 -4.4384,6.086192 -4.4383,10.413267 l 0,53.936448 -24.2385,0 0,-53.769753 c -10e-5,-4.208999 -1.4222,-7.565481 -4.2664,-10.069456 -2.504,-2.163498 -5.5774,-3.245282 -9.2204,-3.245355 -3.6395,7.3e-5 -6.7112,1.081857 -9.2151,3.245355 -2.8478,2.389372 -4.2716,5.575686 -4.2716,9.558951 l 0,54.280258 -23.5562,0 0,-86.369163 21.8528,0 2.5577,4.94878 c 1.3648,-2.04888 3.8401,-3.84172 7.4258,-5.37854 3.5856,-1.53663 7.5403,-2.30499 11.864,-2.30509 8.8765,1e-4 16.8987,3.47118 24.0667,10.413267 7.2859,-7.397027 15.9923,-11.095577 26.1191,-11.095677 8.7619,1e-4 16.4715,2.70282 23.1291,8.10818 6.6572,5.405534 9.9859,12.034283 9.9861,19.886264 z"
         style="font-variant:normal;font-stretch:normal;fill:#ffffff;font-family:CodiceBianco;-inkscape-font-specification:CodiceBianco"
         id="path8001" />
      <path
         d="m 1904.5757,-139.77967 c 3.7575,1.2e-4 7.1149,1.36581 10.072,4.09706 2.9571,2.7315 4.4357,6.20172 4.4357,10.41066 0,3.5285 -1.4222,6.65838 -4.2664,9.38965 -2.8442,2.73148 -6.1434,4.09717 -9.8975,4.09707 -3.7576,1e-4 -7.0872,-1.30829 -9.9887,-3.92516 -2.9016,-2.61667 -4.3524,-5.91672 -4.3523,-9.90016 -10e-5,-4.09781 1.3943,-7.48381 4.183,-10.15801 2.7886,-2.67395 6.06,-4.01099 9.8142,-4.01111 z m -11.7781,34.65185 24.5824,0 0,86.541063 -24.5824,0 z"
         style="font-variant:normal;font-stretch:normal;fill:#ffffff;font-family:CodiceBianco;-inkscape-font-specification:CodiceBianco"
         id="path8003" />
      <path
         d="m 2018.8455,-73.893235 0,55.478383 -24.921,0 0,-50.185797 c -0.455,-4.663943 -2.3043,-8.332979 -5.5478,-11.00712 -3.2437,-2.674005 -6.9128,-4.011041 -11.0072,-4.011113 -4.0979,7.2e-5 -7.5117,1.252024 -10.2413,3.755861 -3.0735,2.729706 -4.6102,6.483826 -4.6102,11.262372 l 0,50.013892 -24.5824,0 0,-86.202463 21.337,0 2.563,4.78208 c 6.258,-4.89312 13.8253,-7.33972 22.7018,-7.33982 9.3315,10e-5 17.1835,2.73147 23.5562,8.194131 7.1678,6.143509 10.7518,14.563365 10.7519,25.259594 z"
         style="font-variant:normal;font-stretch:normal;fill:#ffffff;font-family:CodiceBianco;-inkscape-font-specification:CodiceBianco"
         id="path8005" />
      <path
         d="m 2052.268,-139.77967 c 3.7576,1.2e-4 7.1149,1.36581 10.0721,4.09706 2.957,2.7315 4.4356,6.20172 4.4356,10.41066 0,3.5285 -1.4221,6.65838 -4.2663,9.38965 -2.8443,2.73148 -6.1435,4.09717 -9.8976,4.09707 -3.7576,1e-4 -7.0872,-1.30829 -9.9887,-3.92516 -2.9016,-2.61667 -4.3523,-5.91672 -4.3523,-9.90016 0,-4.09781 1.3943,-7.48381 4.183,-10.15801 2.7887,-2.67395 6.0601,-4.01099 9.8142,-4.01111 z m -11.7781,34.65185 24.5824,0 0,86.541063 -24.5824,0 z"
         style="font-variant:normal;font-stretch:normal;fill:#ffffff;font-family:CodiceBianco;-inkscape-font-specification:CodiceBianco"
         id="path8007" />
      <path
         d="m 2109.356,-137.90435 0,88.937318 c 0,6.713002 2.674,10.069484 8.0222,10.069457 1.9344,2.7e-5 4.3237,-0.397611 7.1679,-1.192916 l 2.0525,21.503734 c -5.1225,1.139092 -10.6425,1.708635 -16.5602,1.70863 -9.1023,5e-6 -15.7597,-2.958839 -19.9722,-8.876541 -3.1846,-4.552856 -4.7769,-10.470544 -4.7769,-17.753083 l 0,-94.396599 z"
         style="font-variant:normal;font-stretch:normal;fill:#ffffff;font-family:CodiceBianco;-inkscape-font-specification:CodiceBianco"
         id="path8009" />
      <path
         d="m 2165.6991,-137.90435 0,88.937318 c 0,6.713002 2.6741,10.069484 8.0223,10.069457 1.9343,2.7e-5 4.3236,-0.397611 7.1679,-1.192916 l 2.0524,21.503734 c -5.1224,1.139092 -10.6425,1.708635 -16.5601,1.70863 -9.1023,5e-6 -15.7597,-2.958839 -19.9723,-8.876541 -3.1846,-4.552856 -4.7768,-10.470544 -4.7768,-17.753083 l 0,-94.396599 z"
         style="font-variant:normal;font-stretch:normal;fill:#ffffff;font-family:CodiceBianco;-inkscape-font-specification:CodiceBianco"
         id="path8011" />
      <path
         d="m 2237.7481,-108.20127 c 12.6306,9e-5 22.9857,4.32462 31.0653,12.973602 8.0794,8.649146 12.1192,19.176137 12.1193,31.581004 -10e-5,13.655187 -3.8689,24.863719 -11.6062,33.62563 -7.9668,9.102284 -18.4929,13.653417 -31.5784,13.653412 -12.405,5e-6 -22.6481,-4.15349 -30.7293,-12.460497 -8.6474,-8.761912 -12.971,-20.368082 -12.971,-34.818545 0,-12.859807 3.9833,-23.500533 11.95,-31.922209 7.9666,-8.421507 18.55,-12.632307 31.7503,-12.632397 z m -20.6547,44.721302 c -0.1146,17.753116 6.7703,26.629648 20.6547,26.629623 13.3147,2.5e-5 19.9721,-8.876507 19.9722,-26.629623 -10e-5,-8.647275 -2.9034,-15.132769 -8.7099,-19.456504 -3.7541,-2.733039 -7.5083,-4.099594 -11.2623,-4.09967 -4.3237,7.6e-5 -8.2498,1.194726 -11.7781,3.583956 -5.8031,3.983398 -8.762,10.640797 -8.8766,19.972218 z"
         style="font-variant:normal;font-stretch:normal;fill:#ffffff;font-family:CodiceBianco;-inkscape-font-specification:CodiceBianco"
         id="path8013" />
    </g>
    <g
       style="font-size:114.11954498px;font-style:normal;font-weight:normal;line-height:125%;letter-spacing:0px;word-spacing:0px;fill:#000000;fill-opacity:1;stroke:none;font-family:Sans"
       id="text3772-1">
      <path
         d="M 200.31083,-129.16867 180,-187.14089 l 19.96953,0 10.72657,32.98071 10.27034,-32.98071 18.25954,0 -17.91476,57.97222 z"
         style="font-variant:normal;font-stretch:normal;fill:#000000;font-family:CodiceNero;-inkscape-font-specification:CodiceNero"
         id="path8053" />
      <path
         d="m 248.64655,-187.14089 18.37448,0 0,58.08715 -18.37448,0 z m -0.3413,-18.03318 c 1.90152,-3.80297 5.02082,-5.70449 9.35789,-5.70458 1.67398,9e-5 3.23304,0.34255 4.6772,1.02738 3.87965,1.90161 5.81949,5.05922 5.81951,9.47282 -2e-5,1.59745 -0.34248,3.1182 -1.02738,4.56227 -1.90155,3.80545 -5.05799,5.70813 -9.46933,5.70807 -1.67401,6e-5 -3.23424,-0.3424 -4.68068,-1.02738 -3.80307,-1.90146 -5.70459,-5.02076 -5.70459,-9.35789 0,-1.67392 0.34246,-3.23415 1.02738,-4.68069 z"
         style="font-variant:normal;font-stretch:normal;fill:#000000;font-family:CodiceNero;-inkscape-font-specification:CodiceNero"
         id="path8055" />
      <path
         d="m 321.94942,-184.40353 c 1.29317,0.45745 2.81509,1.52314 4.56576,3.19708 2.89054,2.81403 4.33584,6.00878 4.3359,9.58425 l 0,26.59005 c -6e-5,1.36987 0.87525,2.24517 2.62592,2.62592 0.15317,0.0743 1.37094,0.18808 3.6533,0.3413 -0.68499,1.97817 -2.66313,6.65652 -5.93444,14.03509 -5.93449,0 -10.91816,-1.67283 -14.95103,-5.0185 -5.32617,3.49891 -10.6523,5.24836 -15.9784,5.24836 -5.55369,0 -10.44159,-1.78776 -14.66371,-5.36329 -4.22214,-3.57551 -6.33321,-8.02633 -6.3332,-13.35249 -10e-6,-8.82501 5.43989,-14.91151 16.3197,-18.25954 4.03289,-0.60826 9.5111,-1.55903 16.43464,-2.85229 -4e-5,-3.34795 -2.13026,-5.02194 -6.39067,-5.02199 -4.26047,5e-5 -8.33169,1.10289 -12.21366,3.30852 -0.22755,0.15328 -1.82493,1.37105 -4.79213,3.6533 l -8.6718,-13.12263 c 0.15091,-0.38071 1.29205,-1.21771 3.42345,-2.51099 2.58643,-1.67394 5.47703,-3.19586 8.6718,-4.56576 3.80536,-1.67393 8.29449,-2.51093 13.46742,-2.51099 5.9344,6e-5 11.41144,1.3316 16.43115,3.9946 z m -24.42036,37.09025 c 0.0766,1.21662 0.87528,2.24285 2.39607,3.07866 1.29319,0.76156 2.62473,1.14233 3.9946,1.14231 2.13135,2e-5 3.95742,-0.47536 5.47821,-1.42614 1.52072,-0.95075 2.47148,-2.03443 2.85229,-3.25106 l 0,-5.82299 c -3.19479,0.61065 -6.38954,1.22011 -9.58426,1.82839 -3.50125,0.75924 -5.21355,2.24285 -5.13691,4.45083 z"
         style="font-variant:normal;font-stretch:normal;fill:#000000;font-family:CodiceNero;-inkscape-font-specification:CodiceNero"
         id="path8057" />
      <path
         d="m 365.53132,-209.96619 0,58.77323 c -2e-5,2.50986 0.19036,4.10723 0.57116,4.79213 0.0766,0.22756 0.57113,0.53171 1.48361,0.91246 0.45736,0.22755 1.06566,0.34132 1.82491,0.3413 1.59734,2e-5 3.69041,-0.49452 6.27922,-1.48361 1.29319,11.41382 1.86318,17.12072 1.70998,17.12071 -3.19479,0.45508 -7.87314,0.9113 -14.03509,1.36869 -4.4137,0 -8.59868,-1.78776 -12.55496,-5.36329 -2.20569,-1.97813 -3.53722,-5.85896 -3.9946,-11.6425 l 0,-64.81912 z"
         style="font-variant:normal;font-stretch:normal;fill:#000000;font-family:CodiceNero;-inkscape-font-specification:CodiceNero"
         id="path8059" />
      <path
         d="m 413.64069,-188.39813 c 7.30424,6e-5 13.65659,2.58651 19.05707,7.75935 6.08762,5.78357 9.13145,13.392 9.13152,22.8253 -7e-5,1.21664 -0.19045,3.15647 -0.57116,5.81951 l -38.11763,0 c 1.75059,5.40278 5.63142,8.02753 11.64251,7.87428 4.71547,-0.1509 9.35552,-1.97697 13.92016,-5.47821 l 12.21366,11.9838 c -9.43572,6.54275 -18.2236,9.81412 -26.36368,9.81412 -7.68275,0 -14.37756,-2.39606 -20.08445,-7.1882 -6.2386,-5.32612 -9.47166,-12.36339 -9.69919,-21.11183 0,-1.14228 0,-2.89289 0,-5.25184 0.0743,-5.78116 2.24166,-11.37314 6.50211,-16.77594 5.47936,-6.84683 12.93571,-10.27028 22.36908,-10.27034 z m -10.27034,22.59545 19.96952,0 c -0.4551,-2.12902 -1.59567,-3.93536 -3.4217,-5.41901 -1.82611,-1.48356 -3.99522,-2.26368 -6.50734,-2.34034 -2.58648,-0.0766 -4.83046,0.76042 -6.73196,2.51099 -1.5974,1.44651 -2.70024,3.19596 -3.30852,5.24836 z"
         style="font-variant:normal;font-stretch:normal;fill:#000000;font-family:CodiceNero;-inkscape-font-specification:CodiceNero"
         id="path8061" />
    </g>
    <path
       inkscape:connector-curvature="0"
       d="m 3227.8368,641.49894 -0.3348,92.17642 c 0.3348,2.3927 1.366,4.1044 2.7377,5.3015 1.3661,0.8555 4.6162,1.0267 6.4979,0.1659 l 205.901,-173.57833 -252.0737,-93.20226 c -2.0561,0.16589 -5.1311,1.19772 -6.1607,2.90707 -1.0234,1.53993 -1.5344,3.59175 -1.366,6.4988 l 30.9538,86.70345 c -83.2818,10.43201 -142.9651,47.19964 -146.8976,153.74097 v 150.14972 h 73.8771 V 722.55456 c 1.5399,-55.23741 30.2693,-76.95574 86.8723,-81.06062 z"
       style="fill:#000000;fill-opacity:1;fill-rule:evenodd;stroke-width:0.15289199"
       id="path7277" />
    <path
       inkscape:connector-curvature="0"
       d="m 1911.0574,872.04448 -72.4165,0.3177 V 624.30252 l -85.4394,14.9278 c -2.2246,-0.31756 -4.4468,-0.95206 -5.7171,-2.22447 -1.5871,-1.26956 -1.9046,-4.44651 -1.9046,-6.66992 l 129.2701,-221.69737 129.5886,222.01501 c 0,2.22456 -0.6352,5.39956 -1.2695,6.35228 -1.5871,1.26948 -3.1765,1.90715 -5.3996,1.58688 l -86.7096,-15.56319 z"
       style="fill:#000000;fill-opacity:1;fill-rule:evenodd;stroke-width:0.15289199"
       id="path7285" />
    <path
       id="path7723"
       style="fill:#000000;fill-opacity:1;fill-rule:evenodd;stroke-width:0.15289199"
       d="m 521.89629,641.49894 0.3348,92.17642 c -0.3348,2.3927 -1.366,4.1044 -2.7377,5.3015 -1.3661,0.8555 -4.6162,1.0267 -6.4979,0.1659 l -205.901,-173.57833 252.0737,-93.20226 c 2.0561,0.16589 5.1311,1.19772 6.1607,2.90707 1.0234,1.53993 1.5344,3.59175 1.366,6.4988 l -30.9538,86.70345 c 83.2818,10.43201 142.9651,47.19964 146.8976,153.74097 v 150.14972 h -73.8771 V 722.55456 c -1.5399,-55.23741 -30.2693,-76.95574 -86.8723,-81.06062 z"
       inkscape:connector-curvature="0" />
    <rect
       style="fill:#000000;fill-opacity:1"
       id="rect7725"
       width="95"
       height="190"
       x="1210.3096"
       y="725.20178" />
    <rect
       y="341.36383"
       x="1210.3096"
       height="190"
       width="95"
       id="rect7727"
       style="fill:#000000;fill-opacity:1" />
    <rect
       y="-42.815186"
       x="1210.3096"
       height="190"
       width="95"
       id="rect7733"
       style="fill:#000000;fill-opacity:1" />
    <rect
       style="fill:#000000;fill-opacity:1"
       id="rect7735"
       width="95"
       height="190"
       x="1210.3096"
       y="-426.6532" />
    <rect
       y="-810.63806"
       x="1210.3096"
       height="190"
       width="95"
       id="rect7739"
       style="fill:#000000;fill-opacity:1" />
    <rect
       y="725.20178"
       x="2444.5955"
       height="190"
       width="95"
       id="rect7741"
       style="fill:#000000;fill-opacity:1" />
    <rect
       style="fill:#000000;fill-opacity:1"
       id="rect7743"
       width="95"
       height="190"
       x="2444.5955"
       y="341.36383" />
    <rect
       style="fill:#000000;fill-opacity:1"
       id="rect7745"
       width="95"
       height="190"
       x="2444.5955"
       y="-42.815186" />
    <rect
       y="-426.6532"
       x="2444.5955"
       height="190"
       width="95"
       id="rect7747"
       style="fill:#000000;fill-opacity:1" />
    <rect
       style="fill:#000000;fill-opacity:1"
       id="rect7749"
       width="95"
       height="190"
       x="2444.5955"
       y="-810.63806" />
    <rect
       rx="15.390914"
       style="fill:none;stroke:#ffffff;stroke-width:10;stroke-miterlimit:4;stroke-opacity:1;stroke-dasharray:none"
       id="rect3902"
       width="260"
       height="140"
       x="1434.8643"
       y="-663.62"
       ry="15.390914" />
    <g
       style="font-size:132.85359192px;font-style:normal;font-weight:normal;line-height:125%;letter-spacing:0px;word-spacing:0px;fill:#ffffff;fill-opacity:1;stroke:none;font-family:Sans"
       id="text3788-4">
      <path
         d="m 1480.3111,-641.18388 c 11.4252,0.26498 19.6623,6.11002 24.7114,17.53515 l -13.6835,8.6358 c -3.2787,-6.2896 -7.0871,-9.43443 -11.4252,-9.43452 -1.9489,9e-5 -3.6098,0.68663 -4.9829,2.05962 -1.3731,1.37316 -2.1488,3.16655 -2.3272,5.38015 -0.1757,1.77319 0.5338,3.58954 2.1286,5.44908 0.5297,0.61903 2.0798,2.03671 4.6503,4.25303 6.7303,5.22479 14.3471,11.69015 22.8505,19.39611 3.365,4.25172 5.0476,9.4332 5.0477,15.54445 -10e-5,6.99516 -2.1259,13.01725 -6.3776,18.06627 -4.7842,5.57882 -11.1171,8.50202 -18.9987,8.7696 -11.6902,0.35409 -20.1489,-6.20047 -25.3763,-19.66369 l 14.2186,-8.10469 c 3.0111,7.35195 6.5978,11.02791 10.7603,11.02789 1.2406,2e-5 2.4799,-0.30946 3.7179,-0.92845 3.1894,-1.5947 4.7841,-4.29625 4.7841,-8.10469 0,-2.74612 -0.9744,-5.049 -2.9232,-6.90864 -4.9598,-4.16245 -9.9197,-8.32493 -14.8795,-12.48746 -7.3519,-6.11123 -11.7807,-10.53995 -13.2862,-13.28617 -2.3029,-3.98673 -3.4543,-8.14921 -3.4543,-12.48746 0,-6.73287 2.5245,-12.57927 7.5736,-17.5392 5.049,-4.95975 10.8062,-7.35048 17.2716,-7.17218 z"
         style="font-variant:normal;font-stretch:normal;word-spacing:-10px;fill:#ffffff;font-family:CodiceBiancoCondensed;-inkscape-font-specification:CodiceBiancoCondensed"
         id="path8031" />
      <path
         d="m 1540.5104,-641.18388 c 11.4251,0.26498 19.6623,6.11002 24.7114,17.53515 l -13.6835,8.6358 c -3.2787,-6.2896 -7.0871,-9.43443 -11.4253,-9.43452 -1.9488,9e-5 -3.6097,0.68663 -4.9828,2.05962 -1.3731,1.37316 -2.1488,3.16655 -2.3272,5.38015 -0.1757,1.77319 0.5338,3.58954 2.1286,5.44908 0.5297,0.61903 2.0798,2.03671 4.6503,4.25303 6.7302,5.22479 14.347,11.69015 22.8504,19.39611 3.3651,4.25172 5.0477,9.4332 5.0477,15.54445 0,6.99516 -2.1259,13.01725 -6.3775,18.06627 -4.7842,5.57882 -11.1171,8.50202 -18.9988,8.7696 -11.6901,0.35409 -20.1488,-6.20047 -25.3763,-19.66369 l 14.2187,-8.10469 c 3.011,7.35195 6.5978,11.02791 10.7603,11.02789 1.2406,2e-5 2.4799,-0.30946 3.7179,-0.92845 3.1894,-1.5947 4.7841,-4.29625 4.7841,-8.10469 0,-2.74612 -0.9744,-5.049 -2.9232,-6.90864 -4.9599,-4.16245 -9.9197,-8.32493 -14.8795,-12.48746 -7.352,-6.11123 -11.7807,-10.53995 -13.2862,-13.28617 -2.3029,-3.98673 -3.4543,-8.14921 -3.4543,-12.48746 0,-6.73287 2.5245,-12.57927 7.5736,-17.5392 5.049,-4.95975 10.8062,-7.35048 17.2716,-7.17218 z"
         style="font-variant:normal;font-stretch:normal;word-spacing:-10px;fill:#ffffff;font-family:CodiceBiancoCondensed;-inkscape-font-specification:CodiceBiancoCondensed"
         id="path8033" />
      <path
         d="m 1667.6778,-639.72431 0,60.04927 6.7749,0 0,16.6067 -6.7749,0 0,16.20937 -17.8027,0 0,-16.20937 -30.6876,0 0,-10.7603 27.2333,-65.89567 z m -18.0703,29.62528 -13.1524,30.82537 13.1524,0 z"
         style="font-variant:normal;font-stretch:normal;word-spacing:-10px;fill:#ffffff;font-family:CodiceBiancoCondensed;-inkscape-font-specification:CodiceBiancoCondensed"
         id="path8035" />
    </g>
    <path
       id="path5761"
       d="m 3519.4415,-569.66556 c 0,39.9277 -32.3684,72.2985 -72.2984,72.2985 -39.9293,0 -72.2993,-32.3708 -72.2993,-72.2985 0,-39.9293 32.37,-72.2992 72.2993,-72.2992 39.93,0 72.2984,32.3699 72.2984,72.2992 z"
       style="font-size:16.94802094px;font-style:normal;font-weight:normal;line-height:125%;letter-spacing:0px;word-spacing:0px;fill:none;stroke:#000000;stroke-width:5.40227365;stroke-linecap:butt;stroke-linejoin:miter;stroke-miterlimit:4;stroke-opacity:1;stroke-dashoffset:0;font-family:Sans"
       inkscape:connector-curvature="0" />
    <path
       id="path5763"
       d="m 3506.0983,-569.67086 c 0,32.3753 -26.394,58.6208 -58.9552,58.6208 -32.5598,0 -58.9545,-26.2455 -58.9545,-58.6208 0,-32.3782 26.3947,-58.6252 58.9545,-58.6252 32.5612,0 58.9552,26.247 58.9552,58.6252 z"
       style="font-size:16.94802094px;font-style:normal;font-weight:normal;line-height:125%;letter-spacing:0px;word-spacing:0px;fill:none;stroke:#000000;stroke-width:5.40227365;stroke-linecap:butt;stroke-linejoin:miter;stroke-miterlimit:4;stroke-opacity:1;stroke-dashoffset:0;font-family:Sans"
       inkscape:connector-curvature="0" />
    <path
       id="path5765"
       d="m 3492.5533,-569.84486 c 0,24.8385 -20.2522,44.976 -45.234,44.976 -24.9825,0 -45.2347,-20.1375 -45.2347,-44.976 0,-24.8437 20.2522,-44.982 45.2347,-44.982 24.9818,0 45.234,20.1383 45.234,44.982 z"
       style="font-size:16.94802094px;font-style:normal;font-weight:normal;line-height:125%;letter-spacing:0px;word-spacing:0px;fill:none;stroke:#000000;stroke-width:5.40227365;stroke-linecap:butt;stroke-linejoin:miter;stroke-miterlimit:4;stroke-opacity:1;stroke-dashoffset:0;font-family:Sans"
       inkscape:connector-curvature="0" />
    <path
       id="path5767"
       d="m 3472.8613,-571.29906 c 0,14.0265 -11.4367,25.3957 -25.542,25.3957 -14.106,0 -25.5405,-11.3692 -25.5405,-25.3957 0,-14.0258 11.4345,-25.3965 25.5405,-25.3965 14.1053,0 25.542,11.3707 25.542,25.3965 z"
       style="font-size:16.94802094px;font-style:normal;font-weight:normal;line-height:125%;letter-spacing:0px;word-spacing:0px;fill:#000000;fill-opacity:1;stroke:none;font-family:Sans"
       inkscape:connector-curvature="0" />
    <rect
       style="fill:none;stroke:#000000;stroke-width:56.25;stroke-miterlimit:4;stroke-opacity:1;stroke-dasharray:none"
       id="rect7909"
       width="3637.5"
       height="1887.5"
       x="56.249992"
       y="-891.38776"
       rx="196.57568"
       ry="196.57568" />
  </g>
</svg>
