<?xml version="1.0" encoding="UTF-8" standalone="no"?>
<!-- Created with Inkscape (http://www.inkscape.org/) -->

<svg
   xmlns:dc="http://purl.org/dc/elements/1.1/"
   xmlns:cc="http://creativecommons.org/ns#"
   xmlns:rdf="http://www.w3.org/1999/02/22-rdf-syntax-ns#"
   xmlns:svg="http://www.w3.org/2000/svg"
   xmlns="http://www.w3.org/2000/svg"
   xmlns:sodipodi="http://sodipodi.sourceforge.net/DTD/sodipodi-0.dtd"
   xmlns:inkscape="http://www.inkscape.org/namespaces/inkscape"
   width="1678.5625"
   height="1828.5938"
   id="svg7780"
   version="1.1"
   inkscape:version="0.48.5 r10040"
   sodipodi:docname="CANC trans1.svg">
  <defs
     id="defs7782" />
  <sodipodi:namedview
     id="base"
     pagecolor="#ffffff"
     bordercolor="#666666"
     borderopacity="1.0"
     inkscape:pageopacity="0.0"
     inkscape:pageshadow="2"
     inkscape:zoom="0.35"
     inkscape:cx="850.00252"
     inkscape:cy="1539.5731"
     inkscape:document-units="px"
     inkscape:current-layer="layer1"
     showgrid="false"
     inkscape:object-nodes="true"
     inkscape:snap-midpoints="true"
     inkscape:snap-object-midpoints="true"
     fit-margin-top="0"
     fit-margin-left="0"
     fit-margin-right="0"
     fit-margin-bottom="0"
     inkscape:window-width="1366"
     inkscape:window-height="705"
     inkscape:window-x="-8"
     inkscape:window-y="-8"
     inkscape:window-maximized="1" />
  <metadata
     id="metadata7785">
    <rdf:RDF>
      <cc:Work
         rdf:about="">
        <dc:format>image/svg+xml</dc:format>
        <dc:type
           rdf:resource="http://purl.org/dc/dcmitype/StillImage" />
        <dc:title></dc:title>
      </cc:Work>
    </rdf:RDF>
  </metadata>
  <g
     inkscape:label="Livello 1"
     inkscape:groupmode="layer"
     id="layer1"
     transform="translate(1948.5625,1261.9375)">
    <rect
       style="fill:#ffffff;fill-opacity:1;fill-rule:evenodd;stroke:#000000;stroke-width:1;stroke-opacity:1"
       id="rect2996"
       width="1677.5714"
       height="1827.5714"
       x="-1948.0714"
       y="-1261.4235" />
    <rect
       style="fill:#ffffff;fill-opacity:1;stroke:#000000;stroke-width:5;stroke-miterlimit:4;stroke-opacity:1;stroke-dasharray:none"
       id="rect5120-8"
       width="1320"
       height="380"
       x="-1769.2856"
       y="-537.63776" />
    <rect
       style="fill:#ffffff;fill-opacity:1;stroke:#000000;stroke-width:5;stroke-miterlimit:4;stroke-opacity:1;stroke-dasharray:none"
       id="rect7720"
       width="1320"
       height="380"
       x="-1769.2856"
       y="22.36224" />
    <g
       style="font-size:40px;font-style:normal;font-weight:normal;line-height:125%;letter-spacing:0px;word-spacing:0px;fill:#000000;fill-opacity:1;stroke:none;font-family:Sans"
       id="text8371">
      <path
         d="m -1852.8086,-796.67297 c -2.6042,2.21354 -5.1107,3.77604 -7.5195,4.6875 -2.4089,0.91145 -4.9935,1.36718 -7.7539,1.36718 -4.5573,0 -8.0599,-1.11328 -10.5078,-3.33984 -2.448,-2.22656 -3.6719,-5.07161 -3.6719,-8.53516 0,-2.03123 0.4622,-3.8867 1.3867,-5.5664 0.9245,-1.67967 2.1354,-3.02733 3.6328,-4.04297 1.4974,-1.0156 3.1836,-1.78383 5.0586,-2.30469 1.3802,-0.36456 3.4635,-0.71612 6.25,-1.05469 5.6771,-0.67705 9.8567,-1.48435 12.5391,-2.42187 0.026,-0.96352 0.039,-1.57549 0.039,-1.83594 0,-2.86455 -0.6641,-4.88278 -1.9922,-6.05469 -1.7969,-1.5885 -4.4661,-2.38277 -8.0078,-2.38281 -3.3073,4e-5 -5.7487,0.57946 -7.3242,1.73828 -1.5755,1.15889 -2.7409,3.20967 -3.4961,6.15235 l -6.875,-0.9375 c 0.625,-2.94268 1.6537,-5.31898 3.086,-7.12891 1.4322,-1.80986 3.5025,-3.20308 6.2109,-4.17969 2.7083,-0.97652 5.8463,-1.4648 9.4141,-1.46484 3.5416,4e-5 6.4192,0.41671 8.6328,1.25 2.2135,0.83337 3.8411,1.88155 4.8828,3.14453 1.0416,1.26306 1.7708,2.85811 2.1875,4.78516 0.2343,1.19795 0.3515,3.3594 0.3515,6.48437 l 0,9.375 c 0,6.53647 0.1497,10.67058 0.4493,12.40235 0.2994,1.73177 0.8918,3.39192 1.7773,4.98046 l -7.3437,0 c -0.7292,-1.45833 -1.198,-3.16406 -1.4063,-5.11718 z m -0.5859,-15.70313 c -2.5521,1.04169 -6.3803,1.9271 -11.4844,2.65625 -2.8906,0.41669 -4.9349,0.88544 -6.1328,1.40625 -1.1979,0.52085 -2.1224,1.28257 -2.7735,2.28516 -0.651,1.00262 -0.9765,2.1159 -0.9765,3.33984 0,1.87501 0.7096,3.43751 2.1289,4.6875 1.4192,1.25001 3.4961,1.87501 6.2305,1.875 2.7083,10e-6 5.1171,-0.59244 7.2265,-1.77734 2.1094,-1.18489 3.6588,-2.80598 4.6485,-4.86328 0.7551,-1.58853 1.1327,-3.93228 1.1328,-7.03125 z"
         style="font-size:80px"
         id="path8464" />
    </g>
    <g
       style="font-size:40px;font-style:normal;font-weight:normal;line-height:125%;letter-spacing:0px;word-spacing:0px;fill:#000000;fill-opacity:1;stroke:none;font-family:Sans"
       id="text8377">
      <path
         d="m -1873.3945,-231.55577 -6.5235,0 0,-57.26563 7.0313,0 0,20.42969 c 2.9687,-3.72392 6.7578,-5.58589 11.3672,-5.58594 2.552,5e-5 4.9674,0.51437 7.2461,1.54297 2.2786,1.02869 4.1536,2.474 5.625,4.33594 1.4713,1.86201 2.6236,4.10811 3.457,6.73828 0.8333,2.63024 1.25,5.44273 1.25,8.4375 0,7.10939 -1.7579,12.60418 -5.2734,16.48438 -3.5157,3.88021 -7.7344,5.82031 -12.6563,5.82031 -4.8958,0 -8.737,-2.04427 -11.5234,-6.13281 z m -0.078,-21.05469 c 0,4.97398 0.6771,8.56772 2.0313,10.78125 2.2135,3.6198 5.2083,5.42969 8.9844,5.42969 3.0729,0 5.7291,-1.33463 7.9687,-4.00391 2.2396,-2.66926 3.3594,-6.64712 3.3594,-11.93359 0,-5.41664 -1.0743,-9.41403 -3.2227,-11.99219 -2.1484,-2.57809 -4.7461,-3.86715 -7.7929,-3.86719 -3.073,4e-5 -5.7292,1.33467 -7.9688,4.00391 -2.2396,2.6693 -3.3594,6.52997 -3.3594,11.58203 z"
         style="font-size:80px"
         id="path8461" />
    </g>
    <g
       style="font-size:40px;font-style:normal;font-weight:normal;line-height:125%;letter-spacing:0px;word-spacing:0px;fill:#000000;fill-opacity:1;stroke:none;font-family:Sans"
       id="text8377-8">
      <path
         d="m -1852.8086,313.2489 6.9141,0.89844 c -0.7553,4.76563 -2.6889,8.4961 -5.8008,11.19141 -3.112,2.69531 -6.9336,4.04296 -11.4649,4.04296 -5.6771,0 -10.2409,-1.85546 -13.6914,-5.5664 -3.4505,-3.71093 -5.1757,-9.02994 -5.1757,-15.95703 0,-4.47915 0.7421,-8.39841 2.2265,-11.75782 1.4844,-3.35934 3.7435,-5.87886 6.7774,-7.55859 3.0338,-1.67965 6.3346,-2.51949 9.9023,-2.51953 4.5052,4e-5 8.1901,1.13936 11.0547,3.41797 2.8645,2.27868 4.7005,5.51435 5.5078,9.70703 l -6.8359,1.05469 c -0.6511,-2.78643 -1.8034,-4.88278 -3.4571,-6.28907 -1.6536,-1.40621 -3.6523,-2.10933 -5.9961,-2.10937 -3.5416,4e-5 -6.4192,1.26957 -8.6328,3.80859 -2.2135,2.5391 -3.3203,6.55602 -3.3203,12.05078 0,5.57294 1.0677,9.62241 3.2031,12.14844 2.1354,2.52605 4.9219,3.78907 8.3594,3.78906 2.7604,10e-6 5.0651,-0.84634 6.9141,-2.53906 1.8489,-1.6927 3.0208,-4.29686 3.5156,-7.8125 z"
         style="font-size:80px"
         id="path8458" />
    </g>
    <rect
       y="-1097.6377"
       x="-1769.2856"
       height="380"
       width="1320"
       id="rect5126-1-7-0-6"
       style="font-size:120.90988159px;font-style:normal;font-weight:normal;line-height:125%;letter-spacing:0px;word-spacing:0px;fill:#d40000;fill-opacity:1;stroke:none;font-family:Sans" />
    <g
       style="font-size:120.90988159px;font-style:normal;font-weight:normal;line-height:125%;letter-spacing:0px;word-spacing:0px;fill:#ffffff;fill-opacity:1;stroke:none;font-family:Sans"
       id="text6544-9-1">
      <path
         d="m -1695.3457,-951.54915 c -7.0133,1e-5 -13.3402,-2.3775 -18.9807,-7.13253 -7.0133,-5.8841 -10.5199,-14.06578 -10.5199,-24.54506 0,-10.72027 3.5866,-19.02246 10.7597,-24.90666 5.5619,-4.5951 11.8088,-6.8926 18.7409,-6.8927 7.7389,1e-4 14.3892,2.3776 19.9512,7.1325 4.1104,3.5473 6.9319,7.5779 8.4645,12.09176 l -14.8739,5.19904 c -2.3369,-6.69093 -6.8103,-10.0364 -13.42,-10.0365 -2.984,1e-4 -5.6849,0.92747 -8.103,2.7822 -3.7071,2.98147 -5.5607,7.81766 -5.5607,14.5086 0,7.41668 2.0959,12.53576 6.2876,15.35726 2.0958,1.53009 4.5139,2.29512 7.2543,2.29511 7.1731,1e-5 11.7682,-3.58654 13.7854,-10.75968 l 14.6303,5.3208 c -1.936,6.20639 -5.6849,11.08194 -11.2467,14.62667 -5.0773,3.30613 -10.8003,4.9592 -17.169,4.95919 z"
         style="font-variant:normal;font-stretch:normal;fill:#ffffff;font-family:CodiceBianco;-inkscape-font-specification:CodiceBianco"
         id="path8553" />
      <path
         d="m -1638.9865,-1038.8479 0,28.4157 c 3.1437,-3.3061 8.1816,-4.9591 15.1137,-4.9592 6.6885,10e-5 12.3303,1.7331 16.9255,5.199 5.4019,4.1918 8.1029,10.0771 8.1029,17.6561 l 0,39.77687 -17.4125,0 0,-34.82136 c 0,-3.62588 -1.1291,-6.48676 -3.3873,-8.58266 -2.0934,-1.85472 -4.6321,-2.78211 -7.6159,-2.78216 -3.1438,5e-5 -5.8842,1.04797 -8.221,3.14377 -2.337,2.0959 -3.5055,4.95678 -3.5054,8.58266 l 0,34.45975 -16.9292,0 0,-86.08847 z"
         style="font-variant:normal;font-stretch:normal;fill:#ffffff;font-family:CodiceBianco;-inkscape-font-specification:CodiceBianco"
         id="path8555" />
      <path
         d="m -1576.7051,-1038.6044 c 2.6616,10e-5 5.0397,0.9674 7.1344,2.9021 2.0946,1.9348 3.1419,4.3929 3.1419,7.3742 0,2.4994 -1.0074,4.7164 -3.022,6.651 -2.0147,1.9348 -4.3516,2.9022 -7.0108,2.9021 -2.6616,10e-5 -5.0201,-0.9267 -7.0753,-2.7803 -2.0553,-1.8535 -3.0829,-4.191 -3.0829,-7.0126 0,-2.9027 0.9877,-5.3011 2.963,-7.1953 1.9753,-1.8941 4.2925,-2.8411 6.9517,-2.8412 z m -8.3428,24.5451 17.4125,0 0,61.29987 -17.4125,0 z"
         style="font-variant:normal;font-stretch:normal;fill:#ffffff;font-family:CodiceBianco;-inkscape-font-specification:CodiceBianco"
         id="path8557" />
      <path
         d="m -1535.1792,-1014.1811 0,34.58151 c -10e-5,3.46605 1.2496,6.28758 3.7489,8.46458 2.177,1.93351 4.8361,2.90026 7.9775,2.90024 3.065,2e-5 5.6651,-0.96734 7.8004,-2.90209 2.1352,-1.9347 3.2028,-4.71502 3.2028,-8.34096 l 0,-34.70328 17.5343,0 0,60.9383 -15.5971,0 -1.8154,-3.50538 c -3.8695,3.5472 -9.2703,5.3208 -16.2023,5.3208 -6.5286,0 -11.9687,-1.81418 -16.3203,-5.44257 -5.0797,-4.27286 -7.6196,-10.39928 -7.6196,-18.37927 l 0,-38.93188 z"
         style="font-variant:normal;font-stretch:normal;fill:#ffffff;font-family:CodiceBianco;-inkscape-font-specification:CodiceBianco"
         id="path8559" />
      <path
         d="m -1458.6918,-1017.6865 c 10.2382,10e-5 19.6289,3.0221 28.1722,9.066 l -11.1213,11.96999 c -3.6284,-3.62589 -7.4572,-5.68109 -11.4865,-6.16579 -0.9693,-0.079 -1.8967,-0.118 -2.7822,-0.1181 -2.5805,10e-5 -4.7169,0.4429 -6.4093,1.3284 -1.6925,0.8856 -2.5387,2.01471 -2.5387,3.38729 0,1.20787 0.7663,2.05408 2.2988,2.53864 0.8044,0.32229 3.9482,1.04674 9.4314,2.17334 l 6.889,1.45381 c 4.7574,0.96679 8.5469,3.02205 11.3685,6.16578 3.1437,3.46606 4.7156,7.7377 4.7156,12.81494 0,4.51397 -1.5326,8.62572 -4.5976,12.33526 -4.5927,5.31835 -11.6858,7.97752 -21.2795,7.97751 -11.5272,10e-6 -21.7235,-3.82885 -30.5891,-11.48658 l 11.7265,-11.00321 c 6.2088,5.07975 12.7386,7.61961 19.5895,7.61959 4.5139,2e-5 6.7709,-1.53128 6.771,-4.5939 -10e-5,-1.77357 -1.0886,-3.0638 -3.2656,-3.87068 -0.8856,-0.24104 -5.0773,-1.16843 -12.5751,-2.78216 -5.8841,-1.20779 -10.1964,-3.06134 -12.9367,-5.56065 -3.225,-2.98138 -4.8374,-7.21366 -4.8374,-12.69686 0,-7.01072 2.6198,-12.37082 7.8594,-16.08052 4.2729,-2.9813 9.4719,-4.472 15.5971,-4.4721 z"
         style="font-variant:normal;font-stretch:normal;fill:#ffffff;font-family:CodiceBianco;-inkscape-font-specification:CodiceBianco"
         id="path8561" />
      <path
         d="m -1391.0084,-1016.2364 c 8.9467,10e-5 16.2816,3.0633 22.0046,9.1897 5.7229,6.1264 8.5844,13.58306 8.5845,22.36984 -10e-5,9.67242 -2.7404,17.6118 -8.221,23.81816 -5.6431,6.44745 -13.0991,9.67117 -22.3681,9.67116 -8.7868,10e-6 -16.0423,-2.94205 -21.7666,-8.82618 -6.1252,-6.20636 -9.1878,-14.42739 -9.1877,-24.66314 -10e-5,-9.10903 2.8215,-16.64624 8.4645,-22.61154 5.6431,-5.9653 13.1397,-8.9479 22.4898,-8.948 z m -14.6303,31.67762 c -0.081,12.57512 4.7955,18.86266 14.6303,18.86265 9.4313,1e-5 14.147,-6.28753 14.147,-18.86265 0,-6.12516 -2.0565,-10.71905 -6.1695,-13.78169 -2.6592,-1.93593 -5.3183,-2.90393 -7.9775,-2.90393 -3.0626,0 -5.8435,0.8463 -8.3428,2.53863 -4.1105,2.82157 -6.2064,7.53723 -6.2875,14.14699 z"
         style="font-variant:normal;font-stretch:normal;fill:#ffffff;font-family:CodiceBianco;-inkscape-font-specification:CodiceBianco"
         id="path8563" />
    </g>
    <g
       style="font-size:120.90988159px;font-style:normal;font-weight:normal;line-height:125%;letter-spacing:0px;word-spacing:0px;fill:#ffffff;fill-opacity:1;stroke:none;font-family:Sans"
       id="text6548-8-2">
      <path
         d="m -1695.3457,-806.54915 c -7.0133,1e-5 -13.3402,-2.3775 -18.9807,-7.13253 -7.0133,-5.8841 -10.5199,-14.06578 -10.5199,-24.54506 0,-10.72027 3.5866,-19.02249 10.7597,-24.90667 5.5619,-4.59506 11.8088,-6.89262 18.7409,-6.89269 7.7389,7e-5 14.3892,2.37758 19.9512,7.13254 4.1104,3.54725 6.9319,7.57783 8.4645,12.09172 l -14.8739,5.19904 c -2.3369,-6.69093 -6.8103,-10.03641 -13.42,-10.03647 -2.984,6e-5 -5.6849,0.92744 -8.103,2.78217 -3.7071,2.98147 -5.5607,7.81766 -5.5607,14.5086 0,7.41668 2.0959,12.53576 6.2876,15.35726 2.0958,1.53009 4.5139,2.29512 7.2543,2.29511 7.1731,1e-5 11.7682,-3.58654 13.7854,-10.75968 l 14.6303,5.3208 c -1.936,6.20639 -5.6849,11.08194 -11.2467,14.62667 -5.0773,3.30613 -10.8003,4.9592 -17.169,4.95919 z"
         style="font-variant:normal;font-stretch:normal;fill:#ffffff;font-family:CodiceBianco;-inkscape-font-specification:CodiceBianco"
         id="path8566" />
      <path
         d="m -1639.2301,-892.27605 0,62.99726 c 0,4.75505 1.8941,7.13255 5.6824,7.13254 1.3702,10e-6 3.0626,-0.28165 5.0773,-0.84499 l 1.4538,15.23181 c -3.6284,0.80686 -7.5384,1.21029 -11.7301,1.21028 -6.4475,1e-5 -11.1631,-2.09584 -14.147,-6.28755 -2.2557,-3.22494 -3.3836,-7.41663 -3.3836,-12.5751 l 0,-66.86425 z"
         style="font-variant:normal;font-stretch:normal;fill:#ffffff;font-family:CodiceBianco;-inkscape-font-specification:CodiceBianco"
         id="path8568" />
      <path
         d="m -1588.1954,-871.23638 c 8.9467,7e-5 16.2816,3.06328 22.0046,9.18964 5.7229,6.12648 8.5844,13.5831 8.5845,22.36988 -10e-5,9.67242 -2.7404,17.6118 -8.221,23.81816 -5.6431,6.44745 -13.0992,9.67117 -22.3681,9.67116 -8.7868,10e-6 -16.0424,-2.94205 -21.7666,-8.82618 -6.1252,-6.20636 -9.1878,-14.42739 -9.1878,-24.66314 0,-9.10903 2.8216,-16.64621 8.4646,-22.61156 5.6431,-5.96524 13.1396,-8.94789 22.4898,-8.94796 z m -14.6303,31.6776 c -0.081,12.57512 4.7955,18.86266 14.6303,18.86265 9.4313,1e-5 14.147,-6.28753 14.147,-18.86265 0,-6.12516 -2.0565,-10.71905 -6.1695,-13.78169 -2.6592,-1.93591 -5.3183,-2.90388 -7.9775,-2.90394 -3.0626,6e-5 -5.8435,0.84627 -8.3428,2.53864 -4.1105,2.82157 -6.2064,7.53723 -6.2875,14.14699 z"
         style="font-variant:normal;font-stretch:normal;fill:#ffffff;font-family:CodiceBianco;-inkscape-font-specification:CodiceBianco"
         id="path8570" />
      <path
         d="m -1525.2867,-872.6865 c 10.2382,7e-5 19.6289,3.02208 28.1722,9.06603 l -11.1213,11.96996 c -3.6284,-3.62587 -7.4572,-5.68113 -11.4865,-6.16578 -0.9693,-0.0787 -1.8967,-0.11802 -2.7822,-0.11808 -2.5805,6e-5 -4.7169,0.44284 -6.4093,1.32836 -1.6925,0.88562 -2.5387,2.01472 -2.5387,3.3873 0,1.20787 0.7663,2.05408 2.2988,2.53864 0.8044,0.32229 3.9482,1.04674 9.4314,2.17334 l 6.889,1.45381 c 4.7574,0.96679 8.5469,3.02205 11.3685,6.16578 3.1437,3.46606 4.7156,7.7377 4.7156,12.81494 0,4.51397 -1.5326,8.62572 -4.5976,12.33526 -4.5927,5.31835 -11.6858,7.97752 -21.2795,7.97751 -11.5272,10e-6 -21.7235,-3.82885 -30.589,-11.48658 l 11.7264,-11.00321 c 6.2088,5.07975 12.7386,7.61961 19.5895,7.61959 4.5139,2e-5 6.7709,-1.53128 6.771,-4.5939 -10e-5,-1.77357 -1.0886,-3.0638 -3.2656,-3.87068 -0.8856,-0.24104 -5.0773,-1.16843 -12.5751,-2.78216 -5.8841,-1.20779 -10.1964,-3.06134 -12.9367,-5.56065 -3.225,-2.98138 -4.8374,-7.21366 -4.8374,-12.69686 0,-7.01071 2.6198,-12.37087 7.8594,-16.08049 4.2729,-2.98135 9.4719,-4.47206 15.5971,-4.47213 z"
         style="font-variant:normal;font-stretch:normal;fill:#ffffff;font-family:CodiceBianco;-inkscape-font-specification:CodiceBianco"
         id="path8572" />
      <path
         d="m -1488.6794,-840.76537 c 0,-9.27139 2.7809,-16.88913 8.3428,-22.85325 5.5619,-5.96401 12.7768,-8.94604 21.6448,-8.94611 8.3022,7e-5 15.3548,2.82036 21.1578,8.46089 6.0464,6.04653 8.9085,13.58371 8.5863,22.61156 0,1.12914 -0.081,3.34552 -0.2435,6.64916 l -42.8026,0 c 2.0171,7.65775 6.4917,11.48661 13.4238,11.48659 4.3515,2e-5 8.018,-0.68507 10.9995,-2.05527 1.0479,-0.4034 2.9826,-1.61245 5.8042,-3.62714 l 11.3685,11.48658 c -8.5458,6.52863 -17.9365,9.79294 -28.1722,9.79293 -6.691,10e-6 -12.8174,-2.09584 -18.3793,-6.28755 -7.8201,-5.8841 -11.7301,-14.79023 -11.7301,-26.71839 z m 17.5343,-6.40932 24.9067,0 c -0.3223,-3.30608 -1.6925,-6.00707 -4.1106,-8.10297 -2.4181,-2.09579 -5.1585,-3.14372 -8.221,-3.14377 -3.7908,5e-5 -6.8952,1.29028 -9.3133,3.87068 -2.1746,2.25825 -3.2618,4.71694 -3.2618,7.37606 z"
         style="font-variant:normal;font-stretch:normal;fill:#ffffff;font-family:CodiceBianco;-inkscape-font-specification:CodiceBianco"
         id="path8574" />
      <path
         d="m -1359.0909,-892.03252 0,84.27309 -15.5971,0 -1.4502,-3.38361 c -5.1585,3.46603 -10.1558,5.19904 -14.9919,5.19903 -7.5766,1e-5 -13.9441,-2.41809 -19.1025,-7.25429 -6.2876,-5.88411 -9.4314,-14.34868 -9.4314,-25.39374 0,-9.50999 2.9015,-17.12712 8.7045,-22.8514 5.3995,-5.23956 12.0093,-7.85937 19.8294,-7.85944 5.5618,7e-5 10.4792,1.61254 14.7521,4.83743 l 0,-27.56707 z m -44.3708,54.04562 c 0,11.76827 4.7956,17.65239 14.3868,17.65237 4.0293,2e-5 7.2936,-1.24839 9.793,-3.74522 2.2581,-2.33936 3.3872,-4.99976 3.3873,-7.9812 l 0,-11.00322 c -10e-5,-2.90266 -1.048,-5.48188 -3.1438,-7.73767 -2.5805,-2.65912 -6.0871,-3.9887 -10.5199,-3.98875 -3.9506,5e-5 -7.1756,1.32963 -9.6748,3.98875 -2.8191,2.98147 -4.2286,7.25311 -4.2286,12.81494 z"
         style="font-variant:normal;font-stretch:normal;fill:#ffffff;font-family:CodiceBianco;-inkscape-font-specification:CodiceBianco"
         id="path8576" />
    </g>
    <g
       style="font-size:120.90988159px;font-style:normal;font-weight:normal;line-height:125%;letter-spacing:0px;word-spacing:0px;fill:#ffffff;fill-opacity:1;stroke:none;font-family:Sans"
       id="text6560-2-2">
      <path
         d="m -815.41551,-1038.8479 c 6.12762,10e-5 11.2467,0.3629 15.35727,1.0885 l -3.50907,13.9071 c -3.54478,-0.4845 -5.64063,-0.7268 -6.28755,-0.7269 -4.91495,10e-5 -7.37241,2.0148 -7.37238,6.044 l 0,4.4759 13.05848,0 0,13.2983 -12.81864,0 0,48.00157 -16.68562,0 0,-47.87987 -8.94795,0 0,-13.42 8.94795,0 0,-9.793 c -1e-5,-3.6283 1.29021,-6.8532 3.87068,-9.6748 3.22248,-3.5472 8.01808,-5.3207 14.38683,-5.3208 z"
         style="font-variant:normal;font-stretch:normal;text-align:end;text-anchor:end;fill:#ffffff;font-family:CodiceBianco;-inkscape-font-specification:CodiceBianco"
         id="path8540" />
      <path
         d="m -794.99942,-985.76537 c 0,-9.27139 2.78093,-16.88913 8.34281,-22.85323 5.56186,-5.964 12.77679,-8.9461 21.64482,-8.9461 8.30218,0 15.35476,2.8203 21.15775,8.4609 6.04642,6.0465 8.90853,13.58367 8.58635,22.61152 -7e-5,1.12914 -0.0812,3.34552 -0.24354,6.64916 l -42.80257,0 c 2.01711,7.65775 6.4917,11.48661 13.42377,11.48659 4.35156,2e-5 8.01806,-0.68507 10.99953,-2.05527 1.04788,-0.4034 2.9826,-1.61245 5.80417,-3.62714 l 11.36851,11.48658 c -8.5458,6.52863 -17.93653,9.79294 -28.17221,9.79293 -6.691,10e-6 -12.81742,-2.09584 -18.37927,-6.28755 -7.82009,-5.8841 -11.73012,-14.79023 -11.73012,-26.71839 z m 17.53429,-6.40932 24.90667,0 c -0.32229,-3.30608 -1.69247,-6.00707 -4.11052,-8.10301 -2.41814,-2.0958 -5.15848,-3.1437 -8.22105,-3.1437 -3.79076,0 -6.89517,1.2902 -9.31324,3.87065 -2.17459,2.25825 -3.26188,4.71694 -3.26186,7.37606 z"
         style="font-variant:normal;font-stretch:normal;text-align:end;text-anchor:end;fill:#ffffff;font-family:CodiceBianco;-inkscape-font-specification:CodiceBianco"
         id="path8542" />
      <path
         d="m -688.14059,-1015.6312 0,17.53057 c -1.20786,-0.15985 -2.41691,-0.23979 -3.62714,-0.23984 -4.75506,5e-5 -8.66387,1.08733 -11.72643,3.26185 -3.38734,2.33942 -5.08099,5.52379 -5.08096,9.55309 l 0,32.7661 -16.92547,0 0,-61.42167 16.92547,0 0,5.3208 c 5.0797,-4.5951 11.08558,-6.8926 18.01766,-6.8927 0.96671,1e-4 1.77233,0.041 2.41687,0.1218 z"
         style="font-variant:normal;font-stretch:normal;text-align:end;text-anchor:end;fill:#ffffff;font-family:CodiceBianco;-inkscape-font-specification:CodiceBianco"
         id="path8544" />
      <path
         d="m -587.34054,-996.52874 0,43.76931 -17.41253,0 0,-38.32675 c -8e-5,-3.06255 -0.94715,-5.44067 -2.8412,-7.13437 -1.89422,-1.6936 -4.17087,-2.54045 -6.82997,-2.54045 -2.6617,0 -4.91867,0.80687 -6.77092,2.42053 -2.09591,1.85236 -3.14384,4.31105 -3.14377,7.37606 l 0,38.20498 -17.169,0 0,-38.0869 c -5e-5,-2.98138 -1.00738,-5.35889 -3.02201,-7.13254 -1.77364,-1.53247 -3.95067,-2.29873 -6.53108,-2.29883 -2.57803,10e-5 -4.75382,0.76636 -6.52739,2.29883 -2.01716,1.69248 -3.02573,3.94945 -3.0257,6.77093 l 0,38.44851 -16.68563,0 0,-61.17817 15.47904,0 1.81173,3.5054 c 0.96672,-1.4513 2.72002,-2.7212 5.25992,-3.8098 2.53983,-1.0884 5.34106,-1.6327 8.40369,-1.6328 6.2875,1e-4 11.96991,2.4588 17.04723,7.3761 5.16085,-5.2396 11.32786,-7.8594 18.50104,-7.8594 6.20629,0 11.66731,1.9145 16.38306,5.7433 4.71556,3.8289 7.07339,8.5242 7.07349,14.08606 z"
         style="font-variant:normal;font-stretch:normal;text-align:end;text-anchor:end;fill:#ffffff;font-family:CodiceBianco;-inkscape-font-specification:CodiceBianco"
         id="path8546" />
      <path
         d="m -577.50334,-985.76537 c 0,-9.27139 2.78093,-16.88913 8.34281,-22.85323 5.56186,-5.964 12.77679,-8.9461 21.64482,-8.9461 8.30218,0 15.35476,2.8203 21.15775,8.4609 6.04642,6.0465 8.90853,13.58367 8.58635,22.61152 -7e-5,1.12914 -0.0812,3.34552 -0.24353,6.64916 l -42.80257,0 c 2.01711,7.65775 6.49169,11.48661 13.42377,11.48659 4.35155,2e-5 8.01806,-0.68507 10.99952,-2.05527 1.04788,-0.4034 2.9826,-1.61245 5.80418,-3.62714 l 11.36851,11.48658 c -8.54581,6.52863 -17.93654,9.79294 -28.17221,9.79293 -6.69101,10e-6 -12.81743,-2.09584 -18.37928,-6.28755 -7.82009,-5.8841 -11.73012,-14.79023 -11.73012,-26.71839 z m 17.5343,-6.40932 24.90667,0 c -0.3223,-3.30608 -1.69247,-6.00707 -4.11053,-8.10301 -2.41814,-2.0958 -5.15848,-3.1437 -8.22104,-3.1437 -3.79077,0 -6.89518,1.2902 -9.31325,3.87065 -2.17459,2.25825 -3.26187,4.71694 -3.26185,7.37606 z"
         style="font-variant:normal;font-stretch:normal;text-align:end;text-anchor:end;fill:#ffffff;font-family:CodiceBianco;-inkscape-font-specification:CodiceBianco"
         id="path8548" />
      <path
         d="m -503.4106,-1037.8775 c 2.74034,10e-5 4.99731,0.8463 6.77093,2.5386 2.01465,1.9336 3.02198,4.6334 3.022,8.0993 -2e-5,8.3023 -4.8768,12.8568 -14.63036,13.6636 -1.85232,0.1624 -2.77848,-0.6038 -2.77847,-2.2988 -10e-6,-0.4009 0.0806,-0.7828 0.24168,-1.1457 0.16112,-0.3627 1.26932,-0.8061 3.32458,-1.3302 2.05525,-0.5239 3.08288,-1.3098 3.08289,-2.3578 -1e-5,-0.9691 -0.48338,-1.5743 -1.45012,-1.8154 -1.69489,-0.3222 -2.90394,-0.7256 -3.62715,-1.2103 -2.09585,-1.4488 -3.14377,-3.584 -3.14377,-6.4056 0,-2.0146 0.88618,-3.8079 2.65856,-5.3799 1.77236,-1.5718 3.94877,-2.3577 6.52923,-2.3578 z"
         style="font-variant:normal;font-stretch:normal;text-align:end;text-anchor:end;fill:#ffffff;font-family:CodiceBianco;-inkscape-font-specification:CodiceBianco"
         id="path8550" />
    </g>
    <g
       style="font-size:120.90988159px;font-style:normal;font-weight:normal;line-height:125%;letter-spacing:0px;word-spacing:0px;fill:#ffffff;fill-opacity:1;stroke:none;font-family:Sans"
       id="text6564-5-16">
      <path
         d="m -1162.4853,-870.63124 c 5.7242,7e-5 10.3193,1.61255 13.7854,4.83743 0.3222,-0.80679 0.7649,-1.8953 1.3283,-3.26554 l 16.0805,0 0,58.52145 c -10e-5,4.91492 -2.2164,9.58999 -6.6492,14.02522 -5.5619,5.72176 -13.0991,8.58264 -22.6115,8.58265 -4.7551,-10e-6 -10.2764,-0.80564 -16.5639,-2.41687 -5.8841,-1.53254 -10.3169,-3.1856 -13.2983,-4.95919 l 7.0108,-13.42008 c 8.2235,4.0318 15.2367,6.0477 21.0396,6.0477 3.7071,0 6.7697,-0.60513 9.1878,-1.81541 2.9027,-1.53253 4.3541,-3.74891 4.3541,-6.64916 l 0,-4.35406 c -4.1917,2.33694 -8.8668,3.50539 -14.0252,3.50539 -7.5766,0 -14.0659,-2.3775 -19.4678,-7.13254 -6.044,-5.32078 -9.066,-12.41394 -9.066,-21.27952 0,-9.02785 2.8608,-16.36331 8.5826,-22.00642 5.4807,-5.48063 12.2516,-8.22098 20.3128,-8.22105 z m -12.4534,30.46732 c 0,4.67633 1.5313,8.22353 4.5939,10.6416 2.4181,2.0147 5.4008,3.02203 8.948,3.02201 3.1437,2e-5 6.0858,-1.20902 8.8262,-3.62715 2.7403,-2.41807 4.1105,-5.23959 4.1105,-8.46458 l 0,-5.31711 c 0,-3.38726 -1.3099,-6.24937 -3.9297,-8.58634 -2.6199,-2.33687 -5.7021,-3.50533 -9.2468,-3.50538 -3.7096,5e-5 -6.7329,1.12792 -9.0698,3.38361 -2.8215,2.82158 -4.2323,6.97268 -4.2323,12.45334 z"
         style="font-variant:normal;font-stretch:normal;text-align:end;text-anchor:end;fill:#ffffff;font-family:CodiceBianco;-inkscape-font-specification:CodiceBianco"
         id="path8517" />
      <path
         d="m -1120.8893,-840.76537 c 0,-9.27139 2.7809,-16.88913 8.3428,-22.85325 5.5618,-5.96401 12.7768,-8.94604 21.6448,-8.94611 8.3022,7e-5 15.3547,2.82036 21.1577,8.46089 6.0465,6.04653 8.9086,13.58371 8.5864,22.61156 -10e-5,1.12914 -0.081,3.34552 -0.2435,6.64916 l -42.8026,0 c 2.0171,7.65775 6.4917,11.48661 13.4238,11.48659 4.3515,2e-5 8.018,-0.68507 10.9995,-2.05527 1.0479,-0.4034 2.9826,-1.61245 5.8042,-3.62714 l 11.3685,11.48658 c -8.5458,6.52863 -17.9366,9.79294 -28.1722,9.79293 -6.691,10e-6 -12.8175,-2.09584 -18.3793,-6.28755 -7.8201,-5.8841 -11.7301,-14.79023 -11.7301,-26.71839 z m 17.5343,-6.40932 24.9066,0 c -0.3223,-3.30608 -1.6924,-6.00707 -4.1105,-8.10297 -2.4181,-2.09579 -5.1585,-3.14372 -8.221,-3.14377 -3.7908,5e-5 -6.8952,1.29028 -9.3133,3.87068 -2.1746,2.25825 -3.2619,4.71694 -3.2618,7.37606 z"
         style="font-variant:normal;font-stretch:normal;text-align:end;text-anchor:end;fill:#ffffff;font-family:CodiceBianco;-inkscape-font-specification:CodiceBianco"
         id="path8519" />
      <path
         d="m -1029.266,-872.6865 c 10.2381,7e-5 19.6289,3.02208 28.1722,9.06603 l -11.1213,11.96996 c -3.6284,-3.62587 -7.4573,-5.68113 -11.4866,-6.16578 -0.9692,-0.0787 -1.8966,-0.11802 -2.7821,-0.11808 -2.5805,6e-5 -4.717,0.44284 -6.4093,1.32836 -1.6925,0.88562 -2.5387,2.01472 -2.5387,3.3873 0,1.20787 0.7663,2.05408 2.2988,2.53864 0.8044,0.32229 3.9481,1.04674 9.4313,2.17334 l 6.889,1.45381 c 4.7575,0.96679 8.547,3.02205 11.3685,6.16578 3.1438,3.46606 4.7156,7.7377 4.7157,12.81494 -10e-5,4.51397 -1.5326,8.62572 -4.5976,12.33526 -4.5927,5.31835 -11.6859,7.97752 -21.2795,7.97751 -11.5272,10e-6 -21.7235,-3.82885 -30.5891,-11.48658 l 11.7265,-11.00321 c 6.2088,5.07975 12.7386,7.61961 19.5895,7.61959 4.5139,2e-5 6.7709,-1.53128 6.7709,-4.5939 0,-1.77357 -1.0885,-3.0638 -3.2655,-3.87068 -0.8856,-0.24104 -5.0773,-1.16843 -12.5751,-2.78216 -5.8842,-1.20779 -10.1964,-3.06134 -12.9367,-5.56065 -3.225,-2.98138 -4.8375,-7.21366 -4.8374,-12.69686 -10e-5,-7.01071 2.6198,-12.37087 7.8594,-16.08049 4.2728,-2.98135 9.4719,-4.47206 15.5971,-4.47213 z"
         style="font-variant:normal;font-stretch:normal;text-align:end;text-anchor:end;fill:#ffffff;font-family:CodiceBianco;-inkscape-font-specification:CodiceBianco"
         id="path8521" />
      <path
         d="m -963.88139,-806.54915 c -7.01325,1e-5 -13.34015,-2.3775 -18.98073,-7.13253 -7.01323,-5.8841 -10.51984,-14.06578 -10.51983,-24.54506 -1e-5,-10.72027 3.58655,-19.02249 10.75968,-24.90667 5.56185,-4.59506 11.80881,-6.89262 18.74088,-6.89269 7.73886,7e-5 14.38924,2.37758 19.95116,7.13254 4.11047,3.54725 6.93199,7.57783 8.46458,12.09172 l -14.87389,5.19904 c -2.33697,-6.69093 -6.81032,-10.03641 -13.42008,-10.03647 -2.98391,6e-5 -5.6849,0.92744 -8.10297,2.78217 -3.70712,2.98147 -5.56067,7.81766 -5.56065,14.5086 -2e-5,7.41668 2.09583,12.53576 6.28755,15.35726 2.09583,1.53009 4.51392,2.29512 7.2543,2.29511 7.17308,1e-5 11.7682,-3.58654 13.78538,-10.75968 l 14.63036,5.3208 c -1.93601,6.20639 -5.68492,11.08194 -11.24674,14.62667 -5.07732,3.30613 -10.80031,4.9592 -17.169,4.95919 z"
         style="font-variant:normal;font-stretch:normal;text-align:end;text-anchor:end;fill:#ffffff;font-family:CodiceBianco;-inkscape-font-specification:CodiceBianco"
         id="path8523" />
      <path
         d="m -907.52222,-893.84794 0,28.41574 c 3.14374,-3.30606 8.18165,-4.95913 15.11373,-4.95919 6.68847,6e-5 12.33029,1.73307 16.92547,5.19903 5.40191,4.19176 8.1029,10.07711 8.10296,17.65606 l 0,39.77687 -17.41252,0 0,-34.82136 c -5e-5,-3.62588 -1.12915,-6.48676 -3.38731,-8.58266 -2.09343,-1.85472 -4.63206,-2.78211 -7.61591,-2.78216 -3.1438,5e-5 -5.88415,1.04797 -8.22104,3.14377 -2.33695,2.0959 -3.50541,4.95678 -3.50538,8.58266 l 0,34.45975 -16.92916,0 0,-86.08851 z"
         style="font-variant:normal;font-stretch:normal;text-align:end;text-anchor:end;fill:#ffffff;font-family:CodiceBianco;-inkscape-font-specification:CodiceBianco"
         id="path8525" />
      <path
         d="m -837.86472,-892.27605 0,62.99726 c -3e-5,4.75505 1.89411,7.13255 5.68241,7.13254 1.37014,10e-6 3.06256,-0.28165 5.07727,-0.84499 l 1.45381,15.23181 c -3.62841,0.80686 -7.53845,1.21029 -11.73012,1.21028 -6.44746,1e-5 -11.16312,-2.09584 -14.14699,-6.28755 -2.25575,-3.22494 -3.38362,-7.41663 -3.38362,-12.5751 l 0,-66.86425 z"
         style="font-variant:normal;font-stretch:normal;text-align:end;text-anchor:end;fill:#ffffff;font-family:CodiceBianco;-inkscape-font-specification:CodiceBianco"
         id="path8527" />
      <path
         d="m -786.83005,-871.23638 c 8.94668,7e-5 16.28153,3.06328 22.00458,9.18964 5.72294,6.12648 8.58443,13.5831 8.5845,22.36988 -7e-5,9.67242 -2.74041,17.6118 -8.22105,23.81816 -5.6431,6.44745 -13.0991,9.67117 -22.36803,9.67116 -8.78685,10e-6 -16.04237,-2.94205 -21.76658,-8.82618 -6.1252,-6.20636 -9.1878,-14.42739 -9.18779,-24.66314 -1e-5,-9.10903 2.82151,-16.64621 8.46457,-22.61156 5.64304,-5.96524 13.13963,-8.94789 22.4898,-8.94796 z m -14.63036,31.6776 c -0.0812,12.57512 4.79559,18.86266 14.63036,18.86265 9.43128,1e-5 14.14694,-6.28753 14.14699,-18.86265 -5e-5,-6.12516 -2.05654,-10.71905 -6.16947,-13.78169 -2.65922,-1.93591 -5.31838,-2.90388 -7.97752,-2.90394 -3.06263,6e-5 -5.84356,0.84627 -8.34281,2.53864 -4.11054,2.82157 -6.20639,7.53723 -6.28755,14.14699 z"
         style="font-variant:normal;font-stretch:normal;text-align:end;text-anchor:end;fill:#ffffff;font-family:CodiceBianco;-inkscape-font-specification:CodiceBianco"
         id="path8529" />
      <path
         d="m -723.92134,-872.6865 c 10.23814,7e-5 19.62887,3.02208 28.17221,9.06603 l -11.12128,11.96996 c -3.62843,-3.62587 -7.45728,-5.68113 -11.48659,-6.16578 -0.96924,-0.0787 -1.89663,-0.11802 -2.78217,-0.11808 -2.58048,6e-5 -4.71692,0.44284 -6.40931,1.32836 -1.69245,0.88562 -2.53866,2.01472 -2.53864,3.3873 -2e-5,1.20787 0.76624,2.05408 2.29879,2.53864 0.80437,0.32229 3.94814,1.04674 9.43133,2.17334 l 6.889,1.45381 c 4.75743,0.96679 8.54693,3.02205 11.36851,6.16578 3.14372,3.46606 4.7156,7.7377 4.71566,12.81494 -6e-5,4.51397 -1.53258,8.62572 -4.59758,12.33526 -4.59272,5.31835 -11.68589,7.97752 -21.27952,7.97751 -11.5272,10e-6 -21.72355,-3.82885 -30.58908,-11.48658 l 11.72643,-11.00321 c 6.20881,5.07975 12.73866,7.61961 19.58955,7.61959 4.51391,2e-5 6.77089,-1.53128 6.77093,-4.5939 -4e-5,-1.77357 -1.08856,-3.0638 -3.26555,-3.87068 -0.8856,-0.24104 -5.0773,-1.16843 -12.5751,-2.78216 -5.88414,-1.20779 -10.19637,-3.06134 -12.9367,-5.56065 -3.22496,-2.98138 -4.83744,-7.21366 -4.83743,-12.69686 -10e-6,-7.01071 2.6198,-12.37087 7.85944,-16.08049 4.27286,-2.98135 9.47189,-4.47206 15.5971,-4.47213 z"
         style="font-variant:normal;font-stretch:normal;text-align:end;text-anchor:end;fill:#ffffff;font-family:CodiceBianco;-inkscape-font-specification:CodiceBianco"
         id="path8531" />
      <path
         d="m -662.28562,-872.6865 c 10.23814,7e-5 19.62886,3.02208 28.17221,9.06603 l -11.12129,11.96996 c -3.62842,-3.62587 -7.45728,-5.68113 -11.48659,-6.16578 -0.96924,-0.0787 -1.89663,-0.11802 -2.78217,-0.11808 -2.58048,6e-5 -4.71692,0.44284 -6.40931,1.32836 -1.69245,0.88562 -2.53866,2.01472 -2.53864,3.3873 -2e-5,1.20787 0.76624,2.05408 2.2988,2.53864 0.80436,0.32229 3.94813,1.04674 9.43132,2.17334 l 6.889,1.45381 c 4.75744,0.96679 8.54694,3.02205 11.36851,6.16578 3.14372,3.46606 4.71561,7.7377 4.71566,12.81494 -5e-5,4.51397 -1.53258,8.62572 -4.59758,12.33526 -4.59272,5.31835 -11.68588,7.97752 -21.27952,7.97751 -11.5272,10e-6 -21.72355,-3.82885 -30.58908,-11.48658 l 11.72643,-11.00321 c 6.20881,5.07975 12.73866,7.61961 19.58955,7.61959 4.51392,2e-5 6.77089,-1.53128 6.77093,-4.5939 -4e-5,-1.77357 -1.08855,-3.0638 -3.26554,-3.87068 -0.88561,-0.24104 -5.0773,-1.16843 -12.5751,-2.78216 -5.88414,-1.20779 -10.19638,-3.06134 -12.93671,-5.56065 -3.22496,-2.98138 -4.83744,-7.21366 -4.83743,-12.69686 -10e-6,-7.01071 2.6198,-12.37087 7.85944,-16.08049 4.27286,-2.98135 9.47189,-4.47206 15.59711,-4.47213 z"
         style="font-variant:normal;font-stretch:normal;text-align:end;text-anchor:end;fill:#ffffff;font-family:CodiceBianco;-inkscape-font-specification:CodiceBianco"
         id="path8533" />
      <path
         d="m -625.67838,-840.76537 c 0,-9.27139 2.78093,-16.88913 8.34282,-22.85325 5.56185,-5.96401 12.77678,-8.94604 21.64481,-8.94611 8.30218,7e-5 15.35476,2.82036 21.15776,8.46089 6.04641,6.04653 8.90852,13.58371 8.58634,22.61156 -7e-5,1.12914 -0.0812,3.34552 -0.24353,6.64916 l -42.80257,0 c 2.01711,7.65775 6.49169,11.48661 13.42377,11.48659 4.35155,2e-5 8.01806,-0.68507 10.99952,-2.05527 1.04788,-0.4034 2.9826,-1.61245 5.80418,-3.62714 l 11.36851,11.48658 c -8.54581,6.52863 -17.93654,9.79294 -28.17221,9.79293 -6.69101,10e-6 -12.81743,-2.09584 -18.37928,-6.28755 -7.82008,-5.8841 -11.73012,-14.79023 -11.73012,-26.71839 z m 17.5343,-6.40932 24.90667,0 c -0.3223,-3.30608 -1.69247,-6.00707 -4.11053,-8.10297 -2.41814,-2.09579 -5.15848,-3.14372 -8.22104,-3.14377 -3.79077,5e-5 -6.89518,1.29028 -9.31325,3.87068 -2.17459,2.25825 -3.26187,4.71694 -3.26185,7.37606 z"
         style="font-variant:normal;font-stretch:normal;text-align:end;text-anchor:end;fill:#ffffff;font-family:CodiceBianco;-inkscape-font-specification:CodiceBianco"
         id="path8535" />
      <path
         d="m -498.62853,-846.93485 0,39.29719 -17.65237,0 0,-35.54827 c -0.32229,-3.30363 -1.6322,-5.90253 -3.92972,-7.79671 -2.2976,-1.89409 -4.8965,-2.84116 -7.7967,-2.84121 -2.90274,5e-5 -5.32084,0.88685 -7.2543,2.6604 -2.17706,1.93355 -3.26557,4.59271 -3.26554,7.97752 l 0,35.4265 -17.41253,0 0,-61.06008 15.11373,0 1.81542,3.38731 c 4.43275,-3.46596 9.7929,-5.19897 16.08049,-5.19904 6.60975,7e-5 12.17162,1.9348 16.68562,5.80418 5.07721,4.35165 7.61584,10.31572 7.6159,17.89221 z"
         style="font-variant:normal;font-stretch:normal;text-align:end;text-anchor:end;fill:#ffffff;font-family:CodiceBianco;-inkscape-font-specification:CodiceBianco"
         id="path8537" />
    </g>
  </g>
</svg>
