<?xml version="1.0" encoding="UTF-8" standalone="no"?>
<!-- Created with Inkscape (http://www.inkscape.org/) -->

<svg
   xmlns:dc="http://purl.org/dc/elements/1.1/"
   xmlns:cc="http://creativecommons.org/ns#"
   xmlns:rdf="http://www.w3.org/1999/02/22-rdf-syntax-ns#"
   xmlns:svg="http://www.w3.org/2000/svg"
   xmlns="http://www.w3.org/2000/svg"
   xmlns:sodipodi="http://sodipodi.sourceforge.net/DTD/sodipodi-0.dtd"
   xmlns:inkscape="http://www.inkscape.org/namespaces/inkscape"
   width="900"
   height="779.88"
   id="svg2"
   version="1.1"
   inkscape:version="0.48.5 r10040"
   sodipodi:docname="CANC Distanza.svg">
  <defs
     id="defs4" />
  <sodipodi:namedview
     id="base"
     pagecolor="#ffffff"
     bordercolor="#666666"
     borderopacity="1.0"
     inkscape:pageopacity="0.0"
     inkscape:pageshadow="2"
     inkscape:zoom="0.49497475"
     inkscape:cx="766.32411"
     inkscape:cy="485.93241"
     inkscape:document-units="px"
     inkscape:current-layer="layer1"
     showgrid="false"
     inkscape:object-paths="true"
     inkscape:snap-intersection-paths="true"
     inkscape:object-nodes="true"
     inkscape:snap-nodes="false"
     inkscape:snap-smooth-nodes="true"
     inkscape:window-width="1366"
     inkscape:window-height="705"
     inkscape:window-x="-8"
     inkscape:window-y="-8"
     inkscape:window-maximized="1"
     fit-margin-top="0"
     fit-margin-left="0"
     fit-margin-right="0"
     fit-margin-bottom="0" />
  <metadata
     id="metadata7">
    <rdf:RDF>
      <cc:Work
         rdf:about="">
        <dc:format>image/svg+xml</dc:format>
        <dc:type
           rdf:resource="http://purl.org/dc/dcmitype/StillImage" />
        <dc:title></dc:title>
      </cc:Work>
    </rdf:RDF>
  </metadata>
  <g
     inkscape:label="Livello 1"
     inkscape:groupmode="layer"
     id="layer1"
     transform="translate(0,-272.48218)">
    <rect
       style="fill:none;fill-opacity:1;stroke:none"
       id="rect3923"
       width="900"
       height="779.88"
       x="0"
       y="272.48218" />
    <rect
       style="fill:#ffffff;fill-opacity:1;fill-rule:evenodd;stroke:#000000;stroke-width:1;stroke-linecap:butt;stroke-linejoin:miter;stroke-miterlimit:4;stroke-opacity:1;stroke-dasharray:none"
       id="rect2985"
       width="799"
       height="269"
       x="50.5"
       y="320.6286" />
    <rect
       style="fill:none;stroke:#000000;stroke-width:8;stroke-miterlimit:4;stroke-opacity:1;stroke-dasharray:none"
       id="rect3755"
       width="784"
       height="254"
       x="58"
       y="328.12866"
       ry="25.999937"
       rx="25.999937" />
    <g
       style="font-size:141.8405304px;font-style:normal;font-weight:normal;line-height:125%;letter-spacing:0px;word-spacing:0px;fill:#000000;fill-opacity:1;stroke:none;font-family:Sans"
       id="text3763-7-4">
      <path
         d="m 305.28757,402.43617 c 6.90267,0.28291 12.81268,1.41701 17.73007,3.40231 12.00754,4.91742 18.24797,13.85314 18.72132,26.8072 0.28561,6.24195 -1.17891,11.11166 -4.39356,14.60912 -2.45874,1.98546 -4.87122,3.92469 -7.23747,5.81768 8.32243,2.74152 12.48369,9.59662 12.48377,20.56532 -8e-5,8.98338 -2.31734,16.26412 -6.95178,21.84226 -6.42953,7.66169 -16.7836,11.49252 -31.06224,11.49252 -13.52268,0 -23.82913,-3.78322 -30.9194,-11.34967 -5.1078,-5.57814 -8.27635,-12.7651 -9.50567,-21.5609 l 24.11479,-3.40231 c -3e-5,4.34887 1.51282,7.6581 4.53857,9.92771 3.02567,2.26968 7.0448,3.4045 12.0574,3.40447 3.59271,3e-5 6.80743,-0.94578 9.64418,-2.83742 2.83664,-1.89158 4.25498,-4.34951 4.25505,-7.37382 -7e-5,-6.9979 -5.72107,-10.49687 -17.16302,-10.49692 -1.51218,5e-5 -3.26094,0.0477 -5.2463,0.14284 l 0,-20.14111 c 6.33418,7e-5 11.01487,-0.52081 14.04208,-1.56264 4.63157,-1.51206 6.94739,-4.39637 6.94745,-8.65293 -6e-5,-6.42937 -4.2551,-9.6441 -12.76513,-9.64418 -10.59075,8e-5 -15.8861,4.53937 -15.88607,13.61787 l -23.4049,-2.41105 c 0.47325,-6.2418 2.08062,-11.63238 4.82209,-16.17176 6.52467,-10.68296 18.25091,-16.02448 35.17877,-16.02459 z"
         style="font-variant:normal;font-stretch:normal;fill:#000000;font-family:CodiceNero;-inkscape-font-specification:CodiceNero"
         id="path4034" />
      <path
         d="m 396.77749,403.42743 c 14.56145,1.1e-4 25.01075,5.05883 31.34793,15.17617 3.87549,6.24197 5.81327,13.0509 5.81335,20.42681 -8e-5,6.99801 -1.93786,13.47508 -5.81335,19.43121 -2.74443,4.34888 -7.04708,8.98195 -12.90797,13.89923 -4.44412,3.78326 -8.93579,7.56648 -13.47503,11.34967 l 31.34361,0 0,21.27521 -71.91152,0 0,-18.86416 c -10e-6,-0.9465 4.20741,-4.30407 12.62228,-10.07272 10.68591,-7.47118 18.48754,-13.47498 23.4049,-18.01143 8.4148,-7.75396 12.62223,-14.42148 12.62229,-20.0026 -6e-5,-3.59268 -1.13416,-6.57078 -3.40231,-8.93429 -2.64629,-2.64904 -6.28666,-3.9736 -10.92113,-3.97368 -4.82213,8e-5 -8.51012,1.65506 -11.06398,4.96494 -2.17589,2.83677 -3.26381,6.52476 -3.26378,11.06397 -3e-5,1.13417 0.0476,2.2221 0.14284,3.26379 l -24.11046,0 c -0.19047,-1.32449 -0.2857,-2.83807 -0.28569,-4.54073 -10e-6,-8.98327 2.41103,-16.64205 7.23314,-22.97637 6.80747,-8.98324 17.68242,-13.47491 32.62488,-13.47502 z"
         style="font-variant:normal;font-stretch:normal;fill:#000000;font-family:CodiceNero;-inkscape-font-specification:CodiceNero"
         id="path4036" />
      <path
         d="m 493.60026,402.43617 c 10.59066,1.1e-4 19.52638,2.97821 26.80721,8.93429 10.68585,8.79298 16.02882,23.40209 16.02891,43.82738 -9e-5,19.00849 -5.24783,33.00438 -15.74322,41.9877 -7.65886,6.5247 -16.68982,9.78704 -27.0929,9.78704 -9.45665,0 -18.20336,-3.26234 -26.24015,-9.78704 -11.44202,-9.26901 -17.16302,-23.2649 -17.16301,-41.9877 -10e-6,-19.38353 5.20155,-33.61461 15.60471,-42.69327 7.56352,-6.71216 16.82967,-10.06829 27.79845,-10.0684 z m -19.43121,52.19462 c -4e-5,8.79582 1.08789,15.41573 3.26378,19.85975 3.02423,6.42949 8.36576,9.64421 16.02459,9.64419 13.23977,2e-5 19.85968,-9.83461 19.85975,-29.50394 -7e-5,-19.66922 -6.52475,-29.50386 -19.57406,-29.50394 -13.04941,8e-5 -19.5741,9.83472 -19.57406,29.50394 z"
         style="font-variant:normal;font-stretch:normal;fill:#000000;font-family:CodiceNero;-inkscape-font-specification:CodiceNero"
         id="path4038" />
    </g>
    <g
       style="font-size:99.28837585px;font-style:normal;font-weight:normal;line-height:125%;letter-spacing:0px;word-spacing:0px;fill:#000000;fill-opacity:1;stroke:none;font-family:Sans"
       id="text3763-7-0-8">
      <path
         d="m 588.78518,453.7967 c 4.89651,5e-5 9.23148,2.05139 13.00494,6.15401 l 0.1,0 c -0.13337,5e-5 0.42921,-0.5792 1.68773,-1.73773 1.25843,-1.15843 2.81385,-2.13461 4.66626,-2.92853 2.58154,-1.05844 5.49442,-1.58769 8.73864,-1.58775 5.16312,6e-5 9.59809,1.80344 13.30491,5.41014 3.70667,3.60681 5.56004,7.79381 5.56012,12.56104 l 0,33.36074 -16.08648,0 0,-30.5822 c -7e-5,-1.65436 -0.56264,-3.06081 -1.68773,-4.21933 -1.12522,-1.15844 -2.71397,-1.73769 -4.76626,-1.73773 -1.91908,4e-5 -3.4745,0.56262 -4.66626,1.68774 -1.19187,1.12519 -1.78778,2.5483 -1.78773,4.26932 l 0,30.5822 -16.18344,0 0,-30.5822 c -4e-5,-1.65436 -0.62877,-3.07747 -1.8862,-4.26932 -1.2575,-1.19178 -2.81242,-1.78769 -4.66475,-1.78773 -1.78775,4e-5 -3.27752,0.59595 -4.46931,1.78773 -1.19184,1.19185 -1.78775,2.61496 -1.78773,4.26932 l 0,30.5822 -16.08345,0 0,-50.34109 14.49571,0 1.19081,2.78157 c 1.52308,-1.58768 3.11183,-2.61386 4.76625,-3.07852 1.38975,-0.39587 3.57441,-0.59383 6.55398,-0.59388 z"
         style="font-variant:normal;font-stretch:normal;fill:#000000;font-family:CodiceNero;-inkscape-font-specification:CodiceNero"
         id="path4031" />
    </g>
    <rect
       y="720.62866"
       x="50.5"
       height="269"
       width="799"
       id="rect3880"
       style="fill:#ffffff;fill-opacity:1;fill-rule:evenodd;stroke:#000000;stroke-width:1;stroke-linecap:butt;stroke-linejoin:miter;stroke-miterlimit:4;stroke-opacity:1;stroke-dasharray:none" />
    <rect
       rx="25.999937"
       ry="25.999937"
       y="728.12872"
       x="58"
       height="254"
       width="784"
       id="rect3882"
       style="fill:none;stroke:#000000;stroke-width:8;stroke-miterlimit:4;stroke-opacity:1;stroke-dasharray:none" />
    <g
       style="font-size:141.8405304px;font-style:normal;font-weight:normal;line-height:125%;letter-spacing:0px;word-spacing:0px;fill:#000000;fill-opacity:1;stroke:none;font-family:Sans"
       id="text3884">
      <path
         d="m 318.18992,802.43623 c 6.90266,0.28292 12.81268,1.41702 17.73006,3.40231 12.00754,4.91742 18.24798,13.85315 18.72133,26.8072 0.2856,6.24195 -1.17892,11.11166 -4.39356,14.60912 -2.45874,1.98546 -4.87123,3.92469 -7.23747,5.81768 8.32243,2.74152 12.48368,9.59662 12.48377,20.56532 -9e-5,8.98338 -2.31735,16.26412 -6.95178,21.84226 -6.42953,7.66169 -16.78361,11.49252 -31.06225,11.49252 -13.52267,0 -23.82913,-3.78322 -30.9194,-11.34967 -5.10779,-5.57814 -8.27635,-12.7651 -9.50567,-21.5609 l 24.1148,-3.40231 c -4e-5,4.34887 1.51282,7.6581 4.53856,9.92772 3.02568,2.26967 7.0448,3.40449 12.0574,3.40446 3.59271,3e-5 6.80744,-0.94578 9.64419,-2.83741 2.83663,-1.89158 4.25498,-4.34952 4.25504,-7.37382 -6e-5,-6.99791 -5.72106,-10.49688 -17.16302,-10.49693 -1.51217,5e-5 -3.26094,0.0477 -5.24629,0.14284 l 0,-20.14111 c 6.33418,7e-5 11.01486,-0.52081 14.04207,-1.56263 4.63157,-1.51207 6.94739,-4.39638 6.94745,-8.65293 -6e-5,-6.42938 -4.2551,-9.6441 -12.76513,-9.64419 -10.59075,9e-5 -15.8861,4.53937 -15.88607,13.61787 l -23.4049,-2.41105 c 0.47326,-6.2418 2.08062,-11.63238 4.8221,-16.17176 6.52466,-10.68295 18.25091,-16.02448 35.17877,-16.02459 z"
         style="font-variant:normal;font-stretch:normal;fill:#000000;font-family:CodiceNero;-inkscape-font-specification:CodiceNero"
         id="path4018" />
    </g>
    <g
       style="font-size:99.28837585px;font-style:normal;font-weight:normal;line-height:125%;letter-spacing:0px;word-spacing:0px;fill:#000000;fill-opacity:1;stroke:none;font-family:Sans"
       id="text3888">
      <path
         d="m 367.91945,891.0299 c 3.11083,2e-5 5.49345,0.95953 7.14787,2.87854 1.65438,1.91903 2.48158,4.36832 2.4816,7.34784 -2e-5,2.84623 -1.15851,5.42782 -3.47545,7.74479 -2.64626,2.51493 -5.95607,3.7724 -9.92945,3.7724 -0.86054,0 -1.42312,-0.16565 -1.68773,-0.49693 -0.52926,-0.52925 -0.92619,-1.75439 -1.19081,-3.67544 -0.0667,-0.59388 0.81053,-1.12263 2.63159,-1.58622 1.82105,-0.4636 2.73157,-0.89437 2.73159,-1.29231 -2e-5,-0.19796 -0.13233,-0.42926 -0.39694,-0.69388 -1.78774,0 -3.32699,-0.67873 -4.61778,-2.03619 -1.29081,-1.35745 -1.9362,-2.92903 -1.9362,-4.71475 0,-2.11899 0.74437,-3.85672 2.23314,-5.21318 1.48875,-1.35643 3.49161,-2.03465 6.00857,-2.03467 z"
         style="font-variant:normal;font-stretch:normal;fill:#000000;font-family:CodiceNero;-inkscape-font-specification:CodiceNero"
         id="path4021" />
      <path
         d="m 416.93036,833.44094 c 7.41346,8e-5 13.66897,1.88678 18.76656,5.66012 5.09748,3.77348 7.64625,8.57205 7.64631,14.39572 -6e-5,7.21559 -2.78063,12.14748 -8.3417,14.79569 3.37541,1.2565 5.92367,3.87041 7.64479,7.84175 1.25842,2.7816 1.88765,5.32987 1.88771,7.64479 -6e-5,5.49449 -2.15138,10.39305 -6.45398,14.6957 -5.16324,5.16319 -12.21313,7.74478 -21.14969,7.74478 -8.9346,0 -15.98348,-2.64724 -21.14665,-7.94174 -4.17137,-4.3693 -6.25704,-9.20221 -6.25704,-14.49874 0,-2.91083 0.53025,-5.62474 1.59078,-8.14172 1.72105,-4.1693 4.63292,-6.58525 8.7356,-7.24786 -3.30881,-0.86049 -5.69143,-2.94515 -7.14786,-6.254 -1.05851,-2.25026 -1.58775,-4.73287 -1.58774,-7.44784 -1e-5,-4.63187 1.4231,-8.83453 4.26932,-12.608 4.50061,-5.75903 11.6818,-8.63857 21.54359,-8.63865 z m -9.03558,21.54662 c -2e-5,2.38167 1.19179,4.13505 3.57545,5.26015 1.72103,0.86058 3.74005,1.29085 6.05705,1.2908 2.64822,5e-5 4.83288,-0.62869 6.55398,-1.8862 1.72102,-1.25742 2.58155,-2.91232 2.58159,-4.96472 -4e-5,-2.11693 -0.82774,-3.77133 -2.48311,-4.96321 -1.65546,-1.19175 -3.83961,-1.78766 -6.55247,-1.78772 -6.48835,6e-5 -9.73251,2.35036 -9.73249,7.0509 z m -1.2908,28.5945 c -2e-5,2.44829 1.1918,4.335 3.57545,5.66011 1.85436,0.99186 4.10467,1.48777 6.75093,1.48775 3.24413,2e-5 5.7929,-0.6782 7.64631,-2.03467 1.85333,-1.35643 2.78002,-3.06082 2.78006,-5.11319 -4e-5,-5.29648 -3.47549,-7.94474 -10.42637,-7.94477 -6.88428,3e-5 -10.3264,2.64829 -10.32638,7.94477 z"
         style="font-variant:normal;font-stretch:normal;fill:#000000;font-family:CodiceNero;-inkscape-font-specification:CodiceNero"
         id="path4023" />
    </g>
    <g
       style="font-size:99.28837585px;font-style:normal;font-weight:normal;line-height:125%;letter-spacing:0px;word-spacing:0px;fill:#000000;fill-opacity:1;stroke:none;font-family:Sans"
       id="text3892">
      <path
         d="m 479.40216,835.72559 15.48957,0 0,23.92824 21.04969,-23.92824 20.54974,0 -24.62211,28.29755 26.50982,41.00555 -19.95585,0 -17.97117,-28.00061 -5.56012,6.25703 0,21.74358 -15.48957,0 z"
         style="font-variant:normal;font-stretch:normal;fill:#000000;font-family:CodiceNero;-inkscape-font-specification:CodiceNero"
         id="path4026" />
      <path
         d="m 575.88169,853.79676 c 4.8965,5e-5 9.23148,2.05139 13.00493,6.15401 l 0.1,0 c -0.13337,5e-5 0.42921,-0.57919 1.68773,-1.73773 1.25843,-1.15843 2.81385,-2.13461 4.66627,-2.92853 2.58154,-1.05844 5.49441,-1.58769 8.73864,-1.58774 5.16312,5e-5 9.59808,1.80343 13.3049,5.41013 3.70667,3.60681 5.56005,7.79381 5.56013,12.56104 l 0,33.36075 -16.08649,0 0,-30.58221 c -6e-5,-1.65436 -0.56264,-3.0608 -1.68773,-4.21933 -1.12522,-1.15844 -2.71397,-1.73769 -4.76625,-1.73773 -1.91909,4e-5 -3.47451,0.56262 -4.66627,1.68774 -1.19187,1.12519 -1.78777,2.5483 -1.78772,4.26932 l 0,30.58221 -16.18345,0 0,-30.58221 c -3e-5,-1.65436 -0.62877,-3.07747 -1.8862,-4.26932 -1.2575,-1.19178 -2.81241,-1.78769 -4.66475,-1.78773 -1.78775,4e-5 -3.27752,0.59595 -4.46931,1.78773 -1.19184,1.19185 -1.78774,2.61496 -1.78772,4.26932 l 0,30.58221 -16.08346,0 0,-50.3411 14.49572,0 1.1908,2.78158 c 1.52308,-1.58769 3.11183,-2.61387 4.76626,-3.07853 1.38975,-0.39587 3.5744,-0.59383 6.55398,-0.59388 z"
         style="font-variant:normal;font-stretch:normal;fill:#000000;font-family:CodiceNero;-inkscape-font-specification:CodiceNero"
         id="path4028" />
    </g>
    <g
       style="font-size:41.90995789px;font-style:normal;font-weight:normal;line-height:125%;letter-spacing:0px;word-spacing:0px;fill:#000000;fill-opacity:1;stroke:none;font-family:Sans"
       id="text3763-7-4-4">
      <path
         d="m 84.857323,635.53363 -3.683492,0 0,-23.47203 c -0.886778,0.84586 -2.049805,1.6917 -3.489086,2.53752 -1.439298,0.84585 -2.731929,1.48023 -3.877899,1.90313 l 0,-3.56071 c 2.060021,-0.96859 3.860837,-2.14185 5.402456,-3.51978 1.541598,-1.37787 2.633002,-2.71484 3.274215,-4.01091 l 2.373806,0 z"
         style="font-variant:normal;font-stretch:normal;fill:#000000;font-family:Sans;-inkscape-font-specification:Sans"
         id="path4048" />
      <path
         d="m 92.572193,636.04523 8.697137,-31.02319 2.94679,0 -8.676669,31.02319 z"
         style="font-variant:normal;font-stretch:normal;fill:#000000;font-family:Sans;-inkscape-font-specification:Sans"
         id="path4050" />
      <path
         d="m 121.13972,632.85287 c -1.36427,1.15962 -2.67737,1.97817 -3.93929,2.45566 -1.26195,0.47749 -2.61597,0.71623 -4.06207,0.71623 -2.38746,0 -4.22238,-0.58322 -5.50478,-1.74966 -1.2824,-1.16643 -1.9236,-2.65688 -1.9236,-4.47135 0,-1.06411 0.24215,-2.03614 0.72647,-2.91609 0.48431,-0.87994 1.11868,-1.58594 1.90313,-2.11801 0.78445,-0.53205 1.6678,-0.93451 2.65007,-1.20737 0.72305,-0.19098 1.81446,-0.37516 3.27422,-0.55252 2.97406,-0.3547 5.16369,-0.77762 6.56889,-1.26876 0.0136,-0.50476 0.0205,-0.82536 0.0205,-0.9618 -2e-5,-1.50067 -0.3479,-2.55797 -1.04366,-3.1719 -0.94135,-0.83218 -2.33971,-1.24827 -4.19509,-1.24829 -1.73261,2e-5 -3.0116,0.30356 -3.83697,0.91064 -0.82538,0.60711 -1.43589,1.68146 -1.83151,3.22305 l -3.60164,-0.49113 c 0.32742,-1.54159 0.8663,-2.78647 1.61664,-3.73465 0.75034,-0.94814 1.83492,-1.67802 3.25376,-2.18963 1.41881,-0.51158 3.06274,-0.76737 4.93178,-0.7674 1.85538,3e-5 3.36288,0.21831 4.52251,0.65485 1.1596,0.43658 2.01226,0.98569 2.55798,1.64734 0.54569,0.66168 0.92768,1.49729 1.14598,2.50682 0.12276,0.62757 0.18415,1.7599 0.18417,3.397 l 0,4.91132 c -2e-5,3.42429 0.0784,5.59004 0.23534,6.49727 0.15687,0.90723 0.46723,1.77694 0.9311,2.60914 l -3.8472,0 c -0.38201,-0.76398 -0.62758,-1.65757 -0.7367,-2.68076 z m -0.30696,-8.22647 c -1.33698,0.54571 -3.34244,1.00956 -6.01637,1.39154 -1.51433,0.21829 -2.58527,0.46386 -3.21282,0.7367 -0.62757,0.27286 -1.11188,0.6719 -1.45293,1.19714 -0.34107,0.52524 -0.51161,1.10846 -0.5116,1.74965 -10e-6,0.98227 0.37175,1.80083 1.11528,2.45567 0.74351,0.65484 1.8315,0.98226 3.26398,0.98226 1.41882,0 2.68075,-0.31037 3.78581,-0.9311 1.10504,-0.62074 1.91677,-1.46999 2.4352,-2.54775 0.39562,-0.83219 0.59344,-2.06002 0.59345,-3.6835 z"
         style="font-variant:normal;font-stretch:normal;fill:#000000;font-family:Sans;-inkscape-font-specification:Sans"
         id="path4052" />
    </g>
    <g
       style="font-size:41.90995789px;font-style:normal;font-weight:normal;line-height:125%;letter-spacing:0px;word-spacing:0px;fill:#000000;fill-opacity:1;stroke:none;font-family:Sans"
       id="text3919">
      <path
         d="m 84.857323,1035.5337 -3.683492,0 0,-23.472 c -0.886778,0.8458 -2.049805,1.6917 -3.489086,2.5375 -1.439298,0.8458 -2.731929,1.4802 -3.877899,1.9031 l 0,-3.5607 c 2.060021,-0.9686 3.860837,-2.1419 5.402456,-3.5198 1.541598,-1.3778 2.633002,-2.7148 3.274215,-4.0109 l 2.373806,0 z"
         style="font-variant:normal;font-stretch:normal;fill:#000000;font-family:Sans;-inkscape-font-specification:Sans"
         id="path4041" />
      <path
         d="m 92.572193,1036.0453 8.697137,-31.0232 2.94679,0 -8.676669,31.0232 z"
         style="font-variant:normal;font-stretch:normal;fill:#000000;font-family:Sans;-inkscape-font-specification:Sans"
         id="path4043" />
      <path
         d="m 110.35527,1035.5337 -3.41746,0 0,-30 3.68349,0 0,10.7026 c 1.55525,-1.9509 3.54024,-2.9263 5.95498,-2.9263 1.33696,0 2.60231,0.2694 3.79605,0.8083 1.1937,0.5389 2.17597,1.296 2.94679,2.2715 0.77079,0.9754 1.37447,2.1521 1.81105,3.53 0.43654,1.3779 0.65482,2.8513 0.65484,4.4202 -2e-5,3.7244 -0.92089,6.603 -2.76262,8.6357 -1.84176,2.0328 -4.05185,3.0491 -6.63028,3.0491 -2.56481,0 -4.57709,-1.0709 -6.03684,-3.2128 z m -0.0409,-11.03 c -1e-5,2.6057 0.3547,4.4884 1.06412,5.648 1.15961,1.8963 2.7285,2.8445 4.70668,2.8445 1.60981,0 3.00135,-0.6992 4.17463,-2.0976 1.17324,-1.3983 1.75987,-3.4822 1.75989,-6.2517 -2e-5,-2.8376 -0.56278,-4.9317 -1.68827,-6.2824 -1.12553,-1.3506 -2.48637,-2.0259 -4.08254,-2.0259 -1.60983,0 -3.00137,0.6992 -4.17462,2.0975 -1.17327,1.3984 -1.7599,3.4209 -1.75989,6.0676 z"
         style="font-variant:normal;font-stretch:normal;fill:#000000;font-family:Sans;-inkscape-font-specification:Sans"
         id="path4045" />
    </g>
  </g>
</svg>
