<?xml version="1.0" encoding="UTF-8" standalone="no"?>
<!-- Created with Inkscape (http://www.inkscape.org/) -->

<svg
   xmlns:dc="http://purl.org/dc/elements/1.1/"
   xmlns:cc="http://creativecommons.org/ns#"
   xmlns:rdf="http://www.w3.org/1999/02/22-rdf-syntax-ns#"
   xmlns:svg="http://www.w3.org/2000/svg"
   xmlns="http://www.w3.org/2000/svg"
   xmlns:sodipodi="http://sodipodi.sourceforge.net/DTD/sodipodi-0.dtd"
   xmlns:inkscape="http://www.inkscape.org/namespaces/inkscape"
   version="1.1"
   width="200"
   height="200"
   id="svg2"
   inkscape:version="0.47 r22583"
   sodipodi:docname="Italian traffic signs - icona industria.svg"
   sodipodi:version="0.32"
   inkscape:output_extension="org.inkscape.output.svg.inkscape">
  <metadata
     id="metadata2877">
    <rdf:RDF>
      <cc:Work
         rdf:about="">
        <dc:format>image/svg+xml</dc:format>
        <dc:type
           rdf:resource="http://purl.org/dc/dcmitype/StillImage" />
        <dc:title></dc:title>
      </cc:Work>
    </rdf:RDF>
  </metadata>
  <sodipodi:namedview
     pagecolor="#ffffff"
     bordercolor="#666666"
     borderopacity="1"
     objecttolerance="10"
     gridtolerance="10"
     guidetolerance="10"
     inkscape:pageopacity="0"
     inkscape:pageshadow="2"
     inkscape:window-width="1600"
     inkscape:window-height="838"
     id="namedview2875"
     showgrid="false"
     inkscape:zoom="2.3765092"
     inkscape:cx="128.60019"
     inkscape:cy="113.46409"
     inkscape:window-x="-8"
     inkscape:window-y="-8"
     inkscape:window-maximized="1"
     inkscape:current-layer="svg2" />
  <defs
     id="defs4">
    <inkscape:perspective
       sodipodi:type="inkscape:persp3d"
       inkscape:vp_x="0 : 100 : 1"
       inkscape:vp_y="0 : 1000 : 0"
       inkscape:vp_z="200 : 100 : 1"
       inkscape:persp3d-origin="100 : 66.666667 : 1"
       id="perspective2879" />
    <inkscape:perspective
       id="perspective2839"
       inkscape:persp3d-origin="0.5 : 0.33333333 : 1"
       inkscape:vp_z="1 : 0.5 : 1"
       inkscape:vp_y="0 : 1000 : 0"
       inkscape:vp_x="0 : 0.5 : 1"
       sodipodi:type="inkscape:persp3d" />
    <inkscape:perspective
       id="perspective3649"
       inkscape:persp3d-origin="0.5 : 0.33333333 : 1"
       inkscape:vp_z="1 : 0.5 : 1"
       inkscape:vp_y="0 : 1000 : 0"
       inkscape:vp_x="0 : 0.5 : 1"
       sodipodi:type="inkscape:persp3d" />
    <inkscape:perspective
       id="perspective3679"
       inkscape:persp3d-origin="0.5 : 0.33333333 : 1"
       inkscape:vp_z="1 : 0.5 : 1"
       inkscape:vp_y="0 : 1000 : 0"
       inkscape:vp_x="0 : 0.5 : 1"
       sodipodi:type="inkscape:persp3d" />
    <inkscape:perspective
       id="perspective3713"
       inkscape:persp3d-origin="0.5 : 0.33333333 : 1"
       inkscape:vp_z="1 : 0.5 : 1"
       inkscape:vp_y="0 : 1000 : 0"
       inkscape:vp_x="0 : 0.5 : 1"
       sodipodi:type="inkscape:persp3d" />
    <inkscape:perspective
       id="perspective3741"
       inkscape:persp3d-origin="0.5 : 0.33333333 : 1"
       inkscape:vp_z="1 : 0.5 : 1"
       inkscape:vp_y="0 : 1000 : 0"
       inkscape:vp_x="0 : 0.5 : 1"
       sodipodi:type="inkscape:persp3d" />
    <inkscape:perspective
       id="perspective3765"
       inkscape:persp3d-origin="0.5 : 0.33333333 : 1"
       inkscape:vp_z="1 : 0.5 : 1"
       inkscape:vp_y="0 : 1000 : 0"
       inkscape:vp_x="0 : 0.5 : 1"
       sodipodi:type="inkscape:persp3d" />
    <inkscape:perspective
       id="perspective3801"
       inkscape:persp3d-origin="0.5 : 0.33333333 : 1"
       inkscape:vp_z="1 : 0.5 : 1"
       inkscape:vp_y="0 : 1000 : 0"
       inkscape:vp_x="0 : 0.5 : 1"
       sodipodi:type="inkscape:persp3d" />
    <inkscape:perspective
       id="perspective2863"
       inkscape:persp3d-origin="0.5 : 0.33333333 : 1"
       inkscape:vp_z="1 : 0.5 : 1"
       inkscape:vp_y="0 : 1000 : 0"
       inkscape:vp_x="0 : 0.5 : 1"
       sodipodi:type="inkscape:persp3d" />
    <inkscape:perspective
       id="perspective3859"
       inkscape:persp3d-origin="0.5 : 0.33333333 : 1"
       inkscape:vp_z="1 : 0.5 : 1"
       inkscape:vp_y="0 : 1000 : 0"
       inkscape:vp_x="0 : 0.5 : 1"
       sodipodi:type="inkscape:persp3d" />
    <inkscape:perspective
       id="perspective3964"
       inkscape:persp3d-origin="0.5 : 0.33333333 : 1"
       inkscape:vp_z="1 : 0.5 : 1"
       inkscape:vp_y="0 : 1000 : 0"
       inkscape:vp_x="0 : 0.5 : 1"
       sodipodi:type="inkscape:persp3d" />
    <inkscape:perspective
       id="perspective3988"
       inkscape:persp3d-origin="0.5 : 0.33333333 : 1"
       inkscape:vp_z="1 : 0.5 : 1"
       inkscape:vp_y="0 : 1000 : 0"
       inkscape:vp_x="0 : 0.5 : 1"
       sodipodi:type="inkscape:persp3d" />
    <inkscape:perspective
       id="perspective2879-7"
       inkscape:persp3d-origin="0.5 : 0.33333333 : 1"
       inkscape:vp_z="1 : 0.5 : 1"
       inkscape:vp_y="0 : 1000 : 0"
       inkscape:vp_x="0 : 0.5 : 1"
       sodipodi:type="inkscape:persp3d" />
    <inkscape:perspective
       id="perspective4031"
       inkscape:persp3d-origin="0.5 : 0.33333333 : 1"
       inkscape:vp_z="1 : 0.5 : 1"
       inkscape:vp_y="0 : 1000 : 0"
       inkscape:vp_x="0 : 0.5 : 1"
       sodipodi:type="inkscape:persp3d" />
    <inkscape:perspective
       id="perspective4047"
       inkscape:persp3d-origin="0.5 : 0.33333333 : 1"
       inkscape:vp_z="1 : 0.5 : 1"
       inkscape:vp_y="0 : 1000 : 0"
       inkscape:vp_x="0 : 0.5 : 1"
       sodipodi:type="inkscape:persp3d" />
    <inkscape:perspective
       id="perspective4063"
       inkscape:persp3d-origin="0.5 : 0.33333333 : 1"
       inkscape:vp_z="1 : 0.5 : 1"
       inkscape:vp_y="0 : 1000 : 0"
       inkscape:vp_x="0 : 0.5 : 1"
       sodipodi:type="inkscape:persp3d" />
    <inkscape:perspective
       id="perspective4079"
       inkscape:persp3d-origin="0.5 : 0.33333333 : 1"
       inkscape:vp_z="1 : 0.5 : 1"
       inkscape:vp_y="0 : 1000 : 0"
       inkscape:vp_x="0 : 0.5 : 1"
       sodipodi:type="inkscape:persp3d" />
    <inkscape:perspective
       id="perspective4097"
       inkscape:persp3d-origin="0.5 : 0.33333333 : 1"
       inkscape:vp_z="1 : 0.5 : 1"
       inkscape:vp_y="0 : 1000 : 0"
       inkscape:vp_x="0 : 0.5 : 1"
       sodipodi:type="inkscape:persp3d" />
    <inkscape:perspective
       id="perspective4115"
       inkscape:persp3d-origin="0.5 : 0.33333333 : 1"
       inkscape:vp_z="1 : 0.5 : 1"
       inkscape:vp_y="0 : 1000 : 0"
       inkscape:vp_x="0 : 0.5 : 1"
       sodipodi:type="inkscape:persp3d" />
    <inkscape:perspective
       id="perspective4129"
       inkscape:persp3d-origin="0.5 : 0.33333333 : 1"
       inkscape:vp_z="1 : 0.5 : 1"
       inkscape:vp_y="0 : 1000 : 0"
       inkscape:vp_x="0 : 0.5 : 1"
       sodipodi:type="inkscape:persp3d" />
    <inkscape:perspective
       id="perspective4153"
       inkscape:persp3d-origin="0.5 : 0.33333333 : 1"
       inkscape:vp_z="1 : 0.5 : 1"
       inkscape:vp_y="0 : 1000 : 0"
       inkscape:vp_x="0 : 0.5 : 1"
       sodipodi:type="inkscape:persp3d" />
    <inkscape:perspective
       id="perspective4179"
       inkscape:persp3d-origin="0.5 : 0.33333333 : 1"
       inkscape:vp_z="1 : 0.5 : 1"
       inkscape:vp_y="0 : 1000 : 0"
       inkscape:vp_x="0 : 0.5 : 1"
       sodipodi:type="inkscape:persp3d" />
    <inkscape:perspective
       id="perspective4195"
       inkscape:persp3d-origin="0.5 : 0.33333333 : 1"
       inkscape:vp_z="1 : 0.5 : 1"
       inkscape:vp_y="0 : 1000 : 0"
       inkscape:vp_x="0 : 0.5 : 1"
       sodipodi:type="inkscape:persp3d" />
    <inkscape:perspective
       id="perspective4213"
       inkscape:persp3d-origin="0.5 : 0.33333333 : 1"
       inkscape:vp_z="1 : 0.5 : 1"
       inkscape:vp_y="0 : 1000 : 0"
       inkscape:vp_x="0 : 0.5 : 1"
       sodipodi:type="inkscape:persp3d" />
    <inkscape:perspective
       id="perspective4267"
       inkscape:persp3d-origin="0.5 : 0.33333333 : 1"
       inkscape:vp_z="1 : 0.5 : 1"
       inkscape:vp_y="0 : 1000 : 0"
       inkscape:vp_x="0 : 0.5 : 1"
       sodipodi:type="inkscape:persp3d" />
    <inkscape:perspective
       id="perspective4283"
       inkscape:persp3d-origin="0.5 : 0.33333333 : 1"
       inkscape:vp_z="1 : 0.5 : 1"
       inkscape:vp_y="0 : 1000 : 0"
       inkscape:vp_x="0 : 0.5 : 1"
       sodipodi:type="inkscape:persp3d" />
    <inkscape:perspective
       id="perspective4314"
       inkscape:persp3d-origin="0.5 : 0.33333333 : 1"
       inkscape:vp_z="1 : 0.5 : 1"
       inkscape:vp_y="0 : 1000 : 0"
       inkscape:vp_x="0 : 0.5 : 1"
       sodipodi:type="inkscape:persp3d" />
    <inkscape:perspective
       id="perspective4330"
       inkscape:persp3d-origin="0.5 : 0.33333333 : 1"
       inkscape:vp_z="1 : 0.5 : 1"
       inkscape:vp_y="0 : 1000 : 0"
       inkscape:vp_x="0 : 0.5 : 1"
       sodipodi:type="inkscape:persp3d" />
    <inkscape:perspective
       id="perspective4346"
       inkscape:persp3d-origin="0.5 : 0.33333333 : 1"
       inkscape:vp_z="1 : 0.5 : 1"
       inkscape:vp_y="0 : 1000 : 0"
       inkscape:vp_x="0 : 0.5 : 1"
       sodipodi:type="inkscape:persp3d" />
    <inkscape:perspective
       id="perspective3742"
       inkscape:persp3d-origin="0.5 : 0.33333333 : 1"
       inkscape:vp_z="1 : 0.5 : 1"
       inkscape:vp_y="0 : 1000 : 0"
       inkscape:vp_x="0 : 0.5 : 1"
       sodipodi:type="inkscape:persp3d" />
    <inkscape:perspective
       id="perspective3776"
       inkscape:persp3d-origin="0.5 : 0.33333333 : 1"
       inkscape:vp_z="1 : 0.5 : 1"
       inkscape:vp_y="0 : 1000 : 0"
       inkscape:vp_x="0 : 0.5 : 1"
       sodipodi:type="inkscape:persp3d" />
    <inkscape:perspective
       id="perspective3792"
       inkscape:persp3d-origin="0.5 : 0.33333333 : 1"
       inkscape:vp_z="1 : 0.5 : 1"
       inkscape:vp_y="0 : 1000 : 0"
       inkscape:vp_x="0 : 0.5 : 1"
       sodipodi:type="inkscape:persp3d" />
    <inkscape:perspective
       id="perspective3808"
       inkscape:persp3d-origin="0.5 : 0.33333333 : 1"
       inkscape:vp_z="1 : 0.5 : 1"
       inkscape:vp_y="0 : 1000 : 0"
       inkscape:vp_x="0 : 0.5 : 1"
       sodipodi:type="inkscape:persp3d" />
    <inkscape:perspective
       id="perspective3824"
       inkscape:persp3d-origin="0.5 : 0.33333333 : 1"
       inkscape:vp_z="1 : 0.5 : 1"
       inkscape:vp_y="0 : 1000 : 0"
       inkscape:vp_x="0 : 0.5 : 1"
       sodipodi:type="inkscape:persp3d" />
    <inkscape:perspective
       id="perspective4354"
       inkscape:persp3d-origin="0.5 : 0.33333333 : 1"
       inkscape:vp_z="1 : 0.5 : 1"
       inkscape:vp_y="0 : 1000 : 0"
       inkscape:vp_x="0 : 0.5 : 1"
       sodipodi:type="inkscape:persp3d" />
    <inkscape:perspective
       id="perspective4395"
       inkscape:persp3d-origin="0.5 : 0.33333333 : 1"
       inkscape:vp_z="1 : 0.5 : 1"
       inkscape:vp_y="0 : 1000 : 0"
       inkscape:vp_x="0 : 0.5 : 1"
       sodipodi:type="inkscape:persp3d" />
    <inkscape:perspective
       id="perspective4435"
       inkscape:persp3d-origin="0.5 : 0.33333333 : 1"
       inkscape:vp_z="1 : 0.5 : 1"
       inkscape:vp_y="0 : 1000 : 0"
       inkscape:vp_x="0 : 0.5 : 1"
       sodipodi:type="inkscape:persp3d" />
    <inkscape:perspective
       id="perspective4460"
       inkscape:persp3d-origin="0.5 : 0.33333333 : 1"
       inkscape:vp_z="1 : 0.5 : 1"
       inkscape:vp_y="0 : 1000 : 0"
       inkscape:vp_x="0 : 0.5 : 1"
       sodipodi:type="inkscape:persp3d" />
    <inkscape:perspective
       id="perspective4479"
       inkscape:persp3d-origin="0.5 : 0.33333333 : 1"
       inkscape:vp_z="1 : 0.5 : 1"
       inkscape:vp_y="0 : 1000 : 0"
       inkscape:vp_x="0 : 0.5 : 1"
       sodipodi:type="inkscape:persp3d" />
    <inkscape:perspective
       id="perspective4495"
       inkscape:persp3d-origin="0.5 : 0.33333333 : 1"
       inkscape:vp_z="1 : 0.5 : 1"
       inkscape:vp_y="0 : 1000 : 0"
       inkscape:vp_x="0 : 0.5 : 1"
       sodipodi:type="inkscape:persp3d" />
    <inkscape:perspective
       id="perspective4511"
       inkscape:persp3d-origin="0.5 : 0.33333333 : 1"
       inkscape:vp_z="1 : 0.5 : 1"
       inkscape:vp_y="0 : 1000 : 0"
       inkscape:vp_x="0 : 0.5 : 1"
       sodipodi:type="inkscape:persp3d" />
    <inkscape:perspective
       id="perspective4527"
       inkscape:persp3d-origin="0.5 : 0.33333333 : 1"
       inkscape:vp_z="1 : 0.5 : 1"
       inkscape:vp_y="0 : 1000 : 0"
       inkscape:vp_x="0 : 0.5 : 1"
       sodipodi:type="inkscape:persp3d" />
    <inkscape:perspective
       id="perspective4543"
       inkscape:persp3d-origin="0.5 : 0.33333333 : 1"
       inkscape:vp_z="1 : 0.5 : 1"
       inkscape:vp_y="0 : 1000 : 0"
       inkscape:vp_x="0 : 0.5 : 1"
       sodipodi:type="inkscape:persp3d" />
    <inkscape:perspective
       id="perspective4559"
       inkscape:persp3d-origin="0.5 : 0.33333333 : 1"
       inkscape:vp_z="1 : 0.5 : 1"
       inkscape:vp_y="0 : 1000 : 0"
       inkscape:vp_x="0 : 0.5 : 1"
       sodipodi:type="inkscape:persp3d" />
    <inkscape:perspective
       id="perspective4575"
       inkscape:persp3d-origin="0.5 : 0.33333333 : 1"
       inkscape:vp_z="1 : 0.5 : 1"
       inkscape:vp_y="0 : 1000 : 0"
       inkscape:vp_x="0 : 0.5 : 1"
       sodipodi:type="inkscape:persp3d" />
    <inkscape:perspective
       id="perspective4591"
       inkscape:persp3d-origin="0.5 : 0.33333333 : 1"
       inkscape:vp_z="1 : 0.5 : 1"
       inkscape:vp_y="0 : 1000 : 0"
       inkscape:vp_x="0 : 0.5 : 1"
       sodipodi:type="inkscape:persp3d" />
    <inkscape:perspective
       id="perspective4607"
       inkscape:persp3d-origin="0.5 : 0.33333333 : 1"
       inkscape:vp_z="1 : 0.5 : 1"
       inkscape:vp_y="0 : 1000 : 0"
       inkscape:vp_x="0 : 0.5 : 1"
       sodipodi:type="inkscape:persp3d" />
    <inkscape:perspective
       id="perspective4629"
       inkscape:persp3d-origin="0.5 : 0.33333333 : 1"
       inkscape:vp_z="1 : 0.5 : 1"
       inkscape:vp_y="0 : 1000 : 0"
       inkscape:vp_x="0 : 0.5 : 1"
       sodipodi:type="inkscape:persp3d" />
    <inkscape:perspective
       id="perspective4674"
       inkscape:persp3d-origin="0.5 : 0.33333333 : 1"
       inkscape:vp_z="1 : 0.5 : 1"
       inkscape:vp_y="0 : 1000 : 0"
       inkscape:vp_x="0 : 0.5 : 1"
       sodipodi:type="inkscape:persp3d" />
    <inkscape:perspective
       id="perspective4690"
       inkscape:persp3d-origin="0.5 : 0.33333333 : 1"
       inkscape:vp_z="1 : 0.5 : 1"
       inkscape:vp_y="0 : 1000 : 0"
       inkscape:vp_x="0 : 0.5 : 1"
       sodipodi:type="inkscape:persp3d" />
    <inkscape:perspective
       id="perspective4735"
       inkscape:persp3d-origin="0.5 : 0.33333333 : 1"
       inkscape:vp_z="1 : 0.5 : 1"
       inkscape:vp_y="0 : 1000 : 0"
       inkscape:vp_x="0 : 0.5 : 1"
       sodipodi:type="inkscape:persp3d" />
    <inkscape:perspective
       id="perspective4751"
       inkscape:persp3d-origin="0.5 : 0.33333333 : 1"
       inkscape:vp_z="1 : 0.5 : 1"
       inkscape:vp_y="0 : 1000 : 0"
       inkscape:vp_x="0 : 0.5 : 1"
       sodipodi:type="inkscape:persp3d" />
  </defs>
  <path
     style="fill:#ffffff;fill-opacity:1;stroke:none"
     d="m -4.9305571,-3.438081 207.7153771,0 0,207.348391 -207.7153771,0 0,-207.348391 z"
     id="rect2881" />
  <path
     style="fill:none;stroke:#000000;stroke-width:3;stroke-miterlimit:4;stroke-opacity:1"
     d="m 21.814432,2.8621521 157.645218,0 c 10.29357,0 18.58045,8.2868829 18.58045,18.5804539 l 0,157.645234 c 0,10.29357 -8.28688,18.58045 -18.58045,18.58045 l -157.645218,0 c -10.293571,0 -18.5804535,-8.28688 -18.5804535,-18.58045 l 0,-157.645234 c 0,-10.293571 8.2868825,-18.5804539 18.5804535,-18.5804539 z"
     id="rect4614" />
  <path
     style="fill:#000000"
     d="m 126.96444,183.16264 c -0.16547,-1.94524 -0.53652,-2.21316 -4.14357,-2.99186 -2.22662,-0.48069 -2.94449,-0.44179 -5.1481,0.27897 -2.37996,0.77845 -3.30296,0.7955 -13.07846,0.24169 -10.00916,-0.56705 -10.563862,-0.55417 -11.470563,0.26638 -0.524024,0.47424 -1.253856,1.44448 -1.621848,2.1561 l -0.669074,1.29384 -9.374894,0 c -8.160916,0 -9.339675,-0.0918 -9.102949,-0.70867 0.471693,-1.22921 -0.293052,-3.91007 -1.537153,-5.38861 -0.935292,-1.11153 -1.578948,-1.42409 -2.932598,-1.42409 -2.375987,0 -7.821777,-2.69479 -10.811161,-5.34979 -2.2438,-1.99281 -2.647237,-2.17159 -4.900457,-2.17159 -3.020382,0 -5.343078,-0.63379 -6.637682,-1.81121 -1.505255,-1.36901 -4.364251,-2.11048 -8.503793,-2.20543 l -3.760687,-0.0863 -0.855306,-1.69655 c -0.470419,-0.93311 -0.970663,-2.81425 -1.111653,-4.18031 l -0.256347,-2.48376 4.028694,-2.26133 c 7.871765,-4.41848 9.059439,-8.01897 3.349843,-10.1552 -1.432765,-0.53607 -3.125939,-0.97467 -3.762608,-0.97467 -1.46666,0 -1.459008,-0.50981 0.03429,-2.28449 1.45429,-1.72833 4.902169,-2.57402 9.539182,-2.33977 2.981605,0.15062 3.144152,0.1043 3.29178,-0.93802 0.08541,-0.60305 -0.16279,-1.4492 -0.551561,-1.88034 -0.541048,-0.6 -2.189209,-6.16682 -2.189209,-7.39425 0,-0.11323 1.322117,-0.20123 2.938037,-0.19556 2.979508,0.0105 6.250694,1.10614 7.983008,2.67386 0.763541,0.691 0.831102,0.68767 0.831102,-0.041 0,-1.12872 -1.144118,-3.71852 -1.931042,-4.37105 -0.512676,-0.42513 -1.369967,-0.40182 -3.715987,0.101 -1.677257,0.35949 -5.541933,0.66105 -8.588167,0.67014 -3.622969,0.0108 -6.061798,0.24037 -7.051288,0.66374 -2.076373,0.88842 -3.931237,3.02221 -4.341014,4.9938 -0.519181,2.49797 -1.974975,5.06947 -4.242122,7.49323 -1.126025,1.20382 -2.285592,2.8132 -2.576815,3.5764 -1.17084,3.06841 -2.381114,9.44334 -3.744015,19.721 -0.788566,5.94658 -1.563478,11.71101 -1.722026,12.80984 l -0.288271,1.99786 -2.765145,0 -2.765146,0 0.124048,-48.10299 0.124048,-48.102991 1.322273,-1.733474 c 1.790634,-2.347482 5.20509,-4.22218 11.307605,-6.208406 10.230202,-3.329684 21.1248,-3.857172 32.028279,-1.550719 4.320968,0.91403 6.56182,1.093344 13.63249,1.090867 8.645889,-0.0028 11.33974,-0.34681 17.158134,-2.189716 8.908959,-2.821804 11.948818,-6.05913 23.974378,-25.531747 7.6864,-12.44635 10.47731,-16.234872 13.65024,-18.529498 2.33517,-1.688771 2.8183,-2.259303 2.58746,-3.055558 -1.03723,-3.577923 -2.21485,-9.28254 -1.96731,-9.530078 0.62086,-0.62086 5.39079,0.888919 7.68087,2.431151 1.31501,0.885582 2.99567,2.545987 3.7348,3.689792 0.87982,1.361517 1.91202,2.286359 2.98918,2.678274 2.75305,1.001676 4.93527,2.610657 7.42998,5.478232 2.9507,3.391723 5.91185,5.207014 12.54867,7.692797 7.08958,2.655362 11.19238,4.898144 14.4102,7.87727 2.99157,2.769666 3.68113,4.347903 3.68548,8.435074 0.002,2.1756 -0.19794,2.68859 -1.69738,4.348294 -1.44633,1.600911 -1.98168,1.881698 -3.58768,1.881698 -1.03822,0 -2.54726,-0.394708 -3.35342,-0.877124 -1.22804,-0.734881 -3.25726,-0.971494 -12.51276,-1.459034 C 152.00339,57.1788 145.763,56.991772 144.21171,57.083237 l -2.82051,0.166292 -0.85225,2.570581 c -0.63534,1.916323 -0.90599,4.548532 -1.06341,10.341889 -0.25559,9.406588 -0.99208,21.76744 -1.4241,23.901526 l -0.31531,1.55755 4.17796,-0.382335 c 8.26797,-0.756627 13.59808,-0.427134 18.35914,1.134914 5.48708,1.800246 9.48958,4.049386 13.21139,7.423926 3.68261,3.339 6.38653,8.56085 7.46958,14.42538 0.39598,2.14413 1.33157,5.8289 2.0791,8.18836 2.48332,7.83828 2.85116,10.493 3.19121,23.03092 l 0.32024,11.80802 1.75017,2.8355 c 2.16387,3.50575 2.30684,5.42186 0.45743,6.13088 -3.70646,1.42095 -6.89753,1.19132 -7.46345,-0.53707 -0.58771,-1.79494 -0.31083,-11.2351 0.44354,-15.12226 0.4014,-2.06838 0.85914,-5.13569 1.01721,-6.81625 0.3213,-3.41603 -0.33349,-10.29969 -1.18497,-12.45727 -0.53336,-1.35152 -0.61105,-1.19167 -1.86509,3.83789 -1.60818,6.44988 -3.33008,9.75698 -7.79153,14.96443 -2.02395,2.36238 -3.65218,4.75117 -3.93668,5.77556 -1.15068,4.1432 -0.21684,11.96516 2.34741,19.66214 1.64031,4.92363 1.55687,5.33228 -1.09171,5.34684 -1.11521,0.006 -1.45322,-0.32401 -2.2788,-2.22571 -0.53315,-1.2281 -1.49056,-4.24253 -2.12759,-6.69872 -1.01226,-3.90304 -1.13823,-5.26556 -0.99964,-10.81198 0.18626,-7.45444 0.64539,-8.66456 5.17225,-13.63249 3.32435,-3.64826 4.54821,-5.91398 6.80196,-12.59237 1.48201,-4.39158 1.7258,-5.75754 1.90555,-10.67688 0.36808,-10.07369 -1.46411,-15.56881 -7.04362,-21.12524 -3.9436,-3.9273 -7.48699,-5.86133 -13.51811,-7.378387 -5.11211,-1.285887 -10.32374,-1.040976 -22.79917,1.071407 -6.99708,1.18477 -10.35709,1.51805 -15.51283,1.53872 -7.30878,0.0293 -9.01147,-0.33175 -16.45301,-3.488924 -7.263792,-3.081761 -16.427209,-4.360258 -29.615407,-4.131994 -7.356876,0.127337 -8.121988,0.06164 -9.635223,-0.827304 -2.285515,-1.342617 -2.307806,-2.279352 -0.08758,-3.680918 1.834416,-1.158019 2.906559,-3.076656 2.906559,-5.201392 0,-2.525038 -3.036867,-2.865183 -6.508611,-0.729 -1.260578,0.775642 -2.490021,1.410258 -2.732097,1.410258 -0.242071,0 -0.681676,-1.410117 -0.976895,-3.133593 -0.378579,-2.210113 -0.874355,-3.47118 -1.682296,-4.279126 l -1.145533,-1.145533 0.02849,3.029068 c 0.0362,3.847287 -1.027425,5.836493 -3.898996,7.292006 -3.745262,1.898362 -9.874347,1.08265 -12.257222,-1.631297 -0.760326,-0.865973 -1.382418,-1.990212 -1.382418,-2.498314 0,-1.101975 -0.60138,-1.193322 -1.413559,-0.214707 -0.801982,0.966332 -0.281488,3.863058 0.924857,5.147154 1.26209,1.34343 1.217449,1.533603 -0.445741,1.898898 -0.772491,0.169668 -1.825528,0.8437 -2.340081,1.497848 -1.135384,1.443409 -0.689074,2.597065 1.428311,3.692008 3.295996,1.704423 2.841054,4.727252 -1.401436,9.311752 -5.389597,5.82407 -6.114387,7.33817 -4.299129,8.98095 0.504413,0.45649 0.978883,1.59071 1.057694,2.52842 0.128953,1.53431 0.326743,1.75567 2.023268,2.26443 2.399512,0.71957 7.650329,0.78808 9.553436,0.12466 1.22815,-0.42814 1.680022,-0.36326 2.773142,0.39818 2.003684,1.39571 4.221819,1.99364 7.395847,1.99364 2.299034,0 3.20174,0.22698 4.390404,1.10395 1.933689,1.42663 3.910621,3.92954 4.98418,6.31027 1.031387,2.28721 1.639805,2.45523 8.921186,2.46358 4.392929,0.005 5.831429,0.20581 8.990392,1.25479 4.827815,1.60313 9.425912,1.64704 18.306986,0.17482 7.584732,-1.25732 10.354412,-1.15782 17.684402,0.63535 2.69834,0.66011 9.10181,1.73803 14.22992,2.39539 5.12811,0.65736 10.07267,1.50808 10.98791,1.89049 3.97466,1.66072 7.968,5.14156 13.40798,11.68723 0.9878,1.18858 1.2552,1.2874 2.16545,0.80025 0.9609,-0.51427 0.98499,-0.63216 0.32239,-1.57814 -0.39385,-0.5623 -0.71609,-1.71025 -0.71609,-2.551 0,-1.2348 0.28081,-1.67384 1.46089,-2.28409 1.94084,-1.00364 3.51339,-0.54246 4.47213,1.31152 l 0.77917,1.50676 2.06551,-2.28143 c 1.13603,-1.25478 2.21079,-2.13615 2.38835,-1.95858 1.13614,1.13613 -5.60275,9.41557 -9.0036,11.0619 l -2.02552,0.98054 -0.3288,5.51471 c -0.18084,3.0331 -0.53449,6.46664 -0.78588,7.6301 -0.87176,4.03451 -5.65839,15.09625 -7.37381,17.04062 -0.644,0.72995 -1.74735,0.82265 -9.79122,0.82265 l -9.06545,0 -0.14589,-1.71521 z"
     id="path4757"
     sodipodi:nodetypes="csssscccssssssccccccsssssssssssssssssscccccccssssssssssssssssssscccscccsssscccsssssssssssssssssssssssssssscccsssssssssssssssssssssssssssscccscccssccc" />
</svg>
