<?xml version="1.0" encoding="UTF-8" standalone="no"?>
<!-- Created with Inkscape (http://www.inkscape.org/) -->

<svg
   xmlns:dc="http://purl.org/dc/elements/1.1/"
   xmlns:cc="http://creativecommons.org/ns#"
   xmlns:rdf="http://www.w3.org/1999/02/22-rdf-syntax-ns#"
   xmlns:svg="http://www.w3.org/2000/svg"
   xmlns="http://www.w3.org/2000/svg"
   xmlns:sodipodi="http://sodipodi.sourceforge.net/DTD/sodipodi-0.dtd"
   xmlns:inkscape="http://www.inkscape.org/namespaces/inkscape"
   width="2000"
   height="900"
   id="svg2"
   version="1.1"
   inkscape:version="0.48.5 r10040"
   sodipodi:docname="CANC Pieeee.svg">
  <defs
     id="defs4" />
  <sodipodi:namedview
     id="base"
     pagecolor="#ffffff"
     bordercolor="#666666"
     borderopacity="1.0"
     inkscape:pageopacity="0.0"
     inkscape:pageshadow="2"
     inkscape:zoom="0.1767767"
     inkscape:cx="9.6874505"
     inkscape:cy="577.94445"
     inkscape:document-units="px"
     inkscape:current-layer="layer1"
     showgrid="false"
     inkscape:object-nodes="true"
     inkscape:object-paths="true"
     inkscape:snap-midpoints="true"
     fit-margin-top="0"
     fit-margin-left="0"
     fit-margin-right="0"
     fit-margin-bottom="0"
     inkscape:window-width="1366"
     inkscape:window-height="705"
     inkscape:window-x="-8"
     inkscape:window-y="-8"
     inkscape:window-maximized="1" />
  <metadata
     id="metadata7">
    <rdf:RDF>
      <cc:Work
         rdf:about="">
        <dc:format>image/svg+xml</dc:format>
        <dc:type
           rdf:resource="http://purl.org/dc/dcmitype/StillImage" />
        <dc:title></dc:title>
      </cc:Work>
    </rdf:RDF>
  </metadata>
  <g
     inkscape:label="Livello 1"
     inkscape:groupmode="layer"
     id="layer1"
     transform="translate(0,-152.36218)">
    <rect
       style="fill:#00408b;fill-opacity:1;fill-rule:evenodd;stroke:none"
       id="rect2985-5-7"
       width="2000"
       height="900"
       x="0"
       y="152.36218" />
    <path
       style="fill:#d40000;fill-opacity:1;stroke:none"
       d="m 380.57506,1028.1186 1598.18784,-359.48803 -14.0161,-30.4308 -45.4568,-16.1625 -277.0974,-0.6944 -1620.763942,364.6801 13.9268,23.91293 22.2233,16.1624 35.3554,6.0609 z"
       id="path4461-7"
       inkscape:connector-curvature="0" />
    <rect
       style="fill:none;stroke:#ffffff;stroke-width:18.39999962;stroke-miterlimit:4;stroke-opacity:1;stroke-dasharray:none"
       id="rect5306"
       width="1963.2001"
       height="413.20001"
       x="18.4"
       y="620.76215"
       rx="64.299995"
       ry="64.299995" />
    <rect
       ry="64.299995"
       rx="64.299995"
       y="170.76216"
       x="18.4"
       height="413.20001"
       width="1963.2001"
       id="rect5336"
       style="fill:none;stroke:#ffffff;stroke-width:18.39999962;stroke-miterlimit:4;stroke-opacity:1;stroke-dasharray:none" />
    <g
       style="font-size:213.37037659px;font-style:normal;font-weight:normal;line-height:125%;letter-spacing:0px;word-spacing:0px;fill:#ffffff;fill-opacity:1;stroke:none;font-family:Sans"
       id="text4889-5-1">
      <path
         d="m 404.70134,875.26766 68.91821,0 0,27.09454 -98.36343,0 0,-150 29.44522,0 z"
         style="font-variant:normal;font-stretch:normal;text-align:center;text-anchor:middle;fill:#ffffff;font-family:CodiceBianco;-inkscape-font-specification:CodiceBianco"
         id="path5413" />
      <path
         d="m 634.585,826.40501 c -1.5e-4,24.03635 -6.89805,43.23888 -20.6937,57.60765 -13.22724,13.6569 -30.29616,20.48534 -51.2068,20.48533 -20.91081,1e-5 -37.91028,-6.82843 -50.99844,-20.48533 -13.79582,-14.36877 -20.69371,-33.5713 -20.6937,-57.60765 -1e-5,-23.47185 7.60981,-42.32059 22.82949,-56.54628 13.65683,-12.65829 29.94437,-18.98751 48.86265,-18.98767 18.91811,1.6e-4 35.20564,6.32938 48.86265,18.98767 15.35842,14.22569 23.0377,33.07443 23.03785,56.54628 z m -32.85727,0 c -1.2e-4,-14.08221 -3.59123,-25.32005 -10.77335,-33.71354 -7.18234,-8.39326 -16.60563,-12.58995 -28.26988,-12.59008 -11.66443,1.3e-4 -21.01717,4.19682 -28.05826,12.59008 -7.0412,8.39349 -10.56177,19.63133 -10.56173,33.71354 -4e-5,14.65105 2.98658,26.1005 8.95989,34.34841 6.68513,9.38969 16.57182,14.08451 29.6601,14.08447 13.22702,4e-5 23.18317,-4.69478 29.86846,-14.08447 6.1164,-8.39116 9.17465,-19.84062 9.17477,-34.34841 z"
         style="font-variant:normal;font-stretch:normal;text-align:center;text-anchor:middle;fill:#ffffff;font-family:CodiceBianco;-inkscape-font-specification:CodiceBianco"
         id="path5415" />
      <path
         d="m 695.08379,752.3622 41.60879,58.2523 42.03204,-58.2523 34.77817,0 0,150 -29.86847,0 0,-104.76428 -46.94174,63.1555 -46.51198,-63.1555 0,104.76428 -29.87498,0 0,-150 z"
         style="font-variant:normal;font-stretch:normal;text-align:center;text-anchor:middle;fill:#ffffff;font-family:CodiceBianco;-inkscape-font-specification:CodiceBianco"
         id="path5417" />
      <path
         d="m 921.7833,752.3622 c 9.10304,1.6e-4 17.56804,3.84197 25.39503,11.52544 8.39109,8.10485 12.58669,17.34906 12.58682,27.73268 -1.3e-4,10.95687 -4.97929,21.19953 -14.93749,30.72799 14.08218,7.68371 21.12332,19.77564 21.12346,36.27583 -1.4e-4,10.80921 -3.34273,20.33994 -10.02778,28.5922 -7.11073,8.95991 -16.56983,14.08015 -28.37733,15.36074 l -83.42594,0 0,-150.21488 z m -46.08873,60.38158 35.84606,0 c 4.4104,10e-5 8.03841,-1.70593 10.88405,-5.11808 2.84545,-3.41194 4.26822,-7.32321 4.26832,-11.7338 -10e-5,-9.81495 -5.40468,-15.2217 -16.21375,-16.22027 l -34.78468,0 z m 0,62.52388 38.61998,0 c 5.97751,3e-5 10.74396,-1.84925 14.29936,-5.54784 2.98652,-3.41635 4.47984,-7.61412 4.47994,-12.59334 -10e-5,-4.69259 -1.45869,-8.88819 -4.37576,-12.58682 -2.91727,-3.69848 -6.93489,-5.8321 -12.05287,-6.40085 l -40.97065,0 z"
         style="font-variant:normal;font-stretch:normal;text-align:center;text-anchor:middle;fill:#ffffff;font-family:CodiceBianco;-inkscape-font-specification:CodiceBianco"
         id="path5419" />
      <path
         d="m 1027.4722,752.3622 43.0999,0 50.992,150 -33.0722,0 -8.5301,-25.18015 -61.2411,0 -8.3218,25.18015 -32.00423,0 z m 21.5467,33.71028 -20.9086,63.16201 42.6767,0 z"
         style="font-variant:normal;font-stretch:normal;text-align:center;text-anchor:middle;fill:#ffffff;font-family:CodiceBianco;-inkscape-font-specification:CodiceBianco"
         id="path5421" />
      <path
         d="m 1213.1294,752.3622 c 11.521,1.6e-4 21.6921,4.19576 30.5132,12.58682 9.2462,8.82112 13.8694,19.63244 13.8696,32.43402 -2e-4,11.5212 -3.842,21.33626 -11.5255,29.44522 -5.6912,6.11659 -12.5891,10.5987 -20.6937,13.44634 l 38.62,62.0876 -33.7168,0 -36.914,-59.52856 -22.3997,0 0,59.52856 -29.6601,0 0,-150 z m -42.2469,26.6713 0,37.34372 36.6991,0 c 3.8417,1e-4 7.6119,-1.77864 11.3106,-5.33621 3.6984,-3.55737 5.5477,-7.96677 5.5478,-13.22821 -10e-5,-5.26555 -1.8146,-9.71185 -5.4437,-13.3389 -3.6291,-3.6268 -7.5773,-5.44027 -11.8445,-5.4404 z"
         style="font-variant:normal;font-stretch:normal;text-align:center;text-anchor:middle;fill:#ffffff;font-family:CodiceBianco;-inkscape-font-specification:CodiceBianco"
         id="path5423" />
      <path
         d="m 1352.3854,750.4413 c 13.3703,1.6e-4 26.8122,5.19203 40.326,15.57562 18.4926,14.22569 27.739,34.35503 27.7392,60.38809 -2e-4,26.17213 -9.1055,46.37093 -27.316,60.59645 -13.3705,10.38376 -26.9535,15.57563 -40.7492,15.57562 l -64.0151,0 0,-152.13578 z m -2.3507,27.31594 -29.8685,0 0,96.86577 28.1625,0 c 11.6642,4e-5 21.0517,-3.91123 28.1624,-11.73381 7.6835,-8.53441 11.5253,-20.69579 11.5255,-36.48419 -2e-4,-17.21209 -4.4106,-30.08541 -13.2315,-38.61999 -6.8285,-6.68506 -15.0787,-10.02765 -24.7504,-10.02778 z"
         style="font-variant:normal;font-stretch:normal;text-align:center;text-anchor:middle;fill:#ffffff;font-family:CodiceBianco;-inkscape-font-specification:CodiceBianco"
         id="path5425" />
      <path
         d="m 1474.9653,752.3622 0,150 -30.9363,0 0,-150 z"
         style="font-variant:normal;font-stretch:normal;text-align:center;text-anchor:middle;fill:#ffffff;font-family:CodiceBianco;-inkscape-font-specification:CodiceBianco"
         id="path5427" />
      <path
         d="m 1542.1449,752.3622 43.0999,0 50.9919,150 -33.0721,0 -8.5302,-25.18015 -61.2411,0 -8.3217,25.18015 -32.0043,0 z m 21.5467,33.71028 -20.9086,63.16201 42.6767,0 z"
         style="font-variant:normal;font-stretch:normal;text-align:center;text-anchor:middle;fill:#ffffff;font-family:CodiceBianco;-inkscape-font-specification:CodiceBianco"
         id="path5429" />
    </g>
    <g
       style="font-size:213.37037659px;font-style:normal;font-weight:normal;line-height:125%;letter-spacing:0px;word-spacing:0px;fill:#ffffff;fill-opacity:1;stroke:none;font-family:Sans"
       id="text5361">
      <path
         d="m 516.21158,302.36217 c 12.65836,1.6e-4 23.8951,4.48227 33.71028,13.44635 10.52688,9.8152 15.79037,21.97659 15.7905,36.4842 -1.3e-4,13.93914 -5.33525,25.67511 -16.00538,35.20793 -9.81518,8.95995 -20.9803,13.43989 -33.4954,13.43983 l -34.35492,0 0,51.63657 -31.57449,0 0,-150.21488 z m -34.35492,26.6713 0,44.3827 32.21913,0 c 5.12234,9e-5 9.74553,-2.27569 13.8696,-6.82735 4.12388,-4.55148 6.18587,-9.38846 6.18597,-14.51099 -10e-5,-6.39856 -2.2748,-11.94639 -6.8241,-16.64351 -4.12407,-4.2671 -8.53455,-6.40072 -13.23147,-6.40085 z"
         style="font-variant:normal;font-stretch:normal;text-align:center;text-anchor:middle;fill:#ffffff;font-family:CodiceBianco;-inkscape-font-specification:CodiceBianco"
         id="path5396" />
      <path
         d="m 620.65029,302.36217 0,150 -30.93637,0 0,-150 z"
         style="font-variant:normal;font-stretch:normal;text-align:center;text-anchor:middle;fill:#ffffff;font-family:CodiceBianco;-inkscape-font-specification:CodiceBianco"
         id="path5398" />
      <path
         d="m 753.97422,302.36217 0,27.10106 -72.76003,0 0,32.21914 65.29129,0 0,27.09454 -65.07641,0 0,34.56981 80.0139,0 0,29.01545 -110.74189,0 0,-150 z"
         style="font-variant:normal;font-stretch:normal;text-align:center;text-anchor:middle;fill:#ffffff;font-family:CodiceBianco;-inkscape-font-specification:CodiceBianco"
         id="path5400" />
      <path
         d="m 824.68963,302.36217 41.60879,58.2523 42.03203,-58.2523 34.77818,0 0,150 -29.86847,0 0,-104.76428 -46.94174,63.1555 -46.51198,-63.1555 0,104.76428 -29.87498,0 0,-150 z"
         style="font-variant:normal;font-stretch:normal;text-align:center;text-anchor:middle;fill:#ffffff;font-family:CodiceBianco;-inkscape-font-specification:CodiceBianco"
         id="path5402" />
      <path
         d="m 1110.9177,376.40497 c -10e-5,24.03636 -6.898,43.23889 -20.6937,57.60766 -13.2272,13.6569 -30.2961,20.48534 -51.2068,20.48533 -20.9108,1e-5 -37.9102,-6.82843 -50.99841,-20.48533 -13.79582,-14.36877 -20.69371,-33.5713 -20.6937,-57.60766 -1e-5,-23.47184 7.60981,-42.32058 22.82948,-56.54627 13.65683,-12.65829 29.94433,-18.98751 48.86263,-18.98767 18.9181,1.6e-4 35.2057,6.32938 48.8627,18.98767 15.3584,14.22569 23.0377,33.07443 23.0378,56.54627 z m -32.8572,0 c -2e-4,-14.0822 -3.5913,-25.32004 -10.7734,-33.71353 -7.1823,-8.39326 -16.6056,-12.58995 -28.2699,-12.59008 -11.6644,1.3e-4 -21.0171,4.19682 -28.0582,12.59008 -7.0412,8.39349 -10.5618,19.63133 -10.5618,33.71353 0,14.65106 2.9866,26.10051 8.9599,34.34842 6.6852,9.38969 16.5718,14.08451 29.6601,14.08447 13.2271,4e-5 23.1832,-4.69478 29.8685,-14.08447 6.1164,-8.39116 9.1746,-19.84062 9.1748,-34.34842 z"
         style="font-variant:normal;font-stretch:normal;text-align:center;text-anchor:middle;fill:#ffffff;font-family:CodiceBianco;-inkscape-font-specification:CodiceBianco"
         id="path5404" />
      <path
         d="m 1275.5426,452.36217 -34.993,0 -72.5452,-103.91127 0,103.91127 -29.875,0 0,-150 34.9931,0 72.5517,104.5494 0,-104.5494 29.8684,0 z"
         style="font-variant:normal;font-stretch:normal;text-align:center;text-anchor:middle;fill:#ffffff;font-family:CodiceBianco;-inkscape-font-specification:CodiceBianco"
         id="path5406" />
      <path
         d="m 1421.6748,302.14729 0,27.52431 -46.7269,0 0,122.69057 -31.1512,0 0,-122.89894 -46.7269,0 0,-27.31594 z"
         style="font-variant:normal;font-stretch:normal;text-align:center;text-anchor:middle;fill:#ffffff;font-family:CodiceBianco;-inkscape-font-specification:CodiceBianco"
         id="path5408" />
      <path
         d="m 1545.3616,302.36217 0,27.10106 -72.76,0 0,32.21914 65.2913,0 0,27.09454 -65.0764,0 0,34.56981 80.0139,0 0,29.01545 -110.7419,0 0,-150 z"
         style="font-variant:normal;font-stretch:normal;text-align:center;text-anchor:middle;fill:#ffffff;font-family:CodiceBianco;-inkscape-font-specification:CodiceBianco"
         id="path5410" />
    </g>
  </g>
</svg>
