<?xml version="1.0" encoding="UTF-8" standalone="no"?>
<!-- Created with Inkscape (http://www.inkscape.org/) -->
<svg
   xmlns:dc="http://purl.org/dc/elements/1.1/"
   xmlns:cc="http://creativecommons.org/ns#"
   xmlns:rdf="http://www.w3.org/1999/02/22-rdf-syntax-ns#"
   xmlns:svg="http://www.w3.org/2000/svg"
   xmlns="http://www.w3.org/2000/svg"
   xmlns:sodipodi="http://sodipodi.sourceforge.net/DTD/sodipodi-0.dtd"
   xmlns:inkscape="http://www.inkscape.org/namespaces/inkscape"
   version="1.1"
   width="200"
   height="200"
   id="svg2"
   inkscape:version="0.46"
   sodipodi:docname="Italian_traffic_signs_-_icona_motociclo.svg"
   sodipodi:version="0.32"
   inkscape:output_extension="org.inkscape.output.svg.inkscape">
  <metadata
     id="metadata2877">
    <rdf:RDF>
      <cc:Work
         rdf:about="">
        <dc:format>image/svg+xml</dc:format>
        <dc:type
           rdf:resource="http://purl.org/dc/dcmitype/StillImage" />
      </cc:Work>
    </rdf:RDF>
  </metadata>
  <sodipodi:namedview
     pagecolor="#ffffff"
     bordercolor="#666666"
     borderopacity="1"
     objecttolerance="10"
     gridtolerance="10"
     guidetolerance="10"
     inkscape:pageopacity="0"
     inkscape:pageshadow="2"
     inkscape:window-width="1024"
     inkscape:window-height="708"
     id="namedview2875"
     showgrid="false"
     inkscape:zoom="1.9914447"
     inkscape:cx="115.51255"
     inkscape:cy="118.43692"
     inkscape:window-x="-4"
     inkscape:window-y="-4"
     inkscape:window-maximized="1"
     inkscape:current-layer="svg2" />
  <defs
     id="defs4">
    <inkscape:perspective
       sodipodi:type="inkscape:persp3d"
       inkscape:vp_x="0 : 100 : 1"
       inkscape:vp_y="0 : 1000 : 0"
       inkscape:vp_z="200 : 100 : 1"
       inkscape:persp3d-origin="100 : 66.666667 : 1"
       id="perspective2879" />
  </defs>
  <rect
     style="fill:#ffffff;fill-opacity:1;stroke:none"
     id="rect2881"
     width="200.9709"
     height="200.61583"
     x="0"
     y="-0.61582947"
     rx="0"
     ry="0" />
  <rect
     width="194.80612"
     height="194.80614"
     ry="18.580454"
     x="3.2339785"
     y="2.8621521"
     id="rect4614"
     style="fill:none;stroke:#000000;stroke-width:3;stroke-miterlimit:4;stroke-opacity:1;stroke-dasharray:none" />
  <path
     d="M 91.569059,42.31012 C 89.201169,42.31122 79.646239,43.295947 78.535499,52.937151 C 78.391699,53.079324 78.674959,57.399552 78.674959,57.399552 L 80.816249,57.399552 L 90.405249,56.157433 L 90.544709,65.772377 L 80.210919,73.455117 L 81.653929,79.159627 L 106.32467,61.309917 L 106.46413,52.661107 C 106.46413,52.661107 104.49285,42.356137 92.080609,42.356137 C 92.080609,42.339857 91.906429,42.312717 91.568359,42.312717 L 91.569059,42.31012 z M 106.97671,65.680337 C 105.72819,65.647787 104.27411,65.969567 102.55457,67.014497 C 102.41077,67.014497 77.557979,85.462197 77.557979,85.462197 L 63.453775,85.462197 C 63.453775,85.462197 57.635246,84.754047 57.635246,91.304767 C 57.635246,91.304767 57.10942,97.423387 62.755551,97.423387 L 83.190319,97.423387 C 87.374239,94.349507 91.594189,91.368317 95.758459,88.268497 L 108.97826,98.849507 C 108.97826,98.849507 88.822729,107.91241 88.822729,107.91241 C 85.131149,109.64542 84.250659,113.75488 86.029829,117.11332 L 103.53204,147.9362 C 103.53204,147.9362 107.35369,152.24763 111.7246,149.04032 C 111.85646,148.91008 117.0644,145.95787 114.23824,140.66755 C 114.10041,140.66755 103.11311,119.87359 103.11311,119.87359 C 102.19023,118.32299 102.13993,116.25849 104.36994,115.27315 C 104.36994,115.27315 131.04228,103.58801 131.04228,103.58801 C 133.07259,102.67588 134.6747,98.775497 131.4612,94.801097 C 131.4612,94.801097 111.25911,67.612547 111.25911,67.612547 C 111.25911,67.612547 109.72343,65.747627 106.97671,65.680337 L 106.97671,65.680337 z M 52.747627,105.06015 C 37.724832,105.06015 25.609864,117.21159 25.609864,132.0647 C 25.609864,146.90006 37.724832,158.83927 52.747627,158.83927 C 67.776445,158.83927 80.071569,146.90598 80.071569,132.0647 C 80.071569,117.21756 67.776445,105.06015 52.747627,105.06015 L 52.747627,105.06015 z M 151.94259,105.06015 C 136.91974,105.06015 124.80477,117.21159 124.80477,132.0647 C 124.80477,146.90006 136.91974,158.83927 151.94259,158.83927 C 166.96538,158.83927 179.26653,146.90598 179.26653,132.0647 C 179.26653,117.21756 166.96538,105.06015 151.94259,105.06015 L 151.94259,105.06015 z M 52.747627,113.01894 C 63.357618,113.01894 72.018748,121.57876 72.018748,132.0647 C 72.018748,142.54472 63.357618,150.9265 52.747627,150.9265 C 42.143604,150.9265 33.662687,142.53882 33.662687,132.0647 C 33.662687,121.58468 42.149627,113.01894 52.747627,113.01894 L 52.747627,113.01894 z M 151.94259,113.01894 C 162.54655,113.01894 171.21365,121.57876 171.21365,132.0647 C 171.21365,142.54472 162.54655,150.9265 151.94259,150.9265 C 141.33856,150.9265 132.85765,142.53882 132.85765,132.0647 C 132.85765,121.58468 141.34453,113.01894 151.94259,113.01894 z"
     id="path1999"
     style="fill:#000000" />
</svg>
