<?xml version="1.0" encoding="UTF-8" standalone="no"?>
<!-- Created with Inkscape (http://www.inkscape.org/) -->

<svg
   xmlns:dc="http://purl.org/dc/elements/1.1/"
   xmlns:cc="http://creativecommons.org/ns#"
   xmlns:rdf="http://www.w3.org/1999/02/22-rdf-syntax-ns#"
   xmlns:svg="http://www.w3.org/2000/svg"
   xmlns="http://www.w3.org/2000/svg"
   xmlns:sodipodi="http://sodipodi.sourceforge.net/DTD/sodipodi-0.dtd"
   xmlns:inkscape="http://www.inkscape.org/namespaces/inkscape"
   width="3600"
   height="2000"
   id="svg8931"
   version="1.1"
   inkscape:version="0.48.5 r10040"
   sodipodi:docname="Nuovo documento 10">
  <defs
     id="defs8933" />
  <sodipodi:namedview
     id="base"
     pagecolor="#ffffff"
     bordercolor="#666666"
     borderopacity="1.0"
     inkscape:pageopacity="0.0"
     inkscape:pageshadow="2"
     inkscape:zoom="0.0875"
     inkscape:cx="526.45299"
     inkscape:cy="670.43674"
     inkscape:document-units="px"
     inkscape:current-layer="layer1"
     showgrid="false"
     fit-margin-top="0"
     fit-margin-left="0"
     fit-margin-right="0"
     fit-margin-bottom="0"
     inkscape:window-width="1366"
     inkscape:window-height="705"
     inkscape:window-x="-8"
     inkscape:window-y="-8"
     inkscape:window-maximized="1" />
  <metadata
     id="metadata8936">
    <rdf:RDF>
      <cc:Work
         rdf:about="">
        <dc:format>image/svg+xml</dc:format>
        <dc:type
           rdf:resource="http://purl.org/dc/dcmitype/StillImage" />
        <dc:title></dc:title>
      </cc:Work>
    </rdf:RDF>
  </metadata>
  <g
     inkscape:label="Livello 1"
     inkscape:groupmode="layer"
     id="layer1"
     transform="translate(0,947.625)">
    <rect
       style="fill:#ffffff;fill-opacity:1;stroke:#000000;stroke-width:5;stroke-miterlimit:4;stroke-opacity:1;stroke-dasharray:none"
       id="rect9480"
       width="3595.0002"
       height="1995"
       x="2.5000014"
       y="-945.138" />
    <path
       inkscape:connector-curvature="0"
       d="m 752.99383,482.20939 0.54674,149.78679 c -0.54674,3.88818 -2.21977,6.66939 -4.44414,8.61483 -2.22877,1.39023 -7.50762,1.66822 -10.55878,0.26958 L 403.9484,358.81597 813.56816,207.36218 c 3.33206,0.26958 8.33725,1.94631 10.0037,4.72412 1.66367,2.50226 2.50229,5.83659 2.2198,10.56056 l -50.2993,140.89308 c 135.33314,16.95203 232.32494,76.69928 238.71484,249.82893 V 857.36218 H 894.15736 V 613.9246 C 891.65495,524.16398 844.96889,488.87167 752.98217,482.20143 z"
       style="fill:#000000;fill-opacity:1;fill-rule:evenodd;stroke-width:0.15289199"
       id="path7275" />
    <g
       style="font-size:213.97413635px;font-style:normal;font-weight:normal;line-height:125%;letter-spacing:0px;word-spacing:0px;fill:#000000;fill-opacity:1;stroke:none;font-family:Sans"
       id="text8968">
      <path
         d="m 324.7493,-511.77476 34.02769,0 0,118.96957 66.33146,0 0,31.88585 -100.35915,0 z"
         style="font-variant:normal;font-stretch:normal;fill:#000000;font-family:CodiceNero;-inkscape-font-specification:CodiceNero"
         id="path9591" />
      <path
         d="m 526.45362,-464.4847 c 2.42471,0.85772 5.2783,2.85588 8.5608,5.99452 5.41977,5.27631 8.12971,11.26647 8.12981,17.97048 l 0,49.85634 c -10e-5,2.56849 1.64109,4.20969 4.9236,4.9236 0.28721,0.13934 2.57052,0.35265 6.84994,0.63994 -1.28434,3.70905 -4.99336,12.48097 -11.12707,26.31579 -11.12717,0 -20.47155,-3.13656 -28.03317,-9.4097 -9.98658,6.56046 -19.97307,9.84068 -29.95952,9.84067 -10.41316,1e-5 -19.57797,-3.35204 -27.49444,-10.05615 -7.91652,-6.70409 -11.87477,-15.04938 -11.87476,-25.03592 -10e-6,-16.54689 10.1998,-27.9591 30.59945,-34.23664 7.56166,-1.1405 17.8333,-2.92318 30.81494,-5.34805 -7e-5,-6.2774 -3.99423,-9.41613 -11.9825,-9.41622 -7.98838,9e-5 -15.62191,2.06791 -22.90061,6.20347 -0.42666,0.2874 -3.42174,2.57072 -8.98524,6.84994 l -16.25963,-24.60493 c 0.28295,-0.71384 2.4226,-2.28321 6.41896,-4.70811 4.84957,-3.13863 10.26944,-5.99223 16.25963,-8.5608 7.13504,-3.13862 15.55217,-4.70799 25.2514,-4.70811 11.127,1.2e-4 21.39646,2.49675 30.80841,7.48988 z m -45.78816,69.54421 c 0.14361,2.28117 1.64115,4.20534 4.49262,5.77249 2.42474,1.42793 4.92137,2.14187 7.48988,2.14183 3.99628,4e-5 7.42016,-0.8913 10.27164,-2.67402 2.85135,-1.78264 4.63403,-3.81455 5.34805,-6.09573 l 0,-10.91811 c -5.99023,1.14497 -11.98038,2.28772 -17.97048,3.42823 -6.56485,1.42359 -9.77542,4.20535 -9.63171,8.34531 z"
         style="font-variant:normal;font-stretch:normal;fill:#000000;font-family:CodiceNero;-inkscape-font-specification:CodiceNero"
         id="path9593" />
      <path
         d="m 634.49201,-471.32811 c 10.55235,1.2e-4 19.89456,4.42091 28.02664,13.26237 l 0.21549,0 c -0.28742,1.1e-4 0.92498,-1.2482 3.63719,-3.74493 2.71201,-2.49652 6.06406,-4.60026 10.05616,-6.31122 5.56342,-2.28102 11.84089,-3.42159 18.83244,-3.42171 11.12693,1.2e-4 20.68462,3.88654 28.67311,11.65927 7.98816,7.77294 11.98233,16.79626 11.9825,27.07 l 0,71.89499 -34.66762,0 0,-65.90701 c -1.4e-4,-3.56528 -1.21254,-6.59628 -3.6372,-9.09298 -2.42493,-2.49654 -5.84881,-3.74486 -10.27164,-3.74494 -4.13578,8e-5 -7.48782,1.21248 -10.05616,3.63719 -2.56857,2.42488 -3.8528,5.49179 -3.85269,9.20073 l 0,65.90701 -34.87658,0 0,-65.90701 c -8e-5,-3.56528 -1.35504,-6.63219 -4.06491,-9.20073 -2.71001,-2.56837 -6.06097,-3.8526 -10.05289,-3.85268 -3.85274,8e-5 -7.06331,1.28431 -9.63171,3.85268 -2.5685,2.56854 -3.85273,5.63545 -3.85268,9.20073 l 0,65.90701 -34.6611,0 0,-108.48896 31.23939,0 2.56628,5.99452 c 3.28235,-3.42159 6.70623,-5.63308 10.27165,-6.63446 2.99502,-0.85313 7.70312,-1.27975 14.12433,-1.27987 z"
         style="font-variant:normal;font-stretch:normal;fill:#000000;font-family:CodiceNero;-inkscape-font-specification:CodiceNero"
         id="path9595" />
      <path
         d="m 838.22064,-464.4847 c 2.4247,0.85772 5.27829,2.85588 8.56079,5.99452 5.41977,5.27631 8.12971,11.26647 8.12982,17.97048 l 0,49.85634 c -1.1e-4,2.56849 1.64109,4.20969 4.9236,4.9236 0.2872,0.13934 2.57051,0.35265 6.84994,0.63994 -1.28435,3.70905 -4.99337,12.48097 -11.12708,26.31579 -11.12717,0 -20.47155,-3.13656 -28.03317,-9.4097 -9.98657,6.56046 -19.97307,9.84068 -29.95951,9.84067 -10.41317,1e-5 -19.57798,-3.35204 -27.49445,-10.05615 -7.91652,-6.70409 -11.87477,-15.04938 -11.87476,-25.03592 -10e-6,-16.54689 10.1998,-27.9591 30.59946,-34.23664 7.56165,-1.1405 17.83329,-2.92318 30.81494,-5.34805 -8e-5,-6.2774 -3.99424,-9.41613 -11.9825,-9.41622 -7.98839,9e-5 -15.62192,2.06791 -22.90062,6.20347 -0.42666,0.2874 -3.42174,2.57072 -8.98524,6.84994 l -16.25963,-24.60493 c 0.28295,-0.71384 2.4226,-2.28321 6.41896,-4.70811 4.84957,-3.13863 10.26944,-5.99223 16.25963,-8.5608 7.13504,-3.13862 15.55217,-4.70799 25.25141,-4.70811 11.127,1.2e-4 21.39646,2.49675 30.80841,7.48988 z m -45.78817,69.54421 c 0.14361,2.28117 1.64115,4.20534 4.49262,5.77249 2.42475,1.42793 4.92137,2.14187 7.48988,2.14183 3.99628,4e-5 7.42016,-0.8913 10.27165,-2.67402 2.85135,-1.78264 4.63403,-3.81455 5.34804,-6.09573 l 0,-10.91811 c -5.99022,1.14497 -11.98038,2.28772 -17.97048,3.42823 -6.56485,1.42359 -9.77541,4.20535 -9.63171,8.34531 z"
         style="font-variant:normal;font-stretch:normal;fill:#000000;font-family:CodiceNero;-inkscape-font-specification:CodiceNero"
         id="path9597" />
      <path
         d="m 959.95236,-436.45153 c -3.13882,-0.85752 -6.27756,-1.28632 -9.41622,-1.2864 -7.27446,8e-5 -13.26462,1.92642 -17.97049,5.77902 -5.28062,4.13573 -7.9209,9.9844 -7.92085,17.54604 l 0,53.49353 -34.6611,0 0,-108.69792 35.09208,0 0,6.84341 c 3.13868,-1.8544 6.20559,-3.70891 9.20073,-5.56353 5.41981,-2.56834 11.12482,-3.85257 17.11506,-3.85269 2.85134,1.2e-4 5.70493,0.28744 8.56079,0.86196 z"
         style="font-variant:normal;font-stretch:normal;fill:#000000;font-family:CodiceNero;-inkscape-font-specification:CodiceNero"
         id="path9599" />
      <path
         d="m 1039.8727,-471.32811 c 10.5524,1.2e-4 19.8946,4.42091 28.0267,13.26237 l 0.2154,0 c -0.2874,1.1e-4 0.925,-1.2482 3.6372,-3.74493 2.712,-2.49652 6.0641,-4.60026 10.0562,-6.31122 5.5634,-2.28102 11.8409,-3.42159 18.8324,-3.42171 11.127,1.2e-4 20.6847,3.88654 28.6731,11.65927 7.9882,7.77294 11.9824,16.79626 11.9825,27.07 l 0,71.89499 -34.6676,0 0,-65.90701 c -10e-5,-3.56528 -1.2125,-6.59628 -3.6372,-9.09298 -2.4249,-2.49654 -5.8488,-3.74486 -10.2716,-3.74494 -4.1358,8e-5 -7.4878,1.21248 -10.0562,3.63719 -2.5685,2.42488 -3.8528,5.49179 -3.8527,9.20073 l 0,65.90701 -34.8765,0 0,-65.90701 c -1e-4,-3.56528 -1.3551,-6.63219 -4.0649,-9.20073 -2.7101,-2.56837 -6.061,-3.8526 -10.0529,-3.85268 -3.8528,8e-5 -7.0634,1.28431 -9.6318,3.85268 -2.5685,2.56854 -3.8527,5.63545 -3.8526,9.20073 l 0,65.90701 -34.66113,0 0,-108.48896 31.23943,0 2.5662,5.99452 c 3.2824,-3.42159 6.7063,-5.63308 10.2717,-6.63446 2.995,-0.85313 7.7031,-1.27975 14.1243,-1.27987 z"
         style="font-variant:normal;font-stretch:normal;fill:#000000;font-family:CodiceNero;-inkscape-font-specification:CodiceNero"
         id="path9601" />
      <path
         d="m 1256.4393,-455.70842 c 9.8427,10.69619 14.7641,23.24896 14.7642,37.65836 -10e-5,18.68447 -6.0621,33.80569 -18.1859,45.36371 -10.5569,9.98216 -22.6112,14.97324 -36.163,14.97323 -20.1124,1e-5 -35.6602,-7.77283 -46.6436,-23.31853 -3.8527,-5.5635 -6.4212,-10.27161 -7.7054,-14.12433 -1.8545,-5.13687 -2.7818,-12.12611 -2.7818,-20.96774 0,-18.26208 6.1339,-32.88485 18.4015,-43.86836 10.2738,-9.27244 22.8984,-13.90872 37.8739,-13.90884 15.6936,1.2e-4 29.1736,6.06428 40.4401,18.1925 z m -63.5497,32.95025 0,11.76701 c -10e-5,5.8509 2.2832,10.91598 6.8499,15.19524 4.5666,4.27935 9.7732,6.419 15.6197,6.41896 5.9901,4e-5 11.1967,-2.13961 15.6197,-6.41896 4.4229,-4.27926 6.6344,-9.34434 6.6345,-15.19524 l 0,-11.76701 c -10e-5,-6.13375 -2.4249,-11.26848 -7.2744,-15.40421 -4.4231,-3.70893 -9.4163,-5.56345 -14.9798,-5.56354 -5.8465,9e-5 -10.9813,1.85461 -15.4042,5.56354 -4.7103,4.13573 -7.0655,9.27046 -7.0654,15.40421 z"
         style="font-variant:normal;font-stretch:normal;fill:#000000;font-family:CodiceNero;-inkscape-font-specification:CodiceNero"
         id="path9603" />
      <path
         d="m 1364.9151,-436.45153 c -3.1388,-0.85752 -6.2775,-1.28632 -9.4162,-1.2864 -7.2745,8e-5 -13.2646,1.92642 -17.9705,5.77902 -5.2806,4.13573 -7.9209,9.9844 -7.9208,17.54604 l 0,53.49353 -34.6611,0 0,-108.69792 35.092,0 0,6.84341 c 3.1387,-1.8544 6.2056,-3.70891 9.2008,-5.56353 5.4198,-2.56834 11.1248,-3.85257 17.115,-3.85269 2.8514,1.2e-4 5.705,0.28744 8.5608,0.86196 z"
         style="font-variant:normal;font-stretch:normal;fill:#000000;font-family:CodiceNero;-inkscape-font-specification:CodiceNero"
         id="path9605" />
      <path
         d="m 1462.5904,-464.4847 c 2.4247,0.85772 5.2783,2.85588 8.5608,5.99452 5.4198,5.27631 8.1297,11.26647 8.1298,17.97048 l 0,49.85634 c -10e-5,2.56849 1.6411,4.20969 4.9236,4.9236 0.2872,0.13934 2.5705,0.35265 6.85,0.63994 -1.2844,3.70905 -4.9934,12.48097 -11.1271,26.31579 -11.1272,0 -20.4716,-3.13656 -28.0332,-9.4097 -9.9866,6.56046 -19.973,9.84068 -29.9595,9.84067 -10.4132,1e-5 -19.578,-3.35204 -27.4944,-10.05615 -7.9166,-6.70409 -11.8748,-15.04938 -11.8748,-25.03592 0,-16.54689 10.1998,-27.9591 30.5995,-34.23664 7.5616,-1.1405 17.8333,-2.92318 30.8149,-5.34805 -10e-5,-6.2774 -3.9942,-9.41613 -11.9825,-9.41622 -7.9884,9e-5 -15.6219,2.06791 -22.9006,6.20347 -0.4267,0.2874 -3.4218,2.57072 -8.9853,6.84994 l -16.2596,-24.60493 c 0.283,-0.71384 2.4226,-2.28321 6.419,-4.70811 4.8495,-3.13863 10.2694,-5.99223 16.2596,-8.5608 7.135,-3.13862 15.5522,-4.70799 25.2514,-4.70811 11.127,1.2e-4 21.3965,2.49675 30.8084,7.48988 z m -45.7881,69.54421 c 0.1436,2.28117 1.6411,4.20534 4.4926,5.77249 2.4247,1.42793 4.9213,2.14187 7.4899,2.14183 3.9962,4e-5 7.4201,-0.8913 10.2716,-2.67402 2.8513,-1.78264 4.634,-3.81455 5.348,-6.09573 l 0,-10.91811 c -5.9902,1.14497 -11.9803,2.28772 -17.9704,3.42823 -6.5649,1.42359 -9.7755,4.20535 -9.6317,8.34531 z"
         style="font-variant:normal;font-stretch:normal;fill:#000000;font-family:CodiceNero;-inkscape-font-specification:CodiceNero"
         id="path9607" />
    </g>
    <path
       id="path9482"
       style="fill:#000000;fill-opacity:1;fill-rule:evenodd;stroke-width:0.15289199"
       d="m 2814.4475,482.20939 -0.5468,149.78679 c 0.5468,3.88818 2.2198,6.66939 4.4442,8.61483 2.2288,1.39023 7.5076,1.66822 10.5588,0.26958 L 3163.4929,358.81597 2753.8732,207.36218 c -3.3321,0.26958 -8.3373,1.94631 -10.0037,4.72412 -1.6637,2.50226 -2.5023,5.83659 -2.2198,10.56056 l 50.2993,140.89308 c -135.3332,16.95203 -232.325,76.69928 -238.7149,249.82893 V 857.36218 H 2673.284 V 613.9246 c 2.5024,-89.76062 49.1884,-125.05293 141.1751,-131.72317 z"
       inkscape:connector-curvature="0" />
    <rect
       style="fill:#000000;fill-opacity:1;stroke:none"
       id="rect9484"
       width="120"
       height="240"
       x="1709.6954"
       y="-791.84241" />
    <rect
       y="-308.9895"
       x="1709.6954"
       height="240"
       width="120"
       id="rect9486"
       style="fill:#000000;fill-opacity:1;stroke:none" />
    <rect
       style="fill:#000000;fill-opacity:1;stroke:none"
       id="rect9490"
       width="120"
       height="240"
       x="1709.6954"
       y="173.86766" />
    <rect
       y="656.72479"
       x="1709.6954"
       height="240"
       width="120"
       id="rect9494"
       style="fill:#000000;fill-opacity:1;stroke:none" />
    <g
       style="font-size:221.10661316px;font-style:normal;font-weight:normal;line-height:125%;letter-spacing:0px;word-spacing:0px;fill:#000000;fill-opacity:1;stroke:none;font-family:Sans"
       id="text9498">
      <path
         d="m 2635.0481,-517.41054 128.0229,0 0,32.94197 -45.9919,0 0,123.38057 -36.2618,0 0,-123.38057 -45.7692,0 z"
         style="font-variant:normal;font-stretch:normal;fill:#000000;font-family:CodiceNero;-inkscape-font-specification:CodiceNero"
         id="path9617" />
      <path
         d="m 2872.2073,-459.03672 c 10.1708,11.05272 15.2563,24.02392 15.2564,38.91363 -10e-5,19.30729 -6.2642,34.93255 -18.7922,46.87584 -10.9087,10.3149 -23.3649,15.47234 -37.3684,15.47234 -20.7828,0 -36.8489,-8.03193 -48.1984,-24.09582 -3.9811,-5.74895 -6.6352,-10.614 -7.9622,-14.59514 -1.9163,-5.3081 -2.8745,-12.53031 -2.8745,-21.66667 0,-18.87081 6.3383,-33.98101 19.0149,-45.33063 10.6162,-9.58153 23.6616,-14.37235 39.1363,-14.37247 16.2167,1.2e-4 30.1461,6.26642 41.7881,18.79892 z m -65.668,34.04858 0,12.15924 c -10e-5,6.04594 2.3594,11.27986 7.0783,15.70176 4.7188,4.42199 10.0989,6.63297 16.1403,6.63293 6.1898,4e-5 11.5699,-2.21094 16.1404,-6.63293 4.5703,-4.4219 6.8555,-9.65582 6.8556,-15.70176 l 0,-12.15924 c -1e-4,-6.3382 -2.5057,-11.64409 -7.5169,-15.91768 -4.5705,-3.83257 -9.7302,-5.74889 -15.4791,-5.74899 -6.0414,10e-5 -11.3473,1.91642 -15.9177,5.74899 -4.8673,4.27359 -7.301,9.57948 -7.3009,15.91768 z"
         style="font-variant:normal;font-stretch:normal;fill:#000000;font-family:CodiceNero;-inkscape-font-specification:CodiceNero"
         id="path9619" />
      <path
         d="m 2984.2991,-439.13794 c -3.2435,-0.8861 -6.4868,-1.32919 -9.7301,-1.32928 -7.517,9e-5 -13.7068,1.99064 -18.5695,5.97166 -5.4567,4.27358 -8.1849,10.31721 -8.1849,18.1309 l 0,55.27666 -35.8165,0 0,-112.32119 36.2618,0 0,7.07152 c 3.2434,-1.91621 6.4125,-3.83254 9.5075,-5.74899 5.6004,-2.65394 11.4956,-3.98098 17.6855,-3.9811 2.9464,1.2e-4 5.8951,0.29702 8.8462,0.89069 z"
         style="font-variant:normal;font-stretch:normal;fill:#000000;font-family:CodiceNero;-inkscape-font-specification:CodiceNero"
         id="path9621" />
      <path
         d="m 3004.5285,-473.40919 35.6005,0 0,112.54386 -35.6005,0 z m -0.6613,-34.93927 c 3.6842,-7.36826 9.7278,-11.05247 18.1309,-11.05264 3.2434,1.7e-4 6.264,0.66369 9.0621,1.99056 7.5168,3.68437 11.2753,9.80222 11.2753,18.35357 0,3.09506 -0.6636,6.04153 -1.9905,8.83941 -3.6843,7.37305 -9.7999,11.05951 -18.3469,11.05938 -3.2434,1.3e-4 -6.2663,-0.66339 -9.0688,-1.99055 -7.3684,-3.68408 -11.0526,-9.72771 -11.0526,-18.13091 0,-3.24321 0.6635,-6.26615 1.9905,-9.06882 z"
         style="font-variant:normal;font-stretch:normal;fill:#000000;font-family:CodiceNero;-inkscape-font-specification:CodiceNero"
         id="path9623" />
      <path
         d="m 3137.7134,-361.088 0,-62.35493 c -1e-4,-5.45202 -1.5116,-10.02129 -4.5344,-13.70783 -3.0231,-3.68637 -7.3348,-5.5296 -12.9353,-5.52969 -6.1899,9e-5 -10.8322,2.13909 -13.9271,6.41701 -2.2133,3.24344 -3.3199,7.00187 -3.3198,11.2753 l 0,63.90014 -35.3779,0 0,-112.10527 31.1808,0 1.7679,6.8556 c 7.8092,-6.18971 18.0521,-9.28462 30.7288,-9.28475 14.4488,1.3e-4 25.5779,5.60066 33.3873,16.80162 5.7489,8.25471 8.6234,16.58354 8.6235,24.98651 l 0,72.74629 z"
         style="font-variant:normal;font-stretch:normal;fill:#000000;font-family:CodiceNero;-inkscape-font-specification:CodiceNero"
         id="path9625" />
      <path
         d="m 3293.26,-459.03672 c 10.1708,11.05272 15.2562,24.02392 15.2564,38.91363 -2e-4,19.30729 -6.2642,34.93255 -18.7922,46.87584 -10.9088,10.3149 -23.3649,15.47234 -37.3684,15.47234 -20.7828,0 -36.8489,-8.03193 -48.1984,-24.09582 -3.9811,-5.74895 -6.6352,-10.614 -7.9622,-14.59514 -1.9164,-5.3081 -2.8745,-12.53031 -2.8745,-21.66667 0,-18.87081 6.3383,-33.98101 19.0148,-45.33063 10.6163,-9.58153 23.6617,-14.37235 39.1363,-14.37247 16.2168,1.2e-4 30.1461,6.26642 41.7882,18.79892 z m -65.6681,34.04858 0,12.15924 c 0,6.04594 2.3594,11.27986 7.0783,15.70176 4.7188,4.42199 10.0989,6.63297 16.1404,6.63293 6.1897,4e-5 11.5698,-2.21094 16.1403,-6.63293 4.5703,-4.4219 6.8555,-9.65582 6.8556,-15.70176 l 0,-12.15924 c -1e-4,-6.3382 -2.5057,-11.64409 -7.5169,-15.91768 -4.5704,-3.83257 -9.7301,-5.74889 -15.479,-5.74899 -6.0415,10e-5 -11.3474,1.91642 -15.9177,5.74899 -4.8674,4.27359 -7.301,9.57948 -7.301,15.91768 z"
         style="font-variant:normal;font-stretch:normal;fill:#000000;font-family:CodiceNero;-inkscape-font-specification:CodiceNero"
         id="path9627" />
    </g>
    <g
       style="font-size:142.64942932px;font-style:normal;font-weight:normal;line-height:125%;letter-spacing:0px;word-spacing:0px;fill:#000000;fill-opacity:1;stroke:none;font-family:Sans"
       id="text9502">
      <path
         d="m 334.22452,-568.06227 -25.38853,-72.46529 24.9619,0 13.40822,41.2259 12.83792,-41.2259 22.82443,0 -22.39345,72.46529 z"
         style="font-variant:normal;font-stretch:normal;fill:#000000;font-family:CodiceNero;-inkscape-font-specification:CodiceNero"
         id="path9584" />
      <path
         d="m 394.64418,-640.52756 22.96809,0 0,72.60895 -22.96809,0 z m -0.42662,-22.54146 c 2.3769,-4.75372 6.27601,-7.13062 11.69735,-7.13073 2.09248,1.1e-4 4.04131,0.42818 5.84651,1.28423 4.84956,2.37701 7.27435,6.32401 7.27439,11.84101 -4e-5,1.99682 -0.42811,3.89776 -1.28423,5.70285 -2.37694,4.7568 -6.32249,7.13516 -11.83667,7.13508 -2.09251,8e-5 -4.04279,-0.42799 -5.85085,-1.28423 -4.75383,-2.37682 -7.13074,-6.27594 -7.13073,-11.69736 -1e-5,-2.09239 0.42807,-4.04268 1.28423,-5.85085 z"
         style="font-variant:normal;font-stretch:normal;fill:#000000;font-family:CodiceNero;-inkscape-font-specification:CodiceNero"
         id="path9586" />
      <path
         d="m 486.27276,-637.10585 c 1.61647,0.57181 3.51886,1.90392 5.70719,3.99634 3.61318,3.51755 5.41981,7.51099 5.41988,11.98033 l 0,33.23756 c -7e-5,1.71232 1.09406,2.80646 3.2824,3.2824 0.19147,0.0929 1.71368,0.2351 4.56663,0.42662 -0.85623,2.4727 -3.32891,8.32065 -7.41805,17.54386 -7.41812,10e-6 -13.6477,-2.09103 -18.68878,-6.27313 -6.65772,4.37364 -13.31538,6.56045 -19.97301,6.56045 -6.94212,0 -13.05199,-2.2347 -18.32964,-6.7041 -5.27767,-4.46939 -7.91651,-10.03292 -7.9165,-16.69061 -1e-5,-11.03127 6.79986,-18.6394 20.39964,-22.82444 5.0411,-0.76032 11.88886,-1.94878 20.54329,-3.56536 -5e-5,-4.18493 -2.66282,-6.27742 -7.98833,-6.27748 -5.32559,6e-5 -10.41461,1.37861 -15.26708,4.13565 -0.28444,0.1916 -2.28116,1.71381 -5.99016,4.56663 l -10.83976,-16.4033 c 0.18864,-0.47589 1.61507,-1.52214 4.27931,-3.13874 3.23305,-2.09242 6.8463,-3.99481 10.83976,-5.70719 4.75669,-2.09242 10.36811,-3.13866 16.83427,-3.13874 7.418,8e-5 14.2643,1.66449 20.53894,4.99325 z m -30.52545,46.36281 c 0.0957,1.52078 1.0941,2.80356 2.99508,3.84833 1.6165,0.95194 3.28091,1.42791 4.99325,1.42788 2.66419,3e-5 4.94678,-0.5942 6.84777,-1.78268 1.9009,-1.18843 3.08935,-2.54303 3.56536,-4.06382 l 0,-7.27874 c -3.99348,0.76332 -7.98692,1.52514 -11.98032,2.28549 -4.37656,0.94905 -6.51694,2.80357 -6.42114,5.56354 z"
         style="font-variant:normal;font-stretch:normal;fill:#000000;font-family:CodiceNero;-inkscape-font-specification:CodiceNero"
         id="path9588" />
    </g>
    <g
       style="font-size:142.64942932px;font-style:normal;font-weight:normal;line-height:125%;letter-spacing:0px;word-spacing:0px;fill:#000000;fill-opacity:1;stroke:none;font-family:Sans"
       id="text9506">
      <path
         d="m 327.08167,4.0412109 -25.38854,-72.4652829 24.96191,0 13.40821,41.225894 12.83793,-41.225894 22.82443,0 -22.39345,72.4652829 z"
         style="font-variant:normal;font-stretch:normal;fill:#000000;font-family:CodiceNero;-inkscape-font-specification:CodiceNero"
         id="path9566" />
      <path
         d="m 387.50133,-68.424072 22.96809,0 0,72.6089423 -22.96809,0 z m -0.42663,-22.541466 c 2.3769,-4.753715 6.27602,-7.130623 11.69736,-7.13073 2.09247,1.07e-4 4.0413,0.428183 5.8465,1.284228 4.84957,2.377014 7.27436,6.324016 7.27439,11.841017 -3e-5,1.996813 -0.42811,3.897759 -1.28423,5.702843 -2.37693,4.756806 -6.32249,7.135165 -11.83666,7.135083 -2.09251,8.2e-5 -4.04279,-0.427994 -5.85085,-1.284228 -4.75383,-2.376825 -7.13074,-6.27594 -7.13073,-11.697357 -10e-6,-2.092397 0.42806,-4.04268 1.28422,-5.850856 z"
         style="font-variant:normal;font-stretch:normal;fill:#000000;font-family:CodiceNero;-inkscape-font-specification:CodiceNero"
         id="path9568" />
      <path
         d="m 479.1299,-65.002367 c 1.61647,0.57181 3.51887,1.903923 5.7072,3.996344 3.61318,3.517545 5.41981,7.510982 5.41988,11.980323 l 0,33.237561 c -7e-5,1.712327 1.09406,2.806459 3.2824,3.282399 0.19147,0.09289 1.71368,0.235101 4.56662,0.426625 -0.85623,2.4727021 -3.32891,8.3206495 -7.41804,17.5438599 -7.41812,4e-6 -13.64771,-2.0910363 -18.68879,-6.27312705 -6.65771,4.37363645 -13.31538,6.56044955 -19.97301,6.56044585 -6.94211,3.7e-6 -13.05198,-2.2346958 -18.32963,-6.70410525 -5.27768,-4.46938865 -7.91651,-10.03291945 -7.9165,-16.69061045 -1e-5,-11.031262 6.79986,-18.639398 20.39963,-22.824431 5.04111,-0.760328 11.88887,-1.948782 20.5433,-3.565365 -5e-5,-4.184929 -2.66283,-6.27742 -7.98834,-6.27748 -5.32559,6e-5 -10.41461,1.378608 -15.26707,4.135649 -0.28444,0.191601 -2.28116,1.713809 -5.99016,4.566628 l -10.83976,-16.403292 c 0.18864,-0.475894 1.61507,-1.52214 4.27931,-3.13874 3.23305,-2.092421 6.84629,-3.994817 10.83975,-5.707196 4.7567,-2.092415 10.36812,-3.138661 16.83427,-3.13874 7.41801,7.9e-5 14.26431,1.664495 20.53894,4.993252 z m -30.52544,46.362806 c 0.0957,1.520785 1.0941,2.80356 2.99508,3.848331 1.6165,0.951948 3.28091,1.42791 4.99325,1.427887 2.66419,2.3e-5 4.94678,-0.594204 6.84777,-1.782682 1.9009,-1.18843 3.08935,-2.543035 3.56536,-4.06382 l 0,-7.278743 c -3.99348,0.763316 -7.98692,1.525146 -11.98032,2.28549 -4.37657,0.949056 -6.51694,2.803566 -6.42114,5.563537 z"
         style="font-variant:normal;font-stretch:normal;fill:#000000;font-family:CodiceNero;-inkscape-font-specification:CodiceNero"
         id="path9570" />
    </g>
    <g
       style="font-size:213.97413635px;font-style:normal;font-weight:normal;line-height:125%;letter-spacing:0px;word-spacing:0px;fill:#000000;fill-opacity:1;stroke:none;font-family:Sans"
       id="text9510">
      <path
         d="m 646.89094,-145.95879 0,150.0000015 -34.87658,0 0,-150.0000015 z"
         style="font-variant:normal;font-stretch:normal;fill:#000000;font-family:CodiceNero;-inkscape-font-specification:CodiceNero"
         id="path9573" />
      <path
         d="m 710.46022,4.0412115 -38.0828,-108.6979215 37.44286,0 20.11232,61.838839 19.25689,-61.838839 34.23664,0 -33.59017,108.6979215 z"
         style="font-variant:normal;font-stretch:normal;fill:#000000;font-family:CodiceNero;-inkscape-font-specification:CodiceNero"
         id="path9575" />
      <path
         d="m 875.12654,-71.490979 c -3.13883,-0.857519 -6.27756,-1.28632 -9.41622,-1.286405 -7.27446,8.5e-5 -13.26462,1.926425 -17.97049,5.779026 -5.28062,4.135724 -7.9209,9.984397 -7.92085,17.546035 l 0,53.4935345 -34.6611,0 0,-108.6979215 35.09208,0 0,6.843412 c 3.13868,-1.854401 6.20559,-3.708912 9.20073,-5.563532 5.41981,-2.56834 11.12482,-3.85257 17.11505,-3.85269 2.85134,1.2e-4 5.70494,0.28744 8.5608,0.86196 z"
         style="font-variant:normal;font-stretch:normal;fill:#000000;font-family:CodiceNero;-inkscape-font-specification:CodiceNero"
         id="path9577" />
      <path
         d="m 943.70432,-107.01403 c 13.69545,1.2e-4 25.60611,4.84971 35.73201,14.548779 11.41428,10.844201 17.12147,25.11 17.12158,42.797439 -1.1e-4,2.281197 -0.35708,5.918388 -1.07091,10.911584 l -71.47055,0 c 3.28235,10.130205 10.55891,15.051623 21.8297,14.764268 8.84151,-0.282929 17.5416,-3.706808 26.1003,-10.271647 l 22.90061,22.469635 C 977.15509,0.47368161 960.67781,6.6074962 945.41517,6.6074907 931.01,6.6074962 918.45723,2.1148797 907.75682,-6.8703724 896.05945,-16.856848 889.99746,-30.051732 889.57085,-46.455065 c -10e-6,-2.14177 -10e-6,-5.424167 0,-9.847199 0.13929,-10.839675 4.20311,-21.324623 12.19145,-31.454877 10.2738,-12.837809 24.25445,-19.256769 41.94202,-19.256889 z m -19.25689,42.366462 37.44286,0 c -0.85333,-3.991909 -2.99189,-7.378785 -6.4157,-10.160637 -3.42395,-2.781679 -7.49103,-4.244391 -12.20125,-4.388142 -4.84965,-0.143568 -9.05712,1.425801 -12.62244,4.70811 -2.99512,2.712199 -5.06295,5.992419 -6.20347,9.840669 z"
         style="font-variant:normal;font-stretch:normal;fill:#000000;font-family:CodiceNero;-inkscape-font-specification:CodiceNero"
         id="path9579" />
      <path
         d="m 1094.834,-99.524151 c 2.4247,0.857714 5.2783,2.855883 8.5608,5.994515 5.4197,5.276318 8.1297,11.266473 8.1298,17.970484 l 0,49.856339 c -10e-5,2.568491 1.6411,4.209689 4.9236,4.923599 0.2872,0.139339 2.5705,0.352651 6.8499,0.639938 -1.2843,3.709053 -4.9933,12.4809734 -11.127,26.3157885 -11.1272,6e-6 -20.4716,-3.1365543 -28.0332,-9.4096903 -9.9866,6.5604545 -19.9731,9.840674 -29.9595,9.8406685 -10.4132,5.5e-6 -19.578,-3.3520436 -27.4945,-10.0561576 -7.9165,-6.7040831 -11.8747,-15.0493791 -11.8747,-25.0359141 0,-16.546893 10.1998,-27.959097 30.5994,-34.236646 7.5617,-1.140492 17.8333,-2.923173 30.815,-5.348047 -10e-5,-6.277394 -3.9943,-9.416131 -11.9825,-9.41622 -7.9884,8.9e-5 -15.622,2.067912 -22.9007,6.203474 -0.4266,0.287402 -3.4217,2.570713 -8.9852,6.849941 l -16.2596,-24.604936 c 0.2829,-0.713842 2.4226,-2.283211 6.4189,-4.708111 4.8496,-3.138631 10.2695,-5.992226 16.2597,-8.560794 7.135,-3.13862 15.5521,-4.70799 25.2514,-4.70811 11.127,1.2e-4 21.3964,2.49674 30.8084,7.489879 z m -45.7882,69.544206 c 0.1436,2.281177 1.6412,4.20534 4.4926,5.772496 2.4248,1.427922 4.9214,2.141865 7.4899,2.141831 3.9963,3.4e-5 7.4202,-0.891306 10.2717,-2.674024 2.8513,-1.782644 4.634,-3.814551 5.348,-6.095729 l 0,-10.918114 c -5.9902,1.144975 -11.9804,2.287719 -17.9705,3.428235 -6.5648,1.423583 -9.7754,4.205349 -9.6317,8.345305 z"
         style="font-variant:normal;font-stretch:normal;fill:#000000;font-family:CodiceNero;-inkscape-font-specification:CodiceNero"
         id="path9581" />
    </g>
    <g
       style="font-size:213.97413635px;font-style:normal;font-weight:normal;line-height:125%;letter-spacing:0px;word-spacing:0px;fill:#000000;fill-opacity:1;stroke:none;font-family:Sans"
       id="text9514">
      <path
         d="m 2491.3091,-146.74089 74.4613,0 c 10.1301,1.6e-4 19.1175,3.28038 26.9623,9.84067 8.9851,7.56185 13.4777,17.47651 13.4778,29.74402 -1e-4,11.553807 -4.7779,21.753613 -14.3333,30.599453 5.9901,3.565449 10.9115,8.486867 14.7643,14.764268 4.4228,6.987136 6.6343,14.333348 6.6344,22.038657 -1e-4,10.556828 -3.7809,20.114522 -11.3425,28.673109 -8.1321,9.1289138 -17.9031,13.69336 -29.3131,13.6933519 l -81.3112,0 z m 35.5165,58.201644 31.2394,0 c 2.9994,9.9e-5 5.8889,-1.390784 8.6686,-4.172653 2.7795,-2.781662 4.1693,-5.885572 4.1694,-9.311741 -10e-5,-3.70891 -1.3899,-6.9543 -4.1694,-9.73619 -2.7797,-2.78164 -5.6692,-4.17252 -8.6686,-4.17265 l -31.2394,0 z m 0,60.552434 31.4549,0 c 12.2676,3.9e-5 18.4014,-5.419833 18.4015,-16.259631 -10e-5,-4.27925 -1.5695,-7.917529 -4.7081,-10.914849 -3.1389,-2.997189 -6.7761,-4.495816 -10.9116,-4.495886 l -34.2367,0 z"
         style="font-variant:normal;font-stretch:normal;fill:#000000;font-family:CodiceNero;-inkscape-font-specification:CodiceNero"
         id="path9630" />
      <path
         d="m 2636.9601,-106.08528 34.4522,0 0,108.913408 -34.4522,0 z m -0.6399,-33.8122 c 3.5654,-7.13057 9.414,-10.69593 17.546,-10.69609 3.1388,1.6e-4 6.062,0.64227 8.7698,1.92634 7.2743,3.56552 10.9115,9.48602 10.9116,17.76152 -10e-5,2.99522 -0.6422,5.84664 -1.9264,8.55427 -3.5654,7.13521 -9.4837,10.70274 -17.755,10.70262 -3.1387,1.2e-4 -6.0641,-0.64199 -8.7762,-1.92634 -7.1308,-3.56524 -10.6961,-9.41391 -10.6961,-17.54604 0,-3.13859 0.6421,-6.06402 1.9263,-8.77628 z"
         style="font-variant:normal;font-stretch:normal;fill:#000000;font-family:CodiceNero;-inkscape-font-specification:CodiceNero"
         id="path9632" />
      <path
         d="m 2745.3055,-108.4426 c 13.6954,1.2e-4 25.6061,4.84971 35.732,14.548776 11.4142,10.844202 17.1214,25.110001 17.1215,42.79744 -1e-4,2.281196 -0.357,5.918387 -1.0709,10.911584 l -71.4705,0 c 3.2823,10.130204 10.5589,15.051622 21.8297,14.764267 8.8415,-0.282929 17.5416,-3.706808 26.1003,-10.271646 l 22.9006,22.469635 c -17.692,12.26765296 -34.1693,18.4014676 -49.4319,18.401462 -14.4052,5.6e-6 -26.9579,-4.49261095 -37.6583,-13.4778631 -11.6974,-9.9864759 -17.7594,-23.1813599 -18.186,-39.5846929 0,-2.14177 0,-5.424166 0,-9.847198 0.1393,-10.839675 4.2031,-21.324624 12.1914,-31.454877 10.2738,-12.837817 24.2545,-19.256767 41.9421,-19.256887 z m -19.2569,42.366459 37.4428,0 c -0.8533,-3.991909 -2.9919,-7.378785 -6.4157,-10.160637 -3.4239,-2.781679 -7.491,-4.244391 -12.2012,-4.388142 -4.8497,-0.143567 -9.0571,1.425801 -12.6225,4.708111 -2.9951,2.712199 -5.0629,5.992418 -6.2034,9.840668 z"
         style="font-variant:normal;font-stretch:normal;fill:#000000;font-family:CodiceNero;-inkscape-font-specification:CodiceNero"
         id="path9634" />
      <path
         d="m 2852.3578,-148.88272 0,110.199813 c 0,4.705978 0.357,7.701056 1.0709,8.985242 0.1437,0.426665 1.0709,0.996949 2.7818,1.710853 0.8576,0.426663 1.9981,0.639975 3.4217,0.639937 2.995,3.8e-5 6.9196,-0.927217 11.7736,-2.781768 2.4247,21.4009159 3.4934,32.1013533 3.2062,32.1013446 -5.9902,0.8532576 -14.7622,1.7086831 -26.3158,2.5662791 -8.2757,6.2e-6 -16.1225,-3.3520429 -23.5406,-10.0561575 -4.1356,-3.7090044 -6.6323,-10.9855632 -7.4898,-21.8296982 l 0,-121.535845 z"
         style="font-variant:normal;font-stretch:normal;fill:#000000;font-family:CodiceNero;-inkscape-font-specification:CodiceNero"
         id="path9636" />
      <path
         d="m 2927.5831,-148.88272 0,110.199813 c 0,4.705978 0.3569,7.701056 1.0709,8.985242 0.1436,0.426665 1.0709,0.996949 2.7818,1.710853 0.8575,0.426663 1.9981,0.639975 3.4217,0.639937 2.995,3.8e-5 6.9195,-0.927217 11.7735,-2.781768 2.4248,21.4009159 3.4935,32.1013533 3.2063,32.1013446 -5.9903,0.8532576 -14.7622,1.7086831 -26.3158,2.5662791 -8.2757,6.2e-6 -16.1226,-3.3520429 -23.5406,-10.0561575 -4.1356,-3.7090044 -6.6323,-10.9855632 -7.4899,-21.8296982 l 0,-121.535845 z"
         style="font-variant:normal;font-stretch:normal;fill:#000000;font-family:CodiceNero;-inkscape-font-specification:CodiceNero"
         id="path9638" />
      <path
         d="m 3017.7881,-108.4426 c 13.6955,1.2e-4 25.6062,4.84971 35.7321,14.548776 11.4142,10.844202 17.1214,25.110001 17.1215,42.79744 -1e-4,2.281196 -0.357,5.918387 -1.0709,10.911584 l -71.4705,0 c 3.2823,10.130204 10.5589,15.051622 21.8297,14.764267 8.8415,-0.282929 17.5416,-3.706808 26.1003,-10.271646 l 22.9006,22.469635 c -17.692,12.26765296 -34.1693,18.4014676 -49.4319,18.401462 -14.4052,5.6e-6 -26.9579,-4.49261095 -37.6583,-13.4778631 -11.6974,-9.9864759 -17.7594,-23.1813599 -18.186,-39.5846929 0,-2.14177 0,-5.424166 0,-9.847198 0.1393,-10.839675 4.2031,-21.324624 12.1914,-31.454877 10.2738,-12.837817 24.2545,-19.256767 41.942,-19.256887 z m -19.2568,42.366459 37.4428,0 c -0.8533,-3.991909 -2.9919,-7.378785 -6.4157,-10.160637 -3.4239,-2.781679 -7.491,-4.244391 -12.2012,-4.388142 -4.8497,-0.143567 -9.0572,1.425801 -12.6225,4.708111 -2.9951,2.712199 -5.0629,5.992418 -6.2034,9.840668 z"
         style="font-variant:normal;font-stretch:normal;fill:#000000;font-family:CodiceNero;-inkscape-font-specification:CodiceNero"
         id="path9640" />
      <path
         d="m 3137.254,-107.79613 c 18.828,1.1e-4 35.4468,5.77696 49.8563,17.330542 l -21.8297,22.894083 c -5.5636,-7.130644 -13.6215,-10.696006 -24.1739,-10.696095 -7.5618,8.9e-5 -11.3426,1.282139 -11.3426,3.846154 0,1.140653 0.8554,2.139738 2.5663,2.997258 0.5702,0.2874 6.9892,1.713109 19.2569,4.277131 10.5567,2.285566 18.545,5.567963 23.965,9.847199 7.8446,5.990223 11.7669,14.620662 11.767,25.891341 -1e-4,7.418083 -2.7819,14.479153 -8.3453,21.18323 -8.2714,10.26948074 -20.9656,15.4042106 -38.0828,15.404205 -21.1136,5.6e-6 -39.3018,-6.9174049 -54.5644,-20.752252 -0.714,-0.430952 6.9892,-7.70751 23.1095,-21.829698 13.2645,8.845975 23.9628,13.268939 32.0948,13.268904 2.1418,3.5e-5 4.14,-0.428766 5.9946,-1.286405 2.4247,-1.140531 3.3519,-2.63807 2.7817,-4.492621 -1.0013,-2.995037 -6.4234,-5.419831 -16.2661,-7.274389 -12.4114,-2.141781 -21.0418,-4.710234 -25.8914,-7.705368 -8.9852,-5.419816 -13.4779,-14.119907 -13.4778,-26.100299 -10e-5,-10.844015 3.8874,-19.688854 11.6625,-26.534543 7.775,-6.845477 18.0814,-10.268267 30.9194,-10.268377 z"
         style="font-variant:normal;font-stretch:normal;fill:#000000;font-family:CodiceNero;-inkscape-font-specification:CodiceNero"
         id="path9642" />
      <path
         d="m 3259.3449,-108.4426 c 13.6954,1.2e-4 25.6061,4.84971 35.732,14.548776 11.4143,10.844202 17.1215,25.110001 17.1216,42.79744 -10e-5,2.281196 -0.3571,5.918387 -1.0709,10.911584 l -71.4706,0 c 3.2824,10.130204 10.5589,15.051622 21.8297,14.764267 8.8415,-0.282929 17.5416,-3.706808 26.1003,-10.271646 l 22.9006,22.469635 c -17.6919,12.26765296 -34.1692,18.4014676 -49.4319,18.401462 -14.4051,5.6e-6 -26.9579,-4.49261095 -37.6583,-13.4778631 -11.6974,-9.9864759 -17.7594,-23.1813599 -18.186,-39.5846929 0,-2.14177 0,-5.424166 0,-9.847198 0.1393,-10.839675 4.2031,-21.324624 12.1915,-31.454877 10.2738,-12.837817 24.2544,-19.256767 41.942,-19.256887 z m -19.2569,42.366459 37.4429,0 c -0.8534,-3.991909 -2.9919,-7.378785 -6.4157,-10.160637 -3.424,-2.781679 -7.4911,-4.244391 -12.2013,-4.388142 -4.8496,-0.143567 -9.0571,1.425801 -12.6224,4.708111 -2.9952,2.712199 -5.063,5.992418 -6.2035,9.840668 z"
         style="font-variant:normal;font-stretch:normal;fill:#000000;font-family:CodiceNero;-inkscape-font-specification:CodiceNero"
         id="path9644" />
    </g>
    <g
       style="font-size:142.64942932px;font-style:normal;font-weight:normal;line-height:125%;letter-spacing:0px;word-spacing:0px;fill:#000000;fill-opacity:1;stroke:none;font-family:Sans"
       id="text9551">
      <path
         d="m 2291.4769,-365.63368 -25.3886,-72.46529 24.9619,0 13.4083,41.2259 12.8379,-41.2259 22.8244,0 -22.3934,72.46529 z"
         style="font-variant:normal;font-stretch:normal;fill:#000000;font-family:CodiceNero;-inkscape-font-specification:CodiceNero"
         id="path9610" />
      <path
         d="m 2351.8965,-438.09897 22.9681,0 0,72.60895 -22.9681,0 z m -0.4266,-22.54146 c 2.3769,-4.75372 6.276,-7.13062 11.6974,-7.13073 2.0924,1.1e-4 4.0413,0.42818 5.8465,1.28423 4.8495,2.37701 7.2743,6.32401 7.2744,11.84101 -10e-5,1.99682 -0.4282,3.89776 -1.2843,5.70285 -2.3769,4.7568 -6.3225,7.13516 -11.8366,7.13508 -2.0925,8e-5 -4.0428,-0.428 -5.8509,-1.28423 -4.7538,-2.37682 -7.1307,-6.27594 -7.1307,-11.69736 0,-2.09239 0.428,-4.04268 1.2842,-5.85085 z"
         style="font-variant:normal;font-stretch:normal;fill:#000000;font-family:CodiceNero;-inkscape-font-specification:CodiceNero"
         id="path9612" />
      <path
         d="m 2443.5251,-434.67726 c 1.6165,0.57181 3.5189,1.90392 5.7072,3.99634 3.6132,3.51755 5.4198,7.51098 5.4199,11.98033 l 0,33.23756 c -1e-4,1.71232 1.094,2.80646 3.2824,3.2824 0.1915,0.0929 1.7137,0.2351 4.5666,0.42662 -0.8562,2.4727 -3.3289,8.32065 -7.418,17.54386 -7.4182,0 -13.6477,-2.09104 -18.6888,-6.27313 -6.6577,4.37364 -13.3154,6.56045 -19.973,6.56045 -6.9421,0 -13.052,-2.2347 -18.3297,-6.70411 -5.2776,-4.46938 -7.9165,-10.03292 -7.9165,-16.69061 0,-11.03126 6.7999,-18.63939 20.3997,-22.82443 5.0411,-0.76033 11.8888,-1.94878 20.5433,-3.56536 -10e-5,-4.18493 -2.6629,-6.27742 -7.9884,-6.27748 -5.3256,6e-5 -10.4146,1.37861 -15.2671,4.13565 -0.2844,0.1916 -2.2811,1.71381 -5.9901,4.56662 l -10.8398,-16.40329 c 0.1887,-0.47589 1.6151,-1.52214 4.2793,-3.13874 3.2331,-2.09242 6.8463,-3.99481 10.8398,-5.70719 4.7567,-2.09242 10.3681,-3.13866 16.8343,-3.13874 7.418,8e-5 14.2643,1.66449 20.5389,4.99325 z m -30.5254,46.3628 c 0.096,1.52079 1.0941,2.80357 2.995,3.84834 1.6165,0.95194 3.281,1.42791 4.9933,1.42788 2.6642,3e-5 4.9468,-0.5942 6.8478,-1.78268 1.9009,-1.18843 3.0893,-2.54303 3.5653,-4.06382 l 0,-7.27874 c -3.9935,0.76331 -7.9869,1.52514 -11.9803,2.28549 -4.3766,0.94905 -6.5169,2.80356 -6.4211,5.56353 z"
         style="font-variant:normal;font-stretch:normal;fill:#000000;font-family:CodiceNero;-inkscape-font-specification:CodiceNero"
         id="path9614" />
    </g>
    <rect
       style="fill:none;stroke:#000000;stroke-width:54.00000381;stroke-miterlimit:4;stroke-opacity:1;stroke-dasharray:none"
       id="rect9555"
       width="3492"
       height="1892"
       x="54"
       y="-893.63776"
       rx="189.28572"
       ry="189.28572" />
  </g>
</svg>
