<svg xmlns="http://www.w3.org/2000/svg" width="200" height="200" xmlns:v="https://vecta.io/nano"><path d="M0-.616h200.971V200H0z" fill="#fff"/><rect width="194.806" height="194.806" ry="18.58" x="3.234" y="2.862" fill="none" stroke="#000" stroke-width="3"/><path d="M101.498 159.91l.001-24.992-6.055 7.474c-7.826 9.66-9.328 11.21-10.86 11.2-1.55-.009-40.274-16.545-42.296-18.061-2.721-2.04-4.029-4.664-4.008-8.044s.884-5.514 3.032-7.495c1.711-1.578 5.173-3.029 7.199-3.017.845.005 7.162 2.383 14.036 5.285s12.741 5.261 13.038 5.244 6.435-7.707 13.642-17.088c15.52-20.202 16.874-21.742 20.653-23.482l2.897-1.334 27.054.158 27.054.158 1.632 1.652c.898.909 1.908 2.703 2.246 3.988.424 1.612.482 16.46.189 47.902l-.424 45.566-34.514-.06-34.514-.06.001-24.992h0 0zM14.44 119.532c-.18-.705-.096-1.422.187-1.595s6.254-1.954 13.269-3.958 12.669-3.732 12.564-3.838c-.173-.175-21.642 2.797-25.278 3.499-1.277.247-1.561.058-1.792-1.192-.215-1.164-.01-1.542.949-1.749 3.321-.717 29.395-4.22 29.632-3.981.15.152.377 1.466.504 2.921l.232 2.646-4.186 1.205-14.708 4.265-10.784 3.059c-.144-.001-.409-.578-.588-1.283h0zm62.631-5.465l-3.744-1.853-13.142-.263-13.142-.263.044-7.183.044-7.183 12.452.076c9.292.056 13.432.312 16.315 1.007 4.424 1.066 13.473 4.928 13.777 5.879.217.682-7.818 11.77-8.47 11.687-.213-.027-2.073-.883-4.132-1.903h0zm-64.072-9.73l.009-1.444 15.599.095 15.599.095-.009 1.444-.009 1.444-15.599-.095-15.599-.095.009-1.444h0zm14.18-4.077c-7.302-1.159-13.43-2.275-13.619-2.481s-.185-.906.009-1.557c.351-1.178.407-1.174 12.763.792 6.825 1.086 12.78 1.915 13.232 1.843s-4.997-1.878-12.109-4.014c-12.332-3.702-12.923-3.945-12.765-5.242.091-.748.226-1.42.301-1.494s6.801 1.88 14.946 4.342l14.81 4.476-.232 2.067-.269 2.789c-.054 1.036-2.084.855-17.068-1.522h0zm95.944-19.832c-5.597-1.143-11.36-5.671-14.051-11.04-1.001-1.997-1.349-3.825-1.485-7.809-.098-2.86.038-5.51.302-5.889.368-.528 2.488-.413 9.124.497 9.077 1.244 17.18 3.288 21.118 5.328 2.982 1.544 7.4 5.645 7.392 6.863-.011 1.735-4.152 6.888-7.173 8.927-2.986 2.014-8.564 3.822-11.368 3.684-.807-.04-2.543-.292-3.859-.561h0zm47.954-.884c-7.578-1.344-13.305-4.734-21.864-12.94-9.358-8.973-13.418-10.512-36.049-13.663-13.198-1.838-20.656-3.524-22.668-5.127-2.298-1.83-2-4.578.74-6.829 3.103-2.55 8.3-4.835 14.435-6.346 5.05-1.244 5.322-1.391 5.663-3.059.751-3.669 3.056-8.61 5.07-10.869s2.245-2.356 6.082-2.541c9.075-.436 18.643 3.283 24.999 9.716 3.127 3.165 4.47 5.15 6.893 10.188l3.009 6.257 5.756 2.932c11.337 5.776 22.154 13.506 24.608 17.586 2.133 3.547 1.236 7.049-2.793 10.893-3.697 3.528-8.307 4.79-13.881 3.801zm-48.851-40.552c.163-.555.485-3.482.715-6.505.428-5.63-.07-9.127-1.605-11.252-.773-1.071-.857-1.075-2.377-.092-1.716 1.11-3.913 5.368-5.029 9.747-.701 2.752-.69 2.795 1.236 4.824 1.715 1.807 5.266 4.182 6.368 4.26.217.015.528-.426.691-.981h0z"/></svg>