<svg xmlns="http://www.w3.org/2000/svg" width="1700" height="3000" xmlns:v="https://vecta.io/nano"><path d="M0 0h1700v3000H0z" fill="#08842c" fill-rule="evenodd"/><path d="M672.164 150L523.25 920h264.795l30.074-770zm209.74 0l30.072 770h264.893l-148.914-770zM100 970v80h190v110h86.836l21.273-110h903.9l21.273 110h86.715v-110h190v-80zm378.77 180L150 2850h562.666l66.396-1700zm442.191 0l66.396 1700h564.428L1221.35 1150z" fill="#fff"/><path d="M1380.199 45L33.295 2689.531l22.421 165.386 94.385 91.222L308.097 2955 1655 310.469l-2.851-138.081-58.515-94.826-91.763-32.503z" fill="#d40000"/><path d="M202.5 45h1295c87.255 0 157.5 70.245 157.5 157.5v2595c0 87.255-70.245 157.5-157.5 157.5h-1295c-87.255 0-157.5-70.245-157.5-157.5v-2595C45 115.245 115.245 45 202.5 45z" fill="none" stroke="#fff" stroke-width="45"/></svg>