<?xml version="1.0" encoding="UTF-8" standalone="no"?>
<!-- Created with Inkscape (http://www.inkscape.org/) -->

<svg
   xmlns:dc="http://purl.org/dc/elements/1.1/"
   xmlns:cc="http://creativecommons.org/ns#"
   xmlns:rdf="http://www.w3.org/1999/02/22-rdf-syntax-ns#"
   xmlns:svg="http://www.w3.org/2000/svg"
   xmlns="http://www.w3.org/2000/svg"
   xmlns:sodipodi="http://sodipodi.sourceforge.net/DTD/sodipodi-0.dtd"
   xmlns:inkscape="http://www.inkscape.org/namespaces/inkscape"
   width="3000"
   height="2000"
   id="svg6150"
   version="1.1"
   inkscape:version="0.48.5 r10040"
   sodipodi:docname="CANC Corsie.svg">
  <defs
     id="defs6152">
    <inkscape:path-effect
       effect="spiro"
       id="path-effect5336"
       is_visible="true" />
    <inkscape:path-effect
       effect="spiro"
       id="path-effect5334"
       is_visible="true" />
    <inkscape:path-effect
       is_visible="true"
       id="path-effect5332"
       effect="spiro" />
  </defs>
  <sodipodi:namedview
     id="base"
     pagecolor="#ffffff"
     bordercolor="#666666"
     borderopacity="1.0"
     inkscape:pageopacity="0.0"
     inkscape:pageshadow="2"
     inkscape:zoom="0.12374369"
     inkscape:cx="3042.4959"
     inkscape:cy="930.54917"
     inkscape:document-units="px"
     inkscape:current-layer="text5236"
     showgrid="false"
     fit-margin-top="0"
     fit-margin-left="0"
     fit-margin-right="0"
     fit-margin-bottom="0"
     inkscape:window-width="1366"
     inkscape:window-height="705"
     inkscape:window-x="-8"
     inkscape:window-y="-8"
     inkscape:window-maximized="1" />
  <metadata
     id="metadata6155">
    <rdf:RDF>
      <cc:Work
         rdf:about="">
        <dc:format>image/svg+xml</dc:format>
        <dc:type
           rdf:resource="http://purl.org/dc/dcmitype/StillImage" />
        <dc:title />
      </cc:Work>
    </rdf:RDF>
  </metadata>
  <g
     inkscape:label="Livello 1"
     inkscape:groupmode="layer"
     id="layer1"
     transform="translate(911.42877,504.78067)">
    <rect
       y="-504.78067"
       x="-911.42877"
       height="2000"
       width="3000"
       id="rect5210"
       style="fill:#08842c;fill-opacity:1;fill-rule:evenodd;stroke:none" />
    <rect
       ry="157.5838"
       rx="157.5838"
       y="-459.78067"
       x="-866.42877"
       height="1910"
       width="2910"
       id="rect5212"
       style="fill:none;stroke:#ffffff;stroke-width:45;stroke-miterlimit:4;stroke-opacity:1;stroke-dasharray:none" />
    <path
       sodipodi:nodetypes="cccsssscccscc"
       inkscape:original-d="m 667.48242,1217.3983 0,-1007.10118 45.1361,11.2841 90.2722,25.389 c 25.5818,7.1949 35.9643,-40.9649 39.8094,-50.6532 1.8,-4.5371 -18.0825,-29.2832 -39.6503,-61.3166 -31.6664,-47.033201 -61.7618,-103.694901 -67.412,-111.228601 -58.4514,-77.9351 -31.4828,-56.0817 -31.4828,-56.0817 l -115.6612,-197.470799 -259.533,445.7198 c 0,0 38.5287,-3.1244 4.1939,23.5235 -28.6676,22.2496 74.7942,-3.7764 74.7942,-3.7764 l 104.3779,-22.5681 0,1007.10128 155.1556,-2.8211 z"
       inkscape:path-effect="#path-effect5332"
       id="path5214"
       d="m 667.48242,1217.3983 0,-1007.10118 c 15.0813,3.61563 30.12761,7.37724 45.1361,11.2841 30.25201,7.87491 60.35038,16.34006 90.2722,25.389 7.2683,2.19808 14.81127,4.23443 22.35362,3.35531 7.54234,-0.87913 14.7574,-4.79457 19.25761,-10.91076 4.50021,-6.1162 6.14027,-14.05209 5.35707,-21.60499 -0.7832,-7.55291 -3.77311,-14.69598 -7.1589,-21.49276 -10.86383,-21.80848 -25.79202,-41.27713 -39.6503,-61.3166 -24.66846,-35.671297 -46.12043,-73.444431 -67.412,-111.228601 -10.52452,-18.6768937 -21.01881,-37.370826 -31.4828,-56.0817 l -115.6612,-197.470799 -259.533,445.7198 c -1.73976,3.85771 -2.28481,8.24436 -1.54205,12.41053 0.74277,4.16618 2.77021,8.09418 5.73595,11.11297 4.5601,4.64166 11.08586,6.96341 17.56734,7.53783 6.48148,0.57441 13.00498,-0.43452 19.35062,-1.87408 12.69128,-2.87912 25.1564,-6.68993 37.87624,-9.44015 l 104.3779,-22.5681 0,1007.10128 155.1556,-2.8211"
       style="fill:#ffffff;fill-opacity:1;stroke:none;display:inline"
       inkscape:connector-curvature="0" />
    <path
       inkscape:connector-curvature="0"
       style="fill:#ffffff;fill-opacity:1;stroke:none;display:inline"
       d="m -282.51758,1217.3983 0,-1007.10118 c 15.0813,3.61563 30.12761,7.37724 45.1361,11.2841 30.25201,7.87491 60.35038,16.34006 90.2722,25.389 7.2683,2.19808 14.81127,4.23443 22.35362,3.35531 7.54234,-0.87913 14.7574,-4.79457 19.25761,-10.91076 4.50021,-6.1162 6.140268,-14.05209 5.35707,-21.60499 -0.7832,-7.55291 -3.77311,-14.69598 -7.1589,-21.49276 -10.86383,-21.80848 -25.79202,-41.27713 -39.6503,-61.3166 -24.66846,-35.671297 -46.12043,-73.444431 -67.412,-111.228601 -10.52452,-18.6768937 -21.01881,-37.370826 -31.4828,-56.0817 l -115.6612,-197.470799 -259.533,445.7198 c -1.73976,3.85771 -2.28481,8.24436 -1.54205,12.41053 0.74277,4.16618 2.77021,8.09418 5.73595,11.11297 4.5601,4.64166 11.08586,6.96341 17.56734,7.53783 6.48148,0.57441 13.00498,-0.43452 19.35062,-1.87408 12.69128,-2.87912 25.1564,-6.68993 37.87624,-9.44015 l 104.3779,-22.5681 0,1007.10128 155.1556,-2.8211"
       id="path5216"
       inkscape:path-effect="#path-effect5334"
       inkscape:original-d="m -282.51758,1217.3983 0,-1007.10118 45.1361,11.2841 90.2722,25.389 c 25.5818,7.1949 35.9643,-40.9649 39.8094,-50.6532 1.8,-4.5371 -18.0825,-29.2832 -39.6503,-61.3166 -31.6664,-47.033201 -61.7618,-103.694901 -67.412,-111.228601 -58.4514,-77.9351 -31.4828,-56.0817 -31.4828,-56.0817 l -115.6612,-197.470799 -259.533,445.7198 c 0,0 38.5287,-3.1244 4.1939,23.5235 -28.6676,22.2496 74.7942,-3.7764 74.7942,-3.7764 l 104.3779,-22.5681 0,1007.10128 155.1556,-2.8211 z"
       sodipodi:nodetypes="cccsssscccscc" />
    <path
       inkscape:connector-curvature="0"
       style="fill:#ffffff;fill-opacity:1;stroke:none;display:inline"
       d="m 1617.4824,1217.3983 0,-1007.10118 c 15.0813,3.61563 30.1276,7.37724 45.1361,11.2841 30.252,7.87491 60.3504,16.34006 90.2722,25.389 7.2683,2.19808 14.8113,4.23443 22.3536,3.35531 7.5424,-0.87913 14.7574,-4.79457 19.2576,-10.91076 4.5002,-6.1162 6.1403,-14.05209 5.3571,-21.60499 -0.7832,-7.55291 -3.7731,-14.69598 -7.1589,-21.49276 -10.8638,-21.80848 -25.792,-41.27713 -39.6503,-61.3166 -24.6685,-35.671297 -46.1204,-73.444431 -67.412,-111.228601 -10.5245,-18.6768937 -21.0188,-37.370826 -31.4828,-56.0817 l -115.6612,-197.470799 -259.533,445.7198 c -1.7398,3.85771 -2.2848,8.24436 -1.542,12.41053 0.7427,4.16618 2.7702,8.09418 5.7359,11.11297 4.5601,4.64166 11.0859,6.96341 17.5673,7.53783 6.4815,0.57441 13.005,-0.43452 19.3507,-1.87408 12.6912,-2.87912 25.1564,-6.68993 37.8762,-9.44015 l 104.3779,-22.5681 0,1007.10128 155.1556,-2.8211"
       id="path5218"
       inkscape:path-effect="#path-effect5336"
       inkscape:original-d="m 1617.4824,1217.3983 0,-1007.10118 45.1361,11.2841 90.2722,25.389 c 25.5818,7.1949 35.9643,-40.9649 39.8094,-50.6532 1.8,-4.5371 -18.0825,-29.2832 -39.6503,-61.3166 -31.6664,-47.033201 -61.7618,-103.694901 -67.412,-111.228601 -58.4514,-77.9351 -31.4828,-56.0817 -31.4828,-56.0817 l -115.6612,-197.470799 -259.533,445.7198 c 0,0 38.5287,-3.1244 4.1939,23.5235 -28.6676,22.2496 74.7942,-3.7764 74.7942,-3.7764 l 104.3779,-22.5681 0,1007.10128 155.1556,-2.8211 z"
       sodipodi:nodetypes="cccsssscccscc" />
    <path
       transform="matrix(1.3575544,0,0,1.2605862,-457.42238,1430.1972)"
       d="m 291.32799,-571.1452 c 0,131.21616 -98.77374,237.58787 -220.617312,237.58787 -121.843576,0 -220.617308,-106.37171 -220.617308,-237.58787 0,-131.21616 98.773732,-237.58788 220.617308,-237.58788 121.843572,0 220.617312,106.37172 220.617312,237.58788 z"
       sodipodi:ry="237.58788"
       sodipodi:rx="220.61731"
       sodipodi:cy="-571.1452"
       sodipodi:cx="70.710678"
       id="path5220"
       style="fill:#ffffff;fill-opacity:1;stroke:#000000;stroke-width:0.7644254;stroke-opacity:1"
       sodipodi:type="arc" />
    <path
       sodipodi:type="arc"
       style="fill:#00408b;fill-opacity:1;stroke:none"
       id="path5222"
       sodipodi:cx="70.710678"
       sodipodi:cy="-571.1452"
       sodipodi:rx="220.61731"
       sodipodi:ry="237.58788"
       d="m 291.32799,-571.1452 c 0,131.21616 -98.77374,237.58787 -220.617312,237.58787 -121.843576,0 -220.617308,-106.37171 -220.617308,-237.58787 0,-131.21616 98.773732,-237.58788 220.617308,-237.58788 121.843572,0 220.617312,106.37172 220.617312,237.58788 z"
       transform="matrix(1.3144934,0,0,1.220601,-453.87778,1406.8596)" />
    <g
       transform="translate(1390.5453,2853.1016)"
       style="font-size:387.37948608px;font-style:normal;font-weight:normal;line-height:125%;letter-spacing:0px;word-spacing:0px;fill:#ffffff;fill-opacity:1;stroke:none;font-family:Sans"
       id="g5224">
      <g
         style="font-size:334.28024292px;line-height:125%;fill:#ffffff;font-family:Sans"
         id="text5226">
        <path
           d="m -1956.7423,-2177.8119 c -0.4421,-28.523 7.3586,-50.6975 23.4021,-66.5235 14.9348,-14.7102 34.9908,-22.0654 60.1679,-22.0657 24.9594,3e-4 45.0188,7.5799 60.1782,22.739 20.7224,20.7227 31.0836,54.5948 31.0838,101.6164 -2e-4,80.0064 -30.3086,120.0095 -90.9253,120.0095 -27.1903,0 -47.9161,-7.4674 -62.1777,-22.4023 -5.1211,-5.57 -10.2456,-14.4826 -15.3735,-26.738 l 43.7947,-18.3829 c 6.4608,15.5946 17.6008,23.3919 33.4198,23.3918 11.3643,1e-4 20.9469,-4.1213 28.7477,-12.3641 7.8005,-8.2427 11.7009,-18.1584 11.701,-29.7473 -10e-5,-2.2306 -0.1124,-4.4614 -0.3367,-6.6922 -11.5821,10.9224 -27.2923,16.3836 -47.1305,16.3835 -20.2805,1e-4 -37.4393,-6.1275 -51.4764,-18.3829 -16.2679,-14.2683 -24.6263,-34.5487 -25.0751,-60.8413 z m 47.4672,-2.6728 c -10e-5,10.9157 3.6776,19.9949 11.0329,27.2378 7.3551,7.2431 16.0484,10.8646 26.0799,10.8645 10.4733,10e-5 19.2194,-3.7319 26.2381,-11.1961 7.0184,-7.4638 10.5277,-16.4326 10.5278,-26.9062 -10e-5,-11.5886 -2.8973,-21.1712 -8.6916,-28.7476 -6.461,-8.6914 -15.8191,-13.0372 -28.0743,-13.0374 -11.8133,2e-4 -20.9521,3.8444 -27.4163,11.5327 -6.4644,7.6886 -9.6966,17.7727 -9.6965,30.2523 z"
           style="font-variant:normal;font-stretch:normal;text-align:center;text-anchor:middle;fill:#ffffff;font-family:CodiceBianco;-inkscape-font-specification:CodiceBianco"
           id="path3009" />
        <path
           d="m -1550.5216,-2144.0554 c -3e-4,45.4644 -12.2589,78.7822 -36.7762,99.9535 -17.6078,15.1526 -38.5547,22.7288 -62.8407,22.7288 -23.8443,0 -44.6823,-7.7973 -62.5144,-23.3919 -24.293,-21.6201 -36.4395,-54.8257 -36.4394,-99.6169 -10e-5,-47.4704 12.8163,-81.5669 38.4491,-102.2896 16.9343,-13.8193 37.1025,-20.7291 60.5047,-20.7293 23.1775,2e-4 43.4579,7.2432 60.8413,21.729 25.8502,21.396 38.7753,55.2681 38.7756,101.6164 z m -99.2905,77.2247 c 32.9845,1e-4 49.4767,-26.5202 49.4769,-79.5609 -2e-4,-51.0341 -16.1558,-76.5512 -48.4669,-76.5514 -33.6512,2e-4 -50.4768,25.6295 -50.4767,76.8881 -10e-5,52.8162 16.4888,79.2243 49.4667,79.2242 z"
           style="font-variant:normal;font-stretch:normal;text-align:center;text-anchor:middle;fill:#ffffff;font-family:CodiceBianco;-inkscape-font-specification:CodiceBianco"
           id="path3011" />
      </g>
    </g>
    <path
       sodipodi:type="arc"
       style="fill:#ffffff;fill-opacity:1;stroke:#000000;stroke-width:0.7644254;stroke-opacity:1"
       id="path5230"
       sodipodi:cx="70.710678"
       sodipodi:cy="-571.1452"
       sodipodi:rx="220.61731"
       sodipodi:ry="237.58788"
       d="m 291.32799,-571.1452 c 0,131.21616 -98.77374,237.58787 -220.617312,237.58787 -121.843576,0 -220.617308,-106.37171 -220.617308,-237.58787 0,-131.21616 98.773732,-237.58788 220.617308,-237.58788 121.843572,0 220.617312,106.37172 220.617312,237.58788 z"
       transform="matrix(1.3575544,0,0,1.2605862,492.57762,1430.1972)" />
    <path
       transform="matrix(1.3144934,0,0,1.220601,496.12222,1406.8596)"
       d="m 291.32799,-571.1452 c 0,131.21616 -98.77374,237.58787 -220.617312,237.58787 -121.843576,0 -220.617308,-106.37171 -220.617308,-237.58787 0,-131.21616 98.773732,-237.58788 220.617308,-237.58788 121.843572,0 220.617312,106.37172 220.617312,237.58788 z"
       sodipodi:ry="237.58788"
       sodipodi:rx="220.61731"
       sodipodi:cy="-571.1452"
       sodipodi:cx="70.710678"
       id="path5232"
       style="fill:#00408b;fill-opacity:1;stroke:none"
       sodipodi:type="arc" />
    <g
       id="g5234"
       style="font-size:387.37948608px;font-style:normal;font-weight:normal;line-height:125%;letter-spacing:0px;word-spacing:0px;fill:#ffffff;fill-opacity:1;stroke:none;font-family:Sans"
       transform="translate(2340.5458,2853.1016)">
      <g
         style="font-size:334.28024292px;line-height:125%;fill:#ffffff;font-family:Sans"
         id="text5236">
        <path
           d="m -1864.1848,-2266.7275 c 40.5607,2e-4 66.3023,16.4891 77.2248,49.4667 l -45.1311,18.3829 c -5.7946,-15.8188 -16.9379,-23.7283 -33.4301,-23.7285 -26.9658,2e-4 -40.7819,16.2681 -41.4484,48.8036 13.8195,-10.6977 30.645,-16.0466 50.4767,-16.0468 22.2865,2e-4 40.6168,7.8008 54.9907,23.402 14.3737,15.6016 21.5606,35.7698 21.5608,60.5047 -2e-4,27.1903 -8.3586,48.5826 -25.0751,64.1771 -15.3771,14.4861 -35.0999,21.7291 -59.1683,21.7291 -34.0932,0 -59.0527,-13.2585 -74.8784,-39.7754 -12.4798,-21.1713 -18.7197,-49.6978 -18.7197,-85.5797 0,-80.8903 31.1994,-121.3355 93.5981,-121.3357 z m -39.7753,160.7846 c -10e-5,11.8133 3.0093,21.5081 9.0282,29.0842 6.6853,8.4673 16.1556,12.7009 28.411,12.7008 10.6978,1e-4 19.6121,-3.6775 26.743,-11.0328 7.1307,-7.3552 10.6961,-17.6059 10.6962,-30.7522 -10e-5,-12.0376 -3.5111,-21.6762 -10.533,-28.9159 -7.0221,-7.2395 -15.7698,-10.8593 -26.2431,-10.8595 -12.4799,2e-4 -22.2834,4.9003 -29.4107,14.7003 -5.7945,7.5764 -8.6917,15.9347 -8.6916,25.0751 z"
           style="font-variant:normal;font-stretch:normal;text-align:center;text-anchor:middle;fill:#ffffff;font-family:CodiceBianco;-inkscape-font-specification:CodiceBianco"
           id="path3014" />
        <path
           d="m -1552.1539,-2144.0554 c -2e-4,45.4644 -12.2589,78.7822 -36.7761,99.9535 -17.6078,15.1526 -38.5547,22.7288 -62.8408,22.7288 -23.8442,0 -44.6823,-7.7973 -62.5143,-23.3919 -24.293,-21.6201 -36.4395,-54.8257 -36.4395,-99.6169 0,-47.4704 12.8164,-81.5669 38.4492,-102.2896 16.9343,-13.8193 37.1025,-20.7291 60.5046,-20.7293 23.1775,2e-4 43.4579,7.2432 60.8413,21.729 25.8502,21.396 38.7754,55.2681 38.7756,101.6164 z m -99.2904,77.2247 c 32.9844,1e-4 49.4767,-26.5202 49.4769,-79.5609 -2e-4,-51.0341 -16.1558,-76.5512 -48.467,-76.5514 -33.6511,2e-4 -50.4767,25.6295 -50.4766,76.8881 -10e-5,52.8162 16.4888,79.2243 49.4667,79.2242 z"
           style="font-variant:normal;font-stretch:normal;text-align:center;text-anchor:middle;fill:#ffffff;font-family:CodiceBianco;-inkscape-font-specification:CodiceBianco"
           id="path3016" />
      </g>
    </g>
  </g>
</svg>
